<?xml version="1.0" encoding="UTF-8" standalone="no"?>
<!DOCTYPE svg PUBLIC "-//W3C//DTD SVG 1.1//EN"
 "http://www.w3.org/Graphics/SVG/1.1/DTD/svg11.dtd">
<!-- Generated by graphviz version 2.49.3 (20211027.1534)
 -->
<!-- Title: arduino.h Pages: 1 -->
<svg width="162pt" height="84pt"
 viewBox="0.00 0.00 161.50 84.00" xmlns="http://www.w3.org/2000/svg" xmlns:xlink="http://www.w3.org/1999/xlink">
<g id="graph0" class="graph" transform="scale(1 1) rotate(0) translate(4 80)">
<title>arduino.h</title>
<polygon fill="white" stroke="transparent" points="-4,4 -4,-80 157.5,-80 157.5,4 -4,4"/>
<!-- Node1 -->
<g id="node1" class="node">
<title>Node1</title>
<g id="a_node1"><a xlink:title=" ">
<polygon fill="#bfbfbf" stroke="black" points="48,-56.5 48,-75.5 104,-75.5 104,-56.5 48,-56.5"/>
<text text-anchor="middle" x="76" y="-63.5" font-family="Helvetica,sans-Serif" font-size="10.00">arduino.h</text>
</a>
</g>
</g>
<!-- Node2 -->
<g id="node2" class="node">
<title>Node2</title>
<g id="a_node2"><a xlink:href="arduino_8cpp.html" target="_top" xlink:title=" ">
<polygon fill="white" stroke="black" points="0,-0.5 0,-19.5 66,-19.5 66,-0.5 0,-0.5"/>
<text text-anchor="middle" x="33" y="-7.5" font-family="Helvetica,sans-Serif" font-size="10.00">arduino.cpp</text>
</a>
</g>
</g>
<!-- Node1&#45;&gt;Node2 -->
<g id="edge1" class="edge">
<title>Node1&#45;&gt;Node2</title>
<path fill="none" stroke="midnightblue" d="M62.58,-48.14C55.09,-38.74 46.06,-27.4 39.97,-19.75"/>
<polygon fill="midnightblue" stroke="midnightblue" points="59.93,-50.44 68.9,-56.08 65.41,-46.08 59.93,-50.44"/>
</g>
<!-- Node3 -->
<g id="node3" class="node">
<title>Node3</title>
<g id="a_node3"><a xlink:href="connect_8cpp.html" target="_top" xlink:title=" ">
<polygon fill="white" stroke="black" points="84.5,-0.5 84.5,-19.5 153.5,-19.5 153.5,-0.5 84.5,-0.5"/>
<text text-anchor="middle" x="119" y="-7.5" font-family="Helvetica,sans-Serif" font-size="10.00">connect.cpp</text>
</a>
</g>
</g>
<!-- Node1&#45;&gt;Node3 -->
<g id="edge2" class="edge">
<title>Node1&#45;&gt;Node3</title>
<path fill="none" stroke="midnightblue" d="M89.42,-48.14C96.91,-38.74 105.94,-27.4 112.03,-19.75"/>
<polygon fill="midnightblue" stroke="midnightblue" points="86.59,-46.08 83.1,-56.08 92.07,-50.44 86.59,-46.08"/>
</g>
</g>
</svg>
