<?xml version="1.0" encoding="UTF-8" standalone="no"?>
<!DOCTYPE svg PUBLIC "-//W3C//DTD SVG 1.1//EN"
 "http://www.w3.org/Graphics/SVG/1.1/DTD/svg11.dtd">
<!-- Generated by graphviz version 2.49.3 (20211027.1534)
 -->
<!-- Title: arduino.cpp Pages: 1 -->
<svg width="818pt" height="196pt"
 viewBox="0.00 0.00 818.00 196.00" xmlns="http://www.w3.org/2000/svg" xmlns:xlink="http://www.w3.org/1999/xlink">
<g id="graph0" class="graph" transform="scale(1 1) rotate(0) translate(4 192)">
<title>arduino.cpp</title>
<polygon fill="white" stroke="transparent" points="-4,4 -4,-192 814,-192 814,4 -4,4"/>
<!-- Node1 -->
<g id="node1" class="node">
<title>Node1</title>
<g id="a_node1"><a xlink:title=" ">
<polygon fill="#bfbfbf" stroke="black" points="366.5,-168.5 366.5,-187.5 432.5,-187.5 432.5,-168.5 366.5,-168.5"/>
<text text-anchor="middle" x="399.5" y="-175.5" font-family="Helvetica,sans-Serif" font-size="10.00">arduino.cpp</text>
</a>
</g>
</g>
<!-- Node2 -->
<g id="node2" class="node">
<title>Node2</title>
<g id="a_node2"><a xlink:href="arduino_8h.html" target="_top" xlink:title=" ">
<polygon fill="white" stroke="black" points="37.5,-112.5 37.5,-131.5 93.5,-131.5 93.5,-112.5 37.5,-112.5"/>
<text text-anchor="middle" x="65.5" y="-119.5" font-family="Helvetica,sans-Serif" font-size="10.00">arduino.h</text>
</a>
</g>
</g>
<!-- Node1&#45;&gt;Node2 -->
<g id="edge1" class="edge">
<title>Node1&#45;&gt;Node2</title>
<path fill="none" stroke="midnightblue" d="M366.25,-171.62C303.92,-161.55 169.83,-139.87 103.81,-129.19"/>
<polygon fill="midnightblue" stroke="midnightblue" points="104.25,-125.72 93.82,-127.58 103.14,-132.63 104.25,-125.72"/>
</g>
<!-- Node5 -->
<g id="node5" class="node">
<title>Node5</title>
<g id="a_node5"><a xlink:href="dashboard_8h.html" target="_top" xlink:title=" ">
<polygon fill="white" stroke="black" points="143,-112.5 143,-131.5 212,-131.5 212,-112.5 143,-112.5"/>
<text text-anchor="middle" x="177.5" y="-119.5" font-family="Helvetica,sans-Serif" font-size="10.00">dashboard.h</text>
</a>
</g>
</g>
<!-- Node1&#45;&gt;Node5 -->
<g id="edge4" class="edge">
<title>Node1&#45;&gt;Node5</title>
<path fill="none" stroke="midnightblue" d="M366.26,-168.92C327.85,-159.57 264.48,-144.16 221.88,-133.8"/>
<polygon fill="midnightblue" stroke="midnightblue" points="222.6,-130.37 212.06,-131.41 220.95,-137.17 222.6,-130.37"/>
</g>
<!-- Node8 -->
<g id="node8" class="node">
<title>Node8</title>
<g id="a_node8"><a xlink:href="connect_8h.html" target="_top" xlink:title=" ">
<polygon fill="white" stroke="black" points="370,-112.5 370,-131.5 429,-131.5 429,-112.5 370,-112.5"/>
<text text-anchor="middle" x="399.5" y="-119.5" font-family="Helvetica,sans-Serif" font-size="10.00">connect.h</text>
</a>
</g>
</g>
<!-- Node1&#45;&gt;Node8 -->
<g id="edge7" class="edge">
<title>Node1&#45;&gt;Node8</title>
<path fill="none" stroke="midnightblue" d="M399.5,-168.08C399.5,-161.01 399.5,-150.86 399.5,-141.99"/>
<polygon fill="midnightblue" stroke="midnightblue" points="403,-141.75 399.5,-131.75 396,-141.75 403,-141.75"/>
</g>
<!-- Node17 -->
<g id="node17" class="node">
<title>Node17</title>
<g id="a_node17"><a xlink:title=" ">
<polygon fill="white" stroke="#bfbfbf" points="447.5,-112.5 447.5,-131.5 499.5,-131.5 499.5,-112.5 447.5,-112.5"/>
<text text-anchor="middle" x="473.5" y="-119.5" font-family="Helvetica,sans-Serif" font-size="10.00">QDebug</text>
</a>
</g>
</g>
<!-- Node1&#45;&gt;Node17 -->
<g id="edge19" class="edge">
<title>Node1&#45;&gt;Node17</title>
<path fill="none" stroke="midnightblue" d="M411.39,-168.32C422.65,-160.11 439.79,-147.6 453.21,-137.81"/>
<polygon fill="midnightblue" stroke="midnightblue" points="455.38,-140.56 461.39,-131.83 451.25,-134.9 455.38,-140.56"/>
</g>
<!-- Node18 -->
<g id="node18" class="node">
<title>Node18</title>
<g id="a_node18"><a xlink:title=" ">
<polygon fill="white" stroke="#bfbfbf" points="518,-112.5 518,-131.5 619,-131.5 619,-112.5 518,-112.5"/>
<text text-anchor="middle" x="568.5" y="-119.5" font-family="Helvetica,sans-Serif" font-size="10.00">QByteArrayMatcher</text>
</a>
</g>
</g>
<!-- Node1&#45;&gt;Node18 -->
<g id="edge20" class="edge">
<title>Node1&#45;&gt;Node18</title>
<path fill="none" stroke="midnightblue" d="M426.28,-168.44C454.83,-159.32 500.23,-144.81 532.04,-134.65"/>
<polygon fill="midnightblue" stroke="midnightblue" points="533.39,-137.89 541.85,-131.52 531.26,-131.23 533.39,-137.89"/>
</g>
<!-- Node3 -->
<g id="node3" class="node">
<title>Node3</title>
<g id="a_node3"><a xlink:href="serialport_8h.html" target="_top" xlink:title=" ">
<polygon fill="white" stroke="black" points="1.5,-56.5 1.5,-75.5 65.5,-75.5 65.5,-56.5 1.5,-56.5"/>
<text text-anchor="middle" x="33.5" y="-63.5" font-family="Helvetica,sans-Serif" font-size="10.00">serialport.h</text>
</a>
</g>
</g>
<!-- Node2&#45;&gt;Node3 -->
<g id="edge2" class="edge">
<title>Node2&#45;&gt;Node3</title>
<path fill="none" stroke="midnightblue" d="M60.22,-112.08C55.79,-104.61 49.34,-93.72 43.88,-84.52"/>
<polygon fill="midnightblue" stroke="midnightblue" points="46.79,-82.57 38.69,-75.75 40.77,-86.14 46.79,-82.57"/>
</g>
<!-- Node4 -->
<g id="node4" class="node">
<title>Node4</title>
<g id="a_node4"><a xlink:title=" ">
<polygon fill="white" stroke="#bfbfbf" points="0,-0.5 0,-19.5 67,-19.5 67,-0.5 0,-0.5"/>
<text text-anchor="middle" x="33.5" y="-7.5" font-family="Helvetica,sans-Serif" font-size="10.00">QSerialPort</text>
</a>
</g>
</g>
<!-- Node3&#45;&gt;Node4 -->
<g id="edge3" class="edge">
<title>Node3&#45;&gt;Node4</title>
<path fill="none" stroke="midnightblue" d="M33.5,-56.08C33.5,-49.01 33.5,-38.86 33.5,-29.99"/>
<polygon fill="midnightblue" stroke="midnightblue" points="37,-29.75 33.5,-19.75 30,-29.75 37,-29.75"/>
</g>
<!-- Node6 -->
<g id="node6" class="node">
<title>Node6</title>
<g id="a_node6"><a xlink:title=" ">
<polygon fill="white" stroke="#bfbfbf" points="83.5,-56.5 83.5,-75.5 149.5,-75.5 149.5,-56.5 83.5,-56.5"/>
<text text-anchor="middle" x="116.5" y="-63.5" font-family="Helvetica,sans-Serif" font-size="10.00">QStringList</text>
</a>
</g>
</g>
<!-- Node5&#45;&gt;Node6 -->
<g id="edge5" class="edge">
<title>Node5&#45;&gt;Node6</title>
<path fill="none" stroke="midnightblue" d="M167.7,-112.32C158.68,-104.34 145.09,-92.31 134.18,-82.65"/>
<polygon fill="midnightblue" stroke="midnightblue" points="136.29,-79.84 126.48,-75.83 131.65,-85.08 136.29,-79.84"/>
</g>
<!-- Node7 -->
<g id="node7" class="node">
<title>Node7</title>
<g id="a_node7"><a xlink:title=" ">
<polygon fill="white" stroke="#bfbfbf" points="183,-0.5 183,-19.5 236,-19.5 236,-0.5 183,-0.5"/>
<text text-anchor="middle" x="209.5" y="-7.5" font-family="Helvetica,sans-Serif" font-size="10.00">QObject</text>
</a>
</g>
</g>
<!-- Node5&#45;&gt;Node7 -->
<g id="edge6" class="edge">
<title>Node5&#45;&gt;Node7</title>
<path fill="none" stroke="midnightblue" d="M180.01,-112.37C185.2,-94.54 197.2,-53.3 204.18,-29.27"/>
<polygon fill="midnightblue" stroke="midnightblue" points="207.57,-30.17 207,-19.59 200.85,-28.22 207.57,-30.17"/>
</g>
<!-- Node8&#45;&gt;Node7 -->
<g id="edge9" class="edge">
<title>Node8&#45;&gt;Node7</title>
<path fill="none" stroke="midnightblue" d="M369.78,-120.69C333.49,-118.74 272.28,-110.15 234.5,-76 221.21,-63.98 214.92,-44.09 211.99,-29.47"/>
<polygon fill="midnightblue" stroke="midnightblue" points="215.43,-28.83 210.34,-19.54 208.53,-29.98 215.43,-28.83"/>
</g>
<!-- Node9 -->
<g id="node9" class="node">
<title>Node9</title>
<g id="a_node9"><a xlink:title=" ">
<polygon fill="white" stroke="#bfbfbf" points="338,-56.5 338,-75.5 461,-75.5 461,-56.5 338,-56.5"/>
<text text-anchor="middle" x="399.5" y="-63.5" font-family="Helvetica,sans-Serif" font-size="10.00">QtSerialPort/QSerialPort</text>
</a>
</g>
</g>
<!-- Node8&#45;&gt;Node9 -->
<g id="edge8" class="edge">
<title>Node8&#45;&gt;Node9</title>
<path fill="none" stroke="midnightblue" d="M399.5,-112.08C399.5,-105.01 399.5,-94.86 399.5,-85.99"/>
<polygon fill="midnightblue" stroke="midnightblue" points="403,-85.75 399.5,-75.75 396,-85.75 403,-85.75"/>
</g>
<!-- Node10 -->
<g id="node10" class="node">
<title>Node10</title>
<g id="a_node10"><a xlink:title=" ">
<polygon fill="white" stroke="#bfbfbf" points="479,-56.5 479,-75.5 576,-75.5 576,-56.5 479,-56.5"/>
<text text-anchor="middle" x="527.5" y="-63.5" font-family="Helvetica,sans-Serif" font-size="10.00">QModbusDataUnit</text>
</a>
</g>
</g>
<!-- Node8&#45;&gt;Node10 -->
<g id="edge10" class="edge">
<title>Node8&#45;&gt;Node10</title>
<path fill="none" stroke="midnightblue" d="M419.78,-112.44C440.85,-103.56 474.02,-89.56 497.99,-79.45"/>
<polygon fill="midnightblue" stroke="midnightblue" points="499.46,-82.63 507.31,-75.52 496.74,-76.18 499.46,-82.63"/>
</g>
<!-- Node11 -->
<g id="node11" class="node">
<title>Node11</title>
<g id="a_node11"><a xlink:title=" ">
<polygon fill="white" stroke="#bfbfbf" points="485,-0.5 485,-19.5 534,-19.5 534,-0.5 485,-0.5"/>
<text text-anchor="middle" x="509.5" y="-7.5" font-family="Helvetica,sans-Serif" font-size="10.00">QTimer</text>
</a>
</g>
</g>
<!-- Node8&#45;&gt;Node11 -->
<g id="edge11" class="edge">
<title>Node8&#45;&gt;Node11</title>
<path fill="none" stroke="midnightblue" d="M429.15,-114.07C481.34,-101.84 584.27,-77.56 585.5,-76 602.12,-54.89 570.87,-35.55 543.56,-23.55"/>
<polygon fill="midnightblue" stroke="midnightblue" points="544.72,-20.24 534.14,-19.62 542.03,-26.7 544.72,-20.24"/>
</g>
<!-- Node12 -->
<g id="node12" class="node">
<title>Node12</title>
<g id="a_node12"><a xlink:title=" ">
<polygon fill="white" stroke="#bfbfbf" points="632.5,-56.5 632.5,-75.5 692.5,-75.5 692.5,-56.5 632.5,-56.5"/>
<text text-anchor="middle" x="662.5" y="-63.5" font-family="Helvetica,sans-Serif" font-size="10.00">QProcess</text>
</a>
</g>
</g>
<!-- Node8&#45;&gt;Node12 -->
<g id="edge12" class="edge">
<title>Node8&#45;&gt;Node12</title>
<path fill="none" stroke="midnightblue" d="M429.29,-114.03C432.4,-113.33 435.51,-112.64 438.5,-112 518.26,-94.83 538.54,-92.17 618.5,-76 619.75,-75.75 621.01,-75.49 622.29,-75.23"/>
<polygon fill="midnightblue" stroke="midnightblue" points="623.11,-78.64 632.21,-73.21 621.71,-71.78 623.11,-78.64"/>
</g>
<!-- Node13 -->
<g id="node13" class="node">
<title>Node13</title>
<g id="a_node13"><a xlink:href="calculations_8h.html" target="_top" xlink:title=" ">
<polygon fill="white" stroke="black" points="243.5,-56.5 243.5,-75.5 319.5,-75.5 319.5,-56.5 243.5,-56.5"/>
<text text-anchor="middle" x="281.5" y="-63.5" font-family="Helvetica,sans-Serif" font-size="10.00">calculations.h</text>
</a>
</g>
</g>
<!-- Node8&#45;&gt;Node13 -->
<g id="edge13" class="edge">
<title>Node8&#45;&gt;Node13</title>
<path fill="none" stroke="midnightblue" d="M380.8,-112.44C361.56,-103.64 331.35,-89.81 309.3,-79.72"/>
<polygon fill="midnightblue" stroke="midnightblue" points="310.66,-76.5 300.11,-75.52 307.75,-82.86 310.66,-76.5"/>
</g>
<!-- Node16 -->
<g id="node16" class="node">
<title>Node16</title>
<g id="a_node16"><a xlink:title=" ">
<polygon fill="white" stroke="#bfbfbf" points="711,-56.5 711,-75.5 810,-75.5 810,-56.5 711,-56.5"/>
<text text-anchor="middle" x="760.5" y="-63.5" font-family="Helvetica,sans-Serif" font-size="10.00">QFileSystemModel</text>
</a>
</g>
</g>
<!-- Node8&#45;&gt;Node16 -->
<g id="edge18" class="edge">
<title>Node8&#45;&gt;Node16</title>
<path fill="none" stroke="midnightblue" d="M429.25,-113.84C432.37,-113.18 435.49,-112.55 438.5,-112 551.37,-91.3 583.02,-92.79 700.79,-76.07"/>
<polygon fill="midnightblue" stroke="midnightblue" points="701.53,-79.5 710.93,-74.62 700.54,-72.57 701.53,-79.5"/>
</g>
<!-- Node13&#45;&gt;Node7 -->
<g id="edge15" class="edge">
<title>Node13&#45;&gt;Node7</title>
<path fill="none" stroke="midnightblue" d="M269.93,-56.32C259.08,-48.18 242.62,-35.84 229.62,-26.09"/>
<polygon fill="midnightblue" stroke="midnightblue" points="231.38,-23.03 221.28,-19.83 227.18,-28.63 231.38,-23.03"/>
</g>
<!-- Node13&#45;&gt;Node11 -->
<g id="edge17" class="edge">
<title>Node13&#45;&gt;Node11</title>
<path fill="none" stroke="midnightblue" d="M317.63,-56.44C360.78,-46.22 432.45,-29.25 474.91,-19.19"/>
<polygon fill="midnightblue" stroke="midnightblue" points="475.86,-22.56 484.78,-16.85 474.25,-15.75 475.86,-22.56"/>
</g>
<!-- Node14 -->
<g id="node14" class="node">
<title>Node14</title>
<g id="a_node14"><a xlink:title=" ">
<polygon fill="white" stroke="#bfbfbf" points="254.5,-0.5 254.5,-19.5 308.5,-19.5 308.5,-0.5 254.5,-0.5"/>
<text text-anchor="middle" x="281.5" y="-7.5" font-family="Helvetica,sans-Serif" font-size="10.00">QThread</text>
</a>
</g>
</g>
<!-- Node13&#45;&gt;Node14 -->
<g id="edge14" class="edge">
<title>Node13&#45;&gt;Node14</title>
<path fill="none" stroke="midnightblue" d="M281.5,-56.08C281.5,-49.01 281.5,-38.86 281.5,-29.99"/>
<polygon fill="midnightblue" stroke="midnightblue" points="285,-29.75 281.5,-19.75 278,-29.75 285,-29.75"/>
</g>
<!-- Node15 -->
<g id="node15" class="node">
<title>Node15</title>
<g id="a_node15"><a xlink:title=" ">
<polygon fill="white" stroke="#bfbfbf" points="326.5,-0.5 326.5,-19.5 372.5,-19.5 372.5,-0.5 326.5,-0.5"/>
<text text-anchor="middle" x="349.5" y="-7.5" font-family="Helvetica,sans-Serif" font-size="10.00">QTime</text>
</a>
</g>
</g>
<!-- Node13&#45;&gt;Node15 -->
<g id="edge16" class="edge">
<title>Node13&#45;&gt;Node15</title>
<path fill="none" stroke="midnightblue" d="M292.43,-56.32C302.67,-48.18 318.22,-35.84 330.5,-26.09"/>
<polygon fill="midnightblue" stroke="midnightblue" points="332.72,-28.79 338.38,-19.83 328.37,-23.31 332.72,-28.79"/>
</g>
</g>
</svg>
