<?xml version="1.0" encoding="UTF-8" standalone="no"?>
<!DOCTYPE svg PUBLIC "-//W3C//DTD SVG 1.1//EN"
 "http://www.w3.org/Graphics/SVG/1.1/DTD/svg11.dtd">
<!-- Generated by graphviz version 2.49.3 (20211027.1534)
 -->
<!-- Title: calculations.h Pages: 1 -->
<svg width="693pt" height="140pt"
 viewBox="0.00 0.00 693.00 140.00" xmlns="http://www.w3.org/2000/svg" xmlns:xlink="http://www.w3.org/1999/xlink">
<g id="graph0" class="graph" transform="scale(1 1) rotate(0) translate(4 136)">
<title>calculations.h</title>
<polygon fill="white" stroke="transparent" points="-4,4 -4,-136 689,-136 689,4 -4,4"/>
<!-- Node1 -->
<g id="node1" class="node">
<title>Node1</title>
<g id="a_node1"><a xlink:title=" ">
<polygon fill="#bfbfbf" stroke="black" points="112.5,-112.5 112.5,-131.5 188.5,-131.5 188.5,-112.5 112.5,-112.5"/>
<text text-anchor="middle" x="150.5" y="-119.5" font-family="Helvetica,sans-Serif" font-size="10.00">calculations.h</text>
</a>
</g>
</g>
<!-- Node2 -->
<g id="node2" class="node">
<title>Node2</title>
<g id="a_node2"><a xlink:href="calculations_8cpp.html" target="_top" xlink:title=" ">
<polygon fill="white" stroke="black" points="36.5,-56.5 36.5,-75.5 122.5,-75.5 122.5,-56.5 36.5,-56.5"/>
<text text-anchor="middle" x="79.5" y="-63.5" font-family="Helvetica,sans-Serif" font-size="10.00">calculations.cpp</text>
</a>
</g>
</g>
<!-- Node1&#45;&gt;Node2 -->
<g id="edge1" class="edge">
<title>Node1&#45;&gt;Node2</title>
<path fill="none" stroke="midnightblue" d="M130.91,-106.1C118.13,-96.38 101.89,-84.03 91.11,-75.83"/>
<polygon fill="midnightblue" stroke="midnightblue" points="129.01,-109.06 139.09,-112.32 133.25,-103.48 129.01,-109.06"/>
</g>
<!-- Node3 -->
<g id="node3" class="node">
<title>Node3</title>
<g id="a_node3"><a xlink:href="connect_8cpp.html" target="_top" xlink:title=" ">
<polygon fill="white" stroke="black" points="0,-0.5 0,-19.5 69,-19.5 69,-0.5 0,-0.5"/>
<text text-anchor="middle" x="34.5" y="-7.5" font-family="Helvetica,sans-Serif" font-size="10.00">connect.cpp</text>
</a>
</g>
</g>
<!-- Node1&#45;&gt;Node3 -->
<g id="edge2" class="edge">
<title>Node1&#45;&gt;Node3</title>
<path fill="none" stroke="midnightblue" d="M149.16,-102.28C147.25,-88.11 142.63,-68.94 131.5,-56 115.4,-37.28 89.85,-25.87 69.01,-19.22"/>
<polygon fill="midnightblue" stroke="midnightblue" points="145.69,-102.76 150.18,-112.36 152.65,-102.06 145.69,-102.76"/>
</g>
<!-- Node4 -->
<g id="node4" class="node">
<title>Node4</title>
<g id="a_node4"><a xlink:href="connect_8h.html" target="_top" xlink:title=" ">
<polygon fill="white" stroke="black" points="295,-56.5 295,-75.5 354,-75.5 354,-56.5 295,-56.5"/>
<text text-anchor="middle" x="324.5" y="-63.5" font-family="Helvetica,sans-Serif" font-size="10.00">connect.h</text>
</a>
</g>
</g>
<!-- Node1&#45;&gt;Node4 -->
<g id="edge3" class="edge">
<title>Node1&#45;&gt;Node4</title>
<path fill="none" stroke="midnightblue" d="M187.76,-109.44C220.57,-99.26 267.58,-84.66 297.06,-75.52"/>
<polygon fill="midnightblue" stroke="midnightblue" points="186.58,-106.14 178.07,-112.44 188.66,-112.82 186.58,-106.14"/>
</g>
<!-- Node4&#45;&gt;Node3 -->
<g id="edge7" class="edge">
<title>Node4&#45;&gt;Node3</title>
<path fill="none" stroke="midnightblue" d="M284.65,-58.07C235.77,-49.49 150.43,-34.27 77.5,-20 74.81,-19.47 72.02,-18.92 69.22,-18.35"/>
<polygon fill="midnightblue" stroke="midnightblue" points="284.34,-61.57 294.8,-59.85 285.55,-54.67 284.34,-61.57"/>
</g>
<!-- Node5 -->
<g id="node5" class="node">
<title>Node5</title>
<g id="a_node5"><a xlink:href="AdaptronicSelect_8cpp.html" target="_top" xlink:title=" ">
<polygon fill="white" stroke="black" points="87,-0.5 87,-19.5 196,-19.5 196,-0.5 87,-0.5"/>
<text text-anchor="middle" x="141.5" y="-7.5" font-family="Helvetica,sans-Serif" font-size="10.00">AdaptronicSelect.cpp</text>
</a>
</g>
</g>
<!-- Node4&#45;&gt;Node5 -->
<g id="edge4" class="edge">
<title>Node4&#45;&gt;Node5</title>
<path fill="none" stroke="midnightblue" d="M285.76,-53.57C251.24,-43.38 201.49,-28.7 170.36,-19.52"/>
<polygon fill="midnightblue" stroke="midnightblue" points="284.92,-56.97 295.5,-56.44 286.9,-50.26 284.92,-56.97"/>
</g>
<!-- Node6 -->
<g id="node6" class="node">
<title>Node6</title>
<g id="a_node6"><a xlink:href="Apexi_8cpp.html" target="_top" xlink:title=" ">
<polygon fill="white" stroke="black" points="214,-0.5 214,-19.5 273,-19.5 273,-0.5 214,-0.5"/>
<text text-anchor="middle" x="243.5" y="-7.5" font-family="Helvetica,sans-Serif" font-size="10.00">Apexi.cpp</text>
</a>
</g>
</g>
<!-- Node4&#45;&gt;Node6 -->
<g id="edge5" class="edge">
<title>Node4&#45;&gt;Node6</title>
<path fill="none" stroke="midnightblue" d="M302.93,-50.62C288.14,-40.76 268.99,-27.99 256.48,-19.65"/>
<polygon fill="midnightblue" stroke="midnightblue" points="301.22,-53.69 311.49,-56.32 305.11,-47.86 301.22,-53.69"/>
</g>
<!-- Node7 -->
<g id="node7" class="node">
<title>Node7</title>
<g id="a_node7"><a xlink:href="arduino_8cpp.html" target="_top" xlink:title=" ">
<polygon fill="white" stroke="black" points="291.5,-0.5 291.5,-19.5 357.5,-19.5 357.5,-0.5 291.5,-0.5"/>
<text text-anchor="middle" x="324.5" y="-7.5" font-family="Helvetica,sans-Serif" font-size="10.00">arduino.cpp</text>
</a>
</g>
</g>
<!-- Node4&#45;&gt;Node7 -->
<g id="edge6" class="edge">
<title>Node4&#45;&gt;Node7</title>
<path fill="none" stroke="midnightblue" d="M324.5,-45.8C324.5,-36.91 324.5,-26.78 324.5,-19.75"/>
<polygon fill="midnightblue" stroke="midnightblue" points="321,-46.08 324.5,-56.08 328,-46.08 321,-46.08"/>
</g>
<!-- Node8 -->
<g id="node8" class="node">
<title>Node8</title>
<g id="a_node8"><a xlink:href="gps_8cpp.html" target="_top" xlink:title=" ">
<polygon fill="white" stroke="black" points="375.5,-0.5 375.5,-19.5 425.5,-19.5 425.5,-0.5 375.5,-0.5"/>
<text text-anchor="middle" x="400.5" y="-7.5" font-family="Helvetica,sans-Serif" font-size="10.00">gps.cpp</text>
</a>
</g>
</g>
<!-- Node4&#45;&gt;Node8 -->
<g id="edge8" class="edge">
<title>Node4&#45;&gt;Node8</title>
<path fill="none" stroke="midnightblue" d="M345.08,-50.38C358.81,-40.62 376.43,-28.11 388.07,-19.83"/>
<polygon fill="midnightblue" stroke="midnightblue" points="342.84,-47.68 336.71,-56.32 346.89,-53.38 342.84,-47.68"/>
</g>
<!-- Node9 -->
<g id="node9" class="node">
<title>Node9</title>
<g id="a_node9"><a xlink:href="main_8cpp.html" target="_top" xlink:title=" ">
<polygon fill="white" stroke="black" points="443.5,-0.5 443.5,-19.5 499.5,-19.5 499.5,-0.5 443.5,-0.5"/>
<text text-anchor="middle" x="471.5" y="-7.5" font-family="Helvetica,sans-Serif" font-size="10.00">main.cpp</text>
</a>
</g>
</g>
<!-- Node4&#45;&gt;Node9 -->
<g id="edge9" class="edge">
<title>Node4&#45;&gt;Node9</title>
<path fill="none" stroke="midnightblue" d="M357.42,-52.91C385.06,-42.75 423.84,-28.51 448.32,-19.52"/>
<polygon fill="midnightblue" stroke="midnightblue" points="355.97,-49.71 347.79,-56.44 358.39,-56.28 355.97,-49.71"/>
</g>
<!-- Node10 -->
<g id="node10" class="node">
<title>Node10</title>
<g id="a_node10"><a xlink:href="speedo_8cpp.html" target="_top" xlink:title=" ">
<polygon fill="white" stroke="black" points="517.5,-0.5 517.5,-19.5 583.5,-19.5 583.5,-0.5 517.5,-0.5"/>
<text text-anchor="middle" x="550.5" y="-7.5" font-family="Helvetica,sans-Serif" font-size="10.00">speedo.cpp</text>
</a>
</g>
</g>
<!-- Node4&#45;&gt;Node10 -->
<g id="edge10" class="edge">
<title>Node4&#45;&gt;Node10</title>
<path fill="none" stroke="midnightblue" d="M363.97,-55.57C407.42,-45.19 476.49,-28.68 517.27,-18.94"/>
<polygon fill="midnightblue" stroke="midnightblue" points="362.96,-52.21 354.05,-57.94 364.59,-59.02 362.96,-52.21"/>
</g>
<!-- Node11 -->
<g id="node11" class="node">
<title>Node11</title>
<g id="a_node11"><a xlink:href="wifiscanner_8cpp.html" target="_top" xlink:title=" ">
<polygon fill="white" stroke="black" points="602,-0.5 602,-19.5 685,-19.5 685,-0.5 602,-0.5"/>
<text text-anchor="middle" x="643.5" y="-7.5" font-family="Helvetica,sans-Serif" font-size="10.00">wifiscanner.cpp</text>
</a>
</g>
</g>
<!-- Node4&#45;&gt;Node11 -->
<g id="edge11" class="edge">
<title>Node4&#45;&gt;Node11</title>
<path fill="none" stroke="midnightblue" d="M364.14,-58.45C416.45,-49.78 511.42,-33.96 592.5,-20 595.51,-19.48 598.62,-18.94 601.76,-18.4"/>
<polygon fill="midnightblue" stroke="midnightblue" points="363.55,-55 354.26,-60.09 364.69,-61.91 363.55,-55"/>
</g>
</g>
</svg>
