<?xml version="1.0" encoding="UTF-8" standalone="no"?>
<!DOCTYPE svg PUBLIC "-//W3C//DTD SVG 1.1//EN"
 "http://www.w3.org/Graphics/SVG/1.1/DTD/svg11.dtd">
<!-- Generated by graphviz version 2.49.3 (20211027.1534)
 -->
<!-- Title: calculations::start Pages: 1 -->
<svg width="500pt" height="712pt"
 viewBox="0.00 0.00 500.00 712.00" xmlns="http://www.w3.org/2000/svg" xmlns:xlink="http://www.w3.org/1999/xlink">
<g id="graph0" class="graph" transform="scale(1 1) rotate(0) translate(4 708)">
<title>calculations::start</title>
<polygon fill="white" stroke="transparent" points="-4,4 -4,-708 496,-708 496,4 -4,4"/>
<!-- Node1 -->
<g id="node1" class="node">
<title>Node1</title>
<g id="a_node1"><a xlink:title=" ">
<polygon fill="#bfbfbf" stroke="black" points="0,-342.5 0,-361.5 92,-361.5 92,-342.5 0,-342.5"/>
<text text-anchor="middle" x="46" y="-349.5" font-family="Helvetica,sans-Serif" font-size="10.00">calculations::start</text>
</a>
</g>
</g>
<!-- Node2 -->
<g id="node2" class="node">
<title>Node2</title>
<g id="a_node2"><a xlink:href="classcalculations.html#a3153c50c226f6960fdcf1daa998eba35" target="_top" xlink:title=" ">
<polygon fill="white" stroke="black" points="128,-342.5 128,-361.5 240,-361.5 240,-342.5 128,-342.5"/>
<text text-anchor="middle" x="184" y="-349.5" font-family="Helvetica,sans-Serif" font-size="10.00">calculations::calculate</text>
</a>
</g>
</g>
<!-- Node1&#45;&gt;Node2 -->
<g id="edge1" class="edge">
<title>Node1&#45;&gt;Node2</title>
<path fill="none" stroke="midnightblue" d="M92.29,-352C100.51,-352 109.23,-352 117.88,-352"/>
<polygon fill="midnightblue" stroke="midnightblue" points="117.98,-355.5 127.98,-352 117.98,-348.5 117.98,-355.5"/>
</g>
<!-- Node3 -->
<g id="node3" class="node">
<title>Node3</title>
<g id="a_node3"><a xlink:href="classDashBoard.html#a6ad32cc4ad36add612d02f113e040548" target="_top" xlink:title=" ">
<polygon fill="white" stroke="black" points="310,-684.5 310,-703.5 458,-703.5 458,-684.5 310,-684.5"/>
<text text-anchor="middle" x="384" y="-691.5" font-family="Helvetica,sans-Serif" font-size="10.00">DashBoard::seteightmilespeed</text>
</a>
</g>
</g>
<!-- Node2&#45;&gt;Node3 -->
<g id="edge2" class="edge">
<title>Node2&#45;&gt;Node3</title>
<path fill="none" stroke="midnightblue" d="M186.35,-361.79C193.35,-410.98 226.99,-630.61 276,-675 282.93,-681.28 291.19,-685.84 300,-689.11"/>
<polygon fill="midnightblue" stroke="midnightblue" points="299.16,-692.51 309.75,-692.17 301.26,-685.83 299.16,-692.51"/>
</g>
<!-- Node4 -->
<g id="node4" class="node">
<title>Node4</title>
<g id="a_node4"><a xlink:href="classDashBoard.html#a9ab612fc225c8eff35b9d417055a8a01" target="_top" xlink:title=" ">
<polygon fill="white" stroke="black" points="314,-646.5 314,-665.5 454,-665.5 454,-646.5 314,-646.5"/>
<text text-anchor="middle" x="384" y="-653.5" font-family="Helvetica,sans-Serif" font-size="10.00">DashBoard::seteightmiletime</text>
</a>
</g>
</g>
<!-- Node2&#45;&gt;Node4 -->
<g id="edge3" class="edge">
<title>Node2&#45;&gt;Node4</title>
<path fill="none" stroke="midnightblue" d="M184.8,-361.73C184.51,-402.51 189.22,-561.08 276,-637 284.02,-644.01 293.7,-648.86 303.93,-652.15"/>
<polygon fill="midnightblue" stroke="midnightblue" points="303.3,-655.6 313.86,-654.85 305.13,-648.85 303.3,-655.6"/>
</g>
<!-- Node5 -->
<g id="node5" class="node">
<title>Node5</title>
<g id="a_node5"><a xlink:href="classDashBoard.html#a252d3501e8dbdbdfdbd66d2f7ea8d2bd" target="_top" xlink:title=" ">
<polygon fill="white" stroke="black" points="332,-608.5 332,-627.5 436,-627.5 436,-608.5 332,-608.5"/>
<text text-anchor="middle" x="384" y="-615.5" font-family="Helvetica,sans-Serif" font-size="10.00">DashBoard::setGear</text>
</a>
</g>
</g>
<!-- Node2&#45;&gt;Node5 -->
<g id="edge4" class="edge">
<title>Node2&#45;&gt;Node5</title>
<path fill="none" stroke="midnightblue" d="M185.33,-361.71C187.16,-399.06 199.07,-534.63 276,-599 288.76,-609.68 305.43,-615.25 321.8,-617.98"/>
<polygon fill="midnightblue" stroke="midnightblue" points="321.54,-621.47 331.91,-619.32 322.46,-614.53 321.54,-621.47"/>
</g>
<!-- Node6 -->
<g id="node6" class="node">
<title>Node6</title>
<g id="a_node6"><a xlink:href="classDashBoard.html#a48688ee84ca4f64ad302c0ff98317649" target="_top" xlink:title=" ">
<polygon fill="white" stroke="black" points="308,-570.5 308,-589.5 460,-589.5 460,-570.5 308,-570.5"/>
<text text-anchor="middle" x="384" y="-577.5" font-family="Helvetica,sans-Serif" font-size="10.00">DashBoard::setGearCalculation</text>
</a>
</g>
</g>
<!-- Node2&#45;&gt;Node6 -->
<g id="edge5" class="edge">
<title>Node2&#45;&gt;Node6</title>
<path fill="none" stroke="midnightblue" d="M186.06,-361.84C190.24,-395.66 208.89,-508.05 276,-561 282.65,-566.25 290.27,-570.24 298.3,-573.26"/>
<polygon fill="midnightblue" stroke="midnightblue" points="297.29,-576.61 307.89,-576.36 299.45,-569.95 297.29,-576.61"/>
</g>
<!-- Node7 -->
<g id="node7" class="node">
<title>Node7</title>
<g id="a_node7"><a xlink:href="classDashBoard.html#ad5b27eaba7981c8306f82e82747f94c0" target="_top" xlink:title=" ">
<polygon fill="white" stroke="black" points="287,-532.5 287,-551.5 481,-551.5 481,-532.5 287,-532.5"/>
<text text-anchor="middle" x="384" y="-539.5" font-family="Helvetica,sans-Serif" font-size="10.00">DashBoard::sethundredtotwohundredtime</text>
</a>
</g>
</g>
<!-- Node2&#45;&gt;Node7 -->
<g id="edge6" class="edge">
<title>Node2&#45;&gt;Node7</title>
<path fill="none" stroke="midnightblue" d="M187.03,-361.7C193.77,-391.32 218.34,-481.07 276,-523 278.51,-524.83 281.15,-526.5 283.87,-528.03"/>
<polygon fill="midnightblue" stroke="midnightblue" points="282.34,-531.17 292.87,-532.43 285.42,-524.89 282.34,-531.17"/>
</g>
<!-- Node8 -->
<g id="node8" class="node">
<title>Node8</title>
<g id="a_node8"><a xlink:href="classDashBoard.html#af9e7386167d831b5fc637554a5f8e47a" target="_top" xlink:title=" ">
<polygon fill="white" stroke="black" points="333.5,-494.5 333.5,-513.5 434.5,-513.5 434.5,-494.5 333.5,-494.5"/>
<text text-anchor="middle" x="384" y="-501.5" font-family="Helvetica,sans-Serif" font-size="10.00">DashBoard::setOdo</text>
</a>
</g>
</g>
<!-- Node2&#45;&gt;Node8 -->
<g id="edge7" class="edge">
<title>Node2&#45;&gt;Node8</title>
<path fill="none" stroke="midnightblue" d="M188.52,-361.66C198.16,-386.67 227.58,-453.74 276,-485 289.98,-494.02 307.03,-499.09 323.37,-501.84"/>
<polygon fill="midnightblue" stroke="midnightblue" points="323.02,-505.33 333.42,-503.28 324.01,-498.4 323.02,-505.33"/>
</g>
<!-- Node9 -->
<g id="node9" class="node">
<title>Node9</title>
<g id="a_node9"><a xlink:href="classDashBoard.html#a6819aee7d895ad987fdc813811fd789a" target="_top" xlink:title=" ">
<polygon fill="white" stroke="black" points="329,-456.5 329,-475.5 439,-475.5 439,-456.5 329,-456.5"/>
<text text-anchor="middle" x="384" y="-463.5" font-family="Helvetica,sans-Serif" font-size="10.00">DashBoard::setPower</text>
</a>
</g>
</g>
<!-- Node2&#45;&gt;Node9 -->
<g id="edge8" class="edge">
<title>Node2&#45;&gt;Node9</title>
<path fill="none" stroke="midnightblue" d="M191.15,-361.73C204.16,-381.41 236.53,-425.88 276,-447 289.04,-453.98 304.13,-458.47 318.79,-461.33"/>
<polygon fill="midnightblue" stroke="midnightblue" points="318.39,-464.81 328.84,-463.07 319.59,-457.92 318.39,-464.81"/>
</g>
<!-- Node10 -->
<g id="node10" class="node">
<title>Node10</title>
<g id="a_node10"><a xlink:href="classDashBoard.html#a40729a5446cd7007ab12c9b9416b6f9f" target="_top" xlink:title=" ">
<polygon fill="white" stroke="black" points="305.5,-418.5 305.5,-437.5 462.5,-437.5 462.5,-418.5 305.5,-418.5"/>
<text text-anchor="middle" x="384" y="-425.5" font-family="Helvetica,sans-Serif" font-size="10.00">DashBoard::setquartermilespeed</text>
</a>
</g>
</g>
<!-- Node2&#45;&gt;Node10 -->
<g id="edge9" class="edge">
<title>Node2&#45;&gt;Node10</title>
<path fill="none" stroke="midnightblue" d="M196.85,-361.55C213.49,-374.43 245.21,-397.14 276,-409 283.12,-411.74 290.66,-414.09 298.31,-416.1"/>
<polygon fill="midnightblue" stroke="midnightblue" points="297.48,-419.51 308.03,-418.48 299.14,-412.71 297.48,-419.51"/>
</g>
<!-- Node11 -->
<g id="node11" class="node">
<title>Node11</title>
<g id="a_node11"><a xlink:href="classDashBoard.html#a44b92f3554fe8ad70e1d515c2b0ddd33" target="_top" xlink:title=" ">
<polygon fill="white" stroke="black" points="309.5,-380.5 309.5,-399.5 458.5,-399.5 458.5,-380.5 309.5,-380.5"/>
<text text-anchor="middle" x="384" y="-387.5" font-family="Helvetica,sans-Serif" font-size="10.00">DashBoard::setquartermiletime</text>
</a>
</g>
</g>
<!-- Node2&#45;&gt;Node11 -->
<g id="edge10" class="edge">
<title>Node2&#45;&gt;Node11</title>
<path fill="none" stroke="midnightblue" d="M229.38,-361.55C244.19,-364.66 260.79,-368.06 276,-371 289.42,-373.59 303.8,-376.24 317.54,-378.7"/>
<polygon fill="midnightblue" stroke="midnightblue" points="316.95,-382.15 327.41,-380.46 318.17,-375.26 316.95,-382.15"/>
</g>
<!-- Node12 -->
<g id="node12" class="node">
<title>Node12</title>
<g id="a_node12"><a xlink:href="classDashBoard.html#af7d691d9a394e601b8e87e0a3069f6ec" target="_top" xlink:title=" ">
<polygon fill="white" stroke="black" points="311.5,-342.5 311.5,-361.5 456.5,-361.5 456.5,-342.5 311.5,-342.5"/>
<text text-anchor="middle" x="384" y="-349.5" font-family="Helvetica,sans-Serif" font-size="10.00">DashBoard::setsixtyfootspeed</text>
</a>
</g>
</g>
<!-- Node2&#45;&gt;Node12 -->
<g id="edge11" class="edge">
<title>Node2&#45;&gt;Node12</title>
<path fill="none" stroke="midnightblue" d="M240.15,-352C259.13,-352 280.81,-352 301.44,-352"/>
<polygon fill="midnightblue" stroke="midnightblue" points="301.46,-355.5 311.46,-352 301.46,-348.5 301.46,-355.5"/>
</g>
<!-- Node13 -->
<g id="node13" class="node">
<title>Node13</title>
<g id="a_node13"><a xlink:href="classDashBoard.html#a849f36badc69e3f7d1c31c129199c53e" target="_top" xlink:title=" ">
<polygon fill="white" stroke="black" points="315.5,-304.5 315.5,-323.5 452.5,-323.5 452.5,-304.5 315.5,-304.5"/>
<text text-anchor="middle" x="384" y="-311.5" font-family="Helvetica,sans-Serif" font-size="10.00">DashBoard::setsixtyfoottime</text>
</a>
</g>
</g>
<!-- Node2&#45;&gt;Node13 -->
<g id="edge12" class="edge">
<title>Node2&#45;&gt;Node13</title>
<path fill="none" stroke="midnightblue" d="M229.38,-342.45C244.19,-339.34 260.79,-335.94 276,-333 289.42,-330.41 303.8,-327.76 317.54,-325.3"/>
<polygon fill="midnightblue" stroke="midnightblue" points="318.17,-328.74 327.41,-323.54 316.95,-321.85 318.17,-328.74"/>
</g>
<!-- Node14 -->
<g id="node14" class="node">
<title>Node14</title>
<g id="a_node14"><a xlink:href="classDashBoard.html#addaa92ac0e6bd5148ba686b967a55be1" target="_top" xlink:title=" ">
<polygon fill="white" stroke="black" points="301.5,-266.5 301.5,-285.5 466.5,-285.5 466.5,-266.5 301.5,-266.5"/>
<text text-anchor="middle" x="384" y="-273.5" font-family="Helvetica,sans-Serif" font-size="10.00">DashBoard::setthousandfootspeed</text>
</a>
</g>
</g>
<!-- Node2&#45;&gt;Node14 -->
<g id="edge13" class="edge">
<title>Node2&#45;&gt;Node14</title>
<path fill="none" stroke="midnightblue" d="M196.85,-342.45C213.49,-329.57 245.21,-306.86 276,-295 283.12,-292.26 290.66,-289.91 298.31,-287.9"/>
<polygon fill="midnightblue" stroke="midnightblue" points="299.14,-291.29 308.03,-285.52 297.48,-284.49 299.14,-291.29"/>
</g>
<!-- Node15 -->
<g id="node15" class="node">
<title>Node15</title>
<g id="a_node15"><a xlink:href="classDashBoard.html#add2703a4a902c908d67582236752ff88" target="_top" xlink:title=" ">
<polygon fill="white" stroke="black" points="305,-228.5 305,-247.5 463,-247.5 463,-228.5 305,-228.5"/>
<text text-anchor="middle" x="384" y="-235.5" font-family="Helvetica,sans-Serif" font-size="10.00">DashBoard::setthousandfoottime</text>
</a>
</g>
</g>
<!-- Node2&#45;&gt;Node15 -->
<g id="edge14" class="edge">
<title>Node2&#45;&gt;Node15</title>
<path fill="none" stroke="midnightblue" d="M191.15,-342.27C204.16,-322.59 236.53,-278.12 276,-257 281.98,-253.8 288.39,-251.12 294.99,-248.89"/>
<polygon fill="midnightblue" stroke="midnightblue" points="296.22,-252.17 304.77,-245.92 294.19,-245.48 296.22,-252.17"/>
</g>
<!-- Node16 -->
<g id="node16" class="node">
<title>Node16</title>
<g id="a_node16"><a xlink:href="classDashBoard.html#adc77016315fed2599bbbc136b42f99e7" target="_top" xlink:title=" ">
<polygon fill="white" stroke="black" points="282.5,-190.5 282.5,-209.5 485.5,-209.5 485.5,-190.5 282.5,-190.5"/>
<text text-anchor="middle" x="384" y="-197.5" font-family="Helvetica,sans-Serif" font-size="10.00">DashBoard::setthreehundredthirtyfootspeed</text>
</a>
</g>
</g>
<!-- Node2&#45;&gt;Node16 -->
<g id="edge15" class="edge">
<title>Node2&#45;&gt;Node16</title>
<path fill="none" stroke="midnightblue" d="M188.52,-342.34C198.16,-317.33 227.58,-250.26 276,-219 279.16,-216.96 282.47,-215.13 285.9,-213.47"/>
<polygon fill="midnightblue" stroke="midnightblue" points="287.38,-216.65 295.21,-209.51 284.63,-210.21 287.38,-216.65"/>
</g>
<!-- Node17 -->
<g id="node17" class="node">
<title>Node17</title>
<g id="a_node17"><a xlink:href="classDashBoard.html#a3817b5dd797f83129a96f3720ce1c81a" target="_top" xlink:title=" ">
<polygon fill="white" stroke="black" points="286.5,-152.5 286.5,-171.5 481.5,-171.5 481.5,-152.5 286.5,-152.5"/>
<text text-anchor="middle" x="384" y="-159.5" font-family="Helvetica,sans-Serif" font-size="10.00">DashBoard::setthreehundredthirtyfoottime</text>
</a>
</g>
</g>
<!-- Node2&#45;&gt;Node17 -->
<g id="edge16" class="edge">
<title>Node2&#45;&gt;Node17</title>
<path fill="none" stroke="midnightblue" d="M187.03,-342.3C193.77,-312.68 218.34,-222.93 276,-181 278.51,-179.17 281.15,-177.5 283.87,-175.97"/>
<polygon fill="midnightblue" stroke="midnightblue" points="285.42,-179.11 292.87,-171.57 282.34,-172.83 285.42,-179.11"/>
</g>
<!-- Node18 -->
<g id="node18" class="node">
<title>Node18</title>
<g id="a_node18"><a xlink:href="classDashBoard.html#aae6e2d2387bfa54fb696c0efe476cb03" target="_top" xlink:title=" ">
<polygon fill="white" stroke="black" points="327.5,-114.5 327.5,-133.5 440.5,-133.5 440.5,-114.5 327.5,-114.5"/>
<text text-anchor="middle" x="384" y="-121.5" font-family="Helvetica,sans-Serif" font-size="10.00">DashBoard::setTorque</text>
</a>
</g>
</g>
<!-- Node2&#45;&gt;Node18 -->
<g id="edge17" class="edge">
<title>Node2&#45;&gt;Node18</title>
<path fill="none" stroke="midnightblue" d="M186.06,-342.16C190.24,-308.34 208.89,-195.95 276,-143 287.73,-133.74 302.45,-128.4 317.18,-125.42"/>
<polygon fill="midnightblue" stroke="midnightblue" points="318.06,-128.83 327.35,-123.73 316.91,-121.92 318.06,-128.83"/>
</g>
<!-- Node19 -->
<g id="node19" class="node">
<title>Node19</title>
<g id="a_node19"><a xlink:href="classDashBoard.html#ac2125a0ffb15188bcec84d8e1c2d3ff9" target="_top" xlink:title=" ">
<polygon fill="white" stroke="black" points="334.5,-76.5 334.5,-95.5 433.5,-95.5 433.5,-76.5 334.5,-76.5"/>
<text text-anchor="middle" x="384" y="-83.5" font-family="Helvetica,sans-Serif" font-size="10.00">DashBoard::setTrip</text>
</a>
</g>
</g>
<!-- Node2&#45;&gt;Node19 -->
<g id="edge18" class="edge">
<title>Node2&#45;&gt;Node19</title>
<path fill="none" stroke="midnightblue" d="M185.33,-342.29C187.16,-304.94 199.07,-169.37 276,-105 289.43,-93.77 307.18,-88.18 324.35,-85.62"/>
<polygon fill="midnightblue" stroke="midnightblue" points="324.84,-89.09 334.36,-84.45 324.02,-82.14 324.84,-89.09"/>
</g>
<!-- Node20 -->
<g id="node20" class="node">
<title>Node20</title>
<g id="a_node20"><a xlink:href="classDashBoard.html#a5cdfc4bf52aa970c4035d4bcc2f34f71" target="_top" xlink:title=" ">
<polygon fill="white" stroke="black" points="276,-38.5 276,-57.5 492,-57.5 492,-38.5 276,-38.5"/>
<text text-anchor="middle" x="384" y="-45.5" font-family="Helvetica,sans-Serif" font-size="10.00">DashBoard::settwohundredtothreehundredtime</text>
</a>
</g>
</g>
<!-- Node2&#45;&gt;Node20 -->
<g id="edge19" class="edge">
<title>Node2&#45;&gt;Node20</title>
<path fill="none" stroke="midnightblue" d="M184.8,-342.27C184.51,-301.49 189.22,-142.92 276,-67 277.73,-65.49 279.54,-64.07 281.41,-62.76"/>
<polygon fill="midnightblue" stroke="midnightblue" points="283.27,-65.72 290.02,-57.56 279.65,-59.73 283.27,-65.72"/>
</g>
<!-- Node21 -->
<g id="node21" class="node">
<title>Node21</title>
<g id="a_node21"><a xlink:href="classDashBoard.html#ad5bc00fd95604884d7918347bdc71f35" target="_top" xlink:title=" ">
<polygon fill="white" stroke="black" points="311,-0.5 311,-19.5 457,-19.5 457,-0.5 311,-0.5"/>
<text text-anchor="middle" x="384" y="-7.5" font-family="Helvetica,sans-Serif" font-size="10.00">DashBoard::setzerotohundredt</text>
</a>
</g>
</g>
<!-- Node2&#45;&gt;Node21 -->
<g id="edge20" class="edge">
<title>Node2&#45;&gt;Node21</title>
<path fill="none" stroke="midnightblue" d="M186.35,-342.21C193.35,-293.02 226.99,-73.39 276,-29 283.21,-22.47 291.86,-17.8 301.08,-14.5"/>
<polygon fill="midnightblue" stroke="midnightblue" points="302.29,-17.79 310.85,-11.54 300.27,-11.09 302.29,-17.79"/>
</g>
</g>
</svg>
