<?xml version="1.0" encoding="UTF-8" standalone="no"?>
<!DOCTYPE svg PUBLIC "-//W3C//DTD SVG 1.1//EN"
 "http://www.w3.org/Graphics/SVG/1.1/DTD/svg11.dtd">
<!-- Generated by graphviz version 2.49.3 (20211027.1534)
 -->
<!-- Title: DownloadManager::downloadStatusChanged Pages: 1 -->
<svg width="1049pt" height="81pt"
 viewBox="0.00 0.00 1049.00 80.50" xmlns="http://www.w3.org/2000/svg" xmlns:xlink="http://www.w3.org/1999/xlink">
<g id="graph0" class="graph" transform="scale(1 1) rotate(0) translate(4 76.5)">
<title>DownloadManager::downloadStatusChanged</title>
<polygon fill="white" stroke="transparent" points="-4,4 -4,-76.5 1045,-76.5 1045,4 -4,4"/>
<!-- Node1 -->
<g id="node1" class="node">
<title>Node1</title>
<g id="a_node1"><a xlink:title=" ">
<polygon fill="#bfbfbf" stroke="black" points="898,-0.5 898,-30.5 1041,-30.5 1041,-0.5 898,-0.5"/>
<text text-anchor="start" x="906" y="-18.5" font-family="Helvetica,sans-Serif" font-size="10.00">DownloadManager::download</text>
<text text-anchor="middle" x="969.5" y="-7.5" font-family="Helvetica,sans-Serif" font-size="10.00">StatusChanged</text>
</a>
</g>
</g>
<!-- Node2 -->
<g id="node2" class="node">
<title>Node2</title>
<g id="a_node2"><a xlink:href="classDownloadManager.html#afe821e6eac5970b806896d1eb5abea30" target="_top" xlink:title=" ">
<polygon fill="white" stroke="black" points="704,-0.5 704,-30.5 862,-30.5 862,-0.5 704,-0.5"/>
<text text-anchor="start" x="712" y="-18.5" font-family="Helvetica,sans-Serif" font-size="10.00">DownloadManager::setDownload</text>
<text text-anchor="middle" x="783" y="-7.5" font-family="Helvetica,sans-Serif" font-size="10.00">Status</text>
</a>
</g>
</g>
<!-- Node1&#45;&gt;Node2 -->
<g id="edge1" class="edge">
<title>Node1&#45;&gt;Node2</title>
<path fill="none" stroke="midnightblue" d="M887.71,-15.5C879.24,-15.5 870.63,-15.5 862.19,-15.5"/>
<polygon fill="midnightblue" stroke="midnightblue" points="887.96,-19 897.96,-15.5 887.96,-12 887.96,-19"/>
</g>
<!-- Node3 -->
<g id="node3" class="node">
<title>Node3</title>
<g id="a_node3"><a xlink:href="classDownloadManager.html#ac8c0eab33303a6ce3dcfddf1795cee0c" target="_top" xlink:title=" ">
<polygon fill="white" stroke="black" points="525,-22.5 525,-52.5 668,-52.5 668,-22.5 525,-22.5"/>
<text text-anchor="start" x="533" y="-40.5" font-family="Helvetica,sans-Serif" font-size="10.00">DownloadManager::download</text>
<text text-anchor="middle" x="596.5" y="-29.5" font-family="Helvetica,sans-Serif" font-size="10.00">Progress</text>
</a>
</g>
</g>
<!-- Node2&#45;&gt;Node3 -->
<g id="edge2" class="edge">
<title>Node2&#45;&gt;Node3</title>
<path fill="none" stroke="midnightblue" d="M693.75,-26.02C685.2,-27.04 676.6,-28.07 668.26,-29.06"/>
<polygon fill="midnightblue" stroke="midnightblue" points="694.24,-29.49 703.76,-24.83 693.41,-22.54 694.24,-29.49"/>
</g>
<!-- Node4 -->
<g id="node4" class="node">
<title>Node4</title>
<g id="a_node4"><a xlink:href="classDownloadManager.html#a5b2dc25fef54a4e61b48aa2c64854450" target="_top" xlink:title=" ">
<polygon fill="white" stroke="black" points="348,-0.5 348,-30.5 489,-30.5 489,-0.5 348,-0.5"/>
<text text-anchor="start" x="356" y="-18.5" font-family="Helvetica,sans-Serif" font-size="10.00">DownloadManager::startNext</text>
<text text-anchor="middle" x="418.5" y="-7.5" font-family="Helvetica,sans-Serif" font-size="10.00">Download</text>
</a>
</g>
</g>
<!-- Node2&#45;&gt;Node4 -->
<g id="edge10" class="edge">
<title>Node2&#45;&gt;Node4</title>
<path fill="none" stroke="midnightblue" d="M693.66,-12.95C684.99,-12.76 676.32,-12.61 668,-12.5 604.45,-11.66 588.55,-11.6 525,-12.5 513.37,-12.67 501.01,-12.93 489.01,-13.24"/>
<polygon fill="midnightblue" stroke="midnightblue" points="693.74,-16.45 703.82,-13.17 693.9,-9.45 693.74,-16.45"/>
</g>
<!-- Node3&#45;&gt;Node4 -->
<g id="edge3" class="edge">
<title>Node3&#45;&gt;Node4</title>
<path fill="none" stroke="midnightblue" d="M514.92,-27.43C506.34,-26.36 497.67,-25.27 489.23,-24.22"/>
<polygon fill="midnightblue" stroke="midnightblue" points="514.57,-30.91 524.93,-28.68 515.44,-23.97 514.57,-30.91"/>
</g>
<!-- Node4&#45;&gt;Node4 -->
<g id="edge9" class="edge">
<title>Node4&#45;&gt;Node4</title>
<path fill="none" stroke="midnightblue" d="M449.06,-40.96C445.27,-45.68 435.08,-49 418.5,-49 391.29,-49 381.3,-40.06 388.53,-30.66"/>
<polygon fill="midnightblue" stroke="midnightblue" points="452.54,-40.44 448.47,-30.66 445.55,-40.84 452.54,-40.44"/>
</g>
<!-- Node5 -->
<g id="node5" class="node">
<title>Node5</title>
<g id="a_node5"><a xlink:href="classDownloadManager.html#afa2ecdfa2483d265db87682234f817e5" target="_top" xlink:title=" ">
<polygon fill="white" stroke="black" points="179,-53 179,-72 312,-72 312,-53 179,-53"/>
<text text-anchor="middle" x="245.5" y="-60" font-family="Helvetica,sans-Serif" font-size="10.00">DownloadManager::append</text>
</a>
</g>
</g>
<!-- Node4&#45;&gt;Node5 -->
<g id="edge4" class="edge">
<title>Node4&#45;&gt;Node5</title>
<path fill="none" stroke="midnightblue" d="M353.01,-33.22C328.64,-39.92 301.84,-47.29 281.22,-52.96"/>
<polygon fill="midnightblue" stroke="midnightblue" points="354.21,-36.53 362.92,-30.5 352.35,-29.78 354.21,-36.53"/>
</g>
<!-- Node7 -->
<g id="node7" class="node">
<title>Node7</title>
<g id="a_node7"><a xlink:href="classDownloadManager.html#a3db45b9d3b58f6e6cf7c75a263fb85ce" target="_top" xlink:title=" ">
<polygon fill="white" stroke="black" points="0,-0.5 0,-30.5 143,-30.5 143,-0.5 0,-0.5"/>
<text text-anchor="start" x="8" y="-18.5" font-family="Helvetica,sans-Serif" font-size="10.00">DownloadManager::download</text>
<text text-anchor="middle" x="71.5" y="-7.5" font-family="Helvetica,sans-Serif" font-size="10.00">Finished</text>
</a>
</g>
</g>
<!-- Node4&#45;&gt;Node7 -->
<g id="edge8" class="edge">
<title>Node4&#45;&gt;Node7</title>
<path fill="none" stroke="midnightblue" d="M337.33,-9.7C278.55,-8.36 199.5,-8.44 143.1,-9.93"/>
<polygon fill="midnightblue" stroke="midnightblue" points="337.6,-13.2 347.68,-9.95 337.77,-6.21 337.6,-13.2"/>
</g>
<!-- Node6 -->
<g id="node6" class="node">
<title>Node6</title>
<g id="a_node6"><a xlink:href="classDownloadManager.html#a1173f56ecfa7598b3cd12e30b9dd470c" target="_top" xlink:title=" ">
<polygon fill="white" stroke="black" points="5,-53 5,-72 138,-72 138,-53 5,-53"/>
<text text-anchor="middle" x="71.5" y="-60" font-family="Helvetica,sans-Serif" font-size="10.00">DownloadManager::append</text>
</a>
</g>
</g>
<!-- Node5&#45;&gt;Node6 -->
<g id="edge5" class="edge">
<title>Node5&#45;&gt;Node6</title>
<path fill="none" stroke="midnightblue" d="M168.83,-62.5C158.6,-62.5 148.16,-62.5 138.12,-62.5"/>
<polygon fill="midnightblue" stroke="midnightblue" points="168.98,-66 178.98,-62.5 168.98,-59 168.98,-66"/>
</g>
<!-- Node5&#45;&gt;Node7 -->
<g id="edge6" class="edge">
<title>Node5&#45;&gt;Node7</title>
<path fill="none" stroke="midnightblue" d="M199.91,-50.32C177.82,-44.28 150.94,-36.93 127.57,-30.55"/>
<polygon fill="midnightblue" stroke="midnightblue" points="199.12,-53.73 209.69,-52.99 200.97,-46.98 199.12,-53.73"/>
</g>
<!-- Node7&#45;&gt;Node4 -->
<g id="edge7" class="edge">
<title>Node7&#45;&gt;Node4</title>
<path fill="none" stroke="midnightblue" d="M153.13,-21.31C212.13,-22.64 291.38,-22.56 347.68,-21.05"/>
<polygon fill="midnightblue" stroke="midnightblue" points="153.18,-17.81 143.1,-21.07 153.01,-24.81 153.18,-17.81"/>
</g>
</g>
</svg>
