<?xml version="1.0" encoding="UTF-8" standalone="no"?>
<!DOCTYPE svg PUBLIC "-//W3C//DTD SVG 1.1//EN"
 "http://www.w3.org/Graphics/SVG/1.1/DTD/svg11.dtd">
<!-- Generated by graphviz version 2.49.3 (20211027.1534)
 -->
<!-- Title: Apexi::decodeSensor Pages: 1 -->
<!--zoomable 902 -->
<svg id="main" version="1.1" xmlns="http://www.w3.org/2000/svg" xmlns:xlink="http://www.w3.org/1999/xlink" xml:space="preserve" onload="init(evt)">
<style type="text/css"><![CDATA[
.edge:hover path { stroke: red; }
.edge:hover polygon { stroke: red; fill: red; }
]]></style>
<script type="text/javascript"><![CDATA[
var edges = document.getElementsByTagName('g');
if (edges && edges.length) {
  for (var i=0;i<edges.length;i++) {
    if (edges[i].id.substr(0,4)=='edge') {
      edges[i].setAttribute('class','edge');
    }
  }
}
]]></script>
        <defs>
                <circle id="rim" cx="0" cy="0" r="7"/>
                <circle id="rim2" cx="0" cy="0" r="3.5"/>
                <g id="zoomPlus">
                        <use xlink:href="#rim" fill="#404040">
                                <set attributeName="fill" to="#808080" begin="zoomplus.mouseover" end="zoomplus.mouseout"/>
                        </use>
                        <path d="M-4,0h8M0,-4v8" fill="none" stroke="white" stroke-width="1.5" pointer-events="none"/>
                </g>
                <g id="zoomMin">
                        <use xlink:href="#rim" fill="#404040">
                                <set attributeName="fill" to="#808080" begin="zoomminus.mouseover" end="zoomminus.mouseout"/>
                        </use>
                        <path d="M-4,0h8" fill="none" stroke="white" stroke-width="1.5" pointer-events="none"/>
                </g>
                <g id="dirArrow">
                        <path fill="none" stroke="white" stroke-width="1.5" d="M0,-3.0v7 M-2.5,-0.5L0,-3.0L2.5,-0.5"/>
                </g>
               <g id="resetDef">
                       <use xlink:href="#rim2" fill="#404040">
                               <set attributeName="fill" to="#808080" begin="reset.mouseover" end="reset.mouseout"/>
                       </use>
               </g>
        </defs>

<script type="text/javascript">
var viewWidth = 263;
var viewHeight = 902;
var sectionId = 'dynsection-17';
</script>
<script xlink:href="svgpan.js"/>
<svg id="graph" class="graph">
<g id="viewport">
<title>Apexi::decodeSensor</title>
<polygon fill="white" stroke="transparent" points="-4,4 -4,-898 259,-898 259,4 -4,4"/>
<!-- Node1 -->
<g id="node1" class="node">
<title>Node1</title>
<g id="a_node1"><a xlink:title=" ">
<polygon fill="#bfbfbf" stroke="black" points="0,-437.5 0,-456.5 107,-456.5 107,-437.5 0,-437.5"/>
<text text-anchor="middle" x="53.5" y="-444.5" font-family="Helvetica,sans-Serif" font-size="10.00">Apexi::decodeSensor</text>
</a>
</g>
</g>
<!-- Node2 -->
<g id="node2" class="node">
<title>Node2</title>
<g id="a_node2"><a xlink:href="classDashBoard.html#afb02909b95433887ead0b40f5a02a30e" target="_top" xlink:title=" ">
<polygon fill="white" stroke="black" points="145.5,-874.5 145.5,-893.5 252.5,-893.5 252.5,-874.5 145.5,-874.5"/>
<text text-anchor="middle" x="199" y="-881.5" font-family="Helvetica,sans-Serif" font-size="10.00">DashBoard::setFlag1</text>
</a>
</g>
</g>
<!-- Node1&#45;&gt;Node2 -->
<g id="edge1" class="edge">
<title>Node1&#45;&gt;Node2</title>
<path fill="none" stroke="midnightblue" d="M55.27,-456.71C59.98,-513.36 86.41,-800.92 143,-865 144.17,-866.33 145.44,-867.56 146.79,-868.71"/>
<polygon fill="midnightblue" stroke="midnightblue" points="144.99,-871.72 155.24,-874.39 148.89,-865.91 144.99,-871.72"/>
</g>
<!-- Node3 -->
<g id="node3" class="node">
<title>Node3</title>
<g id="a_node3"><a xlink:href="classDashBoard.html#a4a0e4a1f8968ae1e30662a366fecad83" target="_top" xlink:title=" ">
<polygon fill="white" stroke="black" points="143,-836.5 143,-855.5 255,-855.5 255,-836.5 143,-836.5"/>
<text text-anchor="middle" x="199" y="-843.5" font-family="Helvetica,sans-Serif" font-size="10.00">DashBoard::setFlag10</text>
</a>
</g>
</g>
<!-- Node1&#45;&gt;Node3 -->
<g id="edge2" class="edge">
<title>Node1&#45;&gt;Node3</title>
<path fill="none" stroke="midnightblue" d="M55.48,-456.52C61.1,-509.65 90.96,-769.26 143,-827 144.21,-828.34 145.52,-829.59 146.9,-830.75"/>
<polygon fill="midnightblue" stroke="midnightblue" points="145.31,-833.89 155.59,-836.47 149.16,-828.04 145.31,-833.89"/>
</g>
<!-- Node4 -->
<g id="node4" class="node">
<title>Node4</title>
<g id="a_node4"><a xlink:href="classDashBoard.html#a993c6f32a02876548e95e9e9f2c2771a" target="_top" xlink:title=" ">
<polygon fill="white" stroke="black" points="143,-798.5 143,-817.5 255,-817.5 255,-798.5 143,-798.5"/>
<text text-anchor="middle" x="199" y="-805.5" font-family="Helvetica,sans-Serif" font-size="10.00">DashBoard::setFlag11</text>
</a>
</g>
</g>
<!-- Node1&#45;&gt;Node4 -->
<g id="edge3" class="edge">
<title>Node1&#45;&gt;Node4</title>
<path fill="none" stroke="midnightblue" d="M55.74,-456.54C62.42,-506.49 95.56,-737.64 143,-789 144.23,-790.33 145.55,-791.56 146.95,-792.71"/>
<polygon fill="midnightblue" stroke="midnightblue" points="145.38,-795.87 155.68,-798.39 149.2,-790 145.38,-795.87"/>
</g>
<!-- Node5 -->
<g id="node5" class="node">
<title>Node5</title>
<g id="a_node5"><a xlink:href="classDashBoard.html#ae4588c1aa08ee194a786755690ccbe6c" target="_top" xlink:title=" ">
<polygon fill="white" stroke="black" points="143,-760.5 143,-779.5 255,-779.5 255,-760.5 143,-760.5"/>
<text text-anchor="middle" x="199" y="-767.5" font-family="Helvetica,sans-Serif" font-size="10.00">DashBoard::setFlag12</text>
</a>
</g>
</g>
<!-- Node1&#45;&gt;Node5 -->
<g id="edge4" class="edge">
<title>Node1&#45;&gt;Node5</title>
<path fill="none" stroke="midnightblue" d="M54.32,-456.7C54.08,-498.17 58.68,-662.41 143,-751 144.38,-752.45 145.89,-753.8 147.48,-755.04"/>
<polygon fill="midnightblue" stroke="midnightblue" points="145.73,-758.07 156.06,-760.42 149.45,-752.14 145.73,-758.07"/>
</g>
<!-- Node6 -->
<g id="node6" class="node">
<title>Node6</title>
<g id="a_node6"><a xlink:href="classDashBoard.html#abed5d5ffacb331725215ff8e94dcec40" target="_top" xlink:title=" ">
<polygon fill="white" stroke="black" points="143,-722.5 143,-741.5 255,-741.5 255,-722.5 143,-722.5"/>
<text text-anchor="middle" x="199" y="-729.5" font-family="Helvetica,sans-Serif" font-size="10.00">DashBoard::setFlag13</text>
</a>
</g>
</g>
<!-- Node1&#45;&gt;Node6 -->
<g id="edge5" class="edge">
<title>Node1&#45;&gt;Node6</title>
<path fill="none" stroke="midnightblue" d="M54.78,-456.52C56.42,-494.49 67.55,-636.68 143,-713 144.44,-714.45 145.99,-715.8 147.64,-717.04"/>
<polygon fill="midnightblue" stroke="midnightblue" points="146.11,-720.21 156.47,-722.43 149.76,-714.23 146.11,-720.21"/>
</g>
<!-- Node7 -->
<g id="node7" class="node">
<title>Node7</title>
<g id="a_node7"><a xlink:href="classDashBoard.html#a2c42326ee5c5cba2014f610fcb859f20" target="_top" xlink:title=" ">
<polygon fill="white" stroke="black" points="143,-684.5 143,-703.5 255,-703.5 255,-684.5 143,-684.5"/>
<text text-anchor="middle" x="199" y="-691.5" font-family="Helvetica,sans-Serif" font-size="10.00">DashBoard::setFlag14</text>
</a>
</g>
</g>
<!-- Node1&#45;&gt;Node7 -->
<g id="edge6" class="edge">
<title>Node1&#45;&gt;Node7</title>
<path fill="none" stroke="midnightblue" d="M55.42,-456.81C59.19,-491.7 76.63,-611.08 143,-675 144.63,-676.57 146.39,-678 148.25,-679.32"/>
<polygon fill="midnightblue" stroke="midnightblue" points="146.52,-682.37 156.93,-684.38 150.05,-676.32 146.52,-682.37"/>
</g>
<!-- Node8 -->
<g id="node8" class="node">
<title>Node8</title>
<g id="a_node8"><a xlink:href="classDashBoard.html#aeab831cd3810b6829935c97c9e39d272" target="_top" xlink:title=" ">
<polygon fill="white" stroke="black" points="143,-646.5 143,-665.5 255,-665.5 255,-646.5 143,-646.5"/>
<text text-anchor="middle" x="199" y="-653.5" font-family="Helvetica,sans-Serif" font-size="10.00">DashBoard::setFlag15</text>
</a>
</g>
</g>
<!-- Node1&#45;&gt;Node8 -->
<g id="edge7" class="edge">
<title>Node1&#45;&gt;Node8</title>
<path fill="none" stroke="midnightblue" d="M56.28,-456.89C62.4,-488.03 85.44,-585.1 143,-637 144.74,-638.57 146.61,-640.01 148.58,-641.33"/>
<polygon fill="midnightblue" stroke="midnightblue" points="147.28,-644.61 157.72,-646.4 150.67,-638.48 147.28,-644.61"/>
</g>
<!-- Node9 -->
<g id="node9" class="node">
<title>Node9</title>
<g id="a_node9"><a xlink:href="classDashBoard.html#abdbb9c06a320010527dc8861f38c0be0" target="_top" xlink:title=" ">
<polygon fill="white" stroke="black" points="143,-608.5 143,-627.5 255,-627.5 255,-608.5 143,-608.5"/>
<text text-anchor="middle" x="199" y="-615.5" font-family="Helvetica,sans-Serif" font-size="10.00">DashBoard::setFlag16</text>
</a>
</g>
</g>
<!-- Node1&#45;&gt;Node9 -->
<g id="edge8" class="edge">
<title>Node1&#45;&gt;Node9</title>
<path fill="none" stroke="midnightblue" d="M57.49,-456.77C66.18,-483.53 93.94,-558.66 143,-599 145.05,-600.68 147.26,-602.22 149.57,-603.63"/>
<polygon fill="midnightblue" stroke="midnightblue" points="148.39,-606.96 158.88,-608.41 151.58,-600.73 148.39,-606.96"/>
</g>
<!-- Node10 -->
<g id="node10" class="node">
<title>Node10</title>
<g id="a_node10"><a xlink:href="classDashBoard.html#a8c6fb0fadd60c1115cedda3abcd25f1f" target="_top" xlink:title=" ">
<polygon fill="white" stroke="black" points="145.5,-570.5 145.5,-589.5 252.5,-589.5 252.5,-570.5 145.5,-570.5"/>
<text text-anchor="middle" x="199" y="-577.5" font-family="Helvetica,sans-Serif" font-size="10.00">DashBoard::setFlag2</text>
</a>
</g>
</g>
<!-- Node1&#45;&gt;Node10 -->
<g id="edge9" class="edge">
<title>Node1&#45;&gt;Node10</title>
<path fill="none" stroke="midnightblue" d="M59.5,-456.79C71.16,-478.65 102.26,-531.82 143,-561 145.67,-562.91 148.55,-564.64 151.54,-566.21"/>
<polygon fill="midnightblue" stroke="midnightblue" points="150.2,-569.45 160.75,-570.44 153.12,-563.09 150.2,-569.45"/>
</g>
<!-- Node11 -->
<g id="node11" class="node">
<title>Node11</title>
<g id="a_node11"><a xlink:href="classDashBoard.html#aab9f6e02c7930139955e7d4361d7f049" target="_top" xlink:title=" ">
<polygon fill="white" stroke="black" points="145.5,-532.5 145.5,-551.5 252.5,-551.5 252.5,-532.5 145.5,-532.5"/>
<text text-anchor="middle" x="199" y="-539.5" font-family="Helvetica,sans-Serif" font-size="10.00">DashBoard::setFlag3</text>
</a>
</g>
</g>
<!-- Node1&#45;&gt;Node11 -->
<g id="edge10" class="edge">
<title>Node1&#45;&gt;Node11</title>
<path fill="none" stroke="midnightblue" d="M63.4,-456.73C78.42,-472.62 110.33,-504.25 143,-523 146.65,-525.09 150.56,-527.01 154.56,-528.75"/>
<polygon fill="midnightblue" stroke="midnightblue" points="153.38,-532.04 163.96,-532.49 155.96,-525.54 153.38,-532.04"/>
</g>
<!-- Node12 -->
<g id="node12" class="node">
<title>Node12</title>
<g id="a_node12"><a xlink:href="classDashBoard.html#a3459b4fcbab5a75d53d428ec61fb5e2f" target="_top" xlink:title=" ">
<polygon fill="white" stroke="black" points="145.5,-494.5 145.5,-513.5 252.5,-513.5 252.5,-494.5 145.5,-494.5"/>
<text text-anchor="middle" x="199" y="-501.5" font-family="Helvetica,sans-Serif" font-size="10.00">DashBoard::setFlag4</text>
</a>
</g>
</g>
<!-- Node1&#45;&gt;Node12 -->
<g id="edge11" class="edge">
<title>Node1&#45;&gt;Node12</title>
<path fill="none" stroke="midnightblue" d="M75.78,-456.66C93.6,-464.61 119.76,-476.01 143,-485 148.24,-487.03 153.8,-489.07 159.29,-491.03"/>
<polygon fill="midnightblue" stroke="midnightblue" points="158.43,-494.43 169.03,-494.43 160.74,-487.83 158.43,-494.43"/>
</g>
<!-- Node13 -->
<g id="node13" class="node">
<title>Node13</title>
<g id="a_node13"><a xlink:href="classDashBoard.html#a6105726ddf1e9751465f8b19fbc9db75" target="_top" xlink:title=" ">
<polygon fill="white" stroke="black" points="145.5,-456.5 145.5,-475.5 252.5,-475.5 252.5,-456.5 145.5,-456.5"/>
<text text-anchor="middle" x="199" y="-463.5" font-family="Helvetica,sans-Serif" font-size="10.00">DashBoard::setFlag5</text>
</a>
</g>
</g>
<!-- Node1&#45;&gt;Node13 -->
<g id="edge12" class="edge">
<title>Node1&#45;&gt;Node13</title>
<path fill="none" stroke="midnightblue" d="M107.12,-453.97C116.28,-455.18 125.9,-456.45 135.3,-457.7"/>
<polygon fill="midnightblue" stroke="midnightblue" points="135.01,-461.19 145.39,-459.03 135.93,-454.25 135.01,-461.19"/>
</g>
<!-- Node14 -->
<g id="node14" class="node">
<title>Node14</title>
<g id="a_node14"><a xlink:href="classDashBoard.html#af712856729de18e581879a252a67fefc" target="_top" xlink:title=" ">
<polygon fill="white" stroke="black" points="145.5,-418.5 145.5,-437.5 252.5,-437.5 252.5,-418.5 145.5,-418.5"/>
<text text-anchor="middle" x="199" y="-425.5" font-family="Helvetica,sans-Serif" font-size="10.00">DashBoard::setFlag6</text>
</a>
</g>
</g>
<!-- Node1&#45;&gt;Node14 -->
<g id="edge13" class="edge">
<title>Node1&#45;&gt;Node14</title>
<path fill="none" stroke="midnightblue" d="M107.12,-440.03C116.28,-438.82 125.9,-437.55 135.3,-436.3"/>
<polygon fill="midnightblue" stroke="midnightblue" points="135.93,-439.75 145.39,-434.97 135.01,-432.81 135.93,-439.75"/>
</g>
<!-- Node15 -->
<g id="node15" class="node">
<title>Node15</title>
<g id="a_node15"><a xlink:href="classDashBoard.html#a0046994a5048330817a1fee08707b28b" target="_top" xlink:title=" ">
<polygon fill="white" stroke="black" points="145.5,-380.5 145.5,-399.5 252.5,-399.5 252.5,-380.5 145.5,-380.5"/>
<text text-anchor="middle" x="199" y="-387.5" font-family="Helvetica,sans-Serif" font-size="10.00">DashBoard::setFlag7</text>
</a>
</g>
</g>
<!-- Node1&#45;&gt;Node15 -->
<g id="edge14" class="edge">
<title>Node1&#45;&gt;Node15</title>
<path fill="none" stroke="midnightblue" d="M75.78,-437.34C93.6,-429.39 119.76,-417.99 143,-409 148.24,-406.97 153.8,-404.93 159.29,-402.97"/>
<polygon fill="midnightblue" stroke="midnightblue" points="160.74,-406.17 169.03,-399.57 158.43,-399.57 160.74,-406.17"/>
</g>
<!-- Node16 -->
<g id="node16" class="node">
<title>Node16</title>
<g id="a_node16"><a xlink:href="classDashBoard.html#ab1af036a7f5950764f20f06d78a7c3e0" target="_top" xlink:title=" ">
<polygon fill="white" stroke="black" points="145.5,-342.5 145.5,-361.5 252.5,-361.5 252.5,-342.5 145.5,-342.5"/>
<text text-anchor="middle" x="199" y="-349.5" font-family="Helvetica,sans-Serif" font-size="10.00">DashBoard::setFlag8</text>
</a>
</g>
</g>
<!-- Node1&#45;&gt;Node16 -->
<g id="edge15" class="edge">
<title>Node1&#45;&gt;Node16</title>
<path fill="none" stroke="midnightblue" d="M63.4,-437.27C78.42,-421.38 110.33,-389.75 143,-371 146.65,-368.91 150.56,-366.99 154.56,-365.25"/>
<polygon fill="midnightblue" stroke="midnightblue" points="155.96,-368.46 163.96,-361.51 153.38,-361.96 155.96,-368.46"/>
</g>
<!-- Node17 -->
<g id="node17" class="node">
<title>Node17</title>
<g id="a_node17"><a xlink:href="classDashBoard.html#a8106fece9d6ddeee3cd3430b8316e878" target="_top" xlink:title=" ">
<polygon fill="white" stroke="black" points="145.5,-304.5 145.5,-323.5 252.5,-323.5 252.5,-304.5 145.5,-304.5"/>
<text text-anchor="middle" x="199" y="-311.5" font-family="Helvetica,sans-Serif" font-size="10.00">DashBoard::setFlag9</text>
</a>
</g>
</g>
<!-- Node1&#45;&gt;Node17 -->
<g id="edge16" class="edge">
<title>Node1&#45;&gt;Node17</title>
<path fill="none" stroke="midnightblue" d="M59.5,-437.21C71.16,-415.35 102.26,-362.18 143,-333 145.67,-331.09 148.55,-329.36 151.54,-327.79"/>
<polygon fill="midnightblue" stroke="midnightblue" points="153.12,-330.91 160.75,-323.56 150.2,-324.55 153.12,-330.91"/>
</g>
<!-- Node18 -->
<g id="node18" class="node">
<title>Node18</title>
<g id="a_node18"><a xlink:href="classDashBoard.html#ad109a0ef53fb37f5c3659526c9b8e41e" target="_top" xlink:title=" ">
<polygon fill="white" stroke="black" points="144.5,-266.5 144.5,-285.5 253.5,-285.5 253.5,-266.5 144.5,-266.5"/>
<text text-anchor="middle" x="199" y="-273.5" font-family="Helvetica,sans-Serif" font-size="10.00">DashBoard::setsens1</text>
</a>
</g>
</g>
<!-- Node1&#45;&gt;Node18 -->
<g id="edge17" class="edge">
<title>Node1&#45;&gt;Node18</title>
<path fill="none" stroke="midnightblue" d="M57.49,-437.23C66.18,-410.47 93.94,-335.34 143,-295 145.05,-293.32 147.26,-291.78 149.57,-290.37"/>
<polygon fill="midnightblue" stroke="midnightblue" points="151.58,-293.27 158.88,-285.59 148.39,-287.04 151.58,-293.27"/>
</g>
<!-- Node19 -->
<g id="node19" class="node">
<title>Node19</title>
<g id="a_node19"><a xlink:href="classDashBoard.html#a96a0839421d03c6945004895d563130d" target="_top" xlink:title=" ">
<polygon fill="white" stroke="black" points="144.5,-228.5 144.5,-247.5 253.5,-247.5 253.5,-228.5 144.5,-228.5"/>
<text text-anchor="middle" x="199" y="-235.5" font-family="Helvetica,sans-Serif" font-size="10.00">DashBoard::setsens2</text>
</a>
</g>
</g>
<!-- Node1&#45;&gt;Node19 -->
<g id="edge18" class="edge">
<title>Node1&#45;&gt;Node19</title>
<path fill="none" stroke="midnightblue" d="M56.28,-437.11C62.4,-405.97 85.44,-308.9 143,-257 144.74,-255.43 146.61,-253.99 148.58,-252.67"/>
<polygon fill="midnightblue" stroke="midnightblue" points="150.67,-255.52 157.72,-247.6 147.28,-249.39 150.67,-255.52"/>
</g>
<!-- Node20 -->
<g id="node20" class="node">
<title>Node20</title>
<g id="a_node20"><a xlink:href="classDashBoard.html#a9444e896c8714ef083a75f1b54ef8ade" target="_top" xlink:title=" ">
<polygon fill="white" stroke="black" points="144.5,-190.5 144.5,-209.5 253.5,-209.5 253.5,-190.5 144.5,-190.5"/>
<text text-anchor="middle" x="199" y="-197.5" font-family="Helvetica,sans-Serif" font-size="10.00">DashBoard::setsens3</text>
</a>
</g>
</g>
<!-- Node1&#45;&gt;Node20 -->
<g id="edge19" class="edge">
<title>Node1&#45;&gt;Node20</title>
<path fill="none" stroke="midnightblue" d="M55.42,-437.19C59.19,-402.3 76.63,-282.92 143,-219 144.63,-217.43 146.39,-216 148.25,-214.68"/>
<polygon fill="midnightblue" stroke="midnightblue" points="150.05,-217.68 156.93,-209.62 146.52,-211.63 150.05,-217.68"/>
</g>
<!-- Node21 -->
<g id="node21" class="node">
<title>Node21</title>
<g id="a_node21"><a xlink:href="classDashBoard.html#aab8ff10f5de5be14686bc178d438be67" target="_top" xlink:title=" ">
<polygon fill="white" stroke="black" points="144.5,-152.5 144.5,-171.5 253.5,-171.5 253.5,-152.5 144.5,-152.5"/>
<text text-anchor="middle" x="199" y="-159.5" font-family="Helvetica,sans-Serif" font-size="10.00">DashBoard::setsens4</text>
</a>
</g>
</g>
<!-- Node1&#45;&gt;Node21 -->
<g id="edge20" class="edge">
<title>Node1&#45;&gt;Node21</title>
<path fill="none" stroke="midnightblue" d="M54.78,-437.48C56.42,-399.51 67.55,-257.32 143,-181 144.44,-179.55 145.99,-178.2 147.64,-176.96"/>
<polygon fill="midnightblue" stroke="midnightblue" points="149.76,-179.77 156.47,-171.57 146.11,-173.79 149.76,-179.77"/>
</g>
<!-- Node22 -->
<g id="node22" class="node">
<title>Node22</title>
<g id="a_node22"><a xlink:href="classDashBoard.html#a84a96581374e98b5416bbb0c359b2331" target="_top" xlink:title=" ">
<polygon fill="white" stroke="black" points="144.5,-114.5 144.5,-133.5 253.5,-133.5 253.5,-114.5 144.5,-114.5"/>
<text text-anchor="middle" x="199" y="-121.5" font-family="Helvetica,sans-Serif" font-size="10.00">DashBoard::setsens5</text>
</a>
</g>
</g>
<!-- Node1&#45;&gt;Node22 -->
<g id="edge21" class="edge">
<title>Node1&#45;&gt;Node22</title>
<path fill="none" stroke="midnightblue" d="M54.32,-437.3C54.08,-395.83 58.68,-231.59 143,-143 144.38,-141.55 145.89,-140.2 147.48,-138.96"/>
<polygon fill="midnightblue" stroke="midnightblue" points="149.45,-141.86 156.06,-133.58 145.73,-135.93 149.45,-141.86"/>
</g>
<!-- Node23 -->
<g id="node23" class="node">
<title>Node23</title>
<g id="a_node23"><a xlink:href="classDashBoard.html#aa5ac947cf2aaf8ad2f90cc6bbab3db60" target="_top" xlink:title=" ">
<polygon fill="white" stroke="black" points="144.5,-76.5 144.5,-95.5 253.5,-95.5 253.5,-76.5 144.5,-76.5"/>
<text text-anchor="middle" x="199" y="-83.5" font-family="Helvetica,sans-Serif" font-size="10.00">DashBoard::setsens6</text>
</a>
</g>
</g>
<!-- Node1&#45;&gt;Node23 -->
<g id="edge22" class="edge">
<title>Node1&#45;&gt;Node23</title>
<path fill="none" stroke="midnightblue" d="M55.74,-437.46C62.42,-387.51 95.56,-156.36 143,-105 144.23,-103.67 145.55,-102.44 146.95,-101.29"/>
<polygon fill="midnightblue" stroke="midnightblue" points="149.2,-104 155.68,-95.61 145.38,-98.13 149.2,-104"/>
</g>
<!-- Node24 -->
<g id="node24" class="node">
<title>Node24</title>
<g id="a_node24"><a xlink:href="classDashBoard.html#a44c9d44b3466cb2421c0bac4a4f69c3a" target="_top" xlink:title=" ">
<polygon fill="white" stroke="black" points="144.5,-38.5 144.5,-57.5 253.5,-57.5 253.5,-38.5 144.5,-38.5"/>
<text text-anchor="middle" x="199" y="-45.5" font-family="Helvetica,sans-Serif" font-size="10.00">DashBoard::setsens7</text>
</a>
</g>
</g>
<!-- Node1&#45;&gt;Node24 -->
<g id="edge23" class="edge">
<title>Node1&#45;&gt;Node24</title>
<path fill="none" stroke="midnightblue" d="M55.48,-437.48C61.1,-384.35 90.96,-124.74 143,-67 144.21,-65.66 145.52,-64.41 146.9,-63.25"/>
<polygon fill="midnightblue" stroke="midnightblue" points="149.16,-65.96 155.59,-57.53 145.31,-60.11 149.16,-65.96"/>
</g>
<!-- Node25 -->
<g id="node25" class="node">
<title>Node25</title>
<g id="a_node25"><a xlink:href="classDashBoard.html#ac296e625fb3e7e89ae6d6a774afd5579" target="_top" xlink:title=" ">
<polygon fill="white" stroke="black" points="144.5,-0.5 144.5,-19.5 253.5,-19.5 253.5,-0.5 144.5,-0.5"/>
<text text-anchor="middle" x="199" y="-7.5" font-family="Helvetica,sans-Serif" font-size="10.00">DashBoard::setsens8</text>
</a>
</g>
</g>
<!-- Node1&#45;&gt;Node25 -->
<g id="edge24" class="edge">
<title>Node1&#45;&gt;Node25</title>
<path fill="none" stroke="midnightblue" d="M55.27,-437.29C59.98,-380.64 86.41,-93.08 143,-29 144.17,-27.67 145.44,-26.44 146.79,-25.29"/>
<polygon fill="midnightblue" stroke="midnightblue" points="148.89,-28.09 155.24,-19.61 144.99,-22.28 148.89,-28.09"/>
</g>
</g>
</svg>
        <g id="navigator" transform="translate(0 0)" fill="#404254">
                <rect fill="#f2f5e9" fill-opacity="0.5" stroke="#606060" stroke-width=".5" x="0" y="0" width="60" height="60"/>
                <use id="zoomplus" xlink:href="#zoomPlus" x="17" y="9" onmousedown="handleZoom(evt,'in')"/>
                <use id="zoomminus" xlink:href="#zoomMin" x="42" y="9" onmousedown="handleZoom(evt,'out')"/>
                <use id="reset" xlink:href="#resetDef" x="30" y="36" onmousedown="handleReset()"/>
                <g id="arrowUp" xlink:href="#dirArrow" transform="translate(30 24)" onmousedown="handlePan(0,-1)">
                  <use xlink:href="#rim" fill="#404040">
                        <set attributeName="fill" to="#808080" begin="arrowUp.mouseover" end="arrowUp.mouseout"/>
                  </use>
                  <path fill="none" stroke="white" stroke-width="1.5" d="M0,-3.0v7 M-2.5,-0.5L0,-3.0L2.5,-0.5"/>
                </g>
                <g id="arrowRight" xlink:href="#dirArrow" transform="rotate(90) translate(36 -43)" onmousedown="handlePan(1,0)">
                  <use xlink:href="#rim" fill="#404040">
                        <set attributeName="fill" to="#808080" begin="arrowRight.mouseover" end="arrowRight.mouseout"/>
                  </use>
                  <path fill="none" stroke="white" stroke-width="1.5" d="M0,-3.0v7 M-2.5,-0.5L0,-3.0L2.5,-0.5"/>
                </g>
                <g id="arrowDown" xlink:href="#dirArrow" transform="rotate(180) translate(-30 -48)" onmousedown="handlePan(0,1)">
                  <use xlink:href="#rim" fill="#404040">
                        <set attributeName="fill" to="#808080" begin="arrowDown.mouseover" end="arrowDown.mouseout"/>
                  </use>
                  <path fill="none" stroke="white" stroke-width="1.5" d="M0,-3.0v7 M-2.5,-0.5L0,-3.0L2.5,-0.5"/>
                </g>
                <g id="arrowLeft" xlink:href="#dirArrow" transform="rotate(270) translate(-36 17)" onmousedown="handlePan(-1,0)">
                  <use xlink:href="#rim" fill="#404040">
                        <set attributeName="fill" to="#808080" begin="arrowLeft.mouseover" end="arrowLeft.mouseout"/>
                  </use>
                  <path fill="none" stroke="white" stroke-width="1.5" d="M0,-3.0v7 M-2.5,-0.5L0,-3.0L2.5,-0.5"/>
                </g>
        </g>
        <svg viewBox="0 0 15 15" width="100%" height="30px" preserveAspectRatio="xMaxYMin meet">
         <g id="arrow_out" transform="scale(0.3 0.3)">
          <a xlink:href="classApexi_a6ce2b40858fc637448d1f6dc27e10a70_cgraph_org.svg" target="_base">
           <rect id="button" ry="5" rx="5" y="6" x="6" height="38" width="38"
                fill="#f2f5e9" fill-opacity="0.5" stroke="#606060" stroke-width="1.0"/>
           <path id="arrow"
             d="M 11.500037,31.436501 C 11.940474,20.09759 22.043105,11.32322 32.158766,21.979434 L 37.068811,17.246167 C 37.068811,17.246167 37.088388,32 37.088388,32 L 22.160133,31.978069 C 22.160133,31.978069 26.997745,27.140456 26.997745,27.140456 C 18.528582,18.264221 13.291696,25.230495 11.500037,31.436501 z"
             style="fill:#404040;"/>
          </a>
         </g>
        </svg>
</svg>
