<?xml version="1.0" encoding="UTF-8" standalone="no"?>
<!DOCTYPE svg PUBLIC "-//W3C//DTD SVG 1.1//EN"
 "http://www.w3.org/Graphics/SVG/1.1/DTD/svg11.dtd">
<!-- Generated by graphviz version 2.49.3 (20211027.1534)
 -->
<!-- Title: DashBoard::setbestlaptime Pages: 1 -->
<!--zoomable 275 -->
<svg id="main" version="1.1" xmlns="http://www.w3.org/2000/svg" xmlns:xlink="http://www.w3.org/1999/xlink" xml:space="preserve" onload="init(evt)">
<style type="text/css"><![CDATA[
.edge:hover path { stroke: red; }
.edge:hover polygon { stroke: red; fill: red; }
]]></style>
<script type="text/javascript"><![CDATA[
var edges = document.getElementsByTagName('g');
if (edges && edges.length) {
  for (var i=0;i<edges.length;i++) {
    if (edges[i].id.substr(0,4)=='edge') {
      edges[i].setAttribute('class','edge');
    }
  }
}
]]></script>
        <defs>
                <circle id="rim" cx="0" cy="0" r="7"/>
                <circle id="rim2" cx="0" cy="0" r="3.5"/>
                <g id="zoomPlus">
                        <use xlink:href="#rim" fill="#404040">
                                <set attributeName="fill" to="#808080" begin="zoomplus.mouseover" end="zoomplus.mouseout"/>
                        </use>
                        <path d="M-4,0h8M0,-4v8" fill="none" stroke="white" stroke-width="1.5" pointer-events="none"/>
                </g>
                <g id="zoomMin">
                        <use xlink:href="#rim" fill="#404040">
                                <set attributeName="fill" to="#808080" begin="zoomminus.mouseover" end="zoomminus.mouseout"/>
                        </use>
                        <path d="M-4,0h8" fill="none" stroke="white" stroke-width="1.5" pointer-events="none"/>
                </g>
                <g id="dirArrow">
                        <path fill="none" stroke="white" stroke-width="1.5" d="M0,-3.0v7 M-2.5,-0.5L0,-3.0L2.5,-0.5"/>
                </g>
               <g id="resetDef">
                       <use xlink:href="#rim2" fill="#404040">
                               <set attributeName="fill" to="#808080" begin="reset.mouseover" end="reset.mouseout"/>
                       </use>
               </g>
        </defs>

<script type="text/javascript">
var viewWidth = 1791;
var viewHeight = 275;
var sectionId = 'dynsection-500';
</script>
<script xlink:href="svgpan.js"/>
<svg id="graph" class="graph">
<g id="viewport">
<title>DashBoard::setbestlaptime</title>
<polygon fill="white" stroke="transparent" points="-4,4 -4,-271 1787,-271 1787,4 -4,4"/>
<!-- Node1 -->
<g id="node1" class="node">
<title>Node1</title>
<g id="a_node1"><a xlink:title=" ">
<polygon fill="#bfbfbf" stroke="black" points="1650,-19.5 1650,-38.5 1783,-38.5 1783,-19.5 1650,-19.5"/>
<text text-anchor="middle" x="1716.5" y="-26.5" font-family="Helvetica,sans-Serif" font-size="10.00">DashBoard::setbestlaptime</text>
</a>
</g>
</g>
<!-- Node2 -->
<g id="node2" class="node">
<title>Node2</title>
<g id="a_node2"><a xlink:href="classGPS.html#a894018a07e73bdc11af81f5db97f6b28" target="_top" xlink:title=" ">
<polygon fill="white" stroke="black" points="1511,-38.5 1511,-57.5 1614,-57.5 1614,-38.5 1511,-38.5"/>
<text text-anchor="middle" x="1562.5" y="-45.5" font-family="Helvetica,sans-Serif" font-size="10.00">GPS::checknewLap</text>
</a>
</g>
</g>
<!-- Node1&#45;&gt;Node2 -->
<g id="edge1" class="edge">
<title>Node1&#45;&gt;Node2</title>
<path fill="none" stroke="midnightblue" d="M1639.64,-38.48C1631.04,-39.56 1622.43,-40.63 1614.26,-41.65"/>
<polygon fill="midnightblue" stroke="midnightblue" points="1640.23,-41.94 1649.71,-37.22 1639.36,-34.99 1640.23,-41.94"/>
</g>
<!-- Node14 -->
<g id="node14" class="node">
<title>Node14</title>
<g id="a_node14"><a xlink:href="classGPS.html#a38a75c100a2181b2071746bae3482baf" target="_top" xlink:title=" ">
<polygon fill="white" stroke="black" points="1511.5,-0.5 1511.5,-19.5 1613.5,-19.5 1613.5,-0.5 1511.5,-0.5"/>
<text text-anchor="middle" x="1562.5" y="-7.5" font-family="Helvetica,sans-Serif" font-size="10.00">GPS::resetLaptimer</text>
</a>
</g>
</g>
<!-- Node1&#45;&gt;Node14 -->
<g id="edge24" class="edge">
<title>Node1&#45;&gt;Node14</title>
<path fill="none" stroke="midnightblue" d="M1639.79,-19.54C1630.97,-18.43 1622.15,-17.33 1613.8,-16.29"/>
<polygon fill="midnightblue" stroke="midnightblue" points="1639.36,-23.01 1649.71,-20.78 1640.23,-16.06 1639.36,-23.01"/>
</g>
<!-- Node3 -->
<g id="node3" class="node">
<title>Node3</title>
<g id="a_node3"><a xlink:href="classGPS.html#a6fbf5e49f6a05b056835666f2e1cb830" target="_top" xlink:title=" ">
<polygon fill="white" stroke="black" points="1362,-57.5 1362,-76.5 1475,-76.5 1475,-57.5 1362,-57.5"/>
<text text-anchor="middle" x="1418.5" y="-64.5" font-family="Helvetica,sans-Serif" font-size="10.00">GPS::processGPGGA</text>
</a>
</g>
</g>
<!-- Node2&#45;&gt;Node3 -->
<g id="edge2" class="edge">
<title>Node2&#45;&gt;Node3</title>
<path fill="none" stroke="midnightblue" d="M1500.54,-56.16C1492.16,-57.28 1483.59,-58.43 1475.3,-59.53"/>
<polygon fill="midnightblue" stroke="midnightblue" points="1501.19,-59.6 1510.64,-54.81 1500.26,-52.66 1501.19,-59.6"/>
</g>
<!-- Node13 -->
<g id="node13" class="node">
<title>Node13</title>
<g id="a_node13"><a xlink:href="classGPS.html#a9f0cacdc6f30465399f19ccb19edde1a" target="_top" xlink:title=" ">
<polygon fill="white" stroke="black" points="1362,-19.5 1362,-38.5 1475,-38.5 1475,-19.5 1362,-19.5"/>
<text text-anchor="middle" x="1418.5" y="-26.5" font-family="Helvetica,sans-Serif" font-size="10.00">GPS::processGPRMC</text>
</a>
</g>
</g>
<!-- Node2&#45;&gt;Node13 -->
<g id="edge22" class="edge">
<title>Node2&#45;&gt;Node13</title>
<path fill="none" stroke="midnightblue" d="M1500.54,-39.84C1492.16,-38.72 1483.59,-37.57 1475.3,-36.47"/>
<polygon fill="midnightblue" stroke="midnightblue" points="1500.26,-43.34 1510.64,-41.19 1501.19,-36.4 1500.26,-43.34"/>
</g>
<!-- Node4 -->
<g id="node4" class="node">
<title>Node4</title>
<g id="a_node4"><a xlink:href="classGPS.html#a217097ae4a846c621f001a5aa1f4fb4f" target="_top" xlink:title=" ">
<polygon fill="white" stroke="black" points="1208,-38.5 1208,-57.5 1326,-57.5 1326,-38.5 1208,-38.5"/>
<text text-anchor="middle" x="1267" y="-45.5" font-family="Helvetica,sans-Serif" font-size="10.00">GPS::ProcessMessage</text>
</a>
</g>
</g>
<!-- Node3&#45;&gt;Node4 -->
<g id="edge3" class="edge">
<title>Node3&#45;&gt;Node4</title>
<path fill="none" stroke="midnightblue" d="M1351.9,-58.66C1343.35,-57.58 1334.63,-56.47 1326.22,-55.4"/>
<polygon fill="midnightblue" stroke="midnightblue" points="1351.47,-62.14 1361.83,-59.93 1352.35,-55.19 1351.47,-62.14"/>
</g>
<!-- Node5 -->
<g id="node5" class="node">
<title>Node5</title>
<g id="a_node5"><a xlink:href="classGPS.html#aa0928d156961a54bf06d9b5210d85561" target="_top" xlink:title=" ">
<polygon fill="white" stroke="black" points="1073,-95.5 1073,-114.5 1172,-114.5 1172,-95.5 1073,-95.5"/>
<text text-anchor="middle" x="1122.5" y="-102.5" font-family="Helvetica,sans-Serif" font-size="10.00">GPS::readyToRead</text>
</a>
</g>
</g>
<!-- Node4&#45;&gt;Node5 -->
<g id="edge4" class="edge">
<title>Node4&#45;&gt;Node5</title>
<path fill="none" stroke="midnightblue" d="M1232.65,-61.34C1206.51,-71.8 1170.78,-86.09 1147.43,-95.43"/>
<polygon fill="midnightblue" stroke="midnightblue" points="1234.16,-64.5 1242.15,-57.54 1231.56,-58 1234.16,-64.5"/>
</g>
<!-- Node6 -->
<g id="node6" class="node">
<title>Node6</title>
<g id="a_node6"><a xlink:href="classGPS.html#ae4568ef4d5107c96c1af68d1abd33559" target="_top" xlink:title=" ">
<polygon fill="white" stroke="black" points="923,-133.5 923,-152.5 1037,-152.5 1037,-133.5 923,-133.5"/>
<text text-anchor="middle" x="980" y="-140.5" font-family="Helvetica,sans-Serif" font-size="10.00">GPS::closeConnection</text>
</a>
</g>
</g>
<!-- Node5&#45;&gt;Node6 -->
<g id="edge5" class="edge">
<title>Node5&#45;&gt;Node6</title>
<path fill="none" stroke="midnightblue" d="M1076.22,-117.25C1056.86,-122.48 1034.58,-128.51 1016.44,-133.41"/>
<polygon fill="midnightblue" stroke="midnightblue" points="1077.31,-120.58 1086.05,-114.59 1075.48,-113.82 1077.31,-120.58"/>
</g>
<!-- Node8 -->
<g id="node8" class="node">
<title>Node8</title>
<g id="a_node8"><a xlink:href="classGPS.html#a8775edfa08840ffb2647e0e5ba031fe5" target="_top" xlink:title=" ">
<polygon fill="white" stroke="black" points="298,-133.5 298,-152.5 417,-152.5 417,-133.5 298,-133.5"/>
<text text-anchor="middle" x="357.5" y="-140.5" font-family="Helvetica,sans-Serif" font-size="10.00">GPS::closeConnection1</text>
</a>
</g>
</g>
<!-- Node5&#45;&gt;Node8 -->
<g id="edge20" class="edge">
<title>Node5&#45;&gt;Node8</title>
<path fill="none" stroke="midnightblue" d="M1063.77,-93.63C1001.79,-82.44 900.33,-67 812,-67 812,-67 812,-67 649,-67 545.26,-67 427.26,-112.92 379.86,-133.37"/>
<polygon fill="midnightblue" stroke="midnightblue" points="1063.27,-97.1 1073.74,-95.46 1064.53,-90.22 1063.27,-97.1"/>
</g>
<!-- Node11 -->
<g id="node11" class="node">
<title>Node11</title>
<g id="a_node11"><a xlink:href="classGPS.html#ac2a7572afb184df9c14ae913f17306bf" target="_top" xlink:title=" ">
<polygon fill="white" stroke="black" points="601,-247.5 601,-266.5 699,-266.5 699,-247.5 601,-247.5"/>
<text text-anchor="middle" x="650" y="-254.5" font-family="Helvetica,sans-Serif" font-size="10.00">GPS::initSerialPort</text>
</a>
</g>
</g>
<!-- Node5&#45;&gt;Node11 -->
<g id="edge21" class="edge">
<title>Node5&#45;&gt;Node11</title>
<path fill="none" stroke="midnightblue" d="M1101.72,-121.25C1085.3,-134 1060.85,-151.33 1037,-162 921.72,-213.59 774.01,-239.97 699.14,-250.82"/>
<polygon fill="midnightblue" stroke="midnightblue" points="1104.31,-123.67 1109.96,-114.71 1099.96,-118.18 1104.31,-123.67"/>
</g>
<!-- Node7 -->
<g id="node7" class="node">
<title>Node7</title>
<g id="a_node7"><a xlink:href="classGPS.html#aaf69fb801bbce2ea70041e68fe0ec19a" target="_top" xlink:title=" ">
<polygon fill="white" stroke="black" points="735,-171.5 735,-190.5 887,-190.5 887,-171.5 735,-171.5"/>
<text text-anchor="middle" x="811" y="-178.5" font-family="Helvetica,sans-Serif" font-size="10.00">GPS::handleReconnectTimeout</text>
</a>
</g>
</g>
<!-- Node6&#45;&gt;Node7 -->
<g id="edge6" class="edge">
<title>Node6&#45;&gt;Node7</title>
<path fill="none" stroke="midnightblue" d="M913.05,-151.39C884.73,-157.4 853.59,-165.12 833.47,-171.42"/>
<polygon fill="midnightblue" stroke="midnightblue" points="913.85,-154.8 922.93,-149.34 912.42,-147.95 913.85,-154.8"/>
</g>
<!-- Node12 -->
<g id="node12" class="node">
<title>Node12</title>
<g id="a_node12"><a xlink:href="classGPS.html#a51eaea2422dd980ea0a6d28f12a136de" target="_top" xlink:title=" ">
<polygon fill="white" stroke="black" points="453,-152.5 453,-171.5 565,-171.5 565,-152.5 453,-152.5"/>
<text text-anchor="middle" x="509" y="-159.5" font-family="Helvetica,sans-Serif" font-size="10.00">GPS::openConnection</text>
</a>
</g>
</g>
<!-- Node6&#45;&gt;Node12 -->
<g id="edge19" class="edge">
<title>Node6&#45;&gt;Node12</title>
<path fill="none" stroke="midnightblue" d="M912.74,-145.68C819.62,-149.46 651.74,-156.26 565.08,-159.77"/>
<polygon fill="midnightblue" stroke="midnightblue" points="913.04,-149.17 922.89,-145.27 912.76,-142.18 913.04,-149.17"/>
</g>
<!-- Node7&#45;&gt;Node6 -->
<g id="edge7" class="edge">
<title>Node7&#45;&gt;Node6</title>
<path fill="none" stroke="midnightblue" d="M893.13,-169.29C916.91,-163.92 940.94,-157.77 957.51,-152.59"/>
<polygon fill="midnightblue" stroke="midnightblue" points="892.35,-165.88 883.34,-171.45 893.86,-172.71 892.35,-165.88"/>
</g>
<!-- Node7&#45;&gt;Node8 -->
<g id="edge8" class="edge">
<title>Node7&#45;&gt;Node8</title>
<path fill="none" stroke="midnightblue" d="M724.88,-190.48C651.95,-196.36 544.49,-199.67 453,-181 425.28,-175.34 395.29,-161.91 376.71,-152.64"/>
<polygon fill="midnightblue" stroke="midnightblue" points="725.27,-193.96 734.94,-189.64 724.68,-186.99 725.27,-193.96"/>
</g>
<!-- Node7&#45;&gt;Node11 -->
<g id="edge18" class="edge">
<title>Node7&#45;&gt;Node11</title>
<path fill="none" stroke="midnightblue" d="M780.59,-195.06C748.68,-210.31 698.6,-234.25 670.97,-247.45"/>
<polygon fill="midnightblue" stroke="midnightblue" points="782.35,-198.1 789.86,-190.63 779.33,-191.78 782.35,-198.1"/>
</g>
<!-- Node9 -->
<g id="node9" class="node">
<title>Node9</title>
<g id="a_node9"><a xlink:href="classGPS.html#abd750ada6a7b976f72761ce16246ccf6" target="_top" xlink:title=" ">
<polygon fill="white" stroke="black" points="142,-57.5 142,-76.5 262,-76.5 262,-57.5 142,-57.5"/>
<text text-anchor="middle" x="202" y="-64.5" font-family="Helvetica,sans-Serif" font-size="10.00">GPS::setGPSBAUD115</text>
</a>
</g>
</g>
<!-- Node8&#45;&gt;Node9 -->
<g id="edge9" class="edge">
<title>Node8&#45;&gt;Node9</title>
<path fill="none" stroke="midnightblue" d="M327.71,-128.74C296.88,-113.48 248.84,-89.7 222.28,-76.55"/>
<polygon fill="midnightblue" stroke="midnightblue" points="326.54,-132.07 337.06,-133.37 329.65,-125.8 326.54,-132.07"/>
</g>
<!-- Node9&#45;&gt;Node4 -->
<g id="edge17" class="edge">
<title>Node9&#45;&gt;Node4</title>
<path fill="none" stroke="midnightblue" d="M260.26,-55.56C321.36,-44.37 421.11,-29 508,-29 981,-29 981,-29 981,-29 1059.72,-29 1150.41,-36.31 1207.94,-41.86"/>
<polygon fill="midnightblue" stroke="midnightblue" points="259.25,-52.19 250.06,-57.46 260.53,-59.07 259.25,-52.19"/>
</g>
<!-- Node10 -->
<g id="node10" class="node">
<title>Node10</title>
<g id="a_node10"><a xlink:href="classGPS.html#a1b1c89214229f5dc8ff7e2fa9cbcad35" target="_top" xlink:title=" ">
<polygon fill="white" stroke="black" points="0,-114.5 0,-133.5 106,-133.5 106,-114.5 0,-114.5"/>
<text text-anchor="middle" x="53" y="-121.5" font-family="Helvetica,sans-Serif" font-size="10.00">GPS::handleTimeout</text>
</a>
</g>
</g>
<!-- Node9&#45;&gt;Node10 -->
<g id="edge10" class="edge">
<title>Node9&#45;&gt;Node10</title>
<path fill="none" stroke="midnightblue" d="M166.95,-80.2C139.96,-90.67 102.88,-105.05 78.68,-114.43"/>
<polygon fill="midnightblue" stroke="midnightblue" points="168.34,-83.42 176.4,-76.54 165.81,-76.89 168.34,-83.42"/>
</g>
<!-- Node10&#45;&gt;Node6 -->
<g id="edge11" class="edge">
<title>Node10&#45;&gt;Node6</title>
<path fill="none" stroke="midnightblue" d="M116.38,-117.79C177.49,-112.25 273.3,-105 356.5,-105 651,-105 651,-105 651,-105 749.74,-105 864.1,-122.2 928.36,-133.46"/>
<polygon fill="midnightblue" stroke="midnightblue" points="115.77,-114.33 106.13,-118.73 116.41,-121.3 115.77,-114.33"/>
</g>
<!-- Node10&#45;&gt;Node8 -->
<g id="edge12" class="edge">
<title>Node10&#45;&gt;Node8</title>
<path fill="none" stroke="midnightblue" d="M116.46,-127.92C169.7,-131.27 245.68,-136.04 297.82,-139.31"/>
<polygon fill="midnightblue" stroke="midnightblue" points="116.66,-124.43 106.46,-127.29 116.22,-131.41 116.66,-124.43"/>
</g>
<!-- Node10&#45;&gt;Node11 -->
<g id="edge13" class="edge">
<title>Node10&#45;&gt;Node11</title>
<path fill="none" stroke="midnightblue" d="M98.8,-136.1C112.62,-139.72 127.91,-143.63 142,-147 310.63,-187.31 512.33,-229.2 602.02,-247.49"/>
<polygon fill="midnightblue" stroke="midnightblue" points="99.59,-132.69 89.03,-133.52 97.8,-139.45 99.59,-132.69"/>
</g>
<!-- Node11&#45;&gt;Node12 -->
<g id="edge14" class="edge">
<title>Node11&#45;&gt;Node12</title>
<path fill="none" stroke="midnightblue" d="M626.28,-241.47C597.34,-221.69 548.2,-188.11 524.13,-171.66"/>
<polygon fill="midnightblue" stroke="midnightblue" points="624.68,-244.62 634.91,-247.37 628.63,-238.84 624.68,-244.62"/>
</g>
<!-- Node12&#45;&gt;Node7 -->
<g id="edge16" class="edge">
<title>Node12&#45;&gt;Node7</title>
<path fill="none" stroke="midnightblue" d="M575.51,-166.15C622.42,-169.12 685.69,-173.13 734.68,-176.23"/>
<polygon fill="midnightblue" stroke="midnightblue" points="575.66,-162.65 565.46,-165.51 575.22,-169.64 575.66,-162.65"/>
</g>
<!-- Node12&#45;&gt;Node8 -->
<g id="edge15" class="edge">
<title>Node12&#45;&gt;Node8</title>
<path fill="none" stroke="midnightblue" d="M442.8,-153.71C434.22,-152.62 425.48,-151.51 417.03,-150.44"/>
<polygon fill="midnightblue" stroke="midnightblue" points="442.39,-157.19 452.76,-154.98 443.28,-150.25 442.39,-157.19"/>
</g>
<!-- Node13&#45;&gt;Node4 -->
<g id="edge23" class="edge">
<title>Node13&#45;&gt;Node4</title>
<path fill="none" stroke="midnightblue" d="M1351.9,-37.34C1343.35,-38.42 1334.63,-39.53 1326.22,-40.6"/>
<polygon fill="midnightblue" stroke="midnightblue" points="1352.35,-40.81 1361.83,-36.07 1351.47,-33.86 1352.35,-40.81"/>
</g>
</g>
</svg>
        <g id="navigator" transform="translate(0 0)" fill="#404254">
                <rect fill="#f2f5e9" fill-opacity="0.5" stroke="#606060" stroke-width=".5" x="0" y="0" width="60" height="60"/>
                <use id="zoomplus" xlink:href="#zoomPlus" x="17" y="9" onmousedown="handleZoom(evt,'in')"/>
                <use id="zoomminus" xlink:href="#zoomMin" x="42" y="9" onmousedown="handleZoom(evt,'out')"/>
                <use id="reset" xlink:href="#resetDef" x="30" y="36" onmousedown="handleReset()"/>
                <g id="arrowUp" xlink:href="#dirArrow" transform="translate(30 24)" onmousedown="handlePan(0,-1)">
                  <use xlink:href="#rim" fill="#404040">
                        <set attributeName="fill" to="#808080" begin="arrowUp.mouseover" end="arrowUp.mouseout"/>
                  </use>
                  <path fill="none" stroke="white" stroke-width="1.5" d="M0,-3.0v7 M-2.5,-0.5L0,-3.0L2.5,-0.5"/>
                </g>
                <g id="arrowRight" xlink:href="#dirArrow" transform="rotate(90) translate(36 -43)" onmousedown="handlePan(1,0)">
                  <use xlink:href="#rim" fill="#404040">
                        <set attributeName="fill" to="#808080" begin="arrowRight.mouseover" end="arrowRight.mouseout"/>
                  </use>
                  <path fill="none" stroke="white" stroke-width="1.5" d="M0,-3.0v7 M-2.5,-0.5L0,-3.0L2.5,-0.5"/>
                </g>
                <g id="arrowDown" xlink:href="#dirArrow" transform="rotate(180) translate(-30 -48)" onmousedown="handlePan(0,1)">
                  <use xlink:href="#rim" fill="#404040">
                        <set attributeName="fill" to="#808080" begin="arrowDown.mouseover" end="arrowDown.mouseout"/>
                  </use>
                  <path fill="none" stroke="white" stroke-width="1.5" d="M0,-3.0v7 M-2.5,-0.5L0,-3.0L2.5,-0.5"/>
                </g>
                <g id="arrowLeft" xlink:href="#dirArrow" transform="rotate(270) translate(-36 17)" onmousedown="handlePan(-1,0)">
                  <use xlink:href="#rim" fill="#404040">
                        <set attributeName="fill" to="#808080" begin="arrowLeft.mouseover" end="arrowLeft.mouseout"/>
                  </use>
                  <path fill="none" stroke="white" stroke-width="1.5" d="M0,-3.0v7 M-2.5,-0.5L0,-3.0L2.5,-0.5"/>
                </g>
        </g>
        <svg viewBox="0 0 15 15" width="100%" height="30px" preserveAspectRatio="xMaxYMin meet">
         <g id="arrow_out" transform="scale(0.3 0.3)">
          <a xlink:href="classDashBoard_ae5d69bcab58e2e497902387d03cc9146_icgraph_org.svg" target="_base">
           <rect id="button" ry="5" rx="5" y="6" x="6" height="38" width="38"
                fill="#f2f5e9" fill-opacity="0.5" stroke="#606060" stroke-width="1.0"/>
           <path id="arrow"
             d="M 11.500037,31.436501 C 11.940474,20.09759 22.043105,11.32322 32.158766,21.979434 L 37.068811,17.246167 C 37.068811,17.246167 37.088388,32 37.088388,32 L 22.160133,31.978069 C 22.160133,31.978069 26.997745,27.140456 26.997745,27.140456 C 18.528582,18.264221 13.291696,25.230495 11.500037,31.436501 z"
             style="fill:#404040;"/>
          </a>
         </g>
        </svg>
</svg>
