<?xml version="1.0" encoding="UTF-8" standalone="no"?>
<!DOCTYPE svg PUBLIC "-//W3C//DTD SVG 1.1//EN"
 "http://www.w3.org/Graphics/SVG/1.1/DTD/svg11.dtd">
<!-- Generated by graphviz version 2.49.3 (20211027.1534)
 -->
<!-- Title: DashBoard::WifiStatChanged Pages: 1 -->
<svg width="665pt" height="39pt"
 viewBox="0.00 0.00 665.00 39.00" xmlns="http://www.w3.org/2000/svg" xmlns:xlink="http://www.w3.org/1999/xlink">
<g id="graph0" class="graph" transform="scale(1 1) rotate(0) translate(4 35)">
<title>DashBoard::WifiStatChanged</title>
<polygon fill="white" stroke="transparent" points="-4,4 -4,-35 661,-35 661,4 -4,4"/>
<!-- Node1 -->
<g id="node1" class="node">
<title>Node1</title>
<g id="a_node1"><a xlink:title=" ">
<polygon fill="#bfbfbf" stroke="black" points="516,-6 516,-25 657,-25 657,-6 516,-6"/>
<text text-anchor="middle" x="586.5" y="-13" font-family="Helvetica,sans-Serif" font-size="10.00">DashBoard::WifiStatChanged</text>
</a>
</g>
</g>
<!-- Node2 -->
<g id="node2" class="node">
<title>Node2</title>
<g id="a_node2"><a xlink:href="classDashBoard.html#a0d39c857ddff05a7b13b12e665a1c4a6" target="_top" xlink:title=" ">
<polygon fill="white" stroke="black" points="364,-6 364,-25 480,-25 480,-6 364,-6"/>
<text text-anchor="middle" x="422" y="-13" font-family="Helvetica,sans-Serif" font-size="10.00">DashBoard::setWifiStat</text>
</a>
</g>
</g>
<!-- Node1&#45;&gt;Node2 -->
<g id="edge1" class="edge">
<title>Node1&#45;&gt;Node2</title>
<path fill="none" stroke="midnightblue" d="M505.57,-15.5C496.96,-15.5 488.34,-15.5 480.08,-15.5"/>
<polygon fill="midnightblue" stroke="midnightblue" points="505.64,-19 515.64,-15.5 505.64,-12 505.64,-19"/>
</g>
<!-- Node3 -->
<g id="node3" class="node">
<title>Node3</title>
<g id="a_node3"><a xlink:href="classWifiScanner.html#a6e5ab6f8e84e0a67cb8bf41da25e8294" target="_top" xlink:title=" ">
<polygon fill="white" stroke="black" points="194,-0.5 194,-30.5 328,-30.5 328,-0.5 194,-0.5"/>
<text text-anchor="start" x="202" y="-18.5" font-family="Helvetica,sans-Serif" font-size="10.00">WifiScanner::getconnection</text>
<text text-anchor="middle" x="261" y="-7.5" font-family="Helvetica,sans-Serif" font-size="10.00">Status</text>
</a>
</g>
</g>
<!-- Node2&#45;&gt;Node3 -->
<g id="edge2" class="edge">
<title>Node2&#45;&gt;Node3</title>
<path fill="none" stroke="midnightblue" d="M353.5,-15.5C345.14,-15.5 336.59,-15.5 328.24,-15.5"/>
<polygon fill="midnightblue" stroke="midnightblue" points="353.6,-19 363.6,-15.5 353.6,-12 353.6,-19"/>
</g>
<!-- Node4 -->
<g id="node4" class="node">
<title>Node4</title>
<g id="a_node4"><a xlink:href="classWifiScanner.html#a5273dea294d07a6f86a68ada7de65e29" target="_top" xlink:title=" ">
<polygon fill="white" stroke="black" points="0,-6 0,-25 158,-25 158,-6 0,-6"/>
<text text-anchor="middle" x="79" y="-13" font-family="Helvetica,sans-Serif" font-size="10.00">WifiScanner::initializeWifiscanner</text>
</a>
</g>
</g>
<!-- Node3&#45;&gt;Node4 -->
<g id="edge3" class="edge">
<title>Node3&#45;&gt;Node4</title>
<path fill="none" stroke="midnightblue" d="M183.78,-15.5C175.32,-15.5 166.69,-15.5 158.21,-15.5"/>
<polygon fill="midnightblue" stroke="midnightblue" points="184,-19 194,-15.5 184,-12 184,-19"/>
</g>
</g>
</svg>
