<?xml version="1.0" encoding="UTF-8" standalone="no"?>
<!DOCTYPE svg PUBLIC "-//W3C//DTD SVG 1.1//EN"
 "http://www.w3.org/Graphics/SVG/1.1/DTD/svg11.dtd">
<!-- Generated by graphviz version 2.49.3 (20211027.1534)
 -->
<!-- Title: Apexi::handleError Pages: 1 -->
<!--zoomable 198 -->
<svg id="main" version="1.1" xmlns="http://www.w3.org/2000/svg" xmlns:xlink="http://www.w3.org/1999/xlink" xml:space="preserve" onload="init(evt)">
<style type="text/css"><![CDATA[
.edge:hover path { stroke: red; }
.edge:hover polygon { stroke: red; fill: red; }
]]></style>
<script type="text/javascript"><![CDATA[
var edges = document.getElementsByTagName('g');
if (edges && edges.length) {
  for (var i=0;i<edges.length;i++) {
    if (edges[i].id.substr(0,4)=='edge') {
      edges[i].setAttribute('class','edge');
    }
  }
}
]]></script>
        <defs>
                <circle id="rim" cx="0" cy="0" r="7"/>
                <circle id="rim2" cx="0" cy="0" r="3.5"/>
                <g id="zoomPlus">
                        <use xlink:href="#rim" fill="#404040">
                                <set attributeName="fill" to="#808080" begin="zoomplus.mouseover" end="zoomplus.mouseout"/>
                        </use>
                        <path d="M-4,0h8M0,-4v8" fill="none" stroke="white" stroke-width="1.5" pointer-events="none"/>
                </g>
                <g id="zoomMin">
                        <use xlink:href="#rim" fill="#404040">
                                <set attributeName="fill" to="#808080" begin="zoomminus.mouseover" end="zoomminus.mouseout"/>
                        </use>
                        <path d="M-4,0h8" fill="none" stroke="white" stroke-width="1.5" pointer-events="none"/>
                </g>
                <g id="dirArrow">
                        <path fill="none" stroke="white" stroke-width="1.5" d="M0,-3.0v7 M-2.5,-0.5L0,-3.0L2.5,-0.5"/>
                </g>
               <g id="resetDef">
                       <use xlink:href="#rim2" fill="#404040">
                               <set attributeName="fill" to="#808080" begin="reset.mouseover" end="reset.mouseout"/>
                       </use>
               </g>
        </defs>

<script type="text/javascript">
var viewWidth = 1102;
var viewHeight = 198;
var sectionId = 'dynsection-23';
</script>
<script xlink:href="svgpan.js"/>
<svg id="graph" class="graph">
<g id="viewport">
<title>Apexi::handleError</title>
<polygon fill="white" stroke="transparent" points="-4,4 -4,-194 1098,-194 1098,4 -4,4"/>
<!-- Node1 -->
<g id="node1" class="node">
<title>Node1</title>
<g id="a_node1"><a xlink:title=" ">
<polygon fill="#bfbfbf" stroke="black" points="1000,-28.5 1000,-47.5 1094,-47.5 1094,-28.5 1000,-28.5"/>
<text text-anchor="middle" x="1047" y="-35.5" font-family="Helvetica,sans-Serif" font-size="10.00">Apexi::handleError</text>
</a>
</g>
</g>
<!-- Node2 -->
<g id="node2" class="node">
<title>Node2</title>
<g id="a_node2"><a xlink:href="classApexi.html#a669124cabae4ada616e650e582c068da" target="_top" xlink:title=" ">
<polygon fill="white" stroke="black" points="847,-66.5 847,-85.5 964,-85.5 964,-66.5 847,-66.5"/>
<text text-anchor="middle" x="905.5" y="-73.5" font-family="Helvetica,sans-Serif" font-size="10.00">Apexi::closeConnection</text>
</a>
</g>
</g>
<!-- Node1&#45;&gt;Node2 -->
<g id="edge1" class="edge">
<title>Node1&#45;&gt;Node2</title>
<path fill="none" stroke="midnightblue" d="M1001.04,-50.25C981.82,-55.48 959.7,-61.51 941.69,-66.41"/>
<polygon fill="midnightblue" stroke="midnightblue" points="1002.07,-53.59 1010.8,-47.59 1000.23,-46.84 1002.07,-53.59"/>
</g>
<!-- Node10 -->
<g id="node10" class="node">
<title>Node10</title>
<g id="a_node10"><a xlink:href="classApexi.html#a169d6e9466a6c04e6533c8e84fdcaadb" target="_top" xlink:title=" ">
<polygon fill="white" stroke="black" points="0,-47.5 0,-66.5 101,-66.5 101,-47.5 0,-47.5"/>
<text text-anchor="middle" x="50.5" y="-54.5" font-family="Helvetica,sans-Serif" font-size="10.00">Apexi::initSerialPort</text>
</a>
</g>
</g>
<!-- Node1&#45;&gt;Node10 -->
<g id="edge13" class="edge">
<title>Node1&#45;&gt;Node10</title>
<path fill="none" stroke="midnightblue" d="M989.97,-26.56C930.18,-15.37 832.56,0 747.5,0 747.5,0 747.5,0 318,0 228.34,0 125.39,-31.23 77.96,-47.46"/>
<polygon fill="midnightblue" stroke="midnightblue" points="989.48,-30.03 999.95,-28.46 990.78,-23.16 989.48,-30.03"/>
</g>
<!-- Node3 -->
<g id="node3" class="node">
<title>Node3</title>
<g id="a_node3"><a xlink:href="classConnect.html#abb89a14af2e2b3f6d466c5abfc95cff0" target="_top" xlink:title=" ">
<polygon fill="white" stroke="black" points="682,-104.5 682,-123.5 811,-123.5 811,-104.5 682,-104.5"/>
<text text-anchor="middle" x="746.5" y="-111.5" font-family="Helvetica,sans-Serif" font-size="10.00">Connect::closeConnection</text>
</a>
</g>
</g>
<!-- Node2&#45;&gt;Node3 -->
<g id="edge2" class="edge">
<title>Node2&#45;&gt;Node3</title>
<path fill="none" stroke="midnightblue" d="M855.05,-87.97C833.05,-93.29 807.51,-99.48 786.83,-104.48"/>
<polygon fill="midnightblue" stroke="midnightblue" points="855.99,-91.34 864.88,-85.59 854.34,-84.54 855.99,-91.34"/>
</g>
<!-- Node4 -->
<g id="node4" class="node">
<title>Node4</title>
<g id="a_node4"><a xlink:href="classApexi.html#a84e5eadc545afab5fbb0aea8b27e17c3" target="_top" xlink:title=" ">
<polygon fill="white" stroke="black" points="689,-142.5 689,-161.5 804,-161.5 804,-142.5 689,-142.5"/>
<text text-anchor="middle" x="746.5" y="-149.5" font-family="Helvetica,sans-Serif" font-size="10.00">Apexi::openConnection</text>
</a>
</g>
</g>
<!-- Node2&#45;&gt;Node4 -->
<g id="edge3" class="edge">
<title>Node2&#45;&gt;Node4</title>
<path fill="none" stroke="midnightblue" d="M882.91,-91.37C864.5,-103.93 836.97,-121.43 811,-133 802.91,-136.61 793.94,-139.76 785.35,-142.41"/>
<polygon fill="midnightblue" stroke="midnightblue" points="884.94,-94.23 891.17,-85.65 880.95,-88.47 884.94,-94.23"/>
</g>
<!-- Node7 -->
<g id="node7" class="node">
<title>Node7</title>
<g id="a_node7"><a xlink:href="classApexi.html#a4e7b389e8d3e283a12733ab4f8492be3" target="_top" xlink:title=" ">
<polygon fill="white" stroke="black" points="399,-66.5 399,-85.5 483,-85.5 483,-66.5 399,-66.5"/>
<text text-anchor="middle" x="441" y="-73.5" font-family="Helvetica,sans-Serif" font-size="10.00">Apexi::readData</text>
</a>
</g>
</g>
<!-- Node2&#45;&gt;Node7 -->
<g id="edge12" class="edge">
<title>Node2&#45;&gt;Node7</title>
<path fill="none" stroke="midnightblue" d="M836.84,-76C739.57,-76 563.17,-76 483.28,-76"/>
<polygon fill="midnightblue" stroke="midnightblue" points="836.86,-79.5 846.86,-76 836.86,-72.5 836.86,-79.5"/>
</g>
<!-- Node5 -->
<g id="node5" class="node">
<title>Node5</title>
<g id="a_node5"><a xlink:href="classConnect.html#a0d674157f4d7442c535837dadd8cf5f1" target="_top" xlink:title=" ">
<polygon fill="white" stroke="black" points="519,-104.5 519,-123.5 646,-123.5 646,-104.5 519,-104.5"/>
<text text-anchor="middle" x="582.5" y="-111.5" font-family="Helvetica,sans-Serif" font-size="10.00">Connect::openConnection</text>
</a>
</g>
</g>
<!-- Node4&#45;&gt;Node5 -->
<g id="edge4" class="edge">
<title>Node4&#45;&gt;Node5</title>
<path fill="none" stroke="midnightblue" d="M694.79,-140.1C672.01,-134.76 645.51,-128.55 624.09,-123.52"/>
<polygon fill="midnightblue" stroke="midnightblue" points="694.09,-143.53 704.62,-142.41 695.68,-136.72 694.09,-143.53"/>
</g>
<!-- Node6 -->
<g id="node6" class="node">
<title>Node6</title>
<g id="a_node6"><a xlink:href="classApexi.html#af3673b74b8aebe06a2b2f9ed81c23ee4" target="_top" xlink:title=" ">
<polygon fill="white" stroke="black" points="533.5,-142.5 533.5,-161.5 631.5,-161.5 631.5,-142.5 533.5,-142.5"/>
<text text-anchor="middle" x="582.5" y="-149.5" font-family="Helvetica,sans-Serif" font-size="10.00">Apexi::retryconnect</text>
</a>
</g>
</g>
<!-- Node4&#45;&gt;Node6 -->
<g id="edge5" class="edge">
<title>Node4&#45;&gt;Node6</title>
<path fill="none" stroke="midnightblue" d="M678.6,-152C662.81,-152 646.29,-152 631.53,-152"/>
<polygon fill="midnightblue" stroke="midnightblue" points="678.84,-155.5 688.84,-152 678.84,-148.5 678.84,-155.5"/>
</g>
<!-- Node6&#45;&gt;Node7 -->
<g id="edge6" class="edge">
<title>Node6&#45;&gt;Node7</title>
<path fill="none" stroke="midnightblue" d="M533.24,-139.17C528.33,-137.32 523.51,-135.27 519,-133 493.15,-119.99 466.87,-98.33 452.68,-85.79"/>
<polygon fill="midnightblue" stroke="midnightblue" points="532.09,-142.47 542.69,-142.46 534.39,-135.86 532.09,-142.47"/>
</g>
<!-- Node8 -->
<g id="node8" class="node">
<title>Node8</title>
<g id="a_node8"><a xlink:href="classApexi.html#a4cb1314ab5ca5175aa227ed178148f40" target="_top" xlink:title=" ">
<polygon fill="white" stroke="black" points="275,-66.5 275,-85.5 363,-85.5 363,-66.5 275,-66.5"/>
<text text-anchor="middle" x="319" y="-73.5" font-family="Helvetica,sans-Serif" font-size="10.00">Apexi::apexiECU</text>
</a>
</g>
</g>
<!-- Node7&#45;&gt;Node8 -->
<g id="edge7" class="edge">
<title>Node7&#45;&gt;Node8</title>
<path fill="none" stroke="midnightblue" d="M388.5,-76C380,-76 371.27,-76 363.01,-76"/>
<polygon fill="midnightblue" stroke="midnightblue" points="388.7,-79.5 398.7,-76 388.7,-72.5 388.7,-79.5"/>
</g>
<!-- Node9 -->
<g id="node9" class="node">
<title>Node9</title>
<g id="a_node9"><a xlink:href="classApexi.html#abe3bf6800fce8a4c713a08c14474d625" target="_top" xlink:title=" ">
<polygon fill="white" stroke="black" points="137,-47.5 137,-66.5 239,-66.5 239,-47.5 137,-47.5"/>
<text text-anchor="middle" x="188" y="-54.5" font-family="Helvetica,sans-Serif" font-size="10.00">Apexi::readyToRead</text>
</a>
</g>
</g>
<!-- Node8&#45;&gt;Node9 -->
<g id="edge8" class="edge">
<title>Node8&#45;&gt;Node9</title>
<path fill="none" stroke="midnightblue" d="M264.57,-68.13C256.15,-66.89 247.46,-65.61 239.11,-64.38"/>
<polygon fill="midnightblue" stroke="midnightblue" points="264.28,-71.63 274.69,-69.62 265.3,-64.7 264.28,-71.63"/>
</g>
<!-- Node9&#45;&gt;Node2 -->
<g id="edge9" class="edge">
<title>Node9&#45;&gt;Node2</title>
<path fill="none" stroke="midnightblue" d="M249.54,-49.84C300.32,-44.46 374.79,-38 440,-38 583.5,-38 583.5,-38 583.5,-38 680.16,-38 792.07,-55.2 854.95,-66.46"/>
<polygon fill="midnightblue" stroke="midnightblue" points="248.96,-46.38 239.39,-50.94 249.71,-53.34 248.96,-46.38"/>
</g>
<!-- Node9&#45;&gt;Node10 -->
<g id="edge10" class="edge">
<title>Node9&#45;&gt;Node10</title>
<path fill="none" stroke="midnightblue" d="M126.71,-57C118.24,-57 109.61,-57 101.36,-57"/>
<polygon fill="midnightblue" stroke="midnightblue" points="126.93,-60.5 136.93,-57 126.93,-53.5 126.93,-60.5"/>
</g>
<!-- Node10&#45;&gt;Node4 -->
<g id="edge11" class="edge">
<title>Node10&#45;&gt;Node4</title>
<path fill="none" stroke="midnightblue" d="M69.46,-73.42C110.32,-108.99 214.69,-190 318,-190 442,-190 442,-190 442,-190 533.06,-190 555.84,-183.78 646,-171 663.93,-168.46 683.54,-164.89 700.58,-161.52"/>
<polygon fill="midnightblue" stroke="midnightblue" points="71.53,-70.58 61.73,-66.57 66.89,-75.82 71.53,-70.58"/>
</g>
</g>
</svg>
        <g id="navigator" transform="translate(0 0)" fill="#404254">
                <rect fill="#f2f5e9" fill-opacity="0.5" stroke="#606060" stroke-width=".5" x="0" y="0" width="60" height="60"/>
                <use id="zoomplus" xlink:href="#zoomPlus" x="17" y="9" onmousedown="handleZoom(evt,'in')"/>
                <use id="zoomminus" xlink:href="#zoomMin" x="42" y="9" onmousedown="handleZoom(evt,'out')"/>
                <use id="reset" xlink:href="#resetDef" x="30" y="36" onmousedown="handleReset()"/>
                <g id="arrowUp" xlink:href="#dirArrow" transform="translate(30 24)" onmousedown="handlePan(0,-1)">
                  <use xlink:href="#rim" fill="#404040">
                        <set attributeName="fill" to="#808080" begin="arrowUp.mouseover" end="arrowUp.mouseout"/>
                  </use>
                  <path fill="none" stroke="white" stroke-width="1.5" d="M0,-3.0v7 M-2.5,-0.5L0,-3.0L2.5,-0.5"/>
                </g>
                <g id="arrowRight" xlink:href="#dirArrow" transform="rotate(90) translate(36 -43)" onmousedown="handlePan(1,0)">
                  <use xlink:href="#rim" fill="#404040">
                        <set attributeName="fill" to="#808080" begin="arrowRight.mouseover" end="arrowRight.mouseout"/>
                  </use>
                  <path fill="none" stroke="white" stroke-width="1.5" d="M0,-3.0v7 M-2.5,-0.5L0,-3.0L2.5,-0.5"/>
                </g>
                <g id="arrowDown" xlink:href="#dirArrow" transform="rotate(180) translate(-30 -48)" onmousedown="handlePan(0,1)">
                  <use xlink:href="#rim" fill="#404040">
                        <set attributeName="fill" to="#808080" begin="arrowDown.mouseover" end="arrowDown.mouseout"/>
                  </use>
                  <path fill="none" stroke="white" stroke-width="1.5" d="M0,-3.0v7 M-2.5,-0.5L0,-3.0L2.5,-0.5"/>
                </g>
                <g id="arrowLeft" xlink:href="#dirArrow" transform="rotate(270) translate(-36 17)" onmousedown="handlePan(-1,0)">
                  <use xlink:href="#rim" fill="#404040">
                        <set attributeName="fill" to="#808080" begin="arrowLeft.mouseover" end="arrowLeft.mouseout"/>
                  </use>
                  <path fill="none" stroke="white" stroke-width="1.5" d="M0,-3.0v7 M-2.5,-0.5L0,-3.0L2.5,-0.5"/>
                </g>
        </g>
        <svg viewBox="0 0 15 15" width="100%" height="30px" preserveAspectRatio="xMaxYMin meet">
         <g id="arrow_out" transform="scale(0.3 0.3)">
          <a xlink:href="classApexi_a6c775f27e878959c047bb9c252064cfe_icgraph_org.svg" target="_base">
           <rect id="button" ry="5" rx="5" y="6" x="6" height="38" width="38"
                fill="#f2f5e9" fill-opacity="0.5" stroke="#606060" stroke-width="1.0"/>
           <path id="arrow"
             d="M 11.500037,31.436501 C 11.940474,20.09759 22.043105,11.32322 32.158766,21.979434 L 37.068811,17.246167 C 37.068811,17.246167 37.088388,32 37.088388,32 L 22.160133,31.978069 C 22.160133,31.978069 26.997745,27.140456 26.997745,27.140456 C 18.528582,18.264221 13.291696,25.230495 11.500037,31.436501 z"
             style="fill:#404040;"/>
          </a>
         </g>
        </svg>
</svg>
