<?xml version="1.0" encoding="UTF-8" standalone="no"?>
<!DOCTYPE svg PUBLIC "-//W3C//DTD SVG 1.1//EN"
 "http://www.w3.org/Graphics/SVG/1.1/DTD/svg11.dtd">
<!-- Generated by graphviz version 2.49.3 (20211027.1534)
 -->
<!-- Title: DashBoard::setspeedpercent Pages: 1 -->
<svg width="473pt" height="78pt"
 viewBox="0.00 0.00 473.00 77.50" xmlns="http://www.w3.org/2000/svg" xmlns:xlink="http://www.w3.org/1999/xlink">
<g id="graph0" class="graph" transform="scale(1 1) rotate(0) translate(4 73.5)">
<title>DashBoard::setspeedpercent</title>
<polygon fill="white" stroke="transparent" points="-4,4 -4,-73.5 469,-73.5 469,4 -4,4"/>
<!-- Node1 -->
<g id="node1" class="node">
<title>Node1</title>
<g id="a_node1"><a xlink:title=" ">
<polygon fill="#bfbfbf" stroke="black" points="324,-22.5 324,-41.5 465,-41.5 465,-22.5 324,-22.5"/>
<text text-anchor="middle" x="394.5" y="-29.5" font-family="Helvetica,sans-Serif" font-size="10.00">DashBoard::setspeedpercent</text>
</a>
</g>
</g>
<!-- Node2 -->
<g id="node2" class="node">
<title>Node2</title>
<g id="a_node2"><a xlink:href="classAppSettings.html#af97c4b73b02f8cf8ef75b11d8f86ac40" target="_top" xlink:title=" ">
<polygon fill="white" stroke="black" points="142,-39 142,-69 275,-69 275,-39 142,-39"/>
<text text-anchor="start" x="150" y="-57" font-family="Helvetica,sans-Serif" font-size="10.00">AppSettings::readandApply</text>
<text text-anchor="middle" x="208.5" y="-46" font-family="Helvetica,sans-Serif" font-size="10.00">Settings</text>
</a>
</g>
</g>
<!-- Node1&#45;&gt;Node2 -->
<g id="edge1" class="edge">
<title>Node1&#45;&gt;Node2</title>
<path fill="none" stroke="midnightblue" d="M313.72,-41.54C300.86,-43.08 287.69,-44.65 275.21,-46.14"/>
<polygon fill="midnightblue" stroke="midnightblue" points="314.42,-44.98 323.94,-40.32 313.59,-38.03 314.42,-44.98"/>
</g>
<!-- Node4 -->
<g id="node4" class="node">
<title>Node4</title>
<g id="a_node4"><a xlink:href="classAppSettings.html#a0bc689b962431aa02ed06b9342556343" target="_top" xlink:title=" ">
<polygon fill="white" stroke="black" points="129,-0.5 129,-19.5 288,-19.5 288,-0.5 129,-0.5"/>
<text text-anchor="middle" x="208.5" y="-7.5" font-family="Helvetica,sans-Serif" font-size="10.00">AppSettings::writeSpeedSettings</text>
</a>
</g>
</g>
<!-- Node1&#45;&gt;Node4 -->
<g id="edge3" class="edge">
<title>Node1&#45;&gt;Node4</title>
<path fill="none" stroke="midnightblue" d="M313.96,-22.49C305.38,-21.46 296.66,-20.42 288.1,-19.4"/>
<polygon fill="midnightblue" stroke="midnightblue" points="313.59,-25.97 323.94,-23.68 314.42,-19.02 313.59,-25.97"/>
</g>
<!-- Node3 -->
<g id="node3" class="node">
<title>Node3</title>
<g id="a_node3"><a xlink:href="classConnect.html#a2e3bdc883e226b286ee2ea851bf5f551" target="_top" xlink:title=" ">
<polygon fill="white" stroke="black" points="0,-44.5 0,-63.5 93,-63.5 93,-44.5 0,-44.5"/>
<text text-anchor="middle" x="46.5" y="-51.5" font-family="Helvetica,sans-Serif" font-size="10.00">Connect::Connect</text>
</a>
</g>
</g>
<!-- Node2&#45;&gt;Node3 -->
<g id="edge2" class="edge">
<title>Node2&#45;&gt;Node3</title>
<path fill="none" stroke="midnightblue" d="M131.89,-54C118.65,-54 105.24,-54 93.13,-54"/>
<polygon fill="midnightblue" stroke="midnightblue" points="131.96,-57.5 141.96,-54 131.96,-50.5 131.96,-57.5"/>
</g>
</g>
</svg>
