<?xml version="1.0" encoding="UTF-8" standalone="no"?>
<!DOCTYPE svg PUBLIC "-//W3C//DTD SVG 1.1//EN"
 "http://www.w3.org/Graphics/SVG/1.1/DTD/svg11.dtd">
<!-- Generated by graphviz version 2.49.3 (20211027.1534)
 -->
<!-- Title: DashBoard::rpmwarnChanged Pages: 1 -->
<svg width="613pt" height="88pt"
 viewBox="0.00 0.00 613.00 88.00" xmlns="http://www.w3.org/2000/svg" xmlns:xlink="http://www.w3.org/1999/xlink">
<g id="graph0" class="graph" transform="scale(1 1) rotate(0) translate(4 84)">
<title>DashBoard::rpmwarnChanged</title>
<polygon fill="white" stroke="transparent" points="-4,4 -4,-84 609,-84 609,4 -4,4"/>
<!-- Node1 -->
<g id="node1" class="node">
<title>Node1</title>
<g id="a_node1"><a xlink:title=" ">
<polygon fill="#bfbfbf" stroke="black" points="460,-30 460,-49 605,-49 605,-30 460,-30"/>
<text text-anchor="middle" x="532.5" y="-37" font-family="Helvetica,sans-Serif" font-size="10.00">DashBoard::rpmwarnChanged</text>
</a>
</g>
</g>
<!-- Node2 -->
<g id="node2" class="node">
<title>Node2</title>
<g id="a_node2"><a xlink:href="classDashBoard.html#aba80b34eccf9d061634a43fb4e6cf26e" target="_top" xlink:title=" ">
<polygon fill="white" stroke="black" points="304,-30 304,-49 424,-49 424,-30 304,-30"/>
<text text-anchor="middle" x="364" y="-37" font-family="Helvetica,sans-Serif" font-size="10.00">DashBoard::setrpmwarn</text>
</a>
</g>
</g>
<!-- Node1&#45;&gt;Node2 -->
<g id="edge1" class="edge">
<title>Node1&#45;&gt;Node2</title>
<path fill="none" stroke="midnightblue" d="M449.83,-39.5C441.2,-39.5 432.55,-39.5 424.25,-39.5"/>
<polygon fill="midnightblue" stroke="midnightblue" points="449.92,-43 459.92,-39.5 449.92,-36 449.92,-43"/>
</g>
<!-- Node3 -->
<g id="node3" class="node">
<title>Node3</title>
<g id="a_node3"><a xlink:href="classAppSettings.html#af97c4b73b02f8cf8ef75b11d8f86ac40" target="_top" xlink:title=" ">
<polygon fill="white" stroke="black" points="132,-49.5 132,-79.5 265,-79.5 265,-49.5 132,-49.5"/>
<text text-anchor="start" x="140" y="-67.5" font-family="Helvetica,sans-Serif" font-size="10.00">AppSettings::readandApply</text>
<text text-anchor="middle" x="198.5" y="-56.5" font-family="Helvetica,sans-Serif" font-size="10.00">Settings</text>
</a>
</g>
</g>
<!-- Node2&#45;&gt;Node3 -->
<g id="edge2" class="edge">
<title>Node2&#45;&gt;Node3</title>
<path fill="none" stroke="midnightblue" d="M294.08,-50.04C284.47,-51.51 274.63,-53.01 265.09,-54.47"/>
<polygon fill="midnightblue" stroke="midnightblue" points="294.62,-53.5 303.97,-48.53 293.56,-46.58 294.62,-53.5"/>
</g>
<!-- Node5 -->
<g id="node5" class="node">
<title>Node5</title>
<g id="a_node5"><a xlink:href="classAppSettings.html#aa54c28533522b9d55c514f195105a22f" target="_top" xlink:title=" ">
<polygon fill="white" stroke="black" points="129,-0.5 129,-30.5 268,-30.5 268,-0.5 129,-0.5"/>
<text text-anchor="start" x="137" y="-18.5" font-family="Helvetica,sans-Serif" font-size="10.00">AppSettings::writeWarnGear</text>
<text text-anchor="middle" x="198.5" y="-7.5" font-family="Helvetica,sans-Serif" font-size="10.00">Settings</text>
</a>
</g>
</g>
<!-- Node2&#45;&gt;Node5 -->
<g id="edge4" class="edge">
<title>Node2&#45;&gt;Node5</title>
<path fill="none" stroke="midnightblue" d="M294.04,-29.38C285.48,-28.12 276.73,-26.84 268.17,-25.58"/>
<polygon fill="midnightblue" stroke="midnightblue" points="293.57,-32.85 303.97,-30.84 294.59,-25.92 293.57,-32.85"/>
</g>
<!-- Node4 -->
<g id="node4" class="node">
<title>Node4</title>
<g id="a_node4"><a xlink:href="classConnect.html#a2e3bdc883e226b286ee2ea851bf5f551" target="_top" xlink:title=" ">
<polygon fill="white" stroke="black" points="0,-55 0,-74 93,-74 93,-55 0,-55"/>
<text text-anchor="middle" x="46.5" y="-62" font-family="Helvetica,sans-Serif" font-size="10.00">Connect::Connect</text>
</a>
</g>
</g>
<!-- Node3&#45;&gt;Node4 -->
<g id="edge3" class="edge">
<title>Node3&#45;&gt;Node4</title>
<path fill="none" stroke="midnightblue" d="M121.68,-64.5C112.03,-64.5 102.4,-64.5 93.43,-64.5"/>
<polygon fill="midnightblue" stroke="midnightblue" points="121.71,-68 131.71,-64.5 121.71,-61 121.71,-68"/>
</g>
</g>
</svg>
