<?xml version="1.0" encoding="UTF-8" standalone="no"?>
<!DOCTYPE svg PUBLIC "-//W3C//DTD SVG 1.1//EN"
 "http://www.w3.org/Graphics/SVG/1.1/DTD/svg11.dtd">
<!-- Generated by graphviz version 2.49.3 (20211027.1534)
 -->
<!-- Title: DashBoard::backroundpicturesChanged Pages: 1 -->
<svg width="555pt" height="39pt"
 viewBox="0.00 0.00 555.00 39.00" xmlns="http://www.w3.org/2000/svg" xmlns:xlink="http://www.w3.org/1999/xlink">
<g id="graph0" class="graph" transform="scale(1 1) rotate(0) translate(4 35)">
<title>DashBoard::backroundpicturesChanged</title>
<polygon fill="white" stroke="transparent" points="-4,4 -4,-35 551,-35 551,4 -4,4"/>
<!-- Node1 -->
<g id="node1" class="node">
<title>Node1</title>
<g id="a_node1"><a xlink:title=" ">
<polygon fill="#bfbfbf" stroke="black" points="398,-0.5 398,-30.5 547,-30.5 547,-0.5 398,-0.5"/>
<text text-anchor="start" x="406" y="-18.5" font-family="Helvetica,sans-Serif" font-size="10.00">DashBoard::backroundpictures</text>
<text text-anchor="middle" x="472.5" y="-7.5" font-family="Helvetica,sans-Serif" font-size="10.00">Changed</text>
</a>
</g>
</g>
<!-- Node2 -->
<g id="node2" class="node">
<title>Node2</title>
<g id="a_node2"><a xlink:href="classDashBoard.html#a8b4f1969dfdc03a0f3f1b66dcd501195" target="_top" xlink:title=" ">
<polygon fill="white" stroke="black" points="200,-6 200,-25 362,-25 362,-6 200,-6"/>
<text text-anchor="middle" x="281" y="-13" font-family="Helvetica,sans-Serif" font-size="10.00">DashBoard::setbackroundpictures</text>
</a>
</g>
</g>
<!-- Node1&#45;&gt;Node2 -->
<g id="edge1" class="edge">
<title>Node1&#45;&gt;Node2</title>
<path fill="none" stroke="midnightblue" d="M387.95,-15.5C379.36,-15.5 370.64,-15.5 362.09,-15.5"/>
<polygon fill="midnightblue" stroke="midnightblue" points="387.96,-19 397.96,-15.5 387.96,-12 387.96,-19"/>
</g>
<!-- Node3 -->
<g id="node3" class="node">
<title>Node3</title>
<g id="a_node3"><a xlink:href="classConnect.html#aaa2e9ff5c14a533b78a358e7161b82e9" target="_top" xlink:title=" ">
<polygon fill="white" stroke="black" points="0,-6 0,-25 164,-25 164,-6 0,-6"/>
<text text-anchor="middle" x="82" y="-13" font-family="Helvetica,sans-Serif" font-size="10.00">Connect::readavailablebackrounds</text>
</a>
</g>
</g>
<!-- Node2&#45;&gt;Node3 -->
<g id="edge2" class="edge">
<title>Node2&#45;&gt;Node3</title>
<path fill="none" stroke="midnightblue" d="M189.82,-15.5C181.22,-15.5 172.53,-15.5 164.02,-15.5"/>
<polygon fill="midnightblue" stroke="midnightblue" points="189.87,-19 199.87,-15.5 189.87,-12 189.87,-19"/>
</g>
</g>
</svg>
