<?xml version="1.0" encoding="UTF-8" standalone="no"?>
<!DOCTYPE svg PUBLIC "-//W3C//DTD SVG 1.1//EN"
 "http://www.w3.org/Graphics/SVG/1.1/DTD/svg11.dtd">
<!-- Generated by graphviz version 2.49.3 (20211027.1534)
 -->
<!-- Title: SerialPort::setParity Pages: 1 -->
<!--zoomable 408 -->
<svg id="main" version="1.1" xmlns="http://www.w3.org/2000/svg" xmlns:xlink="http://www.w3.org/1999/xlink" xml:space="preserve" onload="init(evt)">
<style type="text/css"><![CDATA[
.edge:hover path { stroke: red; }
.edge:hover polygon { stroke: red; fill: red; }
]]></style>
<script type="text/javascript"><![CDATA[
var edges = document.getElementsByTagName('g');
if (edges && edges.length) {
  for (var i=0;i<edges.length;i++) {
    if (edges[i].id.substr(0,4)=='edge') {
      edges[i].setAttribute('class','edge');
    }
  }
}
]]></script>
        <defs>
                <circle id="rim" cx="0" cy="0" r="7"/>
                <circle id="rim2" cx="0" cy="0" r="3.5"/>
                <g id="zoomPlus">
                        <use xlink:href="#rim" fill="#404040">
                                <set attributeName="fill" to="#808080" begin="zoomplus.mouseover" end="zoomplus.mouseout"/>
                        </use>
                        <path d="M-4,0h8M0,-4v8" fill="none" stroke="white" stroke-width="1.5" pointer-events="none"/>
                </g>
                <g id="zoomMin">
                        <use xlink:href="#rim" fill="#404040">
                                <set attributeName="fill" to="#808080" begin="zoomminus.mouseover" end="zoomminus.mouseout"/>
                        </use>
                        <path d="M-4,0h8" fill="none" stroke="white" stroke-width="1.5" pointer-events="none"/>
                </g>
                <g id="dirArrow">
                        <path fill="none" stroke="white" stroke-width="1.5" d="M0,-3.0v7 M-2.5,-0.5L0,-3.0L2.5,-0.5"/>
                </g>
               <g id="resetDef">
                       <use xlink:href="#rim2" fill="#404040">
                               <set attributeName="fill" to="#808080" begin="reset.mouseover" end="reset.mouseout"/>
                       </use>
               </g>
        </defs>

<script type="text/javascript">
var viewWidth = 1360;
var viewHeight = 408;
var sectionId = 'dynsection-2';
</script>
<script xlink:href="svgpan.js"/>
<svg id="graph" class="graph">
<g id="viewport">
<title>SerialPort::setParity</title>
<polygon fill="white" stroke="transparent" points="-4,4 -4,-404 1356,-404 1356,4 -4,4"/>
<!-- Node1 -->
<g id="node1" class="node">
<title>Node1</title>
<g id="a_node1"><a xlink:title=" ">
<polygon fill="#bfbfbf" stroke="black" points="1250,-247.5 1250,-266.5 1352,-266.5 1352,-247.5 1250,-247.5"/>
<text text-anchor="middle" x="1301" y="-254.5" font-family="Helvetica,sans-Serif" font-size="10.00">SerialPort::setParity</text>
</a>
</g>
</g>
<!-- Node2 -->
<g id="node2" class="node">
<title>Node2</title>
<g id="a_node2"><a xlink:href="classApexi.html#a84e5eadc545afab5fbb0aea8b27e17c3" target="_top" xlink:title=" ">
<polygon fill="white" stroke="black" points="1094.5,-304.5 1094.5,-323.5 1209.5,-323.5 1209.5,-304.5 1094.5,-304.5"/>
<text text-anchor="middle" x="1152" y="-311.5" font-family="Helvetica,sans-Serif" font-size="10.00">Apexi::openConnection</text>
</a>
</g>
</g>
<!-- Node1&#45;&gt;Node2 -->
<g id="edge1" class="edge">
<title>Node1&#45;&gt;Node2</title>
<path fill="none" stroke="midnightblue" d="M1265.95,-270.2C1238.96,-280.67 1201.88,-295.05 1177.68,-304.43"/>
<polygon fill="midnightblue" stroke="midnightblue" points="1267.34,-273.42 1275.4,-266.54 1264.81,-266.89 1267.34,-273.42"/>
</g>
<!-- Node11 -->
<g id="node11" class="node">
<title>Node11</title>
<g id="a_node11"><a xlink:href="classArduino.html#a71f273d9d856bfe7f07dff4825439574" target="_top" xlink:title=" ">
<polygon fill="white" stroke="black" points="1090,-247.5 1090,-266.5 1214,-266.5 1214,-247.5 1090,-247.5"/>
<text text-anchor="middle" x="1152" y="-254.5" font-family="Helvetica,sans-Serif" font-size="10.00">Arduino::openConnection</text>
</a>
</g>
</g>
<!-- Node1&#45;&gt;Node11 -->
<g id="edge13" class="edge">
<title>Node1&#45;&gt;Node11</title>
<path fill="none" stroke="midnightblue" d="M1239.69,-257C1231.26,-257 1222.59,-257 1214.14,-257"/>
<polygon fill="midnightblue" stroke="midnightblue" points="1239.82,-260.5 1249.82,-257 1239.82,-253.5 1239.82,-260.5"/>
</g>
<!-- Node12 -->
<g id="node12" class="node">
<title>Node12</title>
<g id="a_node12"><a xlink:href="classGPS.html#a51eaea2422dd980ea0a6d28f12a136de" target="_top" xlink:title=" ">
<polygon fill="white" stroke="black" points="1096,-190.5 1096,-209.5 1208,-209.5 1208,-190.5 1096,-190.5"/>
<text text-anchor="middle" x="1152" y="-197.5" font-family="Helvetica,sans-Serif" font-size="10.00">GPS::openConnection</text>
</a>
</g>
</g>
<!-- Node1&#45;&gt;Node12 -->
<g id="edge14" class="edge">
<title>Node1&#45;&gt;Node12</title>
<path fill="none" stroke="midnightblue" d="M1265.95,-243.8C1238.96,-233.33 1201.88,-218.95 1177.68,-209.57"/>
<polygon fill="midnightblue" stroke="midnightblue" points="1264.81,-247.11 1275.4,-247.46 1267.34,-240.58 1264.81,-247.11"/>
</g>
<!-- Node3 -->
<g id="node3" class="node">
<title>Node3</title>
<g id="a_node3"><a xlink:href="classConnect.html#a0d674157f4d7442c535837dadd8cf5f1" target="_top" xlink:title=" ">
<polygon fill="white" stroke="black" points="927,-380.5 927,-399.5 1054,-399.5 1054,-380.5 927,-380.5"/>
<text text-anchor="middle" x="990.5" y="-387.5" font-family="Helvetica,sans-Serif" font-size="10.00">Connect::openConnection</text>
</a>
</g>
</g>
<!-- Node2&#45;&gt;Node3 -->
<g id="edge2" class="edge">
<title>Node2&#45;&gt;Node3</title>
<path fill="none" stroke="midnightblue" d="M1128.76,-329.12C1109.6,-341.64 1080.87,-359.22 1054,-371 1045.79,-374.6 1036.7,-377.78 1028.05,-380.47"/>
<polygon fill="midnightblue" stroke="midnightblue" points="1130.7,-332.04 1137.1,-323.6 1126.83,-326.2 1130.7,-332.04"/>
</g>
<!-- Node4 -->
<g id="node4" class="node">
<title>Node4</title>
<g id="a_node4"><a xlink:href="classApexi.html#af3673b74b8aebe06a2b2f9ed81c23ee4" target="_top" xlink:title=" ">
<polygon fill="white" stroke="black" points="941.5,-342.5 941.5,-361.5 1039.5,-361.5 1039.5,-342.5 941.5,-342.5"/>
<text text-anchor="middle" x="990.5" y="-349.5" font-family="Helvetica,sans-Serif" font-size="10.00">Apexi::retryconnect</text>
</a>
</g>
</g>
<!-- Node2&#45;&gt;Node4 -->
<g id="edge3" class="edge">
<title>Node2&#45;&gt;Node4</title>
<path fill="none" stroke="midnightblue" d="M1100.77,-325.97C1078.41,-331.29 1052.46,-337.48 1031.46,-342.48"/>
<polygon fill="midnightblue" stroke="midnightblue" points="1101.83,-329.31 1110.75,-323.59 1100.21,-322.5 1101.83,-329.31"/>
</g>
<!-- Node5 -->
<g id="node5" class="node">
<title>Node5</title>
<g id="a_node5"><a xlink:href="classApexi.html#a4e7b389e8d3e283a12733ab4f8492be3" target="_top" xlink:title=" ">
<polygon fill="white" stroke="black" points="789,-342.5 789,-361.5 873,-361.5 873,-342.5 789,-342.5"/>
<text text-anchor="middle" x="831" y="-349.5" font-family="Helvetica,sans-Serif" font-size="10.00">Apexi::readData</text>
</a>
</g>
</g>
<!-- Node4&#45;&gt;Node5 -->
<g id="edge4" class="edge">
<title>Node4&#45;&gt;Node5</title>
<path fill="none" stroke="midnightblue" d="M931.2,-352C911.92,-352 890.89,-352 873.17,-352"/>
<polygon fill="midnightblue" stroke="midnightblue" points="931.39,-355.5 941.39,-352 931.39,-348.5 931.39,-355.5"/>
</g>
<!-- Node6 -->
<g id="node6" class="node">
<title>Node6</title>
<g id="a_node6"><a xlink:href="classApexi.html#a4cb1314ab5ca5175aa227ed178148f40" target="_top" xlink:title=" ">
<polygon fill="white" stroke="black" points="632,-342.5 632,-361.5 720,-361.5 720,-342.5 632,-342.5"/>
<text text-anchor="middle" x="676" y="-349.5" font-family="Helvetica,sans-Serif" font-size="10.00">Apexi::apexiECU</text>
</a>
</g>
</g>
<!-- Node5&#45;&gt;Node6 -->
<g id="edge5" class="edge">
<title>Node5&#45;&gt;Node6</title>
<path fill="none" stroke="midnightblue" d="M778.99,-352C759.95,-352 738.53,-352 720.26,-352"/>
<polygon fill="midnightblue" stroke="midnightblue" points="779,-355.5 789,-352 779,-348.5 779,-355.5"/>
</g>
<!-- Node7 -->
<g id="node7" class="node">
<title>Node7</title>
<g id="a_node7"><a xlink:href="classApexi.html#abe3bf6800fce8a4c713a08c14474d625" target="_top" xlink:title=" ">
<polygon fill="white" stroke="black" points="477,-342.5 477,-361.5 579,-361.5 579,-342.5 477,-342.5"/>
<text text-anchor="middle" x="528" y="-349.5" font-family="Helvetica,sans-Serif" font-size="10.00">Apexi::readyToRead</text>
</a>
</g>
</g>
<!-- Node6&#45;&gt;Node7 -->
<g id="edge6" class="edge">
<title>Node6&#45;&gt;Node7</title>
<path fill="none" stroke="midnightblue" d="M621.62,-352C607.75,-352 592.86,-352 579.16,-352"/>
<polygon fill="midnightblue" stroke="midnightblue" points="621.98,-355.5 631.98,-352 621.98,-348.5 621.98,-355.5"/>
</g>
<!-- Node8 -->
<g id="node8" class="node">
<title>Node8</title>
<g id="a_node8"><a xlink:href="classApexi.html#a669124cabae4ada616e650e582c068da" target="_top" xlink:title=" ">
<polygon fill="white" stroke="black" points="322,-342.5 322,-361.5 439,-361.5 439,-342.5 322,-342.5"/>
<text text-anchor="middle" x="380.5" y="-349.5" font-family="Helvetica,sans-Serif" font-size="10.00">Apexi::closeConnection</text>
</a>
</g>
</g>
<!-- Node7&#45;&gt;Node8 -->
<g id="edge7" class="edge">
<title>Node7&#45;&gt;Node8</title>
<path fill="none" stroke="midnightblue" d="M466.77,-352C457.64,-352 448.24,-352 439.17,-352"/>
<polygon fill="midnightblue" stroke="midnightblue" points="466.93,-355.5 476.93,-352 466.93,-348.5 466.93,-355.5"/>
</g>
<!-- Node10 -->
<g id="node10" class="node">
<title>Node10</title>
<g id="a_node10"><a xlink:href="classApexi.html#a169d6e9466a6c04e6533c8e84fdcaadb" target="_top" xlink:title=" ">
<polygon fill="white" stroke="black" points="330,-285.5 330,-304.5 431,-304.5 431,-285.5 330,-285.5"/>
<text text-anchor="middle" x="380.5" y="-292.5" font-family="Helvetica,sans-Serif" font-size="10.00">Apexi::initSerialPort</text>
</a>
</g>
</g>
<!-- Node7&#45;&gt;Node10 -->
<g id="edge11" class="edge">
<title>Node7&#45;&gt;Node10</title>
<path fill="none" stroke="midnightblue" d="M493.3,-338.8C466.58,-328.33 429.88,-313.95 405.93,-304.57"/>
<polygon fill="midnightblue" stroke="midnightblue" points="492.06,-342.07 502.65,-342.46 494.61,-335.55 492.06,-342.07"/>
</g>
<!-- Node8&#45;&gt;Node2 -->
<g id="edge9" class="edge">
<title>Node8&#45;&gt;Node2</title>
<path fill="none" stroke="midnightblue" d="M433.71,-340.38C447.12,-337.67 461.55,-335 475,-333 563.32,-319.87 585.71,-314 675,-314 832,-314 832,-314 832,-314 923.8,-314 1030.45,-314 1094.24,-314"/>
<polygon fill="midnightblue" stroke="midnightblue" points="432.78,-336.99 423.69,-342.44 434.19,-343.85 432.78,-336.99"/>
</g>
<!-- Node8&#45;&gt;Node5 -->
<g id="edge10" class="edge">
<title>Node8&#45;&gt;Node5</title>
<path fill="none" stroke="midnightblue" d="M429.26,-363.62C443.85,-366.65 460,-369.49 475,-371 589.98,-382.56 620.01,-382.39 735,-371 753.75,-369.14 774.27,-365.27 791.43,-361.51"/>
<polygon fill="midnightblue" stroke="midnightblue" points="429.96,-360.19 419.45,-361.51 428.49,-367.04 429.96,-360.19"/>
</g>
<!-- Node9 -->
<g id="node9" class="node">
<title>Node9</title>
<g id="a_node9"><a xlink:href="classConnect.html#abb89a14af2e2b3f6d466c5abfc95cff0" target="_top" xlink:title=" ">
<polygon fill="white" stroke="black" points="145.5,-342.5 145.5,-361.5 274.5,-361.5 274.5,-342.5 145.5,-342.5"/>
<text text-anchor="middle" x="210" y="-349.5" font-family="Helvetica,sans-Serif" font-size="10.00">Connect::closeConnection</text>
</a>
</g>
</g>
<!-- Node8&#45;&gt;Node9 -->
<g id="edge8" class="edge">
<title>Node8&#45;&gt;Node9</title>
<path fill="none" stroke="midnightblue" d="M311.81,-352C299.53,-352 286.77,-352 274.61,-352"/>
<polygon fill="midnightblue" stroke="midnightblue" points="311.98,-355.5 321.98,-352 311.98,-348.5 311.98,-355.5"/>
</g>
<!-- Node10&#45;&gt;Node2 -->
<g id="edge12" class="edge">
<title>Node10&#45;&gt;Node2</title>
<path fill="none" stroke="midnightblue" d="M441.33,-288.85C500.58,-283.3 593.96,-276 675,-276 832,-276 832,-276 832,-276 928.07,-276 1039.28,-293.2 1101.76,-304.46"/>
<polygon fill="midnightblue" stroke="midnightblue" points="440.65,-285.4 431.03,-289.83 441.32,-292.37 440.65,-285.4"/>
</g>
<!-- Node13 -->
<g id="node13" class="node">
<title>Node13</title>
<g id="a_node13"><a xlink:href="classGPS.html#a8775edfa08840ffb2647e0e5ba031fe5" target="_top" xlink:title=" ">
<polygon fill="white" stroke="black" points="931,-76.5 931,-95.5 1050,-95.5 1050,-76.5 931,-76.5"/>
<text text-anchor="middle" x="990.5" y="-83.5" font-family="Helvetica,sans-Serif" font-size="10.00">GPS::closeConnection1</text>
</a>
</g>
</g>
<!-- Node12&#45;&gt;Node13 -->
<g id="edge15" class="edge">
<title>Node12&#45;&gt;Node13</title>
<path fill="none" stroke="midnightblue" d="M1129.5,-184.63C1096.14,-160.79 1032.87,-115.57 1005.12,-95.74"/>
<polygon fill="midnightblue" stroke="midnightblue" points="1127.5,-187.51 1137.68,-190.48 1131.58,-181.81 1127.5,-187.51"/>
</g>
<!-- Node17 -->
<g id="node17" class="node">
<title>Node17</title>
<g id="a_node17"><a xlink:href="classGPS.html#aaf69fb801bbce2ea70041e68fe0ec19a" target="_top" xlink:title=" ">
<polygon fill="white" stroke="black" points="134,-76.5 134,-95.5 286,-95.5 286,-76.5 134,-76.5"/>
<text text-anchor="middle" x="210" y="-83.5" font-family="Helvetica,sans-Serif" font-size="10.00">GPS::handleReconnectTimeout</text>
</a>
</g>
</g>
<!-- Node12&#45;&gt;Node17 -->
<g id="edge32" class="edge">
<title>Node12&#45;&gt;Node17</title>
<path fill="none" stroke="midnightblue" d="M1085.94,-200C1021.48,-200 919.92,-200 832,-200 832,-200 832,-200 527,-200 404.23,-200 269.71,-122.92 225.76,-95.52"/>
<polygon fill="midnightblue" stroke="midnightblue" points="1085.96,-203.5 1095.96,-200 1085.96,-196.5 1085.96,-203.5"/>
</g>
<!-- Node14 -->
<g id="node14" class="node">
<title>Node14</title>
<g id="a_node14"><a xlink:href="classGPS.html#abd750ada6a7b976f72761ce16246ccf6" target="_top" xlink:title=" ">
<polygon fill="white" stroke="black" points="771,-38.5 771,-57.5 891,-57.5 891,-38.5 771,-38.5"/>
<text text-anchor="middle" x="831" y="-45.5" font-family="Helvetica,sans-Serif" font-size="10.00">GPS::setGPSBAUD115</text>
</a>
</g>
</g>
<!-- Node13&#45;&gt;Node14 -->
<g id="edge16" class="edge">
<title>Node13&#45;&gt;Node14</title>
<path fill="none" stroke="midnightblue" d="M939.9,-74.03C917.82,-68.71 892.2,-62.52 871.46,-57.52"/>
<polygon fill="midnightblue" stroke="midnightblue" points="939.21,-77.47 949.76,-76.41 940.86,-70.66 939.21,-77.47"/>
</g>
<!-- Node15 -->
<g id="node15" class="node">
<title>Node15</title>
<g id="a_node15"><a xlink:href="classGPS.html#a1b1c89214229f5dc8ff7e2fa9cbcad35" target="_top" xlink:title=" ">
<polygon fill="white" stroke="black" points="475,-0.5 475,-19.5 581,-19.5 581,-0.5 475,-0.5"/>
<text text-anchor="middle" x="528" y="-7.5" font-family="Helvetica,sans-Serif" font-size="10.00">GPS::handleTimeout</text>
</a>
</g>
</g>
<!-- Node14&#45;&gt;Node15 -->
<g id="edge17" class="edge">
<title>Node14&#45;&gt;Node15</title>
<path fill="none" stroke="midnightblue" d="M776.95,-36.36C763.33,-33.66 748.66,-30.99 735,-29 682.93,-21.41 623,-16.29 581.25,-13.29"/>
<polygon fill="midnightblue" stroke="midnightblue" points="776.63,-39.87 787.13,-38.43 778.03,-33.01 776.63,-39.87"/>
</g>
<!-- Node19 -->
<g id="node19" class="node">
<title>Node19</title>
<g id="a_node19"><a xlink:href="classGPS.html#a217097ae4a846c621f001a5aa1f4fb4f" target="_top" xlink:title=" ">
<polygon fill="white" stroke="black" points="617,-38.5 617,-57.5 735,-57.5 735,-38.5 617,-38.5"/>
<text text-anchor="middle" x="676" y="-45.5" font-family="Helvetica,sans-Serif" font-size="10.00">GPS::ProcessMessage</text>
</a>
</g>
</g>
<!-- Node14&#45;&gt;Node19 -->
<g id="edge27" class="edge">
<title>Node14&#45;&gt;Node19</title>
<path fill="none" stroke="midnightblue" d="M760.6,-48C752.12,-48 743.53,-48 735.24,-48"/>
<polygon fill="midnightblue" stroke="midnightblue" points="760.85,-51.5 770.85,-48 760.85,-44.5 760.85,-51.5"/>
</g>
<!-- Node15&#45;&gt;Node13 -->
<g id="edge25" class="edge">
<title>Node15&#45;&gt;Node13</title>
<path fill="none" stroke="midnightblue" d="M591.24,-3.6C664.82,1.79 790.04,4.07 891,-29 924.42,-39.95 958.99,-63.23 976.95,-76.4"/>
<polygon fill="midnightblue" stroke="midnightblue" points="590.9,-0.12 581.21,-4.38 591.45,-7.1 590.9,-0.12"/>
</g>
<!-- Node16 -->
<g id="node16" class="node">
<title>Node16</title>
<g id="a_node16"><a xlink:href="classGPS.html#ae4568ef4d5107c96c1af68d1abd33559" target="_top" xlink:title=" ">
<polygon fill="white" stroke="black" points="323.5,-76.5 323.5,-95.5 437.5,-95.5 437.5,-76.5 323.5,-76.5"/>
<text text-anchor="middle" x="380.5" y="-83.5" font-family="Helvetica,sans-Serif" font-size="10.00">GPS::closeConnection</text>
</a>
</g>
</g>
<!-- Node15&#45;&gt;Node16 -->
<g id="edge18" class="edge">
<title>Node15&#45;&gt;Node16</title>
<path fill="none" stroke="midnightblue" d="M499.71,-24.26C470.49,-39.52 424.95,-63.3 399.78,-76.45"/>
<polygon fill="midnightblue" stroke="midnightblue" points="501.33,-27.36 508.57,-19.63 498.09,-21.15 501.33,-27.36"/>
</g>
<!-- Node18 -->
<g id="node18" class="node">
<title>Node18</title>
<g id="a_node18"><a xlink:href="classGPS.html#ac2a7572afb184df9c14ae913f17306bf" target="_top" xlink:title=" ">
<polygon fill="white" stroke="black" points="0,-57.5 0,-76.5 98,-76.5 98,-57.5 0,-57.5"/>
<text text-anchor="middle" x="49" y="-64.5" font-family="Helvetica,sans-Serif" font-size="10.00">GPS::initSerialPort</text>
</a>
</g>
</g>
<!-- Node15&#45;&gt;Node18 -->
<g id="edge26" class="edge">
<title>Node15&#45;&gt;Node18</title>
<path fill="none" stroke="midnightblue" d="M464.4,-17.48C367.96,-29 185.12,-50.85 98.21,-61.24"/>
<polygon fill="midnightblue" stroke="midnightblue" points="465.07,-20.92 474.59,-16.26 464.24,-13.97 465.07,-20.92"/>
</g>
<!-- Node16&#45;&gt;Node12 -->
<g id="edge24" class="edge">
<title>Node16&#45;&gt;Node12</title>
<path fill="none" stroke="midnightblue" d="M412.56,-99.6C465.39,-121.47 576.6,-162 675,-162 832,-162 832,-162 832,-162 928.07,-162 1039.28,-179.2 1101.76,-190.46"/>
<polygon fill="midnightblue" stroke="midnightblue" points="413.67,-96.27 403.09,-95.63 410.96,-102.73 413.67,-96.27"/>
</g>
<!-- Node16&#45;&gt;Node17 -->
<g id="edge19" class="edge">
<title>Node16&#45;&gt;Node17</title>
<path fill="none" stroke="midnightblue" d="M313.12,-79.39C304.23,-79.25 295.07,-79.22 286.05,-79.29"/>
<polygon fill="midnightblue" stroke="midnightblue" points="313.32,-82.89 323.39,-79.6 313.47,-75.89 313.32,-82.89"/>
</g>
<!-- Node17&#45;&gt;Node13 -->
<g id="edge21" class="edge">
<title>Node17&#45;&gt;Node13</title>
<path fill="none" stroke="midnightblue" d="M269.96,-97.37C333.24,-108.56 436.84,-124 527,-124 677,-124 677,-124 677,-124 771.14,-124 880.07,-106.8 941.27,-95.54"/>
<polygon fill="midnightblue" stroke="midnightblue" points="270.23,-93.86 259.77,-95.54 269,-100.75 270.23,-93.86"/>
</g>
<!-- Node17&#45;&gt;Node16 -->
<g id="edge20" class="edge">
<title>Node17&#45;&gt;Node16</title>
<path fill="none" stroke="midnightblue" d="M296.09,-92.75C305.35,-92.74 314.6,-92.63 323.39,-92.4"/>
<polygon fill="midnightblue" stroke="midnightblue" points="296.07,-89.25 286.05,-92.71 296.04,-96.25 296.07,-89.25"/>
</g>
<!-- Node17&#45;&gt;Node18 -->
<g id="edge22" class="edge">
<title>Node17&#45;&gt;Node18</title>
<path fill="none" stroke="midnightblue" d="M123.53,-75.79C114.88,-74.75 106.34,-73.73 98.29,-72.77"/>
<polygon fill="midnightblue" stroke="midnightblue" points="123.35,-79.29 133.69,-77 124.18,-72.34 123.35,-79.29"/>
</g>
<!-- Node18&#45;&gt;Node12 -->
<g id="edge23" class="edge">
<title>Node18&#45;&gt;Node12</title>
<path fill="none" stroke="midnightblue" d="M67.2,-83.65C113.51,-126.63 246.35,-238 379.5,-238 832,-238 832,-238 832,-238 928.07,-238 1039.28,-220.8 1101.76,-209.54"/>
<polygon fill="midnightblue" stroke="midnightblue" points="69.49,-81 59.81,-76.68 64.69,-86.09 69.49,-81"/>
</g>
<!-- Node20 -->
<g id="node20" class="node">
<title>Node20</title>
<g id="a_node20"><a xlink:href="classGPS.html#aa0928d156961a54bf06d9b5210d85561" target="_top" xlink:title=" ">
<polygon fill="white" stroke="black" points="478.5,-57.5 478.5,-76.5 577.5,-76.5 577.5,-57.5 478.5,-57.5"/>
<text text-anchor="middle" x="528" y="-64.5" font-family="Helvetica,sans-Serif" font-size="10.00">GPS::readyToRead</text>
</a>
</g>
</g>
<!-- Node19&#45;&gt;Node20 -->
<g id="edge28" class="edge">
<title>Node19&#45;&gt;Node20</title>
<path fill="none" stroke="midnightblue" d="M606.69,-56.89C596.84,-58.17 586.88,-59.47 577.53,-60.68"/>
<polygon fill="midnightblue" stroke="midnightblue" points="607.41,-60.33 616.88,-55.56 606.51,-53.38 607.41,-60.33"/>
</g>
<!-- Node20&#45;&gt;Node13 -->
<g id="edge30" class="edge">
<title>Node20&#45;&gt;Node13</title>
<path fill="none" stroke="midnightblue" d="M587.76,-69.42C676.13,-73.07 842.31,-79.93 930.71,-83.57"/>
<polygon fill="midnightblue" stroke="midnightblue" points="587.77,-65.92 577.63,-69.01 587.48,-72.92 587.77,-65.92"/>
</g>
<!-- Node20&#45;&gt;Node16 -->
<g id="edge29" class="edge">
<title>Node20&#45;&gt;Node16</title>
<path fill="none" stroke="midnightblue" d="M468.18,-74.68C458.05,-76 447.56,-77.37 437.51,-78.69"/>
<polygon fill="midnightblue" stroke="midnightblue" points="468.68,-78.15 478.15,-73.38 467.78,-71.2 468.68,-78.15"/>
</g>
<!-- Node20&#45;&gt;Node18 -->
<g id="edge31" class="edge">
<title>Node20&#45;&gt;Node18</title>
<path fill="none" stroke="midnightblue" d="M468.13,-67C372.69,-67 185.99,-67 98.03,-67"/>
<polygon fill="midnightblue" stroke="midnightblue" points="468.19,-70.5 478.19,-67 468.19,-63.5 468.19,-70.5"/>
</g>
</g>
</svg>
        <g id="navigator" transform="translate(0 0)" fill="#404254">
                <rect fill="#f2f5e9" fill-opacity="0.5" stroke="#606060" stroke-width=".5" x="0" y="0" width="60" height="60"/>
                <use id="zoomplus" xlink:href="#zoomPlus" x="17" y="9" onmousedown="handleZoom(evt,'in')"/>
                <use id="zoomminus" xlink:href="#zoomMin" x="42" y="9" onmousedown="handleZoom(evt,'out')"/>
                <use id="reset" xlink:href="#resetDef" x="30" y="36" onmousedown="handleReset()"/>
                <g id="arrowUp" xlink:href="#dirArrow" transform="translate(30 24)" onmousedown="handlePan(0,-1)">
                  <use xlink:href="#rim" fill="#404040">
                        <set attributeName="fill" to="#808080" begin="arrowUp.mouseover" end="arrowUp.mouseout"/>
                  </use>
                  <path fill="none" stroke="white" stroke-width="1.5" d="M0,-3.0v7 M-2.5,-0.5L0,-3.0L2.5,-0.5"/>
                </g>
                <g id="arrowRight" xlink:href="#dirArrow" transform="rotate(90) translate(36 -43)" onmousedown="handlePan(1,0)">
                  <use xlink:href="#rim" fill="#404040">
                        <set attributeName="fill" to="#808080" begin="arrowRight.mouseover" end="arrowRight.mouseout"/>
                  </use>
                  <path fill="none" stroke="white" stroke-width="1.5" d="M0,-3.0v7 M-2.5,-0.5L0,-3.0L2.5,-0.5"/>
                </g>
                <g id="arrowDown" xlink:href="#dirArrow" transform="rotate(180) translate(-30 -48)" onmousedown="handlePan(0,1)">
                  <use xlink:href="#rim" fill="#404040">
                        <set attributeName="fill" to="#808080" begin="arrowDown.mouseover" end="arrowDown.mouseout"/>
                  </use>
                  <path fill="none" stroke="white" stroke-width="1.5" d="M0,-3.0v7 M-2.5,-0.5L0,-3.0L2.5,-0.5"/>
                </g>
                <g id="arrowLeft" xlink:href="#dirArrow" transform="rotate(270) translate(-36 17)" onmousedown="handlePan(-1,0)">
                  <use xlink:href="#rim" fill="#404040">
                        <set attributeName="fill" to="#808080" begin="arrowLeft.mouseover" end="arrowLeft.mouseout"/>
                  </use>
                  <path fill="none" stroke="white" stroke-width="1.5" d="M0,-3.0v7 M-2.5,-0.5L0,-3.0L2.5,-0.5"/>
                </g>
        </g>
        <svg viewBox="0 0 15 15" width="100%" height="30px" preserveAspectRatio="xMaxYMin meet">
         <g id="arrow_out" transform="scale(0.3 0.3)">
          <a xlink:href="classSerialPort_aad156293689e349b3674671f8a8d8048_icgraph_org.svg" target="_base">
           <rect id="button" ry="5" rx="5" y="6" x="6" height="38" width="38"
                fill="#f2f5e9" fill-opacity="0.5" stroke="#606060" stroke-width="1.0"/>
           <path id="arrow"
             d="M 11.500037,31.436501 C 11.940474,20.09759 22.043105,11.32322 32.158766,21.979434 L 37.068811,17.246167 C 37.068811,17.246167 37.088388,32 37.088388,32 L 22.160133,31.978069 C 22.160133,31.978069 26.997745,27.140456 26.997745,27.140456 C 18.528582,18.264221 13.291696,25.230495 11.500037,31.436501 z"
             style="fill:#404040;"/>
          </a>
         </g>
        </svg>
</svg>
