<?xml version="1.0" encoding="UTF-8" standalone="no"?>
<!DOCTYPE svg PUBLIC "-//W3C//DTD SVG 1.1//EN"
 "http://www.w3.org/Graphics/SVG/1.1/DTD/svg11.dtd">
<!-- Generated by graphviz version 2.49.3 (20211027.1534)
 -->
<!-- Title: DownloadManager::append Pages: 1 -->
<svg width="887pt" height="400pt"
 viewBox="0.00 0.00 887.00 399.50" xmlns="http://www.w3.org/2000/svg" xmlns:xlink="http://www.w3.org/1999/xlink">
<g id="graph0" class="graph" transform="scale(1 1) rotate(0) translate(4 395.5)">
<title>DownloadManager::append</title>
<polygon fill="white" stroke="transparent" points="-4,4 -4,-395.5 883,-395.5 883,4 -4,4"/>
<!-- Node1 -->
<g id="node1" class="node">
<title>Node1</title>
<g id="a_node1"><a xlink:title=" ">
<polygon fill="#bfbfbf" stroke="black" points="0,-189 0,-208 133,-208 133,-189 0,-189"/>
<text text-anchor="middle" x="66.5" y="-196" font-family="Helvetica,sans-Serif" font-size="10.00">DownloadManager::append</text>
</a>
</g>
</g>
<!-- Node2 -->
<g id="node2" class="node">
<title>Node2</title>
<g id="a_node2"><a xlink:href="classDownloadManager.html#afa2ecdfa2483d265db87682234f817e5" target="_top" xlink:title=" ">
<polygon fill="white" stroke="black" points="169,-189 169,-208 302,-208 302,-189 169,-189"/>
<text text-anchor="middle" x="235.5" y="-196" font-family="Helvetica,sans-Serif" font-size="10.00">DownloadManager::append</text>
</a>
</g>
</g>
<!-- Node1&#45;&gt;Node2 -->
<g id="edge1" class="edge">
<title>Node1&#45;&gt;Node2</title>
<path fill="none" stroke="midnightblue" d="M133.02,-198.5C141.5,-198.5 150.23,-198.5 158.85,-198.5"/>
<polygon fill="midnightblue" stroke="midnightblue" points="158.89,-202 168.89,-198.5 158.89,-195 158.89,-202"/>
</g>
<!-- Node3 -->
<g id="node3" class="node">
<title>Node3</title>
<g id="a_node3"><a xlink:href="classDownloadManager.html#a5b2dc25fef54a4e61b48aa2c64854450" target="_top" xlink:title=" ">
<polygon fill="white" stroke="black" points="338,-152.5 338,-182.5 479,-182.5 479,-152.5 338,-152.5"/>
<text text-anchor="start" x="346" y="-170.5" font-family="Helvetica,sans-Serif" font-size="10.00">DownloadManager::startNext</text>
<text text-anchor="middle" x="408.5" y="-159.5" font-family="Helvetica,sans-Serif" font-size="10.00">Download</text>
</a>
</g>
</g>
<!-- Node2&#45;&gt;Node3 -->
<g id="edge2" class="edge">
<title>Node2&#45;&gt;Node3</title>
<path fill="none" stroke="midnightblue" d="M289.2,-188.95C301.48,-186.72 314.82,-184.3 327.97,-181.92"/>
<polygon fill="midnightblue" stroke="midnightblue" points="328.75,-185.33 337.97,-180.1 327.51,-178.44 328.75,-185.33"/>
</g>
<!-- Node3&#45;&gt;Node3 -->
<g id="edge20" class="edge">
<title>Node3&#45;&gt;Node3</title>
<path fill="none" stroke="midnightblue" d="M378.53,-182.66C371.3,-192.06 381.29,-201 408.5,-201 425.08,-201 435.27,-197.68 439.06,-192.96"/>
<polygon fill="midnightblue" stroke="midnightblue" points="442.54,-192.44 438.47,-182.66 435.55,-192.84 442.54,-192.44"/>
</g>
<!-- Node4 -->
<g id="node4" class="node">
<title>Node4</title>
<g id="a_node4"><a xlink:href="classDownloadManager.html#a3db45b9d3b58f6e6cf7c75a263fb85ce" target="_top" xlink:title=" ">
<polygon fill="white" stroke="black" points="525.5,-250.5 525.5,-280.5 668.5,-280.5 668.5,-250.5 525.5,-250.5"/>
<text text-anchor="start" x="533.5" y="-268.5" font-family="Helvetica,sans-Serif" font-size="10.00">DownloadManager::download</text>
<text text-anchor="middle" x="597" y="-257.5" font-family="Helvetica,sans-Serif" font-size="10.00">Finished</text>
</a>
</g>
</g>
<!-- Node3&#45;&gt;Node4 -->
<g id="edge3" class="edge">
<title>Node3&#45;&gt;Node4</title>
<path fill="none" stroke="midnightblue" d="M449.05,-182.65C484.38,-199.55 535.3,-226.5 566.98,-245.2"/>
<polygon fill="midnightblue" stroke="midnightblue" points="565.39,-248.33 575.77,-250.48 569,-242.33 565.39,-248.33"/>
</g>
<!-- Node10 -->
<g id="node10" class="node">
<title>Node10</title>
<g id="a_node10"><a xlink:href="classDownloadManager.html#ac8c0eab33303a6ce3dcfddf1795cee0c" target="_top" xlink:title=" ">
<polygon fill="white" stroke="black" points="525.5,-137.5 525.5,-167.5 668.5,-167.5 668.5,-137.5 525.5,-137.5"/>
<text text-anchor="start" x="533.5" y="-155.5" font-family="Helvetica,sans-Serif" font-size="10.00">DownloadManager::download</text>
<text text-anchor="middle" x="597" y="-144.5" font-family="Helvetica,sans-Serif" font-size="10.00">Progress</text>
</a>
</g>
</g>
<!-- Node3&#45;&gt;Node10 -->
<g id="edge11" class="edge">
<title>Node3&#45;&gt;Node10</title>
<path fill="none" stroke="midnightblue" d="M479.21,-161.89C491.01,-160.94 503.35,-159.95 515.4,-158.98"/>
<polygon fill="midnightblue" stroke="midnightblue" points="515.75,-162.47 525.44,-158.17 515.19,-155.49 515.75,-162.47"/>
</g>
<!-- Node11 -->
<g id="node11" class="node">
<title>Node11</title>
<g id="a_node11"><a xlink:href="classDownloadManager.html#afe821e6eac5970b806896d1eb5abea30" target="_top" xlink:title=" ">
<polygon fill="white" stroke="black" points="718,-159.5 718,-189.5 876,-189.5 876,-159.5 718,-159.5"/>
<text text-anchor="start" x="726" y="-177.5" font-family="Helvetica,sans-Serif" font-size="10.00">DownloadManager::setDownload</text>
<text text-anchor="middle" x="797" y="-166.5" font-family="Helvetica,sans-Serif" font-size="10.00">Status</text>
</a>
</g>
</g>
<!-- Node3&#45;&gt;Node11 -->
<g id="edge19" class="edge">
<title>Node3&#45;&gt;Node11</title>
<path fill="none" stroke="midnightblue" d="M479.24,-175.05C491.15,-176.07 503.42,-176.95 515,-177.5 579.46,-180.55 652.32,-179.65 707.7,-178.06"/>
<polygon fill="midnightblue" stroke="midnightblue" points="707.94,-181.56 717.83,-177.76 707.73,-174.56 707.94,-181.56"/>
</g>
<!-- Node15 -->
<g id="node15" class="node">
<title>Node15</title>
<g id="a_node15"><a xlink:href="classDownloadManager.html#a5658efb355cf64437bf0c206e6ee0c63" target="_top" xlink:title=" ">
<polygon fill="white" stroke="black" points="525.5,-88.5 525.5,-118.5 668.5,-118.5 668.5,-88.5 525.5,-88.5"/>
<text text-anchor="start" x="533.5" y="-106.5" font-family="Helvetica,sans-Serif" font-size="10.00">DownloadManager::download</text>
<text text-anchor="middle" x="597" y="-95.5" font-family="Helvetica,sans-Serif" font-size="10.00">ReadyRead</text>
</a>
</g>
</g>
<!-- Node3&#45;&gt;Node15 -->
<g id="edge16" class="edge">
<title>Node3&#45;&gt;Node15</title>
<path fill="none" stroke="midnightblue" d="M448.9,-152.35C468.65,-144.91 492.99,-135.96 515,-128.5 521.8,-126.19 528.96,-123.86 536.08,-121.59"/>
<polygon fill="midnightblue" stroke="midnightblue" points="537.26,-124.89 545.74,-118.54 535.15,-118.21 537.26,-124.89"/>
</g>
<!-- Node16 -->
<g id="node16" class="node">
<title>Node16</title>
<g id="a_node16"><a xlink:href="classDownloadManager.html#a40a2bd7e138955b1accb75841c8dfd69" target="_top" xlink:title=" ">
<polygon fill="white" stroke="black" points="515,-50 515,-69 679,-69 679,-50 515,-50"/>
<text text-anchor="middle" x="597" y="-57" font-family="Helvetica,sans-Serif" font-size="10.00">DownloadManager::saveFileName</text>
</a>
</g>
</g>
<!-- Node3&#45;&gt;Node16 -->
<g id="edge17" class="edge">
<title>Node3&#45;&gt;Node16</title>
<path fill="none" stroke="midnightblue" d="M423.32,-152.31C442.13,-132.55 477.76,-98.35 515,-79.5 520.6,-76.67 526.62,-74.22 532.76,-72.11"/>
<polygon fill="midnightblue" stroke="midnightblue" points="533.98,-75.4 542.47,-69.06 531.88,-68.72 533.98,-75.4"/>
</g>
<!-- Node17 -->
<g id="node17" class="node">
<title>Node17</title>
<g id="a_node17"><a xlink:href="classDownloadManager.html#a3b2f0bf89f97c8c61836376328c0208d" target="_top" xlink:title=" ">
<polygon fill="white" stroke="black" points="518,-0.5 518,-30.5 676,-30.5 676,-0.5 518,-0.5"/>
<text text-anchor="start" x="526" y="-18.5" font-family="Helvetica,sans-Serif" font-size="10.00">DownloadManager::setDownload</text>
<text text-anchor="middle" x="597" y="-7.5" font-family="Helvetica,sans-Serif" font-size="10.00">Filename</text>
</a>
</g>
</g>
<!-- Node3&#45;&gt;Node17 -->
<g id="edge18" class="edge">
<title>Node3&#45;&gt;Node17</title>
<path fill="none" stroke="midnightblue" d="M418.14,-152.14C433.91,-125.46 469.94,-70.57 515,-40.5 518.06,-38.46 521.29,-36.58 524.63,-34.85"/>
<polygon fill="midnightblue" stroke="midnightblue" points="526.12,-38.02 533.69,-30.6 523.15,-31.68 526.12,-38.02"/>
</g>
<!-- Node4&#45;&gt;Node2 -->
<g id="edge4" class="edge">
<title>Node4&#45;&gt;Node2</title>
<path fill="none" stroke="midnightblue" d="M525.25,-252.31C458.96,-239.96 360.87,-221.68 297.82,-209.93"/>
<polygon fill="midnightblue" stroke="midnightblue" points="298.1,-206.42 287.63,-208.03 296.82,-213.3 298.1,-206.42"/>
</g>
<!-- Node4&#45;&gt;Node3 -->
<g id="edge10" class="edge">
<title>Node4&#45;&gt;Node3</title>
<path fill="none" stroke="midnightblue" d="M556.53,-250.39C521.23,-233.5 470.32,-206.56 438.61,-187.86"/>
<polygon fill="midnightblue" stroke="midnightblue" points="440.19,-184.72 429.81,-182.58 436.59,-190.72 440.19,-184.72"/>
</g>
<!-- Node5 -->
<g id="node5" class="node">
<title>Node5</title>
<g id="a_node5"><a xlink:href="classTextProgressBar.html#a43a19ca874afe1bca5dbe7c533bd839a" target="_top" xlink:title=" ">
<polygon fill="white" stroke="black" points="739.5,-372 739.5,-391 854.5,-391 854.5,-372 739.5,-372"/>
<text text-anchor="middle" x="797" y="-379" font-family="Helvetica,sans-Serif" font-size="10.00">TextProgressBar::clear</text>
</a>
</g>
</g>
<!-- Node4&#45;&gt;Node5 -->
<g id="edge5" class="edge">
<title>Node4&#45;&gt;Node5</title>
<path fill="none" stroke="midnightblue" d="M611.91,-280.84C632.36,-302.43 672.71,-341.48 715,-362.5 719.85,-364.91 725.02,-367.02 730.31,-368.87"/>
<polygon fill="midnightblue" stroke="midnightblue" points="729.32,-372.23 739.91,-371.93 731.44,-365.56 729.32,-372.23"/>
</g>
<!-- Node6 -->
<g id="node6" class="node">
<title>Node6</title>
<g id="a_node6"><a xlink:href="classDownloadManager.html#a9f39dbbaf6b7fe76261158273a4220ff" target="_top" xlink:title=" ">
<polygon fill="white" stroke="black" points="715,-334 715,-353 879,-353 879,-334 715,-334"/>
<text text-anchor="middle" x="797" y="-341" font-family="Helvetica,sans-Serif" font-size="10.00">DownloadManager::isHttpRedirect</text>
</a>
</g>
</g>
<!-- Node4&#45;&gt;Node6 -->
<g id="edge6" class="edge">
<title>Node4&#45;&gt;Node6</title>
<path fill="none" stroke="midnightblue" d="M623.69,-280.69C646.89,-293.86 682.29,-312.61 715,-324.5 722.08,-327.07 729.64,-329.39 737.18,-331.44"/>
<polygon fill="midnightblue" stroke="midnightblue" points="736.49,-334.88 747.05,-333.99 738.24,-328.1 736.49,-334.88"/>
</g>
<!-- Node7 -->
<g id="node7" class="node">
<title>Node7</title>
<g id="a_node7"><a xlink:href="classparsegithubData.html#ac9ecdd057c8725240858481bde768f16" target="_top" xlink:title=" ">
<polygon fill="white" stroke="black" points="719.5,-296 719.5,-315 874.5,-315 874.5,-296 719.5,-296"/>
<text text-anchor="middle" x="797" y="-303" font-family="Helvetica,sans-Serif" font-size="10.00">parsegithubData::readTrackData</text>
</a>
</g>
</g>
<!-- Node4&#45;&gt;Node7 -->
<g id="edge7" class="edge">
<title>Node4&#45;&gt;Node7</title>
<path fill="none" stroke="midnightblue" d="M668.64,-279.77C691.76,-284.44 717.13,-289.57 739.09,-294"/>
<polygon fill="midnightblue" stroke="midnightblue" points="738.43,-297.44 748.93,-295.99 739.82,-290.58 738.43,-297.44"/>
</g>
<!-- Node8 -->
<g id="node8" class="node">
<title>Node8</title>
<g id="a_node8"><a xlink:href="classDownloadManager.html#ad61fdaf56f156496613a587a873e06ff" target="_top" xlink:title=" ">
<polygon fill="white" stroke="black" points="716,-258 716,-277 878,-277 878,-258 716,-258"/>
<text text-anchor="middle" x="797" y="-265" font-family="Helvetica,sans-Serif" font-size="10.00">DownloadManager::reportRedirect</text>
</a>
</g>
</g>
<!-- Node4&#45;&gt;Node8 -->
<g id="edge8" class="edge">
<title>Node4&#45;&gt;Node8</title>
<path fill="none" stroke="midnightblue" d="M668.64,-266.21C680.62,-266.33 693.2,-266.46 705.59,-266.59"/>
<polygon fill="midnightblue" stroke="midnightblue" points="705.91,-270.09 715.95,-266.69 705.98,-263.09 705.91,-270.09"/>
</g>
<!-- Node9 -->
<g id="node9" class="node">
<title>Node9</title>
<g id="a_node9"><a xlink:href="classparsegithubData.html#aed9c8ad9cf0369639fc5d26577351f3e" target="_top" xlink:title=" ">
<polygon fill="white" stroke="black" points="716.5,-208.5 716.5,-238.5 877.5,-238.5 877.5,-208.5 716.5,-208.5"/>
<text text-anchor="start" x="724.5" y="-226.5" font-family="Helvetica,sans-Serif" font-size="10.00">parsegithubData::sortDownloaded</text>
<text text-anchor="middle" x="797" y="-215.5" font-family="Helvetica,sans-Serif" font-size="10.00">Files</text>
</a>
</g>
</g>
<!-- Node4&#45;&gt;Node9 -->
<g id="edge9" class="edge">
<title>Node4&#45;&gt;Node9</title>
<path fill="none" stroke="midnightblue" d="M668.64,-250.51C683.68,-247.33 699.66,-243.94 715.04,-240.67"/>
<polygon fill="midnightblue" stroke="midnightblue" points="715.99,-244.05 725.05,-238.55 714.54,-237.2 715.99,-244.05"/>
</g>
<!-- Node10&#45;&gt;Node11 -->
<g id="edge12" class="edge">
<title>Node10&#45;&gt;Node11</title>
<path fill="none" stroke="midnightblue" d="M668.64,-160.35C681.39,-161.77 694.82,-163.26 707.98,-164.72"/>
<polygon fill="midnightblue" stroke="midnightblue" points="707.66,-168.21 717.98,-165.83 708.43,-161.25 707.66,-168.21"/>
</g>
<!-- Node12 -->
<g id="node12" class="node">
<title>Node12</title>
<g id="a_node12"><a xlink:href="classTextProgressBar.html#ae4980260298075636a679d8674aaecc8" target="_top" xlink:title=" ">
<polygon fill="white" stroke="black" points="723.5,-121 723.5,-140 870.5,-140 870.5,-121 723.5,-121"/>
<text text-anchor="middle" x="797" y="-128" font-family="Helvetica,sans-Serif" font-size="10.00">TextProgressBar::setMessage</text>
</a>
</g>
</g>
<!-- Node10&#45;&gt;Node12 -->
<g id="edge13" class="edge">
<title>Node10&#45;&gt;Node12</title>
<path fill="none" stroke="midnightblue" d="M668.64,-144.65C683.08,-143.05 698.4,-141.34 713.22,-139.7"/>
<polygon fill="midnightblue" stroke="midnightblue" points="713.83,-143.15 723.38,-138.57 713.05,-136.19 713.83,-143.15"/>
</g>
<!-- Node13 -->
<g id="node13" class="node">
<title>Node13</title>
<g id="a_node13"><a xlink:href="classTextProgressBar.html#a49dcb117820c89bc02b92b1386648bfb" target="_top" xlink:title=" ">
<polygon fill="white" stroke="black" points="729,-83 729,-102 865,-102 865,-83 729,-83"/>
<text text-anchor="middle" x="797" y="-90" font-family="Helvetica,sans-Serif" font-size="10.00">TextProgressBar::setStatus</text>
</a>
</g>
</g>
<!-- Node10&#45;&gt;Node13 -->
<g id="edge14" class="edge">
<title>Node10&#45;&gt;Node13</title>
<path fill="none" stroke="midnightblue" d="M652.85,-137.49C661.67,-134.72 670.64,-131.69 679,-128.5 695.53,-122.19 698.29,-117.33 715,-111.5 722.38,-108.92 730.27,-106.59 738.11,-104.5"/>
<polygon fill="midnightblue" stroke="midnightblue" points="739.14,-107.85 747.98,-102 737.42,-101.07 739.14,-107.85"/>
</g>
<!-- Node14 -->
<g id="node14" class="node">
<title>Node14</title>
<g id="a_node14"><a xlink:href="classTextProgressBar.html#a1484eaa6c18381dccc0470db1fb4263d" target="_top" xlink:title=" ">
<polygon fill="white" stroke="black" points="735.5,-45 735.5,-64 858.5,-64 858.5,-45 735.5,-45"/>
<text text-anchor="middle" x="797" y="-52" font-family="Helvetica,sans-Serif" font-size="10.00">TextProgressBar::update</text>
</a>
</g>
</g>
<!-- Node10&#45;&gt;Node14 -->
<g id="edge15" class="edge">
<title>Node10&#45;&gt;Node14</title>
<path fill="none" stroke="midnightblue" d="M664.04,-137.36C669.34,-134.85 674.41,-131.91 679,-128.5 702.44,-111.06 691.07,-90.26 715,-73.5 718.46,-71.08 722.19,-68.96 726.08,-67.11"/>
<polygon fill="midnightblue" stroke="midnightblue" points="727.48,-70.31 735.39,-63.26 724.81,-63.85 727.48,-70.31"/>
</g>
</g>
</svg>
