<?xml version="1.0" encoding="UTF-8" standalone="no"?>
<!DOCTYPE svg PUBLIC "-//W3C//DTD SVG 1.1//EN"
 "http://www.w3.org/Graphics/SVG/1.1/DTD/svg11.dtd">
<!-- Generated by graphviz version 2.49.3 (20211027.1534)
 -->
<!-- Title: GPS::processGPGGA Pages: 1 -->
<svg width="467pt" height="363pt"
 viewBox="0.00 0.00 467.00 362.50" xmlns="http://www.w3.org/2000/svg" xmlns:xlink="http://www.w3.org/1999/xlink">
<g id="graph0" class="graph" transform="scale(1 1) rotate(0) translate(4 358.5)">
<title>GPS::processGPGGA</title>
<polygon fill="white" stroke="transparent" points="-4,4 -4,-358.5 463,-358.5 463,4 -4,4"/>
<!-- Node1 -->
<g id="node1" class="node">
<title>Node1</title>
<g id="a_node1"><a xlink:title=" ">
<polygon fill="#bfbfbf" stroke="black" points="0,-145 0,-164 113,-164 113,-145 0,-145"/>
<text text-anchor="middle" x="56.5" y="-152" font-family="Helvetica,sans-Serif" font-size="10.00">GPS::processGPGGA</text>
</a>
</g>
</g>
<!-- Node2 -->
<g id="node2" class="node">
<title>Node2</title>
<g id="a_node2"><a xlink:href="classGPS.html#a894018a07e73bdc11af81f5db97f6b28" target="_top" xlink:title=" ">
<polygon fill="white" stroke="black" points="168,-278 168,-297 271,-297 271,-278 168,-278"/>
<text text-anchor="middle" x="219.5" y="-285" font-family="Helvetica,sans-Serif" font-size="10.00">GPS::checknewLap</text>
</a>
</g>
</g>
<!-- Node1&#45;&gt;Node2 -->
<g id="edge1" class="edge">
<title>Node1&#45;&gt;Node2</title>
<path fill="none" stroke="midnightblue" d="M62.45,-164.15C74.27,-186.2 106.35,-240.52 149,-268.5 152.17,-270.58 155.56,-272.43 159.07,-274.08"/>
<polygon fill="midnightblue" stroke="midnightblue" points="158.03,-277.44 168.61,-278 160.69,-270.96 158.03,-277.44"/>
</g>
<!-- Node7 -->
<g id="node7" class="node">
<title>Node7</title>
<g id="a_node7"><a xlink:href="classGPS.html#a75bada3072c3235ae1d076d5ce002175" target="_top" xlink:title=" ">
<polygon fill="white" stroke="black" points="159,-240 159,-259 280,-259 280,-240 159,-240"/>
<text text-anchor="middle" x="219.5" y="-247" font-family="Helvetica,sans-Serif" font-size="10.00">GPS::convertToDecimal</text>
</a>
</g>
</g>
<!-- Node1&#45;&gt;Node7 -->
<g id="edge6" class="edge">
<title>Node1&#45;&gt;Node7</title>
<path fill="none" stroke="midnightblue" d="M66.39,-164.2C81.71,-180.34 114.75,-212.67 149,-230.5 153.35,-232.76 157.99,-234.78 162.74,-236.57"/>
<polygon fill="midnightblue" stroke="midnightblue" points="161.98,-240.01 172.58,-239.94 164.25,-233.39 161.98,-240.01"/>
</g>
<!-- Node8 -->
<g id="node8" class="node">
<title>Node8</title>
<g id="a_node8"><a xlink:href="classDashBoard.html#a998569aa565c0a5a872810160266f681" target="_top" xlink:title=" ">
<polygon fill="white" stroke="black" points="154,-202 154,-221 285,-221 285,-202 154,-202"/>
<text text-anchor="middle" x="219.5" y="-209" font-family="Helvetica,sans-Serif" font-size="10.00">DashBoard::setgpsAltitude</text>
</a>
</g>
</g>
<!-- Node1&#45;&gt;Node8 -->
<g id="edge7" class="edge">
<title>Node1&#45;&gt;Node8</title>
<path fill="none" stroke="midnightblue" d="M78.29,-164.02C96.65,-172.21 124.27,-184.02 149,-192.5 155.83,-194.84 163.12,-197.09 170.31,-199.18"/>
<polygon fill="midnightblue" stroke="midnightblue" points="169.42,-202.57 180,-201.91 171.32,-195.83 169.42,-202.57"/>
</g>
<!-- Node9 -->
<g id="node9" class="node">
<title>Node9</title>
<g id="a_node9"><a xlink:href="classDashBoard.html#acd9bb1ec108194ecb9d451b430275922" target="_top" xlink:title=" ">
<polygon fill="white" stroke="black" points="153.5,-164 153.5,-183 285.5,-183 285.5,-164 153.5,-164"/>
<text text-anchor="middle" x="219.5" y="-171" font-family="Helvetica,sans-Serif" font-size="10.00">DashBoard::setgpsFIXtype</text>
</a>
</g>
</g>
<!-- Node1&#45;&gt;Node9 -->
<g id="edge8" class="edge">
<title>Node1&#45;&gt;Node9</title>
<path fill="none" stroke="midnightblue" d="M113.36,-161.09C123.03,-162.23 133.23,-163.44 143.31,-164.63"/>
<polygon fill="midnightblue" stroke="midnightblue" points="143,-168.11 153.34,-165.81 143.82,-161.16 143,-168.11"/>
</g>
<!-- Node10 -->
<g id="node10" class="node">
<title>Node10</title>
<g id="a_node10"><a xlink:href="classDashBoard.html#a5eb7cceabcdbd62521c9512cba7fbf02" target="_top" xlink:title=" ">
<polygon fill="white" stroke="black" points="156,-126 156,-145 283,-145 283,-126 156,-126"/>
<text text-anchor="middle" x="219.5" y="-133" font-family="Helvetica,sans-Serif" font-size="10.00">DashBoard::setgpsHDOP</text>
</a>
</g>
</g>
<!-- Node1&#45;&gt;Node10 -->
<g id="edge9" class="edge">
<title>Node1&#45;&gt;Node10</title>
<path fill="none" stroke="midnightblue" d="M113.36,-147.91C123.86,-146.67 134.98,-145.36 145.9,-144.07"/>
<polygon fill="midnightblue" stroke="midnightblue" points="146.33,-147.54 155.85,-142.89 145.51,-140.59 146.33,-147.54"/>
</g>
<!-- Node11 -->
<g id="node11" class="node">
<title>Node11</title>
<g id="a_node11"><a xlink:href="classDashBoard.html#a13f7ff18107138daa6618a4564e935be" target="_top" xlink:title=" ">
<polygon fill="white" stroke="black" points="152.5,-88 152.5,-107 286.5,-107 286.5,-88 152.5,-88"/>
<text text-anchor="middle" x="219.5" y="-95" font-family="Helvetica,sans-Serif" font-size="10.00">DashBoard::setgpsLatitude</text>
</a>
</g>
</g>
<!-- Node1&#45;&gt;Node11 -->
<g id="edge10" class="edge">
<title>Node1&#45;&gt;Node11</title>
<path fill="none" stroke="midnightblue" d="M78.29,-144.98C96.65,-136.79 124.27,-124.98 149,-116.5 155.83,-114.16 163.12,-111.91 170.31,-109.82"/>
<polygon fill="midnightblue" stroke="midnightblue" points="171.32,-113.17 180,-107.09 169.42,-106.43 171.32,-113.17"/>
</g>
<!-- Node12 -->
<g id="node12" class="node">
<title>Node12</title>
<g id="a_node12"><a xlink:href="classDashBoard.html#a32b0f4d9b9cdbecb02c96c9e814f0114" target="_top" xlink:title=" ">
<polygon fill="white" stroke="black" points="149,-50 149,-69 290,-69 290,-50 149,-50"/>
<text text-anchor="middle" x="219.5" y="-57" font-family="Helvetica,sans-Serif" font-size="10.00">DashBoard::setgpsLongitude</text>
</a>
</g>
</g>
<!-- Node1&#45;&gt;Node12 -->
<g id="edge11" class="edge">
<title>Node1&#45;&gt;Node12</title>
<path fill="none" stroke="midnightblue" d="M66.39,-144.8C81.71,-128.66 114.75,-96.33 149,-78.5 153.35,-76.24 157.99,-74.22 162.74,-72.43"/>
<polygon fill="midnightblue" stroke="midnightblue" points="164.25,-75.61 172.58,-69.06 161.98,-68.99 164.25,-75.61"/>
</g>
<!-- Node13 -->
<g id="node13" class="node">
<title>Node13</title>
<g id="a_node13"><a xlink:href="classDashBoard.html#a3e4b2d7b59990a8fcf2d6b561ad30fba" target="_top" xlink:title=" ">
<polygon fill="white" stroke="black" points="155.5,-0.5 155.5,-30.5 283.5,-30.5 283.5,-0.5 155.5,-0.5"/>
<text text-anchor="start" x="163.5" y="-18.5" font-family="Helvetica,sans-Serif" font-size="10.00">DashBoard::setgpsVisible</text>
<text text-anchor="middle" x="219.5" y="-7.5" font-family="Helvetica,sans-Serif" font-size="10.00">Satelites</text>
</a>
</g>
</g>
<!-- Node1&#45;&gt;Node13 -->
<g id="edge12" class="edge">
<title>Node1&#45;&gt;Node13</title>
<path fill="none" stroke="midnightblue" d="M62.79,-144.75C75.08,-122.98 107.69,-69.99 149,-40.5 151.66,-38.6 154.48,-36.83 157.4,-35.19"/>
<polygon fill="midnightblue" stroke="midnightblue" points="159.08,-38.26 166.42,-30.61 155.91,-32.02 159.08,-38.26"/>
</g>
<!-- Node3 -->
<g id="node3" class="node">
<title>Node3</title>
<g id="a_node3"><a xlink:href="gps_8cpp.html#a356f47852da8a45bf4dd9944e08b7d3e" target="_top" xlink:title=" ">
<polygon fill="white" stroke="black" points="363,-335 363,-354 422,-354 422,-335 363,-335"/>
<text text-anchor="middle" x="392.5" y="-342" font-family="Helvetica,sans-Serif" font-size="10.00">fastestlap</text>
</a>
</g>
</g>
<!-- Node2&#45;&gt;Node3 -->
<g id="edge2" class="edge">
<title>Node2&#45;&gt;Node3</title>
<path fill="none" stroke="midnightblue" d="M245.5,-297.01C266.78,-304.98 298.23,-316.48 326,-325.5 334.67,-328.32 344.06,-331.16 352.94,-333.75"/>
<polygon fill="midnightblue" stroke="midnightblue" points="352.11,-337.16 362.68,-336.57 354.05,-330.43 352.11,-337.16"/>
</g>
<!-- Node4 -->
<g id="node4" class="node">
<title>Node4</title>
<g id="a_node4"><a xlink:href="classDashBoard.html#ae5d69bcab58e2e497902387d03cc9146" target="_top" xlink:title=" ">
<polygon fill="white" stroke="black" points="326,-297 326,-316 459,-316 459,-297 326,-297"/>
<text text-anchor="middle" x="392.5" y="-304" font-family="Helvetica,sans-Serif" font-size="10.00">DashBoard::setbestlaptime</text>
</a>
</g>
</g>
<!-- Node2&#45;&gt;Node4 -->
<g id="edge3" class="edge">
<title>Node2&#45;&gt;Node4</title>
<path fill="none" stroke="midnightblue" d="M271.34,-293.15C285.26,-294.7 300.65,-296.41 315.65,-298.07"/>
<polygon fill="midnightblue" stroke="midnightblue" points="315.61,-301.59 325.94,-299.22 316.39,-294.63 315.61,-301.59"/>
</g>
<!-- Node5 -->
<g id="node5" class="node">
<title>Node5</title>
<g id="a_node5"><a xlink:href="classDashBoard.html#af147e933576adcd81892aca4e74df784" target="_top" xlink:title=" ">
<polygon fill="white" stroke="black" points="328,-259 328,-278 457,-278 457,-259 328,-259"/>
<text text-anchor="middle" x="392.5" y="-266" font-family="Helvetica,sans-Serif" font-size="10.00">DashBoard::setcurrentLap</text>
</a>
</g>
</g>
<!-- Node2&#45;&gt;Node5 -->
<g id="edge4" class="edge">
<title>Node2&#45;&gt;Node5</title>
<path fill="none" stroke="midnightblue" d="M271.34,-281.85C285.88,-280.24 302.02,-278.44 317.64,-276.71"/>
<polygon fill="midnightblue" stroke="midnightblue" points="318.25,-280.16 327.81,-275.58 317.48,-273.2 318.25,-280.16"/>
</g>
<!-- Node6 -->
<g id="node6" class="node">
<title>Node6</title>
<g id="a_node6"><a xlink:href="classDashBoard.html#a023ed00fbd93bad06e98426b7583022c" target="_top" xlink:title=" ">
<polygon fill="white" stroke="black" points="335.5,-221 335.5,-240 449.5,-240 449.5,-221 335.5,-221"/>
<text text-anchor="middle" x="392.5" y="-228" font-family="Helvetica,sans-Serif" font-size="10.00">DashBoard::setlaptime</text>
</a>
</g>
</g>
<!-- Node2&#45;&gt;Node6 -->
<g id="edge5" class="edge">
<title>Node2&#45;&gt;Node6</title>
<path fill="none" stroke="midnightblue" d="M261.41,-277.92C270.93,-275.25 280.93,-272.08 290,-268.5 306.83,-261.85 309.23,-256.28 326,-249.5 331.76,-247.17 337.92,-245 344.06,-243.02"/>
<polygon fill="midnightblue" stroke="midnightblue" points="345.12,-246.35 353.64,-240.06 343.06,-239.66 345.12,-246.35"/>
</g>
</g>
</svg>
