<?xml version="1.0" encoding="UTF-8" standalone="no"?>
<!DOCTYPE svg PUBLIC "-//W3C//DTD SVG 1.1//EN"
 "http://www.w3.org/Graphics/SVG/1.1/DTD/svg11.dtd">
<!-- Generated by graphviz version 2.49.3 (20211027.1534)
 -->
<!-- Title: Connect::turnscreen Pages: 1 -->
<svg width="392pt" height="47pt"
 viewBox="0.00 0.00 392.00 47.00" xmlns="http://www.w3.org/2000/svg" xmlns:xlink="http://www.w3.org/1999/xlink">
<g id="graph0" class="graph" transform="scale(1 1) rotate(0) translate(4 43)">
<title>Connect::turnscreen</title>
<polygon fill="white" stroke="transparent" points="-4,4 -4,-43 388,-43 388,4 -4,4"/>
<!-- Node1 -->
<g id="node1" class="node">
<title>Node1</title>
<g id="a_node1"><a xlink:title=" ">
<polygon fill="#bfbfbf" stroke="black" points="0,-0.5 0,-19.5 103,-19.5 103,-0.5 0,-0.5"/>
<text text-anchor="middle" x="51.5" y="-7.5" font-family="Helvetica,sans-Serif" font-size="10.00">Connect::turnscreen</text>
</a>
</g>
</g>
<!-- Node2 -->
<g id="node2" class="node">
<title>Node2</title>
<g id="a_node2"><a xlink:href="classConnect.html#a0f5218e670acd714fdf7e901569f59d1" target="_top" xlink:title=" ">
<polygon fill="white" stroke="black" points="139,-19.5 139,-38.5 223,-38.5 223,-19.5 139,-19.5"/>
<text text-anchor="middle" x="181" y="-26.5" font-family="Helvetica,sans-Serif" font-size="10.00">Connect::reboot</text>
</a>
</g>
</g>
<!-- Node1&#45;&gt;Node2 -->
<g id="edge1" class="edge">
<title>Node1&#45;&gt;Node2</title>
<path fill="none" stroke="midnightblue" d="M103.26,-17.56C111.65,-18.81 120.36,-20.11 128.76,-21.36"/>
<polygon fill="midnightblue" stroke="midnightblue" points="128.42,-24.85 138.82,-22.86 129.45,-17.93 128.42,-24.85"/>
</g>
<!-- Node3 -->
<g id="node3" class="node">
<title>Node3</title>
<g id="a_node3"><a xlink:href="classDashBoard.html#aa096e4f8310f6614db7409cef61d7ccb" target="_top" xlink:title=" ">
<polygon fill="white" stroke="black" points="259,-0.5 259,-19.5 384,-19.5 384,-0.5 259,-0.5"/>
<text text-anchor="middle" x="321.5" y="-7.5" font-family="Helvetica,sans-Serif" font-size="10.00">DashBoard::setSerialStat</text>
</a>
</g>
</g>
<!-- Node1&#45;&gt;Node3 -->
<g id="edge3" class="edge">
<title>Node1&#45;&gt;Node3</title>
<path fill="none" stroke="midnightblue" d="M103.22,-10C144.28,-10 202.61,-10 248.5,-10"/>
<polygon fill="midnightblue" stroke="midnightblue" points="248.68,-13.5 258.68,-10 248.68,-6.5 248.68,-13.5"/>
</g>
<!-- Node2&#45;&gt;Node3 -->
<g id="edge2" class="edge">
<title>Node2&#45;&gt;Node3</title>
<path fill="none" stroke="midnightblue" d="M223.18,-23.35C231.35,-22.23 240.14,-21.02 248.99,-19.81"/>
<polygon fill="midnightblue" stroke="midnightblue" points="249.54,-23.27 258.97,-18.44 248.58,-16.33 249.54,-23.27"/>
</g>
</g>
</svg>
