<?xml version="1.0" encoding="UTF-8" standalone="no"?>
<!DOCTYPE svg PUBLIC "-//W3C//DTD SVG 1.1//EN"
 "http://www.w3.org/Graphics/SVG/1.1/DTD/svg11.dtd">
<!-- Generated by graphviz version 2.49.3 (20211027.1534)
 -->
<!-- Title: GPS::setGPSBAUD115 Pages: 1 -->
<!--zoomable 236 -->
<svg id="main" version="1.1" xmlns="http://www.w3.org/2000/svg" xmlns:xlink="http://www.w3.org/1999/xlink" xml:space="preserve" onload="init(evt)">
<style type="text/css"><![CDATA[
.edge:hover path { stroke: red; }
.edge:hover polygon { stroke: red; fill: red; }
]]></style>
<script type="text/javascript"><![CDATA[
var edges = document.getElementsByTagName('g');
if (edges && edges.length) {
  for (var i=0;i<edges.length;i++) {
    if (edges[i].id.substr(0,4)=='edge') {
      edges[i].setAttribute('class','edge');
    }
  }
}
]]></script>
        <defs>
                <circle id="rim" cx="0" cy="0" r="7"/>
                <circle id="rim2" cx="0" cy="0" r="3.5"/>
                <g id="zoomPlus">
                        <use xlink:href="#rim" fill="#404040">
                                <set attributeName="fill" to="#808080" begin="zoomplus.mouseover" end="zoomplus.mouseout"/>
                        </use>
                        <path d="M-4,0h8M0,-4v8" fill="none" stroke="white" stroke-width="1.5" pointer-events="none"/>
                </g>
                <g id="zoomMin">
                        <use xlink:href="#rim" fill="#404040">
                                <set attributeName="fill" to="#808080" begin="zoomminus.mouseover" end="zoomminus.mouseout"/>
                        </use>
                        <path d="M-4,0h8" fill="none" stroke="white" stroke-width="1.5" pointer-events="none"/>
                </g>
                <g id="dirArrow">
                        <path fill="none" stroke="white" stroke-width="1.5" d="M0,-3.0v7 M-2.5,-0.5L0,-3.0L2.5,-0.5"/>
                </g>
               <g id="resetDef">
                       <use xlink:href="#rim2" fill="#404040">
                               <set attributeName="fill" to="#808080" begin="reset.mouseover" end="reset.mouseout"/>
                       </use>
               </g>
        </defs>

<script type="text/javascript">
var viewWidth = 1199;
var viewHeight = 236;
var sectionId = 'dynsection-34';
</script>
<script xlink:href="svgpan.js"/>
<svg id="graph" class="graph">
<g id="viewport">
<title>GPS::setGPSBAUD115</title>
<polygon fill="white" stroke="transparent" points="-4,4 -4,-232 1195,-232 1195,4 -4,4"/>
<!-- Node1 -->
<g id="node1" class="node">
<title>Node1</title>
<g id="a_node1"><a xlink:title=" ">
<polygon fill="#bfbfbf" stroke="black" points="1071,-66.5 1071,-85.5 1191,-85.5 1191,-66.5 1071,-66.5"/>
<text text-anchor="middle" x="1131" y="-73.5" font-family="Helvetica,sans-Serif" font-size="10.00">GPS::setGPSBAUD115</text>
</a>
</g>
</g>
<!-- Node2 -->
<g id="node2" class="node">
<title>Node2</title>
<g id="a_node2"><a xlink:href="classGPS.html#a1b1c89214229f5dc8ff7e2fa9cbcad35" target="_top" xlink:title=" ">
<polygon fill="white" stroke="black" points="775,-123.5 775,-142.5 881,-142.5 881,-123.5 775,-123.5"/>
<text text-anchor="middle" x="828" y="-130.5" font-family="Helvetica,sans-Serif" font-size="10.00">GPS::handleTimeout</text>
</a>
</g>
</g>
<!-- Node1&#45;&gt;Node2 -->
<g id="edge1" class="edge">
<title>Node1&#45;&gt;Node2</title>
<path fill="none" stroke="midnightblue" d="M1073.24,-87.5C1060.66,-90 1047.38,-92.62 1035,-95 982.68,-105.06 922.78,-116.05 881.11,-123.61"/>
<polygon fill="midnightblue" stroke="midnightblue" points="1074.04,-90.91 1083.16,-85.51 1072.66,-84.04 1074.04,-90.91"/>
</g>
<!-- Node8 -->
<g id="node8" class="node">
<title>Node8</title>
<g id="a_node8"><a xlink:href="classGPS.html#a217097ae4a846c621f001a5aa1f4fb4f" target="_top" xlink:title=" ">
<polygon fill="white" stroke="black" points="917,-66.5 917,-85.5 1035,-85.5 1035,-66.5 917,-66.5"/>
<text text-anchor="middle" x="976" y="-73.5" font-family="Helvetica,sans-Serif" font-size="10.00">GPS::ProcessMessage</text>
</a>
</g>
</g>
<!-- Node1&#45;&gt;Node8 -->
<g id="edge14" class="edge">
<title>Node1&#45;&gt;Node8</title>
<path fill="none" stroke="midnightblue" d="M1060.6,-76C1052.12,-76 1043.53,-76 1035.24,-76"/>
<polygon fill="midnightblue" stroke="midnightblue" points="1060.85,-79.5 1070.85,-76 1060.85,-72.5 1060.85,-79.5"/>
</g>
<!-- Node3 -->
<g id="node3" class="node">
<title>Node3</title>
<g id="a_node3"><a xlink:href="classGPS.html#ae4568ef4d5107c96c1af68d1abd33559" target="_top" xlink:title=" ">
<polygon fill="white" stroke="black" points="625,-142.5 625,-161.5 739,-161.5 739,-142.5 625,-142.5"/>
<text text-anchor="middle" x="682" y="-149.5" font-family="Helvetica,sans-Serif" font-size="10.00">GPS::closeConnection</text>
</a>
</g>
</g>
<!-- Node2&#45;&gt;Node3 -->
<g id="edge2" class="edge">
<title>Node2&#45;&gt;Node3</title>
<path fill="none" stroke="midnightblue" d="M764.56,-141.24C756.22,-142.34 747.71,-143.46 739.48,-144.55"/>
<polygon fill="midnightblue" stroke="midnightblue" points="765.15,-144.69 774.61,-139.91 764.23,-137.75 765.15,-144.69"/>
</g>
<!-- Node5 -->
<g id="node5" class="node">
<title>Node5</title>
<g id="a_node5"><a xlink:href="classGPS.html#a8775edfa08840ffb2647e0e5ba031fe5" target="_top" xlink:title=" ">
<polygon fill="white" stroke="black" points="0,-104.5 0,-123.5 119,-123.5 119,-104.5 0,-104.5"/>
<text text-anchor="middle" x="59.5" y="-111.5" font-family="Helvetica,sans-Serif" font-size="10.00">GPS::closeConnection1</text>
</a>
</g>
</g>
<!-- Node2&#45;&gt;Node5 -->
<g id="edge12" class="edge">
<title>Node2&#45;&gt;Node5</title>
<path fill="none" stroke="midnightblue" d="M799.76,-147.24C746.43,-173.75 623.86,-228 514,-228 514,-228 514,-228 351,-228 236.95,-228 114.05,-150.92 73.96,-123.52"/>
<polygon fill="midnightblue" stroke="midnightblue" points="801.54,-150.26 808.89,-142.63 798.38,-144.01 801.54,-150.26"/>
</g>
<!-- Node6 -->
<g id="node6" class="node">
<title>Node6</title>
<g id="a_node6"><a xlink:href="classGPS.html#ac2a7572afb184df9c14ae913f17306bf" target="_top" xlink:title=" ">
<polygon fill="white" stroke="black" points="303,-66.5 303,-85.5 401,-85.5 401,-66.5 303,-66.5"/>
<text text-anchor="middle" x="352" y="-73.5" font-family="Helvetica,sans-Serif" font-size="10.00">GPS::initSerialPort</text>
</a>
</g>
</g>
<!-- Node2&#45;&gt;Node6 -->
<g id="edge13" class="edge">
<title>Node2&#45;&gt;Node6</title>
<path fill="none" stroke="midnightblue" d="M764.82,-127.22C687.74,-119.8 552.43,-105.97 437,-90 425.43,-88.4 413,-86.45 401.35,-84.53"/>
<polygon fill="midnightblue" stroke="midnightblue" points="764.55,-130.71 774.84,-128.18 765.22,-123.74 764.55,-130.71"/>
</g>
<!-- Node4 -->
<g id="node4" class="node">
<title>Node4</title>
<g id="a_node4"><a xlink:href="classGPS.html#aaf69fb801bbce2ea70041e68fe0ec19a" target="_top" xlink:title=" ">
<polygon fill="white" stroke="black" points="437,-142.5 437,-161.5 589,-161.5 589,-142.5 437,-142.5"/>
<text text-anchor="middle" x="513" y="-149.5" font-family="Helvetica,sans-Serif" font-size="10.00">GPS::handleReconnectTimeout</text>
</a>
</g>
</g>
<!-- Node3&#45;&gt;Node4 -->
<g id="edge3" class="edge">
<title>Node3&#45;&gt;Node4</title>
<path fill="none" stroke="midnightblue" d="M614.81,-145.38C606.4,-145.25 597.75,-145.22 589.21,-145.28"/>
<polygon fill="midnightblue" stroke="midnightblue" points="614.86,-148.88 624.93,-145.58 615,-141.88 614.86,-148.88"/>
</g>
<!-- Node7 -->
<g id="node7" class="node">
<title>Node7</title>
<g id="a_node7"><a xlink:href="classGPS.html#a51eaea2422dd980ea0a6d28f12a136de" target="_top" xlink:title=" ">
<polygon fill="white" stroke="black" points="155,-104.5 155,-123.5 267,-123.5 267,-104.5 155,-104.5"/>
<text text-anchor="middle" x="211" y="-111.5" font-family="Helvetica,sans-Serif" font-size="10.00">GPS::openConnection</text>
</a>
</g>
</g>
<!-- Node3&#45;&gt;Node7 -->
<g id="edge11" class="edge">
<title>Node3&#45;&gt;Node7</title>
<path fill="none" stroke="midnightblue" d="M633.6,-163.71C619.35,-166.71 603.62,-169.51 589,-171 462.03,-183.97 426.35,-177.81 303,-145 280.42,-138.99 255.32,-130.29 237.21,-123.63"/>
<polygon fill="midnightblue" stroke="midnightblue" points="634.65,-167.06 643.67,-161.51 633.15,-160.23 634.65,-167.06"/>
</g>
<!-- Node4&#45;&gt;Node3 -->
<g id="edge4" class="edge">
<title>Node4&#45;&gt;Node3</title>
<path fill="none" stroke="midnightblue" d="M599.38,-158.75C608.04,-158.73 616.69,-158.62 624.93,-158.42"/>
<polygon fill="midnightblue" stroke="midnightblue" points="599.22,-155.25 589.21,-158.72 599.2,-162.25 599.22,-155.25"/>
</g>
<!-- Node4&#45;&gt;Node5 -->
<g id="edge5" class="edge">
<title>Node4&#45;&gt;Node5</title>
<path fill="none" stroke="midnightblue" d="M426.84,-150.94C354.32,-149.21 247.48,-144.69 155,-133 137.24,-130.75 117.81,-127.07 101.22,-123.53"/>
<polygon fill="midnightblue" stroke="midnightblue" points="426.77,-154.44 436.84,-151.17 426.93,-147.44 426.77,-154.44"/>
</g>
<!-- Node4&#45;&gt;Node6 -->
<g id="edge7" class="edge">
<title>Node4&#45;&gt;Node6</title>
<path fill="none" stroke="midnightblue" d="M463.49,-139.24C454.45,-136.1 445.26,-132.36 437,-128 419.07,-118.54 418.15,-110.81 401,-100 392.64,-94.73 382.98,-89.71 374.52,-85.64"/>
<polygon fill="midnightblue" stroke="midnightblue" points="462.59,-142.63 473.18,-142.42 464.77,-135.98 462.59,-142.63"/>
</g>
<!-- Node5&#45;&gt;Node1 -->
<g id="edge6" class="edge">
<title>Node5&#45;&gt;Node1</title>
<path fill="none" stroke="midnightblue" d="M77.67,-97.44C95.55,-81.13 125.08,-56.73 155,-43 236.06,-5.81 261.82,0 351,0 829,0 829,0 829,0 936.25,0 1058.65,-45.92 1107.83,-66.37"/>
<polygon fill="midnightblue" stroke="midnightblue" points="75.24,-94.92 70.31,-104.3 80.01,-100.04 75.24,-94.92"/>
</g>
<!-- Node6&#45;&gt;Node7 -->
<g id="edge8" class="edge">
<title>Node6&#45;&gt;Node7</title>
<path fill="none" stroke="midnightblue" d="M306.2,-88.25C287.05,-93.48 265.01,-99.51 247.06,-104.41"/>
<polygon fill="midnightblue" stroke="midnightblue" points="307.2,-91.6 315.92,-85.59 305.36,-84.85 307.2,-91.6"/>
</g>
<!-- Node7&#45;&gt;Node4 -->
<g id="edge10" class="edge">
<title>Node7&#45;&gt;Node4</title>
<path fill="none" stroke="midnightblue" d="M277.51,-122.3C324.42,-128.24 387.69,-136.25 436.68,-142.46"/>
<polygon fill="midnightblue" stroke="midnightblue" points="277.82,-118.81 267.46,-121.03 276.94,-125.75 277.82,-118.81"/>
</g>
<!-- Node7&#45;&gt;Node5 -->
<g id="edge9" class="edge">
<title>Node7&#45;&gt;Node5</title>
<path fill="none" stroke="midnightblue" d="M144.52,-114C136.03,-114 127.39,-114 119.03,-114"/>
<polygon fill="midnightblue" stroke="midnightblue" points="144.76,-117.5 154.76,-114 144.76,-110.5 144.76,-117.5"/>
</g>
<!-- Node9 -->
<g id="node9" class="node">
<title>Node9</title>
<g id="a_node9"><a xlink:href="classGPS.html#aa0928d156961a54bf06d9b5210d85561" target="_top" xlink:title=" ">
<polygon fill="white" stroke="black" points="778.5,-66.5 778.5,-85.5 877.5,-85.5 877.5,-66.5 778.5,-66.5"/>
<text text-anchor="middle" x="828" y="-73.5" font-family="Helvetica,sans-Serif" font-size="10.00">GPS::readyToRead</text>
</a>
</g>
</g>
<!-- Node8&#45;&gt;Node9 -->
<g id="edge15" class="edge">
<title>Node8&#45;&gt;Node9</title>
<path fill="none" stroke="midnightblue" d="M906.69,-76C896.84,-76 886.88,-76 877.53,-76"/>
<polygon fill="midnightblue" stroke="midnightblue" points="906.88,-79.5 916.88,-76 906.88,-72.5 906.88,-79.5"/>
</g>
<!-- Node9&#45;&gt;Node3 -->
<g id="edge16" class="edge">
<title>Node9&#45;&gt;Node3</title>
<path fill="none" stroke="midnightblue" d="M799.61,-90.46C770.68,-105.72 725.9,-129.36 701.09,-142.45"/>
<polygon fill="midnightblue" stroke="midnightblue" points="801.55,-93.39 808.76,-85.63 798.28,-87.2 801.55,-93.39"/>
</g>
<!-- Node9&#45;&gt;Node5 -->
<g id="edge17" class="edge">
<title>Node9&#45;&gt;Node5</title>
<path fill="none" stroke="midnightblue" d="M768.61,-64.63C705.93,-53.44 603.32,-38 514,-38 514,-38 514,-38 351,-38 247.26,-38 129.26,-83.92 81.86,-104.37"/>
<polygon fill="midnightblue" stroke="midnightblue" points="768.23,-68.12 778.69,-66.46 769.48,-61.23 768.23,-68.12"/>
</g>
<!-- Node9&#45;&gt;Node6 -->
<g id="edge18" class="edge">
<title>Node9&#45;&gt;Node6</title>
<path fill="none" stroke="midnightblue" d="M767.78,-76C672.93,-76 488.76,-76 401.32,-76"/>
<polygon fill="midnightblue" stroke="midnightblue" points="768.06,-79.5 778.06,-76 768.06,-72.5 768.06,-79.5"/>
</g>
</g>
</svg>
        <g id="navigator" transform="translate(0 0)" fill="#404254">
                <rect fill="#f2f5e9" fill-opacity="0.5" stroke="#606060" stroke-width=".5" x="0" y="0" width="60" height="60"/>
                <use id="zoomplus" xlink:href="#zoomPlus" x="17" y="9" onmousedown="handleZoom(evt,'in')"/>
                <use id="zoomminus" xlink:href="#zoomMin" x="42" y="9" onmousedown="handleZoom(evt,'out')"/>
                <use id="reset" xlink:href="#resetDef" x="30" y="36" onmousedown="handleReset()"/>
                <g id="arrowUp" xlink:href="#dirArrow" transform="translate(30 24)" onmousedown="handlePan(0,-1)">
                  <use xlink:href="#rim" fill="#404040">
                        <set attributeName="fill" to="#808080" begin="arrowUp.mouseover" end="arrowUp.mouseout"/>
                  </use>
                  <path fill="none" stroke="white" stroke-width="1.5" d="M0,-3.0v7 M-2.5,-0.5L0,-3.0L2.5,-0.5"/>
                </g>
                <g id="arrowRight" xlink:href="#dirArrow" transform="rotate(90) translate(36 -43)" onmousedown="handlePan(1,0)">
                  <use xlink:href="#rim" fill="#404040">
                        <set attributeName="fill" to="#808080" begin="arrowRight.mouseover" end="arrowRight.mouseout"/>
                  </use>
                  <path fill="none" stroke="white" stroke-width="1.5" d="M0,-3.0v7 M-2.5,-0.5L0,-3.0L2.5,-0.5"/>
                </g>
                <g id="arrowDown" xlink:href="#dirArrow" transform="rotate(180) translate(-30 -48)" onmousedown="handlePan(0,1)">
                  <use xlink:href="#rim" fill="#404040">
                        <set attributeName="fill" to="#808080" begin="arrowDown.mouseover" end="arrowDown.mouseout"/>
                  </use>
                  <path fill="none" stroke="white" stroke-width="1.5" d="M0,-3.0v7 M-2.5,-0.5L0,-3.0L2.5,-0.5"/>
                </g>
                <g id="arrowLeft" xlink:href="#dirArrow" transform="rotate(270) translate(-36 17)" onmousedown="handlePan(-1,0)">
                  <use xlink:href="#rim" fill="#404040">
                        <set attributeName="fill" to="#808080" begin="arrowLeft.mouseover" end="arrowLeft.mouseout"/>
                  </use>
                  <path fill="none" stroke="white" stroke-width="1.5" d="M0,-3.0v7 M-2.5,-0.5L0,-3.0L2.5,-0.5"/>
                </g>
        </g>
        <svg viewBox="0 0 15 15" width="100%" height="30px" preserveAspectRatio="xMaxYMin meet">
         <g id="arrow_out" transform="scale(0.3 0.3)">
          <a xlink:href="classGPS_abd750ada6a7b976f72761ce16246ccf6_icgraph_org.svg" target="_base">
           <rect id="button" ry="5" rx="5" y="6" x="6" height="38" width="38"
                fill="#f2f5e9" fill-opacity="0.5" stroke="#606060" stroke-width="1.0"/>
           <path id="arrow"
             d="M 11.500037,31.436501 C 11.940474,20.09759 22.043105,11.32322 32.158766,21.979434 L 37.068811,17.246167 C 37.068811,17.246167 37.088388,32 37.088388,32 L 22.160133,31.978069 C 22.160133,31.978069 26.997745,27.140456 26.997745,27.140456 C 18.528582,18.264221 13.291696,25.230495 11.500037,31.436501 z"
             style="fill:#404040;"/>
          </a>
         </g>
        </svg>
</svg>
