<?xml version="1.0" encoding="UTF-8" standalone="no"?>
<!DOCTYPE svg PUBLIC "-//W3C//DTD SVG 1.1//EN"
 "http://www.w3.org/Graphics/SVG/1.1/DTD/svg11.dtd">
<!-- Generated by graphviz version 2.49.3 (20211027.1534)
 -->
<!-- Title: DashBoard::setRecvData Pages: 1 -->
<svg width="996pt" height="170pt"
 viewBox="0.00 0.00 996.00 170.00" xmlns="http://www.w3.org/2000/svg" xmlns:xlink="http://www.w3.org/1999/xlink">
<g id="graph0" class="graph" transform="scale(1 1) rotate(0) translate(4 166)">
<title>DashBoard::setRecvData</title>
<polygon fill="white" stroke="transparent" points="-4,4 -4,-166 992,-166 992,4 -4,4"/>
<!-- Node1 -->
<g id="node1" class="node">
<title>Node1</title>
<g id="a_node1"><a xlink:title=" ">
<polygon fill="#bfbfbf" stroke="black" points="863,-66.5 863,-85.5 988,-85.5 988,-66.5 863,-66.5"/>
<text text-anchor="middle" x="925.5" y="-73.5" font-family="Helvetica,sans-Serif" font-size="10.00">DashBoard::setRecvData</text>
</a>
</g>
</g>
<!-- Node2 -->
<g id="node2" class="node">
<title>Node2</title>
<g id="a_node2"><a xlink:href="classApexi.html#abe3bf6800fce8a4c713a08c14474d625" target="_top" xlink:title=" ">
<polygon fill="white" stroke="black" points="725,-66.5 725,-85.5 827,-85.5 827,-66.5 725,-66.5"/>
<text text-anchor="middle" x="776" y="-73.5" font-family="Helvetica,sans-Serif" font-size="10.00">Apexi::readyToRead</text>
</a>
</g>
</g>
<!-- Node1&#45;&gt;Node2 -->
<g id="edge1" class="edge">
<title>Node1&#45;&gt;Node2</title>
<path fill="none" stroke="midnightblue" d="M852.74,-76C844.13,-76 835.48,-76 827.26,-76"/>
<polygon fill="midnightblue" stroke="midnightblue" points="852.8,-79.5 862.8,-76 852.8,-72.5 852.8,-79.5"/>
</g>
<!-- Node3 -->
<g id="node3" class="node">
<title>Node3</title>
<g id="a_node3"><a xlink:href="classApexi.html#a669124cabae4ada616e650e582c068da" target="_top" xlink:title=" ">
<polygon fill="white" stroke="black" points="572,-104.5 572,-123.5 689,-123.5 689,-104.5 572,-104.5"/>
<text text-anchor="middle" x="630.5" y="-111.5" font-family="Helvetica,sans-Serif" font-size="10.00">Apexi::closeConnection</text>
</a>
</g>
</g>
<!-- Node2&#45;&gt;Node3 -->
<g id="edge2" class="edge">
<title>Node2&#45;&gt;Node3</title>
<path fill="none" stroke="midnightblue" d="M729.03,-88.17C709.18,-93.43 686.31,-99.49 667.7,-104.41"/>
<polygon fill="midnightblue" stroke="midnightblue" points="730.02,-91.53 738.79,-85.59 728.23,-84.77 730.02,-91.53"/>
</g>
<!-- Node10 -->
<g id="node10" class="node">
<title>Node10</title>
<g id="a_node10"><a xlink:href="classApexi.html#a169d6e9466a6c04e6533c8e84fdcaadb" target="_top" xlink:title=" ">
<polygon fill="white" stroke="black" points="580,-66.5 580,-85.5 681,-85.5 681,-66.5 580,-66.5"/>
<text text-anchor="middle" x="630.5" y="-73.5" font-family="Helvetica,sans-Serif" font-size="10.00">Apexi::initSerialPort</text>
</a>
</g>
</g>
<!-- Node2&#45;&gt;Node10 -->
<g id="edge11" class="edge">
<title>Node2&#45;&gt;Node10</title>
<path fill="none" stroke="midnightblue" d="M714.75,-76C703.65,-76 692.17,-76 681.42,-76"/>
<polygon fill="midnightblue" stroke="midnightblue" points="714.81,-79.5 724.81,-76 714.81,-72.5 714.81,-79.5"/>
</g>
<!-- Node4 -->
<g id="node4" class="node">
<title>Node4</title>
<g id="a_node4"><a xlink:href="classConnect.html#abb89a14af2e2b3f6d466c5abfc95cff0" target="_top" xlink:title=" ">
<polygon fill="white" stroke="black" points="407,-142.5 407,-161.5 536,-161.5 536,-142.5 407,-142.5"/>
<text text-anchor="middle" x="471.5" y="-149.5" font-family="Helvetica,sans-Serif" font-size="10.00">Connect::closeConnection</text>
</a>
</g>
</g>
<!-- Node3&#45;&gt;Node4 -->
<g id="edge3" class="edge">
<title>Node3&#45;&gt;Node4</title>
<path fill="none" stroke="midnightblue" d="M580.05,-125.97C558.05,-131.29 532.51,-137.48 511.83,-142.48"/>
<polygon fill="midnightblue" stroke="midnightblue" points="580.99,-129.34 589.88,-123.59 579.34,-122.54 580.99,-129.34"/>
</g>
<!-- Node5 -->
<g id="node5" class="node">
<title>Node5</title>
<g id="a_node5"><a xlink:href="classApexi.html#a84e5eadc545afab5fbb0aea8b27e17c3" target="_top" xlink:title=" ">
<polygon fill="white" stroke="black" points="414,-66.5 414,-85.5 529,-85.5 529,-66.5 414,-66.5"/>
<text text-anchor="middle" x="471.5" y="-73.5" font-family="Helvetica,sans-Serif" font-size="10.00">Apexi::openConnection</text>
</a>
</g>
</g>
<!-- Node3&#45;&gt;Node5 -->
<g id="edge4" class="edge">
<title>Node3&#45;&gt;Node5</title>
<path fill="none" stroke="midnightblue" d="M580.05,-102.03C558.05,-96.71 532.51,-90.52 511.83,-85.52"/>
<polygon fill="midnightblue" stroke="midnightblue" points="579.34,-105.46 589.88,-104.41 580.99,-98.66 579.34,-105.46"/>
</g>
<!-- Node8 -->
<g id="node8" class="node">
<title>Node8</title>
<g id="a_node8"><a xlink:href="classApexi.html#a4e7b389e8d3e283a12733ab4f8492be3" target="_top" xlink:title=" ">
<polygon fill="white" stroke="black" points="124,-66.5 124,-85.5 208,-85.5 208,-66.5 124,-66.5"/>
<text text-anchor="middle" x="166" y="-73.5" font-family="Helvetica,sans-Serif" font-size="10.00">Apexi::readData</text>
</a>
</g>
</g>
<!-- Node3&#45;&gt;Node8 -->
<g id="edge10" class="edge">
<title>Node3&#45;&gt;Node8</title>
<path fill="none" stroke="midnightblue" d="M561.6,-114.59C484.29,-114.36 354.4,-111.19 244,-95 229.29,-92.84 213.28,-89.12 199.7,-85.55"/>
<polygon fill="midnightblue" stroke="midnightblue" points="561.68,-118.09 571.69,-114.61 561.69,-111.09 561.68,-118.09"/>
</g>
<!-- Node6 -->
<g id="node6" class="node">
<title>Node6</title>
<g id="a_node6"><a xlink:href="classConnect.html#a0d674157f4d7442c535837dadd8cf5f1" target="_top" xlink:title=" ">
<polygon fill="white" stroke="black" points="244,-28.5 244,-47.5 371,-47.5 371,-28.5 244,-28.5"/>
<text text-anchor="middle" x="307.5" y="-35.5" font-family="Helvetica,sans-Serif" font-size="10.00">Connect::openConnection</text>
</a>
</g>
</g>
<!-- Node5&#45;&gt;Node6 -->
<g id="edge5" class="edge">
<title>Node5&#45;&gt;Node6</title>
<path fill="none" stroke="midnightblue" d="M419.79,-64.1C397.01,-58.76 370.51,-52.55 349.09,-47.52"/>
<polygon fill="midnightblue" stroke="midnightblue" points="419.09,-67.53 429.62,-66.41 420.68,-60.72 419.09,-67.53"/>
</g>
<!-- Node7 -->
<g id="node7" class="node">
<title>Node7</title>
<g id="a_node7"><a xlink:href="classApexi.html#af3673b74b8aebe06a2b2f9ed81c23ee4" target="_top" xlink:title=" ">
<polygon fill="white" stroke="black" points="258.5,-66.5 258.5,-85.5 356.5,-85.5 356.5,-66.5 258.5,-66.5"/>
<text text-anchor="middle" x="307.5" y="-73.5" font-family="Helvetica,sans-Serif" font-size="10.00">Apexi::retryconnect</text>
</a>
</g>
</g>
<!-- Node5&#45;&gt;Node7 -->
<g id="edge6" class="edge">
<title>Node5&#45;&gt;Node7</title>
<path fill="none" stroke="midnightblue" d="M403.6,-76C387.81,-76 371.29,-76 356.53,-76"/>
<polygon fill="midnightblue" stroke="midnightblue" points="403.84,-79.5 413.84,-76 403.84,-72.5 403.84,-79.5"/>
</g>
<!-- Node7&#45;&gt;Node8 -->
<g id="edge7" class="edge">
<title>Node7&#45;&gt;Node8</title>
<path fill="none" stroke="midnightblue" d="M248.32,-76C234.81,-76 220.72,-76 208.12,-76"/>
<polygon fill="midnightblue" stroke="midnightblue" points="248.49,-79.5 258.49,-76 248.49,-72.5 248.49,-79.5"/>
</g>
<!-- Node9 -->
<g id="node9" class="node">
<title>Node9</title>
<g id="a_node9"><a xlink:href="classApexi.html#a4cb1314ab5ca5175aa227ed178148f40" target="_top" xlink:title=" ">
<polygon fill="white" stroke="black" points="0,-28.5 0,-47.5 88,-47.5 88,-28.5 0,-28.5"/>
<text text-anchor="middle" x="44" y="-35.5" font-family="Helvetica,sans-Serif" font-size="10.00">Apexi::apexiECU</text>
</a>
</g>
</g>
<!-- Node8&#45;&gt;Node9 -->
<g id="edge8" class="edge">
<title>Node8&#45;&gt;Node9</title>
<path fill="none" stroke="midnightblue" d="M124.96,-63.32C108.74,-58.19 90.33,-52.36 75.27,-47.59"/>
<polygon fill="midnightblue" stroke="midnightblue" points="124.13,-66.73 134.72,-66.41 126.24,-60.06 124.13,-66.73"/>
</g>
<!-- Node9&#45;&gt;Node2 -->
<g id="edge9" class="edge">
<title>Node9&#45;&gt;Node2</title>
<path fill="none" stroke="midnightblue" d="M95.55,-26.24C147.99,-15.08 232.52,0 306.5,0 472.5,0 472.5,0 472.5,0 580.26,0 703.28,-45.92 752.71,-66.37"/>
<polygon fill="midnightblue" stroke="midnightblue" points="94.53,-22.88 85.5,-28.41 96.01,-29.72 94.53,-22.88"/>
</g>
<!-- Node10&#45;&gt;Node5 -->
<g id="edge12" class="edge">
<title>Node10&#45;&gt;Node5</title>
<path fill="none" stroke="midnightblue" d="M569.82,-76C556.51,-76 542.43,-76 529.24,-76"/>
<polygon fill="midnightblue" stroke="midnightblue" points="569.82,-79.5 579.82,-76 569.82,-72.5 569.82,-79.5"/>
</g>
</g>
</svg>
