<?xml version="1.0" encoding="UTF-8" standalone="no"?>
<!DOCTYPE svg PUBLIC "-//W3C//DTD SVG 1.1//EN"
 "http://www.w3.org/Graphics/SVG/1.1/DTD/svg11.dtd">
<!-- Generated by graphviz version 2.49.3 (20211027.1534)
 -->
<!-- Title: GPS::initSerialPort Pages: 1 -->
<svg width="1405pt" height="974pt"
 viewBox="0.00 0.00 1405.00 974.16" xmlns="http://www.w3.org/2000/svg" xmlns:xlink="http://www.w3.org/1999/xlink">
<g id="graph0" class="graph" transform="scale(1 1) rotate(0) translate(4 970.16)">
<title>GPS::initSerialPort</title>
<polygon fill="white" stroke="transparent" points="-4,4 -4,-970.16 1401,-970.16 1401,4 -4,4"/>
<!-- Node1 -->
<g id="node1" class="node">
<title>Node1</title>
<g id="a_node1"><a xlink:title=" ">
<polygon fill="#bfbfbf" stroke="black" points="0,-690.66 0,-709.66 98,-709.66 98,-690.66 0,-690.66"/>
<text text-anchor="middle" x="49" y="-697.66" font-family="Helvetica,sans-Serif" font-size="10.00">GPS::initSerialPort</text>
</a>
</g>
</g>
<!-- Node2 -->
<g id="node2" class="node">
<title>Node2</title>
<g id="a_node2"><a xlink:href="classGPS.html#a14c64eb8a4939f8f734b93ef3a21bb19" target="_top" xlink:title=" ">
<polygon fill="white" stroke="black" points="1117,-747.66 1117,-766.66 1208,-766.66 1208,-747.66 1117,-747.66"/>
<text text-anchor="middle" x="1162.5" y="-754.66" font-family="Helvetica,sans-Serif" font-size="10.00">GPS::handleError</text>
</a>
</g>
</g>
<!-- Node1&#45;&gt;Node2 -->
<g id="edge1" class="edge">
<title>Node1&#45;&gt;Node2</title>
<path fill="none" stroke="midnightblue" d="M98.08,-700.16C162,-700.16 278.49,-700.16 378,-700.16 378,-700.16 378,-700.16 522.5,-700.16 739.37,-700.16 996.02,-733.14 1106.46,-748.92"/>
<polygon fill="midnightblue" stroke="midnightblue" points="1106.29,-752.44 1116.69,-750.4 1107.29,-745.51 1106.29,-752.44"/>
</g>
<!-- Node4 -->
<g id="node4" class="node">
<title>Node4</title>
<g id="a_node4"><a xlink:href="classGPS.html#aaf69fb801bbce2ea70041e68fe0ec19a" target="_top" xlink:title=" ">
<polygon fill="white" stroke="black" points="134,-785.66 134,-804.66 286,-804.66 286,-785.66 134,-785.66"/>
<text text-anchor="middle" x="210" y="-792.66" font-family="Helvetica,sans-Serif" font-size="10.00">GPS::handleReconnectTimeout</text>
</a>
</g>
</g>
<!-- Node1&#45;&gt;Node4 -->
<g id="edge3" class="edge">
<title>Node1&#45;&gt;Node4</title>
<path fill="none" stroke="midnightblue" d="M66.12,-709.79C93.98,-726.43 151.29,-760.68 184.24,-780.36"/>
<polygon fill="midnightblue" stroke="midnightblue" points="182.46,-783.38 192.84,-785.5 186.05,-777.37 182.46,-783.38"/>
</g>
<!-- Node6 -->
<g id="node6" class="node">
<title>Node6</title>
<g id="a_node6"><a xlink:href="classGPS.html#a1b1c89214229f5dc8ff7e2fa9cbcad35" target="_top" xlink:title=" ">
<polygon fill="white" stroke="black" points="1109.5,-652.66 1109.5,-671.66 1215.5,-671.66 1215.5,-652.66 1109.5,-652.66"/>
<text text-anchor="middle" x="1162.5" y="-659.66" font-family="Helvetica,sans-Serif" font-size="10.00">GPS::handleTimeout</text>
</a>
</g>
</g>
<!-- Node1&#45;&gt;Node6 -->
<g id="edge54" class="edge">
<title>Node1&#45;&gt;Node6</title>
<path fill="none" stroke="midnightblue" d="M71.73,-690.6C88.48,-683.55 112.35,-674.18 134,-668.16 240.17,-638.64 267.81,-624.16 378,-624.16 378,-624.16 378,-624.16 667,-624.16 749.45,-624.16 985.31,-645.43 1098.88,-656.14"/>
<polygon fill="midnightblue" stroke="midnightblue" points="1098.87,-659.66 1109.15,-657.11 1099.53,-652.69 1098.87,-659.66"/>
</g>
<!-- Node11 -->
<g id="node11" class="node">
<title>Node11</title>
<g id="a_node11"><a xlink:href="classGPS.html#aa0928d156961a54bf06d9b5210d85561" target="_top" xlink:title=" ">
<polygon fill="white" stroke="black" points="472,-652.66 472,-671.66 571,-671.66 571,-652.66 472,-652.66"/>
<text text-anchor="middle" x="521.5" y="-659.66" font-family="Helvetica,sans-Serif" font-size="10.00">GPS::readyToRead</text>
</a>
</g>
</g>
<!-- Node1&#45;&gt;Node11 -->
<g id="edge55" class="edge">
<title>Node1&#45;&gt;Node11</title>
<path fill="none" stroke="midnightblue" d="M98.3,-691.23C109.95,-689.32 122.4,-687.48 134,-686.16 249.63,-672.97 385.61,-666.64 461.54,-663.93"/>
<polygon fill="midnightblue" stroke="midnightblue" points="461.98,-667.42 471.85,-663.57 461.74,-660.42 461.98,-667.42"/>
</g>
<!-- Node3 -->
<g id="node3" class="node">
<title>Node3</title>
<g id="a_node3"><a xlink:href="classDashBoard.html#acd9bb1ec108194ecb9d451b430275922" target="_top" xlink:title=" ">
<polygon fill="white" stroke="black" points="1265,-576.66 1265,-595.66 1397,-595.66 1397,-576.66 1265,-576.66"/>
<text text-anchor="middle" x="1331" y="-583.66" font-family="Helvetica,sans-Serif" font-size="10.00">DashBoard::setgpsFIXtype</text>
</a>
</g>
</g>
<!-- Node2&#45;&gt;Node3 -->
<g id="edge2" class="edge">
<title>Node2&#45;&gt;Node3</title>
<path fill="none" stroke="midnightblue" d="M1181.28,-747.6C1195.11,-739.68 1214.36,-727.58 1229,-714.16 1266.54,-679.75 1301.2,-630.49 1318.49,-604.24"/>
<polygon fill="midnightblue" stroke="midnightblue" points="1321.53,-605.98 1324.04,-595.69 1315.66,-602.17 1321.53,-605.98"/>
</g>
<!-- Node5 -->
<g id="node5" class="node">
<title>Node5</title>
<g id="a_node5"><a xlink:href="classGPS.html#ae4568ef4d5107c96c1af68d1abd33559" target="_top" xlink:title=" ">
<polygon fill="white" stroke="black" points="322,-785.66 322,-804.66 436,-804.66 436,-785.66 322,-785.66"/>
<text text-anchor="middle" x="379" y="-792.66" font-family="Helvetica,sans-Serif" font-size="10.00">GPS::closeConnection</text>
</a>
</g>
</g>
<!-- Node4&#45;&gt;Node5 -->
<g id="edge4" class="edge">
<title>Node4&#45;&gt;Node5</title>
<path fill="none" stroke="midnightblue" d="M286.19,-788.44C294.69,-788.38 303.3,-788.41 311.67,-788.54"/>
<polygon fill="midnightblue" stroke="midnightblue" points="311.66,-792.04 321.73,-788.74 311.8,-785.04 311.66,-792.04"/>
</g>
<!-- Node9 -->
<g id="node9" class="node">
<title>Node9</title>
<g id="a_node9"><a xlink:href="classGPS.html#a51eaea2422dd980ea0a6d28f12a136de" target="_top" xlink:title=" ">
<polygon fill="white" stroke="black" points="1106.5,-880.66 1106.5,-899.66 1218.5,-899.66 1218.5,-880.66 1106.5,-880.66"/>
<text text-anchor="middle" x="1162.5" y="-887.66" font-family="Helvetica,sans-Serif" font-size="10.00">GPS::openConnection</text>
</a>
</g>
</g>
<!-- Node4&#45;&gt;Node9 -->
<g id="edge53" class="edge">
<title>Node4&#45;&gt;Node9</title>
<path fill="none" stroke="midnightblue" d="M223.15,-804.72C263.16,-835.22 395.34,-928.16 520.5,-928.16 520.5,-928.16 520.5,-928.16 823,-928.16 919.89,-928.16 1031.41,-912.6 1099.15,-901.39"/>
<polygon fill="midnightblue" stroke="midnightblue" points="1099.94,-904.8 1109.22,-899.7 1098.78,-897.9 1099.94,-904.8"/>
</g>
<!-- Node5&#45;&gt;Node2 -->
<g id="edge5" class="edge">
<title>Node5&#45;&gt;Node2</title>
<path fill="none" stroke="midnightblue" d="M436.17,-801.12C493.59,-806.69 585.41,-814.16 665,-814.16 665,-814.16 665,-814.16 823,-814.16 928.87,-814.16 956.4,-811.98 1060,-790.16 1082.85,-785.35 1107.8,-777.27 1127.25,-770.32"/>
<polygon fill="midnightblue" stroke="midnightblue" points="1128.68,-773.52 1136.88,-766.81 1126.28,-766.95 1128.68,-773.52"/>
</g>
<!-- Node5&#45;&gt;Node3 -->
<g id="edge52" class="edge">
<title>Node5&#45;&gt;Node3</title>
<path fill="none" stroke="midnightblue" d="M408.35,-804.7C459.16,-820.93 569.38,-852.16 665,-852.16 665,-852.16 665,-852.16 990.5,-852.16 1101.75,-852.16 1143.58,-847.43 1229,-776.16 1284.87,-729.54 1314.19,-643.88 1325.02,-605.57"/>
<polygon fill="midnightblue" stroke="midnightblue" points="1328.46,-606.26 1327.69,-595.69 1321.7,-604.43 1328.46,-606.26"/>
</g>
<!-- Node5&#45;&gt;Node4 -->
<g id="edge6" class="edge">
<title>Node5&#45;&gt;Node4</title>
<path fill="none" stroke="midnightblue" d="M321.73,-801.58C313.53,-801.79 304.93,-801.89 296.31,-801.91"/>
<polygon fill="midnightblue" stroke="midnightblue" points="296.2,-798.41 286.19,-801.88 296.18,-805.41 296.2,-798.41"/>
</g>
<!-- Node5&#45;&gt;Node6 -->
<g id="edge7" class="edge">
<title>Node5&#45;&gt;Node6</title>
<path fill="none" stroke="midnightblue" d="M436.21,-796.34C554.64,-797.22 837.24,-790.88 1060,-719.16 1089.69,-709.6 1120.48,-690.84 1140.25,-677.46"/>
<polygon fill="midnightblue" stroke="midnightblue" points="1142.28,-680.31 1148.51,-671.74 1138.3,-674.55 1142.28,-680.31"/>
</g>
<!-- Node5&#45;&gt;Node11 -->
<g id="edge51" class="edge">
<title>Node5&#45;&gt;Node11</title>
<path fill="none" stroke="midnightblue" d="M390.1,-785.59C413.68,-763.27 472.61,-707.5 502.5,-679.2"/>
<polygon fill="midnightblue" stroke="midnightblue" points="505.25,-681.41 510.11,-672 500.44,-676.33 505.25,-681.41"/>
</g>
<!-- Node7 -->
<g id="node7" class="node">
<title>Node7</title>
<g id="a_node7"><a xlink:href="classGPS.html#abd750ada6a7b976f72761ce16246ccf6" target="_top" xlink:title=" ">
<polygon fill="white" stroke="black" points="762,-576.66 762,-595.66 882,-595.66 882,-576.66 762,-576.66"/>
<text text-anchor="middle" x="822" y="-583.66" font-family="Helvetica,sans-Serif" font-size="10.00">GPS::setGPSBAUD115</text>
</a>
</g>
</g>
<!-- Node6&#45;&gt;Node7 -->
<g id="edge8" class="edge">
<title>Node6&#45;&gt;Node7</title>
<path fill="none" stroke="midnightblue" d="M1119.15,-652.65C1057.34,-638.77 942.53,-613 875.47,-597.94"/>
<polygon fill="midnightblue" stroke="midnightblue" points="876.05,-594.48 865.53,-595.71 874.52,-601.31 876.05,-594.48"/>
</g>
<!-- Node7&#45;&gt;Node3 -->
<g id="edge50" class="edge">
<title>Node7&#45;&gt;Node3</title>
<path fill="none" stroke="midnightblue" d="M882.15,-586.16C974.58,-586.16 1153.16,-586.16 1254.66,-586.16"/>
<polygon fill="midnightblue" stroke="midnightblue" points="1254.84,-589.66 1264.84,-586.16 1254.84,-582.66 1254.84,-589.66"/>
</g>
<!-- Node8 -->
<g id="node8" class="node">
<title>Node8</title>
<g id="a_node8"><a xlink:href="classGPS.html#a8775edfa08840ffb2647e0e5ba031fe5" target="_top" xlink:title=" ">
<polygon fill="white" stroke="black" points="930,-690.66 930,-709.66 1049,-709.66 1049,-690.66 930,-690.66"/>
<text text-anchor="middle" x="989.5" y="-697.66" font-family="Helvetica,sans-Serif" font-size="10.00">GPS::closeConnection1</text>
</a>
</g>
</g>
<!-- Node7&#45;&gt;Node8 -->
<g id="edge9" class="edge">
<title>Node7&#45;&gt;Node8</title>
<path fill="none" stroke="midnightblue" d="M836.83,-595.68C865.35,-615.33 930.97,-660.53 965.81,-684.53"/>
<polygon fill="midnightblue" stroke="midnightblue" points="964.14,-687.63 974.36,-690.42 968.11,-681.87 964.14,-687.63"/>
</g>
<!-- Node8&#45;&gt;Node2 -->
<g id="edge10" class="edge">
<title>Node8&#45;&gt;Node2</title>
<path fill="none" stroke="midnightblue" d="M1019.12,-709.7C1047.6,-719.19 1091.5,-733.83 1123.02,-744.33"/>
<polygon fill="midnightblue" stroke="midnightblue" points="1122.19,-747.75 1132.79,-747.59 1124.41,-741.11 1122.19,-747.75"/>
</g>
<!-- Node8&#45;&gt;Node3 -->
<g id="edge49" class="edge">
<title>Node8&#45;&gt;Node3</title>
<path fill="none" stroke="midnightblue" d="M1049.01,-706.02C1098.98,-708.62 1171.66,-706.57 1229,-681.16 1267.28,-664.2 1300.16,-626.44 1317.31,-603.97"/>
<polygon fill="midnightblue" stroke="midnightblue" points="1320.14,-606.03 1323.29,-595.91 1314.52,-601.86 1320.14,-606.03"/>
</g>
<!-- Node8&#45;&gt;Node4 -->
<g id="edge11" class="edge">
<title>Node8&#45;&gt;Node4</title>
<path fill="none" stroke="midnightblue" d="M929.95,-705.64C813.76,-716.77 545.89,-743.76 322,-776.16 306.29,-778.43 289.37,-781.18 273.6,-783.86"/>
<polygon fill="midnightblue" stroke="midnightblue" points="272.69,-780.47 263.42,-785.61 273.87,-787.37 272.69,-780.47"/>
</g>
<!-- Node8&#45;&gt;Node6 -->
<g id="edge12" class="edge">
<title>Node8&#45;&gt;Node6</title>
<path fill="none" stroke="midnightblue" d="M1033.65,-690.57C1056.42,-685.51 1084.55,-679.26 1108.62,-673.91"/>
<polygon fill="midnightblue" stroke="midnightblue" points="1109.66,-677.27 1118.66,-671.68 1108.14,-670.43 1109.66,-677.27"/>
</g>
<!-- Node8&#45;&gt;Node9 -->
<g id="edge13" class="edge">
<title>Node8&#45;&gt;Node9</title>
<path fill="none" stroke="midnightblue" d="M999.22,-709.84C1026.54,-740.2 1110.78,-833.81 1145.89,-872.82"/>
<polygon fill="midnightblue" stroke="midnightblue" points="1143.31,-875.18 1152.6,-880.27 1148.51,-870.49 1143.31,-875.18"/>
</g>
<!-- Node8&#45;&gt;Node11 -->
<g id="edge18" class="edge">
<title>Node8&#45;&gt;Node11</title>
<path fill="none" stroke="midnightblue" d="M929.99,-691.7C914.71,-689.68 898.26,-687.68 883,-686.16 776.96,-675.61 652.89,-668.49 581.43,-664.9"/>
<polygon fill="midnightblue" stroke="midnightblue" points="581.43,-661.39 571.27,-664.39 581.09,-668.38 581.43,-661.39"/>
</g>
<!-- Node9&#45;&gt;Node1 -->
<g id="edge15" class="edge">
<title>Node9&#45;&gt;Node1</title>
<path fill="none" stroke="midnightblue" d="M1140.55,-899.72C1120.32,-908.58 1088.64,-921.52 1060,-929.16 957,-956.66 929.61,-966.16 823,-966.16 378,-966.16 378,-966.16 378,-966.16 220.7,-966.16 96.67,-779.31 60.64,-718.82"/>
<polygon fill="midnightblue" stroke="midnightblue" points="63.52,-716.81 55.45,-709.94 57.47,-720.34 63.52,-716.81"/>
</g>
<!-- Node9&#45;&gt;Node3 -->
<g id="edge16" class="edge">
<title>Node9&#45;&gt;Node3</title>
<path fill="none" stroke="midnightblue" d="M1206.16,-880.65C1214.54,-877.2 1222.68,-872.51 1229,-866.16 1303.73,-791.05 1323.54,-656.65 1328.47,-606.11"/>
<polygon fill="midnightblue" stroke="midnightblue" points="1331.98,-606.16 1329.37,-595.89 1325.01,-605.54 1331.98,-606.16"/>
</g>
<!-- Node9&#45;&gt;Node5 -->
<g id="edge14" class="edge">
<title>Node9&#45;&gt;Node5</title>
<path fill="none" stroke="midnightblue" d="M1106.39,-890.16C1039.39,-890.16 922.9,-890.16 823,-890.16 665,-890.16 665,-890.16 665,-890.16 578.56,-890.16 551.93,-899.06 472,-866.16 442.02,-853.82 413.42,-828.99 396.29,-812.22"/>
<polygon fill="midnightblue" stroke="midnightblue" points="398.37,-809.35 388.84,-804.72 393.41,-814.28 398.37,-809.35"/>
</g>
<!-- Node10 -->
<g id="node10" class="node">
<title>Node10</title>
<g id="a_node10"><a xlink:href="classSerialPort.html#aad156293689e349b3674671f8a8d8048" target="_top" xlink:title=" ">
<polygon fill="white" stroke="black" points="1280,-880.66 1280,-899.66 1382,-899.66 1382,-880.66 1280,-880.66"/>
<text text-anchor="middle" x="1331" y="-887.66" font-family="Helvetica,sans-Serif" font-size="10.00">SerialPort::setParity</text>
</a>
</g>
</g>
<!-- Node9&#45;&gt;Node10 -->
<g id="edge17" class="edge">
<title>Node9&#45;&gt;Node10</title>
<path fill="none" stroke="midnightblue" d="M1218.94,-890.16C1235.24,-890.16 1253.14,-890.16 1269.72,-890.16"/>
<polygon fill="midnightblue" stroke="midnightblue" points="1269.85,-893.66 1279.85,-890.16 1269.85,-886.66 1269.85,-893.66"/>
</g>
<!-- Node12 -->
<g id="node12" class="node">
<title>Node12</title>
<g id="a_node12"><a xlink:href="classGPS.html#a217097ae4a846c621f001a5aa1f4fb4f" target="_top" xlink:title=" ">
<polygon fill="white" stroke="black" points="607,-437.66 607,-456.66 725,-456.66 725,-437.66 607,-437.66"/>
<text text-anchor="middle" x="666" y="-444.66" font-family="Helvetica,sans-Serif" font-size="10.00">GPS::ProcessMessage</text>
</a>
</g>
</g>
<!-- Node11&#45;&gt;Node12 -->
<g id="edge19" class="edge">
<title>Node11&#45;&gt;Node12</title>
<path fill="none" stroke="midnightblue" d="M528.81,-652.64C550.69,-619.63 623.57,-509.67 652.76,-465.63"/>
<polygon fill="midnightblue" stroke="midnightblue" points="655.83,-467.33 658.44,-457.06 650,-463.46 655.83,-467.33"/>
</g>
<!-- Node12&#45;&gt;Node3 -->
<g id="edge48" class="edge">
<title>Node12&#45;&gt;Node3</title>
<path fill="none" stroke="midnightblue" d="M691.63,-456.79C736.26,-473.88 833.81,-509.55 919,-529.16 1034.74,-555.8 1171.88,-571.77 1254.84,-579.76"/>
<polygon fill="midnightblue" stroke="midnightblue" points="1254.65,-583.26 1264.93,-580.72 1255.31,-576.29 1254.65,-583.26"/>
</g>
<!-- Node12&#45;&gt;Node7 -->
<g id="edge47" class="edge">
<title>Node12&#45;&gt;Node7</title>
<path fill="none" stroke="midnightblue" d="M671.92,-456.86C683.94,-479.59 717.08,-536.69 761,-567.16 763.87,-569.15 766.96,-570.94 770.17,-572.55"/>
<polygon fill="midnightblue" stroke="midnightblue" points="768.88,-575.81 779.44,-576.62 771.69,-569.39 768.88,-575.81"/>
</g>
<!-- Node13 -->
<g id="node13" class="node">
<title>Node13</title>
<g id="a_node13"><a xlink:href="classGPS.html#a20f1883fa42ff859903a07444ac15628" target="_top" xlink:title=" ">
<polygon fill="white" stroke="black" points="780.5,-538.66 780.5,-557.66 863.5,-557.66 863.5,-538.66 780.5,-538.66"/>
<text text-anchor="middle" x="822" y="-545.66" font-family="Helvetica,sans-Serif" font-size="10.00">GPS::logNMEA</text>
</a>
</g>
</g>
<!-- Node12&#45;&gt;Node13 -->
<g id="edge20" class="edge">
<title>Node12&#45;&gt;Node13</title>
<path fill="none" stroke="midnightblue" d="M676.66,-456.81C692.9,-472.6 727.21,-504.21 761,-524.16 767.64,-528.08 775.04,-531.63 782.32,-534.72"/>
<polygon fill="midnightblue" stroke="midnightblue" points="781.49,-538.16 792.08,-538.64 784.1,-531.66 781.49,-538.16"/>
</g>
<!-- Node14 -->
<g id="node14" class="node">
<title>Node14</title>
<g id="a_node14"><a xlink:href="classGPS.html#a6fbf5e49f6a05b056835666f2e1cb830" target="_top" xlink:title=" ">
<polygon fill="white" stroke="black" points="765.5,-374.66 765.5,-393.66 878.5,-393.66 878.5,-374.66 765.5,-374.66"/>
<text text-anchor="middle" x="822" y="-381.66" font-family="Helvetica,sans-Serif" font-size="10.00">GPS::processGPGGA</text>
</a>
</g>
</g>
<!-- Node12&#45;&gt;Node14 -->
<g id="edge21" class="edge">
<title>Node12&#45;&gt;Node14</title>
<path fill="none" stroke="midnightblue" d="M690.39,-437.59C716.47,-426.92 758.84,-409.59 788.22,-397.57"/>
<polygon fill="midnightblue" stroke="midnightblue" points="789.71,-400.74 797.64,-393.71 787.06,-394.26 789.71,-400.74"/>
</g>
<!-- Node26 -->
<g id="node26" class="node">
<title>Node26</title>
<g id="a_node26"><a xlink:href="classGPS.html#a9f0cacdc6f30465399f19ccb19edde1a" target="_top" xlink:title=" ">
<polygon fill="white" stroke="black" points="765.5,-241.66 765.5,-260.66 878.5,-260.66 878.5,-241.66 765.5,-241.66"/>
<text text-anchor="middle" x="822" y="-248.66" font-family="Helvetica,sans-Serif" font-size="10.00">GPS::processGPRMC</text>
</a>
</g>
</g>
<!-- Node12&#45;&gt;Node26 -->
<g id="edge34" class="edge">
<title>Node12&#45;&gt;Node26</title>
<path fill="none" stroke="midnightblue" d="M674.64,-437.44C699.06,-406.35 775.53,-309.03 807.12,-268.82"/>
<polygon fill="midnightblue" stroke="midnightblue" points="809.89,-270.96 813.32,-260.94 804.39,-266.64 809.89,-270.96"/>
</g>
<!-- Node30 -->
<g id="node30" class="node">
<title>Node30</title>
<g id="a_node30"><a xlink:href="classGPS.html#a125284d30c7901ba52ed190e519bc3b2" target="_top" xlink:title=" ">
<polygon fill="white" stroke="black" points="761,-70.66 761,-89.66 883,-89.66 883,-70.66 761,-70.66"/>
<text text-anchor="middle" x="822" y="-77.66" font-family="Helvetica,sans-Serif" font-size="10.00">GPS::removeNMEAmsg</text>
</a>
</g>
</g>
<!-- Node12&#45;&gt;Node30 -->
<g id="edge42" class="edge">
<title>Node12&#45;&gt;Node30</title>
<path fill="none" stroke="midnightblue" d="M671.12,-437.34C691.87,-387.89 785.05,-165.84 813.03,-99.15"/>
<polygon fill="midnightblue" stroke="midnightblue" points="816.3,-100.41 816.94,-89.84 809.84,-97.7 816.3,-100.41"/>
</g>
<!-- Node32 -->
<g id="node32" class="node">
<title>Node32</title>
<g id="a_node32"><a xlink:href="classGPS.html#a052c61711107964bbde54f86edb110ff" target="_top" xlink:title=" ">
<polygon fill="white" stroke="black" points="771.5,-13.66 771.5,-32.66 872.5,-32.66 872.5,-13.66 771.5,-13.66"/>
<text text-anchor="middle" x="822" y="-20.66" font-family="Helvetica,sans-Serif" font-size="10.00">GPS::setGPS10HZ</text>
</a>
</g>
</g>
<!-- Node12&#45;&gt;Node32 -->
<g id="edge45" class="edge">
<title>Node12&#45;&gt;Node32</title>
<path fill="none" stroke="midnightblue" d="M666.82,-437.41C666.45,-390.77 670.31,-187.51 761,-61.16 768.06,-51.32 778.54,-43.44 788.77,-37.46"/>
<polygon fill="midnightblue" stroke="midnightblue" points="790.46,-40.52 797.6,-32.69 787.14,-34.36 790.46,-40.52"/>
</g>
<!-- Node14&#45;&gt;Node3 -->
<g id="edge29" class="edge">
<title>Node14&#45;&gt;Node3</title>
<path fill="none" stroke="midnightblue" d="M878.77,-380.73C927.87,-379.55 1000.61,-382.3 1060,-403.16 1166.96,-440.74 1271.76,-531.46 1312.36,-569.23"/>
<polygon fill="midnightblue" stroke="midnightblue" points="1310.13,-571.94 1319.81,-576.24 1314.93,-566.84 1310.13,-571.94"/>
</g>
<!-- Node15 -->
<g id="node15" class="node">
<title>Node15</title>
<g id="a_node15"><a xlink:href="classGPS.html#a894018a07e73bdc11af81f5db97f6b28" target="_top" xlink:title=" ">
<polygon fill="white" stroke="black" points="938,-336.66 938,-355.66 1041,-355.66 1041,-336.66 938,-336.66"/>
<text text-anchor="middle" x="989.5" y="-343.66" font-family="Helvetica,sans-Serif" font-size="10.00">GPS::checknewLap</text>
</a>
</g>
</g>
<!-- Node14&#45;&gt;Node15 -->
<g id="edge22" class="edge">
<title>Node14&#45;&gt;Node15</title>
<path fill="none" stroke="midnightblue" d="M864.76,-374.57C886.7,-369.53 913.78,-363.32 937.01,-357.98"/>
<polygon fill="midnightblue" stroke="midnightblue" points="938.07,-361.33 947.04,-355.68 936.51,-354.51 938.07,-361.33"/>
</g>
<!-- Node20 -->
<g id="node20" class="node">
<title>Node20</title>
<g id="a_node20"><a xlink:href="classGPS.html#a75bada3072c3235ae1d076d5ce002175" target="_top" xlink:title=" ">
<polygon fill="white" stroke="black" points="929,-298.66 929,-317.66 1050,-317.66 1050,-298.66 929,-298.66"/>
<text text-anchor="middle" x="989.5" y="-305.66" font-family="Helvetica,sans-Serif" font-size="10.00">GPS::convertToDecimal</text>
</a>
</g>
</g>
<!-- Node14&#45;&gt;Node20 -->
<g id="edge27" class="edge">
<title>Node14&#45;&gt;Node20</title>
<path fill="none" stroke="midnightblue" d="M836.37,-374.63C854.38,-362.18 887.77,-340.41 919,-327.16 924.53,-324.81 930.44,-322.68 936.38,-320.76"/>
<polygon fill="midnightblue" stroke="midnightblue" points="937.8,-323.98 946.35,-317.73 935.77,-317.28 937.8,-323.98"/>
</g>
<!-- Node21 -->
<g id="node21" class="node">
<title>Node21</title>
<g id="a_node21"><a xlink:href="classDashBoard.html#a998569aa565c0a5a872810160266f681" target="_top" xlink:title=" ">
<polygon fill="white" stroke="black" points="924,-500.66 924,-519.66 1055,-519.66 1055,-500.66 924,-500.66"/>
<text text-anchor="middle" x="989.5" y="-507.66" font-family="Helvetica,sans-Serif" font-size="10.00">DashBoard::setgpsAltitude</text>
</a>
</g>
</g>
<!-- Node14&#45;&gt;Node21 -->
<g id="edge28" class="edge">
<title>Node14&#45;&gt;Node21</title>
<path fill="none" stroke="midnightblue" d="M828.87,-393.83C842.17,-414.88 876.74,-465.07 919,-491.16 922.43,-493.28 926.11,-495.17 929.9,-496.85"/>
<polygon fill="midnightblue" stroke="midnightblue" points="928.94,-500.23 939.53,-500.61 931.49,-493.71 928.94,-500.23"/>
</g>
<!-- Node22 -->
<g id="node22" class="node">
<title>Node22</title>
<g id="a_node22"><a xlink:href="classDashBoard.html#a5eb7cceabcdbd62521c9512cba7fbf02" target="_top" xlink:title=" ">
<polygon fill="white" stroke="black" points="926,-462.66 926,-481.66 1053,-481.66 1053,-462.66 926,-462.66"/>
<text text-anchor="middle" x="989.5" y="-469.66" font-family="Helvetica,sans-Serif" font-size="10.00">DashBoard::setgpsHDOP</text>
</a>
</g>
</g>
<!-- Node14&#45;&gt;Node22 -->
<g id="edge30" class="edge">
<title>Node14&#45;&gt;Node22</title>
<path fill="none" stroke="midnightblue" d="M834.03,-393.88C851.11,-408.48 885.5,-436.05 919,-452.16 924.72,-454.91 930.89,-457.35 937.1,-459.5"/>
<polygon fill="midnightblue" stroke="midnightblue" points="936.27,-462.91 946.86,-462.64 938.41,-456.25 936.27,-462.91"/>
</g>
<!-- Node23 -->
<g id="node23" class="node">
<title>Node23</title>
<g id="a_node23"><a xlink:href="classDashBoard.html#a13f7ff18107138daa6618a4564e935be" target="_top" xlink:title=" ">
<polygon fill="white" stroke="black" points="922.5,-260.66 922.5,-279.66 1056.5,-279.66 1056.5,-260.66 922.5,-260.66"/>
<text text-anchor="middle" x="989.5" y="-267.66" font-family="Helvetica,sans-Serif" font-size="10.00">DashBoard::setgpsLatitude</text>
</a>
</g>
</g>
<!-- Node14&#45;&gt;Node23 -->
<g id="edge31" class="edge">
<title>Node14&#45;&gt;Node23</title>
<path fill="none" stroke="midnightblue" d="M830.01,-374.44C844.43,-355.17 879.4,-312.02 919,-289.16 922.88,-286.92 927.04,-284.93 931.32,-283.17"/>
<polygon fill="midnightblue" stroke="midnightblue" points="932.65,-286.41 940.83,-279.68 930.23,-279.84 932.65,-286.41"/>
</g>
<!-- Node24 -->
<g id="node24" class="node">
<title>Node24</title>
<g id="a_node24"><a xlink:href="classDashBoard.html#a32b0f4d9b9cdbecb02c96c9e814f0114" target="_top" xlink:title=" ">
<polygon fill="white" stroke="black" points="919,-222.66 919,-241.66 1060,-241.66 1060,-222.66 919,-222.66"/>
<text text-anchor="middle" x="989.5" y="-229.66" font-family="Helvetica,sans-Serif" font-size="10.00">DashBoard::setgpsLongitude</text>
</a>
</g>
</g>
<!-- Node14&#45;&gt;Node24 -->
<g id="edge32" class="edge">
<title>Node14&#45;&gt;Node24</title>
<path fill="none" stroke="midnightblue" d="M827.2,-374.39C838.32,-349.7 871.02,-284.42 919,-251.16 921.86,-249.18 924.92,-247.4 928.11,-245.81"/>
<polygon fill="midnightblue" stroke="midnightblue" points="929.57,-248.99 937.34,-241.79 926.77,-242.57 929.57,-248.99"/>
</g>
<!-- Node25 -->
<g id="node25" class="node">
<title>Node25</title>
<g id="a_node25"><a xlink:href="classDashBoard.html#a3e4b2d7b59990a8fcf2d6b561ad30fba" target="_top" xlink:title=" ">
<polygon fill="white" stroke="black" points="925.5,-413.16 925.5,-443.16 1053.5,-443.16 1053.5,-413.16 925.5,-413.16"/>
<text text-anchor="start" x="933.5" y="-431.16" font-family="Helvetica,sans-Serif" font-size="10.00">DashBoard::setgpsVisible</text>
<text text-anchor="middle" x="989.5" y="-420.16" font-family="Helvetica,sans-Serif" font-size="10.00">Satelites</text>
</a>
</g>
</g>
<!-- Node14&#45;&gt;Node25 -->
<g id="edge33" class="edge">
<title>Node14&#45;&gt;Node25</title>
<path fill="none" stroke="midnightblue" d="M858.91,-393.71C877.38,-398.62 900.49,-404.76 922.05,-410.49"/>
<polygon fill="midnightblue" stroke="midnightblue" points="921.27,-413.91 931.83,-413.09 923.07,-407.14 921.27,-413.91"/>
</g>
<!-- Node16 -->
<g id="node16" class="node">
<title>Node16</title>
<g id="a_node16"><a xlink:href="gps_8cpp.html#a356f47852da8a45bf4dd9944e08b7d3e" target="_top" xlink:title=" ">
<polygon fill="white" stroke="black" points="1133,-298.66 1133,-317.66 1192,-317.66 1192,-298.66 1133,-298.66"/>
<text text-anchor="middle" x="1162.5" y="-305.66" font-family="Helvetica,sans-Serif" font-size="10.00">fastestlap</text>
</a>
</g>
</g>
<!-- Node15&#45;&gt;Node16 -->
<g id="edge23" class="edge">
<title>Node15&#45;&gt;Node16</title>
<path fill="none" stroke="midnightblue" d="M1033.65,-336.57C1061.08,-330.48 1096.28,-322.65 1122.8,-316.76"/>
<polygon fill="midnightblue" stroke="midnightblue" points="1123.86,-320.11 1132.87,-314.52 1122.35,-313.28 1123.86,-320.11"/>
</g>
<!-- Node17 -->
<g id="node17" class="node">
<title>Node17</title>
<g id="a_node17"><a xlink:href="classDashBoard.html#ae5d69bcab58e2e497902387d03cc9146" target="_top" xlink:title=" ">
<polygon fill="white" stroke="black" points="1096,-260.66 1096,-279.66 1229,-279.66 1229,-260.66 1096,-260.66"/>
<text text-anchor="middle" x="1162.5" y="-267.66" font-family="Helvetica,sans-Serif" font-size="10.00">DashBoard::setbestlaptime</text>
</a>
</g>
</g>
<!-- Node15&#45;&gt;Node17 -->
<g id="edge24" class="edge">
<title>Node15&#45;&gt;Node17</title>
<path fill="none" stroke="midnightblue" d="M1039.01,-336.58C1046.32,-334.11 1053.56,-331.02 1060,-327.16 1079.96,-315.21 1076.13,-301.27 1096,-289.16 1099.43,-287.07 1103.1,-285.2 1106.88,-283.53"/>
<polygon fill="midnightblue" stroke="midnightblue" points="1108.43,-286.68 1116.46,-279.77 1105.88,-280.17 1108.43,-286.68"/>
</g>
<!-- Node18 -->
<g id="node18" class="node">
<title>Node18</title>
<g id="a_node18"><a xlink:href="classDashBoard.html#af147e933576adcd81892aca4e74df784" target="_top" xlink:title=" ">
<polygon fill="white" stroke="black" points="1098,-222.66 1098,-241.66 1227,-241.66 1227,-222.66 1098,-222.66"/>
<text text-anchor="middle" x="1162.5" y="-229.66" font-family="Helvetica,sans-Serif" font-size="10.00">DashBoard::setcurrentLap</text>
</a>
</g>
</g>
<!-- Node15&#45;&gt;Node18 -->
<g id="edge25" class="edge">
<title>Node15&#45;&gt;Node18</title>
<path fill="none" stroke="midnightblue" d="M1041.29,-337.87C1048.06,-335.22 1054.54,-331.74 1060,-327.16 1088.64,-303.15 1067.54,-275.39 1096,-251.16 1098.01,-249.45 1100.17,-247.89 1102.43,-246.47"/>
<polygon fill="midnightblue" stroke="midnightblue" points="1104.37,-249.41 1111.61,-241.67 1101.12,-243.21 1104.37,-249.41"/>
</g>
<!-- Node19 -->
<g id="node19" class="node">
<title>Node19</title>
<g id="a_node19"><a xlink:href="classDashBoard.html#a023ed00fbd93bad06e98426b7583022c" target="_top" xlink:title=" ">
<polygon fill="white" stroke="black" points="1105.5,-336.66 1105.5,-355.66 1219.5,-355.66 1219.5,-336.66 1105.5,-336.66"/>
<text text-anchor="middle" x="1162.5" y="-343.66" font-family="Helvetica,sans-Serif" font-size="10.00">DashBoard::setlaptime</text>
</a>
</g>
</g>
<!-- Node15&#45;&gt;Node19 -->
<g id="edge26" class="edge">
<title>Node15&#45;&gt;Node19</title>
<path fill="none" stroke="midnightblue" d="M1041.34,-346.16C1058.29,-346.16 1077.43,-346.16 1095.37,-346.16"/>
<polygon fill="midnightblue" stroke="midnightblue" points="1095.47,-349.66 1105.47,-346.16 1095.47,-342.66 1095.47,-349.66"/>
</g>
<!-- Node26&#45;&gt;Node15 -->
<g id="edge35" class="edge">
<title>Node26&#45;&gt;Node15</title>
<path fill="none" stroke="midnightblue" d="M832.43,-260.84C848.65,-276.94 883.53,-309.22 919,-327.16 923.56,-329.46 928.43,-331.52 933.4,-333.34"/>
<polygon fill="midnightblue" stroke="midnightblue" points="932.42,-336.71 943.02,-336.57 934.65,-330.07 932.42,-336.71"/>
</g>
<!-- Node26&#45;&gt;Node20 -->
<g id="edge36" class="edge">
<title>Node26&#45;&gt;Node20</title>
<path fill="none" stroke="midnightblue" d="M845.24,-260.77C864.54,-268.91 893.32,-280.6 919,-289.16 926.1,-291.53 933.67,-293.82 941.11,-295.96"/>
<polygon fill="midnightblue" stroke="midnightblue" points="940.19,-299.33 950.76,-298.65 942.07,-292.59 940.19,-299.33"/>
</g>
<!-- Node26&#45;&gt;Node23 -->
<g id="edge38" class="edge">
<title>Node26&#45;&gt;Node23</title>
<path fill="none" stroke="midnightblue" d="M878.57,-257.54C889.46,-258.79 901.07,-260.12 912.49,-261.43"/>
<polygon fill="midnightblue" stroke="midnightblue" points="912.14,-264.92 922.47,-262.58 912.94,-257.96 912.14,-264.92"/>
</g>
<!-- Node26&#45;&gt;Node24 -->
<g id="edge39" class="edge">
<title>Node26&#45;&gt;Node24</title>
<path fill="none" stroke="midnightblue" d="M878.57,-244.78C888.29,-243.66 898.57,-242.48 908.79,-241.31"/>
<polygon fill="midnightblue" stroke="midnightblue" points="909.43,-244.76 918.97,-240.14 908.63,-237.81 909.43,-244.76"/>
</g>
<!-- Node27 -->
<g id="node27" class="node">
<title>Node27</title>
<g id="a_node27"><a xlink:href="classDashBoard.html#a7efb6b0a187fa08bf3543c8ce0d40738" target="_top" xlink:title=" ">
<polygon fill="white" stroke="black" points="924.5,-184.66 924.5,-203.66 1054.5,-203.66 1054.5,-184.66 924.5,-184.66"/>
<text text-anchor="middle" x="989.5" y="-191.66" font-family="Helvetica,sans-Serif" font-size="10.00">DashBoard::setgpsbearing</text>
</a>
</g>
</g>
<!-- Node26&#45;&gt;Node27 -->
<g id="edge37" class="edge">
<title>Node26&#45;&gt;Node27</title>
<path fill="none" stroke="midnightblue" d="M845.24,-241.55C864.54,-233.4 893.32,-221.72 919,-213.16 926.1,-210.79 933.67,-208.5 941.11,-206.36"/>
<polygon fill="midnightblue" stroke="midnightblue" points="942.07,-209.73 950.76,-203.67 940.19,-202.99 942.07,-209.73"/>
</g>
<!-- Node28 -->
<g id="node28" class="node">
<title>Node28</title>
<g id="a_node28"><a xlink:href="classDashBoard.html#a16ed8cfba91338bea76b8ab5acd2a1c2" target="_top" xlink:title=" ">
<polygon fill="white" stroke="black" points="926.5,-146.66 926.5,-165.66 1052.5,-165.66 1052.5,-146.66 926.5,-146.66"/>
<text text-anchor="middle" x="989.5" y="-153.66" font-family="Helvetica,sans-Serif" font-size="10.00">DashBoard::setgpsSpeed</text>
</a>
</g>
</g>
<!-- Node26&#45;&gt;Node28 -->
<g id="edge40" class="edge">
<title>Node26&#45;&gt;Node28</title>
<path fill="none" stroke="midnightblue" d="M832.43,-241.48C848.65,-225.38 883.53,-193.1 919,-175.16 923.56,-172.85 928.43,-170.8 933.4,-168.98"/>
<polygon fill="midnightblue" stroke="midnightblue" points="934.65,-172.25 943.02,-165.75 932.42,-165.61 934.65,-172.25"/>
</g>
<!-- Node29 -->
<g id="node29" class="node">
<title>Node29</title>
<g id="a_node29"><a xlink:href="classDashBoard.html#ae93b793d4f4bd43d954cc08ccb8431e4" target="_top" xlink:title=" ">
<polygon fill="white" stroke="black" points="929.5,-108.66 929.5,-127.66 1049.5,-127.66 1049.5,-108.66 929.5,-108.66"/>
<text text-anchor="middle" x="989.5" y="-115.66" font-family="Helvetica,sans-Serif" font-size="10.00">DashBoard::setgpsTime</text>
</a>
</g>
</g>
<!-- Node26&#45;&gt;Node29 -->
<g id="edge41" class="edge">
<title>Node26&#45;&gt;Node29</title>
<path fill="none" stroke="midnightblue" d="M828.32,-241.51C840.99,-219.48 875.18,-165.18 919,-137.16 922.34,-135.02 925.92,-133.12 929.63,-131.44"/>
<polygon fill="midnightblue" stroke="midnightblue" points="931.07,-134.63 939.06,-127.66 928.47,-128.13 931.07,-134.63"/>
</g>
<!-- Node30&#45;&gt;Node3 -->
<g id="edge43" class="edge">
<title>Node30&#45;&gt;Node3</title>
<path fill="none" stroke="midnightblue" d="M850.03,-70.62C895.19,-56.27 988.12,-33.59 1060,-61.16 1154.32,-97.34 1176.08,-127.11 1229,-213.16 1302.97,-333.44 1323.58,-508.06 1328.57,-566.37"/>
<polygon fill="midnightblue" stroke="midnightblue" points="1325.09,-566.74 1329.37,-576.43 1332.07,-566.19 1325.09,-566.74"/>
</g>
<!-- Node31 -->
<g id="node31" class="node">
<title>Node31</title>
<g id="a_node31"><a xlink:href="classGPS.html#aeae2cbce7d09b6441ebd1b788dac12b7" target="_top" xlink:title=" ">
<polygon fill="white" stroke="black" points="941.5,-70.66 941.5,-89.66 1037.5,-89.66 1037.5,-70.66 941.5,-70.66"/>
<text text-anchor="middle" x="989.5" y="-77.66" font-family="Helvetica,sans-Serif" font-size="10.00">GPS::setGPSOnly</text>
</a>
</g>
</g>
<!-- Node30&#45;&gt;Node31 -->
<g id="edge44" class="edge">
<title>Node30&#45;&gt;Node31</title>
<path fill="none" stroke="midnightblue" d="M883.22,-80.16C898.76,-80.16 915.45,-80.16 930.86,-80.16"/>
<polygon fill="midnightblue" stroke="midnightblue" points="931.3,-83.66 941.3,-80.16 931.3,-76.66 931.3,-83.66"/>
</g>
<!-- Node32&#45;&gt;Node3 -->
<g id="edge46" class="edge">
<title>Node32&#45;&gt;Node3</title>
<path fill="none" stroke="midnightblue" d="M865.51,-13.66C947.95,2.03 1130.12,22.78 1229,-73.16 1301.56,-143.56 1324.32,-479.87 1329,-566.02"/>
<polygon fill="midnightblue" stroke="midnightblue" points="1325.52,-566.46 1329.54,-576.26 1332.51,-566.1 1325.52,-566.46"/>
</g>
</g>
</svg>
