<?xml version="1.0" encoding="UTF-8" standalone="no"?>
<!DOCTYPE svg PUBLIC "-//W3C//DTD SVG 1.1//EN"
 "http://www.w3.org/Graphics/SVG/1.1/DTD/svg11.dtd">
<!-- Generated by graphviz version 2.49.3 (20211027.1534)
 -->
<!-- Title: DashBoard::gearcalc3Changed Pages: 1 -->
<svg width="622pt" height="88pt"
 viewBox="0.00 0.00 622.00 88.00" xmlns="http://www.w3.org/2000/svg" xmlns:xlink="http://www.w3.org/1999/xlink">
<g id="graph0" class="graph" transform="scale(1 1) rotate(0) translate(4 84)">
<title>DashBoard::gearcalc3Changed</title>
<polygon fill="white" stroke="transparent" points="-4,4 -4,-84 618,-84 618,4 -4,4"/>
<!-- Node1 -->
<g id="node1" class="node">
<title>Node1</title>
<g id="a_node1"><a xlink:title=" ">
<polygon fill="#bfbfbf" stroke="black" points="465,-30 465,-49 614,-49 614,-30 465,-30"/>
<text text-anchor="middle" x="539.5" y="-37" font-family="Helvetica,sans-Serif" font-size="10.00">DashBoard::gearcalc3Changed</text>
</a>
</g>
</g>
<!-- Node2 -->
<g id="node2" class="node">
<title>Node2</title>
<g id="a_node2"><a xlink:href="classDashBoard.html#aa5abb4e9e8b652f02a19871349c87564" target="_top" xlink:title=" ">
<polygon fill="white" stroke="black" points="304,-30 304,-49 429,-49 429,-30 304,-30"/>
<text text-anchor="middle" x="366.5" y="-37" font-family="Helvetica,sans-Serif" font-size="10.00">DashBoard::setgearcalc3</text>
</a>
</g>
</g>
<!-- Node1&#45;&gt;Node2 -->
<g id="edge1" class="edge">
<title>Node1&#45;&gt;Node2</title>
<path fill="none" stroke="midnightblue" d="M454.85,-39.5C446.19,-39.5 437.5,-39.5 429.14,-39.5"/>
<polygon fill="midnightblue" stroke="midnightblue" points="454.99,-43 464.99,-39.5 454.99,-36 454.99,-43"/>
</g>
<!-- Node3 -->
<g id="node3" class="node">
<title>Node3</title>
<g id="a_node3"><a xlink:href="classAppSettings.html#af97c4b73b02f8cf8ef75b11d8f86ac40" target="_top" xlink:title=" ">
<polygon fill="white" stroke="black" points="132,-49.5 132,-79.5 265,-79.5 265,-49.5 132,-49.5"/>
<text text-anchor="start" x="140" y="-67.5" font-family="Helvetica,sans-Serif" font-size="10.00">AppSettings::readandApply</text>
<text text-anchor="middle" x="198.5" y="-56.5" font-family="Helvetica,sans-Serif" font-size="10.00">Settings</text>
</a>
</g>
</g>
<!-- Node2&#45;&gt;Node3 -->
<g id="edge2" class="edge">
<title>Node2&#45;&gt;Node3</title>
<path fill="none" stroke="midnightblue" d="M293.57,-50.33C284.16,-51.75 274.56,-53.2 265.26,-54.6"/>
<polygon fill="midnightblue" stroke="midnightblue" points="294.32,-53.76 303.69,-48.81 293.28,-46.84 294.32,-53.76"/>
</g>
<!-- Node5 -->
<g id="node5" class="node">
<title>Node5</title>
<g id="a_node5"><a xlink:href="classAppSettings.html#aa54c28533522b9d55c514f195105a22f" target="_top" xlink:title=" ">
<polygon fill="white" stroke="black" points="129,-0.5 129,-30.5 268,-30.5 268,-0.5 129,-0.5"/>
<text text-anchor="start" x="137" y="-18.5" font-family="Helvetica,sans-Serif" font-size="10.00">AppSettings::writeWarnGear</text>
<text text-anchor="middle" x="198.5" y="-7.5" font-family="Helvetica,sans-Serif" font-size="10.00">Settings</text>
</a>
</g>
</g>
<!-- Node2&#45;&gt;Node5 -->
<g id="edge4" class="edge">
<title>Node2&#45;&gt;Node5</title>
<path fill="none" stroke="midnightblue" d="M293.77,-29.13C285.24,-27.9 276.54,-26.64 268.06,-25.41"/>
<polygon fill="midnightblue" stroke="midnightblue" points="293.29,-32.6 303.69,-30.56 294.29,-25.67 293.29,-32.6"/>
</g>
<!-- Node4 -->
<g id="node4" class="node">
<title>Node4</title>
<g id="a_node4"><a xlink:href="classConnect.html#a2e3bdc883e226b286ee2ea851bf5f551" target="_top" xlink:title=" ">
<polygon fill="white" stroke="black" points="0,-55 0,-74 93,-74 93,-55 0,-55"/>
<text text-anchor="middle" x="46.5" y="-62" font-family="Helvetica,sans-Serif" font-size="10.00">Connect::Connect</text>
</a>
</g>
</g>
<!-- Node3&#45;&gt;Node4 -->
<g id="edge3" class="edge">
<title>Node3&#45;&gt;Node4</title>
<path fill="none" stroke="midnightblue" d="M121.68,-64.5C112.03,-64.5 102.4,-64.5 93.43,-64.5"/>
<polygon fill="midnightblue" stroke="midnightblue" points="121.71,-68 131.71,-64.5 121.71,-61 121.71,-68"/>
</g>
</g>
</svg>
