<?xml version="1.0" encoding="UTF-8" standalone="no"?>
<!DOCTYPE svg PUBLIC "-//W3C//DTD SVG 1.1//EN"
 "http://www.w3.org/Graphics/SVG/1.1/DTD/svg11.dtd">
<!-- Generated by graphviz version 2.49.3 (20211027.1534)
 -->
<!-- Title: udpreceiver Pages: 1 -->
<svg width="129pt" height="152pt"
 viewBox="0.00 0.00 128.50 152.00" xmlns="http://www.w3.org/2000/svg" xmlns:xlink="http://www.w3.org/1999/xlink">
<g id="graph0" class="graph" transform="scale(1 1) rotate(0) translate(4 148)">
<title>udpreceiver</title>
<polygon fill="white" stroke="transparent" points="-4,4 -4,-148 124.5,-148 124.5,4 -4,4"/>
<!-- Node1 -->
<g id="node1" class="node">
<title>Node1</title>
<g id="a_node1"><a xlink:title=" ">
<polygon fill="#bfbfbf" stroke="black" points="0,-0.5 0,-19.5 67,-19.5 67,-0.5 0,-0.5"/>
<text text-anchor="middle" x="33.5" y="-7.5" font-family="Helvetica,sans-Serif" font-size="10.00">udpreceiver</text>
</a>
</g>
</g>
<!-- Node2 -->
<g id="node2" class="node">
<title>Node2</title>
<g id="a_node2"><a xlink:title=" ">
<polygon fill="white" stroke="#bfbfbf" points="3,-124.5 3,-143.5 56,-143.5 56,-124.5 3,-124.5"/>
<text text-anchor="middle" x="29.5" y="-131.5" font-family="Helvetica,sans-Serif" font-size="10.00">QObject</text>
</a>
</g>
</g>
<!-- Node2&#45;&gt;Node1 -->
<g id="edge1" class="edge">
<title>Node2&#45;&gt;Node1</title>
<path fill="none" stroke="midnightblue" d="M30.12,-114.19C31,-87.4 32.57,-39.31 33.21,-19.69"/>
<polygon fill="midnightblue" stroke="midnightblue" points="26.62,-114.12 29.79,-124.23 33.61,-114.35 26.62,-114.12"/>
</g>
<!-- Node3 -->
<g id="node3" class="node">
<title>Node3</title>
<g id="a_node3"><a xlink:href="classDashBoard.html" target="_top" xlink:title=" ">
<polygon fill="white" stroke="black" points="46,-67.5 46,-86.5 111,-86.5 111,-67.5 46,-67.5"/>
<text text-anchor="middle" x="78.5" y="-74.5" font-family="Helvetica,sans-Serif" font-size="10.00">DashBoard</text>
</a>
</g>
</g>
<!-- Node2&#45;&gt;Node3 -->
<g id="edge3" class="edge">
<title>Node2&#45;&gt;Node3</title>
<path fill="none" stroke="midnightblue" d="M43.91,-116.83C52.68,-106.98 63.55,-94.78 70.74,-86.71"/>
<polygon fill="midnightblue" stroke="midnightblue" points="41.2,-114.61 37.16,-124.41 46.42,-119.27 41.2,-114.61"/>
</g>
<!-- Node3&#45;&gt;Node1 -->
<g id="edge2" class="edge">
<title>Node3&#45;&gt;Node1</title>
<path fill="none" stroke="#9a32cd" stroke-dasharray="5,2" d="M66.66,-58.9C57.92,-46.27 46.38,-29.6 39.47,-19.63"/>
<polygon fill="#9a32cd" stroke="#9a32cd" points="63.86,-61 72.43,-67.23 69.62,-57.02 63.86,-61"/>
<text text-anchor="middle" x="90" y="-41" font-family="Helvetica,sans-Serif" font-size="10.00"> m_dashboard</text>
</g>
</g>
</svg>
