<?xml version="1.0" encoding="UTF-8" standalone="no"?>
<!DOCTYPE svg PUBLIC "-//W3C//DTD SVG 1.1//EN"
 "http://www.w3.org/Graphics/SVG/1.1/DTD/svg11.dtd">
<!-- Generated by graphviz version 2.49.3 (20211027.1534)
 -->
<!-- Title: Apexi::decodeSensorStrings Pages: 1 -->
<svg width="326pt" height="902pt"
 viewBox="0.00 0.00 326.00 902.00" xmlns="http://www.w3.org/2000/svg" xmlns:xlink="http://www.w3.org/1999/xlink">
<g id="graph0" class="graph" transform="scale(1 1) rotate(0) translate(4 898)">
<title>Apexi::decodeSensorStrings</title>
<polygon fill="white" stroke="transparent" points="-4,4 -4,-898 322,-898 322,4 -4,4"/>
<!-- Node1 -->
<g id="node1" class="node">
<title>Node1</title>
<g id="a_node1"><a xlink:title=" ">
<polygon fill="#bfbfbf" stroke="black" points="0,-437.5 0,-456.5 138,-456.5 138,-437.5 0,-437.5"/>
<text text-anchor="middle" x="69" y="-444.5" font-family="Helvetica,sans-Serif" font-size="10.00">Apexi::decodeSensorStrings</text>
</a>
</g>
</g>
<!-- Node2 -->
<g id="node2" class="node">
<title>Node2</title>
<g id="a_node2"><a xlink:href="classDashBoard.html#a4a1ae67f9c2cd8c42a7cacfec44207b8" target="_top" xlink:title=" ">
<polygon fill="white" stroke="black" points="180,-874.5 180,-893.5 312,-893.5 312,-874.5 180,-874.5"/>
<text text-anchor="middle" x="246" y="-881.5" font-family="Helvetica,sans-Serif" font-size="10.00">DashBoard::setFlagString1</text>
</a>
</g>
</g>
<!-- Node1&#45;&gt;Node2 -->
<g id="edge1" class="edge">
<title>Node1&#45;&gt;Node2</title>
<path fill="none" stroke="midnightblue" d="M71.09,-456.79C77.65,-513.88 113.6,-803.52 174,-865 175.41,-866.43 176.91,-867.76 178.49,-868.99"/>
<polygon fill="midnightblue" stroke="midnightblue" points="176.66,-871.98 186.98,-874.38 180.41,-866.07 176.66,-871.98"/>
</g>
<!-- Node3 -->
<g id="node3" class="node">
<title>Node3</title>
<g id="a_node3"><a xlink:href="classDashBoard.html#a8cc521364c6ab5098bf3e435fdc6d777" target="_top" xlink:title=" ">
<polygon fill="white" stroke="black" points="177.5,-836.5 177.5,-855.5 314.5,-855.5 314.5,-836.5 177.5,-836.5"/>
<text text-anchor="middle" x="246" y="-843.5" font-family="Helvetica,sans-Serif" font-size="10.00">DashBoard::setFlagString10</text>
</a>
</g>
</g>
<!-- Node1&#45;&gt;Node3 -->
<g id="edge2" class="edge">
<title>Node1&#45;&gt;Node3</title>
<path fill="none" stroke="midnightblue" d="M71.32,-456.59C78.89,-510.14 118.34,-771.66 174,-827 175.46,-828.45 177.02,-829.79 178.65,-831.04"/>
<polygon fill="midnightblue" stroke="midnightblue" points="177.07,-834.18 187.42,-836.46 180.76,-828.22 177.07,-834.18"/>
</g>
<!-- Node4 -->
<g id="node4" class="node">
<title>Node4</title>
<g id="a_node4"><a xlink:href="classDashBoard.html#a7996f0f7da9be1d8e5cf9b3c5f48044b" target="_top" xlink:title=" ">
<polygon fill="white" stroke="black" points="177.5,-798.5 177.5,-817.5 314.5,-817.5 314.5,-798.5 177.5,-798.5"/>
<text text-anchor="middle" x="246" y="-805.5" font-family="Helvetica,sans-Serif" font-size="10.00">DashBoard::setFlagString11</text>
</a>
</g>
</g>
<!-- Node1&#45;&gt;Node4 -->
<g id="edge3" class="edge">
<title>Node1&#45;&gt;Node4</title>
<path fill="none" stroke="midnightblue" d="M69.79,-456.56C69.35,-501.31 73.61,-691.94 174,-789 175.48,-790.43 177.05,-791.76 178.71,-792.98"/>
<polygon fill="midnightblue" stroke="midnightblue" points="177.17,-796.14 187.53,-798.35 180.8,-790.16 177.17,-796.14"/>
</g>
<!-- Node5 -->
<g id="node5" class="node">
<title>Node5</title>
<g id="a_node5"><a xlink:href="classDashBoard.html#a453936a851ef90057fb3186c93be106b" target="_top" xlink:title=" ">
<polygon fill="white" stroke="black" points="177.5,-760.5 177.5,-779.5 314.5,-779.5 314.5,-760.5 177.5,-760.5"/>
<text text-anchor="middle" x="246" y="-767.5" font-family="Helvetica,sans-Serif" font-size="10.00">DashBoard::setFlagString12</text>
</a>
</g>
</g>
<!-- Node1&#45;&gt;Node5 -->
<g id="edge4" class="edge">
<title>Node1&#45;&gt;Node5</title>
<path fill="none" stroke="midnightblue" d="M70.21,-456.62C71.65,-498.43 83.1,-666.09 174,-751 175.67,-752.56 177.45,-753.99 179.32,-755.31"/>
<polygon fill="midnightblue" stroke="midnightblue" points="177.61,-758.36 188.01,-760.38 181.14,-752.32 177.61,-758.36"/>
</g>
<!-- Node6 -->
<g id="node6" class="node">
<title>Node6</title>
<g id="a_node6"><a xlink:href="classDashBoard.html#aeb97b60d4e48c6bed770da7154fed8c0" target="_top" xlink:title=" ">
<polygon fill="white" stroke="black" points="177.5,-722.5 177.5,-741.5 314.5,-741.5 314.5,-722.5 177.5,-722.5"/>
<text text-anchor="middle" x="246" y="-729.5" font-family="Helvetica,sans-Serif" font-size="10.00">DashBoard::setFlagString13</text>
</a>
</g>
</g>
<!-- Node1&#45;&gt;Node6 -->
<g id="edge5" class="edge">
<title>Node1&#45;&gt;Node6</title>
<path fill="none" stroke="midnightblue" d="M70.74,-456.72C74.24,-495.44 92.51,-640.11 174,-713 175.74,-714.56 177.59,-715.99 179.53,-717.3"/>
<polygon fill="midnightblue" stroke="midnightblue" points="178.1,-720.51 188.53,-722.36 181.53,-714.41 178.1,-720.51"/>
</g>
<!-- Node7 -->
<g id="node7" class="node">
<title>Node7</title>
<g id="a_node7"><a xlink:href="classDashBoard.html#ad1e46bd48b6ef1cb5ec04d5e5f0a6df5" target="_top" xlink:title=" ">
<polygon fill="white" stroke="black" points="177.5,-684.5 177.5,-703.5 314.5,-703.5 314.5,-684.5 177.5,-684.5"/>
<text text-anchor="middle" x="246" y="-691.5" font-family="Helvetica,sans-Serif" font-size="10.00">DashBoard::setFlagString14</text>
</a>
</g>
</g>
<!-- Node1&#45;&gt;Node7 -->
<g id="edge6" class="edge">
<title>Node1&#45;&gt;Node7</title>
<path fill="none" stroke="midnightblue" d="M71.41,-456.53C77.09,-491.48 101.59,-613.74 174,-675 176,-676.69 178.14,-678.24 180.38,-679.65"/>
<polygon fill="midnightblue" stroke="midnightblue" points="178.98,-682.86 189.46,-684.43 182.24,-676.67 178.98,-682.86"/>
</g>
<!-- Node8 -->
<g id="node8" class="node">
<title>Node8</title>
<g id="a_node8"><a xlink:href="classDashBoard.html#ab7c4acc2aec74cd466ff97f5b8619562" target="_top" xlink:title=" ">
<polygon fill="white" stroke="black" points="177.5,-646.5 177.5,-665.5 314.5,-665.5 314.5,-646.5 177.5,-646.5"/>
<text text-anchor="middle" x="246" y="-653.5" font-family="Helvetica,sans-Serif" font-size="10.00">DashBoard::setFlagString15</text>
</a>
</g>
</g>
<!-- Node1&#45;&gt;Node8 -->
<g id="edge7" class="edge">
<title>Node1&#45;&gt;Node8</title>
<path fill="none" stroke="midnightblue" d="M72.37,-456.65C80.56,-487.92 110.71,-587.3 174,-637 176.31,-638.81 178.77,-640.45 181.34,-641.93"/>
<polygon fill="midnightblue" stroke="midnightblue" points="179.93,-645.14 190.45,-646.4 183.01,-638.85 179.93,-645.14"/>
</g>
<!-- Node9 -->
<g id="node9" class="node">
<title>Node9</title>
<g id="a_node9"><a xlink:href="classDashBoard.html#af4f3b3b6ad05537c819a0c26bbf7d392" target="_top" xlink:title=" ">
<polygon fill="white" stroke="black" points="177.5,-608.5 177.5,-627.5 314.5,-627.5 314.5,-608.5 177.5,-608.5"/>
<text text-anchor="middle" x="246" y="-615.5" font-family="Helvetica,sans-Serif" font-size="10.00">DashBoard::setFlagString16</text>
</a>
</g>
</g>
<!-- Node1&#45;&gt;Node9 -->
<g id="edge8" class="edge">
<title>Node1&#45;&gt;Node9</title>
<path fill="none" stroke="midnightblue" d="M73.71,-456.58C84.66,-483.51 119.46,-560.38 174,-599 176.85,-601.02 179.89,-602.82 183.07,-604.43"/>
<polygon fill="midnightblue" stroke="midnightblue" points="181.72,-607.66 192.28,-608.48 184.54,-601.25 181.72,-607.66"/>
</g>
<!-- Node10 -->
<g id="node10" class="node">
<title>Node10</title>
<g id="a_node10"><a xlink:href="classDashBoard.html#aff1550d6bb259dcec358908ad4a0c11e" target="_top" xlink:title=" ">
<polygon fill="white" stroke="black" points="180,-570.5 180,-589.5 312,-589.5 312,-570.5 180,-570.5"/>
<text text-anchor="middle" x="246" y="-577.5" font-family="Helvetica,sans-Serif" font-size="10.00">DashBoard::setFlagString2</text>
</a>
</g>
</g>
<!-- Node1&#45;&gt;Node10 -->
<g id="edge9" class="edge">
<title>Node1&#45;&gt;Node10</title>
<path fill="none" stroke="midnightblue" d="M75.97,-456.65C90.12,-478.7 127.99,-533.02 174,-561 177.56,-563.16 181.36,-565.08 185.29,-566.79"/>
<polygon fill="midnightblue" stroke="midnightblue" points="184.04,-570.06 194.63,-570.38 186.56,-563.52 184.04,-570.06"/>
</g>
<!-- Node11 -->
<g id="node11" class="node">
<title>Node11</title>
<g id="a_node11"><a xlink:href="classDashBoard.html#ae2ec0f27719d0ec89d262d853f70a5d6" target="_top" xlink:title=" ">
<polygon fill="white" stroke="black" points="180,-532.5 180,-551.5 312,-551.5 312,-532.5 180,-532.5"/>
<text text-anchor="middle" x="246" y="-539.5" font-family="Helvetica,sans-Serif" font-size="10.00">DashBoard::setFlagString3</text>
</a>
</g>
</g>
<!-- Node1&#45;&gt;Node11 -->
<g id="edge10" class="edge">
<title>Node1&#45;&gt;Node11</title>
<path fill="none" stroke="midnightblue" d="M80.37,-456.65C98.17,-472.72 136.28,-504.95 174,-523 178.96,-525.38 184.27,-527.49 189.66,-529.36"/>
<polygon fill="midnightblue" stroke="midnightblue" points="188.82,-532.77 199.41,-532.48 190.95,-526.1 188.82,-532.77"/>
</g>
<!-- Node12 -->
<g id="node12" class="node">
<title>Node12</title>
<g id="a_node12"><a xlink:href="classDashBoard.html#aba20d2dc977e7ac9dddc343f75f610d3" target="_top" xlink:title=" ">
<polygon fill="white" stroke="black" points="180,-494.5 180,-513.5 312,-513.5 312,-494.5 180,-494.5"/>
<text text-anchor="middle" x="246" y="-501.5" font-family="Helvetica,sans-Serif" font-size="10.00">DashBoard::setFlagString4</text>
</a>
</g>
</g>
<!-- Node1&#45;&gt;Node12 -->
<g id="edge11" class="edge">
<title>Node1&#45;&gt;Node12</title>
<path fill="none" stroke="midnightblue" d="M94.17,-456.52C115.11,-464.61 146.32,-476.26 174,-485 181.44,-487.35 189.38,-489.66 197.16,-491.82"/>
<polygon fill="midnightblue" stroke="midnightblue" points="196.3,-495.21 206.87,-494.46 198.14,-488.46 196.3,-495.21"/>
</g>
<!-- Node13 -->
<g id="node13" class="node">
<title>Node13</title>
<g id="a_node13"><a xlink:href="classDashBoard.html#a37ba9505f1c1cc2ddbd9a5af5bdb5830" target="_top" xlink:title=" ">
<polygon fill="white" stroke="black" points="180,-456.5 180,-475.5 312,-475.5 312,-456.5 180,-456.5"/>
<text text-anchor="middle" x="246" y="-463.5" font-family="Helvetica,sans-Serif" font-size="10.00">DashBoard::setFlagString5</text>
</a>
</g>
</g>
<!-- Node1&#45;&gt;Node13 -->
<g id="edge12" class="edge">
<title>Node1&#45;&gt;Node13</title>
<path fill="none" stroke="midnightblue" d="M138.16,-454.4C148.56,-455.53 159.34,-456.7 169.88,-457.84"/>
<polygon fill="midnightblue" stroke="midnightblue" points="169.57,-461.33 179.89,-458.93 170.33,-454.37 169.57,-461.33"/>
</g>
<!-- Node14 -->
<g id="node14" class="node">
<title>Node14</title>
<g id="a_node14"><a xlink:href="classDashBoard.html#a2677752ef5b3e99326ffdb96692b1e02" target="_top" xlink:title=" ">
<polygon fill="white" stroke="black" points="180,-418.5 180,-437.5 312,-437.5 312,-418.5 180,-418.5"/>
<text text-anchor="middle" x="246" y="-425.5" font-family="Helvetica,sans-Serif" font-size="10.00">DashBoard::setFlagString6</text>
</a>
</g>
</g>
<!-- Node1&#45;&gt;Node14 -->
<g id="edge13" class="edge">
<title>Node1&#45;&gt;Node14</title>
<path fill="none" stroke="midnightblue" d="M138.16,-439.6C148.56,-438.47 159.34,-437.3 169.88,-436.16"/>
<polygon fill="midnightblue" stroke="midnightblue" points="170.33,-439.63 179.89,-435.07 169.57,-432.67 170.33,-439.63"/>
</g>
<!-- Node15 -->
<g id="node15" class="node">
<title>Node15</title>
<g id="a_node15"><a xlink:href="classDashBoard.html#a33b779fc1523382f86b8de6b8b55b740" target="_top" xlink:title=" ">
<polygon fill="white" stroke="black" points="180,-380.5 180,-399.5 312,-399.5 312,-380.5 180,-380.5"/>
<text text-anchor="middle" x="246" y="-387.5" font-family="Helvetica,sans-Serif" font-size="10.00">DashBoard::setFlagString7</text>
</a>
</g>
</g>
<!-- Node1&#45;&gt;Node15 -->
<g id="edge14" class="edge">
<title>Node1&#45;&gt;Node15</title>
<path fill="none" stroke="midnightblue" d="M94.17,-437.48C115.11,-429.39 146.32,-417.74 174,-409 181.44,-406.65 189.38,-404.34 197.16,-402.18"/>
<polygon fill="midnightblue" stroke="midnightblue" points="198.14,-405.54 206.87,-399.54 196.3,-398.79 198.14,-405.54"/>
</g>
<!-- Node16 -->
<g id="node16" class="node">
<title>Node16</title>
<g id="a_node16"><a xlink:href="classDashBoard.html#ae44f9c20dd748ca8ccb6edc228851556" target="_top" xlink:title=" ">
<polygon fill="white" stroke="black" points="180,-342.5 180,-361.5 312,-361.5 312,-342.5 180,-342.5"/>
<text text-anchor="middle" x="246" y="-349.5" font-family="Helvetica,sans-Serif" font-size="10.00">DashBoard::setFlagString8</text>
</a>
</g>
</g>
<!-- Node1&#45;&gt;Node16 -->
<g id="edge15" class="edge">
<title>Node1&#45;&gt;Node16</title>
<path fill="none" stroke="midnightblue" d="M80.37,-437.35C98.17,-421.28 136.28,-389.05 174,-371 178.96,-368.62 184.27,-366.51 189.66,-364.64"/>
<polygon fill="midnightblue" stroke="midnightblue" points="190.95,-367.9 199.41,-361.52 188.82,-361.23 190.95,-367.9"/>
</g>
<!-- Node17 -->
<g id="node17" class="node">
<title>Node17</title>
<g id="a_node17"><a xlink:href="classDashBoard.html#ac9ff30507d39ab61b0c6b4ece201dbf2" target="_top" xlink:title=" ">
<polygon fill="white" stroke="black" points="180,-304.5 180,-323.5 312,-323.5 312,-304.5 180,-304.5"/>
<text text-anchor="middle" x="246" y="-311.5" font-family="Helvetica,sans-Serif" font-size="10.00">DashBoard::setFlagString9</text>
</a>
</g>
</g>
<!-- Node1&#45;&gt;Node17 -->
<g id="edge16" class="edge">
<title>Node1&#45;&gt;Node17</title>
<path fill="none" stroke="midnightblue" d="M75.97,-437.35C90.12,-415.3 127.99,-360.98 174,-333 177.56,-330.84 181.36,-328.92 185.29,-327.21"/>
<polygon fill="midnightblue" stroke="midnightblue" points="186.56,-330.48 194.63,-323.62 184.04,-323.94 186.56,-330.48"/>
</g>
<!-- Node18 -->
<g id="node18" class="node">
<title>Node18</title>
<g id="a_node18"><a xlink:href="classDashBoard.html#ab997329f8fc52164bb46247edb05e1e8" target="_top" xlink:title=" ">
<polygon fill="white" stroke="black" points="174,-266.5 174,-285.5 318,-285.5 318,-266.5 174,-266.5"/>
<text text-anchor="middle" x="246" y="-273.5" font-family="Helvetica,sans-Serif" font-size="10.00">DashBoard::setSensorString1</text>
</a>
</g>
</g>
<!-- Node1&#45;&gt;Node18 -->
<g id="edge17" class="edge">
<title>Node1&#45;&gt;Node18</title>
<path fill="none" stroke="midnightblue" d="M73.71,-437.42C84.66,-410.49 119.46,-333.62 174,-295 176.85,-292.98 179.89,-291.18 183.07,-289.57"/>
<polygon fill="midnightblue" stroke="midnightblue" points="184.54,-292.75 192.28,-285.52 181.72,-286.34 184.54,-292.75"/>
</g>
<!-- Node19 -->
<g id="node19" class="node">
<title>Node19</title>
<g id="a_node19"><a xlink:href="classDashBoard.html#a1352c96e324b386ef05f696f665ff4ec" target="_top" xlink:title=" ">
<polygon fill="white" stroke="black" points="174,-228.5 174,-247.5 318,-247.5 318,-228.5 174,-228.5"/>
<text text-anchor="middle" x="246" y="-235.5" font-family="Helvetica,sans-Serif" font-size="10.00">DashBoard::setSensorString2</text>
</a>
</g>
</g>
<!-- Node1&#45;&gt;Node19 -->
<g id="edge18" class="edge">
<title>Node1&#45;&gt;Node19</title>
<path fill="none" stroke="midnightblue" d="M72.37,-437.35C80.56,-406.08 110.71,-306.7 174,-257 176.31,-255.19 178.77,-253.55 181.34,-252.07"/>
<polygon fill="midnightblue" stroke="midnightblue" points="183.01,-255.15 190.45,-247.6 179.93,-248.86 183.01,-255.15"/>
</g>
<!-- Node20 -->
<g id="node20" class="node">
<title>Node20</title>
<g id="a_node20"><a xlink:href="classDashBoard.html#ab1a127f9edcf98ab1d6483f74d2d9b73" target="_top" xlink:title=" ">
<polygon fill="white" stroke="black" points="174,-190.5 174,-209.5 318,-209.5 318,-190.5 174,-190.5"/>
<text text-anchor="middle" x="246" y="-197.5" font-family="Helvetica,sans-Serif" font-size="10.00">DashBoard::setSensorString3</text>
</a>
</g>
</g>
<!-- Node1&#45;&gt;Node20 -->
<g id="edge19" class="edge">
<title>Node1&#45;&gt;Node20</title>
<path fill="none" stroke="midnightblue" d="M71.41,-437.47C77.09,-402.52 101.59,-280.26 174,-219 176,-217.31 178.14,-215.76 180.38,-214.35"/>
<polygon fill="midnightblue" stroke="midnightblue" points="182.24,-217.33 189.46,-209.57 178.98,-211.14 182.24,-217.33"/>
</g>
<!-- Node21 -->
<g id="node21" class="node">
<title>Node21</title>
<g id="a_node21"><a xlink:href="classDashBoard.html#a09f34353653888ac8cd1b774cf877c83" target="_top" xlink:title=" ">
<polygon fill="white" stroke="black" points="174,-152.5 174,-171.5 318,-171.5 318,-152.5 174,-152.5"/>
<text text-anchor="middle" x="246" y="-159.5" font-family="Helvetica,sans-Serif" font-size="10.00">DashBoard::setSensorString4</text>
</a>
</g>
</g>
<!-- Node1&#45;&gt;Node21 -->
<g id="edge20" class="edge">
<title>Node1&#45;&gt;Node21</title>
<path fill="none" stroke="midnightblue" d="M70.74,-437.28C74.24,-398.56 92.51,-253.89 174,-181 175.74,-179.44 177.59,-178.01 179.53,-176.7"/>
<polygon fill="midnightblue" stroke="midnightblue" points="181.53,-179.59 188.53,-171.64 178.1,-173.49 181.53,-179.59"/>
</g>
<!-- Node22 -->
<g id="node22" class="node">
<title>Node22</title>
<g id="a_node22"><a xlink:href="classDashBoard.html#a59a07eb47f5dca319ba10f8f35fe2e39" target="_top" xlink:title=" ">
<polygon fill="white" stroke="black" points="174,-114.5 174,-133.5 318,-133.5 318,-114.5 174,-114.5"/>
<text text-anchor="middle" x="246" y="-121.5" font-family="Helvetica,sans-Serif" font-size="10.00">DashBoard::setSensorString5</text>
</a>
</g>
</g>
<!-- Node1&#45;&gt;Node22 -->
<g id="edge21" class="edge">
<title>Node1&#45;&gt;Node22</title>
<path fill="none" stroke="midnightblue" d="M70.21,-437.38C71.65,-395.57 83.1,-227.91 174,-143 175.67,-141.44 177.45,-140.01 179.32,-138.69"/>
<polygon fill="midnightblue" stroke="midnightblue" points="181.14,-141.68 188.01,-133.62 177.61,-135.64 181.14,-141.68"/>
</g>
<!-- Node23 -->
<g id="node23" class="node">
<title>Node23</title>
<g id="a_node23"><a xlink:href="classDashBoard.html#a7f5d1a8e684903111aaf5c151e2deda0" target="_top" xlink:title=" ">
<polygon fill="white" stroke="black" points="174,-76.5 174,-95.5 318,-95.5 318,-76.5 174,-76.5"/>
<text text-anchor="middle" x="246" y="-83.5" font-family="Helvetica,sans-Serif" font-size="10.00">DashBoard::setSensorString6</text>
</a>
</g>
</g>
<!-- Node1&#45;&gt;Node23 -->
<g id="edge22" class="edge">
<title>Node1&#45;&gt;Node23</title>
<path fill="none" stroke="midnightblue" d="M69.79,-437.44C69.35,-392.69 73.61,-202.06 174,-105 175.48,-103.57 177.05,-102.24 178.71,-101.02"/>
<polygon fill="midnightblue" stroke="midnightblue" points="180.8,-103.84 187.53,-95.65 177.17,-97.86 180.8,-103.84"/>
</g>
<!-- Node24 -->
<g id="node24" class="node">
<title>Node24</title>
<g id="a_node24"><a xlink:href="classDashBoard.html#a1bfd229e720deea32181f251df55fb42" target="_top" xlink:title=" ">
<polygon fill="white" stroke="black" points="174,-38.5 174,-57.5 318,-57.5 318,-38.5 174,-38.5"/>
<text text-anchor="middle" x="246" y="-45.5" font-family="Helvetica,sans-Serif" font-size="10.00">DashBoard::setSensorString7</text>
</a>
</g>
</g>
<!-- Node1&#45;&gt;Node24 -->
<g id="edge23" class="edge">
<title>Node1&#45;&gt;Node24</title>
<path fill="none" stroke="midnightblue" d="M71.32,-437.41C78.89,-383.86 118.34,-122.34 174,-67 175.46,-65.55 177.02,-64.21 178.65,-62.96"/>
<polygon fill="midnightblue" stroke="midnightblue" points="180.76,-65.78 187.42,-57.54 177.07,-59.82 180.76,-65.78"/>
</g>
<!-- Node25 -->
<g id="node25" class="node">
<title>Node25</title>
<g id="a_node25"><a xlink:href="classDashBoard.html#ad8be6376d57b9d3032b0bcf5022203d1" target="_top" xlink:title=" ">
<polygon fill="white" stroke="black" points="174,-0.5 174,-19.5 318,-19.5 318,-0.5 174,-0.5"/>
<text text-anchor="middle" x="246" y="-7.5" font-family="Helvetica,sans-Serif" font-size="10.00">DashBoard::setSensorString8</text>
</a>
</g>
</g>
<!-- Node1&#45;&gt;Node25 -->
<g id="edge24" class="edge">
<title>Node1&#45;&gt;Node25</title>
<path fill="none" stroke="midnightblue" d="M71.09,-437.21C77.65,-380.12 113.6,-90.48 174,-29 175.41,-27.57 176.91,-26.24 178.49,-25.01"/>
<polygon fill="midnightblue" stroke="midnightblue" points="180.41,-27.93 186.98,-19.62 176.66,-22.02 180.41,-27.93"/>
</g>
</g>
</svg>
