<?xml version="1.0" encoding="UTF-8" standalone="no"?>
<!DOCTYPE svg PUBLIC "-//W3C//DTD SVG 1.1//EN"
 "http://www.w3.org/Graphics/SVG/1.1/DTD/svg11.dtd">
<!-- Generated by graphviz version 2.49.3 (20211027.1534)
 -->
<!-- Title: Arduino::openConnection Pages: 1 -->
<svg width="602pt" height="104pt"
 viewBox="0.00 0.00 602.00 104.00" xmlns="http://www.w3.org/2000/svg" xmlns:xlink="http://www.w3.org/1999/xlink">
<g id="graph0" class="graph" transform="scale(1 1) rotate(0) translate(4 100)">
<title>Arduino::openConnection</title>
<polygon fill="white" stroke="transparent" points="-4,4 -4,-100 598,-100 598,4 -4,4"/>
<!-- Node1 -->
<g id="node1" class="node">
<title>Node1</title>
<g id="a_node1"><a xlink:title=" ">
<polygon fill="#bfbfbf" stroke="black" points="0,-38.5 0,-57.5 124,-57.5 124,-38.5 0,-38.5"/>
<text text-anchor="middle" x="62" y="-45.5" font-family="Helvetica,sans-Serif" font-size="10.00">Arduino::openConnection</text>
</a>
</g>
</g>
<!-- Node2 -->
<g id="node2" class="node">
<title>Node2</title>
<g id="a_node2"><a xlink:href="classArduino.html#a8fcd03a58d456d5e4e1228db8b37ee85" target="_top" xlink:title=" ">
<polygon fill="white" stroke="black" points="160,-38.5 160,-57.5 286,-57.5 286,-38.5 160,-38.5"/>
<text text-anchor="middle" x="223" y="-45.5" font-family="Helvetica,sans-Serif" font-size="10.00">Arduino::closeConnection</text>
</a>
</g>
</g>
<!-- Node1&#45;&gt;Node2 -->
<g id="edge1" class="edge">
<title>Node1&#45;&gt;Node2</title>
<path fill="none" stroke="midnightblue" d="M124.02,-48C132.45,-48 141.18,-48 149.8,-48"/>
<polygon fill="midnightblue" stroke="midnightblue" points="149.83,-51.5 159.83,-48 149.83,-44.5 149.83,-51.5"/>
</g>
<!-- Node6 -->
<g id="node6" class="node">
<title>Node6</title>
<g id="a_node6"><a xlink:href="classArduino.html#a8aef269fd3eec3f6ce534f6bca34bec5" target="_top" xlink:title=" ">
<polygon fill="white" stroke="black" points="168,-76.5 168,-95.5 278,-95.5 278,-76.5 168,-76.5"/>
<text text-anchor="middle" x="223" y="-83.5" font-family="Helvetica,sans-Serif" font-size="10.00">Arduino::initSerialPort</text>
</a>
</g>
</g>
<!-- Node1&#45;&gt;Node6 -->
<g id="edge6" class="edge">
<title>Node1&#45;&gt;Node6</title>
<path fill="none" stroke="midnightblue" d="M103.12,-57.59C124.1,-62.6 149.98,-68.79 172.23,-74.11"/>
<polygon fill="midnightblue" stroke="midnightblue" points="171.63,-77.56 182.17,-76.48 173.25,-70.75 171.63,-77.56"/>
</g>
<!-- Node7 -->
<g id="node7" class="node">
<title>Node7</title>
<g id="a_node7"><a xlink:href="classSerialPort.html#aad156293689e349b3674671f8a8d8048" target="_top" xlink:title=" ">
<polygon fill="white" stroke="black" points="172,-0.5 172,-19.5 274,-19.5 274,-0.5 172,-0.5"/>
<text text-anchor="middle" x="223" y="-7.5" font-family="Helvetica,sans-Serif" font-size="10.00">SerialPort::setParity</text>
</a>
</g>
</g>
<!-- Node1&#45;&gt;Node7 -->
<g id="edge9" class="edge">
<title>Node1&#45;&gt;Node7</title>
<path fill="none" stroke="midnightblue" d="M103.12,-38.41C124.1,-33.4 149.98,-27.21 172.23,-21.89"/>
<polygon fill="midnightblue" stroke="midnightblue" points="173.25,-25.25 182.17,-19.52 171.63,-18.44 173.25,-25.25"/>
</g>
<!-- Node3 -->
<g id="node3" class="node">
<title>Node3</title>
<g id="a_node3"><a xlink:href="classArduino.html#a0b97da51c2c192f994bad0f192d3cae8" target="_top" xlink:title=" ">
<polygon fill="white" stroke="black" points="326,-76.5 326,-95.5 429,-95.5 429,-76.5 326,-76.5"/>
<text text-anchor="middle" x="377.5" y="-83.5" font-family="Helvetica,sans-Serif" font-size="10.00">Arduino::handleError</text>
</a>
</g>
</g>
<!-- Node2&#45;&gt;Node3 -->
<g id="edge2" class="edge">
<title>Node2&#45;&gt;Node3</title>
<path fill="none" stroke="midnightblue" d="M262.48,-57.59C282.52,-62.58 307.2,-68.73 328.48,-74.03"/>
<polygon fill="midnightblue" stroke="midnightblue" points="327.74,-77.46 338.29,-76.48 329.44,-70.67 327.74,-77.46"/>
</g>
<!-- Node5 -->
<g id="node5" class="node">
<title>Node5</title>
<g id="a_node5"><a xlink:href="classArduino.html#aa9571a2c5166e6871f6ee9df9eeaf495" target="_top" xlink:title=" ">
<polygon fill="white" stroke="black" points="322,-38.5 322,-57.5 433,-57.5 433,-38.5 322,-38.5"/>
<text text-anchor="middle" x="377.5" y="-45.5" font-family="Helvetica,sans-Serif" font-size="10.00">Arduino::readyToRead</text>
</a>
</g>
</g>
<!-- Node2&#45;&gt;Node5 -->
<g id="edge4" class="edge">
<title>Node2&#45;&gt;Node5</title>
<path fill="none" stroke="midnightblue" d="M286.03,-48C294.47,-48 303.15,-48 311.64,-48"/>
<polygon fill="midnightblue" stroke="midnightblue" points="311.87,-51.5 321.87,-48 311.87,-44.5 311.87,-51.5"/>
</g>
<!-- Node4 -->
<g id="node4" class="node">
<title>Node4</title>
<g id="a_node4"><a xlink:href="classDashBoard.html#aa096e4f8310f6614db7409cef61d7ccb" target="_top" xlink:title=" ">
<polygon fill="white" stroke="black" points="469,-57.5 469,-76.5 594,-76.5 594,-57.5 469,-57.5"/>
<text text-anchor="middle" x="531.5" y="-64.5" font-family="Helvetica,sans-Serif" font-size="10.00">DashBoard::setSerialStat</text>
</a>
</g>
</g>
<!-- Node3&#45;&gt;Node4 -->
<g id="edge3" class="edge">
<title>Node3&#45;&gt;Node4</title>
<path fill="none" stroke="midnightblue" d="M429.11,-79.67C438.64,-78.48 448.76,-77.22 458.78,-75.97"/>
<polygon fill="midnightblue" stroke="midnightblue" points="459.25,-79.43 468.74,-74.72 458.39,-72.49 459.25,-79.43"/>
</g>
<!-- Node5&#45;&gt;Node4 -->
<g id="edge5" class="edge">
<title>Node5&#45;&gt;Node4</title>
<path fill="none" stroke="midnightblue" d="M433.38,-54.86C441.63,-55.89 450.24,-56.97 458.78,-58.03"/>
<polygon fill="midnightblue" stroke="midnightblue" points="458.39,-61.51 468.74,-59.28 459.26,-54.57 458.39,-61.51"/>
</g>
<!-- Node6&#45;&gt;Node3 -->
<g id="edge7" class="edge">
<title>Node6&#45;&gt;Node3</title>
<path fill="none" stroke="midnightblue" d="M278.2,-86C290.3,-86 303.22,-86 315.58,-86"/>
<polygon fill="midnightblue" stroke="midnightblue" points="315.79,-89.5 325.79,-86 315.79,-82.5 315.79,-89.5"/>
</g>
<!-- Node6&#45;&gt;Node5 -->
<g id="edge8" class="edge">
<title>Node6&#45;&gt;Node5</title>
<path fill="none" stroke="midnightblue" d="M262.48,-76.41C282.52,-71.42 307.2,-65.27 328.48,-59.97"/>
<polygon fill="midnightblue" stroke="midnightblue" points="329.44,-63.33 338.29,-57.52 327.74,-56.54 329.44,-63.33"/>
</g>
</g>
</svg>
