<?xml version="1.0" encoding="UTF-8" standalone="no"?>
<!DOCTYPE svg PUBLIC "-//W3C//DTD SVG 1.1//EN"
 "http://www.w3.org/Graphics/SVG/1.1/DTD/svg11.dtd">
<!-- Generated by graphviz version 2.49.3 (20211027.1534)
 -->
<!-- Title: Apexi::initSerialPort Pages: 1 -->
<svg width="1123pt" height="123pt"
 viewBox="0.00 0.00 1123.00 122.69" xmlns="http://www.w3.org/2000/svg" xmlns:xlink="http://www.w3.org/1999/xlink">
<g id="graph0" class="graph" transform="scale(1 1) rotate(0) translate(4 118.69)">
<title>Apexi::initSerialPort</title>
<polygon fill="white" stroke="transparent" points="-4,4 -4,-118.69 1119,-118.69 1119,4 -4,4"/>
<!-- Node1 -->
<g id="node1" class="node">
<title>Node1</title>
<g id="a_node1"><a xlink:title=" ">
<polygon fill="#bfbfbf" stroke="black" points="1014,-9.5 1014,-28.5 1115,-28.5 1115,-9.5 1014,-9.5"/>
<text text-anchor="middle" x="1064.5" y="-16.5" font-family="Helvetica,sans-Serif" font-size="10.00">Apexi::initSerialPort</text>
</a>
</g>
</g>
<!-- Node2 -->
<g id="node2" class="node">
<title>Node2</title>
<g id="a_node2"><a xlink:href="classApexi.html#a84e5eadc545afab5fbb0aea8b27e17c3" target="_top" xlink:title=" ">
<polygon fill="white" stroke="black" points="863,-47.5 863,-66.5 978,-66.5 978,-47.5 863,-47.5"/>
<text text-anchor="middle" x="920.5" y="-54.5" font-family="Helvetica,sans-Serif" font-size="10.00">Apexi::openConnection</text>
</a>
</g>
</g>
<!-- Node1&#45;&gt;Node2 -->
<g id="edge1" class="edge">
<title>Node1&#45;&gt;Node2</title>
<path fill="none" stroke="midnightblue" d="M1018.01,-31.17C998.37,-36.43 975.73,-42.49 957.32,-47.41"/>
<polygon fill="midnightblue" stroke="midnightblue" points="1018.91,-34.56 1027.67,-28.59 1017.1,-27.79 1018.91,-34.56"/>
</g>
<!-- Node3 -->
<g id="node3" class="node">
<title>Node3</title>
<g id="a_node3"><a xlink:href="classConnect.html#a0d674157f4d7442c535837dadd8cf5f1" target="_top" xlink:title=" ">
<polygon fill="white" stroke="black" points="700,-66.5 700,-85.5 827,-85.5 827,-66.5 700,-66.5"/>
<text text-anchor="middle" x="763.5" y="-73.5" font-family="Helvetica,sans-Serif" font-size="10.00">Connect::openConnection</text>
</a>
</g>
</g>
<!-- Node2&#45;&gt;Node3 -->
<g id="edge2" class="edge">
<title>Node2&#45;&gt;Node3</title>
<path fill="none" stroke="midnightblue" d="M852.49,-65.21C844.05,-66.25 835.44,-67.3 827.08,-68.33"/>
<polygon fill="midnightblue" stroke="midnightblue" points="853.16,-68.66 862.66,-63.97 852.31,-61.71 853.16,-68.66"/>
</g>
<!-- Node4 -->
<g id="node4" class="node">
<title>Node4</title>
<g id="a_node4"><a xlink:href="classApexi.html#af3673b74b8aebe06a2b2f9ed81c23ee4" target="_top" xlink:title=" ">
<polygon fill="white" stroke="black" points="714.5,-28.5 714.5,-47.5 812.5,-47.5 812.5,-28.5 714.5,-28.5"/>
<text text-anchor="middle" x="763.5" y="-35.5" font-family="Helvetica,sans-Serif" font-size="10.00">Apexi::retryconnect</text>
</a>
</g>
</g>
<!-- Node2&#45;&gt;Node4 -->
<g id="edge3" class="edge">
<title>Node2&#45;&gt;Node4</title>
<path fill="none" stroke="midnightblue" d="M852.52,-48.79C839.12,-47.15 825.28,-45.45 812.66,-43.9"/>
<polygon fill="midnightblue" stroke="midnightblue" points="852.31,-52.29 862.66,-50.03 853.16,-45.34 852.31,-52.29"/>
</g>
<!-- Node5 -->
<g id="node5" class="node">
<title>Node5</title>
<g id="a_node5"><a xlink:href="classApexi.html#a4e7b389e8d3e283a12733ab4f8492be3" target="_top" xlink:title=" ">
<polygon fill="white" stroke="black" points="580,-28.5 580,-47.5 664,-47.5 664,-28.5 580,-28.5"/>
<text text-anchor="middle" x="622" y="-35.5" font-family="Helvetica,sans-Serif" font-size="10.00">Apexi::readData</text>
</a>
</g>
</g>
<!-- Node4&#45;&gt;Node5 -->
<g id="edge4" class="edge">
<title>Node4&#45;&gt;Node5</title>
<path fill="none" stroke="midnightblue" d="M704.32,-38C690.81,-38 676.72,-38 664.12,-38"/>
<polygon fill="midnightblue" stroke="midnightblue" points="704.49,-41.5 714.49,-38 704.49,-34.5 704.49,-41.5"/>
</g>
<!-- Node6 -->
<g id="node6" class="node">
<title>Node6</title>
<g id="a_node6"><a xlink:href="classApexi.html#a4cb1314ab5ca5175aa227ed178148f40" target="_top" xlink:title=" ">
<polygon fill="white" stroke="black" points="456,-28.5 456,-47.5 544,-47.5 544,-28.5 456,-28.5"/>
<text text-anchor="middle" x="500" y="-35.5" font-family="Helvetica,sans-Serif" font-size="10.00">Apexi::apexiECU</text>
</a>
</g>
</g>
<!-- Node5&#45;&gt;Node6 -->
<g id="edge5" class="edge">
<title>Node5&#45;&gt;Node6</title>
<path fill="none" stroke="midnightblue" d="M569.5,-38C561,-38 552.27,-38 544.01,-38"/>
<polygon fill="midnightblue" stroke="midnightblue" points="569.7,-41.5 579.7,-38 569.7,-34.5 569.7,-41.5"/>
</g>
<!-- Node7 -->
<g id="node7" class="node">
<title>Node7</title>
<g id="a_node7"><a xlink:href="classApexi.html#abe3bf6800fce8a4c713a08c14474d625" target="_top" xlink:title=" ">
<polygon fill="white" stroke="black" points="318,-28.5 318,-47.5 420,-47.5 420,-28.5 318,-28.5"/>
<text text-anchor="middle" x="369" y="-35.5" font-family="Helvetica,sans-Serif" font-size="10.00">Apexi::readyToRead</text>
</a>
</g>
</g>
<!-- Node6&#45;&gt;Node7 -->
<g id="edge6" class="edge">
<title>Node6&#45;&gt;Node7</title>
<path fill="none" stroke="midnightblue" d="M445.57,-38C437.15,-38 428.46,-38 420.11,-38"/>
<polygon fill="midnightblue" stroke="midnightblue" points="445.69,-41.5 455.69,-38 445.69,-34.5 445.69,-41.5"/>
</g>
<!-- Node7&#45;&gt;Node1 -->
<g id="edge11" class="edge">
<title>Node7&#45;&gt;Node1</title>
<path fill="none" stroke="midnightblue" d="M418.81,-26.17C469.15,-15.01 550.08,0 621,0 764.5,0 764.5,0 764.5,0 852.4,0 954.55,-8.28 1013.83,-13.91"/>
<polygon fill="midnightblue" stroke="midnightblue" points="417.84,-22.8 408.85,-28.41 419.38,-29.63 417.84,-22.8"/>
</g>
<!-- Node8 -->
<g id="node8" class="node">
<title>Node8</title>
<g id="a_node8"><a xlink:href="classApexi.html#a669124cabae4ada616e650e582c068da" target="_top" xlink:title=" ">
<polygon fill="white" stroke="black" points="165,-66.5 165,-85.5 282,-85.5 282,-66.5 165,-66.5"/>
<text text-anchor="middle" x="223.5" y="-73.5" font-family="Helvetica,sans-Serif" font-size="10.00">Apexi::closeConnection</text>
</a>
</g>
</g>
<!-- Node7&#45;&gt;Node8 -->
<g id="edge7" class="edge">
<title>Node7&#45;&gt;Node8</title>
<path fill="none" stroke="midnightblue" d="M322.03,-50.17C302.18,-55.43 279.31,-61.49 260.7,-66.41"/>
<polygon fill="midnightblue" stroke="midnightblue" points="323.02,-53.53 331.79,-47.59 321.23,-46.77 323.02,-53.53"/>
</g>
<!-- Node8&#45;&gt;Node2 -->
<g id="edge9" class="edge">
<title>Node8&#45;&gt;Node2</title>
<path fill="none" stroke="midnightblue" d="M276.91,-87.62C331.93,-98.8 421.1,-114 499,-114 623,-114 623,-114 623,-114 714.06,-114 738.58,-116.76 827,-95 853.64,-88.44 882.63,-75.51 900.92,-66.56"/>
<polygon fill="midnightblue" stroke="midnightblue" points="277.54,-84.18 267.04,-85.59 276.13,-91.04 277.54,-84.18"/>
</g>
<!-- Node8&#45;&gt;Node5 -->
<g id="edge10" class="edge">
<title>Node8&#45;&gt;Node5</title>
<path fill="none" stroke="midnightblue" d="M292.37,-75.54C357.3,-74.27 457.83,-70.08 544,-57 558.57,-54.79 574.41,-51.11 587.91,-47.57"/>
<polygon fill="midnightblue" stroke="midnightblue" points="292.19,-72.05 282.26,-75.73 292.32,-79.05 292.19,-72.05"/>
</g>
<!-- Node9 -->
<g id="node9" class="node">
<title>Node9</title>
<g id="a_node9"><a xlink:href="classConnect.html#abb89a14af2e2b3f6d466c5abfc95cff0" target="_top" xlink:title=" ">
<polygon fill="white" stroke="black" points="0,-66.5 0,-85.5 129,-85.5 129,-66.5 0,-66.5"/>
<text text-anchor="middle" x="64.5" y="-73.5" font-family="Helvetica,sans-Serif" font-size="10.00">Connect::closeConnection</text>
</a>
</g>
</g>
<!-- Node8&#45;&gt;Node9 -->
<g id="edge8" class="edge">
<title>Node8&#45;&gt;Node9</title>
<path fill="none" stroke="midnightblue" d="M154.7,-76C146.22,-76 137.57,-76 129.15,-76"/>
<polygon fill="midnightblue" stroke="midnightblue" points="154.93,-79.5 164.93,-76 154.93,-72.5 154.93,-79.5"/>
</g>
</g>
</svg>
