<?xml version="1.0" encoding="UTF-8" standalone="no"?>
<!DOCTYPE svg PUBLIC "-//W3C//DTD SVG 1.1//EN"
 "http://www.w3.org/Graphics/SVG/1.1/DTD/svg11.dtd">
<!-- Generated by graphviz version 2.49.3 (20211027.1534)
 -->
<!-- Title: DashBoard::accelzChanged Pages: 1 -->
<!--zoomable 78 -->
<svg id="main" version="1.1" xmlns="http://www.w3.org/2000/svg" xmlns:xlink="http://www.w3.org/1999/xlink" xml:space="preserve" onload="init(evt)">
<style type="text/css"><![CDATA[
.edge:hover path { stroke: red; }
.edge:hover polygon { stroke: red; fill: red; }
]]></style>
<script type="text/javascript"><![CDATA[
var edges = document.getElementsByTagName('g');
if (edges && edges.length) {
  for (var i=0;i<edges.length;i++) {
    if (edges[i].id.substr(0,4)=='edge') {
      edges[i].setAttribute('class','edge');
    }
  }
}
]]></script>
        <defs>
                <circle id="rim" cx="0" cy="0" r="7"/>
                <circle id="rim2" cx="0" cy="0" r="3.5"/>
                <g id="zoomPlus">
                        <use xlink:href="#rim" fill="#404040">
                                <set attributeName="fill" to="#808080" begin="zoomplus.mouseover" end="zoomplus.mouseout"/>
                        </use>
                        <path d="M-4,0h8M0,-4v8" fill="none" stroke="white" stroke-width="1.5" pointer-events="none"/>
                </g>
                <g id="zoomMin">
                        <use xlink:href="#rim" fill="#404040">
                                <set attributeName="fill" to="#808080" begin="zoomminus.mouseover" end="zoomminus.mouseout"/>
                        </use>
                        <path d="M-4,0h8" fill="none" stroke="white" stroke-width="1.5" pointer-events="none"/>
                </g>
                <g id="dirArrow">
                        <path fill="none" stroke="white" stroke-width="1.5" d="M0,-3.0v7 M-2.5,-0.5L0,-3.0L2.5,-0.5"/>
                </g>
               <g id="resetDef">
                       <use xlink:href="#rim2" fill="#404040">
                               <set attributeName="fill" to="#808080" begin="reset.mouseover" end="reset.mouseout"/>
                       </use>
               </g>
        </defs>

<script type="text/javascript">
var viewWidth = 790;
var viewHeight = 78;
var sectionId = 'dynsection-6';
</script>
<script xlink:href="svgpan.js"/>
<svg id="graph" class="graph">
<g id="viewport">
<title>DashBoard::accelzChanged</title>
<polygon fill="white" stroke="transparent" points="-4,4 -4,-73.5 786,-73.5 786,4 -4,4"/>
<!-- Node1 -->
<g id="node1" class="node">
<title>Node1</title>
<g id="a_node1"><a xlink:title=" ">
<polygon fill="#bfbfbf" stroke="black" points="647,-22.5 647,-41.5 782,-41.5 782,-22.5 647,-22.5"/>
<text text-anchor="middle" x="714.5" y="-29.5" font-family="Helvetica,sans-Serif" font-size="10.00">DashBoard::accelzChanged</text>
</a>
</g>
</g>
<!-- Node2 -->
<g id="node2" class="node">
<title>Node2</title>
<g id="a_node2"><a xlink:href="classDashBoard.html#ac1082f76daaa67d61cb1917bf62937cf" target="_top" xlink:title=" ">
<polygon fill="white" stroke="black" points="501,-22.5 501,-41.5 611,-41.5 611,-22.5 501,-22.5"/>
<text text-anchor="middle" x="556" y="-29.5" font-family="Helvetica,sans-Serif" font-size="10.00">DashBoard::setaccelz</text>
</a>
</g>
</g>
<!-- Node1&#45;&gt;Node2 -->
<g id="edge1" class="edge">
<title>Node1&#45;&gt;Node2</title>
<path fill="none" stroke="midnightblue" d="M636.66,-32C628.1,-32 619.52,-32 611.33,-32"/>
<polygon fill="midnightblue" stroke="midnightblue" points="636.68,-35.5 646.68,-32 636.68,-28.5 636.68,-35.5"/>
</g>
<!-- Node3 -->
<g id="node3" class="node">
<title>Node3</title>
<g id="a_node3"><a xlink:href="classudpreceiver.html#a725cf4f5cf798fd5baed7eee2e6dd5f2" target="_top" xlink:title=" ">
<polygon fill="white" stroke="black" points="324,-39 324,-69 465,-69 465,-39 324,-39"/>
<text text-anchor="start" x="332" y="-57" font-family="Helvetica,sans-Serif" font-size="10.00">udpreceiver::processPending</text>
<text text-anchor="middle" x="394.5" y="-46" font-family="Helvetica,sans-Serif" font-size="10.00">Datagrams</text>
</a>
</g>
</g>
<!-- Node2&#45;&gt;Node3 -->
<g id="edge2" class="edge">
<title>Node2&#45;&gt;Node3</title>
<path fill="none" stroke="midnightblue" d="M490.53,-40.89C482.19,-42.04 473.63,-43.22 465.21,-44.38"/>
<polygon fill="midnightblue" stroke="midnightblue" points="491.13,-44.34 500.56,-39.51 490.17,-37.41 491.13,-44.34"/>
</g>
<!-- Node6 -->
<g id="node6" class="node">
<title>Node6</title>
<g id="a_node6"><a xlink:href="classSensors.html#af639095cc58e6f8e57aa05a1f87dabf8" target="_top" xlink:title=" ">
<polygon fill="white" stroke="black" points="339,-0.5 339,-19.5 450,-19.5 450,-0.5 339,-0.5"/>
<text text-anchor="middle" x="394.5" y="-7.5" font-family="Helvetica,sans-Serif" font-size="10.00">Sensors::updateAccel</text>
</a>
</g>
</g>
<!-- Node2&#45;&gt;Node6 -->
<g id="edge5" class="edge">
<title>Node2&#45;&gt;Node6</title>
<path fill="none" stroke="midnightblue" d="M490.49,-23.1C477.14,-21.26 463.2,-19.34 450.24,-17.55"/>
<polygon fill="midnightblue" stroke="midnightblue" points="490.17,-26.59 500.56,-24.49 491.13,-19.66 490.17,-26.59"/>
</g>
<!-- Node4 -->
<g id="node4" class="node">
<title>Node4</title>
<g id="a_node4"><a xlink:href="classudpreceiver.html#a2d7852b9e4be87d9a3ce960d8a7eb9aa" target="_top" xlink:title=" ">
<polygon fill="white" stroke="black" points="163,-44.5 163,-63.5 288,-63.5 288,-44.5 163,-44.5"/>
<text text-anchor="middle" x="225.5" y="-51.5" font-family="Helvetica,sans-Serif" font-size="10.00">udpreceiver::startreceiver</text>
</a>
</g>
</g>
<!-- Node3&#45;&gt;Node4 -->
<g id="edge3" class="edge">
<title>Node3&#45;&gt;Node4</title>
<path fill="none" stroke="midnightblue" d="M313.62,-54C305.05,-54 296.42,-54 288.11,-54"/>
<polygon fill="midnightblue" stroke="midnightblue" points="313.64,-57.5 323.64,-54 313.64,-50.5 313.64,-57.5"/>
</g>
<!-- Node5 -->
<g id="node5" class="node">
<title>Node5</title>
<g id="a_node5"><a xlink:href="classConnect.html#a0d674157f4d7442c535837dadd8cf5f1" target="_top" xlink:title=" ">
<polygon fill="white" stroke="black" points="0,-44.5 0,-63.5 127,-63.5 127,-44.5 0,-44.5"/>
<text text-anchor="middle" x="63.5" y="-51.5" font-family="Helvetica,sans-Serif" font-size="10.00">Connect::openConnection</text>
</a>
</g>
</g>
<!-- Node4&#45;&gt;Node5 -->
<g id="edge4" class="edge">
<title>Node4&#45;&gt;Node5</title>
<path fill="none" stroke="midnightblue" d="M152.46,-54C144.05,-54 135.52,-54 127.25,-54"/>
<polygon fill="midnightblue" stroke="midnightblue" points="152.64,-57.5 162.64,-54 152.64,-50.5 152.64,-57.5"/>
</g>
<!-- Node7 -->
<g id="node7" class="node">
<title>Node7</title>
<g id="a_node7"><a xlink:href="classSensors.html#af458816f0cb92c82d585fa8d0d2ec291" target="_top" xlink:title=" ">
<polygon fill="white" stroke="black" points="184.5,-0.5 184.5,-19.5 266.5,-19.5 266.5,-0.5 184.5,-0.5"/>
<text text-anchor="middle" x="225.5" y="-7.5" font-family="Helvetica,sans-Serif" font-size="10.00">Sensors::Accel</text>
</a>
</g>
</g>
<!-- Node6&#45;&gt;Node7 -->
<g id="edge6" class="edge">
<title>Node6&#45;&gt;Node7</title>
<path fill="none" stroke="midnightblue" d="M328.72,-10C307.84,-10 285.32,-10 266.74,-10"/>
<polygon fill="midnightblue" stroke="midnightblue" points="328.82,-13.5 338.82,-10 328.82,-6.5 328.82,-13.5"/>
</g>
</g>
</svg>
        <g id="navigator" transform="translate(0 0)" fill="#404254">
                <rect fill="#f2f5e9" fill-opacity="0.5" stroke="#606060" stroke-width=".5" x="0" y="0" width="60" height="60"/>
                <use id="zoomplus" xlink:href="#zoomPlus" x="17" y="9" onmousedown="handleZoom(evt,'in')"/>
                <use id="zoomminus" xlink:href="#zoomMin" x="42" y="9" onmousedown="handleZoom(evt,'out')"/>
                <use id="reset" xlink:href="#resetDef" x="30" y="36" onmousedown="handleReset()"/>
                <g id="arrowUp" xlink:href="#dirArrow" transform="translate(30 24)" onmousedown="handlePan(0,-1)">
                  <use xlink:href="#rim" fill="#404040">
                        <set attributeName="fill" to="#808080" begin="arrowUp.mouseover" end="arrowUp.mouseout"/>
                  </use>
                  <path fill="none" stroke="white" stroke-width="1.5" d="M0,-3.0v7 M-2.5,-0.5L0,-3.0L2.5,-0.5"/>
                </g>
                <g id="arrowRight" xlink:href="#dirArrow" transform="rotate(90) translate(36 -43)" onmousedown="handlePan(1,0)">
                  <use xlink:href="#rim" fill="#404040">
                        <set attributeName="fill" to="#808080" begin="arrowRight.mouseover" end="arrowRight.mouseout"/>
                  </use>
                  <path fill="none" stroke="white" stroke-width="1.5" d="M0,-3.0v7 M-2.5,-0.5L0,-3.0L2.5,-0.5"/>
                </g>
                <g id="arrowDown" xlink:href="#dirArrow" transform="rotate(180) translate(-30 -48)" onmousedown="handlePan(0,1)">
                  <use xlink:href="#rim" fill="#404040">
                        <set attributeName="fill" to="#808080" begin="arrowDown.mouseover" end="arrowDown.mouseout"/>
                  </use>
                  <path fill="none" stroke="white" stroke-width="1.5" d="M0,-3.0v7 M-2.5,-0.5L0,-3.0L2.5,-0.5"/>
                </g>
                <g id="arrowLeft" xlink:href="#dirArrow" transform="rotate(270) translate(-36 17)" onmousedown="handlePan(-1,0)">
                  <use xlink:href="#rim" fill="#404040">
                        <set attributeName="fill" to="#808080" begin="arrowLeft.mouseover" end="arrowLeft.mouseout"/>
                  </use>
                  <path fill="none" stroke="white" stroke-width="1.5" d="M0,-3.0v7 M-2.5,-0.5L0,-3.0L2.5,-0.5"/>
                </g>
        </g>
        <svg viewBox="0 0 15 15" width="100%" height="30px" preserveAspectRatio="xMaxYMin meet">
         <g id="arrow_out" transform="scale(0.3 0.3)">
          <a xlink:href="classDashBoard_a5600cb96f1fc9789a8a14a509d68bf2c_icgraph_org.svg" target="_base">
           <rect id="button" ry="5" rx="5" y="6" x="6" height="38" width="38"
                fill="#f2f5e9" fill-opacity="0.5" stroke="#606060" stroke-width="1.0"/>
           <path id="arrow"
             d="M 11.500037,31.436501 C 11.940474,20.09759 22.043105,11.32322 32.158766,21.979434 L 37.068811,17.246167 C 37.068811,17.246167 37.088388,32 37.088388,32 L 22.160133,31.978069 C 22.160133,31.978069 26.997745,27.140456 26.997745,27.140456 C 18.528582,18.264221 13.291696,25.230495 11.500037,31.436501 z"
             style="fill:#404040;"/>
          </a>
         </g>
        </svg>
</svg>
