<?xml version="1.0" encoding="UTF-8" standalone="no"?>
<!DOCTYPE svg PUBLIC "-//W3C//DTD SVG 1.1//EN"
 "http://www.w3.org/Graphics/SVG/1.1/DTD/svg11.dtd">
<!-- Generated by graphviz version 2.49.3 (20211027.1534)
 -->
<!-- Title: AppSettings::writeWarnGearSettings Pages: 1 -->
<!--zoomable 484 -->
<svg id="main" version="1.1" xmlns="http://www.w3.org/2000/svg" xmlns:xlink="http://www.w3.org/1999/xlink" xml:space="preserve" onload="init(evt)">
<style type="text/css"><![CDATA[
.edge:hover path { stroke: red; }
.edge:hover polygon { stroke: red; fill: red; }
]]></style>
<script type="text/javascript"><![CDATA[
var edges = document.getElementsByTagName('g');
if (edges && edges.length) {
  for (var i=0;i<edges.length;i++) {
    if (edges[i].id.substr(0,4)=='edge') {
      edges[i].setAttribute('class','edge');
    }
  }
}
]]></script>
        <defs>
                <circle id="rim" cx="0" cy="0" r="7"/>
                <circle id="rim2" cx="0" cy="0" r="3.5"/>
                <g id="zoomPlus">
                        <use xlink:href="#rim" fill="#404040">
                                <set attributeName="fill" to="#808080" begin="zoomplus.mouseover" end="zoomplus.mouseout"/>
                        </use>
                        <path d="M-4,0h8M0,-4v8" fill="none" stroke="white" stroke-width="1.5" pointer-events="none"/>
                </g>
                <g id="zoomMin">
                        <use xlink:href="#rim" fill="#404040">
                                <set attributeName="fill" to="#808080" begin="zoomminus.mouseover" end="zoomminus.mouseout"/>
                        </use>
                        <path d="M-4,0h8" fill="none" stroke="white" stroke-width="1.5" pointer-events="none"/>
                </g>
                <g id="dirArrow">
                        <path fill="none" stroke="white" stroke-width="1.5" d="M0,-3.0v7 M-2.5,-0.5L0,-3.0L2.5,-0.5"/>
                </g>
               <g id="resetDef">
                       <use xlink:href="#rim2" fill="#404040">
                               <set attributeName="fill" to="#808080" begin="reset.mouseover" end="reset.mouseout"/>
                       </use>
               </g>
        </defs>

<script type="text/javascript">
var viewWidth = 344;
var viewHeight = 484;
var sectionId = 'dynsection-35';
</script>
<script xlink:href="svgpan.js"/>
<svg id="graph" class="graph">
<g id="viewport">
<title>AppSettings::writeWarnGearSettings</title>
<polygon fill="white" stroke="transparent" points="-4,4 -4,-480 340,-480 340,4 -4,4"/>
<!-- Node1 -->
<g id="node1" class="node">
<title>Node1</title>
<g id="a_node1"><a xlink:title=" ">
<polygon fill="#bfbfbf" stroke="black" points="0,-223 0,-253 139,-253 139,-223 0,-223"/>
<text text-anchor="start" x="8" y="-241" font-family="Helvetica,sans-Serif" font-size="10.00">AppSettings::writeWarnGear</text>
<text text-anchor="middle" x="69.5" y="-230" font-family="Helvetica,sans-Serif" font-size="10.00">Settings</text>
</a>
</g>
</g>
<!-- Node2 -->
<g id="node2" class="node">
<title>Node2</title>
<g id="a_node2"><a xlink:href="classDashBoard.html#a0b8631adee9bafae815ad563ff70af82" target="_top" xlink:title=" ">
<polygon fill="white" stroke="black" points="191.5,-456.5 191.5,-475.5 319.5,-475.5 319.5,-456.5 191.5,-456.5"/>
<text text-anchor="middle" x="255.5" y="-463.5" font-family="Helvetica,sans-Serif" font-size="10.00">DashBoard::setboostwarn</text>
</a>
</g>
</g>
<!-- Node1&#45;&gt;Node2 -->
<g id="edge1" class="edge">
<title>Node1&#45;&gt;Node2</title>
<path fill="none" stroke="midnightblue" d="M73.47,-253.14C81.9,-291.88 109.7,-395.17 175,-447 177.29,-448.82 179.73,-450.47 182.28,-451.96"/>
<polygon fill="midnightblue" stroke="midnightblue" points="180.79,-455.13 191.3,-456.48 183.92,-448.87 180.79,-455.13"/>
</g>
<!-- Node3 -->
<g id="node3" class="node">
<title>Node3</title>
<g id="a_node3"><a xlink:href="classDashBoard.html#a6c11585c53c99c3f5da21fd1201907e9" target="_top" xlink:title=" ">
<polygon fill="white" stroke="black" points="193,-418.5 193,-437.5 318,-437.5 318,-418.5 193,-418.5"/>
<text text-anchor="middle" x="255.5" y="-425.5" font-family="Helvetica,sans-Serif" font-size="10.00">DashBoard::setgearcalc1</text>
</a>
</g>
</g>
<!-- Node1&#45;&gt;Node3 -->
<g id="edge2" class="edge">
<title>Node1&#45;&gt;Node3</title>
<path fill="none" stroke="midnightblue" d="M75.23,-253.1C86.59,-286.73 118.71,-368.09 175,-409 177.7,-410.96 180.57,-412.72 183.56,-414.3"/>
<polygon fill="midnightblue" stroke="midnightblue" points="182.29,-417.57 192.84,-418.53 185.19,-411.2 182.29,-417.57"/>
</g>
<!-- Node4 -->
<g id="node4" class="node">
<title>Node4</title>
<g id="a_node4"><a xlink:href="classDashBoard.html#acf253b41e7f3d898351df8e1885e2ccd" target="_top" xlink:title=" ">
<polygon fill="white" stroke="black" points="193,-380.5 193,-399.5 318,-399.5 318,-380.5 193,-380.5"/>
<text text-anchor="middle" x="255.5" y="-387.5" font-family="Helvetica,sans-Serif" font-size="10.00">DashBoard::setgearcalc2</text>
</a>
</g>
</g>
<!-- Node1&#45;&gt;Node4 -->
<g id="edge3" class="edge">
<title>Node1&#45;&gt;Node4</title>
<path fill="none" stroke="midnightblue" d="M77.93,-253.08C92.48,-280.98 127.52,-340.59 175,-371 178.33,-373.13 181.88,-375.03 185.56,-376.71"/>
<polygon fill="midnightblue" stroke="midnightblue" points="184.35,-380 194.93,-380.47 186.95,-373.5 184.35,-380"/>
</g>
<!-- Node5 -->
<g id="node5" class="node">
<title>Node5</title>
<g id="a_node5"><a xlink:href="classDashBoard.html#aa5abb4e9e8b652f02a19871349c87564" target="_top" xlink:title=" ">
<polygon fill="white" stroke="black" points="193,-342.5 193,-361.5 318,-361.5 318,-342.5 193,-342.5"/>
<text text-anchor="middle" x="255.5" y="-349.5" font-family="Helvetica,sans-Serif" font-size="10.00">DashBoard::setgearcalc3</text>
</a>
</g>
</g>
<!-- Node1&#45;&gt;Node5 -->
<g id="edge4" class="edge">
<title>Node1&#45;&gt;Node5</title>
<path fill="none" stroke="midnightblue" d="M82.64,-253.05C100.57,-274.22 136.2,-312.49 175,-333 179.32,-335.28 183.92,-337.3 188.64,-339.07"/>
<polygon fill="midnightblue" stroke="midnightblue" points="187.86,-342.5 198.45,-342.39 190.1,-335.87 187.86,-342.5"/>
</g>
<!-- Node6 -->
<g id="node6" class="node">
<title>Node6</title>
<g id="a_node6"><a xlink:href="classDashBoard.html#a3968aeb6f512ae3f70a5b434e3fde67f" target="_top" xlink:title=" ">
<polygon fill="white" stroke="black" points="193,-304.5 193,-323.5 318,-323.5 318,-304.5 193,-304.5"/>
<text text-anchor="middle" x="255.5" y="-311.5" font-family="Helvetica,sans-Serif" font-size="10.00">DashBoard::setgearcalc4</text>
</a>
</g>
</g>
<!-- Node1&#45;&gt;Node6 -->
<g id="edge5" class="edge">
<title>Node1&#45;&gt;Node6</title>
<path fill="none" stroke="midnightblue" d="M94.12,-253.25C114.75,-265.98 145.87,-283.8 175,-295 181.65,-297.56 188.74,-299.84 195.86,-301.86"/>
<polygon fill="midnightblue" stroke="midnightblue" points="194.96,-305.24 205.53,-304.45 196.78,-298.48 194.96,-305.24"/>
</g>
<!-- Node7 -->
<g id="node7" class="node">
<title>Node7</title>
<g id="a_node7"><a xlink:href="classDashBoard.html#a07c539d4cf95ddf8b2820a760a747478" target="_top" xlink:title=" ">
<polygon fill="white" stroke="black" points="193,-266.5 193,-285.5 318,-285.5 318,-266.5 193,-266.5"/>
<text text-anchor="middle" x="255.5" y="-273.5" font-family="Helvetica,sans-Serif" font-size="10.00">DashBoard::setgearcalc5</text>
</a>
</g>
</g>
<!-- Node1&#45;&gt;Node7 -->
<g id="edge6" class="edge">
<title>Node1&#45;&gt;Node7</title>
<path fill="none" stroke="midnightblue" d="M139.01,-252.15C158.59,-256.19 179.68,-260.55 198.42,-264.42"/>
<polygon fill="midnightblue" stroke="midnightblue" points="197.77,-267.86 208.27,-266.45 199.18,-261 197.77,-267.86"/>
</g>
<!-- Node8 -->
<g id="node8" class="node">
<title>Node8</title>
<g id="a_node8"><a xlink:href="classDashBoard.html#abd03cd29f3de5bae8db390d7178ffc58" target="_top" xlink:title=" ">
<polygon fill="white" stroke="black" points="193,-228.5 193,-247.5 318,-247.5 318,-228.5 193,-228.5"/>
<text text-anchor="middle" x="255.5" y="-235.5" font-family="Helvetica,sans-Serif" font-size="10.00">DashBoard::setgearcalc6</text>
</a>
</g>
</g>
<!-- Node1&#45;&gt;Node8 -->
<g id="edge7" class="edge">
<title>Node1&#45;&gt;Node8</title>
<path fill="none" stroke="midnightblue" d="M139.01,-238C153.24,-238 168.27,-238 182.61,-238"/>
<polygon fill="midnightblue" stroke="midnightblue" points="182.91,-241.5 192.91,-238 182.91,-234.5 182.91,-241.5"/>
</g>
<!-- Node9 -->
<g id="node9" class="node">
<title>Node9</title>
<g id="a_node9"><a xlink:href="classDashBoard.html#a3eb326cf56cd44d814eb2164be74eafe" target="_top" xlink:title=" ">
<polygon fill="white" stroke="black" points="175,-190.5 175,-209.5 336,-209.5 336,-190.5 175,-190.5"/>
<text text-anchor="middle" x="255.5" y="-197.5" font-family="Helvetica,sans-Serif" font-size="10.00">DashBoard::setgearcalcactivation</text>
</a>
</g>
</g>
<!-- Node1&#45;&gt;Node9 -->
<g id="edge8" class="edge">
<title>Node1&#45;&gt;Node9</title>
<path fill="none" stroke="midnightblue" d="M139.01,-223.85C158.59,-219.81 179.68,-215.45 198.42,-211.58"/>
<polygon fill="midnightblue" stroke="midnightblue" points="199.18,-215 208.27,-209.55 197.77,-208.14 199.18,-215"/>
</g>
<!-- Node10 -->
<g id="node10" class="node">
<title>Node10</title>
<g id="a_node10"><a xlink:href="classDashBoard.html#a810223c01c0841d352de19c81d3ee874" target="_top" xlink:title=" ">
<polygon fill="white" stroke="black" points="190.5,-152.5 190.5,-171.5 320.5,-171.5 320.5,-152.5 190.5,-152.5"/>
<text text-anchor="middle" x="255.5" y="-159.5" font-family="Helvetica,sans-Serif" font-size="10.00">DashBoard::setknockwarn</text>
</a>
</g>
</g>
<!-- Node1&#45;&gt;Node10 -->
<g id="edge9" class="edge">
<title>Node1&#45;&gt;Node10</title>
<path fill="none" stroke="midnightblue" d="M94.12,-222.75C114.75,-210.02 145.87,-192.2 175,-181 181.65,-178.44 188.74,-176.16 195.86,-174.14"/>
<polygon fill="midnightblue" stroke="midnightblue" points="196.78,-177.52 205.53,-171.55 194.96,-170.76 196.78,-177.52"/>
</g>
<!-- Node11 -->
<g id="node11" class="node">
<title>Node11</title>
<g id="a_node11"><a xlink:href="classDashBoard.html#a507aa2a009384304b8daa3322fc0122f" target="_top" xlink:title=" ">
<polygon fill="white" stroke="black" points="180,-114.5 180,-133.5 331,-133.5 331,-114.5 180,-114.5"/>
<text text-anchor="middle" x="255.5" y="-121.5" font-family="Helvetica,sans-Serif" font-size="10.00">DashBoard::setLambdamultiply</text>
</a>
</g>
</g>
<!-- Node1&#45;&gt;Node11 -->
<g id="edge10" class="edge">
<title>Node1&#45;&gt;Node11</title>
<path fill="none" stroke="midnightblue" d="M82.64,-222.95C100.57,-201.78 136.2,-163.51 175,-143 179.32,-140.72 183.92,-138.7 188.64,-136.93"/>
<polygon fill="midnightblue" stroke="midnightblue" points="190.1,-140.13 198.45,-133.61 187.86,-133.5 190.1,-140.13"/>
</g>
<!-- Node12 -->
<g id="node12" class="node">
<title>Node12</title>
<g id="a_node12"><a xlink:href="classDashBoard.html#aba80b34eccf9d061634a43fb4e6cf26e" target="_top" xlink:title=" ">
<polygon fill="white" stroke="black" points="195.5,-76.5 195.5,-95.5 315.5,-95.5 315.5,-76.5 195.5,-76.5"/>
<text text-anchor="middle" x="255.5" y="-83.5" font-family="Helvetica,sans-Serif" font-size="10.00">DashBoard::setrpmwarn</text>
</a>
</g>
</g>
<!-- Node1&#45;&gt;Node12 -->
<g id="edge11" class="edge">
<title>Node1&#45;&gt;Node12</title>
<path fill="none" stroke="midnightblue" d="M77.93,-222.92C92.48,-195.02 127.52,-135.41 175,-105 178.4,-102.82 182.02,-100.9 185.78,-99.19"/>
<polygon fill="midnightblue" stroke="midnightblue" points="187.35,-102.33 195.35,-95.38 184.76,-95.83 187.35,-102.33"/>
</g>
<!-- Node13 -->
<g id="node13" class="node">
<title>Node13</title>
<g id="a_node13"><a xlink:href="classAppSettings.html#a9fe37794c01f77fc192cf961dc1443db" target="_top" xlink:title=" ">
<polygon fill="white" stroke="black" points="199,-38.5 199,-57.5 312,-57.5 312,-38.5 199,-38.5"/>
<text text-anchor="middle" x="255.5" y="-45.5" font-family="Helvetica,sans-Serif" font-size="10.00">AppSettings::setValue</text>
</a>
</g>
</g>
<!-- Node1&#45;&gt;Node13 -->
<g id="edge12" class="edge">
<title>Node1&#45;&gt;Node13</title>
<path fill="none" stroke="midnightblue" d="M75.23,-222.9C86.59,-189.27 118.71,-107.91 175,-67 179.45,-63.77 184.37,-61.08 189.52,-58.84"/>
<polygon fill="midnightblue" stroke="midnightblue" points="190.86,-62.08 198.99,-55.29 188.4,-55.52 190.86,-62.08"/>
</g>
<!-- Node14 -->
<g id="node14" class="node">
<title>Node14</title>
<g id="a_node14"><a xlink:href="classDashBoard.html#ace54443a345cc34cdc5e8035906ac539" target="_top" xlink:title=" ">
<polygon fill="white" stroke="black" points="191.5,-0.5 191.5,-19.5 319.5,-19.5 319.5,-0.5 191.5,-0.5"/>
<text text-anchor="middle" x="255.5" y="-7.5" font-family="Helvetica,sans-Serif" font-size="10.00">DashBoard::setwaterwarn</text>
</a>
</g>
</g>
<!-- Node1&#45;&gt;Node14 -->
<g id="edge13" class="edge">
<title>Node1&#45;&gt;Node14</title>
<path fill="none" stroke="midnightblue" d="M73.47,-222.86C81.9,-184.12 109.7,-80.83 175,-29 177.29,-27.18 179.73,-25.53 182.28,-24.04"/>
<polygon fill="midnightblue" stroke="midnightblue" points="183.92,-27.13 191.3,-19.52 180.79,-20.87 183.92,-27.13"/>
</g>
</g>
</svg>
        <g id="navigator" transform="translate(0 0)" fill="#404254">
                <rect fill="#f2f5e9" fill-opacity="0.5" stroke="#606060" stroke-width=".5" x="0" y="0" width="60" height="60"/>
                <use id="zoomplus" xlink:href="#zoomPlus" x="17" y="9" onmousedown="handleZoom(evt,'in')"/>
                <use id="zoomminus" xlink:href="#zoomMin" x="42" y="9" onmousedown="handleZoom(evt,'out')"/>
                <use id="reset" xlink:href="#resetDef" x="30" y="36" onmousedown="handleReset()"/>
                <g id="arrowUp" xlink:href="#dirArrow" transform="translate(30 24)" onmousedown="handlePan(0,-1)">
                  <use xlink:href="#rim" fill="#404040">
                        <set attributeName="fill" to="#808080" begin="arrowUp.mouseover" end="arrowUp.mouseout"/>
                  </use>
                  <path fill="none" stroke="white" stroke-width="1.5" d="M0,-3.0v7 M-2.5,-0.5L0,-3.0L2.5,-0.5"/>
                </g>
                <g id="arrowRight" xlink:href="#dirArrow" transform="rotate(90) translate(36 -43)" onmousedown="handlePan(1,0)">
                  <use xlink:href="#rim" fill="#404040">
                        <set attributeName="fill" to="#808080" begin="arrowRight.mouseover" end="arrowRight.mouseout"/>
                  </use>
                  <path fill="none" stroke="white" stroke-width="1.5" d="M0,-3.0v7 M-2.5,-0.5L0,-3.0L2.5,-0.5"/>
                </g>
                <g id="arrowDown" xlink:href="#dirArrow" transform="rotate(180) translate(-30 -48)" onmousedown="handlePan(0,1)">
                  <use xlink:href="#rim" fill="#404040">
                        <set attributeName="fill" to="#808080" begin="arrowDown.mouseover" end="arrowDown.mouseout"/>
                  </use>
                  <path fill="none" stroke="white" stroke-width="1.5" d="M0,-3.0v7 M-2.5,-0.5L0,-3.0L2.5,-0.5"/>
                </g>
                <g id="arrowLeft" xlink:href="#dirArrow" transform="rotate(270) translate(-36 17)" onmousedown="handlePan(-1,0)">
                  <use xlink:href="#rim" fill="#404040">
                        <set attributeName="fill" to="#808080" begin="arrowLeft.mouseover" end="arrowLeft.mouseout"/>
                  </use>
                  <path fill="none" stroke="white" stroke-width="1.5" d="M0,-3.0v7 M-2.5,-0.5L0,-3.0L2.5,-0.5"/>
                </g>
        </g>
        <svg viewBox="0 0 15 15" width="100%" height="30px" preserveAspectRatio="xMaxYMin meet">
         <g id="arrow_out" transform="scale(0.3 0.3)">
          <a xlink:href="classAppSettings_aa54c28533522b9d55c514f195105a22f_cgraph_org.svg" target="_base">
           <rect id="button" ry="5" rx="5" y="6" x="6" height="38" width="38"
                fill="#f2f5e9" fill-opacity="0.5" stroke="#606060" stroke-width="1.0"/>
           <path id="arrow"
             d="M 11.500037,31.436501 C 11.940474,20.09759 22.043105,11.32322 32.158766,21.979434 L 37.068811,17.246167 C 37.068811,17.246167 37.088388,32 37.088388,32 L 22.160133,31.978069 C 22.160133,31.978069 26.997745,27.140456 26.997745,27.140456 C 18.528582,18.264221 13.291696,25.230495 11.500037,31.436501 z"
             style="fill:#404040;"/>
          </a>
         </g>
        </svg>
</svg>
