<?xml version="1.0" encoding="UTF-8" standalone="no"?>
<!DOCTYPE svg PUBLIC "-//W3C//DTD SVG 1.1//EN"
 "http://www.w3.org/Graphics/SVG/1.1/DTD/svg11.dtd">
<!-- Generated by graphviz version 2.49.3 (20211027.1534)
 -->
<!-- Title: DashBoard::setTrip Pages: 1 -->
<!--zoomable 116 -->
<svg id="main" version="1.1" xmlns="http://www.w3.org/2000/svg" xmlns:xlink="http://www.w3.org/1999/xlink" xml:space="preserve" onload="init(evt)">
<style type="text/css"><![CDATA[
.edge:hover path { stroke: red; }
.edge:hover polygon { stroke: red; fill: red; }
]]></style>
<script type="text/javascript"><![CDATA[
var edges = document.getElementsByTagName('g');
if (edges && edges.length) {
  for (var i=0;i<edges.length;i++) {
    if (edges[i].id.substr(0,4)=='edge') {
      edges[i].setAttribute('class','edge');
    }
  }
}
]]></script>
        <defs>
                <circle id="rim" cx="0" cy="0" r="7"/>
                <circle id="rim2" cx="0" cy="0" r="3.5"/>
                <g id="zoomPlus">
                        <use xlink:href="#rim" fill="#404040">
                                <set attributeName="fill" to="#808080" begin="zoomplus.mouseover" end="zoomplus.mouseout"/>
                        </use>
                        <path d="M-4,0h8M0,-4v8" fill="none" stroke="white" stroke-width="1.5" pointer-events="none"/>
                </g>
                <g id="zoomMin">
                        <use xlink:href="#rim" fill="#404040">
                                <set attributeName="fill" to="#808080" begin="zoomminus.mouseover" end="zoomminus.mouseout"/>
                        </use>
                        <path d="M-4,0h8" fill="none" stroke="white" stroke-width="1.5" pointer-events="none"/>
                </g>
                <g id="dirArrow">
                        <path fill="none" stroke="white" stroke-width="1.5" d="M0,-3.0v7 M-2.5,-0.5L0,-3.0L2.5,-0.5"/>
                </g>
               <g id="resetDef">
                       <use xlink:href="#rim2" fill="#404040">
                               <set attributeName="fill" to="#808080" begin="reset.mouseover" end="reset.mouseout"/>
                       </use>
               </g>
        </defs>

<script type="text/javascript">
var viewWidth = 608;
var viewHeight = 116;
var sectionId = 'dynsection-892';
</script>
<script xlink:href="svgpan.js"/>
<svg id="graph" class="graph">
<g id="viewport">
<title>DashBoard::setTrip</title>
<polygon fill="white" stroke="transparent" points="-4,4 -4,-112 604,-112 604,4 -4,4"/>
<!-- Node1 -->
<g id="node1" class="node">
<title>Node1</title>
<g id="a_node1"><a xlink:title=" ">
<polygon fill="#bfbfbf" stroke="black" points="501,-44.5 501,-63.5 600,-63.5 600,-44.5 501,-44.5"/>
<text text-anchor="middle" x="550.5" y="-51.5" font-family="Helvetica,sans-Serif" font-size="10.00">DashBoard::setTrip</text>
</a>
</g>
</g>
<!-- Node2 -->
<g id="node2" class="node">
<title>Node2</title>
<g id="a_node2"><a xlink:href="classcalculations.html#a3153c50c226f6960fdcf1daa998eba35" target="_top" xlink:title=" ">
<polygon fill="white" stroke="black" points="338.5,-88.5 338.5,-107.5 450.5,-107.5 450.5,-88.5 338.5,-88.5"/>
<text text-anchor="middle" x="394.5" y="-95.5" font-family="Helvetica,sans-Serif" font-size="10.00">calculations::calculate</text>
</a>
</g>
</g>
<!-- Node1&#45;&gt;Node2 -->
<g id="edge1" class="edge">
<title>Node1&#45;&gt;Node2</title>
<path fill="none" stroke="midnightblue" d="M506.31,-66.34C481.78,-73.35 451.54,-81.99 428.85,-88.47"/>
<polygon fill="midnightblue" stroke="midnightblue" points="507.43,-69.66 516.08,-63.55 505.51,-62.93 507.43,-69.66"/>
</g>
<!-- Node5 -->
<g id="node5" class="node">
<title>Node5</title>
<g id="a_node5"><a xlink:href="classudpreceiver.html#a725cf4f5cf798fd5baed7eee2e6dd5f2" target="_top" xlink:title=" ">
<polygon fill="white" stroke="black" points="324,-39 324,-69 465,-69 465,-39 324,-39"/>
<text text-anchor="start" x="332" y="-57" font-family="Helvetica,sans-Serif" font-size="10.00">udpreceiver::processPending</text>
<text text-anchor="middle" x="394.5" y="-46" font-family="Helvetica,sans-Serif" font-size="10.00">Datagrams</text>
</a>
</g>
</g>
<!-- Node1&#45;&gt;Node5 -->
<g id="edge4" class="edge">
<title>Node1&#45;&gt;Node5</title>
<path fill="none" stroke="midnightblue" d="M490.71,-54C482.3,-54 473.59,-54 465.01,-54"/>
<polygon fill="midnightblue" stroke="midnightblue" points="490.77,-57.5 500.77,-54 490.77,-50.5 490.77,-57.5"/>
</g>
<!-- Node8 -->
<g id="node8" class="node">
<title>Node8</title>
<g id="a_node8"><a xlink:href="classcalculations.html#a525161538875c2fc72483e364ee923dc" target="_top" xlink:title=" ">
<polygon fill="white" stroke="black" points="340.5,-0.5 340.5,-19.5 448.5,-19.5 448.5,-0.5 340.5,-0.5"/>
<text text-anchor="middle" x="394.5" y="-7.5" font-family="Helvetica,sans-Serif" font-size="10.00">calculations::resettrip</text>
</a>
</g>
</g>
<!-- Node1&#45;&gt;Node8 -->
<g id="edge7" class="edge">
<title>Node1&#45;&gt;Node8</title>
<path fill="none" stroke="midnightblue" d="M508.19,-41.59C494.46,-37.52 479.09,-33.01 465,-29 453.93,-25.85 441.84,-22.51 430.9,-19.52"/>
<polygon fill="midnightblue" stroke="midnightblue" points="507.26,-44.97 517.85,-44.47 509.26,-38.26 507.26,-44.97"/>
</g>
<!-- Node3 -->
<g id="node3" class="node">
<title>Node3</title>
<g id="a_node3"><a xlink:href="classcalculations.html#a62003ff4c935b799de90cef1cce4b7b7" target="_top" xlink:title=" ">
<polygon fill="white" stroke="black" points="179.5,-88.5 179.5,-107.5 271.5,-107.5 271.5,-88.5 179.5,-88.5"/>
<text text-anchor="middle" x="225.5" y="-95.5" font-family="Helvetica,sans-Serif" font-size="10.00">calculations::start</text>
</a>
</g>
</g>
<!-- Node2&#45;&gt;Node3 -->
<g id="edge2" class="edge">
<title>Node2&#45;&gt;Node3</title>
<path fill="none" stroke="midnightblue" d="M328.28,-98C309.31,-98 289.01,-98 271.57,-98"/>
<polygon fill="midnightblue" stroke="midnightblue" points="328.36,-101.5 338.36,-98 328.36,-94.5 328.36,-101.5"/>
</g>
<!-- Node4 -->
<g id="node4" class="node">
<title>Node4</title>
<g id="a_node4"><a xlink:href="classConnect.html#ab2f2af88f427c4a717f6abfd54f9b9df" target="_top" xlink:title=" ">
<polygon fill="white" stroke="black" points="7,-88.5 7,-107.5 120,-107.5 120,-88.5 7,-88.5"/>
<text text-anchor="middle" x="63.5" y="-95.5" font-family="Helvetica,sans-Serif" font-size="10.00">Connect::setOdometer</text>
</a>
</g>
</g>
<!-- Node3&#45;&gt;Node4 -->
<g id="edge3" class="edge">
<title>Node3&#45;&gt;Node4</title>
<path fill="none" stroke="midnightblue" d="M168.96,-98C153.2,-98 136.05,-98 120.28,-98"/>
<polygon fill="midnightblue" stroke="midnightblue" points="169.08,-101.5 179.08,-98 169.08,-94.5 169.08,-101.5"/>
</g>
<!-- Node6 -->
<g id="node6" class="node">
<title>Node6</title>
<g id="a_node6"><a xlink:href="classudpreceiver.html#a2d7852b9e4be87d9a3ce960d8a7eb9aa" target="_top" xlink:title=" ">
<polygon fill="white" stroke="black" points="163,-44.5 163,-63.5 288,-63.5 288,-44.5 163,-44.5"/>
<text text-anchor="middle" x="225.5" y="-51.5" font-family="Helvetica,sans-Serif" font-size="10.00">udpreceiver::startreceiver</text>
</a>
</g>
</g>
<!-- Node5&#45;&gt;Node6 -->
<g id="edge5" class="edge">
<title>Node5&#45;&gt;Node6</title>
<path fill="none" stroke="midnightblue" d="M313.62,-54C305.05,-54 296.42,-54 288.11,-54"/>
<polygon fill="midnightblue" stroke="midnightblue" points="313.64,-57.5 323.64,-54 313.64,-50.5 313.64,-57.5"/>
</g>
<!-- Node7 -->
<g id="node7" class="node">
<title>Node7</title>
<g id="a_node7"><a xlink:href="classConnect.html#a0d674157f4d7442c535837dadd8cf5f1" target="_top" xlink:title=" ">
<polygon fill="white" stroke="black" points="0,-44.5 0,-63.5 127,-63.5 127,-44.5 0,-44.5"/>
<text text-anchor="middle" x="63.5" y="-51.5" font-family="Helvetica,sans-Serif" font-size="10.00">Connect::openConnection</text>
</a>
</g>
</g>
<!-- Node6&#45;&gt;Node7 -->
<g id="edge6" class="edge">
<title>Node6&#45;&gt;Node7</title>
<path fill="none" stroke="midnightblue" d="M152.46,-54C144.05,-54 135.52,-54 127.25,-54"/>
<polygon fill="midnightblue" stroke="midnightblue" points="152.64,-57.5 162.64,-54 152.64,-50.5 152.64,-57.5"/>
</g>
</g>
</svg>
        <g id="navigator" transform="translate(0 0)" fill="#404254">
                <rect fill="#f2f5e9" fill-opacity="0.5" stroke="#606060" stroke-width=".5" x="0" y="0" width="60" height="60"/>
                <use id="zoomplus" xlink:href="#zoomPlus" x="17" y="9" onmousedown="handleZoom(evt,'in')"/>
                <use id="zoomminus" xlink:href="#zoomMin" x="42" y="9" onmousedown="handleZoom(evt,'out')"/>
                <use id="reset" xlink:href="#resetDef" x="30" y="36" onmousedown="handleReset()"/>
                <g id="arrowUp" xlink:href="#dirArrow" transform="translate(30 24)" onmousedown="handlePan(0,-1)">
                  <use xlink:href="#rim" fill="#404040">
                        <set attributeName="fill" to="#808080" begin="arrowUp.mouseover" end="arrowUp.mouseout"/>
                  </use>
                  <path fill="none" stroke="white" stroke-width="1.5" d="M0,-3.0v7 M-2.5,-0.5L0,-3.0L2.5,-0.5"/>
                </g>
                <g id="arrowRight" xlink:href="#dirArrow" transform="rotate(90) translate(36 -43)" onmousedown="handlePan(1,0)">
                  <use xlink:href="#rim" fill="#404040">
                        <set attributeName="fill" to="#808080" begin="arrowRight.mouseover" end="arrowRight.mouseout"/>
                  </use>
                  <path fill="none" stroke="white" stroke-width="1.5" d="M0,-3.0v7 M-2.5,-0.5L0,-3.0L2.5,-0.5"/>
                </g>
                <g id="arrowDown" xlink:href="#dirArrow" transform="rotate(180) translate(-30 -48)" onmousedown="handlePan(0,1)">
                  <use xlink:href="#rim" fill="#404040">
                        <set attributeName="fill" to="#808080" begin="arrowDown.mouseover" end="arrowDown.mouseout"/>
                  </use>
                  <path fill="none" stroke="white" stroke-width="1.5" d="M0,-3.0v7 M-2.5,-0.5L0,-3.0L2.5,-0.5"/>
                </g>
                <g id="arrowLeft" xlink:href="#dirArrow" transform="rotate(270) translate(-36 17)" onmousedown="handlePan(-1,0)">
                  <use xlink:href="#rim" fill="#404040">
                        <set attributeName="fill" to="#808080" begin="arrowLeft.mouseover" end="arrowLeft.mouseout"/>
                  </use>
                  <path fill="none" stroke="white" stroke-width="1.5" d="M0,-3.0v7 M-2.5,-0.5L0,-3.0L2.5,-0.5"/>
                </g>
        </g>
        <svg viewBox="0 0 15 15" width="100%" height="30px" preserveAspectRatio="xMaxYMin meet">
         <g id="arrow_out" transform="scale(0.3 0.3)">
          <a xlink:href="classDashBoard_ac2125a0ffb15188bcec84d8e1c2d3ff9_icgraph_org.svg" target="_base">
           <rect id="button" ry="5" rx="5" y="6" x="6" height="38" width="38"
                fill="#f2f5e9" fill-opacity="0.5" stroke="#606060" stroke-width="1.0"/>
           <path id="arrow"
             d="M 11.500037,31.436501 C 11.940474,20.09759 22.043105,11.32322 32.158766,21.979434 L 37.068811,17.246167 C 37.068811,17.246167 37.088388,32 37.088388,32 L 22.160133,31.978069 C 22.160133,31.978069 26.997745,27.140456 26.997745,27.140456 C 18.528582,18.264221 13.291696,25.230495 11.500037,31.436501 z"
             style="fill:#404040;"/>
          </a>
         </g>
        </svg>
</svg>
