<?xml version="1.0" encoding="UTF-8" standalone="no"?>
<!DOCTYPE svg PUBLIC "-//W3C//DTD SVG 1.1//EN"
 "http://www.w3.org/Graphics/SVG/1.1/DTD/svg11.dtd">
<!-- Generated by graphviz version 2.49.3 (20211027.1534)
 -->
<!-- Title: parsegithubData::sortDownloadedFiles Pages: 1 -->
<svg width="863pt" height="74pt"
 viewBox="0.00 0.00 863.00 73.50" xmlns="http://www.w3.org/2000/svg" xmlns:xlink="http://www.w3.org/1999/xlink">
<g id="graph0" class="graph" transform="scale(1 1) rotate(0) translate(4 69.5)">
<title>parsegithubData::sortDownloadedFiles</title>
<polygon fill="white" stroke="transparent" points="-4,4 -4,-69.5 859,-69.5 859,4 -4,4"/>
<!-- Node1 -->
<g id="node1" class="node">
<title>Node1</title>
<g id="a_node1"><a xlink:title=" ">
<polygon fill="#bfbfbf" stroke="black" points="694,-17 694,-47 855,-47 855,-17 694,-17"/>
<text text-anchor="start" x="702" y="-35" font-family="Helvetica,sans-Serif" font-size="10.00">parsegithubData::sortDownloaded</text>
<text text-anchor="middle" x="774.5" y="-24" font-family="Helvetica,sans-Serif" font-size="10.00">Files</text>
</a>
</g>
</g>
<!-- Node2 -->
<g id="node2" class="node">
<title>Node2</title>
<g id="a_node2"><a xlink:href="classDownloadManager.html#a3db45b9d3b58f6e6cf7c75a263fb85ce" target="_top" xlink:title=" ">
<polygon fill="white" stroke="black" points="515,-17 515,-47 658,-47 658,-17 515,-17"/>
<text text-anchor="start" x="523" y="-35" font-family="Helvetica,sans-Serif" font-size="10.00">DownloadManager::download</text>
<text text-anchor="middle" x="586.5" y="-24" font-family="Helvetica,sans-Serif" font-size="10.00">Finished</text>
</a>
</g>
</g>
<!-- Node1&#45;&gt;Node2 -->
<g id="edge1" class="edge">
<title>Node1&#45;&gt;Node2</title>
<path fill="none" stroke="midnightblue" d="M683.77,-32C675.2,-32 666.58,-32 658.22,-32"/>
<polygon fill="midnightblue" stroke="midnightblue" points="683.81,-35.5 693.81,-32 683.81,-28.5 683.81,-35.5"/>
</g>
<!-- Node3 -->
<g id="node3" class="node">
<title>Node3</title>
<g id="a_node3"><a xlink:href="classDownloadManager.html#a5b2dc25fef54a4e61b48aa2c64854450" target="_top" xlink:title=" ">
<polygon fill="white" stroke="black" points="338,-17 338,-47 479,-47 479,-17 338,-17"/>
<text text-anchor="start" x="346" y="-35" font-family="Helvetica,sans-Serif" font-size="10.00">DownloadManager::startNext</text>
<text text-anchor="middle" x="408.5" y="-24" font-family="Helvetica,sans-Serif" font-size="10.00">Download</text>
</a>
</g>
</g>
<!-- Node2&#45;&gt;Node3 -->
<g id="edge2" class="edge">
<title>Node2&#45;&gt;Node3</title>
<path fill="none" stroke="midnightblue" d="M504.92,-25.27C496.34,-25.22 487.67,-25.26 479.23,-25.38"/>
<polygon fill="midnightblue" stroke="midnightblue" points="504.89,-28.77 514.93,-25.37 504.96,-21.77 504.89,-28.77"/>
</g>
<!-- Node3&#45;&gt;Node2 -->
<g id="edge6" class="edge">
<title>Node3&#45;&gt;Node2</title>
<path fill="none" stroke="midnightblue" d="M489.5,-38.73C497.98,-38.78 506.57,-38.75 514.93,-38.63"/>
<polygon fill="midnightblue" stroke="midnightblue" points="489.26,-35.22 479.23,-38.62 489.19,-42.22 489.26,-35.22"/>
</g>
<!-- Node3&#45;&gt;Node3 -->
<g id="edge7" class="edge">
<title>Node3&#45;&gt;Node3</title>
<path fill="none" stroke="midnightblue" d="M439.06,-57.46C435.27,-62.18 425.08,-65.5 408.5,-65.5 381.29,-65.5 371.3,-56.56 378.53,-47.16"/>
<polygon fill="midnightblue" stroke="midnightblue" points="442.54,-56.94 438.47,-47.16 435.55,-57.34 442.54,-56.94"/>
</g>
<!-- Node4 -->
<g id="node4" class="node">
<title>Node4</title>
<g id="a_node4"><a xlink:href="classDownloadManager.html#afa2ecdfa2483d265db87682234f817e5" target="_top" xlink:title=" ">
<polygon fill="white" stroke="black" points="169,-0.5 169,-19.5 302,-19.5 302,-0.5 169,-0.5"/>
<text text-anchor="middle" x="235.5" y="-7.5" font-family="Helvetica,sans-Serif" font-size="10.00">DownloadManager::append</text>
</a>
</g>
</g>
<!-- Node3&#45;&gt;Node4 -->
<g id="edge3" class="edge">
<title>Node3&#45;&gt;Node4</title>
<path fill="none" stroke="midnightblue" d="M327.88,-21.76C319.26,-20.65 310.55,-19.53 302.12,-18.44"/>
<polygon fill="midnightblue" stroke="midnightblue" points="327.58,-25.25 337.95,-23.05 328.48,-18.3 327.58,-25.25"/>
</g>
<!-- Node4&#45;&gt;Node2 -->
<g id="edge5" class="edge">
<title>Node4&#45;&gt;Node2</title>
<path fill="none" stroke="midnightblue" d="M312.07,-4.77C360.03,-2.59 423.33,-1.81 479,-8 495.58,-9.84 513.34,-13.26 529.52,-16.94"/>
<polygon fill="midnightblue" stroke="midnightblue" points="311.89,-1.28 302.07,-5.26 312.23,-8.27 311.89,-1.28"/>
</g>
<!-- Node5 -->
<g id="node5" class="node">
<title>Node5</title>
<g id="a_node5"><a xlink:href="classDownloadManager.html#a1173f56ecfa7598b3cd12e30b9dd470c" target="_top" xlink:title=" ">
<polygon fill="white" stroke="black" points="0,-0.5 0,-19.5 133,-19.5 133,-0.5 0,-0.5"/>
<text text-anchor="middle" x="66.5" y="-7.5" font-family="Helvetica,sans-Serif" font-size="10.00">DownloadManager::append</text>
</a>
</g>
</g>
<!-- Node4&#45;&gt;Node5 -->
<g id="edge4" class="edge">
<title>Node4&#45;&gt;Node5</title>
<path fill="none" stroke="midnightblue" d="M158.93,-10C150.32,-10 141.58,-10 133.11,-10"/>
<polygon fill="midnightblue" stroke="midnightblue" points="158.98,-13.5 168.98,-10 158.98,-6.5 158.98,-13.5"/>
</g>
</g>
</svg>
