<?xml version="1.0" encoding="UTF-8" standalone="no"?>
<!DOCTYPE svg PUBLIC "-//W3C//DTD SVG 1.1//EN"
 "http://www.w3.org/Graphics/SVG/1.1/DTD/svg11.dtd">
<!-- Generated by graphviz version 2.49.3 (20211027.1534)
 -->
<!-- Title: DownloadManager::finished Pages: 1 -->
<svg width="667pt" height="100pt"
 viewBox="0.00 0.00 667.00 99.50" xmlns="http://www.w3.org/2000/svg" xmlns:xlink="http://www.w3.org/1999/xlink">
<g id="graph0" class="graph" transform="scale(1 1) rotate(0) translate(4 95.5)">
<title>DownloadManager::finished</title>
<polygon fill="white" stroke="transparent" points="-4,4 -4,-95.5 663,-95.5 663,4 -4,4"/>
<!-- Node1 -->
<g id="node1" class="node">
<title>Node1</title>
<g id="a_node1"><a xlink:title=" ">
<polygon fill="#bfbfbf" stroke="black" points="525,-49 525,-68 659,-68 659,-49 525,-49"/>
<text text-anchor="middle" x="592" y="-56" font-family="Helvetica,sans-Serif" font-size="10.00">DownloadManager::finished</text>
</a>
</g>
</g>
<!-- Node2 -->
<g id="node2" class="node">
<title>Node2</title>
<g id="a_node2"><a xlink:href="classDownloadManager.html#a1173f56ecfa7598b3cd12e30b9dd470c" target="_top" xlink:title=" ">
<polygon fill="white" stroke="black" points="5,-72 5,-91 138,-91 138,-72 5,-72"/>
<text text-anchor="middle" x="71.5" y="-79" font-family="Helvetica,sans-Serif" font-size="10.00">DownloadManager::append</text>
</a>
</g>
</g>
<!-- Node1&#45;&gt;Node2 -->
<g id="edge1" class="edge">
<title>Node1&#45;&gt;Node2</title>
<path fill="none" stroke="midnightblue" d="M514.78,-67.93C506.1,-68.87 497.36,-69.75 489,-70.5 410.5,-77.55 390.78,-79.05 312,-81.5 253.19,-83.33 186.22,-83.13 138.08,-82.6"/>
<polygon fill="midnightblue" stroke="midnightblue" points="515.38,-71.39 524.94,-66.81 514.61,-64.43 515.38,-71.39"/>
</g>
<!-- Node3 -->
<g id="node3" class="node">
<title>Node3</title>
<g id="a_node3"><a xlink:href="classDownloadManager.html#a5b2dc25fef54a4e61b48aa2c64854450" target="_top" xlink:title=" ">
<polygon fill="white" stroke="black" points="348,-12.5 348,-42.5 489,-42.5 489,-12.5 348,-12.5"/>
<text text-anchor="start" x="356" y="-30.5" font-family="Helvetica,sans-Serif" font-size="10.00">DownloadManager::startNext</text>
<text text-anchor="middle" x="418.5" y="-19.5" font-family="Helvetica,sans-Serif" font-size="10.00">Download</text>
</a>
</g>
</g>
<!-- Node1&#45;&gt;Node3 -->
<g id="edge2" class="edge">
<title>Node1&#45;&gt;Node3</title>
<path fill="none" stroke="midnightblue" d="M528.17,-47.14C515.5,-44.85 502.12,-42.43 489.23,-40.1"/>
<polygon fill="midnightblue" stroke="midnightblue" points="527.68,-50.61 538.14,-48.95 528.93,-43.72 527.68,-50.61"/>
</g>
<!-- Node3&#45;&gt;Node3 -->
<g id="edge8" class="edge">
<title>Node3&#45;&gt;Node3</title>
<path fill="none" stroke="midnightblue" d="M449.06,-52.96C445.27,-57.68 435.08,-61 418.5,-61 391.29,-61 381.3,-52.06 388.53,-42.66"/>
<polygon fill="midnightblue" stroke="midnightblue" points="452.54,-52.44 448.47,-42.66 445.55,-52.84 452.54,-52.44"/>
</g>
<!-- Node4 -->
<g id="node4" class="node">
<title>Node4</title>
<g id="a_node4"><a xlink:href="classDownloadManager.html#afa2ecdfa2483d265db87682234f817e5" target="_top" xlink:title=" ">
<polygon fill="white" stroke="black" points="179,-53 179,-72 312,-72 312,-53 179,-53"/>
<text text-anchor="middle" x="245.5" y="-60" font-family="Helvetica,sans-Serif" font-size="10.00">DownloadManager::append</text>
</a>
</g>
</g>
<!-- Node3&#45;&gt;Node4 -->
<g id="edge3" class="edge">
<title>Node3&#45;&gt;Node4</title>
<path fill="none" stroke="midnightblue" d="M337.9,-43.79C322.52,-46.94 306.89,-50.14 293,-52.98"/>
<polygon fill="midnightblue" stroke="midnightblue" points="338.85,-47.17 347.95,-41.74 337.45,-40.31 338.85,-47.17"/>
</g>
<!-- Node5 -->
<g id="node5" class="node">
<title>Node5</title>
<g id="a_node5"><a xlink:href="classDownloadManager.html#a3db45b9d3b58f6e6cf7c75a263fb85ce" target="_top" xlink:title=" ">
<polygon fill="white" stroke="black" points="0,-0.5 0,-30.5 143,-30.5 143,-0.5 0,-0.5"/>
<text text-anchor="start" x="8" y="-18.5" font-family="Helvetica,sans-Serif" font-size="10.00">DownloadManager::download</text>
<text text-anchor="middle" x="71.5" y="-7.5" font-family="Helvetica,sans-Serif" font-size="10.00">Finished</text>
</a>
</g>
</g>
<!-- Node3&#45;&gt;Node5 -->
<g id="edge7" class="edge">
<title>Node3&#45;&gt;Node5</title>
<path fill="none" stroke="midnightblue" d="M337.69,-18.93C278.88,-15.54 199.61,-12.86 143.1,-12.39"/>
<polygon fill="midnightblue" stroke="midnightblue" points="337.49,-22.42 347.68,-19.52 337.91,-15.43 337.49,-22.42"/>
</g>
<!-- Node4&#45;&gt;Node2 -->
<g id="edge4" class="edge">
<title>Node4&#45;&gt;Node2</title>
<path fill="none" stroke="midnightblue" d="M168.83,-70.86C158.6,-71.99 148.16,-73.14 138.12,-74.25"/>
<polygon fill="midnightblue" stroke="midnightblue" points="169.43,-74.31 178.98,-69.74 168.66,-67.36 169.43,-74.31"/>
</g>
<!-- Node4&#45;&gt;Node5 -->
<g id="edge5" class="edge">
<title>Node4&#45;&gt;Node5</title>
<path fill="none" stroke="midnightblue" d="M199.91,-50.32C177.82,-44.28 150.94,-36.93 127.57,-30.55"/>
<polygon fill="midnightblue" stroke="midnightblue" points="199.12,-53.73 209.69,-52.99 200.97,-46.98 199.12,-53.73"/>
</g>
<!-- Node5&#45;&gt;Node3 -->
<g id="edge6" class="edge">
<title>Node5&#45;&gt;Node3</title>
<path fill="none" stroke="midnightblue" d="M153.13,-24.12C212.13,-27.5 291.38,-30.17 347.68,-30.62"/>
<polygon fill="midnightblue" stroke="midnightblue" points="153.29,-20.62 143.1,-23.53 152.88,-27.61 153.29,-20.62"/>
</g>
</g>
</svg>
