<?xml version="1.0" encoding="UTF-8" standalone="no"?>
<!DOCTYPE svg PUBLIC "-//W3C//DTD SVG 1.1//EN"
 "http://www.w3.org/Graphics/SVG/1.1/DTD/svg11.dtd">
<!-- Generated by graphviz version 2.49.3 (20211027.1534)
 -->
<!-- Title: DashBoard::serialStatChanged Pages: 1 -->
<!--zoomable 668 -->
<svg id="main" version="1.1" xmlns="http://www.w3.org/2000/svg" xmlns:xlink="http://www.w3.org/1999/xlink" xml:space="preserve" onload="init(evt)">
<style type="text/css"><![CDATA[
.edge:hover path { stroke: red; }
.edge:hover polygon { stroke: red; fill: red; }
]]></style>
<script type="text/javascript"><![CDATA[
var edges = document.getElementsByTagName('g');
if (edges && edges.length) {
  for (var i=0;i<edges.length;i++) {
    if (edges[i].id.substr(0,4)=='edge') {
      edges[i].setAttribute('class','edge');
    }
  }
}
]]></script>
        <defs>
                <circle id="rim" cx="0" cy="0" r="7"/>
                <circle id="rim2" cx="0" cy="0" r="3.5"/>
                <g id="zoomPlus">
                        <use xlink:href="#rim" fill="#404040">
                                <set attributeName="fill" to="#808080" begin="zoomplus.mouseover" end="zoomplus.mouseout"/>
                        </use>
                        <path d="M-4,0h8M0,-4v8" fill="none" stroke="white" stroke-width="1.5" pointer-events="none"/>
                </g>
                <g id="zoomMin">
                        <use xlink:href="#rim" fill="#404040">
                                <set attributeName="fill" to="#808080" begin="zoomminus.mouseover" end="zoomminus.mouseout"/>
                        </use>
                        <path d="M-4,0h8" fill="none" stroke="white" stroke-width="1.5" pointer-events="none"/>
                </g>
                <g id="dirArrow">
                        <path fill="none" stroke="white" stroke-width="1.5" d="M0,-3.0v7 M-2.5,-0.5L0,-3.0L2.5,-0.5"/>
                </g>
               <g id="resetDef">
                       <use xlink:href="#rim2" fill="#404040">
                               <set attributeName="fill" to="#808080" begin="reset.mouseover" end="reset.mouseout"/>
                       </use>
               </g>
        </defs>

<script type="text/javascript">
var viewWidth = 1843;
var viewHeight = 668;
var sectionId = 'dynsection-427';
</script>
<script xlink:href="svgpan.js"/>
<svg id="graph" class="graph">
<g id="viewport">
<title>DashBoard::serialStatChanged</title>
<polygon fill="white" stroke="transparent" points="-4,4 -4,-664.07 1839,-664.07 1839,4 -4,4"/>
<!-- Node1 -->
<g id="node1" class="node">
<title>Node1</title>
<g id="a_node1"><a xlink:title=" ">
<polygon fill="#bfbfbf" stroke="black" points="1686,-266.5 1686,-285.5 1835,-285.5 1835,-266.5 1686,-266.5"/>
<text text-anchor="middle" x="1760.5" y="-273.5" font-family="Helvetica,sans-Serif" font-size="10.00">DashBoard::serialStatChanged</text>
</a>
</g>
</g>
<!-- Node2 -->
<g id="node2" class="node">
<title>Node2</title>
<g id="a_node2"><a xlink:href="classDashBoard.html#aa096e4f8310f6614db7409cef61d7ccb" target="_top" xlink:title=" ">
<polygon fill="white" stroke="black" points="1525,-266.5 1525,-285.5 1650,-285.5 1650,-266.5 1525,-266.5"/>
<text text-anchor="middle" x="1587.5" y="-273.5" font-family="Helvetica,sans-Serif" font-size="10.00">DashBoard::setSerialStat</text>
</a>
</g>
</g>
<!-- Node1&#45;&gt;Node2 -->
<g id="edge1" class="edge">
<title>Node1&#45;&gt;Node2</title>
<path fill="none" stroke="midnightblue" d="M1675.85,-276C1667.19,-276 1658.5,-276 1650.14,-276"/>
<polygon fill="midnightblue" stroke="midnightblue" points="1675.99,-279.5 1685.99,-276 1675.99,-272.5 1675.99,-279.5"/>
</g>
<!-- Node3 -->
<g id="node3" class="node">
<title>Node3</title>
<g id="a_node3"><a xlink:href="classConnect.html#ac3e14b65488af0f04cc707dc8b981cee" target="_top" xlink:title=" ">
<polygon fill="white" stroke="black" points="1360.5,-532.5 1360.5,-551.5 1484.5,-551.5 1484.5,-532.5 1360.5,-532.5"/>
<text text-anchor="middle" x="1422.5" y="-539.5" font-family="Helvetica,sans-Serif" font-size="10.00">Connect::canbitratesetup</text>
</a>
</g>
</g>
<!-- Node2&#45;&gt;Node3 -->
<g id="edge2" class="edge">
<title>Node2&#45;&gt;Node3</title>
<path fill="none" stroke="midnightblue" d="M1583.98,-295.96C1577.2,-341.63 1554.38,-454.66 1489,-518 1482.48,-524.32 1474.15,-529 1465.64,-532.45"/>
<polygon fill="midnightblue" stroke="midnightblue" points="1587.48,-296.26 1585.38,-285.87 1580.54,-295.3 1587.48,-296.26"/>
</g>
<!-- Node4 -->
<g id="node4" class="node">
<title>Node4</title>
<g id="a_node4"><a xlink:href="classApexi.html#a6c775f27e878959c047bb9c252064cfe" target="_top" xlink:title=" ">
<polygon fill="white" stroke="black" points="1015,-532.5 1015,-551.5 1109,-551.5 1109,-532.5 1015,-532.5"/>
<text text-anchor="middle" x="1062" y="-539.5" font-family="Helvetica,sans-Serif" font-size="10.00">Apexi::handleError</text>
</a>
</g>
</g>
<!-- Node2&#45;&gt;Node4 -->
<g id="edge3" class="edge">
<title>Node2&#45;&gt;Node4</title>
<path fill="none" stroke="midnightblue" d="M1583.1,-295.81C1574.95,-336.8 1550.23,-430.85 1489,-476 1429.3,-520.03 1206.58,-535.45 1109.14,-540.16"/>
<polygon fill="midnightblue" stroke="midnightblue" points="1586.55,-296.43 1584.94,-285.95 1579.67,-295.14 1586.55,-296.43"/>
</g>
<!-- Node7 -->
<g id="node7" class="node">
<title>Node7</title>
<g id="a_node7"><a xlink:href="classApexi.html#a84e5eadc545afab5fbb0aea8b27e17c3" target="_top" xlink:title=" ">
<polygon fill="white" stroke="black" points="689,-399.5 689,-418.5 804,-418.5 804,-399.5 689,-399.5"/>
<text text-anchor="middle" x="746.5" y="-406.5" font-family="Helvetica,sans-Serif" font-size="10.00">Apexi::openConnection</text>
</a>
</g>
</g>
<!-- Node2&#45;&gt;Node7 -->
<g id="edge27" class="edge">
<title>Node2&#45;&gt;Node7</title>
<path fill="none" stroke="midnightblue" d="M1574.19,-294.12C1557.74,-316.63 1526.29,-354.15 1489,-371 1388.26,-416.52 1351.55,-390 1241,-390 1241,-390 1241,-390 1061,-390 971.03,-390 866.8,-397.89 804.07,-403.5"/>
<polygon fill="midnightblue" stroke="midnightblue" points="1577.19,-295.94 1580.11,-285.76 1571.48,-291.89 1577.19,-295.94"/>
</g>
<!-- Node14 -->
<g id="node14" class="node">
<title>Node14</title>
<g id="a_node14"><a xlink:href="classArduino.html#a0b97da51c2c192f994bad0f192d3cae8" target="_top" xlink:title=" ">
<polygon fill="white" stroke="black" points="1371,-342.5 1371,-361.5 1474,-361.5 1474,-342.5 1371,-342.5"/>
<text text-anchor="middle" x="1422.5" y="-349.5" font-family="Helvetica,sans-Serif" font-size="10.00">Arduino::handleError</text>
</a>
</g>
</g>
<!-- Node2&#45;&gt;Node14 -->
<g id="edge17" class="edge">
<title>Node2&#45;&gt;Node14</title>
<path fill="none" stroke="midnightblue" d="M1564.18,-291.2C1544.93,-303.77 1516.06,-321.38 1489,-333 1480.62,-336.6 1471.36,-339.75 1462.5,-342.4"/>
<polygon fill="midnightblue" stroke="midnightblue" points="1566.14,-294.1 1572.55,-285.65 1562.28,-288.26 1566.14,-294.1"/>
</g>
<!-- Node18 -->
<g id="node18" class="node">
<title>Node18</title>
<g id="a_node18"><a xlink:href="classApexi.html#a9c813630d2b2a70b7e098ae10220103e" target="_top" xlink:title=" ">
<polygon fill="white" stroke="black" points="1007.5,-494.5 1007.5,-513.5 1116.5,-513.5 1116.5,-494.5 1007.5,-494.5"/>
<text text-anchor="middle" x="1062" y="-501.5" font-family="Helvetica,sans-Serif" font-size="10.00">Apexi::handleTimeout</text>
</a>
</g>
</g>
<!-- Node2&#45;&gt;Node18 -->
<g id="edge22" class="edge">
<title>Node2&#45;&gt;Node18</title>
<path fill="none" stroke="midnightblue" d="M1581.5,-295.79C1571.12,-332.42 1543.51,-410.4 1489,-447 1427.78,-488.1 1233.05,-479.96 1160,-490 1145.93,-491.94 1130.71,-494.1 1116.6,-496.13"/>
<polygon fill="midnightblue" stroke="midnightblue" points="1584.96,-296.41 1584.18,-285.84 1578.2,-294.58 1584.96,-296.41"/>
</g>
<!-- Node19 -->
<g id="node19" class="node">
<title>Node19</title>
<g id="a_node19"><a xlink:href="classConnect.html#a332577727804102b4db2886b3da86978" target="_top" xlink:title=" ">
<polygon fill="white" stroke="black" points="1366.5,-266.5 1366.5,-285.5 1478.5,-285.5 1478.5,-266.5 1366.5,-266.5"/>
<text text-anchor="middle" x="1422.5" y="-273.5" font-family="Helvetica,sans-Serif" font-size="10.00">Connect::LiveReqMsg</text>
</a>
</g>
</g>
<!-- Node2&#45;&gt;Node19 -->
<g id="edge25" class="edge">
<title>Node2&#45;&gt;Node19</title>
<path fill="none" stroke="midnightblue" d="M1514.76,-276C1502.61,-276 1490.16,-276 1478.52,-276"/>
<polygon fill="midnightblue" stroke="midnightblue" points="1514.88,-279.5 1524.88,-276 1514.88,-272.5 1514.88,-279.5"/>
</g>
<!-- Node20 -->
<g id="node20" class="node">
<title>Node20</title>
<g id="a_node20"><a xlink:href="classConnect.html#a50f2fde88497c58505b58246ccbac7d7" target="_top" xlink:title=" ">
<polygon fill="white" stroke="black" points="1356,-228.5 1356,-247.5 1489,-247.5 1489,-228.5 1356,-228.5"/>
<text text-anchor="middle" x="1422.5" y="-235.5" font-family="Helvetica,sans-Serif" font-size="10.00">Connect::LiveReqMsgOBD</text>
</a>
</g>
</g>
<!-- Node2&#45;&gt;Node20 -->
<g id="edge26" class="edge">
<title>Node2&#45;&gt;Node20</title>
<path fill="none" stroke="midnightblue" d="M1535.47,-264.1C1512.56,-258.76 1485.9,-252.55 1464.34,-247.52"/>
<polygon fill="midnightblue" stroke="midnightblue" points="1534.83,-267.55 1545.37,-266.41 1536.42,-260.73 1534.83,-267.55"/>
</g>
<!-- Node21 -->
<g id="node21" class="node">
<title>Node21</title>
<g id="a_node21"><a xlink:href="classConnect.html#a93361b4ddf0b2aa27b1b847c57d98265" target="_top" xlink:title=" ">
<polygon fill="white" stroke="black" points="1362,-190.5 1362,-209.5 1483,-209.5 1483,-190.5 1362,-190.5"/>
<text text-anchor="middle" x="1422.5" y="-197.5" font-family="Helvetica,sans-Serif" font-size="10.00">Connect::processOutput</text>
</a>
</g>
</g>
<!-- Node2&#45;&gt;Node21 -->
<g id="edge28" class="edge">
<title>Node2&#45;&gt;Node21</title>
<path fill="none" stroke="midnightblue" d="M1564.18,-260.8C1544.93,-248.23 1516.06,-230.62 1489,-219 1480.62,-215.4 1471.36,-212.25 1462.5,-209.6"/>
<polygon fill="midnightblue" stroke="midnightblue" points="1562.28,-263.74 1572.55,-266.35 1566.14,-257.9 1562.28,-263.74"/>
</g>
<!-- Node26 -->
<g id="node26" class="node">
<title>Node26</title>
<g id="a_node26"><a xlink:href="classArduino.html#aa9571a2c5166e6871f6ee9df9eeaf495" target="_top" xlink:title=" ">
<polygon fill="white" stroke="black" points="1367,-304.5 1367,-323.5 1478,-323.5 1478,-304.5 1367,-304.5"/>
<text text-anchor="middle" x="1422.5" y="-311.5" font-family="Helvetica,sans-Serif" font-size="10.00">Arduino::readyToRead</text>
</a>
</g>
</g>
<!-- Node2&#45;&gt;Node26 -->
<g id="edge33" class="edge">
<title>Node2&#45;&gt;Node26</title>
<path fill="none" stroke="midnightblue" d="M1535.47,-287.9C1512.56,-293.24 1485.9,-299.45 1464.34,-304.48"/>
<polygon fill="midnightblue" stroke="midnightblue" points="1536.42,-291.27 1545.37,-285.59 1534.83,-284.45 1536.42,-291.27"/>
</g>
<!-- Node27 -->
<g id="node27" class="node">
<title>Node27</title>
<g id="a_node27"><a xlink:href="classConnect.html#a0f5218e670acd714fdf7e901569f59d1" target="_top" xlink:title=" ">
<polygon fill="white" stroke="black" points="1380.5,-152.5 1380.5,-171.5 1464.5,-171.5 1464.5,-152.5 1380.5,-152.5"/>
<text text-anchor="middle" x="1422.5" y="-159.5" font-family="Helvetica,sans-Serif" font-size="10.00">Connect::reboot</text>
</a>
</g>
</g>
<!-- Node2&#45;&gt;Node27 -->
<g id="edge36" class="edge">
<title>Node2&#45;&gt;Node27</title>
<path fill="none" stroke="midnightblue" d="M1573.06,-258.41C1555.84,-237.05 1524,-201.38 1489,-181 1481.53,-176.65 1473,-173.24 1464.61,-170.58"/>
<polygon fill="midnightblue" stroke="midnightblue" points="1570.37,-260.65 1579.31,-266.34 1575.87,-256.32 1570.37,-260.65"/>
</g>
<!-- Node29 -->
<g id="node29" class="node">
<title>Node29</title>
<g id="a_node29"><a xlink:href="classConnect.html#a007913214a43c9b5d4d8c70bcf55b953" target="_top" xlink:title=" ">
<polygon fill="white" stroke="black" points="1188.5,-76.5 1188.5,-95.5 1291.5,-95.5 1291.5,-76.5 1188.5,-76.5"/>
<text text-anchor="middle" x="1240" y="-83.5" font-family="Helvetica,sans-Serif" font-size="10.00">Connect::turnscreen</text>
</a>
</g>
</g>
<!-- Node2&#45;&gt;Node29 -->
<g id="edge41" class="edge">
<title>Node2&#45;&gt;Node29</title>
<path fill="none" stroke="midnightblue" d="M1578.21,-257.36C1564.21,-228.16 1533.07,-172 1489,-143 1472.53,-132.16 1358.46,-108.73 1290.9,-95.53"/>
<polygon fill="midnightblue" stroke="midnightblue" points="1575.05,-258.87 1582.43,-266.47 1581.4,-255.93 1575.05,-258.87"/>
</g>
<!-- Node30 -->
<g id="node30" class="node">
<title>Node30</title>
<g id="a_node30"><a xlink:href="classConnect.html#a1fe66e98366345cc87303cad8e31f782" target="_top" xlink:title=" ">
<polygon fill="white" stroke="black" points="1358.5,-76.5 1358.5,-95.5 1486.5,-95.5 1486.5,-76.5 1358.5,-76.5"/>
<text text-anchor="middle" x="1422.5" y="-83.5" font-family="Helvetica,sans-Serif" font-size="10.00">Connect::RequestLicence</text>
</a>
</g>
</g>
<!-- Node2&#45;&gt;Node30 -->
<g id="edge39" class="edge">
<title>Node2&#45;&gt;Node30</title>
<path fill="none" stroke="midnightblue" d="M1580.02,-256.43C1567.69,-222.04 1537.62,-150.58 1489,-110 1481.47,-103.71 1472.15,-99 1462.92,-95.5"/>
<polygon fill="midnightblue" stroke="midnightblue" points="1576.83,-257.9 1583.41,-266.2 1583.44,-255.61 1576.83,-257.9"/>
</g>
<!-- Node31 -->
<g id="node31" class="node">
<title>Node31</title>
<g id="a_node31"><a xlink:href="classConnect.html#aae1ad29dcc3f5d0e8965605ed7056852" target="_top" xlink:title=" ">
<polygon fill="white" stroke="black" points="1373,-38.5 1373,-57.5 1472,-57.5 1472,-38.5 1373,-38.5"/>
<text text-anchor="middle" x="1422.5" y="-45.5" font-family="Helvetica,sans-Serif" font-size="10.00">Connect::shutdown</text>
</a>
</g>
</g>
<!-- Node2&#45;&gt;Node31 -->
<g id="edge40" class="edge">
<title>Node2&#45;&gt;Node31</title>
<path fill="none" stroke="midnightblue" d="M1583.01,-256.53C1574.57,-215.26 1549.16,-118.54 1489,-67 1484.05,-62.76 1478.21,-59.47 1472.08,-56.91"/>
<polygon fill="midnightblue" stroke="midnightblue" points="1579.58,-257.25 1584.91,-266.41 1586.45,-255.93 1579.58,-257.25"/>
</g>
<!-- Node32 -->
<g id="node32" class="node">
<title>Node32</title>
<g id="a_node32"><a xlink:href="classConnect.html#a5e7ca7fdedaf70d3df154058841244b9" target="_top" xlink:title=" ">
<polygon fill="white" stroke="black" points="1363,-0.5 1363,-19.5 1482,-19.5 1482,-0.5 1363,-0.5"/>
<text text-anchor="middle" x="1422.5" y="-7.5" font-family="Helvetica,sans-Serif" font-size="10.00">Connect::updatefinished</text>
</a>
</g>
</g>
<!-- Node2&#45;&gt;Node32 -->
<g id="edge42" class="edge">
<title>Node2&#45;&gt;Node32</title>
<path fill="none" stroke="midnightblue" d="M1584.53,-256.26C1578.82,-209.61 1557.97,-91.79 1489,-29 1484.71,-25.09 1479.66,-21.99 1474.3,-19.52"/>
<polygon fill="midnightblue" stroke="midnightblue" points="1581.06,-256.72 1585.66,-266.27 1588.02,-255.94 1581.06,-256.72"/>
</g>
<!-- Node33 -->
<g id="node33" class="node">
<title>Node33</title>
<g id="a_node33"><a xlink:href="classApexi.html#af312531b1dbc60175016a82881203f18" target="_top" xlink:title=" ">
<polygon fill="white" stroke="black" points="1361.5,-418.5 1361.5,-437.5 1483.5,-437.5 1483.5,-418.5 1361.5,-418.5"/>
<text text-anchor="middle" x="1422.5" y="-425.5" font-family="Helvetica,sans-Serif" font-size="10.00">Apexi::writeRequestPFC</text>
</a>
</g>
</g>
<!-- Node2&#45;&gt;Node33 -->
<g id="edge43" class="edge">
<title>Node2&#45;&gt;Node33</title>
<path fill="none" stroke="midnightblue" d="M1576.95,-294.48C1561.82,-322.04 1529.84,-373.87 1489,-404 1480.62,-410.18 1470.48,-414.92 1460.7,-418.48"/>
<polygon fill="midnightblue" stroke="midnightblue" points="1580.11,-295.98 1581.74,-285.51 1573.94,-292.68 1580.11,-295.98"/>
</g>
<!-- Node5 -->
<g id="node5" class="node">
<title>Node5</title>
<g id="a_node5"><a xlink:href="classApexi.html#a669124cabae4ada616e650e582c068da" target="_top" xlink:title=" ">
<polygon fill="white" stroke="black" points="847,-513.5 847,-532.5 964,-532.5 964,-513.5 847,-513.5"/>
<text text-anchor="middle" x="905.5" y="-520.5" font-family="Helvetica,sans-Serif" font-size="10.00">Apexi::closeConnection</text>
</a>
</g>
</g>
<!-- Node4&#45;&gt;Node5 -->
<g id="edge4" class="edge">
<title>Node4&#45;&gt;Node5</title>
<path fill="none" stroke="midnightblue" d="M1004.72,-535.08C991.47,-533.45 977.34,-531.71 964.04,-530.08"/>
<polygon fill="midnightblue" stroke="midnightblue" points="1004.29,-538.55 1014.64,-536.3 1005.15,-531.6 1004.29,-538.55"/>
</g>
<!-- Node13 -->
<g id="node13" class="node">
<title>Node13</title>
<g id="a_node13"><a xlink:href="classApexi.html#a169d6e9466a6c04e6533c8e84fdcaadb" target="_top" xlink:title=" ">
<polygon fill="white" stroke="black" points="0,-570.5 0,-589.5 101,-589.5 101,-570.5 0,-570.5"/>
<text text-anchor="middle" x="50.5" y="-577.5" font-family="Helvetica,sans-Serif" font-size="10.00">Apexi::initSerialPort</text>
</a>
</g>
</g>
<!-- Node4&#45;&gt;Node13 -->
<g id="edge16" class="edge">
<title>Node4&#45;&gt;Node13</title>
<path fill="none" stroke="midnightblue" d="M1047.72,-559.91C1030.86,-581.14 999.64,-615.69 964,-632 875.97,-672.29 844.31,-656 747.5,-656 747.5,-656 747.5,-656 318,-656 236.85,-656 213.53,-658.99 137,-632 108.66,-622 79.57,-601.77 63.7,-589.7"/>
<polygon fill="midnightblue" stroke="midnightblue" points="1050.7,-561.78 1054.04,-551.72 1045.16,-557.5 1050.7,-561.78"/>
</g>
<!-- Node6 -->
<g id="node6" class="node">
<title>Node6</title>
<g id="a_node6"><a xlink:href="classConnect.html#abb89a14af2e2b3f6d466c5abfc95cff0" target="_top" xlink:title=" ">
<polygon fill="white" stroke="black" points="682,-570.5 682,-589.5 811,-589.5 811,-570.5 682,-570.5"/>
<text text-anchor="middle" x="746.5" y="-577.5" font-family="Helvetica,sans-Serif" font-size="10.00">Connect::closeConnection</text>
</a>
</g>
</g>
<!-- Node5&#45;&gt;Node6 -->
<g id="edge5" class="edge">
<title>Node5&#45;&gt;Node6</title>
<path fill="none" stroke="midnightblue" d="M868.51,-536.07C839.65,-546.54 799.82,-561.01 773.86,-570.43"/>
<polygon fill="midnightblue" stroke="midnightblue" points="870.02,-539.24 878.22,-532.54 867.63,-532.66 870.02,-539.24"/>
</g>
<!-- Node5&#45;&gt;Node7 -->
<g id="edge6" class="edge">
<title>Node5&#45;&gt;Node7</title>
<path fill="none" stroke="midnightblue" d="M882.91,-507.32C849.97,-483.4 788.11,-438.49 760.91,-418.74"/>
<polygon fill="midnightblue" stroke="midnightblue" points="881.24,-510.43 891.38,-513.48 885.35,-504.77 881.24,-510.43"/>
</g>
<!-- Node10 -->
<g id="node10" class="node">
<title>Node10</title>
<g id="a_node10"><a xlink:href="classApexi.html#a4e7b389e8d3e283a12733ab4f8492be3" target="_top" xlink:title=" ">
<polygon fill="white" stroke="black" points="399,-456.5 399,-475.5 483,-475.5 483,-456.5 399,-456.5"/>
<text text-anchor="middle" x="441" y="-463.5" font-family="Helvetica,sans-Serif" font-size="10.00">Apexi::readData</text>
</a>
</g>
</g>
<!-- Node5&#45;&gt;Node10 -->
<g id="edge15" class="edge">
<title>Node5&#45;&gt;Node10</title>
<path fill="none" stroke="midnightblue" d="M836.84,-514.66C739.57,-502.67 563.17,-480.93 483.28,-471.09"/>
<polygon fill="midnightblue" stroke="midnightblue" points="836.51,-518.15 846.86,-515.9 837.36,-511.2 836.51,-518.15"/>
</g>
<!-- Node8 -->
<g id="node8" class="node">
<title>Node8</title>
<g id="a_node8"><a xlink:href="classConnect.html#a0d674157f4d7442c535837dadd8cf5f1" target="_top" xlink:title=" ">
<polygon fill="white" stroke="black" points="519,-380.5 519,-399.5 646,-399.5 646,-380.5 519,-380.5"/>
<text text-anchor="middle" x="582.5" y="-387.5" font-family="Helvetica,sans-Serif" font-size="10.00">Connect::openConnection</text>
</a>
</g>
</g>
<!-- Node7&#45;&gt;Node8 -->
<g id="edge7" class="edge">
<title>Node7&#45;&gt;Node8</title>
<path fill="none" stroke="midnightblue" d="M678.67,-401.16C667.93,-399.9 656.85,-398.6 646.21,-397.35"/>
<polygon fill="midnightblue" stroke="midnightblue" points="678.5,-404.67 688.84,-402.35 679.32,-397.71 678.5,-404.67"/>
</g>
<!-- Node9 -->
<g id="node9" class="node">
<title>Node9</title>
<g id="a_node9"><a xlink:href="classApexi.html#af3673b74b8aebe06a2b2f9ed81c23ee4" target="_top" xlink:title=" ">
<polygon fill="white" stroke="black" points="533.5,-418.5 533.5,-437.5 631.5,-437.5 631.5,-418.5 533.5,-418.5"/>
<text text-anchor="middle" x="582.5" y="-425.5" font-family="Helvetica,sans-Serif" font-size="10.00">Apexi::retryconnect</text>
</a>
</g>
</g>
<!-- Node7&#45;&gt;Node9 -->
<g id="edge8" class="edge">
<title>Node7&#45;&gt;Node9</title>
<path fill="none" stroke="midnightblue" d="M678.6,-416.85C662.81,-418.7 646.29,-420.64 631.53,-422.37"/>
<polygon fill="midnightblue" stroke="midnightblue" points="679.32,-420.29 688.84,-415.65 678.5,-413.33 679.32,-420.29"/>
</g>
<!-- Node9&#45;&gt;Node10 -->
<g id="edge9" class="edge">
<title>Node9&#45;&gt;Node10</title>
<path fill="none" stroke="midnightblue" d="M536.54,-440.25C517.32,-445.48 495.2,-451.51 477.19,-456.41"/>
<polygon fill="midnightblue" stroke="midnightblue" points="537.57,-443.59 546.3,-437.59 535.73,-436.84 537.57,-443.59"/>
</g>
<!-- Node11 -->
<g id="node11" class="node">
<title>Node11</title>
<g id="a_node11"><a xlink:href="classApexi.html#a4cb1314ab5ca5175aa227ed178148f40" target="_top" xlink:title=" ">
<polygon fill="white" stroke="black" points="275,-494.5 275,-513.5 363,-513.5 363,-494.5 275,-494.5"/>
<text text-anchor="middle" x="319" y="-501.5" font-family="Helvetica,sans-Serif" font-size="10.00">Apexi::apexiECU</text>
</a>
</g>
</g>
<!-- Node10&#45;&gt;Node11 -->
<g id="edge10" class="edge">
<title>Node10&#45;&gt;Node11</title>
<path fill="none" stroke="midnightblue" d="M399.96,-478.68C383.74,-483.81 365.33,-489.64 350.27,-494.41"/>
<polygon fill="midnightblue" stroke="midnightblue" points="401.24,-481.94 409.72,-475.59 399.13,-475.27 401.24,-481.94"/>
</g>
<!-- Node12 -->
<g id="node12" class="node">
<title>Node12</title>
<g id="a_node12"><a xlink:href="classApexi.html#abe3bf6800fce8a4c713a08c14474d625" target="_top" xlink:title=" ">
<polygon fill="white" stroke="black" points="137,-532.5 137,-551.5 239,-551.5 239,-532.5 137,-532.5"/>
<text text-anchor="middle" x="188" y="-539.5" font-family="Helvetica,sans-Serif" font-size="10.00">Apexi::readyToRead</text>
</a>
</g>
</g>
<!-- Node11&#45;&gt;Node12 -->
<g id="edge11" class="edge">
<title>Node11&#45;&gt;Node12</title>
<path fill="none" stroke="midnightblue" d="M275.45,-516.54C257.9,-521.7 237.89,-527.6 221.54,-532.41"/>
<polygon fill="midnightblue" stroke="midnightblue" points="276.84,-519.77 285.45,-513.59 274.87,-513.06 276.84,-519.77"/>
</g>
<!-- Node12&#45;&gt;Node5 -->
<g id="edge12" class="edge">
<title>Node12&#45;&gt;Node5</title>
<path fill="none" stroke="midnightblue" d="M249.16,-542C300.01,-542 374.77,-542 440,-542 583.5,-542 583.5,-542 583.5,-542 675.75,-542 782.66,-534.08 846.86,-528.47"/>
<polygon fill="midnightblue" stroke="midnightblue" points="249,-538.5 239,-542 249,-545.5 249,-538.5"/>
</g>
<!-- Node12&#45;&gt;Node13 -->
<g id="edge13" class="edge">
<title>Node12&#45;&gt;Node13</title>
<path fill="none" stroke="midnightblue" d="M143.08,-554.32C124.46,-559.54 103.09,-565.53 85.68,-570.41"/>
<polygon fill="midnightblue" stroke="midnightblue" points="144.12,-557.66 152.81,-551.59 142.23,-550.92 144.12,-557.66"/>
</g>
<!-- Node13&#45;&gt;Node7 -->
<g id="edge14" class="edge">
<title>Node13&#45;&gt;Node7</title>
<path fill="none" stroke="midnightblue" d="M61.25,-561.61C91.47,-507.4 189.31,-352 318,-352 442,-352 442,-352 442,-352 533.06,-352 557.31,-350.34 646,-371 674.45,-377.63 705.69,-390.55 725.43,-399.47"/>
<polygon fill="midnightblue" stroke="midnightblue" points="58.12,-560.04 56.4,-570.49 64.27,-563.39 58.12,-560.04"/>
</g>
<!-- Node15 -->
<g id="node15" class="node">
<title>Node15</title>
<g id="a_node15"><a xlink:href="classArduino.html#a8fcd03a58d456d5e4e1228db8b37ee85" target="_top" xlink:title=" ">
<polygon fill="white" stroke="black" points="1177,-304.5 1177,-323.5 1303,-323.5 1303,-304.5 1177,-304.5"/>
<text text-anchor="middle" x="1240" y="-311.5" font-family="Helvetica,sans-Serif" font-size="10.00">Arduino::closeConnection</text>
</a>
</g>
</g>
<!-- Node14&#45;&gt;Node15 -->
<g id="edge18" class="edge">
<title>Node14&#45;&gt;Node15</title>
<path fill="none" stroke="midnightblue" d="M1366.02,-340.32C1340.42,-334.93 1310.42,-328.61 1286.22,-323.52"/>
<polygon fill="midnightblue" stroke="midnightblue" points="1365.45,-343.78 1375.95,-342.41 1366.89,-336.93 1365.45,-343.78"/>
</g>
<!-- Node17 -->
<g id="node17" class="node">
<title>Node17</title>
<g id="a_node17"><a xlink:href="classArduino.html#a8aef269fd3eec3f6ce534f6bca34bec5" target="_top" xlink:title=" ">
<polygon fill="white" stroke="black" points="1185,-342.5 1185,-361.5 1295,-361.5 1295,-342.5 1185,-342.5"/>
<text text-anchor="middle" x="1240" y="-349.5" font-family="Helvetica,sans-Serif" font-size="10.00">Arduino::initSerialPort</text>
</a>
</g>
</g>
<!-- Node14&#45;&gt;Node17 -->
<g id="edge20" class="edge">
<title>Node14&#45;&gt;Node17</title>
<path fill="none" stroke="midnightblue" d="M1360.56,-352C1339.37,-352 1315.76,-352 1295.16,-352"/>
<polygon fill="midnightblue" stroke="midnightblue" points="1360.74,-355.5 1370.74,-352 1360.74,-348.5 1360.74,-355.5"/>
</g>
<!-- Node16 -->
<g id="node16" class="node">
<title>Node16</title>
<g id="a_node16"><a xlink:href="classArduino.html#a71f273d9d856bfe7f07dff4825439574" target="_top" xlink:title=" ">
<polygon fill="white" stroke="black" points="1000,-323.5 1000,-342.5 1124,-342.5 1124,-323.5 1000,-323.5"/>
<text text-anchor="middle" x="1062" y="-330.5" font-family="Helvetica,sans-Serif" font-size="10.00">Arduino::openConnection</text>
</a>
</g>
</g>
<!-- Node15&#45;&gt;Node16 -->
<g id="edge19" class="edge">
<title>Node15&#45;&gt;Node16</title>
<path fill="none" stroke="midnightblue" d="M1166.77,-321.8C1152.63,-323.32 1137.93,-324.91 1124.19,-326.39"/>
<polygon fill="midnightblue" stroke="midnightblue" points="1167.38,-325.25 1176.95,-320.7 1166.63,-318.29 1167.38,-325.25"/>
</g>
<!-- Node17&#45;&gt;Node16 -->
<g id="edge21" class="edge">
<title>Node17&#45;&gt;Node16</title>
<path fill="none" stroke="midnightblue" d="M1174.66,-345.05C1158.16,-343.27 1140.46,-341.36 1124.13,-339.6"/>
<polygon fill="midnightblue" stroke="midnightblue" points="1174.44,-348.55 1184.76,-346.14 1175.19,-341.59 1174.44,-348.55"/>
</g>
<!-- Node18&#45;&gt;Node5 -->
<g id="edge23" class="edge">
<title>Node18&#45;&gt;Node5</title>
<path fill="none" stroke="midnightblue" d="M997.43,-511.82C986.43,-513.17 975.05,-514.57 964.22,-515.9"/>
<polygon fill="midnightblue" stroke="midnightblue" points="997.9,-515.29 1007.4,-510.59 997.04,-508.34 997.9,-515.29"/>
</g>
<!-- Node18&#45;&gt;Node13 -->
<g id="edge24" class="edge">
<title>Node18&#45;&gt;Node13</title>
<path fill="none" stroke="midnightblue" d="M1016.85,-516.69C1011.12,-518.65 1005.38,-520.76 1000,-523 983.29,-529.94 980.51,-534.6 964,-542 897.77,-571.66 879.8,-575.92 811,-599 783.07,-608.37 776.96,-618 747.5,-618 747.5,-618 747.5,-618 318,-618 237.62,-618 144.95,-600.85 92.79,-589.59"/>
<polygon fill="midnightblue" stroke="midnightblue" points="1017.99,-520 1026.41,-513.56 1015.81,-513.35 1017.99,-520"/>
</g>
<!-- Node22 -->
<g id="node22" class="node">
<title>Node22</title>
<g id="a_node22"><a xlink:href="classConnect.html#a8aa2f2923cf9a4c65ff2f483e80f6b3c" target="_top" xlink:title=" ">
<polygon fill="white" stroke="black" points="1191.5,-266.5 1191.5,-285.5 1288.5,-285.5 1288.5,-266.5 1191.5,-266.5"/>
<text text-anchor="middle" x="1240" y="-273.5" font-family="Helvetica,sans-Serif" font-size="10.00">Connect::candump</text>
</a>
</g>
</g>
<!-- Node21&#45;&gt;Node22 -->
<g id="edge29" class="edge">
<title>Node21&#45;&gt;Node22</title>
<path fill="none" stroke="midnightblue" d="M1366.88,-213.37C1363.1,-215.04 1359.43,-216.91 1356,-219 1336.13,-231.11 1340.14,-245.36 1320,-257 1310.47,-262.51 1299.42,-266.42 1288.65,-269.2"/>
<polygon fill="midnightblue" stroke="midnightblue" points="1368.43,-216.52 1376.46,-209.61 1365.88,-210.01 1368.43,-216.52"/>
</g>
<!-- Node23 -->
<g id="node23" class="node">
<title>Node23</title>
<g id="a_node23"><a xlink:href="classConnect.html#a3e6574f386278349587cfefef7e06655" target="_top" xlink:title=" ">
<polygon fill="white" stroke="black" points="1193,-228.5 1193,-247.5 1287,-247.5 1287,-228.5 1193,-228.5"/>
<text text-anchor="middle" x="1240" y="-235.5" font-family="Helvetica,sans-Serif" font-size="10.00">Connect::minicom</text>
</a>
</g>
</g>
<!-- Node21&#45;&gt;Node23 -->
<g id="edge30" class="edge">
<title>Node21&#45;&gt;Node23</title>
<path fill="none" stroke="midnightblue" d="M1366.02,-211.68C1340.42,-217.07 1310.42,-223.39 1286.22,-228.48"/>
<polygon fill="midnightblue" stroke="midnightblue" points="1366.89,-215.07 1375.95,-209.59 1365.45,-208.22 1366.89,-215.07"/>
</g>
<!-- Node24 -->
<g id="node24" class="node">
<title>Node24</title>
<g id="a_node24"><a xlink:href="classConnect.html#a948dc7665fc1f05bbbc7169a74833a2b" target="_top" xlink:title=" ">
<polygon fill="white" stroke="black" points="1179.5,-190.5 1179.5,-209.5 1300.5,-209.5 1300.5,-190.5 1179.5,-190.5"/>
<text text-anchor="middle" x="1240" y="-197.5" font-family="Helvetica,sans-Serif" font-size="10.00">Connect::restartDaemon</text>
</a>
</g>
</g>
<!-- Node21&#45;&gt;Node24 -->
<g id="edge31" class="edge">
<title>Node21&#45;&gt;Node24</title>
<path fill="none" stroke="midnightblue" d="M1351.56,-200C1334.71,-200 1316.86,-200 1300.54,-200"/>
<polygon fill="midnightblue" stroke="midnightblue" points="1351.9,-203.5 1361.9,-200 1351.9,-196.5 1351.9,-203.5"/>
</g>
<!-- Node25 -->
<g id="node25" class="node">
<title>Node25</title>
<g id="a_node25"><a xlink:href="classConnect.html#a9b55e94397cb075144482504186f2f38" target="_top" xlink:title=" ">
<polygon fill="white" stroke="black" points="1197,-152.5 1197,-171.5 1283,-171.5 1283,-152.5 1197,-152.5"/>
<text text-anchor="middle" x="1240" y="-159.5" font-family="Helvetica,sans-Serif" font-size="10.00">Connect::update</text>
</a>
</g>
</g>
<!-- Node21&#45;&gt;Node25 -->
<g id="edge32" class="edge">
<title>Node21&#45;&gt;Node25</title>
<path fill="none" stroke="midnightblue" d="M1365.98,-188.31C1339.29,-182.69 1307.81,-176.07 1283.13,-170.87"/>
<polygon fill="midnightblue" stroke="midnightblue" points="1365.45,-191.78 1375.95,-190.41 1366.89,-184.93 1365.45,-191.78"/>
</g>
<!-- Node26&#45;&gt;Node15 -->
<g id="edge34" class="edge">
<title>Node26&#45;&gt;Node15</title>
<path fill="none" stroke="midnightblue" d="M1356.74,-314C1339.26,-314 1320.38,-314 1303.04,-314"/>
<polygon fill="midnightblue" stroke="midnightblue" points="1356.85,-317.5 1366.85,-314 1356.85,-310.5 1356.85,-317.5"/>
</g>
<!-- Node26&#45;&gt;Node17 -->
<g id="edge35" class="edge">
<title>Node26&#45;&gt;Node17</title>
<path fill="none" stroke="midnightblue" d="M1366.02,-325.68C1340.42,-331.07 1310.42,-337.39 1286.22,-342.48"/>
<polygon fill="midnightblue" stroke="midnightblue" points="1366.89,-329.07 1375.95,-323.59 1365.45,-322.22 1366.89,-329.07"/>
</g>
<!-- Node28 -->
<g id="node28" class="node">
<title>Node28</title>
<g id="a_node28"><a xlink:href="classConnect.html#a063e2d295a906d264f8fce37b7b17120" target="_top" xlink:title=" ">
<polygon fill="white" stroke="black" points="1160,-114.5 1160,-133.5 1320,-133.5 1320,-114.5 1160,-114.5"/>
<text text-anchor="middle" x="1240" y="-121.5" font-family="Helvetica,sans-Serif" font-size="10.00">Connect::changefolderpermission</text>
</a>
</g>
</g>
<!-- Node27&#45;&gt;Node28 -->
<g id="edge37" class="edge">
<title>Node27&#45;&gt;Node28</title>
<path fill="none" stroke="midnightblue" d="M1370.25,-151.21C1343.82,-145.65 1311.86,-138.92 1286.33,-133.54"/>
<polygon fill="midnightblue" stroke="midnightblue" points="1369.58,-154.65 1380.09,-153.28 1371.03,-147.8 1369.58,-154.65"/>
</g>
<!-- Node27&#45;&gt;Node29 -->
<g id="edge38" class="edge">
<title>Node27&#45;&gt;Node29</title>
<path fill="none" stroke="midnightblue" d="M1378.13,-148.84C1370.51,-145.77 1362.84,-142.16 1356,-138 1337.46,-126.72 1339.16,-115.2 1320,-105 1311.28,-100.36 1301.43,-96.84 1291.7,-94.17"/>
<polygon fill="midnightblue" stroke="midnightblue" points="1377.1,-152.19 1387.69,-152.44 1379.57,-145.64 1377.1,-152.19"/>
</g>
<!-- Node34 -->
<g id="node34" class="node">
<title>Node34</title>
<g id="a_node34"><a xlink:href="classApexi.html#a9ed7e794f2566b72a448e341233985eb" target="_top" xlink:title=" ">
<polygon fill="white" stroke="black" points="1189,-418.5 1189,-437.5 1291,-437.5 1291,-418.5 1189,-418.5"/>
<text text-anchor="middle" x="1240" y="-425.5" font-family="Helvetica,sans-Serif" font-size="10.00">Apexi::sendRequest</text>
</a>
</g>
</g>
<!-- Node33&#45;&gt;Node34 -->
<g id="edge44" class="edge">
<title>Node33&#45;&gt;Node34</title>
<path fill="none" stroke="midnightblue" d="M1351.36,-428C1331.29,-428 1309.83,-428 1291.21,-428"/>
<polygon fill="midnightblue" stroke="midnightblue" points="1351.4,-431.5 1361.4,-428 1351.4,-424.5 1351.4,-431.5"/>
</g>
<!-- Node34&#45;&gt;Node7 -->
<g id="edge47" class="edge">
<title>Node34&#45;&gt;Node7</title>
<path fill="none" stroke="midnightblue" d="M1178.61,-425.67C1082.84,-421.96 897.45,-414.8 804.11,-411.19"/>
<polygon fill="midnightblue" stroke="midnightblue" points="1178.58,-429.17 1188.71,-426.06 1178.85,-422.17 1178.58,-429.17"/>
</g>
<!-- Node34&#45;&gt;Node11 -->
<g id="edge45" class="edge">
<title>Node34&#45;&gt;Node11</title>
<path fill="none" stroke="midnightblue" d="M1178.76,-432.98C1006.05,-447.26 512.01,-488.12 363.04,-500.44"/>
<polygon fill="midnightblue" stroke="midnightblue" points="1179.26,-436.45 1188.94,-432.14 1178.68,-429.48 1179.26,-436.45"/>
</g>
<!-- Node34&#45;&gt;Node18 -->
<g id="edge46" class="edge">
<title>Node34&#45;&gt;Node18</title>
<path fill="none" stroke="midnightblue" d="M1187.57,-440.63C1178.16,-443.77 1168.6,-447.55 1160,-452 1142,-461.32 1141.61,-469.96 1124,-480 1114.11,-485.63 1102.64,-490.53 1092.33,-494.4"/>
<polygon fill="midnightblue" stroke="midnightblue" points="1188.79,-443.91 1197.28,-437.58 1186.7,-437.24 1188.79,-443.91"/>
</g>
</g>
</svg>
        <g id="navigator" transform="translate(0 0)" fill="#404254">
                <rect fill="#f2f5e9" fill-opacity="0.5" stroke="#606060" stroke-width=".5" x="0" y="0" width="60" height="60"/>
                <use id="zoomplus" xlink:href="#zoomPlus" x="17" y="9" onmousedown="handleZoom(evt,'in')"/>
                <use id="zoomminus" xlink:href="#zoomMin" x="42" y="9" onmousedown="handleZoom(evt,'out')"/>
                <use id="reset" xlink:href="#resetDef" x="30" y="36" onmousedown="handleReset()"/>
                <g id="arrowUp" xlink:href="#dirArrow" transform="translate(30 24)" onmousedown="handlePan(0,-1)">
                  <use xlink:href="#rim" fill="#404040">
                        <set attributeName="fill" to="#808080" begin="arrowUp.mouseover" end="arrowUp.mouseout"/>
                  </use>
                  <path fill="none" stroke="white" stroke-width="1.5" d="M0,-3.0v7 M-2.5,-0.5L0,-3.0L2.5,-0.5"/>
                </g>
                <g id="arrowRight" xlink:href="#dirArrow" transform="rotate(90) translate(36 -43)" onmousedown="handlePan(1,0)">
                  <use xlink:href="#rim" fill="#404040">
                        <set attributeName="fill" to="#808080" begin="arrowRight.mouseover" end="arrowRight.mouseout"/>
                  </use>
                  <path fill="none" stroke="white" stroke-width="1.5" d="M0,-3.0v7 M-2.5,-0.5L0,-3.0L2.5,-0.5"/>
                </g>
                <g id="arrowDown" xlink:href="#dirArrow" transform="rotate(180) translate(-30 -48)" onmousedown="handlePan(0,1)">
                  <use xlink:href="#rim" fill="#404040">
                        <set attributeName="fill" to="#808080" begin="arrowDown.mouseover" end="arrowDown.mouseout"/>
                  </use>
                  <path fill="none" stroke="white" stroke-width="1.5" d="M0,-3.0v7 M-2.5,-0.5L0,-3.0L2.5,-0.5"/>
                </g>
                <g id="arrowLeft" xlink:href="#dirArrow" transform="rotate(270) translate(-36 17)" onmousedown="handlePan(-1,0)">
                  <use xlink:href="#rim" fill="#404040">
                        <set attributeName="fill" to="#808080" begin="arrowLeft.mouseover" end="arrowLeft.mouseout"/>
                  </use>
                  <path fill="none" stroke="white" stroke-width="1.5" d="M0,-3.0v7 M-2.5,-0.5L0,-3.0L2.5,-0.5"/>
                </g>
        </g>
        <svg viewBox="0 0 15 15" width="100%" height="30px" preserveAspectRatio="xMaxYMin meet">
         <g id="arrow_out" transform="scale(0.3 0.3)">
          <a xlink:href="classDashBoard_a88ccfd8d6f9b2b5796385e51ad96cc79_icgraph_org.svg" target="_base">
           <rect id="button" ry="5" rx="5" y="6" x="6" height="38" width="38"
                fill="#f2f5e9" fill-opacity="0.5" stroke="#606060" stroke-width="1.0"/>
           <path id="arrow"
             d="M 11.500037,31.436501 C 11.940474,20.09759 22.043105,11.32322 32.158766,21.979434 L 37.068811,17.246167 C 37.068811,17.246167 37.088388,32 37.088388,32 L 22.160133,31.978069 C 22.160133,31.978069 26.997745,27.140456 26.997745,27.140456 C 18.528582,18.264221 13.291696,25.230495 11.500037,31.436501 z"
             style="fill:#404040;"/>
          </a>
         </g>
        </svg>
</svg>
