<?xml version="1.0" encoding="UTF-8" standalone="no"?>
<!DOCTYPE svg PUBLIC "-//W3C//DTD SVG 1.1//EN"
 "http://www.w3.org/Graphics/SVG/1.1/DTD/svg11.dtd">
<!-- Generated by graphviz version 2.49.3 (20211027.1534)
 -->
<!-- Title: GPS::processGPRMC Pages: 1 -->
<svg width="467pt" height="313pt"
 viewBox="0.00 0.00 467.00 313.00" xmlns="http://www.w3.org/2000/svg" xmlns:xlink="http://www.w3.org/1999/xlink">
<g id="graph0" class="graph" transform="scale(1 1) rotate(0) translate(4 309)">
<title>GPS::processGPRMC</title>
<polygon fill="white" stroke="transparent" points="-4,4 -4,-309 463,-309 463,4 -4,4"/>
<!-- Node1 -->
<g id="node1" class="node">
<title>Node1</title>
<g id="a_node1"><a xlink:title=" ">
<polygon fill="#bfbfbf" stroke="black" points="0,-114.5 0,-133.5 113,-133.5 113,-114.5 0,-114.5"/>
<text text-anchor="middle" x="56.5" y="-121.5" font-family="Helvetica,sans-Serif" font-size="10.00">GPS::processGPRMC</text>
</a>
</g>
</g>
<!-- Node2 -->
<g id="node2" class="node">
<title>Node2</title>
<g id="a_node2"><a xlink:href="classGPS.html#a894018a07e73bdc11af81f5db97f6b28" target="_top" xlink:title=" ">
<polygon fill="white" stroke="black" points="168,-228.5 168,-247.5 271,-247.5 271,-228.5 168,-228.5"/>
<text text-anchor="middle" x="219.5" y="-235.5" font-family="Helvetica,sans-Serif" font-size="10.00">GPS::checknewLap</text>
</a>
</g>
</g>
<!-- Node1&#45;&gt;Node2 -->
<g id="edge1" class="edge">
<title>Node1&#45;&gt;Node2</title>
<path fill="none" stroke="midnightblue" d="M64.07,-133.73C77.61,-153.02 110.6,-196.21 149,-219 152.69,-221.19 156.64,-223.13 160.72,-224.86"/>
<polygon fill="midnightblue" stroke="midnightblue" points="159.79,-228.25 170.38,-228.5 162.26,-221.7 159.79,-228.25"/>
</g>
<!-- Node7 -->
<g id="node7" class="node">
<title>Node7</title>
<g id="a_node7"><a xlink:href="classGPS.html#a75bada3072c3235ae1d076d5ce002175" target="_top" xlink:title=" ">
<polygon fill="white" stroke="black" points="159,-190.5 159,-209.5 280,-209.5 280,-190.5 159,-190.5"/>
<text text-anchor="middle" x="219.5" y="-197.5" font-family="Helvetica,sans-Serif" font-size="10.00">GPS::convertToDecimal</text>
</a>
</g>
</g>
<!-- Node1&#45;&gt;Node7 -->
<g id="edge6" class="edge">
<title>Node1&#45;&gt;Node7</title>
<path fill="none" stroke="midnightblue" d="M70.17,-133.57C87.25,-146.06 118.99,-167.88 149,-181 154.43,-183.37 160.24,-185.52 166.09,-187.44"/>
<polygon fill="midnightblue" stroke="midnightblue" points="165.34,-190.87 175.93,-190.47 167.39,-184.18 165.34,-190.87"/>
</g>
<!-- Node8 -->
<g id="node8" class="node">
<title>Node8</title>
<g id="a_node8"><a xlink:href="classDashBoard.html#a7efb6b0a187fa08bf3543c8ce0d40738" target="_top" xlink:title=" ">
<polygon fill="white" stroke="black" points="154.5,-152.5 154.5,-171.5 284.5,-171.5 284.5,-152.5 154.5,-152.5"/>
<text text-anchor="middle" x="219.5" y="-159.5" font-family="Helvetica,sans-Serif" font-size="10.00">DashBoard::setgpsbearing</text>
</a>
</g>
</g>
<!-- Node1&#45;&gt;Node8 -->
<g id="edge7" class="edge">
<title>Node1&#45;&gt;Node8</title>
<path fill="none" stroke="midnightblue" d="M98.13,-133.59C119.47,-138.63 145.81,-144.84 168.41,-150.18"/>
<polygon fill="midnightblue" stroke="midnightblue" points="167.63,-153.59 178.17,-152.48 169.24,-146.78 167.63,-153.59"/>
</g>
<!-- Node9 -->
<g id="node9" class="node">
<title>Node9</title>
<g id="a_node9"><a xlink:href="classDashBoard.html#a13f7ff18107138daa6618a4564e935be" target="_top" xlink:title=" ">
<polygon fill="white" stroke="black" points="152.5,-114.5 152.5,-133.5 286.5,-133.5 286.5,-114.5 152.5,-114.5"/>
<text text-anchor="middle" x="219.5" y="-121.5" font-family="Helvetica,sans-Serif" font-size="10.00">DashBoard::setgpsLatitude</text>
</a>
</g>
</g>
<!-- Node1&#45;&gt;Node9 -->
<g id="edge8" class="edge">
<title>Node1&#45;&gt;Node9</title>
<path fill="none" stroke="midnightblue" d="M113.36,-124C122.73,-124 132.59,-124 142.37,-124"/>
<polygon fill="midnightblue" stroke="midnightblue" points="142.5,-127.5 152.5,-124 142.5,-120.5 142.5,-127.5"/>
</g>
<!-- Node10 -->
<g id="node10" class="node">
<title>Node10</title>
<g id="a_node10"><a xlink:href="classDashBoard.html#a32b0f4d9b9cdbecb02c96c9e814f0114" target="_top" xlink:title=" ">
<polygon fill="white" stroke="black" points="149,-76.5 149,-95.5 290,-95.5 290,-76.5 149,-76.5"/>
<text text-anchor="middle" x="219.5" y="-83.5" font-family="Helvetica,sans-Serif" font-size="10.00">DashBoard::setgpsLongitude</text>
</a>
</g>
</g>
<!-- Node1&#45;&gt;Node10 -->
<g id="edge9" class="edge">
<title>Node1&#45;&gt;Node10</title>
<path fill="none" stroke="midnightblue" d="M98.13,-114.41C119.47,-109.37 145.81,-103.16 168.41,-97.82"/>
<polygon fill="midnightblue" stroke="midnightblue" points="169.24,-101.22 178.17,-95.52 167.63,-94.41 169.24,-101.22"/>
</g>
<!-- Node11 -->
<g id="node11" class="node">
<title>Node11</title>
<g id="a_node11"><a xlink:href="classDashBoard.html#a16ed8cfba91338bea76b8ab5acd2a1c2" target="_top" xlink:title=" ">
<polygon fill="white" stroke="black" points="156.5,-38.5 156.5,-57.5 282.5,-57.5 282.5,-38.5 156.5,-38.5"/>
<text text-anchor="middle" x="219.5" y="-45.5" font-family="Helvetica,sans-Serif" font-size="10.00">DashBoard::setgpsSpeed</text>
</a>
</g>
</g>
<!-- Node1&#45;&gt;Node11 -->
<g id="edge10" class="edge">
<title>Node1&#45;&gt;Node11</title>
<path fill="none" stroke="midnightblue" d="M70.17,-114.43C87.25,-101.94 118.99,-80.12 149,-67 154.43,-64.63 160.24,-62.48 166.09,-60.56"/>
<polygon fill="midnightblue" stroke="midnightblue" points="167.39,-63.82 175.93,-57.53 165.34,-57.13 167.39,-63.82"/>
</g>
<!-- Node12 -->
<g id="node12" class="node">
<title>Node12</title>
<g id="a_node12"><a xlink:href="classDashBoard.html#ae93b793d4f4bd43d954cc08ccb8431e4" target="_top" xlink:title=" ">
<polygon fill="white" stroke="black" points="159.5,-0.5 159.5,-19.5 279.5,-19.5 279.5,-0.5 159.5,-0.5"/>
<text text-anchor="middle" x="219.5" y="-7.5" font-family="Helvetica,sans-Serif" font-size="10.00">DashBoard::setgpsTime</text>
</a>
</g>
</g>
<!-- Node1&#45;&gt;Node12 -->
<g id="edge11" class="edge">
<title>Node1&#45;&gt;Node12</title>
<path fill="none" stroke="midnightblue" d="M64.07,-114.27C77.61,-94.98 110.6,-51.79 149,-29 152.69,-26.81 156.64,-24.87 160.72,-23.14"/>
<polygon fill="midnightblue" stroke="midnightblue" points="162.26,-26.3 170.38,-19.5 159.79,-19.75 162.26,-26.3"/>
</g>
<!-- Node3 -->
<g id="node3" class="node">
<title>Node3</title>
<g id="a_node3"><a xlink:href="gps_8cpp.html#a356f47852da8a45bf4dd9944e08b7d3e" target="_top" xlink:title=" ">
<polygon fill="white" stroke="black" points="363,-285.5 363,-304.5 422,-304.5 422,-285.5 363,-285.5"/>
<text text-anchor="middle" x="392.5" y="-292.5" font-family="Helvetica,sans-Serif" font-size="10.00">fastestlap</text>
</a>
</g>
</g>
<!-- Node2&#45;&gt;Node3 -->
<g id="edge2" class="edge">
<title>Node2&#45;&gt;Node3</title>
<path fill="none" stroke="midnightblue" d="M245.5,-247.51C266.78,-255.48 298.23,-266.98 326,-276 334.67,-278.82 344.06,-281.66 352.94,-284.25"/>
<polygon fill="midnightblue" stroke="midnightblue" points="352.11,-287.66 362.68,-287.07 354.05,-280.93 352.11,-287.66"/>
</g>
<!-- Node4 -->
<g id="node4" class="node">
<title>Node4</title>
<g id="a_node4"><a xlink:href="classDashBoard.html#ae5d69bcab58e2e497902387d03cc9146" target="_top" xlink:title=" ">
<polygon fill="white" stroke="black" points="326,-247.5 326,-266.5 459,-266.5 459,-247.5 326,-247.5"/>
<text text-anchor="middle" x="392.5" y="-254.5" font-family="Helvetica,sans-Serif" font-size="10.00">DashBoard::setbestlaptime</text>
</a>
</g>
</g>
<!-- Node2&#45;&gt;Node4 -->
<g id="edge3" class="edge">
<title>Node2&#45;&gt;Node4</title>
<path fill="none" stroke="midnightblue" d="M271.34,-243.65C285.26,-245.2 300.65,-246.91 315.65,-248.57"/>
<polygon fill="midnightblue" stroke="midnightblue" points="315.61,-252.09 325.94,-249.72 316.39,-245.13 315.61,-252.09"/>
</g>
<!-- Node5 -->
<g id="node5" class="node">
<title>Node5</title>
<g id="a_node5"><a xlink:href="classDashBoard.html#af147e933576adcd81892aca4e74df784" target="_top" xlink:title=" ">
<polygon fill="white" stroke="black" points="328,-209.5 328,-228.5 457,-228.5 457,-209.5 328,-209.5"/>
<text text-anchor="middle" x="392.5" y="-216.5" font-family="Helvetica,sans-Serif" font-size="10.00">DashBoard::setcurrentLap</text>
</a>
</g>
</g>
<!-- Node2&#45;&gt;Node5 -->
<g id="edge4" class="edge">
<title>Node2&#45;&gt;Node5</title>
<path fill="none" stroke="midnightblue" d="M271.34,-232.35C285.88,-230.74 302.02,-228.94 317.64,-227.21"/>
<polygon fill="midnightblue" stroke="midnightblue" points="318.25,-230.66 327.81,-226.08 317.48,-223.7 318.25,-230.66"/>
</g>
<!-- Node6 -->
<g id="node6" class="node">
<title>Node6</title>
<g id="a_node6"><a xlink:href="classDashBoard.html#a023ed00fbd93bad06e98426b7583022c" target="_top" xlink:title=" ">
<polygon fill="white" stroke="black" points="335.5,-171.5 335.5,-190.5 449.5,-190.5 449.5,-171.5 335.5,-171.5"/>
<text text-anchor="middle" x="392.5" y="-178.5" font-family="Helvetica,sans-Serif" font-size="10.00">DashBoard::setlaptime</text>
</a>
</g>
</g>
<!-- Node2&#45;&gt;Node6 -->
<g id="edge5" class="edge">
<title>Node2&#45;&gt;Node6</title>
<path fill="none" stroke="midnightblue" d="M261.41,-228.42C270.93,-225.75 280.93,-222.58 290,-219 306.83,-212.35 309.23,-206.78 326,-200 331.76,-197.67 337.92,-195.5 344.06,-193.52"/>
<polygon fill="midnightblue" stroke="midnightblue" points="345.12,-196.85 353.64,-190.56 343.06,-190.16 345.12,-196.85"/>
</g>
</g>
</svg>
