<?xml version="1.0" encoding="UTF-8" standalone="no"?>
<!DOCTYPE svg PUBLIC "-//W3C//DTD SVG 1.1//EN"
 "http://www.w3.org/Graphics/SVG/1.1/DTD/svg11.dtd">
<!-- Generated by graphviz version 2.49.3 (20211027.1534)
 -->
<!-- Title: DashBoard::RPMFrequencyDividerDi1Changed Pages: 1 -->
<svg width="686pt" height="88pt"
 viewBox="0.00 0.00 686.00 88.00" xmlns="http://www.w3.org/2000/svg" xmlns:xlink="http://www.w3.org/1999/xlink">
<g id="graph0" class="graph" transform="scale(1 1) rotate(0) translate(4 84)">
<title>DashBoard::RPMFrequencyDividerDi1Changed</title>
<polygon fill="white" stroke="transparent" points="-4,4 -4,-84 682,-84 682,4 -4,4"/>
<!-- Node1 -->
<g id="node1" class="node">
<title>Node1</title>
<g id="a_node1"><a xlink:title=" ">
<polygon fill="#bfbfbf" stroke="black" points="512,-24.5 512,-54.5 678,-54.5 678,-24.5 512,-24.5"/>
<text text-anchor="start" x="520" y="-42.5" font-family="Helvetica,sans-Serif" font-size="10.00">DashBoard::RPMFrequencyDivider</text>
<text text-anchor="middle" x="595" y="-31.5" font-family="Helvetica,sans-Serif" font-size="10.00">Di1Changed</text>
</a>
</g>
</g>
<!-- Node2 -->
<g id="node2" class="node">
<title>Node2</title>
<g id="a_node2"><a xlink:href="classDashBoard.html#a3adc999eee780a92ba4ce42796e5a807" target="_top" xlink:title=" ">
<polygon fill="white" stroke="black" points="327,-24.5 327,-54.5 476,-54.5 476,-24.5 327,-24.5"/>
<text text-anchor="start" x="335" y="-42.5" font-family="Helvetica,sans-Serif" font-size="10.00">DashBoard::setRPMFrequency</text>
<text text-anchor="middle" x="401.5" y="-31.5" font-family="Helvetica,sans-Serif" font-size="10.00">DividerDi1</text>
</a>
</g>
</g>
<!-- Node1&#45;&gt;Node2 -->
<g id="edge1" class="edge">
<title>Node1&#45;&gt;Node2</title>
<path fill="none" stroke="midnightblue" d="M501.88,-39.5C493.27,-39.5 484.62,-39.5 476.21,-39.5"/>
<polygon fill="midnightblue" stroke="midnightblue" points="501.95,-43 511.95,-39.5 501.95,-36 501.95,-43"/>
</g>
<!-- Node3 -->
<g id="node3" class="node">
<title>Node3</title>
<g id="a_node3"><a xlink:href="classAppSettings.html#af97c4b73b02f8cf8ef75b11d8f86ac40" target="_top" xlink:title=" ">
<polygon fill="white" stroke="black" points="143.5,-49.5 143.5,-79.5 276.5,-79.5 276.5,-49.5 143.5,-49.5"/>
<text text-anchor="start" x="151.5" y="-67.5" font-family="Helvetica,sans-Serif" font-size="10.00">AppSettings::readandApply</text>
<text text-anchor="middle" x="210" y="-56.5" font-family="Helvetica,sans-Serif" font-size="10.00">Settings</text>
</a>
</g>
</g>
<!-- Node2&#45;&gt;Node3 -->
<g id="edge2" class="edge">
<title>Node2&#45;&gt;Node3</title>
<path fill="none" stroke="midnightblue" d="M316.79,-50.54C303.38,-52.31 289.68,-54.12 276.77,-55.82"/>
<polygon fill="midnightblue" stroke="midnightblue" points="317.51,-53.98 326.96,-49.2 316.59,-47.04 317.51,-53.98"/>
</g>
<!-- Node5 -->
<g id="node5" class="node">
<title>Node5</title>
<g id="a_node5"><a xlink:href="classAppSettings.html#ae8c34c2f3932e8d1d76d26a3551bfb1d" target="_top" xlink:title=" ">
<polygon fill="white" stroke="black" points="129,-0.5 129,-30.5 291,-30.5 291,-0.5 129,-0.5"/>
<text text-anchor="start" x="137" y="-18.5" font-family="Helvetica,sans-Serif" font-size="10.00">AppSettings::writeRPMFrequency</text>
<text text-anchor="middle" x="210" y="-7.5" font-family="Helvetica,sans-Serif" font-size="10.00">Settings</text>
</a>
</g>
</g>
<!-- Node2&#45;&gt;Node5 -->
<g id="edge4" class="edge">
<title>Node2&#45;&gt;Node5</title>
<path fill="none" stroke="midnightblue" d="M316.95,-28.92C308.36,-27.83 299.64,-26.73 291.09,-25.64"/>
<polygon fill="midnightblue" stroke="midnightblue" points="316.6,-32.4 326.96,-30.19 317.48,-25.46 316.6,-32.4"/>
</g>
<!-- Node4 -->
<g id="node4" class="node">
<title>Node4</title>
<g id="a_node4"><a xlink:href="classConnect.html#a2e3bdc883e226b286ee2ea851bf5f551" target="_top" xlink:title=" ">
<polygon fill="white" stroke="black" points="0,-55 0,-74 93,-74 93,-55 0,-55"/>
<text text-anchor="middle" x="46.5" y="-62" font-family="Helvetica,sans-Serif" font-size="10.00">Connect::Connect</text>
</a>
</g>
</g>
<!-- Node3&#45;&gt;Node4 -->
<g id="edge3" class="edge">
<title>Node3&#45;&gt;Node4</title>
<path fill="none" stroke="midnightblue" d="M133.01,-64.5C119.46,-64.5 105.72,-64.5 93.35,-64.5"/>
<polygon fill="midnightblue" stroke="midnightblue" points="133.31,-68 143.31,-64.5 133.31,-61 133.31,-68"/>
</g>
</g>
</svg>
