<?xml version="1.0" encoding="UTF-8" standalone="no"?>
<!DOCTYPE svg PUBLIC "-//W3C//DTD SVG 1.1//EN"
 "http://www.w3.org/Graphics/SVG/1.1/DTD/svg11.dtd">
<!-- Generated by graphviz version 2.49.3 (20211027.1534)
 -->
<!-- Title: Arduino::readyToRead Pages: 1 -->
<svg width="441pt" height="66pt"
 viewBox="0.00 0.00 441.00 66.00" xmlns="http://www.w3.org/2000/svg" xmlns:xlink="http://www.w3.org/1999/xlink">
<g id="graph0" class="graph" transform="scale(1 1) rotate(0) translate(4 62)">
<title>Arduino::readyToRead</title>
<polygon fill="white" stroke="transparent" points="-4,4 -4,-62 437,-62 437,4 -4,4"/>
<!-- Node1 -->
<g id="node1" class="node">
<title>Node1</title>
<g id="a_node1"><a xlink:title=" ">
<polygon fill="#bfbfbf" stroke="black" points="322,-19.5 322,-38.5 433,-38.5 433,-19.5 322,-19.5"/>
<text text-anchor="middle" x="377.5" y="-26.5" font-family="Helvetica,sans-Serif" font-size="10.00">Arduino::readyToRead</text>
</a>
</g>
</g>
<!-- Node2 -->
<g id="node2" class="node">
<title>Node2</title>
<g id="a_node2"><a xlink:href="classArduino.html#a8fcd03a58d456d5e4e1228db8b37ee85" target="_top" xlink:title=" ">
<polygon fill="white" stroke="black" points="160,-38.5 160,-57.5 286,-57.5 286,-38.5 160,-38.5"/>
<text text-anchor="middle" x="223" y="-45.5" font-family="Helvetica,sans-Serif" font-size="10.00">Arduino::closeConnection</text>
</a>
</g>
</g>
<!-- Node1&#45;&gt;Node2 -->
<g id="edge1" class="edge">
<title>Node1&#45;&gt;Node2</title>
<path fill="none" stroke="midnightblue" d="M311.92,-37.05C303.34,-38.12 294.56,-39.21 286.02,-40.27"/>
<polygon fill="midnightblue" stroke="midnightblue" points="312.38,-40.52 321.87,-35.81 311.52,-33.57 312.38,-40.52"/>
</g>
<!-- Node4 -->
<g id="node4" class="node">
<title>Node4</title>
<g id="a_node4"><a xlink:href="classArduino.html#a8aef269fd3eec3f6ce534f6bca34bec5" target="_top" xlink:title=" ">
<polygon fill="white" stroke="black" points="168,-0.5 168,-19.5 278,-19.5 278,-0.5 168,-0.5"/>
<text text-anchor="middle" x="223" y="-7.5" font-family="Helvetica,sans-Serif" font-size="10.00">Arduino::initSerialPort</text>
</a>
</g>
</g>
<!-- Node1&#45;&gt;Node4 -->
<g id="edge3" class="edge">
<title>Node1&#45;&gt;Node4</title>
<path fill="none" stroke="midnightblue" d="M311.75,-20.93C300.59,-19.54 289.09,-18.11 278.24,-16.76"/>
<polygon fill="midnightblue" stroke="midnightblue" points="311.52,-24.43 321.87,-22.19 312.38,-17.48 311.52,-24.43"/>
</g>
<!-- Node3 -->
<g id="node3" class="node">
<title>Node3</title>
<g id="a_node3"><a xlink:href="classArduino.html#a71f273d9d856bfe7f07dff4825439574" target="_top" xlink:title=" ">
<polygon fill="white" stroke="black" points="0,-19.5 0,-38.5 124,-38.5 124,-19.5 0,-19.5"/>
<text text-anchor="middle" x="62" y="-26.5" font-family="Helvetica,sans-Serif" font-size="10.00">Arduino::openConnection</text>
</a>
</g>
</g>
<!-- Node2&#45;&gt;Node3 -->
<g id="edge2" class="edge">
<title>Node2&#45;&gt;Node3</title>
<path fill="none" stroke="midnightblue" d="M149.68,-39.36C141.15,-38.34 132.52,-37.31 124.16,-36.31"/>
<polygon fill="midnightblue" stroke="midnightblue" points="149.27,-42.83 159.62,-40.55 150.1,-35.88 149.27,-42.83"/>
</g>
<!-- Node4&#45;&gt;Node3 -->
<g id="edge4" class="edge">
<title>Node4&#45;&gt;Node3</title>
<path fill="none" stroke="midnightblue" d="M157.69,-17.68C146.61,-19.01 135.12,-20.38 124.13,-21.7"/>
<polygon fill="midnightblue" stroke="midnightblue" points="158.21,-21.15 167.73,-16.49 157.38,-14.2 158.21,-21.15"/>
</g>
</g>
</svg>
