<?xml version="1.0" encoding="UTF-8" standalone="no"?>
<!DOCTYPE svg PUBLIC "-//W3C//DTD SVG 1.1//EN"
 "http://www.w3.org/Graphics/SVG/1.1/DTD/svg11.dtd">
<!-- Generated by graphviz version 2.49.3 (20211027.1534)
 -->
<!-- Title: GPS::handleReconnectTimeout Pages: 1 -->
<svg width="1192pt" height="246pt"
 viewBox="0.00 0.00 1192.00 246.00" xmlns="http://www.w3.org/2000/svg" xmlns:xlink="http://www.w3.org/1999/xlink">
<g id="graph0" class="graph" transform="scale(1 1) rotate(0) translate(4 242)">
<title>GPS::handleReconnectTimeout</title>
<polygon fill="white" stroke="transparent" points="-4,4 -4,-242 1188,-242 1188,4 -4,4"/>
<!-- Node1 -->
<g id="node1" class="node">
<title>Node1</title>
<g id="a_node1"><a xlink:title=" ">
<polygon fill="#bfbfbf" stroke="black" points="1032,-94.5 1032,-113.5 1184,-113.5 1184,-94.5 1032,-94.5"/>
<text text-anchor="middle" x="1108" y="-101.5" font-family="Helvetica,sans-Serif" font-size="10.00">GPS::handleReconnectTimeout</text>
</a>
</g>
</g>
<!-- Node2 -->
<g id="node2" class="node">
<title>Node2</title>
<g id="a_node2"><a xlink:href="classGPS.html#ae4568ef4d5107c96c1af68d1abd33559" target="_top" xlink:title=" ">
<polygon fill="white" stroke="black" points="882,-94.5 882,-113.5 996,-113.5 996,-94.5 882,-94.5"/>
<text text-anchor="middle" x="939" y="-101.5" font-family="Helvetica,sans-Serif" font-size="10.00">GPS::closeConnection</text>
</a>
</g>
</g>
<!-- Node1&#45;&gt;Node2 -->
<g id="edge1" class="edge">
<title>Node1&#45;&gt;Node2</title>
<path fill="none" stroke="midnightblue" d="M1021.69,-97.25C1013.07,-97.26 1004.47,-97.37 996.27,-97.58"/>
<polygon fill="midnightblue" stroke="midnightblue" points="1021.8,-100.75 1031.81,-97.28 1021.82,-93.75 1021.8,-100.75"/>
</g>
<!-- Node4 -->
<g id="node4" class="node">
<title>Node4</title>
<g id="a_node4"><a xlink:href="classGPS.html#a8775edfa08840ffb2647e0e5ba031fe5" target="_top" xlink:title=" ">
<polygon fill="white" stroke="black" points="579,-104.5 579,-123.5 698,-123.5 698,-104.5 579,-104.5"/>
<text text-anchor="middle" x="638.5" y="-111.5" font-family="Helvetica,sans-Serif" font-size="10.00">GPS::closeConnection1</text>
</a>
</g>
</g>
<!-- Node1&#45;&gt;Node4 -->
<g id="edge17" class="edge">
<title>Node1&#45;&gt;Node4</title>
<path fill="none" stroke="midnightblue" d="M1051.69,-92.64C1033.98,-89.51 1014.24,-86.55 996,-85 887.41,-75.77 760.16,-92.83 690.87,-104.46"/>
<polygon fill="midnightblue" stroke="midnightblue" points="1051.39,-96.14 1061.86,-94.49 1052.65,-89.25 1051.39,-96.14"/>
</g>
<!-- Node7 -->
<g id="node7" class="node">
<title>Node7</title>
<g id="a_node7"><a xlink:href="classGPS.html#ac2a7572afb184df9c14ae913f17306bf" target="_top" xlink:title=" ">
<polygon fill="white" stroke="black" points="0,-123.5 0,-142.5 98,-142.5 98,-123.5 0,-123.5"/>
<text text-anchor="middle" x="49" y="-130.5" font-family="Helvetica,sans-Serif" font-size="10.00">GPS::initSerialPort</text>
</a>
</g>
</g>
<!-- Node1&#45;&gt;Node7 -->
<g id="edge18" class="edge">
<title>Node1&#45;&gt;Node7</title>
<path fill="none" stroke="midnightblue" d="M1081.57,-89.46C1029.06,-60.85 904.09,0 791,0 791,0 791,0 327,0 212.84,0 95.98,-92.94 60.7,-123.43"/>
<polygon fill="midnightblue" stroke="midnightblue" points="1080.06,-92.63 1090.51,-94.4 1083.45,-86.5 1080.06,-92.63"/>
</g>
<!-- Node2&#45;&gt;Node1 -->
<g id="edge2" class="edge">
<title>Node2&#45;&gt;Node1</title>
<path fill="none" stroke="midnightblue" d="M1006.33,-110.62C1014.7,-110.75 1023.31,-110.78 1031.81,-110.72"/>
<polygon fill="midnightblue" stroke="midnightblue" points="1006.34,-107.12 996.27,-110.42 1006.2,-114.12 1006.34,-107.12"/>
</g>
<!-- Node3 -->
<g id="node3" class="node">
<title>Node3</title>
<g id="a_node3"><a xlink:href="classGPS.html#a51eaea2422dd980ea0a6d28f12a136de" target="_top" xlink:title=" ">
<polygon fill="white" stroke="black" points="734,-218.5 734,-237.5 846,-237.5 846,-218.5 734,-218.5"/>
<text text-anchor="middle" x="790" y="-225.5" font-family="Helvetica,sans-Serif" font-size="10.00">GPS::openConnection</text>
</a>
</g>
</g>
<!-- Node2&#45;&gt;Node3 -->
<g id="edge3" class="edge">
<title>Node2&#45;&gt;Node3</title>
<path fill="none" stroke="midnightblue" d="M925.28,-121.86C909,-143.67 878.92,-180.53 846,-204 837.86,-209.81 828.09,-214.63 819.05,-218.4"/>
<polygon fill="midnightblue" stroke="midnightblue" points="928.12,-123.92 931.2,-113.78 922.47,-119.78 928.12,-123.92"/>
</g>
<!-- Node3&#45;&gt;Node1 -->
<g id="edge16" class="edge">
<title>Node3&#45;&gt;Node1</title>
<path fill="none" stroke="midnightblue" d="M825.01,-214.66C889.22,-189.46 1026.9,-135.43 1082.73,-113.52"/>
<polygon fill="midnightblue" stroke="midnightblue" points="823.38,-211.53 815.35,-218.44 825.94,-218.05 823.38,-211.53"/>
</g>
<!-- Node3&#45;&gt;Node4 -->
<g id="edge4" class="edge">
<title>Node3&#45;&gt;Node4</title>
<path fill="none" stroke="midnightblue" d="M768.44,-212.32C737.07,-188.4 678.17,-143.49 652.27,-123.74"/>
<polygon fill="midnightblue" stroke="midnightblue" points="766.44,-215.2 776.51,-218.48 770.68,-209.63 766.44,-215.2"/>
</g>
<!-- Node5 -->
<g id="node5" class="node">
<title>Node5</title>
<g id="a_node5"><a xlink:href="classGPS.html#abd750ada6a7b976f72761ce16246ccf6" target="_top" xlink:title=" ">
<polygon fill="white" stroke="black" points="423,-104.5 423,-123.5 543,-123.5 543,-104.5 423,-104.5"/>
<text text-anchor="middle" x="483" y="-111.5" font-family="Helvetica,sans-Serif" font-size="10.00">GPS::setGPSBAUD115</text>
</a>
</g>
</g>
<!-- Node4&#45;&gt;Node5 -->
<g id="edge5" class="edge">
<title>Node4&#45;&gt;Node5</title>
<path fill="none" stroke="midnightblue" d="M568.36,-114C559.89,-114 551.3,-114 543,-114"/>
<polygon fill="midnightblue" stroke="midnightblue" points="568.59,-117.5 578.59,-114 568.59,-110.5 568.59,-117.5"/>
</g>
<!-- Node6 -->
<g id="node6" class="node">
<title>Node6</title>
<g id="a_node6"><a xlink:href="classGPS.html#a1b1c89214229f5dc8ff7e2fa9cbcad35" target="_top" xlink:title=" ">
<polygon fill="white" stroke="black" points="275,-66.5 275,-85.5 381,-85.5 381,-66.5 275,-66.5"/>
<text text-anchor="middle" x="328" y="-73.5" font-family="Helvetica,sans-Serif" font-size="10.00">GPS::handleTimeout</text>
</a>
</g>
</g>
<!-- Node5&#45;&gt;Node6 -->
<g id="edge6" class="edge">
<title>Node5&#45;&gt;Node6</title>
<path fill="none" stroke="midnightblue" d="M433.52,-101.96C412.15,-96.65 387.39,-90.5 367.33,-85.52"/>
<polygon fill="midnightblue" stroke="midnightblue" points="432.84,-105.4 443.39,-104.41 434.53,-98.6 432.84,-105.4"/>
</g>
<!-- Node8 -->
<g id="node8" class="node">
<title>Node8</title>
<g id="a_node8"><a xlink:href="classGPS.html#a217097ae4a846c621f001a5aa1f4fb4f" target="_top" xlink:title=" ">
<polygon fill="white" stroke="black" points="269,-104.5 269,-123.5 387,-123.5 387,-104.5 269,-104.5"/>
<text text-anchor="middle" x="328" y="-111.5" font-family="Helvetica,sans-Serif" font-size="10.00">GPS::ProcessMessage</text>
</a>
</g>
</g>
<!-- Node5&#45;&gt;Node8 -->
<g id="edge11" class="edge">
<title>Node5&#45;&gt;Node8</title>
<path fill="none" stroke="midnightblue" d="M412.6,-114C404.12,-114 395.53,-114 387.24,-114"/>
<polygon fill="midnightblue" stroke="midnightblue" points="412.85,-117.5 422.85,-114 412.85,-110.5 412.85,-117.5"/>
</g>
<!-- Node6&#45;&gt;Node2 -->
<g id="edge7" class="edge">
<title>Node6&#45;&gt;Node2</title>
<path fill="none" stroke="midnightblue" d="M391.58,-76.07C434.26,-76.31 492.06,-77.03 543,-79 663.85,-83.67 805.23,-93.73 881.79,-99.57"/>
<polygon fill="midnightblue" stroke="midnightblue" points="391.36,-72.57 381.35,-76.02 391.33,-79.57 391.36,-72.57"/>
</g>
<!-- Node6&#45;&gt;Node4 -->
<g id="edge8" class="edge">
<title>Node6&#45;&gt;Node4</title>
<path fill="none" stroke="midnightblue" d="M391.07,-79.7C433.9,-82.7 492.08,-87.64 543,-95 560.23,-97.49 579.05,-101.09 595.33,-104.49"/>
<polygon fill="midnightblue" stroke="midnightblue" points="391.29,-76.21 381.08,-79.02 390.81,-83.19 391.29,-76.21"/>
</g>
<!-- Node6&#45;&gt;Node7 -->
<g id="edge9" class="edge">
<title>Node6&#45;&gt;Node7</title>
<path fill="none" stroke="midnightblue" d="M270.7,-87.58C219.4,-98.14 144.51,-113.55 96.51,-123.43"/>
<polygon fill="midnightblue" stroke="midnightblue" points="271.55,-90.98 280.64,-85.54 270.14,-84.13 271.55,-90.98"/>
</g>
<!-- Node7&#45;&gt;Node3 -->
<g id="edge10" class="edge">
<title>Node7&#45;&gt;Node3</title>
<path fill="none" stroke="midnightblue" d="M74.79,-147.74C122.1,-174.42 229.26,-228 327,-228 484,-228 484,-228 484,-228 571.37,-228 672.82,-228 733.9,-228"/>
<polygon fill="midnightblue" stroke="midnightblue" points="76.3,-144.57 65.89,-142.63 72.82,-150.64 76.3,-144.57"/>
</g>
<!-- Node9 -->
<g id="node9" class="node">
<title>Node9</title>
<g id="a_node9"><a xlink:href="classGPS.html#aa0928d156961a54bf06d9b5210d85561" target="_top" xlink:title=" ">
<polygon fill="white" stroke="black" points="134,-133.5 134,-152.5 233,-152.5 233,-133.5 134,-133.5"/>
<text text-anchor="middle" x="183.5" y="-140.5" font-family="Helvetica,sans-Serif" font-size="10.00">GPS::readyToRead</text>
</a>
</g>
</g>
<!-- Node8&#45;&gt;Node9 -->
<g id="edge12" class="edge">
<title>Node8&#45;&gt;Node9</title>
<path fill="none" stroke="midnightblue" d="M269.89,-125.62C257.15,-128.21 243.78,-130.94 231.51,-133.43"/>
<polygon fill="midnightblue" stroke="midnightblue" points="270.84,-129 279.95,-123.58 269.45,-122.14 270.84,-129"/>
</g>
<!-- Node9&#45;&gt;Node2 -->
<g id="edge13" class="edge">
<title>Node9&#45;&gt;Node2</title>
<path fill="none" stroke="midnightblue" d="M230.84,-154.94C289.05,-168.86 392.22,-190 482,-190 639.5,-190 639.5,-190 639.5,-190 748.98,-190 872.53,-135.92 918.99,-113.53"/>
<polygon fill="midnightblue" stroke="midnightblue" points="231.39,-151.47 220.85,-152.51 229.74,-158.27 231.39,-151.47"/>
</g>
<!-- Node9&#45;&gt;Node4 -->
<g id="edge14" class="edge">
<title>Node9&#45;&gt;Node4</title>
<path fill="none" stroke="midnightblue" d="M243.22,-144.42C314.4,-145.44 437.89,-144.94 543,-133 561.12,-130.94 580.95,-127.19 597.73,-123.56"/>
<polygon fill="midnightblue" stroke="midnightblue" points="243.16,-140.92 233.1,-144.26 243.05,-147.92 243.16,-140.92"/>
</g>
<!-- Node9&#45;&gt;Node7 -->
<g id="edge15" class="edge">
<title>Node9&#45;&gt;Node7</title>
<path fill="none" stroke="midnightblue" d="M123.92,-138.58C115.3,-137.93 106.51,-137.26 98.14,-136.63"/>
<polygon fill="midnightblue" stroke="midnightblue" points="123.68,-142.07 133.91,-139.33 124.21,-135.09 123.68,-142.07"/>
</g>
</g>
</svg>
