<?xml version="1.0" encoding="UTF-8" standalone="no"?>
<!DOCTYPE svg PUBLIC "-//W3C//DTD SVG 1.1//EN"
 "http://www.w3.org/Graphics/SVG/1.1/DTD/svg11.dtd">
<!-- Generated by graphviz version 2.49.3 (20211027.1534)
 -->
<!-- Title: GPS::readyToRead Pages: 1 -->
<!--zoomable 1033 -->
<svg id="main" version="1.1" xmlns="http://www.w3.org/2000/svg" xmlns:xlink="http://www.w3.org/1999/xlink" xml:space="preserve" onload="init(evt)">
<style type="text/css"><![CDATA[
.edge:hover path { stroke: red; }
.edge:hover polygon { stroke: red; fill: red; }
]]></style>
<script type="text/javascript"><![CDATA[
var edges = document.getElementsByTagName('g');
if (edges && edges.length) {
  for (var i=0;i<edges.length;i++) {
    if (edges[i].id.substr(0,4)=='edge') {
      edges[i].setAttribute('class','edge');
    }
  }
}
]]></script>
        <defs>
                <circle id="rim" cx="0" cy="0" r="7"/>
                <circle id="rim2" cx="0" cy="0" r="3.5"/>
                <g id="zoomPlus">
                        <use xlink:href="#rim" fill="#404040">
                                <set attributeName="fill" to="#808080" begin="zoomplus.mouseover" end="zoomplus.mouseout"/>
                        </use>
                        <path d="M-4,0h8M0,-4v8" fill="none" stroke="white" stroke-width="1.5" pointer-events="none"/>
                </g>
                <g id="zoomMin">
                        <use xlink:href="#rim" fill="#404040">
                                <set attributeName="fill" to="#808080" begin="zoomminus.mouseover" end="zoomminus.mouseout"/>
                        </use>
                        <path d="M-4,0h8" fill="none" stroke="white" stroke-width="1.5" pointer-events="none"/>
                </g>
                <g id="dirArrow">
                        <path fill="none" stroke="white" stroke-width="1.5" d="M0,-3.0v7 M-2.5,-0.5L0,-3.0L2.5,-0.5"/>
                </g>
               <g id="resetDef">
                       <use xlink:href="#rim2" fill="#404040">
                               <set attributeName="fill" to="#808080" begin="reset.mouseover" end="reset.mouseout"/>
                       </use>
               </g>
        </defs>

<script type="text/javascript">
var viewWidth = 1271;
var viewHeight = 1033;
var sectionId = 'dynsection-26';
</script>
<script xlink:href="svgpan.js"/>
<svg id="graph" class="graph">
<g id="viewport">
<title>GPS::readyToRead</title>
<polygon fill="white" stroke="transparent" points="-4,4 -4,-1028.68 1267,-1028.68 1267,4 -4,4"/>
<!-- Node1 -->
<g id="node1" class="node">
<title>Node1</title>
<g id="a_node1"><a xlink:title=" ">
<polygon fill="#bfbfbf" stroke="black" points="0,-296.09 0,-315.09 99,-315.09 99,-296.09 0,-296.09"/>
<text text-anchor="middle" x="49.5" y="-303.09" font-family="Helvetica,sans-Serif" font-size="10.00">GPS::readyToRead</text>
</a>
</g>
</g>
<!-- Node2 -->
<g id="node2" class="node">
<title>Node2</title>
<g id="a_node2"><a xlink:href="classGPS.html#a217097ae4a846c621f001a5aa1f4fb4f" target="_top" xlink:title=" ">
<polygon fill="white" stroke="black" points="135,-773.09 135,-792.09 253,-792.09 253,-773.09 135,-773.09"/>
<text text-anchor="middle" x="194" y="-780.09" font-family="Helvetica,sans-Serif" font-size="10.00">GPS::ProcessMessage</text>
</a>
</g>
</g>
<!-- Node1&#45;&gt;Node2 -->
<g id="edge1" class="edge">
<title>Node1&#45;&gt;Node2</title>
<path fill="none" stroke="midnightblue" d="M53.35,-315.12C70.77,-373.43 163.04,-682.3 187.2,-763.19"/>
<polygon fill="midnightblue" stroke="midnightblue" points="183.93,-764.46 190.15,-773.04 190.64,-762.46 183.93,-764.46"/>
</g>
<!-- Node3 -->
<g id="node3" class="node">
<title>Node3</title>
<g id="a_node3"><a xlink:href="classGPS.html#a20f1883fa42ff859903a07444ac15628" target="_top" xlink:title=" ">
<polygon fill="white" stroke="black" points="308.5,-840.09 308.5,-859.09 391.5,-859.09 391.5,-840.09 308.5,-840.09"/>
<text text-anchor="middle" x="350" y="-847.09" font-family="Helvetica,sans-Serif" font-size="10.00">GPS::logNMEA</text>
</a>
</g>
</g>
<!-- Node2&#45;&gt;Node3 -->
<g id="edge2" class="edge">
<title>Node2&#45;&gt;Node3</title>
<path fill="none" stroke="midnightblue" d="M211.59,-792.12C230.06,-802.49 261.03,-819.11 289,-830.59 294.37,-832.8 300.11,-834.9 305.81,-836.86"/>
<polygon fill="midnightblue" stroke="midnightblue" points="304.73,-840.19 315.33,-840 306.93,-833.54 304.73,-840.19"/>
</g>
<!-- Node4 -->
<g id="node4" class="node">
<title>Node4</title>
<g id="a_node4"><a xlink:href="classGPS.html#a6fbf5e49f6a05b056835666f2e1cb830" target="_top" xlink:title=" ">
<polygon fill="white" stroke="black" points="293.5,-593.09 293.5,-612.09 406.5,-612.09 406.5,-593.09 293.5,-593.09"/>
<text text-anchor="middle" x="350" y="-600.09" font-family="Helvetica,sans-Serif" font-size="10.00">GPS::processGPGGA</text>
</a>
</g>
</g>
<!-- Node2&#45;&gt;Node4 -->
<g id="edge3" class="edge">
<title>Node2&#45;&gt;Node4</title>
<path fill="none" stroke="midnightblue" d="M203.28,-772.91C228.03,-743.98 301.75,-657.82 333.82,-620.34"/>
<polygon fill="midnightblue" stroke="midnightblue" points="336.84,-622.19 340.68,-612.32 331.52,-617.64 336.84,-622.19"/>
</g>
<!-- Node12 -->
<g id="node12" class="node">
<title>Node12</title>
<g id="a_node12"><a xlink:href="classDashBoard.html#acd9bb1ec108194ecb9d451b430275922" target="_top" xlink:title=" ">
<polygon fill="white" stroke="black" points="1131,-391.09 1131,-410.09 1263,-410.09 1263,-391.09 1131,-391.09"/>
<text text-anchor="middle" x="1197" y="-398.09" font-family="Helvetica,sans-Serif" font-size="10.00">DashBoard::setgpsFIXtype</text>
</a>
</g>
</g>
<!-- Node2&#45;&gt;Node12 -->
<g id="edge55" class="edge">
<title>Node2&#45;&gt;Node12</title>
<path fill="none" stroke="midnightblue" d="M203.11,-792.18C218.31,-809.62 252.84,-846.74 289,-868.59 380.24,-923.73 409.9,-944.59 516.5,-944.59 516.5,-944.59 516.5,-944.59 851,-944.59 981.66,-944.59 1019.14,-886.98 1095,-780.59 1178.78,-663.09 1193.07,-480.51 1195.5,-420.47"/>
<polygon fill="midnightblue" stroke="midnightblue" points="1199.01,-420.26 1195.85,-410.15 1192.01,-420.03 1199.01,-420.26"/>
</g>
<!-- Node17 -->
<g id="node17" class="node">
<title>Node17</title>
<g id="a_node17"><a xlink:href="classGPS.html#a9f0cacdc6f30465399f19ccb19edde1a" target="_top" xlink:title=" ">
<polygon fill="white" stroke="black" points="293.5,-726.09 293.5,-745.09 406.5,-745.09 406.5,-726.09 293.5,-726.09"/>
<text text-anchor="middle" x="350" y="-733.09" font-family="Helvetica,sans-Serif" font-size="10.00">GPS::processGPRMC</text>
</a>
</g>
</g>
<!-- Node2&#45;&gt;Node17 -->
<g id="edge16" class="edge">
<title>Node2&#45;&gt;Node17</title>
<path fill="none" stroke="midnightblue" d="M226.16,-773.08C249.67,-765.9 282.15,-755.99 307.8,-748.16"/>
<polygon fill="midnightblue" stroke="midnightblue" points="309.08,-751.43 317.62,-745.17 307.03,-744.74 309.08,-751.43"/>
</g>
<!-- Node21 -->
<g id="node21" class="node">
<title>Node21</title>
<g id="a_node21"><a xlink:href="classGPS.html#a125284d30c7901ba52ed190e519bc3b2" target="_top" xlink:title=" ">
<polygon fill="white" stroke="black" points="289,-802.09 289,-821.09 411,-821.09 411,-802.09 289,-802.09"/>
<text text-anchor="middle" x="350" y="-809.09" font-family="Helvetica,sans-Serif" font-size="10.00">GPS::removeNMEAmsg</text>
</a>
</g>
</g>
<!-- Node2&#45;&gt;Node21 -->
<g id="edge24" class="edge">
<title>Node2&#45;&gt;Node21</title>
<path fill="none" stroke="midnightblue" d="M245.85,-792.17C259.46,-794.73 274.3,-797.52 288.38,-800.17"/>
<polygon fill="midnightblue" stroke="midnightblue" points="287.99,-803.66 298.46,-802.07 289.28,-796.78 287.99,-803.66"/>
</g>
<!-- Node23 -->
<g id="node23" class="node">
<title>Node23</title>
<g id="a_node23"><a xlink:href="classGPS.html#a052c61711107964bbde54f86edb110ff" target="_top" xlink:title=" ">
<polygon fill="white" stroke="black" points="799.5,-973.09 799.5,-992.09 900.5,-992.09 900.5,-973.09 799.5,-973.09"/>
<text text-anchor="middle" x="850" y="-980.09" font-family="Helvetica,sans-Serif" font-size="10.00">GPS::setGPS10HZ</text>
</a>
</g>
</g>
<!-- Node2&#45;&gt;Node23 -->
<g id="edge27" class="edge">
<title>Node2&#45;&gt;Node23</title>
<path fill="none" stroke="midnightblue" d="M196.78,-792.49C202.95,-823.55 226.55,-919.3 289,-958.59 453.64,-1062.17 702.58,-1018.63 803.81,-994.57"/>
<polygon fill="midnightblue" stroke="midnightblue" points="804.81,-997.92 813.7,-992.16 803.16,-991.12 804.81,-997.92"/>
</g>
<!-- Node24 -->
<g id="node24" class="node">
<title>Node24</title>
<g id="a_node24"><a xlink:href="classGPS.html#abd750ada6a7b976f72761ce16246ccf6" target="_top" xlink:title=" ">
<polygon fill="white" stroke="black" points="290,-372.09 290,-391.09 410,-391.09 410,-372.09 290,-372.09"/>
<text text-anchor="middle" x="350" y="-379.09" font-family="Helvetica,sans-Serif" font-size="10.00">GPS::setGPSBAUD115</text>
</a>
</g>
</g>
<!-- Node2&#45;&gt;Node24 -->
<g id="edge29" class="edge">
<title>Node2&#45;&gt;Node24</title>
<path fill="none" stroke="midnightblue" d="M198.65,-773.07C218.58,-721.18 314.25,-472.08 341.65,-400.73"/>
<polygon fill="midnightblue" stroke="midnightblue" points="344.99,-401.79 345.31,-391.2 338.46,-399.28 344.99,-401.79"/>
</g>
<!-- Node5 -->
<g id="node5" class="node">
<title>Node5</title>
<g id="a_node5"><a xlink:href="classGPS.html#a894018a07e73bdc11af81f5db97f6b28" target="_top" xlink:title=" ">
<polygon fill="white" stroke="black" points="466,-593.09 466,-612.09 569,-612.09 569,-593.09 466,-593.09"/>
<text text-anchor="middle" x="517.5" y="-600.09" font-family="Helvetica,sans-Serif" font-size="10.00">GPS::checknewLap</text>
</a>
</g>
</g>
<!-- Node4&#45;&gt;Node5 -->
<g id="edge4" class="edge">
<title>Node4&#45;&gt;Node5</title>
<path fill="none" stroke="midnightblue" d="M406.57,-602.59C422.28,-602.59 439.47,-602.59 455.49,-602.59"/>
<polygon fill="midnightblue" stroke="midnightblue" points="455.81,-606.09 465.81,-602.59 455.81,-599.09 455.81,-606.09"/>
</g>
<!-- Node10 -->
<g id="node10" class="node">
<title>Node10</title>
<g id="a_node10"><a xlink:href="classGPS.html#a75bada3072c3235ae1d076d5ce002175" target="_top" xlink:title=" ">
<polygon fill="white" stroke="black" points="457,-707.09 457,-726.09 578,-726.09 578,-707.09 457,-707.09"/>
<text text-anchor="middle" x="517.5" y="-714.09" font-family="Helvetica,sans-Serif" font-size="10.00">GPS::convertToDecimal</text>
</a>
</g>
</g>
<!-- Node4&#45;&gt;Node10 -->
<g id="edge9" class="edge">
<title>Node4&#45;&gt;Node10</title>
<path fill="none" stroke="midnightblue" d="M358.01,-612.31C372.43,-631.58 407.4,-674.73 447,-697.59 450.88,-699.83 455.04,-701.82 459.32,-703.58"/>
<polygon fill="midnightblue" stroke="midnightblue" points="458.23,-706.91 468.83,-707.07 460.65,-700.34 458.23,-706.91"/>
</g>
<!-- Node11 -->
<g id="node11" class="node">
<title>Node11</title>
<g id="a_node11"><a xlink:href="classDashBoard.html#a998569aa565c0a5a872810160266f681" target="_top" xlink:title=" ">
<polygon fill="white" stroke="black" points="452,-467.09 452,-486.09 583,-486.09 583,-467.09 452,-467.09"/>
<text text-anchor="middle" x="517.5" y="-474.09" font-family="Helvetica,sans-Serif" font-size="10.00">DashBoard::setgpsAltitude</text>
</a>
</g>
</g>
<!-- Node4&#45;&gt;Node11 -->
<g id="edge10" class="edge">
<title>Node4&#45;&gt;Node11</title>
<path fill="none" stroke="midnightblue" d="M356.92,-593.05C370.32,-572.28 405.07,-522.73 447,-496.59 451.11,-494.03 455.56,-491.78 460.16,-489.82"/>
<polygon fill="midnightblue" stroke="midnightblue" points="461.63,-493 469.73,-486.17 459.14,-486.46 461.63,-493"/>
</g>
<!-- Node4&#45;&gt;Node12 -->
<g id="edge11" class="edge">
<title>Node4&#45;&gt;Node12</title>
<path fill="none" stroke="midnightblue" d="M354.02,-592.96C363.05,-565.99 392.62,-489.6 447,-457.59 540.16,-402.74 581.39,-438.59 689.5,-438.59 689.5,-438.59 689.5,-438.59 851,-438.59 949.73,-438.59 1063.39,-423.03 1132.44,-411.82"/>
<polygon fill="midnightblue" stroke="midnightblue" points="1133.41,-415.21 1142.71,-410.13 1132.28,-408.3 1133.41,-415.21"/>
</g>
<!-- Node13 -->
<g id="node13" class="node">
<title>Node13</title>
<g id="a_node13"><a xlink:href="classDashBoard.html#a5eb7cceabcdbd62521c9512cba7fbf02" target="_top" xlink:title=" ">
<polygon fill="white" stroke="black" points="454,-555.09 454,-574.09 581,-574.09 581,-555.09 454,-555.09"/>
<text text-anchor="middle" x="517.5" y="-562.09" font-family="Helvetica,sans-Serif" font-size="10.00">DashBoard::setgpsHDOP</text>
</a>
</g>
</g>
<!-- Node4&#45;&gt;Node13 -->
<g id="edge12" class="edge">
<title>Node4&#45;&gt;Node13</title>
<path fill="none" stroke="midnightblue" d="M392.76,-593C414.7,-587.96 441.78,-581.75 465.01,-576.41"/>
<polygon fill="midnightblue" stroke="midnightblue" points="466.07,-579.76 475.04,-574.11 464.51,-572.94 466.07,-579.76"/>
</g>
<!-- Node14 -->
<g id="node14" class="node">
<title>Node14</title>
<g id="a_node14"><a xlink:href="classDashBoard.html#a13f7ff18107138daa6618a4564e935be" target="_top" xlink:title=" ">
<polygon fill="white" stroke="black" points="450.5,-669.09 450.5,-688.09 584.5,-688.09 584.5,-669.09 450.5,-669.09"/>
<text text-anchor="middle" x="517.5" y="-676.09" font-family="Helvetica,sans-Serif" font-size="10.00">DashBoard::setgpsLatitude</text>
</a>
</g>
</g>
<!-- Node4&#45;&gt;Node14 -->
<g id="edge13" class="edge">
<title>Node4&#45;&gt;Node14</title>
<path fill="none" stroke="midnightblue" d="M364.37,-612.12C382.38,-624.57 415.77,-646.34 447,-659.59 452.53,-661.94 458.44,-664.07 464.38,-665.99"/>
<polygon fill="midnightblue" stroke="midnightblue" points="463.77,-669.47 474.35,-669.02 465.8,-662.77 463.77,-669.47"/>
</g>
<!-- Node15 -->
<g id="node15" class="node">
<title>Node15</title>
<g id="a_node15"><a xlink:href="classDashBoard.html#a32b0f4d9b9cdbecb02c96c9e814f0114" target="_top" xlink:title=" ">
<polygon fill="white" stroke="black" points="447,-631.09 447,-650.09 588,-650.09 588,-631.09 447,-631.09"/>
<text text-anchor="middle" x="517.5" y="-638.09" font-family="Helvetica,sans-Serif" font-size="10.00">DashBoard::setgpsLongitude</text>
</a>
</g>
</g>
<!-- Node4&#45;&gt;Node15 -->
<g id="edge14" class="edge">
<title>Node4&#45;&gt;Node15</title>
<path fill="none" stroke="midnightblue" d="M392.76,-612.18C414.7,-617.22 441.78,-623.43 465.01,-628.77"/>
<polygon fill="midnightblue" stroke="midnightblue" points="464.51,-632.24 475.04,-631.07 466.07,-625.42 464.51,-632.24"/>
</g>
<!-- Node16 -->
<g id="node16" class="node">
<title>Node16</title>
<g id="a_node16"><a xlink:href="classDashBoard.html#a3e4b2d7b59990a8fcf2d6b561ad30fba" target="_top" xlink:title=" ">
<polygon fill="white" stroke="black" points="453.5,-505.59 453.5,-535.59 581.5,-535.59 581.5,-505.59 453.5,-505.59"/>
<text text-anchor="start" x="461.5" y="-523.59" font-family="Helvetica,sans-Serif" font-size="10.00">DashBoard::setgpsVisible</text>
<text text-anchor="middle" x="517.5" y="-512.59" font-family="Helvetica,sans-Serif" font-size="10.00">Satelites</text>
</a>
</g>
</g>
<!-- Node4&#45;&gt;Node16 -->
<g id="edge15" class="edge">
<title>Node4&#45;&gt;Node16</title>
<path fill="none" stroke="midnightblue" d="M365.17,-593.01C383.49,-580.89 416.67,-559.89 447,-545.59 451.59,-543.42 456.43,-541.33 461.32,-539.34"/>
<polygon fill="midnightblue" stroke="midnightblue" points="462.72,-542.55 470.76,-535.64 460.17,-536.03 462.72,-542.55"/>
</g>
<!-- Node6 -->
<g id="node6" class="node">
<title>Node6</title>
<g id="a_node6"><a xlink:href="gps_8cpp.html#a356f47852da8a45bf4dd9944e08b7d3e" target="_top" xlink:title=" ">
<polygon fill="white" stroke="black" points="661,-650.09 661,-669.09 720,-669.09 720,-650.09 661,-650.09"/>
<text text-anchor="middle" x="690.5" y="-657.09" font-family="Helvetica,sans-Serif" font-size="10.00">fastestlap</text>
</a>
</g>
</g>
<!-- Node5&#45;&gt;Node6 -->
<g id="edge5" class="edge">
<title>Node5&#45;&gt;Node6</title>
<path fill="none" stroke="midnightblue" d="M559.41,-612.17C568.93,-614.84 578.93,-618 588,-621.59 604.83,-628.24 607.23,-633.81 624,-640.59 632.53,-644.04 641.93,-647.14 650.87,-649.8"/>
<polygon fill="midnightblue" stroke="midnightblue" points="650.12,-653.23 660.7,-652.6 652.04,-646.49 650.12,-653.23"/>
</g>
<!-- Node7 -->
<g id="node7" class="node">
<title>Node7</title>
<g id="a_node7"><a xlink:href="classDashBoard.html#ae5d69bcab58e2e497902387d03cc9146" target="_top" xlink:title=" ">
<polygon fill="white" stroke="black" points="624,-612.09 624,-631.09 757,-631.09 757,-612.09 624,-612.09"/>
<text text-anchor="middle" x="690.5" y="-619.09" font-family="Helvetica,sans-Serif" font-size="10.00">DashBoard::setbestlaptime</text>
</a>
</g>
</g>
<!-- Node5&#45;&gt;Node7 -->
<g id="edge6" class="edge">
<title>Node5&#45;&gt;Node7</title>
<path fill="none" stroke="midnightblue" d="M569.34,-608.24C583.26,-609.79 598.65,-611.5 613.65,-613.16"/>
<polygon fill="midnightblue" stroke="midnightblue" points="613.61,-616.68 623.94,-614.31 614.39,-609.72 613.61,-616.68"/>
</g>
<!-- Node8 -->
<g id="node8" class="node">
<title>Node8</title>
<g id="a_node8"><a xlink:href="classDashBoard.html#af147e933576adcd81892aca4e74df784" target="_top" xlink:title=" ">
<polygon fill="white" stroke="black" points="626,-574.09 626,-593.09 755,-593.09 755,-574.09 626,-574.09"/>
<text text-anchor="middle" x="690.5" y="-581.09" font-family="Helvetica,sans-Serif" font-size="10.00">DashBoard::setcurrentLap</text>
</a>
</g>
</g>
<!-- Node5&#45;&gt;Node8 -->
<g id="edge7" class="edge">
<title>Node5&#45;&gt;Node8</title>
<path fill="none" stroke="midnightblue" d="M569.34,-596.94C583.88,-595.33 600.02,-593.53 615.64,-591.8"/>
<polygon fill="midnightblue" stroke="midnightblue" points="616.25,-595.25 625.81,-590.67 615.48,-588.29 616.25,-595.25"/>
</g>
<!-- Node9 -->
<g id="node9" class="node">
<title>Node9</title>
<g id="a_node9"><a xlink:href="classDashBoard.html#a023ed00fbd93bad06e98426b7583022c" target="_top" xlink:title=" ">
<polygon fill="white" stroke="black" points="633.5,-536.09 633.5,-555.09 747.5,-555.09 747.5,-536.09 633.5,-536.09"/>
<text text-anchor="middle" x="690.5" y="-543.09" font-family="Helvetica,sans-Serif" font-size="10.00">DashBoard::setlaptime</text>
</a>
</g>
</g>
<!-- Node5&#45;&gt;Node9 -->
<g id="edge8" class="edge">
<title>Node5&#45;&gt;Node9</title>
<path fill="none" stroke="midnightblue" d="M559.41,-593.01C568.93,-590.34 578.93,-587.17 588,-583.59 604.83,-576.94 607.23,-571.37 624,-564.59 629.76,-562.26 635.92,-560.09 642.06,-558.11"/>
<polygon fill="midnightblue" stroke="midnightblue" points="643.12,-561.44 651.64,-555.15 641.06,-554.75 643.12,-561.44"/>
</g>
<!-- Node17&#45;&gt;Node5 -->
<g id="edge17" class="edge">
<title>Node17&#45;&gt;Node5</title>
<path fill="none" stroke="midnightblue" d="M356.32,-725.94C368.99,-703.91 403.18,-649.61 447,-621.59 450.34,-619.45 453.92,-617.55 457.63,-615.87"/>
<polygon fill="midnightblue" stroke="midnightblue" points="459.07,-619.06 467.06,-612.09 456.47,-612.56 459.07,-619.06"/>
</g>
<!-- Node17&#45;&gt;Node10 -->
<g id="edge18" class="edge">
<title>Node17&#45;&gt;Node10</title>
<path fill="none" stroke="midnightblue" d="M406.57,-729.21C419.44,-727.73 433.3,-726.14 446.69,-724.6"/>
<polygon fill="midnightblue" stroke="midnightblue" points="447.28,-728.06 456.82,-723.44 446.49,-721.1 447.28,-728.06"/>
</g>
<!-- Node17&#45;&gt;Node14 -->
<g id="edge20" class="edge">
<title>Node17&#45;&gt;Node14</title>
<path fill="none" stroke="midnightblue" d="M373.24,-725.98C392.54,-717.83 421.32,-706.15 447,-697.59 454.1,-695.22 461.67,-692.93 469.11,-690.79"/>
<polygon fill="midnightblue" stroke="midnightblue" points="470.07,-694.16 478.76,-688.1 468.19,-687.42 470.07,-694.16"/>
</g>
<!-- Node17&#45;&gt;Node15 -->
<g id="edge21" class="edge">
<title>Node17&#45;&gt;Node15</title>
<path fill="none" stroke="midnightblue" d="M360.43,-725.91C376.65,-709.81 411.53,-677.53 447,-659.59 451.56,-657.28 456.43,-655.23 461.4,-653.41"/>
<polygon fill="midnightblue" stroke="midnightblue" points="462.65,-656.68 471.02,-650.18 460.42,-650.04 462.65,-656.68"/>
</g>
<!-- Node18 -->
<g id="node18" class="node">
<title>Node18</title>
<g id="a_node18"><a xlink:href="classDashBoard.html#a7efb6b0a187fa08bf3543c8ce0d40738" target="_top" xlink:title=" ">
<polygon fill="white" stroke="black" points="452.5,-821.09 452.5,-840.09 582.5,-840.09 582.5,-821.09 452.5,-821.09"/>
<text text-anchor="middle" x="517.5" y="-828.09" font-family="Helvetica,sans-Serif" font-size="10.00">DashBoard::setgpsbearing</text>
</a>
</g>
</g>
<!-- Node17&#45;&gt;Node18 -->
<g id="edge19" class="edge">
<title>Node17&#45;&gt;Node18</title>
<path fill="none" stroke="midnightblue" d="M360.43,-745.27C376.65,-761.37 411.53,-793.65 447,-811.59 451.56,-813.89 456.43,-815.95 461.4,-817.77"/>
<polygon fill="midnightblue" stroke="midnightblue" points="460.42,-821.14 471.02,-821 462.65,-814.5 460.42,-821.14"/>
</g>
<!-- Node19 -->
<g id="node19" class="node">
<title>Node19</title>
<g id="a_node19"><a xlink:href="classDashBoard.html#a16ed8cfba91338bea76b8ab5acd2a1c2" target="_top" xlink:title=" ">
<polygon fill="white" stroke="black" points="454.5,-783.09 454.5,-802.09 580.5,-802.09 580.5,-783.09 454.5,-783.09"/>
<text text-anchor="middle" x="517.5" y="-790.09" font-family="Helvetica,sans-Serif" font-size="10.00">DashBoard::setgpsSpeed</text>
</a>
</g>
</g>
<!-- Node17&#45;&gt;Node19 -->
<g id="edge22" class="edge">
<title>Node17&#45;&gt;Node19</title>
<path fill="none" stroke="midnightblue" d="M373.24,-745.2C392.54,-753.34 421.32,-765.03 447,-773.59 454.1,-775.96 461.67,-778.25 469.11,-780.39"/>
<polygon fill="midnightblue" stroke="midnightblue" points="468.19,-783.76 478.76,-783.08 470.07,-777.02 468.19,-783.76"/>
</g>
<!-- Node20 -->
<g id="node20" class="node">
<title>Node20</title>
<g id="a_node20"><a xlink:href="classDashBoard.html#ae93b793d4f4bd43d954cc08ccb8431e4" target="_top" xlink:title=" ">
<polygon fill="white" stroke="black" points="457.5,-745.09 457.5,-764.09 577.5,-764.09 577.5,-745.09 457.5,-745.09"/>
<text text-anchor="middle" x="517.5" y="-752.09" font-family="Helvetica,sans-Serif" font-size="10.00">DashBoard::setgpsTime</text>
</a>
</g>
</g>
<!-- Node17&#45;&gt;Node20 -->
<g id="edge23" class="edge">
<title>Node17&#45;&gt;Node20</title>
<path fill="none" stroke="midnightblue" d="M406.57,-741.97C419.59,-743.46 433.62,-745.07 447.16,-746.63"/>
<polygon fill="midnightblue" stroke="midnightblue" points="447.06,-750.14 457.39,-747.8 447.86,-743.19 447.06,-750.14"/>
</g>
<!-- Node21&#45;&gt;Node12 -->
<g id="edge25" class="edge">
<title>Node21&#45;&gt;Node12</title>
<path fill="none" stroke="midnightblue" d="M384.71,-821.1C393.38,-823.86 402.63,-827.09 411,-830.59 427.69,-837.57 429.62,-844.56 447,-849.59 550.84,-879.66 581.39,-868.59 689.5,-868.59 689.5,-868.59 689.5,-868.59 851,-868.59 1077.51,-868.59 1172.01,-508.99 1191.88,-420.22"/>
<polygon fill="midnightblue" stroke="midnightblue" points="1195.32,-420.88 1194.03,-410.36 1188.48,-419.39 1195.32,-420.88"/>
</g>
<!-- Node22 -->
<g id="node22" class="node">
<title>Node22</title>
<g id="a_node22"><a xlink:href="classGPS.html#aeae2cbce7d09b6441ebd1b788dac12b7" target="_top" xlink:title=" ">
<polygon fill="white" stroke="black" points="469.5,-897.09 469.5,-916.09 565.5,-916.09 565.5,-897.09 469.5,-897.09"/>
<text text-anchor="middle" x="517.5" y="-904.09" font-family="Helvetica,sans-Serif" font-size="10.00">GPS::setGPSOnly</text>
</a>
</g>
</g>
<!-- Node21&#45;&gt;Node22 -->
<g id="edge26" class="edge">
<title>Node21&#45;&gt;Node22</title>
<path fill="none" stroke="midnightblue" d="M393.38,-821.1C399.63,-823.58 405.73,-826.7 411,-830.59 433.61,-847.29 424.6,-865.6 447,-882.59 452.54,-886.79 458.86,-890.29 465.38,-893.19"/>
<polygon fill="midnightblue" stroke="midnightblue" points="464.43,-896.58 475.02,-897.04 467.03,-890.08 464.43,-896.58"/>
</g>
<!-- Node23&#45;&gt;Node12 -->
<g id="edge28" class="edge">
<title>Node23&#45;&gt;Node12</title>
<path fill="none" stroke="midnightblue" d="M892.84,-992.15C946.86,-1001.8 1040.39,-1008.94 1095,-958.59 1176.21,-883.71 1192.65,-511.35 1195.48,-420.57"/>
<polygon fill="midnightblue" stroke="midnightblue" points="1198.98,-420.61 1195.77,-410.51 1191.98,-420.41 1198.98,-420.61"/>
</g>
<!-- Node24&#45;&gt;Node12 -->
<g id="edge54" class="edge">
<title>Node24&#45;&gt;Node12</title>
<path fill="none" stroke="midnightblue" d="M410.26,-386.93C477.79,-392.55 591.5,-400.59 689.5,-400.59 689.5,-400.59 689.5,-400.59 851,-400.59 943.91,-400.59 1050.9,-400.59 1120.79,-400.59"/>
<polygon fill="midnightblue" stroke="midnightblue" points="1120.82,-404.09 1130.82,-400.59 1120.82,-397.09 1120.82,-404.09"/>
</g>
<!-- Node25 -->
<g id="node25" class="node">
<title>Node25</title>
<g id="a_node25"><a xlink:href="classGPS.html#a8775edfa08840ffb2647e0e5ba031fe5" target="_top" xlink:title=" ">
<polygon fill="white" stroke="black" points="458,-239.09 458,-258.09 577,-258.09 577,-239.09 458,-239.09"/>
<text text-anchor="middle" x="517.5" y="-246.09" font-family="Helvetica,sans-Serif" font-size="10.00">GPS::closeConnection1</text>
</a>
</g>
</g>
<!-- Node24&#45;&gt;Node25 -->
<g id="edge30" class="edge">
<title>Node24&#45;&gt;Node25</title>
<path fill="none" stroke="midnightblue" d="M362.9,-372.02C390.92,-349.51 461.28,-292.97 496.19,-264.91"/>
<polygon fill="midnightblue" stroke="midnightblue" points="498.66,-267.42 504.26,-258.43 494.27,-261.96 498.66,-267.42"/>
</g>
<!-- Node25&#45;&gt;Node1 -->
<g id="edge52" class="edge">
<title>Node25&#45;&gt;Node1</title>
<path fill="none" stroke="midnightblue" d="M457.88,-255.76C368.35,-266.71 198.51,-287.49 109.03,-298.43"/>
<polygon fill="midnightblue" stroke="midnightblue" points="108.55,-294.96 99.05,-299.65 109.4,-301.91 108.55,-294.96"/>
</g>
<!-- Node25&#45;&gt;Node12 -->
<g id="edge53" class="edge">
<title>Node25&#45;&gt;Node12</title>
<path fill="none" stroke="midnightblue" d="M523.07,-239.09C535.45,-214.5 572.2,-148.62 624,-118.59 806.21,-12.97 925.89,58.94 1095,-66.59 1147.31,-105.42 1183.02,-314.77 1193.09,-380.7"/>
<polygon fill="midnightblue" stroke="midnightblue" points="1189.69,-381.58 1194.63,-390.95 1196.61,-380.55 1189.69,-381.58"/>
</g>
<!-- Node26 -->
<g id="node26" class="node">
<title>Node26</title>
<g id="a_node26"><a xlink:href="classGPS.html#a14c64eb8a4939f8f734b93ef3a21bb19" target="_top" xlink:title=" ">
<polygon fill="white" stroke="black" points="973.5,-125.09 973.5,-144.09 1064.5,-144.09 1064.5,-125.09 973.5,-125.09"/>
<text text-anchor="middle" x="1019" y="-132.09" font-family="Helvetica,sans-Serif" font-size="10.00">GPS::handleError</text>
</a>
</g>
</g>
<!-- Node25&#45;&gt;Node26 -->
<g id="edge31" class="edge">
<title>Node25&#45;&gt;Node26</title>
<path fill="none" stroke="midnightblue" d="M529.47,-238.96C547.89,-223.21 586.66,-191.78 624,-172.59 694.5,-136.35 714.78,-128.43 793,-115.59 852.16,-105.88 920.94,-114.55 966.72,-123.11"/>
<polygon fill="midnightblue" stroke="midnightblue" points="966.22,-126.58 976.7,-125.04 967.55,-119.7 966.22,-126.58"/>
</g>
<!-- Node27 -->
<g id="node27" class="node">
<title>Node27</title>
<g id="a_node27"><a xlink:href="classGPS.html#aaf69fb801bbce2ea70041e68fe0ec19a" target="_top" xlink:title=" ">
<polygon fill="white" stroke="black" points="943,-201.09 943,-220.09 1095,-220.09 1095,-201.09 943,-201.09"/>
<text text-anchor="middle" x="1019" y="-208.09" font-family="Helvetica,sans-Serif" font-size="10.00">GPS::handleReconnectTimeout</text>
</a>
</g>
</g>
<!-- Node25&#45;&gt;Node27 -->
<g id="edge33" class="edge">
<title>Node25&#45;&gt;Node27</title>
<path fill="none" stroke="midnightblue" d="M577.19,-255.51C669.96,-265.76 846.2,-282.29 907,-267.59 940.16,-259.57 974.54,-239.84 996.08,-225.85"/>
<polygon fill="midnightblue" stroke="midnightblue" points="998.1,-228.71 1004.48,-220.26 994.22,-222.88 998.1,-228.71"/>
</g>
<!-- Node29 -->
<g id="node29" class="node">
<title>Node29</title>
<g id="a_node29"><a xlink:href="classGPS.html#a1b1c89214229f5dc8ff7e2fa9cbcad35" target="_top" xlink:title=" ">
<polygon fill="white" stroke="black" points="966,-277.09 966,-296.09 1072,-296.09 1072,-277.09 966,-277.09"/>
<text text-anchor="middle" x="1019" y="-284.09" font-family="Helvetica,sans-Serif" font-size="10.00">GPS::handleTimeout</text>
</a>
</g>
</g>
<!-- Node25&#45;&gt;Node29 -->
<g id="edge50" class="edge">
<title>Node25&#45;&gt;Node29</title>
<path fill="none" stroke="midnightblue" d="M553.88,-258.12C574.24,-263.22 600.39,-269.16 624,-272.59 740.2,-289.48 877.59,-290.02 955.59,-288.54"/>
<polygon fill="midnightblue" stroke="midnightblue" points="955.81,-292.03 965.73,-288.33 955.66,-285.04 955.81,-292.03"/>
</g>
<!-- Node30 -->
<g id="node30" class="node">
<title>Node30</title>
<g id="a_node30"><a xlink:href="classGPS.html#a51eaea2422dd980ea0a6d28f12a136de" target="_top" xlink:title=" ">
<polygon fill="white" stroke="black" points="634.5,-182.09 634.5,-201.09 746.5,-201.09 746.5,-182.09 634.5,-182.09"/>
<text text-anchor="middle" x="690.5" y="-189.09" font-family="Helvetica,sans-Serif" font-size="10.00">GPS::openConnection</text>
</a>
</g>
</g>
<!-- Node25&#45;&gt;Node30 -->
<g id="edge51" class="edge">
<title>Node25&#45;&gt;Node30</title>
<path fill="none" stroke="midnightblue" d="M547.12,-239.05C575.6,-229.55 619.5,-214.92 651.02,-204.42"/>
<polygon fill="midnightblue" stroke="midnightblue" points="652.41,-207.64 660.79,-201.16 650.19,-201 652.41,-207.64"/>
</g>
<!-- Node26&#45;&gt;Node12 -->
<g id="edge32" class="edge">
<title>Node26&#45;&gt;Node12</title>
<path fill="none" stroke="midnightblue" d="M1064.62,-142.02C1075.56,-145.57 1086.54,-150.82 1095,-158.59 1162.41,-220.46 1186.22,-334.33 1193.35,-380.43"/>
<polygon fill="midnightblue" stroke="midnightblue" points="1189.93,-381.21 1194.82,-390.61 1196.86,-380.22 1189.93,-381.21"/>
</g>
<!-- Node28 -->
<g id="node28" class="node">
<title>Node28</title>
<g id="a_node28"><a xlink:href="classGPS.html#ae4568ef4d5107c96c1af68d1abd33559" target="_top" xlink:title=" ">
<polygon fill="white" stroke="black" points="793,-125.09 793,-144.09 907,-144.09 907,-125.09 793,-125.09"/>
<text text-anchor="middle" x="850" y="-132.09" font-family="Helvetica,sans-Serif" font-size="10.00">GPS::closeConnection</text>
</a>
</g>
</g>
<!-- Node27&#45;&gt;Node28 -->
<g id="edge34" class="edge">
<title>Node27&#45;&gt;Node28</title>
<path fill="none" stroke="midnightblue" d="M953.37,-200.95C949.79,-199.3 946.31,-197.51 943,-195.59 924.23,-184.7 925.68,-173.65 907,-162.59 896.56,-156.41 883.82,-151.88 873.13,-147.92"/>
<polygon fill="midnightblue" stroke="midnightblue" points="874.24,-144.59 863.65,-144.25 871.71,-151.12 874.24,-144.59"/>
</g>
<!-- Node27&#45;&gt;Node30 -->
<g id="edge41" class="edge">
<title>Node27&#45;&gt;Node30</title>
<path fill="none" stroke="midnightblue" d="M942.84,-206.22C886.55,-202.94 810.31,-198.5 756.61,-195.38"/>
<polygon fill="midnightblue" stroke="midnightblue" points="756.7,-191.88 746.52,-194.79 756.3,-198.87 756.7,-191.88"/>
</g>
<!-- Node28&#45;&gt;Node1 -->
<g id="edge39" class="edge">
<title>Node28&#45;&gt;Node1</title>
<path fill="none" stroke="midnightblue" d="M824.57,-124.96C770.38,-104.51 635.66,-58.59 518.5,-58.59 349,-58.59 349,-58.59 349,-58.59 205.61,-58.59 94.05,-229.85 60.73,-287.16"/>
<polygon fill="midnightblue" stroke="midnightblue" points="57.66,-285.49 55.74,-295.91 63.74,-288.95 57.66,-285.49"/>
</g>
<!-- Node28&#45;&gt;Node12 -->
<g id="edge40" class="edge">
<title>Node28&#45;&gt;Node12</title>
<path fill="none" stroke="midnightblue" d="M896.19,-144.1C964.56,-158.63 1087.19,-185.34 1095,-191.59 1157.25,-241.42 1183.61,-339.07 1192.37,-380.86"/>
<polygon fill="midnightblue" stroke="midnightblue" points="1188.97,-381.73 1194.35,-390.86 1195.84,-380.37 1188.97,-381.73"/>
</g>
<!-- Node28&#45;&gt;Node26 -->
<g id="edge35" class="edge">
<title>Node28&#45;&gt;Node26</title>
<path fill="none" stroke="midnightblue" d="M907.07,-134.59C925.22,-134.59 945.31,-134.59 963.35,-134.59"/>
<polygon fill="midnightblue" stroke="midnightblue" points="963.42,-138.09 973.42,-134.59 963.42,-131.09 963.42,-138.09"/>
</g>
<!-- Node28&#45;&gt;Node27 -->
<g id="edge36" class="edge">
<title>Node28&#45;&gt;Node27</title>
<path fill="none" stroke="midnightblue" d="M906.2,-144.12C906.47,-144.28 906.73,-144.43 907,-144.59 925.68,-155.65 924.23,-166.7 943,-177.59 958.56,-186.62 977.95,-192.71 993.11,-197.72"/>
<polygon fill="midnightblue" stroke="midnightblue" points="992.24,-201.12 1002.84,-201.04 994.5,-194.49 992.24,-201.12"/>
</g>
<!-- Node28&#45;&gt;Node29 -->
<g id="edge37" class="edge">
<title>Node28&#45;&gt;Node29</title>
<path fill="none" stroke="midnightblue" d="M891.99,-144.13C897.43,-146.6 902.63,-149.7 907,-153.59 934.91,-178.45 919.45,-200.57 943,-229.59 956.7,-246.47 976.39,-261.19 992.16,-271.44"/>
<polygon fill="midnightblue" stroke="midnightblue" points="990.58,-274.58 1000.91,-276.94 994.31,-268.65 990.58,-274.58"/>
</g>
<!-- Node29&#45;&gt;Node24 -->
<g id="edge38" class="edge">
<title>Node29&#45;&gt;Node24</title>
<path fill="none" stroke="midnightblue" d="M976.17,-296.15C924.79,-307.6 834.88,-326.73 757,-338.59 639.23,-356.52 501.11,-369.44 420.12,-376.2"/>
<polygon fill="midnightblue" stroke="midnightblue" points="419.72,-372.72 410.05,-377.03 420.3,-379.7 419.72,-372.72"/>
</g>
<!-- Node30&#45;&gt;Node12 -->
<g id="edge48" class="edge">
<title>Node30&#45;&gt;Node12</title>
<path fill="none" stroke="midnightblue" d="M700.09,-181.95C716.24,-164.64 753.11,-128.87 793,-115.59 920.35,-73.2 985.38,-38.14 1095,-115.59 1184.07,-178.52 1195.09,-327.01 1196.08,-380.74"/>
<polygon fill="midnightblue" stroke="midnightblue" points="1192.58,-381 1196.16,-390.97 1199.58,-380.94 1192.58,-381"/>
</g>
<!-- Node30&#45;&gt;Node28 -->
<g id="edge42" class="edge">
<title>Node30&#45;&gt;Node28</title>
<path fill="none" stroke="midnightblue" d="M716.45,-182C736.95,-174.19 766.77,-162.95 793,-153.59 798.64,-151.58 804.61,-149.5 810.48,-147.48"/>
<polygon fill="midnightblue" stroke="midnightblue" points="811.83,-150.72 820.16,-144.18 809.57,-144.1 811.83,-150.72"/>
</g>
<!-- Node31 -->
<g id="node31" class="node">
<title>Node31</title>
<g id="a_node31"><a xlink:href="classGPS.html#ac2a7572afb184df9c14ae913f17306bf" target="_top" xlink:title=" ">
<polygon fill="white" stroke="black" points="801,-239.09 801,-258.09 899,-258.09 899,-239.09 801,-239.09"/>
<text text-anchor="middle" x="850" y="-246.09" font-family="Helvetica,sans-Serif" font-size="10.00">GPS::initSerialPort</text>
</a>
</g>
</g>
<!-- Node30&#45;&gt;Node31 -->
<g id="edge43" class="edge">
<title>Node30&#45;&gt;Node31</title>
<path fill="none" stroke="midnightblue" d="M717.86,-201.13C743.87,-210.54 783.83,-225 812.8,-235.49"/>
<polygon fill="midnightblue" stroke="midnightblue" points="811.96,-238.91 822.55,-239.02 814.34,-232.32 811.96,-238.91"/>
</g>
<!-- Node32 -->
<g id="node32" class="node">
<title>Node32</title>
<g id="a_node32"><a xlink:href="classSerialPort.html#aad156293689e349b3674671f8a8d8048" target="_top" xlink:title=" ">
<polygon fill="white" stroke="black" points="799,-163.09 799,-182.09 901,-182.09 901,-163.09 799,-163.09"/>
<text text-anchor="middle" x="850" y="-170.09" font-family="Helvetica,sans-Serif" font-size="10.00">SerialPort::setParity</text>
</a>
</g>
</g>
<!-- Node30&#45;&gt;Node32 -->
<g id="edge49" class="edge">
<title>Node30&#45;&gt;Node32</title>
<path fill="none" stroke="midnightblue" d="M746.59,-184.94C760.29,-183.29 775.05,-181.51 788.98,-179.83"/>
<polygon fill="midnightblue" stroke="midnightblue" points="789.44,-183.3 798.95,-178.63 788.6,-176.35 789.44,-183.3"/>
</g>
<!-- Node31&#45;&gt;Node1 -->
<g id="edge47" class="edge">
<title>Node31&#45;&gt;Node1</title>
<path fill="none" stroke="midnightblue" d="M824.57,-258.22C770.38,-278.67 635.66,-324.59 518.5,-324.59 349,-324.59 349,-324.59 349,-324.59 265.55,-324.59 169.24,-317.1 109.1,-311.53"/>
<polygon fill="midnightblue" stroke="midnightblue" points="109.32,-308.03 99.04,-310.58 108.67,-315 109.32,-308.03"/>
</g>
<!-- Node31&#45;&gt;Node26 -->
<g id="edge44" class="edge">
<title>Node31&#45;&gt;Node26</title>
<path fill="none" stroke="midnightblue" d="M864.95,-239.07C893.74,-219.42 959.95,-174.22 995.1,-150.22"/>
<polygon fill="midnightblue" stroke="midnightblue" points="997.45,-152.86 1003.73,-144.33 993.5,-147.08 997.45,-152.86"/>
</g>
<!-- Node31&#45;&gt;Node27 -->
<g id="edge45" class="edge">
<title>Node31&#45;&gt;Node27</title>
<path fill="none" stroke="midnightblue" d="M893.14,-239C915.38,-233.94 942.85,-227.69 966.36,-222.34"/>
<polygon fill="midnightblue" stroke="midnightblue" points="967.19,-225.74 976.16,-220.11 965.63,-218.92 967.19,-225.74"/>
</g>
<!-- Node31&#45;&gt;Node29 -->
<g id="edge46" class="edge">
<title>Node31&#45;&gt;Node29</title>
<path fill="none" stroke="midnightblue" d="M893.14,-258.18C915.38,-263.24 942.85,-269.49 966.36,-274.84"/>
<polygon fill="midnightblue" stroke="midnightblue" points="965.63,-278.26 976.16,-277.07 967.19,-271.44 965.63,-278.26"/>
</g>
</g>
</svg>
        <g id="navigator" transform="translate(0 0)" fill="#404254">
                <rect fill="#f2f5e9" fill-opacity="0.5" stroke="#606060" stroke-width=".5" x="0" y="0" width="60" height="60"/>
                <use id="zoomplus" xlink:href="#zoomPlus" x="17" y="9" onmousedown="handleZoom(evt,'in')"/>
                <use id="zoomminus" xlink:href="#zoomMin" x="42" y="9" onmousedown="handleZoom(evt,'out')"/>
                <use id="reset" xlink:href="#resetDef" x="30" y="36" onmousedown="handleReset()"/>
                <g id="arrowUp" xlink:href="#dirArrow" transform="translate(30 24)" onmousedown="handlePan(0,-1)">
                  <use xlink:href="#rim" fill="#404040">
                        <set attributeName="fill" to="#808080" begin="arrowUp.mouseover" end="arrowUp.mouseout"/>
                  </use>
                  <path fill="none" stroke="white" stroke-width="1.5" d="M0,-3.0v7 M-2.5,-0.5L0,-3.0L2.5,-0.5"/>
                </g>
                <g id="arrowRight" xlink:href="#dirArrow" transform="rotate(90) translate(36 -43)" onmousedown="handlePan(1,0)">
                  <use xlink:href="#rim" fill="#404040">
                        <set attributeName="fill" to="#808080" begin="arrowRight.mouseover" end="arrowRight.mouseout"/>
                  </use>
                  <path fill="none" stroke="white" stroke-width="1.5" d="M0,-3.0v7 M-2.5,-0.5L0,-3.0L2.5,-0.5"/>
                </g>
                <g id="arrowDown" xlink:href="#dirArrow" transform="rotate(180) translate(-30 -48)" onmousedown="handlePan(0,1)">
                  <use xlink:href="#rim" fill="#404040">
                        <set attributeName="fill" to="#808080" begin="arrowDown.mouseover" end="arrowDown.mouseout"/>
                  </use>
                  <path fill="none" stroke="white" stroke-width="1.5" d="M0,-3.0v7 M-2.5,-0.5L0,-3.0L2.5,-0.5"/>
                </g>
                <g id="arrowLeft" xlink:href="#dirArrow" transform="rotate(270) translate(-36 17)" onmousedown="handlePan(-1,0)">
                  <use xlink:href="#rim" fill="#404040">
                        <set attributeName="fill" to="#808080" begin="arrowLeft.mouseover" end="arrowLeft.mouseout"/>
                  </use>
                  <path fill="none" stroke="white" stroke-width="1.5" d="M0,-3.0v7 M-2.5,-0.5L0,-3.0L2.5,-0.5"/>
                </g>
        </g>
        <svg viewBox="0 0 15 15" width="100%" height="30px" preserveAspectRatio="xMaxYMin meet">
         <g id="arrow_out" transform="scale(0.3 0.3)">
          <a xlink:href="classGPS_aa0928d156961a54bf06d9b5210d85561_cgraph_org.svg" target="_base">
           <rect id="button" ry="5" rx="5" y="6" x="6" height="38" width="38"
                fill="#f2f5e9" fill-opacity="0.5" stroke="#606060" stroke-width="1.0"/>
           <path id="arrow"
             d="M 11.500037,31.436501 C 11.940474,20.09759 22.043105,11.32322 32.158766,21.979434 L 37.068811,17.246167 C 37.068811,17.246167 37.088388,32 37.088388,32 L 22.160133,31.978069 C 22.160133,31.978069 26.997745,27.140456 26.997745,27.140456 C 18.528582,18.264221 13.291696,25.230495 11.500037,31.436501 z"
             style="fill:#404040;"/>
          </a>
         </g>
        </svg>
</svg>
