<?xml version="1.0" encoding="UTF-8" standalone="no"?>
<!DOCTYPE svg PUBLIC "-//W3C//DTD SVG 1.1//EN"
 "http://www.w3.org/Graphics/SVG/1.1/DTD/svg11.dtd">
<!-- Generated by graphviz version 2.49.3 (20211027.1534)
 -->
<!-- Title: DashBoard::EXAnalogCalc5Changed Pages: 1 -->
<svg width="1026pt" height="110pt"
 viewBox="0.00 0.00 1026.00 109.50" xmlns="http://www.w3.org/2000/svg" xmlns:xlink="http://www.w3.org/1999/xlink">
<g id="graph0" class="graph" transform="scale(1 1) rotate(0) translate(4 105.5)">
<title>DashBoard::EXAnalogCalc5Changed</title>
<polygon fill="white" stroke="transparent" points="-4,4 -4,-105.5 1022,-105.5 1022,4 -4,4"/>
<!-- Node1 -->
<g id="node1" class="node">
<title>Node1</title>
<g id="a_node1"><a xlink:title=" ">
<polygon fill="#bfbfbf" stroke="black" points="881,-49 881,-79 1018,-79 1018,-49 881,-49"/>
<text text-anchor="start" x="889" y="-67" font-family="Helvetica,sans-Serif" font-size="10.00">DashBoard::EXAnalogCalc5</text>
<text text-anchor="middle" x="949.5" y="-56" font-family="Helvetica,sans-Serif" font-size="10.00">Changed</text>
</a>
</g>
</g>
<!-- Node2 -->
<g id="node2" class="node">
<title>Node2</title>
<g id="a_node2"><a xlink:href="classDashBoard.html#a78a532a6368f73c881615156a9792754" target="_top" xlink:title=" ">
<polygon fill="white" stroke="black" points="695,-54.5 695,-73.5 845,-73.5 845,-54.5 695,-54.5"/>
<text text-anchor="middle" x="770" y="-61.5" font-family="Helvetica,sans-Serif" font-size="10.00">DashBoard::setEXAnalogCalc5</text>
</a>
</g>
</g>
<!-- Node1&#45;&gt;Node2 -->
<g id="edge1" class="edge">
<title>Node1&#45;&gt;Node2</title>
<path fill="none" stroke="midnightblue" d="M870.67,-64C862.22,-64 853.64,-64 845.23,-64"/>
<polygon fill="midnightblue" stroke="midnightblue" points="870.89,-67.5 880.89,-64 870.89,-60.5 870.89,-67.5"/>
</g>
<!-- Node3 -->
<g id="node3" class="node">
<title>Node3</title>
<g id="a_node3"><a xlink:href="classDashBoard.html#acc9ce3b13710f908e198224081150d50" target="_top" xlink:title=" ">
<polygon fill="white" stroke="black" points="507,-54.5 507,-73.5 659,-73.5 659,-54.5 507,-54.5"/>
<text text-anchor="middle" x="583" y="-61.5" font-family="Helvetica,sans-Serif" font-size="10.00">DashBoard::setEXAnalogInput5</text>
</a>
</g>
</g>
<!-- Node2&#45;&gt;Node3 -->
<g id="edge2" class="edge">
<title>Node2&#45;&gt;Node3</title>
<path fill="none" stroke="midnightblue" d="M684.82,-64C676.24,-64 667.57,-64 659.1,-64"/>
<polygon fill="midnightblue" stroke="midnightblue" points="684.82,-67.5 694.82,-64 684.82,-60.5 684.82,-67.5"/>
</g>
<!-- Node4 -->
<g id="node4" class="node">
<title>Node4</title>
<g id="a_node4"><a xlink:href="classudpreceiver.html#a725cf4f5cf798fd5baed7eee2e6dd5f2" target="_top" xlink:title=" ">
<polygon fill="white" stroke="black" points="330,-71 330,-101 471,-101 471,-71 330,-71"/>
<text text-anchor="start" x="338" y="-89" font-family="Helvetica,sans-Serif" font-size="10.00">udpreceiver::processPending</text>
<text text-anchor="middle" x="400.5" y="-78" font-family="Helvetica,sans-Serif" font-size="10.00">Datagrams</text>
</a>
</g>
</g>
<!-- Node3&#45;&gt;Node4 -->
<g id="edge3" class="edge">
<title>Node3&#45;&gt;Node4</title>
<path fill="none" stroke="midnightblue" d="M496.74,-74.39C488.16,-75.44 479.52,-76.49 471.14,-77.51"/>
<polygon fill="midnightblue" stroke="midnightblue" points="497.26,-77.85 506.76,-73.17 496.41,-70.91 497.26,-77.85"/>
</g>
<!-- Node7 -->
<g id="node7" class="node">
<title>Node7</title>
<g id="a_node7"><a xlink:href="classExtender.html#ab1ef1d1764fa63ca790092c338272466" target="_top" xlink:title=" ">
<polygon fill="white" stroke="black" points="342.5,-32.5 342.5,-51.5 458.5,-51.5 458.5,-32.5 342.5,-32.5"/>
<text text-anchor="middle" x="400.5" y="-39.5" font-family="Helvetica,sans-Serif" font-size="10.00">Extender::readyToRead</text>
</a>
</g>
</g>
<!-- Node3&#45;&gt;Node7 -->
<g id="edge6" class="edge">
<title>Node3&#45;&gt;Node7</title>
<path fill="none" stroke="midnightblue" d="M496.53,-53.58C483.72,-52.02 470.77,-50.44 458.74,-48.98"/>
<polygon fill="midnightblue" stroke="midnightblue" points="496.41,-57.09 506.76,-54.83 497.26,-50.15 496.41,-57.09"/>
</g>
<!-- Node5 -->
<g id="node5" class="node">
<title>Node5</title>
<g id="a_node5"><a xlink:href="classudpreceiver.html#a2d7852b9e4be87d9a3ce960d8a7eb9aa" target="_top" xlink:title=" ">
<polygon fill="white" stroke="black" points="166,-76.5 166,-95.5 291,-95.5 291,-76.5 166,-76.5"/>
<text text-anchor="middle" x="228.5" y="-83.5" font-family="Helvetica,sans-Serif" font-size="10.00">udpreceiver::startreceiver</text>
</a>
</g>
</g>
<!-- Node4&#45;&gt;Node5 -->
<g id="edge4" class="edge">
<title>Node4&#45;&gt;Node5</title>
<path fill="none" stroke="midnightblue" d="M319.86,-86C310.21,-86 300.46,-86 291.13,-86"/>
<polygon fill="midnightblue" stroke="midnightblue" points="319.86,-89.5 329.86,-86 319.86,-82.5 319.86,-89.5"/>
</g>
<!-- Node6 -->
<g id="node6" class="node">
<title>Node6</title>
<g id="a_node6"><a xlink:href="classConnect.html#a0d674157f4d7442c535837dadd8cf5f1" target="_top" xlink:title=" ">
<polygon fill="white" stroke="black" points="0,-38.5 0,-57.5 127,-57.5 127,-38.5 0,-38.5"/>
<text text-anchor="middle" x="63.5" y="-45.5" font-family="Helvetica,sans-Serif" font-size="10.00">Connect::openConnection</text>
</a>
</g>
</g>
<!-- Node5&#45;&gt;Node6 -->
<g id="edge5" class="edge">
<title>Node5&#45;&gt;Node6</title>
<path fill="none" stroke="midnightblue" d="M176.47,-74.1C153.56,-68.76 126.9,-62.55 105.34,-57.52"/>
<polygon fill="midnightblue" stroke="midnightblue" points="175.83,-77.55 186.37,-76.41 177.42,-70.73 175.83,-77.55"/>
</g>
<!-- Node8 -->
<g id="node8" class="node">
<title>Node8</title>
<g id="a_node8"><a xlink:href="classExtender.html#a91c1b61923744481d7ee80dbd52b98c3" target="_top" xlink:title=" ">
<polygon fill="white" stroke="black" points="163,-38.5 163,-57.5 294,-57.5 294,-38.5 163,-38.5"/>
<text text-anchor="middle" x="228.5" y="-45.5" font-family="Helvetica,sans-Serif" font-size="10.00">Extender::closeConnection</text>
</a>
</g>
</g>
<!-- Node7&#45;&gt;Node8 -->
<g id="edge7" class="edge">
<title>Node7&#45;&gt;Node8</title>
<path fill="none" stroke="midnightblue" d="M332.05,-44.38C319.53,-44.82 306.48,-45.28 294.05,-45.72"/>
<polygon fill="midnightblue" stroke="midnightblue" points="332.55,-47.87 342.42,-44.01 332.3,-40.87 332.55,-47.87"/>
</g>
<!-- Node9 -->
<g id="node9" class="node">
<title>Node9</title>
<g id="a_node9"><a xlink:href="classExtender.html#a290c0ffb772638ad4658eac0b0b5931e" target="_top" xlink:title=" ">
<polygon fill="white" stroke="black" points="178,-0.5 178,-19.5 279,-19.5 279,-0.5 178,-0.5"/>
<text text-anchor="middle" x="228.5" y="-7.5" font-family="Helvetica,sans-Serif" font-size="10.00">Extender::openCAN</text>
</a>
</g>
</g>
<!-- Node7&#45;&gt;Node9 -->
<g id="edge8" class="edge">
<title>Node7&#45;&gt;Node9</title>
<path fill="none" stroke="midnightblue" d="M338.93,-30.6C319.38,-26.92 297.94,-22.88 279.26,-19.37"/>
<polygon fill="midnightblue" stroke="midnightblue" points="338.48,-34.08 348.95,-32.49 339.77,-27.2 338.48,-34.08"/>
</g>
<!-- Node9&#45;&gt;Node6 -->
<g id="edge9" class="edge">
<title>Node9&#45;&gt;Node6</title>
<path fill="none" stroke="midnightblue" d="M176.47,-21.9C153.56,-27.24 126.9,-33.45 105.34,-38.48"/>
<polygon fill="midnightblue" stroke="midnightblue" points="177.42,-25.27 186.37,-19.59 175.83,-18.45 177.42,-25.27"/>
</g>
</g>
</svg>
