<?xml version="1.0" encoding="UTF-8" standalone="no"?>
<!DOCTYPE svg PUBLIC "-//W3C//DTD SVG 1.1//EN"
 "http://www.w3.org/Graphics/SVG/1.1/DTD/svg11.dtd">
<!-- Generated by graphviz version 2.49.3 (20211027.1534)
 -->
<!-- Title: DashBoard::aFRChanged Pages: 1 -->
<svg width="870pt" height="66pt"
 viewBox="0.00 0.00 870.00 66.00" xmlns="http://www.w3.org/2000/svg" xmlns:xlink="http://www.w3.org/1999/xlink">
<g id="graph0" class="graph" transform="scale(1 1) rotate(0) translate(4 62)">
<title>DashBoard::aFRChanged</title>
<polygon fill="white" stroke="transparent" points="-4,4 -4,-62 866,-62 866,4 -4,4"/>
<!-- Node1 -->
<g id="node1" class="node">
<title>Node1</title>
<g id="a_node1"><a xlink:title=" ">
<polygon fill="#bfbfbf" stroke="black" points="737,-19.5 737,-38.5 862,-38.5 862,-19.5 737,-19.5"/>
<text text-anchor="middle" x="799.5" y="-26.5" font-family="Helvetica,sans-Serif" font-size="10.00">DashBoard::aFRChanged</text>
</a>
</g>
</g>
<!-- Node2 -->
<g id="node2" class="node">
<title>Node2</title>
<g id="a_node2"><a xlink:href="classDashBoard.html#af9bf8496db927887bc4ab1b66c5f6ca8" target="_top" xlink:title=" ">
<polygon fill="white" stroke="black" points="550,-38.5 550,-57.5 652,-57.5 652,-38.5 550,-38.5"/>
<text text-anchor="middle" x="601" y="-45.5" font-family="Helvetica,sans-Serif" font-size="10.00">DashBoard::setAFR</text>
</a>
</g>
</g>
<!-- Node1&#45;&gt;Node2 -->
<g id="edge1" class="edge">
<title>Node1&#45;&gt;Node2</title>
<path fill="none" stroke="midnightblue" d="M726.8,-35.93C702.06,-38.33 674.89,-40.95 652.23,-43.14"/>
<polygon fill="midnightblue" stroke="midnightblue" points="727.25,-39.41 736.87,-34.96 726.57,-32.44 727.25,-39.41"/>
</g>
<!-- Node6 -->
<g id="node6" class="node">
<title>Node6</title>
<g id="a_node6"><a xlink:href="classDashBoard.html#ad16ccbb947cf9a199cda68adad7b294b" target="_top" xlink:title=" ">
<polygon fill="white" stroke="black" points="501,-0.5 501,-19.5 701,-19.5 701,-0.5 501,-0.5"/>
<text text-anchor="middle" x="601" y="-7.5" font-family="Helvetica,sans-Serif" font-size="10.00">DashBoard::setAFRRIGHTBANKTARGET</text>
</a>
</g>
</g>
<!-- Node1&#45;&gt;Node6 -->
<g id="edge5" class="edge">
<title>Node1&#45;&gt;Node6</title>
<path fill="none" stroke="midnightblue" d="M726.63,-22.05C718.11,-21.23 709.3,-20.38 700.49,-19.52"/>
<polygon fill="midnightblue" stroke="midnightblue" points="726.57,-25.56 736.87,-23.04 727.25,-18.59 726.57,-25.56"/>
</g>
<!-- Node3 -->
<g id="node3" class="node">
<title>Node3</title>
<g id="a_node3"><a xlink:href="classudpreceiver.html#a725cf4f5cf798fd5baed7eee2e6dd5f2" target="_top" xlink:title=" ">
<polygon fill="white" stroke="black" points="324,-14 324,-44 465,-44 465,-14 324,-14"/>
<text text-anchor="start" x="332" y="-32" font-family="Helvetica,sans-Serif" font-size="10.00">udpreceiver::processPending</text>
<text text-anchor="middle" x="394.5" y="-21" font-family="Helvetica,sans-Serif" font-size="10.00">Datagrams</text>
</a>
</g>
</g>
<!-- Node2&#45;&gt;Node3 -->
<g id="edge2" class="edge">
<title>Node2&#45;&gt;Node3</title>
<path fill="none" stroke="midnightblue" d="M539.82,-42.41C516.38,-40.23 489.36,-37.72 465.08,-35.46"/>
<polygon fill="midnightblue" stroke="midnightblue" points="539.69,-45.91 549.97,-43.35 540.34,-38.94 539.69,-45.91"/>
</g>
<!-- Node4 -->
<g id="node4" class="node">
<title>Node4</title>
<g id="a_node4"><a xlink:href="classudpreceiver.html#a2d7852b9e4be87d9a3ce960d8a7eb9aa" target="_top" xlink:title=" ">
<polygon fill="white" stroke="black" points="163,-19.5 163,-38.5 288,-38.5 288,-19.5 163,-19.5"/>
<text text-anchor="middle" x="225.5" y="-26.5" font-family="Helvetica,sans-Serif" font-size="10.00">udpreceiver::startreceiver</text>
</a>
</g>
</g>
<!-- Node3&#45;&gt;Node4 -->
<g id="edge3" class="edge">
<title>Node3&#45;&gt;Node4</title>
<path fill="none" stroke="midnightblue" d="M313.62,-29C305.05,-29 296.42,-29 288.11,-29"/>
<polygon fill="midnightblue" stroke="midnightblue" points="313.64,-32.5 323.64,-29 313.64,-25.5 313.64,-32.5"/>
</g>
<!-- Node5 -->
<g id="node5" class="node">
<title>Node5</title>
<g id="a_node5"><a xlink:href="classConnect.html#a0d674157f4d7442c535837dadd8cf5f1" target="_top" xlink:title=" ">
<polygon fill="white" stroke="black" points="0,-19.5 0,-38.5 127,-38.5 127,-19.5 0,-19.5"/>
<text text-anchor="middle" x="63.5" y="-26.5" font-family="Helvetica,sans-Serif" font-size="10.00">Connect::openConnection</text>
</a>
</g>
</g>
<!-- Node4&#45;&gt;Node5 -->
<g id="edge4" class="edge">
<title>Node4&#45;&gt;Node5</title>
<path fill="none" stroke="midnightblue" d="M152.46,-29C144.05,-29 135.52,-29 127.25,-29"/>
<polygon fill="midnightblue" stroke="midnightblue" points="152.64,-32.5 162.64,-29 152.64,-25.5 152.64,-32.5"/>
</g>
<!-- Node6&#45;&gt;Node3 -->
<g id="edge6" class="edge">
<title>Node6&#45;&gt;Node3</title>
<path fill="none" stroke="midnightblue" d="M490.61,-20.16C482,-20.96 473.45,-21.76 465.22,-22.52"/>
<polygon fill="midnightblue" stroke="midnightblue" points="491.11,-23.63 500.75,-19.22 490.46,-16.66 491.11,-23.63"/>
</g>
</g>
</svg>
