<?xml version="1.0" encoding="UTF-8" standalone="no"?>
<!DOCTYPE svg PUBLIC "-//W3C//DTD SVG 1.1//EN"
 "http://www.w3.org/Graphics/SVG/1.1/DTD/svg11.dtd">
<!-- Generated by graphviz version 2.49.3 (20211027.1534)
 -->
<!-- Title: Connect::processOutput Pages: 1 -->
<svg width="286pt" height="142pt"
 viewBox="0.00 0.00 286.00 142.00" xmlns="http://www.w3.org/2000/svg" xmlns:xlink="http://www.w3.org/1999/xlink">
<g id="graph0" class="graph" transform="scale(1 1) rotate(0) translate(4 138)">
<title>Connect::processOutput</title>
<polygon fill="white" stroke="transparent" points="-4,4 -4,-138 282,-138 282,4 -4,4"/>
<!-- Node1 -->
<g id="node1" class="node">
<title>Node1</title>
<g id="a_node1"><a xlink:title=" ">
<polygon fill="#bfbfbf" stroke="black" points="157,-57.5 157,-76.5 278,-76.5 278,-57.5 157,-57.5"/>
<text text-anchor="middle" x="217.5" y="-64.5" font-family="Helvetica,sans-Serif" font-size="10.00">Connect::processOutput</text>
</a>
</g>
</g>
<!-- Node2 -->
<g id="node2" class="node">
<title>Node2</title>
<g id="a_node2"><a xlink:href="classConnect.html#a8aa2f2923cf9a4c65ff2f483e80f6b3c" target="_top" xlink:title=" ">
<polygon fill="white" stroke="black" points="12,-114.5 12,-133.5 109,-133.5 109,-114.5 12,-114.5"/>
<text text-anchor="middle" x="60.5" y="-121.5" font-family="Helvetica,sans-Serif" font-size="10.00">Connect::candump</text>
</a>
</g>
</g>
<!-- Node1&#45;&gt;Node2 -->
<g id="edge1" class="edge">
<title>Node1&#45;&gt;Node2</title>
<path fill="none" stroke="midnightblue" d="M184.51,-80.38C166.06,-87.93 142.36,-97.35 121,-105 111.91,-108.25 101.95,-111.54 92.83,-114.45"/>
<polygon fill="midnightblue" stroke="midnightblue" points="185.99,-83.55 193.9,-76.51 183.32,-77.08 185.99,-83.55"/>
</g>
<!-- Node3 -->
<g id="node3" class="node">
<title>Node3</title>
<g id="a_node3"><a xlink:href="classConnect.html#a3e6574f386278349587cfefef7e06655" target="_top" xlink:title=" ">
<polygon fill="white" stroke="black" points="13.5,-76.5 13.5,-95.5 107.5,-95.5 107.5,-76.5 13.5,-76.5"/>
<text text-anchor="middle" x="60.5" y="-83.5" font-family="Helvetica,sans-Serif" font-size="10.00">Connect::minicom</text>
</a>
</g>
</g>
<!-- Node1&#45;&gt;Node3 -->
<g id="edge2" class="edge">
<title>Node1&#45;&gt;Node3</title>
<path fill="none" stroke="midnightblue" d="M146.6,-75.57C133.45,-77.18 120.01,-78.83 107.81,-80.32"/>
<polygon fill="midnightblue" stroke="midnightblue" points="147.07,-79.04 156.57,-74.35 146.22,-72.09 147.07,-79.04"/>
</g>
<!-- Node4 -->
<g id="node4" class="node">
<title>Node4</title>
<g id="a_node4"><a xlink:href="classConnect.html#a948dc7665fc1f05bbbc7169a74833a2b" target="_top" xlink:title=" ">
<polygon fill="white" stroke="black" points="0,-38.5 0,-57.5 121,-57.5 121,-38.5 0,-38.5"/>
<text text-anchor="middle" x="60.5" y="-45.5" font-family="Helvetica,sans-Serif" font-size="10.00">Connect::restartDaemon</text>
</a>
</g>
</g>
<!-- Node1&#45;&gt;Node4 -->
<g id="edge3" class="edge">
<title>Node1&#45;&gt;Node4</title>
<path fill="none" stroke="midnightblue" d="M146.62,-58.43C138.07,-57.39 129.39,-56.32 121.01,-55.3"/>
<polygon fill="midnightblue" stroke="midnightblue" points="146.22,-61.91 156.57,-59.65 147.07,-54.96 146.22,-61.91"/>
</g>
<!-- Node5 -->
<g id="node5" class="node">
<title>Node5</title>
<g id="a_node5"><a xlink:href="classConnect.html#a9b55e94397cb075144482504186f2f38" target="_top" xlink:title=" ">
<polygon fill="white" stroke="black" points="17.5,-0.5 17.5,-19.5 103.5,-19.5 103.5,-0.5 17.5,-0.5"/>
<text text-anchor="middle" x="60.5" y="-7.5" font-family="Helvetica,sans-Serif" font-size="10.00">Connect::update</text>
</a>
</g>
</g>
<!-- Node1&#45;&gt;Node5 -->
<g id="edge4" class="edge">
<title>Node1&#45;&gt;Node5</title>
<path fill="none" stroke="midnightblue" d="M184.51,-53.62C166.06,-46.07 142.36,-36.65 121,-29 111.91,-25.75 101.95,-22.46 92.83,-19.55"/>
<polygon fill="midnightblue" stroke="midnightblue" points="183.32,-56.92 193.9,-57.49 185.99,-50.45 183.32,-56.92"/>
</g>
</g>
</svg>
