<?xml version="1.0" encoding="UTF-8" standalone="no"?>
<!DOCTYPE svg PUBLIC "-//W3C//DTD SVG 1.1//EN"
 "http://www.w3.org/Graphics/SVG/1.1/DTD/svg11.dtd">
<!-- Generated by graphviz version 2.49.3 (20211027.1534)
 -->
<!-- Title: AdaptronicSelect::openConnection Pages: 1 -->
<!--zoomable 864 -->
<svg id="main" version="1.1" xmlns="http://www.w3.org/2000/svg" xmlns:xlink="http://www.w3.org/1999/xlink" xml:space="preserve" onload="init(evt)">
<style type="text/css"><![CDATA[
.edge:hover path { stroke: red; }
.edge:hover polygon { stroke: red; fill: red; }
]]></style>
<script type="text/javascript"><![CDATA[
var edges = document.getElementsByTagName('g');
if (edges && edges.length) {
  for (var i=0;i<edges.length;i++) {
    if (edges[i].id.substr(0,4)=='edge') {
      edges[i].setAttribute('class','edge');
    }
  }
}
]]></script>
        <defs>
                <circle id="rim" cx="0" cy="0" r="7"/>
                <circle id="rim2" cx="0" cy="0" r="3.5"/>
                <g id="zoomPlus">
                        <use xlink:href="#rim" fill="#404040">
                                <set attributeName="fill" to="#808080" begin="zoomplus.mouseover" end="zoomplus.mouseout"/>
                        </use>
                        <path d="M-4,0h8M0,-4v8" fill="none" stroke="white" stroke-width="1.5" pointer-events="none"/>
                </g>
                <g id="zoomMin">
                        <use xlink:href="#rim" fill="#404040">
                                <set attributeName="fill" to="#808080" begin="zoomminus.mouseover" end="zoomminus.mouseout"/>
                        </use>
                        <path d="M-4,0h8" fill="none" stroke="white" stroke-width="1.5" pointer-events="none"/>
                </g>
                <g id="dirArrow">
                        <path fill="none" stroke="white" stroke-width="1.5" d="M0,-3.0v7 M-2.5,-0.5L0,-3.0L2.5,-0.5"/>
                </g>
               <g id="resetDef">
                       <use xlink:href="#rim2" fill="#404040">
                               <set attributeName="fill" to="#808080" begin="reset.mouseover" end="reset.mouseout"/>
                       </use>
               </g>
        </defs>

<script type="text/javascript">
var viewWidth = 984;
var viewHeight = 864;
var sectionId = 'dynsection-6';
</script>
<script xlink:href="svgpan.js"/>
<svg id="graph" class="graph">
<g id="viewport">
<title>AdaptronicSelect::openConnection</title>
<polygon fill="white" stroke="transparent" points="-4,4 -4,-860 980,-860 980,4 -4,4"/>
<!-- Node1 -->
<g id="node1" class="node">
<title>Node1</title>
<g id="a_node1"><a xlink:title=" ">
<polygon fill="#bfbfbf" stroke="black" points="0,-418.5 0,-437.5 165,-437.5 165,-418.5 0,-418.5"/>
<text text-anchor="middle" x="82.5" y="-425.5" font-family="Helvetica,sans-Serif" font-size="10.00">AdaptronicSelect::openConnection</text>
</a>
</g>
</g>
<!-- Node2 -->
<g id="node2" class="node">
<title>Node2</title>
<g id="a_node2"><a xlink:href="classAdaptronicSelect.html#a79148c38700405eb6a3fc1338be170ab" target="_top" xlink:title=" ">
<polygon fill="white" stroke="black" points="201,-413 201,-443 343,-443 343,-413 201,-413"/>
<text text-anchor="start" x="209" y="-431" font-family="Helvetica,sans-Serif" font-size="10.00">AdaptronicSelect::Adaptronic</text>
<text text-anchor="middle" x="272" y="-420" font-family="Helvetica,sans-Serif" font-size="10.00">StartStream</text>
</a>
</g>
</g>
<!-- Node1&#45;&gt;Node2 -->
<g id="edge1" class="edge">
<title>Node1&#45;&gt;Node2</title>
<path fill="none" stroke="midnightblue" d="M165.19,-428C173.61,-428 182.17,-428 190.57,-428"/>
<polygon fill="midnightblue" stroke="midnightblue" points="190.73,-431.5 200.73,-428 190.73,-424.5 190.73,-431.5"/>
</g>
<!-- Node3 -->
<g id="node3" class="node">
<title>Node3</title>
<g id="a_node3"><a xlink:href="classAdaptronicSelect.html#af5ee85733260355dd5236c796c6a3fc5" target="_top" xlink:title=" ">
<polygon fill="white" stroke="black" points="379,-418.5 379,-437.5 531,-437.5 531,-418.5 379,-418.5"/>
<text text-anchor="middle" x="455" y="-425.5" font-family="Helvetica,sans-Serif" font-size="10.00">AdaptronicSelect::readyToRead</text>
</a>
</g>
</g>
<!-- Node2&#45;&gt;Node3 -->
<g id="edge2" class="edge">
<title>Node2&#45;&gt;Node3</title>
<path fill="none" stroke="midnightblue" d="M343.24,-428C351.5,-428 360.01,-428 368.45,-428"/>
<polygon fill="midnightblue" stroke="midnightblue" points="368.71,-431.5 378.71,-428 368.71,-424.5 368.71,-431.5"/>
</g>
<!-- Node4 -->
<g id="node4" class="node">
<title>Node4</title>
<g id="a_node4"><a xlink:href="classAdaptronicSelect.html#ae353c5153a25423eb6044be7a2f1bf72" target="_top" xlink:title=" ">
<polygon fill="white" stroke="black" points="567,-413 567,-443 694,-443 694,-413 567,-413"/>
<text text-anchor="start" x="575" y="-431" font-family="Helvetica,sans-Serif" font-size="10.00">AdaptronicSelect::decode</text>
<text text-anchor="middle" x="630.5" y="-420" font-family="Helvetica,sans-Serif" font-size="10.00">Adaptronic</text>
</a>
</g>
</g>
<!-- Node3&#45;&gt;Node4 -->
<g id="edge3" class="edge">
<title>Node3&#45;&gt;Node4</title>
<path fill="none" stroke="midnightblue" d="M531.09,-428C539.55,-428 548.17,-428 556.61,-428"/>
<polygon fill="midnightblue" stroke="midnightblue" points="556.78,-431.5 566.78,-428 556.78,-424.5 556.78,-431.5"/>
</g>
<!-- Node5 -->
<g id="node5" class="node">
<title>Node5</title>
<g id="a_node5"><a xlink:href="classDashBoard.html#a0f2f639b3c4a600bdad0aa9d04c605f9" target="_top" xlink:title=" ">
<polygon fill="white" stroke="black" points="735,-836.5 735,-855.5 856,-855.5 856,-836.5 735,-836.5"/>
<text text-anchor="middle" x="795.5" y="-843.5" font-family="Helvetica,sans-Serif" font-size="10.00">DashBoard::setauxcalc1</text>
</a>
</g>
</g>
<!-- Node4&#45;&gt;Node5 -->
<g id="edge4" class="edge">
<title>Node4&#45;&gt;Node5</title>
<path fill="none" stroke="midnightblue" d="M633.25,-443.32C641.08,-509.42 675.01,-769.51 730,-827 731.39,-828.46 732.89,-829.8 734.47,-831.04"/>
<polygon fill="midnightblue" stroke="midnightblue" points="732.67,-834.05 742.99,-836.45 736.43,-828.14 732.67,-834.05"/>
</g>
<!-- Node6 -->
<g id="node6" class="node">
<title>Node6</title>
<g id="a_node6"><a xlink:href="classDashBoard.html#a8fb1b3f8d0a98a92ef3363bf471ddd31" target="_top" xlink:title=" ">
<polygon fill="white" stroke="black" points="740.5,-798.5 740.5,-817.5 850.5,-817.5 850.5,-798.5 740.5,-798.5"/>
<text text-anchor="middle" x="795.5" y="-805.5" font-family="Helvetica,sans-Serif" font-size="10.00">DashBoard::setAUXT</text>
</a>
</g>
</g>
<!-- Node4&#45;&gt;Node6 -->
<g id="edge5" class="edge">
<title>Node4&#45;&gt;Node6</title>
<path fill="none" stroke="midnightblue" d="M630.8,-443.19C629.15,-498.06 631.1,-688.09 730,-789 731.41,-790.44 732.92,-791.77 734.52,-793"/>
<polygon fill="midnightblue" stroke="midnightblue" points="732.75,-796.02 743.09,-798.36 736.47,-790.09 732.75,-796.02"/>
</g>
<!-- Node7 -->
<g id="node7" class="node">
<title>Node7</title>
<g id="a_node7"><a xlink:href="classDashBoard.html#a21635845a2258c7dbe2a7f2f7ec32345" target="_top" xlink:title=" ">
<polygon fill="white" stroke="black" points="735.5,-760.5 735.5,-779.5 855.5,-779.5 855.5,-760.5 735.5,-760.5"/>
<text text-anchor="middle" x="795.5" y="-767.5" font-family="Helvetica,sans-Serif" font-size="10.00">DashBoard::setBatteryV</text>
</a>
</g>
</g>
<!-- Node4&#45;&gt;Node7 -->
<g id="edge6" class="edge">
<title>Node4&#45;&gt;Node7</title>
<path fill="none" stroke="midnightblue" d="M631.38,-443.02C631.8,-493.98 640.24,-662.09 730,-751 731.46,-752.45 733.03,-753.79 734.68,-755.02"/>
<polygon fill="midnightblue" stroke="midnightblue" points="733.16,-758.2 743.52,-760.41 736.8,-752.22 733.16,-758.2"/>
</g>
<!-- Node8 -->
<g id="node8" class="node">
<title>Node8</title>
<g id="a_node8"><a xlink:href="classDashBoard.html#a36b831fcbcd5cc6472927a50a5834574" target="_top" xlink:title=" ">
<polygon fill="white" stroke="black" points="734,-722.5 734,-741.5 857,-741.5 857,-722.5 734,-722.5"/>
<text text-anchor="middle" x="795.5" y="-729.5" font-family="Helvetica,sans-Serif" font-size="10.00">DashBoard::setIdleValue</text>
</a>
</g>
</g>
<!-- Node4&#45;&gt;Node8 -->
<g id="edge7" class="edge">
<title>Node4&#45;&gt;Node8</title>
<path fill="none" stroke="midnightblue" d="M632.1,-443.24C634.79,-490.52 649.54,-636.18 730,-713 731.65,-714.57 733.42,-716.01 735.28,-717.34"/>
<polygon fill="midnightblue" stroke="midnightblue" points="733.58,-720.4 743.98,-722.42 737.11,-714.35 733.58,-720.4"/>
</g>
<!-- Node9 -->
<g id="node9" class="node">
<title>Node9</title>
<g id="a_node9"><a xlink:href="classDashBoard.html#a3c7182d8aaaa30860e2c956500905e01" target="_top" xlink:title=" ">
<polygon fill="white" stroke="black" points="745,-684.5 745,-703.5 846,-703.5 846,-684.5 745,-684.5"/>
<text text-anchor="middle" x="795.5" y="-691.5" font-family="Helvetica,sans-Serif" font-size="10.00">DashBoard::setIgn1</text>
</a>
</g>
</g>
<!-- Node4&#45;&gt;Node9 -->
<g id="edge8" class="edge">
<title>Node4&#45;&gt;Node9</title>
<path fill="none" stroke="midnightblue" d="M632.99,-443.04C638.06,-485.92 658.51,-609.86 730,-675 731.75,-676.6 733.63,-678.06 735.61,-679.4"/>
<polygon fill="midnightblue" stroke="midnightblue" points="734.36,-682.71 744.8,-684.53 737.77,-676.6 734.36,-682.71"/>
</g>
<!-- Node10 -->
<g id="node10" class="node">
<title>Node10</title>
<g id="a_node10"><a xlink:href="classDashBoard.html#a3630ceb2d7c2882ad4b895bff6967200" target="_top" xlink:title=" ">
<polygon fill="white" stroke="black" points="745,-646.5 745,-665.5 846,-665.5 846,-646.5 745,-646.5"/>
<text text-anchor="middle" x="795.5" y="-653.5" font-family="Helvetica,sans-Serif" font-size="10.00">DashBoard::setIgn2</text>
</a>
</g>
</g>
<!-- Node4&#45;&gt;Node10 -->
<g id="edge9" class="edge">
<title>Node4&#45;&gt;Node10</title>
<path fill="none" stroke="midnightblue" d="M634.24,-443.21C641.96,-481.66 667.56,-583.5 730,-637 731.98,-638.69 734.1,-640.24 736.33,-641.64"/>
<polygon fill="midnightblue" stroke="midnightblue" points="734.88,-644.84 745.36,-646.41 738.15,-638.65 734.88,-644.84"/>
</g>
<!-- Node11 -->
<g id="node11" class="node">
<title>Node11</title>
<g id="a_node11"><a xlink:href="classDashBoard.html#a434bd3dad7d114572b4fe30255aec0be" target="_top" xlink:title=" ">
<polygon fill="white" stroke="black" points="745,-608.5 745,-627.5 846,-627.5 846,-608.5 745,-608.5"/>
<text text-anchor="middle" x="795.5" y="-615.5" font-family="Helvetica,sans-Serif" font-size="10.00">DashBoard::setIgn3</text>
</a>
</g>
</g>
<!-- Node4&#45;&gt;Node11 -->
<g id="edge10" class="edge">
<title>Node4&#45;&gt;Node11</title>
<path fill="none" stroke="midnightblue" d="M635.93,-443.13C646.48,-476.48 676.31,-556.7 730,-599 732.32,-600.83 734.81,-602.48 737.42,-603.98"/>
<polygon fill="midnightblue" stroke="midnightblue" points="736.12,-607.24 746.65,-608.47 739.19,-600.94 736.12,-607.24"/>
</g>
<!-- Node12 -->
<g id="node12" class="node">
<title>Node12</title>
<g id="a_node12"><a xlink:href="classDashBoard.html#a539fb34c4123f17405b896cd051bec34" target="_top" xlink:title=" ">
<polygon fill="white" stroke="black" points="745,-570.5 745,-589.5 846,-589.5 846,-570.5 745,-570.5"/>
<text text-anchor="middle" x="795.5" y="-577.5" font-family="Helvetica,sans-Serif" font-size="10.00">DashBoard::setIgn4</text>
</a>
</g>
</g>
<!-- Node4&#45;&gt;Node12 -->
<g id="edge11" class="edge">
<title>Node4&#45;&gt;Node12</title>
<path fill="none" stroke="midnightblue" d="M638.63,-443.29C652.33,-471 685.01,-529.57 730,-561 732.86,-563 735.94,-564.79 739.13,-566.4"/>
<polygon fill="midnightblue" stroke="midnightblue" points="737.83,-569.65 748.39,-570.44 740.63,-563.23 737.83,-569.65"/>
</g>
<!-- Node13 -->
<g id="node13" class="node">
<title>Node13</title>
<g id="a_node13"><a xlink:href="classDashBoard.html#aa834e3aecbc598fa618ecb140f92bed9" target="_top" xlink:title=" ">
<polygon fill="white" stroke="black" points="746.5,-532.5 746.5,-551.5 844.5,-551.5 844.5,-532.5 746.5,-532.5"/>
<text text-anchor="middle" x="795.5" y="-539.5" font-family="Helvetica,sans-Serif" font-size="10.00">DashBoard::setInj1</text>
</a>
</g>
</g>
<!-- Node4&#45;&gt;Node13 -->
<g id="edge12" class="edge">
<title>Node4&#45;&gt;Node13</title>
<path fill="none" stroke="midnightblue" d="M643.18,-443.16C660.1,-464.11 693.45,-501.73 730,-523 733.69,-525.15 737.64,-527.07 741.7,-528.78"/>
<polygon fill="midnightblue" stroke="midnightblue" points="740.72,-532.15 751.32,-532.42 743.2,-525.61 740.72,-532.15"/>
</g>
<!-- Node14 -->
<g id="node14" class="node">
<title>Node14</title>
<g id="a_node14"><a xlink:href="classDashBoard.html#a6f0435f369ba82adb9b4decf2393d486" target="_top" xlink:title=" ">
<polygon fill="white" stroke="black" points="746.5,-494.5 746.5,-513.5 844.5,-513.5 844.5,-494.5 746.5,-494.5"/>
<text text-anchor="middle" x="795.5" y="-501.5" font-family="Helvetica,sans-Serif" font-size="10.00">DashBoard::setInj2</text>
</a>
</g>
</g>
<!-- Node4&#45;&gt;Node14 -->
<g id="edge13" class="edge">
<title>Node4&#45;&gt;Node14</title>
<path fill="none" stroke="midnightblue" d="M654.17,-443.21C673.63,-455.75 702.77,-473.31 730,-485 735.36,-487.3 741.09,-489.43 746.83,-491.36"/>
<polygon fill="midnightblue" stroke="midnightblue" points="745.86,-494.73 756.45,-494.43 747.98,-488.06 745.86,-494.73"/>
</g>
<!-- Node15 -->
<g id="node15" class="node">
<title>Node15</title>
<g id="a_node15"><a xlink:href="classDashBoard.html#a29d3e8160a941227f00171e4be41acb9" target="_top" xlink:title=" ">
<polygon fill="white" stroke="black" points="746.5,-456.5 746.5,-475.5 844.5,-475.5 844.5,-456.5 746.5,-456.5"/>
<text text-anchor="middle" x="795.5" y="-463.5" font-family="Helvetica,sans-Serif" font-size="10.00">DashBoard::setInj3</text>
</a>
</g>
</g>
<!-- Node4&#45;&gt;Node15 -->
<g id="edge14" class="edge">
<title>Node4&#45;&gt;Node15</title>
<path fill="none" stroke="midnightblue" d="M694.05,-442.58C710.4,-446.39 727.83,-450.46 743.5,-454.11"/>
<polygon fill="midnightblue" stroke="midnightblue" points="742.98,-457.58 753.51,-456.44 744.57,-450.77 742.98,-457.58"/>
</g>
<!-- Node16 -->
<g id="node16" class="node">
<title>Node16</title>
<g id="a_node16"><a xlink:href="classDashBoard.html#a50314937d28d888abce86c76b3f51c64" target="_top" xlink:title=" ">
<polygon fill="white" stroke="black" points="746.5,-418.5 746.5,-437.5 844.5,-437.5 844.5,-418.5 746.5,-418.5"/>
<text text-anchor="middle" x="795.5" y="-425.5" font-family="Helvetica,sans-Serif" font-size="10.00">DashBoard::setInj4</text>
</a>
</g>
</g>
<!-- Node4&#45;&gt;Node16 -->
<g id="edge15" class="edge">
<title>Node4&#45;&gt;Node16</title>
<path fill="none" stroke="midnightblue" d="M694.05,-428C707.86,-428 722.44,-428 736.07,-428"/>
<polygon fill="midnightblue" stroke="midnightblue" points="736.29,-431.5 746.29,-428 736.29,-424.5 736.29,-431.5"/>
</g>
<!-- Node17 -->
<g id="node17" class="node">
<title>Node17</title>
<g id="a_node17"><a xlink:href="classDashBoard.html#ae4d194cbb50c7c36bd2d0b2be6b21e6d" target="_top" xlink:title=" ">
<polygon fill="white" stroke="black" points="730,-380.5 730,-399.5 861,-399.5 861,-380.5 730,-380.5"/>
<text text-anchor="middle" x="795.5" y="-387.5" font-family="Helvetica,sans-Serif" font-size="10.00">DashBoard::setIntaketemp</text>
</a>
</g>
</g>
<!-- Node4&#45;&gt;Node17 -->
<g id="edge16" class="edge">
<title>Node4&#45;&gt;Node17</title>
<path fill="none" stroke="midnightblue" d="M694.05,-413.42C710.4,-409.61 727.83,-405.54 743.5,-401.89"/>
<polygon fill="midnightblue" stroke="midnightblue" points="744.57,-405.23 753.51,-399.56 742.98,-398.42 744.57,-405.23"/>
</g>
<!-- Node18 -->
<g id="node18" class="node">
<title>Node18</title>
<g id="a_node18"><a xlink:href="classDashBoard.html#acf7ff86dcbb34ee7661c1904191cf7a9" target="_top" xlink:title=" ">
<polygon fill="white" stroke="black" points="740.5,-342.5 740.5,-361.5 850.5,-361.5 850.5,-342.5 740.5,-342.5"/>
<text text-anchor="middle" x="795.5" y="-349.5" font-family="Helvetica,sans-Serif" font-size="10.00">DashBoard::setKnock</text>
</a>
</g>
</g>
<!-- Node4&#45;&gt;Node18 -->
<g id="edge17" class="edge">
<title>Node4&#45;&gt;Node18</title>
<path fill="none" stroke="midnightblue" d="M654.17,-412.79C673.63,-400.25 702.77,-382.69 730,-371 735.36,-368.7 741.09,-366.57 746.83,-364.64"/>
<polygon fill="midnightblue" stroke="midnightblue" points="747.98,-367.94 756.45,-361.57 745.86,-361.27 747.98,-367.94"/>
</g>
<!-- Node19 -->
<g id="node19" class="node">
<title>Node19</title>
<g id="a_node19"><a xlink:href="classDashBoard.html#a67291e6e3e604237c9d207469a55db05" target="_top" xlink:title=" ">
<polygon fill="white" stroke="black" points="743.5,-304.5 743.5,-323.5 847.5,-323.5 847.5,-304.5 743.5,-304.5"/>
<text text-anchor="middle" x="795.5" y="-311.5" font-family="Helvetica,sans-Serif" font-size="10.00">DashBoard::setMAP</text>
</a>
</g>
</g>
<!-- Node4&#45;&gt;Node19 -->
<g id="edge18" class="edge">
<title>Node4&#45;&gt;Node19</title>
<path fill="none" stroke="midnightblue" d="M643.18,-412.84C660.1,-391.89 693.45,-354.27 730,-333 733.69,-330.85 737.64,-328.93 741.7,-327.22"/>
<polygon fill="midnightblue" stroke="midnightblue" points="743.2,-330.39 751.32,-323.58 740.72,-323.85 743.2,-330.39"/>
</g>
<!-- Node20 -->
<g id="node20" class="node">
<title>Node20</title>
<g id="a_node20"><a xlink:href="classDashBoard.html#a45d86a7a298deb9afdb339454119a2cb" target="_top" xlink:title=" ">
<polygon fill="white" stroke="black" points="740,-266.5 740,-285.5 851,-285.5 851,-266.5 740,-266.5"/>
<text text-anchor="middle" x="795.5" y="-273.5" font-family="Helvetica,sans-Serif" font-size="10.00">DashBoard::setMVSS</text>
</a>
</g>
</g>
<!-- Node4&#45;&gt;Node20 -->
<g id="edge19" class="edge">
<title>Node4&#45;&gt;Node20</title>
<path fill="none" stroke="midnightblue" d="M638.63,-412.71C652.33,-385 685.01,-326.43 730,-295 732.86,-293 735.94,-291.21 739.13,-289.6"/>
<polygon fill="midnightblue" stroke="midnightblue" points="740.63,-292.77 748.39,-285.56 737.83,-286.35 740.63,-292.77"/>
</g>
<!-- Node21 -->
<g id="node21" class="node">
<title>Node21</title>
<g id="a_node21"><a xlink:href="classDashBoard.html#ab617d388ec0714d60bf68f19b189d86b" target="_top" xlink:title=" ">
<polygon fill="white" stroke="black" points="746.5,-228.5 746.5,-247.5 844.5,-247.5 844.5,-228.5 746.5,-228.5"/>
<text text-anchor="middle" x="795.5" y="-235.5" font-family="Helvetica,sans-Serif" font-size="10.00">DashBoard::setpim</text>
</a>
</g>
</g>
<!-- Node4&#45;&gt;Node21 -->
<g id="edge20" class="edge">
<title>Node4&#45;&gt;Node21</title>
<path fill="none" stroke="midnightblue" d="M635.93,-412.87C646.48,-379.52 676.31,-299.3 730,-257 732.32,-255.17 734.81,-253.52 737.42,-252.02"/>
<polygon fill="midnightblue" stroke="midnightblue" points="739.19,-255.06 746.65,-247.53 736.12,-248.76 739.19,-255.06"/>
</g>
<!-- Node22 -->
<g id="node22" class="node">
<title>Node22</title>
<g id="a_node22"><a xlink:href="classDashBoard.html#ab8a26c5ebc87f76cc237e46d8e014403" target="_top" xlink:title=" ">
<polygon fill="white" stroke="black" points="746,-190.5 746,-209.5 845,-209.5 845,-190.5 746,-190.5"/>
<text text-anchor="middle" x="795.5" y="-197.5" font-family="Helvetica,sans-Serif" font-size="10.00">DashBoard::setrpm</text>
</a>
</g>
</g>
<!-- Node4&#45;&gt;Node22 -->
<g id="edge21" class="edge">
<title>Node4&#45;&gt;Node22</title>
<path fill="none" stroke="midnightblue" d="M634.24,-412.79C641.96,-374.34 667.56,-272.5 730,-219 732.02,-217.27 734.18,-215.7 736.46,-214.27"/>
<polygon fill="midnightblue" stroke="midnightblue" points="738.45,-217.18 745.68,-209.44 735.2,-210.98 738.45,-217.18"/>
</g>
<!-- Node24 -->
<g id="node24" class="node">
<title>Node24</title>
<g id="a_node24"><a xlink:href="classDashBoard.html#a77b4f7cb9851db07fcc88986469df3d8" target="_top" xlink:title=" ">
<polygon fill="white" stroke="black" points="740.5,-152.5 740.5,-171.5 850.5,-171.5 850.5,-152.5 740.5,-152.5"/>
<text text-anchor="middle" x="795.5" y="-159.5" font-family="Helvetica,sans-Serif" font-size="10.00">DashBoard::setSpeed</text>
</a>
</g>
</g>
<!-- Node4&#45;&gt;Node24 -->
<g id="edge23" class="edge">
<title>Node4&#45;&gt;Node24</title>
<path fill="none" stroke="midnightblue" d="M632.99,-412.96C638.06,-370.08 658.51,-246.14 730,-181 731.72,-179.43 733.56,-178 735.49,-176.68"/>
<polygon fill="midnightblue" stroke="midnightblue" points="737.48,-179.58 744.48,-171.62 734.05,-173.48 737.48,-179.58"/>
</g>
<!-- Node26 -->
<g id="node26" class="node">
<title>Node26</title>
<g id="a_node26"><a xlink:href="classDashBoard.html#aaa56f6855e89d900da75613bfc8c2f51" target="_top" xlink:title=" ">
<polygon fill="white" stroke="black" points="740.5,-114.5 740.5,-133.5 850.5,-133.5 850.5,-114.5 740.5,-114.5"/>
<text text-anchor="middle" x="795.5" y="-121.5" font-family="Helvetica,sans-Serif" font-size="10.00">DashBoard::setSVSS</text>
</a>
</g>
</g>
<!-- Node4&#45;&gt;Node26 -->
<g id="edge25" class="edge">
<title>Node4&#45;&gt;Node26</title>
<path fill="none" stroke="midnightblue" d="M632.1,-412.76C634.79,-365.48 649.54,-219.82 730,-143 731.65,-141.43 733.42,-139.99 735.28,-138.66"/>
<polygon fill="midnightblue" stroke="midnightblue" points="737.11,-141.65 743.98,-133.58 733.58,-135.6 737.11,-141.65"/>
</g>
<!-- Node27 -->
<g id="node27" class="node">
<title>Node27</title>
<g id="a_node27"><a xlink:href="classDashBoard.html#a75b10e663b009eb4ae77d10762280ca4" target="_top" xlink:title=" ">
<polygon fill="white" stroke="black" points="744.5,-76.5 744.5,-95.5 846.5,-95.5 846.5,-76.5 744.5,-76.5"/>
<text text-anchor="middle" x="795.5" y="-83.5" font-family="Helvetica,sans-Serif" font-size="10.00">DashBoard::setTPS</text>
</a>
</g>
</g>
<!-- Node4&#45;&gt;Node27 -->
<g id="edge26" class="edge">
<title>Node4&#45;&gt;Node27</title>
<path fill="none" stroke="midnightblue" d="M631.38,-412.98C631.8,-362.02 640.24,-193.91 730,-105 731.68,-103.33 733.51,-101.81 735.44,-100.42"/>
<polygon fill="midnightblue" stroke="midnightblue" points="737.61,-103.2 744.48,-95.13 734.08,-97.16 737.61,-103.2"/>
</g>
<!-- Node28 -->
<g id="node28" class="node">
<title>Node28</title>
<g id="a_node28"><a xlink:href="classDashBoard.html#a910e90bfbab7e031083811ac765ee5cf" target="_top" xlink:title=" ">
<polygon fill="white" stroke="black" points="742,-38.5 742,-57.5 849,-57.5 849,-38.5 742,-38.5"/>
<text text-anchor="middle" x="795.5" y="-45.5" font-family="Helvetica,sans-Serif" font-size="10.00">DashBoard::setTRIM</text>
</a>
</g>
</g>
<!-- Node4&#45;&gt;Node28 -->
<g id="edge27" class="edge">
<title>Node4&#45;&gt;Node28</title>
<path fill="none" stroke="midnightblue" d="M630.8,-412.81C629.15,-357.94 631.1,-167.91 730,-67 731.41,-65.56 732.92,-64.23 734.52,-63"/>
<polygon fill="midnightblue" stroke="midnightblue" points="736.47,-65.91 743.09,-57.64 732.75,-59.98 736.47,-65.91"/>
</g>
<!-- Node29 -->
<g id="node29" class="node">
<title>Node29</title>
<g id="a_node29"><a xlink:href="classDashBoard.html#aa4bc217dc1fe66ba8895284d24b92ee4" target="_top" xlink:title=" ">
<polygon fill="white" stroke="black" points="730.5,-0.5 730.5,-19.5 860.5,-19.5 860.5,-0.5 730.5,-0.5"/>
<text text-anchor="middle" x="795.5" y="-7.5" font-family="Helvetica,sans-Serif" font-size="10.00">DashBoard::setWatertemp</text>
</a>
</g>
</g>
<!-- Node4&#45;&gt;Node29 -->
<g id="edge28" class="edge">
<title>Node4&#45;&gt;Node29</title>
<path fill="none" stroke="midnightblue" d="M633.25,-412.68C641.08,-346.58 675.01,-86.49 730,-29 731.39,-27.54 732.89,-26.2 734.47,-24.96"/>
<polygon fill="midnightblue" stroke="midnightblue" points="736.43,-27.86 742.99,-19.55 732.67,-21.95 736.43,-27.86"/>
</g>
<!-- Node23 -->
<g id="node23" class="node">
<title>Node23</title>
<g id="a_node23"><a xlink:href="dashboard_8cpp.html#abaed07c489b38d23644263ae435338d4" target="_top" xlink:title=" ">
<polygon fill="white" stroke="black" points="900,-190.5 900,-209.5 973,-209.5 973,-190.5 900,-190.5"/>
<text text-anchor="middle" x="936.5" y="-197.5" font-family="Helvetica,sans-Serif" font-size="10.00">averageRPM</text>
</a>
</g>
</g>
<!-- Node22&#45;&gt;Node23 -->
<g id="edge22" class="edge">
<title>Node22&#45;&gt;Node23</title>
<path fill="none" stroke="midnightblue" d="M845.12,-200C859.6,-200 875.43,-200 889.73,-200"/>
<polygon fill="midnightblue" stroke="midnightblue" points="889.83,-203.5 899.83,-200 889.83,-196.5 889.83,-203.5"/>
</g>
<!-- Node25 -->
<g id="node25" class="node">
<title>Node25</title>
<g id="a_node25"><a xlink:href="dashboard_8cpp.html#abd6f714e98c152d7700b007c54201c76" target="_top" xlink:title=" ">
<polygon fill="white" stroke="black" points="897,-152.5 897,-171.5 976,-171.5 976,-152.5 897,-152.5"/>
<text text-anchor="middle" x="936.5" y="-159.5" font-family="Helvetica,sans-Serif" font-size="10.00">averageSpeed</text>
</a>
</g>
</g>
<!-- Node24&#45;&gt;Node25 -->
<g id="edge24" class="edge">
<title>Node24&#45;&gt;Node25</title>
<path fill="none" stroke="midnightblue" d="M850.64,-162C862.55,-162 875.09,-162 886.77,-162"/>
<polygon fill="midnightblue" stroke="midnightblue" points="886.78,-165.5 896.78,-162 886.78,-158.5 886.78,-165.5"/>
</g>
</g>
</svg>
        <g id="navigator" transform="translate(0 0)" fill="#404254">
                <rect fill="#f2f5e9" fill-opacity="0.5" stroke="#606060" stroke-width=".5" x="0" y="0" width="60" height="60"/>
                <use id="zoomplus" xlink:href="#zoomPlus" x="17" y="9" onmousedown="handleZoom(evt,'in')"/>
                <use id="zoomminus" xlink:href="#zoomMin" x="42" y="9" onmousedown="handleZoom(evt,'out')"/>
                <use id="reset" xlink:href="#resetDef" x="30" y="36" onmousedown="handleReset()"/>
                <g id="arrowUp" xlink:href="#dirArrow" transform="translate(30 24)" onmousedown="handlePan(0,-1)">
                  <use xlink:href="#rim" fill="#404040">
                        <set attributeName="fill" to="#808080" begin="arrowUp.mouseover" end="arrowUp.mouseout"/>
                  </use>
                  <path fill="none" stroke="white" stroke-width="1.5" d="M0,-3.0v7 M-2.5,-0.5L0,-3.0L2.5,-0.5"/>
                </g>
                <g id="arrowRight" xlink:href="#dirArrow" transform="rotate(90) translate(36 -43)" onmousedown="handlePan(1,0)">
                  <use xlink:href="#rim" fill="#404040">
                        <set attributeName="fill" to="#808080" begin="arrowRight.mouseover" end="arrowRight.mouseout"/>
                  </use>
                  <path fill="none" stroke="white" stroke-width="1.5" d="M0,-3.0v7 M-2.5,-0.5L0,-3.0L2.5,-0.5"/>
                </g>
                <g id="arrowDown" xlink:href="#dirArrow" transform="rotate(180) translate(-30 -48)" onmousedown="handlePan(0,1)">
                  <use xlink:href="#rim" fill="#404040">
                        <set attributeName="fill" to="#808080" begin="arrowDown.mouseover" end="arrowDown.mouseout"/>
                  </use>
                  <path fill="none" stroke="white" stroke-width="1.5" d="M0,-3.0v7 M-2.5,-0.5L0,-3.0L2.5,-0.5"/>
                </g>
                <g id="arrowLeft" xlink:href="#dirArrow" transform="rotate(270) translate(-36 17)" onmousedown="handlePan(-1,0)">
                  <use xlink:href="#rim" fill="#404040">
                        <set attributeName="fill" to="#808080" begin="arrowLeft.mouseover" end="arrowLeft.mouseout"/>
                  </use>
                  <path fill="none" stroke="white" stroke-width="1.5" d="M0,-3.0v7 M-2.5,-0.5L0,-3.0L2.5,-0.5"/>
                </g>
        </g>
        <svg viewBox="0 0 15 15" width="100%" height="30px" preserveAspectRatio="xMaxYMin meet">
         <g id="arrow_out" transform="scale(0.3 0.3)">
          <a xlink:href="classAdaptronicSelect_a16932b235281a8071bdf5404df8160ac_cgraph_org.svg" target="_base">
           <rect id="button" ry="5" rx="5" y="6" x="6" height="38" width="38"
                fill="#f2f5e9" fill-opacity="0.5" stroke="#606060" stroke-width="1.0"/>
           <path id="arrow"
             d="M 11.500037,31.436501 C 11.940474,20.09759 22.043105,11.32322 32.158766,21.979434 L 37.068811,17.246167 C 37.068811,17.246167 37.088388,32 37.088388,32 L 22.160133,31.978069 C 22.160133,31.978069 26.997745,27.140456 26.997745,27.140456 C 18.528582,18.264221 13.291696,25.230495 11.500037,31.436501 z"
             style="fill:#404040;"/>
          </a>
         </g>
        </svg>
</svg>
