<?xml version="1.0" encoding="UTF-8" standalone="no"?>
<!DOCTYPE svg PUBLIC "-//W3C//DTD SVG 1.1//EN"
 "http://www.w3.org/Graphics/SVG/1.1/DTD/svg11.dtd">
<!-- Generated by graphviz version 2.49.3 (20211027.1534)
 -->
<!-- Title: Arduino Pages: 1 -->
<svg width="200pt" height="152pt"
 viewBox="0.00 0.00 199.50 152.00" xmlns="http://www.w3.org/2000/svg" xmlns:xlink="http://www.w3.org/1999/xlink">
<g id="graph0" class="graph" transform="scale(1 1) rotate(0) translate(4 148)">
<title>Arduino</title>
<polygon fill="white" stroke="transparent" points="-4,4 -4,-148 195.5,-148 195.5,4 -4,4"/>
<!-- Node1 -->
<g id="node1" class="node">
<title>Node1</title>
<g id="a_node1"><a xlink:title=" ">
<polygon fill="#bfbfbf" stroke="black" points="38.5,-0.5 38.5,-19.5 88.5,-19.5 88.5,-0.5 38.5,-0.5"/>
<text text-anchor="middle" x="63.5" y="-7.5" font-family="Helvetica,sans-Serif" font-size="10.00">Arduino</text>
</a>
</g>
</g>
<!-- Node2 -->
<g id="node2" class="node">
<title>Node2</title>
<g id="a_node2"><a xlink:title=" ">
<polygon fill="white" stroke="#bfbfbf" points="0,-124.5 0,-143.5 53,-143.5 53,-124.5 0,-124.5"/>
<text text-anchor="middle" x="26.5" y="-131.5" font-family="Helvetica,sans-Serif" font-size="10.00">QObject</text>
</a>
</g>
</g>
<!-- Node2&#45;&gt;Node1 -->
<g id="edge1" class="edge">
<title>Node2&#45;&gt;Node1</title>
<path fill="none" stroke="midnightblue" d="M22.22,-114.23C19.97,-100.76 18.58,-82.36 23.5,-67 29.63,-47.89 44.94,-29.74 54.74,-19.53"/>
<polygon fill="midnightblue" stroke="midnightblue" points="18.82,-115.07 24.2,-124.2 25.69,-113.71 18.82,-115.07"/>
</g>
<!-- Node3 -->
<g id="node3" class="node">
<title>Node3</title>
<g id="a_node3"><a xlink:href="classDashBoard.html" target="_top" xlink:title=" ">
<polygon fill="white" stroke="black" points="33,-67.5 33,-86.5 98,-86.5 98,-67.5 33,-67.5"/>
<text text-anchor="middle" x="65.5" y="-74.5" font-family="Helvetica,sans-Serif" font-size="10.00">DashBoard</text>
</a>
</g>
</g>
<!-- Node2&#45;&gt;Node3 -->
<g id="edge3" class="edge">
<title>Node2&#45;&gt;Node3</title>
<path fill="none" stroke="midnightblue" d="M38.39,-116.23C45.3,-106.49 53.71,-94.62 59.32,-86.71"/>
<polygon fill="midnightblue" stroke="midnightblue" points="35.52,-114.22 32.59,-124.41 41.23,-118.27 35.52,-114.22"/>
</g>
<!-- Node3&#45;&gt;Node1 -->
<g id="edge2" class="edge">
<title>Node3&#45;&gt;Node1</title>
<path fill="none" stroke="#9a32cd" stroke-dasharray="5,2" d="M64.78,-57.37C64.68,-54.57 64.59,-51.71 64.5,-49 64.18,-38.97 63.89,-27.46 63.7,-19.75"/>
<polygon fill="#9a32cd" stroke="#9a32cd" points="61.29,-57.63 65.16,-67.49 68.29,-57.36 61.29,-57.63"/>
<text text-anchor="middle" x="95" y="-41" font-family="Helvetica,sans-Serif" font-size="10.00"> m_dashboard</text>
</g>
<!-- Node4 -->
<g id="node4" class="node">
<title>Node4</title>
<g id="a_node4"><a xlink:href="classSerialPort.html" target="_top" xlink:title=" ">
<polygon fill="white" stroke="black" points="118,-67.5 118,-86.5 177,-86.5 177,-67.5 118,-67.5"/>
<text text-anchor="middle" x="147.5" y="-74.5" font-family="Helvetica,sans-Serif" font-size="10.00">SerialPort</text>
</a>
</g>
</g>
<!-- Node4&#45;&gt;Node1 -->
<g id="edge4" class="edge">
<title>Node4&#45;&gt;Node1</title>
<path fill="none" stroke="#9a32cd" stroke-dasharray="5,2" d="M140.05,-57.98C136.47,-51.03 131.62,-43.45 125.5,-38 114.99,-28.62 100.71,-22.1 88.5,-17.82"/>
<polygon fill="#9a32cd" stroke="#9a32cd" points="137.03,-59.77 144.38,-67.4 143.39,-56.85 137.03,-59.77"/>
<text text-anchor="middle" x="163.5" y="-41" font-family="Helvetica,sans-Serif" font-size="10.00"> m_serialport</text>
</g>
<!-- Node5 -->
<g id="node5" class="node">
<title>Node5</title>
<g id="a_node5"><a xlink:title=" ">
<polygon fill="white" stroke="#bfbfbf" points="114,-124.5 114,-143.5 181,-143.5 181,-124.5 114,-124.5"/>
<text text-anchor="middle" x="147.5" y="-131.5" font-family="Helvetica,sans-Serif" font-size="10.00">QSerialPort</text>
</a>
</g>
</g>
<!-- Node5&#45;&gt;Node4 -->
<g id="edge5" class="edge">
<title>Node5&#45;&gt;Node4</title>
<path fill="none" stroke="midnightblue" d="M147.5,-114.12C147.5,-104.82 147.5,-94.06 147.5,-86.71"/>
<polygon fill="midnightblue" stroke="midnightblue" points="144,-114.41 147.5,-124.41 151,-114.41 144,-114.41"/>
</g>
</g>
</svg>
