<?xml version="1.0" encoding="UTF-8" standalone="no"?>
<!DOCTYPE svg PUBLIC "-//W3C//DTD SVG 1.1//EN"
 "http://www.w3.org/Graphics/SVG/1.1/DTD/svg11.dtd">
<!-- Generated by graphviz version 2.49.3 (20211027.1534)
 -->
<!-- Title: AppSettings::writeCountrySettings Pages: 1 -->
<svg width="329pt" height="104pt"
 viewBox="0.00 0.00 329.00 104.00" xmlns="http://www.w3.org/2000/svg" xmlns:xlink="http://www.w3.org/1999/xlink">
<g id="graph0" class="graph" transform="scale(1 1) rotate(0) translate(4 100)">
<title>AppSettings::writeCountrySettings</title>
<polygon fill="white" stroke="transparent" points="-4,4 -4,-100 325,-100 325,4 -4,4"/>
<!-- Node1 -->
<g id="node1" class="node">
<title>Node1</title>
<g id="a_node1"><a xlink:title=" ">
<polygon fill="#bfbfbf" stroke="black" points="0,-33 0,-63 128,-63 128,-33 0,-33"/>
<text text-anchor="start" x="8" y="-51" font-family="Helvetica,sans-Serif" font-size="10.00">AppSettings::writeCountry</text>
<text text-anchor="middle" x="64" y="-40" font-family="Helvetica,sans-Serif" font-size="10.00">Settings</text>
</a>
</g>
</g>
<!-- Node2 -->
<g id="node2" class="node">
<title>Node2</title>
<g id="a_node2"><a xlink:href="classAppSettings.html#a853abe79f8fc2d1563822f71628d2d5d" target="_top" xlink:title=" ">
<polygon fill="white" stroke="black" points="186,-76.5 186,-95.5 299,-95.5 299,-76.5 186,-76.5"/>
<text text-anchor="middle" x="242.5" y="-83.5" font-family="Helvetica,sans-Serif" font-size="10.00">AppSettings::getValue</text>
</a>
</g>
</g>
<!-- Node1&#45;&gt;Node2 -->
<g id="edge1" class="edge">
<title>Node1&#45;&gt;Node2</title>
<path fill="none" stroke="midnightblue" d="M128.22,-61.61C147.59,-65.78 168.71,-70.33 187.41,-74.36"/>
<polygon fill="midnightblue" stroke="midnightblue" points="186.73,-77.79 197.24,-76.47 188.2,-70.94 186.73,-77.79"/>
</g>
<!-- Node3 -->
<g id="node3" class="node">
<title>Node3</title>
<g id="a_node3"><a xlink:href="classDashBoard.html#aed67d03267cefbc52a61c47d2b0a5fb3" target="_top" xlink:title=" ">
<polygon fill="white" stroke="black" points="164,-38.5 164,-57.5 321,-57.5 321,-38.5 164,-38.5"/>
<text text-anchor="middle" x="242.5" y="-45.5" font-family="Helvetica,sans-Serif" font-size="10.00">DashBoard::setCBXCountrysave</text>
</a>
</g>
</g>
<!-- Node1&#45;&gt;Node3 -->
<g id="edge2" class="edge">
<title>Node1&#45;&gt;Node3</title>
<path fill="none" stroke="midnightblue" d="M128.22,-48C136.54,-48 145.18,-48 153.82,-48"/>
<polygon fill="midnightblue" stroke="midnightblue" points="153.93,-51.5 163.93,-48 153.93,-44.5 153.93,-51.5"/>
</g>
<!-- Node4 -->
<g id="node4" class="node">
<title>Node4</title>
<g id="a_node4"><a xlink:href="classAppSettings.html#a9fe37794c01f77fc192cf961dc1443db" target="_top" xlink:title=" ">
<polygon fill="white" stroke="black" points="186,-0.5 186,-19.5 299,-19.5 299,-0.5 186,-0.5"/>
<text text-anchor="middle" x="242.5" y="-7.5" font-family="Helvetica,sans-Serif" font-size="10.00">AppSettings::setValue</text>
</a>
</g>
</g>
<!-- Node1&#45;&gt;Node4 -->
<g id="edge3" class="edge">
<title>Node1&#45;&gt;Node4</title>
<path fill="none" stroke="midnightblue" d="M128.22,-34.39C147.59,-30.22 168.71,-25.67 187.41,-21.64"/>
<polygon fill="midnightblue" stroke="midnightblue" points="188.2,-25.06 197.24,-19.53 186.73,-18.21 188.2,-25.06"/>
</g>
</g>
</svg>
