<?xml version="1.0" encoding="UTF-8" standalone="no"?>
<!DOCTYPE svg PUBLIC "-//W3C//DTD SVG 1.1//EN"
 "http://www.w3.org/Graphics/SVG/1.1/DTD/svg11.dtd">
<!-- Generated by graphviz version 2.49.3 (20211027.1534)
 -->
<!-- Title: DashBoard::maxRPMChanged Pages: 1 -->
<svg width="631pt" height="78pt"
 viewBox="0.00 0.00 631.00 77.50" xmlns="http://www.w3.org/2000/svg" xmlns:xlink="http://www.w3.org/1999/xlink">
<g id="graph0" class="graph" transform="scale(1 1) rotate(0) translate(4 73.5)">
<title>DashBoard::maxRPMChanged</title>
<polygon fill="white" stroke="transparent" points="-4,4 -4,-73.5 627,-73.5 627,4 -4,4"/>
<!-- Node1 -->
<g id="node1" class="node">
<title>Node1</title>
<g id="a_node1"><a xlink:title=" ">
<polygon fill="#bfbfbf" stroke="black" points="476,-22.5 476,-41.5 623,-41.5 623,-22.5 476,-22.5"/>
<text text-anchor="middle" x="549.5" y="-29.5" font-family="Helvetica,sans-Serif" font-size="10.00">DashBoard::maxRPMChanged</text>
</a>
</g>
</g>
<!-- Node2 -->
<g id="node2" class="node">
<title>Node2</title>
<g id="a_node2"><a xlink:href="classDashBoard.html#ab810c270ff67e50f3e29528e6bc55d3d" target="_top" xlink:title=" ">
<polygon fill="white" stroke="black" points="318,-22.5 318,-41.5 440,-41.5 440,-22.5 318,-22.5"/>
<text text-anchor="middle" x="379" y="-29.5" font-family="Helvetica,sans-Serif" font-size="10.00">DashBoard::setmaxRPM</text>
</a>
</g>
</g>
<!-- Node1&#45;&gt;Node2 -->
<g id="edge1" class="edge">
<title>Node1&#45;&gt;Node2</title>
<path fill="none" stroke="midnightblue" d="M465.54,-32C456.97,-32 448.38,-32 440.13,-32"/>
<polygon fill="midnightblue" stroke="midnightblue" points="465.57,-35.5 475.57,-32 465.57,-28.5 465.57,-35.5"/>
</g>
<!-- Node3 -->
<g id="node3" class="node">
<title>Node3</title>
<g id="a_node3"><a xlink:href="classAppSettings.html#af97c4b73b02f8cf8ef75b11d8f86ac40" target="_top" xlink:title=" ">
<polygon fill="white" stroke="black" points="139,-39 139,-69 272,-69 272,-39 139,-39"/>
<text text-anchor="start" x="147" y="-57" font-family="Helvetica,sans-Serif" font-size="10.00">AppSettings::readandApply</text>
<text text-anchor="middle" x="205.5" y="-46" font-family="Helvetica,sans-Serif" font-size="10.00">Settings</text>
</a>
</g>
</g>
<!-- Node2&#45;&gt;Node3 -->
<g id="edge2" class="edge">
<title>Node2&#45;&gt;Node3</title>
<path fill="none" stroke="midnightblue" d="M307.43,-41.05C295.79,-42.55 283.76,-44.09 272.25,-45.57"/>
<polygon fill="midnightblue" stroke="midnightblue" points="308.06,-44.5 317.54,-39.76 307.17,-37.56 308.06,-44.5"/>
</g>
<!-- Node5 -->
<g id="node5" class="node">
<title>Node5</title>
<g id="a_node5"><a xlink:href="classAppSettings.html#afa30c7ad061739fceec748a0f00f98a2" target="_top" xlink:title=" ">
<polygon fill="white" stroke="black" points="129,-0.5 129,-19.5 282,-19.5 282,-0.5 129,-0.5"/>
<text text-anchor="middle" x="205.5" y="-7.5" font-family="Helvetica,sans-Serif" font-size="10.00">AppSettings::writeRPMSettings</text>
</a>
</g>
</g>
<!-- Node2&#45;&gt;Node5 -->
<g id="edge4" class="edge">
<title>Node2&#45;&gt;Node5</title>
<path fill="none" stroke="midnightblue" d="M307.38,-22.94C298.63,-21.82 289.66,-20.67 280.85,-19.54"/>
<polygon fill="midnightblue" stroke="midnightblue" points="307.17,-26.44 317.54,-24.24 308.06,-19.5 307.17,-26.44"/>
</g>
<!-- Node4 -->
<g id="node4" class="node">
<title>Node4</title>
<g id="a_node4"><a xlink:href="classConnect.html#a2e3bdc883e226b286ee2ea851bf5f551" target="_top" xlink:title=" ">
<polygon fill="white" stroke="black" points="0,-44.5 0,-63.5 93,-63.5 93,-44.5 0,-44.5"/>
<text text-anchor="middle" x="46.5" y="-51.5" font-family="Helvetica,sans-Serif" font-size="10.00">Connect::Connect</text>
</a>
</g>
</g>
<!-- Node3&#45;&gt;Node4 -->
<g id="edge3" class="edge">
<title>Node3&#45;&gt;Node4</title>
<path fill="none" stroke="midnightblue" d="M128.72,-54C116.64,-54 104.46,-54 93.35,-54"/>
<polygon fill="midnightblue" stroke="midnightblue" points="128.83,-57.5 138.83,-54 128.83,-50.5 128.83,-57.5"/>
</g>
</g>
</svg>
