<?xml version="1.0" encoding="UTF-8" standalone="no"?>
<!DOCTYPE svg PUBLIC "-//W3C//DTD SVG 1.1//EN"
 "http://www.w3.org/Graphics/SVG/1.1/DTD/svg11.dtd">
<!-- Generated by graphviz version 2.49.3 (20211027.1534)
 -->
<!-- Title: DashBoard::AnalogCalc10Changed Pages: 1 -->
<svg width="1014pt" height="39pt"
 viewBox="0.00 0.00 1014.00 39.00" xmlns="http://www.w3.org/2000/svg" xmlns:xlink="http://www.w3.org/1999/xlink">
<g id="graph0" class="graph" transform="scale(1 1) rotate(0) translate(4 35)">
<title>DashBoard::AnalogCalc10Changed</title>
<polygon fill="white" stroke="transparent" points="-4,4 -4,-35 1010,-35 1010,4 -4,4"/>
<!-- Node1 -->
<g id="node1" class="node">
<title>Node1</title>
<g id="a_node1"><a xlink:title=" ">
<polygon fill="#bfbfbf" stroke="black" points="839,-6 839,-25 1006,-25 1006,-6 839,-6"/>
<text text-anchor="middle" x="922.5" y="-13" font-family="Helvetica,sans-Serif" font-size="10.00">DashBoard::AnalogCalc10Changed</text>
</a>
</g>
</g>
<!-- Node2 -->
<g id="node2" class="node">
<title>Node2</title>
<g id="a_node2"><a xlink:href="classDashBoard.html#a79553f9ef8c7561d0aa683a825da84f7" target="_top" xlink:title=" ">
<polygon fill="white" stroke="black" points="660,-6 660,-25 803,-25 803,-6 660,-6"/>
<text text-anchor="middle" x="731.5" y="-13" font-family="Helvetica,sans-Serif" font-size="10.00">DashBoard::setAnalogCalc10</text>
</a>
</g>
</g>
<!-- Node1&#45;&gt;Node2 -->
<g id="edge1" class="edge">
<title>Node1&#45;&gt;Node2</title>
<path fill="none" stroke="midnightblue" d="M828.78,-15.5C820.15,-15.5 811.5,-15.5 803.12,-15.5"/>
<polygon fill="midnightblue" stroke="midnightblue" points="828.88,-19 838.88,-15.5 828.88,-12 828.88,-19"/>
</g>
<!-- Node3 -->
<g id="node3" class="node">
<title>Node3</title>
<g id="a_node3"><a xlink:href="classDashBoard.html#af80d4ebd0329387229515c7714cb917a" target="_top" xlink:title=" ">
<polygon fill="white" stroke="black" points="501,-6 501,-25 624,-25 624,-6 501,-6"/>
<text text-anchor="middle" x="562.5" y="-13" font-family="Helvetica,sans-Serif" font-size="10.00">DashBoard::setAnalog10</text>
</a>
</g>
</g>
<!-- Node2&#45;&gt;Node3 -->
<g id="edge2" class="edge">
<title>Node2&#45;&gt;Node3</title>
<path fill="none" stroke="midnightblue" d="M649.64,-15.5C641.06,-15.5 632.44,-15.5 624.14,-15.5"/>
<polygon fill="midnightblue" stroke="midnightblue" points="649.68,-19 659.68,-15.5 649.68,-12 649.68,-19"/>
</g>
<!-- Node4 -->
<g id="node4" class="node">
<title>Node4</title>
<g id="a_node4"><a xlink:href="classudpreceiver.html#a725cf4f5cf798fd5baed7eee2e6dd5f2" target="_top" xlink:title=" ">
<polygon fill="white" stroke="black" points="324,-0.5 324,-30.5 465,-30.5 465,-0.5 324,-0.5"/>
<text text-anchor="start" x="332" y="-18.5" font-family="Helvetica,sans-Serif" font-size="10.00">udpreceiver::processPending</text>
<text text-anchor="middle" x="394.5" y="-7.5" font-family="Helvetica,sans-Serif" font-size="10.00">Datagrams</text>
</a>
</g>
</g>
<!-- Node3&#45;&gt;Node4 -->
<g id="edge3" class="edge">
<title>Node3&#45;&gt;Node4</title>
<path fill="none" stroke="midnightblue" d="M490.47,-15.5C482.05,-15.5 473.46,-15.5 465.07,-15.5"/>
<polygon fill="midnightblue" stroke="midnightblue" points="490.63,-19 500.63,-15.5 490.63,-12 490.63,-19"/>
</g>
<!-- Node5 -->
<g id="node5" class="node">
<title>Node5</title>
<g id="a_node5"><a xlink:href="classudpreceiver.html#a2d7852b9e4be87d9a3ce960d8a7eb9aa" target="_top" xlink:title=" ">
<polygon fill="white" stroke="black" points="163,-6 163,-25 288,-25 288,-6 163,-6"/>
<text text-anchor="middle" x="225.5" y="-13" font-family="Helvetica,sans-Serif" font-size="10.00">udpreceiver::startreceiver</text>
</a>
</g>
</g>
<!-- Node4&#45;&gt;Node5 -->
<g id="edge4" class="edge">
<title>Node4&#45;&gt;Node5</title>
<path fill="none" stroke="midnightblue" d="M313.62,-15.5C305.05,-15.5 296.42,-15.5 288.11,-15.5"/>
<polygon fill="midnightblue" stroke="midnightblue" points="313.64,-19 323.64,-15.5 313.64,-12 313.64,-19"/>
</g>
<!-- Node6 -->
<g id="node6" class="node">
<title>Node6</title>
<g id="a_node6"><a xlink:href="classConnect.html#a0d674157f4d7442c535837dadd8cf5f1" target="_top" xlink:title=" ">
<polygon fill="white" stroke="black" points="0,-6 0,-25 127,-25 127,-6 0,-6"/>
<text text-anchor="middle" x="63.5" y="-13" font-family="Helvetica,sans-Serif" font-size="10.00">Connect::openConnection</text>
</a>
</g>
</g>
<!-- Node5&#45;&gt;Node6 -->
<g id="edge5" class="edge">
<title>Node5&#45;&gt;Node6</title>
<path fill="none" stroke="midnightblue" d="M152.46,-15.5C144.05,-15.5 135.52,-15.5 127.25,-15.5"/>
<polygon fill="midnightblue" stroke="midnightblue" points="152.64,-19 162.64,-15.5 152.64,-12 152.64,-19"/>
</g>
</g>
</svg>
