<?xml version="1.0" encoding="UTF-8" standalone="no"?>
<!DOCTYPE svg PUBLIC "-//W3C//DTD SVG 1.1//EN"
 "http://www.w3.org/Graphics/SVG/1.1/DTD/svg11.dtd">
<!-- Generated by graphviz version 2.49.3 (20211027.1534)
 -->
<!-- Title: WifiScanner Pages: 1 -->
<svg width="129pt" height="152pt"
 viewBox="0.00 0.00 129.00 152.00" xmlns="http://www.w3.org/2000/svg" xmlns:xlink="http://www.w3.org/1999/xlink">
<g id="graph0" class="graph" transform="scale(1 1) rotate(0) translate(4 148)">
<title>WifiScanner</title>
<polygon fill="white" stroke="transparent" points="-4,4 -4,-148 125,-148 125,4 -4,4"/>
<!-- Node1 -->
<g id="node1" class="node">
<title>Node1</title>
<g id="a_node1"><a xlink:title=" ">
<polygon fill="#bfbfbf" stroke="black" points="0,-0.5 0,-19.5 68,-19.5 68,-0.5 0,-0.5"/>
<text text-anchor="middle" x="34" y="-7.5" font-family="Helvetica,sans-Serif" font-size="10.00">WifiScanner</text>
</a>
</g>
</g>
<!-- Node2 -->
<g id="node2" class="node">
<title>Node2</title>
<g id="a_node2"><a xlink:title=" ">
<polygon fill="white" stroke="#bfbfbf" points="3.5,-124.5 3.5,-143.5 56.5,-143.5 56.5,-124.5 3.5,-124.5"/>
<text text-anchor="middle" x="30" y="-131.5" font-family="Helvetica,sans-Serif" font-size="10.00">QObject</text>
</a>
</g>
</g>
<!-- Node2&#45;&gt;Node1 -->
<g id="edge1" class="edge">
<title>Node2&#45;&gt;Node1</title>
<path fill="none" stroke="midnightblue" d="M30.62,-114.19C31.5,-87.4 33.07,-39.31 33.71,-19.69"/>
<polygon fill="midnightblue" stroke="midnightblue" points="27.12,-114.12 30.29,-124.23 34.11,-114.35 27.12,-114.12"/>
</g>
<!-- Node3 -->
<g id="node3" class="node">
<title>Node3</title>
<g id="a_node3"><a xlink:href="classDashBoard.html" target="_top" xlink:title=" ">
<polygon fill="white" stroke="black" points="46.5,-67.5 46.5,-86.5 111.5,-86.5 111.5,-67.5 46.5,-67.5"/>
<text text-anchor="middle" x="79" y="-74.5" font-family="Helvetica,sans-Serif" font-size="10.00">DashBoard</text>
</a>
</g>
</g>
<!-- Node2&#45;&gt;Node3 -->
<g id="edge3" class="edge">
<title>Node2&#45;&gt;Node3</title>
<path fill="none" stroke="midnightblue" d="M44.41,-116.83C53.18,-106.98 64.05,-94.78 71.24,-86.71"/>
<polygon fill="midnightblue" stroke="midnightblue" points="41.7,-114.61 37.66,-124.41 46.92,-119.27 41.7,-114.61"/>
</g>
<!-- Node3&#45;&gt;Node1 -->
<g id="edge2" class="edge">
<title>Node3&#45;&gt;Node1</title>
<path fill="none" stroke="#9a32cd" stroke-dasharray="5,2" d="M67.16,-58.9C58.42,-46.27 46.88,-29.6 39.97,-19.63"/>
<polygon fill="#9a32cd" stroke="#9a32cd" points="64.36,-61 72.93,-67.23 70.12,-57.02 64.36,-61"/>
<text text-anchor="middle" x="90.5" y="-41" font-family="Helvetica,sans-Serif" font-size="10.00"> m_dashboard</text>
</g>
</g>
</svg>
