<?xml version="1.0" encoding="UTF-8" standalone="no"?>
<!DOCTYPE svg PUBLIC "-//W3C//DTD SVG 1.1//EN"
 "http://www.w3.org/Graphics/SVG/1.1/DTD/svg11.dtd">
<!-- Generated by graphviz version 2.49.3 (20211027.1534)
 -->
<!-- Title: Sensors::error Pages: 1 -->
<svg width="233pt" height="180pt"
 viewBox="0.00 0.00 233.00 180.00" xmlns="http://www.w3.org/2000/svg" xmlns:xlink="http://www.w3.org/1999/xlink">
<g id="graph0" class="graph" transform="scale(1 1) rotate(0) translate(4 176)">
<title>Sensors::error</title>
<polygon fill="white" stroke="transparent" points="-4,4 -4,-176 229,-176 229,4 -4,4"/>
<!-- Node1 -->
<g id="node1" class="node">
<title>Node1</title>
<g id="a_node1"><a xlink:title=" ">
<polygon fill="#bfbfbf" stroke="black" points="148,-76.5 148,-95.5 225,-95.5 225,-76.5 148,-76.5"/>
<text text-anchor="middle" x="186.5" y="-83.5" font-family="Helvetica,sans-Serif" font-size="10.00">Sensors::error</text>
</a>
</g>
</g>
<!-- Node2 -->
<g id="node2" class="node">
<title>Node2</title>
<g id="a_node2"><a xlink:href="classSensors.html#af458816f0cb92c82d585fa8d0d2ec291" target="_top" xlink:title=" ">
<polygon fill="white" stroke="black" points="15,-152.5 15,-171.5 97,-171.5 97,-152.5 15,-152.5"/>
<text text-anchor="middle" x="56" y="-159.5" font-family="Helvetica,sans-Serif" font-size="10.00">Sensors::Accel</text>
</a>
</g>
</g>
<!-- Node1&#45;&gt;Node2 -->
<g id="edge1" class="edge">
<title>Node1&#45;&gt;Node2</title>
<path fill="none" stroke="midnightblue" d="M167.78,-102.45C153.57,-114.94 132.66,-131.82 112,-143 105.25,-146.65 97.66,-149.81 90.32,-152.45"/>
<polygon fill="midnightblue" stroke="midnightblue" points="170.21,-104.97 175.31,-95.68 165.54,-99.76 170.21,-104.97"/>
</g>
<!-- Node3 -->
<g id="node3" class="node">
<title>Node3</title>
<g id="a_node3"><a xlink:href="classSensors.html#a7c89a1a4def2dfe8cf86f0de8886763b" target="_top" xlink:title=" ">
<polygon fill="white" stroke="black" points="14.5,-114.5 14.5,-133.5 97.5,-133.5 97.5,-114.5 14.5,-114.5"/>
<text text-anchor="middle" x="56" y="-121.5" font-family="Helvetica,sans-Serif" font-size="10.00">Sensors::Comp</text>
</a>
</g>
</g>
<!-- Node1&#45;&gt;Node3 -->
<g id="edge2" class="edge">
<title>Node1&#45;&gt;Node3</title>
<path fill="none" stroke="midnightblue" d="M143.11,-98.54C125.63,-103.7 105.7,-109.6 89.42,-114.41"/>
<polygon fill="midnightblue" stroke="midnightblue" points="144.48,-101.78 153.07,-95.59 142.49,-95.07 144.48,-101.78"/>
</g>
<!-- Node4 -->
<g id="node4" class="node">
<title>Node4</title>
<g id="a_node4"><a xlink:href="classSensors.html#a323c2c40148fc1d93938aeb637cceaf4" target="_top" xlink:title=" ">
<polygon fill="white" stroke="black" points="17.5,-76.5 17.5,-95.5 94.5,-95.5 94.5,-76.5 17.5,-76.5"/>
<text text-anchor="middle" x="56" y="-83.5" font-family="Helvetica,sans-Serif" font-size="10.00">Sensors::Gyro</text>
</a>
</g>
</g>
<!-- Node1&#45;&gt;Node4 -->
<g id="edge3" class="edge">
<title>Node1&#45;&gt;Node4</title>
<path fill="none" stroke="midnightblue" d="M137.88,-86C123.67,-86 108.28,-86 94.78,-86"/>
<polygon fill="midnightblue" stroke="midnightblue" points="137.99,-89.5 147.99,-86 137.99,-82.5 137.99,-89.5"/>
</g>
<!-- Node5 -->
<g id="node5" class="node">
<title>Node5</title>
<g id="a_node5"><a xlink:href="classSensors.html#ad8a31a21867c762706a418d34814e678" target="_top" xlink:title=" ">
<polygon fill="white" stroke="black" points="8,-38.5 8,-57.5 104,-57.5 104,-38.5 8,-38.5"/>
<text text-anchor="middle" x="56" y="-45.5" font-family="Helvetica,sans-Serif" font-size="10.00">Sensors::Pressure</text>
</a>
</g>
</g>
<!-- Node1&#45;&gt;Node5 -->
<g id="edge4" class="edge">
<title>Node1&#45;&gt;Node5</title>
<path fill="none" stroke="midnightblue" d="M143.11,-73.46C125.63,-68.3 105.7,-62.4 89.42,-57.59"/>
<polygon fill="midnightblue" stroke="midnightblue" points="142.49,-76.93 153.07,-76.41 144.48,-70.22 142.49,-76.93"/>
</g>
<!-- Node6 -->
<g id="node6" class="node">
<title>Node6</title>
<g id="a_node6"><a xlink:href="classSensors.html#a6aa29c53e6d5e889322de3c1b4f0dcd6" target="_top" xlink:title=" ">
<polygon fill="white" stroke="black" points="0,-0.5 0,-19.5 112,-19.5 112,-0.5 0,-0.5"/>
<text text-anchor="middle" x="56" y="-7.5" font-family="Helvetica,sans-Serif" font-size="10.00">Sensors::Temperature</text>
</a>
</g>
</g>
<!-- Node1&#45;&gt;Node6 -->
<g id="edge5" class="edge">
<title>Node1&#45;&gt;Node6</title>
<path fill="none" stroke="midnightblue" d="M167.78,-69.55C153.57,-57.06 132.66,-40.18 112,-29 105.25,-25.35 97.66,-22.19 90.32,-19.55"/>
<polygon fill="midnightblue" stroke="midnightblue" points="165.54,-72.24 175.31,-76.32 170.21,-67.03 165.54,-72.24"/>
</g>
</g>
</svg>
