<?xml version="1.0" encoding="UTF-8" standalone="no"?>
<!DOCTYPE svg PUBLIC "-//W3C//DTD SVG 1.1//EN"
 "http://www.w3.org/Graphics/SVG/1.1/DTD/svg11.dtd">
<!-- Generated by graphviz version 2.49.3 (20211027.1534)
 -->
<!-- Title: Apexi::decodeBasic Pages: 1 -->
<svg width="404pt" height="370pt"
 viewBox="0.00 0.00 404.00 370.00" xmlns="http://www.w3.org/2000/svg" xmlns:xlink="http://www.w3.org/1999/xlink">
<g id="graph0" class="graph" transform="scale(1 1) rotate(0) translate(4 366)">
<title>Apexi::decodeBasic</title>
<polygon fill="white" stroke="transparent" points="-4,4 -4,-366 400,-366 400,4 -4,4"/>
<!-- Node1 -->
<g id="node1" class="node">
<title>Node1</title>
<g id="a_node1"><a xlink:title=" ">
<polygon fill="#bfbfbf" stroke="black" points="0,-171.5 0,-190.5 101,-190.5 101,-171.5 0,-171.5"/>
<text text-anchor="middle" x="50.5" y="-178.5" font-family="Helvetica,sans-Serif" font-size="10.00">Apexi::decodeBasic</text>
</a>
</g>
</g>
<!-- Node2 -->
<g id="node2" class="node">
<title>Node2</title>
<g id="a_node2"><a xlink:href="classDashBoard.html#a21635845a2258c7dbe2a7f2f7ec32345" target="_top" xlink:title=" ">
<polygon fill="white" stroke="black" points="149,-342.5 149,-361.5 269,-361.5 269,-342.5 149,-342.5"/>
<text text-anchor="middle" x="209" y="-349.5" font-family="Helvetica,sans-Serif" font-size="10.00">DashBoard::setBatteryV</text>
</a>
</g>
</g>
<!-- Node1&#45;&gt;Node2 -->
<g id="edge1" class="edge">
<title>Node1&#45;&gt;Node2</title>
<path fill="none" stroke="midnightblue" d="M54.03,-190.57C61.66,-217.44 87.01,-294.21 137,-333 139.44,-334.89 142.06,-336.6 144.79,-338.14"/>
<polygon fill="midnightblue" stroke="midnightblue" points="143.33,-341.32 153.86,-342.49 146.36,-335.01 143.33,-341.32"/>
</g>
<!-- Node3 -->
<g id="node3" class="node">
<title>Node3</title>
<g id="a_node3"><a xlink:href="classDashBoard.html#a8c621ed96a581e4ac022cc02dd89eed2" target="_top" xlink:title=" ">
<polygon fill="white" stroke="black" points="145,-304.5 145,-323.5 273,-323.5 273,-304.5 145,-304.5"/>
<text text-anchor="middle" x="209" y="-311.5" font-family="Helvetica,sans-Serif" font-size="10.00">DashBoard::setBoostPres</text>
</a>
</g>
</g>
<!-- Node1&#45;&gt;Node3 -->
<g id="edge2" class="edge">
<title>Node1&#45;&gt;Node3</title>
<path fill="none" stroke="midnightblue" d="M55.94,-190.67C66.59,-212.76 95.8,-267.15 137,-295 139.94,-296.99 143.09,-298.77 146.35,-300.37"/>
<polygon fill="midnightblue" stroke="midnightblue" points="145.24,-303.7 155.81,-304.39 147.97,-297.25 145.24,-303.7"/>
</g>
<!-- Node4 -->
<g id="node4" class="node">
<title>Node4</title>
<g id="a_node4"><a xlink:href="classDashBoard.html#aa6a5e959be63c69006cfe885c497a5db" target="_top" xlink:title=" ">
<polygon fill="white" stroke="black" points="137,-266.5 137,-285.5 281,-285.5 281,-266.5 137,-266.5"/>
<text text-anchor="middle" x="209" y="-273.5" font-family="Helvetica,sans-Serif" font-size="10.00">DashBoard::setBoostPreskpa</text>
</a>
</g>
</g>
<!-- Node1&#45;&gt;Node4 -->
<g id="edge3" class="edge">
<title>Node1&#45;&gt;Node4</title>
<path fill="none" stroke="midnightblue" d="M59.66,-190.75C73.75,-206.95 104.3,-239.39 137,-257 141.2,-259.26 145.69,-261.27 150.3,-263.05"/>
<polygon fill="midnightblue" stroke="midnightblue" points="149.26,-266.39 159.85,-266.39 151.56,-259.78 149.26,-266.39"/>
</g>
<!-- Node5 -->
<g id="node5" class="node">
<title>Node5</title>
<g id="a_node5"><a xlink:href="classDashBoard.html#ae4d194cbb50c7c36bd2d0b2be6b21e6d" target="_top" xlink:title=" ">
<polygon fill="white" stroke="black" points="143.5,-228.5 143.5,-247.5 274.5,-247.5 274.5,-228.5 143.5,-228.5"/>
<text text-anchor="middle" x="209" y="-235.5" font-family="Helvetica,sans-Serif" font-size="10.00">DashBoard::setIntaketemp</text>
</a>
</g>
</g>
<!-- Node1&#45;&gt;Node5 -->
<g id="edge4" class="edge">
<title>Node1&#45;&gt;Node5</title>
<path fill="none" stroke="midnightblue" d="M70.84,-190.64C87.94,-198.92 113.72,-210.77 137,-219 143.78,-221.4 151.02,-223.66 158.18,-225.73"/>
<polygon fill="midnightblue" stroke="midnightblue" points="157.29,-229.12 167.86,-228.43 159.17,-222.37 157.29,-229.12"/>
</g>
<!-- Node6 -->
<g id="node6" class="node">
<title>Node6</title>
<g id="a_node6"><a xlink:href="classDashBoard.html#acf7ff86dcbb34ee7661c1904191cf7a9" target="_top" xlink:title=" ">
<polygon fill="white" stroke="black" points="154,-190.5 154,-209.5 264,-209.5 264,-190.5 154,-190.5"/>
<text text-anchor="middle" x="209" y="-197.5" font-family="Helvetica,sans-Serif" font-size="10.00">DashBoard::setKnock</text>
</a>
</g>
</g>
<!-- Node1&#45;&gt;Node6 -->
<g id="edge5" class="edge">
<title>Node1&#45;&gt;Node6</title>
<path fill="none" stroke="midnightblue" d="M101.02,-187.01C114.56,-188.66 129.45,-190.46 143.69,-192.19"/>
<polygon fill="midnightblue" stroke="midnightblue" points="143.57,-195.7 153.92,-193.43 144.42,-188.75 143.57,-195.7"/>
</g>
<!-- Node7 -->
<g id="node7" class="node">
<title>Node7</title>
<g id="a_node7"><a xlink:href="classDashBoard.html#a4e90fc531b31a84fa122ade9bdc2ecf1" target="_top" xlink:title=" ">
<polygon fill="white" stroke="black" points="144,-152.5 144,-171.5 274,-171.5 274,-152.5 144,-152.5"/>
<text text-anchor="middle" x="209" y="-159.5" font-family="Helvetica,sans-Serif" font-size="10.00">DashBoard::setLeadingign</text>
</a>
</g>
</g>
<!-- Node1&#45;&gt;Node7 -->
<g id="edge6" class="edge">
<title>Node1&#45;&gt;Node7</title>
<path fill="none" stroke="midnightblue" d="M101.02,-174.99C111.44,-173.72 122.65,-172.36 133.75,-171.01"/>
<polygon fill="midnightblue" stroke="midnightblue" points="134.39,-174.46 143.89,-169.78 133.54,-167.51 134.39,-174.46"/>
</g>
<!-- Node8 -->
<g id="node8" class="node">
<title>Node8</title>
<g id="a_node8"><a xlink:href="classDashBoard.html#ab8a26c5ebc87f76cc237e46d8e014403" target="_top" xlink:title=" ">
<polygon fill="white" stroke="black" points="159.5,-114.5 159.5,-133.5 258.5,-133.5 258.5,-114.5 159.5,-114.5"/>
<text text-anchor="middle" x="209" y="-121.5" font-family="Helvetica,sans-Serif" font-size="10.00">DashBoard::setrpm</text>
</a>
</g>
</g>
<!-- Node1&#45;&gt;Node8 -->
<g id="edge7" class="edge">
<title>Node1&#45;&gt;Node8</title>
<path fill="none" stroke="midnightblue" d="M70.84,-171.36C87.94,-163.08 113.72,-151.23 137,-143 143.78,-140.6 151.02,-138.34 158.18,-136.27"/>
<polygon fill="midnightblue" stroke="midnightblue" points="159.17,-139.63 167.86,-133.57 157.29,-132.88 159.17,-139.63"/>
</g>
<!-- Node10 -->
<g id="node10" class="node">
<title>Node10</title>
<g id="a_node10"><a xlink:href="classDashBoard.html#a77b4f7cb9851db07fcc88986469df3d8" target="_top" xlink:title=" ">
<polygon fill="white" stroke="black" points="154,-76.5 154,-95.5 264,-95.5 264,-76.5 154,-76.5"/>
<text text-anchor="middle" x="209" y="-83.5" font-family="Helvetica,sans-Serif" font-size="10.00">DashBoard::setSpeed</text>
</a>
</g>
</g>
<!-- Node1&#45;&gt;Node10 -->
<g id="edge9" class="edge">
<title>Node1&#45;&gt;Node10</title>
<path fill="none" stroke="midnightblue" d="M59.66,-171.25C73.75,-155.05 104.3,-122.61 137,-105 141.2,-102.74 145.69,-100.73 150.3,-98.95"/>
<polygon fill="midnightblue" stroke="midnightblue" points="151.56,-102.22 159.85,-95.61 149.26,-95.61 151.56,-102.22"/>
</g>
<!-- Node12 -->
<g id="node12" class="node">
<title>Node12</title>
<g id="a_node12"><a xlink:href="classDashBoard.html#af72024007c435fdc3be14eb9c8198525" target="_top" xlink:title=" ">
<polygon fill="white" stroke="black" points="145.5,-38.5 145.5,-57.5 272.5,-57.5 272.5,-38.5 145.5,-38.5"/>
<text text-anchor="middle" x="209" y="-45.5" font-family="Helvetica,sans-Serif" font-size="10.00">DashBoard::setTrailingign</text>
</a>
</g>
</g>
<!-- Node1&#45;&gt;Node12 -->
<g id="edge11" class="edge">
<title>Node1&#45;&gt;Node12</title>
<path fill="none" stroke="midnightblue" d="M55.94,-171.33C66.59,-149.24 95.8,-94.85 137,-67 139.94,-65.01 143.09,-63.23 146.35,-61.63"/>
<polygon fill="midnightblue" stroke="midnightblue" points="147.97,-64.75 155.81,-57.61 145.24,-58.3 147.97,-64.75"/>
</g>
<!-- Node13 -->
<g id="node13" class="node">
<title>Node13</title>
<g id="a_node13"><a xlink:href="classDashBoard.html#aa4bc217dc1fe66ba8895284d24b92ee4" target="_top" xlink:title=" ">
<polygon fill="white" stroke="black" points="144,-0.5 144,-19.5 274,-19.5 274,-0.5 144,-0.5"/>
<text text-anchor="middle" x="209" y="-7.5" font-family="Helvetica,sans-Serif" font-size="10.00">DashBoard::setWatertemp</text>
</a>
</g>
</g>
<!-- Node1&#45;&gt;Node13 -->
<g id="edge12" class="edge">
<title>Node1&#45;&gt;Node13</title>
<path fill="none" stroke="midnightblue" d="M54.03,-171.43C61.66,-144.56 87.01,-67.79 137,-29 139.44,-27.11 142.06,-25.4 144.79,-23.86"/>
<polygon fill="midnightblue" stroke="midnightblue" points="146.36,-26.99 153.86,-19.51 143.33,-20.68 146.36,-26.99"/>
</g>
<!-- Node9 -->
<g id="node9" class="node">
<title>Node9</title>
<g id="a_node9"><a xlink:href="dashboard_8cpp.html#abaed07c489b38d23644263ae435338d4" target="_top" xlink:title=" ">
<polygon fill="white" stroke="black" points="320,-114.5 320,-133.5 393,-133.5 393,-114.5 320,-114.5"/>
<text text-anchor="middle" x="356.5" y="-121.5" font-family="Helvetica,sans-Serif" font-size="10.00">averageRPM</text>
</a>
</g>
</g>
<!-- Node8&#45;&gt;Node9 -->
<g id="edge8" class="edge">
<title>Node8&#45;&gt;Node9</title>
<path fill="none" stroke="midnightblue" d="M258.85,-124C275.24,-124 293.45,-124 309.61,-124"/>
<polygon fill="midnightblue" stroke="midnightblue" points="309.88,-127.5 319.88,-124 309.88,-120.5 309.88,-127.5"/>
</g>
<!-- Node11 -->
<g id="node11" class="node">
<title>Node11</title>
<g id="a_node11"><a xlink:href="dashboard_8cpp.html#abd6f714e98c152d7700b007c54201c76" target="_top" xlink:title=" ">
<polygon fill="white" stroke="black" points="317,-76.5 317,-95.5 396,-95.5 396,-76.5 317,-76.5"/>
<text text-anchor="middle" x="356.5" y="-83.5" font-family="Helvetica,sans-Serif" font-size="10.00">averageSpeed</text>
</a>
</g>
</g>
<!-- Node10&#45;&gt;Node11 -->
<g id="edge10" class="edge">
<title>Node10&#45;&gt;Node11</title>
<path fill="none" stroke="midnightblue" d="M264.18,-86C278.09,-86 292.96,-86 306.59,-86"/>
<polygon fill="midnightblue" stroke="midnightblue" points="306.72,-89.5 316.72,-86 306.72,-82.5 306.72,-89.5"/>
</g>
</g>
</svg>
