<?xml version="1.0" encoding="UTF-8" standalone="no"?>
<!DOCTYPE svg PUBLIC "-//W3C//DTD SVG 1.1//EN"
 "http://www.w3.org/Graphics/SVG/1.1/DTD/svg11.dtd">
<!-- Generated by graphviz version 2.49.3 (20211027.1534)
 -->
<!-- Title: DashBoard::CBXTracksaveChanged Pages: 1 -->
<svg width="687pt" height="78pt"
 viewBox="0.00 0.00 687.00 77.50" xmlns="http://www.w3.org/2000/svg" xmlns:xlink="http://www.w3.org/1999/xlink">
<g id="graph0" class="graph" transform="scale(1 1) rotate(0) translate(4 73.5)">
<title>DashBoard::CBXTracksaveChanged</title>
<polygon fill="white" stroke="transparent" points="-4,4 -4,-73.5 683,-73.5 683,4 -4,4"/>
<!-- Node1 -->
<g id="node1" class="node">
<title>Node1</title>
<g id="a_node1"><a xlink:title=" ">
<polygon fill="#bfbfbf" stroke="black" points="506,-22.5 506,-41.5 679,-41.5 679,-22.5 506,-22.5"/>
<text text-anchor="middle" x="592.5" y="-29.5" font-family="Helvetica,sans-Serif" font-size="10.00">DashBoard::CBXTracksaveChanged</text>
</a>
</g>
</g>
<!-- Node2 -->
<g id="node2" class="node">
<title>Node2</title>
<g id="a_node2"><a xlink:href="classDashBoard.html#aac4076dee1530b21a6c8ace832efe0e0" target="_top" xlink:title=" ">
<polygon fill="white" stroke="black" points="321,-22.5 321,-41.5 470,-41.5 470,-22.5 321,-22.5"/>
<text text-anchor="middle" x="395.5" y="-29.5" font-family="Helvetica,sans-Serif" font-size="10.00">DashBoard::setCBXTracksave</text>
</a>
</g>
</g>
<!-- Node1&#45;&gt;Node2 -->
<g id="edge1" class="edge">
<title>Node1&#45;&gt;Node2</title>
<path fill="none" stroke="midnightblue" d="M495.83,-32C487.16,-32 478.48,-32 470.06,-32"/>
<polygon fill="midnightblue" stroke="midnightblue" points="495.97,-35.5 505.97,-32 495.97,-28.5 495.97,-35.5"/>
</g>
<!-- Node3 -->
<g id="node3" class="node">
<title>Node3</title>
<g id="a_node3"><a xlink:href="classAppSettings.html#af97c4b73b02f8cf8ef75b11d8f86ac40" target="_top" xlink:title=" ">
<polygon fill="white" stroke="black" points="140.5,-39 140.5,-69 273.5,-69 273.5,-39 140.5,-39"/>
<text text-anchor="start" x="148.5" y="-57" font-family="Helvetica,sans-Serif" font-size="10.00">AppSettings::readandApply</text>
<text text-anchor="middle" x="207" y="-46" font-family="Helvetica,sans-Serif" font-size="10.00">Settings</text>
</a>
</g>
</g>
<!-- Node2&#45;&gt;Node3 -->
<g id="edge2" class="edge">
<title>Node2&#45;&gt;Node3</title>
<path fill="none" stroke="midnightblue" d="M310.85,-41.87C298.37,-43.34 285.65,-44.84 273.62,-46.26"/>
<polygon fill="midnightblue" stroke="midnightblue" points="311.27,-45.34 320.79,-40.69 310.45,-38.39 311.27,-45.34"/>
</g>
<!-- Node5 -->
<g id="node5" class="node">
<title>Node5</title>
<g id="a_node5"><a xlink:href="classAppSettings.html#ae03d53a065c5f36d794db5793d5f508b" target="_top" xlink:title=" ">
<polygon fill="white" stroke="black" points="129,-0.5 129,-19.5 285,-19.5 285,-0.5 129,-0.5"/>
<text text-anchor="middle" x="207" y="-7.5" font-family="Helvetica,sans-Serif" font-size="10.00">AppSettings::writeTrackSettings</text>
</a>
</g>
</g>
<!-- Node2&#45;&gt;Node5 -->
<g id="edge4" class="edge">
<title>Node2&#45;&gt;Node5</title>
<path fill="none" stroke="midnightblue" d="M310.83,-22.13C302.28,-21.12 293.63,-20.1 285.16,-19.1"/>
<polygon fill="midnightblue" stroke="midnightblue" points="310.45,-25.61 320.79,-23.31 311.27,-18.66 310.45,-25.61"/>
</g>
<!-- Node4 -->
<g id="node4" class="node">
<title>Node4</title>
<g id="a_node4"><a xlink:href="classConnect.html#a2e3bdc883e226b286ee2ea851bf5f551" target="_top" xlink:title=" ">
<polygon fill="white" stroke="black" points="0,-44.5 0,-63.5 93,-63.5 93,-44.5 0,-44.5"/>
<text text-anchor="middle" x="46.5" y="-51.5" font-family="Helvetica,sans-Serif" font-size="10.00">Connect::Connect</text>
</a>
</g>
</g>
<!-- Node3&#45;&gt;Node4 -->
<g id="edge3" class="edge">
<title>Node3&#45;&gt;Node4</title>
<path fill="none" stroke="midnightblue" d="M130.07,-54C117.44,-54 104.69,-54 93.12,-54"/>
<polygon fill="midnightblue" stroke="midnightblue" points="130.16,-57.5 140.16,-54 130.16,-50.5 130.16,-57.5"/>
</g>
</g>
</svg>
