<?xml version="1.0" encoding="UTF-8" standalone="no"?>
<!DOCTYPE svg PUBLIC "-//W3C//DTD SVG 1.1//EN"
 "http://www.w3.org/Graphics/SVG/1.1/DTD/svg11.dtd">
<!-- Generated by graphviz version 2.49.3 (20211027.1534)
 -->
<!-- Title: AppSettings::writebrightnessettings Pages: 1 -->
<svg width="343pt" height="66pt"
 viewBox="0.00 0.00 343.00 66.00" xmlns="http://www.w3.org/2000/svg" xmlns:xlink="http://www.w3.org/1999/xlink">
<g id="graph0" class="graph" transform="scale(1 1) rotate(0) translate(4 62)">
<title>AppSettings::writebrightnessettings</title>
<polygon fill="white" stroke="transparent" points="-4,4 -4,-62 339,-62 339,4 -4,4"/>
<!-- Node1 -->
<g id="node1" class="node">
<title>Node1</title>
<g id="a_node1"><a xlink:title=" ">
<polygon fill="#bfbfbf" stroke="black" points="0,-19.5 0,-38.5 170,-38.5 170,-19.5 0,-19.5"/>
<text text-anchor="middle" x="85" y="-26.5" font-family="Helvetica,sans-Serif" font-size="10.00">AppSettings::writebrightnessettings</text>
</a>
</g>
</g>
<!-- Node2 -->
<g id="node2" class="node">
<title>Node2</title>
<g id="a_node2"><a xlink:href="classDashBoard.html#a859867d33702db5286fc6664ab5e4542" target="_top" xlink:title=" ">
<polygon fill="white" stroke="black" points="206,-38.5 206,-57.5 335,-57.5 335,-38.5 206,-38.5"/>
<text text-anchor="middle" x="270.5" y="-45.5" font-family="Helvetica,sans-Serif" font-size="10.00">DashBoard::setBrightness</text>
</a>
</g>
</g>
<!-- Node1&#45;&gt;Node2 -->
<g id="edge1" class="edge">
<title>Node1&#45;&gt;Node2</title>
<path fill="none" stroke="midnightblue" d="M170.23,-37.72C178.74,-38.6 187.33,-39.49 195.72,-40.36"/>
<polygon fill="midnightblue" stroke="midnightblue" points="195.51,-43.86 205.82,-41.41 196.24,-36.9 195.51,-43.86"/>
</g>
<!-- Node3 -->
<g id="node3" class="node">
<title>Node3</title>
<g id="a_node3"><a xlink:href="classAppSettings.html#a9fe37794c01f77fc192cf961dc1443db" target="_top" xlink:title=" ">
<polygon fill="white" stroke="black" points="214,-0.5 214,-19.5 327,-19.5 327,-0.5 214,-0.5"/>
<text text-anchor="middle" x="270.5" y="-7.5" font-family="Helvetica,sans-Serif" font-size="10.00">AppSettings::setValue</text>
</a>
</g>
</g>
<!-- Node1&#45;&gt;Node3 -->
<g id="edge2" class="edge">
<title>Node1&#45;&gt;Node3</title>
<path fill="none" stroke="midnightblue" d="M170.23,-20.28C181.44,-19.12 192.8,-17.94 203.64,-16.82"/>
<polygon fill="midnightblue" stroke="midnightblue" points="204.26,-20.27 213.84,-15.76 203.54,-13.31 204.26,-20.27"/>
</g>
</g>
</svg>
