<?xml version="1.0" encoding="UTF-8" standalone="no"?>
<!DOCTYPE svg PUBLIC "-//W3C//DTD SVG 1.1//EN"
 "http://www.w3.org/Graphics/SVG/1.1/DTD/svg11.dtd">
<!-- Generated by graphviz version 2.49.3 (20211027.1534)
 -->
<!-- Title: DownloadManager::append Pages: 1 -->
<svg width="497pt" height="91pt"
 viewBox="0.00 0.00 497.00 91.45" xmlns="http://www.w3.org/2000/svg" xmlns:xlink="http://www.w3.org/1999/xlink">
<g id="graph0" class="graph" transform="scale(1 1) rotate(0) translate(4 87.45)">
<title>DownloadManager::append</title>
<polygon fill="white" stroke="transparent" points="-4,4 -4,-87.45 493,-87.45 493,4 -4,4"/>
<!-- Node1 -->
<g id="node1" class="node">
<title>Node1</title>
<g id="a_node1"><a xlink:title=" ">
<polygon fill="#bfbfbf" stroke="black" points="356,-19.95 356,-38.95 489,-38.95 489,-19.95 356,-19.95"/>
<text text-anchor="middle" x="422.5" y="-26.95" font-family="Helvetica,sans-Serif" font-size="10.00">DownloadManager::append</text>
</a>
</g>
</g>
<!-- Node2 -->
<g id="node2" class="node">
<title>Node2</title>
<g id="a_node2"><a xlink:href="classDownloadManager.html#a1173f56ecfa7598b3cd12e30b9dd470c" target="_top" xlink:title=" ">
<polygon fill="white" stroke="black" points="182,-63.95 182,-82.95 315,-82.95 315,-63.95 182,-63.95"/>
<text text-anchor="middle" x="248.5" y="-70.95" font-family="Helvetica,sans-Serif" font-size="10.00">DownloadManager::append</text>
</a>
</g>
</g>
<!-- Node1&#45;&gt;Node2 -->
<g id="edge1" class="edge">
<title>Node1&#45;&gt;Node2</title>
<path fill="none" stroke="midnightblue" d="M374.35,-41.52C346.76,-48.57 312.43,-57.36 286.75,-63.93"/>
<polygon fill="midnightblue" stroke="midnightblue" points="375.36,-44.87 384.18,-39 373.62,-38.09 375.36,-44.87"/>
</g>
<!-- Node3 -->
<g id="node3" class="node">
<title>Node3</title>
<g id="a_node3"><a xlink:href="classDownloadManager.html#a3db45b9d3b58f6e6cf7c75a263fb85ce" target="_top" xlink:title=" ">
<polygon fill="white" stroke="black" points="177,-14.45 177,-44.45 320,-44.45 320,-14.45 177,-14.45"/>
<text text-anchor="start" x="185" y="-32.45" font-family="Helvetica,sans-Serif" font-size="10.00">DownloadManager::download</text>
<text text-anchor="middle" x="248.5" y="-21.45" font-family="Helvetica,sans-Serif" font-size="10.00">Finished</text>
</a>
</g>
</g>
<!-- Node1&#45;&gt;Node3 -->
<g id="edge2" class="edge">
<title>Node1&#45;&gt;Node3</title>
<path fill="none" stroke="midnightblue" d="M345.75,-29.45C337.28,-29.45 328.68,-29.45 320.28,-29.45"/>
<polygon fill="midnightblue" stroke="midnightblue" points="345.98,-32.95 355.98,-29.45 345.98,-25.95 345.98,-32.95"/>
</g>
<!-- Node4 -->
<g id="node4" class="node">
<title>Node4</title>
<g id="a_node4"><a xlink:href="classDownloadManager.html#a5b2dc25fef54a4e61b48aa2c64854450" target="_top" xlink:title=" ">
<polygon fill="white" stroke="black" points="0,-14.45 0,-44.45 141,-44.45 141,-14.45 0,-14.45"/>
<text text-anchor="start" x="8" y="-32.45" font-family="Helvetica,sans-Serif" font-size="10.00">DownloadManager::startNext</text>
<text text-anchor="middle" x="70.5" y="-21.45" font-family="Helvetica,sans-Serif" font-size="10.00">Download</text>
</a>
</g>
</g>
<!-- Node3&#45;&gt;Node4 -->
<g id="edge3" class="edge">
<title>Node3&#45;&gt;Node4</title>
<path fill="none" stroke="midnightblue" d="M166.92,-22.73C158.34,-22.68 149.67,-22.71 141.23,-22.84"/>
<polygon fill="midnightblue" stroke="midnightblue" points="166.89,-26.23 176.93,-22.82 166.96,-19.23 166.89,-26.23"/>
</g>
<!-- Node4&#45;&gt;Node1 -->
<g id="edge4" class="edge">
<title>Node4&#45;&gt;Node1</title>
<path fill="none" stroke="midnightblue" d="M136.89,-12.2C150.08,-9.39 163.91,-6.92 177,-5.45 240.16,1.64 256.87,1.91 320,-5.45 343.56,-8.2 369.59,-14.42 389.39,-19.84"/>
<polygon fill="midnightblue" stroke="midnightblue" points="135.96,-8.82 126.95,-14.4 137.47,-15.65 135.96,-8.82"/>
</g>
<!-- Node4&#45;&gt;Node3 -->
<g id="edge5" class="edge">
<title>Node4&#45;&gt;Node3</title>
<path fill="none" stroke="midnightblue" d="M151.5,-36.18C159.98,-36.23 168.57,-36.2 176.93,-36.09"/>
<polygon fill="midnightblue" stroke="midnightblue" points="151.26,-32.68 141.23,-36.07 151.19,-39.68 151.26,-32.68"/>
</g>
<!-- Node4&#45;&gt;Node4 -->
<g id="edge6" class="edge">
<title>Node4&#45;&gt;Node4</title>
<path fill="none" stroke="midnightblue" d="M102.13,-54.91C98.2,-59.63 87.66,-62.95 70.5,-62.95 42.34,-62.95 32,-54.01 39.48,-44.61"/>
<polygon fill="midnightblue" stroke="midnightblue" points="105.6,-54.39 101.52,-44.61 98.62,-54.8 105.6,-54.39"/>
</g>
</g>
</svg>
