<?xml version="1.0" encoding="UTF-8" standalone="no"?>
<!DOCTYPE svg PUBLIC "-//W3C//DTD SVG 1.1//EN"
 "http://www.w3.org/Graphics/SVG/1.1/DTD/svg11.dtd">
<!-- Generated by graphviz version 2.49.3 (20211027.1534)
 -->
<!-- Title: AdaptronicSelect::readyToRead Pages: 1 -->
<svg width="605pt" height="864pt"
 viewBox="0.00 0.00 605.00 864.00" xmlns="http://www.w3.org/2000/svg" xmlns:xlink="http://www.w3.org/1999/xlink">
<g id="graph0" class="graph" transform="scale(1 1) rotate(0) translate(4 860)">
<title>AdaptronicSelect::readyToRead</title>
<polygon fill="white" stroke="transparent" points="-4,4 -4,-860 601,-860 601,4 -4,4"/>
<!-- Node1 -->
<g id="node1" class="node">
<title>Node1</title>
<g id="a_node1"><a xlink:title=" ">
<polygon fill="#bfbfbf" stroke="black" points="0,-418.5 0,-437.5 152,-437.5 152,-418.5 0,-418.5"/>
<text text-anchor="middle" x="76" y="-425.5" font-family="Helvetica,sans-Serif" font-size="10.00">AdaptronicSelect::readyToRead</text>
</a>
</g>
</g>
<!-- Node2 -->
<g id="node2" class="node">
<title>Node2</title>
<g id="a_node2"><a xlink:href="classAdaptronicSelect.html#ae353c5153a25423eb6044be7a2f1bf72" target="_top" xlink:title=" ">
<polygon fill="white" stroke="black" points="188,-413 188,-443 315,-443 315,-413 188,-413"/>
<text text-anchor="start" x="196" y="-431" font-family="Helvetica,sans-Serif" font-size="10.00">AdaptronicSelect::decode</text>
<text text-anchor="middle" x="251.5" y="-420" font-family="Helvetica,sans-Serif" font-size="10.00">Adaptronic</text>
</a>
</g>
</g>
<!-- Node1&#45;&gt;Node2 -->
<g id="edge1" class="edge">
<title>Node1&#45;&gt;Node2</title>
<path fill="none" stroke="midnightblue" d="M152.09,-428C160.55,-428 169.17,-428 177.61,-428"/>
<polygon fill="midnightblue" stroke="midnightblue" points="177.78,-431.5 187.78,-428 177.78,-424.5 177.78,-431.5"/>
</g>
<!-- Node3 -->
<g id="node3" class="node">
<title>Node3</title>
<g id="a_node3"><a xlink:href="classDashBoard.html#a0f2f639b3c4a600bdad0aa9d04c605f9" target="_top" xlink:title=" ">
<polygon fill="white" stroke="black" points="356,-836.5 356,-855.5 477,-855.5 477,-836.5 356,-836.5"/>
<text text-anchor="middle" x="416.5" y="-843.5" font-family="Helvetica,sans-Serif" font-size="10.00">DashBoard::setauxcalc1</text>
</a>
</g>
</g>
<!-- Node2&#45;&gt;Node3 -->
<g id="edge2" class="edge">
<title>Node2&#45;&gt;Node3</title>
<path fill="none" stroke="midnightblue" d="M254.25,-443.32C262.08,-509.42 296.01,-769.51 351,-827 352.39,-828.46 353.89,-829.8 355.47,-831.04"/>
<polygon fill="midnightblue" stroke="midnightblue" points="353.67,-834.05 363.99,-836.45 357.43,-828.14 353.67,-834.05"/>
</g>
<!-- Node4 -->
<g id="node4" class="node">
<title>Node4</title>
<g id="a_node4"><a xlink:href="classDashBoard.html#a8fb1b3f8d0a98a92ef3363bf471ddd31" target="_top" xlink:title=" ">
<polygon fill="white" stroke="black" points="361.5,-798.5 361.5,-817.5 471.5,-817.5 471.5,-798.5 361.5,-798.5"/>
<text text-anchor="middle" x="416.5" y="-805.5" font-family="Helvetica,sans-Serif" font-size="10.00">DashBoard::setAUXT</text>
</a>
</g>
</g>
<!-- Node2&#45;&gt;Node4 -->
<g id="edge3" class="edge">
<title>Node2&#45;&gt;Node4</title>
<path fill="none" stroke="midnightblue" d="M251.8,-443.19C250.15,-498.06 252.1,-688.09 351,-789 352.41,-790.44 353.92,-791.77 355.52,-793"/>
<polygon fill="midnightblue" stroke="midnightblue" points="353.75,-796.02 364.09,-798.36 357.47,-790.09 353.75,-796.02"/>
</g>
<!-- Node5 -->
<g id="node5" class="node">
<title>Node5</title>
<g id="a_node5"><a xlink:href="classDashBoard.html#a21635845a2258c7dbe2a7f2f7ec32345" target="_top" xlink:title=" ">
<polygon fill="white" stroke="black" points="356.5,-760.5 356.5,-779.5 476.5,-779.5 476.5,-760.5 356.5,-760.5"/>
<text text-anchor="middle" x="416.5" y="-767.5" font-family="Helvetica,sans-Serif" font-size="10.00">DashBoard::setBatteryV</text>
</a>
</g>
</g>
<!-- Node2&#45;&gt;Node5 -->
<g id="edge4" class="edge">
<title>Node2&#45;&gt;Node5</title>
<path fill="none" stroke="midnightblue" d="M252.38,-443.02C252.8,-493.98 261.24,-662.09 351,-751 352.46,-752.45 354.03,-753.79 355.68,-755.02"/>
<polygon fill="midnightblue" stroke="midnightblue" points="354.16,-758.2 364.52,-760.41 357.8,-752.22 354.16,-758.2"/>
</g>
<!-- Node6 -->
<g id="node6" class="node">
<title>Node6</title>
<g id="a_node6"><a xlink:href="classDashBoard.html#a36b831fcbcd5cc6472927a50a5834574" target="_top" xlink:title=" ">
<polygon fill="white" stroke="black" points="355,-722.5 355,-741.5 478,-741.5 478,-722.5 355,-722.5"/>
<text text-anchor="middle" x="416.5" y="-729.5" font-family="Helvetica,sans-Serif" font-size="10.00">DashBoard::setIdleValue</text>
</a>
</g>
</g>
<!-- Node2&#45;&gt;Node6 -->
<g id="edge5" class="edge">
<title>Node2&#45;&gt;Node6</title>
<path fill="none" stroke="midnightblue" d="M253.1,-443.24C255.79,-490.52 270.54,-636.18 351,-713 352.65,-714.57 354.42,-716.01 356.28,-717.34"/>
<polygon fill="midnightblue" stroke="midnightblue" points="354.58,-720.4 364.98,-722.42 358.11,-714.35 354.58,-720.4"/>
</g>
<!-- Node7 -->
<g id="node7" class="node">
<title>Node7</title>
<g id="a_node7"><a xlink:href="classDashBoard.html#a3c7182d8aaaa30860e2c956500905e01" target="_top" xlink:title=" ">
<polygon fill="white" stroke="black" points="366,-684.5 366,-703.5 467,-703.5 467,-684.5 366,-684.5"/>
<text text-anchor="middle" x="416.5" y="-691.5" font-family="Helvetica,sans-Serif" font-size="10.00">DashBoard::setIgn1</text>
</a>
</g>
</g>
<!-- Node2&#45;&gt;Node7 -->
<g id="edge6" class="edge">
<title>Node2&#45;&gt;Node7</title>
<path fill="none" stroke="midnightblue" d="M253.99,-443.04C259.06,-485.92 279.51,-609.86 351,-675 352.75,-676.6 354.63,-678.06 356.61,-679.4"/>
<polygon fill="midnightblue" stroke="midnightblue" points="355.36,-682.71 365.8,-684.53 358.77,-676.6 355.36,-682.71"/>
</g>
<!-- Node8 -->
<g id="node8" class="node">
<title>Node8</title>
<g id="a_node8"><a xlink:href="classDashBoard.html#a3630ceb2d7c2882ad4b895bff6967200" target="_top" xlink:title=" ">
<polygon fill="white" stroke="black" points="366,-646.5 366,-665.5 467,-665.5 467,-646.5 366,-646.5"/>
<text text-anchor="middle" x="416.5" y="-653.5" font-family="Helvetica,sans-Serif" font-size="10.00">DashBoard::setIgn2</text>
</a>
</g>
</g>
<!-- Node2&#45;&gt;Node8 -->
<g id="edge7" class="edge">
<title>Node2&#45;&gt;Node8</title>
<path fill="none" stroke="midnightblue" d="M255.24,-443.21C262.96,-481.66 288.56,-583.5 351,-637 352.98,-638.69 355.1,-640.24 357.33,-641.64"/>
<polygon fill="midnightblue" stroke="midnightblue" points="355.88,-644.84 366.36,-646.41 359.15,-638.65 355.88,-644.84"/>
</g>
<!-- Node9 -->
<g id="node9" class="node">
<title>Node9</title>
<g id="a_node9"><a xlink:href="classDashBoard.html#a434bd3dad7d114572b4fe30255aec0be" target="_top" xlink:title=" ">
<polygon fill="white" stroke="black" points="366,-608.5 366,-627.5 467,-627.5 467,-608.5 366,-608.5"/>
<text text-anchor="middle" x="416.5" y="-615.5" font-family="Helvetica,sans-Serif" font-size="10.00">DashBoard::setIgn3</text>
</a>
</g>
</g>
<!-- Node2&#45;&gt;Node9 -->
<g id="edge8" class="edge">
<title>Node2&#45;&gt;Node9</title>
<path fill="none" stroke="midnightblue" d="M256.93,-443.13C267.48,-476.48 297.31,-556.7 351,-599 353.32,-600.83 355.81,-602.48 358.42,-603.98"/>
<polygon fill="midnightblue" stroke="midnightblue" points="357.12,-607.24 367.65,-608.47 360.19,-600.94 357.12,-607.24"/>
</g>
<!-- Node10 -->
<g id="node10" class="node">
<title>Node10</title>
<g id="a_node10"><a xlink:href="classDashBoard.html#a539fb34c4123f17405b896cd051bec34" target="_top" xlink:title=" ">
<polygon fill="white" stroke="black" points="366,-570.5 366,-589.5 467,-589.5 467,-570.5 366,-570.5"/>
<text text-anchor="middle" x="416.5" y="-577.5" font-family="Helvetica,sans-Serif" font-size="10.00">DashBoard::setIgn4</text>
</a>
</g>
</g>
<!-- Node2&#45;&gt;Node10 -->
<g id="edge9" class="edge">
<title>Node2&#45;&gt;Node10</title>
<path fill="none" stroke="midnightblue" d="M259.63,-443.29C273.33,-471 306.01,-529.57 351,-561 353.86,-563 356.94,-564.79 360.13,-566.4"/>
<polygon fill="midnightblue" stroke="midnightblue" points="358.83,-569.65 369.39,-570.44 361.63,-563.23 358.83,-569.65"/>
</g>
<!-- Node11 -->
<g id="node11" class="node">
<title>Node11</title>
<g id="a_node11"><a xlink:href="classDashBoard.html#aa834e3aecbc598fa618ecb140f92bed9" target="_top" xlink:title=" ">
<polygon fill="white" stroke="black" points="367.5,-532.5 367.5,-551.5 465.5,-551.5 465.5,-532.5 367.5,-532.5"/>
<text text-anchor="middle" x="416.5" y="-539.5" font-family="Helvetica,sans-Serif" font-size="10.00">DashBoard::setInj1</text>
</a>
</g>
</g>
<!-- Node2&#45;&gt;Node11 -->
<g id="edge10" class="edge">
<title>Node2&#45;&gt;Node11</title>
<path fill="none" stroke="midnightblue" d="M264.18,-443.16C281.1,-464.11 314.45,-501.73 351,-523 354.69,-525.15 358.64,-527.07 362.7,-528.78"/>
<polygon fill="midnightblue" stroke="midnightblue" points="361.72,-532.15 372.32,-532.42 364.2,-525.61 361.72,-532.15"/>
</g>
<!-- Node12 -->
<g id="node12" class="node">
<title>Node12</title>
<g id="a_node12"><a xlink:href="classDashBoard.html#a6f0435f369ba82adb9b4decf2393d486" target="_top" xlink:title=" ">
<polygon fill="white" stroke="black" points="367.5,-494.5 367.5,-513.5 465.5,-513.5 465.5,-494.5 367.5,-494.5"/>
<text text-anchor="middle" x="416.5" y="-501.5" font-family="Helvetica,sans-Serif" font-size="10.00">DashBoard::setInj2</text>
</a>
</g>
</g>
<!-- Node2&#45;&gt;Node12 -->
<g id="edge11" class="edge">
<title>Node2&#45;&gt;Node12</title>
<path fill="none" stroke="midnightblue" d="M275.17,-443.21C294.63,-455.75 323.77,-473.31 351,-485 356.36,-487.3 362.09,-489.43 367.83,-491.36"/>
<polygon fill="midnightblue" stroke="midnightblue" points="366.86,-494.73 377.45,-494.43 368.98,-488.06 366.86,-494.73"/>
</g>
<!-- Node13 -->
<g id="node13" class="node">
<title>Node13</title>
<g id="a_node13"><a xlink:href="classDashBoard.html#a29d3e8160a941227f00171e4be41acb9" target="_top" xlink:title=" ">
<polygon fill="white" stroke="black" points="367.5,-456.5 367.5,-475.5 465.5,-475.5 465.5,-456.5 367.5,-456.5"/>
<text text-anchor="middle" x="416.5" y="-463.5" font-family="Helvetica,sans-Serif" font-size="10.00">DashBoard::setInj3</text>
</a>
</g>
</g>
<!-- Node2&#45;&gt;Node13 -->
<g id="edge12" class="edge">
<title>Node2&#45;&gt;Node13</title>
<path fill="none" stroke="midnightblue" d="M315.05,-442.58C331.4,-446.39 348.83,-450.46 364.5,-454.11"/>
<polygon fill="midnightblue" stroke="midnightblue" points="363.98,-457.58 374.51,-456.44 365.57,-450.77 363.98,-457.58"/>
</g>
<!-- Node14 -->
<g id="node14" class="node">
<title>Node14</title>
<g id="a_node14"><a xlink:href="classDashBoard.html#a50314937d28d888abce86c76b3f51c64" target="_top" xlink:title=" ">
<polygon fill="white" stroke="black" points="367.5,-418.5 367.5,-437.5 465.5,-437.5 465.5,-418.5 367.5,-418.5"/>
<text text-anchor="middle" x="416.5" y="-425.5" font-family="Helvetica,sans-Serif" font-size="10.00">DashBoard::setInj4</text>
</a>
</g>
</g>
<!-- Node2&#45;&gt;Node14 -->
<g id="edge13" class="edge">
<title>Node2&#45;&gt;Node14</title>
<path fill="none" stroke="midnightblue" d="M315.05,-428C328.86,-428 343.44,-428 357.07,-428"/>
<polygon fill="midnightblue" stroke="midnightblue" points="357.29,-431.5 367.29,-428 357.29,-424.5 357.29,-431.5"/>
</g>
<!-- Node15 -->
<g id="node15" class="node">
<title>Node15</title>
<g id="a_node15"><a xlink:href="classDashBoard.html#ae4d194cbb50c7c36bd2d0b2be6b21e6d" target="_top" xlink:title=" ">
<polygon fill="white" stroke="black" points="351,-380.5 351,-399.5 482,-399.5 482,-380.5 351,-380.5"/>
<text text-anchor="middle" x="416.5" y="-387.5" font-family="Helvetica,sans-Serif" font-size="10.00">DashBoard::setIntaketemp</text>
</a>
</g>
</g>
<!-- Node2&#45;&gt;Node15 -->
<g id="edge14" class="edge">
<title>Node2&#45;&gt;Node15</title>
<path fill="none" stroke="midnightblue" d="M315.05,-413.42C331.4,-409.61 348.83,-405.54 364.5,-401.89"/>
<polygon fill="midnightblue" stroke="midnightblue" points="365.57,-405.23 374.51,-399.56 363.98,-398.42 365.57,-405.23"/>
</g>
<!-- Node16 -->
<g id="node16" class="node">
<title>Node16</title>
<g id="a_node16"><a xlink:href="classDashBoard.html#acf7ff86dcbb34ee7661c1904191cf7a9" target="_top" xlink:title=" ">
<polygon fill="white" stroke="black" points="361.5,-342.5 361.5,-361.5 471.5,-361.5 471.5,-342.5 361.5,-342.5"/>
<text text-anchor="middle" x="416.5" y="-349.5" font-family="Helvetica,sans-Serif" font-size="10.00">DashBoard::setKnock</text>
</a>
</g>
</g>
<!-- Node2&#45;&gt;Node16 -->
<g id="edge15" class="edge">
<title>Node2&#45;&gt;Node16</title>
<path fill="none" stroke="midnightblue" d="M275.17,-412.79C294.63,-400.25 323.77,-382.69 351,-371 356.36,-368.7 362.09,-366.57 367.83,-364.64"/>
<polygon fill="midnightblue" stroke="midnightblue" points="368.98,-367.94 377.45,-361.57 366.86,-361.27 368.98,-367.94"/>
</g>
<!-- Node17 -->
<g id="node17" class="node">
<title>Node17</title>
<g id="a_node17"><a xlink:href="classDashBoard.html#a67291e6e3e604237c9d207469a55db05" target="_top" xlink:title=" ">
<polygon fill="white" stroke="black" points="364.5,-304.5 364.5,-323.5 468.5,-323.5 468.5,-304.5 364.5,-304.5"/>
<text text-anchor="middle" x="416.5" y="-311.5" font-family="Helvetica,sans-Serif" font-size="10.00">DashBoard::setMAP</text>
</a>
</g>
</g>
<!-- Node2&#45;&gt;Node17 -->
<g id="edge16" class="edge">
<title>Node2&#45;&gt;Node17</title>
<path fill="none" stroke="midnightblue" d="M264.18,-412.84C281.1,-391.89 314.45,-354.27 351,-333 354.69,-330.85 358.64,-328.93 362.7,-327.22"/>
<polygon fill="midnightblue" stroke="midnightblue" points="364.2,-330.39 372.32,-323.58 361.72,-323.85 364.2,-330.39"/>
</g>
<!-- Node18 -->
<g id="node18" class="node">
<title>Node18</title>
<g id="a_node18"><a xlink:href="classDashBoard.html#a45d86a7a298deb9afdb339454119a2cb" target="_top" xlink:title=" ">
<polygon fill="white" stroke="black" points="361,-266.5 361,-285.5 472,-285.5 472,-266.5 361,-266.5"/>
<text text-anchor="middle" x="416.5" y="-273.5" font-family="Helvetica,sans-Serif" font-size="10.00">DashBoard::setMVSS</text>
</a>
</g>
</g>
<!-- Node2&#45;&gt;Node18 -->
<g id="edge17" class="edge">
<title>Node2&#45;&gt;Node18</title>
<path fill="none" stroke="midnightblue" d="M259.63,-412.71C273.33,-385 306.01,-326.43 351,-295 353.86,-293 356.94,-291.21 360.13,-289.6"/>
<polygon fill="midnightblue" stroke="midnightblue" points="361.63,-292.77 369.39,-285.56 358.83,-286.35 361.63,-292.77"/>
</g>
<!-- Node19 -->
<g id="node19" class="node">
<title>Node19</title>
<g id="a_node19"><a xlink:href="classDashBoard.html#ab617d388ec0714d60bf68f19b189d86b" target="_top" xlink:title=" ">
<polygon fill="white" stroke="black" points="367.5,-228.5 367.5,-247.5 465.5,-247.5 465.5,-228.5 367.5,-228.5"/>
<text text-anchor="middle" x="416.5" y="-235.5" font-family="Helvetica,sans-Serif" font-size="10.00">DashBoard::setpim</text>
</a>
</g>
</g>
<!-- Node2&#45;&gt;Node19 -->
<g id="edge18" class="edge">
<title>Node2&#45;&gt;Node19</title>
<path fill="none" stroke="midnightblue" d="M256.93,-412.87C267.48,-379.52 297.31,-299.3 351,-257 353.32,-255.17 355.81,-253.52 358.42,-252.02"/>
<polygon fill="midnightblue" stroke="midnightblue" points="360.19,-255.06 367.65,-247.53 357.12,-248.76 360.19,-255.06"/>
</g>
<!-- Node20 -->
<g id="node20" class="node">
<title>Node20</title>
<g id="a_node20"><a xlink:href="classDashBoard.html#ab8a26c5ebc87f76cc237e46d8e014403" target="_top" xlink:title=" ">
<polygon fill="white" stroke="black" points="367,-190.5 367,-209.5 466,-209.5 466,-190.5 367,-190.5"/>
<text text-anchor="middle" x="416.5" y="-197.5" font-family="Helvetica,sans-Serif" font-size="10.00">DashBoard::setrpm</text>
</a>
</g>
</g>
<!-- Node2&#45;&gt;Node20 -->
<g id="edge19" class="edge">
<title>Node2&#45;&gt;Node20</title>
<path fill="none" stroke="midnightblue" d="M255.24,-412.79C262.96,-374.34 288.56,-272.5 351,-219 353.02,-217.27 355.18,-215.7 357.46,-214.27"/>
<polygon fill="midnightblue" stroke="midnightblue" points="359.45,-217.18 366.68,-209.44 356.2,-210.98 359.45,-217.18"/>
</g>
<!-- Node22 -->
<g id="node22" class="node">
<title>Node22</title>
<g id="a_node22"><a xlink:href="classDashBoard.html#a77b4f7cb9851db07fcc88986469df3d8" target="_top" xlink:title=" ">
<polygon fill="white" stroke="black" points="361.5,-152.5 361.5,-171.5 471.5,-171.5 471.5,-152.5 361.5,-152.5"/>
<text text-anchor="middle" x="416.5" y="-159.5" font-family="Helvetica,sans-Serif" font-size="10.00">DashBoard::setSpeed</text>
</a>
</g>
</g>
<!-- Node2&#45;&gt;Node22 -->
<g id="edge21" class="edge">
<title>Node2&#45;&gt;Node22</title>
<path fill="none" stroke="midnightblue" d="M253.99,-412.96C259.06,-370.08 279.51,-246.14 351,-181 352.72,-179.43 354.56,-178 356.49,-176.68"/>
<polygon fill="midnightblue" stroke="midnightblue" points="358.48,-179.58 365.48,-171.62 355.05,-173.48 358.48,-179.58"/>
</g>
<!-- Node24 -->
<g id="node24" class="node">
<title>Node24</title>
<g id="a_node24"><a xlink:href="classDashBoard.html#aaa56f6855e89d900da75613bfc8c2f51" target="_top" xlink:title=" ">
<polygon fill="white" stroke="black" points="361.5,-114.5 361.5,-133.5 471.5,-133.5 471.5,-114.5 361.5,-114.5"/>
<text text-anchor="middle" x="416.5" y="-121.5" font-family="Helvetica,sans-Serif" font-size="10.00">DashBoard::setSVSS</text>
</a>
</g>
</g>
<!-- Node2&#45;&gt;Node24 -->
<g id="edge23" class="edge">
<title>Node2&#45;&gt;Node24</title>
<path fill="none" stroke="midnightblue" d="M253.1,-412.76C255.79,-365.48 270.54,-219.82 351,-143 352.65,-141.43 354.42,-139.99 356.28,-138.66"/>
<polygon fill="midnightblue" stroke="midnightblue" points="358.11,-141.65 364.98,-133.58 354.58,-135.6 358.11,-141.65"/>
</g>
<!-- Node25 -->
<g id="node25" class="node">
<title>Node25</title>
<g id="a_node25"><a xlink:href="classDashBoard.html#a75b10e663b009eb4ae77d10762280ca4" target="_top" xlink:title=" ">
<polygon fill="white" stroke="black" points="365.5,-76.5 365.5,-95.5 467.5,-95.5 467.5,-76.5 365.5,-76.5"/>
<text text-anchor="middle" x="416.5" y="-83.5" font-family="Helvetica,sans-Serif" font-size="10.00">DashBoard::setTPS</text>
</a>
</g>
</g>
<!-- Node2&#45;&gt;Node25 -->
<g id="edge24" class="edge">
<title>Node2&#45;&gt;Node25</title>
<path fill="none" stroke="midnightblue" d="M252.38,-412.98C252.8,-362.02 261.24,-193.91 351,-105 352.68,-103.33 354.51,-101.81 356.44,-100.42"/>
<polygon fill="midnightblue" stroke="midnightblue" points="358.61,-103.2 365.48,-95.13 355.08,-97.16 358.61,-103.2"/>
</g>
<!-- Node26 -->
<g id="node26" class="node">
<title>Node26</title>
<g id="a_node26"><a xlink:href="classDashBoard.html#a910e90bfbab7e031083811ac765ee5cf" target="_top" xlink:title=" ">
<polygon fill="white" stroke="black" points="363,-38.5 363,-57.5 470,-57.5 470,-38.5 363,-38.5"/>
<text text-anchor="middle" x="416.5" y="-45.5" font-family="Helvetica,sans-Serif" font-size="10.00">DashBoard::setTRIM</text>
</a>
</g>
</g>
<!-- Node2&#45;&gt;Node26 -->
<g id="edge25" class="edge">
<title>Node2&#45;&gt;Node26</title>
<path fill="none" stroke="midnightblue" d="M251.8,-412.81C250.15,-357.94 252.1,-167.91 351,-67 352.41,-65.56 353.92,-64.23 355.52,-63"/>
<polygon fill="midnightblue" stroke="midnightblue" points="357.47,-65.91 364.09,-57.64 353.75,-59.98 357.47,-65.91"/>
</g>
<!-- Node27 -->
<g id="node27" class="node">
<title>Node27</title>
<g id="a_node27"><a xlink:href="classDashBoard.html#aa4bc217dc1fe66ba8895284d24b92ee4" target="_top" xlink:title=" ">
<polygon fill="white" stroke="black" points="351.5,-0.5 351.5,-19.5 481.5,-19.5 481.5,-0.5 351.5,-0.5"/>
<text text-anchor="middle" x="416.5" y="-7.5" font-family="Helvetica,sans-Serif" font-size="10.00">DashBoard::setWatertemp</text>
</a>
</g>
</g>
<!-- Node2&#45;&gt;Node27 -->
<g id="edge26" class="edge">
<title>Node2&#45;&gt;Node27</title>
<path fill="none" stroke="midnightblue" d="M254.25,-412.68C262.08,-346.58 296.01,-86.49 351,-29 352.39,-27.54 353.89,-26.2 355.47,-24.96"/>
<polygon fill="midnightblue" stroke="midnightblue" points="357.43,-27.86 363.99,-19.55 353.67,-21.95 357.43,-27.86"/>
</g>
<!-- Node21 -->
<g id="node21" class="node">
<title>Node21</title>
<g id="a_node21"><a xlink:href="dashboard_8cpp.html#abaed07c489b38d23644263ae435338d4" target="_top" xlink:title=" ">
<polygon fill="white" stroke="black" points="521,-190.5 521,-209.5 594,-209.5 594,-190.5 521,-190.5"/>
<text text-anchor="middle" x="557.5" y="-197.5" font-family="Helvetica,sans-Serif" font-size="10.00">averageRPM</text>
</a>
</g>
</g>
<!-- Node20&#45;&gt;Node21 -->
<g id="edge20" class="edge">
<title>Node20&#45;&gt;Node21</title>
<path fill="none" stroke="midnightblue" d="M466.12,-200C480.6,-200 496.43,-200 510.73,-200"/>
<polygon fill="midnightblue" stroke="midnightblue" points="510.83,-203.5 520.83,-200 510.83,-196.5 510.83,-203.5"/>
</g>
<!-- Node23 -->
<g id="node23" class="node">
<title>Node23</title>
<g id="a_node23"><a xlink:href="dashboard_8cpp.html#abd6f714e98c152d7700b007c54201c76" target="_top" xlink:title=" ">
<polygon fill="white" stroke="black" points="518,-152.5 518,-171.5 597,-171.5 597,-152.5 518,-152.5"/>
<text text-anchor="middle" x="557.5" y="-159.5" font-family="Helvetica,sans-Serif" font-size="10.00">averageSpeed</text>
</a>
</g>
</g>
<!-- Node22&#45;&gt;Node23 -->
<g id="edge22" class="edge">
<title>Node22&#45;&gt;Node23</title>
<path fill="none" stroke="midnightblue" d="M471.64,-162C483.55,-162 496.09,-162 507.77,-162"/>
<polygon fill="midnightblue" stroke="midnightblue" points="507.78,-165.5 517.78,-162 507.78,-158.5 507.78,-165.5"/>
</g>
</g>
</svg>
