<?xml version="1.0" encoding="UTF-8" standalone="no"?>
<!DOCTYPE svg PUBLIC "-//W3C//DTD SVG 1.1//EN"
 "http://www.w3.org/Graphics/SVG/1.1/DTD/svg11.dtd">
<!-- Generated by graphviz version 2.49.3 (20211027.1534)
 -->
<!-- Title: Connect::setOdometer Pages: 1 -->
<svg width="649pt" height="712pt"
 viewBox="0.00 0.00 649.00 712.00" xmlns="http://www.w3.org/2000/svg" xmlns:xlink="http://www.w3.org/1999/xlink">
<g id="graph0" class="graph" transform="scale(1 1) rotate(0) translate(4 708)">
<title>Connect::setOdometer</title>
<polygon fill="white" stroke="transparent" points="-4,4 -4,-708 645,-708 645,4 -4,4"/>
<!-- Node1 -->
<g id="node1" class="node">
<title>Node1</title>
<g id="a_node1"><a xlink:title=" ">
<polygon fill="#bfbfbf" stroke="black" points="0,-532.5 0,-551.5 113,-551.5 113,-532.5 0,-532.5"/>
<text text-anchor="middle" x="56.5" y="-539.5" font-family="Helvetica,sans-Serif" font-size="10.00">Connect::setOdometer</text>
</a>
</g>
</g>
<!-- Node2 -->
<g id="node2" class="node">
<title>Node2</title>
<g id="a_node2"><a xlink:href="classDashBoard.html#af9e7386167d831b5fc637554a5f8e47a" target="_top" xlink:title=" ">
<polygon fill="white" stroke="black" points="482.5,-684.5 482.5,-703.5 583.5,-703.5 583.5,-684.5 482.5,-684.5"/>
<text text-anchor="middle" x="533" y="-691.5" font-family="Helvetica,sans-Serif" font-size="10.00">DashBoard::setOdo</text>
</a>
</g>
</g>
<!-- Node1&#45;&gt;Node2 -->
<g id="edge1" class="edge">
<title>Node1&#45;&gt;Node2</title>
<path fill="none" stroke="midnightblue" d="M79.86,-551.63C136.56,-575.7 290.96,-639.13 425,-675 440.17,-679.06 456.8,-682.49 472.32,-685.27"/>
<polygon fill="midnightblue" stroke="midnightblue" points="471.89,-688.75 482.34,-687 473.08,-681.85 471.89,-688.75"/>
</g>
<!-- Node3 -->
<g id="node3" class="node">
<title>Node3</title>
<g id="a_node3"><a xlink:href="classcalculations.html#a62003ff4c935b799de90cef1cce4b7b7" target="_top" xlink:title=" ">
<polygon fill="white" stroke="black" points="149,-513.5 149,-532.5 241,-532.5 241,-513.5 149,-513.5"/>
<text text-anchor="middle" x="195" y="-520.5" font-family="Helvetica,sans-Serif" font-size="10.00">calculations::start</text>
</a>
</g>
</g>
<!-- Node1&#45;&gt;Node3 -->
<g id="edge2" class="edge">
<title>Node1&#45;&gt;Node3</title>
<path fill="none" stroke="midnightblue" d="M113.02,-534.27C121.61,-533.08 130.49,-531.84 139.07,-530.65"/>
<polygon fill="midnightblue" stroke="midnightblue" points="139.55,-534.11 148.97,-529.27 138.59,-527.18 139.55,-534.11"/>
</g>
<!-- Node4 -->
<g id="node4" class="node">
<title>Node4</title>
<g id="a_node4"><a xlink:href="classcalculations.html#a3153c50c226f6960fdcf1daa998eba35" target="_top" xlink:title=" ">
<polygon fill="white" stroke="black" points="277,-361.5 277,-380.5 389,-380.5 389,-361.5 277,-361.5"/>
<text text-anchor="middle" x="333" y="-368.5" font-family="Helvetica,sans-Serif" font-size="10.00">calculations::calculate</text>
</a>
</g>
</g>
<!-- Node3&#45;&gt;Node4 -->
<g id="edge3" class="edge">
<title>Node3&#45;&gt;Node4</title>
<path fill="none" stroke="midnightblue" d="M204.51,-513.49C226.93,-488.43 287.88,-420.32 316.61,-388.2"/>
<polygon fill="midnightblue" stroke="midnightblue" points="319.44,-390.29 323.5,-380.5 314.22,-385.62 319.44,-390.29"/>
</g>
<!-- Node4&#45;&gt;Node2 -->
<g id="edge9" class="edge">
<title>Node4&#45;&gt;Node2</title>
<path fill="none" stroke="midnightblue" d="M335.49,-380.53C343.03,-427.46 378.42,-633.49 425,-675 437.95,-686.54 455.41,-692.24 472.45,-694.81"/>
<polygon fill="midnightblue" stroke="midnightblue" points="472.07,-698.29 482.41,-695.98 472.89,-691.34 472.07,-698.29"/>
</g>
<!-- Node5 -->
<g id="node5" class="node">
<title>Node5</title>
<g id="a_node5"><a xlink:href="classDashBoard.html#a6ad32cc4ad36add612d02f113e040548" target="_top" xlink:title=" ">
<polygon fill="white" stroke="black" points="459,-646.5 459,-665.5 607,-665.5 607,-646.5 459,-646.5"/>
<text text-anchor="middle" x="533" y="-653.5" font-family="Helvetica,sans-Serif" font-size="10.00">DashBoard::seteightmilespeed</text>
</a>
</g>
</g>
<!-- Node4&#45;&gt;Node5 -->
<g id="edge4" class="edge">
<title>Node4&#45;&gt;Node5</title>
<path fill="none" stroke="midnightblue" d="M334.04,-380.62C334.78,-419.57 343.09,-566.82 425,-637 432.05,-643.04 440.34,-647.46 449.14,-650.66"/>
<polygon fill="midnightblue" stroke="midnightblue" points="448.26,-654.05 458.85,-653.67 450.33,-647.37 448.26,-654.05"/>
</g>
<!-- Node6 -->
<g id="node6" class="node">
<title>Node6</title>
<g id="a_node6"><a xlink:href="classDashBoard.html#a9ab612fc225c8eff35b9d417055a8a01" target="_top" xlink:title=" ">
<polygon fill="white" stroke="black" points="463,-608.5 463,-627.5 603,-627.5 603,-608.5 463,-608.5"/>
<text text-anchor="middle" x="533" y="-615.5" font-family="Helvetica,sans-Serif" font-size="10.00">DashBoard::seteightmiletime</text>
</a>
</g>
</g>
<!-- Node4&#45;&gt;Node6 -->
<g id="edge5" class="edge">
<title>Node4&#45;&gt;Node6</title>
<path fill="none" stroke="midnightblue" d="M334.66,-380.7C337.62,-416.25 352.95,-540.33 425,-599 433.15,-605.64 442.82,-610.28 452.96,-613.49"/>
<polygon fill="midnightblue" stroke="midnightblue" points="452.22,-616.92 462.79,-616.15 454.05,-610.16 452.22,-616.92"/>
</g>
<!-- Node7 -->
<g id="node7" class="node">
<title>Node7</title>
<g id="a_node7"><a xlink:href="classDashBoard.html#a252d3501e8dbdbdfdbd66d2f7ea8d2bd" target="_top" xlink:title=" ">
<polygon fill="white" stroke="black" points="481,-570.5 481,-589.5 585,-589.5 585,-570.5 481,-570.5"/>
<text text-anchor="middle" x="533" y="-577.5" font-family="Helvetica,sans-Serif" font-size="10.00">DashBoard::setGear</text>
</a>
</g>
</g>
<!-- Node4&#45;&gt;Node7 -->
<g id="edge6" class="edge">
<title>Node4&#45;&gt;Node7</title>
<path fill="none" stroke="midnightblue" d="M335.51,-380.84C340.96,-412.69 362.69,-513.64 425,-561 438.12,-570.97 454.75,-576.35 470.96,-579.11"/>
<polygon fill="midnightblue" stroke="midnightblue" points="470.58,-582.59 480.97,-580.51 471.55,-575.66 470.58,-582.59"/>
</g>
<!-- Node8 -->
<g id="node8" class="node">
<title>Node8</title>
<g id="a_node8"><a xlink:href="classDashBoard.html#a48688ee84ca4f64ad302c0ff98317649" target="_top" xlink:title=" ">
<polygon fill="white" stroke="black" points="457,-532.5 457,-551.5 609,-551.5 609,-532.5 457,-532.5"/>
<text text-anchor="middle" x="533" y="-539.5" font-family="Helvetica,sans-Serif" font-size="10.00">DashBoard::setGearCalculation</text>
</a>
</g>
</g>
<!-- Node4&#45;&gt;Node8 -->
<g id="edge7" class="edge">
<title>Node4&#45;&gt;Node8</title>
<path fill="none" stroke="midnightblue" d="M336.72,-380.8C344.91,-408.29 372.08,-486.52 425,-523 431.74,-527.64 439.26,-531.26 447.11,-534.06"/>
<polygon fill="midnightblue" stroke="midnightblue" points="446.24,-537.45 456.82,-537.09 448.32,-530.77 446.24,-537.45"/>
</g>
<!-- Node9 -->
<g id="node9" class="node">
<title>Node9</title>
<g id="a_node9"><a xlink:href="classDashBoard.html#ad5b27eaba7981c8306f82e82747f94c0" target="_top" xlink:title=" ">
<polygon fill="white" stroke="black" points="436,-494.5 436,-513.5 630,-513.5 630,-494.5 436,-494.5"/>
<text text-anchor="middle" x="533" y="-501.5" font-family="Helvetica,sans-Serif" font-size="10.00">DashBoard::sethundredtotwohundredtime</text>
</a>
</g>
</g>
<!-- Node4&#45;&gt;Node9 -->
<g id="edge8" class="edge">
<title>Node4&#45;&gt;Node9</title>
<path fill="none" stroke="midnightblue" d="M338.57,-380.59C349.79,-402.99 381.03,-458.86 425,-485 428.65,-487.17 432.48,-489.1 436.44,-490.83"/>
<polygon fill="midnightblue" stroke="midnightblue" points="435.29,-494.14 445.87,-494.48 437.81,-487.61 435.29,-494.14"/>
</g>
<!-- Node10 -->
<g id="node10" class="node">
<title>Node10</title>
<g id="a_node10"><a xlink:href="classDashBoard.html#a6819aee7d895ad987fdc813811fd789a" target="_top" xlink:title=" ">
<polygon fill="white" stroke="black" points="478,-456.5 478,-475.5 588,-475.5 588,-456.5 478,-456.5"/>
<text text-anchor="middle" x="533" y="-463.5" font-family="Helvetica,sans-Serif" font-size="10.00">DashBoard::setPower</text>
</a>
</g>
</g>
<!-- Node4&#45;&gt;Node10 -->
<g id="edge10" class="edge">
<title>Node4&#45;&gt;Node10</title>
<path fill="none" stroke="midnightblue" d="M342.19,-380.52C356.94,-396.98 389.73,-430.58 425,-447 438.27,-453.18 453.33,-457.36 467.87,-460.18"/>
<polygon fill="midnightblue" stroke="midnightblue" points="467.37,-463.65 477.82,-461.93 468.58,-456.75 467.37,-463.65"/>
</g>
<!-- Node11 -->
<g id="node11" class="node">
<title>Node11</title>
<g id="a_node11"><a xlink:href="classDashBoard.html#a40729a5446cd7007ab12c9b9416b6f9f" target="_top" xlink:title=" ">
<polygon fill="white" stroke="black" points="454.5,-418.5 454.5,-437.5 611.5,-437.5 611.5,-418.5 454.5,-418.5"/>
<text text-anchor="middle" x="533" y="-425.5" font-family="Helvetica,sans-Serif" font-size="10.00">DashBoard::setquartermilespeed</text>
</a>
</g>
</g>
<!-- Node4&#45;&gt;Node11 -->
<g id="edge11" class="edge">
<title>Node4&#45;&gt;Node11</title>
<path fill="none" stroke="midnightblue" d="M353.43,-380.59C371.55,-389.17 399.54,-401.52 425,-409 434.74,-411.86 445.11,-414.36 455.42,-416.52"/>
<polygon fill="midnightblue" stroke="midnightblue" points="454.77,-419.96 465.26,-418.49 456.14,-413.09 454.77,-419.96"/>
</g>
<!-- Node12 -->
<g id="node12" class="node">
<title>Node12</title>
<g id="a_node12"><a xlink:href="classDashBoard.html#a44b92f3554fe8ad70e1d515c2b0ddd33" target="_top" xlink:title=" ">
<polygon fill="white" stroke="black" points="458.5,-380.5 458.5,-399.5 607.5,-399.5 607.5,-380.5 458.5,-380.5"/>
<text text-anchor="middle" x="533" y="-387.5" font-family="Helvetica,sans-Serif" font-size="10.00">DashBoard::setquartermiletime</text>
</a>
</g>
</g>
<!-- Node4&#45;&gt;Node12 -->
<g id="edge12" class="edge">
<title>Node4&#45;&gt;Node12</title>
<path fill="none" stroke="midnightblue" d="M389.15,-376.29C407.46,-378.05 428.27,-380.05 448.24,-381.96"/>
<polygon fill="midnightblue" stroke="midnightblue" points="447.98,-385.45 458.27,-382.92 448.65,-378.49 447.98,-385.45"/>
</g>
<!-- Node13 -->
<g id="node13" class="node">
<title>Node13</title>
<g id="a_node13"><a xlink:href="classDashBoard.html#af7d691d9a394e601b8e87e0a3069f6ec" target="_top" xlink:title=" ">
<polygon fill="white" stroke="black" points="460.5,-342.5 460.5,-361.5 605.5,-361.5 605.5,-342.5 460.5,-342.5"/>
<text text-anchor="middle" x="533" y="-349.5" font-family="Helvetica,sans-Serif" font-size="10.00">DashBoard::setsixtyfootspeed</text>
</a>
</g>
</g>
<!-- Node4&#45;&gt;Node13 -->
<g id="edge13" class="edge">
<title>Node4&#45;&gt;Node13</title>
<path fill="none" stroke="midnightblue" d="M389.15,-365.71C408.13,-363.89 429.81,-361.81 450.44,-359.83"/>
<polygon fill="midnightblue" stroke="midnightblue" points="450.84,-363.3 460.46,-358.86 450.17,-356.34 450.84,-363.3"/>
</g>
<!-- Node14 -->
<g id="node14" class="node">
<title>Node14</title>
<g id="a_node14"><a xlink:href="classDashBoard.html#a849f36badc69e3f7d1c31c129199c53e" target="_top" xlink:title=" ">
<polygon fill="white" stroke="black" points="464.5,-304.5 464.5,-323.5 601.5,-323.5 601.5,-304.5 464.5,-304.5"/>
<text text-anchor="middle" x="533" y="-311.5" font-family="Helvetica,sans-Serif" font-size="10.00">DashBoard::setsixtyfoottime</text>
</a>
</g>
</g>
<!-- Node4&#45;&gt;Node14 -->
<g id="edge14" class="edge">
<title>Node4&#45;&gt;Node14</title>
<path fill="none" stroke="midnightblue" d="M353.43,-361.41C371.55,-352.83 399.54,-340.48 425,-333 434.74,-330.14 445.11,-327.64 455.42,-325.48"/>
<polygon fill="midnightblue" stroke="midnightblue" points="456.14,-328.91 465.26,-323.51 454.77,-322.04 456.14,-328.91"/>
</g>
<!-- Node15 -->
<g id="node15" class="node">
<title>Node15</title>
<g id="a_node15"><a xlink:href="classDashBoard.html#addaa92ac0e6bd5148ba686b967a55be1" target="_top" xlink:title=" ">
<polygon fill="white" stroke="black" points="450.5,-266.5 450.5,-285.5 615.5,-285.5 615.5,-266.5 450.5,-266.5"/>
<text text-anchor="middle" x="533" y="-273.5" font-family="Helvetica,sans-Serif" font-size="10.00">DashBoard::setthousandfootspeed</text>
</a>
</g>
</g>
<!-- Node4&#45;&gt;Node15 -->
<g id="edge15" class="edge">
<title>Node4&#45;&gt;Node15</title>
<path fill="none" stroke="midnightblue" d="M342.19,-361.48C356.94,-345.02 389.73,-311.42 425,-295 430.37,-292.5 436.03,-290.33 441.83,-288.44"/>
<polygon fill="midnightblue" stroke="midnightblue" points="443.1,-291.71 451.7,-285.52 441.12,-285 443.1,-291.71"/>
</g>
<!-- Node16 -->
<g id="node16" class="node">
<title>Node16</title>
<g id="a_node16"><a xlink:href="classDashBoard.html#add2703a4a902c908d67582236752ff88" target="_top" xlink:title=" ">
<polygon fill="white" stroke="black" points="454,-228.5 454,-247.5 612,-247.5 612,-228.5 454,-228.5"/>
<text text-anchor="middle" x="533" y="-235.5" font-family="Helvetica,sans-Serif" font-size="10.00">DashBoard::setthousandfoottime</text>
</a>
</g>
</g>
<!-- Node4&#45;&gt;Node16 -->
<g id="edge16" class="edge">
<title>Node4&#45;&gt;Node16</title>
<path fill="none" stroke="midnightblue" d="M338.57,-361.41C349.79,-339.01 381.03,-283.14 425,-257 430.94,-253.47 437.37,-250.56 444.02,-248.17"/>
<polygon fill="midnightblue" stroke="midnightblue" points="445.45,-251.39 453.91,-245.02 443.32,-244.72 445.45,-251.39"/>
</g>
<!-- Node17 -->
<g id="node17" class="node">
<title>Node17</title>
<g id="a_node17"><a xlink:href="classDashBoard.html#adc77016315fed2599bbbc136b42f99e7" target="_top" xlink:title=" ">
<polygon fill="white" stroke="black" points="431.5,-190.5 431.5,-209.5 634.5,-209.5 634.5,-190.5 431.5,-190.5"/>
<text text-anchor="middle" x="533" y="-197.5" font-family="Helvetica,sans-Serif" font-size="10.00">DashBoard::setthreehundredthirtyfootspeed</text>
</a>
</g>
</g>
<!-- Node4&#45;&gt;Node17 -->
<g id="edge17" class="edge">
<title>Node4&#45;&gt;Node17</title>
<path fill="none" stroke="midnightblue" d="M336.72,-361.2C344.91,-333.71 372.08,-255.48 425,-219 427.76,-217.1 430.65,-215.37 433.64,-213.8"/>
<polygon fill="midnightblue" stroke="midnightblue" points="435.26,-216.91 442.88,-209.54 432.33,-210.55 435.26,-216.91"/>
</g>
<!-- Node18 -->
<g id="node18" class="node">
<title>Node18</title>
<g id="a_node18"><a xlink:href="classDashBoard.html#a3817b5dd797f83129a96f3720ce1c81a" target="_top" xlink:title=" ">
<polygon fill="white" stroke="black" points="435.5,-152.5 435.5,-171.5 630.5,-171.5 630.5,-152.5 435.5,-152.5"/>
<text text-anchor="middle" x="533" y="-159.5" font-family="Helvetica,sans-Serif" font-size="10.00">DashBoard::setthreehundredthirtyfoottime</text>
</a>
</g>
</g>
<!-- Node4&#45;&gt;Node18 -->
<g id="edge18" class="edge">
<title>Node4&#45;&gt;Node18</title>
<path fill="none" stroke="midnightblue" d="M335.51,-361.16C340.96,-329.31 362.69,-228.36 425,-181 427.25,-179.29 429.59,-177.72 432.03,-176.27"/>
<polygon fill="midnightblue" stroke="midnightblue" points="433.88,-179.25 441.16,-171.56 430.67,-173.03 433.88,-179.25"/>
</g>
<!-- Node19 -->
<g id="node19" class="node">
<title>Node19</title>
<g id="a_node19"><a xlink:href="classDashBoard.html#aae6e2d2387bfa54fb696c0efe476cb03" target="_top" xlink:title=" ">
<polygon fill="white" stroke="black" points="476.5,-114.5 476.5,-133.5 589.5,-133.5 589.5,-114.5 476.5,-114.5"/>
<text text-anchor="middle" x="533" y="-121.5" font-family="Helvetica,sans-Serif" font-size="10.00">DashBoard::setTorque</text>
</a>
</g>
</g>
<!-- Node4&#45;&gt;Node19 -->
<g id="edge19" class="edge">
<title>Node4&#45;&gt;Node19</title>
<path fill="none" stroke="midnightblue" d="M334.66,-361.3C337.62,-325.75 352.95,-201.67 425,-143 436.65,-133.51 451.4,-128.09 466.2,-125.12"/>
<polygon fill="midnightblue" stroke="midnightblue" points="467.12,-128.52 476.42,-123.44 465.98,-121.61 467.12,-128.52"/>
</g>
<!-- Node20 -->
<g id="node20" class="node">
<title>Node20</title>
<g id="a_node20"><a xlink:href="classDashBoard.html#ac2125a0ffb15188bcec84d8e1c2d3ff9" target="_top" xlink:title=" ">
<polygon fill="white" stroke="black" points="483.5,-76.5 483.5,-95.5 582.5,-95.5 582.5,-76.5 483.5,-76.5"/>
<text text-anchor="middle" x="533" y="-83.5" font-family="Helvetica,sans-Serif" font-size="10.00">DashBoard::setTrip</text>
</a>
</g>
</g>
<!-- Node4&#45;&gt;Node20 -->
<g id="edge20" class="edge">
<title>Node4&#45;&gt;Node20</title>
<path fill="none" stroke="midnightblue" d="M334.04,-361.38C334.78,-322.43 343.09,-175.18 425,-105 438.35,-93.56 456.17,-87.93 473.42,-85.4"/>
<polygon fill="midnightblue" stroke="midnightblue" points="473.95,-88.86 483.48,-84.24 473.15,-81.91 473.95,-88.86"/>
</g>
<!-- Node21 -->
<g id="node21" class="node">
<title>Node21</title>
<g id="a_node21"><a xlink:href="classDashBoard.html#a5cdfc4bf52aa970c4035d4bcc2f34f71" target="_top" xlink:title=" ">
<polygon fill="white" stroke="black" points="425,-38.5 425,-57.5 641,-57.5 641,-38.5 425,-38.5"/>
<text text-anchor="middle" x="533" y="-45.5" font-family="Helvetica,sans-Serif" font-size="10.00">DashBoard::settwohundredtothreehundredtime</text>
</a>
</g>
</g>
<!-- Node4&#45;&gt;Node21 -->
<g id="edge21" class="edge">
<title>Node4&#45;&gt;Node21</title>
<path fill="none" stroke="midnightblue" d="M333.57,-361.22C332.3,-318.75 333.28,-148.73 425,-67 426.56,-65.61 428.18,-64.31 429.86,-63.08"/>
<polygon fill="midnightblue" stroke="midnightblue" points="432.04,-65.85 438.69,-57.61 428.35,-59.9 432.04,-65.85"/>
</g>
<!-- Node22 -->
<g id="node22" class="node">
<title>Node22</title>
<g id="a_node22"><a xlink:href="classDashBoard.html#ad5bc00fd95604884d7918347bdc71f35" target="_top" xlink:title=" ">
<polygon fill="white" stroke="black" points="460,-0.5 460,-19.5 606,-19.5 606,-0.5 460,-0.5"/>
<text text-anchor="middle" x="533" y="-7.5" font-family="Helvetica,sans-Serif" font-size="10.00">DashBoard::setzerotohundredt</text>
</a>
</g>
</g>
<!-- Node4&#45;&gt;Node22 -->
<g id="edge22" class="edge">
<title>Node4&#45;&gt;Node22</title>
<path fill="none" stroke="midnightblue" d="M335.18,-361.32C341.54,-310.65 373.43,-76.4 425,-29 432.17,-22.41 440.79,-17.71 449.99,-14.4"/>
<polygon fill="midnightblue" stroke="midnightblue" points="451.2,-17.69 459.75,-11.43 449.16,-10.99 451.2,-17.69"/>
</g>
</g>
</svg>
