<?xml version="1.0" encoding="UTF-8" standalone="no"?>
<!DOCTYPE svg PUBLIC "-//W3C//DTD SVG 1.1//EN"
 "http://www.w3.org/Graphics/SVG/1.1/DTD/svg11.dtd">
<!-- Generated by graphviz version 2.49.3 (20211027.1534)
 -->
<!-- Title: DashBoard::setCBXCountrysave Pages: 1 -->
<svg width="463pt" height="88pt"
 viewBox="0.00 0.00 463.00 88.00" xmlns="http://www.w3.org/2000/svg" xmlns:xlink="http://www.w3.org/1999/xlink">
<g id="graph0" class="graph" transform="scale(1 1) rotate(0) translate(4 84)">
<title>DashBoard::setCBXCountrysave</title>
<polygon fill="white" stroke="transparent" points="-4,4 -4,-84 459,-84 459,4 -4,4"/>
<!-- Node1 -->
<g id="node1" class="node">
<title>Node1</title>
<g id="a_node1"><a xlink:title=" ">
<polygon fill="#bfbfbf" stroke="black" points="298,-30 298,-49 455,-49 455,-30 298,-30"/>
<text text-anchor="middle" x="376.5" y="-37" font-family="Helvetica,sans-Serif" font-size="10.00">DashBoard::setCBXCountrysave</text>
</a>
</g>
</g>
<!-- Node2 -->
<g id="node2" class="node">
<title>Node2</title>
<g id="a_node2"><a xlink:href="classAppSettings.html#af97c4b73b02f8cf8ef75b11d8f86ac40" target="_top" xlink:title=" ">
<polygon fill="white" stroke="black" points="129,-49.5 129,-79.5 262,-79.5 262,-49.5 129,-49.5"/>
<text text-anchor="start" x="137" y="-67.5" font-family="Helvetica,sans-Serif" font-size="10.00">AppSettings::readandApply</text>
<text text-anchor="middle" x="195.5" y="-56.5" font-family="Helvetica,sans-Serif" font-size="10.00">Settings</text>
</a>
</g>
</g>
<!-- Node1&#45;&gt;Node2 -->
<g id="edge1" class="edge">
<title>Node1&#45;&gt;Node2</title>
<path fill="none" stroke="midnightblue" d="M297.14,-50.44C285.45,-52.08 273.51,-53.74 262.13,-55.33"/>
<polygon fill="midnightblue" stroke="midnightblue" points="297.9,-53.87 307.32,-49.02 296.93,-46.94 297.9,-53.87"/>
</g>
<!-- Node4 -->
<g id="node4" class="node">
<title>Node4</title>
<g id="a_node4"><a xlink:href="classAppSettings.html#a139a02d75de7a86f95d1941aaac56ba2" target="_top" xlink:title=" ">
<polygon fill="white" stroke="black" points="131.5,-0.5 131.5,-30.5 259.5,-30.5 259.5,-0.5 131.5,-0.5"/>
<text text-anchor="start" x="139.5" y="-18.5" font-family="Helvetica,sans-Serif" font-size="10.00">AppSettings::writeCountry</text>
<text text-anchor="middle" x="195.5" y="-7.5" font-family="Helvetica,sans-Serif" font-size="10.00">Settings</text>
</a>
</g>
</g>
<!-- Node1&#45;&gt;Node4 -->
<g id="edge3" class="edge">
<title>Node1&#45;&gt;Node4</title>
<path fill="none" stroke="midnightblue" d="M294.32,-28.62C282.67,-27.05 270.82,-25.47 259.59,-23.96"/>
<polygon fill="midnightblue" stroke="midnightblue" points="294.12,-32.12 304.5,-29.98 295.05,-25.18 294.12,-32.12"/>
</g>
<!-- Node3 -->
<g id="node3" class="node">
<title>Node3</title>
<g id="a_node3"><a xlink:href="classConnect.html#a2e3bdc883e226b286ee2ea851bf5f551" target="_top" xlink:title=" ">
<polygon fill="white" stroke="black" points="0,-55 0,-74 93,-74 93,-55 0,-55"/>
<text text-anchor="middle" x="46.5" y="-62" font-family="Helvetica,sans-Serif" font-size="10.00">Connect::Connect</text>
</a>
</g>
</g>
<!-- Node2&#45;&gt;Node3 -->
<g id="edge2" class="edge">
<title>Node2&#45;&gt;Node3</title>
<path fill="none" stroke="midnightblue" d="M118.64,-64.5C110.03,-64.5 101.46,-64.5 93.41,-64.5"/>
<polygon fill="midnightblue" stroke="midnightblue" points="118.74,-68 128.74,-64.5 118.74,-61 118.74,-68"/>
</g>
</g>
</svg>
