<?xml version="1.0" encoding="UTF-8" standalone="no"?>
<!DOCTYPE svg PUBLIC "-//W3C//DTD SVG 1.1//EN"
 "http://www.w3.org/Graphics/SVG/1.1/DTD/svg11.dtd">
<!-- Generated by graphviz version 2.49.3 (20211027.1534)
 -->
<!-- Title: GPS::setGPSBAUD115 Pages: 1 -->
<!--zoomable 656 -->
<svg id="main" version="1.1" xmlns="http://www.w3.org/2000/svg" xmlns:xlink="http://www.w3.org/1999/xlink" xml:space="preserve" onload="init(evt)">
<style type="text/css"><![CDATA[
.edge:hover path { stroke: red; }
.edge:hover polygon { stroke: red; fill: red; }
]]></style>
<script type="text/javascript"><![CDATA[
var edges = document.getElementsByTagName('g');
if (edges && edges.length) {
  for (var i=0;i<edges.length;i++) {
    if (edges[i].id.substr(0,4)=='edge') {
      edges[i].setAttribute('class','edge');
    }
  }
}
]]></script>
        <defs>
                <circle id="rim" cx="0" cy="0" r="7"/>
                <circle id="rim2" cx="0" cy="0" r="3.5"/>
                <g id="zoomPlus">
                        <use xlink:href="#rim" fill="#404040">
                                <set attributeName="fill" to="#808080" begin="zoomplus.mouseover" end="zoomplus.mouseout"/>
                        </use>
                        <path d="M-4,0h8M0,-4v8" fill="none" stroke="white" stroke-width="1.5" pointer-events="none"/>
                </g>
                <g id="zoomMin">
                        <use xlink:href="#rim" fill="#404040">
                                <set attributeName="fill" to="#808080" begin="zoomminus.mouseover" end="zoomminus.mouseout"/>
                        </use>
                        <path d="M-4,0h8" fill="none" stroke="white" stroke-width="1.5" pointer-events="none"/>
                </g>
                <g id="dirArrow">
                        <path fill="none" stroke="white" stroke-width="1.5" d="M0,-3.0v7 M-2.5,-0.5L0,-3.0L2.5,-0.5"/>
                </g>
               <g id="resetDef">
                       <use xlink:href="#rim2" fill="#404040">
                               <set attributeName="fill" to="#808080" begin="reset.mouseover" end="reset.mouseout"/>
                       </use>
               </g>
        </defs>

<script type="text/javascript">
var viewWidth = 1569;
var viewHeight = 656;
var sectionId = 'dynsection-33';
</script>
<script xlink:href="svgpan.js"/>
<svg id="graph" class="graph">
<g id="viewport">
<title>GPS::setGPSBAUD115</title>
<polygon fill="white" stroke="transparent" points="-4,4 -4,-652.36 1565,-652.36 1565,4 -4,4"/>
<!-- Node1 -->
<g id="node1" class="node">
<title>Node1</title>
<g id="a_node1"><a xlink:title=" ">
<polygon fill="#bfbfbf" stroke="black" points="0,-367.5 0,-386.5 120,-386.5 120,-367.5 0,-367.5"/>
<text text-anchor="middle" x="60" y="-374.5" font-family="Helvetica,sans-Serif" font-size="10.00">GPS::setGPSBAUD115</text>
</a>
</g>
</g>
<!-- Node2 -->
<g id="node2" class="node">
<title>Node2</title>
<g id="a_node2"><a xlink:href="classGPS.html#a8775edfa08840ffb2647e0e5ba031fe5" target="_top" xlink:title=" ">
<polygon fill="white" stroke="black" points="156,-405.5 156,-424.5 275,-424.5 275,-405.5 156,-405.5"/>
<text text-anchor="middle" x="215.5" y="-412.5" font-family="Helvetica,sans-Serif" font-size="10.00">GPS::closeConnection1</text>
</a>
</g>
</g>
<!-- Node1&#45;&gt;Node2 -->
<g id="edge1" class="edge">
<title>Node1&#45;&gt;Node2</title>
<path fill="none" stroke="midnightblue" d="M99.73,-386.59C119.9,-391.58 144.75,-397.73 166.16,-403.03"/>
<polygon fill="midnightblue" stroke="midnightblue" points="165.5,-406.47 176.04,-405.48 167.18,-399.68 165.5,-406.47"/>
</g>
<!-- Node4 -->
<g id="node4" class="node">
<title>Node4</title>
<g id="a_node4"><a xlink:href="classDashBoard.html#acd9bb1ec108194ecb9d451b430275922" target="_top" xlink:title=" ">
<polygon fill="white" stroke="black" points="1255.5,-430.5 1255.5,-449.5 1387.5,-449.5 1387.5,-430.5 1255.5,-430.5"/>
<text text-anchor="middle" x="1321.5" y="-437.5" font-family="Helvetica,sans-Serif" font-size="10.00">DashBoard::setgpsFIXtype</text>
</a>
</g>
</g>
<!-- Node1&#45;&gt;Node4 -->
<g id="edge55" class="edge">
<title>Node1&#45;&gt;Node4</title>
<path fill="none" stroke="midnightblue" d="M66.37,-386.78C93.53,-434.77 220.85,-643 386,-643 386,-643 386,-643 999,-643 1095.92,-643 1133.96,-666.16 1215,-613 1271.78,-575.75 1302.92,-496.32 1314.8,-459.49"/>
<polygon fill="midnightblue" stroke="midnightblue" points="1318.27,-460.11 1317.87,-449.52 1311.58,-458.05 1318.27,-460.11"/>
</g>
<!-- Node3 -->
<g id="node3" class="node">
<title>Node3</title>
<g id="a_node3"><a xlink:href="classGPS.html#a14c64eb8a4939f8f734b93ef3a21bb19" target="_top" xlink:title=" ">
<polygon fill="white" stroke="black" points="804.5,-595.5 804.5,-614.5 895.5,-614.5 895.5,-595.5 804.5,-595.5"/>
<text text-anchor="middle" x="850" y="-602.5" font-family="Helvetica,sans-Serif" font-size="10.00">GPS::handleError</text>
</a>
</g>
</g>
<!-- Node2&#45;&gt;Node3 -->
<g id="edge2" class="edge">
<title>Node2&#45;&gt;Node3</title>
<path fill="none" stroke="midnightblue" d="M223.1,-424.51C236.99,-443.8 271.3,-487.58 311,-510 469.3,-599.38 692.14,-608.18 794.14,-606.95"/>
<polygon fill="midnightblue" stroke="midnightblue" points="794.27,-610.45 804.21,-606.79 794.16,-603.45 794.27,-610.45"/>
</g>
<!-- Node2&#45;&gt;Node4 -->
<g id="edge54" class="edge">
<title>Node2&#45;&gt;Node4</title>
<path fill="none" stroke="midnightblue" d="M246.02,-405.39C264.52,-399.67 288.96,-392.63 311,-388 458.5,-357 496.62,-352.25 647,-342 847.05,-328.37 895.53,-375.22 1093,-410 1143.41,-418.88 1200.53,-426.4 1244.92,-431.69"/>
<polygon fill="midnightblue" stroke="midnightblue" points="1244.72,-435.19 1255.06,-432.89 1245.54,-428.24 1244.72,-435.19"/>
</g>
<!-- Node5 -->
<g id="node5" class="node">
<title>Node5</title>
<g id="a_node5"><a xlink:href="classGPS.html#aaf69fb801bbce2ea70041e68fe0ec19a" target="_top" xlink:title=" ">
<polygon fill="white" stroke="black" points="311,-481.5 311,-500.5 463,-500.5 463,-481.5 311,-481.5"/>
<text text-anchor="middle" x="387" y="-488.5" font-family="Helvetica,sans-Serif" font-size="10.00">GPS::handleReconnectTimeout</text>
</a>
</g>
</g>
<!-- Node2&#45;&gt;Node5 -->
<g id="edge4" class="edge">
<title>Node2&#45;&gt;Node5</title>
<path fill="none" stroke="midnightblue" d="M231.75,-424.6C250.06,-435.84 281.93,-454.49 311,-467 320.8,-471.22 331.6,-475.1 341.87,-478.45"/>
<polygon fill="midnightblue" stroke="midnightblue" points="340.92,-481.82 351.51,-481.49 343.03,-475.14 340.92,-481.82"/>
</g>
<!-- Node7 -->
<g id="node7" class="node">
<title>Node7</title>
<g id="a_node7"><a xlink:href="classGPS.html#a1b1c89214229f5dc8ff7e2fa9cbcad35" target="_top" xlink:title=" ">
<polygon fill="white" stroke="black" points="797,-377.5 797,-396.5 903,-396.5 903,-377.5 797,-377.5"/>
<text text-anchor="middle" x="850" y="-384.5" font-family="Helvetica,sans-Serif" font-size="10.00">GPS::handleTimeout</text>
</a>
</g>
</g>
<!-- Node2&#45;&gt;Node7 -->
<g id="edge51" class="edge">
<title>Node2&#45;&gt;Node7</title>
<path fill="none" stroke="midnightblue" d="M273.09,-405.48C285.54,-403.7 298.69,-402.07 311,-401 482.71,-386.1 686.32,-385.4 786.68,-386.18"/>
<polygon fill="midnightblue" stroke="midnightblue" points="786.92,-389.68 796.95,-386.27 786.98,-382.68 786.92,-389.68"/>
</g>
<!-- Node8 -->
<g id="node8" class="node">
<title>Node8</title>
<g id="a_node8"><a xlink:href="classGPS.html#aa0928d156961a54bf06d9b5210d85561" target="_top" xlink:title=" ">
<polygon fill="white" stroke="black" points="800.5,-434.5 800.5,-453.5 899.5,-453.5 899.5,-434.5 800.5,-434.5"/>
<text text-anchor="middle" x="850" y="-441.5" font-family="Helvetica,sans-Serif" font-size="10.00">GPS::readyToRead</text>
</a>
</g>
</g>
<!-- Node2&#45;&gt;Node8 -->
<g id="edge53" class="edge">
<title>Node2&#45;&gt;Node8</title>
<path fill="none" stroke="midnightblue" d="M275,-415.54C374.81,-416.8 584.37,-420.9 761,-434 770.45,-434.7 780.44,-435.64 790.18,-436.67"/>
<polygon fill="midnightblue" stroke="midnightblue" points="789.87,-440.16 800.19,-437.76 790.63,-433.2 789.87,-440.16"/>
</g>
<!-- Node30 -->
<g id="node30" class="node">
<title>Node30</title>
<g id="a_node30"><a xlink:href="classGPS.html#a51eaea2422dd980ea0a6d28f12a136de" target="_top" xlink:title=" ">
<polygon fill="white" stroke="black" points="499,-481.5 499,-500.5 611,-500.5 611,-481.5 499,-481.5"/>
<text text-anchor="middle" x="555" y="-488.5" font-family="Helvetica,sans-Serif" font-size="10.00">GPS::openConnection</text>
</a>
</g>
</g>
<!-- Node2&#45;&gt;Node30 -->
<g id="edge52" class="edge">
<title>Node2&#45;&gt;Node30</title>
<path fill="none" stroke="midnightblue" d="M258.9,-424.55C320.62,-438.45 435.1,-464.22 501.88,-479.26"/>
<polygon fill="midnightblue" stroke="midnightblue" points="501.25,-482.71 511.77,-481.49 502.78,-475.88 501.25,-482.71"/>
</g>
<!-- Node3&#45;&gt;Node4 -->
<g id="edge3" class="edge">
<title>Node3&#45;&gt;Node4</title>
<path fill="none" stroke="midnightblue" d="M895.7,-613.38C967.79,-624.53 1112.02,-636.88 1215,-581 1265.22,-553.75 1298.34,-491.15 1312.56,-459.33"/>
<polygon fill="midnightblue" stroke="midnightblue" points="1315.92,-460.38 1316.66,-449.81 1309.49,-457.61 1315.92,-460.38"/>
</g>
<!-- Node6 -->
<g id="node6" class="node">
<title>Node6</title>
<g id="a_node6"><a xlink:href="classGPS.html#ae4568ef4d5107c96c1af68d1abd33559" target="_top" xlink:title=" ">
<polygon fill="white" stroke="black" points="647,-557.5 647,-576.5 761,-576.5 761,-557.5 647,-557.5"/>
<text text-anchor="middle" x="704" y="-564.5" font-family="Helvetica,sans-Serif" font-size="10.00">GPS::closeConnection</text>
</a>
</g>
</g>
<!-- Node5&#45;&gt;Node6 -->
<g id="edge5" class="edge">
<title>Node5&#45;&gt;Node6</title>
<path fill="none" stroke="midnightblue" d="M450.23,-500.51C515.96,-514.39 617.13,-539.18 669.31,-554.5"/>
<polygon fill="midnightblue" stroke="midnightblue" points="668.48,-557.91 679.07,-557.44 670.5,-551.2 668.48,-557.91"/>
</g>
<!-- Node5&#45;&gt;Node30 -->
<g id="edge42" class="edge">
<title>Node5&#45;&gt;Node30</title>
<path fill="none" stroke="midnightblue" d="M463.23,-491C471.77,-491 480.42,-491 488.81,-491"/>
<polygon fill="midnightblue" stroke="midnightblue" points="488.9,-494.5 498.9,-491 488.9,-487.5 488.9,-494.5"/>
</g>
<!-- Node6&#45;&gt;Node3 -->
<g id="edge6" class="edge">
<title>Node6&#45;&gt;Node3</title>
<path fill="none" stroke="midnightblue" d="M741.34,-576.59C760.08,-581.54 783.14,-587.62 803.11,-592.89"/>
<polygon fill="midnightblue" stroke="midnightblue" points="802.36,-596.31 812.92,-595.48 804.15,-589.54 802.36,-596.31"/>
</g>
<!-- Node6&#45;&gt;Node4 -->
<g id="edge41" class="edge">
<title>Node6&#45;&gt;Node4</title>
<path fill="none" stroke="midnightblue" d="M761.02,-569.31C876.08,-573.26 1134.93,-577.82 1215,-543 1256.63,-524.9 1291.21,-482.45 1308.53,-458.07"/>
<polygon fill="midnightblue" stroke="midnightblue" points="1311.51,-459.92 1314.3,-449.7 1305.74,-455.94 1311.51,-459.92"/>
</g>
<!-- Node6&#45;&gt;Node5 -->
<g id="edge7" class="edge">
<title>Node6&#45;&gt;Node5</title>
<path fill="none" stroke="midnightblue" d="M646.72,-558.74C581.29,-545.14 475.42,-519.28 421.66,-503.49"/>
<polygon fill="midnightblue" stroke="midnightblue" points="422.52,-500.09 411.93,-500.57 420.5,-506.8 422.52,-500.09"/>
</g>
<!-- Node6&#45;&gt;Node7 -->
<g id="edge8" class="edge">
<title>Node6&#45;&gt;Node7</title>
<path fill="none" stroke="midnightblue" d="M717.06,-557.15C729.41,-546.55 748.52,-528.69 761,-510 783.78,-475.88 771.52,-457.15 797,-425 804.05,-416.1 813.69,-408.28 822.76,-402.09"/>
<polygon fill="midnightblue" stroke="midnightblue" points="824.66,-405.03 831.17,-396.66 820.87,-399.14 824.66,-405.03"/>
</g>
<!-- Node6&#45;&gt;Node8 -->
<g id="edge10" class="edge">
<title>Node6&#45;&gt;Node8</title>
<path fill="none" stroke="midnightblue" d="M716.3,-557.35C740.9,-536.33 799.56,-486.23 829.97,-460.25"/>
<polygon fill="midnightblue" stroke="midnightblue" points="832.42,-462.76 837.75,-453.61 827.88,-457.44 832.42,-462.76"/>
</g>
<!-- Node7&#45;&gt;Node1 -->
<g id="edge9" class="edge">
<title>Node7&#45;&gt;Node1</title>
<path fill="none" stroke="midnightblue" d="M813.67,-377.4C758.92,-363.39 650.07,-339 556,-339 386,-339 386,-339 386,-339 293.12,-339 186.31,-354.5 121.25,-365.7"/>
<polygon fill="midnightblue" stroke="midnightblue" points="120.42,-362.29 111.17,-367.46 121.63,-369.19 120.42,-362.29"/>
</g>
<!-- Node9 -->
<g id="node9" class="node">
<title>Node9</title>
<g id="a_node9"><a xlink:href="classGPS.html#a217097ae4a846c621f001a5aa1f4fb4f" target="_top" xlink:title=" ">
<polygon fill="white" stroke="black" points="939,-291.5 939,-310.5 1057,-310.5 1057,-291.5 939,-291.5"/>
<text text-anchor="middle" x="998" y="-298.5" font-family="Helvetica,sans-Serif" font-size="10.00">GPS::ProcessMessage</text>
</a>
</g>
</g>
<!-- Node8&#45;&gt;Node9 -->
<g id="edge11" class="edge">
<title>Node8&#45;&gt;Node9</title>
<path fill="none" stroke="midnightblue" d="M865.75,-434.44C876.52,-427.18 891.23,-416.66 903,-406 934.08,-377.85 965.68,-340.33 983.17,-318.6"/>
<polygon fill="midnightblue" stroke="midnightblue" points="986.06,-320.59 989.56,-310.59 980.59,-316.23 986.06,-320.59"/>
</g>
<!-- Node9&#45;&gt;Node1 -->
<g id="edge39" class="edge">
<title>Node9&#45;&gt;Node1</title>
<path fill="none" stroke="midnightblue" d="M951.72,-291.41C894.52,-280.15 792.93,-263 705,-263 386,-263 386,-263 386,-263 267.51,-263 137.72,-331.31 85.12,-362.17"/>
<polygon fill="midnightblue" stroke="midnightblue" points="83.02,-359.35 76.22,-367.48 86.6,-365.37 83.02,-359.35"/>
</g>
<!-- Node9&#45;&gt;Node4 -->
<g id="edge40" class="edge">
<title>Node9&#45;&gt;Node4</title>
<path fill="none" stroke="midnightblue" d="M1008.2,-310.67C1024.04,-326.76 1058.11,-359.03 1093,-377 1123.42,-392.67 1210.94,-414.7 1268.13,-428.13"/>
<polygon fill="midnightblue" stroke="midnightblue" points="1267.55,-431.59 1278.09,-430.45 1269.14,-424.77 1267.55,-431.59"/>
</g>
<!-- Node10 -->
<g id="node10" class="node">
<title>Node10</title>
<g id="a_node10"><a xlink:href="classGPS.html#a20f1883fa42ff859903a07444ac15628" target="_top" xlink:title=" ">
<polygon fill="white" stroke="black" points="1112.5,-310.5 1112.5,-329.5 1195.5,-329.5 1195.5,-310.5 1112.5,-310.5"/>
<text text-anchor="middle" x="1154" y="-317.5" font-family="Helvetica,sans-Serif" font-size="10.00">GPS::logNMEA</text>
</a>
</g>
</g>
<!-- Node9&#45;&gt;Node10 -->
<g id="edge12" class="edge">
<title>Node9&#45;&gt;Node10</title>
<path fill="none" stroke="midnightblue" d="M1057.22,-308.18C1072.03,-310.01 1087.82,-311.96 1102.22,-313.73"/>
<polygon fill="midnightblue" stroke="midnightblue" points="1102.07,-317.24 1112.43,-314.99 1102.93,-310.3 1102.07,-317.24"/>
</g>
<!-- Node11 -->
<g id="node11" class="node">
<title>Node11</title>
<g id="a_node11"><a xlink:href="classGPS.html#a6fbf5e49f6a05b056835666f2e1cb830" target="_top" xlink:title=" ">
<polygon fill="white" stroke="black" points="1097.5,-234.5 1097.5,-253.5 1210.5,-253.5 1210.5,-234.5 1097.5,-234.5"/>
<text text-anchor="middle" x="1154" y="-241.5" font-family="Helvetica,sans-Serif" font-size="10.00">GPS::processGPGGA</text>
</a>
</g>
</g>
<!-- Node9&#45;&gt;Node11 -->
<g id="edge13" class="edge">
<title>Node9&#45;&gt;Node11</title>
<path fill="none" stroke="midnightblue" d="M1021.22,-291.45C1040.15,-283.45 1068.16,-271.94 1093,-263 1099,-260.84 1105.39,-258.68 1111.68,-256.62"/>
<polygon fill="midnightblue" stroke="midnightblue" points="1112.94,-259.89 1121.39,-253.5 1110.8,-253.23 1112.94,-259.89"/>
</g>
<!-- Node23 -->
<g id="node23" class="node">
<title>Node23</title>
<g id="a_node23"><a xlink:href="classGPS.html#a9f0cacdc6f30465399f19ccb19edde1a" target="_top" xlink:title=" ">
<polygon fill="white" stroke="black" points="1097.5,-133.5 1097.5,-152.5 1210.5,-152.5 1210.5,-133.5 1097.5,-133.5"/>
<text text-anchor="middle" x="1154" y="-140.5" font-family="Helvetica,sans-Serif" font-size="10.00">GPS::processGPRMC</text>
</a>
</g>
</g>
<!-- Node9&#45;&gt;Node23 -->
<g id="edge26" class="edge">
<title>Node9&#45;&gt;Node23</title>
<path fill="none" stroke="midnightblue" d="M1008.63,-291.12C1034.13,-264.96 1103.62,-193.66 1135.99,-160.45"/>
<polygon fill="midnightblue" stroke="midnightblue" points="1138.9,-162.48 1143.37,-152.88 1133.88,-157.6 1138.9,-162.48"/>
</g>
<!-- Node27 -->
<g id="node27" class="node">
<title>Node27</title>
<g id="a_node27"><a xlink:href="classGPS.html#a125284d30c7901ba52ed190e519bc3b2" target="_top" xlink:title=" ">
<polygon fill="white" stroke="black" points="1093,-272.5 1093,-291.5 1215,-291.5 1215,-272.5 1093,-272.5"/>
<text text-anchor="middle" x="1154" y="-279.5" font-family="Helvetica,sans-Serif" font-size="10.00">GPS::removeNMEAmsg</text>
</a>
</g>
</g>
<!-- Node9&#45;&gt;Node27 -->
<g id="edge34" class="edge">
<title>Node9&#45;&gt;Node27</title>
<path fill="none" stroke="midnightblue" d="M1057.22,-293.82C1065.61,-292.78 1074.31,-291.71 1082.9,-290.65"/>
<polygon fill="midnightblue" stroke="midnightblue" points="1083.41,-294.11 1092.9,-289.41 1082.55,-287.17 1083.41,-294.11"/>
</g>
<!-- Node29 -->
<g id="node29" class="node">
<title>Node29</title>
<g id="a_node29"><a xlink:href="classGPS.html#a052c61711107964bbde54f86edb110ff" target="_top" xlink:title=" ">
<polygon fill="white" stroke="black" points="1103.5,-348.5 1103.5,-367.5 1204.5,-367.5 1204.5,-348.5 1103.5,-348.5"/>
<text text-anchor="middle" x="1154" y="-355.5" font-family="Helvetica,sans-Serif" font-size="10.00">GPS::setGPS10HZ</text>
</a>
</g>
</g>
<!-- Node9&#45;&gt;Node29 -->
<g id="edge37" class="edge">
<title>Node9&#45;&gt;Node29</title>
<path fill="none" stroke="midnightblue" d="M1021.22,-310.55C1040.15,-318.55 1068.16,-330.06 1093,-339 1099,-341.16 1105.39,-343.32 1111.68,-345.38"/>
<polygon fill="midnightblue" stroke="midnightblue" points="1110.8,-348.77 1121.39,-348.5 1112.94,-342.11 1110.8,-348.77"/>
</g>
<!-- Node11&#45;&gt;Node4 -->
<g id="edge21" class="edge">
<title>Node11&#45;&gt;Node4</title>
<path fill="none" stroke="midnightblue" d="M1202.43,-253.6C1207.12,-256.06 1211.45,-259.14 1215,-263 1263.78,-315.99 1201.18,-368.99 1251,-421 1252.4,-422.46 1253.89,-423.8 1255.47,-425.05"/>
<polygon fill="midnightblue" stroke="midnightblue" points="1253.64,-428.04 1263.95,-430.49 1257.42,-422.15 1253.64,-428.04"/>
</g>
<!-- Node12 -->
<g id="node12" class="node">
<title>Node12</title>
<g id="a_node12"><a xlink:href="classGPS.html#a894018a07e73bdc11af81f5db97f6b28" target="_top" xlink:title=" ">
<polygon fill="white" stroke="black" points="1270,-190.5 1270,-209.5 1373,-209.5 1373,-190.5 1270,-190.5"/>
<text text-anchor="middle" x="1321.5" y="-197.5" font-family="Helvetica,sans-Serif" font-size="10.00">GPS::checknewLap</text>
</a>
</g>
</g>
<!-- Node11&#45;&gt;Node12 -->
<g id="edge14" class="edge">
<title>Node11&#45;&gt;Node12</title>
<path fill="none" stroke="midnightblue" d="M1190.91,-234.45C1215.53,-227.91 1248.39,-219.17 1274.86,-212.13"/>
<polygon fill="midnightblue" stroke="midnightblue" points="1275.89,-215.48 1284.66,-209.53 1274.1,-208.72 1275.89,-215.48"/>
</g>
<!-- Node17 -->
<g id="node17" class="node">
<title>Node17</title>
<g id="a_node17"><a xlink:href="classGPS.html#a75bada3072c3235ae1d076d5ce002175" target="_top" xlink:title=" ">
<polygon fill="white" stroke="black" points="1261,-152.5 1261,-171.5 1382,-171.5 1382,-152.5 1261,-152.5"/>
<text text-anchor="middle" x="1321.5" y="-159.5" font-family="Helvetica,sans-Serif" font-size="10.00">GPS::convertToDecimal</text>
</a>
</g>
</g>
<!-- Node11&#45;&gt;Node17 -->
<g id="edge19" class="edge">
<title>Node11&#45;&gt;Node17</title>
<path fill="none" stroke="midnightblue" d="M1167,-234.31C1184.5,-220.63 1218.47,-195.67 1251,-181 1256.26,-178.63 1261.88,-176.49 1267.56,-174.59"/>
<polygon fill="midnightblue" stroke="midnightblue" points="1268.62,-177.92 1277.12,-171.6 1266.53,-171.24 1268.62,-177.92"/>
</g>
<!-- Node18 -->
<g id="node18" class="node">
<title>Node18</title>
<g id="a_node18"><a xlink:href="classDashBoard.html#a998569aa565c0a5a872810160266f681" target="_top" xlink:title=" ">
<polygon fill="white" stroke="black" points="1256,-354.5 1256,-373.5 1387,-373.5 1387,-354.5 1256,-354.5"/>
<text text-anchor="middle" x="1321.5" y="-361.5" font-family="Helvetica,sans-Serif" font-size="10.00">DashBoard::setgpsAltitude</text>
</a>
</g>
</g>
<!-- Node11&#45;&gt;Node18 -->
<g id="edge20" class="edge">
<title>Node11&#45;&gt;Node18</title>
<path fill="none" stroke="midnightblue" d="M1200.22,-253.59C1205.6,-256.05 1210.69,-259.13 1215,-263 1244.61,-289.6 1220.87,-319 1251,-345 1252.95,-346.68 1255.03,-348.21 1257.21,-349.61"/>
<polygon fill="midnightblue" stroke="midnightblue" points="1255.6,-352.72 1266.07,-354.37 1258.91,-346.55 1255.6,-352.72"/>
</g>
<!-- Node19 -->
<g id="node19" class="node">
<title>Node19</title>
<g id="a_node19"><a xlink:href="classDashBoard.html#a5eb7cceabcdbd62521c9512cba7fbf02" target="_top" xlink:title=" ">
<polygon fill="white" stroke="black" points="1258,-316.5 1258,-335.5 1385,-335.5 1385,-316.5 1258,-316.5"/>
<text text-anchor="middle" x="1321.5" y="-323.5" font-family="Helvetica,sans-Serif" font-size="10.00">DashBoard::setgpsHDOP</text>
</a>
</g>
</g>
<!-- Node11&#45;&gt;Node19 -->
<g id="edge22" class="edge">
<title>Node11&#45;&gt;Node19</title>
<path fill="none" stroke="midnightblue" d="M1196.14,-253.58C1202.74,-256.07 1209.28,-259.17 1215,-263 1235.71,-276.87 1230.11,-292.4 1251,-306 1254.83,-308.49 1258.98,-310.68 1263.28,-312.61"/>
<polygon fill="midnightblue" stroke="midnightblue" points="1262.27,-315.97 1272.86,-316.4 1264.85,-309.46 1262.27,-315.97"/>
</g>
<!-- Node20 -->
<g id="node20" class="node">
<title>Node20</title>
<g id="a_node20"><a xlink:href="classDashBoard.html#a13f7ff18107138daa6618a4564e935be" target="_top" xlink:title=" ">
<polygon fill="white" stroke="black" points="1254.5,-114.5 1254.5,-133.5 1388.5,-133.5 1388.5,-114.5 1254.5,-114.5"/>
<text text-anchor="middle" x="1321.5" y="-121.5" font-family="Helvetica,sans-Serif" font-size="10.00">DashBoard::setgpsLatitude</text>
</a>
</g>
</g>
<!-- Node11&#45;&gt;Node20 -->
<g id="edge23" class="edge">
<title>Node11&#45;&gt;Node20</title>
<path fill="none" stroke="midnightblue" d="M1161.43,-234.28C1175.3,-214.08 1210.09,-167.45 1251,-143 1254.62,-140.83 1258.5,-138.91 1262.5,-137.2"/>
<polygon fill="midnightblue" stroke="midnightblue" points="1263.89,-140.41 1271.99,-133.59 1261.4,-133.87 1263.89,-140.41"/>
</g>
<!-- Node21 -->
<g id="node21" class="node">
<title>Node21</title>
<g id="a_node21"><a xlink:href="classDashBoard.html#a32b0f4d9b9cdbecb02c96c9e814f0114" target="_top" xlink:title=" ">
<polygon fill="white" stroke="black" points="1251,-228.5 1251,-247.5 1392,-247.5 1392,-228.5 1251,-228.5"/>
<text text-anchor="middle" x="1321.5" y="-235.5" font-family="Helvetica,sans-Serif" font-size="10.00">DashBoard::setgpsLongitude</text>
</a>
</g>
</g>
<!-- Node11&#45;&gt;Node21 -->
<g id="edge24" class="edge">
<title>Node11&#45;&gt;Node21</title>
<path fill="none" stroke="midnightblue" d="M1210.57,-241.99C1220.29,-241.63 1230.57,-241.26 1240.79,-240.89"/>
<polygon fill="midnightblue" stroke="midnightblue" points="1241.1,-244.38 1250.97,-240.52 1240.85,-237.39 1241.1,-244.38"/>
</g>
<!-- Node22 -->
<g id="node22" class="node">
<title>Node22</title>
<g id="a_node22"><a xlink:href="classDashBoard.html#a3e4b2d7b59990a8fcf2d6b561ad30fba" target="_top" xlink:title=" ">
<polygon fill="white" stroke="black" points="1257.5,-267 1257.5,-297 1385.5,-297 1385.5,-267 1257.5,-267"/>
<text text-anchor="start" x="1265.5" y="-285" font-family="Helvetica,sans-Serif" font-size="10.00">DashBoard::setgpsVisible</text>
<text text-anchor="middle" x="1321.5" y="-274" font-family="Helvetica,sans-Serif" font-size="10.00">Satelites</text>
</a>
</g>
</g>
<!-- Node11&#45;&gt;Node22 -->
<g id="edge25" class="edge">
<title>Node11&#45;&gt;Node22</title>
<path fill="none" stroke="midnightblue" d="M1196.76,-253.59C1212.13,-257.12 1230.02,-261.23 1247.35,-265.2"/>
<polygon fill="midnightblue" stroke="midnightblue" points="1246.93,-268.7 1257.46,-267.53 1248.5,-261.88 1246.93,-268.7"/>
</g>
<!-- Node13 -->
<g id="node13" class="node">
<title>Node13</title>
<g id="a_node13"><a xlink:href="gps_8cpp.html#a356f47852da8a45bf4dd9944e08b7d3e" target="_top" xlink:title=" ">
<polygon fill="white" stroke="black" points="1465,-247.5 1465,-266.5 1524,-266.5 1524,-247.5 1465,-247.5"/>
<text text-anchor="middle" x="1494.5" y="-254.5" font-family="Helvetica,sans-Serif" font-size="10.00">fastestlap</text>
</a>
</g>
</g>
<!-- Node12&#45;&gt;Node13 -->
<g id="edge15" class="edge">
<title>Node12&#45;&gt;Node13</title>
<path fill="none" stroke="midnightblue" d="M1363.41,-209.58C1372.93,-212.25 1382.93,-215.42 1392,-219 1408.83,-225.65 1411.23,-231.22 1428,-238 1436.53,-241.45 1445.93,-244.55 1454.87,-247.21"/>
<polygon fill="midnightblue" stroke="midnightblue" points="1454.12,-250.64 1464.7,-250.01 1456.04,-243.9 1454.12,-250.64"/>
</g>
<!-- Node14 -->
<g id="node14" class="node">
<title>Node14</title>
<g id="a_node14"><a xlink:href="classDashBoard.html#ae5d69bcab58e2e497902387d03cc9146" target="_top" xlink:title=" ">
<polygon fill="white" stroke="black" points="1428,-209.5 1428,-228.5 1561,-228.5 1561,-209.5 1428,-209.5"/>
<text text-anchor="middle" x="1494.5" y="-216.5" font-family="Helvetica,sans-Serif" font-size="10.00">DashBoard::setbestlaptime</text>
</a>
</g>
</g>
<!-- Node12&#45;&gt;Node14 -->
<g id="edge16" class="edge">
<title>Node12&#45;&gt;Node14</title>
<path fill="none" stroke="midnightblue" d="M1373.34,-205.65C1387.26,-207.2 1402.65,-208.91 1417.65,-210.57"/>
<polygon fill="midnightblue" stroke="midnightblue" points="1417.61,-214.09 1427.94,-211.72 1418.39,-207.13 1417.61,-214.09"/>
</g>
<!-- Node15 -->
<g id="node15" class="node">
<title>Node15</title>
<g id="a_node15"><a xlink:href="classDashBoard.html#af147e933576adcd81892aca4e74df784" target="_top" xlink:title=" ">
<polygon fill="white" stroke="black" points="1430,-171.5 1430,-190.5 1559,-190.5 1559,-171.5 1430,-171.5"/>
<text text-anchor="middle" x="1494.5" y="-178.5" font-family="Helvetica,sans-Serif" font-size="10.00">DashBoard::setcurrentLap</text>
</a>
</g>
</g>
<!-- Node12&#45;&gt;Node15 -->
<g id="edge17" class="edge">
<title>Node12&#45;&gt;Node15</title>
<path fill="none" stroke="midnightblue" d="M1373.34,-194.35C1387.88,-192.74 1404.02,-190.94 1419.64,-189.21"/>
<polygon fill="midnightblue" stroke="midnightblue" points="1420.25,-192.66 1429.81,-188.08 1419.48,-185.7 1420.25,-192.66"/>
</g>
<!-- Node16 -->
<g id="node16" class="node">
<title>Node16</title>
<g id="a_node16"><a xlink:href="classDashBoard.html#a023ed00fbd93bad06e98426b7583022c" target="_top" xlink:title=" ">
<polygon fill="white" stroke="black" points="1437.5,-133.5 1437.5,-152.5 1551.5,-152.5 1551.5,-133.5 1437.5,-133.5"/>
<text text-anchor="middle" x="1494.5" y="-140.5" font-family="Helvetica,sans-Serif" font-size="10.00">DashBoard::setlaptime</text>
</a>
</g>
</g>
<!-- Node12&#45;&gt;Node16 -->
<g id="edge18" class="edge">
<title>Node12&#45;&gt;Node16</title>
<path fill="none" stroke="midnightblue" d="M1363.41,-190.42C1372.93,-187.75 1382.93,-184.58 1392,-181 1408.83,-174.35 1411.23,-168.78 1428,-162 1433.76,-159.67 1439.92,-157.5 1446.06,-155.52"/>
<polygon fill="midnightblue" stroke="midnightblue" points="1447.12,-158.85 1455.64,-152.56 1445.06,-152.16 1447.12,-158.85"/>
</g>
<!-- Node23&#45;&gt;Node12 -->
<g id="edge27" class="edge">
<title>Node23&#45;&gt;Node12</title>
<path fill="none" stroke="midnightblue" d="M1177.24,-152.61C1196.54,-160.76 1225.32,-172.44 1251,-181 1258.1,-183.37 1265.67,-185.66 1273.11,-187.8"/>
<polygon fill="midnightblue" stroke="midnightblue" points="1272.19,-191.17 1282.76,-190.49 1274.07,-184.43 1272.19,-191.17"/>
</g>
<!-- Node23&#45;&gt;Node17 -->
<g id="edge28" class="edge">
<title>Node23&#45;&gt;Node17</title>
<path fill="none" stroke="midnightblue" d="M1210.57,-149.38C1223.44,-150.86 1237.3,-152.45 1250.69,-153.99"/>
<polygon fill="midnightblue" stroke="midnightblue" points="1250.49,-157.49 1260.82,-155.15 1251.28,-150.53 1250.49,-157.49"/>
</g>
<!-- Node23&#45;&gt;Node20 -->
<g id="edge30" class="edge">
<title>Node23&#45;&gt;Node20</title>
<path fill="none" stroke="midnightblue" d="M1210.57,-136.62C1221.46,-135.37 1233.07,-134.04 1244.49,-132.73"/>
<polygon fill="midnightblue" stroke="midnightblue" points="1244.94,-136.2 1254.47,-131.58 1244.14,-129.24 1244.94,-136.2"/>
</g>
<!-- Node23&#45;&gt;Node21 -->
<g id="edge31" class="edge">
<title>Node23&#45;&gt;Node21</title>
<path fill="none" stroke="midnightblue" d="M1164.43,-152.68C1180.65,-168.78 1215.53,-201.06 1251,-219 1255.56,-221.3 1260.43,-223.36 1265.4,-225.18"/>
<polygon fill="midnightblue" stroke="midnightblue" points="1264.42,-228.55 1275.02,-228.41 1266.65,-221.91 1264.42,-228.55"/>
</g>
<!-- Node24 -->
<g id="node24" class="node">
<title>Node24</title>
<g id="a_node24"><a xlink:href="classDashBoard.html#a7efb6b0a187fa08bf3543c8ce0d40738" target="_top" xlink:title=" ">
<polygon fill="white" stroke="black" points="1256.5,-76.5 1256.5,-95.5 1386.5,-95.5 1386.5,-76.5 1256.5,-76.5"/>
<text text-anchor="middle" x="1321.5" y="-83.5" font-family="Helvetica,sans-Serif" font-size="10.00">DashBoard::setgpsbearing</text>
</a>
</g>
</g>
<!-- Node23&#45;&gt;Node24 -->
<g id="edge29" class="edge">
<title>Node23&#45;&gt;Node24</title>
<path fill="none" stroke="midnightblue" d="M1177.24,-133.39C1196.54,-125.24 1225.32,-113.56 1251,-105 1258.1,-102.63 1265.67,-100.34 1273.11,-98.2"/>
<polygon fill="midnightblue" stroke="midnightblue" points="1274.07,-101.57 1282.76,-95.51 1272.19,-94.83 1274.07,-101.57"/>
</g>
<!-- Node25 -->
<g id="node25" class="node">
<title>Node25</title>
<g id="a_node25"><a xlink:href="classDashBoard.html#a16ed8cfba91338bea76b8ab5acd2a1c2" target="_top" xlink:title=" ">
<polygon fill="white" stroke="black" points="1258.5,-38.5 1258.5,-57.5 1384.5,-57.5 1384.5,-38.5 1258.5,-38.5"/>
<text text-anchor="middle" x="1321.5" y="-45.5" font-family="Helvetica,sans-Serif" font-size="10.00">DashBoard::setgpsSpeed</text>
</a>
</g>
</g>
<!-- Node23&#45;&gt;Node25 -->
<g id="edge32" class="edge">
<title>Node23&#45;&gt;Node25</title>
<path fill="none" stroke="midnightblue" d="M1164.43,-133.32C1180.65,-117.22 1215.53,-84.94 1251,-67 1255.56,-64.7 1260.43,-62.64 1265.4,-60.82"/>
<polygon fill="midnightblue" stroke="midnightblue" points="1266.65,-64.09 1275.02,-57.59 1264.42,-57.45 1266.65,-64.09"/>
</g>
<!-- Node26 -->
<g id="node26" class="node">
<title>Node26</title>
<g id="a_node26"><a xlink:href="classDashBoard.html#ae93b793d4f4bd43d954cc08ccb8431e4" target="_top" xlink:title=" ">
<polygon fill="white" stroke="black" points="1261.5,-0.5 1261.5,-19.5 1381.5,-19.5 1381.5,-0.5 1261.5,-0.5"/>
<text text-anchor="middle" x="1321.5" y="-7.5" font-family="Helvetica,sans-Serif" font-size="10.00">DashBoard::setgpsTime</text>
</a>
</g>
</g>
<!-- Node23&#45;&gt;Node26 -->
<g id="edge33" class="edge">
<title>Node23&#45;&gt;Node26</title>
<path fill="none" stroke="midnightblue" d="M1160.32,-133.35C1172.99,-111.32 1207.18,-57.02 1251,-29 1254.34,-26.86 1257.92,-24.96 1261.63,-23.28"/>
<polygon fill="midnightblue" stroke="midnightblue" points="1263.07,-26.47 1271.06,-19.5 1260.47,-19.97 1263.07,-26.47"/>
</g>
<!-- Node27&#45;&gt;Node4 -->
<g id="edge35" class="edge">
<title>Node27&#45;&gt;Node4</title>
<path fill="none" stroke="midnightblue" d="M1201.58,-291.55C1206.54,-294.01 1211.17,-297.11 1215,-301 1254.07,-340.67 1211.15,-382.11 1251,-421 1252.48,-422.44 1254.05,-423.78 1255.71,-425.01"/>
<polygon fill="midnightblue" stroke="midnightblue" points="1254.2,-428.19 1264.56,-430.4 1257.84,-422.21 1254.2,-428.19"/>
</g>
<!-- Node28 -->
<g id="node28" class="node">
<title>Node28</title>
<g id="a_node28"><a xlink:href="classGPS.html#aeae2cbce7d09b6441ebd1b788dac12b7" target="_top" xlink:title=" ">
<polygon fill="white" stroke="black" points="1273.5,-392.5 1273.5,-411.5 1369.5,-411.5 1369.5,-392.5 1273.5,-392.5"/>
<text text-anchor="middle" x="1321.5" y="-399.5" font-family="Helvetica,sans-Serif" font-size="10.00">GPS::setGPSOnly</text>
</a>
</g>
</g>
<!-- Node27&#45;&gt;Node28 -->
<g id="edge36" class="edge">
<title>Node27&#45;&gt;Node28</title>
<path fill="none" stroke="midnightblue" d="M1200.22,-291.59C1205.6,-294.05 1210.69,-297.13 1215,-301 1244.61,-327.6 1220.87,-357 1251,-383 1254.77,-386.25 1259.04,-388.95 1263.58,-391.19"/>
<polygon fill="midnightblue" stroke="midnightblue" points="1262.59,-394.57 1273.16,-395.18 1265.27,-388.11 1262.59,-394.57"/>
</g>
<!-- Node29&#45;&gt;Node4 -->
<g id="edge38" class="edge">
<title>Node29&#45;&gt;Node4</title>
<path fill="none" stroke="midnightblue" d="M1186.55,-367.6C1196.14,-371.3 1206.41,-376.08 1215,-382 1234.43,-395.38 1230.84,-408.75 1251,-421 1254.61,-423.19 1258.47,-425.14 1262.46,-426.86"/>
<polygon fill="midnightblue" stroke="midnightblue" points="1261.35,-430.18 1271.94,-430.5 1263.86,-423.65 1261.35,-430.18"/>
</g>
<!-- Node30&#45;&gt;Node4 -->
<g id="edge49" class="edge">
<title>Node30&#45;&gt;Node4</title>
<path fill="none" stroke="midnightblue" d="M597.05,-500.59C612.62,-503.96 630.56,-507.52 647,-510 736.16,-523.46 758.83,-529 849,-529 849,-529 849,-529 999,-529 1110.46,-529 1236.02,-478.71 1291.5,-453.73"/>
<polygon fill="midnightblue" stroke="midnightblue" points="1293.07,-456.86 1300.72,-449.52 1290.17,-450.49 1293.07,-456.86"/>
</g>
<!-- Node30&#45;&gt;Node6 -->
<g id="edge43" class="edge">
<title>Node30&#45;&gt;Node6</title>
<path fill="none" stroke="midnightblue" d="M571.49,-500.57C589.36,-511.45 619.8,-529.45 647,-543 654.26,-546.61 662.19,-550.21 669.74,-553.49"/>
<polygon fill="midnightblue" stroke="midnightblue" points="668.45,-556.74 679.02,-557.43 671.19,-550.3 668.45,-556.74"/>
</g>
<!-- Node31 -->
<g id="node31" class="node">
<title>Node31</title>
<g id="a_node31"><a xlink:href="classGPS.html#ac2a7572afb184df9c14ae913f17306bf" target="_top" xlink:title=" ">
<polygon fill="white" stroke="black" points="655,-443.5 655,-462.5 753,-462.5 753,-443.5 655,-443.5"/>
<text text-anchor="middle" x="704" y="-450.5" font-family="Helvetica,sans-Serif" font-size="10.00">GPS::initSerialPort</text>
</a>
</g>
</g>
<!-- Node30&#45;&gt;Node31 -->
<g id="edge44" class="edge">
<title>Node30&#45;&gt;Node31</title>
<path fill="none" stroke="midnightblue" d="M593.09,-481.41C612.32,-476.44 635.99,-470.32 656.43,-465.04"/>
<polygon fill="midnightblue" stroke="midnightblue" points="657.37,-468.41 666.17,-462.52 655.61,-461.63 657.37,-468.41"/>
</g>
<!-- Node32 -->
<g id="node32" class="node">
<title>Node32</title>
<g id="a_node32"><a xlink:href="classSerialPort.html#aad156293689e349b3674671f8a8d8048" target="_top" xlink:title=" ">
<polygon fill="white" stroke="black" points="653,-481.5 653,-500.5 755,-500.5 755,-481.5 653,-481.5"/>
<text text-anchor="middle" x="704" y="-488.5" font-family="Helvetica,sans-Serif" font-size="10.00">SerialPort::setParity</text>
</a>
</g>
</g>
<!-- Node30&#45;&gt;Node32 -->
<g id="edge50" class="edge">
<title>Node30&#45;&gt;Node32</title>
<path fill="none" stroke="midnightblue" d="M611.16,-491C621.42,-491 632.2,-491 642.61,-491"/>
<polygon fill="midnightblue" stroke="midnightblue" points="642.87,-494.5 652.87,-491 642.87,-487.5 642.87,-494.5"/>
</g>
<!-- Node31&#45;&gt;Node3 -->
<g id="edge45" class="edge">
<title>Node31&#45;&gt;Node3</title>
<path fill="none" stroke="midnightblue" d="M744.05,-462.5C750.07,-465 755.96,-468.11 761,-472 801.04,-502.86 828.73,-557.35 841.32,-586.07"/>
<polygon fill="midnightblue" stroke="midnightblue" points="838.14,-587.55 845.27,-595.39 844.59,-584.82 838.14,-587.55"/>
</g>
<!-- Node31&#45;&gt;Node5 -->
<g id="edge46" class="edge">
<title>Node31&#45;&gt;Node5</title>
<path fill="none" stroke="midnightblue" d="M654.66,-456.45C613.25,-459.66 552.07,-465 499,-472 482.63,-474.16 464.97,-476.96 448.67,-479.75"/>
<polygon fill="midnightblue" stroke="midnightblue" points="447.97,-476.32 438.71,-481.48 449.16,-483.22 447.97,-476.32"/>
</g>
<!-- Node31&#45;&gt;Node7 -->
<g id="edge47" class="edge">
<title>Node31&#45;&gt;Node7</title>
<path fill="none" stroke="midnightblue" d="M725.94,-443.4C750.36,-432.21 790.93,-413.62 818.77,-400.86"/>
<polygon fill="midnightblue" stroke="midnightblue" points="820.4,-403.96 828.04,-396.61 817.49,-397.59 820.4,-403.96"/>
</g>
<!-- Node31&#45;&gt;Node8 -->
<g id="edge48" class="edge">
<title>Node31&#45;&gt;Node8</title>
<path fill="none" stroke="midnightblue" d="M753.35,-449.98C765.1,-449.24 777.79,-448.45 789.96,-447.69"/>
<polygon fill="midnightblue" stroke="midnightblue" points="790.28,-451.18 800.04,-447.06 789.84,-444.19 790.28,-451.18"/>
</g>
</g>
</svg>
        <g id="navigator" transform="translate(0 0)" fill="#404254">
                <rect fill="#f2f5e9" fill-opacity="0.5" stroke="#606060" stroke-width=".5" x="0" y="0" width="60" height="60"/>
                <use id="zoomplus" xlink:href="#zoomPlus" x="17" y="9" onmousedown="handleZoom(evt,'in')"/>
                <use id="zoomminus" xlink:href="#zoomMin" x="42" y="9" onmousedown="handleZoom(evt,'out')"/>
                <use id="reset" xlink:href="#resetDef" x="30" y="36" onmousedown="handleReset()"/>
                <g id="arrowUp" xlink:href="#dirArrow" transform="translate(30 24)" onmousedown="handlePan(0,-1)">
                  <use xlink:href="#rim" fill="#404040">
                        <set attributeName="fill" to="#808080" begin="arrowUp.mouseover" end="arrowUp.mouseout"/>
                  </use>
                  <path fill="none" stroke="white" stroke-width="1.5" d="M0,-3.0v7 M-2.5,-0.5L0,-3.0L2.5,-0.5"/>
                </g>
                <g id="arrowRight" xlink:href="#dirArrow" transform="rotate(90) translate(36 -43)" onmousedown="handlePan(1,0)">
                  <use xlink:href="#rim" fill="#404040">
                        <set attributeName="fill" to="#808080" begin="arrowRight.mouseover" end="arrowRight.mouseout"/>
                  </use>
                  <path fill="none" stroke="white" stroke-width="1.5" d="M0,-3.0v7 M-2.5,-0.5L0,-3.0L2.5,-0.5"/>
                </g>
                <g id="arrowDown" xlink:href="#dirArrow" transform="rotate(180) translate(-30 -48)" onmousedown="handlePan(0,1)">
                  <use xlink:href="#rim" fill="#404040">
                        <set attributeName="fill" to="#808080" begin="arrowDown.mouseover" end="arrowDown.mouseout"/>
                  </use>
                  <path fill="none" stroke="white" stroke-width="1.5" d="M0,-3.0v7 M-2.5,-0.5L0,-3.0L2.5,-0.5"/>
                </g>
                <g id="arrowLeft" xlink:href="#dirArrow" transform="rotate(270) translate(-36 17)" onmousedown="handlePan(-1,0)">
                  <use xlink:href="#rim" fill="#404040">
                        <set attributeName="fill" to="#808080" begin="arrowLeft.mouseover" end="arrowLeft.mouseout"/>
                  </use>
                  <path fill="none" stroke="white" stroke-width="1.5" d="M0,-3.0v7 M-2.5,-0.5L0,-3.0L2.5,-0.5"/>
                </g>
        </g>
        <svg viewBox="0 0 15 15" width="100%" height="30px" preserveAspectRatio="xMaxYMin meet">
         <g id="arrow_out" transform="scale(0.3 0.3)">
          <a xlink:href="classGPS_abd750ada6a7b976f72761ce16246ccf6_cgraph_org.svg" target="_base">
           <rect id="button" ry="5" rx="5" y="6" x="6" height="38" width="38"
                fill="#f2f5e9" fill-opacity="0.5" stroke="#606060" stroke-width="1.0"/>
           <path id="arrow"
             d="M 11.500037,31.436501 C 11.940474,20.09759 22.043105,11.32322 32.158766,21.979434 L 37.068811,17.246167 C 37.068811,17.246167 37.088388,32 37.088388,32 L 22.160133,31.978069 C 22.160133,31.978069 26.997745,27.140456 26.997745,27.140456 C 18.528582,18.264221 13.291696,25.230495 11.500037,31.436501 z"
             style="fill:#404040;"/>
          </a>
         </g>
        </svg>
</svg>
