<?xml version="1.0" encoding="UTF-8" standalone="no"?>
<!DOCTYPE svg PUBLIC "-//W3C//DTD SVG 1.1//EN"
 "http://www.w3.org/Graphics/SVG/1.1/DTD/svg11.dtd">
<!-- Generated by graphviz version 2.49.3 (20211027.1534)
 -->
<!-- Title: GPS::closeConnection Pages: 1 -->
<svg width="1557pt" height="947pt"
 viewBox="0.00 0.00 1557.00 947.45" xmlns="http://www.w3.org/2000/svg" xmlns:xlink="http://www.w3.org/1999/xlink">
<g id="graph0" class="graph" transform="scale(1 1) rotate(0) translate(4 943.45)">
<title>GPS::closeConnection</title>
<polygon fill="white" stroke="transparent" points="-4,4 -4,-943.45 1553,-943.45 1553,4 -4,4"/>
<!-- Node1 -->
<g id="node1" class="node">
<title>Node1</title>
<g id="a_node1"><a xlink:title=" ">
<polygon fill="#bfbfbf" stroke="black" points="0,-186.45 0,-205.45 114,-205.45 114,-186.45 0,-186.45"/>
<text text-anchor="middle" x="57" y="-193.45" font-family="Helvetica,sans-Serif" font-size="10.00">GPS::closeConnection</text>
</a>
</g>
</g>
<!-- Node2 -->
<g id="node2" class="node">
<title>Node2</title>
<g id="a_node2"><a xlink:href="classGPS.html#a14c64eb8a4939f8f734b93ef3a21bb19" target="_top" xlink:title=" ">
<polygon fill="white" stroke="black" points="1269,-300.45 1269,-319.45 1360,-319.45 1360,-300.45 1269,-300.45"/>
<text text-anchor="middle" x="1314.5" y="-307.45" font-family="Helvetica,sans-Serif" font-size="10.00">GPS::handleError</text>
</a>
</g>
</g>
<!-- Node1&#45;&gt;Node2 -->
<g id="edge1" class="edge">
<title>Node1&#45;&gt;Node2</title>
<path fill="none" stroke="midnightblue" d="M69.31,-205.45C110.07,-238.73 254.41,-347.95 393,-347.95 393,-347.95 393,-347.95 975,-347.95 1075.69,-347.95 1192.17,-331.14 1258.91,-319.88"/>
<polygon fill="midnightblue" stroke="midnightblue" points="1259.51,-323.33 1268.78,-318.19 1258.33,-316.43 1259.51,-323.33"/>
</g>
<!-- Node3 -->
<g id="node3" class="node">
<title>Node3</title>
<g id="a_node3"><a xlink:href="classDashBoard.html#acd9bb1ec108194ecb9d451b430275922" target="_top" xlink:title=" ">
<polygon fill="white" stroke="black" points="1417,-300.45 1417,-319.45 1549,-319.45 1549,-300.45 1417,-300.45"/>
<text text-anchor="middle" x="1483" y="-307.45" font-family="Helvetica,sans-Serif" font-size="10.00">DashBoard::setgpsFIXtype</text>
</a>
</g>
</g>
<!-- Node1&#45;&gt;Node3 -->
<g id="edge55" class="edge">
<title>Node1&#45;&gt;Node3</title>
<path fill="none" stroke="midnightblue" d="M66.79,-186.26C102.93,-147.54 245.23,-5.95 393,-5.95 393,-5.95 393,-5.95 1142.5,-5.95 1250.05,-5.95 1297.86,21.28 1381,-46.95 1458.52,-110.56 1476.65,-240.98 1480.8,-290.39"/>
<polygon fill="midnightblue" stroke="midnightblue" points="1477.31,-290.67 1481.54,-300.39 1484.29,-290.16 1477.31,-290.67"/>
</g>
<!-- Node4 -->
<g id="node4" class="node">
<title>Node4</title>
<g id="a_node4"><a xlink:href="classGPS.html#aaf69fb801bbce2ea70041e68fe0ec19a" target="_top" xlink:title=" ">
<polygon fill="white" stroke="black" points="150,-186.45 150,-205.45 302,-205.45 302,-186.45 150,-186.45"/>
<text text-anchor="middle" x="226" y="-193.45" font-family="Helvetica,sans-Serif" font-size="10.00">GPS::handleReconnectTimeout</text>
</a>
</g>
</g>
<!-- Node1&#45;&gt;Node4 -->
<g id="edge3" class="edge">
<title>Node1&#45;&gt;Node4</title>
<path fill="none" stroke="midnightblue" d="M114.07,-189.53C122.31,-189.32 130.96,-189.21 139.62,-189.2"/>
<polygon fill="midnightblue" stroke="midnightblue" points="139.78,-192.7 149.79,-189.23 139.8,-185.7 139.78,-192.7"/>
</g>
<!-- Node7 -->
<g id="node7" class="node">
<title>Node7</title>
<g id="a_node7"><a xlink:href="classGPS.html#a1b1c89214229f5dc8ff7e2fa9cbcad35" target="_top" xlink:title=" ">
<polygon fill="white" stroke="black" points="1261.5,-129.45 1261.5,-148.45 1367.5,-148.45 1367.5,-129.45 1261.5,-129.45"/>
<text text-anchor="middle" x="1314.5" y="-136.45" font-family="Helvetica,sans-Serif" font-size="10.00">GPS::handleTimeout</text>
</a>
</g>
</g>
<!-- Node1&#45;&gt;Node7 -->
<g id="edge53" class="edge">
<title>Node1&#45;&gt;Node7</title>
<path fill="none" stroke="midnightblue" d="M78.39,-186.29C96.75,-177.95 124.66,-166.14 150,-158.95 437.07,-77.44 518.59,-81.95 817,-81.95 817,-81.95 817,-81.95 975,-81.95 1082.2,-81.95 1205.87,-110.09 1269.94,-126.82"/>
<polygon fill="midnightblue" stroke="midnightblue" points="1269.14,-130.23 1279.7,-129.41 1270.93,-123.46 1269.14,-130.23"/>
</g>
<!-- Node10 -->
<g id="node10" class="node">
<title>Node10</title>
<g id="a_node10"><a xlink:href="classGPS.html#aa0928d156961a54bf06d9b5210d85561" target="_top" xlink:title=" ">
<polygon fill="white" stroke="black" points="624,-300.45 624,-319.45 723,-319.45 723,-300.45 624,-300.45"/>
<text text-anchor="middle" x="673.5" y="-307.45" font-family="Helvetica,sans-Serif" font-size="10.00">GPS::readyToRead</text>
</a>
</g>
</g>
<!-- Node1&#45;&gt;Node10 -->
<g id="edge54" class="edge">
<title>Node1&#45;&gt;Node10</title>
<path fill="none" stroke="midnightblue" d="M103.35,-205.54C118.2,-208.62 134.79,-211.99 150,-214.95 318.06,-247.57 517.2,-282.85 613.93,-299.77"/>
<polygon fill="midnightblue" stroke="midnightblue" points="613.35,-303.22 623.8,-301.49 614.56,-296.32 613.35,-303.22"/>
</g>
<!-- Node2&#45;&gt;Node3 -->
<g id="edge2" class="edge">
<title>Node2&#45;&gt;Node3</title>
<path fill="none" stroke="midnightblue" d="M1360.12,-309.95C1374.42,-309.95 1390.68,-309.95 1406.55,-309.95"/>
<polygon fill="midnightblue" stroke="midnightblue" points="1406.91,-313.45 1416.91,-309.95 1406.91,-306.45 1406.91,-313.45"/>
</g>
<!-- Node4&#45;&gt;Node1 -->
<g id="edge4" class="edge">
<title>Node4&#45;&gt;Node1</title>
<path fill="none" stroke="midnightblue" d="M149.79,-202.67C141.25,-202.73 132.6,-202.69 124.19,-202.57"/>
<polygon fill="midnightblue" stroke="midnightblue" points="124.14,-199.06 114.07,-202.36 124,-206.06 124.14,-199.06"/>
</g>
<!-- Node5 -->
<g id="node5" class="node">
<title>Node5</title>
<g id="a_node5"><a xlink:href="classGPS.html#a51eaea2422dd980ea0a6d28f12a136de" target="_top" xlink:title=" ">
<polygon fill="white" stroke="black" points="338,-148.45 338,-167.45 450,-167.45 450,-148.45 338,-148.45"/>
<text text-anchor="middle" x="394" y="-155.45" font-family="Helvetica,sans-Serif" font-size="10.00">GPS::openConnection</text>
</a>
</g>
</g>
<!-- Node4&#45;&gt;Node5 -->
<g id="edge5" class="edge">
<title>Node4&#45;&gt;Node5</title>
<path fill="none" stroke="midnightblue" d="M268.89,-186.36C290.89,-181.32 318.05,-175.1 341.35,-169.77"/>
<polygon fill="midnightblue" stroke="midnightblue" points="342.45,-173.11 351.41,-167.47 340.88,-166.29 342.45,-173.11"/>
</g>
<!-- Node5&#45;&gt;Node1 -->
<g id="edge6" class="edge">
<title>Node5&#45;&gt;Node1</title>
<path fill="none" stroke="midnightblue" d="M337.77,-160.28C288.38,-162.85 214.1,-167.86 150,-176.95 136.49,-178.86 121.98,-181.56 108.57,-184.31"/>
<polygon fill="midnightblue" stroke="midnightblue" points="107.63,-180.93 98.57,-186.42 109.08,-187.78 107.63,-180.93"/>
</g>
<!-- Node5&#45;&gt;Node3 -->
<g id="edge51" class="edge">
<title>Node5&#45;&gt;Node3</title>
<path fill="none" stroke="midnightblue" d="M406.84,-148.38C423.48,-135.47 455.18,-112.73 486,-100.95 625.44,-47.65 667.72,-43.95 817,-43.95 817,-43.95 817,-43.95 1142.5,-43.95 1253.75,-43.95 1295.58,-48.67 1381,-119.95 1436.87,-166.56 1466.19,-252.23 1477.02,-290.54"/>
<polygon fill="midnightblue" stroke="midnightblue" points="1473.7,-291.68 1479.69,-300.42 1480.46,-289.85 1473.7,-291.68"/>
</g>
<!-- Node6 -->
<g id="node6" class="node">
<title>Node6</title>
<g id="a_node6"><a xlink:href="classGPS.html#ac2a7572afb184df9c14ae913f17306bf" target="_top" xlink:title=" ">
<polygon fill="white" stroke="black" points="488,-224.45 488,-243.45 586,-243.45 586,-224.45 488,-224.45"/>
<text text-anchor="middle" x="537" y="-231.45" font-family="Helvetica,sans-Serif" font-size="10.00">GPS::initSerialPort</text>
</a>
</g>
</g>
<!-- Node5&#45;&gt;Node6 -->
<g id="edge7" class="edge">
<title>Node5&#45;&gt;Node6</title>
<path fill="none" stroke="midnightblue" d="M412.86,-167.57C437.23,-180.71 481.09,-204.35 509.35,-219.58"/>
<polygon fill="midnightblue" stroke="midnightblue" points="507.82,-222.74 518.29,-224.4 511.15,-216.57 507.82,-222.74"/>
</g>
<!-- Node32 -->
<g id="node32" class="node">
<title>Node32</title>
<g id="a_node32"><a xlink:href="classSerialPort.html#aad156293689e349b3674671f8a8d8048" target="_top" xlink:title=" ">
<polygon fill="white" stroke="black" points="486,-110.45 486,-129.45 588,-129.45 588,-110.45 486,-110.45"/>
<text text-anchor="middle" x="537" y="-117.45" font-family="Helvetica,sans-Serif" font-size="10.00">SerialPort::setParity</text>
</a>
</g>
</g>
<!-- Node5&#45;&gt;Node32 -->
<g id="edge52" class="edge">
<title>Node5&#45;&gt;Node32</title>
<path fill="none" stroke="midnightblue" d="M430.58,-148.36C448.78,-143.45 471.14,-137.43 490.57,-132.19"/>
<polygon fill="midnightblue" stroke="midnightblue" points="491.69,-135.51 500.43,-129.53 489.86,-128.76 491.69,-135.51"/>
</g>
<!-- Node6&#45;&gt;Node2 -->
<g id="edge8" class="edge">
<title>Node6&#45;&gt;Node2</title>
<path fill="none" stroke="midnightblue" d="M586.04,-242.88C657.19,-255.74 794.88,-279.2 913,-290.95 1036.05,-303.18 1181.18,-307.59 1258.49,-309.14"/>
<polygon fill="midnightblue" stroke="midnightblue" points="1258.88,-312.64 1268.94,-309.34 1259.01,-305.64 1258.88,-312.64"/>
</g>
<!-- Node6&#45;&gt;Node4 -->
<g id="edge9" class="edge">
<title>Node6&#45;&gt;Node4</title>
<path fill="none" stroke="midnightblue" d="M487.98,-228.19C447.88,-223.37 389.2,-216.28 338,-209.95 329.53,-208.9 320.69,-207.8 311.87,-206.69"/>
<polygon fill="midnightblue" stroke="midnightblue" points="312.29,-203.22 301.93,-205.45 311.41,-210.16 312.29,-203.22"/>
</g>
<!-- Node6&#45;&gt;Node7 -->
<g id="edge10" class="edge">
<title>Node6&#45;&gt;Node7</title>
<path fill="none" stroke="midnightblue" d="M550.87,-224.42C589.21,-197.02 706.86,-119.95 817,-119.95 817,-119.95 817,-119.95 975,-119.95 1071.58,-119.95 1183.41,-127.75 1251.27,-133.36"/>
<polygon fill="midnightblue" stroke="midnightblue" points="1251.1,-136.86 1261.36,-134.2 1251.69,-129.88 1251.1,-136.86"/>
</g>
<!-- Node6&#45;&gt;Node10 -->
<g id="edge50" class="edge">
<title>Node6&#45;&gt;Node10</title>
<path fill="none" stroke="midnightblue" d="M560.44,-243.48C569.26,-247.54 579.32,-252.57 588,-257.95 605.23,-268.62 606.83,-275.17 624,-285.95 629.54,-289.42 635.64,-292.78 641.61,-295.83"/>
<polygon fill="midnightblue" stroke="midnightblue" points="640.23,-299.05 650.75,-300.33 643.33,-292.77 640.23,-299.05"/>
</g>
<!-- Node8 -->
<g id="node8" class="node">
<title>Node8</title>
<g id="a_node8"><a xlink:href="classGPS.html#abd750ada6a7b976f72761ce16246ccf6" target="_top" xlink:title=" ">
<polygon fill="white" stroke="black" points="914,-262.45 914,-281.45 1034,-281.45 1034,-262.45 914,-262.45"/>
<text text-anchor="middle" x="974" y="-269.45" font-family="Helvetica,sans-Serif" font-size="10.00">GPS::setGPSBAUD115</text>
</a>
</g>
</g>
<!-- Node7&#45;&gt;Node8 -->
<g id="edge11" class="edge">
<title>Node7&#45;&gt;Node8</title>
<path fill="none" stroke="midnightblue" d="M1303.75,-148.46C1286.64,-164.61 1249.46,-197.34 1212,-214.95 1181,-229.52 1094.43,-248.45 1034.97,-260.41"/>
<polygon fill="midnightblue" stroke="midnightblue" points="1034.06,-257.02 1024.94,-262.41 1035.43,-263.88 1034.06,-257.02"/>
</g>
<!-- Node8&#45;&gt;Node3 -->
<g id="edge49" class="edge">
<title>Node8&#45;&gt;Node3</title>
<path fill="none" stroke="midnightblue" d="M1034.04,-272.14C1113.25,-272.99 1258.17,-276.59 1381,-290.95 1396.55,-292.76 1413.32,-295.57 1428.63,-298.47"/>
<polygon fill="midnightblue" stroke="midnightblue" points="1427.97,-301.91 1438.45,-300.38 1429.31,-295.04 1427.97,-301.91"/>
</g>
<!-- Node9 -->
<g id="node9" class="node">
<title>Node9</title>
<g id="a_node9"><a xlink:href="classGPS.html#a8775edfa08840ffb2647e0e5ba031fe5" target="_top" xlink:title=" ">
<polygon fill="white" stroke="black" points="1082,-186.45 1082,-205.45 1201,-205.45 1201,-186.45 1082,-186.45"/>
<text text-anchor="middle" x="1141.5" y="-193.45" font-family="Helvetica,sans-Serif" font-size="10.00">GPS::closeConnection1</text>
</a>
</g>
</g>
<!-- Node8&#45;&gt;Node9 -->
<g id="edge12" class="edge">
<title>Node8&#45;&gt;Node9</title>
<path fill="none" stroke="midnightblue" d="M1003.54,-262.41C1013.76,-258.51 1025.17,-253.58 1035,-247.95 1052.58,-237.86 1053.18,-229.61 1071,-219.95 1078.83,-215.7 1087.55,-211.99 1096.1,-208.83"/>
<polygon fill="midnightblue" stroke="midnightblue" points="1097.33,-212.11 1105.62,-205.51 1095.02,-205.5 1097.33,-212.11"/>
</g>
<!-- Node9&#45;&gt;Node2 -->
<g id="edge13" class="edge">
<title>Node9&#45;&gt;Node2</title>
<path fill="none" stroke="midnightblue" d="M1156.79,-205.47C1186.38,-225.2 1254.64,-270.71 1290.51,-294.62"/>
<polygon fill="midnightblue" stroke="midnightblue" points="1288.63,-297.57 1298.89,-300.21 1292.51,-291.75 1288.63,-297.57"/>
</g>
<!-- Node9&#45;&gt;Node3 -->
<g id="edge48" class="edge">
<title>Node9&#45;&gt;Node3</title>
<path fill="none" stroke="midnightblue" d="M1191.91,-205.45C1240.84,-215.63 1317.45,-233.67 1381,-257.95 1408.04,-268.28 1437.27,-283.85 1457.29,-295.26"/>
<polygon fill="midnightblue" stroke="midnightblue" points="1455.66,-298.36 1466.07,-300.33 1459.16,-292.3 1455.66,-298.36"/>
</g>
<!-- Node9&#45;&gt;Node4 -->
<g id="edge14" class="edge">
<title>Node9&#45;&gt;Node4</title>
<path fill="none" stroke="midnightblue" d="M1081.83,-195.95C1017.38,-195.95 910.82,-195.95 819,-195.95 536,-195.95 536,-195.95 536,-195.95 460.41,-195.95 374.42,-195.95 312.38,-195.95"/>
<polygon fill="midnightblue" stroke="midnightblue" points="312.24,-192.45 302.24,-195.95 312.24,-199.45 312.24,-192.45"/>
</g>
<!-- Node9&#45;&gt;Node5 -->
<g id="edge16" class="edge">
<title>Node9&#45;&gt;Node5</title>
<path fill="none" stroke="midnightblue" d="M1090.87,-186.41C1027.9,-175.15 915.81,-157.95 819,-157.95 672.5,-157.95 672.5,-157.95 672.5,-157.95 599.82,-157.95 516.43,-157.95 460.2,-157.95"/>
<polygon fill="midnightblue" stroke="midnightblue" points="460.02,-154.45 450.02,-157.95 460.02,-161.45 460.02,-154.45"/>
</g>
<!-- Node9&#45;&gt;Node7 -->
<g id="edge15" class="edge">
<title>Node9&#45;&gt;Node7</title>
<path fill="none" stroke="midnightblue" d="M1171.12,-186.41C1199.6,-176.91 1243.5,-162.28 1275.02,-151.77"/>
<polygon fill="midnightblue" stroke="midnightblue" points="1276.41,-155 1284.79,-148.52 1274.19,-148.36 1276.41,-155"/>
</g>
<!-- Node9&#45;&gt;Node10 -->
<g id="edge17" class="edge">
<title>Node9&#45;&gt;Node10</title>
<path fill="none" stroke="midnightblue" d="M1095.22,-205.5C1087.14,-207.27 1078.81,-209.13 1071,-210.95 943.95,-240.51 794.88,-278.67 720.95,-297.83"/>
<polygon fill="midnightblue" stroke="midnightblue" points="719.83,-294.51 711.03,-300.41 721.59,-301.28 719.83,-294.51"/>
</g>
<!-- Node11 -->
<g id="node11" class="node">
<title>Node11</title>
<g id="a_node11"><a xlink:href="classGPS.html#a217097ae4a846c621f001a5aa1f4fb4f" target="_top" xlink:title=" ">
<polygon fill="white" stroke="black" points="759,-433.45 759,-452.45 877,-452.45 877,-433.45 759,-433.45"/>
<text text-anchor="middle" x="818" y="-440.45" font-family="Helvetica,sans-Serif" font-size="10.00">GPS::ProcessMessage</text>
</a>
</g>
</g>
<!-- Node10&#45;&gt;Node11 -->
<g id="edge18" class="edge">
<title>Node10&#45;&gt;Node11</title>
<path fill="none" stroke="midnightblue" d="M684.75,-319.51C708.77,-341.93 768.94,-398.09 799.13,-426.27"/>
<polygon fill="midnightblue" stroke="midnightblue" points="796.76,-428.84 806.46,-433.11 801.54,-423.73 796.76,-428.84"/>
</g>
<!-- Node11&#45;&gt;Node3 -->
<g id="edge47" class="edge">
<title>Node11&#45;&gt;Node3</title>
<path fill="none" stroke="midnightblue" d="M838.69,-433.36C857.38,-424.65 886.49,-412.1 913,-404.95 1042.62,-369.98 1079.6,-384.2 1212,-361.95 1286.23,-349.47 1371.46,-332.63 1425.97,-321.54"/>
<polygon fill="midnightblue" stroke="midnightblue" points="1426.68,-324.97 1435.78,-319.54 1425.28,-318.11 1426.68,-324.97"/>
</g>
<!-- Node11&#45;&gt;Node8 -->
<g id="edge46" class="edge">
<title>Node11&#45;&gt;Node8</title>
<path fill="none" stroke="midnightblue" d="M827.72,-433.26C852.81,-405.4 925.45,-324.75 957.5,-289.16"/>
<polygon fill="midnightblue" stroke="midnightblue" points="960.28,-291.3 964.37,-281.52 955.08,-286.61 960.28,-291.3"/>
</g>
<!-- Node12 -->
<g id="node12" class="node">
<title>Node12</title>
<g id="a_node12"><a xlink:href="classGPS.html#a20f1883fa42ff859903a07444ac15628" target="_top" xlink:title=" ">
<polygon fill="white" stroke="black" points="932.5,-414.45 932.5,-433.45 1015.5,-433.45 1015.5,-414.45 932.5,-414.45"/>
<text text-anchor="middle" x="974" y="-421.45" font-family="Helvetica,sans-Serif" font-size="10.00">GPS::logNMEA</text>
</a>
</g>
</g>
<!-- Node11&#45;&gt;Node12 -->
<g id="edge19" class="edge">
<title>Node11&#45;&gt;Node12</title>
<path fill="none" stroke="midnightblue" d="M877.22,-435.76C892.03,-433.94 907.82,-431.99 922.22,-430.21"/>
<polygon fill="midnightblue" stroke="midnightblue" points="922.93,-433.65 932.43,-428.95 922.07,-426.7 922.93,-433.65"/>
</g>
<!-- Node13 -->
<g id="node13" class="node">
<title>Node13</title>
<g id="a_node13"><a xlink:href="classGPS.html#a6fbf5e49f6a05b056835666f2e1cb830" target="_top" xlink:title=" ">
<polygon fill="white" stroke="black" points="917.5,-756.45 917.5,-775.45 1030.5,-775.45 1030.5,-756.45 917.5,-756.45"/>
<text text-anchor="middle" x="974" y="-763.45" font-family="Helvetica,sans-Serif" font-size="10.00">GPS::processGPGGA</text>
</a>
</g>
</g>
<!-- Node11&#45;&gt;Node13 -->
<g id="edge20" class="edge">
<title>Node11&#45;&gt;Node13</title>
<path fill="none" stroke="midnightblue" d="M823.1,-452.63C835.83,-482.55 876.04,-576.13 913,-651.95 929.65,-686.1 950.62,-725.12 962.85,-747.51"/>
<polygon fill="midnightblue" stroke="midnightblue" points="959.78,-749.2 967.66,-756.29 965.92,-745.84 959.78,-749.2"/>
</g>
<!-- Node25 -->
<g id="node25" class="node">
<title>Node25</title>
<g id="a_node25"><a xlink:href="classGPS.html#a9f0cacdc6f30465399f19ccb19edde1a" target="_top" xlink:title=" ">
<polygon fill="white" stroke="black" points="917.5,-623.45 917.5,-642.45 1030.5,-642.45 1030.5,-623.45 917.5,-623.45"/>
<text text-anchor="middle" x="974" y="-630.45" font-family="Helvetica,sans-Serif" font-size="10.00">GPS::processGPRMC</text>
</a>
</g>
</g>
<!-- Node11&#45;&gt;Node25 -->
<g id="edge33" class="edge">
<title>Node11&#45;&gt;Node25</title>
<path fill="none" stroke="midnightblue" d="M826.85,-452.63C851.35,-482.86 926.69,-575.81 958.54,-615.11"/>
<polygon fill="midnightblue" stroke="midnightblue" points="955.97,-617.49 964.98,-623.05 961.4,-613.08 955.97,-617.49"/>
</g>
<!-- Node29 -->
<g id="node29" class="node">
<title>Node29</title>
<g id="a_node29"><a xlink:href="classGPS.html#a125284d30c7901ba52ed190e519bc3b2" target="_top" xlink:title=" ">
<polygon fill="white" stroke="black" points="913,-452.45 913,-471.45 1035,-471.45 1035,-452.45 913,-452.45"/>
<text text-anchor="middle" x="974" y="-459.45" font-family="Helvetica,sans-Serif" font-size="10.00">GPS::removeNMEAmsg</text>
</a>
</g>
</g>
<!-- Node11&#45;&gt;Node29 -->
<g id="edge41" class="edge">
<title>Node11&#45;&gt;Node29</title>
<path fill="none" stroke="midnightblue" d="M877.22,-450.13C885.61,-451.16 894.31,-452.24 902.9,-453.3"/>
<polygon fill="midnightblue" stroke="midnightblue" points="902.55,-456.78 912.9,-454.53 903.41,-449.83 902.55,-456.78"/>
</g>
<!-- Node31 -->
<g id="node31" class="node">
<title>Node31</title>
<g id="a_node31"><a xlink:href="classGPS.html#a052c61711107964bbde54f86edb110ff" target="_top" xlink:title=" ">
<polygon fill="white" stroke="black" points="923.5,-490.45 923.5,-509.45 1024.5,-509.45 1024.5,-490.45 923.5,-490.45"/>
<text text-anchor="middle" x="974" y="-497.45" font-family="Helvetica,sans-Serif" font-size="10.00">GPS::setGPS10HZ</text>
</a>
</g>
</g>
<!-- Node11&#45;&gt;Node31 -->
<g id="edge44" class="edge">
<title>Node11&#45;&gt;Node31</title>
<path fill="none" stroke="midnightblue" d="M841.22,-452.5C860.15,-460.5 888.16,-472.01 913,-480.95 919,-483.11 925.39,-485.27 931.68,-487.32"/>
<polygon fill="midnightblue" stroke="midnightblue" points="930.8,-490.72 941.39,-490.44 932.94,-484.05 930.8,-490.72"/>
</g>
<!-- Node13&#45;&gt;Node3 -->
<g id="edge28" class="edge">
<title>Node13&#45;&gt;Node3</title>
<path fill="none" stroke="midnightblue" d="M1008.1,-775.52C1086.5,-795.92 1284.2,-833.69 1381,-727.95 1436.15,-667.7 1470.81,-405.11 1479.71,-330.05"/>
<polygon fill="midnightblue" stroke="midnightblue" points="1483.24,-330.01 1480.92,-319.67 1476.29,-329.2 1483.24,-330.01"/>
</g>
<!-- Node14 -->
<g id="node14" class="node">
<title>Node14</title>
<g id="a_node14"><a xlink:href="classGPS.html#a894018a07e73bdc11af81f5db97f6b28" target="_top" xlink:title=" ">
<polygon fill="white" stroke="black" points="1090,-642.45 1090,-661.45 1193,-661.45 1193,-642.45 1090,-642.45"/>
<text text-anchor="middle" x="1141.5" y="-649.45" font-family="Helvetica,sans-Serif" font-size="10.00">GPS::checknewLap</text>
</a>
</g>
</g>
<!-- Node13&#45;&gt;Node14 -->
<g id="edge21" class="edge">
<title>Node13&#45;&gt;Node14</title>
<path fill="none" stroke="midnightblue" d="M982.01,-756.23C996.43,-736.96 1031.4,-693.8 1071,-670.95 1074.88,-668.71 1079.04,-666.72 1083.32,-664.96"/>
<polygon fill="midnightblue" stroke="midnightblue" points="1084.65,-668.2 1092.83,-661.46 1082.23,-661.63 1084.65,-668.2"/>
</g>
<!-- Node19 -->
<g id="node19" class="node">
<title>Node19</title>
<g id="a_node19"><a xlink:href="classGPS.html#a75bada3072c3235ae1d076d5ce002175" target="_top" xlink:title=" ">
<polygon fill="white" stroke="black" points="1081,-718.45 1081,-737.45 1202,-737.45 1202,-718.45 1081,-718.45"/>
<text text-anchor="middle" x="1141.5" y="-725.45" font-family="Helvetica,sans-Serif" font-size="10.00">GPS::convertToDecimal</text>
</a>
</g>
</g>
<!-- Node13&#45;&gt;Node19 -->
<g id="edge26" class="edge">
<title>Node13&#45;&gt;Node19</title>
<path fill="none" stroke="midnightblue" d="M1016.76,-756.36C1038.7,-751.32 1065.78,-745.1 1089.01,-739.77"/>
<polygon fill="midnightblue" stroke="midnightblue" points="1090.07,-743.12 1099.04,-737.47 1088.51,-736.29 1090.07,-743.12"/>
</g>
<!-- Node20 -->
<g id="node20" class="node">
<title>Node20</title>
<g id="a_node20"><a xlink:href="classDashBoard.html#a998569aa565c0a5a872810160266f681" target="_top" xlink:title=" ">
<polygon fill="white" stroke="black" points="1076,-870.45 1076,-889.45 1207,-889.45 1207,-870.45 1076,-870.45"/>
<text text-anchor="middle" x="1141.5" y="-877.45" font-family="Helvetica,sans-Serif" font-size="10.00">DashBoard::setgpsAltitude</text>
</a>
</g>
</g>
<!-- Node13&#45;&gt;Node20 -->
<g id="edge27" class="edge">
<title>Node13&#45;&gt;Node20</title>
<path fill="none" stroke="midnightblue" d="M982.01,-775.66C996.43,-794.93 1031.4,-838.09 1071,-860.95 1074.88,-863.19 1079.04,-865.17 1083.32,-866.93"/>
<polygon fill="midnightblue" stroke="midnightblue" points="1082.23,-870.26 1092.83,-870.43 1084.65,-863.69 1082.23,-870.26"/>
</g>
<!-- Node21 -->
<g id="node21" class="node">
<title>Node21</title>
<g id="a_node21"><a xlink:href="classDashBoard.html#a5eb7cceabcdbd62521c9512cba7fbf02" target="_top" xlink:title=" ">
<polygon fill="white" stroke="black" points="1078,-832.45 1078,-851.45 1205,-851.45 1205,-832.45 1078,-832.45"/>
<text text-anchor="middle" x="1141.5" y="-839.45" font-family="Helvetica,sans-Serif" font-size="10.00">DashBoard::setgpsHDOP</text>
</a>
</g>
</g>
<!-- Node13&#45;&gt;Node21 -->
<g id="edge29" class="edge">
<title>Node13&#45;&gt;Node21</title>
<path fill="none" stroke="midnightblue" d="M990.9,-775.61C1009.62,-786.74 1041.85,-805.12 1071,-817.95 1080.11,-821.95 1090.11,-825.74 1099.62,-829.08"/>
<polygon fill="midnightblue" stroke="midnightblue" points="1098.7,-832.46 1109.29,-832.38 1100.96,-825.84 1098.7,-832.46"/>
</g>
<!-- Node22 -->
<g id="node22" class="node">
<title>Node22</title>
<g id="a_node22"><a xlink:href="classDashBoard.html#a13f7ff18107138daa6618a4564e935be" target="_top" xlink:title=" ">
<polygon fill="white" stroke="black" points="1074.5,-680.45 1074.5,-699.45 1208.5,-699.45 1208.5,-680.45 1074.5,-680.45"/>
<text text-anchor="middle" x="1141.5" y="-687.45" font-family="Helvetica,sans-Serif" font-size="10.00">DashBoard::setgpsLatitude</text>
</a>
</g>
</g>
<!-- Node13&#45;&gt;Node22 -->
<g id="edge30" class="edge">
<title>Node13&#45;&gt;Node22</title>
<path fill="none" stroke="midnightblue" d="M988.37,-756.42C1006.38,-743.97 1039.77,-722.2 1071,-708.95 1076.53,-706.6 1082.44,-704.46 1088.38,-702.54"/>
<polygon fill="midnightblue" stroke="midnightblue" points="1089.8,-705.77 1098.35,-699.51 1087.77,-699.07 1089.8,-705.77"/>
</g>
<!-- Node23 -->
<g id="node23" class="node">
<title>Node23</title>
<g id="a_node23"><a xlink:href="classDashBoard.html#a32b0f4d9b9cdbecb02c96c9e814f0114" target="_top" xlink:title=" ">
<polygon fill="white" stroke="black" points="1071,-756.45 1071,-775.45 1212,-775.45 1212,-756.45 1071,-756.45"/>
<text text-anchor="middle" x="1141.5" y="-763.45" font-family="Helvetica,sans-Serif" font-size="10.00">DashBoard::setgpsLongitude</text>
</a>
</g>
</g>
<!-- Node13&#45;&gt;Node23 -->
<g id="edge31" class="edge">
<title>Node13&#45;&gt;Node23</title>
<path fill="none" stroke="midnightblue" d="M1030.57,-765.95C1040.29,-765.95 1050.57,-765.95 1060.79,-765.95"/>
<polygon fill="midnightblue" stroke="midnightblue" points="1060.97,-769.45 1070.97,-765.95 1060.97,-762.45 1060.97,-769.45"/>
</g>
<!-- Node24 -->
<g id="node24" class="node">
<title>Node24</title>
<g id="a_node24"><a xlink:href="classDashBoard.html#a3e4b2d7b59990a8fcf2d6b561ad30fba" target="_top" xlink:title=" ">
<polygon fill="white" stroke="black" points="1077.5,-908.95 1077.5,-938.95 1205.5,-938.95 1205.5,-908.95 1077.5,-908.95"/>
<text text-anchor="start" x="1085.5" y="-926.95" font-family="Helvetica,sans-Serif" font-size="10.00">DashBoard::setgpsVisible</text>
<text text-anchor="middle" x="1141.5" y="-915.95" font-family="Helvetica,sans-Serif" font-size="10.00">Satelites</text>
</a>
</g>
</g>
<!-- Node13&#45;&gt;Node24 -->
<g id="edge32" class="edge">
<title>Node13&#45;&gt;Node24</title>
<path fill="none" stroke="midnightblue" d="M979.36,-775.5C990.86,-799.67 1024.37,-863.83 1071,-898.95 1073.48,-900.81 1076.11,-902.55 1078.85,-904.17"/>
<polygon fill="midnightblue" stroke="midnightblue" points="1077.39,-907.36 1087.87,-908.93 1080.66,-901.17 1077.39,-907.36"/>
</g>
<!-- Node15 -->
<g id="node15" class="node">
<title>Node15</title>
<g id="a_node15"><a xlink:href="gps_8cpp.html#a356f47852da8a45bf4dd9944e08b7d3e" target="_top" xlink:title=" ">
<polygon fill="white" stroke="black" points="1285,-699.45 1285,-718.45 1344,-718.45 1344,-699.45 1285,-699.45"/>
<text text-anchor="middle" x="1314.5" y="-706.45" font-family="Helvetica,sans-Serif" font-size="10.00">fastestlap</text>
</a>
</g>
</g>
<!-- Node14&#45;&gt;Node15 -->
<g id="edge22" class="edge">
<title>Node14&#45;&gt;Node15</title>
<path fill="none" stroke="midnightblue" d="M1183.41,-661.53C1192.93,-664.2 1202.93,-667.36 1212,-670.95 1228.83,-677.59 1231.23,-683.17 1248,-689.95 1256.53,-693.39 1265.93,-696.5 1274.87,-699.15"/>
<polygon fill="midnightblue" stroke="midnightblue" points="1274.12,-702.58 1284.7,-701.95 1276.04,-695.85 1274.12,-702.58"/>
</g>
<!-- Node16 -->
<g id="node16" class="node">
<title>Node16</title>
<g id="a_node16"><a xlink:href="classDashBoard.html#ae5d69bcab58e2e497902387d03cc9146" target="_top" xlink:title=" ">
<polygon fill="white" stroke="black" points="1248,-661.45 1248,-680.45 1381,-680.45 1381,-661.45 1248,-661.45"/>
<text text-anchor="middle" x="1314.5" y="-668.45" font-family="Helvetica,sans-Serif" font-size="10.00">DashBoard::setbestlaptime</text>
</a>
</g>
</g>
<!-- Node14&#45;&gt;Node16 -->
<g id="edge23" class="edge">
<title>Node14&#45;&gt;Node16</title>
<path fill="none" stroke="midnightblue" d="M1193.34,-657.6C1207.26,-659.14 1222.65,-660.85 1237.65,-662.52"/>
<polygon fill="midnightblue" stroke="midnightblue" points="1237.61,-666.04 1247.94,-663.66 1238.39,-659.08 1237.61,-666.04"/>
</g>
<!-- Node17 -->
<g id="node17" class="node">
<title>Node17</title>
<g id="a_node17"><a xlink:href="classDashBoard.html#af147e933576adcd81892aca4e74df784" target="_top" xlink:title=" ">
<polygon fill="white" stroke="black" points="1250,-585.45 1250,-604.45 1379,-604.45 1379,-585.45 1250,-585.45"/>
<text text-anchor="middle" x="1314.5" y="-592.45" font-family="Helvetica,sans-Serif" font-size="10.00">DashBoard::setcurrentLap</text>
</a>
</g>
</g>
<!-- Node14&#45;&gt;Node17 -->
<g id="edge24" class="edge">
<title>Node14&#45;&gt;Node17</title>
<path fill="none" stroke="midnightblue" d="M1183.41,-642.36C1192.93,-639.7 1202.93,-636.53 1212,-632.95 1228.83,-626.3 1231.23,-620.72 1248,-613.95 1253.76,-611.62 1259.92,-609.45 1266.06,-607.46"/>
<polygon fill="midnightblue" stroke="midnightblue" points="1267.12,-610.8 1275.64,-604.51 1265.06,-604.11 1267.12,-610.8"/>
</g>
<!-- Node18 -->
<g id="node18" class="node">
<title>Node18</title>
<g id="a_node18"><a xlink:href="classDashBoard.html#a023ed00fbd93bad06e98426b7583022c" target="_top" xlink:title=" ">
<polygon fill="white" stroke="black" points="1257.5,-623.45 1257.5,-642.45 1371.5,-642.45 1371.5,-623.45 1257.5,-623.45"/>
<text text-anchor="middle" x="1314.5" y="-630.45" font-family="Helvetica,sans-Serif" font-size="10.00">DashBoard::setlaptime</text>
</a>
</g>
</g>
<!-- Node14&#45;&gt;Node18 -->
<g id="edge25" class="edge">
<title>Node14&#45;&gt;Node18</title>
<path fill="none" stroke="midnightblue" d="M1193.34,-646.3C1210.29,-644.41 1229.43,-642.29 1247.37,-640.29"/>
<polygon fill="midnightblue" stroke="midnightblue" points="1247.92,-643.75 1257.47,-639.17 1247.15,-636.8 1247.92,-643.75"/>
</g>
<!-- Node25&#45;&gt;Node14 -->
<g id="edge34" class="edge">
<title>Node25&#45;&gt;Node14</title>
<path fill="none" stroke="midnightblue" d="M1030.57,-639.33C1046.28,-641.13 1063.47,-643.1 1079.49,-644.94"/>
<polygon fill="midnightblue" stroke="midnightblue" points="1079.48,-648.46 1089.81,-646.13 1080.28,-641.51 1079.48,-648.46"/>
</g>
<!-- Node25&#45;&gt;Node19 -->
<g id="edge35" class="edge">
<title>Node25&#45;&gt;Node19</title>
<path fill="none" stroke="midnightblue" d="M984.43,-642.62C1000.65,-658.72 1035.53,-691.01 1071,-708.95 1075.56,-711.25 1080.43,-713.3 1085.4,-715.13"/>
<polygon fill="midnightblue" stroke="midnightblue" points="1084.42,-718.49 1095.02,-718.35 1086.65,-711.86 1084.42,-718.49"/>
</g>
<!-- Node25&#45;&gt;Node22 -->
<g id="edge37" class="edge">
<title>Node25&#45;&gt;Node22</title>
<path fill="none" stroke="midnightblue" d="M997.24,-642.56C1016.54,-650.7 1045.32,-662.38 1071,-670.95 1078.1,-673.31 1085.67,-675.61 1093.11,-677.74"/>
<polygon fill="midnightblue" stroke="midnightblue" points="1092.19,-681.12 1102.76,-680.44 1094.07,-674.38 1092.19,-681.12"/>
</g>
<!-- Node25&#45;&gt;Node23 -->
<g id="edge38" class="edge">
<title>Node25&#45;&gt;Node23</title>
<path fill="none" stroke="midnightblue" d="M980.32,-642.59C992.99,-664.63 1027.18,-718.93 1071,-746.95 1074.34,-749.08 1077.92,-750.98 1081.63,-752.67"/>
<polygon fill="midnightblue" stroke="midnightblue" points="1080.47,-755.98 1091.06,-756.44 1083.07,-749.48 1080.47,-755.98"/>
</g>
<!-- Node26 -->
<g id="node26" class="node">
<title>Node26</title>
<g id="a_node26"><a xlink:href="classDashBoard.html#a7efb6b0a187fa08bf3543c8ce0d40738" target="_top" xlink:title=" ">
<polygon fill="white" stroke="black" points="1076.5,-528.45 1076.5,-547.45 1206.5,-547.45 1206.5,-528.45 1076.5,-528.45"/>
<text text-anchor="middle" x="1141.5" y="-535.45" font-family="Helvetica,sans-Serif" font-size="10.00">DashBoard::setgpsbearing</text>
</a>
</g>
</g>
<!-- Node25&#45;&gt;Node26 -->
<g id="edge36" class="edge">
<title>Node25&#45;&gt;Node26</title>
<path fill="none" stroke="midnightblue" d="M984.43,-623.27C1000.65,-607.17 1035.53,-574.89 1071,-556.95 1075.56,-554.64 1080.43,-552.59 1085.4,-550.77"/>
<polygon fill="midnightblue" stroke="midnightblue" points="1086.65,-554.04 1095.02,-547.54 1084.42,-547.4 1086.65,-554.04"/>
</g>
<!-- Node27 -->
<g id="node27" class="node">
<title>Node27</title>
<g id="a_node27"><a xlink:href="classDashBoard.html#a16ed8cfba91338bea76b8ab5acd2a1c2" target="_top" xlink:title=" ">
<polygon fill="white" stroke="black" points="1078.5,-604.45 1078.5,-623.45 1204.5,-623.45 1204.5,-604.45 1078.5,-604.45"/>
<text text-anchor="middle" x="1141.5" y="-611.45" font-family="Helvetica,sans-Serif" font-size="10.00">DashBoard::setgpsSpeed</text>
</a>
</g>
</g>
<!-- Node25&#45;&gt;Node27 -->
<g id="edge39" class="edge">
<title>Node25&#45;&gt;Node27</title>
<path fill="none" stroke="midnightblue" d="M1030.57,-626.57C1042.65,-625.18 1055.59,-623.69 1068.21,-622.25"/>
<polygon fill="midnightblue" stroke="midnightblue" points="1068.7,-625.71 1078.24,-621.09 1067.9,-618.76 1068.7,-625.71"/>
</g>
<!-- Node28 -->
<g id="node28" class="node">
<title>Node28</title>
<g id="a_node28"><a xlink:href="classDashBoard.html#ae93b793d4f4bd43d954cc08ccb8431e4" target="_top" xlink:title=" ">
<polygon fill="white" stroke="black" points="1081.5,-566.45 1081.5,-585.45 1201.5,-585.45 1201.5,-566.45 1081.5,-566.45"/>
<text text-anchor="middle" x="1141.5" y="-573.45" font-family="Helvetica,sans-Serif" font-size="10.00">DashBoard::setgpsTime</text>
</a>
</g>
</g>
<!-- Node25&#45;&gt;Node28 -->
<g id="edge40" class="edge">
<title>Node25&#45;&gt;Node28</title>
<path fill="none" stroke="midnightblue" d="M997.24,-623.33C1016.54,-615.19 1045.32,-603.51 1071,-594.95 1078.1,-592.58 1085.67,-590.28 1093.11,-588.15"/>
<polygon fill="midnightblue" stroke="midnightblue" points="1094.07,-591.52 1102.76,-585.45 1092.19,-584.77 1094.07,-591.52"/>
</g>
<!-- Node29&#45;&gt;Node3 -->
<g id="edge42" class="edge">
<title>Node29&#45;&gt;Node3</title>
<path fill="none" stroke="midnightblue" d="M1035.29,-464.8C1118.13,-466.14 1269.56,-459.18 1381,-399.95 1416.36,-381.15 1449.42,-347.47 1467.56,-327.07"/>
<polygon fill="midnightblue" stroke="midnightblue" points="1470.25,-329.31 1474.18,-319.46 1464.97,-324.71 1470.25,-329.31"/>
</g>
<!-- Node30 -->
<g id="node30" class="node">
<title>Node30</title>
<g id="a_node30"><a xlink:href="classGPS.html#aeae2cbce7d09b6441ebd1b788dac12b7" target="_top" xlink:title=" ">
<polygon fill="white" stroke="black" points="1093.5,-414.45 1093.5,-433.45 1189.5,-433.45 1189.5,-414.45 1093.5,-414.45"/>
<text text-anchor="middle" x="1141.5" y="-421.45" font-family="Helvetica,sans-Serif" font-size="10.00">GPS::setGPSOnly</text>
</a>
</g>
</g>
<!-- Node29&#45;&gt;Node30 -->
<g id="edge43" class="edge">
<title>Node29&#45;&gt;Node30</title>
<path fill="none" stroke="midnightblue" d="M1016.76,-452.36C1038.7,-447.32 1065.78,-441.1 1089.01,-435.77"/>
<polygon fill="midnightblue" stroke="midnightblue" points="1090.07,-439.12 1099.04,-433.47 1088.51,-432.29 1090.07,-439.12"/>
</g>
<!-- Node31&#45;&gt;Node3 -->
<g id="edge45" class="edge">
<title>Node31&#45;&gt;Node3</title>
<path fill="none" stroke="midnightblue" d="M1024.82,-503.94C1105.88,-507.99 1268.52,-505.73 1381,-435.95 1424.28,-409.09 1457,-356.89 1472.35,-328.85"/>
<polygon fill="midnightblue" stroke="midnightblue" points="1475.61,-330.17 1477.21,-319.7 1469.43,-326.89 1475.61,-330.17"/>
</g>
</g>
</svg>
