<?xml version="1.0" encoding="UTF-8" standalone="no"?>
<!DOCTYPE svg PUBLIC "-//W3C//DTD SVG 1.1//EN"
 "http://www.w3.org/Graphics/SVG/1.1/DTD/svg11.dtd">
<!-- Generated by graphviz version 2.49.3 (20211027.1534)
 -->
<!-- Title: GPS::openConnection Pages: 1 -->
<!--zoomable 247 -->
<svg id="main" version="1.1" xmlns="http://www.w3.org/2000/svg" xmlns:xlink="http://www.w3.org/1999/xlink" xml:space="preserve" onload="init(evt)">
<style type="text/css"><![CDATA[
.edge:hover path { stroke: red; }
.edge:hover polygon { stroke: red; fill: red; }
]]></style>
<script type="text/javascript"><![CDATA[
var edges = document.getElementsByTagName('g');
if (edges && edges.length) {
  for (var i=0;i<edges.length;i++) {
    if (edges[i].id.substr(0,4)=='edge') {
      edges[i].setAttribute('class','edge');
    }
  }
}
]]></script>
        <defs>
                <circle id="rim" cx="0" cy="0" r="7"/>
                <circle id="rim2" cx="0" cy="0" r="3.5"/>
                <g id="zoomPlus">
                        <use xlink:href="#rim" fill="#404040">
                                <set attributeName="fill" to="#808080" begin="zoomplus.mouseover" end="zoomplus.mouseout"/>
                        </use>
                        <path d="M-4,0h8M0,-4v8" fill="none" stroke="white" stroke-width="1.5" pointer-events="none"/>
                </g>
                <g id="zoomMin">
                        <use xlink:href="#rim" fill="#404040">
                                <set attributeName="fill" to="#808080" begin="zoomminus.mouseover" end="zoomminus.mouseout"/>
                        </use>
                        <path d="M-4,0h8" fill="none" stroke="white" stroke-width="1.5" pointer-events="none"/>
                </g>
                <g id="dirArrow">
                        <path fill="none" stroke="white" stroke-width="1.5" d="M0,-3.0v7 M-2.5,-0.5L0,-3.0L2.5,-0.5"/>
                </g>
               <g id="resetDef">
                       <use xlink:href="#rim2" fill="#404040">
                               <set attributeName="fill" to="#808080" begin="reset.mouseover" end="reset.mouseout"/>
                       </use>
               </g>
        </defs>

<script type="text/javascript">
var viewWidth = 1199;
var viewHeight = 247;
var sectionId = 'dynsection-19';
</script>
<script xlink:href="svgpan.js"/>
<svg id="graph" class="graph">
<g id="viewport">
<title>GPS::openConnection</title>
<polygon fill="white" stroke="transparent" points="-4,4 -4,-243 1195,-243 1195,4 -4,4"/>
<!-- Node1 -->
<g id="node1" class="node">
<title>Node1</title>
<g id="a_node1"><a xlink:title=" ">
<polygon fill="#bfbfbf" stroke="black" points="1079,-47.5 1079,-66.5 1191,-66.5 1191,-47.5 1079,-47.5"/>
<text text-anchor="middle" x="1135" y="-54.5" font-family="Helvetica,sans-Serif" font-size="10.00">GPS::openConnection</text>
</a>
</g>
</g>
<!-- Node2 -->
<g id="node2" class="node">
<title>Node2</title>
<g id="a_node2"><a xlink:href="classGPS.html#a8775edfa08840ffb2647e0e5ba031fe5" target="_top" xlink:title=" ">
<polygon fill="white" stroke="black" points="924,-142.5 924,-161.5 1043,-161.5 1043,-142.5 924,-142.5"/>
<text text-anchor="middle" x="983.5" y="-149.5" font-family="Helvetica,sans-Serif" font-size="10.00">GPS::closeConnection1</text>
</a>
</g>
</g>
<!-- Node1&#45;&gt;Node2 -->
<g id="edge1" class="edge">
<title>Node1&#45;&gt;Node2</title>
<path fill="none" stroke="midnightblue" d="M1110.36,-72.02C1079.35,-91.73 1025.81,-125.75 999.7,-142.34"/>
<polygon fill="midnightblue" stroke="midnightblue" points="1112.28,-74.95 1118.84,-66.63 1108.53,-69.04 1112.28,-74.95"/>
</g>
<!-- Node6 -->
<g id="node6" class="node">
<title>Node6</title>
<g id="a_node6"><a xlink:href="classGPS.html#aaf69fb801bbce2ea70041e68fe0ec19a" target="_top" xlink:title=" ">
<polygon fill="white" stroke="black" points="134,-142.5 134,-161.5 286,-161.5 286,-142.5 134,-142.5"/>
<text text-anchor="middle" x="210" y="-149.5" font-family="Helvetica,sans-Serif" font-size="10.00">GPS::handleReconnectTimeout</text>
</a>
</g>
</g>
<!-- Node1&#45;&gt;Node6 -->
<g id="edge18" class="edge">
<title>Node1&#45;&gt;Node6</title>
<path fill="none" stroke="midnightblue" d="M1068.98,-50.6C1007.28,-45.08 911.92,-38 829,-38 829,-38 829,-38 524,-38 402.26,-38 269.1,-115.08 225.61,-142.48"/>
<polygon fill="midnightblue" stroke="midnightblue" points="1068.69,-54.09 1078.97,-51.5 1069.32,-47.12 1068.69,-54.09"/>
</g>
<!-- Node3 -->
<g id="node3" class="node">
<title>Node3</title>
<g id="a_node3"><a xlink:href="classGPS.html#abd750ada6a7b976f72761ce16246ccf6" target="_top" xlink:title=" ">
<polygon fill="white" stroke="black" points="768,-180.5 768,-199.5 888,-199.5 888,-180.5 768,-180.5"/>
<text text-anchor="middle" x="828" y="-187.5" font-family="Helvetica,sans-Serif" font-size="10.00">GPS::setGPSBAUD115</text>
</a>
</g>
</g>
<!-- Node2&#45;&gt;Node3 -->
<g id="edge2" class="edge">
<title>Node2&#45;&gt;Node3</title>
<path fill="none" stroke="midnightblue" d="M933.86,-164.04C912.42,-169.35 887.58,-175.5 867.46,-180.48"/>
<polygon fill="midnightblue" stroke="midnightblue" points="934.9,-167.39 943.77,-161.59 933.22,-160.59 934.9,-167.39"/>
</g>
<!-- Node4 -->
<g id="node4" class="node">
<title>Node4</title>
<g id="a_node4"><a xlink:href="classGPS.html#a1b1c89214229f5dc8ff7e2fa9cbcad35" target="_top" xlink:title=" ">
<polygon fill="white" stroke="black" points="472,-218.5 472,-237.5 578,-237.5 578,-218.5 472,-218.5"/>
<text text-anchor="middle" x="525" y="-225.5" font-family="Helvetica,sans-Serif" font-size="10.00">GPS::handleTimeout</text>
</a>
</g>
</g>
<!-- Node3&#45;&gt;Node4 -->
<g id="edge3" class="edge">
<title>Node3&#45;&gt;Node4</title>
<path fill="none" stroke="midnightblue" d="M773.95,-201.64C760.33,-204.34 745.66,-207.01 732,-209 679.93,-216.59 620,-221.71 578.25,-224.71"/>
<polygon fill="midnightblue" stroke="midnightblue" points="775.03,-204.99 784.13,-199.57 773.63,-198.13 775.03,-204.99"/>
</g>
<!-- Node8 -->
<g id="node8" class="node">
<title>Node8</title>
<g id="a_node8"><a xlink:href="classGPS.html#a217097ae4a846c621f001a5aa1f4fb4f" target="_top" xlink:title=" ">
<polygon fill="white" stroke="black" points="614,-180.5 614,-199.5 732,-199.5 732,-180.5 614,-180.5"/>
<text text-anchor="middle" x="673" y="-187.5" font-family="Helvetica,sans-Serif" font-size="10.00">GPS::ProcessMessage</text>
</a>
</g>
</g>
<!-- Node3&#45;&gt;Node8 -->
<g id="edge13" class="edge">
<title>Node3&#45;&gt;Node8</title>
<path fill="none" stroke="midnightblue" d="M757.6,-190C749.12,-190 740.53,-190 732.24,-190"/>
<polygon fill="midnightblue" stroke="midnightblue" points="757.85,-193.5 767.85,-190 757.85,-186.5 757.85,-193.5"/>
</g>
<!-- Node4&#45;&gt;Node2 -->
<g id="edge11" class="edge">
<title>Node4&#45;&gt;Node2</title>
<path fill="none" stroke="midnightblue" d="M588.14,-235.02C661.9,-241.05 787.53,-243.99 888,-209 920.21,-197.78 953.31,-174.61 970.5,-161.53"/>
<polygon fill="midnightblue" stroke="midnightblue" points="588.35,-231.53 578.09,-234.16 587.75,-238.5 588.35,-231.53"/>
</g>
<!-- Node5 -->
<g id="node5" class="node">
<title>Node5</title>
<g id="a_node5"><a xlink:href="classGPS.html#ae4568ef4d5107c96c1af68d1abd33559" target="_top" xlink:title=" ">
<polygon fill="white" stroke="black" points="322,-142.5 322,-161.5 436,-161.5 436,-142.5 322,-142.5"/>
<text text-anchor="middle" x="379" y="-149.5" font-family="Helvetica,sans-Serif" font-size="10.00">GPS::closeConnection</text>
</a>
</g>
</g>
<!-- Node4&#45;&gt;Node5 -->
<g id="edge4" class="edge">
<title>Node4&#45;&gt;Node5</title>
<path fill="none" stroke="midnightblue" d="M496.61,-213.54C467.68,-198.28 422.9,-174.64 398.09,-161.55"/>
<polygon fill="midnightblue" stroke="midnightblue" points="495.28,-216.8 505.76,-218.37 498.55,-210.61 495.28,-216.8"/>
</g>
<!-- Node7 -->
<g id="node7" class="node">
<title>Node7</title>
<g id="a_node7"><a xlink:href="classGPS.html#ac2a7572afb184df9c14ae913f17306bf" target="_top" xlink:title=" ">
<polygon fill="white" stroke="black" points="0,-161.5 0,-180.5 98,-180.5 98,-161.5 0,-161.5"/>
<text text-anchor="middle" x="49" y="-168.5" font-family="Helvetica,sans-Serif" font-size="10.00">GPS::initSerialPort</text>
</a>
</g>
</g>
<!-- Node4&#45;&gt;Node7 -->
<g id="edge12" class="edge">
<title>Node4&#45;&gt;Node7</title>
<path fill="none" stroke="midnightblue" d="M461.82,-222.22C384.74,-214.8 249.43,-200.97 134,-185 122.43,-183.4 110,-181.45 98.35,-179.53"/>
<polygon fill="midnightblue" stroke="midnightblue" points="461.55,-225.71 471.84,-223.18 462.22,-218.74 461.55,-225.71"/>
</g>
<!-- Node5&#45;&gt;Node1 -->
<g id="edge10" class="edge">
<title>Node5&#45;&gt;Node1</title>
<path fill="none" stroke="midnightblue" d="M410.9,-138.4C463.45,-116.53 574.07,-76 672,-76 829,-76 829,-76 829,-76 916.54,-76 1017.94,-68.11 1078.97,-62.5"/>
<polygon fill="midnightblue" stroke="midnightblue" points="409.33,-135.26 401.48,-142.37 412.05,-141.71 409.33,-135.26"/>
</g>
<!-- Node5&#45;&gt;Node6 -->
<g id="edge5" class="edge">
<title>Node5&#45;&gt;Node6</title>
<path fill="none" stroke="midnightblue" d="M311.81,-145.38C303.4,-145.25 294.75,-145.22 286.21,-145.28"/>
<polygon fill="midnightblue" stroke="midnightblue" points="311.86,-148.88 321.93,-145.58 312,-141.88 311.86,-148.88"/>
</g>
<!-- Node6&#45;&gt;Node2 -->
<g id="edge7" class="edge">
<title>Node6&#45;&gt;Node2</title>
<path fill="none" stroke="midnightblue" d="M269.39,-140.63C332.07,-129.44 434.68,-114 524,-114 674,-114 674,-114 674,-114 766.95,-114 874.49,-131.2 934.9,-142.46"/>
<polygon fill="midnightblue" stroke="midnightblue" points="268.52,-137.23 259.31,-142.46 269.77,-144.12 268.52,-137.23"/>
</g>
<!-- Node6&#45;&gt;Node5 -->
<g id="edge6" class="edge">
<title>Node6&#45;&gt;Node5</title>
<path fill="none" stroke="midnightblue" d="M296.38,-158.75C305.04,-158.73 313.69,-158.62 321.93,-158.42"/>
<polygon fill="midnightblue" stroke="midnightblue" points="296.22,-155.25 286.21,-158.72 296.2,-162.25 296.22,-155.25"/>
</g>
<!-- Node6&#45;&gt;Node7 -->
<g id="edge8" class="edge">
<title>Node6&#45;&gt;Node7</title>
<path fill="none" stroke="midnightblue" d="M123.53,-162.21C114.88,-163.25 106.34,-164.27 98.29,-165.23"/>
<polygon fill="midnightblue" stroke="midnightblue" points="124.18,-165.66 133.69,-161 123.35,-158.71 124.18,-165.66"/>
</g>
<!-- Node7&#45;&gt;Node1 -->
<g id="edge9" class="edge">
<title>Node7&#45;&gt;Node1</title>
<path fill="none" stroke="midnightblue" d="M67.11,-154.35C113.17,-111.37 245.33,0 378,0 829,0 829,0 829,0 931.08,0 1049.16,-31.23 1103.61,-47.46"/>
<polygon fill="midnightblue" stroke="midnightblue" points="64.61,-151.9 59.76,-161.32 69.43,-156.98 64.61,-151.9"/>
</g>
<!-- Node9 -->
<g id="node9" class="node">
<title>Node9</title>
<g id="a_node9"><a xlink:href="classGPS.html#aa0928d156961a54bf06d9b5210d85561" target="_top" xlink:title=" ">
<polygon fill="white" stroke="black" points="475.5,-161.5 475.5,-180.5 574.5,-180.5 574.5,-161.5 475.5,-161.5"/>
<text text-anchor="middle" x="525" y="-168.5" font-family="Helvetica,sans-Serif" font-size="10.00">GPS::readyToRead</text>
</a>
</g>
</g>
<!-- Node8&#45;&gt;Node9 -->
<g id="edge14" class="edge">
<title>Node8&#45;&gt;Node9</title>
<path fill="none" stroke="midnightblue" d="M603.69,-181.11C593.84,-179.83 583.88,-178.53 574.53,-177.32"/>
<polygon fill="midnightblue" stroke="midnightblue" points="603.51,-184.62 613.88,-182.44 604.41,-177.67 603.51,-184.62"/>
</g>
<!-- Node9&#45;&gt;Node2 -->
<g id="edge16" class="edge">
<title>Node9&#45;&gt;Node2</title>
<path fill="none" stroke="midnightblue" d="M584.81,-168.55C672.4,-164.91 836.2,-158.09 923.76,-154.45"/>
<polygon fill="midnightblue" stroke="midnightblue" points="584.61,-165.06 574.77,-168.97 584.91,-172.05 584.61,-165.06"/>
</g>
<!-- Node9&#45;&gt;Node5 -->
<g id="edge15" class="edge">
<title>Node9&#45;&gt;Node5</title>
<path fill="none" stroke="midnightblue" d="M465.04,-163.22C455.5,-161.96 445.63,-160.66 436.15,-159.41"/>
<polygon fill="midnightblue" stroke="midnightblue" points="464.88,-166.73 475.25,-164.57 465.79,-159.79 464.88,-166.73"/>
</g>
<!-- Node9&#45;&gt;Node7 -->
<g id="edge17" class="edge">
<title>Node9&#45;&gt;Node7</title>
<path fill="none" stroke="midnightblue" d="M464.78,-171C369.93,-171 185.76,-171 98.32,-171"/>
<polygon fill="midnightblue" stroke="midnightblue" points="465.06,-174.5 475.06,-171 465.06,-167.5 465.06,-174.5"/>
</g>
</g>
</svg>
        <g id="navigator" transform="translate(0 0)" fill="#404254">
                <rect fill="#f2f5e9" fill-opacity="0.5" stroke="#606060" stroke-width=".5" x="0" y="0" width="60" height="60"/>
                <use id="zoomplus" xlink:href="#zoomPlus" x="17" y="9" onmousedown="handleZoom(evt,'in')"/>
                <use id="zoomminus" xlink:href="#zoomMin" x="42" y="9" onmousedown="handleZoom(evt,'out')"/>
                <use id="reset" xlink:href="#resetDef" x="30" y="36" onmousedown="handleReset()"/>
                <g id="arrowUp" xlink:href="#dirArrow" transform="translate(30 24)" onmousedown="handlePan(0,-1)">
                  <use xlink:href="#rim" fill="#404040">
                        <set attributeName="fill" to="#808080" begin="arrowUp.mouseover" end="arrowUp.mouseout"/>
                  </use>
                  <path fill="none" stroke="white" stroke-width="1.5" d="M0,-3.0v7 M-2.5,-0.5L0,-3.0L2.5,-0.5"/>
                </g>
                <g id="arrowRight" xlink:href="#dirArrow" transform="rotate(90) translate(36 -43)" onmousedown="handlePan(1,0)">
                  <use xlink:href="#rim" fill="#404040">
                        <set attributeName="fill" to="#808080" begin="arrowRight.mouseover" end="arrowRight.mouseout"/>
                  </use>
                  <path fill="none" stroke="white" stroke-width="1.5" d="M0,-3.0v7 M-2.5,-0.5L0,-3.0L2.5,-0.5"/>
                </g>
                <g id="arrowDown" xlink:href="#dirArrow" transform="rotate(180) translate(-30 -48)" onmousedown="handlePan(0,1)">
                  <use xlink:href="#rim" fill="#404040">
                        <set attributeName="fill" to="#808080" begin="arrowDown.mouseover" end="arrowDown.mouseout"/>
                  </use>
                  <path fill="none" stroke="white" stroke-width="1.5" d="M0,-3.0v7 M-2.5,-0.5L0,-3.0L2.5,-0.5"/>
                </g>
                <g id="arrowLeft" xlink:href="#dirArrow" transform="rotate(270) translate(-36 17)" onmousedown="handlePan(-1,0)">
                  <use xlink:href="#rim" fill="#404040">
                        <set attributeName="fill" to="#808080" begin="arrowLeft.mouseover" end="arrowLeft.mouseout"/>
                  </use>
                  <path fill="none" stroke="white" stroke-width="1.5" d="M0,-3.0v7 M-2.5,-0.5L0,-3.0L2.5,-0.5"/>
                </g>
        </g>
        <svg viewBox="0 0 15 15" width="100%" height="30px" preserveAspectRatio="xMaxYMin meet">
         <g id="arrow_out" transform="scale(0.3 0.3)">
          <a xlink:href="classGPS_a51eaea2422dd980ea0a6d28f12a136de_icgraph_org.svg" target="_base">
           <rect id="button" ry="5" rx="5" y="6" x="6" height="38" width="38"
                fill="#f2f5e9" fill-opacity="0.5" stroke="#606060" stroke-width="1.0"/>
           <path id="arrow"
             d="M 11.500037,31.436501 C 11.940474,20.09759 22.043105,11.32322 32.158766,21.979434 L 37.068811,17.246167 C 37.068811,17.246167 37.088388,32 37.088388,32 L 22.160133,31.978069 C 22.160133,31.978069 26.997745,27.140456 26.997745,27.140456 C 18.528582,18.264221 13.291696,25.230495 11.500037,31.436501 z"
             style="fill:#404040;"/>
          </a>
         </g>
        </svg>
</svg>
