<?xml version="1.0" encoding="UTF-8" standalone="no"?>
<!DOCTYPE svg PUBLIC "-//W3C//DTD SVG 1.1//EN"
 "http://www.w3.org/Graphics/SVG/1.1/DTD/svg11.dtd">
<!-- Generated by graphviz version 2.49.3 (20211027.1534)
 -->
<!-- Title: Extender::readyToRead Pages: 1 -->
<svg width="498pt" height="712pt"
 viewBox="0.00 0.00 498.00 712.00" xmlns="http://www.w3.org/2000/svg" xmlns:xlink="http://www.w3.org/1999/xlink">
<g id="graph0" class="graph" transform="scale(1 1) rotate(0) translate(4 708)">
<title>Extender::readyToRead</title>
<polygon fill="white" stroke="transparent" points="-4,4 -4,-708 494,-708 494,4 -4,4"/>
<!-- Node1 -->
<g id="node1" class="node">
<title>Node1</title>
<g id="a_node1"><a xlink:title=" ">
<polygon fill="#bfbfbf" stroke="black" points="0,-342.5 0,-361.5 116,-361.5 116,-342.5 0,-342.5"/>
<text text-anchor="middle" x="58" y="-349.5" font-family="Helvetica,sans-Serif" font-size="10.00">Extender::readyToRead</text>
</a>
</g>
</g>
<!-- Node2 -->
<g id="node2" class="node">
<title>Node2</title>
<g id="a_node2"><a xlink:href="Extender_8cpp.html#a0f8ac5620442320553774ec3428d6f1a" target="_top" xlink:title=" ">
<polygon fill="white" stroke="black" points="195,-684.5 195,-703.5 261,-703.5 261,-684.5 195,-684.5"/>
<text text-anchor="middle" x="228" y="-691.5" font-family="Helvetica,sans-Serif" font-size="10.00">averagehz1</text>
</a>
</g>
</g>
<!-- Node1&#45;&gt;Node2 -->
<g id="edge1" class="edge">
<title>Node1&#45;&gt;Node2</title>
<path fill="none" stroke="midnightblue" d="M58.59,-361.62C57.32,-404.97 58.09,-584.07 152,-675 160.82,-683.54 172.9,-688.4 184.8,-691.13"/>
<polygon fill="midnightblue" stroke="midnightblue" points="184.19,-694.58 194.66,-692.95 185.46,-687.69 184.19,-694.58"/>
</g>
<!-- Node3 -->
<g id="node3" class="node">
<title>Node3</title>
<g id="a_node3"><a xlink:href="classDashBoard.html#aea3b83311e69d6a1333fec8517b35e89" target="_top" xlink:title=" ">
<polygon fill="white" stroke="black" points="152,-646.5 152,-665.5 304,-665.5 304,-646.5 152,-646.5"/>
<text text-anchor="middle" x="228" y="-653.5" font-family="Helvetica,sans-Serif" font-size="10.00">DashBoard::setEXAnalogInput0</text>
</a>
</g>
</g>
<!-- Node1&#45;&gt;Node3 -->
<g id="edge2" class="edge">
<title>Node1&#45;&gt;Node3</title>
<path fill="none" stroke="midnightblue" d="M59.02,-361.57C59.64,-401.72 67.6,-558.09 152,-637 153.67,-638.57 155.46,-640.01 157.33,-641.33"/>
<polygon fill="midnightblue" stroke="midnightblue" points="155.64,-644.4 166.03,-646.44 159.18,-638.36 155.64,-644.4"/>
</g>
<!-- Node5 -->
<g id="node5" class="node">
<title>Node5</title>
<g id="a_node5"><a xlink:href="classDashBoard.html#a40fcebc1292e92e8dbc9a98c17788f6b" target="_top" xlink:title=" ">
<polygon fill="white" stroke="black" points="152,-608.5 152,-627.5 304,-627.5 304,-608.5 152,-608.5"/>
<text text-anchor="middle" x="228" y="-615.5" font-family="Helvetica,sans-Serif" font-size="10.00">DashBoard::setEXAnalogInput1</text>
</a>
</g>
</g>
<!-- Node1&#45;&gt;Node5 -->
<g id="edge4" class="edge">
<title>Node1&#45;&gt;Node5</title>
<path fill="none" stroke="midnightblue" d="M59.56,-361.54C62.25,-398.3 77.01,-531.97 152,-599 153.75,-600.56 155.61,-602 157.56,-603.33"/>
<polygon fill="midnightblue" stroke="midnightblue" points="156.15,-606.55 166.58,-608.42 159.59,-600.46 156.15,-606.55"/>
</g>
<!-- Node7 -->
<g id="node7" class="node">
<title>Node7</title>
<g id="a_node7"><a xlink:href="classDashBoard.html#aaf8d337a32bd43ae3ec8855dece362ac" target="_top" xlink:title=" ">
<polygon fill="white" stroke="black" points="152,-570.5 152,-589.5 304,-589.5 304,-570.5 152,-570.5"/>
<text text-anchor="middle" x="228" y="-577.5" font-family="Helvetica,sans-Serif" font-size="10.00">DashBoard::setEXAnalogInput2</text>
</a>
</g>
</g>
<!-- Node1&#45;&gt;Node7 -->
<g id="edge6" class="edge">
<title>Node1&#45;&gt;Node7</title>
<path fill="none" stroke="midnightblue" d="M60.3,-361.66C65.29,-394.94 86.4,-505.73 152,-561 154.02,-562.7 156.18,-564.26 158.43,-565.68"/>
<polygon fill="midnightblue" stroke="midnightblue" points="157.08,-568.92 167.56,-570.49 160.35,-562.73 157.08,-568.92"/>
</g>
<!-- Node9 -->
<g id="node9" class="node">
<title>Node9</title>
<g id="a_node9"><a xlink:href="classDashBoard.html#a3e2fdc22c050dd853a691c8dde2035cf" target="_top" xlink:title=" ">
<polygon fill="white" stroke="black" points="152,-532.5 152,-551.5 304,-551.5 304,-532.5 152,-532.5"/>
<text text-anchor="middle" x="228" y="-539.5" font-family="Helvetica,sans-Serif" font-size="10.00">DashBoard::setEXAnalogInput3</text>
</a>
</g>
</g>
<!-- Node1&#45;&gt;Node9 -->
<g id="edge8" class="edge">
<title>Node1&#45;&gt;Node9</title>
<path fill="none" stroke="midnightblue" d="M61.28,-361.52C68.77,-390.62 95.42,-479.05 152,-523 154.34,-524.82 156.83,-526.46 159.43,-527.95"/>
<polygon fill="midnightblue" stroke="midnightblue" points="158.1,-531.19 168.63,-532.43 161.17,-524.9 158.1,-531.19"/>
</g>
<!-- Node11 -->
<g id="node11" class="node">
<title>Node11</title>
<g id="a_node11"><a xlink:href="classDashBoard.html#a78240e34ac663f151c2733a55f1b9b15" target="_top" xlink:title=" ">
<polygon fill="white" stroke="black" points="152,-494.5 152,-513.5 304,-513.5 304,-494.5 152,-494.5"/>
<text text-anchor="middle" x="228" y="-501.5" font-family="Helvetica,sans-Serif" font-size="10.00">DashBoard::setEXAnalogInput4</text>
</a>
</g>
</g>
<!-- Node1&#45;&gt;Node11 -->
<g id="edge10" class="edge">
<title>Node1&#45;&gt;Node11</title>
<path fill="none" stroke="midnightblue" d="M62.94,-361.82C73.43,-386.64 104.47,-452.18 152,-485 154.91,-487.01 158.01,-488.8 161.23,-490.41"/>
<polygon fill="midnightblue" stroke="midnightblue" points="160.02,-493.7 170.59,-494.45 162.8,-487.27 160.02,-493.7"/>
</g>
<!-- Node13 -->
<g id="node13" class="node">
<title>Node13</title>
<g id="a_node13"><a xlink:href="classDashBoard.html#acc9ce3b13710f908e198224081150d50" target="_top" xlink:title=" ">
<polygon fill="white" stroke="black" points="152,-456.5 152,-475.5 304,-475.5 304,-456.5 152,-456.5"/>
<text text-anchor="middle" x="228" y="-463.5" font-family="Helvetica,sans-Serif" font-size="10.00">DashBoard::setEXAnalogInput5</text>
</a>
</g>
</g>
<!-- Node1&#45;&gt;Node13 -->
<g id="edge12" class="edge">
<title>Node1&#45;&gt;Node13</title>
<path fill="none" stroke="midnightblue" d="M65.68,-361.79C79.45,-381.18 112.99,-424.56 152,-447 155.9,-449.25 160.07,-451.23 164.37,-452.98"/>
<polygon fill="midnightblue" stroke="midnightblue" points="163.33,-456.33 173.92,-456.46 165.72,-449.75 163.33,-456.33"/>
</g>
<!-- Node15 -->
<g id="node15" class="node">
<title>Node15</title>
<g id="a_node15"><a xlink:href="classDashBoard.html#a716e0567d83d4547582b97215fa8364f" target="_top" xlink:title=" ">
<polygon fill="white" stroke="black" points="152,-418.5 152,-437.5 304,-437.5 304,-418.5 152,-418.5"/>
<text text-anchor="middle" x="228" y="-425.5" font-family="Helvetica,sans-Serif" font-size="10.00">DashBoard::setEXAnalogInput6</text>
</a>
</g>
</g>
<!-- Node1&#45;&gt;Node15 -->
<g id="edge14" class="edge">
<title>Node1&#45;&gt;Node15</title>
<path fill="none" stroke="midnightblue" d="M71.87,-361.64C89.22,-374.22 121.46,-396.13 152,-409 157.85,-411.47 164.09,-413.67 170.39,-415.62"/>
<polygon fill="midnightblue" stroke="midnightblue" points="169.69,-419.06 180.27,-418.49 171.64,-412.34 169.69,-419.06"/>
</g>
<!-- Node17 -->
<g id="node17" class="node">
<title>Node17</title>
<g id="a_node17"><a xlink:href="classDashBoard.html#a84edfc43f79c2ec11502be1fa0bba88a" target="_top" xlink:title=" ">
<polygon fill="white" stroke="black" points="152,-380.5 152,-399.5 304,-399.5 304,-380.5 152,-380.5"/>
<text text-anchor="middle" x="228" y="-387.5" font-family="Helvetica,sans-Serif" font-size="10.00">DashBoard::setEXAnalogInput7</text>
</a>
</g>
</g>
<!-- Node1&#45;&gt;Node17 -->
<g id="edge16" class="edge">
<title>Node1&#45;&gt;Node17</title>
<path fill="none" stroke="midnightblue" d="M101.39,-361.59C123.76,-366.65 151.4,-372.9 175.05,-378.25"/>
<polygon fill="midnightblue" stroke="midnightblue" points="174.39,-381.69 184.91,-380.48 175.93,-374.86 174.39,-381.69"/>
</g>
<!-- Node20 -->
<g id="node20" class="node">
<title>Node20</title>
<g id="a_node20"><a xlink:href="classDashBoard.html#aa46ca9cc6c7aa38dd7b1c854d7194d8e" target="_top" xlink:title=" ">
<polygon fill="white" stroke="black" points="153.5,-342.5 153.5,-361.5 302.5,-361.5 302.5,-342.5 153.5,-342.5"/>
<text text-anchor="middle" x="228" y="-349.5" font-family="Helvetica,sans-Serif" font-size="10.00">DashBoard::setEXDigitalInput1</text>
</a>
</g>
</g>
<!-- Node1&#45;&gt;Node20 -->
<g id="edge19" class="edge">
<title>Node1&#45;&gt;Node20</title>
<path fill="none" stroke="midnightblue" d="M116.35,-352C124.98,-352 134.03,-352 143.08,-352"/>
<polygon fill="midnightblue" stroke="midnightblue" points="143.28,-355.5 153.28,-352 143.28,-348.5 143.28,-355.5"/>
</g>
<!-- Node21 -->
<g id="node21" class="node">
<title>Node21</title>
<g id="a_node21"><a xlink:href="classDashBoard.html#a647ab8b3e72de0c4c2f205ea7505baf6" target="_top" xlink:title=" ">
<polygon fill="white" stroke="black" points="153.5,-304.5 153.5,-323.5 302.5,-323.5 302.5,-304.5 153.5,-304.5"/>
<text text-anchor="middle" x="228" y="-311.5" font-family="Helvetica,sans-Serif" font-size="10.00">DashBoard::setEXDigitalInput2</text>
</a>
</g>
</g>
<!-- Node1&#45;&gt;Node21 -->
<g id="edge20" class="edge">
<title>Node1&#45;&gt;Node21</title>
<path fill="none" stroke="midnightblue" d="M101.39,-342.41C123.76,-337.35 151.4,-331.1 175.05,-325.75"/>
<polygon fill="midnightblue" stroke="midnightblue" points="175.93,-329.14 184.91,-323.52 174.39,-322.31 175.93,-329.14"/>
</g>
<!-- Node22 -->
<g id="node22" class="node">
<title>Node22</title>
<g id="a_node22"><a xlink:href="classDashBoard.html#af8c84e201cb752d50d8672fed0a5e773" target="_top" xlink:title=" ">
<polygon fill="white" stroke="black" points="153.5,-266.5 153.5,-285.5 302.5,-285.5 302.5,-266.5 153.5,-266.5"/>
<text text-anchor="middle" x="228" y="-273.5" font-family="Helvetica,sans-Serif" font-size="10.00">DashBoard::setEXDigitalInput3</text>
</a>
</g>
</g>
<!-- Node1&#45;&gt;Node22 -->
<g id="edge21" class="edge">
<title>Node1&#45;&gt;Node22</title>
<path fill="none" stroke="midnightblue" d="M71.87,-342.36C89.22,-329.78 121.46,-307.87 152,-295 157.85,-292.53 164.09,-290.33 170.39,-288.38"/>
<polygon fill="midnightblue" stroke="midnightblue" points="171.64,-291.66 180.27,-285.51 169.69,-284.94 171.64,-291.66"/>
</g>
<!-- Node23 -->
<g id="node23" class="node">
<title>Node23</title>
<g id="a_node23"><a xlink:href="classDashBoard.html#a2424c28383ff002d84ecafb105e52478" target="_top" xlink:title=" ">
<polygon fill="white" stroke="black" points="153.5,-228.5 153.5,-247.5 302.5,-247.5 302.5,-228.5 153.5,-228.5"/>
<text text-anchor="middle" x="228" y="-235.5" font-family="Helvetica,sans-Serif" font-size="10.00">DashBoard::setEXDigitalInput4</text>
</a>
</g>
</g>
<!-- Node1&#45;&gt;Node23 -->
<g id="edge22" class="edge">
<title>Node1&#45;&gt;Node23</title>
<path fill="none" stroke="midnightblue" d="M65.68,-342.21C79.45,-322.82 112.99,-279.44 152,-257 155.9,-254.75 160.07,-252.77 164.37,-251.02"/>
<polygon fill="midnightblue" stroke="midnightblue" points="165.72,-254.25 173.92,-247.54 163.33,-247.67 165.72,-254.25"/>
</g>
<!-- Node24 -->
<g id="node24" class="node">
<title>Node24</title>
<g id="a_node24"><a xlink:href="classDashBoard.html#a3c99db6971cbfa671cc200a2f793ab9e" target="_top" xlink:title=" ">
<polygon fill="white" stroke="black" points="153.5,-190.5 153.5,-209.5 302.5,-209.5 302.5,-190.5 153.5,-190.5"/>
<text text-anchor="middle" x="228" y="-197.5" font-family="Helvetica,sans-Serif" font-size="10.00">DashBoard::setEXDigitalInput5</text>
</a>
</g>
</g>
<!-- Node1&#45;&gt;Node24 -->
<g id="edge23" class="edge">
<title>Node1&#45;&gt;Node24</title>
<path fill="none" stroke="midnightblue" d="M62.94,-342.18C73.43,-317.36 104.47,-251.82 152,-219 154.91,-216.99 158.01,-215.2 161.23,-213.59"/>
<polygon fill="midnightblue" stroke="midnightblue" points="162.8,-216.73 170.59,-209.55 160.02,-210.3 162.8,-216.73"/>
</g>
<!-- Node25 -->
<g id="node25" class="node">
<title>Node25</title>
<g id="a_node25"><a xlink:href="classDashBoard.html#ad88701b524bb0a1f33f83d9fffd4b6a2" target="_top" xlink:title=" ">
<polygon fill="white" stroke="black" points="153.5,-152.5 153.5,-171.5 302.5,-171.5 302.5,-152.5 153.5,-152.5"/>
<text text-anchor="middle" x="228" y="-159.5" font-family="Helvetica,sans-Serif" font-size="10.00">DashBoard::setEXDigitalInput6</text>
</a>
</g>
</g>
<!-- Node1&#45;&gt;Node25 -->
<g id="edge24" class="edge">
<title>Node1&#45;&gt;Node25</title>
<path fill="none" stroke="midnightblue" d="M61.28,-342.48C68.77,-313.38 95.42,-224.95 152,-181 154.34,-179.18 156.83,-177.54 159.43,-176.05"/>
<polygon fill="midnightblue" stroke="midnightblue" points="161.17,-179.1 168.63,-171.57 158.1,-172.81 161.17,-179.1"/>
</g>
<!-- Node26 -->
<g id="node26" class="node">
<title>Node26</title>
<g id="a_node26"><a xlink:href="classDashBoard.html#a83a2f9f8cb8efab71307b2d8bcbf48d8" target="_top" xlink:title=" ">
<polygon fill="white" stroke="black" points="153.5,-114.5 153.5,-133.5 302.5,-133.5 302.5,-114.5 153.5,-114.5"/>
<text text-anchor="middle" x="228" y="-121.5" font-family="Helvetica,sans-Serif" font-size="10.00">DashBoard::setEXDigitalInput7</text>
</a>
</g>
</g>
<!-- Node1&#45;&gt;Node26 -->
<g id="edge25" class="edge">
<title>Node1&#45;&gt;Node26</title>
<path fill="none" stroke="midnightblue" d="M60.3,-342.34C65.29,-309.06 86.4,-198.27 152,-143 154.02,-141.3 156.18,-139.74 158.43,-138.32"/>
<polygon fill="midnightblue" stroke="midnightblue" points="160.35,-141.27 167.56,-133.51 157.08,-135.08 160.35,-141.27"/>
</g>
<!-- Node27 -->
<g id="node27" class="node">
<title>Node27</title>
<g id="a_node27"><a xlink:href="classDashBoard.html#a4eebd82e4a2363f974b92566fa81abdd" target="_top" xlink:title=" ">
<polygon fill="white" stroke="black" points="153.5,-76.5 153.5,-95.5 302.5,-95.5 302.5,-76.5 153.5,-76.5"/>
<text text-anchor="middle" x="228" y="-83.5" font-family="Helvetica,sans-Serif" font-size="10.00">DashBoard::setEXDigitalInput8</text>
</a>
</g>
</g>
<!-- Node1&#45;&gt;Node27 -->
<g id="edge26" class="edge">
<title>Node1&#45;&gt;Node27</title>
<path fill="none" stroke="midnightblue" d="M59.56,-342.46C62.25,-305.7 77.01,-172.03 152,-105 153.75,-103.44 155.61,-102 157.56,-100.67"/>
<polygon fill="midnightblue" stroke="midnightblue" points="159.59,-103.54 166.58,-95.58 156.15,-97.45 159.59,-103.54"/>
</g>
<!-- Node28 -->
<g id="node28" class="node">
<title>Node28</title>
<g id="a_node28"><a xlink:href="classDashBoard.html#a1ab9446e32205bad972299f2731fc073" target="_top" xlink:title=" ">
<polygon fill="white" stroke="black" points="152,-38.5 152,-57.5 304,-57.5 304,-38.5 152,-38.5"/>
<text text-anchor="middle" x="228" y="-45.5" font-family="Helvetica,sans-Serif" font-size="10.00">DashBoard::setfrequencyDIEX1</text>
</a>
</g>
</g>
<!-- Node1&#45;&gt;Node28 -->
<g id="edge27" class="edge">
<title>Node1&#45;&gt;Node28</title>
<path fill="none" stroke="midnightblue" d="M59.02,-342.43C59.64,-302.28 67.6,-145.91 152,-67 153.67,-65.43 155.46,-63.99 157.33,-62.67"/>
<polygon fill="midnightblue" stroke="midnightblue" points="159.18,-65.64 166.03,-57.56 155.64,-59.6 159.18,-65.64"/>
</g>
<!-- Node29 -->
<g id="node29" class="node">
<title>Node29</title>
<g id="a_node29"><a xlink:href="classDashBoard.html#ab8a26c5ebc87f76cc237e46d8e014403" target="_top" xlink:title=" ">
<polygon fill="white" stroke="black" points="178.5,-0.5 178.5,-19.5 277.5,-19.5 277.5,-0.5 178.5,-0.5"/>
<text text-anchor="middle" x="228" y="-7.5" font-family="Helvetica,sans-Serif" font-size="10.00">DashBoard::setrpm</text>
</a>
</g>
</g>
<!-- Node1&#45;&gt;Node29 -->
<g id="edge28" class="edge">
<title>Node1&#45;&gt;Node29</title>
<path fill="none" stroke="midnightblue" d="M58.59,-342.38C57.32,-299.03 58.09,-119.93 152,-29 156.86,-24.29 162.72,-20.7 168.98,-17.97"/>
<polygon fill="midnightblue" stroke="midnightblue" points="170.19,-21.26 178.39,-14.55 167.8,-14.68 170.19,-21.26"/>
</g>
<!-- Node4 -->
<g id="node4" class="node">
<title>Node4</title>
<g id="a_node4"><a xlink:href="classDashBoard.html#ad4bca9c86e09a58f353f1769f330b16b" target="_top" xlink:title=" ">
<polygon fill="white" stroke="black" points="340,-646.5 340,-665.5 490,-665.5 490,-646.5 340,-646.5"/>
<text text-anchor="middle" x="415" y="-653.5" font-family="Helvetica,sans-Serif" font-size="10.00">DashBoard::setEXAnalogCalc0</text>
</a>
</g>
</g>
<!-- Node3&#45;&gt;Node4 -->
<g id="edge3" class="edge">
<title>Node3&#45;&gt;Node4</title>
<path fill="none" stroke="midnightblue" d="M304.25,-656C312.57,-656 321.08,-656 329.51,-656"/>
<polygon fill="midnightblue" stroke="midnightblue" points="329.72,-659.5 339.72,-656 329.72,-652.5 329.72,-659.5"/>
</g>
<!-- Node6 -->
<g id="node6" class="node">
<title>Node6</title>
<g id="a_node6"><a xlink:href="classDashBoard.html#a5ac515122873f5b76e448a80541902fe" target="_top" xlink:title=" ">
<polygon fill="white" stroke="black" points="340,-608.5 340,-627.5 490,-627.5 490,-608.5 340,-608.5"/>
<text text-anchor="middle" x="415" y="-615.5" font-family="Helvetica,sans-Serif" font-size="10.00">DashBoard::setEXAnalogCalc1</text>
</a>
</g>
</g>
<!-- Node5&#45;&gt;Node6 -->
<g id="edge5" class="edge">
<title>Node5&#45;&gt;Node6</title>
<path fill="none" stroke="midnightblue" d="M304.25,-618C312.57,-618 321.08,-618 329.51,-618"/>
<polygon fill="midnightblue" stroke="midnightblue" points="329.72,-621.5 339.72,-618 329.72,-614.5 329.72,-621.5"/>
</g>
<!-- Node8 -->
<g id="node8" class="node">
<title>Node8</title>
<g id="a_node8"><a xlink:href="classDashBoard.html#a9fdebbd7e5e1dc147484405017a4f58e" target="_top" xlink:title=" ">
<polygon fill="white" stroke="black" points="340,-570.5 340,-589.5 490,-589.5 490,-570.5 340,-570.5"/>
<text text-anchor="middle" x="415" y="-577.5" font-family="Helvetica,sans-Serif" font-size="10.00">DashBoard::setEXAnalogCalc2</text>
</a>
</g>
</g>
<!-- Node7&#45;&gt;Node8 -->
<g id="edge7" class="edge">
<title>Node7&#45;&gt;Node8</title>
<path fill="none" stroke="midnightblue" d="M304.25,-580C312.57,-580 321.08,-580 329.51,-580"/>
<polygon fill="midnightblue" stroke="midnightblue" points="329.72,-583.5 339.72,-580 329.72,-576.5 329.72,-583.5"/>
</g>
<!-- Node10 -->
<g id="node10" class="node">
<title>Node10</title>
<g id="a_node10"><a xlink:href="classDashBoard.html#a45736c280f71e3e0f7952d6caa509a5d" target="_top" xlink:title=" ">
<polygon fill="white" stroke="black" points="340,-532.5 340,-551.5 490,-551.5 490,-532.5 340,-532.5"/>
<text text-anchor="middle" x="415" y="-539.5" font-family="Helvetica,sans-Serif" font-size="10.00">DashBoard::setEXAnalogCalc3</text>
</a>
</g>
</g>
<!-- Node9&#45;&gt;Node10 -->
<g id="edge9" class="edge">
<title>Node9&#45;&gt;Node10</title>
<path fill="none" stroke="midnightblue" d="M304.25,-542C312.57,-542 321.08,-542 329.51,-542"/>
<polygon fill="midnightblue" stroke="midnightblue" points="329.72,-545.5 339.72,-542 329.72,-538.5 329.72,-545.5"/>
</g>
<!-- Node12 -->
<g id="node12" class="node">
<title>Node12</title>
<g id="a_node12"><a xlink:href="classDashBoard.html#a2628edc6a2b1f8487f0e66baaa28cb1c" target="_top" xlink:title=" ">
<polygon fill="white" stroke="black" points="340,-494.5 340,-513.5 490,-513.5 490,-494.5 340,-494.5"/>
<text text-anchor="middle" x="415" y="-501.5" font-family="Helvetica,sans-Serif" font-size="10.00">DashBoard::setEXAnalogCalc4</text>
</a>
</g>
</g>
<!-- Node11&#45;&gt;Node12 -->
<g id="edge11" class="edge">
<title>Node11&#45;&gt;Node12</title>
<path fill="none" stroke="midnightblue" d="M304.25,-504C312.57,-504 321.08,-504 329.51,-504"/>
<polygon fill="midnightblue" stroke="midnightblue" points="329.72,-507.5 339.72,-504 329.72,-500.5 329.72,-507.5"/>
</g>
<!-- Node14 -->
<g id="node14" class="node">
<title>Node14</title>
<g id="a_node14"><a xlink:href="classDashBoard.html#a78a532a6368f73c881615156a9792754" target="_top" xlink:title=" ">
<polygon fill="white" stroke="black" points="340,-456.5 340,-475.5 490,-475.5 490,-456.5 340,-456.5"/>
<text text-anchor="middle" x="415" y="-463.5" font-family="Helvetica,sans-Serif" font-size="10.00">DashBoard::setEXAnalogCalc5</text>
</a>
</g>
</g>
<!-- Node13&#45;&gt;Node14 -->
<g id="edge13" class="edge">
<title>Node13&#45;&gt;Node14</title>
<path fill="none" stroke="midnightblue" d="M304.25,-466C312.57,-466 321.08,-466 329.51,-466"/>
<polygon fill="midnightblue" stroke="midnightblue" points="329.72,-469.5 339.72,-466 329.72,-462.5 329.72,-469.5"/>
</g>
<!-- Node16 -->
<g id="node16" class="node">
<title>Node16</title>
<g id="a_node16"><a xlink:href="classDashBoard.html#ab5fde2074a4df80f8fe7b063f2bcdbdb" target="_top" xlink:title=" ">
<polygon fill="white" stroke="black" points="340,-418.5 340,-437.5 490,-437.5 490,-418.5 340,-418.5"/>
<text text-anchor="middle" x="415" y="-425.5" font-family="Helvetica,sans-Serif" font-size="10.00">DashBoard::setEXAnalogCalc6</text>
</a>
</g>
</g>
<!-- Node15&#45;&gt;Node16 -->
<g id="edge15" class="edge">
<title>Node15&#45;&gt;Node16</title>
<path fill="none" stroke="midnightblue" d="M304.25,-428C312.57,-428 321.08,-428 329.51,-428"/>
<polygon fill="midnightblue" stroke="midnightblue" points="329.72,-431.5 339.72,-428 329.72,-424.5 329.72,-431.5"/>
</g>
<!-- Node18 -->
<g id="node18" class="node">
<title>Node18</title>
<g id="a_node18"><a xlink:href="dashboard_8cpp.html#a2751a06c2fa6c8388f2d37d5d26453f3" target="_top" xlink:title=" ">
<polygon fill="white" stroke="black" points="357,-380.5 357,-399.5 473,-399.5 473,-380.5 357,-380.5"/>
<text text-anchor="middle" x="415" y="-387.5" font-family="Helvetica,sans-Serif" font-size="10.00">averageexanaloginput7</text>
</a>
</g>
</g>
<!-- Node17&#45;&gt;Node18 -->
<g id="edge17" class="edge">
<title>Node17&#45;&gt;Node18</title>
<path fill="none" stroke="midnightblue" d="M304.25,-390C318.28,-390 332.86,-390 346.63,-390"/>
<polygon fill="midnightblue" stroke="midnightblue" points="346.98,-393.5 356.98,-390 346.98,-386.5 346.98,-393.5"/>
</g>
<!-- Node19 -->
<g id="node19" class="node">
<title>Node19</title>
<g id="a_node19"><a xlink:href="classDashBoard.html#a45064b50c716f383e9811c5ab25b3422" target="_top" xlink:title=" ">
<polygon fill="white" stroke="black" points="340,-342.5 340,-361.5 490,-361.5 490,-342.5 340,-342.5"/>
<text text-anchor="middle" x="415" y="-349.5" font-family="Helvetica,sans-Serif" font-size="10.00">DashBoard::setEXAnalogCalc7</text>
</a>
</g>
</g>
<!-- Node17&#45;&gt;Node19 -->
<g id="edge18" class="edge">
<title>Node17&#45;&gt;Node19</title>
<path fill="none" stroke="midnightblue" d="M275.68,-380.41C300.65,-375.28 331.56,-368.93 357.83,-363.54"/>
<polygon fill="midnightblue" stroke="midnightblue" points="358.56,-366.96 367.65,-361.52 357.15,-360.1 358.56,-366.96"/>
</g>
<!-- Node30 -->
<g id="node30" class="node">
<title>Node30</title>
<g id="a_node30"><a xlink:href="dashboard_8cpp.html#abaed07c489b38d23644263ae435338d4" target="_top" xlink:title=" ">
<polygon fill="white" stroke="black" points="378.5,-0.5 378.5,-19.5 451.5,-19.5 451.5,-0.5 378.5,-0.5"/>
<text text-anchor="middle" x="415" y="-7.5" font-family="Helvetica,sans-Serif" font-size="10.00">averageRPM</text>
</a>
</g>
</g>
<!-- Node29&#45;&gt;Node30 -->
<g id="edge29" class="edge">
<title>Node29&#45;&gt;Node30</title>
<path fill="none" stroke="midnightblue" d="M277.61,-10C305.61,-10 340.6,-10 368.13,-10"/>
<polygon fill="midnightblue" stroke="midnightblue" points="368.29,-13.5 378.29,-10 368.29,-6.5 368.29,-13.5"/>
</g>
</g>
</svg>
