<?xml version="1.0" encoding="UTF-8" standalone="no"?>
<!DOCTYPE svg PUBLIC "-//W3C//DTD SVG 1.1//EN"
 "http://www.w3.org/Graphics/SVG/1.1/DTD/svg11.dtd">
<!-- Generated by graphviz version 2.49.3 (20211027.1534)
 -->
<!-- Title: Connect::getPorts Pages: 1 -->
<svg width="263pt" height="46pt"
 viewBox="0.00 0.00 263.00 46.00" xmlns="http://www.w3.org/2000/svg" xmlns:xlink="http://www.w3.org/1999/xlink">
<g id="graph0" class="graph" transform="scale(1 1) rotate(0) translate(4 42)">
<title>Connect::getPorts</title>
<polygon fill="white" stroke="transparent" points="-4,4 -4,-42 259,-42 259,4 -4,4"/>
<!-- Node1 -->
<g id="node1" class="node">
<title>Node1</title>
<g id="a_node1"><a xlink:title=" ">
<polygon fill="#bfbfbf" stroke="black" points="0,-0.5 0,-19.5 94,-19.5 94,-0.5 0,-0.5"/>
<text text-anchor="middle" x="47" y="-7.5" font-family="Helvetica,sans-Serif" font-size="10.00">Connect::getPorts</text>
</a>
</g>
</g>
<!-- Node1&#45;&gt;Node1 -->
<g id="edge1" class="edge">
<title>Node1&#45;&gt;Node1</title>
<path fill="none" stroke="midnightblue" d="M24.81,-19.76C14.01,-28.57 21.41,-38 47,-38 63.8,-38 72.76,-33.94 73.88,-28.65"/>
<polygon fill="midnightblue" stroke="midnightblue" points="76.95,-26.97 69.19,-19.76 70.76,-30.24 76.95,-26.97"/>
</g>
<!-- Node2 -->
<g id="node2" class="node">
<title>Node2</title>
<g id="a_node2"><a xlink:href="classConnect.html#a25f30cf3256dea7159e8f82d8b4cb625" target="_top" xlink:title=" ">
<polygon fill="white" stroke="black" points="130,-0.5 130,-19.5 255,-19.5 255,-0.5 130,-0.5"/>
<text text-anchor="middle" x="192.5" y="-7.5" font-family="Helvetica,sans-Serif" font-size="10.00">Connect::setPortsNames</text>
</a>
</g>
</g>
<!-- Node1&#45;&gt;Node2 -->
<g id="edge2" class="edge">
<title>Node1&#45;&gt;Node2</title>
<path fill="none" stroke="midnightblue" d="M94.19,-10C102.38,-10 111.08,-10 119.77,-10"/>
<polygon fill="midnightblue" stroke="midnightblue" points="119.95,-13.5 129.95,-10 119.95,-6.5 119.95,-13.5"/>
</g>
</g>
</svg>
