<?xml version="1.0" encoding="UTF-8" standalone="no"?>
<!DOCTYPE svg PUBLIC "-//W3C//DTD SVG 1.1//EN"
 "http://www.w3.org/Graphics/SVG/1.1/DTD/svg11.dtd">
<!-- Generated by graphviz version 2.49.3 (20211027.1534)
 -->
<!-- Title: GPS::handleTimeout Pages: 1 -->
<!--zoomable 738 -->
<svg id="main" version="1.1" xmlns="http://www.w3.org/2000/svg" xmlns:xlink="http://www.w3.org/1999/xlink" xml:space="preserve" onload="init(evt)">
<style type="text/css"><![CDATA[
.edge:hover path { stroke: red; }
.edge:hover polygon { stroke: red; fill: red; }
]]></style>
<script type="text/javascript"><![CDATA[
var edges = document.getElementsByTagName('g');
if (edges && edges.length) {
  for (var i=0;i<edges.length;i++) {
    if (edges[i].id.substr(0,4)=='edge') {
      edges[i].setAttribute('class','edge');
    }
  }
}
]]></script>
        <defs>
                <circle id="rim" cx="0" cy="0" r="7"/>
                <circle id="rim2" cx="0" cy="0" r="3.5"/>
                <g id="zoomPlus">
                        <use xlink:href="#rim" fill="#404040">
                                <set attributeName="fill" to="#808080" begin="zoomplus.mouseover" end="zoomplus.mouseout"/>
                        </use>
                        <path d="M-4,0h8M0,-4v8" fill="none" stroke="white" stroke-width="1.5" pointer-events="none"/>
                </g>
                <g id="zoomMin">
                        <use xlink:href="#rim" fill="#404040">
                                <set attributeName="fill" to="#808080" begin="zoomminus.mouseover" end="zoomminus.mouseout"/>
                        </use>
                        <path d="M-4,0h8" fill="none" stroke="white" stroke-width="1.5" pointer-events="none"/>
                </g>
                <g id="dirArrow">
                        <path fill="none" stroke="white" stroke-width="1.5" d="M0,-3.0v7 M-2.5,-0.5L0,-3.0L2.5,-0.5"/>
                </g>
               <g id="resetDef">
                       <use xlink:href="#rim2" fill="#404040">
                               <set attributeName="fill" to="#808080" begin="reset.mouseover" end="reset.mouseout"/>
                       </use>
               </g>
        </defs>

<script type="text/javascript">
var viewWidth = 1569;
var viewHeight = 738;
var sectionId = 'dynsection-13';
</script>
<script xlink:href="svgpan.js"/>
<svg id="graph" class="graph">
<g id="viewport">
<title>GPS::handleTimeout</title>
<polygon fill="white" stroke="transparent" points="-4,4 -4,-734.13 1565,-734.13 1565,4 -4,4"/>
<!-- Node1 -->
<g id="node1" class="node">
<title>Node1</title>
<g id="a_node1"><a xlink:title=" ">
<polygon fill="#bfbfbf" stroke="black" points="0,-605.5 0,-624.5 106,-624.5 106,-605.5 0,-605.5"/>
<text text-anchor="middle" x="53" y="-612.5" font-family="Helvetica,sans-Serif" font-size="10.00">GPS::handleTimeout</text>
</a>
</g>
</g>
<!-- Node2 -->
<g id="node2" class="node">
<title>Node2</title>
<g id="a_node2"><a xlink:href="classGPS.html#abd750ada6a7b976f72761ce16246ccf6" target="_top" xlink:title=" ">
<polygon fill="white" stroke="black" points="142,-586.5 142,-605.5 262,-605.5 262,-586.5 142,-586.5"/>
<text text-anchor="middle" x="202" y="-593.5" font-family="Helvetica,sans-Serif" font-size="10.00">GPS::setGPSBAUD115</text>
</a>
</g>
</g>
<!-- Node1&#45;&gt;Node2 -->
<g id="edge1" class="edge">
<title>Node1&#45;&gt;Node2</title>
<path fill="none" stroke="midnightblue" d="M106.24,-608.25C114.54,-607.17 123.24,-606.05 131.86,-604.94"/>
<polygon fill="midnightblue" stroke="midnightblue" points="132.45,-608.39 141.92,-603.64 131.55,-601.45 132.45,-608.39"/>
</g>
<!-- Node3 -->
<g id="node3" class="node">
<title>Node3</title>
<g id="a_node3"><a xlink:href="classGPS.html#a8775edfa08840ffb2647e0e5ba031fe5" target="_top" xlink:title=" ">
<polygon fill="white" stroke="black" points="298,-462.5 298,-481.5 417,-481.5 417,-462.5 298,-462.5"/>
<text text-anchor="middle" x="357.5" y="-469.5" font-family="Helvetica,sans-Serif" font-size="10.00">GPS::closeConnection1</text>
</a>
</g>
</g>
<!-- Node2&#45;&gt;Node3 -->
<g id="edge2" class="edge">
<title>Node2&#45;&gt;Node3</title>
<path fill="none" stroke="midnightblue" d="M215.04,-586.27C241.39,-564.99 304.33,-514.14 336.63,-488.05"/>
<polygon fill="midnightblue" stroke="midnightblue" points="338.93,-490.69 344.51,-481.68 334.53,-485.25 338.93,-490.69"/>
</g>
<!-- Node5 -->
<g id="node5" class="node">
<title>Node5</title>
<g id="a_node5"><a xlink:href="classDashBoard.html#acd9bb1ec108194ecb9d451b430275922" target="_top" xlink:title=" ">
<polygon fill="white" stroke="black" points="1255.5,-430.5 1255.5,-449.5 1387.5,-449.5 1387.5,-430.5 1255.5,-430.5"/>
<text text-anchor="middle" x="1321.5" y="-437.5" font-family="Helvetica,sans-Serif" font-size="10.00">DashBoard::setgpsFIXtype</text>
</a>
</g>
</g>
<!-- Node2&#45;&gt;Node5 -->
<g id="edge55" class="edge">
<title>Node2&#45;&gt;Node5</title>
<path fill="none" stroke="midnightblue" d="M262.18,-604.67C323.52,-612.89 422.26,-624 508,-624 508,-624 508,-624 999,-624 1102,-624 1127.99,-595.13 1215,-540 1251.89,-516.63 1287.11,-479.17 1306.06,-457.34"/>
<polygon fill="midnightblue" stroke="midnightblue" points="1308.89,-459.42 1312.72,-449.54 1303.56,-454.88 1308.89,-459.42"/>
</g>
<!-- Node3&#45;&gt;Node1 -->
<g id="edge51" class="edge">
<title>Node3&#45;&gt;Node1</title>
<path fill="none" stroke="midnightblue" d="M336.27,-481.56C284.06,-506.24 144.6,-572.17 83.44,-601.08"/>
<polygon fill="midnightblue" stroke="midnightblue" points="81.86,-597.96 74.32,-605.4 84.85,-604.29 81.86,-597.96"/>
</g>
<!-- Node4 -->
<g id="node4" class="node">
<title>Node4</title>
<g id="a_node4"><a xlink:href="classGPS.html#a14c64eb8a4939f8f734b93ef3a21bb19" target="_top" xlink:title=" ">
<polygon fill="white" stroke="black" points="781.5,-500.5 781.5,-519.5 872.5,-519.5 872.5,-500.5 781.5,-500.5"/>
<text text-anchor="middle" x="827" y="-507.5" font-family="Helvetica,sans-Serif" font-size="10.00">GPS::handleError</text>
</a>
</g>
</g>
<!-- Node3&#45;&gt;Node4 -->
<g id="edge3" class="edge">
<title>Node3&#45;&gt;Node4</title>
<path fill="none" stroke="midnightblue" d="M376.06,-481.55C415.09,-502.16 512.58,-550.3 601,-567 650.79,-576.4 665.75,-578.91 715,-567 748.16,-558.98 782.54,-539.26 804.08,-525.26"/>
<polygon fill="midnightblue" stroke="midnightblue" points="806.1,-528.12 812.48,-519.67 802.22,-522.29 806.1,-528.12"/>
</g>
<!-- Node3&#45;&gt;Node5 -->
<g id="edge54" class="edge">
<title>Node3&#45;&gt;Node5</title>
<path fill="none" stroke="midnightblue" d="M366.1,-462.32C397.42,-423.6 521.24,-282 657,-282 657,-282 657,-282 999,-282 1095.37,-282 1140.28,-240.14 1215,-301 1258.17,-336.17 1211.15,-382.11 1251,-421 1252.48,-422.44 1254.05,-423.78 1255.71,-425.01"/>
<polygon fill="midnightblue" stroke="midnightblue" points="1254.2,-428.19 1264.56,-430.4 1257.84,-422.21 1254.2,-428.19"/>
</g>
<!-- Node6 -->
<g id="node6" class="node">
<title>Node6</title>
<g id="a_node6"><a xlink:href="classGPS.html#aaf69fb801bbce2ea70041e68fe0ec19a" target="_top" xlink:title=" ">
<polygon fill="white" stroke="black" points="751,-462.5 751,-481.5 903,-481.5 903,-462.5 751,-462.5"/>
<text text-anchor="middle" x="827" y="-469.5" font-family="Helvetica,sans-Serif" font-size="10.00">GPS::handleReconnectTimeout</text>
</a>
</g>
</g>
<!-- Node3&#45;&gt;Node6 -->
<g id="edge5" class="edge">
<title>Node3&#45;&gt;Node6</title>
<path fill="none" stroke="midnightblue" d="M380.46,-462.44C436.7,-439.24 590.28,-384.11 715,-415 732.56,-419.35 734.93,-425.69 751,-434 766.38,-441.95 783.61,-450.7 797.67,-457.79"/>
<polygon fill="midnightblue" stroke="midnightblue" points="796.34,-461.03 806.84,-462.4 799.48,-454.78 796.34,-461.03"/>
</g>
<!-- Node8 -->
<g id="node8" class="node">
<title>Node8</title>
<g id="a_node8"><a xlink:href="classGPS.html#aa0928d156961a54bf06d9b5210d85561" target="_top" xlink:title=" ">
<polygon fill="white" stroke="black" points="777.5,-405.5 777.5,-424.5 876.5,-424.5 876.5,-405.5 777.5,-405.5"/>
<text text-anchor="middle" x="827" y="-412.5" font-family="Helvetica,sans-Serif" font-size="10.00">GPS::readyToRead</text>
</a>
</g>
</g>
<!-- Node3&#45;&gt;Node8 -->
<g id="edge53" class="edge">
<title>Node3&#45;&gt;Node8</title>
<path fill="none" stroke="midnightblue" d="M368.5,-462.36C384.7,-447.47 418.37,-419.4 453,-408 562.88,-371.84 700.99,-389.54 774.46,-403.55"/>
<polygon fill="midnightblue" stroke="midnightblue" points="773.9,-407.01 784.39,-405.5 775.25,-400.14 773.9,-407.01"/>
</g>
<!-- Node30 -->
<g id="node30" class="node">
<title>Node30</title>
<g id="a_node30"><a xlink:href="classGPS.html#a51eaea2422dd980ea0a6d28f12a136de" target="_top" xlink:title=" ">
<polygon fill="white" stroke="black" points="453,-462.5 453,-481.5 565,-481.5 565,-462.5 453,-462.5"/>
<text text-anchor="middle" x="509" y="-469.5" font-family="Helvetica,sans-Serif" font-size="10.00">GPS::openConnection</text>
</a>
</g>
</g>
<!-- Node3&#45;&gt;Node30 -->
<g id="edge52" class="edge">
<title>Node3&#45;&gt;Node30</title>
<path fill="none" stroke="midnightblue" d="M417.16,-472C425.53,-472 434.19,-472 442.68,-472"/>
<polygon fill="midnightblue" stroke="midnightblue" points="442.93,-475.5 452.93,-472 442.93,-468.5 442.93,-475.5"/>
</g>
<!-- Node4&#45;&gt;Node5 -->
<g id="edge4" class="edge">
<title>Node4&#45;&gt;Node5</title>
<path fill="none" stroke="midnightblue" d="M872.56,-512.21C945.34,-514.72 1093.77,-515.22 1215,-486 1243.47,-479.14 1273.92,-465.06 1294.75,-454.27"/>
<polygon fill="midnightblue" stroke="midnightblue" points="1296.4,-457.36 1303.6,-449.59 1293.13,-451.17 1296.4,-457.36"/>
</g>
<!-- Node7 -->
<g id="node7" class="node">
<title>Node7</title>
<g id="a_node7"><a xlink:href="classGPS.html#ae4568ef4d5107c96c1af68d1abd33559" target="_top" xlink:title=" ">
<polygon fill="white" stroke="black" points="601,-538.5 601,-557.5 715,-557.5 715,-538.5 601,-538.5"/>
<text text-anchor="middle" x="658" y="-545.5" font-family="Helvetica,sans-Serif" font-size="10.00">GPS::closeConnection</text>
</a>
</g>
</g>
<!-- Node6&#45;&gt;Node7 -->
<g id="edge6" class="edge">
<title>Node6&#45;&gt;Node7</title>
<path fill="none" stroke="midnightblue" d="M805.08,-481.51C789.33,-485.43 767.69,-490.22 751,-500 734.07,-509.93 734.03,-521.22 722.19,-532.34"/>
<polygon fill="midnightblue" stroke="midnightblue" points="720,-529.61 714.22,-538.49 724.27,-535.16 720,-529.61"/>
</g>
<!-- Node6&#45;&gt;Node30 -->
<g id="edge42" class="edge">
<title>Node6&#45;&gt;Node30</title>
<path fill="none" stroke="midnightblue" d="M750.87,-472C697.44,-472 626.38,-472 575.3,-472"/>
<polygon fill="midnightblue" stroke="midnightblue" points="575.04,-468.5 565.04,-472 575.04,-475.5 575.04,-468.5"/>
</g>
<!-- Node7&#45;&gt;Node1 -->
<g id="edge9" class="edge">
<title>Node7&#45;&gt;Node1</title>
<path fill="none" stroke="midnightblue" d="M653.58,-557.8C644.17,-583.07 615.17,-650.28 565,-676 397.71,-761.78 321.43,-732.11 142,-676 114.35,-667.35 87.76,-646.63 71.18,-631.74"/>
<polygon fill="midnightblue" stroke="midnightblue" points="73.17,-628.82 63.47,-624.57 68.41,-633.95 73.17,-628.82"/>
</g>
<!-- Node7&#45;&gt;Node4 -->
<g id="edge7" class="edge">
<title>Node7&#45;&gt;Node4</title>
<path fill="none" stroke="midnightblue" d="M701.14,-538.41C723.38,-533.35 750.85,-527.1 774.36,-521.75"/>
<polygon fill="midnightblue" stroke="midnightblue" points="775.19,-525.15 784.16,-519.52 773.63,-518.33 775.19,-525.15"/>
</g>
<!-- Node7&#45;&gt;Node5 -->
<g id="edge41" class="edge">
<title>Node7&#45;&gt;Node5</title>
<path fill="none" stroke="midnightblue" d="M715.08,-553.96C817.72,-562.77 1041.22,-572.13 1215,-510 1248.69,-497.96 1282.18,-472.93 1302.11,-456.3"/>
<polygon fill="midnightblue" stroke="midnightblue" points="1304.45,-458.91 1309.78,-449.75 1299.91,-453.58 1304.45,-458.91"/>
</g>
<!-- Node7&#45;&gt;Node6 -->
<g id="edge8" class="edge">
<title>Node7&#45;&gt;Node6</title>
<path fill="none" stroke="midnightblue" d="M672.25,-538.38C684.13,-533.67 701.69,-528.53 715,-520 731.38,-509.51 731.51,-498.23 743.24,-487.7"/>
<polygon fill="midnightblue" stroke="midnightblue" points="745.63,-490.28 751.7,-481.6 741.54,-484.61 745.63,-490.28"/>
</g>
<!-- Node7&#45;&gt;Node8 -->
<g id="edge10" class="edge">
<title>Node7&#45;&gt;Node8</title>
<path fill="none" stroke="midnightblue" d="M699.99,-538.46C705.43,-535.99 710.63,-532.89 715,-529 742.91,-504.14 724.93,-479.78 751,-453 761.06,-442.67 774.53,-434.65 787.28,-428.7"/>
<polygon fill="midnightblue" stroke="midnightblue" points="789.04,-431.75 796.81,-424.55 786.25,-425.33 789.04,-431.75"/>
</g>
<!-- Node9 -->
<g id="node9" class="node">
<title>Node9</title>
<g id="a_node9"><a xlink:href="classGPS.html#a217097ae4a846c621f001a5aa1f4fb4f" target="_top" xlink:title=" ">
<polygon fill="white" stroke="black" points="939,-329.5 939,-348.5 1057,-348.5 1057,-329.5 939,-329.5"/>
<text text-anchor="middle" x="998" y="-336.5" font-family="Helvetica,sans-Serif" font-size="10.00">GPS::ProcessMessage</text>
</a>
</g>
</g>
<!-- Node8&#45;&gt;Node9 -->
<g id="edge11" class="edge">
<title>Node8&#45;&gt;Node9</title>
<path fill="none" stroke="midnightblue" d="M849.4,-405.37C878.99,-392.07 932.56,-367.98 966.37,-352.77"/>
<polygon fill="midnightblue" stroke="midnightblue" points="968.09,-355.84 975.77,-348.55 965.21,-349.46 968.09,-355.84"/>
</g>
<!-- Node9&#45;&gt;Node2 -->
<g id="edge39" class="edge">
<title>Node9&#45;&gt;Node2</title>
<path fill="none" stroke="midnightblue" d="M977.35,-329.37C926.22,-305.22 784.26,-244 659,-244 508,-244 508,-244 508,-244 330.72,-244 233.39,-502.18 209.09,-576.32"/>
<polygon fill="midnightblue" stroke="midnightblue" points="205.64,-575.63 205.93,-586.22 212.31,-577.76 205.64,-575.63"/>
</g>
<!-- Node9&#45;&gt;Node5 -->
<g id="edge40" class="edge">
<title>Node9&#45;&gt;Node5</title>
<path fill="none" stroke="midnightblue" d="M1020.77,-348.61C1039.65,-356.76 1067.84,-368.44 1093,-377 1162.01,-400.47 1180.73,-401.61 1251,-421 1258.97,-423.2 1267.46,-425.53 1275.67,-427.78"/>
<polygon fill="midnightblue" stroke="midnightblue" points="1274.92,-431.2 1285.49,-430.46 1276.77,-424.45 1274.92,-431.2"/>
</g>
<!-- Node10 -->
<g id="node10" class="node">
<title>Node10</title>
<g id="a_node10"><a xlink:href="classGPS.html#a20f1883fa42ff859903a07444ac15628" target="_top" xlink:title=" ">
<polygon fill="white" stroke="black" points="1112.5,-348.5 1112.5,-367.5 1195.5,-367.5 1195.5,-348.5 1112.5,-348.5"/>
<text text-anchor="middle" x="1154" y="-355.5" font-family="Helvetica,sans-Serif" font-size="10.00">GPS::logNMEA</text>
</a>
</g>
</g>
<!-- Node9&#45;&gt;Node10 -->
<g id="edge12" class="edge">
<title>Node9&#45;&gt;Node10</title>
<path fill="none" stroke="midnightblue" d="M1057.22,-346.18C1072.03,-348.01 1087.82,-349.96 1102.22,-351.73"/>
<polygon fill="midnightblue" stroke="midnightblue" points="1102.07,-355.24 1112.43,-352.99 1102.93,-348.3 1102.07,-355.24"/>
</g>
<!-- Node11 -->
<g id="node11" class="node">
<title>Node11</title>
<g id="a_node11"><a xlink:href="classGPS.html#a6fbf5e49f6a05b056835666f2e1cb830" target="_top" xlink:title=" ">
<polygon fill="white" stroke="black" points="1097.5,-234.5 1097.5,-253.5 1210.5,-253.5 1210.5,-234.5 1097.5,-234.5"/>
<text text-anchor="middle" x="1154" y="-241.5" font-family="Helvetica,sans-Serif" font-size="10.00">GPS::processGPGGA</text>
</a>
</g>
</g>
<!-- Node9&#45;&gt;Node11 -->
<g id="edge13" class="edge">
<title>Node9&#45;&gt;Node11</title>
<path fill="none" stroke="midnightblue" d="M1014.61,-329.37C1041.48,-312.8 1096.63,-278.77 1128.6,-259.05"/>
<polygon fill="midnightblue" stroke="midnightblue" points="1130.67,-261.89 1137.34,-253.66 1127,-255.93 1130.67,-261.89"/>
</g>
<!-- Node23 -->
<g id="node23" class="node">
<title>Node23</title>
<g id="a_node23"><a xlink:href="classGPS.html#a9f0cacdc6f30465399f19ccb19edde1a" target="_top" xlink:title=" ">
<polygon fill="white" stroke="black" points="1097.5,-133.5 1097.5,-152.5 1210.5,-152.5 1210.5,-133.5 1097.5,-133.5"/>
<text text-anchor="middle" x="1154" y="-140.5" font-family="Helvetica,sans-Serif" font-size="10.00">GPS::processGPRMC</text>
</a>
</g>
</g>
<!-- Node9&#45;&gt;Node23 -->
<g id="edge26" class="edge">
<title>Node9&#45;&gt;Node23</title>
<path fill="none" stroke="midnightblue" d="M1006.64,-329.28C1031.06,-298.19 1107.53,-200.87 1139.12,-160.66"/>
<polygon fill="midnightblue" stroke="midnightblue" points="1141.89,-162.8 1145.32,-152.78 1136.39,-158.48 1141.89,-162.8"/>
</g>
<!-- Node27 -->
<g id="node27" class="node">
<title>Node27</title>
<g id="a_node27"><a xlink:href="classGPS.html#a125284d30c7901ba52ed190e519bc3b2" target="_top" xlink:title=" ">
<polygon fill="white" stroke="black" points="1093,-310.5 1093,-329.5 1215,-329.5 1215,-310.5 1093,-310.5"/>
<text text-anchor="middle" x="1154" y="-317.5" font-family="Helvetica,sans-Serif" font-size="10.00">GPS::removeNMEAmsg</text>
</a>
</g>
</g>
<!-- Node9&#45;&gt;Node27 -->
<g id="edge34" class="edge">
<title>Node9&#45;&gt;Node27</title>
<path fill="none" stroke="midnightblue" d="M1057.22,-331.82C1065.61,-330.78 1074.31,-329.71 1082.9,-328.65"/>
<polygon fill="midnightblue" stroke="midnightblue" points="1083.41,-332.11 1092.9,-327.41 1082.55,-325.17 1083.41,-332.11"/>
</g>
<!-- Node29 -->
<g id="node29" class="node">
<title>Node29</title>
<g id="a_node29"><a xlink:href="classGPS.html#a052c61711107964bbde54f86edb110ff" target="_top" xlink:title=" ">
<polygon fill="white" stroke="black" points="1103.5,-424.5 1103.5,-443.5 1204.5,-443.5 1204.5,-424.5 1103.5,-424.5"/>
<text text-anchor="middle" x="1154" y="-431.5" font-family="Helvetica,sans-Serif" font-size="10.00">GPS::setGPS10HZ</text>
</a>
</g>
</g>
<!-- Node9&#45;&gt;Node29 -->
<g id="edge37" class="edge">
<title>Node9&#45;&gt;Node29</title>
<path fill="none" stroke="midnightblue" d="M1009.62,-348.54C1026.38,-363.23 1060.4,-391.61 1093,-410 1100.01,-413.95 1107.8,-417.58 1115.38,-420.74"/>
<polygon fill="midnightblue" stroke="midnightblue" points="1114.22,-424.05 1124.81,-424.5 1116.81,-417.54 1114.22,-424.05"/>
</g>
<!-- Node11&#45;&gt;Node5 -->
<g id="edge21" class="edge">
<title>Node11&#45;&gt;Node5</title>
<path fill="none" stroke="midnightblue" d="M1194.65,-253.6C1202.29,-257.05 1209.58,-261.71 1215,-268 1260.57,-320.95 1202.49,-370.73 1251,-421 1252.4,-422.45 1253.9,-423.8 1255.48,-425.04"/>
<polygon fill="midnightblue" stroke="midnightblue" points="1253.67,-428.03 1263.98,-430.47 1257.44,-422.14 1253.67,-428.03"/>
</g>
<!-- Node12 -->
<g id="node12" class="node">
<title>Node12</title>
<g id="a_node12"><a xlink:href="classGPS.html#a894018a07e73bdc11af81f5db97f6b28" target="_top" xlink:title=" ">
<polygon fill="white" stroke="black" points="1270,-152.5 1270,-171.5 1373,-171.5 1373,-152.5 1270,-152.5"/>
<text text-anchor="middle" x="1321.5" y="-159.5" font-family="Helvetica,sans-Serif" font-size="10.00">GPS::checknewLap</text>
</a>
</g>
</g>
<!-- Node11&#45;&gt;Node12 -->
<g id="edge14" class="edge">
<title>Node11&#45;&gt;Node12</title>
<path fill="none" stroke="midnightblue" d="M1167,-234.31C1184.5,-220.63 1218.47,-195.67 1251,-181 1256.26,-178.63 1261.88,-176.49 1267.56,-174.59"/>
<polygon fill="midnightblue" stroke="midnightblue" points="1268.62,-177.92 1277.12,-171.6 1266.53,-171.24 1268.62,-177.92"/>
</g>
<!-- Node17 -->
<g id="node17" class="node">
<title>Node17</title>
<g id="a_node17"><a xlink:href="classGPS.html#a75bada3072c3235ae1d076d5ce002175" target="_top" xlink:title=" ">
<polygon fill="white" stroke="black" points="1261,-114.5 1261,-133.5 1382,-133.5 1382,-114.5 1261,-114.5"/>
<text text-anchor="middle" x="1321.5" y="-121.5" font-family="Helvetica,sans-Serif" font-size="10.00">GPS::convertToDecimal</text>
</a>
</g>
</g>
<!-- Node11&#45;&gt;Node17 -->
<g id="edge19" class="edge">
<title>Node11&#45;&gt;Node17</title>
<path fill="none" stroke="midnightblue" d="M1161.43,-234.28C1175.3,-214.08 1210.09,-167.45 1251,-143 1254.62,-140.83 1258.5,-138.91 1262.5,-137.2"/>
<polygon fill="midnightblue" stroke="midnightblue" points="1263.89,-140.41 1271.99,-133.59 1261.4,-133.87 1263.89,-140.41"/>
</g>
<!-- Node18 -->
<g id="node18" class="node">
<title>Node18</title>
<g id="a_node18"><a xlink:href="classDashBoard.html#a998569aa565c0a5a872810160266f681" target="_top" xlink:title=" ">
<polygon fill="white" stroke="black" points="1256,-354.5 1256,-373.5 1387,-373.5 1387,-354.5 1256,-354.5"/>
<text text-anchor="middle" x="1321.5" y="-361.5" font-family="Helvetica,sans-Serif" font-size="10.00">DashBoard::setgpsAltitude</text>
</a>
</g>
</g>
<!-- Node11&#45;&gt;Node18 -->
<g id="edge20" class="edge">
<title>Node11&#45;&gt;Node18</title>
<path fill="none" stroke="midnightblue" d="M1191.52,-253.56C1199.96,-257.07 1208.39,-261.76 1215,-268 1242.46,-293.94 1222.11,-320.66 1251,-345 1253.01,-346.69 1255.16,-348.24 1257.4,-349.64"/>
<polygon fill="midnightblue" stroke="midnightblue" points="1256.03,-352.87 1266.51,-354.42 1259.28,-346.67 1256.03,-352.87"/>
</g>
<!-- Node19 -->
<g id="node19" class="node">
<title>Node19</title>
<g id="a_node19"><a xlink:href="classDashBoard.html#a5eb7cceabcdbd62521c9512cba7fbf02" target="_top" xlink:title=" ">
<polygon fill="white" stroke="black" points="1258,-316.5 1258,-335.5 1385,-335.5 1385,-316.5 1258,-316.5"/>
<text text-anchor="middle" x="1321.5" y="-323.5" font-family="Helvetica,sans-Serif" font-size="10.00">DashBoard::setgpsHDOP</text>
</a>
</g>
</g>
<!-- Node11&#45;&gt;Node19 -->
<g id="edge22" class="edge">
<title>Node11&#45;&gt;Node19</title>
<path fill="none" stroke="midnightblue" d="M1186.19,-253.55C1195.87,-257.27 1206.28,-262.08 1215,-268 1234.25,-281.07 1231.12,-293.91 1251,-306 1255.31,-308.62 1259.99,-310.92 1264.8,-312.92"/>
<polygon fill="midnightblue" stroke="midnightblue" points="1263.58,-316.2 1274.18,-316.42 1266.03,-309.64 1263.58,-316.2"/>
</g>
<!-- Node20 -->
<g id="node20" class="node">
<title>Node20</title>
<g id="a_node20"><a xlink:href="classDashBoard.html#a13f7ff18107138daa6618a4564e935be" target="_top" xlink:title=" ">
<polygon fill="white" stroke="black" points="1254.5,-190.5 1254.5,-209.5 1388.5,-209.5 1388.5,-190.5 1254.5,-190.5"/>
<text text-anchor="middle" x="1321.5" y="-197.5" font-family="Helvetica,sans-Serif" font-size="10.00">DashBoard::setgpsLatitude</text>
</a>
</g>
</g>
<!-- Node11&#45;&gt;Node20 -->
<g id="edge23" class="edge">
<title>Node11&#45;&gt;Node20</title>
<path fill="none" stroke="midnightblue" d="M1190.91,-234.45C1215.53,-227.91 1248.39,-219.17 1274.86,-212.13"/>
<polygon fill="midnightblue" stroke="midnightblue" points="1275.89,-215.48 1284.66,-209.53 1274.1,-208.72 1275.89,-215.48"/>
</g>
<!-- Node21 -->
<g id="node21" class="node">
<title>Node21</title>
<g id="a_node21"><a xlink:href="classDashBoard.html#a32b0f4d9b9cdbecb02c96c9e814f0114" target="_top" xlink:title=" ">
<polygon fill="white" stroke="black" points="1251,-228.5 1251,-247.5 1392,-247.5 1392,-228.5 1251,-228.5"/>
<text text-anchor="middle" x="1321.5" y="-235.5" font-family="Helvetica,sans-Serif" font-size="10.00">DashBoard::setgpsLongitude</text>
</a>
</g>
</g>
<!-- Node11&#45;&gt;Node21 -->
<g id="edge24" class="edge">
<title>Node11&#45;&gt;Node21</title>
<path fill="none" stroke="midnightblue" d="M1210.57,-241.99C1220.29,-241.63 1230.57,-241.26 1240.79,-240.89"/>
<polygon fill="midnightblue" stroke="midnightblue" points="1241.1,-244.38 1250.97,-240.52 1240.85,-237.39 1241.1,-244.38"/>
</g>
<!-- Node22 -->
<g id="node22" class="node">
<title>Node22</title>
<g id="a_node22"><a xlink:href="classDashBoard.html#a3e4b2d7b59990a8fcf2d6b561ad30fba" target="_top" xlink:title=" ">
<polygon fill="white" stroke="black" points="1257.5,-267 1257.5,-297 1385.5,-297 1385.5,-267 1257.5,-267"/>
<text text-anchor="start" x="1265.5" y="-285" font-family="Helvetica,sans-Serif" font-size="10.00">DashBoard::setgpsVisible</text>
<text text-anchor="middle" x="1321.5" y="-274" font-family="Helvetica,sans-Serif" font-size="10.00">Satelites</text>
</a>
</g>
</g>
<!-- Node11&#45;&gt;Node22 -->
<g id="edge25" class="edge">
<title>Node11&#45;&gt;Node22</title>
<path fill="none" stroke="midnightblue" d="M1196.76,-253.59C1212.13,-257.12 1230.02,-261.23 1247.35,-265.2"/>
<polygon fill="midnightblue" stroke="midnightblue" points="1246.93,-268.7 1257.46,-267.53 1248.5,-261.88 1246.93,-268.7"/>
</g>
<!-- Node13 -->
<g id="node13" class="node">
<title>Node13</title>
<g id="a_node13"><a xlink:href="gps_8cpp.html#a356f47852da8a45bf4dd9944e08b7d3e" target="_top" xlink:title=" ">
<polygon fill="white" stroke="black" points="1465,-209.5 1465,-228.5 1524,-228.5 1524,-209.5 1465,-209.5"/>
<text text-anchor="middle" x="1494.5" y="-216.5" font-family="Helvetica,sans-Serif" font-size="10.00">fastestlap</text>
</a>
</g>
</g>
<!-- Node12&#45;&gt;Node13 -->
<g id="edge15" class="edge">
<title>Node12&#45;&gt;Node13</title>
<path fill="none" stroke="midnightblue" d="M1363.41,-171.58C1372.93,-174.25 1382.93,-177.42 1392,-181 1408.83,-187.65 1411.23,-193.22 1428,-200 1436.53,-203.45 1445.93,-206.55 1454.87,-209.21"/>
<polygon fill="midnightblue" stroke="midnightblue" points="1454.12,-212.64 1464.7,-212.01 1456.04,-205.9 1454.12,-212.64"/>
</g>
<!-- Node14 -->
<g id="node14" class="node">
<title>Node14</title>
<g id="a_node14"><a xlink:href="classDashBoard.html#ae5d69bcab58e2e497902387d03cc9146" target="_top" xlink:title=" ">
<polygon fill="white" stroke="black" points="1428,-171.5 1428,-190.5 1561,-190.5 1561,-171.5 1428,-171.5"/>
<text text-anchor="middle" x="1494.5" y="-178.5" font-family="Helvetica,sans-Serif" font-size="10.00">DashBoard::setbestlaptime</text>
</a>
</g>
</g>
<!-- Node12&#45;&gt;Node14 -->
<g id="edge16" class="edge">
<title>Node12&#45;&gt;Node14</title>
<path fill="none" stroke="midnightblue" d="M1373.34,-167.65C1387.26,-169.2 1402.65,-170.91 1417.65,-172.57"/>
<polygon fill="midnightblue" stroke="midnightblue" points="1417.61,-176.09 1427.94,-173.72 1418.39,-169.13 1417.61,-176.09"/>
</g>
<!-- Node15 -->
<g id="node15" class="node">
<title>Node15</title>
<g id="a_node15"><a xlink:href="classDashBoard.html#af147e933576adcd81892aca4e74df784" target="_top" xlink:title=" ">
<polygon fill="white" stroke="black" points="1430,-133.5 1430,-152.5 1559,-152.5 1559,-133.5 1430,-133.5"/>
<text text-anchor="middle" x="1494.5" y="-140.5" font-family="Helvetica,sans-Serif" font-size="10.00">DashBoard::setcurrentLap</text>
</a>
</g>
</g>
<!-- Node12&#45;&gt;Node15 -->
<g id="edge17" class="edge">
<title>Node12&#45;&gt;Node15</title>
<path fill="none" stroke="midnightblue" d="M1373.34,-156.35C1387.88,-154.74 1404.02,-152.94 1419.64,-151.21"/>
<polygon fill="midnightblue" stroke="midnightblue" points="1420.25,-154.66 1429.81,-150.08 1419.48,-147.7 1420.25,-154.66"/>
</g>
<!-- Node16 -->
<g id="node16" class="node">
<title>Node16</title>
<g id="a_node16"><a xlink:href="classDashBoard.html#a023ed00fbd93bad06e98426b7583022c" target="_top" xlink:title=" ">
<polygon fill="white" stroke="black" points="1437.5,-95.5 1437.5,-114.5 1551.5,-114.5 1551.5,-95.5 1437.5,-95.5"/>
<text text-anchor="middle" x="1494.5" y="-102.5" font-family="Helvetica,sans-Serif" font-size="10.00">DashBoard::setlaptime</text>
</a>
</g>
</g>
<!-- Node12&#45;&gt;Node16 -->
<g id="edge18" class="edge">
<title>Node12&#45;&gt;Node16</title>
<path fill="none" stroke="midnightblue" d="M1363.41,-152.42C1372.93,-149.75 1382.93,-146.58 1392,-143 1408.83,-136.35 1411.23,-130.78 1428,-124 1433.76,-121.67 1439.92,-119.5 1446.06,-117.52"/>
<polygon fill="midnightblue" stroke="midnightblue" points="1447.12,-120.85 1455.64,-114.56 1445.06,-114.16 1447.12,-120.85"/>
</g>
<!-- Node23&#45;&gt;Node12 -->
<g id="edge27" class="edge">
<title>Node23&#45;&gt;Node12</title>
<path fill="none" stroke="midnightblue" d="M1210.57,-149.38C1226.28,-151.18 1243.47,-153.16 1259.49,-155"/>
<polygon fill="midnightblue" stroke="midnightblue" points="1259.48,-158.52 1269.81,-156.18 1260.28,-151.56 1259.48,-158.52"/>
</g>
<!-- Node23&#45;&gt;Node17 -->
<g id="edge28" class="edge">
<title>Node23&#45;&gt;Node17</title>
<path fill="none" stroke="midnightblue" d="M1210.57,-136.62C1223.44,-135.14 1237.3,-133.55 1250.69,-132.01"/>
<polygon fill="midnightblue" stroke="midnightblue" points="1251.28,-135.47 1260.82,-130.85 1250.49,-128.51 1251.28,-135.47"/>
</g>
<!-- Node23&#45;&gt;Node20 -->
<g id="edge30" class="edge">
<title>Node23&#45;&gt;Node20</title>
<path fill="none" stroke="midnightblue" d="M1177.24,-152.61C1196.54,-160.76 1225.32,-172.44 1251,-181 1258.1,-183.37 1265.67,-185.66 1273.11,-187.8"/>
<polygon fill="midnightblue" stroke="midnightblue" points="1272.19,-191.17 1282.76,-190.49 1274.07,-184.43 1272.19,-191.17"/>
</g>
<!-- Node23&#45;&gt;Node21 -->
<g id="edge31" class="edge">
<title>Node23&#45;&gt;Node21</title>
<path fill="none" stroke="midnightblue" d="M1164.43,-152.68C1180.65,-168.78 1215.53,-201.06 1251,-219 1255.56,-221.3 1260.43,-223.36 1265.4,-225.18"/>
<polygon fill="midnightblue" stroke="midnightblue" points="1264.42,-228.55 1275.02,-228.41 1266.65,-221.91 1264.42,-228.55"/>
</g>
<!-- Node24 -->
<g id="node24" class="node">
<title>Node24</title>
<g id="a_node24"><a xlink:href="classDashBoard.html#a7efb6b0a187fa08bf3543c8ce0d40738" target="_top" xlink:title=" ">
<polygon fill="white" stroke="black" points="1256.5,-0.5 1256.5,-19.5 1386.5,-19.5 1386.5,-0.5 1256.5,-0.5"/>
<text text-anchor="middle" x="1321.5" y="-7.5" font-family="Helvetica,sans-Serif" font-size="10.00">DashBoard::setgpsbearing</text>
</a>
</g>
</g>
<!-- Node23&#45;&gt;Node24 -->
<g id="edge29" class="edge">
<title>Node23&#45;&gt;Node24</title>
<path fill="none" stroke="midnightblue" d="M1160.32,-133.35C1172.99,-111.32 1207.18,-57.02 1251,-29 1254.34,-26.86 1257.92,-24.96 1261.63,-23.28"/>
<polygon fill="midnightblue" stroke="midnightblue" points="1263.07,-26.47 1271.06,-19.5 1260.47,-19.97 1263.07,-26.47"/>
</g>
<!-- Node25 -->
<g id="node25" class="node">
<title>Node25</title>
<g id="a_node25"><a xlink:href="classDashBoard.html#a16ed8cfba91338bea76b8ab5acd2a1c2" target="_top" xlink:title=" ">
<polygon fill="white" stroke="black" points="1258.5,-76.5 1258.5,-95.5 1384.5,-95.5 1384.5,-76.5 1258.5,-76.5"/>
<text text-anchor="middle" x="1321.5" y="-83.5" font-family="Helvetica,sans-Serif" font-size="10.00">DashBoard::setgpsSpeed</text>
</a>
</g>
</g>
<!-- Node23&#45;&gt;Node25 -->
<g id="edge32" class="edge">
<title>Node23&#45;&gt;Node25</title>
<path fill="none" stroke="midnightblue" d="M1177.24,-133.39C1196.54,-125.24 1225.32,-113.56 1251,-105 1258.1,-102.63 1265.67,-100.34 1273.11,-98.2"/>
<polygon fill="midnightblue" stroke="midnightblue" points="1274.07,-101.57 1282.76,-95.51 1272.19,-94.83 1274.07,-101.57"/>
</g>
<!-- Node26 -->
<g id="node26" class="node">
<title>Node26</title>
<g id="a_node26"><a xlink:href="classDashBoard.html#ae93b793d4f4bd43d954cc08ccb8431e4" target="_top" xlink:title=" ">
<polygon fill="white" stroke="black" points="1261.5,-38.5 1261.5,-57.5 1381.5,-57.5 1381.5,-38.5 1261.5,-38.5"/>
<text text-anchor="middle" x="1321.5" y="-45.5" font-family="Helvetica,sans-Serif" font-size="10.00">DashBoard::setgpsTime</text>
</a>
</g>
</g>
<!-- Node23&#45;&gt;Node26 -->
<g id="edge33" class="edge">
<title>Node23&#45;&gt;Node26</title>
<path fill="none" stroke="midnightblue" d="M1164.43,-133.32C1180.65,-117.22 1215.53,-84.94 1251,-67 1255.56,-64.7 1260.43,-62.64 1265.4,-60.82"/>
<polygon fill="midnightblue" stroke="midnightblue" points="1266.65,-64.09 1275.02,-57.59 1264.42,-57.45 1266.65,-64.09"/>
</g>
<!-- Node27&#45;&gt;Node5 -->
<g id="edge35" class="edge">
<title>Node27&#45;&gt;Node5</title>
<path fill="none" stroke="midnightblue" d="M1200.22,-329.59C1205.6,-332.05 1210.69,-335.13 1215,-339 1244.61,-365.6 1220.87,-395 1251,-421 1252.95,-422.68 1255.03,-424.21 1257.21,-425.61"/>
<polygon fill="midnightblue" stroke="midnightblue" points="1255.6,-428.72 1266.07,-430.37 1258.91,-422.55 1255.6,-428.72"/>
</g>
<!-- Node28 -->
<g id="node28" class="node">
<title>Node28</title>
<g id="a_node28"><a xlink:href="classGPS.html#aeae2cbce7d09b6441ebd1b788dac12b7" target="_top" xlink:title=" ">
<polygon fill="white" stroke="black" points="1273.5,-392.5 1273.5,-411.5 1369.5,-411.5 1369.5,-392.5 1273.5,-392.5"/>
<text text-anchor="middle" x="1321.5" y="-399.5" font-family="Helvetica,sans-Serif" font-size="10.00">GPS::setGPSOnly</text>
</a>
</g>
</g>
<!-- Node27&#45;&gt;Node28 -->
<g id="edge36" class="edge">
<title>Node27&#45;&gt;Node28</title>
<path fill="none" stroke="midnightblue" d="M1196.17,-329.53C1202.78,-332.02 1209.3,-335.14 1215,-339 1235.91,-353.18 1229.81,-369.24 1251,-383 1254.99,-385.59 1259.32,-387.83 1263.81,-389.76"/>
<polygon fill="midnightblue" stroke="midnightblue" points="1262.6,-393.05 1273.19,-393.33 1265.08,-386.5 1262.6,-393.05"/>
</g>
<!-- Node29&#45;&gt;Node5 -->
<g id="edge38" class="edge">
<title>Node29&#45;&gt;Node5</title>
<path fill="none" stroke="midnightblue" d="M1204.66,-435.8C1217.33,-436.26 1231.24,-436.76 1244.89,-437.26"/>
<polygon fill="midnightblue" stroke="midnightblue" points="1245.13,-440.77 1255.25,-437.63 1245.38,-433.77 1245.13,-440.77"/>
</g>
<!-- Node30&#45;&gt;Node5 -->
<g id="edge49" class="edge">
<title>Node30&#45;&gt;Node5</title>
<path fill="none" stroke="midnightblue" d="M521.49,-462.46C537.96,-449.35 569.75,-426.15 601,-415 664.29,-392.41 683.93,-400.23 751,-396 818.42,-391.75 836.16,-386.19 903,-396 990.23,-408.8 1005.77,-440.2 1093,-453 1146.65,-460.87 1160.88,-456.32 1215,-453 1224.81,-452.4 1235.1,-451.48 1245.25,-450.41"/>
<polygon fill="midnightblue" stroke="midnightblue" points="1245.78,-453.88 1255.33,-449.3 1245.01,-446.92 1245.78,-453.88"/>
</g>
<!-- Node30&#45;&gt;Node7 -->
<g id="edge43" class="edge">
<title>Node30&#45;&gt;Node7</title>
<path fill="none" stroke="midnightblue" d="M523.01,-481.52C540.19,-493.75 571.7,-515.09 601,-529 605.41,-531.09 610.1,-533.06 614.83,-534.88"/>
<polygon fill="midnightblue" stroke="midnightblue" points="613.91,-538.27 624.51,-538.4 616.31,-531.69 613.91,-538.27"/>
</g>
<!-- Node31 -->
<g id="node31" class="node">
<title>Node31</title>
<g id="a_node31"><a xlink:href="classGPS.html#ac2a7572afb184df9c14ae913f17306bf" target="_top" xlink:title=" ">
<polygon fill="white" stroke="black" points="609,-500.5 609,-519.5 707,-519.5 707,-500.5 609,-500.5"/>
<text text-anchor="middle" x="658" y="-507.5" font-family="Helvetica,sans-Serif" font-size="10.00">GPS::initSerialPort</text>
</a>
</g>
</g>
<!-- Node30&#45;&gt;Node31 -->
<g id="edge44" class="edge">
<title>Node30&#45;&gt;Node31</title>
<path fill="none" stroke="midnightblue" d="M547.09,-481.59C566.32,-486.56 589.99,-492.68 610.43,-497.96"/>
<polygon fill="midnightblue" stroke="midnightblue" points="609.61,-501.37 620.17,-500.48 611.37,-494.59 609.61,-501.37"/>
</g>
<!-- Node32 -->
<g id="node32" class="node">
<title>Node32</title>
<g id="a_node32"><a xlink:href="classSerialPort.html#aad156293689e349b3674671f8a8d8048" target="_top" xlink:title=" ">
<polygon fill="white" stroke="black" points="607,-424.5 607,-443.5 709,-443.5 709,-424.5 607,-424.5"/>
<text text-anchor="middle" x="658" y="-431.5" font-family="Helvetica,sans-Serif" font-size="10.00">SerialPort::setParity</text>
</a>
</g>
</g>
<!-- Node30&#45;&gt;Node32 -->
<g id="edge50" class="edge">
<title>Node30&#45;&gt;Node32</title>
<path fill="none" stroke="midnightblue" d="M547.09,-462.41C566.32,-457.44 589.99,-451.32 610.43,-446.04"/>
<polygon fill="midnightblue" stroke="midnightblue" points="611.37,-449.41 620.17,-443.52 609.61,-442.63 611.37,-449.41"/>
</g>
<!-- Node31&#45;&gt;Node1 -->
<g id="edge47" class="edge">
<title>Node31&#45;&gt;Node1</title>
<path fill="none" stroke="midnightblue" d="M625.39,-519.54C545.05,-543.61 334.29,-605.56 262,-615 213.48,-621.34 158.04,-620.97 116.61,-619.21"/>
<polygon fill="midnightblue" stroke="midnightblue" points="116.54,-615.71 106.39,-618.74 116.21,-622.7 116.54,-615.71"/>
</g>
<!-- Node31&#45;&gt;Node4 -->
<g id="edge45" class="edge">
<title>Node31&#45;&gt;Node4</title>
<path fill="none" stroke="midnightblue" d="M707.3,-510C727.25,-510 750.47,-510 771.06,-510"/>
<polygon fill="midnightblue" stroke="midnightblue" points="771.24,-513.5 781.24,-510 771.24,-506.5 771.24,-513.5"/>
</g>
<!-- Node31&#45;&gt;Node6 -->
<g id="edge46" class="edge">
<title>Node31&#45;&gt;Node6</title>
<path fill="none" stroke="midnightblue" d="M701.14,-500.41C723.38,-495.35 750.85,-489.1 774.36,-483.75"/>
<polygon fill="midnightblue" stroke="midnightblue" points="775.19,-487.15 784.16,-481.52 773.63,-480.33 775.19,-487.15"/>
</g>
<!-- Node31&#45;&gt;Node8 -->
<g id="edge48" class="edge">
<title>Node31&#45;&gt;Node8</title>
<path fill="none" stroke="midnightblue" d="M673.74,-500.32C691.72,-488.65 723.15,-468.64 751,-453 765.89,-444.64 782.84,-435.98 796.85,-429.05"/>
<polygon fill="midnightblue" stroke="midnightblue" points="798.58,-432.09 806.02,-424.54 795.5,-425.81 798.58,-432.09"/>
</g>
</g>
</svg>
        <g id="navigator" transform="translate(0 0)" fill="#404254">
                <rect fill="#f2f5e9" fill-opacity="0.5" stroke="#606060" stroke-width=".5" x="0" y="0" width="60" height="60"/>
                <use id="zoomplus" xlink:href="#zoomPlus" x="17" y="9" onmousedown="handleZoom(evt,'in')"/>
                <use id="zoomminus" xlink:href="#zoomMin" x="42" y="9" onmousedown="handleZoom(evt,'out')"/>
                <use id="reset" xlink:href="#resetDef" x="30" y="36" onmousedown="handleReset()"/>
                <g id="arrowUp" xlink:href="#dirArrow" transform="translate(30 24)" onmousedown="handlePan(0,-1)">
                  <use xlink:href="#rim" fill="#404040">
                        <set attributeName="fill" to="#808080" begin="arrowUp.mouseover" end="arrowUp.mouseout"/>
                  </use>
                  <path fill="none" stroke="white" stroke-width="1.5" d="M0,-3.0v7 M-2.5,-0.5L0,-3.0L2.5,-0.5"/>
                </g>
                <g id="arrowRight" xlink:href="#dirArrow" transform="rotate(90) translate(36 -43)" onmousedown="handlePan(1,0)">
                  <use xlink:href="#rim" fill="#404040">
                        <set attributeName="fill" to="#808080" begin="arrowRight.mouseover" end="arrowRight.mouseout"/>
                  </use>
                  <path fill="none" stroke="white" stroke-width="1.5" d="M0,-3.0v7 M-2.5,-0.5L0,-3.0L2.5,-0.5"/>
                </g>
                <g id="arrowDown" xlink:href="#dirArrow" transform="rotate(180) translate(-30 -48)" onmousedown="handlePan(0,1)">
                  <use xlink:href="#rim" fill="#404040">
                        <set attributeName="fill" to="#808080" begin="arrowDown.mouseover" end="arrowDown.mouseout"/>
                  </use>
                  <path fill="none" stroke="white" stroke-width="1.5" d="M0,-3.0v7 M-2.5,-0.5L0,-3.0L2.5,-0.5"/>
                </g>
                <g id="arrowLeft" xlink:href="#dirArrow" transform="rotate(270) translate(-36 17)" onmousedown="handlePan(-1,0)">
                  <use xlink:href="#rim" fill="#404040">
                        <set attributeName="fill" to="#808080" begin="arrowLeft.mouseover" end="arrowLeft.mouseout"/>
                  </use>
                  <path fill="none" stroke="white" stroke-width="1.5" d="M0,-3.0v7 M-2.5,-0.5L0,-3.0L2.5,-0.5"/>
                </g>
        </g>
        <svg viewBox="0 0 15 15" width="100%" height="30px" preserveAspectRatio="xMaxYMin meet">
         <g id="arrow_out" transform="scale(0.3 0.3)">
          <a xlink:href="classGPS_a1b1c89214229f5dc8ff7e2fa9cbcad35_cgraph_org.svg" target="_base">
           <rect id="button" ry="5" rx="5" y="6" x="6" height="38" width="38"
                fill="#f2f5e9" fill-opacity="0.5" stroke="#606060" stroke-width="1.0"/>
           <path id="arrow"
             d="M 11.500037,31.436501 C 11.940474,20.09759 22.043105,11.32322 32.158766,21.979434 L 37.068811,17.246167 C 37.068811,17.246167 37.088388,32 37.088388,32 L 22.160133,31.978069 C 22.160133,31.978069 26.997745,27.140456 26.997745,27.140456 C 18.528582,18.264221 13.291696,25.230495 11.500037,31.436501 z"
             style="fill:#404040;"/>
          </a>
         </g>
        </svg>
</svg>
