<?xml version="1.0" encoding="UTF-8" standalone="no"?>
<!DOCTYPE svg PUBLIC "-//W3C//DTD SVG 1.1//EN"
 "http://www.w3.org/Graphics/SVG/1.1/DTD/svg11.dtd">
<!-- Generated by graphviz version 2.49.3 (20211027.1534)
 -->
<!-- Title: Apexi::retryconnect Pages: 1 -->
<svg width="1252pt" height="1025pt"
 viewBox="0.00 0.00 1252.00 1025.00" xmlns="http://www.w3.org/2000/svg" xmlns:xlink="http://www.w3.org/1999/xlink">
<g id="graph0" class="graph" transform="scale(1 1) rotate(0) translate(4 1021)">
<title>Apexi::retryconnect</title>
<polygon fill="white" stroke="transparent" points="-4,4 -4,-1021 1248,-1021 1248,4 -4,4"/>
<!-- Node1 -->
<g id="node1" class="node">
<title>Node1</title>
<g id="a_node1"><a xlink:title=" ">
<polygon fill="#bfbfbf" stroke="black" points="0,-260.5 0,-279.5 98,-279.5 98,-260.5 0,-260.5"/>
<text text-anchor="middle" x="49" y="-267.5" font-family="Helvetica,sans-Serif" font-size="10.00">Apexi::retryconnect</text>
</a>
</g>
</g>
<!-- Node2 -->
<g id="node2" class="node">
<title>Node2</title>
<g id="a_node2"><a xlink:href="classApexi.html#a84e5eadc545afab5fbb0aea8b27e17c3" target="_top" xlink:title=" ">
<polygon fill="white" stroke="black" points="134,-180.5 134,-199.5 249,-199.5 249,-180.5 134,-180.5"/>
<text text-anchor="middle" x="191.5" y="-187.5" font-family="Helvetica,sans-Serif" font-size="10.00">Apexi::openConnection</text>
</a>
</g>
</g>
<!-- Node1&#45;&gt;Node2 -->
<g id="edge1" class="edge">
<title>Node1&#45;&gt;Node2</title>
<path fill="none" stroke="midnightblue" d="M66.95,-260.35C91.21,-246.54 136.05,-221 164.52,-204.79"/>
<polygon fill="midnightblue" stroke="midnightblue" points="166.53,-207.67 173.49,-199.68 163.07,-201.59 166.53,-207.67"/>
</g>
<!-- Node3 -->
<g id="node3" class="node">
<title>Node3</title>
<g id="a_node3"><a xlink:href="classApexi.html#a669124cabae4ada616e650e582c068da" target="_top" xlink:title=" ">
<polygon fill="white" stroke="black" points="285,-199.5 285,-218.5 402,-218.5 402,-199.5 285,-199.5"/>
<text text-anchor="middle" x="343.5" y="-206.5" font-family="Helvetica,sans-Serif" font-size="10.00">Apexi::closeConnection</text>
</a>
</g>
</g>
<!-- Node2&#45;&gt;Node3 -->
<g id="edge2" class="edge">
<title>Node2&#45;&gt;Node3</title>
<path fill="none" stroke="midnightblue" d="M249.21,-197.18C257.56,-198.24 266.23,-199.34 274.77,-200.42"/>
<polygon fill="midnightblue" stroke="midnightblue" points="274.35,-203.9 284.71,-201.68 275.23,-196.95 274.35,-203.9"/>
</g>
<!-- Node6 -->
<g id="node6" class="node">
<title>Node6</title>
<g id="a_node6"><a xlink:href="classDashBoard.html#aa096e4f8310f6614db7409cef61d7ccb" target="_top" xlink:title=" ">
<polygon fill="white" stroke="black" points="1114.5,-9.5 1114.5,-28.5 1239.5,-28.5 1239.5,-9.5 1114.5,-9.5"/>
<text text-anchor="middle" x="1177" y="-16.5" font-family="Helvetica,sans-Serif" font-size="10.00">DashBoard::setSerialStat</text>
</a>
</g>
</g>
<!-- Node2&#45;&gt;Node6 -->
<g id="edge65" class="edge">
<title>Node2&#45;&gt;Node6</title>
<path fill="none" stroke="midnightblue" d="M200.44,-180.32C233.16,-141.6 362.32,0 501.5,0 501.5,0 501.5,0 833,0 926.74,0 1034.68,-7.16 1104.04,-12.69"/>
<polygon fill="midnightblue" stroke="midnightblue" points="1104.16,-16.21 1114.4,-13.53 1104.72,-9.24 1104.16,-16.21"/>
</g>
<!-- Node8 -->
<g id="node8" class="node">
<title>Node8</title>
<g id="a_node8"><a xlink:href="classApexi.html#a9ed7e794f2566b72a448e341233985eb" target="_top" xlink:title=" ">
<polygon fill="white" stroke="black" points="781,-123.5 781,-142.5 883,-142.5 883,-123.5 781,-123.5"/>
<text text-anchor="middle" x="832" y="-130.5" font-family="Helvetica,sans-Serif" font-size="10.00">Apexi::sendRequest</text>
</a>
</g>
</g>
<!-- Node2&#45;&gt;Node8 -->
<g id="edge63" class="edge">
<title>Node2&#45;&gt;Node8</title>
<path fill="none" stroke="midnightblue" d="M210.28,-180.37C249.8,-159.59 348.5,-111.13 438,-95 563.48,-72.39 714.08,-102.69 787.06,-120.96"/>
<polygon fill="midnightblue" stroke="midnightblue" points="786.28,-124.37 796.84,-123.45 788.01,-117.59 786.28,-124.37"/>
</g>
<!-- Node111 -->
<g id="node49" class="node">
<title>Node111</title>
<g id="a_node49"><a xlink:href="classApexi.html#a169d6e9466a6c04e6533c8e84fdcaadb" target="_top" xlink:title=" ">
<polygon fill="white" stroke="black" points="293,-161.5 293,-180.5 394,-180.5 394,-161.5 293,-161.5"/>
<text text-anchor="middle" x="343.5" y="-168.5" font-family="Helvetica,sans-Serif" font-size="10.00">Apexi::initSerialPort</text>
</a>
</g>
</g>
<!-- Node2&#45;&gt;Node111 -->
<g id="edge58" class="edge">
<title>Node2&#45;&gt;Node111</title>
<path fill="none" stroke="midnightblue" d="M249.21,-182.82C260.13,-181.43 271.61,-179.98 282.63,-178.58"/>
<polygon fill="midnightblue" stroke="midnightblue" points="283.12,-182.05 292.6,-177.32 282.24,-175.11 283.12,-182.05"/>
</g>
<!-- Node112 -->
<g id="node50" class="node">
<title>Node112</title>
<g id="a_node50"><a xlink:href="classSerialPort.html#aad156293689e349b3674671f8a8d8048" target="_top" xlink:title=" ">
<polygon fill="white" stroke="black" points="292.5,-237.5 292.5,-256.5 394.5,-256.5 394.5,-237.5 292.5,-237.5"/>
<text text-anchor="middle" x="343.5" y="-244.5" font-family="Helvetica,sans-Serif" font-size="10.00">SerialPort::setParity</text>
</a>
</g>
</g>
<!-- Node2&#45;&gt;Node112 -->
<g id="edge64" class="edge">
<title>Node2&#45;&gt;Node112</title>
<path fill="none" stroke="midnightblue" d="M214.38,-199.5C233.02,-207.47 260.58,-218.96 285,-228 290.62,-230.08 296.59,-232.18 302.48,-234.18"/>
<polygon fill="midnightblue" stroke="midnightblue" points="301.63,-237.59 312.22,-237.44 303.85,-230.95 301.63,-237.59"/>
</g>
<!-- Node4 -->
<g id="node4" class="node">
<title>Node4</title>
<g id="a_node4"><a xlink:href="classApexi.html#a8a8a56251df881cc9eb49f1f20332fda" target="_top" xlink:title=" ">
<polygon fill="white" stroke="black" points="438,-180.5 438,-199.5 567,-199.5 567,-180.5 438,-180.5"/>
<text text-anchor="middle" x="502.5" y="-187.5" font-family="Helvetica,sans-Serif" font-size="10.00">Apexi::handleBytesWritten</text>
</a>
</g>
</g>
<!-- Node3&#45;&gt;Node4 -->
<g id="edge3" class="edge">
<title>Node3&#45;&gt;Node4</title>
<path fill="none" stroke="midnightblue" d="M402.07,-202.03C410.44,-201.02 419.14,-199.97 427.77,-198.92"/>
<polygon fill="midnightblue" stroke="midnightblue" points="428.34,-202.38 437.85,-197.7 427.5,-195.43 428.34,-202.38"/>
</g>
<!-- Node5 -->
<g id="node5" class="node">
<title>Node5</title>
<g id="a_node5"><a xlink:href="classApexi.html#a6c775f27e878959c047bb9c252064cfe" target="_top" xlink:title=" ">
<polygon fill="white" stroke="black" points="455.5,-104.5 455.5,-123.5 549.5,-123.5 549.5,-104.5 455.5,-104.5"/>
<text text-anchor="middle" x="502.5" y="-111.5" font-family="Helvetica,sans-Serif" font-size="10.00">Apexi::handleError</text>
</a>
</g>
</g>
<!-- Node3&#45;&gt;Node5 -->
<g id="edge4" class="edge">
<title>Node3&#45;&gt;Node5</title>
<path fill="none" stroke="midnightblue" d="M379.63,-199.46C387.2,-196.84 395.03,-193.68 402,-190 433.15,-173.56 464.72,-147.49 483.71,-130.56"/>
<polygon fill="midnightblue" stroke="midnightblue" points="486.21,-133.02 491.27,-123.71 481.51,-127.83 486.21,-133.02"/>
</g>
<!-- Node7 -->
<g id="node7" class="node">
<title>Node7</title>
<g id="a_node7"><a xlink:href="classApexi.html#a9c813630d2b2a70b7e098ae10220103e" target="_top" xlink:title=" ">
<polygon fill="white" stroke="black" points="611,-142.5 611,-161.5 720,-161.5 720,-142.5 611,-142.5"/>
<text text-anchor="middle" x="665.5" y="-149.5" font-family="Helvetica,sans-Serif" font-size="10.00">Apexi::handleTimeout</text>
</a>
</g>
</g>
<!-- Node3&#45;&gt;Node7 -->
<g id="edge6" class="edge">
<title>Node3&#45;&gt;Node7</title>
<path fill="none" stroke="midnightblue" d="M402.29,-217.17C447.85,-221.67 512.56,-223.74 567,-209 596.41,-201.03 626.04,-181.74 644.79,-167.8"/>
<polygon fill="midnightblue" stroke="midnightblue" points="647.01,-170.5 652.83,-161.65 642.76,-164.94 647.01,-170.5"/>
</g>
<!-- Node11 -->
<g id="node11" class="node">
<title>Node11</title>
<g id="a_node11"><a xlink:href="classApexi.html#abe3bf6800fce8a4c713a08c14474d625" target="_top" xlink:title=" ">
<polygon fill="white" stroke="black" points="451.5,-256.5 451.5,-275.5 553.5,-275.5 553.5,-256.5 451.5,-256.5"/>
<text text-anchor="middle" x="502.5" y="-263.5" font-family="Helvetica,sans-Serif" font-size="10.00">Apexi::readyToRead</text>
</a>
</g>
</g>
<!-- Node3&#45;&gt;Node11 -->
<g id="edge12" class="edge">
<title>Node3&#45;&gt;Node11</title>
<path fill="none" stroke="midnightblue" d="M374.44,-218.57C383.35,-221.5 393.1,-224.8 402,-228 418.16,-233.81 421.97,-235.85 438,-242 447.31,-245.57 457.4,-249.4 466.74,-252.93"/>
<polygon fill="midnightblue" stroke="midnightblue" points="465.55,-256.22 476.14,-256.48 468.02,-249.67 465.55,-256.22"/>
</g>
<!-- Node5&#45;&gt;Node6 -->
<g id="edge5" class="edge">
<title>Node5&#45;&gt;Node6</title>
<path fill="none" stroke="midnightblue" d="M549.57,-107.31C628.61,-95.84 795.15,-71.78 936,-52 992.58,-44.06 1056.69,-35.25 1104.4,-28.74"/>
<polygon fill="midnightblue" stroke="midnightblue" points="1104.89,-32.2 1114.33,-27.38 1103.95,-25.27 1104.89,-32.2"/>
</g>
<!-- Node7&#45;&gt;Node6 -->
<g id="edge10" class="edge">
<title>Node7&#45;&gt;Node6</title>
<path fill="none" stroke="midnightblue" d="M687.81,-142.45C707.32,-134.01 737.15,-121.85 764,-114 898.86,-74.56 939.13,-91.39 1074,-52 1090.48,-47.19 1093.73,-43.49 1110,-38 1116.6,-35.77 1123.63,-33.57 1130.55,-31.5"/>
<polygon fill="midnightblue" stroke="midnightblue" points="1131.93,-34.74 1140.54,-28.57 1129.96,-28.02 1131.93,-34.74"/>
</g>
<!-- Node7&#45;&gt;Node8 -->
<g id="edge7" class="edge">
<title>Node7&#45;&gt;Node8</title>
<path fill="none" stroke="midnightblue" d="M720.36,-145.78C736.5,-143.91 754.31,-141.86 770.83,-139.95"/>
<polygon fill="midnightblue" stroke="midnightblue" points="771.39,-143.41 780.92,-138.78 770.58,-136.46 771.39,-143.41"/>
</g>
<!-- Node10 -->
<g id="node10" class="node">
<title>Node10</title>
<g id="a_node10"><a xlink:href="classDashBoard.html#a7638e10b46688431f57c31bfc7ab1a37" target="_top" xlink:title=" ">
<polygon fill="white" stroke="black" points="764,-166.5 764,-185.5 900,-185.5 900,-166.5 764,-166.5"/>
<text text-anchor="middle" x="832" y="-173.5" font-family="Helvetica,sans-Serif" font-size="10.00">DashBoard::setTimeoutStat</text>
</a>
</g>
</g>
<!-- Node7&#45;&gt;Node10 -->
<g id="edge11" class="edge">
<title>Node7&#45;&gt;Node10</title>
<path fill="none" stroke="midnightblue" d="M720.36,-159.86C731.71,-161.51 743.88,-163.29 755.84,-165.04"/>
<polygon fill="midnightblue" stroke="midnightblue" points="755.43,-168.51 765.83,-166.49 756.44,-161.58 755.43,-168.51"/>
</g>
<!-- Node9 -->
<g id="node9" class="node">
<title>Node9</title>
<g id="a_node9"><a xlink:href="classApexi.html#af312531b1dbc60175016a82881203f18" target="_top" xlink:title=" ">
<polygon fill="white" stroke="black" points="944,-104.5 944,-123.5 1066,-123.5 1066,-104.5 944,-104.5"/>
<text text-anchor="middle" x="1005" y="-111.5" font-family="Helvetica,sans-Serif" font-size="10.00">Apexi::writeRequestPFC</text>
</a>
</g>
</g>
<!-- Node8&#45;&gt;Node9 -->
<g id="edge8" class="edge">
<title>Node8&#45;&gt;Node9</title>
<path fill="none" stroke="midnightblue" d="M883.38,-127.4C899.04,-125.66 916.61,-123.71 933.39,-121.85"/>
<polygon fill="midnightblue" stroke="midnightblue" points="934.16,-125.28 943.71,-120.7 933.39,-118.32 934.16,-125.28"/>
</g>
<!-- Node9&#45;&gt;Node6 -->
<g id="edge9" class="edge">
<title>Node9&#45;&gt;Node6</title>
<path fill="none" stroke="midnightblue" d="M1046.23,-104.45C1055.93,-100.93 1065.84,-96.23 1074,-90 1096.34,-72.94 1087.17,-54.4 1110,-38 1112.71,-36.05 1115.62,-34.3 1118.65,-32.73"/>
<polygon fill="midnightblue" stroke="midnightblue" points="1120.33,-35.82 1128.02,-28.54 1117.47,-29.43 1120.33,-35.82"/>
</g>
<!-- Node12 -->
<g id="node12" class="node">
<title>Node12</title>
<g id="a_node12"><a xlink:href="classApexi.html#a4cb1314ab5ca5175aa227ed178148f40" target="_top" xlink:title=" ">
<polygon fill="white" stroke="black" points="621.5,-209.5 621.5,-228.5 709.5,-228.5 709.5,-209.5 621.5,-209.5"/>
<text text-anchor="middle" x="665.5" y="-216.5" font-family="Helvetica,sans-Serif" font-size="10.00">Apexi::apexiECU</text>
</a>
</g>
</g>
<!-- Node11&#45;&gt;Node12 -->
<g id="edge13" class="edge">
<title>Node11&#45;&gt;Node12</title>
<path fill="none" stroke="midnightblue" d="M536.08,-256.49C560.77,-249.28 594.91,-239.32 621.78,-231.47"/>
<polygon fill="midnightblue" stroke="midnightblue" points="623.07,-234.74 631.69,-228.58 621.11,-228.02 623.07,-234.74"/>
</g>
<!-- Node110 -->
<g id="node48" class="node">
<title>Node110</title>
<g id="a_node48"><a xlink:href="classDashBoard.html#ab66782991ddf59e10d36f281735971da" target="_top" xlink:title=" ">
<polygon fill="white" stroke="black" points="603,-256.5 603,-275.5 728,-275.5 728,-256.5 603,-256.5"/>
<text text-anchor="middle" x="665.5" y="-263.5" font-family="Helvetica,sans-Serif" font-size="10.00">DashBoard::setRecvData</text>
</a>
</g>
</g>
<!-- Node11&#45;&gt;Node110 -->
<g id="edge57" class="edge">
<title>Node11&#45;&gt;Node110</title>
<path fill="none" stroke="midnightblue" d="M553.56,-266C565.99,-266 579.56,-266 592.8,-266"/>
<polygon fill="midnightblue" stroke="midnightblue" points="592.84,-269.5 602.84,-266 592.84,-262.5 592.84,-269.5"/>
</g>
<!-- Node12&#45;&gt;Node8 -->
<g id="edge54" class="edge">
<title>Node12&#45;&gt;Node8</title>
<path fill="none" stroke="midnightblue" d="M679.51,-209.39C697.71,-196.27 732.11,-172.61 764,-157 772.22,-152.97 781.3,-149.27 790.05,-146.03"/>
<polygon fill="midnightblue" stroke="midnightblue" points="791.47,-149.24 799.72,-142.59 789.13,-142.65 791.47,-149.24"/>
</g>
<!-- Node12&#45;&gt;Node10 -->
<g id="edge56" class="edge">
<title>Node12&#45;&gt;Node10</title>
<path fill="none" stroke="midnightblue" d="M703.01,-209.46C727.07,-203.17 758.8,-194.87 784.64,-188.12"/>
<polygon fill="midnightblue" stroke="midnightblue" points="785.8,-191.43 794.59,-185.52 784.03,-184.66 785.8,-191.43"/>
</g>
<!-- Node13 -->
<g id="node13" class="node">
<title>Node13</title>
<g id="a_node13"><a xlink:href="classApexi.html#a4e7b389e8d3e283a12733ab4f8492be3" target="_top" xlink:title=" ">
<polygon fill="white" stroke="black" points="790,-427.5 790,-446.5 874,-446.5 874,-427.5 790,-427.5"/>
<text text-anchor="middle" x="832" y="-434.5" font-family="Helvetica,sans-Serif" font-size="10.00">Apexi::readData</text>
</a>
</g>
</g>
<!-- Node12&#45;&gt;Node13 -->
<g id="edge14" class="edge">
<title>Node12&#45;&gt;Node13</title>
<path fill="none" stroke="midnightblue" d="M697.62,-228.61C708.16,-232.97 719.42,-239 728,-247 781.19,-296.62 812.89,-380.05 825.14,-417.62"/>
<polygon fill="midnightblue" stroke="midnightblue" points="821.86,-418.85 828.2,-427.33 828.54,-416.74 821.86,-418.85"/>
</g>
<!-- Node109 -->
<g id="node47" class="node">
<title>Node109</title>
<g id="a_node47"><a xlink:href="classDashBoard.html#af8966ca28767b5686245a42f97431bc8" target="_top" xlink:title=" ">
<polygon fill="white" stroke="black" points="773,-209.5 773,-228.5 891,-228.5 891,-209.5 773,-209.5"/>
<text text-anchor="middle" x="832" y="-216.5" font-family="Helvetica,sans-Serif" font-size="10.00">DashBoard::setRunStat</text>
</a>
</g>
</g>
<!-- Node12&#45;&gt;Node109 -->
<g id="edge55" class="edge">
<title>Node12&#45;&gt;Node109</title>
<path fill="none" stroke="midnightblue" d="M709.72,-219C725.95,-219 744.82,-219 762.77,-219"/>
<polygon fill="midnightblue" stroke="midnightblue" points="762.91,-222.5 772.91,-219 762.91,-215.5 762.91,-222.5"/>
</g>
<!-- Node13&#45;&gt;Node1 -->
<g id="edge53" class="edge">
<title>Node13&#45;&gt;Node1</title>
<path fill="none" stroke="midnightblue" d="M789.97,-432.06C728.01,-425.03 606.83,-413 503.5,-413 342.5,-413 342.5,-413 342.5,-413 228.3,-413 112.18,-323.94 68.29,-286.39"/>
<polygon fill="midnightblue" stroke="midnightblue" points="70.34,-283.53 60.5,-279.6 65.75,-288.81 70.34,-283.53"/>
</g>
<!-- Node13&#45;&gt;Node3 -->
<g id="edge15" class="edge">
<title>Node13&#45;&gt;Node3</title>
<path fill="none" stroke="midnightblue" d="M804.86,-427.4C719.44,-395.98 453.17,-297.47 438,-285 414.86,-265.97 425.61,-246.45 402,-228 399.59,-226.12 396.99,-224.42 394.27,-222.89"/>
<polygon fill="midnightblue" stroke="midnightblue" points="395.79,-219.73 385.26,-218.53 392.74,-226.03 395.79,-219.73"/>
</g>
<!-- Node14 -->
<g id="node14" class="node">
<title>Node14</title>
<g id="a_node14"><a xlink:href="classApexi.html#a3ecd8445700ab9532fc051325f66d03d" target="_top" xlink:title=" ">
<polygon fill="white" stroke="red" points="958,-446.5 958,-465.5 1052,-465.5 1052,-446.5 958,-446.5"/>
<text text-anchor="middle" x="1005" y="-453.5" font-family="Helvetica,sans-Serif" font-size="10.00">Apexi::decodeAdv</text>
</a>
</g>
</g>
<!-- Node13&#45;&gt;Node14 -->
<g id="edge16" class="edge">
<title>Node13&#45;&gt;Node14</title>
<path fill="none" stroke="midnightblue" d="M874.39,-441.6C896.45,-444.05 923.89,-447.1 947.84,-449.76"/>
<polygon fill="midnightblue" stroke="midnightblue" points="947.54,-453.25 957.87,-450.87 948.32,-446.29 947.54,-453.25"/>
</g>
<!-- Node50 -->
<g id="node41" class="node">
<title>Node50</title>
<g id="a_node41"><a xlink:href="classApexi.html#af82382a1e22fdac04180f1734d59461f" target="_top" xlink:title=" ">
<polygon fill="white" stroke="red" points="958.5,-408.5 958.5,-427.5 1051.5,-427.5 1051.5,-408.5 958.5,-408.5"/>
<text text-anchor="middle" x="1005" y="-415.5" font-family="Helvetica,sans-Serif" font-size="10.00">Apexi::decodeAux</text>
</a>
</g>
</g>
<!-- Node13&#45;&gt;Node50 -->
<g id="edge43" class="edge">
<title>Node13&#45;&gt;Node50</title>
<path fill="none" stroke="midnightblue" d="M874.39,-432.4C896.62,-429.93 924.33,-426.85 948.41,-424.18"/>
<polygon fill="midnightblue" stroke="midnightblue" points="948.93,-427.64 958.48,-423.06 948.16,-420.68 948.93,-427.64"/>
</g>
<!-- Node53 -->
<g id="node42" class="node">
<title>Node53</title>
<g id="a_node42"><a xlink:href="classApexi.html#af3dad564d7c3cca0e98f5944e5e27cdf" target="_top" xlink:title=" ">
<polygon fill="white" stroke="red" points="954.5,-142.5 954.5,-161.5 1055.5,-161.5 1055.5,-142.5 954.5,-142.5"/>
<text text-anchor="middle" x="1005" y="-149.5" font-family="Helvetica,sans-Serif" font-size="10.00">Apexi::decodeBasic</text>
</a>
</g>
</g>
<!-- Node13&#45;&gt;Node53 -->
<g id="edge44" class="edge">
<title>Node13&#45;&gt;Node53</title>
<path fill="none" stroke="midnightblue" d="M838.89,-427.19C863.71,-385.82 960.05,-225.25 992.93,-170.45"/>
<polygon fill="midnightblue" stroke="midnightblue" points="995.99,-172.14 998.14,-161.77 989.99,-168.54 995.99,-172.14"/>
</g>
<!-- Node56 -->
<g id="node43" class="node">
<title>Node56</title>
<g id="a_node43"><a xlink:href="classApexi.html#aaa77337f30dd52330c1070ce161eea83" target="_top" xlink:title=" ">
<polygon fill="white" stroke="red" points="960,-598.5 960,-617.5 1050,-617.5 1050,-598.5 960,-598.5"/>
<text text-anchor="middle" x="1005" y="-605.5" font-family="Helvetica,sans-Serif" font-size="10.00">Apexi::decodeInit</text>
</a>
</g>
</g>
<!-- Node13&#45;&gt;Node56 -->
<g id="edge49" class="edge">
<title>Node13&#45;&gt;Node56</title>
<path fill="none" stroke="midnightblue" d="M836.67,-446.55C847.49,-473.4 881.93,-550.08 936,-589 940.41,-592.18 945.34,-594.82 950.47,-597.03"/>
<polygon fill="midnightblue" stroke="midnightblue" points="949.26,-600.31 959.86,-600.54 951.72,-593.76 949.26,-600.31"/>
</g>
<!-- Node58 -->
<g id="node44" class="node">
<title>Node58</title>
<g id="a_node44"><a xlink:href="classApexi.html#a8434798529c3e79a33445e2ba626d8a2" target="_top" xlink:title=" ">
<polygon fill="white" stroke="black" points="957.5,-560.5 957.5,-579.5 1052.5,-579.5 1052.5,-560.5 957.5,-560.5"/>
<text text-anchor="middle" x="1005" y="-567.5" font-family="Helvetica,sans-Serif" font-size="10.00">Apexi::decodeMap</text>
</a>
</g>
</g>
<!-- Node13&#45;&gt;Node58 -->
<g id="edge50" class="edge">
<title>Node13&#45;&gt;Node58</title>
<path fill="none" stroke="midnightblue" d="M838.91,-446.62C852.92,-468.6 890.41,-522.78 936,-551 939.63,-553.25 943.54,-555.24 947.58,-557"/>
<polygon fill="midnightblue" stroke="midnightblue" points="946.58,-560.36 957.17,-560.69 949.1,-553.83 946.58,-560.36"/>
</g>
<!-- Node59 -->
<g id="node45" class="node">
<title>Node59</title>
<g id="a_node45"><a xlink:href="classApexi.html#a6ce2b40858fc637448d1f6dc27e10a70" target="_top" xlink:title=" ">
<polygon fill="white" stroke="red" points="951.5,-522.5 951.5,-541.5 1058.5,-541.5 1058.5,-522.5 951.5,-522.5"/>
<text text-anchor="middle" x="1005" y="-529.5" font-family="Helvetica,sans-Serif" font-size="10.00">Apexi::decodeSensor</text>
</a>
</g>
</g>
<!-- Node13&#45;&gt;Node59 -->
<g id="edge51" class="edge">
<title>Node13&#45;&gt;Node59</title>
<path fill="none" stroke="midnightblue" d="M843.28,-446.61C860.91,-462.62 898.65,-494.77 936,-513 940.7,-515.29 945.72,-517.35 950.82,-519.19"/>
<polygon fill="midnightblue" stroke="midnightblue" points="950.09,-522.63 960.68,-522.45 952.29,-515.98 950.09,-522.63"/>
</g>
<!-- Node84 -->
<g id="node46" class="node">
<title>Node84</title>
<g id="a_node46"><a xlink:href="classApexi.html#a45f8db235553ca011083224aec6b3892" target="_top" xlink:title=" ">
<polygon fill="white" stroke="red" points="936,-484.5 936,-503.5 1074,-503.5 1074,-484.5 936,-484.5"/>
<text text-anchor="middle" x="1005" y="-491.5" font-family="Helvetica,sans-Serif" font-size="10.00">Apexi::decodeSensorStrings</text>
</a>
</g>
</g>
<!-- Node13&#45;&gt;Node84 -->
<g id="edge52" class="edge">
<title>Node13&#45;&gt;Node84</title>
<path fill="none" stroke="midnightblue" d="M857.36,-446.62C878.11,-454.66 908.8,-466.2 936,-475 943.14,-477.31 950.75,-479.6 958.19,-481.75"/>
<polygon fill="midnightblue" stroke="midnightblue" points="957.27,-485.12 967.84,-484.48 959.17,-478.39 957.27,-485.12"/>
</g>
<!-- Node15 -->
<g id="node15" class="node">
<title>Node15</title>
<g id="a_node15"><a xlink:href="classDashBoard.html#a21635845a2258c7dbe2a7f2f7ec32345" target="_top" xlink:title=" ">
<polygon fill="white" stroke="black" points="1117,-85.5 1117,-104.5 1237,-104.5 1237,-85.5 1117,-85.5"/>
<text text-anchor="middle" x="1177" y="-92.5" font-family="Helvetica,sans-Serif" font-size="10.00">DashBoard::setBatteryV</text>
</a>
</g>
</g>
<!-- Node14&#45;&gt;Node15 -->
<g id="edge17" class="edge">
<title>Node14&#45;&gt;Node15</title>
<path fill="none" stroke="midnightblue" d="M1052.03,-451.08C1060.4,-448.17 1068.28,-443.72 1074,-437 1167.57,-326.96 1016.86,-224.41 1110,-114 1111.01,-112.8 1112.09,-111.68 1113.23,-110.63"/>
<polygon fill="midnightblue" stroke="midnightblue" points="1115.48,-113.32 1121.52,-104.61 1111.37,-107.65 1115.48,-113.32"/>
</g>
<!-- Node16 -->
<g id="node16" class="node">
<title>Node16</title>
<g id="a_node16"><a xlink:href="classDashBoard.html#a864f44aaf83510cc38b81e3efc7f1da6" target="_top" xlink:title=" ">
<polygon fill="white" stroke="black" points="1113,-807.5 1113,-826.5 1241,-826.5 1241,-807.5 1113,-807.5"/>
<text text-anchor="middle" x="1177" y="-814.5" font-family="Helvetica,sans-Serif" font-size="10.00">DashBoard::setBoostDuty</text>
</a>
</g>
</g>
<!-- Node14&#45;&gt;Node16 -->
<g id="edge18" class="edge">
<title>Node14&#45;&gt;Node16</title>
<path fill="none" stroke="midnightblue" d="M1052.03,-460.92C1060.4,-463.83 1068.28,-468.28 1074,-475 1167.57,-585.04 1016.86,-687.59 1110,-798 1111.01,-799.2 1112.09,-800.32 1113.23,-801.37"/>
<polygon fill="midnightblue" stroke="midnightblue" points="1111.37,-804.35 1121.52,-807.39 1115.48,-798.68 1111.37,-804.35"/>
</g>
<!-- Node17 -->
<g id="node17" class="node">
<title>Node17</title>
<g id="a_node17"><a xlink:href="classDashBoard.html#af865e5a3912f8100d831f01333a4fef9" target="_top" xlink:title=" ">
<polygon fill="white" stroke="black" points="1119,-769.5 1119,-788.5 1235,-788.5 1235,-769.5 1119,-769.5"/>
<text text-anchor="middle" x="1177" y="-776.5" font-family="Helvetica,sans-Serif" font-size="10.00">DashBoard::setBoosttp</text>
</a>
</g>
</g>
<!-- Node14&#45;&gt;Node17 -->
<g id="edge19" class="edge">
<title>Node14&#45;&gt;Node17</title>
<path fill="none" stroke="midnightblue" d="M1052.3,-461.1C1060.55,-464.02 1068.31,-468.41 1074,-475 1157.41,-571.66 1026.96,-663.02 1110,-760 1111.02,-761.19 1112.1,-762.31 1113.25,-763.35"/>
<polygon fill="midnightblue" stroke="midnightblue" points="1111.41,-766.34 1121.57,-769.34 1115.5,-760.66 1111.41,-766.34"/>
</g>
<!-- Node18 -->
<g id="node18" class="node">
<title>Node18</title>
<g id="a_node18"><a xlink:href="classDashBoard.html#ad7eafea8b5a643e82155945495ff2aef" target="_top" xlink:title=" ">
<polygon fill="white" stroke="black" points="1116.5,-731.5 1116.5,-750.5 1237.5,-750.5 1237.5,-731.5 1116.5,-731.5"/>
<text text-anchor="middle" x="1177" y="-738.5" font-family="Helvetica,sans-Serif" font-size="10.00">DashBoard::setBoostwg</text>
</a>
</g>
</g>
<!-- Node14&#45;&gt;Node18 -->
<g id="edge20" class="edge">
<title>Node14&#45;&gt;Node18</title>
<path fill="none" stroke="midnightblue" d="M1052.2,-461.19C1060.46,-464.09 1068.25,-468.47 1074,-475 1147.28,-558.29 1037.05,-638.42 1110,-722 1111.16,-723.33 1112.4,-724.57 1113.72,-725.72"/>
<polygon fill="midnightblue" stroke="midnightblue" points="1111.75,-728.61 1121.96,-731.45 1115.75,-722.87 1111.75,-728.61"/>
</g>
<!-- Node19 -->
<g id="node19" class="node">
<title>Node19</title>
<g id="a_node19"><a xlink:href="classDashBoard.html#aa34fb9a1bc1ffbf895c0dc507dacfe03" target="_top" xlink:title=" ">
<polygon fill="white" stroke="black" points="1123.5,-693.5 1123.5,-712.5 1230.5,-712.5 1230.5,-693.5 1123.5,-693.5"/>
<text text-anchor="middle" x="1177" y="-700.5" font-family="Helvetica,sans-Serif" font-size="10.00">DashBoard::setDwell</text>
</a>
</g>
</g>
<!-- Node14&#45;&gt;Node19 -->
<g id="edge21" class="edge">
<title>Node14&#45;&gt;Node19</title>
<path fill="none" stroke="midnightblue" d="M1052.07,-461.31C1060.34,-464.2 1068.17,-468.54 1074,-475 1137.17,-544.96 1047.11,-613.8 1110,-684 1111.4,-685.57 1112.92,-687.01 1114.54,-688.33"/>
<polygon fill="midnightblue" stroke="midnightblue" points="1113.04,-691.53 1123.33,-694.03 1116.85,-685.65 1113.04,-691.53"/>
</g>
<!-- Node20 -->
<g id="node20" class="node">
<title>Node20</title>
<g id="a_node20"><a xlink:href="classDashBoard.html#afa98f53f1555f3bff79f49a6e12b5d9e" target="_top" xlink:title=" ">
<polygon fill="white" stroke="black" points="1116.5,-655.5 1116.5,-674.5 1237.5,-674.5 1237.5,-655.5 1116.5,-655.5"/>
<text text-anchor="middle" x="1177" y="-662.5" font-family="Helvetica,sans-Serif" font-size="10.00">DashBoard::setEngLoad</text>
</a>
</g>
</g>
<!-- Node14&#45;&gt;Node20 -->
<g id="edge22" class="edge">
<title>Node14&#45;&gt;Node20</title>
<path fill="none" stroke="midnightblue" d="M1052.24,-461.6C1060.39,-464.48 1068.13,-468.74 1074,-475 1127.11,-531.67 1057.12,-589.12 1110,-646 1111.23,-647.32 1112.54,-648.55 1113.93,-649.7"/>
<polygon fill="midnightblue" stroke="midnightblue" points="1112.26,-652.79 1122.53,-655.4 1116.12,-646.96 1112.26,-652.79"/>
</g>
<!-- Node21 -->
<g id="node21" class="node">
<title>Node21</title>
<g id="a_node21"><a xlink:href="classDashBoard.html#aebb7249e22bce5067a7d473e6ae0085c" target="_top" xlink:title=" ">
<polygon fill="white" stroke="black" points="1123.5,-617.5 1123.5,-636.5 1230.5,-636.5 1230.5,-617.5 1123.5,-617.5"/>
<text text-anchor="middle" x="1177" y="-624.5" font-family="Helvetica,sans-Serif" font-size="10.00">DashBoard::setFuelc</text>
</a>
</g>
</g>
<!-- Node14&#45;&gt;Node21 -->
<g id="edge23" class="edge">
<title>Node14&#45;&gt;Node21</title>
<path fill="none" stroke="midnightblue" d="M1052.31,-461.99C1060.36,-464.85 1068.04,-469 1074,-475 1117.13,-518.48 1067.04,-564.35 1110,-608 1111.44,-609.47 1112.99,-610.82 1114.62,-612.07"/>
<polygon fill="midnightblue" stroke="midnightblue" points="1113.05,-615.22 1123.39,-617.51 1116.74,-609.27 1113.05,-615.22"/>
</g>
<!-- Node22 -->
<g id="node22" class="node">
<title>Node22</title>
<g id="a_node22"><a xlink:href="classDashBoard.html#ad7fb1721d5cd8770078da5e7d5d6b655" target="_top" xlink:title=" ">
<polygon fill="white" stroke="black" points="1115.5,-579.5 1115.5,-598.5 1238.5,-598.5 1238.5,-579.5 1115.5,-579.5"/>
<text text-anchor="middle" x="1177" y="-586.5" font-family="Helvetica,sans-Serif" font-size="10.00">DashBoard::setFueltemp</text>
</a>
</g>
</g>
<!-- Node14&#45;&gt;Node22 -->
<g id="edge24" class="edge">
<title>Node14&#45;&gt;Node22</title>
<path fill="none" stroke="midnightblue" d="M1052.2,-462.59C1060.17,-465.4 1067.85,-469.38 1074,-475 1107.33,-505.46 1076.79,-539.41 1110,-570 1111.71,-571.58 1113.54,-573.02 1115.47,-574.35"/>
<polygon fill="midnightblue" stroke="midnightblue" points="1114,-577.54 1124.43,-579.43 1117.46,-571.45 1114,-577.54"/>
</g>
<!-- Node23 -->
<g id="node23" class="node">
<title>Node23</title>
<g id="a_node23"><a xlink:href="classDashBoard.html#ad46278eecba8d5643f84cea9eafa1bce" target="_top" xlink:title=" ">
<polygon fill="white" stroke="black" points="1129,-541.5 1129,-560.5 1225,-560.5 1225,-541.5 1129,-541.5"/>
<text text-anchor="middle" x="1177" y="-548.5" font-family="Helvetica,sans-Serif" font-size="10.00">DashBoard::setIgn</text>
</a>
</g>
</g>
<!-- Node14&#45;&gt;Node23 -->
<g id="edge25" class="edge">
<title>Node14&#45;&gt;Node23</title>
<path fill="none" stroke="midnightblue" d="M1052.05,-463.88C1059.85,-466.57 1067.51,-470.17 1074,-475 1098.03,-492.89 1086.04,-514.01 1110,-532 1112.99,-534.24 1116.24,-536.22 1119.63,-537.97"/>
<polygon fill="midnightblue" stroke="midnightblue" points="1118.34,-541.22 1128.9,-542.07 1121.17,-534.82 1118.34,-541.22"/>
</g>
<!-- Node24 -->
<g id="node24" class="node">
<title>Node24</title>
<g id="a_node24"><a xlink:href="classDashBoard.html#a6f4952eb15d3b4c0c2eaacf37fb2c96b" target="_top" xlink:title=" ">
<polygon fill="white" stroke="black" points="1124,-503.5 1124,-522.5 1230,-522.5 1230,-503.5 1124,-503.5"/>
<text text-anchor="middle" x="1177" y="-510.5" font-family="Helvetica,sans-Serif" font-size="10.00">DashBoard::setinjms</text>
</a>
</g>
</g>
<!-- Node14&#45;&gt;Node24 -->
<g id="edge26" class="edge">
<title>Node14&#45;&gt;Node24</title>
<path fill="none" stroke="midnightblue" d="M1045.67,-465.55C1055.08,-468.24 1065,-471.42 1074,-475 1090.81,-481.69 1093.22,-487.24 1110,-494 1115.81,-496.34 1122.01,-498.52 1128.2,-500.5"/>
<polygon fill="midnightblue" stroke="midnightblue" points="1127.27,-503.88 1137.85,-503.46 1129.32,-497.19 1127.27,-503.88"/>
</g>
<!-- Node25 -->
<g id="node25" class="node">
<title>Node25</title>
<g id="a_node25"><a xlink:href="classDashBoard.html#a31caf833ec71b5a8135fd39859f4c2f5" target="_top" xlink:title=" ">
<polygon fill="white" stroke="black" points="1110,-465.5 1110,-484.5 1244,-484.5 1244,-465.5 1110,-465.5"/>
<text text-anchor="middle" x="1177" y="-472.5" font-family="Helvetica,sans-Serif" font-size="10.00">DashBoard::setIntakepress</text>
</a>
</g>
</g>
<!-- Node14&#45;&gt;Node25 -->
<g id="edge27" class="edge">
<title>Node14&#45;&gt;Node25</title>
<path fill="none" stroke="midnightblue" d="M1052,-461.14C1066.74,-462.79 1083.48,-464.66 1099.78,-466.48"/>
<polygon fill="midnightblue" stroke="midnightblue" points="1099.53,-469.97 1109.85,-467.61 1100.3,-463.02 1099.53,-469.97"/>
</g>
<!-- Node26 -->
<g id="node26" class="node">
<title>Node26</title>
<g id="a_node26"><a xlink:href="classDashBoard.html#ae4d194cbb50c7c36bd2d0b2be6b21e6d" target="_top" xlink:title=" ">
<polygon fill="white" stroke="black" points="1111.5,-47.5 1111.5,-66.5 1242.5,-66.5 1242.5,-47.5 1111.5,-47.5"/>
<text text-anchor="middle" x="1177" y="-54.5" font-family="Helvetica,sans-Serif" font-size="10.00">DashBoard::setIntaketemp</text>
</a>
</g>
</g>
<!-- Node14&#45;&gt;Node26 -->
<g id="edge28" class="edge">
<title>Node14&#45;&gt;Node26</title>
<path fill="none" stroke="midnightblue" d="M1052.09,-451.13C1060.46,-448.22 1068.32,-443.76 1074,-437 1177.73,-313.56 1006.75,-199.85 1110,-76 1111,-74.8 1112.07,-73.67 1113.21,-72.61"/>
<polygon fill="midnightblue" stroke="midnightblue" points="1115.46,-75.3 1121.47,-66.57 1111.33,-69.65 1115.46,-75.3"/>
</g>
<!-- Node27 -->
<g id="node27" class="node">
<title>Node27</title>
<g id="a_node27"><a xlink:href="classDashBoard.html#add4eafa05b50837f81332bd06b76f36d" target="_top" xlink:title=" ">
<polygon fill="white" stroke="black" points="1117.5,-427.5 1117.5,-446.5 1236.5,-446.5 1236.5,-427.5 1117.5,-427.5"/>
<text text-anchor="middle" x="1177" y="-434.5" font-family="Helvetica,sans-Serif" font-size="10.00">DashBoard::setIscvduty</text>
</a>
</g>
</g>
<!-- Node14&#45;&gt;Node27 -->
<g id="edge29" class="edge">
<title>Node14&#45;&gt;Node27</title>
<path fill="none" stroke="midnightblue" d="M1052,-450.86C1069.01,-448.96 1088.68,-446.76 1107.27,-444.68"/>
<polygon fill="midnightblue" stroke="midnightblue" points="1107.91,-448.13 1117.46,-443.54 1107.14,-441.17 1107.91,-448.13"/>
</g>
<!-- Node28 -->
<g id="node28" class="node">
<title>Node28</title>
<g id="a_node28"><a xlink:href="classDashBoard.html#acf7ff86dcbb34ee7661c1904191cf7a9" target="_top" xlink:title=" ">
<polygon fill="white" stroke="black" points="1122,-161.5 1122,-180.5 1232,-180.5 1232,-161.5 1122,-161.5"/>
<text text-anchor="middle" x="1177" y="-168.5" font-family="Helvetica,sans-Serif" font-size="10.00">DashBoard::setKnock</text>
</a>
</g>
</g>
<!-- Node14&#45;&gt;Node28 -->
<g id="edge30" class="edge">
<title>Node14&#45;&gt;Node28</title>
<path fill="none" stroke="midnightblue" d="M1052.2,-450.81C1060.46,-447.91 1068.25,-443.53 1074,-437 1147.28,-353.71 1037.05,-273.58 1110,-190 1111.16,-188.67 1112.4,-187.43 1113.72,-186.28"/>
<polygon fill="midnightblue" stroke="midnightblue" points="1115.75,-189.13 1121.96,-180.55 1111.75,-183.39 1115.75,-189.13"/>
</g>
<!-- Node29 -->
<g id="node29" class="node">
<title>Node29</title>
<g id="a_node29"><a xlink:href="classDashBoard.html#a4e90fc531b31a84fa122ade9bdc2ecf1" target="_top" xlink:title=" ">
<polygon fill="white" stroke="black" points="1112,-123.5 1112,-142.5 1242,-142.5 1242,-123.5 1112,-123.5"/>
<text text-anchor="middle" x="1177" y="-130.5" font-family="Helvetica,sans-Serif" font-size="10.00">DashBoard::setLeadingign</text>
</a>
</g>
</g>
<!-- Node14&#45;&gt;Node29 -->
<g id="edge31" class="edge">
<title>Node14&#45;&gt;Node29</title>
<path fill="none" stroke="midnightblue" d="M1052.3,-450.9C1060.55,-447.98 1068.31,-443.59 1074,-437 1157.41,-340.34 1026.96,-248.98 1110,-152 1111.02,-150.81 1112.1,-149.69 1113.25,-148.65"/>
<polygon fill="midnightblue" stroke="midnightblue" points="1115.5,-151.34 1121.57,-142.66 1111.41,-145.66 1115.5,-151.34"/>
</g>
<!-- Node30 -->
<g id="node30" class="node">
<title>Node30</title>
<g id="a_node30"><a xlink:href="classDashBoard.html#a19ed911149392a939ade24ef44180dec" target="_top" xlink:title=" ">
<polygon fill="white" stroke="black" points="1119,-389.5 1119,-408.5 1235,-408.5 1235,-389.5 1119,-389.5"/>
<text text-anchor="middle" x="1177" y="-396.5" font-family="Helvetica,sans-Serif" font-size="10.00">DashBoard::setMAF1V</text>
</a>
</g>
</g>
<!-- Node14&#45;&gt;Node30 -->
<g id="edge32" class="edge">
<title>Node14&#45;&gt;Node30</title>
<path fill="none" stroke="midnightblue" d="M1045.67,-446.45C1055.08,-443.76 1065,-440.58 1074,-437 1090.81,-430.31 1093.22,-424.76 1110,-418 1115.81,-415.66 1122.01,-413.48 1128.2,-411.5"/>
<polygon fill="midnightblue" stroke="midnightblue" points="1129.32,-414.81 1137.85,-408.54 1127.27,-408.12 1129.32,-414.81"/>
</g>
<!-- Node31 -->
<g id="node31" class="node">
<title>Node31</title>
<g id="a_node31"><a xlink:href="classDashBoard.html#a584d76fb3dc3faa498611cdc0a7d572a" target="_top" xlink:title=" ">
<polygon fill="white" stroke="black" points="1119,-351.5 1119,-370.5 1235,-370.5 1235,-351.5 1119,-351.5"/>
<text text-anchor="middle" x="1177" y="-358.5" font-family="Helvetica,sans-Serif" font-size="10.00">DashBoard::setMAF2V</text>
</a>
</g>
</g>
<!-- Node14&#45;&gt;Node31 -->
<g id="edge33" class="edge">
<title>Node14&#45;&gt;Node31</title>
<path fill="none" stroke="midnightblue" d="M1052.05,-448.12C1059.85,-445.43 1067.51,-441.83 1074,-437 1098.03,-419.11 1086.04,-397.99 1110,-380 1112.49,-378.13 1115.17,-376.44 1117.96,-374.92"/>
<polygon fill="midnightblue" stroke="midnightblue" points="1119.61,-378.01 1127.19,-370.6 1116.65,-371.67 1119.61,-378.01"/>
</g>
<!-- Node32 -->
<g id="node32" class="node">
<title>Node32</title>
<g id="a_node32"><a xlink:href="classDashBoard.html#a0cf0a1970e9c2c02886e8587966f6abc" target="_top" xlink:title=" ">
<polygon fill="white" stroke="black" points="1110,-313.5 1110,-332.5 1244,-332.5 1244,-313.5 1110,-313.5"/>
<text text-anchor="middle" x="1177" y="-320.5" font-family="Helvetica,sans-Serif" font-size="10.00">DashBoard::setMAFactivity</text>
</a>
</g>
</g>
<!-- Node14&#45;&gt;Node32 -->
<g id="edge34" class="edge">
<title>Node14&#45;&gt;Node32</title>
<path fill="none" stroke="midnightblue" d="M1052.2,-449.41C1060.17,-446.6 1067.85,-442.62 1074,-437 1107.33,-406.54 1076.79,-372.59 1110,-342 1111.71,-340.42 1113.54,-338.98 1115.47,-337.65"/>
<polygon fill="midnightblue" stroke="midnightblue" points="1117.46,-340.55 1124.43,-332.57 1114,-334.46 1117.46,-340.55"/>
</g>
<!-- Node33 -->
<g id="node33" class="node">
<title>Node33</title>
<g id="a_node33"><a xlink:href="classDashBoard.html#a5480aa312813d238574e103a52bef81f" target="_top" xlink:title=" ">
<polygon fill="white" stroke="black" points="1124,-275.5 1124,-294.5 1230,-294.5 1230,-275.5 1124,-275.5"/>
<text text-anchor="middle" x="1177" y="-282.5" font-family="Helvetica,sans-Serif" font-size="10.00">DashBoard::setMoilp</text>
</a>
</g>
</g>
<!-- Node14&#45;&gt;Node33 -->
<g id="edge35" class="edge">
<title>Node14&#45;&gt;Node33</title>
<path fill="none" stroke="midnightblue" d="M1052.31,-450.01C1060.36,-447.15 1068.04,-443 1074,-437 1117.13,-393.52 1067.04,-347.65 1110,-304 1111.6,-302.38 1113.32,-300.89 1115.15,-299.53"/>
<polygon fill="midnightblue" stroke="midnightblue" points="1116.99,-302.51 1123.72,-294.33 1113.35,-296.53 1116.99,-302.51"/>
</g>
<!-- Node34 -->
<g id="node34" class="node">
<title>Node34</title>
<g id="a_node34"><a xlink:href="classDashBoard.html#a4ddbc9f8b9001cf29ead004af11e972d" target="_top" xlink:title=" ">
<polygon fill="white" stroke="black" points="1128,-237.5 1128,-256.5 1226,-256.5 1226,-237.5 1128,-237.5"/>
<text text-anchor="middle" x="1177" y="-244.5" font-family="Helvetica,sans-Serif" font-size="10.00">DashBoard::setna1</text>
</a>
</g>
</g>
<!-- Node14&#45;&gt;Node34 -->
<g id="edge36" class="edge">
<title>Node14&#45;&gt;Node34</title>
<path fill="none" stroke="midnightblue" d="M1052.24,-450.4C1060.39,-447.52 1068.13,-443.26 1074,-437 1127.11,-380.33 1057.12,-322.88 1110,-266 1112.59,-263.22 1115.55,-260.83 1118.77,-258.79"/>
<polygon fill="midnightblue" stroke="midnightblue" points="1120.47,-261.85 1127.74,-254.14 1117.25,-255.63 1120.47,-261.85"/>
</g>
<!-- Node35 -->
<g id="node35" class="node">
<title>Node35</title>
<g id="a_node35"><a xlink:href="classDashBoard.html#a3992060dbefe28848e9e2a0163a7df21" target="_top" xlink:title=" ">
<polygon fill="white" stroke="black" points="1128,-199.5 1128,-218.5 1226,-218.5 1226,-199.5 1128,-199.5"/>
<text text-anchor="middle" x="1177" y="-206.5" font-family="Helvetica,sans-Serif" font-size="10.00">DashBoard::setna2</text>
</a>
</g>
</g>
<!-- Node14&#45;&gt;Node35 -->
<g id="edge37" class="edge">
<title>Node14&#45;&gt;Node35</title>
<path fill="none" stroke="midnightblue" d="M1052.07,-450.69C1060.34,-447.8 1068.17,-443.46 1074,-437 1137.17,-367.04 1047.11,-298.2 1110,-228 1112.58,-225.12 1115.56,-222.67 1118.81,-220.58"/>
<polygon fill="midnightblue" stroke="midnightblue" points="1120.65,-223.57 1127.9,-215.85 1117.42,-217.35 1120.65,-223.57"/>
</g>
<!-- Node36 -->
<g id="node36" class="node">
<title>Node36</title>
<g id="a_node36"><a xlink:href="classDashBoard.html#a36e46c92b433846ab5932b5622e69905" target="_top" xlink:title=" ">
<polygon fill="white" stroke="black" points="1121.5,-997.5 1121.5,-1016.5 1232.5,-1016.5 1232.5,-997.5 1121.5,-997.5"/>
<text text-anchor="middle" x="1177" y="-1004.5" font-family="Helvetica,sans-Serif" font-size="10.00">DashBoard::setO2volt</text>
</a>
</g>
</g>
<!-- Node14&#45;&gt;Node36 -->
<g id="edge38" class="edge">
<title>Node14&#45;&gt;Node36</title>
<path fill="none" stroke="midnightblue" d="M1052.24,-460.74C1060.6,-463.67 1068.42,-468.16 1074,-475 1146.23,-563.56 1038.12,-899.16 1110,-988 1110.98,-989.22 1112.04,-990.36 1113.16,-991.43"/>
<polygon fill="midnightblue" stroke="midnightblue" points="1111.24,-994.36 1121.35,-997.53 1115.42,-988.75 1111.24,-994.36"/>
</g>
<!-- Node37 -->
<g id="node37" class="node">
<title>Node37</title>
<g id="a_node37"><a xlink:href="classDashBoard.html#a1ff480e57034d577177325f86cba2108" target="_top" xlink:title=" ">
<polygon fill="white" stroke="black" points="1116,-959.5 1116,-978.5 1238,-978.5 1238,-959.5 1116,-959.5"/>
<text text-anchor="middle" x="1177" y="-966.5" font-family="Helvetica,sans-Serif" font-size="10.00">DashBoard::setO2volt_2</text>
</a>
</g>
</g>
<!-- Node14&#45;&gt;Node37 -->
<g id="edge39" class="edge">
<title>Node14&#45;&gt;Node37</title>
<path fill="none" stroke="midnightblue" d="M1052.21,-460.76C1060.58,-463.69 1068.4,-468.18 1074,-475 1141.14,-556.85 1043.18,-867.89 1110,-950 1110.87,-951.07 1111.79,-952.08 1112.76,-953.03"/>
<polygon fill="midnightblue" stroke="midnightblue" points="1110.98,-956.07 1121.07,-959.33 1115.22,-950.5 1110.98,-956.07"/>
</g>
<!-- Node38 -->
<g id="node38" class="node">
<title>Node38</title>
<g id="a_node38"><a xlink:href="classDashBoard.html#ab617d388ec0714d60bf68f19b189d86b" target="_top" xlink:title=" ">
<polygon fill="white" stroke="black" points="1128,-921.5 1128,-940.5 1226,-940.5 1226,-921.5 1128,-921.5"/>
<text text-anchor="middle" x="1177" y="-928.5" font-family="Helvetica,sans-Serif" font-size="10.00">DashBoard::setpim</text>
</a>
</g>
</g>
<!-- Node14&#45;&gt;Node38 -->
<g id="edge40" class="edge">
<title>Node14&#45;&gt;Node38</title>
<path fill="none" stroke="midnightblue" d="M1052.18,-460.79C1060.54,-463.71 1068.38,-468.19 1074,-475 1136.04,-550.13 1048.25,-836.62 1110,-912 1112.56,-915.13 1115.6,-917.76 1118.95,-919.97"/>
<polygon fill="midnightblue" stroke="midnightblue" points="1117.33,-923.08 1127.81,-924.66 1120.6,-916.89 1117.33,-923.08"/>
</g>
<!-- Node39 -->
<g id="node39" class="node">
<title>Node39</title>
<g id="a_node39"><a xlink:href="classDashBoard.html#a8b4be03b152c61f0c3086b92b2ad47d9" target="_top" xlink:title=" ">
<polygon fill="white" stroke="black" points="1113,-883.5 1113,-902.5 1241,-902.5 1241,-883.5 1113,-883.5"/>
<text text-anchor="middle" x="1177" y="-890.5" font-family="Helvetica,sans-Serif" font-size="10.00">DashBoard::setPressureV</text>
</a>
</g>
</g>
<!-- Node14&#45;&gt;Node39 -->
<g id="edge41" class="edge">
<title>Node14&#45;&gt;Node39</title>
<path fill="none" stroke="midnightblue" d="M1052.14,-460.82C1060.5,-463.75 1068.35,-468.22 1074,-475 1130.95,-543.43 1053.31,-805.35 1110,-874 1111,-875.21 1112.06,-876.34 1113.19,-877.4"/>
<polygon fill="midnightblue" stroke="midnightblue" points="1111.3,-880.36 1121.43,-883.46 1115.45,-874.72 1111.3,-880.36"/>
</g>
<!-- Node40 -->
<g id="node40" class="node">
<title>Node40</title>
<g id="a_node40"><a xlink:href="classDashBoard.html#ae10ebf05ada076cdf9034a470dc0138e" target="_top" xlink:title=" ">
<polygon fill="white" stroke="black" points="1113,-845.5 1113,-864.5 1241,-864.5 1241,-845.5 1113,-845.5"/>
<text text-anchor="middle" x="1177" y="-852.5" font-family="Helvetica,sans-Serif" font-size="10.00">DashBoard::setPrimaryinp</text>
</a>
</g>
</g>
<!-- Node14&#45;&gt;Node40 -->
<g id="edge42" class="edge">
<title>Node14&#45;&gt;Node40</title>
<path fill="none" stroke="midnightblue" d="M1052.09,-460.87C1060.46,-463.78 1068.32,-468.24 1074,-475 1177.73,-598.44 1006.75,-712.15 1110,-836 1111,-837.2 1112.07,-838.33 1113.21,-839.39"/>
<polygon fill="midnightblue" stroke="midnightblue" points="1111.33,-842.35 1121.47,-845.43 1115.46,-836.7 1111.33,-842.35"/>
</g>
<!-- Node53&#45;&gt;Node15 -->
<g id="edge45" class="edge">
<title>Node53&#45;&gt;Node15</title>
<path fill="none" stroke="midnightblue" d="M1045.67,-142.45C1055.08,-139.76 1065,-136.58 1074,-133 1090.81,-126.31 1093.22,-120.76 1110,-114 1115.81,-111.66 1122.01,-109.48 1128.2,-107.5"/>
<polygon fill="midnightblue" stroke="midnightblue" points="1129.32,-110.81 1137.85,-104.54 1127.27,-104.12 1129.32,-110.81"/>
</g>
<!-- Node53&#45;&gt;Node26 -->
<g id="edge46" class="edge">
<title>Node53&#45;&gt;Node26</title>
<path fill="none" stroke="midnightblue" d="M1055.58,-142.84C1062.14,-140.31 1068.49,-137.1 1074,-133 1098.03,-115.11 1086.04,-93.99 1110,-76 1112.49,-74.13 1115.17,-72.44 1117.96,-70.92"/>
<polygon fill="midnightblue" stroke="midnightblue" points="1119.61,-74.01 1127.19,-66.6 1116.65,-67.67 1119.61,-74.01"/>
</g>
<!-- Node53&#45;&gt;Node28 -->
<g id="edge47" class="edge">
<title>Node53&#45;&gt;Node28</title>
<path fill="none" stroke="midnightblue" d="M1055.63,-157.55C1073.16,-159.51 1093.13,-161.74 1111.7,-163.81"/>
<polygon fill="midnightblue" stroke="midnightblue" points="1111.52,-167.32 1121.85,-164.95 1112.3,-160.36 1111.52,-167.32"/>
</g>
<!-- Node53&#45;&gt;Node29 -->
<g id="edge48" class="edge">
<title>Node53&#45;&gt;Node29</title>
<path fill="none" stroke="midnightblue" d="M1055.63,-146.45C1070.02,-144.84 1086.06,-143.05 1101.61,-141.31"/>
<polygon fill="midnightblue" stroke="midnightblue" points="1102.19,-144.77 1111.74,-140.18 1101.41,-137.81 1102.19,-144.77"/>
</g>
<!-- Node111&#45;&gt;Node4 -->
<g id="edge59" class="edge">
<title>Node111&#45;&gt;Node4</title>
<path fill="none" stroke="midnightblue" d="M394.18,-177.01C404.88,-178.31 416.41,-179.7 427.8,-181.08"/>
<polygon fill="midnightblue" stroke="midnightblue" points="427.41,-184.56 437.76,-182.29 428.25,-177.61 427.41,-184.56"/>
</g>
<!-- Node111&#45;&gt;Node5 -->
<g id="edge60" class="edge">
<title>Node111&#45;&gt;Node5</title>
<path fill="none" stroke="midnightblue" d="M370.78,-161.46C396.7,-152.05 436.53,-137.59 465.42,-127.1"/>
<polygon fill="midnightblue" stroke="midnightblue" points="466.93,-130.27 475.14,-123.57 464.54,-123.69 466.93,-130.27"/>
</g>
<!-- Node111&#45;&gt;Node7 -->
<g id="edge61" class="edge">
<title>Node111&#45;&gt;Node7</title>
<path fill="none" stroke="midnightblue" d="M394.15,-168.05C449.74,-164.75 539.99,-159.39 600.76,-155.78"/>
<polygon fill="midnightblue" stroke="midnightblue" points="601.22,-159.26 610.99,-155.18 600.8,-152.28 601.22,-159.26"/>
</g>
<!-- Node111&#45;&gt;Node11 -->
<g id="edge62" class="edge">
<title>Node111&#45;&gt;Node11</title>
<path fill="none" stroke="midnightblue" d="M379.63,-180.54C387.2,-183.16 395.03,-186.32 402,-190 433.15,-206.44 464.72,-232.51 483.71,-249.44"/>
<polygon fill="midnightblue" stroke="midnightblue" points="481.51,-252.17 491.27,-256.29 486.21,-246.98 481.51,-252.17"/>
</g>
</g>
</svg>
