<?xml version="1.0" encoding="UTF-8" standalone="no"?>
<!DOCTYPE svg PUBLIC "-//W3C//DTD SVG 1.1//EN"
 "http://www.w3.org/Graphics/SVG/1.1/DTD/svg11.dtd">
<!-- Generated by graphviz version 2.49.3 (20211027.1534)
 -->
<!-- Title: AppSettings::writeRPMFrequencySettings Pages: 1 -->
<svg width="360pt" height="116pt"
 viewBox="0.00 0.00 360.00 116.00" xmlns="http://www.w3.org/2000/svg" xmlns:xlink="http://www.w3.org/1999/xlink">
<g id="graph0" class="graph" transform="scale(1 1) rotate(0) translate(4 112)">
<title>AppSettings::writeRPMFrequencySettings</title>
<polygon fill="white" stroke="transparent" points="-4,4 -4,-112 356,-112 356,4 -4,4"/>
<!-- Node1 -->
<g id="node1" class="node">
<title>Node1</title>
<g id="a_node1"><a xlink:title=" ">
<polygon fill="#bfbfbf" stroke="black" points="0,-39 0,-69 162,-69 162,-39 0,-39"/>
<text text-anchor="start" x="8" y="-57" font-family="Helvetica,sans-Serif" font-size="10.00">AppSettings::writeRPMFrequency</text>
<text text-anchor="middle" x="81" y="-46" font-family="Helvetica,sans-Serif" font-size="10.00">Settings</text>
</a>
</g>
</g>
<!-- Node2 -->
<g id="node2" class="node">
<title>Node2</title>
<g id="a_node2"><a xlink:href="classDashBoard.html#afc973cb4f6075f43701455c52208d22d" target="_top" xlink:title=" ">
<polygon fill="white" stroke="black" points="198,-88.5 198,-107.5 352,-107.5 352,-88.5 198,-88.5"/>
<text text-anchor="middle" x="275" y="-95.5" font-family="Helvetica,sans-Serif" font-size="10.00">DashBoard::setDI1RPMEnabled</text>
</a>
</g>
</g>
<!-- Node1&#45;&gt;Node2 -->
<g id="edge1" class="edge">
<title>Node1&#45;&gt;Node2</title>
<path fill="none" stroke="midnightblue" d="M147.54,-69.02C172.05,-74.64 199.51,-80.93 222.57,-86.21"/>
<polygon fill="midnightblue" stroke="midnightblue" points="221.96,-89.67 232.49,-88.49 223.53,-82.84 221.96,-89.67"/>
</g>
<!-- Node3 -->
<g id="node3" class="node">
<title>Node3</title>
<g id="a_node3"><a xlink:href="classDashBoard.html#a3adc999eee780a92ba4ce42796e5a807" target="_top" xlink:title=" ">
<polygon fill="white" stroke="black" points="200.5,-39 200.5,-69 349.5,-69 349.5,-39 200.5,-39"/>
<text text-anchor="start" x="208.5" y="-57" font-family="Helvetica,sans-Serif" font-size="10.00">DashBoard::setRPMFrequency</text>
<text text-anchor="middle" x="275" y="-46" font-family="Helvetica,sans-Serif" font-size="10.00">DividerDi1</text>
</a>
</g>
</g>
<!-- Node1&#45;&gt;Node3 -->
<g id="edge2" class="edge">
<title>Node1&#45;&gt;Node3</title>
<path fill="none" stroke="midnightblue" d="M162.03,-54C171.33,-54 180.83,-54 190.17,-54"/>
<polygon fill="midnightblue" stroke="midnightblue" points="190.23,-57.5 200.23,-54 190.23,-50.5 190.23,-57.5"/>
</g>
<!-- Node4 -->
<g id="node4" class="node">
<title>Node4</title>
<g id="a_node4"><a xlink:href="classAppSettings.html#a9fe37794c01f77fc192cf961dc1443db" target="_top" xlink:title=" ">
<polygon fill="white" stroke="black" points="218.5,-0.5 218.5,-19.5 331.5,-19.5 331.5,-0.5 218.5,-0.5"/>
<text text-anchor="middle" x="275" y="-7.5" font-family="Helvetica,sans-Serif" font-size="10.00">AppSettings::setValue</text>
</a>
</g>
</g>
<!-- Node1&#45;&gt;Node4 -->
<g id="edge3" class="edge">
<title>Node1&#45;&gt;Node4</title>
<path fill="none" stroke="midnightblue" d="M147.54,-38.98C172.05,-33.36 199.51,-27.07 222.57,-21.79"/>
<polygon fill="midnightblue" stroke="midnightblue" points="223.53,-25.16 232.49,-19.51 221.96,-18.33 223.53,-25.16"/>
</g>
</g>
</svg>
