<?xml version="1.0" encoding="UTF-8" standalone="no"?>
<!DOCTYPE svg PUBLIC "-//W3C//DTD SVG 1.1//EN"
 "http://www.w3.org/Graphics/SVG/1.1/DTD/svg11.dtd">
<!-- Generated by graphviz version 2.49.3 (20211027.1534)
 -->
<!-- Title: Arduino::initSerialPort Pages: 1 -->
<svg width="426pt" height="66pt"
 viewBox="0.00 0.00 426.00 66.00" xmlns="http://www.w3.org/2000/svg" xmlns:xlink="http://www.w3.org/1999/xlink">
<g id="graph0" class="graph" transform="scale(1 1) rotate(0) translate(4 62)">
<title>Arduino::initSerialPort</title>
<polygon fill="white" stroke="transparent" points="-4,4 -4,-62 422,-62 422,4 -4,4"/>
<!-- Node1 -->
<g id="node1" class="node">
<title>Node1</title>
<g id="a_node1"><a xlink:title=" ">
<polygon fill="#bfbfbf" stroke="black" points="0,-19.5 0,-38.5 110,-38.5 110,-19.5 0,-19.5"/>
<text text-anchor="middle" x="55" y="-26.5" font-family="Helvetica,sans-Serif" font-size="10.00">Arduino::initSerialPort</text>
</a>
</g>
</g>
<!-- Node2 -->
<g id="node2" class="node">
<title>Node2</title>
<g id="a_node2"><a xlink:href="classArduino.html#a0b97da51c2c192f994bad0f192d3cae8" target="_top" xlink:title=" ">
<polygon fill="white" stroke="black" points="150,-38.5 150,-57.5 253,-57.5 253,-38.5 150,-38.5"/>
<text text-anchor="middle" x="201.5" y="-45.5" font-family="Helvetica,sans-Serif" font-size="10.00">Arduino::handleError</text>
</a>
</g>
</g>
<!-- Node1&#45;&gt;Node2 -->
<g id="edge1" class="edge">
<title>Node1&#45;&gt;Node2</title>
<path fill="none" stroke="midnightblue" d="M110.22,-36.13C119.85,-37.4 129.93,-38.72 139.73,-40.01"/>
<polygon fill="midnightblue" stroke="midnightblue" points="139.43,-43.5 149.8,-41.33 140.34,-36.56 139.43,-43.5"/>
</g>
<!-- Node4 -->
<g id="node4" class="node">
<title>Node4</title>
<g id="a_node4"><a xlink:href="classArduino.html#aa9571a2c5166e6871f6ee9df9eeaf495" target="_top" xlink:title=" ">
<polygon fill="white" stroke="black" points="146,-0.5 146,-19.5 257,-19.5 257,-0.5 146,-0.5"/>
<text text-anchor="middle" x="201.5" y="-7.5" font-family="Helvetica,sans-Serif" font-size="10.00">Arduino::readyToRead</text>
</a>
</g>
</g>
<!-- Node1&#45;&gt;Node4 -->
<g id="edge3" class="edge">
<title>Node1&#45;&gt;Node4</title>
<path fill="none" stroke="midnightblue" d="M110.22,-21.87C118.62,-20.77 127.37,-19.62 135.98,-18.48"/>
<polygon fill="midnightblue" stroke="midnightblue" points="136.52,-21.94 145.98,-17.17 135.61,-15 136.52,-21.94"/>
</g>
<!-- Node3 -->
<g id="node3" class="node">
<title>Node3</title>
<g id="a_node3"><a xlink:href="classDashBoard.html#aa096e4f8310f6614db7409cef61d7ccb" target="_top" xlink:title=" ">
<polygon fill="white" stroke="black" points="293,-19.5 293,-38.5 418,-38.5 418,-19.5 293,-19.5"/>
<text text-anchor="middle" x="355.5" y="-26.5" font-family="Helvetica,sans-Serif" font-size="10.00">DashBoard::setSerialStat</text>
</a>
</g>
</g>
<!-- Node2&#45;&gt;Node3 -->
<g id="edge2" class="edge">
<title>Node2&#45;&gt;Node3</title>
<path fill="none" stroke="midnightblue" d="M253.11,-41.67C262.64,-40.48 272.76,-39.22 282.78,-37.97"/>
<polygon fill="midnightblue" stroke="midnightblue" points="283.25,-41.43 292.74,-36.72 282.39,-34.49 283.25,-41.43"/>
</g>
<!-- Node4&#45;&gt;Node3 -->
<g id="edge4" class="edge">
<title>Node4&#45;&gt;Node3</title>
<path fill="none" stroke="midnightblue" d="M257.38,-16.86C265.63,-17.89 274.24,-18.97 282.78,-20.03"/>
<polygon fill="midnightblue" stroke="midnightblue" points="282.39,-23.51 292.74,-21.28 283.26,-16.57 282.39,-23.51"/>
</g>
</g>
</svg>
