<?xml version="1.0" encoding="UTF-8" standalone="no"?>
<!DOCTYPE svg PUBLIC "-//W3C//DTD SVG 1.1//EN"
 "http://www.w3.org/Graphics/SVG/1.1/DTD/svg11.dtd">
<!-- Generated by graphviz version 2.49.3 (20211027.1534)
 -->
<!-- Title: DashBoard::rpmChanged Pages: 1 -->
<svg width="1545pt" height="244pt"
 viewBox="0.00 0.00 1545.00 244.00" xmlns="http://www.w3.org/2000/svg" xmlns:xlink="http://www.w3.org/1999/xlink">
<g id="graph0" class="graph" transform="scale(1 1) rotate(0) translate(4 240)">
<title>DashBoard::rpmChanged</title>
<polygon fill="white" stroke="transparent" points="-4,4 -4,-240 1541,-240 1541,4 -4,4"/>
<!-- Node1 -->
<g id="node1" class="node">
<title>Node1</title>
<g id="a_node1"><a xlink:title=" ">
<polygon fill="#bfbfbf" stroke="black" points="1413,-132.5 1413,-151.5 1537,-151.5 1537,-132.5 1413,-132.5"/>
<text text-anchor="middle" x="1475" y="-139.5" font-family="Helvetica,sans-Serif" font-size="10.00">DashBoard::rpmChanged</text>
</a>
</g>
</g>
<!-- Node2 -->
<g id="node2" class="node">
<title>Node2</title>
<g id="a_node2"><a xlink:href="classDashBoard.html#a1ab9446e32205bad972299f2731fc073" target="_top" xlink:title=" ">
<polygon fill="white" stroke="black" points="1225,-154.5 1225,-173.5 1377,-173.5 1377,-154.5 1225,-154.5"/>
<text text-anchor="middle" x="1301" y="-161.5" font-family="Helvetica,sans-Serif" font-size="10.00">DashBoard::setfrequencyDIEX1</text>
</a>
</g>
</g>
<!-- Node1&#45;&gt;Node2 -->
<g id="edge1" class="edge">
<title>Node1&#45;&gt;Node2</title>
<path fill="none" stroke="midnightblue" d="M1402.8,-151.11C1394.11,-152.22 1385.22,-153.36 1376.48,-154.47"/>
<polygon fill="midnightblue" stroke="midnightblue" points="1403.4,-154.56 1412.87,-149.82 1402.51,-147.62 1403.4,-154.56"/>
</g>
<!-- Node9 -->
<g id="node9" class="node">
<title>Node9</title>
<g id="a_node9"><a xlink:href="classDashBoard.html#ab8a26c5ebc87f76cc237e46d8e014403" target="_top" xlink:title=" ">
<polygon fill="white" stroke="black" points="1251.5,-113.5 1251.5,-132.5 1350.5,-132.5 1350.5,-113.5 1251.5,-113.5"/>
<text text-anchor="middle" x="1301" y="-120.5" font-family="Helvetica,sans-Serif" font-size="10.00">DashBoard::setrpm</text>
</a>
</g>
</g>
<!-- Node1&#45;&gt;Node9 -->
<g id="edge9" class="edge">
<title>Node1&#45;&gt;Node9</title>
<path fill="none" stroke="midnightblue" d="M1402.66,-134.12C1385.1,-132.18 1366.7,-130.15 1350.51,-128.36"/>
<polygon fill="midnightblue" stroke="midnightblue" points="1402.55,-137.63 1412.87,-135.25 1403.32,-130.67 1402.55,-137.63"/>
</g>
<!-- Node3 -->
<g id="node3" class="node">
<title>Node3</title>
<g id="a_node3"><a xlink:href="classudpreceiver.html#a725cf4f5cf798fd5baed7eee2e6dd5f2" target="_top" xlink:title=" ">
<polygon fill="white" stroke="black" points="1048,-193 1048,-223 1189,-223 1189,-193 1048,-193"/>
<text text-anchor="start" x="1056" y="-211" font-family="Helvetica,sans-Serif" font-size="10.00">udpreceiver::processPending</text>
<text text-anchor="middle" x="1118.5" y="-200" font-family="Helvetica,sans-Serif" font-size="10.00">Datagrams</text>
</a>
</g>
</g>
<!-- Node2&#45;&gt;Node3 -->
<g id="edge2" class="edge">
<title>Node2&#45;&gt;Node3</title>
<path fill="none" stroke="midnightblue" d="M1250.96,-175.96C1229.49,-181.19 1204.05,-187.39 1181.3,-192.93"/>
<polygon fill="midnightblue" stroke="midnightblue" points="1251.95,-179.32 1260.83,-173.55 1250.29,-172.52 1251.95,-179.32"/>
</g>
<!-- Node6 -->
<g id="node6" class="node">
<title>Node6</title>
<g id="a_node6"><a xlink:href="classExtender.html#ab1ef1d1764fa63ca790092c338272466" target="_top" xlink:title=" ">
<polygon fill="white" stroke="black" points="1060.5,-154.5 1060.5,-173.5 1176.5,-173.5 1176.5,-154.5 1060.5,-154.5"/>
<text text-anchor="middle" x="1118.5" y="-161.5" font-family="Helvetica,sans-Serif" font-size="10.00">Extender::readyToRead</text>
</a>
</g>
</g>
<!-- Node2&#45;&gt;Node6 -->
<g id="edge5" class="edge">
<title>Node2&#45;&gt;Node6</title>
<path fill="none" stroke="midnightblue" d="M1214.53,-164C1201.72,-164 1188.77,-164 1176.74,-164"/>
<polygon fill="midnightblue" stroke="midnightblue" points="1214.76,-167.5 1224.76,-164 1214.76,-160.5 1214.76,-167.5"/>
</g>
<!-- Node4 -->
<g id="node4" class="node">
<title>Node4</title>
<g id="a_node4"><a xlink:href="classudpreceiver.html#a2d7852b9e4be87d9a3ce960d8a7eb9aa" target="_top" xlink:title=" ">
<polygon fill="white" stroke="black" points="501,-216.5 501,-235.5 626,-235.5 626,-216.5 501,-216.5"/>
<text text-anchor="middle" x="563.5" y="-223.5" font-family="Helvetica,sans-Serif" font-size="10.00">udpreceiver::startreceiver</text>
</a>
</g>
</g>
<!-- Node3&#45;&gt;Node4 -->
<g id="edge3" class="edge">
<title>Node3&#45;&gt;Node4</title>
<path fill="none" stroke="midnightblue" d="M1037.61,-213.65C1028.97,-214.16 1020.3,-214.62 1012,-215 874.2,-221.26 712.35,-224.13 626.06,-225.3"/>
<polygon fill="midnightblue" stroke="midnightblue" points="1037.95,-217.14 1047.72,-213.04 1037.53,-210.15 1037.95,-217.14"/>
</g>
<!-- Node5 -->
<g id="node5" class="node">
<title>Node5</title>
<g id="a_node5"><a xlink:href="classConnect.html#a0d674157f4d7442c535837dadd8cf5f1" target="_top" xlink:title=" ">
<polygon fill="white" stroke="black" points="0,-154.5 0,-173.5 127,-173.5 127,-154.5 0,-154.5"/>
<text text-anchor="middle" x="63.5" y="-161.5" font-family="Helvetica,sans-Serif" font-size="10.00">Connect::openConnection</text>
</a>
</g>
</g>
<!-- Node4&#45;&gt;Node5 -->
<g id="edge4" class="edge">
<title>Node4&#45;&gt;Node5</title>
<path fill="none" stroke="midnightblue" d="M490.89,-217.87C410.89,-208.67 277.58,-193.02 163,-178 151.35,-176.47 138.95,-174.77 127,-173.09"/>
<polygon fill="midnightblue" stroke="midnightblue" points="490.52,-221.35 500.85,-219.01 491.32,-214.39 490.52,-221.35"/>
</g>
<!-- Node7 -->
<g id="node7" class="node">
<title>Node7</title>
<g id="a_node7"><a xlink:href="classExtender.html#a91c1b61923744481d7ee80dbd52b98c3" target="_top" xlink:title=" ">
<polygon fill="white" stroke="black" points="870.5,-186.5 870.5,-205.5 1001.5,-205.5 1001.5,-186.5 870.5,-186.5"/>
<text text-anchor="middle" x="936" y="-193.5" font-family="Helvetica,sans-Serif" font-size="10.00">Extender::closeConnection</text>
</a>
</g>
</g>
<!-- Node6&#45;&gt;Node7 -->
<g id="edge6" class="edge">
<title>Node6&#45;&gt;Node7</title>
<path fill="none" stroke="midnightblue" d="M1053.89,-175.28C1033.27,-178.93 1010.61,-182.95 990.77,-186.47"/>
<polygon fill="midnightblue" stroke="midnightblue" points="1054.6,-178.71 1063.83,-173.51 1053.38,-171.81 1054.6,-178.71"/>
</g>
<!-- Node8 -->
<g id="node8" class="node">
<title>Node8</title>
<g id="a_node8"><a xlink:href="classExtender.html#a290c0ffb772638ad4658eac0b0b5931e" target="_top" xlink:title=" ">
<polygon fill="white" stroke="black" points="702.5,-154.5 702.5,-173.5 803.5,-173.5 803.5,-154.5 702.5,-154.5"/>
<text text-anchor="middle" x="753" y="-161.5" font-family="Helvetica,sans-Serif" font-size="10.00">Extender::openCAN</text>
</a>
</g>
</g>
<!-- Node6&#45;&gt;Node8 -->
<g id="edge7" class="edge">
<title>Node6&#45;&gt;Node8</title>
<path fill="none" stroke="midnightblue" d="M1050.06,-164C978.58,-164 867.39,-164 803.57,-164"/>
<polygon fill="midnightblue" stroke="midnightblue" points="1050.3,-167.5 1060.3,-164 1050.3,-160.5 1050.3,-167.5"/>
</g>
<!-- Node8&#45;&gt;Node5 -->
<g id="edge8" class="edge">
<title>Node8&#45;&gt;Node5</title>
<path fill="none" stroke="midnightblue" d="M692.17,-164C562.91,-164 258.66,-164 127.02,-164"/>
<polygon fill="midnightblue" stroke="midnightblue" points="692.28,-167.5 702.28,-164 692.28,-160.5 692.28,-167.5"/>
</g>
<!-- Node9&#45;&gt;Node3 -->
<g id="edge29" class="edge">
<title>Node9&#45;&gt;Node3</title>
<path fill="none" stroke="midnightblue" d="M1243.6,-135.98C1237.1,-138.5 1230.76,-141.48 1225,-145 1205.15,-157.14 1208.47,-170.27 1189,-183 1183.2,-186.79 1176.76,-190.09 1170.2,-192.94"/>
<polygon fill="midnightblue" stroke="midnightblue" points="1244.9,-139.23 1253.17,-132.6 1242.57,-132.63 1244.9,-139.23"/>
</g>
<!-- Node9&#45;&gt;Node6 -->
<g id="edge30" class="edge">
<title>Node9&#45;&gt;Node6</title>
<path fill="none" stroke="midnightblue" d="M1248.29,-134.75C1220.76,-141 1187.34,-148.59 1161.45,-154.47"/>
<polygon fill="midnightblue" stroke="midnightblue" points="1249.16,-138.14 1258.14,-132.51 1247.61,-131.31 1249.16,-138.14"/>
</g>
<!-- Node10 -->
<g id="node10" class="node">
<title>Node10</title>
<g id="a_node10"><a xlink:href="classAdaptronicSelect.html#ae353c5153a25423eb6044be7a2f1bf72" target="_top" xlink:title=" ">
<polygon fill="white" stroke="black" points="1055,-105 1055,-135 1182,-135 1182,-105 1055,-105"/>
<text text-anchor="start" x="1063" y="-123" font-family="Helvetica,sans-Serif" font-size="10.00">AdaptronicSelect::decode</text>
<text text-anchor="middle" x="1118.5" y="-112" font-family="Helvetica,sans-Serif" font-size="10.00">Adaptronic</text>
</a>
</g>
</g>
<!-- Node9&#45;&gt;Node10 -->
<g id="edge10" class="edge">
<title>Node9&#45;&gt;Node10</title>
<path fill="none" stroke="midnightblue" d="M1240.96,-122.02C1222.18,-121.71 1201.35,-121.36 1182.32,-121.04"/>
<polygon fill="midnightblue" stroke="midnightblue" points="1241.1,-125.52 1251.15,-122.19 1241.21,-118.52 1241.1,-125.52"/>
</g>
<!-- Node14 -->
<g id="node14" class="node">
<title>Node14</title>
<g id="a_node14"><a xlink:href="classApexi.html#a3ecd8445700ab9532fc051325f66d03d" target="_top" xlink:title=" ">
<polygon fill="white" stroke="black" points="1071.5,-28.5 1071.5,-47.5 1165.5,-47.5 1165.5,-28.5 1071.5,-28.5"/>
<text text-anchor="middle" x="1118.5" y="-35.5" font-family="Helvetica,sans-Serif" font-size="10.00">Apexi::decodeAdv</text>
</a>
</g>
</g>
<!-- Node9&#45;&gt;Node14 -->
<g id="edge14" class="edge">
<title>Node9&#45;&gt;Node14</title>
<path fill="none" stroke="midnightblue" d="M1278.14,-107.58C1256.41,-92.85 1221.68,-70.88 1189,-57 1180.37,-53.33 1170.82,-50.18 1161.65,-47.56"/>
<polygon fill="midnightblue" stroke="midnightblue" points="1276.4,-110.63 1286.62,-113.41 1280.36,-104.86 1276.4,-110.63"/>
</g>
<!-- Node23 -->
<g id="node23" class="node">
<title>Node23</title>
<g id="a_node23"><a xlink:href="classApexi.html#af3dad564d7c3cca0e98f5944e5e27cdf" target="_top" xlink:title=" ">
<polygon fill="white" stroke="black" points="1068,-66.5 1068,-85.5 1169,-85.5 1169,-66.5 1068,-66.5"/>
<text text-anchor="middle" x="1118.5" y="-73.5" font-family="Helvetica,sans-Serif" font-size="10.00">Apexi::decodeBasic</text>
</a>
</g>
</g>
<!-- Node9&#45;&gt;Node23 -->
<g id="edge27" class="edge">
<title>Node9&#45;&gt;Node23</title>
<path fill="none" stroke="midnightblue" d="M1253.57,-110.91C1223.32,-103.03 1184.39,-92.9 1156.28,-85.58"/>
<polygon fill="midnightblue" stroke="midnightblue" points="1252.91,-114.36 1263.47,-113.49 1254.68,-107.58 1252.91,-114.36"/>
</g>
<!-- Node11 -->
<g id="node11" class="node">
<title>Node11</title>
<g id="a_node11"><a xlink:href="classAdaptronicSelect.html#af5ee85733260355dd5236c796c6a3fc5" target="_top" xlink:title=" ">
<polygon fill="white" stroke="black" points="860,-110.5 860,-129.5 1012,-129.5 1012,-110.5 860,-110.5"/>
<text text-anchor="middle" x="936" y="-117.5" font-family="Helvetica,sans-Serif" font-size="10.00">AdaptronicSelect::readyToRead</text>
</a>
</g>
</g>
<!-- Node10&#45;&gt;Node11 -->
<g id="edge11" class="edge">
<title>Node10&#45;&gt;Node11</title>
<path fill="none" stroke="midnightblue" d="M1044.74,-120C1034.04,-120 1023,-120 1012.25,-120"/>
<polygon fill="midnightblue" stroke="midnightblue" points="1044.88,-123.5 1054.88,-120 1044.88,-116.5 1044.88,-123.5"/>
</g>
<!-- Node12 -->
<g id="node12" class="node">
<title>Node12</title>
<g id="a_node12"><a xlink:href="classAdaptronicSelect.html#a79148c38700405eb6a3fc1338be170ab" target="_top" xlink:title=" ">
<polygon fill="white" stroke="black" points="682,-105 682,-135 824,-135 824,-105 682,-105"/>
<text text-anchor="start" x="690" y="-123" font-family="Helvetica,sans-Serif" font-size="10.00">AdaptronicSelect::Adaptronic</text>
<text text-anchor="middle" x="753" y="-112" font-family="Helvetica,sans-Serif" font-size="10.00">StartStream</text>
</a>
</g>
</g>
<!-- Node11&#45;&gt;Node12 -->
<g id="edge12" class="edge">
<title>Node11&#45;&gt;Node12</title>
<path fill="none" stroke="midnightblue" d="M849.75,-120C841.13,-120 832.45,-120 824.03,-120"/>
<polygon fill="midnightblue" stroke="midnightblue" points="849.81,-123.5 859.81,-120 849.81,-116.5 849.81,-123.5"/>
</g>
<!-- Node13 -->
<g id="node13" class="node">
<title>Node13</title>
<g id="a_node13"><a xlink:href="classAdaptronicSelect.html#a16932b235281a8071bdf5404df8160ac" target="_top" xlink:title=" ">
<polygon fill="white" stroke="black" points="481,-110.5 481,-129.5 646,-129.5 646,-110.5 481,-110.5"/>
<text text-anchor="middle" x="563.5" y="-117.5" font-family="Helvetica,sans-Serif" font-size="10.00">AdaptronicSelect::openConnection</text>
</a>
</g>
</g>
<!-- Node12&#45;&gt;Node13 -->
<g id="edge13" class="edge">
<title>Node12&#45;&gt;Node13</title>
<path fill="none" stroke="midnightblue" d="M671.7,-120C663.25,-120 654.65,-120 646.19,-120"/>
<polygon fill="midnightblue" stroke="midnightblue" points="671.92,-123.5 681.92,-120 671.92,-116.5 671.92,-123.5"/>
</g>
<!-- Node15 -->
<g id="node15" class="node">
<title>Node15</title>
<g id="a_node15"><a xlink:href="classApexi.html#a4e7b389e8d3e283a12733ab4f8492be3" target="_top" xlink:title=" ">
<polygon fill="white" stroke="black" points="894,-28.5 894,-47.5 978,-47.5 978,-28.5 894,-28.5"/>
<text text-anchor="middle" x="936" y="-35.5" font-family="Helvetica,sans-Serif" font-size="10.00">Apexi::readData</text>
</a>
</g>
</g>
<!-- Node14&#45;&gt;Node15 -->
<g id="edge15" class="edge">
<title>Node14&#45;&gt;Node15</title>
<path fill="none" stroke="midnightblue" d="M1061.4,-38C1034.43,-38 1002.68,-38 978,-38"/>
<polygon fill="midnightblue" stroke="midnightblue" points="1061.49,-41.5 1071.49,-38 1061.49,-34.5 1061.49,-41.5"/>
</g>
<!-- Node16 -->
<g id="node16" class="node">
<title>Node16</title>
<g id="a_node16"><a xlink:href="classApexi.html#a4cb1314ab5ca5175aa227ed178148f40" target="_top" xlink:title=" ">
<polygon fill="white" stroke="black" points="709,-66.5 709,-85.5 797,-85.5 797,-66.5 709,-66.5"/>
<text text-anchor="middle" x="753" y="-73.5" font-family="Helvetica,sans-Serif" font-size="10.00">Apexi::apexiECU</text>
</a>
</g>
</g>
<!-- Node15&#45;&gt;Node16 -->
<g id="edge16" class="edge">
<title>Node15&#45;&gt;Node16</title>
<path fill="none" stroke="midnightblue" d="M884.13,-48.68C856.71,-54.44 823.24,-61.46 797.12,-66.95"/>
<polygon fill="midnightblue" stroke="midnightblue" points="884.86,-52.1 893.93,-46.62 883.42,-45.25 884.86,-52.1"/>
</g>
<!-- Node17 -->
<g id="node17" class="node">
<title>Node17</title>
<g id="a_node17"><a xlink:href="classApexi.html#abe3bf6800fce8a4c713a08c14474d625" target="_top" xlink:title=" ">
<polygon fill="white" stroke="black" points="512.5,-66.5 512.5,-85.5 614.5,-85.5 614.5,-66.5 512.5,-66.5"/>
<text text-anchor="middle" x="563.5" y="-73.5" font-family="Helvetica,sans-Serif" font-size="10.00">Apexi::readyToRead</text>
</a>
</g>
</g>
<!-- Node16&#45;&gt;Node17 -->
<g id="edge17" class="edge">
<title>Node16&#45;&gt;Node17</title>
<path fill="none" stroke="midnightblue" d="M698.77,-76C672.34,-76 640.6,-76 614.62,-76"/>
<polygon fill="midnightblue" stroke="midnightblue" points="698.98,-79.5 708.98,-76 698.98,-72.5 698.98,-79.5"/>
</g>
<!-- Node18 -->
<g id="node18" class="node">
<title>Node18</title>
<g id="a_node18"><a xlink:href="classApexi.html#a669124cabae4ada616e650e582c068da" target="_top" xlink:title=" ">
<polygon fill="white" stroke="black" points="328,-28.5 328,-47.5 445,-47.5 445,-28.5 328,-28.5"/>
<text text-anchor="middle" x="386.5" y="-35.5" font-family="Helvetica,sans-Serif" font-size="10.00">Apexi::closeConnection</text>
</a>
</g>
</g>
<!-- Node17&#45;&gt;Node18 -->
<g id="edge18" class="edge">
<title>Node17&#45;&gt;Node18</title>
<path fill="none" stroke="midnightblue" d="M508.38,-64.25C483.63,-58.87 454.7,-52.59 431.34,-47.52"/>
<polygon fill="midnightblue" stroke="midnightblue" points="507.83,-67.71 518.34,-66.41 509.31,-60.87 507.83,-67.71"/>
</g>
<!-- Node22 -->
<g id="node22" class="node">
<title>Node22</title>
<g id="a_node22"><a xlink:href="classApexi.html#a169d6e9466a6c04e6533c8e84fdcaadb" target="_top" xlink:title=" ">
<polygon fill="white" stroke="black" points="336,-66.5 336,-85.5 437,-85.5 437,-66.5 336,-66.5"/>
<text text-anchor="middle" x="386.5" y="-73.5" font-family="Helvetica,sans-Serif" font-size="10.00">Apexi::initSerialPort</text>
</a>
</g>
</g>
<!-- Node17&#45;&gt;Node22 -->
<g id="edge25" class="edge">
<title>Node17&#45;&gt;Node22</title>
<path fill="none" stroke="midnightblue" d="M502.14,-76C480.9,-76 457.3,-76 437.05,-76"/>
<polygon fill="midnightblue" stroke="midnightblue" points="502.35,-79.5 512.35,-76 502.35,-72.5 502.35,-79.5"/>
</g>
<!-- Node18&#45;&gt;Node15 -->
<g id="edge24" class="edge">
<title>Node18&#45;&gt;Node15</title>
<path fill="none" stroke="midnightblue" d="M455.33,-38C570.32,-38 800.19,-38 893.85,-38"/>
<polygon fill="midnightblue" stroke="midnightblue" points="455.23,-34.5 445.23,-38 455.23,-41.5 455.23,-34.5"/>
</g>
<!-- Node19 -->
<g id="node19" class="node">
<title>Node19</title>
<g id="a_node19"><a xlink:href="classConnect.html#abb89a14af2e2b3f6d466c5abfc95cff0" target="_top" xlink:title=" ">
<polygon fill="white" stroke="black" points="163,-28.5 163,-47.5 292,-47.5 292,-28.5 163,-28.5"/>
<text text-anchor="middle" x="227.5" y="-35.5" font-family="Helvetica,sans-Serif" font-size="10.00">Connect::closeConnection</text>
</a>
</g>
</g>
<!-- Node18&#45;&gt;Node19 -->
<g id="edge19" class="edge">
<title>Node18&#45;&gt;Node19</title>
<path fill="none" stroke="midnightblue" d="M317.7,-38C309.22,-38 300.57,-38 292.15,-38"/>
<polygon fill="midnightblue" stroke="midnightblue" points="317.93,-41.5 327.93,-38 317.93,-34.5 317.93,-41.5"/>
</g>
<!-- Node20 -->
<g id="node20" class="node">
<title>Node20</title>
<g id="a_node20"><a xlink:href="classApexi.html#a84e5eadc545afab5fbb0aea8b27e17c3" target="_top" xlink:title=" ">
<polygon fill="white" stroke="black" points="170,-66.5 170,-85.5 285,-85.5 285,-66.5 170,-66.5"/>
<text text-anchor="middle" x="227.5" y="-73.5" font-family="Helvetica,sans-Serif" font-size="10.00">Apexi::openConnection</text>
</a>
</g>
</g>
<!-- Node18&#45;&gt;Node20 -->
<g id="edge20" class="edge">
<title>Node18&#45;&gt;Node20</title>
<path fill="none" stroke="midnightblue" d="M336.05,-49.97C314.05,-55.29 288.51,-61.48 267.83,-66.48"/>
<polygon fill="midnightblue" stroke="midnightblue" points="336.99,-53.34 345.88,-47.59 335.34,-46.54 336.99,-53.34"/>
</g>
<!-- Node20&#45;&gt;Node5 -->
<g id="edge21" class="edge">
<title>Node20&#45;&gt;Node5</title>
<path fill="none" stroke="midnightblue" d="M199.7,-90.56C166.39,-108.65 110.47,-139.03 82.12,-154.43"/>
<polygon fill="midnightblue" stroke="midnightblue" points="201.74,-93.43 208.85,-85.59 198.4,-87.28 201.74,-93.43"/>
</g>
<!-- Node21 -->
<g id="node21" class="node">
<title>Node21</title>
<g id="a_node21"><a xlink:href="classApexi.html#af3673b74b8aebe06a2b2f9ed81c23ee4" target="_top" xlink:title=" ">
<polygon fill="white" stroke="black" points="14.5,-28.5 14.5,-47.5 112.5,-47.5 112.5,-28.5 14.5,-28.5"/>
<text text-anchor="middle" x="63.5" y="-35.5" font-family="Helvetica,sans-Serif" font-size="10.00">Apexi::retryconnect</text>
</a>
</g>
</g>
<!-- Node20&#45;&gt;Node21 -->
<g id="edge22" class="edge">
<title>Node20&#45;&gt;Node21</title>
<path fill="none" stroke="midnightblue" d="M175.79,-64.1C153.01,-58.76 126.51,-52.55 105.09,-47.52"/>
<polygon fill="midnightblue" stroke="midnightblue" points="175.09,-67.53 185.62,-66.41 176.68,-60.72 175.09,-67.53"/>
</g>
<!-- Node21&#45;&gt;Node15 -->
<g id="edge23" class="edge">
<title>Node21&#45;&gt;Node15</title>
<path fill="none" stroke="midnightblue" d="M118.68,-26.49C133.04,-23.73 148.56,-21 163,-19 261.31,-5.36 286.25,0 385.5,0 564.5,0 564.5,0 564.5,0 684.61,0 825.48,-20.01 893.75,-30.99"/>
<polygon fill="midnightblue" stroke="midnightblue" points="117.6,-23.13 108.46,-28.49 118.95,-30 117.6,-23.13"/>
</g>
<!-- Node22&#45;&gt;Node20 -->
<g id="edge26" class="edge">
<title>Node22&#45;&gt;Node20</title>
<path fill="none" stroke="midnightblue" d="M325.82,-76C312.51,-76 298.43,-76 285.24,-76"/>
<polygon fill="midnightblue" stroke="midnightblue" points="325.82,-79.5 335.82,-76 325.82,-72.5 325.82,-79.5"/>
</g>
<!-- Node23&#45;&gt;Node15 -->
<g id="edge28" class="edge">
<title>Node23&#45;&gt;Node15</title>
<path fill="none" stroke="midnightblue" d="M1061.87,-64.29C1034.87,-58.6 1003,-51.89 978.21,-46.68"/>
<polygon fill="midnightblue" stroke="midnightblue" points="1061.45,-67.78 1071.95,-66.41 1062.89,-60.93 1061.45,-67.78"/>
</g>
</g>
</svg>
