<?xml version="1.0" encoding="UTF-8" standalone="no"?>
<!DOCTYPE svg PUBLIC "-//W3C//DTD SVG 1.1//EN"
 "http://www.w3.org/Graphics/SVG/1.1/DTD/svg11.dtd">
<!-- Generated by graphviz version 2.49.3 (20211027.1534)
 -->
<!-- Title: GPS::handleError Pages: 1 -->
<svg width="1319pt" height="255pt"
 viewBox="0.00 0.00 1319.00 255.00" xmlns="http://www.w3.org/2000/svg" xmlns:xlink="http://www.w3.org/1999/xlink">
<g id="graph0" class="graph" transform="scale(1 1) rotate(0) translate(4 251)">
<title>GPS::handleError</title>
<polygon fill="white" stroke="transparent" points="-4,4 -4,-251 1315,-251 1315,4 -4,4"/>
<!-- Node1 -->
<g id="node1" class="node">
<title>Node1</title>
<g id="a_node1"><a xlink:title=" ">
<polygon fill="#bfbfbf" stroke="black" points="1220,-104.5 1220,-123.5 1311,-123.5 1311,-104.5 1220,-104.5"/>
<text text-anchor="middle" x="1265.5" y="-111.5" font-family="Helvetica,sans-Serif" font-size="10.00">GPS::handleError</text>
</a>
</g>
</g>
<!-- Node2 -->
<g id="node2" class="node">
<title>Node2</title>
<g id="a_node2"><a xlink:href="classGPS.html#ae4568ef4d5107c96c1af68d1abd33559" target="_top" xlink:title=" ">
<polygon fill="white" stroke="black" points="1070,-104.5 1070,-123.5 1184,-123.5 1184,-104.5 1070,-104.5"/>
<text text-anchor="middle" x="1127" y="-111.5" font-family="Helvetica,sans-Serif" font-size="10.00">GPS::closeConnection</text>
</a>
</g>
</g>
<!-- Node1&#45;&gt;Node2 -->
<g id="edge1" class="edge">
<title>Node1&#45;&gt;Node2</title>
<path fill="none" stroke="midnightblue" d="M1209.75,-114C1201.36,-114 1192.69,-114 1184.26,-114"/>
<polygon fill="midnightblue" stroke="midnightblue" points="1209.8,-117.5 1219.8,-114 1209.8,-110.5 1209.8,-117.5"/>
</g>
<!-- Node4 -->
<g id="node4" class="node">
<title>Node4</title>
<g id="a_node4"><a xlink:href="classGPS.html#a8775edfa08840ffb2647e0e5ba031fe5" target="_top" xlink:title=" ">
<polygon fill="white" stroke="black" points="445,-28.5 445,-47.5 564,-47.5 564,-28.5 445,-28.5"/>
<text text-anchor="middle" x="504.5" y="-35.5" font-family="Helvetica,sans-Serif" font-size="10.00">GPS::closeConnection1</text>
</a>
</g>
</g>
<!-- Node1&#45;&gt;Node4 -->
<g id="edge20" class="edge">
<title>Node1&#45;&gt;Node4</title>
<path fill="none" stroke="midnightblue" d="M1241.64,-98.98C1192.24,-68.03 1070.95,0 959,0 959,0 959,0 796,0 708.51,0 607.45,-17.15 550.55,-28.41"/>
<polygon fill="midnightblue" stroke="midnightblue" points="1239.96,-102.06 1250.27,-104.48 1243.72,-96.15 1239.96,-102.06"/>
</g>
<!-- Node7 -->
<g id="node7" class="node">
<title>Node7</title>
<g id="a_node7"><a xlink:href="classGPS.html#ac2a7572afb184df9c14ae913f17306bf" target="_top" xlink:title=" ">
<polygon fill="white" stroke="black" points="748,-180.5 748,-199.5 846,-199.5 846,-180.5 748,-180.5"/>
<text text-anchor="middle" x="797" y="-187.5" font-family="Helvetica,sans-Serif" font-size="10.00">GPS::initSerialPort</text>
</a>
</g>
</g>
<!-- Node1&#45;&gt;Node7 -->
<g id="edge21" class="edge">
<title>Node1&#45;&gt;Node7</title>
<path fill="none" stroke="midnightblue" d="M1214.5,-125.93C1204.41,-128.3 1193.87,-130.75 1184,-133 1117.45,-148.17 1101.4,-155.2 1034,-166 969.34,-176.36 893.96,-183.11 846.12,-186.74"/>
<polygon fill="midnightblue" stroke="midnightblue" points="1215.47,-129.29 1224.4,-123.59 1213.86,-122.48 1215.47,-129.29"/>
</g>
<!-- Node3 -->
<g id="node3" class="node">
<title>Node3</title>
<g id="a_node3"><a xlink:href="classGPS.html#aaf69fb801bbce2ea70041e68fe0ec19a" target="_top" xlink:title=" ">
<polygon fill="white" stroke="black" points="882,-66.5 882,-85.5 1034,-85.5 1034,-66.5 882,-66.5"/>
<text text-anchor="middle" x="958" y="-73.5" font-family="Helvetica,sans-Serif" font-size="10.00">GPS::handleReconnectTimeout</text>
</a>
</g>
</g>
<!-- Node2&#45;&gt;Node3 -->
<g id="edge2" class="edge">
<title>Node2&#45;&gt;Node3</title>
<path fill="none" stroke="midnightblue" d="M1094.76,-101.49C1076.57,-96.26 1052.85,-90.43 1030.34,-85.55"/>
<polygon fill="midnightblue" stroke="midnightblue" points="1093.93,-104.89 1104.51,-104.41 1095.93,-98.19 1093.93,-104.89"/>
</g>
<!-- Node8 -->
<g id="node8" class="node">
<title>Node8</title>
<g id="a_node8"><a xlink:href="classGPS.html#a51eaea2422dd980ea0a6d28f12a136de" target="_top" xlink:title=" ">
<polygon fill="white" stroke="black" points="600,-85.5 600,-104.5 712,-104.5 712,-85.5 600,-85.5"/>
<text text-anchor="middle" x="656" y="-92.5" font-family="Helvetica,sans-Serif" font-size="10.00">GPS::openConnection</text>
</a>
</g>
</g>
<!-- Node2&#45;&gt;Node8 -->
<g id="edge19" class="edge">
<title>Node2&#45;&gt;Node8</title>
<path fill="none" stroke="midnightblue" d="M1059.65,-111.9C984.15,-109.43 857.17,-105.02 748,-100 736.46,-99.47 724.1,-98.83 712.33,-98.2"/>
<polygon fill="midnightblue" stroke="midnightblue" points="1059.84,-115.41 1069.95,-112.24 1060.07,-108.41 1059.84,-115.41"/>
</g>
<!-- Node3&#45;&gt;Node2 -->
<g id="edge3" class="edge">
<title>Node3&#45;&gt;Node2</title>
<path fill="none" stroke="midnightblue" d="M990.11,-88.47C1012.49,-94.92 1043.3,-102.27 1069.93,-107.66"/>
<polygon fill="midnightblue" stroke="midnightblue" points="991.05,-85.1 980.47,-85.58 989.04,-91.81 991.05,-85.1"/>
</g>
<!-- Node3&#45;&gt;Node4 -->
<g id="edge4" class="edge">
<title>Node3&#45;&gt;Node4</title>
<path fill="none" stroke="midnightblue" d="M871.77,-68.83C781.84,-61.26 642.53,-49.53 564.18,-42.94"/>
<polygon fill="midnightblue" stroke="midnightblue" points="871.68,-72.33 881.94,-69.68 872.27,-65.36 871.68,-72.33"/>
</g>
<!-- Node3&#45;&gt;Node7 -->
<g id="edge18" class="edge">
<title>Node3&#45;&gt;Node7</title>
<path fill="none" stroke="midnightblue" d="M935.56,-91.37C902.31,-115.21 839.25,-160.43 811.58,-180.26"/>
<polygon fill="midnightblue" stroke="midnightblue" points="937.63,-94.19 943.72,-85.52 933.55,-88.51 937.63,-94.19"/>
</g>
<!-- Node5 -->
<g id="node5" class="node">
<title>Node5</title>
<g id="a_node5"><a xlink:href="classGPS.html#abd750ada6a7b976f72761ce16246ccf6" target="_top" xlink:title=" ">
<polygon fill="white" stroke="black" points="289,-47.5 289,-66.5 409,-66.5 409,-47.5 289,-47.5"/>
<text text-anchor="middle" x="349" y="-54.5" font-family="Helvetica,sans-Serif" font-size="10.00">GPS::setGPSBAUD115</text>
</a>
</g>
</g>
<!-- Node4&#45;&gt;Node5 -->
<g id="edge5" class="edge">
<title>Node4&#45;&gt;Node5</title>
<path fill="none" stroke="midnightblue" d="M434.64,-46.52C426.08,-47.58 417.39,-48.66 409,-49.7"/>
<polygon fill="midnightblue" stroke="midnightblue" points="435.1,-49.99 444.59,-45.29 434.24,-43.05 435.1,-49.99"/>
</g>
<!-- Node6 -->
<g id="node6" class="node">
<title>Node6</title>
<g id="a_node6"><a xlink:href="classGPS.html#a1b1c89214229f5dc8ff7e2fa9cbcad35" target="_top" xlink:title=" ">
<polygon fill="white" stroke="black" points="141,-114.5 141,-133.5 247,-133.5 247,-114.5 141,-114.5"/>
<text text-anchor="middle" x="194" y="-121.5" font-family="Helvetica,sans-Serif" font-size="10.00">GPS::handleTimeout</text>
</a>
</g>
</g>
<!-- Node5&#45;&gt;Node6 -->
<g id="edge6" class="edge">
<title>Node5&#45;&gt;Node6</title>
<path fill="none" stroke="midnightblue" d="M314.36,-70.4C306.04,-73.79 297.17,-77.47 289,-81 263.46,-92.03 234.39,-105.47 215.42,-114.35"/>
<polygon fill="midnightblue" stroke="midnightblue" points="315.83,-73.57 323.79,-66.58 313.21,-67.09 315.83,-73.57"/>
</g>
<!-- Node9 -->
<g id="node9" class="node">
<title>Node9</title>
<g id="a_node9"><a xlink:href="classGPS.html#a217097ae4a846c621f001a5aa1f4fb4f" target="_top" xlink:title=" ">
<polygon fill="white" stroke="black" points="135,-66.5 135,-85.5 253,-85.5 253,-66.5 135,-66.5"/>
<text text-anchor="middle" x="194" y="-73.5" font-family="Helvetica,sans-Serif" font-size="10.00">GPS::ProcessMessage</text>
</a>
</g>
</g>
<!-- Node5&#45;&gt;Node9 -->
<g id="edge13" class="edge">
<title>Node5&#45;&gt;Node9</title>
<path fill="none" stroke="midnightblue" d="M278.87,-65.58C270.31,-66.65 261.62,-67.73 253.24,-68.77"/>
<polygon fill="midnightblue" stroke="midnightblue" points="279.35,-69.05 288.85,-64.35 278.49,-62.11 279.35,-69.05"/>
</g>
<!-- Node6&#45;&gt;Node2 -->
<g id="edge7" class="edge">
<title>Node6&#45;&gt;Node2</title>
<path fill="none" stroke="midnightblue" d="M257.13,-125.64C396.3,-128.93 743.69,-134.95 1034,-122 1045.53,-121.49 1057.85,-120.63 1069.61,-119.66"/>
<polygon fill="midnightblue" stroke="midnightblue" points="257.15,-122.14 247.07,-125.4 256.99,-129.14 257.15,-122.14"/>
</g>
<!-- Node6&#45;&gt;Node4 -->
<g id="edge8" class="edge">
<title>Node6&#45;&gt;Node4</title>
<path fill="none" stroke="midnightblue" d="M257.13,-112.83C300.22,-104.41 358.68,-91.65 409,-76 434.83,-67.97 463.54,-55.96 482.46,-47.6"/>
<polygon fill="midnightblue" stroke="midnightblue" points="256.23,-109.43 247.07,-114.77 257.55,-116.31 256.23,-109.43"/>
</g>
<!-- Node6&#45;&gt;Node7 -->
<g id="edge9" class="edge">
<title>Node6&#45;&gt;Node7</title>
<path fill="none" stroke="midnightblue" d="M238.67,-136.18C254.42,-140.18 272.41,-144.28 289,-147 456.16,-174.37 657.35,-184.86 747.81,-188.41"/>
<polygon fill="midnightblue" stroke="midnightblue" points="239.23,-132.71 228.68,-133.59 237.48,-139.49 239.23,-132.71"/>
</g>
<!-- Node7&#45;&gt;Node8 -->
<g id="edge10" class="edge">
<title>Node7&#45;&gt;Node8</title>
<path fill="none" stroke="midnightblue" d="M773.28,-174.47C744.34,-154.69 695.2,-121.11 671.13,-104.66"/>
<polygon fill="midnightblue" stroke="midnightblue" points="771.68,-177.62 781.91,-180.37 775.63,-171.84 771.68,-177.62"/>
</g>
<!-- Node8&#45;&gt;Node3 -->
<g id="edge12" class="edge">
<title>Node8&#45;&gt;Node3</title>
<path fill="none" stroke="midnightblue" d="M722.51,-90.85C769.42,-87.88 832.69,-83.87 881.68,-80.77"/>
<polygon fill="midnightblue" stroke="midnightblue" points="722.22,-87.36 712.46,-91.49 722.66,-94.35 722.22,-87.36"/>
</g>
<!-- Node8&#45;&gt;Node4 -->
<g id="edge11" class="edge">
<title>Node8&#45;&gt;Node4</title>
<path fill="none" stroke="midnightblue" d="M620.37,-81.8C592.92,-71.33 555.21,-56.95 530.6,-47.57"/>
<polygon fill="midnightblue" stroke="midnightblue" points="619.39,-85.17 629.98,-85.46 621.88,-78.63 619.39,-85.17"/>
</g>
<!-- Node10 -->
<g id="node10" class="node">
<title>Node10</title>
<g id="a_node10"><a xlink:href="classGPS.html#aa0928d156961a54bf06d9b5210d85561" target="_top" xlink:title=" ">
<polygon fill="white" stroke="black" points="0,-142.5 0,-161.5 99,-161.5 99,-142.5 0,-142.5"/>
<text text-anchor="middle" x="49.5" y="-149.5" font-family="Helvetica,sans-Serif" font-size="10.00">GPS::readyToRead</text>
</a>
</g>
</g>
<!-- Node9&#45;&gt;Node10 -->
<g id="edge14" class="edge">
<title>Node9&#45;&gt;Node10</title>
<path fill="none" stroke="midnightblue" d="M164.04,-90.17C154.72,-94.81 144.38,-100.05 135,-105 111.25,-117.54 84.18,-132.76 67.22,-142.42"/>
<polygon fill="midnightblue" stroke="midnightblue" points="165.88,-93.16 173.29,-85.59 162.78,-86.89 165.88,-93.16"/>
</g>
<!-- Node10&#45;&gt;Node2 -->
<g id="edge15" class="edge">
<title>Node10&#45;&gt;Node2</title>
<path fill="none" stroke="midnightblue" d="M71.93,-167.35C88.44,-178.5 112.22,-193.13 135,-202 225.16,-237.1 251.24,-247 348,-247 798,-247 798,-247 798,-247 929.5,-247 1070.35,-154.06 1113.03,-123.57"/>
<polygon fill="midnightblue" stroke="midnightblue" points="73.78,-164.38 63.56,-161.58 69.8,-170.14 73.78,-164.38"/>
</g>
<!-- Node10&#45;&gt;Node4 -->
<g id="edge16" class="edge">
<title>Node10&#45;&gt;Node4</title>
<path fill="none" stroke="midnightblue" d="M61.06,-133.57C74.92,-111.29 101.46,-74.6 135,-57 238.8,-2.52 382.51,-16.22 456.02,-28.46"/>
<polygon fill="midnightblue" stroke="midnightblue" points="57.9,-132.03 55.76,-142.41 63.91,-135.63 57.9,-132.03"/>
</g>
<!-- Node10&#45;&gt;Node7 -->
<g id="edge17" class="edge">
<title>Node10&#45;&gt;Node7</title>
<path fill="none" stroke="midnightblue" d="M89.73,-164.43C146.2,-181.2 253.99,-209 348,-209 505.5,-209 505.5,-209 505.5,-209 590.92,-209 690.16,-200.72 747.75,-195.09"/>
<polygon fill="midnightblue" stroke="midnightblue" points="90.71,-161.07 80.12,-161.54 88.69,-167.78 90.71,-161.07"/>
</g>
</g>
</svg>
