<?xml version="1.0" encoding="UTF-8" standalone="no"?>
<!DOCTYPE svg PUBLIC "-//W3C//DTD SVG 1.1//EN"
 "http://www.w3.org/Graphics/SVG/1.1/DTD/svg11.dtd">
<!-- Generated by graphviz version 2.49.3 (20211027.1534)
 -->
<!-- Title: DashBoard::setsmootexAnalogInput7 Pages: 1 -->
<svg width="486pt" height="88pt"
 viewBox="0.00 0.00 486.00 88.00" xmlns="http://www.w3.org/2000/svg" xmlns:xlink="http://www.w3.org/1999/xlink">
<g id="graph0" class="graph" transform="scale(1 1) rotate(0) translate(4 84)">
<title>DashBoard::setsmootexAnalogInput7</title>
<polygon fill="white" stroke="transparent" points="-4,4 -4,-84 482,-84 482,4 -4,4"/>
<!-- Node1 -->
<g id="node1" class="node">
<title>Node1</title>
<g id="a_node1"><a xlink:title=" ">
<polygon fill="#bfbfbf" stroke="black" points="329,-24.5 329,-54.5 478,-54.5 478,-24.5 329,-24.5"/>
<text text-anchor="start" x="337" y="-42.5" font-family="Helvetica,sans-Serif" font-size="10.00">DashBoard::setsmootexAnalog</text>
<text text-anchor="middle" x="403.5" y="-31.5" font-family="Helvetica,sans-Serif" font-size="10.00">Input7</text>
</a>
</g>
</g>
<!-- Node2 -->
<g id="node2" class="node">
<title>Node2</title>
<g id="a_node2"><a xlink:href="classAppSettings.html#af97c4b73b02f8cf8ef75b11d8f86ac40" target="_top" xlink:title=" ">
<polygon fill="white" stroke="black" points="144.5,-49.5 144.5,-79.5 277.5,-79.5 277.5,-49.5 144.5,-49.5"/>
<text text-anchor="start" x="152.5" y="-67.5" font-family="Helvetica,sans-Serif" font-size="10.00">AppSettings::readandApply</text>
<text text-anchor="middle" x="211" y="-56.5" font-family="Helvetica,sans-Serif" font-size="10.00">Settings</text>
</a>
</g>
</g>
<!-- Node1&#45;&gt;Node2 -->
<g id="edge1" class="edge">
<title>Node1&#45;&gt;Node2</title>
<path fill="none" stroke="midnightblue" d="M318.88,-50.47C305.08,-52.28 290.96,-54.14 277.69,-55.88"/>
<polygon fill="midnightblue" stroke="midnightblue" points="319.39,-53.94 328.85,-49.17 318.48,-47 319.39,-53.94"/>
</g>
<!-- Node4 -->
<g id="node4" class="node">
<title>Node4</title>
<g id="a_node4"><a xlink:href="classAppSettings.html#adbb124ed9b5975b78daadba4bbaa32a3" target="_top" xlink:title=" ">
<polygon fill="white" stroke="black" points="129,-0.5 129,-30.5 293,-30.5 293,-0.5 129,-0.5"/>
<text text-anchor="start" x="137" y="-18.5" font-family="Helvetica,sans-Serif" font-size="10.00">AppSettings::writeEXAN7damping</text>
<text text-anchor="middle" x="211" y="-7.5" font-family="Helvetica,sans-Serif" font-size="10.00">Settings</text>
</a>
</g>
</g>
<!-- Node1&#45;&gt;Node4 -->
<g id="edge3" class="edge">
<title>Node1&#45;&gt;Node4</title>
<path fill="none" stroke="midnightblue" d="M318.86,-28.96C310.29,-27.88 301.59,-26.79 293.05,-25.71"/>
<polygon fill="midnightblue" stroke="midnightblue" points="318.49,-32.44 328.85,-30.22 319.36,-25.5 318.49,-32.44"/>
</g>
<!-- Node3 -->
<g id="node3" class="node">
<title>Node3</title>
<g id="a_node3"><a xlink:href="classConnect.html#a2e3bdc883e226b286ee2ea851bf5f551" target="_top" xlink:title=" ">
<polygon fill="white" stroke="black" points="0,-55 0,-74 93,-74 93,-55 0,-55"/>
<text text-anchor="middle" x="46.5" y="-62" font-family="Helvetica,sans-Serif" font-size="10.00">Connect::Connect</text>
</a>
</g>
</g>
<!-- Node2&#45;&gt;Node3 -->
<g id="edge2" class="edge">
<title>Node2&#45;&gt;Node3</title>
<path fill="none" stroke="midnightblue" d="M134.27,-64.5C120.32,-64.5 106.15,-64.5 93.41,-64.5"/>
<polygon fill="midnightblue" stroke="midnightblue" points="134.37,-68 144.37,-64.5 134.37,-61 134.37,-68"/>
</g>
</g>
</svg>
