<?xml version="1.0" encoding="UTF-8" standalone="no"?>
<!DOCTYPE svg PUBLIC "-//W3C//DTD SVG 1.1//EN"
 "http://www.w3.org/Graphics/SVG/1.1/DTD/svg11.dtd">
<!-- Generated by graphviz version 2.49.3 (20211027.1534)
 -->
<!-- Title: DownloadManager::downloadProgress Pages: 1 -->
<svg width="345pt" height="154pt"
 viewBox="0.00 0.00 345.00 153.50" xmlns="http://www.w3.org/2000/svg" xmlns:xlink="http://www.w3.org/1999/xlink">
<g id="graph0" class="graph" transform="scale(1 1) rotate(0) translate(4 149.5)">
<title>DownloadManager::downloadProgress</title>
<polygon fill="white" stroke="transparent" points="-4,4 -4,-149.5 341,-149.5 341,4 -4,4"/>
<!-- Node1 -->
<g id="node1" class="node">
<title>Node1</title>
<g id="a_node1"><a xlink:title=" ">
<polygon fill="#bfbfbf" stroke="black" points="0,-52 0,-82 143,-82 143,-52 0,-52"/>
<text text-anchor="start" x="8" y="-70" font-family="Helvetica,sans-Serif" font-size="10.00">DownloadManager::download</text>
<text text-anchor="middle" x="71.5" y="-59" font-family="Helvetica,sans-Serif" font-size="10.00">Progress</text>
</a>
</g>
</g>
<!-- Node2 -->
<g id="node2" class="node">
<title>Node2</title>
<g id="a_node2"><a xlink:href="classDownloadManager.html#afe821e6eac5970b806896d1eb5abea30" target="_top" xlink:title=" ">
<polygon fill="white" stroke="black" points="179,-115 179,-145 337,-145 337,-115 179,-115"/>
<text text-anchor="start" x="187" y="-133" font-family="Helvetica,sans-Serif" font-size="10.00">DownloadManager::setDownload</text>
<text text-anchor="middle" x="258" y="-122" font-family="Helvetica,sans-Serif" font-size="10.00">Status</text>
</a>
</g>
</g>
<!-- Node1&#45;&gt;Node2 -->
<g id="edge1" class="edge">
<title>Node1&#45;&gt;Node2</title>
<path fill="none" stroke="midnightblue" d="M113.61,-82.02C133.34,-89.14 157.34,-97.67 179,-105 185.52,-107.21 192.35,-109.47 199.16,-111.69"/>
<polygon fill="midnightblue" stroke="midnightblue" points="198.48,-115.15 209.07,-114.91 200.64,-108.49 198.48,-115.15"/>
</g>
<!-- Node3 -->
<g id="node3" class="node">
<title>Node3</title>
<g id="a_node3"><a xlink:href="classTextProgressBar.html#ae4980260298075636a679d8674aaecc8" target="_top" xlink:title=" ">
<polygon fill="white" stroke="black" points="184.5,-76.5 184.5,-95.5 331.5,-95.5 331.5,-76.5 184.5,-76.5"/>
<text text-anchor="middle" x="258" y="-83.5" font-family="Helvetica,sans-Serif" font-size="10.00">TextProgressBar::setMessage</text>
</a>
</g>
</g>
<!-- Node1&#45;&gt;Node3 -->
<g id="edge2" class="edge">
<title>Node1&#45;&gt;Node3</title>
<path fill="none" stroke="midnightblue" d="M143.04,-74.26C153.29,-75.32 163.93,-76.42 174.39,-77.49"/>
<polygon fill="midnightblue" stroke="midnightblue" points="174.05,-80.98 184.36,-78.52 174.77,-74.01 174.05,-80.98"/>
</g>
<!-- Node4 -->
<g id="node4" class="node">
<title>Node4</title>
<g id="a_node4"><a xlink:href="classTextProgressBar.html#a49dcb117820c89bc02b92b1386648bfb" target="_top" xlink:title=" ">
<polygon fill="white" stroke="black" points="190,-38.5 190,-57.5 326,-57.5 326,-38.5 190,-38.5"/>
<text text-anchor="middle" x="258" y="-45.5" font-family="Helvetica,sans-Serif" font-size="10.00">TextProgressBar::setStatus</text>
</a>
</g>
</g>
<!-- Node1&#45;&gt;Node4 -->
<g id="edge3" class="edge">
<title>Node1&#45;&gt;Node4</title>
<path fill="none" stroke="midnightblue" d="M143.04,-59.74C155.04,-58.5 167.56,-57.21 179.73,-55.96"/>
<polygon fill="midnightblue" stroke="midnightblue" points="180.25,-59.42 189.84,-54.92 179.53,-52.46 180.25,-59.42"/>
</g>
<!-- Node5 -->
<g id="node5" class="node">
<title>Node5</title>
<g id="a_node5"><a xlink:href="classTextProgressBar.html#a1484eaa6c18381dccc0470db1fb4263d" target="_top" xlink:title=" ">
<polygon fill="white" stroke="black" points="196.5,-0.5 196.5,-19.5 319.5,-19.5 319.5,-0.5 196.5,-0.5"/>
<text text-anchor="middle" x="258" y="-7.5" font-family="Helvetica,sans-Serif" font-size="10.00">TextProgressBar::update</text>
</a>
</g>
</g>
<!-- Node1&#45;&gt;Node5 -->
<g id="edge4" class="edge">
<title>Node1&#45;&gt;Node5</title>
<path fill="none" stroke="midnightblue" d="M111.63,-51.94C131.62,-44.53 156.43,-35.76 179,-29 187.16,-26.56 195.86,-24.2 204.39,-22.02"/>
<polygon fill="midnightblue" stroke="midnightblue" points="205.42,-25.37 214.28,-19.56 203.73,-18.58 205.42,-25.37"/>
</g>
</g>
</svg>
