<?xml version="1.0" encoding="UTF-8" standalone="no"?>
<!DOCTYPE svg PUBLIC "-//W3C//DTD SVG 1.1//EN"
 "http://www.w3.org/Graphics/SVG/1.1/DTD/svg11.dtd">
<!-- Generated by graphviz version 2.49.3 (20211027.1534)
 -->
<!-- Title: Connect::Connect Pages: 1 -->
<!--zoomable 1192 -->
<svg id="main" version="1.1" xmlns="http://www.w3.org/2000/svg" xmlns:xlink="http://www.w3.org/1999/xlink" xml:space="preserve" onload="init(evt)">
<style type="text/css"><![CDATA[
.edge:hover path { stroke: red; }
.edge:hover polygon { stroke: red; fill: red; }
]]></style>
<script type="text/javascript"><![CDATA[
var edges = document.getElementsByTagName('g');
if (edges && edges.length) {
  for (var i=0;i<edges.length;i++) {
    if (edges[i].id.substr(0,4)=='edge') {
      edges[i].setAttribute('class','edge');
    }
  }
}
]]></script>
        <defs>
                <circle id="rim" cx="0" cy="0" r="7"/>
                <circle id="rim2" cx="0" cy="0" r="3.5"/>
                <g id="zoomPlus">
                        <use xlink:href="#rim" fill="#404040">
                                <set attributeName="fill" to="#808080" begin="zoomplus.mouseover" end="zoomplus.mouseout"/>
                        </use>
                        <path d="M-4,0h8M0,-4v8" fill="none" stroke="white" stroke-width="1.5" pointer-events="none"/>
                </g>
                <g id="zoomMin">
                        <use xlink:href="#rim" fill="#404040">
                                <set attributeName="fill" to="#808080" begin="zoomminus.mouseover" end="zoomminus.mouseout"/>
                        </use>
                        <path d="M-4,0h8" fill="none" stroke="white" stroke-width="1.5" pointer-events="none"/>
                </g>
                <g id="dirArrow">
                        <path fill="none" stroke="white" stroke-width="1.5" d="M0,-3.0v7 M-2.5,-0.5L0,-3.0L2.5,-0.5"/>
                </g>
               <g id="resetDef">
                       <use xlink:href="#rim2" fill="#404040">
                               <set attributeName="fill" to="#808080" begin="reset.mouseover" end="reset.mouseout"/>
                       </use>
               </g>
        </defs>

<script type="text/javascript">
var viewWidth = 619;
var viewHeight = 1192;
var sectionId = 'dynsection-2';
</script>
<script xlink:href="svgpan.js"/>
<svg id="graph" class="graph">
<g id="viewport">
<title>Connect::Connect</title>
<polygon fill="white" stroke="transparent" points="-4,4 -4,-1188 615,-1188 615,4 -4,4"/>
<!-- Node1 -->
<g id="node1" class="node">
<title>Node1</title>
<g id="a_node1"><a xlink:title=" ">
<polygon fill="#bfbfbf" stroke="black" points="0,-616.5 0,-635.5 93,-635.5 93,-616.5 0,-616.5"/>
<text text-anchor="middle" x="46.5" y="-623.5" font-family="Helvetica,sans-Serif" font-size="10.00">Connect::Connect</text>
</a>
</g>
</g>
<!-- Node2 -->
<g id="node2" class="node">
<title>Node2</title>
<g id="a_node2"><a xlink:href="classConnect.html#a939986dfa3302b44b2eab08eca340989" target="_top" xlink:title=" ">
<polygon fill="white" stroke="black" points="148.5,-901.5 148.5,-920.5 242.5,-920.5 242.5,-901.5 148.5,-901.5"/>
<text text-anchor="middle" x="195.5" y="-908.5" font-family="Helvetica,sans-Serif" font-size="10.00">Connect::getPorts</text>
</a>
</g>
</g>
<!-- Node1&#45;&gt;Node2 -->
<g id="edge1" class="edge">
<title>Node1&#45;&gt;Node2</title>
<path fill="none" stroke="midnightblue" d="M52.56,-635.81C73.85,-677.09 156.38,-837.09 184.81,-892.21"/>
<polygon fill="midnightblue" stroke="midnightblue" points="181.77,-893.95 189.46,-901.23 187.99,-890.74 181.77,-893.95"/>
</g>
<!-- Node4 -->
<g id="node4" class="node">
<title>Node4</title>
<g id="a_node4"><a xlink:href="classAppSettings.html#af97c4b73b02f8cf8ef75b11d8f86ac40" target="_top" xlink:title=" ">
<polygon fill="white" stroke="black" points="129,-589 129,-619 262,-619 262,-589 129,-589"/>
<text text-anchor="start" x="137" y="-607" font-family="Helvetica,sans-Serif" font-size="10.00">AppSettings::readandApply</text>
<text text-anchor="middle" x="195.5" y="-596" font-family="Helvetica,sans-Serif" font-size="10.00">Settings</text>
</a>
</g>
</g>
<!-- Node1&#45;&gt;Node4 -->
<g id="edge4" class="edge">
<title>Node1&#45;&gt;Node4</title>
<path fill="none" stroke="midnightblue" d="M93.21,-619.16C101.41,-617.93 110.16,-616.62 118.95,-615.31"/>
<polygon fill="midnightblue" stroke="midnightblue" points="119.48,-618.77 128.86,-613.82 118.45,-611.84 119.48,-618.77"/>
</g>
<!-- Node2&#45;&gt;Node2 -->
<g id="edge2" class="edge">
<title>Node2&#45;&gt;Node2</title>
<path fill="none" stroke="midnightblue" d="M172.69,-920.76C161.59,-929.57 169.2,-939 195.5,-939 212.76,-939 221.97,-934.94 223.13,-929.65"/>
<polygon fill="midnightblue" stroke="midnightblue" points="226.15,-927.89 218.31,-920.76 219.99,-931.22 226.15,-927.89"/>
</g>
<!-- Node3 -->
<g id="node3" class="node">
<title>Node3</title>
<g id="a_node3"><a xlink:href="classConnect.html#a25f30cf3256dea7159e8f82d8b4cb625" target="_top" xlink:title=" ">
<polygon fill="white" stroke="black" points="316,-1164.5 316,-1183.5 441,-1183.5 441,-1164.5 316,-1164.5"/>
<text text-anchor="middle" x="378.5" y="-1171.5" font-family="Helvetica,sans-Serif" font-size="10.00">Connect::setPortsNames</text>
</a>
</g>
</g>
<!-- Node2&#45;&gt;Node3 -->
<g id="edge3" class="edge">
<title>Node2&#45;&gt;Node3</title>
<path fill="none" stroke="midnightblue" d="M197.45,-920.73C201.61,-957.6 221.51,-1089.84 298,-1155 300.67,-1157.28 303.57,-1159.29 306.63,-1161.07"/>
<polygon fill="midnightblue" stroke="midnightblue" points="305.09,-1164.22 315.61,-1165.5 308.19,-1157.94 305.09,-1164.22"/>
</g>
<!-- Node5 -->
<g id="node5" class="node">
<title>Node5</title>
<g id="a_node5"><a xlink:href="classAppSettings.html#a853abe79f8fc2d1563822f71628d2d5d" target="_top" xlink:title=" ">
<polygon fill="white" stroke="black" points="322,-1126.5 322,-1145.5 435,-1145.5 435,-1126.5 322,-1126.5"/>
<text text-anchor="middle" x="378.5" y="-1133.5" font-family="Helvetica,sans-Serif" font-size="10.00">AppSettings::getValue</text>
</a>
</g>
</g>
<!-- Node4&#45;&gt;Node5 -->
<g id="edge5" class="edge">
<title>Node4&#45;&gt;Node5</title>
<path fill="none" stroke="midnightblue" d="M200.33,-619.22C211.01,-662.01 241.69,-787.03 262,-892 271.62,-941.71 263.58,-1079.86 298,-1117 302.08,-1121.4 306.98,-1124.87 312.32,-1127.58"/>
<polygon fill="midnightblue" stroke="midnightblue" points="311.07,-1130.86 321.65,-1131.49 313.77,-1124.4 311.07,-1130.86"/>
</g>
<!-- Node6 -->
<g id="node6" class="node">
<title>Node6</title>
<g id="a_node6"><a xlink:href="classDashBoard.html#a60c53453e0f6b4eca8af464818d78e6c" target="_top" xlink:title=" ">
<polygon fill="white" stroke="black" points="315,-1088.5 315,-1107.5 442,-1107.5 442,-1088.5 315,-1088.5"/>
<text text-anchor="middle" x="378.5" y="-1095.5" font-family="Helvetica,sans-Serif" font-size="10.00">DashBoard::setAnalogVal</text>
</a>
</g>
</g>
<!-- Node4&#45;&gt;Node6 -->
<g id="edge6" class="edge">
<title>Node4&#45;&gt;Node6</title>
<path fill="none" stroke="midnightblue" d="M200.16,-619.26C210.4,-662.13 240.04,-787.37 262,-892 279.39,-974.83 239.5,-1017.84 298,-1079 300.35,-1081.46 302.97,-1083.63 305.77,-1085.53"/>
<polygon fill="midnightblue" stroke="midnightblue" points="304.22,-1088.68 314.66,-1090.5 307.64,-1082.57 304.22,-1088.68"/>
</g>
<!-- Node7 -->
<g id="node7" class="node">
<title>Node7</title>
<g id="a_node7"><a xlink:href="classDashBoard.html#a0b8631adee9bafae815ad563ff70af82" target="_top" xlink:title=" ">
<polygon fill="white" stroke="black" points="314.5,-1050.5 314.5,-1069.5 442.5,-1069.5 442.5,-1050.5 314.5,-1050.5"/>
<text text-anchor="middle" x="378.5" y="-1057.5" font-family="Helvetica,sans-Serif" font-size="10.00">DashBoard::setboostwarn</text>
</a>
</g>
</g>
<!-- Node4&#45;&gt;Node7 -->
<g id="edge7" class="edge">
<title>Node4&#45;&gt;Node7</title>
<path fill="none" stroke="midnightblue" d="M199.98,-619.22C217.58,-696.2 296.05,-1039.04 298,-1041 300.35,-1043.37 302.94,-1045.46 305.7,-1047.3"/>
<polygon fill="midnightblue" stroke="midnightblue" points="304.01,-1050.37 314.46,-1052.15 307.4,-1044.24 304.01,-1050.37"/>
</g>
<!-- Node8 -->
<g id="node8" class="node">
<title>Node8</title>
<g id="a_node8"><a xlink:href="classDashBoard.html#a859867d33702db5286fc6664ab5e4542" target="_top" xlink:title=" ">
<polygon fill="white" stroke="black" points="314,-1012.5 314,-1031.5 443,-1031.5 443,-1012.5 314,-1012.5"/>
<text text-anchor="middle" x="378.5" y="-1019.5" font-family="Helvetica,sans-Serif" font-size="10.00">DashBoard::setBrightness</text>
</a>
</g>
</g>
<!-- Node4&#45;&gt;Node8 -->
<g id="edge8" class="edge">
<title>Node4&#45;&gt;Node8</title>
<path fill="none" stroke="midnightblue" d="M199.87,-619.04C215.83,-690.04 283.65,-988.86 298,-1003 300.13,-1005.1 302.45,-1006.99 304.92,-1008.67"/>
<polygon fill="midnightblue" stroke="midnightblue" points="303.35,-1011.81 313.77,-1013.69 306.8,-1005.72 303.35,-1011.81"/>
</g>
<!-- Node9 -->
<g id="node9" class="node">
<title>Node9</title>
<g id="a_node9"><a xlink:href="classDashBoard.html#aed67d03267cefbc52a61c47d2b0a5fb3" target="_top" xlink:title=" ">
<polygon fill="white" stroke="black" points="300,-974.5 300,-993.5 457,-993.5 457,-974.5 300,-974.5"/>
<text text-anchor="middle" x="378.5" y="-981.5" font-family="Helvetica,sans-Serif" font-size="10.00">DashBoard::setCBXCountrysave</text>
</a>
</g>
</g>
<!-- Node4&#45;&gt;Node9 -->
<g id="edge9" class="edge">
<title>Node4&#45;&gt;Node9</title>
<path fill="none" stroke="midnightblue" d="M199.82,-619.2C214.24,-684.59 271.83,-939.85 298,-965 299.5,-966.44 301.08,-967.77 302.74,-969.01"/>
<polygon fill="midnightblue" stroke="midnightblue" points="301.22,-972.19 311.57,-974.46 304.89,-966.23 301.22,-972.19"/>
</g>
<!-- Node10 -->
<g id="node10" class="node">
<title>Node10</title>
<g id="a_node10"><a xlink:href="classDashBoard.html#aac4076dee1530b21a6c8ace832efe0e0" target="_top" xlink:title=" ">
<polygon fill="white" stroke="black" points="304,-936.5 304,-955.5 453,-955.5 453,-936.5 304,-936.5"/>
<text text-anchor="middle" x="378.5" y="-943.5" font-family="Helvetica,sans-Serif" font-size="10.00">DashBoard::setCBXTracksave</text>
</a>
</g>
</g>
<!-- Node4&#45;&gt;Node10 -->
<g id="edge10" class="edge">
<title>Node4&#45;&gt;Node10</title>
<path fill="none" stroke="midnightblue" d="M196.36,-619.21C196.76,-670.78 205.36,-840.61 298,-927 299.52,-928.42 301.12,-929.73 302.8,-930.95"/>
<polygon fill="midnightblue" stroke="midnightblue" points="301.33,-934.16 311.7,-936.32 304.94,-928.16 301.33,-934.16"/>
</g>
<!-- Node11 -->
<g id="node11" class="node">
<title>Node11</title>
<g id="a_node11"><a xlink:href="classDashBoard.html#a606543524113eecae9e8914e91c9256d" target="_top" xlink:title=" ">
<polygon fill="white" stroke="black" points="317.5,-898.5 317.5,-917.5 439.5,-917.5 439.5,-898.5 317.5,-898.5"/>
<text text-anchor="middle" x="378.5" y="-905.5" font-family="Helvetica,sans-Serif" font-size="10.00">DashBoard::setCylinders</text>
</a>
</g>
</g>
<!-- Node4&#45;&gt;Node11 -->
<g id="edge11" class="edge">
<title>Node4&#45;&gt;Node11</title>
<path fill="none" stroke="midnightblue" d="M197.08,-619.1C199.77,-666.59 214.76,-814.26 298,-889 301.06,-891.75 304.45,-894.12 308.05,-896.16"/>
<polygon fill="midnightblue" stroke="midnightblue" points="306.83,-899.46 317.37,-900.58 309.84,-893.13 306.83,-899.46"/>
</g>
<!-- Node12 -->
<g id="node12" class="node">
<title>Node12</title>
<g id="a_node12"><a xlink:href="classDashBoard.html#afc973cb4f6075f43701455c52208d22d" target="_top" xlink:title=" ">
<polygon fill="white" stroke="black" points="301.5,-860.5 301.5,-879.5 455.5,-879.5 455.5,-860.5 301.5,-860.5"/>
<text text-anchor="middle" x="378.5" y="-867.5" font-family="Helvetica,sans-Serif" font-size="10.00">DashBoard::setDI1RPMEnabled</text>
</a>
</g>
</g>
<!-- Node4&#45;&gt;Node12 -->
<g id="edge12" class="edge">
<title>Node4&#45;&gt;Node12</title>
<path fill="none" stroke="midnightblue" d="M198.03,-619.24C203.21,-662.64 224.2,-787.86 298,-851 299.98,-852.7 302.09,-854.24 304.29,-855.66"/>
<polygon fill="midnightblue" stroke="midnightblue" points="302.75,-858.81 313.21,-860.49 306.08,-852.65 302.75,-858.81"/>
</g>
<!-- Node13 -->
<g id="node13" class="node">
<title>Node13</title>
<g id="a_node13"><a xlink:href="classDashBoard.html#a3d742d7284a5b5fc16d93899a66b5f67" target="_top" xlink:title=" ">
<polygon fill="white" stroke="black" points="308.5,-822.5 308.5,-841.5 448.5,-841.5 448.5,-822.5 308.5,-822.5"/>
<text text-anchor="middle" x="378.5" y="-829.5" font-family="Helvetica,sans-Serif" font-size="10.00">DashBoard::setEXAnalogVal</text>
</a>
</g>
</g>
<!-- Node4&#45;&gt;Node13 -->
<g id="edge13" class="edge">
<title>Node4&#45;&gt;Node13</title>
<path fill="none" stroke="midnightblue" d="M199.25,-619.13C207.1,-657.85 233.37,-761.09 298,-813 300.08,-814.67 302.29,-816.2 304.59,-817.6"/>
<polygon fill="midnightblue" stroke="midnightblue" points="303.36,-820.9 313.86,-822.36 306.56,-814.68 303.36,-820.9"/>
</g>
<!-- Node14 -->
<g id="node14" class="node">
<title>Node14</title>
<g id="a_node14"><a xlink:href="classDashBoard.html#ab2c598ea86f3d3ab3e3697d58322d13b" target="_top" xlink:title=" ">
<polygon fill="white" stroke="black" points="306,-784.5 306,-803.5 451,-803.5 451,-784.5 306,-784.5"/>
<text text-anchor="middle" x="378.5" y="-791.5" font-family="Helvetica,sans-Serif" font-size="10.00">DashBoard::setExternalSpeed</text>
</a>
</g>
</g>
<!-- Node4&#45;&gt;Node14 -->
<g id="edge14" class="edge">
<title>Node4&#45;&gt;Node14</title>
<path fill="none" stroke="midnightblue" d="M200.97,-619.09C211.73,-652.71 242.41,-734.05 298,-775 300.55,-776.88 303.25,-778.57 306.07,-780.1"/>
<polygon fill="midnightblue" stroke="midnightblue" points="304.85,-783.39 315.39,-784.44 307.8,-777.04 304.85,-783.39"/>
</g>
<!-- Node15 -->
<g id="node15" class="node">
<title>Node15</title>
<g id="a_node15"><a xlink:href="classDashBoard.html#a6c11585c53c99c3f5da21fd1201907e9" target="_top" xlink:title=" ">
<polygon fill="white" stroke="black" points="316,-746.5 316,-765.5 441,-765.5 441,-746.5 316,-746.5"/>
<text text-anchor="middle" x="378.5" y="-753.5" font-family="Helvetica,sans-Serif" font-size="10.00">DashBoard::setgearcalc1</text>
</a>
</g>
</g>
<!-- Node4&#45;&gt;Node15 -->
<g id="edge15" class="edge">
<title>Node4&#45;&gt;Node15</title>
<path fill="none" stroke="midnightblue" d="M203.59,-619.08C217.53,-646.98 251.25,-706.59 298,-737 301.16,-739.06 304.52,-740.89 308,-742.52"/>
<polygon fill="midnightblue" stroke="midnightblue" points="306.89,-745.85 317.47,-746.41 309.54,-739.37 306.89,-745.85"/>
</g>
<!-- Node16 -->
<g id="node16" class="node">
<title>Node16</title>
<g id="a_node16"><a xlink:href="classDashBoard.html#acf253b41e7f3d898351df8e1885e2ccd" target="_top" xlink:title=" ">
<polygon fill="white" stroke="black" points="316,-708.5 316,-727.5 441,-727.5 441,-708.5 316,-708.5"/>
<text text-anchor="middle" x="378.5" y="-715.5" font-family="Helvetica,sans-Serif" font-size="10.00">DashBoard::setgearcalc2</text>
</a>
</g>
</g>
<!-- Node4&#45;&gt;Node16 -->
<g id="edge16" class="edge">
<title>Node4&#45;&gt;Node16</title>
<path fill="none" stroke="midnightblue" d="M208.2,-619.06C225.49,-640.24 259.95,-678.54 298,-699 302.3,-701.31 306.89,-703.35 311.6,-705.14"/>
<polygon fill="midnightblue" stroke="midnightblue" points="310.81,-708.57 321.4,-708.48 313.07,-701.94 310.81,-708.57"/>
</g>
<!-- Node17 -->
<g id="node17" class="node">
<title>Node17</title>
<g id="a_node17"><a xlink:href="classDashBoard.html#aa5abb4e9e8b652f02a19871349c87564" target="_top" xlink:title=" ">
<polygon fill="white" stroke="black" points="316,-670.5 316,-689.5 441,-689.5 441,-670.5 316,-670.5"/>
<text text-anchor="middle" x="378.5" y="-677.5" font-family="Helvetica,sans-Serif" font-size="10.00">DashBoard::setgearcalc3</text>
</a>
</g>
</g>
<!-- Node4&#45;&gt;Node17 -->
<g id="edge17" class="edge">
<title>Node4&#45;&gt;Node17</title>
<path fill="none" stroke="midnightblue" d="M218.98,-619.03C238.98,-631.81 269.39,-649.8 298,-661 304.39,-663.5 311.21,-665.74 318.06,-667.72"/>
<polygon fill="midnightblue" stroke="midnightblue" points="317.51,-671.19 328.07,-670.44 319.34,-664.44 317.51,-671.19"/>
</g>
<!-- Node18 -->
<g id="node18" class="node">
<title>Node18</title>
<g id="a_node18"><a xlink:href="classDashBoard.html#a3968aeb6f512ae3f70a5b434e3fde67f" target="_top" xlink:title=" ">
<polygon fill="white" stroke="black" points="316,-632.5 316,-651.5 441,-651.5 441,-632.5 316,-632.5"/>
<text text-anchor="middle" x="378.5" y="-639.5" font-family="Helvetica,sans-Serif" font-size="10.00">DashBoard::setgearcalc4</text>
</a>
</g>
</g>
<!-- Node4&#45;&gt;Node18 -->
<g id="edge18" class="edge">
<title>Node4&#45;&gt;Node18</title>
<path fill="none" stroke="midnightblue" d="M262.1,-617.77C281.83,-621.91 303.26,-626.41 322.24,-630.4"/>
<polygon fill="midnightblue" stroke="midnightblue" points="321.71,-633.86 332.22,-632.49 323.15,-627.01 321.71,-633.86"/>
</g>
<!-- Node19 -->
<g id="node19" class="node">
<title>Node19</title>
<g id="a_node19"><a xlink:href="classDashBoard.html#a07c539d4cf95ddf8b2820a760a747478" target="_top" xlink:title=" ">
<polygon fill="white" stroke="black" points="316,-594.5 316,-613.5 441,-613.5 441,-594.5 316,-594.5"/>
<text text-anchor="middle" x="378.5" y="-601.5" font-family="Helvetica,sans-Serif" font-size="10.00">DashBoard::setgearcalc5</text>
</a>
</g>
</g>
<!-- Node4&#45;&gt;Node19 -->
<g id="edge19" class="edge">
<title>Node4&#45;&gt;Node19</title>
<path fill="none" stroke="midnightblue" d="M262.1,-604C276.19,-604 291.14,-604 305.45,-604"/>
<polygon fill="midnightblue" stroke="midnightblue" points="305.74,-607.5 315.74,-604 305.74,-600.5 305.74,-607.5"/>
</g>
<!-- Node20 -->
<g id="node20" class="node">
<title>Node20</title>
<g id="a_node20"><a xlink:href="classDashBoard.html#abd03cd29f3de5bae8db390d7178ffc58" target="_top" xlink:title=" ">
<polygon fill="white" stroke="black" points="316,-556.5 316,-575.5 441,-575.5 441,-556.5 316,-556.5"/>
<text text-anchor="middle" x="378.5" y="-563.5" font-family="Helvetica,sans-Serif" font-size="10.00">DashBoard::setgearcalc6</text>
</a>
</g>
</g>
<!-- Node4&#45;&gt;Node20 -->
<g id="edge20" class="edge">
<title>Node4&#45;&gt;Node20</title>
<path fill="none" stroke="midnightblue" d="M262.1,-590.23C281.83,-586.09 303.26,-581.59 322.24,-577.6"/>
<polygon fill="midnightblue" stroke="midnightblue" points="323.15,-580.99 332.22,-575.51 321.71,-574.14 323.15,-580.99"/>
</g>
<!-- Node21 -->
<g id="node21" class="node">
<title>Node21</title>
<g id="a_node21"><a xlink:href="classDashBoard.html#a3eb326cf56cd44d814eb2164be74eafe" target="_top" xlink:title=" ">
<polygon fill="white" stroke="black" points="298,-518.5 298,-537.5 459,-537.5 459,-518.5 298,-518.5"/>
<text text-anchor="middle" x="378.5" y="-525.5" font-family="Helvetica,sans-Serif" font-size="10.00">DashBoard::setgearcalcactivation</text>
</a>
</g>
</g>
<!-- Node4&#45;&gt;Node21 -->
<g id="edge21" class="edge">
<title>Node4&#45;&gt;Node21</title>
<path fill="none" stroke="midnightblue" d="M218.98,-588.97C238.98,-576.19 269.39,-558.2 298,-547 304.39,-544.5 311.21,-542.26 318.06,-540.28"/>
<polygon fill="midnightblue" stroke="midnightblue" points="319.34,-543.56 328.07,-537.56 317.51,-536.81 319.34,-543.56"/>
</g>
<!-- Node22 -->
<g id="node22" class="node">
<title>Node22</title>
<g id="a_node22"><a xlink:href="classDashBoard.html#a810223c01c0841d352de19c81d3ee874" target="_top" xlink:title=" ">
<polygon fill="white" stroke="black" points="313.5,-480.5 313.5,-499.5 443.5,-499.5 443.5,-480.5 313.5,-480.5"/>
<text text-anchor="middle" x="378.5" y="-487.5" font-family="Helvetica,sans-Serif" font-size="10.00">DashBoard::setknockwarn</text>
</a>
</g>
</g>
<!-- Node4&#45;&gt;Node22 -->
<g id="edge22" class="edge">
<title>Node4&#45;&gt;Node22</title>
<path fill="none" stroke="midnightblue" d="M208.2,-588.94C225.49,-567.76 259.95,-529.46 298,-509 302.3,-506.69 306.89,-504.65 311.6,-502.86"/>
<polygon fill="midnightblue" stroke="midnightblue" points="313.07,-506.06 321.4,-499.52 310.81,-499.43 313.07,-506.06"/>
</g>
<!-- Node23 -->
<g id="node23" class="node">
<title>Node23</title>
<g id="a_node23"><a xlink:href="classDashBoard.html#a507aa2a009384304b8daa3322fc0122f" target="_top" xlink:title=" ">
<polygon fill="white" stroke="black" points="303,-442.5 303,-461.5 454,-461.5 454,-442.5 303,-442.5"/>
<text text-anchor="middle" x="378.5" y="-449.5" font-family="Helvetica,sans-Serif" font-size="10.00">DashBoard::setLambdamultiply</text>
</a>
</g>
</g>
<!-- Node4&#45;&gt;Node23 -->
<g id="edge23" class="edge">
<title>Node4&#45;&gt;Node23</title>
<path fill="none" stroke="midnightblue" d="M203.59,-588.92C217.53,-561.02 251.25,-501.41 298,-471 301.16,-468.94 304.52,-467.11 308,-465.48"/>
<polygon fill="midnightblue" stroke="midnightblue" points="309.54,-468.63 317.47,-461.59 306.89,-462.15 309.54,-468.63"/>
</g>
<!-- Node24 -->
<g id="node24" class="node">
<title>Node24</title>
<g id="a_node24"><a xlink:href="classDashBoard.html#ab810c270ff67e50f3e29528e6bc55d3d" target="_top" xlink:title=" ">
<polygon fill="white" stroke="black" points="317.5,-404.5 317.5,-423.5 439.5,-423.5 439.5,-404.5 317.5,-404.5"/>
<text text-anchor="middle" x="378.5" y="-411.5" font-family="Helvetica,sans-Serif" font-size="10.00">DashBoard::setmaxRPM</text>
</a>
</g>
</g>
<!-- Node4&#45;&gt;Node24 -->
<g id="edge24" class="edge">
<title>Node4&#45;&gt;Node24</title>
<path fill="none" stroke="midnightblue" d="M200.97,-588.91C211.73,-555.29 242.41,-473.95 298,-433 301.19,-430.65 304.62,-428.59 308.22,-426.78"/>
<polygon fill="midnightblue" stroke="midnightblue" points="309.64,-429.98 317.42,-422.78 306.85,-423.56 309.64,-429.98"/>
</g>
<!-- Node25 -->
<g id="node25" class="node">
<title>Node25</title>
<g id="a_node25"><a xlink:href="classDashBoard.html#a3adc999eee780a92ba4ce42796e5a807" target="_top" xlink:title=" ">
<polygon fill="white" stroke="black" points="304,-355 304,-385 453,-385 453,-355 304,-355"/>
<text text-anchor="start" x="312" y="-373" font-family="Helvetica,sans-Serif" font-size="10.00">DashBoard::setRPMFrequency</text>
<text text-anchor="middle" x="378.5" y="-362" font-family="Helvetica,sans-Serif" font-size="10.00">DividerDi1</text>
</a>
</g>
</g>
<!-- Node4&#45;&gt;Node25 -->
<g id="edge25" class="edge">
<title>Node4&#45;&gt;Node25</title>
<path fill="none" stroke="midnightblue" d="M199.52,-588.85C207.96,-550.54 235.38,-449.01 298,-395 299.97,-393.3 302.05,-391.72 304.21,-390.25"/>
<polygon fill="midnightblue" stroke="midnightblue" points="306.14,-393.18 312.97,-385.08 302.58,-387.15 306.14,-393.18"/>
</g>
<!-- Node26 -->
<g id="node26" class="node">
<title>Node26</title>
<g id="a_node26"><a xlink:href="classDashBoard.html#af516adaf8303467e67ec414f1b70410a" target="_top" xlink:title=" ">
<polygon fill="white" stroke="black" points="313.5,-316.5 313.5,-335.5 443.5,-335.5 443.5,-316.5 313.5,-316.5"/>
<text text-anchor="middle" x="378.5" y="-323.5" font-family="Helvetica,sans-Serif" font-size="10.00">DashBoard::setrpmStage1</text>
</a>
</g>
</g>
<!-- Node4&#45;&gt;Node26 -->
<g id="edge26" class="edge">
<title>Node4&#45;&gt;Node26</title>
<path fill="none" stroke="midnightblue" d="M197.77,-588.79C202.33,-544.22 221.91,-412.9 298,-346 300.38,-343.91 302.95,-342.03 305.66,-340.34"/>
<polygon fill="midnightblue" stroke="midnightblue" points="307.49,-343.33 314.7,-335.57 304.23,-337.13 307.49,-343.33"/>
</g>
<!-- Node27 -->
<g id="node27" class="node">
<title>Node27</title>
<g id="a_node27"><a xlink:href="classDashBoard.html#aa218a59a7bd9d4f66721d60db7627a42" target="_top" xlink:title=" ">
<polygon fill="white" stroke="black" points="313.5,-278.5 313.5,-297.5 443.5,-297.5 443.5,-278.5 313.5,-278.5"/>
<text text-anchor="middle" x="378.5" y="-285.5" font-family="Helvetica,sans-Serif" font-size="10.00">DashBoard::setrpmStage2</text>
</a>
</g>
</g>
<!-- Node4&#45;&gt;Node27 -->
<g id="edge27" class="edge">
<title>Node4&#45;&gt;Node27</title>
<path fill="none" stroke="midnightblue" d="M196.83,-588.98C198.77,-540.29 211.73,-385.46 298,-307 299.97,-305.2 302.09,-303.57 304.31,-302.08"/>
<polygon fill="midnightblue" stroke="midnightblue" points="306.32,-304.97 313.35,-297.05 302.91,-298.85 306.32,-304.97"/>
</g>
<!-- Node28 -->
<g id="node28" class="node">
<title>Node28</title>
<g id="a_node28"><a xlink:href="classDashBoard.html#a205a221ae5f4d6263493c4bacf481b94" target="_top" xlink:title=" ">
<polygon fill="white" stroke="black" points="313.5,-240.5 313.5,-259.5 443.5,-259.5 443.5,-240.5 313.5,-240.5"/>
<text text-anchor="middle" x="378.5" y="-247.5" font-family="Helvetica,sans-Serif" font-size="10.00">DashBoard::setrpmStage3</text>
</a>
</g>
</g>
<!-- Node4&#45;&gt;Node28 -->
<g id="edge28" class="edge">
<title>Node4&#45;&gt;Node28</title>
<path fill="none" stroke="midnightblue" d="M196.16,-588.98C195.85,-536.44 202.24,-359.22 298,-269 299.94,-267.17 302.03,-265.51 304.23,-263.99"/>
<polygon fill="midnightblue" stroke="midnightblue" points="306.24,-266.87 313.2,-258.88 302.78,-260.79 306.24,-266.87"/>
</g>
<!-- Node29 -->
<g id="node29" class="node">
<title>Node29</title>
<g id="a_node29"><a xlink:href="classDashBoard.html#a9fcc070d6894d0ecb4c2b7cce9555d8e" target="_top" xlink:title=" ">
<polygon fill="white" stroke="black" points="313.5,-202.5 313.5,-221.5 443.5,-221.5 443.5,-202.5 313.5,-202.5"/>
<text text-anchor="middle" x="378.5" y="-209.5" font-family="Helvetica,sans-Serif" font-size="10.00">DashBoard::setrpmStage4</text>
</a>
</g>
</g>
<!-- Node4&#45;&gt;Node29 -->
<g id="edge29" class="edge">
<title>Node4&#45;&gt;Node29</title>
<path fill="none" stroke="midnightblue" d="M198.57,-588.75C207.46,-525.27 244.51,-282.85 298,-231 299.96,-229.1 302.08,-227.38 304.31,-225.82"/>
<polygon fill="midnightblue" stroke="midnightblue" points="306.53,-228.58 313.46,-220.57 303.05,-222.51 306.53,-228.58"/>
</g>
<!-- Node30 -->
<g id="node30" class="node">
<title>Node30</title>
<g id="a_node30"><a xlink:href="classDashBoard.html#aba80b34eccf9d061634a43fb4e6cf26e" target="_top" xlink:title=" ">
<polygon fill="white" stroke="black" points="318.5,-164.5 318.5,-183.5 438.5,-183.5 438.5,-164.5 318.5,-164.5"/>
<text text-anchor="middle" x="378.5" y="-171.5" font-family="Helvetica,sans-Serif" font-size="10.00">DashBoard::setrpmwarn</text>
</a>
</g>
</g>
<!-- Node4&#45;&gt;Node30 -->
<g id="edge30" class="edge">
<title>Node4&#45;&gt;Node30</title>
<path fill="none" stroke="midnightblue" d="M198.17,-588.61C205.83,-520.96 239.7,-250.86 298,-193 301.32,-189.71 305.1,-186.94 309.17,-184.63"/>
<polygon fill="midnightblue" stroke="midnightblue" points="310.91,-187.68 318.48,-180.26 307.94,-181.35 310.91,-187.68"/>
</g>
<!-- Node31 -->
<g id="node31" class="node">
<title>Node31</title>
<g id="a_node31"><a xlink:href="classDashBoard.html#aa09c45f54956fff7f8085735520528a0" target="_top" xlink:title=" ">
<polygon fill="white" stroke="black" points="304,-115 304,-145 453,-145 453,-115 304,-115"/>
<text text-anchor="start" x="312" y="-133" font-family="Helvetica,sans-Serif" font-size="10.00">DashBoard::setsmootexAnalog</text>
<text text-anchor="middle" x="378.5" y="-122" font-family="Helvetica,sans-Serif" font-size="10.00">Input7</text>
</a>
</g>
</g>
<!-- Node4&#45;&gt;Node31 -->
<g id="edge31" class="edge">
<title>Node4&#45;&gt;Node31</title>
<path fill="none" stroke="midnightblue" d="M197.93,-588.75C204.84,-517.86 237.1,-221.14 298,-155 299.21,-153.68 300.49,-152.43 301.83,-151.25"/>
<polygon fill="midnightblue" stroke="midnightblue" points="304.12,-153.92 310.09,-145.17 299.97,-148.28 304.12,-153.92"/>
</g>
<!-- Node33 -->
<g id="node33" class="node">
<title>Node33</title>
<g id="a_node33"><a xlink:href="classDashBoard.html#a8d8938a03ba9b447775e11fd7db43a27" target="_top" xlink:title=" ">
<polygon fill="white" stroke="black" points="308,-76.5 308,-95.5 449,-95.5 449,-76.5 308,-76.5"/>
<text text-anchor="middle" x="378.5" y="-83.5" font-family="Helvetica,sans-Serif" font-size="10.00">DashBoard::setspeedpercent</text>
</a>
</g>
</g>
<!-- Node4&#45;&gt;Node33 -->
<g id="edge33" class="edge">
<title>Node4&#45;&gt;Node33</title>
<path fill="none" stroke="midnightblue" d="M197.47,-588.81C202.58,-513.23 228.89,-178.32 298,-106 299.81,-104.11 301.76,-102.39 303.84,-100.82"/>
<polygon fill="midnightblue" stroke="midnightblue" points="305.74,-103.76 312.37,-95.5 302.04,-97.82 305.74,-103.76"/>
</g>
<!-- Node34 -->
<g id="node34" class="node">
<title>Node34</title>
<g id="a_node34"><a xlink:href="classDashBoard.html#a00c20c8e9cca14615182d1097c337f81" target="_top" xlink:title=" ">
<polygon fill="white" stroke="black" points="308.5,-38.5 308.5,-57.5 448.5,-57.5 448.5,-38.5 308.5,-38.5"/>
<text text-anchor="middle" x="378.5" y="-45.5" font-family="Helvetica,sans-Serif" font-size="10.00">DashBoard::setSteinhartcalc</text>
</a>
</g>
</g>
<!-- Node4&#45;&gt;Node34 -->
<g id="edge34" class="edge">
<title>Node4&#45;&gt;Node34</title>
<path fill="none" stroke="midnightblue" d="M197.2,-588.94C201.16,-510.08 223.37,-145.29 298,-67 299.25,-65.69 300.56,-64.47 301.94,-63.32"/>
<polygon fill="midnightblue" stroke="midnightblue" points="304.12,-66.08 310.46,-57.58 300.21,-60.27 304.12,-66.08"/>
</g>
<!-- Node35 -->
<g id="node35" class="node">
<title>Node35</title>
<g id="a_node35"><a xlink:href="classDashBoard.html#ace54443a345cc34cdc5e8035906ac539" target="_top" xlink:title=" ">
<polygon fill="white" stroke="black" points="314.5,-0.5 314.5,-19.5 442.5,-19.5 442.5,-0.5 314.5,-0.5"/>
<text text-anchor="middle" x="378.5" y="-7.5" font-family="Helvetica,sans-Serif" font-size="10.00">DashBoard::setwaterwarn</text>
</a>
</g>
</g>
<!-- Node4&#45;&gt;Node35 -->
<g id="edge35" class="edge">
<title>Node4&#45;&gt;Node35</title>
<path fill="none" stroke="midnightblue" d="M196.99,-588.98C199.99,-506.93 218.42,-113.49 298,-29 300.21,-26.65 302.66,-24.56 305.29,-22.72"/>
<polygon fill="midnightblue" stroke="midnightblue" points="307.27,-25.62 314.2,-17.61 303.78,-19.55 307.27,-25.62"/>
</g>
<!-- Node32 -->
<g id="node32" class="node">
<title>Node32</title>
<g id="a_node32"><a xlink:href="dashboard_8cpp.html#a2751a06c2fa6c8388f2d37d5d26453f3" target="_top" xlink:title=" ">
<polygon fill="white" stroke="black" points="495,-120.5 495,-139.5 611,-139.5 611,-120.5 495,-120.5"/>
<text text-anchor="middle" x="553" y="-127.5" font-family="Helvetica,sans-Serif" font-size="10.00">averageexanaloginput7</text>
</a>
</g>
</g>
<!-- Node31&#45;&gt;Node32 -->
<g id="edge32" class="edge">
<title>Node31&#45;&gt;Node32</title>
<path fill="none" stroke="midnightblue" d="M453.16,-130C463.6,-130 474.29,-130 484.6,-130"/>
<polygon fill="midnightblue" stroke="midnightblue" points="484.76,-133.5 494.76,-130 484.76,-126.5 484.76,-133.5"/>
</g>
</g>
</svg>
        <g id="navigator" transform="translate(0 0)" fill="#404254">
                <rect fill="#f2f5e9" fill-opacity="0.5" stroke="#606060" stroke-width=".5" x="0" y="0" width="60" height="60"/>
                <use id="zoomplus" xlink:href="#zoomPlus" x="17" y="9" onmousedown="handleZoom(evt,'in')"/>
                <use id="zoomminus" xlink:href="#zoomMin" x="42" y="9" onmousedown="handleZoom(evt,'out')"/>
                <use id="reset" xlink:href="#resetDef" x="30" y="36" onmousedown="handleReset()"/>
                <g id="arrowUp" xlink:href="#dirArrow" transform="translate(30 24)" onmousedown="handlePan(0,-1)">
                  <use xlink:href="#rim" fill="#404040">
                        <set attributeName="fill" to="#808080" begin="arrowUp.mouseover" end="arrowUp.mouseout"/>
                  </use>
                  <path fill="none" stroke="white" stroke-width="1.5" d="M0,-3.0v7 M-2.5,-0.5L0,-3.0L2.5,-0.5"/>
                </g>
                <g id="arrowRight" xlink:href="#dirArrow" transform="rotate(90) translate(36 -43)" onmousedown="handlePan(1,0)">
                  <use xlink:href="#rim" fill="#404040">
                        <set attributeName="fill" to="#808080" begin="arrowRight.mouseover" end="arrowRight.mouseout"/>
                  </use>
                  <path fill="none" stroke="white" stroke-width="1.5" d="M0,-3.0v7 M-2.5,-0.5L0,-3.0L2.5,-0.5"/>
                </g>
                <g id="arrowDown" xlink:href="#dirArrow" transform="rotate(180) translate(-30 -48)" onmousedown="handlePan(0,1)">
                  <use xlink:href="#rim" fill="#404040">
                        <set attributeName="fill" to="#808080" begin="arrowDown.mouseover" end="arrowDown.mouseout"/>
                  </use>
                  <path fill="none" stroke="white" stroke-width="1.5" d="M0,-3.0v7 M-2.5,-0.5L0,-3.0L2.5,-0.5"/>
                </g>
                <g id="arrowLeft" xlink:href="#dirArrow" transform="rotate(270) translate(-36 17)" onmousedown="handlePan(-1,0)">
                  <use xlink:href="#rim" fill="#404040">
                        <set attributeName="fill" to="#808080" begin="arrowLeft.mouseover" end="arrowLeft.mouseout"/>
                  </use>
                  <path fill="none" stroke="white" stroke-width="1.5" d="M0,-3.0v7 M-2.5,-0.5L0,-3.0L2.5,-0.5"/>
                </g>
        </g>
        <svg viewBox="0 0 15 15" width="100%" height="30px" preserveAspectRatio="xMaxYMin meet">
         <g id="arrow_out" transform="scale(0.3 0.3)">
          <a xlink:href="classConnect_a2e3bdc883e226b286ee2ea851bf5f551_cgraph_org.svg" target="_base">
           <rect id="button" ry="5" rx="5" y="6" x="6" height="38" width="38"
                fill="#f2f5e9" fill-opacity="0.5" stroke="#606060" stroke-width="1.0"/>
           <path id="arrow"
             d="M 11.500037,31.436501 C 11.940474,20.09759 22.043105,11.32322 32.158766,21.979434 L 37.068811,17.246167 C 37.068811,17.246167 37.088388,32 37.088388,32 L 22.160133,31.978069 C 22.160133,31.978069 26.997745,27.140456 26.997745,27.140456 C 18.528582,18.264221 13.291696,25.230495 11.500037,31.436501 z"
             style="fill:#404040;"/>
          </a>
         </g>
        </svg>
</svg>
