<?xml version="1.0" encoding="UTF-8" standalone="no"?>
<!DOCTYPE svg PUBLIC "-//W3C//DTD SVG 1.1//EN"
 "http://www.w3.org/Graphics/SVG/1.1/DTD/svg11.dtd">
<!-- Generated by graphviz version 2.49.3 (20211027.1534)
 -->
<!-- Title: Sensors::Gyro Pages: 1 -->
<svg width="369pt" height="104pt"
 viewBox="0.00 0.00 369.00 104.00" xmlns="http://www.w3.org/2000/svg" xmlns:xlink="http://www.w3.org/1999/xlink">
<g id="graph0" class="graph" transform="scale(1 1) rotate(0) translate(4 100)">
<title>Sensors::Gyro</title>
<polygon fill="white" stroke="transparent" points="-4,4 -4,-100 365,-100 365,4 -4,4"/>
<!-- Node1 -->
<g id="node1" class="node">
<title>Node1</title>
<g id="a_node1"><a xlink:title=" ">
<polygon fill="#bfbfbf" stroke="black" points="0,-57.5 0,-76.5 77,-76.5 77,-57.5 0,-57.5"/>
<text text-anchor="middle" x="38.5" y="-64.5" font-family="Helvetica,sans-Serif" font-size="10.00">Sensors::Gyro</text>
</a>
</g>
</g>
<!-- Node2 -->
<g id="node2" class="node">
<title>Node2</title>
<g id="a_node2"><a xlink:href="classSensors.html#a1924cb8692834d02ebfda23353ae44ef" target="_top" xlink:title=" ">
<polygon fill="white" stroke="black" points="128,-76.5 128,-95.5 205,-95.5 205,-76.5 128,-76.5"/>
<text text-anchor="middle" x="166.5" y="-83.5" font-family="Helvetica,sans-Serif" font-size="10.00">Sensors::error</text>
</a>
</g>
</g>
<!-- Node1&#45;&gt;Node2 -->
<g id="edge1" class="edge">
<title>Node1&#45;&gt;Node2</title>
<path fill="none" stroke="midnightblue" d="M77.3,-72.7C90.01,-74.62 104.36,-76.78 117.73,-78.8"/>
<polygon fill="midnightblue" stroke="midnightblue" points="117.31,-82.27 127.72,-80.3 118.36,-75.35 117.31,-82.27"/>
</g>
<!-- Node3 -->
<g id="node3" class="node">
<title>Node3</title>
<g id="a_node3"><a xlink:href="classSensors.html#a0e0a9f2fcc92e0f5141cad6703c3182f" target="_top" xlink:title=" ">
<polygon fill="white" stroke="black" points="113,-38.5 113,-57.5 220,-57.5 220,-38.5 113,-38.5"/>
<text text-anchor="middle" x="166.5" y="-45.5" font-family="Helvetica,sans-Serif" font-size="10.00">Sensors::updateGyro</text>
</a>
</g>
</g>
<!-- Node1&#45;&gt;Node3 -->
<g id="edge2" class="edge">
<title>Node1&#45;&gt;Node3</title>
<path fill="none" stroke="midnightblue" d="M77.3,-61.3C85.33,-60.09 94,-58.78 102.68,-57.47"/>
<polygon fill="midnightblue" stroke="midnightblue" points="103.45,-60.9 112.81,-55.94 102.4,-53.97 103.45,-60.9"/>
</g>
<!-- Node4 -->
<g id="node4" class="node">
<title>Node4</title>
<g id="a_node4"><a xlink:href="classDashBoard.html#ab7161b17c742e7b851d49af35bf890a9" target="_top" xlink:title=" ">
<polygon fill="white" stroke="black" points="256,-76.5 256,-95.5 361,-95.5 361,-76.5 256,-76.5"/>
<text text-anchor="middle" x="308.5" y="-83.5" font-family="Helvetica,sans-Serif" font-size="10.00">DashBoard::setgyrox</text>
</a>
</g>
</g>
<!-- Node3&#45;&gt;Node4 -->
<g id="edge3" class="edge">
<title>Node3&#45;&gt;Node4</title>
<path fill="none" stroke="midnightblue" d="M202.83,-57.59C220.9,-62.49 243.1,-68.52 262.39,-73.76"/>
<polygon fill="midnightblue" stroke="midnightblue" points="261.62,-77.17 272.18,-76.41 263.45,-70.42 261.62,-77.17"/>
</g>
<!-- Node5 -->
<g id="node5" class="node">
<title>Node5</title>
<g id="a_node5"><a xlink:href="classDashBoard.html#afedac94ea1c8e4ee0cf1ab500bd93ee8" target="_top" xlink:title=" ">
<polygon fill="white" stroke="black" points="256,-38.5 256,-57.5 361,-57.5 361,-38.5 256,-38.5"/>
<text text-anchor="middle" x="308.5" y="-45.5" font-family="Helvetica,sans-Serif" font-size="10.00">DashBoard::setgyroy</text>
</a>
</g>
</g>
<!-- Node3&#45;&gt;Node5 -->
<g id="edge4" class="edge">
<title>Node3&#45;&gt;Node5</title>
<path fill="none" stroke="midnightblue" d="M220.03,-48C228.3,-48 236.93,-48 245.39,-48"/>
<polygon fill="midnightblue" stroke="midnightblue" points="245.61,-51.5 255.61,-48 245.61,-44.5 245.61,-51.5"/>
</g>
<!-- Node6 -->
<g id="node6" class="node">
<title>Node6</title>
<g id="a_node6"><a xlink:href="classDashBoard.html#a30d3488953509f88a603354c3a9acc6f" target="_top" xlink:title=" ">
<polygon fill="white" stroke="black" points="256,-0.5 256,-19.5 361,-19.5 361,-0.5 256,-0.5"/>
<text text-anchor="middle" x="308.5" y="-7.5" font-family="Helvetica,sans-Serif" font-size="10.00">DashBoard::setgyroz</text>
</a>
</g>
</g>
<!-- Node3&#45;&gt;Node6 -->
<g id="edge5" class="edge">
<title>Node3&#45;&gt;Node6</title>
<path fill="none" stroke="midnightblue" d="M202.83,-38.41C220.9,-33.51 243.1,-27.48 262.39,-22.24"/>
<polygon fill="midnightblue" stroke="midnightblue" points="263.45,-25.58 272.18,-19.59 261.62,-18.83 263.45,-25.58"/>
</g>
</g>
</svg>
