<?xml version="1.0" encoding="UTF-8" standalone="no"?>
<!DOCTYPE svg PUBLIC "-//W3C//DTD SVG 1.1//EN"
 "http://www.w3.org/Graphics/SVG/1.1/DTD/svg11.dtd">
<!-- Generated by graphviz version 2.49.3 (20211027.1534)
 -->
<!-- Title: Apexi::readyToRead Pages: 1 -->
<svg width="1099pt" height="1341pt"
 viewBox="0.00 0.00 1099.00 1341.11" xmlns="http://www.w3.org/2000/svg" xmlns:xlink="http://www.w3.org/1999/xlink">
<g id="graph0" class="graph" transform="scale(1 1) rotate(0) translate(4 1337.11)">
<title>Apexi::readyToRead</title>
<polygon fill="white" stroke="transparent" points="-4,4 -4,-1337.11 1095,-1337.11 1095,4 -4,4"/>
<!-- Node1 -->
<g id="node1" class="node">
<title>Node1</title>
<g id="a_node1"><a xlink:title=" ">
<polygon fill="#bfbfbf" stroke="black" points="0,-400.5 0,-419.5 102,-419.5 102,-400.5 0,-400.5"/>
<text text-anchor="middle" x="51" y="-407.5" font-family="Helvetica,sans-Serif" font-size="10.00">Apexi::readyToRead</text>
</a>
</g>
</g>
<!-- Node2 -->
<g id="node2" class="node">
<title>Node2</title>
<g id="a_node2"><a xlink:href="classApexi.html#a4cb1314ab5ca5175aa227ed178148f40" target="_top" xlink:title=" ">
<polygon fill="white" stroke="black" points="156.5,-1254.5 156.5,-1273.5 244.5,-1273.5 244.5,-1254.5 156.5,-1254.5"/>
<text text-anchor="middle" x="200.5" y="-1261.5" font-family="Helvetica,sans-Serif" font-size="10.00">Apexi::apexiECU</text>
</a>
</g>
</g>
<!-- Node1&#45;&gt;Node2 -->
<g id="edge1" class="edge">
<title>Node1&#45;&gt;Node2</title>
<path fill="none" stroke="midnightblue" d="M53.66,-419.59C68.3,-504.36 175.54,-1125.26 196.1,-1244.3"/>
<polygon fill="midnightblue" stroke="midnightblue" points="192.71,-1245.22 197.86,-1254.48 199.6,-1244.03 192.71,-1245.22"/>
</g>
<!-- Node112 -->
<g id="node50" class="node">
<title>Node112</title>
<g id="a_node50"><a xlink:href="classDashBoard.html#ab66782991ddf59e10d36f281735971da" target="_top" xlink:title=" ">
<polygon fill="white" stroke="black" points="138,-362.5 138,-381.5 263,-381.5 263,-362.5 138,-362.5"/>
<text text-anchor="middle" x="200.5" y="-369.5" font-family="Helvetica,sans-Serif" font-size="10.00">DashBoard::setRecvData</text>
</a>
</g>
</g>
<!-- Node1&#45;&gt;Node112 -->
<g id="edge58" class="edge">
<title>Node1&#45;&gt;Node112</title>
<path fill="none" stroke="midnightblue" d="M89.22,-400.41C108.51,-395.44 132.26,-389.32 152.77,-384.04"/>
<polygon fill="midnightblue" stroke="midnightblue" points="153.74,-387.4 162.55,-381.52 151.99,-380.63 153.74,-387.4"/>
</g>
<!-- Node3 -->
<g id="node3" class="node">
<title>Node3</title>
<g id="a_node3"><a xlink:href="classApexi.html#a4e7b389e8d3e283a12733ab4f8492be3" target="_top" xlink:title=" ">
<polygon fill="white" stroke="black" points="316,-903.5 316,-922.5 400,-922.5 400,-903.5 316,-903.5"/>
<text text-anchor="middle" x="358" y="-910.5" font-family="Helvetica,sans-Serif" font-size="10.00">Apexi::readData</text>
</a>
</g>
</g>
<!-- Node2&#45;&gt;Node3 -->
<g id="edge2" class="edge">
<title>Node2&#45;&gt;Node3</title>
<path fill="none" stroke="midnightblue" d="M205.82,-1254.25C227.01,-1206.42 320.05,-996.41 348.62,-931.91"/>
<polygon fill="midnightblue" stroke="midnightblue" points="351.92,-933.1 352.77,-922.54 345.52,-930.27 351.92,-933.1"/>
</g>
<!-- Node9 -->
<g id="node8" class="node">
<title>Node9</title>
<g id="a_node8"><a xlink:href="classApexi.html#a9ed7e794f2566b72a448e341233985eb" target="_top" xlink:title=" ">
<polygon fill="white" stroke="black" points="814,-1016.5 814,-1035.5 916,-1035.5 916,-1016.5 814,-1016.5"/>
<text text-anchor="middle" x="865" y="-1023.5" font-family="Helvetica,sans-Serif" font-size="10.00">Apexi::sendRequest</text>
</a>
</g>
</g>
<!-- Node2&#45;&gt;Node9 -->
<g id="edge55" class="edge">
<title>Node2&#45;&gt;Node9</title>
<path fill="none" stroke="midnightblue" d="M213.17,-1273.65C230.57,-1287.34 264.93,-1311.77 299,-1321 421.59,-1354.21 716.97,-1311.72 761,-1278 837.6,-1219.34 857.53,-1094 862.46,-1045.62"/>
<polygon fill="midnightblue" stroke="midnightblue" points="865.96,-1045.81 863.38,-1035.54 858.99,-1045.18 865.96,-1045.81"/>
</g>
<!-- Node11 -->
<g id="node10" class="node">
<title>Node11</title>
<g id="a_node10"><a xlink:href="classDashBoard.html#a7638e10b46688431f57c31bfc7ab1a37" target="_top" xlink:title=" ">
<polygon fill="white" stroke="black" points="797,-665.5 797,-684.5 933,-684.5 933,-665.5 797,-665.5"/>
<text text-anchor="middle" x="865" y="-672.5" font-family="Helvetica,sans-Serif" font-size="10.00">DashBoard::setTimeoutStat</text>
</a>
</g>
</g>
<!-- Node2&#45;&gt;Node11 -->
<g id="edge57" class="edge">
<title>Node2&#45;&gt;Node11</title>
<path fill="none" stroke="midnightblue" d="M244.62,-1265.64C369.13,-1269.93 722.79,-1279.01 761,-1245 800.96,-1209.44 787.71,-1059.68 797,-1007 817.99,-888.02 848.44,-746.17 859.65,-694.8"/>
<polygon fill="midnightblue" stroke="midnightblue" points="863.13,-695.26 861.85,-684.74 856.29,-693.76 863.13,-695.26"/>
</g>
<!-- Node111 -->
<g id="node49" class="node">
<title>Node111</title>
<g id="a_node49"><a xlink:href="classDashBoard.html#af8966ca28767b5686245a42f97431bc8" target="_top" xlink:title=" ">
<polygon fill="white" stroke="black" points="299,-1292.5 299,-1311.5 417,-1311.5 417,-1292.5 299,-1292.5"/>
<text text-anchor="middle" x="358" y="-1299.5" font-family="Helvetica,sans-Serif" font-size="10.00">DashBoard::setRunStat</text>
</a>
</g>
</g>
<!-- Node2&#45;&gt;Node111 -->
<g id="edge56" class="edge">
<title>Node2&#45;&gt;Node111</title>
<path fill="none" stroke="midnightblue" d="M240.74,-1273.59C261.26,-1278.6 286.57,-1284.79 308.33,-1290.11"/>
<polygon fill="midnightblue" stroke="midnightblue" points="307.5,-1293.51 318.04,-1292.48 309.16,-1286.71 307.5,-1293.51"/>
</g>
<!-- Node4 -->
<g id="node4" class="node">
<title>Node4</title>
<g id="a_node4"><a xlink:href="classApexi.html#a669124cabae4ada616e650e582c068da" target="_top" xlink:title=" ">
<polygon fill="white" stroke="black" points="463.5,-76.5 463.5,-95.5 580.5,-95.5 580.5,-76.5 463.5,-76.5"/>
<text text-anchor="middle" x="522" y="-83.5" font-family="Helvetica,sans-Serif" font-size="10.00">Apexi::closeConnection</text>
</a>
</g>
</g>
<!-- Node3&#45;&gt;Node4 -->
<g id="edge3" class="edge">
<title>Node3&#45;&gt;Node4</title>
<path fill="none" stroke="midnightblue" d="M360.88,-903.43C377.14,-820.4 494.24,-222.59 517.13,-105.77"/>
<polygon fill="midnightblue" stroke="midnightblue" points="520.61,-106.22 519.09,-95.73 513.74,-104.88 520.61,-106.22"/>
</g>
<!-- Node12 -->
<g id="node11" class="node">
<title>Node12</title>
<g id="a_node11"><a xlink:href="classApexi.html#a3ecd8445700ab9532fc051325f66d03d" target="_top" xlink:title=" ">
<polygon fill="white" stroke="red" points="475,-741.5 475,-760.5 569,-760.5 569,-741.5 475,-741.5"/>
<text text-anchor="middle" x="522" y="-748.5" font-family="Helvetica,sans-Serif" font-size="10.00">Apexi::decodeAdv</text>
</a>
</g>
</g>
<!-- Node3&#45;&gt;Node12 -->
<g id="edge11" class="edge">
<title>Node3&#45;&gt;Node12</title>
<path fill="none" stroke="midnightblue" d="M368.65,-903.35C395.26,-876.74 469.97,-802.03 503.87,-768.13"/>
<polygon fill="midnightblue" stroke="midnightblue" points="506.6,-770.35 511.2,-760.8 501.65,-765.4 506.6,-770.35"/>
</g>
<!-- Node48 -->
<g id="node42" class="node">
<title>Node48</title>
<g id="a_node42"><a xlink:href="classApexi.html#af82382a1e22fdac04180f1734d59461f" target="_top" xlink:title=" ">
<polygon fill="white" stroke="red" points="475.5,-703.5 475.5,-722.5 568.5,-722.5 568.5,-703.5 475.5,-703.5"/>
<text text-anchor="middle" x="522" y="-710.5" font-family="Helvetica,sans-Serif" font-size="10.00">Apexi::decodeAux</text>
</a>
</g>
</g>
<!-- Node3&#45;&gt;Node48 -->
<g id="edge42" class="edge">
<title>Node3&#45;&gt;Node48</title>
<path fill="none" stroke="midnightblue" d="M361.11,-903.42C368.26,-873.28 394.46,-779.55 453,-732 456.84,-728.88 461.16,-726.27 465.72,-724.09"/>
<polygon fill="midnightblue" stroke="midnightblue" points="467.37,-727.2 475.31,-720.19 464.73,-720.71 467.37,-727.2"/>
</g>
<!-- Node51 -->
<g id="node43" class="node">
<title>Node51</title>
<g id="a_node43"><a xlink:href="classApexi.html#af3dad564d7c3cca0e98f5944e5e27cdf" target="_top" xlink:title=" ">
<polygon fill="white" stroke="red" points="471.5,-1045.5 471.5,-1064.5 572.5,-1064.5 572.5,-1045.5 471.5,-1045.5"/>
<text text-anchor="middle" x="522" y="-1052.5" font-family="Helvetica,sans-Serif" font-size="10.00">Apexi::decodeBasic</text>
</a>
</g>
</g>
<!-- Node3&#45;&gt;Node51 -->
<g id="edge43" class="edge">
<title>Node3&#45;&gt;Node51</title>
<path fill="none" stroke="midnightblue" d="M369.88,-922.54C396.96,-946.27 467.64,-1008.22 501.87,-1038.23"/>
<polygon fill="midnightblue" stroke="midnightblue" points="499.91,-1041.17 509.74,-1045.13 504.53,-1035.9 499.91,-1041.17"/>
</g>
<!-- Node54 -->
<g id="node44" class="node">
<title>Node54</title>
<g id="a_node44"><a xlink:href="classApexi.html#aaa77337f30dd52330c1070ce161eea83" target="_top" xlink:title=" ">
<polygon fill="white" stroke="red" points="477,-665.5 477,-684.5 567,-684.5 567,-665.5 477,-665.5"/>
<text text-anchor="middle" x="522" y="-672.5" font-family="Helvetica,sans-Serif" font-size="10.00">Apexi::decodeInit</text>
</a>
</g>
</g>
<!-- Node3&#45;&gt;Node54 -->
<g id="edge50" class="edge">
<title>Node3&#45;&gt;Node54</title>
<path fill="none" stroke="midnightblue" d="M360.18,-903.42C364.87,-869.37 385.44,-753.13 453,-694 457.21,-690.32 462.08,-687.34 467.24,-684.94"/>
<polygon fill="midnightblue" stroke="midnightblue" points="468.72,-688.12 476.76,-681.21 466.17,-681.6 468.72,-688.12"/>
</g>
<!-- Node56 -->
<g id="node45" class="node">
<title>Node56</title>
<g id="a_node45"><a xlink:href="classApexi.html#a8434798529c3e79a33445e2ba626d8a2" target="_top" xlink:title=" ">
<polygon fill="white" stroke="black" points="474.5,-627.5 474.5,-646.5 569.5,-646.5 569.5,-627.5 474.5,-627.5"/>
<text text-anchor="middle" x="522" y="-634.5" font-family="Helvetica,sans-Serif" font-size="10.00">Apexi::decodeMap</text>
</a>
</g>
</g>
<!-- Node3&#45;&gt;Node56 -->
<g id="edge51" class="edge">
<title>Node3&#45;&gt;Node56</title>
<path fill="none" stroke="midnightblue" d="M359.5,-903.39C362,-865.76 376.26,-726.96 453,-656 456.58,-652.69 460.69,-649.95 465.08,-647.68"/>
<polygon fill="midnightblue" stroke="midnightblue" points="466.6,-650.84 474.39,-643.66 463.83,-644.41 466.6,-650.84"/>
</g>
<!-- Node57 -->
<g id="node46" class="node">
<title>Node57</title>
<g id="a_node46"><a xlink:href="classApexi.html#a6ce2b40858fc637448d1f6dc27e10a70" target="_top" xlink:title=" ">
<polygon fill="white" stroke="red" points="468.5,-1159.5 468.5,-1178.5 575.5,-1178.5 575.5,-1159.5 468.5,-1159.5"/>
<text text-anchor="middle" x="522" y="-1166.5" font-family="Helvetica,sans-Serif" font-size="10.00">Apexi::decodeSensor</text>
</a>
</g>
</g>
<!-- Node3&#45;&gt;Node57 -->
<g id="edge52" class="edge">
<title>Node3&#45;&gt;Node57</title>
<path fill="none" stroke="midnightblue" d="M359.86,-922.85C363.54,-958.97 381.28,-1085.45 453,-1150 454.95,-1151.76 457.06,-1153.35 459.27,-1154.8"/>
<polygon fill="midnightblue" stroke="midnightblue" points="457.82,-1158 468.28,-1159.7 461.16,-1151.85 457.82,-1158"/>
</g>
<!-- Node82 -->
<g id="node47" class="node">
<title>Node82</title>
<g id="a_node47"><a xlink:href="classApexi.html#a45f8db235553ca011083224aec6b3892" target="_top" xlink:title=" ">
<polygon fill="white" stroke="red" points="453,-1121.5 453,-1140.5 591,-1140.5 591,-1121.5 453,-1121.5"/>
<text text-anchor="middle" x="522" y="-1128.5" font-family="Helvetica,sans-Serif" font-size="10.00">Apexi::decodeSensorStrings</text>
</a>
</g>
</g>
<!-- Node3&#45;&gt;Node82 -->
<g id="edge53" class="edge">
<title>Node3&#45;&gt;Node82</title>
<path fill="none" stroke="midnightblue" d="M360.63,-922.6C366.59,-954.67 390.22,-1059.02 453,-1112 455.01,-1113.69 457.16,-1115.24 459.41,-1116.65"/>
<polygon fill="midnightblue" stroke="midnightblue" points="458.04,-1119.88 468.52,-1121.42 461.29,-1113.68 458.04,-1119.88"/>
</g>
<!-- Node107 -->
<g id="node48" class="node">
<title>Node107</title>
<g id="a_node48"><a xlink:href="classApexi.html#af3673b74b8aebe06a2b2f9ed81c23ee4" target="_top" xlink:title=" ">
<polygon fill="white" stroke="red" points="473,-1083.5 473,-1102.5 571,-1102.5 571,-1083.5 473,-1083.5"/>
<text text-anchor="middle" x="522" y="-1090.5" font-family="Helvetica,sans-Serif" font-size="10.00">Apexi::retryconnect</text>
</a>
</g>
</g>
<!-- Node3&#45;&gt;Node107 -->
<g id="edge54" class="edge">
<title>Node3&#45;&gt;Node107</title>
<path fill="none" stroke="midnightblue" d="M361.8,-922.7C370.41,-950.73 399.2,-1032.47 453,-1074 456.18,-1076.46 459.67,-1078.6 463.32,-1080.46"/>
<polygon fill="midnightblue" stroke="midnightblue" points="462.13,-1083.76 472.69,-1084.54 464.93,-1077.34 462.13,-1083.76"/>
</g>
<!-- Node4&#45;&gt;Node1 -->
<g id="edge10" class="edge">
<title>Node4&#45;&gt;Node1</title>
<path fill="none" stroke="midnightblue" d="M516.38,-95.75C494.99,-139.58 400.85,-319.36 263,-391 216.52,-415.15 156.46,-418.31 112.31,-416.36"/>
<polygon fill="midnightblue" stroke="midnightblue" points="112.47,-412.87 102.3,-415.82 112.09,-419.86 112.47,-412.87"/>
</g>
<!-- Node5 -->
<g id="node5" class="node">
<title>Node5</title>
<g id="a_node5"><a xlink:href="classApexi.html#a8a8a56251df881cc9eb49f1f20332fda" target="_top" xlink:title=" ">
<polygon fill="white" stroke="black" points="629.5,-38.5 629.5,-57.5 758.5,-57.5 758.5,-38.5 629.5,-38.5"/>
<text text-anchor="middle" x="694" y="-45.5" font-family="Helvetica,sans-Serif" font-size="10.00">Apexi::handleBytesWritten</text>
</a>
</g>
</g>
<!-- Node4&#45;&gt;Node5 -->
<g id="edge4" class="edge">
<title>Node4&#45;&gt;Node5</title>
<path fill="none" stroke="midnightblue" d="M565.9,-76.41C588.53,-71.35 616.5,-65.1 640.43,-59.75"/>
<polygon fill="midnightblue" stroke="midnightblue" points="641.41,-63.12 650.41,-57.52 639.89,-56.29 641.41,-63.12"/>
</g>
<!-- Node6 -->
<g id="node6" class="node">
<title>Node6</title>
<g id="a_node6"><a xlink:href="classApexi.html#a6c775f27e878959c047bb9c252064cfe" target="_top" xlink:title=" ">
<polygon fill="white" stroke="red" points="647,-0.5 647,-19.5 741,-19.5 741,-0.5 647,-0.5"/>
<text text-anchor="middle" x="694" y="-7.5" font-family="Helvetica,sans-Serif" font-size="10.00">Apexi::handleError</text>
</a>
</g>
</g>
<!-- Node4&#45;&gt;Node6 -->
<g id="edge5" class="edge">
<title>Node4&#45;&gt;Node6</title>
<path fill="none" stroke="midnightblue" d="M537.98,-76.4C557.73,-64.08 593.88,-42.65 627,-29 632.58,-26.7 638.53,-24.57 644.49,-22.63"/>
<polygon fill="midnightblue" stroke="midnightblue" points="645.95,-25.84 654.47,-19.54 643.88,-19.15 645.95,-25.84"/>
</g>
<!-- Node8 -->
<g id="node7" class="node">
<title>Node8</title>
<g id="a_node7"><a xlink:href="classApexi.html#a9c813630d2b2a70b7e098ae10220103e" target="_top" xlink:title=" ">
<polygon fill="white" stroke="red" points="639.5,-76.5 639.5,-95.5 748.5,-95.5 748.5,-76.5 639.5,-76.5"/>
<text text-anchor="middle" x="694" y="-83.5" font-family="Helvetica,sans-Serif" font-size="10.00">Apexi::handleTimeout</text>
</a>
</g>
</g>
<!-- Node4&#45;&gt;Node8 -->
<g id="edge6" class="edge">
<title>Node4&#45;&gt;Node8</title>
<path fill="none" stroke="midnightblue" d="M580.55,-86C596.12,-86 613.06,-86 628.96,-86"/>
<polygon fill="midnightblue" stroke="midnightblue" points="629.23,-89.5 639.23,-86 629.23,-82.5 629.23,-89.5"/>
</g>
<!-- Node8&#45;&gt;Node9 -->
<g id="edge7" class="edge">
<title>Node8&#45;&gt;Node9</title>
<path fill="none" stroke="midnightblue" d="M748.76,-94.91C753.43,-97.51 757.64,-100.81 761,-105 802.01,-156.16 788.49,-628.99 797,-694 812.67,-813.79 846.35,-955.15 859.03,-1006.3"/>
<polygon fill="midnightblue" stroke="midnightblue" points="855.71,-1007.45 861.53,-1016.31 862.5,-1005.75 855.71,-1007.45"/>
</g>
<!-- Node8&#45;&gt;Node11 -->
<g id="edge9" class="edge">
<title>Node8&#45;&gt;Node11</title>
<path fill="none" stroke="midnightblue" d="M748.59,-95.5C753.23,-97.99 757.48,-101.11 761,-105 836.72,-188.82 858.86,-564.48 863.15,-655.22"/>
<polygon fill="midnightblue" stroke="midnightblue" points="859.67,-655.63 863.61,-665.47 866.66,-655.32 859.67,-655.63"/>
</g>
<!-- Node10 -->
<g id="node9" class="node">
<title>Node10</title>
<g id="a_node9"><a xlink:href="classApexi.html#af312531b1dbc60175016a82881203f18" target="_top" xlink:title=" ">
<polygon fill="white" stroke="red" points="969,-1016.5 969,-1035.5 1091,-1035.5 1091,-1016.5 969,-1016.5"/>
<text text-anchor="middle" x="1030" y="-1023.5" font-family="Helvetica,sans-Serif" font-size="10.00">Apexi::writeRequestPFC</text>
</a>
</g>
</g>
<!-- Node9&#45;&gt;Node10 -->
<g id="edge8" class="edge">
<title>Node9&#45;&gt;Node10</title>
<path fill="none" stroke="midnightblue" d="M916.24,-1026C929.63,-1026 944.36,-1026 958.62,-1026"/>
<polygon fill="midnightblue" stroke="midnightblue" points="958.9,-1029.5 968.9,-1026 958.9,-1022.5 958.9,-1029.5"/>
</g>
<!-- Node13 -->
<g id="node12" class="node">
<title>Node13</title>
<g id="a_node12"><a xlink:href="classDashBoard.html#a21635845a2258c7dbe2a7f2f7ec32345" target="_top" xlink:title=" ">
<polygon fill="white" stroke="black" points="634,-1216.5 634,-1235.5 754,-1235.5 754,-1216.5 634,-1216.5"/>
<text text-anchor="middle" x="694" y="-1223.5" font-family="Helvetica,sans-Serif" font-size="10.00">DashBoard::setBatteryV</text>
</a>
</g>
</g>
<!-- Node12&#45;&gt;Node13 -->
<g id="edge12" class="edge">
<title>Node12&#45;&gt;Node13</title>
<path fill="none" stroke="midnightblue" d="M525.44,-760.82C534.48,-797.21 566.71,-927.8 591,-1036 608.01,-1111.78 574.12,-1150.12 627,-1207 628.23,-1208.32 629.54,-1209.55 630.93,-1210.7"/>
<polygon fill="midnightblue" stroke="midnightblue" points="629.26,-1213.79 639.53,-1216.4 633.12,-1207.96 629.26,-1213.79"/>
</g>
<!-- Node14 -->
<g id="node13" class="node">
<title>Node14</title>
<g id="a_node13"><a xlink:href="classDashBoard.html#a864f44aaf83510cc38b81e3efc7f1da6" target="_top" xlink:title=" ">
<polygon fill="white" stroke="black" points="630,-570.5 630,-589.5 758,-589.5 758,-570.5 630,-570.5"/>
<text text-anchor="middle" x="694" y="-577.5" font-family="Helvetica,sans-Serif" font-size="10.00">DashBoard::setBoostDuty</text>
</a>
</g>
</g>
<!-- Node12&#45;&gt;Node14 -->
<g id="edge13" class="edge">
<title>Node12&#45;&gt;Node14</title>
<path fill="none" stroke="midnightblue" d="M569.31,-745.01C577.36,-742.15 585.04,-738 591,-732 634.13,-688.52 584.04,-642.65 627,-599 628.41,-597.57 629.92,-596.24 631.52,-595.01"/>
<polygon fill="midnightblue" stroke="midnightblue" points="633.45,-597.93 640.07,-589.65 629.74,-591.99 633.45,-597.93"/>
</g>
<!-- Node15 -->
<g id="node14" class="node">
<title>Node15</title>
<g id="a_node14"><a xlink:href="classDashBoard.html#af865e5a3912f8100d831f01333a4fef9" target="_top" xlink:title=" ">
<polygon fill="white" stroke="black" points="636,-532.5 636,-551.5 752,-551.5 752,-532.5 636,-532.5"/>
<text text-anchor="middle" x="694" y="-539.5" font-family="Helvetica,sans-Serif" font-size="10.00">DashBoard::setBoosttp</text>
</a>
</g>
</g>
<!-- Node12&#45;&gt;Node15 -->
<g id="edge14" class="edge">
<title>Node12&#45;&gt;Node15</title>
<path fill="none" stroke="midnightblue" d="M569.24,-745.4C577.39,-742.52 585.13,-738.26 591,-732 644.11,-675.33 574.12,-617.88 627,-561 628.23,-559.68 629.54,-558.45 630.93,-557.3"/>
<polygon fill="midnightblue" stroke="midnightblue" points="633.12,-560.04 639.53,-551.6 629.26,-554.21 633.12,-560.04"/>
</g>
<!-- Node16 -->
<g id="node15" class="node">
<title>Node16</title>
<g id="a_node15"><a xlink:href="classDashBoard.html#ad7eafea8b5a643e82155945495ff2aef" target="_top" xlink:title=" ">
<polygon fill="white" stroke="black" points="633.5,-494.5 633.5,-513.5 754.5,-513.5 754.5,-494.5 633.5,-494.5"/>
<text text-anchor="middle" x="694" y="-501.5" font-family="Helvetica,sans-Serif" font-size="10.00">DashBoard::setBoostwg</text>
</a>
</g>
</g>
<!-- Node12&#45;&gt;Node16 -->
<g id="edge15" class="edge">
<title>Node12&#45;&gt;Node16</title>
<path fill="none" stroke="midnightblue" d="M569.07,-745.69C577.34,-742.8 585.17,-738.46 591,-732 654.17,-662.04 564.11,-593.2 627,-523 628.18,-521.69 629.44,-520.46 630.77,-519.32"/>
<polygon fill="midnightblue" stroke="midnightblue" points="632.79,-522.18 639.07,-513.64 628.84,-516.4 632.79,-522.18"/>
</g>
<!-- Node17 -->
<g id="node16" class="node">
<title>Node17</title>
<g id="a_node16"><a xlink:href="classDashBoard.html#aa34fb9a1bc1ffbf895c0dc507dacfe03" target="_top" xlink:title=" ">
<polygon fill="white" stroke="black" points="640.5,-456.5 640.5,-475.5 747.5,-475.5 747.5,-456.5 640.5,-456.5"/>
<text text-anchor="middle" x="694" y="-463.5" font-family="Helvetica,sans-Serif" font-size="10.00">DashBoard::setDwell</text>
</a>
</g>
</g>
<!-- Node12&#45;&gt;Node17 -->
<g id="edge16" class="edge">
<title>Node12&#45;&gt;Node17</title>
<path fill="none" stroke="midnightblue" d="M569.2,-745.81C577.46,-742.91 585.25,-738.53 591,-732 664.28,-648.71 554.05,-568.58 627,-485 628.38,-483.42 629.89,-481.96 631.49,-480.62"/>
<polygon fill="midnightblue" stroke="midnightblue" points="633.8,-483.29 640.23,-474.87 629.95,-477.45 633.8,-483.29"/>
</g>
<!-- Node18 -->
<g id="node17" class="node">
<title>Node18</title>
<g id="a_node17"><a xlink:href="classDashBoard.html#afa98f53f1555f3bff79f49a6e12b5d9e" target="_top" xlink:title=" ">
<polygon fill="white" stroke="black" points="633.5,-418.5 633.5,-437.5 754.5,-437.5 754.5,-418.5 633.5,-418.5"/>
<text text-anchor="middle" x="694" y="-425.5" font-family="Helvetica,sans-Serif" font-size="10.00">DashBoard::setEngLoad</text>
</a>
</g>
</g>
<!-- Node12&#45;&gt;Node18 -->
<g id="edge17" class="edge">
<title>Node12&#45;&gt;Node18</title>
<path fill="none" stroke="midnightblue" d="M569.3,-745.9C577.55,-742.98 585.31,-738.59 591,-732 674.41,-635.34 543.96,-543.98 627,-447 628.02,-445.81 629.1,-444.69 630.25,-443.65"/>
<polygon fill="midnightblue" stroke="midnightblue" points="632.5,-446.34 638.57,-437.66 628.41,-440.66 632.5,-446.34"/>
</g>
<!-- Node19 -->
<g id="node18" class="node">
<title>Node19</title>
<g id="a_node18"><a xlink:href="classDashBoard.html#aebb7249e22bce5067a7d473e6ae0085c" target="_top" xlink:title=" ">
<polygon fill="white" stroke="black" points="640.5,-380.5 640.5,-399.5 747.5,-399.5 747.5,-380.5 640.5,-380.5"/>
<text text-anchor="middle" x="694" y="-387.5" font-family="Helvetica,sans-Serif" font-size="10.00">DashBoard::setFuelc</text>
</a>
</g>
</g>
<!-- Node12&#45;&gt;Node19 -->
<g id="edge18" class="edge">
<title>Node12&#45;&gt;Node19</title>
<path fill="none" stroke="midnightblue" d="M569.03,-746.08C577.4,-743.17 585.28,-738.72 591,-732 684.57,-621.96 533.86,-519.41 627,-409 628.5,-407.22 630.15,-405.61 631.93,-404.14"/>
<polygon fill="midnightblue" stroke="midnightblue" points="633.96,-406.99 640.4,-398.58 630.12,-401.14 633.96,-406.99"/>
</g>
<!-- Node20 -->
<g id="node19" class="node">
<title>Node20</title>
<g id="a_node19"><a xlink:href="classDashBoard.html#ad7fb1721d5cd8770078da5e7d5d6b655" target="_top" xlink:title=" ">
<polygon fill="white" stroke="black" points="632.5,-342.5 632.5,-361.5 755.5,-361.5 755.5,-342.5 632.5,-342.5"/>
<text text-anchor="middle" x="694" y="-349.5" font-family="Helvetica,sans-Serif" font-size="10.00">DashBoard::setFueltemp</text>
</a>
</g>
</g>
<!-- Node12&#45;&gt;Node20 -->
<g id="edge19" class="edge">
<title>Node12&#45;&gt;Node20</title>
<path fill="none" stroke="midnightblue" d="M569.09,-746.13C577.46,-743.22 585.32,-738.76 591,-732 694.73,-608.56 523.75,-494.85 627,-371 628,-369.8 629.07,-368.67 630.21,-367.61"/>
<polygon fill="midnightblue" stroke="midnightblue" points="632.46,-370.3 638.47,-361.57 628.33,-364.65 632.46,-370.3"/>
</g>
<!-- Node21 -->
<g id="node20" class="node">
<title>Node21</title>
<g id="a_node20"><a xlink:href="classDashBoard.html#ad46278eecba8d5643f84cea9eafa1bce" target="_top" xlink:title=" ">
<polygon fill="white" stroke="black" points="646,-304.5 646,-323.5 742,-323.5 742,-304.5 646,-304.5"/>
<text text-anchor="middle" x="694" y="-311.5" font-family="Helvetica,sans-Serif" font-size="10.00">DashBoard::setIgn</text>
</a>
</g>
</g>
<!-- Node12&#45;&gt;Node21 -->
<g id="edge20" class="edge">
<title>Node12&#45;&gt;Node21</title>
<path fill="none" stroke="midnightblue" d="M569.14,-746.18C577.5,-743.25 585.35,-738.78 591,-732 647.95,-663.57 570.31,-401.65 627,-333 629.78,-329.64 633.11,-326.85 636.77,-324.54"/>
<polygon fill="midnightblue" stroke="midnightblue" points="638.49,-327.59 645.85,-319.97 635.34,-321.34 638.49,-327.59"/>
</g>
<!-- Node22 -->
<g id="node21" class="node">
<title>Node22</title>
<g id="a_node21"><a xlink:href="classDashBoard.html#a6f4952eb15d3b4c0c2eaacf37fb2c96b" target="_top" xlink:title=" ">
<polygon fill="white" stroke="black" points="641,-266.5 641,-285.5 747,-285.5 747,-266.5 641,-266.5"/>
<text text-anchor="middle" x="694" y="-273.5" font-family="Helvetica,sans-Serif" font-size="10.00">DashBoard::setinjms</text>
</a>
</g>
</g>
<!-- Node12&#45;&gt;Node22 -->
<g id="edge21" class="edge">
<title>Node12&#45;&gt;Node22</title>
<path fill="none" stroke="midnightblue" d="M569.18,-746.21C577.54,-743.29 585.38,-738.81 591,-732 653.04,-656.87 565.25,-370.38 627,-295 628.53,-293.13 630.24,-291.43 632.08,-289.9"/>
<polygon fill="midnightblue" stroke="midnightblue" points="634.44,-292.54 640.91,-284.15 630.62,-286.67 634.44,-292.54"/>
</g>
<!-- Node23 -->
<g id="node22" class="node">
<title>Node23</title>
<g id="a_node22"><a xlink:href="classDashBoard.html#a31caf833ec71b5a8135fd39859f4c2f5" target="_top" xlink:title=" ">
<polygon fill="white" stroke="black" points="627,-228.5 627,-247.5 761,-247.5 761,-228.5 627,-228.5"/>
<text text-anchor="middle" x="694" y="-235.5" font-family="Helvetica,sans-Serif" font-size="10.00">DashBoard::setIntakepress</text>
</a>
</g>
</g>
<!-- Node12&#45;&gt;Node23 -->
<g id="edge22" class="edge">
<title>Node12&#45;&gt;Node23</title>
<path fill="none" stroke="midnightblue" d="M569.21,-746.24C577.58,-743.31 585.4,-738.82 591,-732 658.14,-650.15 560.18,-339.11 627,-257 627.87,-255.93 628.79,-254.92 629.76,-253.97"/>
<polygon fill="midnightblue" stroke="midnightblue" points="632.22,-256.5 638.07,-247.67 627.98,-250.93 632.22,-256.5"/>
</g>
<!-- Node24 -->
<g id="node23" class="node">
<title>Node24</title>
<g id="a_node23"><a xlink:href="classDashBoard.html#ae4d194cbb50c7c36bd2d0b2be6b21e6d" target="_top" xlink:title=" ">
<polygon fill="white" stroke="black" points="628.5,-1178.5 628.5,-1197.5 759.5,-1197.5 759.5,-1178.5 628.5,-1178.5"/>
<text text-anchor="middle" x="694" y="-1185.5" font-family="Helvetica,sans-Serif" font-size="10.00">DashBoard::setIntaketemp</text>
</a>
</g>
</g>
<!-- Node12&#45;&gt;Node24 -->
<g id="edge23" class="edge">
<title>Node12&#45;&gt;Node24</title>
<path fill="none" stroke="midnightblue" d="M525.28,-760.72C539.83,-822.78 619.46,-1161.18 627,-1169 628.4,-1170.45 629.9,-1171.79 631.48,-1173.03"/>
<polygon fill="midnightblue" stroke="midnightblue" points="629.67,-1176.03 639.99,-1178.43 633.42,-1170.12 629.67,-1176.03"/>
</g>
<!-- Node25 -->
<g id="node24" class="node">
<title>Node25</title>
<g id="a_node24"><a xlink:href="classDashBoard.html#add4eafa05b50837f81332bd06b76f36d" target="_top" xlink:title=" ">
<polygon fill="white" stroke="black" points="634.5,-190.5 634.5,-209.5 753.5,-209.5 753.5,-190.5 634.5,-190.5"/>
<text text-anchor="middle" x="694" y="-197.5" font-family="Helvetica,sans-Serif" font-size="10.00">DashBoard::setIscvduty</text>
</a>
</g>
</g>
<!-- Node12&#45;&gt;Node25 -->
<g id="edge24" class="edge">
<title>Node12&#45;&gt;Node25</title>
<path fill="none" stroke="midnightblue" d="M569.24,-746.26C577.6,-743.33 585.42,-738.84 591,-732 663.23,-643.44 555.12,-307.84 627,-219 627.86,-217.93 628.79,-216.92 629.76,-215.96"/>
<polygon fill="midnightblue" stroke="midnightblue" points="632.21,-218.5 638.04,-209.65 627.97,-212.93 632.21,-218.5"/>
</g>
<!-- Node26 -->
<g id="node25" class="node">
<title>Node26</title>
<g id="a_node25"><a xlink:href="classDashBoard.html#acf7ff86dcbb34ee7661c1904191cf7a9" target="_top" xlink:title=" ">
<polygon fill="white" stroke="black" points="639,-1140.5 639,-1159.5 749,-1159.5 749,-1140.5 639,-1140.5"/>
<text text-anchor="middle" x="694" y="-1147.5" font-family="Helvetica,sans-Serif" font-size="10.00">DashBoard::setKnock</text>
</a>
</g>
</g>
<!-- Node12&#45;&gt;Node26 -->
<g id="edge25" class="edge">
<title>Node12&#45;&gt;Node26</title>
<path fill="none" stroke="midnightblue" d="M525.07,-760.72C537.17,-817.34 599.31,-1102.95 627,-1131 628.41,-1132.43 629.93,-1133.76 631.52,-1134.99"/>
<polygon fill="midnightblue" stroke="midnightblue" points="629.75,-1138 640.08,-1140.34 633.46,-1132.07 629.75,-1138"/>
</g>
<!-- Node27 -->
<g id="node26" class="node">
<title>Node27</title>
<g id="a_node26"><a xlink:href="classDashBoard.html#a4e90fc531b31a84fa122ade9bdc2ecf1" target="_top" xlink:title=" ">
<polygon fill="white" stroke="black" points="629,-1102.5 629,-1121.5 759,-1121.5 759,-1102.5 629,-1102.5"/>
<text text-anchor="middle" x="694" y="-1109.5" font-family="Helvetica,sans-Serif" font-size="10.00">DashBoard::setLeadingign</text>
</a>
</g>
</g>
<!-- Node12&#45;&gt;Node27 -->
<g id="edge26" class="edge">
<title>Node12&#45;&gt;Node27</title>
<path fill="none" stroke="midnightblue" d="M524.65,-760.6C533.48,-810.86 576.6,-1043.35 627,-1093 628.47,-1094.44 630.03,-1095.78 631.68,-1097.01"/>
<polygon fill="midnightblue" stroke="midnightblue" points="630.15,-1100.18 640.51,-1102.39 633.79,-1094.2 630.15,-1100.18"/>
</g>
<!-- Node28 -->
<g id="node27" class="node">
<title>Node28</title>
<g id="a_node27"><a xlink:href="classDashBoard.html#a19ed911149392a939ade24ef44180dec" target="_top" xlink:title=" ">
<polygon fill="white" stroke="black" points="636,-152.5 636,-171.5 752,-171.5 752,-152.5 636,-152.5"/>
<text text-anchor="middle" x="694" y="-159.5" font-family="Helvetica,sans-Serif" font-size="10.00">DashBoard::setMAF1V</text>
</a>
</g>
</g>
<!-- Node12&#45;&gt;Node28 -->
<g id="edge27" class="edge">
<title>Node12&#45;&gt;Node28</title>
<path fill="none" stroke="midnightblue" d="M569.27,-746.28C577.63,-743.35 585.44,-738.85 591,-732 668.33,-636.73 550.05,-276.58 627,-181 627.86,-179.93 628.78,-178.92 629.75,-177.96"/>
<polygon fill="midnightblue" stroke="midnightblue" points="632.2,-180.49 638.02,-171.64 627.95,-174.93 632.2,-180.49"/>
</g>
<!-- Node29 -->
<g id="node28" class="node">
<title>Node29</title>
<g id="a_node28"><a xlink:href="classDashBoard.html#a584d76fb3dc3faa498611cdc0a7d572a" target="_top" xlink:title=" ">
<polygon fill="white" stroke="black" points="636,-114.5 636,-133.5 752,-133.5 752,-114.5 636,-114.5"/>
<text text-anchor="middle" x="694" y="-121.5" font-family="Helvetica,sans-Serif" font-size="10.00">DashBoard::setMAF2V</text>
</a>
</g>
</g>
<!-- Node12&#45;&gt;Node29 -->
<g id="edge28" class="edge">
<title>Node12&#45;&gt;Node29</title>
<path fill="none" stroke="midnightblue" d="M569.29,-746.3C577.65,-743.37 585.45,-738.86 591,-732 673.42,-630.01 544.98,-245.31 627,-143 627.86,-141.93 628.78,-140.91 629.74,-139.95"/>
<polygon fill="midnightblue" stroke="midnightblue" points="632.2,-142.48 638.01,-133.62 627.94,-136.93 632.2,-142.48"/>
</g>
<!-- Node30 -->
<g id="node29" class="node">
<title>Node30</title>
<g id="a_node29"><a xlink:href="classDashBoard.html#a0cf0a1970e9c2c02886e8587966f6abc" target="_top" xlink:title=" ">
<polygon fill="white" stroke="black" points="627,-988.5 627,-1007.5 761,-1007.5 761,-988.5 627,-988.5"/>
<text text-anchor="middle" x="694" y="-995.5" font-family="Helvetica,sans-Serif" font-size="10.00">DashBoard::setMAFactivity</text>
</a>
</g>
</g>
<!-- Node12&#45;&gt;Node30 -->
<g id="edge29" class="edge">
<title>Node12&#45;&gt;Node30</title>
<path fill="none" stroke="midnightblue" d="M524.53,-760.97C530.49,-796.39 555.5,-917.35 627,-979 628.98,-980.7 631.1,-982.25 633.32,-983.67"/>
<polygon fill="midnightblue" stroke="midnightblue" points="631.87,-986.86 642.34,-988.45 635.15,-980.67 631.87,-986.86"/>
</g>
<!-- Node31 -->
<g id="node30" class="node">
<title>Node31</title>
<g id="a_node30"><a xlink:href="classDashBoard.html#a5480aa312813d238574e103a52bef81f" target="_top" xlink:title=" ">
<polygon fill="white" stroke="black" points="641,-950.5 641,-969.5 747,-969.5 747,-950.5 641,-950.5"/>
<text text-anchor="middle" x="694" y="-957.5" font-family="Helvetica,sans-Serif" font-size="10.00">DashBoard::setMoilp</text>
</a>
</g>
</g>
<!-- Node12&#45;&gt;Node31 -->
<g id="edge30" class="edge">
<title>Node12&#45;&gt;Node31</title>
<path fill="none" stroke="midnightblue" d="M525.41,-760.6C533.71,-791.73 564.18,-890.7 627,-941 629.27,-942.82 631.7,-944.46 634.25,-945.95"/>
<polygon fill="midnightblue" stroke="midnightblue" points="632.77,-949.12 643.28,-950.42 635.87,-942.84 632.77,-949.12"/>
</g>
<!-- Node32 -->
<g id="node31" class="node">
<title>Node32</title>
<g id="a_node31"><a xlink:href="classDashBoard.html#a4ddbc9f8b9001cf29ead004af11e972d" target="_top" xlink:title=" ">
<polygon fill="white" stroke="black" points="645,-912.5 645,-931.5 743,-931.5 743,-912.5 645,-912.5"/>
<text text-anchor="middle" x="694" y="-919.5" font-family="Helvetica,sans-Serif" font-size="10.00">DashBoard::setna1</text>
</a>
</g>
</g>
<!-- Node12&#45;&gt;Node32 -->
<g id="edge31" class="edge">
<title>Node12&#45;&gt;Node32</title>
<path fill="none" stroke="midnightblue" d="M526.75,-760.53C537.79,-787.32 572.83,-863.87 627,-903 629.71,-904.95 632.61,-906.71 635.64,-908.28"/>
<polygon fill="midnightblue" stroke="midnightblue" points="634.45,-911.59 645,-912.49 637.31,-905.2 634.45,-911.59"/>
</g>
<!-- Node33 -->
<g id="node32" class="node">
<title>Node33</title>
<g id="a_node32"><a xlink:href="classDashBoard.html#a3992060dbefe28848e9e2a0163a7df21" target="_top" xlink:title=" ">
<polygon fill="white" stroke="black" points="645,-874.5 645,-893.5 743,-893.5 743,-874.5 645,-874.5"/>
<text text-anchor="middle" x="694" y="-881.5" font-family="Helvetica,sans-Serif" font-size="10.00">DashBoard::setna2</text>
</a>
</g>
</g>
<!-- Node12&#45;&gt;Node33 -->
<g id="edge32" class="edge">
<title>Node12&#45;&gt;Node33</title>
<path fill="none" stroke="midnightblue" d="M529,-760.59C543.23,-782.51 581.26,-836.59 627,-865 630.38,-867.1 634,-868.97 637.74,-870.65"/>
<polygon fill="midnightblue" stroke="midnightblue" points="636.63,-873.97 647.21,-874.4 639.21,-867.46 636.63,-873.97"/>
</g>
<!-- Node34 -->
<g id="node33" class="node">
<title>Node34</title>
<g id="a_node33"><a xlink:href="classDashBoard.html#a36e46c92b433846ab5932b5622e69905" target="_top" xlink:title=" ">
<polygon fill="white" stroke="black" points="638.5,-836.5 638.5,-855.5 749.5,-855.5 749.5,-836.5 638.5,-836.5"/>
<text text-anchor="middle" x="694" y="-843.5" font-family="Helvetica,sans-Serif" font-size="10.00">DashBoard::setO2volt</text>
</a>
</g>
</g>
<!-- Node12&#45;&gt;Node34 -->
<g id="edge33" class="edge">
<title>Node12&#45;&gt;Node34</title>
<path fill="none" stroke="midnightblue" d="M533.41,-760.58C551.26,-776.53 589.45,-808.6 627,-827 631.63,-829.27 636.58,-831.32 641.62,-833.15"/>
<polygon fill="midnightblue" stroke="midnightblue" points="640.73,-836.54 651.32,-836.41 642.96,-829.91 640.73,-836.54"/>
</g>
<!-- Node35 -->
<g id="node34" class="node">
<title>Node35</title>
<g id="a_node34"><a xlink:href="classDashBoard.html#a1ff480e57034d577177325f86cba2108" target="_top" xlink:title=" ">
<polygon fill="white" stroke="black" points="633,-798.5 633,-817.5 755,-817.5 755,-798.5 633,-798.5"/>
<text text-anchor="middle" x="694" y="-805.5" font-family="Helvetica,sans-Serif" font-size="10.00">DashBoard::setO2volt_2</text>
</a>
</g>
</g>
<!-- Node12&#45;&gt;Node35 -->
<g id="edge34" class="edge">
<title>Node12&#45;&gt;Node35</title>
<path fill="none" stroke="midnightblue" d="M547.63,-760.55C568.59,-768.55 599.59,-780.06 627,-789 633.94,-791.26 641.33,-793.53 648.56,-795.67"/>
<polygon fill="midnightblue" stroke="midnightblue" points="647.69,-799.06 658.26,-798.49 649.64,-792.34 647.69,-799.06"/>
</g>
<!-- Node36 -->
<g id="node35" class="node">
<title>Node36</title>
<g id="a_node35"><a xlink:href="classDashBoard.html#ab617d388ec0714d60bf68f19b189d86b" target="_top" xlink:title=" ">
<polygon fill="white" stroke="black" points="645,-760.5 645,-779.5 743,-779.5 743,-760.5 645,-760.5"/>
<text text-anchor="middle" x="694" y="-767.5" font-family="Helvetica,sans-Serif" font-size="10.00">DashBoard::setpim</text>
</a>
</g>
</g>
<!-- Node12&#45;&gt;Node36 -->
<g id="edge35" class="edge">
<title>Node12&#45;&gt;Node36</title>
<path fill="none" stroke="midnightblue" d="M569,-756.14C589.29,-758.41 613.37,-761.1 634.88,-763.5"/>
<polygon fill="midnightblue" stroke="midnightblue" points="634.55,-766.99 644.88,-764.62 635.33,-760.03 634.55,-766.99"/>
</g>
<!-- Node37 -->
<g id="node36" class="node">
<title>Node37</title>
<g id="a_node36"><a xlink:href="classDashBoard.html#a8b4be03b152c61f0c3086b92b2ad47d9" target="_top" xlink:title=" ">
<polygon fill="white" stroke="black" points="630,-722.5 630,-741.5 758,-741.5 758,-722.5 630,-722.5"/>
<text text-anchor="middle" x="694" y="-729.5" font-family="Helvetica,sans-Serif" font-size="10.00">DashBoard::setPressureV</text>
</a>
</g>
</g>
<!-- Node12&#45;&gt;Node37 -->
<g id="edge36" class="edge">
<title>Node12&#45;&gt;Node37</title>
<path fill="none" stroke="midnightblue" d="M569,-745.86C584.62,-744.11 602.48,-742.12 619.69,-740.19"/>
<polygon fill="midnightblue" stroke="midnightblue" points="620.18,-743.66 629.73,-739.07 619.4,-736.7 620.18,-743.66"/>
</g>
<!-- Node38 -->
<g id="node37" class="node">
<title>Node38</title>
<g id="a_node37"><a xlink:href="classDashBoard.html#ae10ebf05ada076cdf9034a470dc0138e" target="_top" xlink:title=" ">
<polygon fill="white" stroke="black" points="630,-684.5 630,-703.5 758,-703.5 758,-684.5 630,-684.5"/>
<text text-anchor="middle" x="694" y="-691.5" font-family="Helvetica,sans-Serif" font-size="10.00">DashBoard::setPrimaryinp</text>
</a>
</g>
</g>
<!-- Node12&#45;&gt;Node38 -->
<g id="edge37" class="edge">
<title>Node12&#45;&gt;Node38</title>
<path fill="none" stroke="midnightblue" d="M562.67,-741.45C572.08,-738.76 582,-735.58 591,-732 607.81,-725.31 610.22,-719.76 627,-713 632.81,-710.66 639.01,-708.48 645.2,-706.5"/>
<polygon fill="midnightblue" stroke="midnightblue" points="646.32,-709.81 654.85,-703.54 644.27,-703.12 646.32,-709.81"/>
</g>
<!-- Node39 -->
<g id="node38" class="node">
<title>Node39</title>
<g id="a_node38"><a xlink:href="classDashBoard.html#ab8a26c5ebc87f76cc237e46d8e014403" target="_top" xlink:title=" ">
<polygon fill="white" stroke="red" points="644.5,-1064.5 644.5,-1083.5 743.5,-1083.5 743.5,-1064.5 644.5,-1064.5"/>
<text text-anchor="middle" x="694" y="-1071.5" font-family="Helvetica,sans-Serif" font-size="10.00">DashBoard::setrpm</text>
</a>
</g>
</g>
<!-- Node12&#45;&gt;Node39 -->
<g id="edge38" class="edge">
<title>Node12&#45;&gt;Node39</title>
<path fill="none" stroke="midnightblue" d="M523.25,-760.58C524.86,-802.21 536.9,-969.24 627,-1055 629.46,-1057.34 632.19,-1059.4 635.1,-1061.2"/>
<polygon fill="midnightblue" stroke="midnightblue" points="633.79,-1064.46 644.28,-1065.9 636.97,-1058.23 633.79,-1064.46"/>
</g>
<!-- Node41 -->
<g id="node39" class="node">
<title>Node41</title>
<g id="a_node39"><a xlink:href="classDashBoard.html#a68ced326141cb80742fe151c64e33c4f" target="_top" xlink:title=" ">
<polygon fill="white" stroke="black" points="627.5,-646.5 627.5,-665.5 760.5,-665.5 760.5,-646.5 627.5,-646.5"/>
<text text-anchor="middle" x="694" y="-653.5" font-family="Helvetica,sans-Serif" font-size="10.00">DashBoard::setSecinjpulse</text>
</a>
</g>
</g>
<!-- Node12&#45;&gt;Node41 -->
<g id="edge39" class="edge">
<title>Node12&#45;&gt;Node41</title>
<path fill="none" stroke="midnightblue" d="M569.05,-743.12C576.85,-740.43 584.51,-736.83 591,-732 615.03,-714.11 603.04,-692.99 627,-675 629.49,-673.13 632.17,-671.44 634.96,-669.92"/>
<polygon fill="midnightblue" stroke="midnightblue" points="636.61,-673.01 644.19,-665.6 633.65,-666.67 636.61,-673.01"/>
</g>
<!-- Node42 -->
<g id="node40" class="node">
<title>Node42</title>
<g id="a_node40"><a xlink:href="classDashBoard.html#a77b4f7cb9851db07fcc88986469df3d8" target="_top" xlink:title=" ">
<polygon fill="white" stroke="red" points="639,-1026.5 639,-1045.5 749,-1045.5 749,-1026.5 639,-1026.5"/>
<text text-anchor="middle" x="694" y="-1033.5" font-family="Helvetica,sans-Serif" font-size="10.00">DashBoard::setSpeed</text>
</a>
</g>
</g>
<!-- Node12&#45;&gt;Node42 -->
<g id="edge40" class="edge">
<title>Node12&#45;&gt;Node42</title>
<path fill="none" stroke="midnightblue" d="M523.78,-760.68C527.43,-799.23 546.2,-943.34 627,-1017 628.72,-1018.57 630.56,-1020 632.49,-1021.32"/>
<polygon fill="midnightblue" stroke="midnightblue" points="631.04,-1024.52 641.47,-1026.39 634.48,-1018.43 631.04,-1024.52"/>
</g>
<!-- Node44 -->
<g id="node41" class="node">
<title>Node44</title>
<g id="a_node41"><a xlink:href="classDashBoard.html#ac568882c62f706105825eea0140a1d28" target="_top" xlink:title=" ">
<polygon fill="white" stroke="black" points="633,-608.5 633,-627.5 755,-627.5 755,-608.5 633,-608.5"/>
<text text-anchor="middle" x="694" y="-615.5" font-family="Helvetica,sans-Serif" font-size="10.00">DashBoard::setThrottleV</text>
</a>
</g>
</g>
<!-- Node12&#45;&gt;Node44 -->
<g id="edge41" class="edge">
<title>Node12&#45;&gt;Node44</title>
<path fill="none" stroke="midnightblue" d="M569.2,-744.41C577.17,-741.6 584.85,-737.62 591,-732 624.33,-701.54 593.79,-667.59 627,-637 628.71,-635.42 630.54,-633.98 632.47,-632.65"/>
<polygon fill="midnightblue" stroke="midnightblue" points="634.46,-635.55 641.43,-627.57 631,-629.46 634.46,-635.55"/>
</g>
<!-- Node51&#45;&gt;Node13 -->
<g id="edge44" class="edge">
<title>Node51&#45;&gt;Node13</title>
<path fill="none" stroke="midnightblue" d="M572.78,-1062.32C579.55,-1065.09 585.91,-1068.87 591,-1074 634.13,-1117.48 584.04,-1163.35 627,-1207 628.41,-1208.43 629.92,-1209.76 631.52,-1210.99"/>
<polygon fill="midnightblue" stroke="midnightblue" points="629.74,-1214.01 640.07,-1216.35 633.45,-1208.07 629.74,-1214.01"/>
</g>
<!-- Node51&#45;&gt;Node24 -->
<g id="edge45" class="edge">
<title>Node51&#45;&gt;Node24</title>
<path fill="none" stroke="midnightblue" d="M572.69,-1062.91C579.39,-1065.61 585.75,-1069.2 591,-1074 624.33,-1104.46 593.79,-1138.41 627,-1169 628.71,-1170.58 630.54,-1172.02 632.47,-1173.35"/>
<polygon fill="midnightblue" stroke="midnightblue" points="631,-1176.54 641.43,-1178.43 634.46,-1170.45 631,-1176.54"/>
</g>
<!-- Node51&#45;&gt;Node26 -->
<g id="edge46" class="edge">
<title>Node51&#45;&gt;Node26</title>
<path fill="none" stroke="midnightblue" d="M572.58,-1064.16C579.14,-1066.69 585.49,-1069.9 591,-1074 615.03,-1091.89 603.04,-1113.01 627,-1131 629.49,-1132.87 632.17,-1134.56 634.96,-1136.08"/>
<polygon fill="midnightblue" stroke="midnightblue" points="633.65,-1139.33 644.19,-1140.4 636.61,-1132.99 633.65,-1139.33"/>
</g>
<!-- Node51&#45;&gt;Node27 -->
<g id="edge47" class="edge">
<title>Node51&#45;&gt;Node27</title>
<path fill="none" stroke="midnightblue" d="M562.67,-1064.55C572.08,-1067.24 582,-1070.42 591,-1074 607.81,-1080.69 610.22,-1086.24 627,-1093 632.81,-1095.34 639.01,-1097.52 645.2,-1099.5"/>
<polygon fill="midnightblue" stroke="midnightblue" points="644.27,-1102.88 654.85,-1102.46 646.32,-1096.19 644.27,-1102.88"/>
</g>
<!-- Node51&#45;&gt;Node39 -->
<g id="edge48" class="edge">
<title>Node51&#45;&gt;Node39</title>
<path fill="none" stroke="midnightblue" d="M572.63,-1060.55C591.99,-1062.71 614.34,-1065.21 634.49,-1067.46"/>
<polygon fill="midnightblue" stroke="midnightblue" points="634.16,-1070.95 644.48,-1068.58 634.93,-1063.99 634.16,-1070.95"/>
</g>
<!-- Node51&#45;&gt;Node42 -->
<g id="edge49" class="edge">
<title>Node51&#45;&gt;Node42</title>
<path fill="none" stroke="midnightblue" d="M572.63,-1049.45C590.16,-1047.49 610.13,-1045.26 628.7,-1043.19"/>
<polygon fill="midnightblue" stroke="midnightblue" points="629.3,-1046.64 638.85,-1042.05 628.52,-1039.68 629.3,-1046.64"/>
</g>
</g>
</svg>
