<?xml version="1.0" encoding="UTF-8" standalone="no"?>
<!DOCTYPE svg PUBLIC "-//W3C//DTD SVG 1.1//EN"
 "http://www.w3.org/Graphics/SVG/1.1/DTD/svg11.dtd">
<!-- Generated by graphviz version 2.49.3 (20211027.1534)
 -->
<!-- Title: DashBoard::knockwarnChanged Pages: 1 -->
<svg width="633pt" height="88pt"
 viewBox="0.00 0.00 633.00 88.00" xmlns="http://www.w3.org/2000/svg" xmlns:xlink="http://www.w3.org/1999/xlink">
<g id="graph0" class="graph" transform="scale(1 1) rotate(0) translate(4 84)">
<title>DashBoard::knockwarnChanged</title>
<polygon fill="white" stroke="transparent" points="-4,4 -4,-84 629,-84 629,4 -4,4"/>
<!-- Node1 -->
<g id="node1" class="node">
<title>Node1</title>
<g id="a_node1"><a xlink:title=" ">
<polygon fill="#bfbfbf" stroke="black" points="470,-30 470,-49 625,-49 625,-30 470,-30"/>
<text text-anchor="middle" x="547.5" y="-37" font-family="Helvetica,sans-Serif" font-size="10.00">DashBoard::knockwarnChanged</text>
</a>
</g>
</g>
<!-- Node2 -->
<g id="node2" class="node">
<title>Node2</title>
<g id="a_node2"><a xlink:href="classDashBoard.html#a810223c01c0841d352de19c81d3ee874" target="_top" xlink:title=" ">
<polygon fill="white" stroke="black" points="304,-30 304,-49 434,-49 434,-30 304,-30"/>
<text text-anchor="middle" x="369" y="-37" font-family="Helvetica,sans-Serif" font-size="10.00">DashBoard::setknockwarn</text>
</a>
</g>
</g>
<!-- Node1&#45;&gt;Node2 -->
<g id="edge1" class="edge">
<title>Node1&#45;&gt;Node2</title>
<path fill="none" stroke="midnightblue" d="M459.76,-39.5C451.13,-39.5 442.49,-39.5 434.16,-39.5"/>
<polygon fill="midnightblue" stroke="midnightblue" points="459.85,-43 469.85,-39.5 459.85,-36 459.85,-43"/>
</g>
<!-- Node3 -->
<g id="node3" class="node">
<title>Node3</title>
<g id="a_node3"><a xlink:href="classAppSettings.html#af97c4b73b02f8cf8ef75b11d8f86ac40" target="_top" xlink:title=" ">
<polygon fill="white" stroke="black" points="132,-49.5 132,-79.5 265,-79.5 265,-49.5 132,-49.5"/>
<text text-anchor="start" x="140" y="-67.5" font-family="Helvetica,sans-Serif" font-size="10.00">AppSettings::readandApply</text>
<text text-anchor="middle" x="198.5" y="-56.5" font-family="Helvetica,sans-Serif" font-size="10.00">Settings</text>
</a>
</g>
</g>
<!-- Node2&#45;&gt;Node3 -->
<g id="edge2" class="edge">
<title>Node2&#45;&gt;Node3</title>
<path fill="none" stroke="midnightblue" d="M293.62,-50.53C284.15,-51.94 274.51,-53.37 265.18,-54.75"/>
<polygon fill="midnightblue" stroke="midnightblue" points="294.44,-53.95 303.82,-49.02 293.41,-47.03 294.44,-53.95"/>
</g>
<!-- Node5 -->
<g id="node5" class="node">
<title>Node5</title>
<g id="a_node5"><a xlink:href="classAppSettings.html#aa54c28533522b9d55c514f195105a22f" target="_top" xlink:title=" ">
<polygon fill="white" stroke="black" points="129,-0.5 129,-30.5 268,-30.5 268,-0.5 129,-0.5"/>
<text text-anchor="start" x="137" y="-18.5" font-family="Helvetica,sans-Serif" font-size="10.00">AppSettings::writeWarnGear</text>
<text text-anchor="middle" x="198.5" y="-7.5" font-family="Helvetica,sans-Serif" font-size="10.00">Settings</text>
</a>
</g>
</g>
<!-- Node2&#45;&gt;Node5 -->
<g id="edge4" class="edge">
<title>Node2&#45;&gt;Node5</title>
<path fill="none" stroke="midnightblue" d="M293.9,-28.95C285.38,-27.73 276.72,-26.5 268.27,-25.3"/>
<polygon fill="midnightblue" stroke="midnightblue" points="293.42,-32.41 303.82,-30.36 294.41,-25.48 293.42,-32.41"/>
</g>
<!-- Node4 -->
<g id="node4" class="node">
<title>Node4</title>
<g id="a_node4"><a xlink:href="classConnect.html#a2e3bdc883e226b286ee2ea851bf5f551" target="_top" xlink:title=" ">
<polygon fill="white" stroke="black" points="0,-55 0,-74 93,-74 93,-55 0,-55"/>
<text text-anchor="middle" x="46.5" y="-62" font-family="Helvetica,sans-Serif" font-size="10.00">Connect::Connect</text>
</a>
</g>
</g>
<!-- Node3&#45;&gt;Node4 -->
<g id="edge3" class="edge">
<title>Node3&#45;&gt;Node4</title>
<path fill="none" stroke="midnightblue" d="M121.68,-64.5C112.03,-64.5 102.4,-64.5 93.43,-64.5"/>
<polygon fill="midnightblue" stroke="midnightblue" points="121.71,-68 131.71,-64.5 121.71,-61 121.71,-68"/>
</g>
</g>
</svg>
