<?xml version="1.0" encoding="UTF-8" standalone="no"?>
<!DOCTYPE svg PUBLIC "-//W3C//DTD SVG 1.1//EN"
 "http://www.w3.org/Graphics/SVG/1.1/DTD/svg11.dtd">
<!-- Generated by graphviz version 2.49.3 (20211027.1534)
 -->
<!-- Title: Connect::setPortsNames Pages: 1 -->
<svg width="392pt" height="46pt"
 viewBox="0.00 0.00 392.00 46.00" xmlns="http://www.w3.org/2000/svg" xmlns:xlink="http://www.w3.org/1999/xlink">
<g id="graph0" class="graph" transform="scale(1 1) rotate(0) translate(4 42)">
<title>Connect::setPortsNames</title>
<polygon fill="white" stroke="transparent" points="-4,4 -4,-42 388,-42 388,4 -4,4"/>
<!-- Node1 -->
<g id="node1" class="node">
<title>Node1</title>
<g id="a_node1"><a xlink:title=" ">
<polygon fill="#bfbfbf" stroke="black" points="259,-0.5 259,-19.5 384,-19.5 384,-0.5 259,-0.5"/>
<text text-anchor="middle" x="321.5" y="-7.5" font-family="Helvetica,sans-Serif" font-size="10.00">Connect::setPortsNames</text>
</a>
</g>
</g>
<!-- Node2 -->
<g id="node2" class="node">
<title>Node2</title>
<g id="a_node2"><a xlink:href="classConnect.html#a939986dfa3302b44b2eab08eca340989" target="_top" xlink:title=" ">
<polygon fill="white" stroke="black" points="129,-0.5 129,-19.5 223,-19.5 223,-0.5 129,-0.5"/>
<text text-anchor="middle" x="176" y="-7.5" font-family="Helvetica,sans-Serif" font-size="10.00">Connect::getPorts</text>
</a>
</g>
</g>
<!-- Node1&#45;&gt;Node2 -->
<g id="edge1" class="edge">
<title>Node1&#45;&gt;Node2</title>
<path fill="none" stroke="midnightblue" d="M248.62,-10C239.92,-10 231.22,-10 223.03,-10"/>
<polygon fill="midnightblue" stroke="midnightblue" points="248.81,-13.5 258.81,-10 248.81,-6.5 248.81,-13.5"/>
</g>
<!-- Node2&#45;&gt;Node2 -->
<g id="edge3" class="edge">
<title>Node2&#45;&gt;Node2</title>
<path fill="none" stroke="midnightblue" d="M199.81,-29.03C198.51,-34.13 190.57,-38 176,-38 153.25,-38 146.67,-28.57 156.27,-19.76"/>
<polygon fill="midnightblue" stroke="midnightblue" points="202.96,-27.5 195.73,-19.76 196.55,-30.32 202.96,-27.5"/>
</g>
<!-- Node3 -->
<g id="node3" class="node">
<title>Node3</title>
<g id="a_node3"><a xlink:href="classConnect.html#a2e3bdc883e226b286ee2ea851bf5f551" target="_top" xlink:title=" ">
<polygon fill="white" stroke="black" points="0,-0.5 0,-19.5 93,-19.5 93,-0.5 0,-0.5"/>
<text text-anchor="middle" x="46.5" y="-7.5" font-family="Helvetica,sans-Serif" font-size="10.00">Connect::Connect</text>
</a>
</g>
</g>
<!-- Node2&#45;&gt;Node3 -->
<g id="edge2" class="edge">
<title>Node2&#45;&gt;Node3</title>
<path fill="none" stroke="midnightblue" d="M118.93,-10C110.28,-10 101.43,-10 93.04,-10"/>
<polygon fill="midnightblue" stroke="midnightblue" points="118.97,-13.5 128.97,-10 118.97,-6.5 118.97,-13.5"/>
</g>
</g>
</svg>
