<?xml version="1.0" encoding="UTF-8" standalone="no"?>
<!DOCTYPE svg PUBLIC "-//W3C//DTD SVG 1.1//EN"
 "http://www.w3.org/Graphics/SVG/1.1/DTD/svg11.dtd">
<!-- Generated by graphviz version 2.49.3 (20211027.1534)
 -->
<!-- Title: datalogger Pages: 1 -->
<svg width="126pt" height="152pt"
 viewBox="0.00 0.00 126.00 152.00" xmlns="http://www.w3.org/2000/svg" xmlns:xlink="http://www.w3.org/1999/xlink">
<g id="graph0" class="graph" transform="scale(1 1) rotate(0) translate(4 148)">
<title>datalogger</title>
<polygon fill="white" stroke="transparent" points="-4,4 -4,-148 122,-148 122,4 -4,4"/>
<!-- Node1 -->
<g id="node1" class="node">
<title>Node1</title>
<g id="a_node1"><a xlink:title=" ">
<polygon fill="#bfbfbf" stroke="black" points="0,-0.5 0,-19.5 62,-19.5 62,-0.5 0,-0.5"/>
<text text-anchor="middle" x="31" y="-7.5" font-family="Helvetica,sans-Serif" font-size="10.00">datalogger</text>
</a>
</g>
</g>
<!-- Node2 -->
<g id="node2" class="node">
<title>Node2</title>
<g id="a_node2"><a xlink:title=" ">
<polygon fill="white" stroke="#bfbfbf" points="0.5,-124.5 0.5,-143.5 53.5,-143.5 53.5,-124.5 0.5,-124.5"/>
<text text-anchor="middle" x="27" y="-131.5" font-family="Helvetica,sans-Serif" font-size="10.00">QObject</text>
</a>
</g>
</g>
<!-- Node2&#45;&gt;Node1 -->
<g id="edge1" class="edge">
<title>Node2&#45;&gt;Node1</title>
<path fill="none" stroke="midnightblue" d="M27.62,-114.19C28.5,-87.4 30.07,-39.31 30.71,-19.69"/>
<polygon fill="midnightblue" stroke="midnightblue" points="24.12,-114.12 27.29,-124.23 31.11,-114.35 24.12,-114.12"/>
</g>
<!-- Node3 -->
<g id="node3" class="node">
<title>Node3</title>
<g id="a_node3"><a xlink:href="classDashBoard.html" target="_top" xlink:title=" ">
<polygon fill="white" stroke="black" points="43.5,-67.5 43.5,-86.5 108.5,-86.5 108.5,-67.5 43.5,-67.5"/>
<text text-anchor="middle" x="76" y="-74.5" font-family="Helvetica,sans-Serif" font-size="10.00">DashBoard</text>
</a>
</g>
</g>
<!-- Node2&#45;&gt;Node3 -->
<g id="edge3" class="edge">
<title>Node2&#45;&gt;Node3</title>
<path fill="none" stroke="midnightblue" d="M41.41,-116.83C50.18,-106.98 61.05,-94.78 68.24,-86.71"/>
<polygon fill="midnightblue" stroke="midnightblue" points="38.7,-114.61 34.66,-124.41 43.92,-119.27 38.7,-114.61"/>
</g>
<!-- Node3&#45;&gt;Node1 -->
<g id="edge2" class="edge">
<title>Node3&#45;&gt;Node1</title>
<path fill="none" stroke="#9a32cd" stroke-dasharray="5,2" d="M64.16,-58.9C55.42,-46.27 43.88,-29.6 36.97,-19.63"/>
<polygon fill="#9a32cd" stroke="#9a32cd" points="61.36,-61 69.93,-67.23 67.12,-57.02 61.36,-61"/>
<text text-anchor="middle" x="87.5" y="-41" font-family="Helvetica,sans-Serif" font-size="10.00"> m_dashboard</text>
</g>
</g>
</svg>
