<?xml version="1.0" encoding="UTF-8" standalone="no"?>
<!DOCTYPE svg PUBLIC "-//W3C//DTD SVG 1.1//EN"
 "http://www.w3.org/Graphics/SVG/1.1/DTD/svg11.dtd">
<!-- Generated by graphviz version 2.49.3 (20211027.1534)
 -->
<!-- Title: GPS::closeConnection1 Pages: 1 -->
<!--zoomable 198 -->
<svg id="main" version="1.1" xmlns="http://www.w3.org/2000/svg" xmlns:xlink="http://www.w3.org/1999/xlink" xml:space="preserve" onload="init(evt)">
<style type="text/css"><![CDATA[
.edge:hover path { stroke: red; }
.edge:hover polygon { stroke: red; fill: red; }
]]></style>
<script type="text/javascript"><![CDATA[
var edges = document.getElementsByTagName('g');
if (edges && edges.length) {
  for (var i=0;i<edges.length;i++) {
    if (edges[i].id.substr(0,4)=='edge') {
      edges[i].setAttribute('class','edge');
    }
  }
}
]]></script>
        <defs>
                <circle id="rim" cx="0" cy="0" r="7"/>
                <circle id="rim2" cx="0" cy="0" r="3.5"/>
                <g id="zoomPlus">
                        <use xlink:href="#rim" fill="#404040">
                                <set attributeName="fill" to="#808080" begin="zoomplus.mouseover" end="zoomplus.mouseout"/>
                        </use>
                        <path d="M-4,0h8M0,-4v8" fill="none" stroke="white" stroke-width="1.5" pointer-events="none"/>
                </g>
                <g id="zoomMin">
                        <use xlink:href="#rim" fill="#404040">
                                <set attributeName="fill" to="#808080" begin="zoomminus.mouseover" end="zoomminus.mouseout"/>
                        </use>
                        <path d="M-4,0h8" fill="none" stroke="white" stroke-width="1.5" pointer-events="none"/>
                </g>
                <g id="dirArrow">
                        <path fill="none" stroke="white" stroke-width="1.5" d="M0,-3.0v7 M-2.5,-0.5L0,-3.0L2.5,-0.5"/>
                </g>
               <g id="resetDef">
                       <use xlink:href="#rim2" fill="#404040">
                               <set attributeName="fill" to="#808080" begin="reset.mouseover" end="reset.mouseout"/>
                       </use>
               </g>
        </defs>

<script type="text/javascript">
var viewWidth = 1199;
var viewHeight = 198;
var sectionId = 'dynsection-7';
</script>
<script xlink:href="svgpan.js"/>
<svg id="graph" class="graph">
<g id="viewport">
<title>GPS::closeConnection1</title>
<polygon fill="white" stroke="transparent" points="-4,4 -4,-194 1195,-194 1195,4 -4,4"/>
<!-- Node1 -->
<g id="node1" class="node">
<title>Node1</title>
<g id="a_node1"><a xlink:title=" ">
<polygon fill="#bfbfbf" stroke="black" points="1072,-85.5 1072,-104.5 1191,-104.5 1191,-85.5 1072,-85.5"/>
<text text-anchor="middle" x="1131.5" y="-92.5" font-family="Helvetica,sans-Serif" font-size="10.00">GPS::closeConnection1</text>
</a>
</g>
</g>
<!-- Node2 -->
<g id="node2" class="node">
<title>Node2</title>
<g id="a_node2"><a xlink:href="classGPS.html#abd750ada6a7b976f72761ce16246ccf6" target="_top" xlink:title=" ">
<polygon fill="white" stroke="black" points="916,-85.5 916,-104.5 1036,-104.5 1036,-85.5 916,-85.5"/>
<text text-anchor="middle" x="976" y="-92.5" font-family="Helvetica,sans-Serif" font-size="10.00">GPS::setGPSBAUD115</text>
</a>
</g>
</g>
<!-- Node1&#45;&gt;Node2 -->
<g id="edge1" class="edge">
<title>Node1&#45;&gt;Node2</title>
<path fill="none" stroke="midnightblue" d="M1061.36,-95C1052.89,-95 1044.3,-95 1036,-95"/>
<polygon fill="midnightblue" stroke="midnightblue" points="1061.59,-98.5 1071.59,-95 1061.59,-91.5 1061.59,-98.5"/>
</g>
<!-- Node3 -->
<g id="node3" class="node">
<title>Node3</title>
<g id="a_node3"><a xlink:href="classGPS.html#a1b1c89214229f5dc8ff7e2fa9cbcad35" target="_top" xlink:title=" ">
<polygon fill="white" stroke="black" points="620,-123.5 620,-142.5 726,-142.5 726,-123.5 620,-123.5"/>
<text text-anchor="middle" x="673" y="-130.5" font-family="Helvetica,sans-Serif" font-size="10.00">GPS::handleTimeout</text>
</a>
</g>
</g>
<!-- Node2&#45;&gt;Node3 -->
<g id="edge2" class="edge">
<title>Node2&#45;&gt;Node3</title>
<path fill="none" stroke="midnightblue" d="M905.94,-103.72C851.31,-110.61 776.2,-120.1 726.43,-126.38"/>
<polygon fill="midnightblue" stroke="midnightblue" points="906.41,-107.19 915.89,-102.46 905.53,-100.24 906.41,-107.19"/>
</g>
<!-- Node8 -->
<g id="node8" class="node">
<title>Node8</title>
<g id="a_node8"><a xlink:href="classGPS.html#a217097ae4a846c621f001a5aa1f4fb4f" target="_top" xlink:title=" ">
<polygon fill="white" stroke="black" points="762,-66.5 762,-85.5 880,-85.5 880,-66.5 762,-66.5"/>
<text text-anchor="middle" x="821" y="-73.5" font-family="Helvetica,sans-Serif" font-size="10.00">GPS::ProcessMessage</text>
</a>
</g>
</g>
<!-- Node2&#45;&gt;Node8 -->
<g id="edge14" class="edge">
<title>Node2&#45;&gt;Node8</title>
<path fill="none" stroke="midnightblue" d="M905.87,-86.42C897.31,-85.35 888.62,-84.27 880.24,-83.23"/>
<polygon fill="midnightblue" stroke="midnightblue" points="905.49,-89.89 915.85,-87.65 906.35,-82.95 905.49,-89.89"/>
</g>
<!-- Node3&#45;&gt;Node1 -->
<g id="edge12" class="edge">
<title>Node3&#45;&gt;Node1</title>
<path fill="none" stroke="midnightblue" d="M736.46,-133.18C808.88,-132.59 931.67,-129.12 1036,-114 1053.06,-111.53 1071.69,-107.97 1087.86,-104.6"/>
<polygon fill="midnightblue" stroke="midnightblue" points="736.12,-129.68 726.15,-133.25 736.17,-136.68 736.12,-129.68"/>
</g>
<!-- Node4 -->
<g id="node4" class="node">
<title>Node4</title>
<g id="a_node4"><a xlink:href="classGPS.html#ae4568ef4d5107c96c1af68d1abd33559" target="_top" xlink:title=" ">
<polygon fill="white" stroke="black" points="0,-66.5 0,-85.5 114,-85.5 114,-66.5 0,-66.5"/>
<text text-anchor="middle" x="57" y="-73.5" font-family="Helvetica,sans-Serif" font-size="10.00">GPS::closeConnection</text>
</a>
</g>
</g>
<!-- Node3&#45;&gt;Node4 -->
<g id="edge3" class="edge">
<title>Node3&#45;&gt;Node4</title>
<path fill="none" stroke="midnightblue" d="M609.69,-139.52C510.57,-148.02 311.64,-157.3 150,-116 122.83,-109.06 93.45,-95.03 75.38,-85.57"/>
<polygon fill="midnightblue" stroke="midnightblue" points="610.18,-143 619.84,-138.63 609.57,-136.02 610.18,-143"/>
</g>
<!-- Node6 -->
<g id="node6" class="node">
<title>Node6</title>
<g id="a_node6"><a xlink:href="classGPS.html#ac2a7572afb184df9c14ae913f17306bf" target="_top" xlink:title=" ">
<polygon fill="white" stroke="black" points="486,-85.5 486,-104.5 584,-104.5 584,-85.5 486,-85.5"/>
<text text-anchor="middle" x="535" y="-92.5" font-family="Helvetica,sans-Serif" font-size="10.00">GPS::initSerialPort</text>
</a>
</g>
</g>
<!-- Node3&#45;&gt;Node6 -->
<g id="edge13" class="edge">
<title>Node3&#45;&gt;Node6</title>
<path fill="none" stroke="midnightblue" d="M627.91,-120.68C609.23,-115.46 587.78,-109.47 570.31,-104.59"/>
<polygon fill="midnightblue" stroke="midnightblue" points="627.11,-124.09 637.68,-123.41 628.99,-117.35 627.11,-124.09"/>
</g>
<!-- Node5 -->
<g id="node5" class="node">
<title>Node5</title>
<g id="a_node5"><a xlink:href="classGPS.html#aaf69fb801bbce2ea70041e68fe0ec19a" target="_top" xlink:title=" ">
<polygon fill="white" stroke="black" points="150,-66.5 150,-85.5 302,-85.5 302,-66.5 150,-66.5"/>
<text text-anchor="middle" x="226" y="-73.5" font-family="Helvetica,sans-Serif" font-size="10.00">GPS::handleReconnectTimeout</text>
</a>
</g>
</g>
<!-- Node4&#45;&gt;Node5 -->
<g id="edge4" class="edge">
<title>Node4&#45;&gt;Node5</title>
<path fill="none" stroke="midnightblue" d="M124.33,-82.62C132.7,-82.75 141.31,-82.78 149.81,-82.72"/>
<polygon fill="midnightblue" stroke="midnightblue" points="124.34,-79.12 114.27,-82.42 124.2,-86.12 124.34,-79.12"/>
</g>
<!-- Node7 -->
<g id="node7" class="node">
<title>Node7</title>
<g id="a_node7"><a xlink:href="classGPS.html#a51eaea2422dd980ea0a6d28f12a136de" target="_top" xlink:title=" ">
<polygon fill="white" stroke="black" points="338,-104.5 338,-123.5 450,-123.5 450,-104.5 338,-104.5"/>
<text text-anchor="middle" x="394" y="-111.5" font-family="Helvetica,sans-Serif" font-size="10.00">GPS::openConnection</text>
</a>
</g>
</g>
<!-- Node4&#45;&gt;Node7 -->
<g id="edge11" class="edge">
<title>Node4&#45;&gt;Node7</title>
<path fill="none" stroke="midnightblue" d="M108.57,-87.63C121.98,-90.39 136.49,-93.08 150,-95 214.1,-104.09 288.38,-109.1 337.77,-111.66"/>
<polygon fill="midnightblue" stroke="midnightblue" points="109.08,-84.16 98.57,-85.52 107.63,-91.01 109.08,-84.16"/>
</g>
<!-- Node5&#45;&gt;Node1 -->
<g id="edge6" class="edge">
<title>Node5&#45;&gt;Node1</title>
<path fill="none" stroke="midnightblue" d="M259.21,-62.53C314.42,-40.7 431.14,0 534,0 822,0 822,0 822,0 937.16,0 1066.23,-61.22 1112.67,-85.37"/>
<polygon fill="midnightblue" stroke="midnightblue" points="257.61,-59.4 249.63,-66.37 260.22,-65.9 257.61,-59.4"/>
</g>
<!-- Node5&#45;&gt;Node4 -->
<g id="edge5" class="edge">
<title>Node5&#45;&gt;Node4</title>
<path fill="none" stroke="midnightblue" d="M139.69,-69.25C131.07,-69.26 122.47,-69.37 114.27,-69.58"/>
<polygon fill="midnightblue" stroke="midnightblue" points="139.8,-72.75 149.81,-69.28 139.82,-65.75 139.8,-72.75"/>
</g>
<!-- Node5&#45;&gt;Node6 -->
<g id="edge7" class="edge">
<title>Node5&#45;&gt;Node6</title>
<path fill="none" stroke="midnightblue" d="M312.48,-81.29C368.37,-84.75 439.36,-89.14 485.69,-92.01"/>
<polygon fill="midnightblue" stroke="midnightblue" points="312.42,-77.78 302.23,-80.66 311.99,-84.77 312.42,-77.78"/>
</g>
<!-- Node6&#45;&gt;Node7 -->
<g id="edge8" class="edge">
<title>Node6&#45;&gt;Node7</title>
<path fill="none" stroke="midnightblue" d="M475.67,-102.97C467.26,-104.12 458.63,-105.3 450.29,-106.44"/>
<polygon fill="midnightblue" stroke="midnightblue" points="476.34,-106.41 485.77,-101.59 475.39,-99.48 476.34,-106.41"/>
</g>
<!-- Node7&#45;&gt;Node1 -->
<g id="edge9" class="edge">
<title>Node7&#45;&gt;Node1</title>
<path fill="none" stroke="midnightblue" d="M424.55,-127.74C474.42,-149.64 578.97,-190 672,-190 822,-190 822,-190 822,-190 937.16,-190 1066.23,-128.78 1112.67,-104.63"/>
<polygon fill="midnightblue" stroke="midnightblue" points="425.88,-124.5 415.32,-123.63 423.03,-130.9 425.88,-124.5"/>
</g>
<!-- Node7&#45;&gt;Node5 -->
<g id="edge10" class="edge">
<title>Node7&#45;&gt;Node5</title>
<path fill="none" stroke="midnightblue" d="M341.35,-102.18C317.94,-96.82 290.64,-90.57 268.59,-85.52"/>
<polygon fill="midnightblue" stroke="midnightblue" points="340.58,-105.59 351.11,-104.41 342.14,-98.77 340.58,-105.59"/>
</g>
<!-- Node9 -->
<g id="node9" class="node">
<title>Node9</title>
<g id="a_node9"><a xlink:href="classGPS.html#aa0928d156961a54bf06d9b5210d85561" target="_top" xlink:title=" ">
<polygon fill="white" stroke="black" points="623.5,-47.5 623.5,-66.5 722.5,-66.5 722.5,-47.5 623.5,-47.5"/>
<text text-anchor="middle" x="673" y="-54.5" font-family="Helvetica,sans-Serif" font-size="10.00">GPS::readyToRead</text>
</a>
</g>
</g>
<!-- Node8&#45;&gt;Node9 -->
<g id="edge15" class="edge">
<title>Node8&#45;&gt;Node9</title>
<path fill="none" stroke="midnightblue" d="M751.69,-67.11C741.84,-65.83 731.88,-64.53 722.53,-63.32"/>
<polygon fill="midnightblue" stroke="midnightblue" points="751.51,-70.62 761.88,-68.44 752.41,-63.67 751.51,-70.62"/>
</g>
<!-- Node9&#45;&gt;Node1 -->
<g id="edge17" class="edge">
<title>Node9&#45;&gt;Node1</title>
<path fill="none" stroke="midnightblue" d="M732.89,-55.11C774.12,-54.25 830.47,-53.99 880,-57 949.72,-61.23 967.04,-64.89 1036,-76 1052.69,-78.69 1070.92,-82.21 1086.87,-85.5"/>
<polygon fill="midnightblue" stroke="midnightblue" points="732.67,-51.61 722.75,-55.34 732.83,-58.61 732.67,-51.61"/>
</g>
<!-- Node9&#45;&gt;Node4 -->
<g id="edge16" class="edge">
<title>Node9&#45;&gt;Node4</title>
<path fill="none" stroke="midnightblue" d="M613.08,-53.11C516.17,-47.59 317.23,-39.91 150,-57 131.83,-58.86 111.95,-62.73 95.33,-66.49"/>
<polygon fill="midnightblue" stroke="midnightblue" points="613.07,-56.62 623.26,-53.71 613.48,-49.63 613.07,-56.62"/>
</g>
<!-- Node9&#45;&gt;Node6 -->
<g id="edge18" class="edge">
<title>Node9&#45;&gt;Node6</title>
<path fill="none" stroke="midnightblue" d="M627.91,-69.32C609.23,-74.54 587.78,-80.53 570.31,-85.41"/>
<polygon fill="midnightblue" stroke="midnightblue" points="628.99,-72.65 637.68,-66.59 627.11,-65.91 628.99,-72.65"/>
</g>
</g>
</svg>
        <g id="navigator" transform="translate(0 0)" fill="#404254">
                <rect fill="#f2f5e9" fill-opacity="0.5" stroke="#606060" stroke-width=".5" x="0" y="0" width="60" height="60"/>
                <use id="zoomplus" xlink:href="#zoomPlus" x="17" y="9" onmousedown="handleZoom(evt,'in')"/>
                <use id="zoomminus" xlink:href="#zoomMin" x="42" y="9" onmousedown="handleZoom(evt,'out')"/>
                <use id="reset" xlink:href="#resetDef" x="30" y="36" onmousedown="handleReset()"/>
                <g id="arrowUp" xlink:href="#dirArrow" transform="translate(30 24)" onmousedown="handlePan(0,-1)">
                  <use xlink:href="#rim" fill="#404040">
                        <set attributeName="fill" to="#808080" begin="arrowUp.mouseover" end="arrowUp.mouseout"/>
                  </use>
                  <path fill="none" stroke="white" stroke-width="1.5" d="M0,-3.0v7 M-2.5,-0.5L0,-3.0L2.5,-0.5"/>
                </g>
                <g id="arrowRight" xlink:href="#dirArrow" transform="rotate(90) translate(36 -43)" onmousedown="handlePan(1,0)">
                  <use xlink:href="#rim" fill="#404040">
                        <set attributeName="fill" to="#808080" begin="arrowRight.mouseover" end="arrowRight.mouseout"/>
                  </use>
                  <path fill="none" stroke="white" stroke-width="1.5" d="M0,-3.0v7 M-2.5,-0.5L0,-3.0L2.5,-0.5"/>
                </g>
                <g id="arrowDown" xlink:href="#dirArrow" transform="rotate(180) translate(-30 -48)" onmousedown="handlePan(0,1)">
                  <use xlink:href="#rim" fill="#404040">
                        <set attributeName="fill" to="#808080" begin="arrowDown.mouseover" end="arrowDown.mouseout"/>
                  </use>
                  <path fill="none" stroke="white" stroke-width="1.5" d="M0,-3.0v7 M-2.5,-0.5L0,-3.0L2.5,-0.5"/>
                </g>
                <g id="arrowLeft" xlink:href="#dirArrow" transform="rotate(270) translate(-36 17)" onmousedown="handlePan(-1,0)">
                  <use xlink:href="#rim" fill="#404040">
                        <set attributeName="fill" to="#808080" begin="arrowLeft.mouseover" end="arrowLeft.mouseout"/>
                  </use>
                  <path fill="none" stroke="white" stroke-width="1.5" d="M0,-3.0v7 M-2.5,-0.5L0,-3.0L2.5,-0.5"/>
                </g>
        </g>
        <svg viewBox="0 0 15 15" width="100%" height="30px" preserveAspectRatio="xMaxYMin meet">
         <g id="arrow_out" transform="scale(0.3 0.3)">
          <a xlink:href="classGPS_a8775edfa08840ffb2647e0e5ba031fe5_icgraph_org.svg" target="_base">
           <rect id="button" ry="5" rx="5" y="6" x="6" height="38" width="38"
                fill="#f2f5e9" fill-opacity="0.5" stroke="#606060" stroke-width="1.0"/>
           <path id="arrow"
             d="M 11.500037,31.436501 C 11.940474,20.09759 22.043105,11.32322 32.158766,21.979434 L 37.068811,17.246167 C 37.068811,17.246167 37.088388,32 37.088388,32 L 22.160133,31.978069 C 22.160133,31.978069 26.997745,27.140456 26.997745,27.140456 C 18.528582,18.264221 13.291696,25.230495 11.500037,31.436501 z"
             style="fill:#404040;"/>
          </a>
         </g>
        </svg>
</svg>
