<?xml version="1.0" encoding="UTF-8" standalone="no"?>
<!DOCTYPE svg PUBLIC "-//W3C//DTD SVG 1.1//EN"
 "http://www.w3.org/Graphics/SVG/1.1/DTD/svg11.dtd">
<!-- Generated by graphviz version 2.49.3 (20211027.1534)
 -->
<!-- Title: AppSettings::writeEXAN7dampingSettings Pages: 1 -->
<svg width="509pt" height="116pt"
 viewBox="0.00 0.00 509.00 116.00" xmlns="http://www.w3.org/2000/svg" xmlns:xlink="http://www.w3.org/1999/xlink">
<g id="graph0" class="graph" transform="scale(1 1) rotate(0) translate(4 112)">
<title>AppSettings::writeEXAN7dampingSettings</title>
<polygon fill="white" stroke="transparent" points="-4,4 -4,-112 505,-112 505,4 -4,4"/>
<!-- Node1 -->
<g id="node1" class="node">
<title>Node1</title>
<g id="a_node1"><a xlink:title=" ">
<polygon fill="#bfbfbf" stroke="black" points="0,-39 0,-69 164,-69 164,-39 0,-39"/>
<text text-anchor="start" x="8" y="-57" font-family="Helvetica,sans-Serif" font-size="10.00">AppSettings::writeEXAN7damping</text>
<text text-anchor="middle" x="82" y="-46" font-family="Helvetica,sans-Serif" font-size="10.00">Settings</text>
</a>
</g>
</g>
<!-- Node2 -->
<g id="node2" class="node">
<title>Node2</title>
<g id="a_node2"><a xlink:href="classAppSettings.html#a853abe79f8fc2d1563822f71628d2d5d" target="_top" xlink:title=" ">
<polygon fill="white" stroke="black" points="218,-88.5 218,-107.5 331,-107.5 331,-88.5 218,-88.5"/>
<text text-anchor="middle" x="274.5" y="-95.5" font-family="Helvetica,sans-Serif" font-size="10.00">AppSettings::getValue</text>
</a>
</g>
</g>
<!-- Node1&#45;&gt;Node2 -->
<g id="edge1" class="edge">
<title>Node1&#45;&gt;Node2</title>
<path fill="none" stroke="midnightblue" d="M148.03,-69.02C172.34,-74.64 199.59,-80.93 222.47,-86.21"/>
<polygon fill="midnightblue" stroke="midnightblue" points="221.78,-89.65 232.32,-88.49 223.36,-82.83 221.78,-89.65"/>
</g>
<!-- Node3 -->
<g id="node3" class="node">
<title>Node3</title>
<g id="a_node3"><a xlink:href="classDashBoard.html#aa09c45f54956fff7f8085735520528a0" target="_top" xlink:title=" ">
<polygon fill="white" stroke="black" points="200,-39 200,-69 349,-69 349,-39 200,-39"/>
<text text-anchor="start" x="208" y="-57" font-family="Helvetica,sans-Serif" font-size="10.00">DashBoard::setsmootexAnalog</text>
<text text-anchor="middle" x="274.5" y="-46" font-family="Helvetica,sans-Serif" font-size="10.00">Input7</text>
</a>
</g>
</g>
<!-- Node1&#45;&gt;Node3 -->
<g id="edge2" class="edge">
<title>Node1&#45;&gt;Node3</title>
<path fill="none" stroke="midnightblue" d="M164.07,-54C172.49,-54 181.06,-54 189.52,-54"/>
<polygon fill="midnightblue" stroke="midnightblue" points="189.75,-57.5 199.75,-54 189.75,-50.5 189.75,-57.5"/>
</g>
<!-- Node5 -->
<g id="node5" class="node">
<title>Node5</title>
<g id="a_node5"><a xlink:href="classAppSettings.html#a9fe37794c01f77fc192cf961dc1443db" target="_top" xlink:title=" ">
<polygon fill="white" stroke="black" points="218,-0.5 218,-19.5 331,-19.5 331,-0.5 218,-0.5"/>
<text text-anchor="middle" x="274.5" y="-7.5" font-family="Helvetica,sans-Serif" font-size="10.00">AppSettings::setValue</text>
</a>
</g>
</g>
<!-- Node1&#45;&gt;Node5 -->
<g id="edge4" class="edge">
<title>Node1&#45;&gt;Node5</title>
<path fill="none" stroke="midnightblue" d="M148.03,-38.98C172.34,-33.36 199.59,-27.07 222.47,-21.79"/>
<polygon fill="midnightblue" stroke="midnightblue" points="223.36,-25.17 232.32,-19.51 221.78,-18.35 223.36,-25.17"/>
</g>
<!-- Node4 -->
<g id="node4" class="node">
<title>Node4</title>
<g id="a_node4"><a xlink:href="dashboard_8cpp.html#a2751a06c2fa6c8388f2d37d5d26453f3" target="_top" xlink:title=" ">
<polygon fill="white" stroke="black" points="385,-44.5 385,-63.5 501,-63.5 501,-44.5 385,-44.5"/>
<text text-anchor="middle" x="443" y="-51.5" font-family="Helvetica,sans-Serif" font-size="10.00">averageexanaloginput7</text>
</a>
</g>
</g>
<!-- Node3&#45;&gt;Node4 -->
<g id="edge3" class="edge">
<title>Node3&#45;&gt;Node4</title>
<path fill="none" stroke="midnightblue" d="M349.01,-54C357.56,-54 366.25,-54 374.7,-54"/>
<polygon fill="midnightblue" stroke="midnightblue" points="374.88,-57.5 384.88,-54 374.88,-50.5 374.88,-57.5"/>
</g>
</g>
</svg>
