<?xml version="1.0" encoding="UTF-8" standalone="no"?>
<!DOCTYPE svg PUBLIC "-//W3C//DTD SVG 1.1//EN"
 "http://www.w3.org/Graphics/SVG/1.1/DTD/svg11.dtd">
<!-- Generated by graphviz version 2.49.3 (20211027.1534)
 -->
<!-- Title: DashBoard::setAUXT Pages: 1 -->
<!--zoomable 88 -->
<svg id="main" version="1.1" xmlns="http://www.w3.org/2000/svg" xmlns:xlink="http://www.w3.org/1999/xlink" xml:space="preserve" onload="init(evt)">
<style type="text/css"><![CDATA[
.edge:hover path { stroke: red; }
.edge:hover polygon { stroke: red; fill: red; }
]]></style>
<script type="text/javascript"><![CDATA[
var edges = document.getElementsByTagName('g');
if (edges && edges.length) {
  for (var i=0;i<edges.length;i++) {
    if (edges[i].id.substr(0,4)=='edge') {
      edges[i].setAttribute('class','edge');
    }
  }
}
]]></script>
        <defs>
                <circle id="rim" cx="0" cy="0" r="7"/>
                <circle id="rim2" cx="0" cy="0" r="3.5"/>
                <g id="zoomPlus">
                        <use xlink:href="#rim" fill="#404040">
                                <set attributeName="fill" to="#808080" begin="zoomplus.mouseover" end="zoomplus.mouseout"/>
                        </use>
                        <path d="M-4,0h8M0,-4v8" fill="none" stroke="white" stroke-width="1.5" pointer-events="none"/>
                </g>
                <g id="zoomMin">
                        <use xlink:href="#rim" fill="#404040">
                                <set attributeName="fill" to="#808080" begin="zoomminus.mouseover" end="zoomminus.mouseout"/>
                        </use>
                        <path d="M-4,0h8" fill="none" stroke="white" stroke-width="1.5" pointer-events="none"/>
                </g>
                <g id="dirArrow">
                        <path fill="none" stroke="white" stroke-width="1.5" d="M0,-3.0v7 M-2.5,-0.5L0,-3.0L2.5,-0.5"/>
                </g>
               <g id="resetDef">
                       <use xlink:href="#rim2" fill="#404040">
                               <set attributeName="fill" to="#808080" begin="reset.mouseover" end="reset.mouseout"/>
                       </use>
               </g>
        </defs>

<script type="text/javascript">
var viewWidth = 862;
var viewHeight = 88;
var sectionId = 'dynsection-494';
</script>
<script xlink:href="svgpan.js"/>
<svg id="graph" class="graph">
<g id="viewport">
<title>DashBoard::setAUXT</title>
<polygon fill="white" stroke="transparent" points="-4,4 -4,-84 858,-84 858,4 -4,4"/>
<!-- Node1 -->
<g id="node1" class="node">
<title>Node1</title>
<g id="a_node1"><a xlink:title=" ">
<polygon fill="#bfbfbf" stroke="black" points="744,-30 744,-49 854,-49 854,-30 744,-30"/>
<text text-anchor="middle" x="799" y="-37" font-family="Helvetica,sans-Serif" font-size="10.00">DashBoard::setAUXT</text>
</a>
</g>
</g>
<!-- Node2 -->
<g id="node2" class="node">
<title>Node2</title>
<g id="a_node2"><a xlink:href="classAdaptronicSelect.html#ae353c5153a25423eb6044be7a2f1bf72" target="_top" xlink:title=" ">
<polygon fill="white" stroke="black" points="574,-49.5 574,-79.5 701,-79.5 701,-49.5 574,-49.5"/>
<text text-anchor="start" x="582" y="-67.5" font-family="Helvetica,sans-Serif" font-size="10.00">AdaptronicSelect::decode</text>
<text text-anchor="middle" x="637.5" y="-56.5" font-family="Helvetica,sans-Serif" font-size="10.00">Adaptronic</text>
</a>
</g>
</g>
<!-- Node1&#45;&gt;Node2 -->
<g id="edge1" class="edge">
<title>Node1&#45;&gt;Node2</title>
<path fill="none" stroke="midnightblue" d="M733.49,-49.61C722.84,-51.28 711.81,-53.01 701.21,-54.67"/>
<polygon fill="midnightblue" stroke="midnightblue" points="734.22,-53.04 743.56,-48.03 733.13,-46.12 734.22,-53.04"/>
</g>
<!-- Node6 -->
<g id="node6" class="node">
<title>Node6</title>
<g id="a_node6"><a xlink:href="classudpreceiver.html#a725cf4f5cf798fd5baed7eee2e6dd5f2" target="_top" xlink:title=" ">
<polygon fill="white" stroke="black" points="567,-0.5 567,-30.5 708,-30.5 708,-0.5 567,-0.5"/>
<text text-anchor="start" x="575" y="-18.5" font-family="Helvetica,sans-Serif" font-size="10.00">udpreceiver::processPending</text>
<text text-anchor="middle" x="637.5" y="-7.5" font-family="Helvetica,sans-Serif" font-size="10.00">Datagrams</text>
</a>
</g>
</g>
<!-- Node1&#45;&gt;Node6 -->
<g id="edge5" class="edge">
<title>Node1&#45;&gt;Node6</title>
<path fill="none" stroke="midnightblue" d="M733.53,-29.8C725.19,-28.54 716.63,-27.26 708.21,-25.99"/>
<polygon fill="midnightblue" stroke="midnightblue" points="733.15,-33.28 743.56,-31.31 734.19,-26.36 733.15,-33.28"/>
</g>
<!-- Node3 -->
<g id="node3" class="node">
<title>Node3</title>
<g id="a_node3"><a xlink:href="classAdaptronicSelect.html#af5ee85733260355dd5236c796c6a3fc5" target="_top" xlink:title=" ">
<polygon fill="white" stroke="black" points="379,-55 379,-74 531,-74 531,-55 379,-55"/>
<text text-anchor="middle" x="455" y="-62" font-family="Helvetica,sans-Serif" font-size="10.00">AdaptronicSelect::readyToRead</text>
</a>
</g>
</g>
<!-- Node2&#45;&gt;Node3 -->
<g id="edge2" class="edge">
<title>Node2&#45;&gt;Node3</title>
<path fill="none" stroke="midnightblue" d="M563.74,-64.5C553.04,-64.5 542,-64.5 531.25,-64.5"/>
<polygon fill="midnightblue" stroke="midnightblue" points="563.88,-68 573.88,-64.5 563.88,-61 563.88,-68"/>
</g>
<!-- Node4 -->
<g id="node4" class="node">
<title>Node4</title>
<g id="a_node4"><a xlink:href="classAdaptronicSelect.html#a79148c38700405eb6a3fc1338be170ab" target="_top" xlink:title=" ">
<polygon fill="white" stroke="black" points="201,-49.5 201,-79.5 343,-79.5 343,-49.5 201,-49.5"/>
<text text-anchor="start" x="209" y="-67.5" font-family="Helvetica,sans-Serif" font-size="10.00">AdaptronicSelect::Adaptronic</text>
<text text-anchor="middle" x="272" y="-56.5" font-family="Helvetica,sans-Serif" font-size="10.00">StartStream</text>
</a>
</g>
</g>
<!-- Node3&#45;&gt;Node4 -->
<g id="edge3" class="edge">
<title>Node3&#45;&gt;Node4</title>
<path fill="none" stroke="midnightblue" d="M368.75,-64.5C360.13,-64.5 351.45,-64.5 343.03,-64.5"/>
<polygon fill="midnightblue" stroke="midnightblue" points="368.81,-68 378.81,-64.5 368.81,-61 368.81,-68"/>
</g>
<!-- Node5 -->
<g id="node5" class="node">
<title>Node5</title>
<g id="a_node5"><a xlink:href="classAdaptronicSelect.html#a16932b235281a8071bdf5404df8160ac" target="_top" xlink:title=" ">
<polygon fill="white" stroke="black" points="0,-55 0,-74 165,-74 165,-55 0,-55"/>
<text text-anchor="middle" x="82.5" y="-62" font-family="Helvetica,sans-Serif" font-size="10.00">AdaptronicSelect::openConnection</text>
</a>
</g>
</g>
<!-- Node4&#45;&gt;Node5 -->
<g id="edge4" class="edge">
<title>Node4&#45;&gt;Node5</title>
<path fill="none" stroke="midnightblue" d="M190.7,-64.5C182.25,-64.5 173.65,-64.5 165.19,-64.5"/>
<polygon fill="midnightblue" stroke="midnightblue" points="190.92,-68 200.92,-64.5 190.92,-61 190.92,-68"/>
</g>
<!-- Node7 -->
<g id="node7" class="node">
<title>Node7</title>
<g id="a_node7"><a xlink:href="classudpreceiver.html#a2d7852b9e4be87d9a3ce960d8a7eb9aa" target="_top" xlink:title=" ">
<polygon fill="white" stroke="black" points="392.5,-6 392.5,-25 517.5,-25 517.5,-6 392.5,-6"/>
<text text-anchor="middle" x="455" y="-13" font-family="Helvetica,sans-Serif" font-size="10.00">udpreceiver::startreceiver</text>
</a>
</g>
</g>
<!-- Node6&#45;&gt;Node7 -->
<g id="edge6" class="edge">
<title>Node6&#45;&gt;Node7</title>
<path fill="none" stroke="midnightblue" d="M556.95,-15.5C543.74,-15.5 530.21,-15.5 517.54,-15.5"/>
<polygon fill="midnightblue" stroke="midnightblue" points="556.97,-19 566.97,-15.5 556.97,-12 556.97,-19"/>
</g>
<!-- Node8 -->
<g id="node8" class="node">
<title>Node8</title>
<g id="a_node8"><a xlink:href="classConnect.html#a0d674157f4d7442c535837dadd8cf5f1" target="_top" xlink:title=" ">
<polygon fill="white" stroke="black" points="208.5,-6 208.5,-25 335.5,-25 335.5,-6 208.5,-6"/>
<text text-anchor="middle" x="272" y="-13" font-family="Helvetica,sans-Serif" font-size="10.00">Connect::openConnection</text>
</a>
</g>
</g>
<!-- Node7&#45;&gt;Node8 -->
<g id="edge7" class="edge">
<title>Node7&#45;&gt;Node8</title>
<path fill="none" stroke="midnightblue" d="M382.43,-15.5C366.95,-15.5 350.7,-15.5 335.59,-15.5"/>
<polygon fill="midnightblue" stroke="midnightblue" points="382.47,-19 392.47,-15.5 382.47,-12 382.47,-19"/>
</g>
</g>
</svg>
        <g id="navigator" transform="translate(0 0)" fill="#404254">
                <rect fill="#f2f5e9" fill-opacity="0.5" stroke="#606060" stroke-width=".5" x="0" y="0" width="60" height="60"/>
                <use id="zoomplus" xlink:href="#zoomPlus" x="17" y="9" onmousedown="handleZoom(evt,'in')"/>
                <use id="zoomminus" xlink:href="#zoomMin" x="42" y="9" onmousedown="handleZoom(evt,'out')"/>
                <use id="reset" xlink:href="#resetDef" x="30" y="36" onmousedown="handleReset()"/>
                <g id="arrowUp" xlink:href="#dirArrow" transform="translate(30 24)" onmousedown="handlePan(0,-1)">
                  <use xlink:href="#rim" fill="#404040">
                        <set attributeName="fill" to="#808080" begin="arrowUp.mouseover" end="arrowUp.mouseout"/>
                  </use>
                  <path fill="none" stroke="white" stroke-width="1.5" d="M0,-3.0v7 M-2.5,-0.5L0,-3.0L2.5,-0.5"/>
                </g>
                <g id="arrowRight" xlink:href="#dirArrow" transform="rotate(90) translate(36 -43)" onmousedown="handlePan(1,0)">
                  <use xlink:href="#rim" fill="#404040">
                        <set attributeName="fill" to="#808080" begin="arrowRight.mouseover" end="arrowRight.mouseout"/>
                  </use>
                  <path fill="none" stroke="white" stroke-width="1.5" d="M0,-3.0v7 M-2.5,-0.5L0,-3.0L2.5,-0.5"/>
                </g>
                <g id="arrowDown" xlink:href="#dirArrow" transform="rotate(180) translate(-30 -48)" onmousedown="handlePan(0,1)">
                  <use xlink:href="#rim" fill="#404040">
                        <set attributeName="fill" to="#808080" begin="arrowDown.mouseover" end="arrowDown.mouseout"/>
                  </use>
                  <path fill="none" stroke="white" stroke-width="1.5" d="M0,-3.0v7 M-2.5,-0.5L0,-3.0L2.5,-0.5"/>
                </g>
                <g id="arrowLeft" xlink:href="#dirArrow" transform="rotate(270) translate(-36 17)" onmousedown="handlePan(-1,0)">
                  <use xlink:href="#rim" fill="#404040">
                        <set attributeName="fill" to="#808080" begin="arrowLeft.mouseover" end="arrowLeft.mouseout"/>
                  </use>
                  <path fill="none" stroke="white" stroke-width="1.5" d="M0,-3.0v7 M-2.5,-0.5L0,-3.0L2.5,-0.5"/>
                </g>
        </g>
        <svg viewBox="0 0 15 15" width="100%" height="30px" preserveAspectRatio="xMaxYMin meet">
         <g id="arrow_out" transform="scale(0.3 0.3)">
          <a xlink:href="classDashBoard_a8fb1b3f8d0a98a92ef3363bf471ddd31_icgraph_org.svg" target="_base">
           <rect id="button" ry="5" rx="5" y="6" x="6" height="38" width="38"
                fill="#f2f5e9" fill-opacity="0.5" stroke="#606060" stroke-width="1.0"/>
           <path id="arrow"
             d="M 11.500037,31.436501 C 11.940474,20.09759 22.043105,11.32322 32.158766,21.979434 L 37.068811,17.246167 C 37.068811,17.246167 37.088388,32 37.088388,32 L 22.160133,31.978069 C 22.160133,31.978069 26.997745,27.140456 26.997745,27.140456 C 18.528582,18.264221 13.291696,25.230495 11.500037,31.436501 z"
             style="fill:#404040;"/>
          </a>
         </g>
        </svg>
</svg>
