<?xml version="1.0" encoding="UTF-8" standalone="no"?>
<!DOCTYPE svg PUBLIC "-//W3C//DTD SVG 1.1//EN"
 "http://www.w3.org/Graphics/SVG/1.1/DTD/svg11.dtd">
<!-- Generated by graphviz version 2.49.3 (20211027.1534)
 -->
<!-- Title: averageexanaloginput7 Pages: 1 -->
<!--zoomable 195 -->
<svg id="main" version="1.1" xmlns="http://www.w3.org/2000/svg" xmlns:xlink="http://www.w3.org/1999/xlink" xml:space="preserve" onload="init(evt)">
<style type="text/css"><![CDATA[
.edge:hover path { stroke: red; }
.edge:hover polygon { stroke: red; fill: red; }
]]></style>
<script type="text/javascript"><![CDATA[
var edges = document.getElementsByTagName('g');
if (edges && edges.length) {
  for (var i=0;i<edges.length;i++) {
    if (edges[i].id.substr(0,4)=='edge') {
      edges[i].setAttribute('class','edge');
    }
  }
}
]]></script>
        <defs>
                <circle id="rim" cx="0" cy="0" r="7"/>
                <circle id="rim2" cx="0" cy="0" r="3.5"/>
                <g id="zoomPlus">
                        <use xlink:href="#rim" fill="#404040">
                                <set attributeName="fill" to="#808080" begin="zoomplus.mouseover" end="zoomplus.mouseout"/>
                        </use>
                        <path d="M-4,0h8M0,-4v8" fill="none" stroke="white" stroke-width="1.5" pointer-events="none"/>
                </g>
                <g id="zoomMin">
                        <use xlink:href="#rim" fill="#404040">
                                <set attributeName="fill" to="#808080" begin="zoomminus.mouseover" end="zoomminus.mouseout"/>
                        </use>
                        <path d="M-4,0h8" fill="none" stroke="white" stroke-width="1.5" pointer-events="none"/>
                </g>
                <g id="dirArrow">
                        <path fill="none" stroke="white" stroke-width="1.5" d="M0,-3.0v7 M-2.5,-0.5L0,-3.0L2.5,-0.5"/>
                </g>
               <g id="resetDef">
                       <use xlink:href="#rim2" fill="#404040">
                               <set attributeName="fill" to="#808080" begin="reset.mouseover" end="reset.mouseout"/>
                       </use>
               </g>
        </defs>

<script type="text/javascript">
var viewWidth = 842;
var viewHeight = 195;
var sectionId = 'dynsection-1';
</script>
<script xlink:href="svgpan.js"/>
<svg id="graph" class="graph">
<g id="viewport">
<title>averageexanaloginput7</title>
<polygon fill="white" stroke="transparent" points="-4,4 -4,-191 838,-191 838,4 -4,4"/>
<!-- Node1 -->
<g id="node1" class="node">
<title>Node1</title>
<g id="a_node1"><a xlink:title=" ">
<polygon fill="#bfbfbf" stroke="black" points="718,-77 718,-96 834,-96 834,-77 718,-77"/>
<text text-anchor="middle" x="776" y="-84" font-family="Helvetica,sans-Serif" font-size="10.00">averageexanaloginput7</text>
</a>
</g>
</g>
<!-- Node2 -->
<g id="node2" class="node">
<title>Node2</title>
<g id="a_node2"><a xlink:href="classDashBoard.html#a84edfc43f79c2ec11502be1fa0bba88a" target="_top" xlink:title=" ">
<polygon fill="white" stroke="black" points="530,-112 530,-131 682,-131 682,-112 530,-112"/>
<text text-anchor="middle" x="606" y="-119" font-family="Helvetica,sans-Serif" font-size="10.00">DashBoard::setEXAnalogInput7</text>
</a>
</g>
</g>
<!-- Node1&#45;&gt;Node2 -->
<g id="edge1" class="edge">
<title>Node1&#45;&gt;Node2</title>
<path fill="none" stroke="midnightblue" d="M719.11,-98.14C697.6,-102.63 673.31,-107.69 652.85,-111.95"/>
<polygon fill="midnightblue" stroke="midnightblue" points="720.02,-101.53 729.09,-96.06 718.59,-94.68 720.02,-101.53"/>
</g>
<!-- Node9 -->
<g id="node9" class="node">
<title>Node9</title>
<g id="a_node9"><a xlink:href="classDashBoard.html#aa09c45f54956fff7f8085735520528a0" target="_top" xlink:title=" ">
<polygon fill="white" stroke="black" points="531.5,-49.5 531.5,-79.5 680.5,-79.5 680.5,-49.5 531.5,-49.5"/>
<text text-anchor="start" x="539.5" y="-67.5" font-family="Helvetica,sans-Serif" font-size="10.00">DashBoard::setsmootexAnalog</text>
<text text-anchor="middle" x="606" y="-56.5" font-family="Helvetica,sans-Serif" font-size="10.00">Input7</text>
</a>
</g>
</g>
<!-- Node1&#45;&gt;Node9 -->
<g id="edge9" class="edge">
<title>Node1&#45;&gt;Node9</title>
<path fill="none" stroke="midnightblue" d="M707.46,-77.66C698.67,-76.5 689.62,-75.32 680.72,-74.15"/>
<polygon fill="midnightblue" stroke="midnightblue" points="707.28,-81.16 717.65,-78.99 708.19,-74.22 707.28,-81.16"/>
</g>
<!-- Node3 -->
<g id="node3" class="node">
<title>Node3</title>
<g id="a_node3"><a xlink:href="classudpreceiver.html#a725cf4f5cf798fd5baed7eee2e6dd5f2" target="_top" xlink:title=" ">
<polygon fill="white" stroke="black" points="341.5,-156.5 341.5,-186.5 482.5,-186.5 482.5,-156.5 341.5,-156.5"/>
<text text-anchor="start" x="349.5" y="-174.5" font-family="Helvetica,sans-Serif" font-size="10.00">udpreceiver::processPending</text>
<text text-anchor="middle" x="412" y="-163.5" font-family="Helvetica,sans-Serif" font-size="10.00">Datagrams</text>
</a>
</g>
</g>
<!-- Node2&#45;&gt;Node3 -->
<g id="edge2" class="edge">
<title>Node2&#45;&gt;Node3</title>
<path fill="none" stroke="midnightblue" d="M558.69,-133.56C532.32,-140.43 499.04,-149.09 470.95,-156.41"/>
<polygon fill="midnightblue" stroke="midnightblue" points="559.64,-136.93 568.43,-131.02 557.88,-130.16 559.64,-136.93"/>
</g>
<!-- Node6 -->
<g id="node6" class="node">
<title>Node6</title>
<g id="a_node6"><a xlink:href="classExtender.html#ab1ef1d1764fa63ca790092c338272466" target="_top" xlink:title=" ">
<polygon fill="white" stroke="black" points="354,-112 354,-131 470,-131 470,-112 354,-112"/>
<text text-anchor="middle" x="412" y="-119" font-family="Helvetica,sans-Serif" font-size="10.00">Extender::readyToRead</text>
</a>
</g>
</g>
<!-- Node2&#45;&gt;Node6 -->
<g id="edge5" class="edge">
<title>Node2&#45;&gt;Node6</title>
<path fill="none" stroke="midnightblue" d="M519.6,-121.5C502.87,-121.5 485.7,-121.5 470.17,-121.5"/>
<polygon fill="midnightblue" stroke="midnightblue" points="519.94,-125 529.94,-121.5 519.94,-118 519.94,-125"/>
</g>
<!-- Node4 -->
<g id="node4" class="node">
<title>Node4</title>
<g id="a_node4"><a xlink:href="classudpreceiver.html#a2d7852b9e4be87d9a3ce960d8a7eb9aa" target="_top" xlink:title=" ">
<polygon fill="white" stroke="black" points="166,-165 166,-184 291,-184 291,-165 166,-165"/>
<text text-anchor="middle" x="228.5" y="-172" font-family="Helvetica,sans-Serif" font-size="10.00">udpreceiver::startreceiver</text>
</a>
</g>
</g>
<!-- Node3&#45;&gt;Node4 -->
<g id="edge3" class="edge">
<title>Node3&#45;&gt;Node4</title>
<path fill="none" stroke="midnightblue" d="M331.19,-172.82C317.81,-173.04 304.1,-173.27 291.26,-173.48"/>
<polygon fill="midnightblue" stroke="midnightblue" points="331.41,-176.32 341.35,-172.65 331.29,-169.32 331.41,-176.32"/>
</g>
<!-- Node5 -->
<g id="node5" class="node">
<title>Node5</title>
<g id="a_node5"><a xlink:href="classConnect.html#a0d674157f4d7442c535837dadd8cf5f1" target="_top" xlink:title=" ">
<polygon fill="white" stroke="black" points="0,-127 0,-146 127,-146 127,-127 0,-127"/>
<text text-anchor="middle" x="63.5" y="-134" font-family="Helvetica,sans-Serif" font-size="10.00">Connect::openConnection</text>
</a>
</g>
</g>
<!-- Node4&#45;&gt;Node5 -->
<g id="edge4" class="edge">
<title>Node4&#45;&gt;Node5</title>
<path fill="none" stroke="midnightblue" d="M176.47,-162.6C153.56,-157.26 126.9,-151.05 105.34,-146.02"/>
<polygon fill="midnightblue" stroke="midnightblue" points="175.83,-166.05 186.37,-164.91 177.42,-159.23 175.83,-166.05"/>
</g>
<!-- Node7 -->
<g id="node7" class="node">
<title>Node7</title>
<g id="a_node7"><a xlink:href="classExtender.html#a91c1b61923744481d7ee80dbd52b98c3" target="_top" xlink:title=" ">
<polygon fill="white" stroke="black" points="163,-127 163,-146 294,-146 294,-127 163,-127"/>
<text text-anchor="middle" x="228.5" y="-134" font-family="Helvetica,sans-Serif" font-size="10.00">Extender::closeConnection</text>
</a>
</g>
</g>
<!-- Node6&#45;&gt;Node7 -->
<g id="edge6" class="edge">
<title>Node6&#45;&gt;Node7</title>
<path fill="none" stroke="midnightblue" d="M343.19,-127.1C327.13,-128.43 310.04,-129.84 294.13,-131.16"/>
<polygon fill="midnightblue" stroke="midnightblue" points="343.89,-130.56 353.57,-126.25 343.32,-123.58 343.89,-130.56"/>
</g>
<!-- Node8 -->
<g id="node8" class="node">
<title>Node8</title>
<g id="a_node8"><a xlink:href="classExtender.html#a290c0ffb772638ad4658eac0b0b5931e" target="_top" xlink:title=" ">
<polygon fill="white" stroke="black" points="178,-89 178,-108 279,-108 279,-89 178,-89"/>
<text text-anchor="middle" x="228.5" y="-96" font-family="Helvetica,sans-Serif" font-size="10.00">Extender::openCAN</text>
</a>
</g>
</g>
<!-- Node6&#45;&gt;Node8 -->
<g id="edge7" class="edge">
<title>Node6&#45;&gt;Node8</title>
<path fill="none" stroke="midnightblue" d="M343.59,-112.96C322.26,-110.25 299.08,-107.32 279.22,-104.8"/>
<polygon fill="midnightblue" stroke="midnightblue" points="343.21,-116.44 353.57,-114.22 344.09,-109.49 343.21,-116.44"/>
</g>
<!-- Node8&#45;&gt;Node5 -->
<g id="edge8" class="edge">
<title>Node8&#45;&gt;Node5</title>
<path fill="none" stroke="midnightblue" d="M176.47,-110.4C153.56,-115.74 126.9,-121.95 105.34,-126.98"/>
<polygon fill="midnightblue" stroke="midnightblue" points="177.42,-113.77 186.37,-108.09 175.83,-106.95 177.42,-113.77"/>
</g>
<!-- Node10 -->
<g id="node10" class="node">
<title>Node10</title>
<g id="a_node10"><a xlink:href="classAppSettings.html#af97c4b73b02f8cf8ef75b11d8f86ac40" target="_top" xlink:title=" ">
<polygon fill="white" stroke="black" points="345.5,-49.5 345.5,-79.5 478.5,-79.5 478.5,-49.5 345.5,-49.5"/>
<text text-anchor="start" x="353.5" y="-67.5" font-family="Helvetica,sans-Serif" font-size="10.00">AppSettings::readandApply</text>
<text text-anchor="middle" x="412" y="-56.5" font-family="Helvetica,sans-Serif" font-size="10.00">Settings</text>
</a>
</g>
</g>
<!-- Node9&#45;&gt;Node10 -->
<g id="edge10" class="edge">
<title>Node9&#45;&gt;Node10</title>
<path fill="none" stroke="midnightblue" d="M521.06,-64.5C506.85,-64.5 492.29,-64.5 478.64,-64.5"/>
<polygon fill="midnightblue" stroke="midnightblue" points="521.32,-68 531.32,-64.5 521.32,-61 521.32,-68"/>
</g>
<!-- Node12 -->
<g id="node12" class="node">
<title>Node12</title>
<g id="a_node12"><a xlink:href="classAppSettings.html#adbb124ed9b5975b78daadba4bbaa32a3" target="_top" xlink:title=" ">
<polygon fill="white" stroke="black" points="330,-0.5 330,-30.5 494,-30.5 494,-0.5 330,-0.5"/>
<text text-anchor="start" x="338" y="-18.5" font-family="Helvetica,sans-Serif" font-size="10.00">AppSettings::writeEXAN7damping</text>
<text text-anchor="middle" x="412" y="-7.5" font-family="Helvetica,sans-Serif" font-size="10.00">Settings</text>
</a>
</g>
</g>
<!-- Node9&#45;&gt;Node12 -->
<g id="edge12" class="edge">
<title>Node9&#45;&gt;Node12</title>
<path fill="none" stroke="midnightblue" d="M536.23,-46.95C515.15,-41.57 492.15,-35.7 471.8,-30.51"/>
<polygon fill="midnightblue" stroke="midnightblue" points="535.53,-50.38 546.09,-49.47 537.26,-43.6 535.53,-50.38"/>
</g>
<!-- Node11 -->
<g id="node11" class="node">
<title>Node11</title>
<g id="a_node11"><a xlink:href="classConnect.html#a2e3bdc883e226b286ee2ea851bf5f551" target="_top" xlink:title=" ">
<polygon fill="white" stroke="black" points="182,-51 182,-70 275,-70 275,-51 182,-51"/>
<text text-anchor="middle" x="228.5" y="-58" font-family="Helvetica,sans-Serif" font-size="10.00">Connect::Connect</text>
</a>
</g>
</g>
<!-- Node10&#45;&gt;Node11 -->
<g id="edge11" class="edge">
<title>Node10&#45;&gt;Node11</title>
<path fill="none" stroke="midnightblue" d="M335.22,-62.83C314.76,-62.38 293.27,-61.91 275.04,-61.5"/>
<polygon fill="midnightblue" stroke="midnightblue" points="335.4,-66.33 345.47,-63.06 335.55,-59.34 335.4,-66.33"/>
</g>
</g>
</svg>
        <g id="navigator" transform="translate(0 0)" fill="#404254">
                <rect fill="#f2f5e9" fill-opacity="0.5" stroke="#606060" stroke-width=".5" x="0" y="0" width="60" height="60"/>
                <use id="zoomplus" xlink:href="#zoomPlus" x="17" y="9" onmousedown="handleZoom(evt,'in')"/>
                <use id="zoomminus" xlink:href="#zoomMin" x="42" y="9" onmousedown="handleZoom(evt,'out')"/>
                <use id="reset" xlink:href="#resetDef" x="30" y="36" onmousedown="handleReset()"/>
                <g id="arrowUp" xlink:href="#dirArrow" transform="translate(30 24)" onmousedown="handlePan(0,-1)">
                  <use xlink:href="#rim" fill="#404040">
                        <set attributeName="fill" to="#808080" begin="arrowUp.mouseover" end="arrowUp.mouseout"/>
                  </use>
                  <path fill="none" stroke="white" stroke-width="1.5" d="M0,-3.0v7 M-2.5,-0.5L0,-3.0L2.5,-0.5"/>
                </g>
                <g id="arrowRight" xlink:href="#dirArrow" transform="rotate(90) translate(36 -43)" onmousedown="handlePan(1,0)">
                  <use xlink:href="#rim" fill="#404040">
                        <set attributeName="fill" to="#808080" begin="arrowRight.mouseover" end="arrowRight.mouseout"/>
                  </use>
                  <path fill="none" stroke="white" stroke-width="1.5" d="M0,-3.0v7 M-2.5,-0.5L0,-3.0L2.5,-0.5"/>
                </g>
                <g id="arrowDown" xlink:href="#dirArrow" transform="rotate(180) translate(-30 -48)" onmousedown="handlePan(0,1)">
                  <use xlink:href="#rim" fill="#404040">
                        <set attributeName="fill" to="#808080" begin="arrowDown.mouseover" end="arrowDown.mouseout"/>
                  </use>
                  <path fill="none" stroke="white" stroke-width="1.5" d="M0,-3.0v7 M-2.5,-0.5L0,-3.0L2.5,-0.5"/>
                </g>
                <g id="arrowLeft" xlink:href="#dirArrow" transform="rotate(270) translate(-36 17)" onmousedown="handlePan(-1,0)">
                  <use xlink:href="#rim" fill="#404040">
                        <set attributeName="fill" to="#808080" begin="arrowLeft.mouseover" end="arrowLeft.mouseout"/>
                  </use>
                  <path fill="none" stroke="white" stroke-width="1.5" d="M0,-3.0v7 M-2.5,-0.5L0,-3.0L2.5,-0.5"/>
                </g>
        </g>
        <svg viewBox="0 0 15 15" width="100%" height="30px" preserveAspectRatio="xMaxYMin meet">
         <g id="arrow_out" transform="scale(0.3 0.3)">
          <a xlink:href="dashboard_8cpp_a2751a06c2fa6c8388f2d37d5d26453f3_icgraph_org.svg" target="_base">
           <rect id="button" ry="5" rx="5" y="6" x="6" height="38" width="38"
                fill="#f2f5e9" fill-opacity="0.5" stroke="#606060" stroke-width="1.0"/>
           <path id="arrow"
             d="M 11.500037,31.436501 C 11.940474,20.09759 22.043105,11.32322 32.158766,21.979434 L 37.068811,17.246167 C 37.068811,17.246167 37.088388,32 37.088388,32 L 22.160133,31.978069 C 22.160133,31.978069 26.997745,27.140456 26.997745,27.140456 C 18.528582,18.264221 13.291696,25.230495 11.500037,31.436501 z"
             style="fill:#404040;"/>
          </a>
         </g>
        </svg>
</svg>
