<?xml version="1.0" encoding="UTF-8" standalone="no"?>
<!DOCTYPE svg PUBLIC "-//W3C//DTD SVG 1.1//EN"
 "http://www.w3.org/Graphics/SVG/1.1/DTD/svg11.dtd">
<!-- Generated by graphviz version 2.49.3 (20211027.1534)
 -->
<!-- Title: Extender.cpp Pages: 1 -->
<svg width="639pt" height="140pt"
 viewBox="0.00 0.00 638.50 140.00" xmlns="http://www.w3.org/2000/svg" xmlns:xlink="http://www.w3.org/1999/xlink">
<g id="graph0" class="graph" transform="scale(1 1) rotate(0) translate(4 136)">
<title>Extender.cpp</title>
<polygon fill="white" stroke="transparent" points="-4,4 -4,-136 634.5,-136 634.5,4 -4,4"/>
<!-- Node1 -->
<g id="node1" class="node">
<title>Node1</title>
<g id="a_node1"><a xlink:title=" ">
<polygon fill="#bfbfbf" stroke="black" points="396.5,-112.5 396.5,-131.5 468.5,-131.5 468.5,-112.5 396.5,-112.5"/>
<text text-anchor="middle" x="432.5" y="-119.5" font-family="Helvetica,sans-Serif" font-size="10.00">Extender.cpp</text>
</a>
</g>
</g>
<!-- Node2 -->
<g id="node2" class="node">
<title>Node2</title>
<g id="a_node2"><a xlink:href="Extender_8h.html" target="_top" xlink:title=" ">
<polygon fill="white" stroke="black" points="196.5,-56.5 196.5,-75.5 258.5,-75.5 258.5,-56.5 196.5,-56.5"/>
<text text-anchor="middle" x="227.5" y="-63.5" font-family="Helvetica,sans-Serif" font-size="10.00">Extender.h</text>
</a>
</g>
</g>
<!-- Node1&#45;&gt;Node2 -->
<g id="edge1" class="edge">
<title>Node1&#45;&gt;Node2</title>
<path fill="none" stroke="midnightblue" d="M400.02,-112.44C364.47,-103.08 307.4,-88.05 268.72,-77.86"/>
<polygon fill="midnightblue" stroke="midnightblue" points="269.38,-74.41 258.82,-75.25 267.6,-81.18 269.38,-74.41"/>
</g>
<!-- Node7 -->
<g id="node7" class="node">
<title>Node7</title>
<g id="a_node7"><a xlink:href="dashboard_8h.html" target="_top" xlink:title=" ">
<polygon fill="white" stroke="black" points="281,-56.5 281,-75.5 350,-75.5 350,-56.5 281,-56.5"/>
<text text-anchor="middle" x="315.5" y="-63.5" font-family="Helvetica,sans-Serif" font-size="10.00">dashboard.h</text>
</a>
</g>
</g>
<!-- Node1&#45;&gt;Node7 -->
<g id="edge6" class="edge">
<title>Node1&#45;&gt;Node7</title>
<path fill="none" stroke="midnightblue" d="M413.96,-112.44C394.88,-103.64 364.93,-89.81 343.06,-79.72"/>
<polygon fill="midnightblue" stroke="midnightblue" points="344.5,-76.53 333.95,-75.52 341.57,-82.88 344.5,-76.53"/>
</g>
<!-- Node9 -->
<g id="node9" class="node">
<title>Node9</title>
<g id="a_node9"><a xlink:title=" ">
<polygon fill="white" stroke="#bfbfbf" points="368.5,-56.5 368.5,-75.5 424.5,-75.5 424.5,-56.5 368.5,-56.5"/>
<text text-anchor="middle" x="396.5" y="-63.5" font-family="Helvetica,sans-Serif" font-size="10.00">QtEndian</text>
</a>
</g>
</g>
<!-- Node1&#45;&gt;Node9 -->
<g id="edge9" class="edge">
<title>Node1&#45;&gt;Node9</title>
<path fill="none" stroke="midnightblue" d="M426.56,-112.08C421.52,-104.53 414.16,-93.49 407.99,-84.23"/>
<polygon fill="midnightblue" stroke="midnightblue" points="410.79,-82.13 402.33,-75.75 404.97,-86.01 410.79,-82.13"/>
</g>
<!-- Node10 -->
<g id="node10" class="node">
<title>Node10</title>
<g id="a_node10"><a xlink:title=" ">
<polygon fill="white" stroke="#bfbfbf" points="442.5,-56.5 442.5,-75.5 494.5,-75.5 494.5,-56.5 442.5,-56.5"/>
<text text-anchor="middle" x="468.5" y="-63.5" font-family="Helvetica,sans-Serif" font-size="10.00">QDebug</text>
</a>
</g>
</g>
<!-- Node1&#45;&gt;Node10 -->
<g id="edge10" class="edge">
<title>Node1&#45;&gt;Node10</title>
<path fill="none" stroke="midnightblue" d="M438.44,-112.08C443.48,-104.53 450.84,-93.49 457.01,-84.23"/>
<polygon fill="midnightblue" stroke="midnightblue" points="460.03,-86.01 462.67,-75.75 454.21,-82.13 460.03,-86.01"/>
</g>
<!-- Node11 -->
<g id="node11" class="node">
<title>Node11</title>
<g id="a_node11"><a xlink:title=" ">
<polygon fill="white" stroke="#bfbfbf" points="513,-56.5 513,-75.5 566,-75.5 566,-56.5 513,-56.5"/>
<text text-anchor="middle" x="539.5" y="-63.5" font-family="Helvetica,sans-Serif" font-size="10.00">QVector</text>
</a>
</g>
</g>
<!-- Node1&#45;&gt;Node11 -->
<g id="edge11" class="edge">
<title>Node1&#45;&gt;Node11</title>
<path fill="none" stroke="midnightblue" d="M449.69,-112.32C466.85,-103.66 493.45,-90.24 513.25,-80.25"/>
<polygon fill="midnightblue" stroke="midnightblue" points="515,-83.28 522.35,-75.65 511.85,-77.04 515,-83.28"/>
</g>
<!-- Node12 -->
<g id="node12" class="node">
<title>Node12</title>
<g id="a_node12"><a xlink:title=" ">
<polygon fill="white" stroke="#bfbfbf" points="584.5,-56.5 584.5,-75.5 630.5,-75.5 630.5,-56.5 584.5,-56.5"/>
<text text-anchor="middle" x="607.5" y="-63.5" font-family="Helvetica,sans-Serif" font-size="10.00">math.h</text>
</a>
</g>
</g>
<!-- Node1&#45;&gt;Node12 -->
<g id="edge12" class="edge">
<title>Node1&#45;&gt;Node12</title>
<path fill="none" stroke="midnightblue" d="M460.23,-112.44C491.32,-102.85 541.71,-87.3 574.72,-77.11"/>
<polygon fill="midnightblue" stroke="midnightblue" points="575.85,-80.43 584.37,-74.14 573.78,-73.74 575.85,-80.43"/>
</g>
<!-- Node3 -->
<g id="node3" class="node">
<title>Node3</title>
<g id="a_node3"><a xlink:title=" ">
<polygon fill="white" stroke="#bfbfbf" points="289,-0.5 289,-19.5 342,-19.5 342,-0.5 289,-0.5"/>
<text text-anchor="middle" x="315.5" y="-7.5" font-family="Helvetica,sans-Serif" font-size="10.00">QObject</text>
</a>
</g>
</g>
<!-- Node2&#45;&gt;Node3 -->
<g id="edge2" class="edge">
<title>Node2&#45;&gt;Node3</title>
<path fill="none" stroke="midnightblue" d="M241.64,-56.32C255.37,-47.9 276.44,-34.97 292.56,-25.07"/>
<polygon fill="midnightblue" stroke="midnightblue" points="294.7,-27.87 301.4,-19.65 291.04,-21.9 294.7,-27.87"/>
</g>
<!-- Node4 -->
<g id="node4" class="node">
<title>Node4</title>
<g id="a_node4"><a xlink:title=" ">
<polygon fill="white" stroke="#bfbfbf" points="0,-0.5 0,-19.5 59,-19.5 59,-0.5 0,-0.5"/>
<text text-anchor="middle" x="29.5" y="-7.5" font-family="Helvetica,sans-Serif" font-size="10.00">QCanBus</text>
</a>
</g>
</g>
<!-- Node2&#45;&gt;Node4 -->
<g id="edge3" class="edge">
<title>Node2&#45;&gt;Node4</title>
<path fill="none" stroke="midnightblue" d="M196.13,-56.44C161.74,-47.07 106.5,-32 69.14,-21.81"/>
<polygon fill="midnightblue" stroke="midnightblue" points="69.68,-18.33 59.11,-19.08 67.84,-25.08 69.68,-18.33"/>
</g>
<!-- Node5 -->
<g id="node5" class="node">
<title>Node5</title>
<g id="a_node5"><a xlink:title=" ">
<polygon fill="white" stroke="#bfbfbf" points="77,-0.5 77,-19.5 166,-19.5 166,-0.5 77,-0.5"/>
<text text-anchor="middle" x="121.5" y="-7.5" font-family="Helvetica,sans-Serif" font-size="10.00">QCanBusDevice</text>
</a>
</g>
</g>
<!-- Node2&#45;&gt;Node5 -->
<g id="edge4" class="edge">
<title>Node2&#45;&gt;Node5</title>
<path fill="none" stroke="midnightblue" d="M210.47,-56.32C193.47,-47.66 167.12,-34.24 147.51,-24.25"/>
<polygon fill="midnightblue" stroke="midnightblue" points="148.99,-21.08 138.49,-19.65 145.81,-27.31 148.99,-21.08"/>
</g>
<!-- Node6 -->
<g id="node6" class="node">
<title>Node6</title>
<g id="a_node6"><a xlink:title=" ">
<polygon fill="white" stroke="#bfbfbf" points="184.5,-0.5 184.5,-19.5 270.5,-19.5 270.5,-0.5 184.5,-0.5"/>
<text text-anchor="middle" x="227.5" y="-7.5" font-family="Helvetica,sans-Serif" font-size="10.00">QCanBusFrame</text>
</a>
</g>
</g>
<!-- Node2&#45;&gt;Node6 -->
<g id="edge5" class="edge">
<title>Node2&#45;&gt;Node6</title>
<path fill="none" stroke="midnightblue" d="M227.5,-56.08C227.5,-49.01 227.5,-38.86 227.5,-29.99"/>
<polygon fill="midnightblue" stroke="midnightblue" points="231,-29.75 227.5,-19.75 224,-29.75 231,-29.75"/>
</g>
<!-- Node7&#45;&gt;Node3 -->
<g id="edge8" class="edge">
<title>Node7&#45;&gt;Node3</title>
<path fill="none" stroke="midnightblue" d="M315.5,-56.08C315.5,-49.01 315.5,-38.86 315.5,-29.99"/>
<polygon fill="midnightblue" stroke="midnightblue" points="319,-29.75 315.5,-19.75 312,-29.75 319,-29.75"/>
</g>
<!-- Node8 -->
<g id="node8" class="node">
<title>Node8</title>
<g id="a_node8"><a xlink:title=" ">
<polygon fill="white" stroke="#bfbfbf" points="360.5,-0.5 360.5,-19.5 426.5,-19.5 426.5,-0.5 360.5,-0.5"/>
<text text-anchor="middle" x="393.5" y="-7.5" font-family="Helvetica,sans-Serif" font-size="10.00">QStringList</text>
</a>
</g>
</g>
<!-- Node7&#45;&gt;Node8 -->
<g id="edge7" class="edge">
<title>Node7&#45;&gt;Node8</title>
<path fill="none" stroke="midnightblue" d="M328.03,-56.32C340.09,-47.98 358.53,-35.21 372.77,-25.35"/>
<polygon fill="midnightblue" stroke="midnightblue" points="374.77,-28.22 381,-19.65 370.78,-22.47 374.77,-28.22"/>
</g>
</g>
</svg>
