<?xml version="1.0" encoding="UTF-8" standalone="no"?>
<!DOCTYPE svg PUBLIC "-//W3C//DTD SVG 1.1//EN"
 "http://www.w3.org/Graphics/SVG/1.1/DTD/svg11.dtd">
<!-- Generated by graphviz version 2.49.3 (20211027.1534)
 -->
<!-- Title: gps.h Pages: 1 -->
<svg width="242pt" height="140pt"
 viewBox="0.00 0.00 242.00 140.00" xmlns="http://www.w3.org/2000/svg" xmlns:xlink="http://www.w3.org/1999/xlink">
<g id="graph0" class="graph" transform="scale(1 1) rotate(0) translate(4 136)">
<title>gps.h</title>
<polygon fill="white" stroke="transparent" points="-4,4 -4,-136 238,-136 238,4 -4,4"/>
<!-- Node1 -->
<g id="node1" class="node">
<title>Node1</title>
<g id="a_node1"><a xlink:title=" ">
<polygon fill="#bfbfbf" stroke="black" points="105.5,-112.5 105.5,-131.5 145.5,-131.5 145.5,-112.5 105.5,-112.5"/>
<text text-anchor="middle" x="125.5" y="-119.5" font-family="Helvetica,sans-Serif" font-size="10.00">gps.h</text>
</a>
</g>
</g>
<!-- Node2 -->
<g id="node2" class="node">
<title>Node2</title>
<g id="a_node2"><a xlink:title=" ">
<polygon fill="white" stroke="#bfbfbf" points="0,-56.5 0,-75.5 83,-75.5 83,-56.5 0,-56.5"/>
<text text-anchor="middle" x="41.5" y="-63.5" font-family="Helvetica,sans-Serif" font-size="10.00">QElapsedTimer</text>
</a>
</g>
</g>
<!-- Node1&#45;&gt;Node2 -->
<g id="edge1" class="edge">
<title>Node1&#45;&gt;Node2</title>
<path fill="none" stroke="midnightblue" d="M112,-112.32C98.9,-103.9 78.79,-90.97 63.39,-81.07"/>
<polygon fill="midnightblue" stroke="midnightblue" points="65.27,-78.12 54.96,-75.65 61.48,-84.01 65.27,-78.12"/>
</g>
<!-- Node3 -->
<g id="node3" class="node">
<title>Node3</title>
<g id="a_node3"><a xlink:title=" ">
<polygon fill="white" stroke="#bfbfbf" points="101,-56.5 101,-75.5 150,-75.5 150,-56.5 101,-56.5"/>
<text text-anchor="middle" x="125.5" y="-63.5" font-family="Helvetica,sans-Serif" font-size="10.00">QTimer</text>
</a>
</g>
</g>
<!-- Node1&#45;&gt;Node3 -->
<g id="edge2" class="edge">
<title>Node1&#45;&gt;Node3</title>
<path fill="none" stroke="midnightblue" d="M125.5,-112.08C125.5,-105.01 125.5,-94.86 125.5,-85.99"/>
<polygon fill="midnightblue" stroke="midnightblue" points="129,-85.75 125.5,-75.75 122,-85.75 129,-85.75"/>
</g>
<!-- Node4 -->
<g id="node4" class="node">
<title>Node4</title>
<g id="a_node4"><a xlink:href="serialport_8h.html" target="_top" xlink:title=" ">
<polygon fill="white" stroke="black" points="168.5,-56.5 168.5,-75.5 232.5,-75.5 232.5,-56.5 168.5,-56.5"/>
<text text-anchor="middle" x="200.5" y="-63.5" font-family="Helvetica,sans-Serif" font-size="10.00">serialport.h</text>
</a>
</g>
</g>
<!-- Node1&#45;&gt;Node4 -->
<g id="edge3" class="edge">
<title>Node1&#45;&gt;Node4</title>
<path fill="none" stroke="midnightblue" d="M137.55,-112.32C148.96,-104.11 166.33,-91.6 179.93,-81.81"/>
<polygon fill="midnightblue" stroke="midnightblue" points="182.16,-84.52 188.23,-75.83 178.07,-78.84 182.16,-84.52"/>
</g>
<!-- Node5 -->
<g id="node5" class="node">
<title>Node5</title>
<g id="a_node5"><a xlink:title=" ">
<polygon fill="white" stroke="#bfbfbf" points="167,-0.5 167,-19.5 234,-19.5 234,-0.5 167,-0.5"/>
<text text-anchor="middle" x="200.5" y="-7.5" font-family="Helvetica,sans-Serif" font-size="10.00">QSerialPort</text>
</a>
</g>
</g>
<!-- Node4&#45;&gt;Node5 -->
<g id="edge4" class="edge">
<title>Node4&#45;&gt;Node5</title>
<path fill="none" stroke="midnightblue" d="M200.5,-56.08C200.5,-49.01 200.5,-38.86 200.5,-29.99"/>
<polygon fill="midnightblue" stroke="midnightblue" points="204,-29.75 200.5,-19.75 197,-29.75 204,-29.75"/>
</g>
</g>
</svg>
