<?xml version="1.0" encoding="UTF-8" standalone="no"?>
<!DOCTYPE svg PUBLIC "-//W3C//DTD SVG 1.1//EN"
 "http://www.w3.org/Graphics/SVG/1.1/DTD/svg11.dtd">
<!-- Generated by graphviz version 2.49.3 (20211027.1534)
 -->
<!-- Title: udpreceiver.h Pages: 1 -->
<svg width="180pt" height="84pt"
 viewBox="0.00 0.00 180.00 84.00" xmlns="http://www.w3.org/2000/svg" xmlns:xlink="http://www.w3.org/1999/xlink">
<g id="graph0" class="graph" transform="scale(1 1) rotate(0) translate(4 80)">
<title>udpreceiver.h</title>
<polygon fill="white" stroke="transparent" points="-4,4 -4,-80 176,-80 176,4 -4,4"/>
<!-- Node1 -->
<g id="node1" class="node">
<title>Node1</title>
<g id="a_node1"><a xlink:title=" ">
<polygon fill="#bfbfbf" stroke="black" points="44.5,-56.5 44.5,-75.5 118.5,-75.5 118.5,-56.5 44.5,-56.5"/>
<text text-anchor="middle" x="81.5" y="-63.5" font-family="Helvetica,sans-Serif" font-size="10.00">udpreceiver.h</text>
</a>
</g>
</g>
<!-- Node2 -->
<g id="node2" class="node">
<title>Node2</title>
<g id="a_node2"><a xlink:href="connect_8cpp.html" target="_top" xlink:title=" ">
<polygon fill="white" stroke="black" points="0,-0.5 0,-19.5 69,-19.5 69,-0.5 0,-0.5"/>
<text text-anchor="middle" x="34.5" y="-7.5" font-family="Helvetica,sans-Serif" font-size="10.00">connect.cpp</text>
</a>
</g>
</g>
<!-- Node1&#45;&gt;Node2 -->
<g id="edge1" class="edge">
<title>Node1&#45;&gt;Node2</title>
<path fill="none" stroke="midnightblue" d="M67.08,-48.43C58.84,-38.97 48.85,-27.48 42.12,-19.75"/>
<polygon fill="midnightblue" stroke="midnightblue" points="64.53,-50.84 73.74,-56.08 69.81,-46.24 64.53,-50.84"/>
</g>
<!-- Node3 -->
<g id="node3" class="node">
<title>Node3</title>
<g id="a_node3"><a xlink:href="udpreceiver_8cpp.html" target="_top" xlink:title=" ">
<polygon fill="white" stroke="black" points="87,-0.5 87,-19.5 172,-19.5 172,-0.5 87,-0.5"/>
<text text-anchor="middle" x="129.5" y="-7.5" font-family="Helvetica,sans-Serif" font-size="10.00">udpreceiver.cpp</text>
</a>
</g>
</g>
<!-- Node1&#45;&gt;Node3 -->
<g id="edge2" class="edge">
<title>Node1&#45;&gt;Node3</title>
<path fill="none" stroke="midnightblue" d="M96.23,-48.43C104.64,-38.97 114.85,-27.48 121.72,-19.75"/>
<polygon fill="midnightblue" stroke="midnightblue" points="93.45,-46.28 89.43,-56.08 98.69,-50.93 93.45,-46.28"/>
</g>
</g>
</svg>
