<?xml version="1.0" encoding="UTF-8" standalone="no"?>
<!DOCTYPE svg PUBLIC "-//W3C//DTD SVG 1.1//EN"
 "http://www.w3.org/Graphics/SVG/1.1/DTD/svg11.dtd">
<!-- Generated by graphviz version 2.49.3 (20211027.1534)
 -->
<!-- Title: wifiscanner.h Pages: 1 -->
<svg width="1000pt" height="84pt"
 viewBox="0.00 0.00 1000.00 84.00" xmlns="http://www.w3.org/2000/svg" xmlns:xlink="http://www.w3.org/1999/xlink">
<g id="graph0" class="graph" transform="scale(1 1) rotate(0) translate(4 80)">
<title>wifiscanner.h</title>
<polygon fill="white" stroke="transparent" points="-4,4 -4,-80 996,-80 996,4 -4,4"/>
<!-- Node1 -->
<g id="node1" class="node">
<title>Node1</title>
<g id="a_node1"><a xlink:title=" ">
<polygon fill="#bfbfbf" stroke="black" points="343.5,-56.5 343.5,-75.5 416.5,-75.5 416.5,-56.5 343.5,-56.5"/>
<text text-anchor="middle" x="380" y="-63.5" font-family="Helvetica,sans-Serif" font-size="10.00">wifiscanner.h</text>
</a>
</g>
</g>
<!-- Node2 -->
<g id="node2" class="node">
<title>Node2</title>
<g id="a_node2"><a xlink:title=" ">
<polygon fill="white" stroke="#bfbfbf" points="0,-0.5 0,-19.5 46,-19.5 46,-0.5 0,-0.5"/>
<text text-anchor="middle" x="23" y="-7.5" font-family="Helvetica,sans-Serif" font-size="10.00">QTime</text>
</a>
</g>
</g>
<!-- Node1&#45;&gt;Node2 -->
<g id="edge1" class="edge">
<title>Node1&#45;&gt;Node2</title>
<path fill="none" stroke="midnightblue" d="M343.16,-61.56C284.39,-55.7 165.65,-42.41 56.21,-20.01"/>
<polygon fill="midnightblue" stroke="midnightblue" points="56.83,-16.57 46.33,-17.96 55.41,-23.42 56.83,-16.57"/>
</g>
<!-- Node3 -->
<g id="node3" class="node">
<title>Node3</title>
<g id="a_node3"><a xlink:title=" ">
<polygon fill="white" stroke="#bfbfbf" points="64.5,-0.5 64.5,-19.5 113.5,-19.5 113.5,-0.5 64.5,-0.5"/>
<text text-anchor="middle" x="89" y="-7.5" font-family="Helvetica,sans-Serif" font-size="10.00">QTimer</text>
</a>
</g>
</g>
<!-- Node1&#45;&gt;Node3 -->
<g id="edge2" class="edge">
<title>Node1&#45;&gt;Node3</title>
<path fill="none" stroke="midnightblue" d="M343.47,-59.73C295.2,-52.53 207.34,-38.59 123.72,-20.23"/>
<polygon fill="midnightblue" stroke="midnightblue" points="124.33,-16.78 113.8,-18.03 122.81,-23.62 124.33,-16.78"/>
</g>
<!-- Node4 -->
<g id="node4" class="node">
<title>Node4</title>
<g id="a_node4"><a xlink:title=" ">
<polygon fill="white" stroke="#bfbfbf" points="131.5,-0.5 131.5,-19.5 172.5,-19.5 172.5,-0.5 131.5,-0.5"/>
<text text-anchor="middle" x="152" y="-7.5" font-family="Helvetica,sans-Serif" font-size="10.00">QList</text>
</a>
</g>
</g>
<!-- Node1&#45;&gt;Node4 -->
<g id="edge3" class="edge">
<title>Node1&#45;&gt;Node4</title>
<path fill="none" stroke="midnightblue" d="M343.48,-57.64C305.44,-49.78 243.93,-36.51 182.41,-20.23"/>
<polygon fill="midnightblue" stroke="midnightblue" points="183.1,-16.79 172.54,-17.59 181.29,-23.56 183.1,-16.79"/>
</g>
<!-- Node5 -->
<g id="node5" class="node">
<title>Node5</title>
<g id="a_node5"><a xlink:title=" ">
<polygon fill="white" stroke="#bfbfbf" points="190.5,-0.5 190.5,-19.5 263.5,-19.5 263.5,-0.5 190.5,-0.5"/>
<text text-anchor="middle" x="227" y="-7.5" font-family="Helvetica,sans-Serif" font-size="10.00">QInputDialog</text>
</a>
</g>
</g>
<!-- Node1&#45;&gt;Node5 -->
<g id="edge4" class="edge">
<title>Node1&#45;&gt;Node5</title>
<path fill="none" stroke="midnightblue" d="M355.76,-56.44C330.13,-47.4 289.51,-33.06 260.76,-22.92"/>
<polygon fill="midnightblue" stroke="midnightblue" points="261.72,-19.54 251.13,-19.52 259.39,-26.15 261.72,-19.54"/>
</g>
<!-- Node6 -->
<g id="node6" class="node">
<title>Node6</title>
<g id="a_node6"><a xlink:title=" ">
<polygon fill="white" stroke="#bfbfbf" points="281.5,-0.5 281.5,-19.5 364.5,-19.5 364.5,-0.5 281.5,-0.5"/>
<text text-anchor="middle" x="323" y="-7.5" font-family="Helvetica,sans-Serif" font-size="10.00">QStandardItem</text>
</a>
</g>
</g>
<!-- Node1&#45;&gt;Node6 -->
<g id="edge5" class="edge">
<title>Node1&#45;&gt;Node6</title>
<path fill="none" stroke="midnightblue" d="M370.84,-56.32C362.5,-48.42 349.97,-36.55 339.82,-26.94"/>
<polygon fill="midnightblue" stroke="midnightblue" points="341.99,-24.17 332.32,-19.83 337.18,-29.25 341.99,-24.17"/>
</g>
<!-- Node7 -->
<g id="node7" class="node">
<title>Node7</title>
<g id="a_node7"><a xlink:title=" ">
<polygon fill="white" stroke="#bfbfbf" points="382.5,-0.5 382.5,-19.5 491.5,-19.5 491.5,-0.5 382.5,-0.5"/>
<text text-anchor="middle" x="437" y="-7.5" font-family="Helvetica,sans-Serif" font-size="10.00">QStandardItemModel</text>
</a>
</g>
</g>
<!-- Node1&#45;&gt;Node7 -->
<g id="edge6" class="edge">
<title>Node1&#45;&gt;Node7</title>
<path fill="none" stroke="midnightblue" d="M389.16,-56.32C397.5,-48.42 410.03,-36.55 420.18,-26.94"/>
<polygon fill="midnightblue" stroke="midnightblue" points="422.82,-29.25 427.68,-19.83 418.01,-24.17 422.82,-29.25"/>
</g>
<!-- Node8 -->
<g id="node8" class="node">
<title>Node8</title>
<g id="a_node8"><a xlink:title=" ">
<polygon fill="white" stroke="#bfbfbf" points="509.5,-0.5 509.5,-19.5 626.5,-19.5 626.5,-0.5 509.5,-0.5"/>
<text text-anchor="middle" x="568" y="-7.5" font-family="Helvetica,sans-Serif" font-size="10.00">QNetworkConfiguration</text>
</a>
</g>
</g>
<!-- Node1&#45;&gt;Node8 -->
<g id="edge7" class="edge">
<title>Node1&#45;&gt;Node8</title>
<path fill="none" stroke="midnightblue" d="M409.79,-56.44C441.83,-47.24 492.93,-32.56 528.35,-22.39"/>
<polygon fill="midnightblue" stroke="midnightblue" points="529.71,-25.64 538.35,-19.52 527.77,-18.91 529.71,-25.64"/>
</g>
<!-- Node9 -->
<g id="node9" class="node">
<title>Node9</title>
<g id="a_node9"><a xlink:title=" ">
<polygon fill="white" stroke="#bfbfbf" points="644.5,-0.5 644.5,-19.5 799.5,-19.5 799.5,-0.5 644.5,-0.5"/>
<text text-anchor="middle" x="722" y="-7.5" font-family="Helvetica,sans-Serif" font-size="10.00">QNetworkConfigurationManager</text>
</a>
</g>
</g>
<!-- Node1&#45;&gt;Node9 -->
<g id="edge8" class="edge">
<title>Node1&#45;&gt;Node9</title>
<path fill="none" stroke="midnightblue" d="M416.6,-59.22C474.17,-50.13 586.63,-32.37 657.84,-21.13"/>
<polygon fill="midnightblue" stroke="midnightblue" points="658.71,-24.54 668.04,-19.52 657.62,-17.62 658.71,-24.54"/>
</g>
<!-- Node10 -->
<g id="node10" class="node">
<title>Node10</title>
<g id="a_node10"><a xlink:title=" ">
<polygon fill="white" stroke="#bfbfbf" points="818,-0.5 818,-19.5 914,-19.5 914,-0.5 818,-0.5"/>
<text text-anchor="middle" x="866" y="-7.5" font-family="Helvetica,sans-Serif" font-size="10.00">QNetworkSession</text>
</a>
</g>
</g>
<!-- Node1&#45;&gt;Node10 -->
<g id="edge9" class="edge">
<title>Node1&#45;&gt;Node10</title>
<path fill="none" stroke="midnightblue" d="M416.52,-61.82C489.05,-55.35 656.62,-39.73 807.88,-20.09"/>
<polygon fill="midnightblue" stroke="midnightblue" points="808.36,-23.55 817.82,-18.79 807.45,-16.61 808.36,-23.55"/>
</g>
<!-- Node11 -->
<g id="node11" class="node">
<title>Node11</title>
<g id="a_node11"><a xlink:title=" ">
<polygon fill="white" stroke="#bfbfbf" points="932,-0.5 932,-19.5 992,-19.5 992,-0.5 932,-0.5"/>
<text text-anchor="middle" x="962" y="-7.5" font-family="Helvetica,sans-Serif" font-size="10.00">QProcess</text>
</a>
</g>
</g>
<!-- Node1&#45;&gt;Node11 -->
<g id="edge10" class="edge">
<title>Node1&#45;&gt;Node11</title>
<path fill="none" stroke="midnightblue" d="M416.76,-63.78C503.2,-60.53 726.17,-49.86 921.68,-19.99"/>
<polygon fill="midnightblue" stroke="midnightblue" points="922.5,-23.4 931.85,-18.41 921.43,-16.48 922.5,-23.4"/>
</g>
</g>
</svg>
