<?xml version="1.0" encoding="UTF-8" standalone="no"?>
<!DOCTYPE svg PUBLIC "-//W3C//DTD SVG 1.1//EN"
 "http://www.w3.org/Graphics/SVG/1.1/DTD/svg11.dtd">
<!-- Generated by graphviz version 2.49.3 (20211027.1534)
 -->
<!-- Title: AdaptronicSelect.cpp Pages: 1 -->
<svg width="1350pt" height="196pt"
 viewBox="0.00 0.00 1350.00 196.00" xmlns="http://www.w3.org/2000/svg" xmlns:xlink="http://www.w3.org/1999/xlink">
<g id="graph0" class="graph" transform="scale(1 1) rotate(0) translate(4 192)">
<title>AdaptronicSelect.cpp</title>
<polygon fill="white" stroke="transparent" points="-4,4 -4,-192 1346,-192 1346,4 -4,4"/>
<!-- Node1 -->
<g id="node1" class="node">
<title>Node1</title>
<g id="a_node1"><a xlink:title=" ">
<polygon fill="#bfbfbf" stroke="black" points="893.5,-168.5 893.5,-187.5 1002.5,-187.5 1002.5,-168.5 893.5,-168.5"/>
<text text-anchor="middle" x="948" y="-175.5" font-family="Helvetica,sans-Serif" font-size="10.00">AdaptronicSelect.cpp</text>
</a>
</g>
</g>
<!-- Node2 -->
<g id="node2" class="node">
<title>Node2</title>
<g id="a_node2"><a xlink:href="AdaptronicSelect_8h.html" target="_top" xlink:title=" ">
<polygon fill="white" stroke="black" points="732,-112.5 732,-131.5 830,-131.5 830,-112.5 732,-112.5"/>
<text text-anchor="middle" x="781" y="-119.5" font-family="Helvetica,sans-Serif" font-size="10.00">AdaptronicSelect.h</text>
</a>
</g>
</g>
<!-- Node1&#45;&gt;Node2 -->
<g id="edge1" class="edge">
<title>Node1&#45;&gt;Node2</title>
<path fill="none" stroke="midnightblue" d="M921.54,-168.44C893.32,-159.32 848.46,-144.81 817.03,-134.65"/>
<polygon fill="midnightblue" stroke="midnightblue" points="817.93,-131.26 807.34,-131.52 815.78,-137.92 817.93,-131.26"/>
</g>
<!-- Node8 -->
<g id="node8" class="node">
<title>Node8</title>
<g id="a_node8"><a xlink:href="connect_8h.html" target="_top" xlink:title=" ">
<polygon fill="white" stroke="black" points="419.5,-112.5 419.5,-131.5 478.5,-131.5 478.5,-112.5 419.5,-112.5"/>
<text text-anchor="middle" x="449" y="-119.5" font-family="Helvetica,sans-Serif" font-size="10.00">connect.h</text>
</a>
</g>
</g>
<!-- Node1&#45;&gt;Node8 -->
<g id="edge7" class="edge">
<title>Node1&#45;&gt;Node8</title>
<path fill="none" stroke="midnightblue" d="M893.17,-171.07C791.84,-160.1 577.52,-136.91 488.77,-127.3"/>
<polygon fill="midnightblue" stroke="midnightblue" points="488.91,-123.8 478.59,-126.2 488.15,-130.76 488.91,-123.8"/>
</g>
<!-- Node12 -->
<g id="node12" class="node">
<title>Node12</title>
<g id="a_node12"><a xlink:title=" ">
<polygon fill="white" stroke="#bfbfbf" points="906,-0.5 906,-19.5 960,-19.5 960,-0.5 906,-0.5"/>
<text text-anchor="middle" x="933" y="-7.5" font-family="Helvetica,sans-Serif" font-size="10.00">QThread</text>
</a>
</g>
</g>
<!-- Node1&#45;&gt;Node12 -->
<g id="edge27" class="edge">
<title>Node1&#45;&gt;Node12</title>
<path fill="none" stroke="midnightblue" d="M959.35,-168.4C984.26,-148.44 1039.58,-97.53 1015,-56 1005.18,-39.41 986.84,-28.53 969.99,-21.63"/>
<polygon fill="midnightblue" stroke="midnightblue" points="970.91,-18.24 960.31,-18.02 968.45,-24.8 970.91,-18.24"/>
</g>
<!-- Node15 -->
<g id="node15" class="node">
<title>Node15</title>
<g id="a_node15"><a xlink:href="serialport_8h.html" target="_top" xlink:title=" ">
<polygon fill="white" stroke="black" points="1062,-112.5 1062,-131.5 1126,-131.5 1126,-112.5 1062,-112.5"/>
<text text-anchor="middle" x="1094" y="-119.5" font-family="Helvetica,sans-Serif" font-size="10.00">serialport.h</text>
</a>
</g>
</g>
<!-- Node1&#45;&gt;Node15 -->
<g id="edge19" class="edge">
<title>Node1&#45;&gt;Node15</title>
<path fill="none" stroke="midnightblue" d="M971.13,-168.44C995.48,-159.44 1034.01,-145.19 1061.42,-135.05"/>
<polygon fill="midnightblue" stroke="midnightblue" points="1062.81,-138.27 1070.97,-131.52 1060.38,-131.7 1062.81,-138.27"/>
</g>
<!-- Node17 -->
<g id="node17" class="node">
<title>Node17</title>
<g id="a_node17"><a xlink:href="dashboard_8h.html" target="_top" xlink:title=" ">
<polygon fill="white" stroke="black" points="59.5,-112.5 59.5,-131.5 128.5,-131.5 128.5,-112.5 59.5,-112.5"/>
<text text-anchor="middle" x="94" y="-119.5" font-family="Helvetica,sans-Serif" font-size="10.00">dashboard.h</text>
</a>
</g>
</g>
<!-- Node1&#45;&gt;Node17 -->
<g id="edge21" class="edge">
<title>Node1&#45;&gt;Node17</title>
<path fill="none" stroke="midnightblue" d="M893.06,-174.04C769.99,-167.32 462.83,-150.11 206,-132 183.86,-130.44 159.28,-128.49 138.8,-126.8"/>
<polygon fill="midnightblue" stroke="midnightblue" points="139.05,-123.31 128.8,-125.97 138.47,-130.29 139.05,-123.31"/>
</g>
<!-- Node19 -->
<g id="node19" class="node">
<title>Node19</title>
<g id="a_node19"><a xlink:href="appsettings_8h.html" target="_top" xlink:title=" ">
<polygon fill="white" stroke="black" points="215,-112.5 215,-131.5 289,-131.5 289,-112.5 215,-112.5"/>
<text text-anchor="middle" x="252" y="-119.5" font-family="Helvetica,sans-Serif" font-size="10.00">appsettings.h</text>
</a>
</g>
</g>
<!-- Node1&#45;&gt;Node19 -->
<g id="edge24" class="edge">
<title>Node1&#45;&gt;Node19</title>
<path fill="none" stroke="midnightblue" d="M893.39,-172.76C760.76,-162.47 423.46,-136.3 299.04,-126.65"/>
<polygon fill="midnightblue" stroke="midnightblue" points="299.3,-123.16 289.06,-125.88 298.76,-130.14 299.3,-123.16"/>
</g>
<!-- Node20 -->
<g id="node20" class="node">
<title>Node20</title>
<g id="a_node20"><a xlink:title=" ">
<polygon fill="white" stroke="#bfbfbf" points="1144,-112.5 1144,-131.5 1196,-131.5 1196,-112.5 1144,-112.5"/>
<text text-anchor="middle" x="1170" y="-119.5" font-family="Helvetica,sans-Serif" font-size="10.00">QDebug</text>
</a>
</g>
</g>
<!-- Node1&#45;&gt;Node20 -->
<g id="edge26" class="edge">
<title>Node1&#45;&gt;Node20</title>
<path fill="none" stroke="midnightblue" d="M984.24,-168.46C1019.88,-160.01 1076.1,-146.59 1133.64,-132.31"/>
<polygon fill="midnightblue" stroke="midnightblue" points="1134.78,-135.64 1143.64,-129.83 1133.09,-128.84 1134.78,-135.64"/>
</g>
<!-- Node21 -->
<g id="node21" class="node">
<title>Node21</title>
<g id="a_node21"><a xlink:title=" ">
<polygon fill="white" stroke="#bfbfbf" points="1214,-112.5 1214,-131.5 1342,-131.5 1342,-112.5 1214,-112.5"/>
<text text-anchor="middle" x="1278" y="-119.5" font-family="Helvetica,sans-Serif" font-size="10.00">QModbusRtuSerialMaster</text>
</a>
</g>
</g>
<!-- Node1&#45;&gt;Node21 -->
<g id="edge28" class="edge">
<title>Node1&#45;&gt;Node21</title>
<path fill="none" stroke="midnightblue" d="M1000.29,-168.44C1058.82,-158.87 1153.6,-143.36 1215.87,-133.17"/>
<polygon fill="midnightblue" stroke="midnightblue" points="1216.65,-136.59 1225.96,-131.52 1215.52,-129.68 1216.65,-136.59"/>
</g>
<!-- Node3 -->
<g id="node3" class="node">
<title>Node3</title>
<g id="a_node3"><a xlink:title=" ">
<polygon fill="white" stroke="#bfbfbf" points="432.5,-56.5 432.5,-75.5 555.5,-75.5 555.5,-56.5 432.5,-56.5"/>
<text text-anchor="middle" x="494" y="-63.5" font-family="Helvetica,sans-Serif" font-size="10.00">QtSerialPort/QSerialPort</text>
</a>
</g>
</g>
<!-- Node2&#45;&gt;Node3 -->
<g id="edge2" class="edge">
<title>Node2&#45;&gt;Node3</title>
<path fill="none" stroke="midnightblue" d="M735.52,-112.44C685.04,-102.94 603.54,-87.61 549.38,-77.42"/>
<polygon fill="midnightblue" stroke="midnightblue" points="549.74,-73.93 539.26,-75.52 548.44,-80.81 549.74,-73.93"/>
</g>
<!-- Node4 -->
<g id="node4" class="node">
<title>Node4</title>
<g id="a_node4"><a xlink:title=" ">
<polygon fill="white" stroke="#bfbfbf" points="143.5,-0.5 143.5,-19.5 196.5,-19.5 196.5,-0.5 143.5,-0.5"/>
<text text-anchor="middle" x="170" y="-7.5" font-family="Helvetica,sans-Serif" font-size="10.00">QObject</text>
</a>
</g>
</g>
<!-- Node2&#45;&gt;Node4 -->
<g id="edge3" class="edge">
<title>Node2&#45;&gt;Node4</title>
<path fill="none" stroke="midnightblue" d="M768.99,-112.31C746.42,-96.16 698.18,-62.52 679,-56 591.39,-26.21 308.55,-15.09 206.85,-11.99"/>
<polygon fill="midnightblue" stroke="midnightblue" points="206.85,-8.49 196.75,-11.69 206.65,-15.49 206.85,-8.49"/>
</g>
<!-- Node5 -->
<g id="node5" class="node">
<title>Node5</title>
<g id="a_node5"><a xlink:title=" ">
<polygon fill="white" stroke="#bfbfbf" points="821.5,-56.5 821.5,-75.5 904.5,-75.5 904.5,-56.5 821.5,-56.5"/>
<text text-anchor="middle" x="863" y="-63.5" font-family="Helvetica,sans-Serif" font-size="10.00">QModbusReply</text>
</a>
</g>
</g>
<!-- Node2&#45;&gt;Node5 -->
<g id="edge4" class="edge">
<title>Node2&#45;&gt;Node5</title>
<path fill="none" stroke="midnightblue" d="M794.17,-112.32C806.85,-103.98 826.23,-91.21 841.21,-81.35"/>
<polygon fill="midnightblue" stroke="midnightblue" points="843.43,-84.08 849.86,-75.65 839.58,-78.23 843.43,-84.08"/>
</g>
<!-- Node6 -->
<g id="node6" class="node">
<title>Node6</title>
<g id="a_node6"><a xlink:title=" ">
<polygon fill="white" stroke="#bfbfbf" points="922.5,-56.5 922.5,-75.5 1005.5,-75.5 1005.5,-56.5 922.5,-56.5"/>
<text text-anchor="middle" x="964" y="-63.5" font-family="Helvetica,sans-Serif" font-size="10.00">QModbusClient</text>
</a>
</g>
</g>
<!-- Node2&#45;&gt;Node6 -->
<g id="edge5" class="edge">
<title>Node2&#45;&gt;Node6</title>
<path fill="none" stroke="midnightblue" d="M810,-112.44C841.18,-103.24 890.93,-88.56 925.41,-78.39"/>
<polygon fill="midnightblue" stroke="midnightblue" points="926.54,-81.7 935.14,-75.52 924.56,-74.99 926.54,-81.7"/>
</g>
<!-- Node7 -->
<g id="node7" class="node">
<title>Node7</title>
<g id="a_node7"><a xlink:title=" ">
<polygon fill="white" stroke="#bfbfbf" points="573.5,-56.5 573.5,-75.5 670.5,-75.5 670.5,-56.5 573.5,-56.5"/>
<text text-anchor="middle" x="622" y="-63.5" font-family="Helvetica,sans-Serif" font-size="10.00">QModbusDataUnit</text>
</a>
</g>
</g>
<!-- Node2&#45;&gt;Node7 -->
<g id="edge6" class="edge">
<title>Node2&#45;&gt;Node7</title>
<path fill="none" stroke="midnightblue" d="M755.81,-112.44C729.06,-103.36 686.6,-88.94 656.69,-78.78"/>
<polygon fill="midnightblue" stroke="midnightblue" points="657.67,-75.42 647.08,-75.52 655.42,-82.05 657.67,-75.42"/>
</g>
<!-- Node8&#45;&gt;Node3 -->
<g id="edge8" class="edge">
<title>Node8&#45;&gt;Node3</title>
<path fill="none" stroke="midnightblue" d="M456.43,-112.08C462.85,-104.38 472.31,-93.03 480.12,-83.65"/>
<polygon fill="midnightblue" stroke="midnightblue" points="482.99,-85.67 486.71,-75.75 477.62,-81.19 482.99,-85.67"/>
</g>
<!-- Node8&#45;&gt;Node4 -->
<g id="edge9" class="edge">
<title>Node8&#45;&gt;Node4</title>
<path fill="none" stroke="midnightblue" d="M419.3,-119.72C358.48,-116.5 222.66,-106.05 189,-76 176,-64.39 171.69,-44.44 170.36,-29.69"/>
<polygon fill="midnightblue" stroke="midnightblue" points="173.85,-29.46 169.83,-19.66 166.86,-29.83 173.85,-29.46"/>
</g>
<!-- Node8&#45;&gt;Node7 -->
<g id="edge10" class="edge">
<title>Node8&#45;&gt;Node7</title>
<path fill="none" stroke="midnightblue" d="M476.41,-112.44C505.77,-103.28 552.52,-88.69 585.1,-78.52"/>
<polygon fill="midnightblue" stroke="midnightblue" points="586.21,-81.84 594.72,-75.52 584.13,-75.16 586.21,-81.84"/>
</g>
<!-- Node9 -->
<g id="node9" class="node">
<title>Node9</title>
<g id="a_node9"><a xlink:title=" ">
<polygon fill="white" stroke="#bfbfbf" points="526.5,-0.5 526.5,-19.5 575.5,-19.5 575.5,-0.5 526.5,-0.5"/>
<text text-anchor="middle" x="551" y="-7.5" font-family="Helvetica,sans-Serif" font-size="10.00">QTimer</text>
</a>
</g>
</g>
<!-- Node8&#45;&gt;Node9 -->
<g id="edge11" class="edge">
<title>Node8&#45;&gt;Node9</title>
<path fill="none" stroke="midnightblue" d="M440.53,-112.37C428.75,-99.29 410.21,-74.05 423,-56 443.95,-26.43 485.95,-16.15 516.14,-12.65"/>
<polygon fill="midnightblue" stroke="midnightblue" points="516.65,-16.12 526.27,-11.68 515.98,-9.15 516.65,-16.12"/>
</g>
<!-- Node10 -->
<g id="node10" class="node">
<title>Node10</title>
<g id="a_node10"><a xlink:title=" ">
<polygon fill="white" stroke="#bfbfbf" points="198,-56.5 198,-75.5 258,-75.5 258,-56.5 198,-56.5"/>
<text text-anchor="middle" x="228" y="-63.5" font-family="Helvetica,sans-Serif" font-size="10.00">QProcess</text>
</a>
</g>
</g>
<!-- Node8&#45;&gt;Node10 -->
<g id="edge12" class="edge">
<title>Node8&#45;&gt;Node10</title>
<path fill="none" stroke="midnightblue" d="M419.19,-113.72C380.15,-104.18 311.54,-87.41 268,-76.77"/>
<polygon fill="midnightblue" stroke="midnightblue" points="268.58,-73.31 258.04,-74.34 266.92,-80.11 268.58,-73.31"/>
</g>
<!-- Node11 -->
<g id="node11" class="node">
<title>Node11</title>
<g id="a_node11"><a xlink:href="calculations_8h.html" target="_top" xlink:title=" ">
<polygon fill="white" stroke="black" points="727,-56.5 727,-75.5 803,-75.5 803,-56.5 727,-56.5"/>
<text text-anchor="middle" x="765" y="-63.5" font-family="Helvetica,sans-Serif" font-size="10.00">calculations.h</text>
</a>
</g>
</g>
<!-- Node8&#45;&gt;Node11 -->
<g id="edge13" class="edge">
<title>Node8&#45;&gt;Node11</title>
<path fill="none" stroke="midnightblue" d="M478.73,-115.92C533.42,-106.57 650.43,-86.58 716.68,-75.26"/>
<polygon fill="midnightblue" stroke="midnightblue" points="717.59,-78.65 726.85,-73.52 716.41,-71.75 717.59,-78.65"/>
</g>
<!-- Node14 -->
<g id="node14" class="node">
<title>Node14</title>
<g id="a_node14"><a xlink:title=" ">
<polygon fill="white" stroke="#bfbfbf" points="276.5,-56.5 276.5,-75.5 375.5,-75.5 375.5,-56.5 276.5,-56.5"/>
<text text-anchor="middle" x="326" y="-63.5" font-family="Helvetica,sans-Serif" font-size="10.00">QFileSystemModel</text>
</a>
</g>
</g>
<!-- Node8&#45;&gt;Node14 -->
<g id="edge18" class="edge">
<title>Node8&#45;&gt;Node14</title>
<path fill="none" stroke="midnightblue" d="M429.51,-112.44C409.36,-103.6 377.68,-89.69 354.67,-79.59"/>
<polygon fill="midnightblue" stroke="midnightblue" points="355.96,-76.33 345.4,-75.52 353.15,-82.74 355.96,-76.33"/>
</g>
<!-- Node11&#45;&gt;Node4 -->
<g id="edge15" class="edge">
<title>Node11&#45;&gt;Node4</title>
<path fill="none" stroke="midnightblue" d="M726.72,-57.98C722.11,-57.25 717.45,-56.57 713,-56 523.39,-31.78 294.79,-17.76 206.89,-12.93"/>
<polygon fill="midnightblue" stroke="midnightblue" points="206.82,-9.42 196.64,-12.37 206.44,-16.41 206.82,-9.42"/>
</g>
<!-- Node11&#45;&gt;Node9 -->
<g id="edge17" class="edge">
<title>Node11&#45;&gt;Node9</title>
<path fill="none" stroke="midnightblue" d="M731.09,-56.44C691.3,-46.4 625.68,-29.84 585.6,-19.73"/>
<polygon fill="midnightblue" stroke="midnightblue" points="586.3,-16.3 575.74,-17.24 584.58,-23.08 586.3,-16.3"/>
</g>
<!-- Node11&#45;&gt;Node12 -->
<g id="edge14" class="edge">
<title>Node11&#45;&gt;Node12</title>
<path fill="none" stroke="midnightblue" d="M791.62,-56.44C820.01,-47.32 865.14,-32.81 896.75,-22.65"/>
<polygon fill="midnightblue" stroke="midnightblue" points="898.06,-25.91 906.5,-19.52 895.91,-19.24 898.06,-25.91"/>
</g>
<!-- Node13 -->
<g id="node13" class="node">
<title>Node13</title>
<g id="a_node13"><a xlink:title=" ">
<polygon fill="white" stroke="#bfbfbf" points="742,-0.5 742,-19.5 788,-19.5 788,-0.5 742,-0.5"/>
<text text-anchor="middle" x="765" y="-7.5" font-family="Helvetica,sans-Serif" font-size="10.00">QTime</text>
</a>
</g>
</g>
<!-- Node11&#45;&gt;Node13 -->
<g id="edge16" class="edge">
<title>Node11&#45;&gt;Node13</title>
<path fill="none" stroke="midnightblue" d="M765,-56.08C765,-49.01 765,-38.86 765,-29.99"/>
<polygon fill="midnightblue" stroke="midnightblue" points="768.5,-29.75 765,-19.75 761.5,-29.75 768.5,-29.75"/>
</g>
<!-- Node16 -->
<g id="node16" class="node">
<title>Node16</title>
<g id="a_node16"><a xlink:title=" ">
<polygon fill="white" stroke="#bfbfbf" points="1062.5,-56.5 1062.5,-75.5 1129.5,-75.5 1129.5,-56.5 1062.5,-56.5"/>
<text text-anchor="middle" x="1096" y="-63.5" font-family="Helvetica,sans-Serif" font-size="10.00">QSerialPort</text>
</a>
</g>
</g>
<!-- Node15&#45;&gt;Node16 -->
<g id="edge20" class="edge">
<title>Node15&#45;&gt;Node16</title>
<path fill="none" stroke="midnightblue" d="M1094.33,-112.08C1094.59,-105.01 1094.97,-94.86 1095.3,-85.99"/>
<polygon fill="midnightblue" stroke="midnightblue" points="1098.8,-85.87 1095.68,-75.75 1091.81,-85.61 1098.8,-85.87"/>
</g>
<!-- Node17&#45;&gt;Node4 -->
<g id="edge23" class="edge">
<title>Node17&#45;&gt;Node4</title>
<path fill="none" stroke="midnightblue" d="M95.73,-112.36C98.66,-99.26 105.54,-74 118,-56 126.18,-44.19 138.15,-33.54 148.55,-25.57"/>
<polygon fill="midnightblue" stroke="midnightblue" points="150.79,-28.27 156.8,-19.54 146.66,-22.62 150.79,-28.27"/>
</g>
<!-- Node18 -->
<g id="node18" class="node">
<title>Node18</title>
<g id="a_node18"><a xlink:title=" ">
<polygon fill="white" stroke="#bfbfbf" points="0,-56.5 0,-75.5 66,-75.5 66,-56.5 0,-56.5"/>
<text text-anchor="middle" x="33" y="-63.5" font-family="Helvetica,sans-Serif" font-size="10.00">QStringList</text>
</a>
</g>
</g>
<!-- Node17&#45;&gt;Node18 -->
<g id="edge22" class="edge">
<title>Node17&#45;&gt;Node18</title>
<path fill="none" stroke="midnightblue" d="M84.2,-112.32C75.18,-104.34 61.59,-92.31 50.68,-82.65"/>
<polygon fill="midnightblue" stroke="midnightblue" points="52.79,-79.84 42.98,-75.83 48.15,-85.08 52.79,-79.84"/>
</g>
<!-- Node19&#45;&gt;Node4 -->
<g id="edge25" class="edge">
<title>Node19&#45;&gt;Node4</title>
<path fill="none" stroke="midnightblue" d="M214.94,-113.85C193.77,-107.66 168.94,-96.35 156,-76 146.93,-61.73 152.82,-42.52 159.52,-28.68"/>
<polygon fill="midnightblue" stroke="midnightblue" points="162.69,-30.17 164.34,-19.71 156.53,-26.86 162.69,-30.17"/>
</g>
</g>
</svg>
