<?xml version="1.0" encoding="UTF-8" standalone="no"?>
<!DOCTYPE svg PUBLIC "-//W3C//DTD SVG 1.1//EN"
 "http://www.w3.org/Graphics/SVG/1.1/DTD/svg11.dtd">
<!-- Generated by graphviz version 2.49.3 (20211027.1534)
 -->
<!-- Title: Apexi.cpp Pages: 1 -->
<svg width="1294pt" height="252pt"
 viewBox="0.00 0.00 1294.00 252.00" xmlns="http://www.w3.org/2000/svg" xmlns:xlink="http://www.w3.org/1999/xlink">
<g id="graph0" class="graph" transform="scale(1 1) rotate(0) translate(4 248)">
<title>Apexi.cpp</title>
<polygon fill="white" stroke="transparent" points="-4,4 -4,-248 1290,-248 1290,4 -4,4"/>
<!-- Node1 -->
<g id="node1" class="node">
<title>Node1</title>
<g id="a_node1"><a xlink:title=" ">
<polygon fill="#bfbfbf" stroke="black" points="856.5,-224.5 856.5,-243.5 915.5,-243.5 915.5,-224.5 856.5,-224.5"/>
<text text-anchor="middle" x="886" y="-231.5" font-family="Helvetica,sans-Serif" font-size="10.00">Apexi.cpp</text>
</a>
</g>
</g>
<!-- Node2 -->
<g id="node2" class="node">
<title>Node2</title>
<g id="a_node2"><a xlink:href="Apexi_8h.html" target="_top" xlink:title=" ">
<polygon fill="white" stroke="black" points="160,-112.5 160,-131.5 208,-131.5 208,-112.5 160,-112.5"/>
<text text-anchor="middle" x="184" y="-119.5" font-family="Helvetica,sans-Serif" font-size="10.00">Apexi.h</text>
</a>
</g>
</g>
<!-- Node1&#45;&gt;Node2 -->
<g id="edge1" class="edge">
<title>Node1&#45;&gt;Node2</title>
<path fill="none" stroke="midnightblue" d="M856.37,-230.09C763.35,-220.62 468.91,-188.15 218.12,-132.09"/>
<polygon fill="midnightblue" stroke="midnightblue" points="218.61,-128.61 208.09,-129.83 217.08,-135.44 218.61,-128.61"/>
</g>
<!-- Node6 -->
<g id="node6" class="node">
<title>Node6</title>
<g id="a_node6"><a xlink:title=" ">
<polygon fill="white" stroke="#bfbfbf" points="398.5,-56.5 398.5,-75.5 447.5,-75.5 447.5,-56.5 398.5,-56.5"/>
<text text-anchor="middle" x="423" y="-63.5" font-family="Helvetica,sans-Serif" font-size="10.00">QTimer</text>
</a>
</g>
</g>
<!-- Node1&#45;&gt;Node6 -->
<g id="edge23" class="edge">
<title>Node1&#45;&gt;Node6</title>
<path fill="none" stroke="midnightblue" d="M881.27,-224.39C867.19,-199.08 825.13,-125.9 802,-112 744.39,-77.38 540.1,-69.37 457.77,-67.54"/>
<polygon fill="midnightblue" stroke="midnightblue" points="457.74,-64.04 447.67,-67.33 457.59,-71.03 457.74,-64.04"/>
</g>
<!-- Node8 -->
<g id="node8" class="node">
<title>Node8</title>
<g id="a_node8"><a xlink:href="dashboard_8h.html" target="_top" xlink:title=" ">
<polygon fill="white" stroke="black" points="59.5,-168.5 59.5,-187.5 128.5,-187.5 128.5,-168.5 59.5,-168.5"/>
<text text-anchor="middle" x="94" y="-175.5" font-family="Helvetica,sans-Serif" font-size="10.00">dashboard.h</text>
</a>
</g>
</g>
<!-- Node1&#45;&gt;Node8 -->
<g id="edge7" class="edge">
<title>Node1&#45;&gt;Node8</title>
<path fill="none" stroke="midnightblue" d="M856.4,-230.98C736.13,-222.78 283.61,-191.93 138.84,-182.06"/>
<polygon fill="midnightblue" stroke="midnightblue" points="138.77,-178.54 128.56,-181.36 138.3,-185.53 138.77,-178.54"/>
</g>
<!-- Node10 -->
<g id="node10" class="node">
<title>Node10</title>
<g id="a_node10"><a xlink:href="connect_8h.html" target="_top" xlink:title=" ">
<polygon fill="white" stroke="black" points="534.5,-168.5 534.5,-187.5 593.5,-187.5 593.5,-168.5 534.5,-168.5"/>
<text text-anchor="middle" x="564" y="-175.5" font-family="Helvetica,sans-Serif" font-size="10.00">connect.h</text>
</a>
</g>
</g>
<!-- Node1&#45;&gt;Node10 -->
<g id="edge10" class="edge">
<title>Node1&#45;&gt;Node10</title>
<path fill="none" stroke="midnightblue" d="M856.28,-228.02C798.06,-218.25 668.94,-196.6 603.57,-185.64"/>
<polygon fill="midnightblue" stroke="midnightblue" points="604.09,-182.17 593.64,-183.97 602.93,-189.08 604.09,-182.17"/>
</g>
<!-- Node15 -->
<g id="node15" class="node">
<title>Node15</title>
<g id="a_node15"><a xlink:title=" ">
<polygon fill="white" stroke="#bfbfbf" points="671,-56.5 671,-75.5 717,-75.5 717,-56.5 671,-56.5"/>
<text text-anchor="middle" x="694" y="-63.5" font-family="Helvetica,sans-Serif" font-size="10.00">QTime</text>
</a>
</g>
</g>
<!-- Node1&#45;&gt;Node15 -->
<g id="edge22" class="edge">
<title>Node1&#45;&gt;Node15</title>
<path fill="none" stroke="midnightblue" d="M884.84,-224.26C881.45,-202.15 869.5,-143.53 835,-112 805.09,-84.67 758.54,-73.93 727.19,-69.72"/>
<polygon fill="midnightblue" stroke="midnightblue" points="727.53,-66.24 717.18,-68.53 726.7,-73.19 727.53,-66.24"/>
</g>
<!-- Node17 -->
<g id="node17" class="node">
<title>Node17</title>
<g id="a_node17"><a xlink:title=" ">
<polygon fill="white" stroke="#bfbfbf" points="887,-168.5 887,-187.5 939,-187.5 939,-168.5 887,-168.5"/>
<text text-anchor="middle" x="913" y="-175.5" font-family="Helvetica,sans-Serif" font-size="10.00">QDebug</text>
</a>
</g>
</g>
<!-- Node1&#45;&gt;Node17 -->
<g id="edge24" class="edge">
<title>Node1&#45;&gt;Node17</title>
<path fill="none" stroke="midnightblue" d="M890.46,-224.08C894.15,-216.69 899.52,-205.95 904.09,-196.81"/>
<polygon fill="midnightblue" stroke="midnightblue" points="907.28,-198.26 908.62,-187.75 901.02,-195.13 907.28,-198.26"/>
</g>
<!-- Node18 -->
<g id="node18" class="node">
<title>Node18</title>
<g id="a_node18"><a xlink:title=" ">
<polygon fill="white" stroke="#bfbfbf" points="957.5,-168.5 957.5,-187.5 1016.5,-187.5 1016.5,-168.5 957.5,-168.5"/>
<text text-anchor="middle" x="987" y="-175.5" font-family="Helvetica,sans-Serif" font-size="10.00">QBitArray</text>
</a>
</g>
</g>
<!-- Node1&#45;&gt;Node18 -->
<g id="edge25" class="edge">
<title>Node1&#45;&gt;Node18</title>
<path fill="none" stroke="midnightblue" d="M902.23,-224.32C918.35,-215.7 943.3,-202.36 961.96,-192.39"/>
<polygon fill="midnightblue" stroke="midnightblue" points="963.64,-195.46 970.81,-187.65 960.34,-189.28 963.64,-195.46"/>
</g>
<!-- Node19 -->
<g id="node19" class="node">
<title>Node19</title>
<g id="a_node19"><a xlink:title=" ">
<polygon fill="white" stroke="#bfbfbf" points="1034.5,-168.5 1034.5,-187.5 1135.5,-187.5 1135.5,-168.5 1034.5,-168.5"/>
<text text-anchor="middle" x="1085" y="-175.5" font-family="Helvetica,sans-Serif" font-size="10.00">QByteArrayMatcher</text>
</a>
</g>
</g>
<!-- Node1&#45;&gt;Node19 -->
<g id="edge26" class="edge">
<title>Node1&#45;&gt;Node19</title>
<path fill="none" stroke="midnightblue" d="M915.79,-224.92C949.73,-215.71 1005.42,-200.59 1043.58,-190.24"/>
<polygon fill="midnightblue" stroke="midnightblue" points="1044.62,-193.58 1053.36,-187.59 1042.79,-186.83 1044.62,-193.58"/>
</g>
<!-- Node20 -->
<g id="node20" class="node">
<title>Node20</title>
<g id="a_node20"><a xlink:title=" ">
<polygon fill="white" stroke="#bfbfbf" points="1154,-168.5 1154,-187.5 1194,-187.5 1194,-168.5 1154,-168.5"/>
<text text-anchor="middle" x="1174" y="-175.5" font-family="Helvetica,sans-Serif" font-size="10.00">QFile</text>
</a>
</g>
</g>
<!-- Node1&#45;&gt;Node20 -->
<g id="edge27" class="edge">
<title>Node1&#45;&gt;Node20</title>
<path fill="none" stroke="midnightblue" d="M915.77,-229.1C962.46,-222.71 1055.85,-208.83 1143.93,-188"/>
<polygon fill="midnightblue" stroke="midnightblue" points="1144.9,-191.37 1153.81,-185.63 1143.27,-184.56 1144.9,-191.37"/>
</g>
<!-- Node21 -->
<g id="node21" class="node">
<title>Node21</title>
<g id="a_node21"><a xlink:title=" ">
<polygon fill="white" stroke="#bfbfbf" points="1212,-168.5 1212,-187.5 1286,-187.5 1286,-168.5 1212,-168.5"/>
<text text-anchor="middle" x="1249" y="-175.5" font-family="Helvetica,sans-Serif" font-size="10.00">QTextStream</text>
</a>
</g>
</g>
<!-- Node1&#45;&gt;Node21 -->
<g id="edge28" class="edge">
<title>Node1&#45;&gt;Node21</title>
<path fill="none" stroke="midnightblue" d="M915.8,-229.3C970.42,-222.4 1090.46,-206.71 1201.82,-188.13"/>
<polygon fill="midnightblue" stroke="midnightblue" points="1202.59,-191.55 1211.87,-186.44 1201.43,-184.64 1202.59,-191.55"/>
</g>
<!-- Node3 -->
<g id="node3" class="node">
<title>Node3</title>
<g id="a_node3"><a xlink:title=" ">
<polygon fill="white" stroke="#bfbfbf" points="105.5,-56.5 105.5,-75.5 158.5,-75.5 158.5,-56.5 105.5,-56.5"/>
<text text-anchor="middle" x="132" y="-63.5" font-family="Helvetica,sans-Serif" font-size="10.00">QObject</text>
</a>
</g>
</g>
<!-- Node2&#45;&gt;Node3 -->
<g id="edge2" class="edge">
<title>Node2&#45;&gt;Node3</title>
<path fill="none" stroke="midnightblue" d="M175.41,-112.08C167.84,-104.22 156.62,-92.57 147.49,-83.08"/>
<polygon fill="midnightblue" stroke="midnightblue" points="149.88,-80.53 140.43,-75.75 144.84,-85.38 149.88,-80.53"/>
</g>
<!-- Node4 -->
<g id="node4" class="node">
<title>Node4</title>
<g id="a_node4"><a xlink:href="serialport_8h.html" target="_top" xlink:title=" ">
<polygon fill="white" stroke="black" points="177,-56.5 177,-75.5 241,-75.5 241,-56.5 177,-56.5"/>
<text text-anchor="middle" x="209" y="-63.5" font-family="Helvetica,sans-Serif" font-size="10.00">serialport.h</text>
</a>
</g>
</g>
<!-- Node2&#45;&gt;Node4 -->
<g id="edge3" class="edge">
<title>Node2&#45;&gt;Node4</title>
<path fill="none" stroke="midnightblue" d="M188.13,-112.08C191.51,-104.77 196.42,-94.18 200.62,-85.1"/>
<polygon fill="midnightblue" stroke="midnightblue" points="203.92,-86.3 204.95,-75.75 197.57,-83.36 203.92,-86.3"/>
</g>
<!-- Node2&#45;&gt;Node6 -->
<g id="edge5" class="edge">
<title>Node2&#45;&gt;Node6</title>
<path fill="none" stroke="midnightblue" d="M208.11,-114.27C211.1,-113.48 214.12,-112.71 217,-112 277.01,-97.27 347.45,-82.4 388.47,-73.98"/>
<polygon fill="midnightblue" stroke="midnightblue" points="389.39,-77.36 398.49,-71.93 387.99,-70.51 389.39,-77.36"/>
</g>
<!-- Node7 -->
<g id="node7" class="node">
<title>Node7</title>
<g id="a_node7"><a xlink:title=" ">
<polygon fill="white" stroke="#bfbfbf" points="313,-56.5 313,-75.5 367,-75.5 367,-56.5 313,-56.5"/>
<text text-anchor="middle" x="340" y="-63.5" font-family="Helvetica,sans-Serif" font-size="10.00">QThread</text>
</a>
</g>
</g>
<!-- Node2&#45;&gt;Node7 -->
<g id="edge6" class="edge">
<title>Node2&#45;&gt;Node7</title>
<path fill="none" stroke="midnightblue" d="M208.03,-112.68C234.22,-103.62 276.32,-89.04 305.91,-78.8"/>
<polygon fill="midnightblue" stroke="midnightblue" points="307.12,-82.09 315.42,-75.51 304.83,-75.47 307.12,-82.09"/>
</g>
<!-- Node5 -->
<g id="node5" class="node">
<title>Node5</title>
<g id="a_node5"><a xlink:title=" ">
<polygon fill="white" stroke="#bfbfbf" points="175.5,-0.5 175.5,-19.5 242.5,-19.5 242.5,-0.5 175.5,-0.5"/>
<text text-anchor="middle" x="209" y="-7.5" font-family="Helvetica,sans-Serif" font-size="10.00">QSerialPort</text>
</a>
</g>
</g>
<!-- Node4&#45;&gt;Node5 -->
<g id="edge4" class="edge">
<title>Node4&#45;&gt;Node5</title>
<path fill="none" stroke="midnightblue" d="M209,-56.08C209,-49.01 209,-38.86 209,-29.99"/>
<polygon fill="midnightblue" stroke="midnightblue" points="212.5,-29.75 209,-19.75 205.5,-29.75 212.5,-29.75"/>
</g>
<!-- Node8&#45;&gt;Node3 -->
<g id="edge9" class="edge">
<title>Node8&#45;&gt;Node3</title>
<path fill="none" stroke="midnightblue" d="M96.98,-168.37C103.14,-150.54 117.39,-109.3 125.69,-85.27"/>
<polygon fill="midnightblue" stroke="midnightblue" points="129.07,-86.19 129.03,-75.59 122.46,-83.9 129.07,-86.19"/>
</g>
<!-- Node9 -->
<g id="node9" class="node">
<title>Node9</title>
<g id="a_node9"><a xlink:title=" ">
<polygon fill="white" stroke="#bfbfbf" points="0,-112.5 0,-131.5 66,-131.5 66,-112.5 0,-112.5"/>
<text text-anchor="middle" x="33" y="-119.5" font-family="Helvetica,sans-Serif" font-size="10.00">QStringList</text>
</a>
</g>
</g>
<!-- Node8&#45;&gt;Node9 -->
<g id="edge8" class="edge">
<title>Node8&#45;&gt;Node9</title>
<path fill="none" stroke="midnightblue" d="M84.2,-168.32C75.18,-160.34 61.59,-148.31 50.68,-138.65"/>
<polygon fill="midnightblue" stroke="midnightblue" points="52.79,-135.84 42.98,-131.83 48.15,-141.08 52.79,-135.84"/>
</g>
<!-- Node10&#45;&gt;Node3 -->
<g id="edge12" class="edge">
<title>Node10&#45;&gt;Node3</title>
<path fill="none" stroke="midnightblue" d="M534.19,-175.64C444.3,-171.3 180.3,-156.55 151,-132 137.64,-120.81 133.38,-100.79 132.17,-85.91"/>
<polygon fill="midnightblue" stroke="midnightblue" points="135.66,-85.61 131.73,-75.77 128.66,-85.91 135.66,-85.61"/>
</g>
<!-- Node10&#45;&gt;Node6 -->
<g id="edge14" class="edge">
<title>Node10&#45;&gt;Node6</title>
<path fill="none" stroke="midnightblue" d="M593.55,-172.61C638.17,-164.77 714.62,-145.94 686,-112 657.21,-77.87 522.66,-69.62 457.94,-67.63"/>
<polygon fill="midnightblue" stroke="midnightblue" points="457.9,-64.13 447.81,-67.36 457.71,-71.13 457.9,-64.13"/>
</g>
<!-- Node11 -->
<g id="node11" class="node">
<title>Node11</title>
<g id="a_node11"><a xlink:title=" ">
<polygon fill="white" stroke="#bfbfbf" points="438.5,-112.5 438.5,-131.5 561.5,-131.5 561.5,-112.5 438.5,-112.5"/>
<text text-anchor="middle" x="500" y="-119.5" font-family="Helvetica,sans-Serif" font-size="10.00">QtSerialPort/QSerialPort</text>
</a>
</g>
</g>
<!-- Node10&#45;&gt;Node11 -->
<g id="edge11" class="edge">
<title>Node10&#45;&gt;Node11</title>
<path fill="none" stroke="midnightblue" d="M553.72,-168.32C544.16,-160.26 529.72,-148.08 518.22,-138.37"/>
<polygon fill="midnightblue" stroke="midnightblue" points="520.37,-135.61 510.47,-131.83 515.86,-140.96 520.37,-135.61"/>
</g>
<!-- Node12 -->
<g id="node12" class="node">
<title>Node12</title>
<g id="a_node12"><a xlink:title=" ">
<polygon fill="white" stroke="#bfbfbf" points="579.5,-112.5 579.5,-131.5 676.5,-131.5 676.5,-112.5 579.5,-112.5"/>
<text text-anchor="middle" x="628" y="-119.5" font-family="Helvetica,sans-Serif" font-size="10.00">QModbusDataUnit</text>
</a>
</g>
</g>
<!-- Node10&#45;&gt;Node12 -->
<g id="edge13" class="edge">
<title>Node10&#45;&gt;Node12</title>
<path fill="none" stroke="midnightblue" d="M574.28,-168.32C583.84,-160.26 598.28,-148.08 609.78,-138.37"/>
<polygon fill="midnightblue" stroke="midnightblue" points="612.14,-140.96 617.53,-131.83 607.63,-135.61 612.14,-140.96"/>
</g>
<!-- Node13 -->
<g id="node13" class="node">
<title>Node13</title>
<g id="a_node13"><a xlink:title=" ">
<polygon fill="white" stroke="#bfbfbf" points="733,-112.5 733,-131.5 793,-131.5 793,-112.5 733,-112.5"/>
<text text-anchor="middle" x="763" y="-119.5" font-family="Helvetica,sans-Serif" font-size="10.00">QProcess</text>
</a>
</g>
</g>
<!-- Node10&#45;&gt;Node13 -->
<g id="edge15" class="edge">
<title>Node10&#45;&gt;Node13</title>
<path fill="none" stroke="midnightblue" d="M593.79,-168.92C628.13,-159.6 684.73,-144.24 722.91,-133.88"/>
<polygon fill="midnightblue" stroke="midnightblue" points="723.94,-137.23 732.68,-131.23 722.11,-130.47 723.94,-137.23"/>
</g>
<!-- Node14 -->
<g id="node14" class="node">
<title>Node14</title>
<g id="a_node14"><a xlink:href="calculations_8h.html" target="_top" xlink:title=" ">
<polygon fill="white" stroke="black" points="344,-112.5 344,-131.5 420,-131.5 420,-112.5 344,-112.5"/>
<text text-anchor="middle" x="382" y="-119.5" font-family="Helvetica,sans-Serif" font-size="10.00">calculations.h</text>
</a>
</g>
</g>
<!-- Node10&#45;&gt;Node14 -->
<g id="edge16" class="edge">
<title>Node10&#45;&gt;Node14</title>
<path fill="none" stroke="midnightblue" d="M535.16,-168.44C504.14,-159.24 454.67,-144.56 420.38,-134.39"/>
<polygon fill="midnightblue" stroke="midnightblue" points="421.29,-131.01 410.7,-131.52 419.29,-137.72 421.29,-131.01"/>
</g>
<!-- Node16 -->
<g id="node16" class="node">
<title>Node16</title>
<g id="a_node16"><a xlink:title=" ">
<polygon fill="white" stroke="#bfbfbf" points="226.5,-112.5 226.5,-131.5 325.5,-131.5 325.5,-112.5 226.5,-112.5"/>
<text text-anchor="middle" x="276" y="-119.5" font-family="Helvetica,sans-Serif" font-size="10.00">QFileSystemModel</text>
</a>
</g>
</g>
<!-- Node10&#45;&gt;Node16 -->
<g id="edge21" class="edge">
<title>Node10&#45;&gt;Node16</title>
<path fill="none" stroke="midnightblue" d="M534.26,-171.42C486.58,-162.48 392.23,-144.79 331.73,-133.45"/>
<polygon fill="midnightblue" stroke="midnightblue" points="332.06,-129.95 321.59,-131.55 330.77,-136.83 332.06,-129.95"/>
</g>
<!-- Node14&#45;&gt;Node3 -->
<g id="edge18" class="edge">
<title>Node14&#45;&gt;Node3</title>
<path fill="none" stroke="midnightblue" d="M343.63,-113.39C302.74,-105.17 235.87,-91.45 168.63,-76.08"/>
<polygon fill="midnightblue" stroke="midnightblue" points="169.24,-72.62 158.71,-73.8 167.67,-79.45 169.24,-72.62"/>
</g>
<!-- Node14&#45;&gt;Node6 -->
<g id="edge20" class="edge">
<title>Node14&#45;&gt;Node6</title>
<path fill="none" stroke="midnightblue" d="M388.77,-112.08C394.56,-104.46 403.06,-93.26 410.14,-83.94"/>
<polygon fill="midnightblue" stroke="midnightblue" points="413.1,-85.83 416.36,-75.75 407.52,-81.6 413.1,-85.83"/>
</g>
<!-- Node14&#45;&gt;Node7 -->
<g id="edge17" class="edge">
<title>Node14&#45;&gt;Node7</title>
<path fill="none" stroke="midnightblue" d="M375.06,-112.08C369.07,-104.38 360.25,-93.03 352.95,-83.65"/>
<polygon fill="midnightblue" stroke="midnightblue" points="355.71,-81.5 346.81,-75.75 350.18,-85.79 355.71,-81.5"/>
</g>
<!-- Node14&#45;&gt;Node15 -->
<g id="edge19" class="edge">
<title>Node14&#45;&gt;Node15</title>
<path fill="none" stroke="midnightblue" d="M420.24,-113.77C423.54,-113.16 426.83,-112.57 430,-112 512.89,-97.17 610.64,-80.8 660.73,-72.49"/>
<polygon fill="midnightblue" stroke="midnightblue" points="661.38,-75.93 670.67,-70.84 660.23,-69.02 661.38,-75.93"/>
</g>
</g>
</svg>
