<?xml version="1.0" encoding="UTF-8" standalone="no"?>
<!DOCTYPE svg PUBLIC "-//W3C//DTD SVG 1.1//EN"
 "http://www.w3.org/Graphics/SVG/1.1/DTD/svg11.dtd">
<!-- Generated by graphviz version 2.49.3 (20211027.1534)
 -->
<!-- Title: Apexi::decodeInit Pages: 1 -->
<svg width="961pt" height="94pt"
 viewBox="0.00 0.00 961.00 94.00" xmlns="http://www.w3.org/2000/svg" xmlns:xlink="http://www.w3.org/1999/xlink">
<g id="graph0" class="graph" transform="scale(1 1) rotate(0) translate(4 90)">
<title>Apexi::decodeInit</title>
<polygon fill="white" stroke="transparent" points="-4,4 -4,-90 957,-90 957,4 -4,4"/>
<!-- Node1 -->
<g id="node1" class="node">
<title>Node1</title>
<g id="a_node1"><a xlink:title=" ">
<polygon fill="#bfbfbf" stroke="black" points="863,-28.5 863,-47.5 953,-47.5 953,-28.5 863,-28.5"/>
<text text-anchor="middle" x="908" y="-35.5" font-family="Helvetica,sans-Serif" font-size="10.00">Apexi::decodeInit</text>
</a>
</g>
</g>
<!-- Node2 -->
<g id="node2" class="node">
<title>Node2</title>
<g id="a_node2"><a xlink:href="classApexi.html#a4e7b389e8d3e283a12733ab4f8492be3" target="_top" xlink:title=" ">
<polygon fill="white" stroke="black" points="743,-28.5 743,-47.5 827,-47.5 827,-28.5 743,-28.5"/>
<text text-anchor="middle" x="785" y="-35.5" font-family="Helvetica,sans-Serif" font-size="10.00">Apexi::readData</text>
</a>
</g>
</g>
<!-- Node1&#45;&gt;Node2 -->
<g id="edge1" class="edge">
<title>Node1&#45;&gt;Node2</title>
<path fill="none" stroke="midnightblue" d="M852.72,-38C844.21,-38 835.53,-38 827.37,-38"/>
<polygon fill="midnightblue" stroke="midnightblue" points="852.97,-41.5 862.97,-38 852.97,-34.5 852.97,-41.5"/>
</g>
<!-- Node3 -->
<g id="node3" class="node">
<title>Node3</title>
<g id="a_node3"><a xlink:href="classApexi.html#a4cb1314ab5ca5175aa227ed178148f40" target="_top" xlink:title=" ">
<polygon fill="white" stroke="black" points="619,-66.5 619,-85.5 707,-85.5 707,-66.5 619,-66.5"/>
<text text-anchor="middle" x="663" y="-73.5" font-family="Helvetica,sans-Serif" font-size="10.00">Apexi::apexiECU</text>
</a>
</g>
</g>
<!-- Node2&#45;&gt;Node3 -->
<g id="edge2" class="edge">
<title>Node2&#45;&gt;Node3</title>
<path fill="none" stroke="midnightblue" d="M743.96,-50.68C727.74,-55.81 709.33,-61.64 694.27,-66.41"/>
<polygon fill="midnightblue" stroke="midnightblue" points="745.24,-53.94 753.72,-47.59 743.13,-47.27 745.24,-53.94"/>
</g>
<!-- Node4 -->
<g id="node4" class="node">
<title>Node4</title>
<g id="a_node4"><a xlink:href="classApexi.html#abe3bf6800fce8a4c713a08c14474d625" target="_top" xlink:title=" ">
<polygon fill="white" stroke="black" points="481,-66.5 481,-85.5 583,-85.5 583,-66.5 481,-66.5"/>
<text text-anchor="middle" x="532" y="-73.5" font-family="Helvetica,sans-Serif" font-size="10.00">Apexi::readyToRead</text>
</a>
</g>
</g>
<!-- Node3&#45;&gt;Node4 -->
<g id="edge3" class="edge">
<title>Node3&#45;&gt;Node4</title>
<path fill="none" stroke="midnightblue" d="M608.57,-76C600.15,-76 591.46,-76 583.11,-76"/>
<polygon fill="midnightblue" stroke="midnightblue" points="608.69,-79.5 618.69,-76 608.69,-72.5 608.69,-79.5"/>
</g>
<!-- Node5 -->
<g id="node5" class="node">
<title>Node5</title>
<g id="a_node5"><a xlink:href="classApexi.html#a669124cabae4ada616e650e582c068da" target="_top" xlink:title=" ">
<polygon fill="white" stroke="black" points="328,-28.5 328,-47.5 445,-47.5 445,-28.5 328,-28.5"/>
<text text-anchor="middle" x="386.5" y="-35.5" font-family="Helvetica,sans-Serif" font-size="10.00">Apexi::closeConnection</text>
</a>
</g>
</g>
<!-- Node4&#45;&gt;Node5 -->
<g id="edge4" class="edge">
<title>Node4&#45;&gt;Node5</title>
<path fill="none" stroke="midnightblue" d="M485.03,-63.83C465.18,-58.57 442.31,-52.51 423.7,-47.59"/>
<polygon fill="midnightblue" stroke="midnightblue" points="484.23,-67.23 494.79,-66.41 486.02,-60.47 484.23,-67.23"/>
</g>
<!-- Node10 -->
<g id="node10" class="node">
<title>Node10</title>
<g id="a_node10"><a xlink:href="classApexi.html#a169d6e9466a6c04e6533c8e84fdcaadb" target="_top" xlink:title=" ">
<polygon fill="white" stroke="black" points="336,-66.5 336,-85.5 437,-85.5 437,-66.5 336,-66.5"/>
<text text-anchor="middle" x="386.5" y="-73.5" font-family="Helvetica,sans-Serif" font-size="10.00">Apexi::initSerialPort</text>
</a>
</g>
</g>
<!-- Node4&#45;&gt;Node10 -->
<g id="edge11" class="edge">
<title>Node4&#45;&gt;Node10</title>
<path fill="none" stroke="midnightblue" d="M470.75,-76C459.65,-76 448.17,-76 437.42,-76"/>
<polygon fill="midnightblue" stroke="midnightblue" points="470.81,-79.5 480.81,-76 470.81,-72.5 470.81,-79.5"/>
</g>
<!-- Node5&#45;&gt;Node2 -->
<g id="edge10" class="edge">
<title>Node5&#45;&gt;Node2</title>
<path fill="none" stroke="midnightblue" d="M455.33,-38C537.84,-38 674.52,-38 742.69,-38"/>
<polygon fill="midnightblue" stroke="midnightblue" points="455.3,-34.5 445.3,-38 455.3,-41.5 455.3,-34.5"/>
</g>
<!-- Node6 -->
<g id="node6" class="node">
<title>Node6</title>
<g id="a_node6"><a xlink:href="classConnect.html#abb89a14af2e2b3f6d466c5abfc95cff0" target="_top" xlink:title=" ">
<polygon fill="white" stroke="black" points="163,-28.5 163,-47.5 292,-47.5 292,-28.5 163,-28.5"/>
<text text-anchor="middle" x="227.5" y="-35.5" font-family="Helvetica,sans-Serif" font-size="10.00">Connect::closeConnection</text>
</a>
</g>
</g>
<!-- Node5&#45;&gt;Node6 -->
<g id="edge5" class="edge">
<title>Node5&#45;&gt;Node6</title>
<path fill="none" stroke="midnightblue" d="M317.7,-38C309.22,-38 300.57,-38 292.15,-38"/>
<polygon fill="midnightblue" stroke="midnightblue" points="317.93,-41.5 327.93,-38 317.93,-34.5 317.93,-41.5"/>
</g>
<!-- Node7 -->
<g id="node7" class="node">
<title>Node7</title>
<g id="a_node7"><a xlink:href="classApexi.html#a84e5eadc545afab5fbb0aea8b27e17c3" target="_top" xlink:title=" ">
<polygon fill="white" stroke="black" points="170,-66.5 170,-85.5 285,-85.5 285,-66.5 170,-66.5"/>
<text text-anchor="middle" x="227.5" y="-73.5" font-family="Helvetica,sans-Serif" font-size="10.00">Apexi::openConnection</text>
</a>
</g>
</g>
<!-- Node5&#45;&gt;Node7 -->
<g id="edge6" class="edge">
<title>Node5&#45;&gt;Node7</title>
<path fill="none" stroke="midnightblue" d="M336.05,-49.97C314.05,-55.29 288.51,-61.48 267.83,-66.48"/>
<polygon fill="midnightblue" stroke="midnightblue" points="336.99,-53.34 345.88,-47.59 335.34,-46.54 336.99,-53.34"/>
</g>
<!-- Node8 -->
<g id="node8" class="node">
<title>Node8</title>
<g id="a_node8"><a xlink:href="classConnect.html#a0d674157f4d7442c535837dadd8cf5f1" target="_top" xlink:title=" ">
<polygon fill="white" stroke="black" points="0,-66.5 0,-85.5 127,-85.5 127,-66.5 0,-66.5"/>
<text text-anchor="middle" x="63.5" y="-73.5" font-family="Helvetica,sans-Serif" font-size="10.00">Connect::openConnection</text>
</a>
</g>
</g>
<!-- Node7&#45;&gt;Node8 -->
<g id="edge7" class="edge">
<title>Node7&#45;&gt;Node8</title>
<path fill="none" stroke="midnightblue" d="M159.67,-76C148.93,-76 137.85,-76 127.21,-76"/>
<polygon fill="midnightblue" stroke="midnightblue" points="159.84,-79.5 169.84,-76 159.84,-72.5 159.84,-79.5"/>
</g>
<!-- Node9 -->
<g id="node9" class="node">
<title>Node9</title>
<g id="a_node9"><a xlink:href="classApexi.html#af3673b74b8aebe06a2b2f9ed81c23ee4" target="_top" xlink:title=" ">
<polygon fill="white" stroke="black" points="14.5,-9.5 14.5,-28.5 112.5,-28.5 112.5,-9.5 14.5,-9.5"/>
<text text-anchor="middle" x="63.5" y="-16.5" font-family="Helvetica,sans-Serif" font-size="10.00">Apexi::retryconnect</text>
</a>
</g>
</g>
<!-- Node7&#45;&gt;Node9 -->
<g id="edge8" class="edge">
<title>Node7&#45;&gt;Node9</title>
<path fill="none" stroke="midnightblue" d="M183.02,-63.48C176.29,-61.4 169.44,-59.2 163,-57 136.99,-48.1 107.64,-36.59 87.8,-28.57"/>
<polygon fill="midnightblue" stroke="midnightblue" points="182.15,-66.87 192.73,-66.42 184.18,-60.17 182.15,-66.87"/>
</g>
<!-- Node9&#45;&gt;Node2 -->
<g id="edge9" class="edge">
<title>Node9&#45;&gt;Node2</title>
<path fill="none" stroke="midnightblue" d="M122.91,-13.46C187.2,-7.85 293.62,0 385.5,0 533,0 533,0 533,0 608.81,0 696.05,-17.15 745.15,-28.41"/>
<polygon fill="midnightblue" stroke="midnightblue" points="122.23,-10.01 112.58,-14.38 122.85,-16.98 122.23,-10.01"/>
</g>
<!-- Node10&#45;&gt;Node7 -->
<g id="edge12" class="edge">
<title>Node10&#45;&gt;Node7</title>
<path fill="none" stroke="midnightblue" d="M325.82,-76C312.51,-76 298.43,-76 285.24,-76"/>
<polygon fill="midnightblue" stroke="midnightblue" points="325.82,-79.5 335.82,-76 325.82,-72.5 325.82,-79.5"/>
</g>
</g>
</svg>
