<?xml version="1.0" encoding="UTF-8" standalone="no"?>
<!DOCTYPE svg PUBLIC "-//W3C//DTD SVG 1.1//EN"
 "http://www.w3.org/Graphics/SVG/1.1/DTD/svg11.dtd">
<!-- Generated by graphviz version 2.49.3 (20211027.1534)
 -->
<!-- Title: Connect Pages: 1 -->
<svg width="542pt" height="809pt"
 viewBox="0.00 0.00 542.00 808.70" xmlns="http://www.w3.org/2000/svg" xmlns:xlink="http://www.w3.org/1999/xlink">
<g id="graph0" class="graph" transform="scale(1 1) rotate(0) translate(4 804.7)">
<title>Connect</title>
<polygon fill="white" stroke="transparent" points="-4,4 -4,-804.7 538,-804.7 538,4 -4,4"/>
<!-- Node1 -->
<g id="node1" class="node">
<title>Node1</title>
<g id="a_node1"><a xlink:title=" ">
<polygon fill="#bfbfbf" stroke="black" points="481,-444.06 481,-463.06 534,-463.06 534,-444.06 481,-444.06"/>
<text text-anchor="middle" x="507.5" y="-451.06" font-family="Helvetica,sans-Serif" font-size="10.00">Connect</text>
</a>
</g>
</g>
<!-- Node2 -->
<g id="node2" class="node">
<title>Node2</title>
<g id="a_node2"><a xlink:title=" ">
<polygon fill="white" stroke="#bfbfbf" points="7,-430.06 7,-449.06 60,-449.06 60,-430.06 7,-430.06"/>
<text text-anchor="middle" x="33.5" y="-437.06" font-family="Helvetica,sans-Serif" font-size="10.00">QObject</text>
</a>
</g>
</g>
<!-- Node2&#45;&gt;Node1 -->
<g id="edge1" class="edge">
<title>Node2&#45;&gt;Node1</title>
<path fill="none" stroke="midnightblue" d="M36.01,-459.29C41.17,-521.15 60.26,-709.53 104,-748.56 132.56,-774.05 149.07,-766.4 187,-771.56 308.87,-788.13 374.25,-836.7 463,-751.56 505.64,-710.66 506.89,-509.73 506.6,-463.19"/>
<polygon fill="midnightblue" stroke="midnightblue" points="39.49,-458.96 35.2,-449.27 32.52,-459.52 39.49,-458.96"/>
</g>
<!-- Node5 -->
<g id="node5" class="node">
<title>Node5</title>
<g id="a_node5"><a xlink:href="classDashBoard.html" target="_top" xlink:title=" ">
<polygon fill="white" stroke="black" points="104,-464.06 104,-483.06 169,-483.06 169,-464.06 104,-464.06"/>
<text text-anchor="middle" x="136.5" y="-471.06" font-family="Helvetica,sans-Serif" font-size="10.00">DashBoard</text>
</a>
</g>
</g>
<!-- Node2&#45;&gt;Node5 -->
<g id="edge5" class="edge">
<title>Node2&#45;&gt;Node5</title>
<path fill="none" stroke="midnightblue" d="M70.04,-451.53C82.13,-455.6 95.48,-460.09 106.95,-463.95"/>
<polygon fill="midnightblue" stroke="midnightblue" points="70.84,-448.1 60.25,-448.23 68.61,-454.74 70.84,-448.1"/>
</g>
<!-- Node6 -->
<g id="node6" class="node">
<title>Node6</title>
<g id="a_node6"><a xlink:href="classAppSettings.html" target="_top" xlink:title=" ">
<polygon fill="white" stroke="black" points="276.5,-675.06 276.5,-694.06 346.5,-694.06 346.5,-675.06 276.5,-675.06"/>
<text text-anchor="middle" x="311.5" y="-682.06" font-family="Helvetica,sans-Serif" font-size="10.00">AppSettings</text>
</a>
</g>
</g>
<!-- Node2&#45;&gt;Node6 -->
<g id="edge7" class="edge">
<title>Node2&#45;&gt;Node6</title>
<path fill="none" stroke="midnightblue" d="M36.37,-459.43C43.2,-518.63 72.74,-692.64 187,-739.56 212.08,-749.86 222.63,-749.13 248,-739.56 249.58,-738.97 282.2,-709.89 299.67,-694.26"/>
<polygon fill="midnightblue" stroke="midnightblue" points="39.82,-458.77 35.29,-449.19 32.86,-459.5 39.82,-458.77"/>
</g>
<!-- Node7 -->
<g id="node7" class="node">
<title>Node7</title>
<g id="a_node7"><a xlink:href="classGoPro.html" target="_top" xlink:title=" ">
<polygon fill="white" stroke="black" points="195.5,-161.06 195.5,-180.06 239.5,-180.06 239.5,-161.06 195.5,-161.06"/>
<text text-anchor="middle" x="217.5" y="-168.06" font-family="Helvetica,sans-Serif" font-size="10.00">GoPro</text>
</a>
</g>
</g>
<!-- Node2&#45;&gt;Node7 -->
<g id="edge10" class="edge">
<title>Node2&#45;&gt;Node7</title>
<path fill="none" stroke="midnightblue" d="M35.4,-419.62C38.33,-364.71 49.53,-213.33 85,-181.56 115.2,-154.51 166.5,-159.6 195.29,-165.33"/>
<polygon fill="midnightblue" stroke="midnightblue" points="31.9,-419.63 34.9,-429.79 38.89,-419.97 31.9,-419.63"/>
</g>
<!-- Node8 -->
<g id="node8" class="node">
<title>Node8</title>
<g id="a_node8"><a xlink:href="classGPS.html" target="_top" xlink:title=" ">
<polygon fill="white" stroke="black" points="292.5,-108.06 292.5,-127.06 330.5,-127.06 330.5,-108.06 292.5,-108.06"/>
<text text-anchor="middle" x="311.5" y="-115.06" font-family="Helvetica,sans-Serif" font-size="10.00">GPS</text>
</a>
</g>
</g>
<!-- Node2&#45;&gt;Node8 -->
<g id="edge12" class="edge">
<title>Node2&#45;&gt;Node8</title>
<path fill="none" stroke="midnightblue" d="M34.6,-419.63C35.6,-374.13 42.51,-260.17 85,-177.56 123.17,-103.35 245.93,-109.72 292.42,-115.04"/>
<polygon fill="midnightblue" stroke="midnightblue" points="31.1,-419.84 34.45,-429.89 38.1,-419.94 31.1,-419.84"/>
</g>
<!-- Node9 -->
<g id="node9" class="node">
<title>Node9</title>
<g id="a_node9"><a xlink:href="classudpreceiver.html" target="_top" xlink:title=" ">
<polygon fill="white" stroke="black" points="278,-567.06 278,-586.06 345,-586.06 345,-567.06 278,-567.06"/>
<text text-anchor="middle" x="311.5" y="-574.06" font-family="Helvetica,sans-Serif" font-size="10.00">udpreceiver</text>
</a>
</g>
</g>
<!-- Node2&#45;&gt;Node9 -->
<g id="edge16" class="edge">
<title>Node2&#45;&gt;Node9</title>
<path fill="none" stroke="midnightblue" d="M41.79,-458.63C59.16,-500.75 107.57,-600.18 187,-628.56 212.53,-637.68 223.5,-640.17 248,-628.56 259.42,-623.15 256.66,-615.07 266,-606.56 274.4,-598.9 284.9,-591.73 293.59,-586.32"/>
<polygon fill="midnightblue" stroke="midnightblue" points="45,-457.23 38.04,-449.24 38.5,-459.83 45,-457.23"/>
</g>
<!-- Node10 -->
<g id="node10" class="node">
<title>Node10</title>
<g id="a_node10"><a xlink:href="classAdaptronicSelect.html" target="_top" xlink:title=" ">
<polygon fill="white" stroke="black" points="266,-406.06 266,-425.06 357,-425.06 357,-406.06 266,-406.06"/>
<text text-anchor="middle" x="311.5" y="-413.06" font-family="Helvetica,sans-Serif" font-size="10.00">AdaptronicSelect</text>
</a>
</g>
</g>
<!-- Node2&#45;&gt;Node10 -->
<g id="edge19" class="edge">
<title>Node2&#45;&gt;Node10</title>
<path fill="none" stroke="midnightblue" d="M60.89,-425.18C90.54,-409.94 140.61,-386.94 187,-378.56 213.68,-373.74 221.85,-371.4 248,-378.56 253.11,-379.96 278.43,-395.46 295.23,-405.95"/>
<polygon fill="midnightblue" stroke="midnightblue" points="58.89,-422.27 51.65,-430.01 62.13,-428.47 58.89,-422.27"/>
</g>
<!-- Node11 -->
<g id="node11" class="node">
<title>Node11</title>
<g id="a_node11"><a xlink:href="classApexi.html" target="_top" xlink:title=" ">
<polygon fill="white" stroke="black" points="291,-56.06 291,-75.06 332,-75.06 332,-56.06 291,-56.06"/>
<text text-anchor="middle" x="311.5" y="-63.06" font-family="Helvetica,sans-Serif" font-size="10.00">Apexi</text>
</a>
</g>
</g>
<!-- Node2&#45;&gt;Node11 -->
<g id="edge22" class="edge">
<title>Node2&#45;&gt;Node11</title>
<path fill="none" stroke="midnightblue" d="M36.43,-419.94C42.91,-357.45 65.69,-164.4 104,-116.56 130.92,-82.95 145.55,-78.26 187,-66.56 222.49,-56.54 266.04,-59.54 290.8,-62.58"/>
<polygon fill="midnightblue" stroke="midnightblue" points="32.93,-419.72 35.41,-430.02 39.9,-420.43 32.93,-419.72"/>
</g>
<!-- Node12 -->
<g id="node12" class="node">
<title>Node12</title>
<g id="a_node12"><a xlink:href="classSensors.html" target="_top" xlink:title=" ">
<polygon fill="white" stroke="black" points="285,-312.06 285,-331.06 338,-331.06 338,-312.06 285,-312.06"/>
<text text-anchor="middle" x="311.5" y="-319.06" font-family="Helvetica,sans-Serif" font-size="10.00">Sensors</text>
</a>
</g>
</g>
<!-- Node2&#45;&gt;Node12 -->
<g id="edge26" class="edge">
<title>Node2&#45;&gt;Node12</title>
<path fill="none" stroke="midnightblue" d="M40.31,-420.08C55.46,-373.33 101.03,-255.26 187,-209.56 210.94,-196.84 224.86,-195.44 248,-209.56 262.93,-218.67 257.62,-229.21 266,-244.56 279.31,-268.96 295.9,-297.11 304.58,-311.68"/>
<polygon fill="midnightblue" stroke="midnightblue" points="36.89,-419.29 37.25,-429.88 43.58,-421.38 36.89,-419.29"/>
</g>
<!-- Node13 -->
<g id="node13" class="node">
<title>Node13</title>
<g id="a_node13"><a xlink:href="classdatalogger.html" target="_top" xlink:title=" ">
<polygon fill="white" stroke="black" points="280.5,-444.06 280.5,-463.06 342.5,-463.06 342.5,-444.06 280.5,-444.06"/>
<text text-anchor="middle" x="311.5" y="-451.06" font-family="Helvetica,sans-Serif" font-size="10.00">datalogger</text>
</a>
</g>
</g>
<!-- Node2&#45;&gt;Node13 -->
<g id="edge29" class="edge">
<title>Node2&#45;&gt;Node13</title>
<path fill="none" stroke="midnightblue" d="M69.85,-428.96C112.9,-417.81 187.38,-404.21 248,-422.56 257.2,-425.35 257.54,-429.99 266,-434.56 272.21,-437.92 279.13,-441.12 285.63,-443.9"/>
<polygon fill="midnightblue" stroke="midnightblue" points="68.87,-425.6 60.13,-431.58 70.69,-432.36 68.87,-425.6"/>
</g>
<!-- Node14 -->
<g id="node14" class="node">
<title>Node14</title>
<g id="a_node14"><a xlink:href="classcalculations.html" target="_top" xlink:title=" ">
<polygon fill="white" stroke="black" points="277.5,-616.06 277.5,-635.06 345.5,-635.06 345.5,-616.06 277.5,-616.06"/>
<text text-anchor="middle" x="311.5" y="-623.06" font-family="Helvetica,sans-Serif" font-size="10.00">calculations</text>
</a>
</g>
</g>
<!-- Node2&#45;&gt;Node14 -->
<g id="edge32" class="edge">
<title>Node2&#45;&gt;Node14</title>
<path fill="none" stroke="midnightblue" d="M38.67,-459.21C50.74,-510.18 91.19,-645.32 187,-682.56 212.27,-692.38 222.81,-692.58 248,-682.56 258.23,-678.5 257.91,-673.02 266,-665.56 277.31,-655.14 290.41,-643.4 299.46,-635.35"/>
<polygon fill="midnightblue" stroke="midnightblue" points="42.02,-458.15 36.4,-449.16 35.19,-459.69 42.02,-458.15"/>
</g>
<!-- Node15 -->
<g id="node15" class="node">
<title>Node15</title>
<g id="a_node15"><a xlink:href="classArduino.html" target="_top" xlink:title=" ">
<polygon fill="white" stroke="black" points="286.5,-359.06 286.5,-378.06 336.5,-378.06 336.5,-359.06 286.5,-359.06"/>
<text text-anchor="middle" x="311.5" y="-366.06" font-family="Helvetica,sans-Serif" font-size="10.00">Arduino</text>
</a>
</g>
</g>
<!-- Node2&#45;&gt;Node15 -->
<g id="edge35" class="edge">
<title>Node2&#45;&gt;Node15</title>
<path fill="none" stroke="midnightblue" d="M49.82,-422.61C75.18,-396.07 128.89,-346.15 187,-330.56 213.18,-323.54 221.89,-323.25 248,-330.56 250.61,-331.29 277.62,-348 295.27,-359.02"/>
<polygon fill="midnightblue" stroke="midnightblue" points="47.15,-420.33 42.88,-430.03 52.27,-425.11 47.15,-420.33"/>
</g>
<!-- Node16 -->
<g id="node16" class="node">
<title>Node16</title>
<g id="a_node16"><a xlink:href="classWifiScanner.html" target="_top" xlink:title=" ">
<polygon fill="white" stroke="black" points="277.5,-529.06 277.5,-548.06 345.5,-548.06 345.5,-529.06 277.5,-529.06"/>
<text text-anchor="middle" x="311.5" y="-536.06" font-family="Helvetica,sans-Serif" font-size="10.00">WifiScanner</text>
</a>
</g>
</g>
<!-- Node2&#45;&gt;Node16 -->
<g id="edge39" class="edge">
<title>Node2&#45;&gt;Node16</title>
<path fill="none" stroke="midnightblue" d="M46.94,-457.5C70.15,-489.17 123.46,-553.95 187,-578.56 212.28,-588.35 223.37,-589.89 248,-578.56 259.17,-573.43 256.09,-564.83 266,-557.56 271.01,-553.89 276.85,-550.75 282.61,-548.14"/>
<polygon fill="midnightblue" stroke="midnightblue" points="49.64,-455.26 40.97,-449.16 43.95,-459.33 49.64,-455.26"/>
</g>
<!-- Node17 -->
<g id="node17" class="node">
<title>Node17</title>
<g id="a_node17"><a xlink:href="classExtender.html" target="_top" xlink:title=" ">
<polygon fill="white" stroke="black" points="284.5,-734.06 284.5,-753.06 338.5,-753.06 338.5,-734.06 284.5,-734.06"/>
<text text-anchor="middle" x="311.5" y="-741.06" font-family="Helvetica,sans-Serif" font-size="10.00">Extender</text>
</a>
</g>
</g>
<!-- Node2&#45;&gt;Node17 -->
<g id="edge42" class="edge">
<title>Node2&#45;&gt;Node17</title>
<path fill="none" stroke="midnightblue" d="M34.04,-459.24C33.95,-508.05 40.18,-636.34 104,-713.56 146.55,-765.05 181.56,-763.4 248,-756.56 260.02,-755.33 273.13,-752.79 284.23,-750.28"/>
<polygon fill="midnightblue" stroke="midnightblue" points="37.54,-459.14 34.16,-449.1 30.55,-459.05 37.54,-459.14"/>
</g>
<!-- Node3 -->
<g id="node3" class="node">
<title>Node3</title>
<g id="a_node3"><a xlink:href="classSerialPort.html" target="_top" xlink:title=" ">
<polygon fill="white" stroke="black" points="107,-5.06 107,-24.06 166,-24.06 166,-5.06 107,-5.06"/>
<text text-anchor="middle" x="136.5" y="-12.06" font-family="Helvetica,sans-Serif" font-size="10.00">SerialPort</text>
</a>
</g>
</g>
<!-- Node3&#45;&gt;Node1 -->
<g id="edge2" class="edge">
<title>Node3&#45;&gt;Node1</title>
<path fill="none" stroke="#9a32cd" stroke-dasharray="5,2" d="M176.29,-7.25C246.6,3.47 394.17,13.84 463,-71.56 511.07,-131.2 507.91,-390.92 506.74,-444.05"/>
<polygon fill="#9a32cd" stroke="#9a32cd" points="175.41,-3.85 166.1,-8.89 176.53,-10.76 175.41,-3.85"/>
<text text-anchor="middle" x="311.5" y="-13.56" font-family="Helvetica,sans-Serif" font-size="10.00"> m_serialport</text>
</g>
<!-- Node3&#45;&gt;Node8 -->
<g id="edge14" class="edge">
<title>Node3&#45;&gt;Node8</title>
<path fill="none" stroke="#9a32cd" stroke-dasharray="5,2" d="M162.33,-29.35C198.22,-50.71 263.61,-89.64 294.07,-107.78"/>
<polygon fill="#9a32cd" stroke="#9a32cd" points="163.85,-26.18 153.47,-24.07 160.27,-32.19 163.85,-26.18"/>
<text text-anchor="middle" x="217.5" y="-81.56" font-family="Helvetica,sans-Serif" font-size="10.00"> m_serialport</text>
</g>
<!-- Node3&#45;&gt;Node11 -->
<g id="edge24" class="edge">
<title>Node3&#45;&gt;Node11</title>
<path fill="none" stroke="#9a32cd" stroke-dasharray="5,2" d="M176.52,-15.1C198.09,-16.39 225.09,-19.67 248,-27.56 266.97,-34.1 286.33,-47.04 298.38,-55.99"/>
<polygon fill="#9a32cd" stroke="#9a32cd" points="176.56,-11.6 166.4,-14.61 176.22,-18.59 176.56,-11.6"/>
<text text-anchor="middle" x="217.5" y="-30.56" font-family="Helvetica,sans-Serif" font-size="10.00"> m_serialport</text>
</g>
<!-- Node3&#45;&gt;Node15 -->
<g id="edge37" class="edge">
<title>Node3&#45;&gt;Node15</title>
<path fill="none" stroke="#9a32cd" stroke-dasharray="5,2" d="M139.4,-34.17C144.52,-83.19 160.07,-209.41 187,-240.56 205.95,-262.48 228.9,-241.78 248,-263.56 271.17,-289.99 245.6,-311.95 266,-340.56 271.51,-348.29 279.89,-354.36 287.89,-358.85"/>
<polygon fill="#9a32cd" stroke="#9a32cd" points="142.88,-33.79 138.39,-24.2 135.92,-34.5 142.88,-33.79"/>
<text text-anchor="middle" x="217.5" y="-266.56" font-family="Helvetica,sans-Serif" font-size="10.00"> m_serialport</text>
</g>
<!-- Node4 -->
<g id="node4" class="node">
<title>Node4</title>
<g id="a_node4"><a xlink:title=" ">
<polygon fill="white" stroke="#bfbfbf" points="0,-5.06 0,-24.06 67,-24.06 67,-5.06 0,-5.06"/>
<text text-anchor="middle" x="33.5" y="-12.06" font-family="Helvetica,sans-Serif" font-size="10.00">QSerialPort</text>
</a>
</g>
</g>
<!-- Node4&#45;&gt;Node3 -->
<g id="edge3" class="edge">
<title>Node4&#45;&gt;Node3</title>
<path fill="none" stroke="midnightblue" d="M77.2,-14.56C87.19,-14.56 97.59,-14.56 106.8,-14.56"/>
<polygon fill="midnightblue" stroke="midnightblue" points="77.01,-11.06 67.01,-14.56 77.01,-18.06 77.01,-11.06"/>
</g>
<!-- Node5&#45;&gt;Node1 -->
<g id="edge4" class="edge">
<title>Node5&#45;&gt;Node1</title>
<path fill="none" stroke="#9a32cd" stroke-dasharray="5,2" d="M179.2,-481.69C181.83,-482.04 184.45,-482.33 187,-482.56 214,-485 220.9,-483.44 248,-482.56 343.71,-479.45 369.12,-487.45 463,-468.56 469.42,-467.27 476.19,-465.27 482.43,-463.14"/>
<polygon fill="#9a32cd" stroke="#9a32cd" points="179.48,-478.2 169.07,-480.18 178.44,-485.12 179.48,-478.2"/>
<text text-anchor="middle" x="311.5" y="-484.56" font-family="Helvetica,sans-Serif" font-size="10.00"> m_dashBoard</text>
</g>
<!-- Node5&#45;&gt;Node6 -->
<g id="edge8" class="edge">
<title>Node5&#45;&gt;Node6</title>
<path fill="none" stroke="#9a32cd" stroke-dasharray="5,2" d="M138.78,-493.58C141.85,-525.79 152.22,-589.47 187,-628.56 210.39,-654.86 248.58,-669.54 276.31,-677.2"/>
<polygon fill="#9a32cd" stroke="#9a32cd" points="142.24,-492.92 137.95,-483.24 135.26,-493.49 142.24,-492.92"/>
<text text-anchor="middle" x="217.5" y="-670.56" font-family="Helvetica,sans-Serif" font-size="10.00"> m_dashboard</text>
</g>
<!-- Node5&#45;&gt;Node8 -->
<g id="edge13" class="edge">
<title>Node5&#45;&gt;Node8</title>
<path fill="none" stroke="#9a32cd" stroke-dasharray="5,2" d="M139.47,-453.59C144.9,-401.78 161.39,-264.51 187,-227.56 205.2,-201.31 223.7,-210.3 248,-189.56 270.91,-170 292.84,-141.86 303.6,-127.23"/>
<polygon fill="#9a32cd" stroke="#9a32cd" points="135.96,-453.5 138.43,-463.8 142.93,-454.21 135.96,-453.5"/>
<text text-anchor="middle" x="217.5" y="-230.56" font-family="Helvetica,sans-Serif" font-size="10.00"> m_dashboard</text>
</g>
<!-- Node5&#45;&gt;Node9 -->
<g id="edge17" class="edge">
<title>Node5&#45;&gt;Node9</title>
<path fill="none" stroke="#9a32cd" stroke-dasharray="5,2" d="M146.35,-492.77C154.66,-508.69 168.56,-530.73 187,-543.56 214.05,-562.39 251.27,-570.48 277.77,-573.95"/>
<polygon fill="#9a32cd" stroke="#9a32cd" points="149.27,-490.77 141.71,-483.35 142.99,-493.86 149.27,-490.77"/>
<text text-anchor="middle" x="217.5" y="-570.56" font-family="Helvetica,sans-Serif" font-size="10.00"> m_dashboard</text>
</g>
<!-- Node5&#45;&gt;Node10 -->
<g id="edge20" class="edge">
<title>Node5&#45;&gt;Node10</title>
<path fill="none" stroke="#9a32cd" stroke-dasharray="5,2" d="M160.93,-458.55C168.96,-453.89 178.16,-449.06 187,-445.56 212.34,-435.54 241.97,-428.21 265.86,-423.3"/>
<polygon fill="#9a32cd" stroke="#9a32cd" points="158.88,-455.7 152.13,-463.86 162.5,-461.69 158.88,-455.7"/>
<text text-anchor="middle" x="217.5" y="-448.56" font-family="Helvetica,sans-Serif" font-size="10.00"> m_dashboard</text>
</g>
<!-- Node5&#45;&gt;Node11 -->
<g id="edge23" class="edge">
<title>Node5&#45;&gt;Node11</title>
<path fill="none" stroke="#9a32cd" stroke-dasharray="5,2" d="M138.34,-453.76C141.33,-390.65 153.17,-195.4 187,-143.56 199.96,-123.71 259.88,-91.24 291.24,-75.18"/>
<polygon fill="#9a32cd" stroke="#9a32cd" points="134.83,-453.79 137.88,-463.94 141.82,-454.1 134.83,-453.79"/>
<text text-anchor="middle" x="217.5" y="-146.56" font-family="Helvetica,sans-Serif" font-size="10.00"> m_dashboard</text>
</g>
<!-- Node5&#45;&gt;Node12 -->
<g id="edge27" class="edge">
<title>Node5&#45;&gt;Node12</title>
<path fill="none" stroke="#9a32cd" stroke-dasharray="5,2" d="M141.81,-454.02C147.98,-430.47 161.49,-391.1 187,-367.56 214.58,-342.12 257.51,-330.39 284.8,-325.26"/>
<polygon fill="#9a32cd" stroke="#9a32cd" points="138.37,-453.36 139.42,-463.9 145.18,-455.01 138.37,-453.36"/>
<text text-anchor="middle" x="217.5" y="-370.56" font-family="Helvetica,sans-Serif" font-size="10.00"> m_dashboard</text>
</g>
<!-- Node5&#45;&gt;Node13 -->
<g id="edge30" class="edge">
<title>Node5&#45;&gt;Node13</title>
<path fill="none" stroke="#9a32cd" stroke-dasharray="5,2" d="M179.37,-468.72C210.58,-465.11 252.47,-460.27 280.42,-457.04"/>
<polygon fill="#9a32cd" stroke="#9a32cd" points="178.76,-465.27 169.23,-469.89 179.57,-472.22 178.76,-465.27"/>
<text text-anchor="middle" x="217.5" y="-470.56" font-family="Helvetica,sans-Serif" font-size="10.00"> m_dashboard</text>
</g>
<!-- Node5&#45;&gt;Node14 -->
<g id="edge33" class="edge">
<title>Node5&#45;&gt;Node14</title>
<path fill="none" stroke="#9a32cd" stroke-dasharray="5,2" d="M141.4,-493.04C147.24,-517.27 160.51,-558.38 187,-582.56 212.15,-605.52 250.23,-616.34 277.45,-621.36"/>
<polygon fill="#9a32cd" stroke="#9a32cd" points="144.81,-492.22 139.23,-483.22 137.97,-493.74 144.81,-492.22"/>
<text text-anchor="middle" x="217.5" y="-616.56" font-family="Helvetica,sans-Serif" font-size="10.00"> m_dashboard</text>
</g>
<!-- Node5&#45;&gt;Node15 -->
<g id="edge36" class="edge">
<title>Node5&#45;&gt;Node15</title>
<path fill="none" stroke="#9a32cd" stroke-dasharray="5,2" d="M148.22,-455.1C157.06,-441.36 170.74,-423.07 187,-411.56 217.57,-389.92 260.04,-378.31 286.37,-372.79"/>
<polygon fill="#9a32cd" stroke="#9a32cd" points="145.17,-453.39 142.91,-463.75 151.13,-457.06 145.17,-453.39"/>
<text text-anchor="middle" x="217.5" y="-414.56" font-family="Helvetica,sans-Serif" font-size="10.00"> m_dashboard</text>
</g>
<!-- Node5&#45;&gt;Node16 -->
<g id="edge40" class="edge">
<title>Node5&#45;&gt;Node16</title>
<path fill="none" stroke="#9a32cd" stroke-dasharray="5,2" d="M155.42,-489.84C164.34,-497.16 175.63,-505.31 187,-510.56 215.94,-523.92 251.72,-531.13 277.3,-534.87"/>
<polygon fill="#9a32cd" stroke="#9a32cd" points="157.54,-487.05 147.67,-483.21 152.99,-492.37 157.54,-487.05"/>
<text text-anchor="middle" x="217.5" y="-531.56" font-family="Helvetica,sans-Serif" font-size="10.00"> m_dashboard</text>
</g>
<!-- Node5&#45;&gt;Node17 -->
<g id="edge43" class="edge">
<title>Node5&#45;&gt;Node17</title>
<path fill="none" stroke="#9a32cd" stroke-dasharray="5,2" d="M136.88,-493.14C136.64,-533.15 141.46,-625.35 187,-682.56 211.65,-713.53 256.04,-729.95 284.35,-737.69"/>
<polygon fill="#9a32cd" stroke="#9a32cd" points="140.38,-493.16 137.06,-483.1 133.38,-493.04 140.38,-493.16"/>
<text text-anchor="middle" x="217.5" y="-727.56" font-family="Helvetica,sans-Serif" font-size="10.00"> m_dashboard</text>
</g>
<!-- Node6&#45;&gt;Node1 -->
<g id="edge6" class="edge">
<title>Node6&#45;&gt;Node1</title>
<path fill="none" stroke="#9a32cd" stroke-dasharray="5,2" d="M356.61,-683.19C390.36,-679.74 435.63,-669.51 463,-640.56 487.85,-614.28 501.83,-498.19 505.51,-463.43"/>
<polygon fill="#9a32cd" stroke="#9a32cd" points="356.2,-679.71 346.53,-684.06 356.8,-686.69 356.2,-679.71"/>
<text text-anchor="middle" x="419" y="-682.56" font-family="Helvetica,sans-Serif" font-size="10.00"> m_appSettings</text>
</g>
<!-- Node7&#45;&gt;Node1 -->
<g id="edge9" class="edge">
<title>Node7&#45;&gt;Node1</title>
<path fill="none" stroke="#9a32cd" stroke-dasharray="5,2" d="M249.32,-181.35C301.11,-201.04 405.58,-247.71 463,-321.56 493.07,-360.23 502.8,-420.57 505.54,-443.9"/>
<polygon fill="#9a32cd" stroke="#9a32cd" points="250.28,-177.97 239.69,-177.77 247.84,-184.53 250.28,-177.97"/>
<text text-anchor="middle" x="311.5" y="-232.56" font-family="Helvetica,sans-Serif" font-size="10.00"> m_gopro</text>
</g>
<!-- Node8&#45;&gt;Node1 -->
<g id="edge11" class="edge">
<title>Node8&#45;&gt;Node1</title>
<path fill="none" stroke="#9a32cd" stroke-dasharray="5,2" d="M340.48,-125.07C375.11,-135.91 433.14,-159.41 463,-201.56 491.55,-241.87 503.33,-402.47 505.93,-443.82"/>
<polygon fill="#9a32cd" stroke="#9a32cd" points="341.13,-121.61 330.54,-122.11 339.13,-128.32 341.13,-121.61"/>
<text text-anchor="middle" x="419" y="-204.56" font-family="Helvetica,sans-Serif" font-size="10.00"> m_gps</text>
</g>
<!-- Node9&#45;&gt;Node1 -->
<g id="edge15" class="edge">
<title>Node9&#45;&gt;Node1</title>
<path fill="none" stroke="#9a32cd" stroke-dasharray="5,2" d="M355.23,-579.8C387.94,-580.02 432.48,-575.19 463,-551.56 492,-529.11 502.13,-483.18 505.25,-463.2"/>
<polygon fill="#9a32cd" stroke="#9a32cd" points="355.13,-576.29 345.06,-579.56 354.97,-583.29 355.13,-576.29"/>
<text text-anchor="middle" x="419" y="-581.56" font-family="Helvetica,sans-Serif" font-size="10.00"> m_udpreceiver</text>
</g>
<!-- Node10&#45;&gt;Node1 -->
<g id="edge18" class="edge">
<title>Node10&#45;&gt;Node1</title>
<path fill="none" stroke="#9a32cd" stroke-dasharray="5,2" d="M367.29,-421.52C396.03,-425.25 431.69,-430.84 463,-438.56 469.05,-440.05 475.45,-442.03 481.43,-444.06"/>
<polygon fill="#9a32cd" stroke="#9a32cd" points="367.39,-418.01 357.04,-420.23 366.52,-424.95 367.39,-418.01"/>
<text text-anchor="middle" x="419" y="-441.56" font-family="Helvetica,sans-Serif" font-size="10.00"> m_adaptronicselect</text>
</g>
<!-- Node11&#45;&gt;Node1 -->
<g id="edge21" class="edge">
<title>Node11&#45;&gt;Node1</title>
<path fill="none" stroke="#9a32cd" stroke-dasharray="5,2" d="M342.12,-68.14C376.9,-72.87 433.56,-86.18 463,-123.56 503.58,-175.09 506.4,-394.71 506.51,-443.8"/>
<polygon fill="#9a32cd" stroke="#9a32cd" points="342.43,-64.66 332.08,-66.94 341.59,-71.61 342.43,-64.66"/>
<text text-anchor="middle" x="419" y="-126.56" font-family="Helvetica,sans-Serif" font-size="10.00"> m_apexi</text>
</g>
<!-- Node12&#45;&gt;Node1 -->
<g id="edge25" class="edge">
<title>Node12&#45;&gt;Node1</title>
<path fill="none" stroke="#9a32cd" stroke-dasharray="5,2" d="M348.26,-322.72C381.45,-325.56 430.48,-334.47 463,-361.56 489.34,-383.5 500.74,-425.02 504.72,-443.85"/>
<polygon fill="#9a32cd" stroke="#9a32cd" points="348.31,-319.21 338.09,-321.99 347.81,-326.2 348.31,-319.21"/>
<text text-anchor="middle" x="419" y="-364.56" font-family="Helvetica,sans-Serif" font-size="10.00"> m_sensors</text>
</g>
<!-- Node13&#45;&gt;Node1 -->
<g id="edge28" class="edge">
<title>Node13&#45;&gt;Node1</title>
<path fill="none" stroke="#9a32cd" stroke-dasharray="5,2" d="M353.14,-453.56C391.59,-453.56 448.13,-453.56 480.74,-453.56"/>
<polygon fill="#9a32cd" stroke="#9a32cd" points="352.81,-450.06 342.81,-453.56 352.81,-457.06 352.81,-450.06"/>
<text text-anchor="middle" x="419" y="-456.56" font-family="Helvetica,sans-Serif" font-size="10.00"> m_datalogger</text>
</g>
<!-- Node14&#45;&gt;Node1 -->
<g id="edge31" class="edge">
<title>Node14&#45;&gt;Node1</title>
<path fill="none" stroke="#9a32cd" stroke-dasharray="5,2" d="M355.9,-627.48C389.18,-626.57 434.15,-619.88 463,-593.56 501.92,-558.06 506.34,-488.43 506.61,-463.08"/>
<polygon fill="#9a32cd" stroke="#9a32cd" points="355.5,-623.98 345.54,-627.58 355.58,-630.98 355.5,-623.98"/>
<text text-anchor="middle" x="419" y="-628.56" font-family="Helvetica,sans-Serif" font-size="10.00"> m_calculations</text>
</g>
<!-- Node15&#45;&gt;Node1 -->
<g id="edge34" class="edge">
<title>Node15&#45;&gt;Node1</title>
<path fill="none" stroke="#9a32cd" stroke-dasharray="5,2" d="M346.93,-371.97C378.86,-376.37 426.77,-386.17 463,-407.56 478.71,-416.84 492.34,-433.43 499.98,-443.94"/>
<polygon fill="#9a32cd" stroke="#9a32cd" points="347.11,-368.47 336.75,-370.68 346.23,-375.41 347.11,-368.47"/>
<text text-anchor="middle" x="419" y="-410.56" font-family="Helvetica,sans-Serif" font-size="10.00"> m_arduino</text>
</g>
<!-- Node16&#45;&gt;Node1 -->
<g id="edge38" class="edge">
<title>Node16&#45;&gt;Node1</title>
<path fill="none" stroke="#9a32cd" stroke-dasharray="5,2" d="M355.86,-539.89C387.69,-538.94 430.82,-533.47 463,-513.56 482.69,-501.38 496.2,-476.66 502.48,-463.06"/>
<polygon fill="#9a32cd" stroke="#9a32cd" points="355.47,-536.4 345.52,-540.06 355.58,-543.4 355.47,-536.4"/>
<text text-anchor="middle" x="419" y="-541.56" font-family="Helvetica,sans-Serif" font-size="10.00"> m_wifiscanner</text>
</g>
<!-- Node17&#45;&gt;Node1 -->
<g id="edge41" class="edge">
<title>Node17&#45;&gt;Node1</title>
<path fill="none" stroke="#9a32cd" stroke-dasharray="5,2" d="M348.84,-741.94C383.44,-738.36 434.35,-727.4 463,-694.56 494.02,-659 503.95,-503.88 506.04,-463.3"/>
<polygon fill="#9a32cd" stroke="#9a32cd" points="348.33,-738.47 338.67,-742.83 348.94,-745.45 348.33,-738.47"/>
<text text-anchor="middle" x="419" y="-739.56" font-family="Helvetica,sans-Serif" font-size="10.00"> m_extender</text>
</g>
</g>
</svg>
