<?xml version="1.0" encoding="UTF-8" standalone="no"?>
<!DOCTYPE svg PUBLIC "-//W3C//DTD SVG 1.1//EN"
 "http://www.w3.org/Graphics/SVG/1.1/DTD/svg11.dtd">
<!-- Generated by graphviz version 2.49.3 (20211027.1534)
 -->
<!-- Title: DashBoard::speedChanged Pages: 1 -->
<!--zoomable 467 -->
<svg id="main" version="1.1" xmlns="http://www.w3.org/2000/svg" xmlns:xlink="http://www.w3.org/1999/xlink" xml:space="preserve" onload="init(evt)">
<style type="text/css"><![CDATA[
.edge:hover path { stroke: red; }
.edge:hover polygon { stroke: red; fill: red; }
]]></style>
<script type="text/javascript"><![CDATA[
var edges = document.getElementsByTagName('g');
if (edges && edges.length) {
  for (var i=0;i<edges.length;i++) {
    if (edges[i].id.substr(0,4)=='edge') {
      edges[i].setAttribute('class','edge');
    }
  }
}
]]></script>
        <defs>
                <circle id="rim" cx="0" cy="0" r="7"/>
                <circle id="rim2" cx="0" cy="0" r="3.5"/>
                <g id="zoomPlus">
                        <use xlink:href="#rim" fill="#404040">
                                <set attributeName="fill" to="#808080" begin="zoomplus.mouseover" end="zoomplus.mouseout"/>
                        </use>
                        <path d="M-4,0h8M0,-4v8" fill="none" stroke="white" stroke-width="1.5" pointer-events="none"/>
                </g>
                <g id="zoomMin">
                        <use xlink:href="#rim" fill="#404040">
                                <set attributeName="fill" to="#808080" begin="zoomminus.mouseover" end="zoomminus.mouseout"/>
                        </use>
                        <path d="M-4,0h8" fill="none" stroke="white" stroke-width="1.5" pointer-events="none"/>
                </g>
                <g id="dirArrow">
                        <path fill="none" stroke="white" stroke-width="1.5" d="M0,-3.0v7 M-2.5,-0.5L0,-3.0L2.5,-0.5"/>
                </g>
               <g id="resetDef">
                       <use xlink:href="#rim2" fill="#404040">
                               <set attributeName="fill" to="#808080" begin="reset.mouseover" end="reset.mouseout"/>
                       </use>
               </g>
        </defs>

<script type="text/javascript">
var viewWidth = 2050;
var viewHeight = 467;
var sectionId = 'dynsection-930';
</script>
<script xlink:href="svgpan.js"/>
<svg id="graph" class="graph">
<g id="viewport">
<title>DashBoard::speedChanged</title>
<polygon fill="white" stroke="transparent" points="-4,4 -4,-462.5 2046,-462.5 2046,4 -4,4"/>
<!-- Node1 -->
<g id="node1" class="node">
<title>Node1</title>
<g id="a_node1"><a xlink:title=" ">
<polygon fill="#bfbfbf" stroke="black" points="1908,-161 1908,-180 2042,-180 2042,-161 1908,-161"/>
<text text-anchor="middle" x="1975" y="-168" font-family="Helvetica,sans-Serif" font-size="10.00">DashBoard::speedChanged</text>
</a>
</g>
</g>
<!-- Node2 -->
<g id="node2" class="node">
<title>Node2</title>
<g id="a_node2"><a xlink:href="classDashBoard.html#a16ed8cfba91338bea76b8ab5acd2a1c2" target="_top" xlink:title=" ">
<polygon fill="white" stroke="black" points="1729.5,-256 1729.5,-275 1855.5,-275 1855.5,-256 1729.5,-256"/>
<text text-anchor="middle" x="1792.5" y="-263" font-family="Helvetica,sans-Serif" font-size="10.00">DashBoard::setgpsSpeed</text>
</a>
</g>
</g>
<!-- Node1&#45;&gt;Node2 -->
<g id="edge1" class="edge">
<title>Node1&#45;&gt;Node2</title>
<path fill="none" stroke="midnightblue" d="M1956.57,-187C1937.33,-204.32 1904.74,-231.13 1872,-246.5 1863.88,-250.31 1854.91,-253.41 1846.03,-255.9"/>
<polygon fill="midnightblue" stroke="midnightblue" points="1959.19,-189.35 1964.19,-180 1954.46,-184.19 1959.19,-189.35"/>
</g>
<!-- Node16 -->
<g id="node16" class="node">
<title>Node16</title>
<g id="a_node16"><a xlink:href="classDashBoard.html#a77b4f7cb9851db07fcc88986469df3d8" target="_top" xlink:title=" ">
<polygon fill="white" stroke="black" points="1737.5,-66 1737.5,-85 1847.5,-85 1847.5,-66 1737.5,-66"/>
<text text-anchor="middle" x="1792.5" y="-73" font-family="Helvetica,sans-Serif" font-size="10.00">DashBoard::setSpeed</text>
</a>
</g>
</g>
<!-- Node1&#45;&gt;Node16 -->
<g id="edge25" class="edge">
<title>Node1&#45;&gt;Node16</title>
<path fill="none" stroke="midnightblue" d="M1956.57,-154C1937.33,-136.68 1904.74,-109.87 1872,-94.5 1863.88,-90.69 1854.91,-87.59 1846.03,-85.1"/>
<polygon fill="midnightblue" stroke="midnightblue" points="1954.46,-156.81 1964.19,-161 1959.19,-151.65 1954.46,-156.81"/>
</g>
<!-- Node31 -->
<g id="node31" class="node">
<title>Node31</title>
<g id="a_node31"><a xlink:href="classDashBoard.html#a5e6a954dc86264a3076f1cf15f49ecaa" target="_top" xlink:title=" ">
<polygon fill="white" stroke="black" points="1721,-142 1721,-161 1864,-161 1864,-142 1721,-142"/>
<text text-anchor="middle" x="1792.5" y="-149" font-family="Helvetica,sans-Serif" font-size="10.00">DashBoard::setwheelspdftleft</text>
</a>
</g>
</g>
<!-- Node1&#45;&gt;Node31 -->
<g id="edge46" class="edge">
<title>Node1&#45;&gt;Node31</title>
<path fill="none" stroke="midnightblue" d="M1897.72,-162.47C1886.61,-161.3 1875.22,-160.1 1864.23,-158.95"/>
<polygon fill="midnightblue" stroke="midnightblue" points="1897.5,-165.97 1907.81,-163.53 1898.23,-159.01 1897.5,-165.97"/>
</g>
<!-- Node32 -->
<g id="node32" class="node">
<title>Node32</title>
<g id="a_node32"><a xlink:href="classDashBoard.html#a014fb23a32f74048857d58102ed7e738" target="_top" xlink:title=" ">
<polygon fill="white" stroke="black" points="1718,-104 1718,-123 1867,-123 1867,-104 1718,-104"/>
<text text-anchor="middle" x="1792.5" y="-111" font-family="Helvetica,sans-Serif" font-size="10.00">DashBoard::setwheelspdftright</text>
</a>
</g>
</g>
<!-- Node1&#45;&gt;Node32 -->
<g id="edge48" class="edge">
<title>Node1&#45;&gt;Node32</title>
<path fill="none" stroke="midnightblue" d="M1941.28,-157.18C1921.44,-149.38 1895.5,-139.69 1872,-132.5 1860.74,-129.05 1848.41,-125.82 1836.94,-123.04"/>
<polygon fill="midnightblue" stroke="midnightblue" points="1940.19,-160.51 1950.77,-160.94 1942.77,-154 1940.19,-160.51"/>
</g>
<!-- Node33 -->
<g id="node33" class="node">
<title>Node33</title>
<g id="a_node33"><a xlink:href="classDashBoard.html#a861027ac00896873c62773d503600668" target="_top" xlink:title=" ">
<polygon fill="white" stroke="black" points="1715.5,-218 1715.5,-237 1869.5,-237 1869.5,-218 1715.5,-218"/>
<text text-anchor="middle" x="1792.5" y="-225" font-family="Helvetica,sans-Serif" font-size="10.00">DashBoard::setwheelspdrearleft</text>
</a>
</g>
</g>
<!-- Node1&#45;&gt;Node33 -->
<g id="edge50" class="edge">
<title>Node1&#45;&gt;Node33</title>
<path fill="none" stroke="midnightblue" d="M1941.28,-183.82C1921.44,-191.62 1895.5,-201.31 1872,-208.5 1860.74,-211.95 1848.41,-215.18 1836.94,-217.96"/>
<polygon fill="midnightblue" stroke="midnightblue" points="1942.77,-187 1950.77,-180.06 1940.19,-180.49 1942.77,-187"/>
</g>
<!-- Node34 -->
<g id="node34" class="node">
<title>Node34</title>
<g id="a_node34"><a xlink:href="classDashBoard.html#acbbf7d50ad278dd24597afa50465c864" target="_top" xlink:title=" ">
<polygon fill="white" stroke="black" points="1713,-180 1713,-199 1872,-199 1872,-180 1713,-180"/>
<text text-anchor="middle" x="1792.5" y="-187" font-family="Helvetica,sans-Serif" font-size="10.00">DashBoard::setwheelspdrearright</text>
</a>
</g>
</g>
<!-- Node1&#45;&gt;Node34 -->
<g id="edge52" class="edge">
<title>Node1&#45;&gt;Node34</title>
<path fill="none" stroke="midnightblue" d="M1897.66,-178.54C1889.25,-179.42 1880.67,-180.32 1872.23,-181.21"/>
<polygon fill="midnightblue" stroke="midnightblue" points="1898.23,-181.99 1907.81,-177.47 1897.5,-175.03 1898.23,-181.99"/>
</g>
<!-- Node3 -->
<g id="node3" class="node">
<title>Node3</title>
<g id="a_node3"><a xlink:href="classGPS.html#a9f0cacdc6f30465399f19ccb19edde1a" target="_top" xlink:title=" ">
<polygon fill="white" stroke="black" points="1550,-296 1550,-315 1663,-315 1663,-296 1550,-296"/>
<text text-anchor="middle" x="1606.5" y="-303" font-family="Helvetica,sans-Serif" font-size="10.00">GPS::processGPRMC</text>
</a>
</g>
</g>
<!-- Node2&#45;&gt;Node3 -->
<g id="edge2" class="edge">
<title>Node2&#45;&gt;Node3</title>
<path fill="none" stroke="midnightblue" d="M1737.57,-277.22C1710.09,-283.2 1677.09,-290.37 1651.21,-296"/>
<polygon fill="midnightblue" stroke="midnightblue" points="1738.4,-280.63 1747.43,-275.08 1736.91,-273.79 1738.4,-280.63"/>
</g>
<!-- Node13 -->
<g id="node13" class="node">
<title>Node13</title>
<g id="a_node13"><a xlink:href="classudpreceiver.html#a725cf4f5cf798fd5baed7eee2e6dd5f2" target="_top" xlink:title=" ">
<polygon fill="white" stroke="black" points="1536,-158.5 1536,-188.5 1677,-188.5 1677,-158.5 1536,-158.5"/>
<text text-anchor="start" x="1544" y="-176.5" font-family="Helvetica,sans-Serif" font-size="10.00">udpreceiver::processPending</text>
<text text-anchor="middle" x="1606.5" y="-165.5" font-family="Helvetica,sans-Serif" font-size="10.00">Datagrams</text>
</a>
</g>
</g>
<!-- Node2&#45;&gt;Node13 -->
<g id="edge22" class="edge">
<title>Node2&#45;&gt;Node13</title>
<path fill="none" stroke="midnightblue" d="M1730.03,-252.95C1724.17,-251.07 1718.41,-248.92 1713,-246.5 1679.26,-231.38 1644.92,-205.17 1624.94,-188.62"/>
<polygon fill="midnightblue" stroke="midnightblue" points="1729.34,-256.4 1739.92,-255.89 1731.33,-249.69 1729.34,-256.4"/>
</g>
<!-- Node4 -->
<g id="node4" class="node">
<title>Node4</title>
<g id="a_node4"><a xlink:href="classGPS.html#a217097ae4a846c621f001a5aa1f4fb4f" target="_top" xlink:title=" ">
<polygon fill="white" stroke="black" points="1365,-316 1365,-335 1483,-335 1483,-316 1365,-316"/>
<text text-anchor="middle" x="1424" y="-323" font-family="Helvetica,sans-Serif" font-size="10.00">GPS::ProcessMessage</text>
</a>
</g>
</g>
<!-- Node3&#45;&gt;Node4 -->
<g id="edge3" class="edge">
<title>Node3&#45;&gt;Node4</title>
<path fill="none" stroke="midnightblue" d="M1539.77,-312.78C1521.27,-314.83 1501.29,-317.05 1483.26,-319.04"/>
<polygon fill="midnightblue" stroke="midnightblue" points="1540.32,-316.24 1549.87,-311.66 1539.55,-309.29 1540.32,-316.24"/>
</g>
<!-- Node5 -->
<g id="node5" class="node">
<title>Node5</title>
<g id="a_node5"><a xlink:href="classGPS.html#aa0928d156961a54bf06d9b5210d85561" target="_top" xlink:title=" ">
<polygon fill="white" stroke="black" points="1191.5,-316 1191.5,-335 1290.5,-335 1290.5,-316 1191.5,-316"/>
<text text-anchor="middle" x="1241" y="-323" font-family="Helvetica,sans-Serif" font-size="10.00">GPS::readyToRead</text>
</a>
</g>
</g>
<!-- Node4&#45;&gt;Node5 -->
<g id="edge4" class="edge">
<title>Node4&#45;&gt;Node5</title>
<path fill="none" stroke="midnightblue" d="M1354.48,-325.5C1333.27,-325.5 1310.34,-325.5 1290.76,-325.5"/>
<polygon fill="midnightblue" stroke="midnightblue" points="1354.73,-329 1364.73,-325.5 1354.73,-322 1354.73,-329"/>
</g>
<!-- Node6 -->
<g id="node6" class="node">
<title>Node6</title>
<g id="a_node6"><a xlink:href="classGPS.html#ae4568ef4d5107c96c1af68d1abd33559" target="_top" xlink:title=" ">
<polygon fill="white" stroke="black" points="994.5,-316 994.5,-335 1108.5,-335 1108.5,-316 994.5,-316"/>
<text text-anchor="middle" x="1051.5" y="-323" font-family="Helvetica,sans-Serif" font-size="10.00">GPS::closeConnection</text>
</a>
</g>
</g>
<!-- Node5&#45;&gt;Node6 -->
<g id="edge5" class="edge">
<title>Node5&#45;&gt;Node6</title>
<path fill="none" stroke="midnightblue" d="M1181.19,-325.5C1158.03,-325.5 1131.56,-325.5 1108.66,-325.5"/>
<polygon fill="midnightblue" stroke="midnightblue" points="1181.23,-329 1191.23,-325.5 1181.23,-322 1181.23,-329"/>
</g>
<!-- Node8 -->
<g id="node8" class="node">
<title>Node8</title>
<g id="a_node8"><a xlink:href="classGPS.html#a8775edfa08840ffb2647e0e5ba031fe5" target="_top" xlink:title=" ">
<polygon fill="white" stroke="black" points="298,-368 298,-387 417,-387 417,-368 298,-368"/>
<text text-anchor="middle" x="357.5" y="-375" font-family="Helvetica,sans-Serif" font-size="10.00">GPS::closeConnection1</text>
</a>
</g>
</g>
<!-- Node5&#45;&gt;Node8 -->
<g id="edge20" class="edge">
<title>Node5&#45;&gt;Node8</title>
<path fill="none" stroke="midnightblue" d="M1208.03,-339.09C1143.25,-365.34 991.31,-420.5 858,-420.5 858,-420.5 858,-420.5 679.5,-420.5 579.42,-420.5 463.32,-399.71 401.87,-387.04"/>
<polygon fill="midnightblue" stroke="midnightblue" points="1209.74,-342.17 1217.66,-335.13 1207.08,-335.69 1209.74,-342.17"/>
</g>
<!-- Node11 -->
<g id="node11" class="node">
<title>Node11</title>
<g id="a_node11"><a xlink:href="classGPS.html#ac2a7572afb184df9c14ae913f17306bf" target="_top" xlink:title=" ">
<polygon fill="white" stroke="black" points="631.5,-259 631.5,-278 729.5,-278 729.5,-259 631.5,-259"/>
<text text-anchor="middle" x="680.5" y="-266" font-family="Helvetica,sans-Serif" font-size="10.00">GPS::initSerialPort</text>
</a>
</g>
</g>
<!-- Node5&#45;&gt;Node11 -->
<g id="edge21" class="edge">
<title>Node5&#45;&gt;Node11</title>
<path fill="none" stroke="midnightblue" d="M1182.33,-314.15C1166.7,-311.35 1149.74,-308.57 1134,-306.5 987.25,-287.23 812.36,-275.79 729.55,-271.05"/>
<polygon fill="midnightblue" stroke="midnightblue" points="1181.93,-317.64 1192.39,-315.99 1183.18,-310.75 1181.93,-317.64"/>
</g>
<!-- Node7 -->
<g id="node7" class="node">
<title>Node7</title>
<g id="a_node7"><a xlink:href="classGPS.html#aaf69fb801bbce2ea70041e68fe0ec19a" target="_top" xlink:title=" ">
<polygon fill="white" stroke="black" points="781,-335 781,-354 933,-354 933,-335 781,-335"/>
<text text-anchor="middle" x="857" y="-342" font-family="Helvetica,sans-Serif" font-size="10.00">GPS::handleReconnectTimeout</text>
</a>
</g>
</g>
<!-- Node6&#45;&gt;Node7 -->
<g id="edge6" class="edge">
<title>Node6&#45;&gt;Node7</title>
<path fill="none" stroke="midnightblue" d="M984.3,-325.59C955.5,-327.83 922.71,-331.36 897.76,-334.99"/>
<polygon fill="midnightblue" stroke="midnightblue" points="984.59,-329.07 994.3,-324.85 984.07,-322.09 984.59,-329.07"/>
</g>
<!-- Node12 -->
<g id="node12" class="node">
<title>Node12</title>
<g id="a_node12"><a xlink:href="classGPS.html#a51eaea2422dd980ea0a6d28f12a136de" target="_top" xlink:title=" ">
<polygon fill="white" stroke="black" points="460.5,-326 460.5,-345 572.5,-345 572.5,-326 460.5,-326"/>
<text text-anchor="middle" x="516.5" y="-333" font-family="Helvetica,sans-Serif" font-size="10.00">GPS::openConnection</text>
</a>
</g>
</g>
<!-- Node6&#45;&gt;Node12 -->
<g id="edge19" class="edge">
<title>Node6&#45;&gt;Node12</title>
<path fill="none" stroke="midnightblue" d="M984.26,-324.8C929.7,-324.39 850.33,-324.18 781,-325.5 709.02,-326.87 626.05,-330.33 572.75,-332.79"/>
<polygon fill="midnightblue" stroke="midnightblue" points="984.46,-328.3 994.49,-324.88 984.52,-321.3 984.46,-328.3"/>
</g>
<!-- Node7&#45;&gt;Node6 -->
<g id="edge7" class="edge">
<title>Node7&#45;&gt;Node6</title>
<path fill="none" stroke="midnightblue" d="M943.23,-342.8C966.7,-340.65 991.05,-337.87 1010.61,-335.03"/>
<polygon fill="midnightblue" stroke="midnightblue" points="942.89,-339.31 933.24,-343.68 943.51,-346.29 942.89,-339.31"/>
</g>
<!-- Node7&#45;&gt;Node8 -->
<g id="edge8" class="edge">
<title>Node7&#45;&gt;Node8</title>
<path fill="none" stroke="midnightblue" d="M770.64,-351.58C761.98,-352.25 753.32,-352.9 745,-353.5 628.82,-361.82 492.87,-369.87 417.13,-374.2"/>
<polygon fill="midnightblue" stroke="midnightblue" points="771.09,-355.06 780.78,-350.79 770.54,-348.08 771.09,-355.06"/>
</g>
<!-- Node7&#45;&gt;Node11 -->
<g id="edge18" class="edge">
<title>Node7&#45;&gt;Node11</title>
<path fill="none" stroke="midnightblue" d="M824.62,-330.83C789.65,-315.6 734,-291.37 703.42,-278.05"/>
<polygon fill="midnightblue" stroke="midnightblue" points="823.33,-334.09 833.9,-334.87 826.13,-327.67 823.33,-334.09"/>
</g>
<!-- Node9 -->
<g id="node9" class="node">
<title>Node9</title>
<g id="a_node9"><a xlink:href="classGPS.html#abd750ada6a7b976f72761ce16246ccf6" target="_top" xlink:title=" ">
<polygon fill="white" stroke="black" points="142,-368 142,-387 262,-387 262,-368 142,-368"/>
<text text-anchor="middle" x="202" y="-375" font-family="Helvetica,sans-Serif" font-size="10.00">GPS::setGPSBAUD115</text>
</a>
</g>
</g>
<!-- Node8&#45;&gt;Node9 -->
<g id="edge9" class="edge">
<title>Node8&#45;&gt;Node9</title>
<path fill="none" stroke="midnightblue" d="M287.36,-377.5C278.89,-377.5 270.3,-377.5 262,-377.5"/>
<polygon fill="midnightblue" stroke="midnightblue" points="287.59,-381 297.59,-377.5 287.59,-374 287.59,-381"/>
</g>
<!-- Node9&#45;&gt;Node4 -->
<g id="edge17" class="edge">
<title>Node9&#45;&gt;Node4</title>
<path fill="none" stroke="midnightblue" d="M233.7,-391.02C288.94,-414.06 409.23,-458.5 515.5,-458.5 1052.5,-458.5 1052.5,-458.5 1052.5,-458.5 1198.75,-458.5 1359.39,-365.56 1408.16,-335.07"/>
<polygon fill="midnightblue" stroke="midnightblue" points="235.05,-387.78 224.48,-387.11 232.32,-394.23 235.05,-387.78"/>
</g>
<!-- Node10 -->
<g id="node10" class="node">
<title>Node10</title>
<g id="a_node10"><a xlink:href="classGPS.html#a1b1c89214229f5dc8ff7e2fa9cbcad35" target="_top" xlink:title=" ">
<polygon fill="white" stroke="black" points="0,-306 0,-325 106,-325 106,-306 0,-306"/>
<text text-anchor="middle" x="53" y="-313" font-family="Helvetica,sans-Serif" font-size="10.00">GPS::handleTimeout</text>
</a>
</g>
</g>
<!-- Node9&#45;&gt;Node10 -->
<g id="edge10" class="edge">
<title>Node9&#45;&gt;Node10</title>
<path fill="none" stroke="midnightblue" d="M169.06,-364.03C141.26,-352.31 101.66,-335.6 76.91,-325.16"/>
<polygon fill="midnightblue" stroke="midnightblue" points="167.78,-367.29 178.35,-367.95 170.5,-360.84 167.78,-367.29"/>
</g>
<!-- Node10&#45;&gt;Node6 -->
<g id="edge11" class="edge">
<title>Node10&#45;&gt;Node6</title>
<path fill="none" stroke="midnightblue" d="M82.75,-301.71C135.65,-277.63 252.51,-230.5 356.5,-230.5 517.5,-230.5 517.5,-230.5 517.5,-230.5 618.96,-230.5 644.89,-232.98 745,-249.5 846.65,-266.28 964.24,-299.55 1019.18,-315.93"/>
<polygon fill="midnightblue" stroke="midnightblue" points="81.25,-298.54 73.64,-305.91 84.18,-304.9 81.25,-298.54"/>
</g>
<!-- Node10&#45;&gt;Node8 -->
<g id="edge12" class="edge">
<title>Node10&#45;&gt;Node8</title>
<path fill="none" stroke="midnightblue" d="M110.68,-327.12C168.22,-338.91 256.27,-356.96 309.9,-367.95"/>
<polygon fill="midnightblue" stroke="midnightblue" points="111.15,-323.64 100.66,-325.06 109.75,-330.5 111.15,-323.64"/>
</g>
<!-- Node10&#45;&gt;Node11 -->
<g id="edge13" class="edge">
<title>Node10&#45;&gt;Node11</title>
<path fill="none" stroke="midnightblue" d="M116.3,-310.82C241.12,-301.44 519.46,-280.53 631.46,-272.11"/>
<polygon fill="midnightblue" stroke="midnightblue" points="115.85,-307.34 106.14,-311.58 116.37,-314.32 115.85,-307.34"/>
</g>
<!-- Node11&#45;&gt;Node12 -->
<g id="edge14" class="edge">
<title>Node11&#45;&gt;Node12</title>
<path fill="none" stroke="midnightblue" d="M643.86,-281.61C634.74,-285.06 624.98,-288.85 616,-292.5 589.04,-303.47 558.36,-317.04 538.51,-325.96"/>
<polygon fill="midnightblue" stroke="midnightblue" points="645.3,-284.81 653.43,-278.02 642.84,-278.25 645.3,-284.81"/>
</g>
<!-- Node12&#45;&gt;Node7 -->
<g id="edge16" class="edge">
<title>Node12&#45;&gt;Node7</title>
<path fill="none" stroke="midnightblue" d="M582.96,-337.24C639.62,-338.75 721.56,-340.93 780.88,-342.5"/>
<polygon fill="midnightblue" stroke="midnightblue" points="582.78,-333.73 572.69,-336.97 582.59,-340.73 582.78,-333.73"/>
</g>
<!-- Node12&#45;&gt;Node8 -->
<g id="edge15" class="edge">
<title>Node12&#45;&gt;Node8</title>
<path fill="none" stroke="midnightblue" d="M469.9,-347.7C445.81,-354.14 416.69,-361.93 394.26,-367.93"/>
<polygon fill="midnightblue" stroke="midnightblue" points="471.12,-351 479.87,-345.03 469.31,-344.23 471.12,-351"/>
</g>
<!-- Node14 -->
<g id="node14" class="node">
<title>Node14</title>
<g id="a_node14"><a xlink:href="classudpreceiver.html#a2d7852b9e4be87d9a3ce960d8a7eb9aa" target="_top" xlink:title=" ">
<polygon fill="white" stroke="black" points="1178.5,-164 1178.5,-183 1303.5,-183 1303.5,-164 1178.5,-164"/>
<text text-anchor="middle" x="1241" y="-171" font-family="Helvetica,sans-Serif" font-size="10.00">udpreceiver::startreceiver</text>
</a>
</g>
</g>
<!-- Node13&#45;&gt;Node14 -->
<g id="edge23" class="edge">
<title>Node13&#45;&gt;Node14</title>
<path fill="none" stroke="midnightblue" d="M1525.77,-173.5C1458.89,-173.5 1364.75,-173.5 1303.56,-173.5"/>
<polygon fill="midnightblue" stroke="midnightblue" points="1525.84,-177 1535.84,-173.5 1525.84,-170 1525.84,-177"/>
</g>
<!-- Node15 -->
<g id="node15" class="node">
<title>Node15</title>
<g id="a_node15"><a xlink:href="classConnect.html#a0d674157f4d7442c535837dadd8cf5f1" target="_top" xlink:title=" ">
<polygon fill="white" stroke="black" points="453,-164 453,-183 580,-183 580,-164 453,-164"/>
<text text-anchor="middle" x="516.5" y="-171" font-family="Helvetica,sans-Serif" font-size="10.00">Connect::openConnection</text>
</a>
</g>
</g>
<!-- Node14&#45;&gt;Node15 -->
<g id="edge24" class="edge">
<title>Node14&#45;&gt;Node15</title>
<path fill="none" stroke="midnightblue" d="M1168.1,-173.5C1026.57,-173.5 713.99,-173.5 580.23,-173.5"/>
<polygon fill="midnightblue" stroke="midnightblue" points="1168.4,-177 1178.4,-173.5 1168.4,-170 1168.4,-177"/>
</g>
<!-- Node16&#45;&gt;Node13 -->
<g id="edge45" class="edge">
<title>Node16&#45;&gt;Node13</title>
<path fill="none" stroke="midnightblue" d="M1727.37,-87.69C1722.37,-89.63 1717.51,-91.89 1713,-94.5 1692.87,-106.16 1695.2,-118 1677,-132.5 1664.73,-142.28 1649.89,-151.35 1637.08,-158.46"/>
<polygon fill="midnightblue" stroke="midnightblue" points="1728.82,-90.89 1737.13,-84.32 1726.54,-84.27 1728.82,-90.89"/>
</g>
<!-- Node17 -->
<g id="node17" class="node">
<title>Node17</title>
<g id="a_node17"><a xlink:href="classAdaptronicSelect.html#ae353c5153a25423eb6044be7a2f1bf72" target="_top" xlink:title=" ">
<polygon fill="white" stroke="black" points="1543,-16.5 1543,-46.5 1670,-46.5 1670,-16.5 1543,-16.5"/>
<text text-anchor="start" x="1551" y="-34.5" font-family="Helvetica,sans-Serif" font-size="10.00">AdaptronicSelect::decode</text>
<text text-anchor="middle" x="1606.5" y="-23.5" font-family="Helvetica,sans-Serif" font-size="10.00">Adaptronic</text>
</a>
</g>
</g>
<!-- Node16&#45;&gt;Node17 -->
<g id="edge26" class="edge">
<title>Node16&#45;&gt;Node17</title>
<path fill="none" stroke="midnightblue" d="M1741.76,-63.61C1719.7,-58.33 1693.51,-52.07 1670.14,-46.48"/>
<polygon fill="midnightblue" stroke="midnightblue" points="1741.03,-67.03 1751.57,-65.95 1742.66,-60.22 1741.03,-67.03"/>
</g>
<!-- Node21 -->
<g id="node21" class="node">
<title>Node21</title>
<g id="a_node21"><a xlink:href="classApexi.html#a3ecd8445700ab9532fc051325f66d03d" target="_top" xlink:title=" ">
<polygon fill="white" stroke="black" points="1559.5,-104 1559.5,-123 1653.5,-123 1653.5,-104 1559.5,-104"/>
<text text-anchor="middle" x="1606.5" y="-111" font-family="Helvetica,sans-Serif" font-size="10.00">Apexi::decodeAdv</text>
</a>
</g>
</g>
<!-- Node16&#45;&gt;Node21 -->
<g id="edge30" class="edge">
<title>Node16&#45;&gt;Node21</title>
<path fill="none" stroke="midnightblue" d="M1734.94,-87.18C1708.85,-92.57 1678.26,-98.89 1653.6,-103.98"/>
<polygon fill="midnightblue" stroke="midnightblue" points="1735.98,-90.54 1745.07,-85.09 1734.57,-83.68 1735.98,-90.54"/>
</g>
<!-- Node30 -->
<g id="node30" class="node">
<title>Node30</title>
<g id="a_node30"><a xlink:href="classApexi.html#af3dad564d7c3cca0e98f5944e5e27cdf" target="_top" xlink:title=" ">
<polygon fill="white" stroke="black" points="1556,-66 1556,-85 1657,-85 1657,-66 1556,-66"/>
<text text-anchor="middle" x="1606.5" y="-73" font-family="Helvetica,sans-Serif" font-size="10.00">Apexi::decodeBasic</text>
</a>
</g>
</g>
<!-- Node16&#45;&gt;Node30 -->
<g id="edge43" class="edge">
<title>Node16&#45;&gt;Node30</title>
<path fill="none" stroke="midnightblue" d="M1727.28,-75.5C1704.32,-75.5 1678.8,-75.5 1657.24,-75.5"/>
<polygon fill="midnightblue" stroke="midnightblue" points="1727.29,-79 1737.29,-75.5 1727.29,-72 1727.29,-79"/>
</g>
<!-- Node18 -->
<g id="node18" class="node">
<title>Node18</title>
<g id="a_node18"><a xlink:href="classAdaptronicSelect.html#af5ee85733260355dd5236c796c6a3fc5" target="_top" xlink:title=" ">
<polygon fill="white" stroke="black" points="1348,-22 1348,-41 1500,-41 1500,-22 1348,-22"/>
<text text-anchor="middle" x="1424" y="-29" font-family="Helvetica,sans-Serif" font-size="10.00">AdaptronicSelect::readyToRead</text>
</a>
</g>
</g>
<!-- Node17&#45;&gt;Node18 -->
<g id="edge27" class="edge">
<title>Node17&#45;&gt;Node18</title>
<path fill="none" stroke="midnightblue" d="M1532.74,-31.5C1522.04,-31.5 1511,-31.5 1500.25,-31.5"/>
<polygon fill="midnightblue" stroke="midnightblue" points="1532.88,-35 1542.88,-31.5 1532.88,-28 1532.88,-35"/>
</g>
<!-- Node19 -->
<g id="node19" class="node">
<title>Node19</title>
<g id="a_node19"><a xlink:href="classAdaptronicSelect.html#a79148c38700405eb6a3fc1338be170ab" target="_top" xlink:title=" ">
<polygon fill="white" stroke="black" points="1170,-0.5 1170,-30.5 1312,-30.5 1312,-0.5 1170,-0.5"/>
<text text-anchor="start" x="1178" y="-18.5" font-family="Helvetica,sans-Serif" font-size="10.00">AdaptronicSelect::Adaptronic</text>
<text text-anchor="middle" x="1241" y="-7.5" font-family="Helvetica,sans-Serif" font-size="10.00">StartStream</text>
</a>
</g>
</g>
<!-- Node18&#45;&gt;Node19 -->
<g id="edge28" class="edge">
<title>Node18&#45;&gt;Node19</title>
<path fill="none" stroke="midnightblue" d="M1337.75,-23.96C1329.13,-23.2 1320.45,-22.44 1312.03,-21.69"/>
<polygon fill="midnightblue" stroke="midnightblue" points="1337.54,-27.46 1347.81,-24.85 1338.16,-20.49 1337.54,-27.46"/>
</g>
<!-- Node20 -->
<g id="node20" class="node">
<title>Node20</title>
<g id="a_node20"><a xlink:href="classAdaptronicSelect.html#a16932b235281a8071bdf5404df8160ac" target="_top" xlink:title=" ">
<polygon fill="white" stroke="black" points="969,-6 969,-25 1134,-25 1134,-6 969,-6"/>
<text text-anchor="middle" x="1051.5" y="-13" font-family="Helvetica,sans-Serif" font-size="10.00">AdaptronicSelect::openConnection</text>
</a>
</g>
</g>
<!-- Node19&#45;&gt;Node20 -->
<g id="edge29" class="edge">
<title>Node19&#45;&gt;Node20</title>
<path fill="none" stroke="midnightblue" d="M1159.7,-15.5C1151.25,-15.5 1142.65,-15.5 1134.19,-15.5"/>
<polygon fill="midnightblue" stroke="midnightblue" points="1159.92,-19 1169.92,-15.5 1159.92,-12 1159.92,-19"/>
</g>
<!-- Node22 -->
<g id="node22" class="node">
<title>Node22</title>
<g id="a_node22"><a xlink:href="classApexi.html#a4e7b389e8d3e283a12733ab4f8492be3" target="_top" xlink:title=" ">
<polygon fill="white" stroke="black" points="1382,-88 1382,-107 1466,-107 1466,-88 1382,-88"/>
<text text-anchor="middle" x="1424" y="-95" font-family="Helvetica,sans-Serif" font-size="10.00">Apexi::readData</text>
</a>
</g>
</g>
<!-- Node21&#45;&gt;Node22 -->
<g id="edge31" class="edge">
<title>Node21&#45;&gt;Node22</title>
<path fill="none" stroke="midnightblue" d="M1549.4,-108.53C1522.43,-106.14 1490.68,-103.32 1466,-101.13"/>
<polygon fill="midnightblue" stroke="midnightblue" points="1549.22,-112.02 1559.49,-109.42 1549.83,-105.05 1549.22,-112.02"/>
</g>
<!-- Node23 -->
<g id="node23" class="node">
<title>Node23</title>
<g id="a_node23"><a xlink:href="classApexi.html#a4cb1314ab5ca5175aa227ed178148f40" target="_top" xlink:title=" ">
<polygon fill="white" stroke="black" points="1197,-126 1197,-145 1285,-145 1285,-126 1197,-126"/>
<text text-anchor="middle" x="1241" y="-133" font-family="Helvetica,sans-Serif" font-size="10.00">Apexi::apexiECU</text>
</a>
</g>
</g>
<!-- Node22&#45;&gt;Node23 -->
<g id="edge32" class="edge">
<title>Node22&#45;&gt;Node23</title>
<path fill="none" stroke="midnightblue" d="M1372.13,-108.18C1344.71,-113.94 1311.24,-120.96 1285.12,-126.45"/>
<polygon fill="midnightblue" stroke="midnightblue" points="1372.86,-111.6 1381.93,-106.12 1371.42,-104.75 1372.86,-111.6"/>
</g>
<!-- Node24 -->
<g id="node24" class="node">
<title>Node24</title>
<g id="a_node24"><a xlink:href="classApexi.html#abe3bf6800fce8a4c713a08c14474d625" target="_top" xlink:title=" ">
<polygon fill="white" stroke="black" points="1000.5,-126 1000.5,-145 1102.5,-145 1102.5,-126 1000.5,-126"/>
<text text-anchor="middle" x="1051.5" y="-133" font-family="Helvetica,sans-Serif" font-size="10.00">Apexi::readyToRead</text>
</a>
</g>
</g>
<!-- Node23&#45;&gt;Node24 -->
<g id="edge33" class="edge">
<title>Node23&#45;&gt;Node24</title>
<path fill="none" stroke="midnightblue" d="M1186.77,-135.5C1160.34,-135.5 1128.6,-135.5 1102.62,-135.5"/>
<polygon fill="midnightblue" stroke="midnightblue" points="1186.98,-139 1196.98,-135.5 1186.98,-132 1186.98,-139"/>
</g>
<!-- Node25 -->
<g id="node25" class="node">
<title>Node25</title>
<g id="a_node25"><a xlink:href="classApexi.html#a669124cabae4ada616e650e582c068da" target="_top" xlink:title=" ">
<polygon fill="white" stroke="black" points="798.5,-88 798.5,-107 915.5,-107 915.5,-88 798.5,-88"/>
<text text-anchor="middle" x="857" y="-95" font-family="Helvetica,sans-Serif" font-size="10.00">Apexi::closeConnection</text>
</a>
</g>
</g>
<!-- Node24&#45;&gt;Node25 -->
<g id="edge34" class="edge">
<title>Node24&#45;&gt;Node25</title>
<path fill="none" stroke="midnightblue" d="M992.05,-123.96C964.59,-118.54 932.26,-112.16 906.23,-107.02"/>
<polygon fill="midnightblue" stroke="midnightblue" points="991.44,-127.41 1001.92,-125.91 992.79,-120.54 991.44,-127.41"/>
</g>
<!-- Node29 -->
<g id="node29" class="node">
<title>Node29</title>
<g id="a_node29"><a xlink:href="classApexi.html#a169d6e9466a6c04e6533c8e84fdcaadb" target="_top" xlink:title=" ">
<polygon fill="white" stroke="black" points="806.5,-126 806.5,-145 907.5,-145 907.5,-126 806.5,-126"/>
<text text-anchor="middle" x="857" y="-133" font-family="Helvetica,sans-Serif" font-size="10.00">Apexi::initSerialPort</text>
</a>
</g>
</g>
<!-- Node24&#45;&gt;Node29 -->
<g id="edge41" class="edge">
<title>Node24&#45;&gt;Node29</title>
<path fill="none" stroke="midnightblue" d="M990.13,-135.5C963.66,-135.5 932.96,-135.5 907.82,-135.5"/>
<polygon fill="midnightblue" stroke="midnightblue" points="990.43,-139 1000.43,-135.5 990.43,-132 990.43,-139"/>
</g>
<!-- Node25&#45;&gt;Node22 -->
<g id="edge40" class="edge">
<title>Node25&#45;&gt;Node22</title>
<path fill="none" stroke="midnightblue" d="M925.79,-97.5C1044.27,-97.5 1285.56,-97.5 1381.91,-97.5"/>
<polygon fill="midnightblue" stroke="midnightblue" points="925.75,-94 915.75,-97.5 925.75,-101 925.75,-94"/>
</g>
<!-- Node26 -->
<g id="node26" class="node">
<title>Node26</title>
<g id="a_node26"><a xlink:href="classConnect.html#abb89a14af2e2b3f6d466c5abfc95cff0" target="_top" xlink:title=" ">
<polygon fill="white" stroke="black" points="616,-88 616,-107 745,-107 745,-88 616,-88"/>
<text text-anchor="middle" x="680.5" y="-95" font-family="Helvetica,sans-Serif" font-size="10.00">Connect::closeConnection</text>
</a>
</g>
</g>
<!-- Node25&#45;&gt;Node26 -->
<g id="edge35" class="edge">
<title>Node25&#45;&gt;Node26</title>
<path fill="none" stroke="midnightblue" d="M788.2,-97.5C774.01,-97.5 759.11,-97.5 745.08,-97.5"/>
<polygon fill="midnightblue" stroke="midnightblue" points="788.38,-101 798.38,-97.5 788.38,-94 788.38,-101"/>
</g>
<!-- Node27 -->
<g id="node27" class="node">
<title>Node27</title>
<g id="a_node27"><a xlink:href="classApexi.html#a84e5eadc545afab5fbb0aea8b27e17c3" target="_top" xlink:title=" ">
<polygon fill="white" stroke="black" points="623,-126 623,-145 738,-145 738,-126 623,-126"/>
<text text-anchor="middle" x="680.5" y="-133" font-family="Helvetica,sans-Serif" font-size="10.00">Apexi::openConnection</text>
</a>
</g>
</g>
<!-- Node25&#45;&gt;Node27 -->
<g id="edge36" class="edge">
<title>Node25&#45;&gt;Node27</title>
<path fill="none" stroke="midnightblue" d="M802.03,-109.25C777.36,-114.63 748.51,-120.91 725.22,-125.98"/>
<polygon fill="midnightblue" stroke="midnightblue" points="802.94,-112.64 811.97,-107.09 801.45,-105.8 802.94,-112.64"/>
</g>
<!-- Node27&#45;&gt;Node15 -->
<g id="edge37" class="edge">
<title>Node27&#45;&gt;Node15</title>
<path fill="none" stroke="midnightblue" d="M628.79,-147.4C606.01,-152.74 579.51,-158.95 558.09,-163.98"/>
<polygon fill="midnightblue" stroke="midnightblue" points="629.68,-150.78 638.62,-145.09 628.09,-143.97 629.68,-150.78"/>
</g>
<!-- Node28 -->
<g id="node28" class="node">
<title>Node28</title>
<g id="a_node28"><a xlink:href="classApexi.html#af3673b74b8aebe06a2b2f9ed81c23ee4" target="_top" xlink:title=" ">
<polygon fill="white" stroke="black" points="467.5,-88 467.5,-107 565.5,-107 565.5,-88 467.5,-88"/>
<text text-anchor="middle" x="516.5" y="-95" font-family="Helvetica,sans-Serif" font-size="10.00">Apexi::retryconnect</text>
</a>
</g>
</g>
<!-- Node27&#45;&gt;Node28 -->
<g id="edge38" class="edge">
<title>Node27&#45;&gt;Node28</title>
<path fill="none" stroke="midnightblue" d="M628.79,-123.6C606.01,-118.26 579.51,-112.05 558.09,-107.02"/>
<polygon fill="midnightblue" stroke="midnightblue" points="628.09,-127.03 638.62,-125.91 629.68,-120.22 628.09,-127.03"/>
</g>
<!-- Node28&#45;&gt;Node22 -->
<g id="edge39" class="edge">
<title>Node28&#45;&gt;Node22</title>
<path fill="none" stroke="midnightblue" d="M571.67,-85.93C586.03,-83.17 601.56,-80.46 616,-78.5 722.03,-64.12 749,-59.5 856,-59.5 1052.5,-59.5 1052.5,-59.5 1052.5,-59.5 1172.61,-59.5 1313.48,-79.51 1381.75,-90.49"/>
<polygon fill="midnightblue" stroke="midnightblue" points="570.59,-82.57 561.46,-87.93 571.94,-89.44 570.59,-82.57"/>
</g>
<!-- Node29&#45;&gt;Node27 -->
<g id="edge42" class="edge">
<title>Node29&#45;&gt;Node27</title>
<path fill="none" stroke="midnightblue" d="M796.25,-135.5C777.47,-135.5 756.8,-135.5 738.24,-135.5"/>
<polygon fill="midnightblue" stroke="midnightblue" points="796.46,-139 806.46,-135.5 796.46,-132 796.46,-139"/>
</g>
<!-- Node30&#45;&gt;Node22 -->
<g id="edge44" class="edge">
<title>Node30&#45;&gt;Node22</title>
<path fill="none" stroke="midnightblue" d="M1545.55,-82.81C1519.48,-85.98 1489.6,-89.63 1466.11,-92.49"/>
<polygon fill="midnightblue" stroke="midnightblue" points="1546.2,-86.25 1555.7,-81.57 1545.35,-79.31 1546.2,-86.25"/>
</g>
<!-- Node31&#45;&gt;Node13 -->
<g id="edge47" class="edge">
<title>Node31&#45;&gt;Node13</title>
<path fill="none" stroke="midnightblue" d="M1710.67,-161.16C1699.45,-162.51 1688,-163.87 1677.01,-165.19"/>
<polygon fill="midnightblue" stroke="midnightblue" points="1711.37,-164.61 1720.89,-159.94 1710.54,-157.65 1711.37,-164.61"/>
</g>
<!-- Node32&#45;&gt;Node13 -->
<g id="edge49" class="edge">
<title>Node32&#45;&gt;Node13</title>
<path fill="none" stroke="midnightblue" d="M1737.89,-125.47C1729.51,-127.63 1720.98,-130 1713,-132.5 1689.19,-139.97 1663.04,-150.12 1642.73,-158.45"/>
<polygon fill="midnightblue" stroke="midnightblue" points="1738.77,-128.85 1747.62,-123.03 1737.07,-122.06 1738.77,-128.85"/>
</g>
<!-- Node33&#45;&gt;Node13 -->
<g id="edge51" class="edge">
<title>Node33&#45;&gt;Node13</title>
<path fill="none" stroke="midnightblue" d="M1739.49,-215.55C1730.62,-213.33 1721.52,-210.94 1713,-208.5 1692.13,-202.52 1669.23,-195.04 1650.11,-188.53"/>
<polygon fill="midnightblue" stroke="midnightblue" points="1738.82,-218.99 1749.37,-217.98 1740.49,-212.2 1738.82,-218.99"/>
</g>
<!-- Node34&#45;&gt;Node13 -->
<g id="edge53" class="edge">
<title>Node34&#45;&gt;Node13</title>
<path fill="none" stroke="midnightblue" d="M1702.82,-181.79C1694.18,-181.04 1685.5,-180.28 1677.09,-179.55"/>
<polygon fill="midnightblue" stroke="midnightblue" points="1702.67,-185.29 1712.93,-182.67 1703.27,-178.31 1702.67,-185.29"/>
</g>
</g>
</svg>
        <g id="navigator" transform="translate(0 0)" fill="#404254">
                <rect fill="#f2f5e9" fill-opacity="0.5" stroke="#606060" stroke-width=".5" x="0" y="0" width="60" height="60"/>
                <use id="zoomplus" xlink:href="#zoomPlus" x="17" y="9" onmousedown="handleZoom(evt,'in')"/>
                <use id="zoomminus" xlink:href="#zoomMin" x="42" y="9" onmousedown="handleZoom(evt,'out')"/>
                <use id="reset" xlink:href="#resetDef" x="30" y="36" onmousedown="handleReset()"/>
                <g id="arrowUp" xlink:href="#dirArrow" transform="translate(30 24)" onmousedown="handlePan(0,-1)">
                  <use xlink:href="#rim" fill="#404040">
                        <set attributeName="fill" to="#808080" begin="arrowUp.mouseover" end="arrowUp.mouseout"/>
                  </use>
                  <path fill="none" stroke="white" stroke-width="1.5" d="M0,-3.0v7 M-2.5,-0.5L0,-3.0L2.5,-0.5"/>
                </g>
                <g id="arrowRight" xlink:href="#dirArrow" transform="rotate(90) translate(36 -43)" onmousedown="handlePan(1,0)">
                  <use xlink:href="#rim" fill="#404040">
                        <set attributeName="fill" to="#808080" begin="arrowRight.mouseover" end="arrowRight.mouseout"/>
                  </use>
                  <path fill="none" stroke="white" stroke-width="1.5" d="M0,-3.0v7 M-2.5,-0.5L0,-3.0L2.5,-0.5"/>
                </g>
                <g id="arrowDown" xlink:href="#dirArrow" transform="rotate(180) translate(-30 -48)" onmousedown="handlePan(0,1)">
                  <use xlink:href="#rim" fill="#404040">
                        <set attributeName="fill" to="#808080" begin="arrowDown.mouseover" end="arrowDown.mouseout"/>
                  </use>
                  <path fill="none" stroke="white" stroke-width="1.5" d="M0,-3.0v7 M-2.5,-0.5L0,-3.0L2.5,-0.5"/>
                </g>
                <g id="arrowLeft" xlink:href="#dirArrow" transform="rotate(270) translate(-36 17)" onmousedown="handlePan(-1,0)">
                  <use xlink:href="#rim" fill="#404040">
                        <set attributeName="fill" to="#808080" begin="arrowLeft.mouseover" end="arrowLeft.mouseout"/>
                  </use>
                  <path fill="none" stroke="white" stroke-width="1.5" d="M0,-3.0v7 M-2.5,-0.5L0,-3.0L2.5,-0.5"/>
                </g>
        </g>
        <svg viewBox="0 0 15 15" width="100%" height="30px" preserveAspectRatio="xMaxYMin meet">
         <g id="arrow_out" transform="scale(0.3 0.3)">
          <a xlink:href="classDashBoard_a4f3d8eb75a50985c4cd96526a0e8b3a3_icgraph_org.svg" target="_base">
           <rect id="button" ry="5" rx="5" y="6" x="6" height="38" width="38"
                fill="#f2f5e9" fill-opacity="0.5" stroke="#606060" stroke-width="1.0"/>
           <path id="arrow"
             d="M 11.500037,31.436501 C 11.940474,20.09759 22.043105,11.32322 32.158766,21.979434 L 37.068811,17.246167 C 37.068811,17.246167 37.088388,32 37.088388,32 L 22.160133,31.978069 C 22.160133,31.978069 26.997745,27.140456 26.997745,27.140456 C 18.528582,18.264221 13.291696,25.230495 11.500037,31.436501 z"
             style="fill:#404040;"/>
          </a>
         </g>
        </svg>
</svg>
