<?xml version="1.0" encoding="UTF-8" standalone="no"?>
<!DOCTYPE svg PUBLIC "-//W3C//DTD SVG 1.1//EN"
 "http://www.w3.org/Graphics/SVG/1.1/DTD/svg11.dtd">
<!-- Generated by graphviz version 2.49.3 (20211027.1534)
 -->
<!-- Title: Apexi::closeConnection Pages: 1 -->
<svg width="972pt" height="166pt"
 viewBox="0.00 0.00 972.00 165.55" xmlns="http://www.w3.org/2000/svg" xmlns:xlink="http://www.w3.org/1999/xlink">
<g id="graph0" class="graph" transform="scale(1 1) rotate(0) translate(4 161.55)">
<title>Apexi::closeConnection</title>
<polygon fill="white" stroke="transparent" points="-4,4 -4,-161.55 968,-161.55 968,4 -4,4"/>
<!-- Node1 -->
<g id="node1" class="node">
<title>Node1</title>
<g id="a_node1"><a xlink:title=" ">
<polygon fill="#bfbfbf" stroke="black" points="847,-47.5 847,-66.5 964,-66.5 964,-47.5 847,-47.5"/>
<text text-anchor="middle" x="905.5" y="-54.5" font-family="Helvetica,sans-Serif" font-size="10.00">Apexi::closeConnection</text>
</a>
</g>
</g>
<!-- Node2 -->
<g id="node2" class="node">
<title>Node2</title>
<g id="a_node2"><a xlink:href="classConnect.html#abb89a14af2e2b3f6d466c5abfc95cff0" target="_top" xlink:title=" ">
<polygon fill="white" stroke="black" points="682,-104.5 682,-123.5 811,-123.5 811,-104.5 682,-104.5"/>
<text text-anchor="middle" x="746.5" y="-111.5" font-family="Helvetica,sans-Serif" font-size="10.00">Connect::closeConnection</text>
</a>
</g>
</g>
<!-- Node1&#45;&gt;Node2 -->
<g id="edge1" class="edge">
<title>Node1&#45;&gt;Node2</title>
<path fill="none" stroke="midnightblue" d="M873.37,-70.52C855.31,-78.14 832.06,-87.59 811,-95 801.56,-98.32 791.2,-101.58 781.64,-104.44"/>
<polygon fill="midnightblue" stroke="midnightblue" points="874.98,-73.64 882.81,-66.5 872.24,-67.2 874.98,-73.64"/>
</g>
<!-- Node3 -->
<g id="node3" class="node">
<title>Node3</title>
<g id="a_node3"><a xlink:href="classApexi.html#a84e5eadc545afab5fbb0aea8b27e17c3" target="_top" xlink:title=" ">
<polygon fill="white" stroke="black" points="689,-66.5 689,-85.5 804,-85.5 804,-66.5 689,-66.5"/>
<text text-anchor="middle" x="746.5" y="-73.5" font-family="Helvetica,sans-Serif" font-size="10.00">Apexi::openConnection</text>
</a>
</g>
</g>
<!-- Node1&#45;&gt;Node3 -->
<g id="edge2" class="edge">
<title>Node1&#45;&gt;Node3</title>
<path fill="none" stroke="midnightblue" d="M836.95,-65.17C825.97,-66.5 814.7,-67.87 804.01,-69.16"/>
<polygon fill="midnightblue" stroke="midnightblue" points="837.42,-68.64 846.93,-63.97 836.58,-61.69 837.42,-68.64"/>
</g>
<!-- Node6 -->
<g id="node6" class="node">
<title>Node6</title>
<g id="a_node6"><a xlink:href="classApexi.html#a4e7b389e8d3e283a12733ab4f8492be3" target="_top" xlink:title=" ">
<polygon fill="white" stroke="black" points="399,-56.5 399,-75.5 483,-75.5 483,-56.5 399,-56.5"/>
<text text-anchor="middle" x="441" y="-63.5" font-family="Helvetica,sans-Serif" font-size="10.00">Apexi::readData</text>
</a>
</g>
</g>
<!-- Node1&#45;&gt;Node6 -->
<g id="edge11" class="edge">
<title>Node1&#45;&gt;Node6</title>
<path fill="none" stroke="midnightblue" d="M836.91,-54.63C759.89,-52.47 630.26,-50.52 519,-57 507.31,-57.68 494.67,-58.94 483.08,-60.3"/>
<polygon fill="midnightblue" stroke="midnightblue" points="836.87,-58.13 846.96,-54.92 837.07,-51.13 836.87,-58.13"/>
</g>
<!-- Node4 -->
<g id="node4" class="node">
<title>Node4</title>
<g id="a_node4"><a xlink:href="classConnect.html#a0d674157f4d7442c535837dadd8cf5f1" target="_top" xlink:title=" ">
<polygon fill="white" stroke="black" points="519,-66.5 519,-85.5 646,-85.5 646,-66.5 519,-66.5"/>
<text text-anchor="middle" x="582.5" y="-73.5" font-family="Helvetica,sans-Serif" font-size="10.00">Connect::openConnection</text>
</a>
</g>
</g>
<!-- Node3&#45;&gt;Node4 -->
<g id="edge3" class="edge">
<title>Node3&#45;&gt;Node4</title>
<path fill="none" stroke="midnightblue" d="M678.67,-76C667.93,-76 656.85,-76 646.21,-76"/>
<polygon fill="midnightblue" stroke="midnightblue" points="678.84,-79.5 688.84,-76 678.84,-72.5 678.84,-79.5"/>
</g>
<!-- Node5 -->
<g id="node5" class="node">
<title>Node5</title>
<g id="a_node5"><a xlink:href="classApexi.html#af3673b74b8aebe06a2b2f9ed81c23ee4" target="_top" xlink:title=" ">
<polygon fill="white" stroke="black" points="533.5,-104.5 533.5,-123.5 631.5,-123.5 631.5,-104.5 533.5,-104.5"/>
<text text-anchor="middle" x="582.5" y="-111.5" font-family="Helvetica,sans-Serif" font-size="10.00">Apexi::retryconnect</text>
</a>
</g>
</g>
<!-- Node3&#45;&gt;Node5 -->
<g id="edge4" class="edge">
<title>Node3&#45;&gt;Node5</title>
<path fill="none" stroke="midnightblue" d="M694.79,-87.9C672.01,-93.24 645.51,-99.45 624.09,-104.48"/>
<polygon fill="midnightblue" stroke="midnightblue" points="695.68,-91.28 704.62,-85.59 694.09,-84.47 695.68,-91.28"/>
</g>
<!-- Node5&#45;&gt;Node6 -->
<g id="edge5" class="edge">
<title>Node5&#45;&gt;Node6</title>
<path fill="none" stroke="midnightblue" d="M538.95,-101.47C532.25,-99.38 525.42,-97.18 519,-95 501.15,-88.93 481.23,-81.41 466.13,-75.55"/>
<polygon fill="midnightblue" stroke="midnightblue" points="538.02,-104.85 548.61,-104.44 540.08,-98.16 538.02,-104.85"/>
</g>
<!-- Node7 -->
<g id="node7" class="node">
<title>Node7</title>
<g id="a_node7"><a xlink:href="classApexi.html#a4cb1314ab5ca5175aa227ed178148f40" target="_top" xlink:title=" ">
<polygon fill="white" stroke="black" points="275,-56.5 275,-75.5 363,-75.5 363,-56.5 275,-56.5"/>
<text text-anchor="middle" x="319" y="-63.5" font-family="Helvetica,sans-Serif" font-size="10.00">Apexi::apexiECU</text>
</a>
</g>
</g>
<!-- Node6&#45;&gt;Node7 -->
<g id="edge6" class="edge">
<title>Node6&#45;&gt;Node7</title>
<path fill="none" stroke="midnightblue" d="M388.5,-66C380,-66 371.27,-66 363.01,-66"/>
<polygon fill="midnightblue" stroke="midnightblue" points="388.7,-69.5 398.7,-66 388.7,-62.5 388.7,-69.5"/>
</g>
<!-- Node8 -->
<g id="node8" class="node">
<title>Node8</title>
<g id="a_node8"><a xlink:href="classApexi.html#abe3bf6800fce8a4c713a08c14474d625" target="_top" xlink:title=" ">
<polygon fill="white" stroke="black" points="137,-56.5 137,-75.5 239,-75.5 239,-56.5 137,-56.5"/>
<text text-anchor="middle" x="188" y="-63.5" font-family="Helvetica,sans-Serif" font-size="10.00">Apexi::readyToRead</text>
</a>
</g>
</g>
<!-- Node7&#45;&gt;Node8 -->
<g id="edge7" class="edge">
<title>Node7&#45;&gt;Node8</title>
<path fill="none" stroke="midnightblue" d="M264.57,-66C256.15,-66 247.46,-66 239.11,-66"/>
<polygon fill="midnightblue" stroke="midnightblue" points="264.69,-69.5 274.69,-66 264.69,-62.5 264.69,-69.5"/>
</g>
<!-- Node8&#45;&gt;Node1 -->
<g id="edge8" class="edge">
<title>Node8&#45;&gt;Node1</title>
<path fill="none" stroke="midnightblue" d="M219.56,-52.51C266.15,-33.21 358.18,0 440,0 583.5,0 583.5,0 583.5,0 690.76,0 815.12,-31.23 872.48,-47.46"/>
<polygon fill="midnightblue" stroke="midnightblue" points="218.18,-49.29 210.32,-56.4 220.9,-55.74 218.18,-49.29"/>
</g>
<!-- Node9 -->
<g id="node9" class="node">
<title>Node9</title>
<g id="a_node9"><a xlink:href="classApexi.html#a169d6e9466a6c04e6533c8e84fdcaadb" target="_top" xlink:title=" ">
<polygon fill="white" stroke="black" points="0,-113.5 0,-132.5 101,-132.5 101,-113.5 0,-113.5"/>
<text text-anchor="middle" x="50.5" y="-120.5" font-family="Helvetica,sans-Serif" font-size="10.00">Apexi::initSerialPort</text>
</a>
</g>
</g>
<!-- Node8&#45;&gt;Node9 -->
<g id="edge9" class="edge">
<title>Node8&#45;&gt;Node9</title>
<path fill="none" stroke="midnightblue" d="M154.96,-79.48C130.14,-89.92 96.36,-104.13 74.25,-113.43"/>
<polygon fill="midnightblue" stroke="midnightblue" points="156.46,-82.64 164.32,-75.54 153.75,-76.19 156.46,-82.64"/>
</g>
<!-- Node9&#45;&gt;Node3 -->
<g id="edge10" class="edge">
<title>Node9&#45;&gt;Node3</title>
<path fill="none" stroke="midnightblue" d="M111.49,-133.28C165.37,-141.62 246.73,-152 318,-152 442,-152 442,-152 442,-152 533.06,-152 564.11,-172.82 646,-133 666.92,-122.83 662.19,-107.19 682,-95 688.27,-91.14 695.38,-88.02 702.51,-85.52"/>
<polygon fill="midnightblue" stroke="midnightblue" points="111.85,-129.8 101.42,-131.7 110.76,-136.71 111.85,-129.8"/>
</g>
</g>
</svg>
