<?xml version="1.0" encoding="UTF-8" standalone="no"?>
<!DOCTYPE svg PUBLIC "-//W3C//DTD SVG 1.1//EN"
 "http://www.w3.org/Graphics/SVG/1.1/DTD/svg11.dtd">
<!-- Generated by graphviz version 2.49.3 (20211027.1534)
 -->
<!-- Title: DashBoard::setEXAnalogVal Pages: 1 -->
<svg width="447pt" height="88pt"
 viewBox="0.00 0.00 447.00 88.00" xmlns="http://www.w3.org/2000/svg" xmlns:xlink="http://www.w3.org/1999/xlink">
<g id="graph0" class="graph" transform="scale(1 1) rotate(0) translate(4 84)">
<title>DashBoard::setEXAnalogVal</title>
<polygon fill="white" stroke="transparent" points="-4,4 -4,-84 443,-84 443,4 -4,4"/>
<!-- Node1 -->
<g id="node1" class="node">
<title>Node1</title>
<g id="a_node1"><a xlink:title=" ">
<polygon fill="#bfbfbf" stroke="black" points="299,-30 299,-49 439,-49 439,-30 299,-30"/>
<text text-anchor="middle" x="369" y="-37" font-family="Helvetica,sans-Serif" font-size="10.00">DashBoard::setEXAnalogVal</text>
</a>
</g>
</g>
<!-- Node2 -->
<g id="node2" class="node">
<title>Node2</title>
<g id="a_node2"><a xlink:href="classAppSettings.html#af97c4b73b02f8cf8ef75b11d8f86ac40" target="_top" xlink:title=" ">
<polygon fill="white" stroke="black" points="129.5,-49.5 129.5,-79.5 262.5,-79.5 262.5,-49.5 129.5,-49.5"/>
<text text-anchor="start" x="137.5" y="-67.5" font-family="Helvetica,sans-Serif" font-size="10.00">AppSettings::readandApply</text>
<text text-anchor="middle" x="196" y="-56.5" font-family="Helvetica,sans-Serif" font-size="10.00">Settings</text>
</a>
</g>
</g>
<!-- Node1&#45;&gt;Node2 -->
<g id="edge1" class="edge">
<title>Node1&#45;&gt;Node2</title>
<path fill="none" stroke="midnightblue" d="M292.85,-50.49C282.74,-51.96 272.44,-53.47 262.52,-54.92"/>
<polygon fill="midnightblue" stroke="midnightblue" points="293.48,-53.93 302.86,-49.02 292.46,-47.01 293.48,-53.93"/>
</g>
<!-- Node4 -->
<g id="node4" class="node">
<title>Node4</title>
<g id="a_node4"><a xlink:href="classAppSettings.html#a4531703d395e7ed5568f2738a9070b27" target="_top" xlink:title=" ">
<polygon fill="white" stroke="black" points="129,-0.5 129,-30.5 263,-30.5 263,-0.5 129,-0.5"/>
<text text-anchor="start" x="137" y="-18.5" font-family="Helvetica,sans-Serif" font-size="10.00">AppSettings::writeEXBoard</text>
<text text-anchor="middle" x="196" y="-7.5" font-family="Helvetica,sans-Serif" font-size="10.00">Settings</text>
</a>
</g>
</g>
<!-- Node1&#45;&gt;Node4 -->
<g id="edge3" class="edge">
<title>Node1&#45;&gt;Node4</title>
<path fill="none" stroke="midnightblue" d="M289.9,-28.54C280.97,-27.29 271.93,-26.02 263.17,-24.79"/>
<polygon fill="midnightblue" stroke="midnightblue" points="289.54,-32.02 299.92,-29.95 290.51,-25.09 289.54,-32.02"/>
</g>
<!-- Node3 -->
<g id="node3" class="node">
<title>Node3</title>
<g id="a_node3"><a xlink:href="classConnect.html#a2e3bdc883e226b286ee2ea851bf5f551" target="_top" xlink:title=" ">
<polygon fill="white" stroke="black" points="0,-55 0,-74 93,-74 93,-55 0,-55"/>
<text text-anchor="middle" x="46.5" y="-62" font-family="Helvetica,sans-Serif" font-size="10.00">Connect::Connect</text>
</a>
</g>
</g>
<!-- Node2&#45;&gt;Node3 -->
<g id="edge2" class="edge">
<title>Node2&#45;&gt;Node3</title>
<path fill="none" stroke="midnightblue" d="M119.43,-64.5C110.55,-64.5 101.71,-64.5 93.42,-64.5"/>
<polygon fill="midnightblue" stroke="midnightblue" points="119.45,-68 129.45,-64.5 119.45,-61 119.45,-68"/>
</g>
</g>
</svg>
