<?xml version="1.0" encoding="UTF-8" standalone="no"?>
<!DOCTYPE svg PUBLIC "-//W3C//DTD SVG 1.1//EN"
 "http://www.w3.org/Graphics/SVG/1.1/DTD/svg11.dtd">
<!-- Generated by graphviz version 2.49.3 (20211027.1534)
 -->
<!-- Title: DashBoard::leadingignChanged Pages: 1 -->
<svg width="1402pt" height="138pt"
 viewBox="0.00 0.00 1402.00 137.50" xmlns="http://www.w3.org/2000/svg" xmlns:xlink="http://www.w3.org/1999/xlink">
<g id="graph0" class="graph" transform="scale(1 1) rotate(0) translate(4 133.5)">
<title>DashBoard::leadingignChanged</title>
<polygon fill="white" stroke="transparent" points="-4,4 -4,-133.5 1398,-133.5 1398,4 -4,4"/>
<!-- Node1 -->
<g id="node1" class="node">
<title>Node1</title>
<g id="a_node1"><a xlink:title=" ">
<polygon fill="#bfbfbf" stroke="black" points="1243,-50 1243,-69 1394,-69 1394,-50 1243,-50"/>
<text text-anchor="middle" x="1318.5" y="-57" font-family="Helvetica,sans-Serif" font-size="10.00">DashBoard::leadingignChanged</text>
</a>
</g>
</g>
<!-- Node2 -->
<g id="node2" class="node">
<title>Node2</title>
<g id="a_node2"><a xlink:href="classDashBoard.html#a4e90fc531b31a84fa122ade9bdc2ecf1" target="_top" xlink:title=" ">
<polygon fill="white" stroke="black" points="1077,-50 1077,-69 1207,-69 1207,-50 1077,-50"/>
<text text-anchor="middle" x="1142" y="-57" font-family="Helvetica,sans-Serif" font-size="10.00">DashBoard::setLeadingign</text>
</a>
</g>
</g>
<!-- Node1&#45;&gt;Node2 -->
<g id="edge1" class="edge">
<title>Node1&#45;&gt;Node2</title>
<path fill="none" stroke="midnightblue" d="M1232.85,-59.5C1224.18,-59.5 1215.48,-59.5 1207.09,-59.5"/>
<polygon fill="midnightblue" stroke="midnightblue" points="1232.99,-63 1242.99,-59.5 1232.99,-56 1232.99,-63"/>
</g>
<!-- Node3 -->
<g id="node3" class="node">
<title>Node3</title>
<g id="a_node3"><a xlink:href="classApexi.html#a3ecd8445700ab9532fc051325f66d03d" target="_top" xlink:title=" ">
<polygon fill="white" stroke="black" points="923.5,-88 923.5,-107 1017.5,-107 1017.5,-88 923.5,-88"/>
<text text-anchor="middle" x="970.5" y="-95" font-family="Helvetica,sans-Serif" font-size="10.00">Apexi::decodeAdv</text>
</a>
</g>
</g>
<!-- Node2&#45;&gt;Node3 -->
<g id="edge2" class="edge">
<title>Node2&#45;&gt;Node3</title>
<path fill="none" stroke="midnightblue" d="M1088.26,-71.32C1064.36,-76.68 1036.48,-82.93 1013.96,-87.98"/>
<polygon fill="midnightblue" stroke="midnightblue" points="1089.24,-74.69 1098.23,-69.09 1087.7,-67.86 1089.24,-74.69"/>
</g>
<!-- Node13 -->
<g id="node13" class="node">
<title>Node13</title>
<g id="a_node13"><a xlink:href="classApexi.html#af3dad564d7c3cca0e98f5944e5e27cdf" target="_top" xlink:title=" ">
<polygon fill="white" stroke="black" points="920,-50 920,-69 1021,-69 1021,-50 920,-50"/>
<text text-anchor="middle" x="970.5" y="-57" font-family="Helvetica,sans-Serif" font-size="10.00">Apexi::decodeBasic</text>
</a>
</g>
</g>
<!-- Node2&#45;&gt;Node13 -->
<g id="edge15" class="edge">
<title>Node2&#45;&gt;Node13</title>
<path fill="none" stroke="midnightblue" d="M1066.85,-59.5C1051.39,-59.5 1035.45,-59.5 1021.14,-59.5"/>
<polygon fill="midnightblue" stroke="midnightblue" points="1066.92,-63 1076.92,-59.5 1066.92,-56 1066.92,-63"/>
</g>
<!-- Node14 -->
<g id="node14" class="node">
<title>Node14</title>
<g id="a_node14"><a xlink:href="classudpreceiver.html#a725cf4f5cf798fd5baed7eee2e6dd5f2" target="_top" xlink:title=" ">
<polygon fill="white" stroke="black" points="900,-0.5 900,-30.5 1041,-30.5 1041,-0.5 900,-0.5"/>
<text text-anchor="start" x="908" y="-18.5" font-family="Helvetica,sans-Serif" font-size="10.00">udpreceiver::processPending</text>
<text text-anchor="middle" x="970.5" y="-7.5" font-family="Helvetica,sans-Serif" font-size="10.00">Datagrams</text>
</a>
</g>
</g>
<!-- Node2&#45;&gt;Node14 -->
<g id="edge17" class="edge">
<title>Node2&#45;&gt;Node14</title>
<path fill="none" stroke="midnightblue" d="M1094.4,-47.4C1074.35,-42.2 1050.7,-36.06 1029.54,-30.57"/>
<polygon fill="midnightblue" stroke="midnightblue" points="1093.66,-50.83 1104.22,-49.95 1095.42,-44.05 1093.66,-50.83"/>
</g>
<!-- Node4 -->
<g id="node4" class="node">
<title>Node4</title>
<g id="a_node4"><a xlink:href="classApexi.html#a4e7b389e8d3e283a12733ab4f8492be3" target="_top" xlink:title=" ">
<polygon fill="white" stroke="black" points="780,-82 780,-101 864,-101 864,-82 780,-82"/>
<text text-anchor="middle" x="822" y="-89" font-family="Helvetica,sans-Serif" font-size="10.00">Apexi::readData</text>
</a>
</g>
</g>
<!-- Node3&#45;&gt;Node4 -->
<g id="edge3" class="edge">
<title>Node3&#45;&gt;Node4</title>
<path fill="none" stroke="midnightblue" d="M912.7,-95.17C896.5,-94.51 879.17,-93.8 864.1,-93.18"/>
<polygon fill="midnightblue" stroke="midnightblue" points="913.01,-98.69 923.15,-95.6 913.3,-91.7 913.01,-98.69"/>
</g>
<!-- Node5 -->
<g id="node5" class="node">
<title>Node5</title>
<g id="a_node5"><a xlink:href="classApexi.html#a4cb1314ab5ca5175aa227ed178148f40" target="_top" xlink:title=" ">
<polygon fill="white" stroke="black" points="637.5,-82 637.5,-101 725.5,-101 725.5,-82 637.5,-82"/>
<text text-anchor="middle" x="681.5" y="-89" font-family="Helvetica,sans-Serif" font-size="10.00">Apexi::apexiECU</text>
</a>
</g>
</g>
<!-- Node4&#45;&gt;Node5 -->
<g id="edge4" class="edge">
<title>Node4&#45;&gt;Node5</title>
<path fill="none" stroke="midnightblue" d="M769.55,-91.5C755.12,-91.5 739.58,-91.5 725.69,-91.5"/>
<polygon fill="midnightblue" stroke="midnightblue" points="769.82,-95 779.82,-91.5 769.82,-88 769.82,-95"/>
</g>
<!-- Node6 -->
<g id="node6" class="node">
<title>Node6</title>
<g id="a_node6"><a xlink:href="classApexi.html#abe3bf6800fce8a4c713a08c14474d625" target="_top" xlink:title=" ">
<polygon fill="white" stroke="black" points="481,-82 481,-101 583,-101 583,-82 481,-82"/>
<text text-anchor="middle" x="532" y="-89" font-family="Helvetica,sans-Serif" font-size="10.00">Apexi::readyToRead</text>
</a>
</g>
</g>
<!-- Node5&#45;&gt;Node6 -->
<g id="edge5" class="edge">
<title>Node5&#45;&gt;Node6</title>
<path fill="none" stroke="midnightblue" d="M627.21,-91.5C612.83,-91.5 597.33,-91.5 583.14,-91.5"/>
<polygon fill="midnightblue" stroke="midnightblue" points="627.44,-95 637.44,-91.5 627.44,-88 627.44,-95"/>
</g>
<!-- Node7 -->
<g id="node7" class="node">
<title>Node7</title>
<g id="a_node7"><a xlink:href="classApexi.html#a669124cabae4ada616e650e582c068da" target="_top" xlink:title=" ">
<polygon fill="white" stroke="black" points="328,-44 328,-63 445,-63 445,-44 328,-44"/>
<text text-anchor="middle" x="386.5" y="-51" font-family="Helvetica,sans-Serif" font-size="10.00">Apexi::closeConnection</text>
</a>
</g>
</g>
<!-- Node6&#45;&gt;Node7 -->
<g id="edge6" class="edge">
<title>Node6&#45;&gt;Node7</title>
<path fill="none" stroke="midnightblue" d="M485.03,-79.33C465.18,-74.07 442.31,-68.01 423.7,-63.09"/>
<polygon fill="midnightblue" stroke="midnightblue" points="484.23,-82.73 494.79,-81.91 486.02,-75.97 484.23,-82.73"/>
</g>
<!-- Node12 -->
<g id="node12" class="node">
<title>Node12</title>
<g id="a_node12"><a xlink:href="classApexi.html#a169d6e9466a6c04e6533c8e84fdcaadb" target="_top" xlink:title=" ">
<polygon fill="white" stroke="black" points="336,-82 336,-101 437,-101 437,-82 336,-82"/>
<text text-anchor="middle" x="386.5" y="-89" font-family="Helvetica,sans-Serif" font-size="10.00">Apexi::initSerialPort</text>
</a>
</g>
</g>
<!-- Node6&#45;&gt;Node12 -->
<g id="edge13" class="edge">
<title>Node6&#45;&gt;Node12</title>
<path fill="none" stroke="midnightblue" d="M470.75,-91.5C459.65,-91.5 448.17,-91.5 437.42,-91.5"/>
<polygon fill="midnightblue" stroke="midnightblue" points="470.81,-95 480.81,-91.5 470.81,-88 470.81,-95"/>
</g>
<!-- Node7&#45;&gt;Node4 -->
<g id="edge12" class="edge">
<title>Node7&#45;&gt;Node4</title>
<path fill="none" stroke="midnightblue" d="M455.55,-53.33C527.57,-54.03 644.37,-57.69 744,-72.5 758.71,-74.69 774.71,-78.41 788.3,-81.98"/>
<polygon fill="midnightblue" stroke="midnightblue" points="455.28,-49.82 445.26,-53.24 455.23,-56.82 455.28,-49.82"/>
</g>
<!-- Node8 -->
<g id="node8" class="node">
<title>Node8</title>
<g id="a_node8"><a xlink:href="classConnect.html#abb89a14af2e2b3f6d466c5abfc95cff0" target="_top" xlink:title=" ">
<polygon fill="white" stroke="black" points="163,-44 163,-63 292,-63 292,-44 163,-44"/>
<text text-anchor="middle" x="227.5" y="-51" font-family="Helvetica,sans-Serif" font-size="10.00">Connect::closeConnection</text>
</a>
</g>
</g>
<!-- Node7&#45;&gt;Node8 -->
<g id="edge7" class="edge">
<title>Node7&#45;&gt;Node8</title>
<path fill="none" stroke="midnightblue" d="M317.7,-53.5C309.22,-53.5 300.57,-53.5 292.15,-53.5"/>
<polygon fill="midnightblue" stroke="midnightblue" points="317.93,-57 327.93,-53.5 317.93,-50 317.93,-57"/>
</g>
<!-- Node9 -->
<g id="node9" class="node">
<title>Node9</title>
<g id="a_node9"><a xlink:href="classApexi.html#a84e5eadc545afab5fbb0aea8b27e17c3" target="_top" xlink:title=" ">
<polygon fill="white" stroke="black" points="170,-82 170,-101 285,-101 285,-82 170,-82"/>
<text text-anchor="middle" x="227.5" y="-89" font-family="Helvetica,sans-Serif" font-size="10.00">Apexi::openConnection</text>
</a>
</g>
</g>
<!-- Node7&#45;&gt;Node9 -->
<g id="edge8" class="edge">
<title>Node7&#45;&gt;Node9</title>
<path fill="none" stroke="midnightblue" d="M336.05,-65.47C314.05,-70.79 288.51,-76.98 267.83,-81.98"/>
<polygon fill="midnightblue" stroke="midnightblue" points="336.99,-68.84 345.88,-63.09 335.34,-62.04 336.99,-68.84"/>
</g>
<!-- Node10 -->
<g id="node10" class="node">
<title>Node10</title>
<g id="a_node10"><a xlink:href="classConnect.html#a0d674157f4d7442c535837dadd8cf5f1" target="_top" xlink:title=" ">
<polygon fill="white" stroke="black" points="0,-44 0,-63 127,-63 127,-44 0,-44"/>
<text text-anchor="middle" x="63.5" y="-51" font-family="Helvetica,sans-Serif" font-size="10.00">Connect::openConnection</text>
</a>
</g>
</g>
<!-- Node9&#45;&gt;Node10 -->
<g id="edge9" class="edge">
<title>Node9&#45;&gt;Node10</title>
<path fill="none" stroke="midnightblue" d="M175.79,-79.6C153.01,-74.26 126.51,-68.05 105.09,-63.02"/>
<polygon fill="midnightblue" stroke="midnightblue" points="175.09,-83.03 185.62,-81.91 176.68,-76.22 175.09,-83.03"/>
</g>
<!-- Node11 -->
<g id="node11" class="node">
<title>Node11</title>
<g id="a_node11"><a xlink:href="classApexi.html#af3673b74b8aebe06a2b2f9ed81c23ee4" target="_top" xlink:title=" ">
<polygon fill="white" stroke="black" points="14.5,-101 14.5,-120 112.5,-120 112.5,-101 14.5,-101"/>
<text text-anchor="middle" x="63.5" y="-108" font-family="Helvetica,sans-Serif" font-size="10.00">Apexi::retryconnect</text>
</a>
</g>
</g>
<!-- Node9&#45;&gt;Node11 -->
<g id="edge10" class="edge">
<title>Node9&#45;&gt;Node11</title>
<path fill="none" stroke="midnightblue" d="M159.6,-99.35C143.81,-101.2 127.29,-103.14 112.53,-104.87"/>
<polygon fill="midnightblue" stroke="midnightblue" points="160.32,-102.79 169.84,-98.15 159.5,-95.83 160.32,-102.79"/>
</g>
<!-- Node11&#45;&gt;Node4 -->
<g id="edge11" class="edge">
<title>Node11&#45;&gt;Node4</title>
<path fill="none" stroke="midnightblue" d="M122.91,-116.04C187.2,-121.65 293.62,-129.5 385.5,-129.5 533,-129.5 533,-129.5 533,-129.5 627.16,-129.5 651.13,-126.05 744,-110.5 758.26,-108.11 773.77,-104.49 787.12,-101.04"/>
<polygon fill="midnightblue" stroke="midnightblue" points="122.85,-112.52 112.58,-115.12 122.23,-119.49 122.85,-112.52"/>
</g>
<!-- Node12&#45;&gt;Node9 -->
<g id="edge14" class="edge">
<title>Node12&#45;&gt;Node9</title>
<path fill="none" stroke="midnightblue" d="M325.82,-91.5C312.51,-91.5 298.43,-91.5 285.24,-91.5"/>
<polygon fill="midnightblue" stroke="midnightblue" points="325.82,-95 335.82,-91.5 325.82,-88 325.82,-95"/>
</g>
<!-- Node13&#45;&gt;Node4 -->
<g id="edge16" class="edge">
<title>Node13&#45;&gt;Node4</title>
<path fill="none" stroke="midnightblue" d="M916.07,-71.17C898.94,-74.91 880.24,-79 864.13,-82.52"/>
<polygon fill="midnightblue" stroke="midnightblue" points="916.92,-74.57 925.94,-69.01 915.43,-67.73 916.92,-74.57"/>
</g>
<!-- Node15 -->
<g id="node15" class="node">
<title>Node15</title>
<g id="a_node15"><a xlink:href="classudpreceiver.html#a2d7852b9e4be87d9a3ce960d8a7eb9aa" target="_top" xlink:title=" ">
<polygon fill="white" stroke="black" points="619,-6 619,-25 744,-25 744,-6 619,-6"/>
<text text-anchor="middle" x="681.5" y="-13" font-family="Helvetica,sans-Serif" font-size="10.00">udpreceiver::startreceiver</text>
</a>
</g>
</g>
<!-- Node14&#45;&gt;Node15 -->
<g id="edge18" class="edge">
<title>Node14&#45;&gt;Node15</title>
<path fill="none" stroke="midnightblue" d="M889.44,-15.5C843.54,-15.5 786.8,-15.5 744.34,-15.5"/>
<polygon fill="midnightblue" stroke="midnightblue" points="889.66,-19 899.66,-15.5 889.66,-12 889.66,-19"/>
</g>
<!-- Node15&#45;&gt;Node10 -->
<g id="edge19" class="edge">
<title>Node15&#45;&gt;Node10</title>
<path fill="none" stroke="midnightblue" d="M608.93,-14.66C508.83,-14.27 321.47,-16.42 163,-34.5 144.31,-36.63 123.86,-40.35 106.46,-43.93"/>
<polygon fill="midnightblue" stroke="midnightblue" points="608.91,-18.16 618.93,-14.71 608.95,-11.16 608.91,-18.16"/>
</g>
</g>
</svg>
