<?xml version="1.0" encoding="UTF-8" standalone="no"?>
<!DOCTYPE svg PUBLIC "-//W3C//DTD SVG 1.1//EN"
 "http://www.w3.org/Graphics/SVG/1.1/DTD/svg11.dtd">
<!-- Generated by graphviz version 2.49.3 (20211027.1534)
 -->
<!-- Title: AppSettings::readandApplySettings Pages: 1 -->
<svg width="490pt" height="1154pt"
 viewBox="0.00 0.00 490.00 1154.00" xmlns="http://www.w3.org/2000/svg" xmlns:xlink="http://www.w3.org/1999/xlink">
<g id="graph0" class="graph" transform="scale(1 1) rotate(0) translate(4 1150)">
<title>AppSettings::readandApplySettings</title>
<polygon fill="white" stroke="transparent" points="-4,4 -4,-1150 486,-1150 486,4 -4,4"/>
<!-- Node1 -->
<g id="node1" class="node">
<title>Node1</title>
<g id="a_node1"><a xlink:title=" ">
<polygon fill="#bfbfbf" stroke="black" points="0,-570 0,-600 133,-600 133,-570 0,-570"/>
<text text-anchor="start" x="8" y="-588" font-family="Helvetica,sans-Serif" font-size="10.00">AppSettings::readandApply</text>
<text text-anchor="middle" x="66.5" y="-577" font-family="Helvetica,sans-Serif" font-size="10.00">Settings</text>
</a>
</g>
</g>
<!-- Node2 -->
<g id="node2" class="node">
<title>Node2</title>
<g id="a_node2"><a xlink:href="classAppSettings.html#a853abe79f8fc2d1563822f71628d2d5d" target="_top" xlink:title=" ">
<polygon fill="white" stroke="black" points="193,-1126.5 193,-1145.5 306,-1145.5 306,-1126.5 193,-1126.5"/>
<text text-anchor="middle" x="249.5" y="-1133.5" font-family="Helvetica,sans-Serif" font-size="10.00">AppSettings::getValue</text>
</a>
</g>
</g>
<!-- Node1&#45;&gt;Node2 -->
<g id="edge1" class="edge">
<title>Node1&#45;&gt;Node2</title>
<path fill="none" stroke="midnightblue" d="M68.23,-600.18C72.34,-678.85 95.05,-1039.56 169,-1117 173.14,-1121.34 178.09,-1124.76 183.45,-1127.46"/>
<polygon fill="midnightblue" stroke="midnightblue" points="182.24,-1130.74 192.82,-1131.33 184.92,-1124.27 182.24,-1130.74"/>
</g>
<!-- Node3 -->
<g id="node3" class="node">
<title>Node3</title>
<g id="a_node3"><a xlink:href="classDashBoard.html#a60c53453e0f6b4eca8af464818d78e6c" target="_top" xlink:title=" ">
<polygon fill="white" stroke="black" points="186,-1088.5 186,-1107.5 313,-1107.5 313,-1088.5 186,-1088.5"/>
<text text-anchor="middle" x="249.5" y="-1095.5" font-family="Helvetica,sans-Serif" font-size="10.00">DashBoard::setAnalogVal</text>
</a>
</g>
</g>
<!-- Node1&#45;&gt;Node3 -->
<g id="edge2" class="edge">
<title>Node1&#45;&gt;Node3</title>
<path fill="none" stroke="midnightblue" d="M68.48,-600.33C73.65,-675.88 100.01,-1007.77 169,-1079 171.37,-1081.45 173.99,-1083.6 176.8,-1085.5"/>
<polygon fill="midnightblue" stroke="midnightblue" points="175.28,-1088.65 185.72,-1090.44 178.67,-1082.53 175.28,-1088.65"/>
</g>
<!-- Node4 -->
<g id="node4" class="node">
<title>Node4</title>
<g id="a_node4"><a xlink:href="classDashBoard.html#a0b8631adee9bafae815ad563ff70af82" target="_top" xlink:title=" ">
<polygon fill="white" stroke="black" points="185.5,-1050.5 185.5,-1069.5 313.5,-1069.5 313.5,-1050.5 185.5,-1050.5"/>
<text text-anchor="middle" x="249.5" y="-1057.5" font-family="Helvetica,sans-Serif" font-size="10.00">DashBoard::setboostwarn</text>
</a>
</g>
</g>
<!-- Node1&#45;&gt;Node4 -->
<g id="edge3" class="edge">
<title>Node1&#45;&gt;Node4</title>
<path fill="none" stroke="midnightblue" d="M68.75,-600.1C74.96,-671.66 104.84,-975.84 169,-1041 171.27,-1043.3 173.76,-1045.35 176.42,-1047.16"/>
<polygon fill="midnightblue" stroke="midnightblue" points="174.98,-1050.36 185.41,-1052.19 178.39,-1044.25 174.98,-1050.36"/>
</g>
<!-- Node5 -->
<g id="node5" class="node">
<title>Node5</title>
<g id="a_node5"><a xlink:href="classDashBoard.html#a859867d33702db5286fc6664ab5e4542" target="_top" xlink:title=" ">
<polygon fill="white" stroke="black" points="185,-1012.5 185,-1031.5 314,-1031.5 314,-1012.5 185,-1012.5"/>
<text text-anchor="middle" x="249.5" y="-1019.5" font-family="Helvetica,sans-Serif" font-size="10.00">DashBoard::setBrightness</text>
</a>
</g>
</g>
<!-- Node1&#45;&gt;Node5 -->
<g id="edge4" class="edge">
<title>Node1&#45;&gt;Node5</title>
<path fill="none" stroke="midnightblue" d="M69.08,-600.19C76.48,-668.21 109.75,-943.96 169,-1003 171.12,-1005.11 173.43,-1007.01 175.89,-1008.7"/>
<polygon fill="midnightblue" stroke="midnightblue" points="174.3,-1011.83 184.73,-1013.74 177.77,-1005.75 174.3,-1011.83"/>
</g>
<!-- Node6 -->
<g id="node6" class="node">
<title>Node6</title>
<g id="a_node6"><a xlink:href="classDashBoard.html#aed67d03267cefbc52a61c47d2b0a5fb3" target="_top" xlink:title=" ">
<polygon fill="white" stroke="black" points="171,-974.5 171,-993.5 328,-993.5 328,-974.5 171,-974.5"/>
<text text-anchor="middle" x="249.5" y="-981.5" font-family="Helvetica,sans-Serif" font-size="10.00">DashBoard::setCBXCountrysave</text>
</a>
</g>
</g>
<!-- Node1&#45;&gt;Node6 -->
<g id="edge5" class="edge">
<title>Node1&#45;&gt;Node6</title>
<path fill="none" stroke="midnightblue" d="M69.46,-600.1C78.08,-664.07 114.58,-912 169,-965 170.45,-966.41 171.98,-967.72 173.59,-968.94"/>
<polygon fill="midnightblue" stroke="midnightblue" points="171.81,-971.96 182.14,-974.32 175.53,-966.03 171.81,-971.96"/>
</g>
<!-- Node7 -->
<g id="node7" class="node">
<title>Node7</title>
<g id="a_node7"><a xlink:href="classDashBoard.html#aac4076dee1530b21a6c8ace832efe0e0" target="_top" xlink:title=" ">
<polygon fill="white" stroke="black" points="175,-936.5 175,-955.5 324,-955.5 324,-936.5 175,-936.5"/>
<text text-anchor="middle" x="249.5" y="-943.5" font-family="Helvetica,sans-Serif" font-size="10.00">DashBoard::setCBXTracksave</text>
</a>
</g>
</g>
<!-- Node1&#45;&gt;Node7 -->
<g id="edge6" class="edge">
<title>Node1&#45;&gt;Node7</title>
<path fill="none" stroke="midnightblue" d="M67.05,-600.33C66.37,-653.94 71.66,-834.77 169,-927 170.51,-928.43 172.1,-929.75 173.77,-930.99"/>
<polygon fill="midnightblue" stroke="midnightblue" points="172.27,-934.17 182.63,-936.39 175.92,-928.2 172.27,-934.17"/>
</g>
<!-- Node8 -->
<g id="node8" class="node">
<title>Node8</title>
<g id="a_node8"><a xlink:href="classDashBoard.html#a606543524113eecae9e8914e91c9256d" target="_top" xlink:title=" ">
<polygon fill="white" stroke="black" points="188.5,-898.5 188.5,-917.5 310.5,-917.5 310.5,-898.5 188.5,-898.5"/>
<text text-anchor="middle" x="249.5" y="-905.5" font-family="Helvetica,sans-Serif" font-size="10.00">DashBoard::setCylinders</text>
</a>
</g>
</g>
<!-- Node1&#45;&gt;Node8 -->
<g id="edge7" class="edge">
<title>Node1&#45;&gt;Node8</title>
<path fill="none" stroke="midnightblue" d="M67.7,-600.02C69.21,-649.44 80.99,-808.38 169,-889 172.03,-891.78 175.4,-894.17 178.98,-896.23"/>
<polygon fill="midnightblue" stroke="midnightblue" points="177.74,-899.52 188.27,-900.69 180.77,-893.21 177.74,-899.52"/>
</g>
<!-- Node9 -->
<g id="node9" class="node">
<title>Node9</title>
<g id="a_node9"><a xlink:href="classDashBoard.html#afc973cb4f6075f43701455c52208d22d" target="_top" xlink:title=" ">
<polygon fill="white" stroke="black" points="172.5,-860.5 172.5,-879.5 326.5,-879.5 326.5,-860.5 172.5,-860.5"/>
<text text-anchor="middle" x="249.5" y="-867.5" font-family="Helvetica,sans-Serif" font-size="10.00">DashBoard::setDI1RPMEnabled</text>
</a>
</g>
</g>
<!-- Node1&#45;&gt;Node9 -->
<g id="edge8" class="edge">
<title>Node1&#45;&gt;Node9</title>
<path fill="none" stroke="midnightblue" d="M68.51,-600.07C72.41,-645.46 90.44,-782.03 169,-851 170.78,-852.56 172.66,-854 174.62,-855.32"/>
<polygon fill="midnightblue" stroke="midnightblue" points="173.28,-858.58 183.72,-860.43 176.71,-852.48 173.28,-858.58"/>
</g>
<!-- Node10 -->
<g id="node10" class="node">
<title>Node10</title>
<g id="a_node10"><a xlink:href="classDashBoard.html#a3d742d7284a5b5fc16d93899a66b5f67" target="_top" xlink:title=" ">
<polygon fill="white" stroke="black" points="179.5,-822.5 179.5,-841.5 319.5,-841.5 319.5,-822.5 179.5,-822.5"/>
<text text-anchor="middle" x="249.5" y="-829.5" font-family="Helvetica,sans-Serif" font-size="10.00">DashBoard::setEXAnalogVal</text>
</a>
</g>
</g>
<!-- Node1&#45;&gt;Node10 -->
<g id="edge9" class="edge">
<title>Node1&#45;&gt;Node10</title>
<path fill="none" stroke="midnightblue" d="M69.6,-600.26C76.11,-641.44 99.85,-755.54 169,-813 171.01,-814.67 173.13,-816.19 175.35,-817.59"/>
<polygon fill="midnightblue" stroke="midnightblue" points="173.85,-820.75 184.33,-822.35 177.14,-814.57 173.85,-820.75"/>
</g>
<!-- Node11 -->
<g id="node11" class="node">
<title>Node11</title>
<g id="a_node11"><a xlink:href="classDashBoard.html#ab2c598ea86f3d3ab3e3697d58322d13b" target="_top" xlink:title=" ">
<polygon fill="white" stroke="black" points="177,-784.5 177,-803.5 322,-803.5 322,-784.5 177,-784.5"/>
<text text-anchor="middle" x="249.5" y="-791.5" font-family="Helvetica,sans-Serif" font-size="10.00">DashBoard::setExternalSpeed</text>
</a>
</g>
</g>
<!-- Node1&#45;&gt;Node11 -->
<g id="edge10" class="edge">
<title>Node1&#45;&gt;Node11</title>
<path fill="none" stroke="midnightblue" d="M71.02,-600.09C80.29,-636.32 108.9,-728.61 169,-775 171.32,-776.79 173.78,-778.41 176.34,-779.89"/>
<polygon fill="midnightblue" stroke="midnightblue" points="174.89,-783.07 185.41,-784.34 177.98,-776.79 174.89,-783.07"/>
</g>
<!-- Node12 -->
<g id="node12" class="node">
<title>Node12</title>
<g id="a_node12"><a xlink:href="classDashBoard.html#a6c11585c53c99c3f5da21fd1201907e9" target="_top" xlink:title=" ">
<polygon fill="white" stroke="black" points="187,-746.5 187,-765.5 312,-765.5 312,-746.5 187,-746.5"/>
<text text-anchor="middle" x="249.5" y="-753.5" font-family="Helvetica,sans-Serif" font-size="10.00">DashBoard::setgearcalc1</text>
</a>
</g>
</g>
<!-- Node1&#45;&gt;Node12 -->
<g id="edge11" class="edge">
<title>Node1&#45;&gt;Node12</title>
<path fill="none" stroke="midnightblue" d="M73.2,-600.28C85.58,-631.24 117.96,-701.46 169,-737 171.88,-739.01 174.95,-740.8 178.14,-742.41"/>
<polygon fill="midnightblue" stroke="midnightblue" points="176.84,-745.66 187.41,-746.46 179.65,-739.25 176.84,-745.66"/>
</g>
<!-- Node13 -->
<g id="node13" class="node">
<title>Node13</title>
<g id="a_node13"><a xlink:href="classDashBoard.html#acf253b41e7f3d898351df8e1885e2ccd" target="_top" xlink:title=" ">
<polygon fill="white" stroke="black" points="187,-708.5 187,-727.5 312,-727.5 312,-708.5 187,-708.5"/>
<text text-anchor="middle" x="249.5" y="-715.5" font-family="Helvetica,sans-Serif" font-size="10.00">DashBoard::setgearcalc2</text>
</a>
</g>
</g>
<!-- Node1&#45;&gt;Node13 -->
<g id="edge12" class="edge">
<title>Node1&#45;&gt;Node13</title>
<path fill="none" stroke="midnightblue" d="M76.63,-600.23C92.28,-624.99 126.7,-673.7 169,-699 172.63,-701.17 176.49,-703.09 180.49,-704.8"/>
<polygon fill="midnightblue" stroke="midnightblue" points="179.4,-708.13 189.99,-708.39 181.87,-701.58 179.4,-708.13"/>
</g>
<!-- Node14 -->
<g id="node14" class="node">
<title>Node14</title>
<g id="a_node14"><a xlink:href="classDashBoard.html#aa5abb4e9e8b652f02a19871349c87564" target="_top" xlink:title=" ">
<polygon fill="white" stroke="black" points="187,-670.5 187,-689.5 312,-689.5 312,-670.5 187,-670.5"/>
<text text-anchor="middle" x="249.5" y="-677.5" font-family="Helvetica,sans-Serif" font-size="10.00">DashBoard::setgearcalc3</text>
</a>
</g>
</g>
<!-- Node1&#45;&gt;Node14 -->
<g id="edge13" class="edge">
<title>Node1&#45;&gt;Node14</title>
<path fill="none" stroke="midnightblue" d="M83.37,-600.2C102.27,-617.47 135.52,-645.29 169,-661 174.27,-663.47 179.89,-665.64 185.61,-667.53"/>
<polygon fill="midnightblue" stroke="midnightblue" points="184.71,-670.92 195.3,-670.48 186.75,-664.22 184.71,-670.92"/>
</g>
<!-- Node15 -->
<g id="node15" class="node">
<title>Node15</title>
<g id="a_node15"><a xlink:href="classDashBoard.html#a3968aeb6f512ae3f70a5b434e3fde67f" target="_top" xlink:title=" ">
<polygon fill="white" stroke="black" points="187,-632.5 187,-651.5 312,-651.5 312,-632.5 187,-632.5"/>
<text text-anchor="middle" x="249.5" y="-639.5" font-family="Helvetica,sans-Serif" font-size="10.00">DashBoard::setgearcalc4</text>
</a>
</g>
</g>
<!-- Node1&#45;&gt;Node15 -->
<g id="edge14" class="edge">
<title>Node1&#45;&gt;Node15</title>
<path fill="none" stroke="midnightblue" d="M104.24,-600.01C123.36,-607.5 147.23,-616.35 169,-623 177.1,-625.47 185.74,-627.82 194.23,-629.98"/>
<polygon fill="midnightblue" stroke="midnightblue" points="193.54,-633.41 204.08,-632.41 195.21,-626.62 193.54,-633.41"/>
</g>
<!-- Node16 -->
<g id="node16" class="node">
<title>Node16</title>
<g id="a_node16"><a xlink:href="classDashBoard.html#a07c539d4cf95ddf8b2820a760a747478" target="_top" xlink:title=" ">
<polygon fill="white" stroke="black" points="187,-594.5 187,-613.5 312,-613.5 312,-594.5 187,-594.5"/>
<text text-anchor="middle" x="249.5" y="-601.5" font-family="Helvetica,sans-Serif" font-size="10.00">DashBoard::setgearcalc5</text>
</a>
</g>
</g>
<!-- Node1&#45;&gt;Node16 -->
<g id="edge15" class="edge">
<title>Node1&#45;&gt;Node16</title>
<path fill="none" stroke="midnightblue" d="M133.1,-591.89C147.19,-593.36 162.14,-594.93 176.45,-596.44"/>
<polygon fill="midnightblue" stroke="midnightblue" points="176.43,-599.95 186.74,-597.52 177.16,-592.99 176.43,-599.95"/>
</g>
<!-- Node17 -->
<g id="node17" class="node">
<title>Node17</title>
<g id="a_node17"><a xlink:href="classDashBoard.html#abd03cd29f3de5bae8db390d7178ffc58" target="_top" xlink:title=" ">
<polygon fill="white" stroke="black" points="187,-556.5 187,-575.5 312,-575.5 312,-556.5 187,-556.5"/>
<text text-anchor="middle" x="249.5" y="-563.5" font-family="Helvetica,sans-Serif" font-size="10.00">DashBoard::setgearcalc6</text>
</a>
</g>
</g>
<!-- Node1&#45;&gt;Node17 -->
<g id="edge16" class="edge">
<title>Node1&#45;&gt;Node17</title>
<path fill="none" stroke="midnightblue" d="M133.1,-578.11C147.19,-576.64 162.14,-575.07 176.45,-573.56"/>
<polygon fill="midnightblue" stroke="midnightblue" points="177.16,-577.01 186.74,-572.48 176.43,-570.05 177.16,-577.01"/>
</g>
<!-- Node18 -->
<g id="node18" class="node">
<title>Node18</title>
<g id="a_node18"><a xlink:href="classDashBoard.html#a3eb326cf56cd44d814eb2164be74eafe" target="_top" xlink:title=" ">
<polygon fill="white" stroke="black" points="169,-518.5 169,-537.5 330,-537.5 330,-518.5 169,-518.5"/>
<text text-anchor="middle" x="249.5" y="-525.5" font-family="Helvetica,sans-Serif" font-size="10.00">DashBoard::setgearcalcactivation</text>
</a>
</g>
</g>
<!-- Node1&#45;&gt;Node18 -->
<g id="edge17" class="edge">
<title>Node1&#45;&gt;Node18</title>
<path fill="none" stroke="midnightblue" d="M104.24,-569.99C123.36,-562.5 147.23,-553.65 169,-547 177.1,-544.53 185.74,-542.18 194.23,-540.02"/>
<polygon fill="midnightblue" stroke="midnightblue" points="195.21,-543.38 204.08,-537.59 193.54,-536.59 195.21,-543.38"/>
</g>
<!-- Node19 -->
<g id="node19" class="node">
<title>Node19</title>
<g id="a_node19"><a xlink:href="classDashBoard.html#a810223c01c0841d352de19c81d3ee874" target="_top" xlink:title=" ">
<polygon fill="white" stroke="black" points="184.5,-480.5 184.5,-499.5 314.5,-499.5 314.5,-480.5 184.5,-480.5"/>
<text text-anchor="middle" x="249.5" y="-487.5" font-family="Helvetica,sans-Serif" font-size="10.00">DashBoard::setknockwarn</text>
</a>
</g>
</g>
<!-- Node1&#45;&gt;Node19 -->
<g id="edge18" class="edge">
<title>Node1&#45;&gt;Node19</title>
<path fill="none" stroke="midnightblue" d="M83.37,-569.8C102.27,-552.53 135.52,-524.71 169,-509 174.27,-506.53 179.89,-504.36 185.61,-502.47"/>
<polygon fill="midnightblue" stroke="midnightblue" points="186.75,-505.78 195.3,-499.52 184.71,-499.08 186.75,-505.78"/>
</g>
<!-- Node20 -->
<g id="node20" class="node">
<title>Node20</title>
<g id="a_node20"><a xlink:href="classDashBoard.html#a507aa2a009384304b8daa3322fc0122f" target="_top" xlink:title=" ">
<polygon fill="white" stroke="black" points="174,-442.5 174,-461.5 325,-461.5 325,-442.5 174,-442.5"/>
<text text-anchor="middle" x="249.5" y="-449.5" font-family="Helvetica,sans-Serif" font-size="10.00">DashBoard::setLambdamultiply</text>
</a>
</g>
</g>
<!-- Node1&#45;&gt;Node20 -->
<g id="edge19" class="edge">
<title>Node1&#45;&gt;Node20</title>
<path fill="none" stroke="midnightblue" d="M76.63,-569.77C92.28,-545.01 126.7,-496.3 169,-471 172.63,-468.83 176.49,-466.91 180.49,-465.2"/>
<polygon fill="midnightblue" stroke="midnightblue" points="181.87,-468.42 189.99,-461.61 179.4,-461.87 181.87,-468.42"/>
</g>
<!-- Node21 -->
<g id="node21" class="node">
<title>Node21</title>
<g id="a_node21"><a xlink:href="classDashBoard.html#ab810c270ff67e50f3e29528e6bc55d3d" target="_top" xlink:title=" ">
<polygon fill="white" stroke="black" points="188.5,-404.5 188.5,-423.5 310.5,-423.5 310.5,-404.5 188.5,-404.5"/>
<text text-anchor="middle" x="249.5" y="-411.5" font-family="Helvetica,sans-Serif" font-size="10.00">DashBoard::setmaxRPM</text>
</a>
</g>
</g>
<!-- Node1&#45;&gt;Node21 -->
<g id="edge20" class="edge">
<title>Node1&#45;&gt;Node21</title>
<path fill="none" stroke="midnightblue" d="M73.2,-569.72C85.58,-538.76 117.96,-468.54 169,-433 172.09,-430.85 175.4,-428.93 178.84,-427.24"/>
<polygon fill="midnightblue" stroke="midnightblue" points="180.4,-430.38 188.22,-423.23 177.65,-423.94 180.4,-430.38"/>
</g>
<!-- Node22 -->
<g id="node22" class="node">
<title>Node22</title>
<g id="a_node22"><a xlink:href="classDashBoard.html#a3adc999eee780a92ba4ce42796e5a807" target="_top" xlink:title=" ">
<polygon fill="white" stroke="black" points="175,-355 175,-385 324,-385 324,-355 175,-355"/>
<text text-anchor="start" x="183" y="-373" font-family="Helvetica,sans-Serif" font-size="10.00">DashBoard::setRPMFrequency</text>
<text text-anchor="middle" x="249.5" y="-362" font-family="Helvetica,sans-Serif" font-size="10.00">DividerDi1</text>
</a>
</g>
</g>
<!-- Node1&#45;&gt;Node22 -->
<g id="edge21" class="edge">
<title>Node1&#45;&gt;Node22</title>
<path fill="none" stroke="midnightblue" d="M71.31,-569.91C81.13,-534.09 110.71,-443.35 169,-395 171.05,-393.3 173.21,-391.72 175.46,-390.25"/>
<polygon fill="midnightblue" stroke="midnightblue" points="177.57,-393.07 184.52,-385.07 174.1,-386.99 177.57,-393.07"/>
</g>
<!-- Node23 -->
<g id="node23" class="node">
<title>Node23</title>
<g id="a_node23"><a xlink:href="classDashBoard.html#af516adaf8303467e67ec414f1b70410a" target="_top" xlink:title=" ">
<polygon fill="white" stroke="black" points="184.5,-316.5 184.5,-335.5 314.5,-335.5 314.5,-316.5 184.5,-316.5"/>
<text text-anchor="middle" x="249.5" y="-323.5" font-family="Helvetica,sans-Serif" font-size="10.00">DashBoard::setrpmStage1</text>
</a>
</g>
</g>
<!-- Node1&#45;&gt;Node23 -->
<g id="edge22" class="edge">
<title>Node1&#45;&gt;Node23</title>
<path fill="none" stroke="midnightblue" d="M69.27,-569.98C75.06,-527.79 97.42,-407.26 169,-346 171.54,-343.83 174.29,-341.88 177.17,-340.14"/>
<polygon fill="midnightblue" stroke="midnightblue" points="178.9,-343.19 186.22,-335.53 175.72,-336.96 178.9,-343.19"/>
</g>
<!-- Node24 -->
<g id="node24" class="node">
<title>Node24</title>
<g id="a_node24"><a xlink:href="classDashBoard.html#aa218a59a7bd9d4f66721d60db7627a42" target="_top" xlink:title=" ">
<polygon fill="white" stroke="black" points="184.5,-278.5 184.5,-297.5 314.5,-297.5 314.5,-278.5 184.5,-278.5"/>
<text text-anchor="middle" x="249.5" y="-285.5" font-family="Helvetica,sans-Serif" font-size="10.00">DashBoard::setrpmStage2</text>
</a>
</g>
</g>
<!-- Node1&#45;&gt;Node24 -->
<g id="edge23" class="edge">
<title>Node1&#45;&gt;Node24</title>
<path fill="none" stroke="midnightblue" d="M68.23,-569.94C71.36,-523.23 87.47,-379.62 169,-307 170.99,-305.22 173.12,-303.61 175.36,-302.13"/>
<polygon fill="midnightblue" stroke="midnightblue" points="177.36,-305.03 184.44,-297.14 173.99,-298.89 177.36,-305.03"/>
</g>
<!-- Node25 -->
<g id="node25" class="node">
<title>Node25</title>
<g id="a_node25"><a xlink:href="classDashBoard.html#a205a221ae5f4d6263493c4bacf481b94" target="_top" xlink:title=" ">
<polygon fill="white" stroke="black" points="184.5,-240.5 184.5,-259.5 314.5,-259.5 314.5,-240.5 184.5,-240.5"/>
<text text-anchor="middle" x="249.5" y="-247.5" font-family="Helvetica,sans-Serif" font-size="10.00">DashBoard::setrpmStage3</text>
</a>
</g>
</g>
<!-- Node1&#45;&gt;Node25 -->
<g id="edge24" class="edge">
<title>Node1&#45;&gt;Node25</title>
<path fill="none" stroke="midnightblue" d="M67.48,-569.76C68.3,-518.86 78.13,-353.2 169,-269 170.96,-267.19 173.06,-265.54 175.27,-264.03"/>
<polygon fill="midnightblue" stroke="midnightblue" points="177.28,-266.92 184.27,-258.96 173.84,-260.82 177.28,-266.92"/>
</g>
<!-- Node26 -->
<g id="node26" class="node">
<title>Node26</title>
<g id="a_node26"><a xlink:href="classDashBoard.html#a9fcc070d6894d0ecb4c2b7cce9555d8e" target="_top" xlink:title=" ">
<polygon fill="white" stroke="black" points="184.5,-202.5 184.5,-221.5 314.5,-221.5 314.5,-202.5 184.5,-202.5"/>
<text text-anchor="middle" x="249.5" y="-209.5" font-family="Helvetica,sans-Serif" font-size="10.00">DashBoard::setrpmStage4</text>
</a>
</g>
</g>
<!-- Node1&#45;&gt;Node26 -->
<g id="edge25" class="edge">
<title>Node1&#45;&gt;Node26</title>
<path fill="none" stroke="midnightblue" d="M66.88,-569.91C65.51,-515.44 68.5,-327.11 169,-231 170.93,-229.15 173,-227.48 175.19,-225.96"/>
<polygon fill="midnightblue" stroke="midnightblue" points="177.21,-228.83 184.13,-220.81 173.72,-222.77 177.21,-228.83"/>
</g>
<!-- Node27 -->
<g id="node27" class="node">
<title>Node27</title>
<g id="a_node27"><a xlink:href="classDashBoard.html#aba80b34eccf9d061634a43fb4e6cf26e" target="_top" xlink:title=" ">
<polygon fill="white" stroke="black" points="189.5,-164.5 189.5,-183.5 309.5,-183.5 309.5,-164.5 189.5,-164.5"/>
<text text-anchor="middle" x="249.5" y="-171.5" font-family="Helvetica,sans-Serif" font-size="10.00">DashBoard::setrpmwarn</text>
</a>
</g>
</g>
<!-- Node1&#45;&gt;Node27 -->
<g id="edge26" class="edge">
<title>Node1&#45;&gt;Node27</title>
<path fill="none" stroke="midnightblue" d="M69.34,-569.87C77.56,-504.61 113.06,-247.9 169,-193 172.28,-189.78 176,-187.07 180,-184.8"/>
<polygon fill="midnightblue" stroke="midnightblue" points="181.59,-187.92 189.13,-180.48 178.6,-181.59 181.59,-187.92"/>
</g>
<!-- Node28 -->
<g id="node28" class="node">
<title>Node28</title>
<g id="a_node28"><a xlink:href="classDashBoard.html#aa09c45f54956fff7f8085735520528a0" target="_top" xlink:title=" ">
<polygon fill="white" stroke="black" points="175,-115 175,-145 324,-145 324,-115 175,-115"/>
<text text-anchor="start" x="183" y="-133" font-family="Helvetica,sans-Serif" font-size="10.00">DashBoard::setsmootexAnalog</text>
<text text-anchor="middle" x="249.5" y="-122" font-family="Helvetica,sans-Serif" font-size="10.00">Input7</text>
</a>
</g>
</g>
<!-- Node1&#45;&gt;Node28 -->
<g id="edge27" class="edge">
<title>Node1&#45;&gt;Node28</title>
<path fill="none" stroke="midnightblue" d="M69.07,-569.94C76.51,-501.21 110.38,-218.06 169,-155 170.22,-153.69 171.51,-152.45 172.85,-151.27"/>
<polygon fill="midnightblue" stroke="midnightblue" points="175.13,-153.94 181.13,-145.2 171,-148.29 175.13,-153.94"/>
</g>
<!-- Node30 -->
<g id="node30" class="node">
<title>Node30</title>
<g id="a_node30"><a xlink:href="classDashBoard.html#a8d8938a03ba9b447775e11fd7db43a27" target="_top" xlink:title=" ">
<polygon fill="white" stroke="black" points="179,-76.5 179,-95.5 320,-95.5 320,-76.5 179,-76.5"/>
<text text-anchor="middle" x="249.5" y="-83.5" font-family="Helvetica,sans-Serif" font-size="10.00">DashBoard::setspeedpercent</text>
</a>
</g>
</g>
<!-- Node1&#45;&gt;Node30 -->
<g id="edge29" class="edge">
<title>Node1&#45;&gt;Node30</title>
<path fill="none" stroke="midnightblue" d="M68.61,-569.66C74.28,-495.53 102.37,-175.19 169,-106 170.81,-104.12 172.78,-102.4 174.86,-100.84"/>
<polygon fill="midnightblue" stroke="midnightblue" points="176.75,-103.78 183.41,-95.54 173.07,-97.83 176.75,-103.78"/>
</g>
<!-- Node31 -->
<g id="node31" class="node">
<title>Node31</title>
<g id="a_node31"><a xlink:href="classDashBoard.html#a00c20c8e9cca14615182d1097c337f81" target="_top" xlink:title=" ">
<polygon fill="white" stroke="black" points="179.5,-38.5 179.5,-57.5 319.5,-57.5 319.5,-38.5 179.5,-38.5"/>
<text text-anchor="middle" x="249.5" y="-45.5" font-family="Helvetica,sans-Serif" font-size="10.00">DashBoard::setSteinhartcalc</text>
</a>
</g>
</g>
<!-- Node1&#45;&gt;Node31 -->
<g id="edge30" class="edge">
<title>Node1&#45;&gt;Node31</title>
<path fill="none" stroke="midnightblue" d="M68.31,-569.97C72.77,-492.83 96.82,-142.21 169,-67 170.25,-65.7 171.57,-64.48 172.96,-63.34"/>
<polygon fill="midnightblue" stroke="midnightblue" points="175.13,-66.09 181.48,-57.61 171.23,-60.28 175.13,-66.09"/>
</g>
<!-- Node32 -->
<g id="node32" class="node">
<title>Node32</title>
<g id="a_node32"><a xlink:href="classDashBoard.html#ace54443a345cc34cdc5e8035906ac539" target="_top" xlink:title=" ">
<polygon fill="white" stroke="black" points="185.5,-0.5 185.5,-19.5 313.5,-19.5 313.5,-0.5 185.5,-0.5"/>
<text text-anchor="middle" x="249.5" y="-7.5" font-family="Helvetica,sans-Serif" font-size="10.00">DashBoard::setwaterwarn</text>
</a>
</g>
</g>
<!-- Node1&#45;&gt;Node32 -->
<g id="edge31" class="edge">
<title>Node1&#45;&gt;Node32</title>
<path fill="none" stroke="midnightblue" d="M68.09,-569.95C71.57,-489.45 91.9,-110.38 169,-29 171.22,-26.65 173.68,-24.58 176.31,-22.74"/>
<polygon fill="midnightblue" stroke="midnightblue" points="178.29,-25.64 185.23,-17.63 174.81,-19.56 178.29,-25.64"/>
</g>
<!-- Node29 -->
<g id="node29" class="node">
<title>Node29</title>
<g id="a_node29"><a xlink:href="dashboard_8cpp.html#a2751a06c2fa6c8388f2d37d5d26453f3" target="_top" xlink:title=" ">
<polygon fill="white" stroke="black" points="366,-120.5 366,-139.5 482,-139.5 482,-120.5 366,-120.5"/>
<text text-anchor="middle" x="424" y="-127.5" font-family="Helvetica,sans-Serif" font-size="10.00">averageexanaloginput7</text>
</a>
</g>
</g>
<!-- Node28&#45;&gt;Node29 -->
<g id="edge28" class="edge">
<title>Node28&#45;&gt;Node29</title>
<path fill="none" stroke="midnightblue" d="M324.16,-130C334.6,-130 345.29,-130 355.6,-130"/>
<polygon fill="midnightblue" stroke="midnightblue" points="355.76,-133.5 365.76,-130 355.76,-126.5 355.76,-133.5"/>
</g>
</g>
</svg>
