<?xml version="1.0" encoding="UTF-8" standalone="no"?>
<!DOCTYPE svg PUBLIC "-//W3C//DTD SVG 1.1//EN"
 "http://www.w3.org/Graphics/SVG/1.1/DTD/svg11.dtd">
<!-- Generated by graphviz version 2.49.3 (20211027.1534)
 -->
<!-- Title: udpreceiver::startreceiver Pages: 1 -->
<!--zoomable 1814 -->
<svg id="main" version="1.1" xmlns="http://www.w3.org/2000/svg" xmlns:xlink="http://www.w3.org/1999/xlink" xml:space="preserve" onload="init(evt)">
<style type="text/css"><![CDATA[
.edge:hover path { stroke: red; }
.edge:hover polygon { stroke: red; fill: red; }
]]></style>
<script type="text/javascript"><![CDATA[
var edges = document.getElementsByTagName('g');
if (edges && edges.length) {
  for (var i=0;i<edges.length;i++) {
    if (edges[i].id.substr(0,4)=='edge') {
      edges[i].setAttribute('class','edge');
    }
  }
}
]]></script>
        <defs>
                <circle id="rim" cx="0" cy="0" r="7"/>
                <circle id="rim2" cx="0" cy="0" r="3.5"/>
                <g id="zoomPlus">
                        <use xlink:href="#rim" fill="#404040">
                                <set attributeName="fill" to="#808080" begin="zoomplus.mouseover" end="zoomplus.mouseout"/>
                        </use>
                        <path d="M-4,0h8M0,-4v8" fill="none" stroke="white" stroke-width="1.5" pointer-events="none"/>
                </g>
                <g id="zoomMin">
                        <use xlink:href="#rim" fill="#404040">
                                <set attributeName="fill" to="#808080" begin="zoomminus.mouseover" end="zoomminus.mouseout"/>
                        </use>
                        <path d="M-4,0h8" fill="none" stroke="white" stroke-width="1.5" pointer-events="none"/>
                </g>
                <g id="dirArrow">
                        <path fill="none" stroke="white" stroke-width="1.5" d="M0,-3.0v7 M-2.5,-0.5L0,-3.0L2.5,-0.5"/>
                </g>
               <g id="resetDef">
                       <use xlink:href="#rim2" fill="#404040">
                               <set attributeName="fill" to="#808080" begin="reset.mouseover" end="reset.mouseout"/>
                       </use>
               </g>
        </defs>

<script type="text/javascript">
var viewWidth = 546;
var viewHeight = 1814;
var sectionId = 'dynsection-4';
</script>
<script xlink:href="svgpan.js"/>
<svg id="graph" class="graph">
<g id="viewport">
<title>udpreceiver::startreceiver</title>
<polygon fill="white" stroke="transparent" points="-4,4 -4,-1810 542,-1810 542,4 -4,4"/>
<!-- Node1 -->
<g id="node1" class="node">
<title>Node1</title>
<g id="a_node1"><a xlink:title=" ">
<polygon fill="#bfbfbf" stroke="black" points="0,-893.5 0,-912.5 125,-912.5 125,-893.5 0,-893.5"/>
<text text-anchor="middle" x="62.5" y="-900.5" font-family="Helvetica,sans-Serif" font-size="10.00">udpreceiver::startreceiver</text>
</a>
</g>
</g>
<!-- Node2 -->
<g id="node2" class="node">
<title>Node2</title>
<g id="a_node2"><a xlink:href="classudpreceiver.html#a725cf4f5cf798fd5baed7eee2e6dd5f2" target="_top" xlink:title=" ">
<polygon fill="white" stroke="red" points="161,-888 161,-918 302,-918 302,-888 161,-888"/>
<text text-anchor="start" x="169" y="-906" font-family="Helvetica,sans-Serif" font-size="10.00">udpreceiver::processPending</text>
<text text-anchor="middle" x="231.5" y="-895" font-family="Helvetica,sans-Serif" font-size="10.00">Datagrams</text>
</a>
</g>
</g>
<!-- Node1&#45;&gt;Node2 -->
<g id="edge1" class="edge">
<title>Node1&#45;&gt;Node2</title>
<path fill="none" stroke="midnightblue" d="M125.21,-903C133.56,-903 142.22,-903 150.82,-903"/>
<polygon fill="midnightblue" stroke="midnightblue" points="150.88,-906.5 160.88,-903 150.88,-899.5 150.88,-906.5"/>
</g>
<!-- Node3 -->
<g id="node3" class="node">
<title>Node3</title>
<g id="a_node3"><a xlink:href="classDashBoard.html#a0b0dea290f37471c7c90d660d62d5642" target="_top" xlink:title=" ">
<polygon fill="white" stroke="black" points="369.5,-1786.5 369.5,-1805.5 506.5,-1805.5 506.5,-1786.5 369.5,-1786.5"/>
<text text-anchor="middle" x="438" y="-1793.5" font-family="Helvetica,sans-Serif" font-size="10.00">DashBoard::setaccelpedpos</text>
</a>
</g>
</g>
<!-- Node2&#45;&gt;Node3 -->
<g id="edge2" class="edge">
<title>Node2&#45;&gt;Node3</title>
<path fill="none" stroke="midnightblue" d="M233.28,-918.35C239.05,-1029.74 276.75,-1711.34 338,-1777 344.07,-1783.51 351.64,-1788.18 359.87,-1791.49"/>
<polygon fill="midnightblue" stroke="midnightblue" points="358.8,-1794.82 369.39,-1794.67 361.02,-1788.18 358.8,-1794.82"/>
</g>
<!-- Node4 -->
<g id="node4" class="node">
<title>Node4</title>
<g id="a_node4"><a xlink:href="classDashBoard.html#aa05672c8a53a9d7043b956704b24e195" target="_top" xlink:title=" ">
<polygon fill="white" stroke="black" points="372,-1748.5 372,-1767.5 504,-1767.5 504,-1748.5 372,-1748.5"/>
<text text-anchor="middle" x="438" y="-1755.5" font-family="Helvetica,sans-Serif" font-size="10.00">DashBoard::setAccelTimer</text>
</a>
</g>
</g>
<!-- Node2&#45;&gt;Node4 -->
<g id="edge3" class="edge">
<title>Node2&#45;&gt;Node4</title>
<path fill="none" stroke="midnightblue" d="M233.35,-918.03C239.54,-1025.63 279.27,-1676.38 338,-1739 344.66,-1746.11 353.11,-1751.02 362.25,-1754.36"/>
<polygon fill="midnightblue" stroke="midnightblue" points="361.39,-1757.76 371.98,-1757.29 363.42,-1751.05 361.39,-1757.76"/>
</g>
<!-- Node5 -->
<g id="node5" class="node">
<title>Node5</title>
<g id="a_node5"><a xlink:href="classDashBoard.html#a4f6cd3eac155d425aaa63efe9022005a" target="_top" xlink:title=" ">
<polygon fill="white" stroke="black" points="383,-1710.5 383,-1729.5 493,-1729.5 493,-1710.5 383,-1710.5"/>
<text text-anchor="middle" x="438" y="-1717.5" font-family="Helvetica,sans-Serif" font-size="10.00">DashBoard::setaccelx</text>
</a>
</g>
</g>
<!-- Node2&#45;&gt;Node5 -->
<g id="edge4" class="edge">
<title>Node2&#45;&gt;Node5</title>
<path fill="none" stroke="midnightblue" d="M232.2,-918.3C230.53,-1018.67 226.28,-1582.58 338,-1701 347.19,-1710.74 359.72,-1716.35 372.79,-1719.44"/>
<polygon fill="midnightblue" stroke="midnightblue" points="372.36,-1722.92 382.84,-1721.33 373.66,-1716.04 372.36,-1722.92"/>
</g>
<!-- Node6 -->
<g id="node6" class="node">
<title>Node6</title>
<g id="a_node6"><a xlink:href="classDashBoard.html#ad3b7b45503e833e2bba34e8779a152f2" target="_top" xlink:title=" ">
<polygon fill="white" stroke="black" points="383,-1672.5 383,-1691.5 493,-1691.5 493,-1672.5 383,-1672.5"/>
<text text-anchor="middle" x="438" y="-1679.5" font-family="Helvetica,sans-Serif" font-size="10.00">DashBoard::setaccely</text>
</a>
</g>
</g>
<!-- Node2&#45;&gt;Node6 -->
<g id="edge5" class="edge">
<title>Node2&#45;&gt;Node6</title>
<path fill="none" stroke="midnightblue" d="M232.31,-918.2C231.4,-1015.51 231.37,-1550.71 338,-1663 347.22,-1672.71 359.77,-1678.31 372.84,-1681.4"/>
<polygon fill="midnightblue" stroke="midnightblue" points="372.41,-1684.88 382.88,-1683.29 373.7,-1678 372.41,-1684.88"/>
</g>
<!-- Node7 -->
<g id="node7" class="node">
<title>Node7</title>
<g id="a_node7"><a xlink:href="classDashBoard.html#ac1082f76daaa67d61cb1917bf62937cf" target="_top" xlink:title=" ">
<polygon fill="white" stroke="black" points="383,-1634.5 383,-1653.5 493,-1653.5 493,-1634.5 383,-1634.5"/>
<text text-anchor="middle" x="438" y="-1641.5" font-family="Helvetica,sans-Serif" font-size="10.00">DashBoard::setaccelz</text>
</a>
</g>
</g>
<!-- Node2&#45;&gt;Node7 -->
<g id="edge6" class="edge">
<title>Node2&#45;&gt;Node7</title>
<path fill="none" stroke="midnightblue" d="M232.43,-918.05C232.31,-1012.12 236.43,-1518.81 338,-1625 347.25,-1634.68 359.82,-1640.26 372.89,-1643.35"/>
<polygon fill="midnightblue" stroke="midnightblue" points="372.46,-1646.83 382.93,-1645.24 373.75,-1639.95 372.46,-1646.83"/>
</g>
<!-- Node8 -->
<g id="node8" class="node">
<title>Node8</title>
<g id="a_node8"><a xlink:href="classDashBoard.html#a955b5f759d86b9b25f8543d7b990c136" target="_top" xlink:title=" ">
<polygon fill="white" stroke="black" points="361,-1596.5 361,-1615.5 515,-1615.5 515,-1596.5 361,-1596.5"/>
<text text-anchor="middle" x="438" y="-1603.5" font-family="Helvetica,sans-Serif" font-size="10.00">DashBoard::setactiveboosttable</text>
</a>
</g>
</g>
<!-- Node2&#45;&gt;Node8 -->
<g id="edge7" class="edge">
<title>Node2&#45;&gt;Node8</title>
<path fill="none" stroke="midnightblue" d="M232.56,-918.14C233.27,-1009.53 241.58,-1486.98 338,-1587 341.95,-1591.09 346.49,-1594.46 351.41,-1597.2"/>
<polygon fill="midnightblue" stroke="midnightblue" points="350.09,-1600.45 360.63,-1601.51 353.05,-1594.11 350.09,-1600.45"/>
</g>
<!-- Node9 -->
<g id="node9" class="node">
<title>Node9</title>
<g id="a_node9"><a xlink:href="classDashBoard.html#a4e8a0ad13795a9e3fad873abba577b8a" target="_top" xlink:title=" ">
<polygon fill="white" stroke="black" points="363.5,-1558.5 363.5,-1577.5 512.5,-1577.5 512.5,-1558.5 363.5,-1558.5"/>
<text text-anchor="middle" x="438" y="-1565.5" font-family="Helvetica,sans-Serif" font-size="10.00">DashBoard::setactivetunetable</text>
</a>
</g>
</g>
<!-- Node2&#45;&gt;Node9 -->
<g id="edge8" class="edge">
<title>Node2&#45;&gt;Node9</title>
<path fill="none" stroke="midnightblue" d="M232.71,-918.16C234.28,-1006.58 246.68,-1455.12 338,-1549 342.56,-1553.69 347.91,-1557.42 353.71,-1560.36"/>
<polygon fill="midnightblue" stroke="midnightblue" points="352.57,-1563.68 363.15,-1564.37 355.31,-1557.24 352.57,-1563.68"/>
</g>
<!-- Node10 -->
<g id="node10" class="node">
<title>Node10</title>
<g id="a_node10"><a xlink:href="classDashBoard.html#af9bf8496db927887bc4ab1b66c5f6ca8" target="_top" xlink:title=" ">
<polygon fill="white" stroke="black" points="387,-1520.5 387,-1539.5 489,-1539.5 489,-1520.5 387,-1520.5"/>
<text text-anchor="middle" x="438" y="-1527.5" font-family="Helvetica,sans-Serif" font-size="10.00">DashBoard::setAFR</text>
</a>
</g>
</g>
<!-- Node2&#45;&gt;Node10 -->
<g id="edge9" class="edge">
<title>Node2&#45;&gt;Node10</title>
<path fill="none" stroke="midnightblue" d="M232.88,-918.1C235.34,-1003.29 251.76,-1423.21 338,-1511 348.31,-1521.5 362.53,-1527.15 376.98,-1530.01"/>
<polygon fill="midnightblue" stroke="midnightblue" points="376.56,-1533.48 386.98,-1531.56 377.63,-1526.57 376.56,-1533.48"/>
</g>
<!-- Node11 -->
<g id="node11" class="node">
<title>Node11</title>
<g id="a_node11"><a xlink:href="classDashBoard.html#abe791bb1a1dab6e8021788000c6a271f" target="_top" xlink:title=" ">
<polygon fill="white" stroke="black" points="378.5,-1482.5 378.5,-1501.5 497.5,-1501.5 497.5,-1482.5 378.5,-1482.5"/>
<text text-anchor="middle" x="438" y="-1489.5" font-family="Helvetica,sans-Serif" font-size="10.00">DashBoard::setAFRcyl1</text>
</a>
</g>
</g>
<!-- Node2&#45;&gt;Node11 -->
<g id="edge10" class="edge">
<title>Node2&#45;&gt;Node11</title>
<path fill="none" stroke="midnightblue" d="M233.07,-918.22C236.49,-1000.5 256.88,-1391.34 338,-1473 346.25,-1481.31 356.95,-1486.57 368.26,-1489.81"/>
<polygon fill="midnightblue" stroke="midnightblue" points="367.77,-1493.29 378.3,-1492.17 369.36,-1486.48 367.77,-1493.29"/>
</g>
<!-- Node12 -->
<g id="node12" class="node">
<title>Node12</title>
<g id="a_node12"><a xlink:href="classDashBoard.html#a688c2429b458e04dfe7306057728af02" target="_top" xlink:title=" ">
<polygon fill="white" stroke="black" points="378.5,-1444.5 378.5,-1463.5 497.5,-1463.5 497.5,-1444.5 378.5,-1444.5"/>
<text text-anchor="middle" x="438" y="-1451.5" font-family="Helvetica,sans-Serif" font-size="10.00">DashBoard::setAFRcyl2</text>
</a>
</g>
</g>
<!-- Node2&#45;&gt;Node12 -->
<g id="edge11" class="edge">
<title>Node2&#45;&gt;Node12</title>
<path fill="none" stroke="midnightblue" d="M233.29,-918.24C237.71,-997.25 261.95,-1359.41 338,-1435 346.3,-1443.25 357.03,-1448.49 368.34,-1451.73"/>
<polygon fill="midnightblue" stroke="midnightblue" points="367.86,-1455.21 378.39,-1454.08 369.45,-1448.39 367.86,-1455.21"/>
</g>
<!-- Node13 -->
<g id="node13" class="node">
<title>Node13</title>
<g id="a_node13"><a xlink:href="classDashBoard.html#abb11fb07b35dc1b733ad07fc1e175823" target="_top" xlink:title=" ">
<polygon fill="white" stroke="black" points="378.5,-1406.5 378.5,-1425.5 497.5,-1425.5 497.5,-1406.5 378.5,-1406.5"/>
<text text-anchor="middle" x="438" y="-1413.5" font-family="Helvetica,sans-Serif" font-size="10.00">DashBoard::setAFRcyl3</text>
</a>
</g>
</g>
<!-- Node2&#45;&gt;Node13 -->
<g id="edge12" class="edge">
<title>Node2&#45;&gt;Node13</title>
<path fill="none" stroke="midnightblue" d="M233.55,-918.4C239.06,-994.28 267.05,-1327.51 338,-1397 346.36,-1405.19 357.12,-1410.4 368.44,-1413.63"/>
<polygon fill="midnightblue" stroke="midnightblue" points="367.96,-1417.11 378.49,-1415.97 369.55,-1410.29 367.96,-1417.11"/>
</g>
<!-- Node14 -->
<g id="node14" class="node">
<title>Node14</title>
<g id="a_node14"><a xlink:href="classDashBoard.html#a4aa46189718d489f89a6429c0b32c07d" target="_top" xlink:title=" ">
<polygon fill="white" stroke="black" points="378.5,-1368.5 378.5,-1387.5 497.5,-1387.5 497.5,-1368.5 378.5,-1368.5"/>
<text text-anchor="middle" x="438" y="-1375.5" font-family="Helvetica,sans-Serif" font-size="10.00">DashBoard::setAFRcyl4</text>
</a>
</g>
</g>
<!-- Node2&#45;&gt;Node14 -->
<g id="edge13" class="edge">
<title>Node2&#45;&gt;Node14</title>
<path fill="none" stroke="midnightblue" d="M233.83,-918.17C240.42,-990.04 272.01,-1295.45 338,-1359 346.39,-1367.07 357.1,-1372.24 368.36,-1375.45"/>
<polygon fill="midnightblue" stroke="midnightblue" points="367.82,-1378.92 378.35,-1377.8 369.42,-1372.11 367.82,-1378.92"/>
</g>
<!-- Node15 -->
<g id="node15" class="node">
<title>Node15</title>
<g id="a_node15"><a xlink:href="classDashBoard.html#abd88a24e87885fe03b74ac5259dfc429" target="_top" xlink:title=" ">
<polygon fill="white" stroke="black" points="378.5,-1330.5 378.5,-1349.5 497.5,-1349.5 497.5,-1330.5 378.5,-1330.5"/>
<text text-anchor="middle" x="438" y="-1337.5" font-family="Helvetica,sans-Serif" font-size="10.00">DashBoard::setAFRcyl5</text>
</a>
</g>
</g>
<!-- Node2&#45;&gt;Node15 -->
<g id="edge14" class="edge">
<title>Node2&#45;&gt;Node15</title>
<path fill="none" stroke="midnightblue" d="M234.18,-918.26C241.99,-986.58 277.04,-1263.46 338,-1321 346.47,-1328.99 357.21,-1334.11 368.49,-1337.32"/>
<polygon fill="midnightblue" stroke="midnightblue" points="367.96,-1340.78 378.49,-1339.66 369.55,-1333.97 367.96,-1340.78"/>
</g>
<!-- Node16 -->
<g id="node16" class="node">
<title>Node16</title>
<g id="a_node16"><a xlink:href="classDashBoard.html#aa24887f772a3280b4794908b7442f0ea" target="_top" xlink:title=" ">
<polygon fill="white" stroke="black" points="378.5,-1292.5 378.5,-1311.5 497.5,-1311.5 497.5,-1292.5 378.5,-1292.5"/>
<text text-anchor="middle" x="438" y="-1299.5" font-family="Helvetica,sans-Serif" font-size="10.00">DashBoard::setAFRcyl6</text>
</a>
</g>
</g>
<!-- Node2&#45;&gt;Node16 -->
<g id="edge15" class="edge">
<title>Node2&#45;&gt;Node16</title>
<path fill="none" stroke="midnightblue" d="M234.57,-918.17C243.65,-982.43 282,-1231.37 338,-1283 346.51,-1290.84 357.23,-1295.9 368.45,-1299.09"/>
<polygon fill="midnightblue" stroke="midnightblue" points="367.86,-1302.55 378.39,-1301.44 369.46,-1295.74 367.86,-1302.55"/>
</g>
<!-- Node17 -->
<g id="node17" class="node">
<title>Node17</title>
<g id="a_node17"><a xlink:href="classDashBoard.html#a23712769001cdd23bfeb55c40f71aa27" target="_top" xlink:title=" ">
<polygon fill="white" stroke="black" points="378.5,-1254.5 378.5,-1273.5 497.5,-1273.5 497.5,-1254.5 378.5,-1254.5"/>
<text text-anchor="middle" x="438" y="-1261.5" font-family="Helvetica,sans-Serif" font-size="10.00">DashBoard::setAFRcyl7</text>
</a>
</g>
</g>
<!-- Node2&#45;&gt;Node17 -->
<g id="edge16" class="edge">
<title>Node2&#45;&gt;Node17</title>
<path fill="none" stroke="midnightblue" d="M232.11,-918.13C231.6,-971.85 237.58,-1155.02 338,-1245 346.57,-1252.68 357.27,-1257.67 368.43,-1260.84"/>
<polygon fill="midnightblue" stroke="midnightblue" points="367.79,-1264.28 378.33,-1263.18 369.4,-1257.47 367.79,-1264.28"/>
</g>
<!-- Node18 -->
<g id="node18" class="node">
<title>Node18</title>
<g id="a_node18"><a xlink:href="classDashBoard.html#afe492a988c5eaf4c91d5878888a8fbf9" target="_top" xlink:title=" ">
<polygon fill="white" stroke="black" points="378.5,-1216.5 378.5,-1235.5 497.5,-1235.5 497.5,-1216.5 378.5,-1216.5"/>
<text text-anchor="middle" x="438" y="-1223.5" font-family="Helvetica,sans-Serif" font-size="10.00">DashBoard::setAFRcyl8</text>
</a>
</g>
</g>
<!-- Node2&#45;&gt;Node18 -->
<g id="edge17" class="edge">
<title>Node2&#45;&gt;Node18</title>
<path fill="none" stroke="midnightblue" d="M232.77,-918.2C234.55,-968.15 247.37,-1128.6 338,-1207 346.65,-1214.48 357.34,-1219.38 368.45,-1222.53"/>
<polygon fill="midnightblue" stroke="midnightblue" points="367.76,-1225.96 378.3,-1224.87 369.38,-1219.15 367.76,-1225.96"/>
</g>
<!-- Node19 -->
<g id="node19" class="node">
<title>Node19</title>
<g id="a_node19"><a xlink:href="classDashBoard.html#af25fbf612176348df17cd9fc61b5ae12" target="_top" xlink:title=" ">
<polygon fill="white" stroke="black" points="341,-1178.5 341,-1197.5 535,-1197.5 535,-1178.5 341,-1178.5"/>
<text text-anchor="middle" x="438" y="-1185.5" font-family="Helvetica,sans-Serif" font-size="10.00">DashBoard::setAFRLEFTBANKACTUAL</text>
</a>
</g>
</g>
<!-- Node2&#45;&gt;Node19 -->
<g id="edge18" class="edge">
<title>Node2&#45;&gt;Node19</title>
<path fill="none" stroke="midnightblue" d="M233.62,-918.25C237.85,-964.15 257.06,-1102 338,-1169 340.01,-1170.66 342.11,-1172.19 344.3,-1173.6"/>
<polygon fill="midnightblue" stroke="midnightblue" points="342.67,-1176.7 353.12,-1178.48 346.06,-1170.57 342.67,-1176.7"/>
</g>
<!-- Node20 -->
<g id="node20" class="node">
<title>Node20</title>
<g id="a_node20"><a xlink:href="classDashBoard.html#afbfa5c2d45bc20ba87f8156a666388e9" target="_top" xlink:title=" ">
<polygon fill="white" stroke="black" points="341.5,-1140.5 341.5,-1159.5 534.5,-1159.5 534.5,-1140.5 341.5,-1140.5"/>
<text text-anchor="middle" x="438" y="-1147.5" font-family="Helvetica,sans-Serif" font-size="10.00">DashBoard::setAFRLEFTBANKTARGET</text>
</a>
</g>
</g>
<!-- Node2&#45;&gt;Node20 -->
<g id="edge19" class="edge">
<title>Node2&#45;&gt;Node20</title>
<path fill="none" stroke="midnightblue" d="M234.7,-918.15C241.55,-959.53 266.53,-1075.13 338,-1131 340.11,-1132.65 342.32,-1134.17 344.62,-1135.57"/>
<polygon fill="midnightblue" stroke="midnightblue" points="343.35,-1138.86 353.83,-1140.4 346.6,-1132.66 343.35,-1138.86"/>
</g>
<!-- Node21 -->
<g id="node21" class="node">
<title>Node21</title>
<g id="a_node21"><a xlink:href="classDashBoard.html#a6f07cd5760608f9fcec728f6f24aa694" target="_top" xlink:title=" ">
<polygon fill="white" stroke="black" points="338,-1102.5 338,-1121.5 538,-1121.5 538,-1102.5 338,-1102.5"/>
<text text-anchor="middle" x="438" y="-1109.5" font-family="Helvetica,sans-Serif" font-size="10.00">DashBoard::setAFRRIGHTBANKACTUAL</text>
</a>
</g>
</g>
<!-- Node2&#45;&gt;Node21 -->
<g id="edge20" class="edge">
<title>Node2&#45;&gt;Node21</title>
<path fill="none" stroke="midnightblue" d="M236.15,-918.01C245.83,-954.47 275.81,-1047.97 338,-1093 340.54,-1094.84 343.21,-1096.51 345.98,-1098.04"/>
<polygon fill="midnightblue" stroke="midnightblue" points="344.59,-1101.25 355.12,-1102.41 347.61,-1094.94 344.59,-1101.25"/>
</g>
<!-- Node22 -->
<g id="node22" class="node">
<title>Node22</title>
<g id="a_node22"><a xlink:href="classDashBoard.html#ad16ccbb947cf9a199cda68adad7b294b" target="_top" xlink:title=" ">
<polygon fill="white" stroke="black" points="338,-1064.5 338,-1083.5 538,-1083.5 538,-1064.5 338,-1064.5"/>
<text text-anchor="middle" x="438" y="-1071.5" font-family="Helvetica,sans-Serif" font-size="10.00">DashBoard::setAFRRIGHTBANKTARGET</text>
</a>
</g>
</g>
<!-- Node2&#45;&gt;Node22 -->
<g id="edge21" class="edge">
<title>Node2&#45;&gt;Node22</title>
<path fill="none" stroke="midnightblue" d="M238.28,-918C251.08,-949.08 284.96,-1020.49 338,-1055 341.16,-1057.05 344.48,-1058.9 347.92,-1060.55"/>
<polygon fill="midnightblue" stroke="midnightblue" points="346.71,-1063.83 357.28,-1064.49 349.43,-1057.38 346.71,-1063.83"/>
</g>
<!-- Node23 -->
<g id="node23" class="node">
<title>Node23</title>
<g id="a_node23"><a xlink:href="classDashBoard.html#a517fad7da3ccbfb90cecf9a3498496d2" target="_top" xlink:title=" ">
<polygon fill="white" stroke="black" points="366,-1026.5 366,-1045.5 510,-1045.5 510,-1026.5 366,-1026.5"/>
<text text-anchor="middle" x="438" y="-1033.5" font-family="Helvetica,sans-Serif" font-size="10.00">DashBoard::setairtempensor2</text>
</a>
</g>
</g>
<!-- Node2&#45;&gt;Node23 -->
<g id="edge22" class="edge">
<title>Node2&#45;&gt;Node23</title>
<path fill="none" stroke="midnightblue" d="M241.75,-918.05C257.94,-942.98 293.91,-992.52 338,-1017 343.62,-1020.12 349.67,-1022.74 355.91,-1024.93"/>
<polygon fill="midnightblue" stroke="midnightblue" points="355.24,-1028.39 365.83,-1028.04 357.33,-1021.71 355.24,-1028.39"/>
</g>
<!-- Node24 -->
<g id="node24" class="node">
<title>Node24</title>
<g id="a_node24"><a xlink:href="classDashBoard.html#aaa8b870e9427f883ff81c18eb0f4fc83" target="_top" xlink:title=" ">
<polygon fill="white" stroke="black" points="370,-988.5 370,-1007.5 506,-1007.5 506,-988.5 370,-988.5"/>
<text text-anchor="middle" x="438" y="-995.5" font-family="Helvetica,sans-Serif" font-size="10.00">DashBoard::setalternatorfail</text>
</a>
</g>
</g>
<!-- Node2&#45;&gt;Node24 -->
<g id="edge23" class="edge">
<title>Node2&#45;&gt;Node24</title>
<path fill="none" stroke="midnightblue" d="M248.63,-918.13C268.21,-935.62 302.97,-963.9 338,-979 344.93,-981.99 352.33,-984.51 359.85,-986.63"/>
<polygon fill="midnightblue" stroke="midnightblue" points="359.22,-990.08 369.78,-989.2 360.97,-983.31 359.22,-990.08"/>
</g>
<!-- Node25 -->
<g id="node25" class="node">
<title>Node25</title>
<g id="a_node25"><a xlink:href="classDashBoard.html#aa0cabd28735876eef8909a2306fbc2f7" target="_top" xlink:title=" ">
<polygon fill="white" stroke="black" points="374,-950.5 374,-969.5 502,-969.5 502,-950.5 374,-950.5"/>
<text text-anchor="middle" x="438" y="-957.5" font-family="Helvetica,sans-Serif" font-size="10.00">DashBoard::setambipress</text>
</a>
</g>
</g>
<!-- Node2&#45;&gt;Node25 -->
<g id="edge24" class="edge">
<title>Node2&#45;&gt;Node25</title>
<path fill="none" stroke="midnightblue" d="M270.13,-918.17C290.06,-925.79 315.09,-934.72 338,-941 347.98,-943.74 358.62,-946.22 369.1,-948.43"/>
<polygon fill="midnightblue" stroke="midnightblue" points="368.57,-951.89 379.07,-950.45 369.96,-945.03 368.57,-951.89"/>
</g>
<!-- Node26 -->
<g id="node26" class="node">
<title>Node26</title>
<g id="a_node26"><a xlink:href="classDashBoard.html#ac891c7f4f0b60751e79a4f14883e8cf8" target="_top" xlink:title=" ">
<polygon fill="white" stroke="black" points="375.5,-912.5 375.5,-931.5 500.5,-931.5 500.5,-912.5 375.5,-912.5"/>
<text text-anchor="middle" x="438" y="-919.5" font-family="Helvetica,sans-Serif" font-size="10.00">DashBoard::setambitemp</text>
</a>
</g>
</g>
<!-- Node2&#45;&gt;Node26 -->
<g id="edge25" class="edge">
<title>Node2&#45;&gt;Node26</title>
<path fill="none" stroke="midnightblue" d="M302.02,-909.46C322.33,-911.35 344.56,-913.41 365.01,-915.31"/>
<polygon fill="midnightblue" stroke="midnightblue" points="364.93,-918.82 375.21,-916.26 365.58,-911.85 364.93,-918.82"/>
</g>
<!-- Node27 -->
<g id="node27" class="node">
<title>Node27</title>
<g id="a_node27"><a xlink:href="classDashBoard.html#a32f1291a839a76f03c89e5b056e4d721" target="_top" xlink:title=" ">
<polygon fill="white" stroke="red" points="379,-874.5 379,-893.5 497,-893.5 497,-874.5 379,-874.5"/>
<text text-anchor="middle" x="438" y="-881.5" font-family="Helvetica,sans-Serif" font-size="10.00">DashBoard::setAnalog0</text>
</a>
</g>
</g>
<!-- Node2&#45;&gt;Node27 -->
<g id="edge26" class="edge">
<title>Node2&#45;&gt;Node27</title>
<path fill="none" stroke="midnightblue" d="M302.02,-896.54C323.61,-894.53 347.38,-892.33 368.87,-890.33"/>
<polygon fill="midnightblue" stroke="midnightblue" points="369.27,-893.81 378.9,-889.4 368.62,-886.84 369.27,-893.81"/>
</g>
<!-- Node29 -->
<g id="node28" class="node">
<title>Node29</title>
<g id="a_node28"><a xlink:href="classDashBoard.html#a7332f1e427ec9652c0f1fc88df514889" target="_top" xlink:title=" ">
<polygon fill="white" stroke="red" points="379,-836.5 379,-855.5 497,-855.5 497,-836.5 379,-836.5"/>
<text text-anchor="middle" x="438" y="-843.5" font-family="Helvetica,sans-Serif" font-size="10.00">DashBoard::setAnalog1</text>
</a>
</g>
</g>
<!-- Node2&#45;&gt;Node29 -->
<g id="edge27" class="edge">
<title>Node2&#45;&gt;Node29</title>
<path fill="none" stroke="midnightblue" d="M270.13,-887.83C290.06,-880.21 315.09,-871.28 338,-865 347.98,-862.26 358.62,-859.78 369.1,-857.57"/>
<polygon fill="midnightblue" stroke="midnightblue" points="369.96,-860.97 379.07,-855.55 368.57,-854.11 369.96,-860.97"/>
</g>
<!-- Node31 -->
<g id="node29" class="node">
<title>Node31</title>
<g id="a_node29"><a xlink:href="classDashBoard.html#af80d4ebd0329387229515c7714cb917a" target="_top" xlink:title=" ">
<polygon fill="white" stroke="red" points="376.5,-798.5 376.5,-817.5 499.5,-817.5 499.5,-798.5 376.5,-798.5"/>
<text text-anchor="middle" x="438" y="-805.5" font-family="Helvetica,sans-Serif" font-size="10.00">DashBoard::setAnalog10</text>
</a>
</g>
</g>
<!-- Node2&#45;&gt;Node31 -->
<g id="edge28" class="edge">
<title>Node2&#45;&gt;Node31</title>
<path fill="none" stroke="midnightblue" d="M248.63,-887.87C268.21,-870.38 302.97,-842.1 338,-827 346.98,-823.13 356.76,-820.04 366.55,-817.58"/>
<polygon fill="midnightblue" stroke="midnightblue" points="367.37,-820.99 376.33,-815.33 365.8,-814.17 367.37,-820.99"/>
</g>
<!-- Node33 -->
<g id="node30" class="node">
<title>Node33</title>
<g id="a_node30"><a xlink:href="classDashBoard.html#a0e2110f89bcc628e8b38ed4d35e097ab" target="_top" xlink:title=" ">
<polygon fill="white" stroke="red" points="379,-760.5 379,-779.5 497,-779.5 497,-760.5 379,-760.5"/>
<text text-anchor="middle" x="438" y="-767.5" font-family="Helvetica,sans-Serif" font-size="10.00">DashBoard::setAnalog2</text>
</a>
</g>
</g>
<!-- Node2&#45;&gt;Node33 -->
<g id="edge29" class="edge">
<title>Node2&#45;&gt;Node33</title>
<path fill="none" stroke="midnightblue" d="M241.75,-887.95C257.94,-863.02 293.91,-813.48 338,-789 347.49,-783.73 358.19,-779.9 368.96,-777.12"/>
<polygon fill="midnightblue" stroke="midnightblue" points="369.87,-780.5 378.84,-774.85 368.31,-773.68 369.87,-780.5"/>
</g>
<!-- Node35 -->
<g id="node31" class="node">
<title>Node35</title>
<g id="a_node31"><a xlink:href="classDashBoard.html#a5a1905dfab2d1151e17901655593215d" target="_top" xlink:title=" ">
<polygon fill="white" stroke="red" points="379,-722.5 379,-741.5 497,-741.5 497,-722.5 379,-722.5"/>
<text text-anchor="middle" x="438" y="-729.5" font-family="Helvetica,sans-Serif" font-size="10.00">DashBoard::setAnalog3</text>
</a>
</g>
</g>
<!-- Node2&#45;&gt;Node35 -->
<g id="edge30" class="edge">
<title>Node2&#45;&gt;Node35</title>
<path fill="none" stroke="midnightblue" d="M238.28,-888C251.08,-856.92 284.96,-785.51 338,-751 347.27,-744.97 357.99,-740.76 368.88,-737.84"/>
<polygon fill="midnightblue" stroke="midnightblue" points="369.95,-741.18 378.89,-735.5 368.36,-734.37 369.95,-741.18"/>
</g>
<!-- Node37 -->
<g id="node32" class="node">
<title>Node37</title>
<g id="a_node32"><a xlink:href="classDashBoard.html#a40763916330577d691a520d66398832e" target="_top" xlink:title=" ">
<polygon fill="white" stroke="red" points="379,-684.5 379,-703.5 497,-703.5 497,-684.5 379,-684.5"/>
<text text-anchor="middle" x="438" y="-691.5" font-family="Helvetica,sans-Serif" font-size="10.00">DashBoard::setAnalog4</text>
</a>
</g>
</g>
<!-- Node2&#45;&gt;Node37 -->
<g id="edge31" class="edge">
<title>Node2&#45;&gt;Node37</title>
<path fill="none" stroke="midnightblue" d="M236.15,-887.99C245.83,-851.53 275.81,-758.03 338,-713 347.15,-706.37 357.99,-701.88 369.08,-698.86"/>
<polygon fill="midnightblue" stroke="midnightblue" points="369.91,-702.26 378.85,-696.58 368.31,-695.45 369.91,-702.26"/>
</g>
<!-- Node39 -->
<g id="node33" class="node">
<title>Node39</title>
<g id="a_node33"><a xlink:href="classDashBoard.html#a2c10a112f91ddf216b17e0cf393e2ef2" target="_top" xlink:title=" ">
<polygon fill="white" stroke="red" points="379,-646.5 379,-665.5 497,-665.5 497,-646.5 379,-646.5"/>
<text text-anchor="middle" x="438" y="-653.5" font-family="Helvetica,sans-Serif" font-size="10.00">DashBoard::setAnalog5</text>
</a>
</g>
</g>
<!-- Node2&#45;&gt;Node39 -->
<g id="edge32" class="edge">
<title>Node2&#45;&gt;Node39</title>
<path fill="none" stroke="midnightblue" d="M234.7,-887.85C241.55,-846.47 266.53,-730.87 338,-675 347.01,-667.96 357.87,-663.27 369.06,-660.2"/>
<polygon fill="midnightblue" stroke="midnightblue" points="369.98,-663.57 378.92,-657.89 368.39,-656.76 369.98,-663.57"/>
</g>
<!-- Node41 -->
<g id="node34" class="node">
<title>Node41</title>
<g id="a_node34"><a xlink:href="classDashBoard.html#ab963699c788fbccbdcbd7cd3da390749" target="_top" xlink:title=" ">
<polygon fill="white" stroke="red" points="379,-608.5 379,-627.5 497,-627.5 497,-608.5 379,-608.5"/>
<text text-anchor="middle" x="438" y="-615.5" font-family="Helvetica,sans-Serif" font-size="10.00">DashBoard::setAnalog6</text>
</a>
</g>
</g>
<!-- Node2&#45;&gt;Node41 -->
<g id="edge33" class="edge">
<title>Node2&#45;&gt;Node41</title>
<path fill="none" stroke="midnightblue" d="M233.62,-887.75C237.85,-841.85 257.06,-704 338,-637 346.86,-629.66 357.7,-624.84 368.92,-621.73"/>
<polygon fill="midnightblue" stroke="midnightblue" points="369.89,-625.1 378.83,-619.41 368.3,-618.28 369.89,-625.1"/>
</g>
<!-- Node43 -->
<g id="node35" class="node">
<title>Node43</title>
<g id="a_node35"><a xlink:href="classDashBoard.html#a634dcb433d82ef26bb450eab1e5497c1" target="_top" xlink:title=" ">
<polygon fill="white" stroke="red" points="379,-570.5 379,-589.5 497,-589.5 497,-570.5 379,-570.5"/>
<text text-anchor="middle" x="438" y="-577.5" font-family="Helvetica,sans-Serif" font-size="10.00">DashBoard::setAnalog7</text>
</a>
</g>
</g>
<!-- Node2&#45;&gt;Node43 -->
<g id="edge34" class="edge">
<title>Node2&#45;&gt;Node43</title>
<path fill="none" stroke="midnightblue" d="M232.77,-887.8C234.55,-837.85 247.37,-677.4 338,-599 346.75,-591.43 357.59,-586.5 368.85,-583.36"/>
<polygon fill="midnightblue" stroke="midnightblue" points="369.87,-586.71 378.81,-581.03 368.28,-579.9 369.87,-586.71"/>
</g>
<!-- Node45 -->
<g id="node36" class="node">
<title>Node45</title>
<g id="a_node36"><a xlink:href="classDashBoard.html#a1ceaa05e2a143f2cb8e440d4044d82f3" target="_top" xlink:title=" ">
<polygon fill="white" stroke="red" points="379,-532.5 379,-551.5 497,-551.5 497,-532.5 379,-532.5"/>
<text text-anchor="middle" x="438" y="-539.5" font-family="Helvetica,sans-Serif" font-size="10.00">DashBoard::setAnalog8</text>
</a>
</g>
</g>
<!-- Node2&#45;&gt;Node45 -->
<g id="edge35" class="edge">
<title>Node2&#45;&gt;Node45</title>
<path fill="none" stroke="midnightblue" d="M232.11,-887.87C231.6,-834.15 237.58,-650.98 338,-561 346.67,-553.23 357.52,-548.22 368.83,-545.05"/>
<polygon fill="midnightblue" stroke="midnightblue" points="369.89,-548.4 378.84,-542.72 368.31,-541.58 369.89,-548.4"/>
</g>
<!-- Node47 -->
<g id="node37" class="node">
<title>Node47</title>
<g id="a_node37"><a xlink:href="classDashBoard.html#a8a490956f9d7065747182f10d004e75a" target="_top" xlink:title=" ">
<polygon fill="white" stroke="red" points="379,-494.5 379,-513.5 497,-513.5 497,-494.5 379,-494.5"/>
<text text-anchor="middle" x="438" y="-501.5" font-family="Helvetica,sans-Serif" font-size="10.00">DashBoard::setAnalog9</text>
</a>
</g>
</g>
<!-- Node2&#45;&gt;Node47 -->
<g id="edge36" class="edge">
<title>Node2&#45;&gt;Node47</title>
<path fill="none" stroke="midnightblue" d="M234.57,-887.83C243.65,-823.57 282,-574.63 338,-523 346.61,-515.06 357.48,-509.98 368.84,-506.79"/>
<polygon fill="midnightblue" stroke="midnightblue" points="369.96,-510.13 378.91,-504.46 368.38,-503.31 369.96,-510.13"/>
</g>
<!-- Node49 -->
<g id="node38" class="node">
<title>Node49</title>
<g id="a_node38"><a xlink:href="classDashBoard.html#aa1edde4167de9fc9e072672072766415" target="_top" xlink:title=" ">
<polygon fill="white" stroke="black" points="356.5,-456.5 356.5,-475.5 519.5,-475.5 519.5,-456.5 356.5,-456.5"/>
<text text-anchor="middle" x="438" y="-463.5" font-family="Helvetica,sans-Serif" font-size="10.00">DashBoard::setantilaglauchswitch</text>
</a>
</g>
</g>
<!-- Node2&#45;&gt;Node49 -->
<g id="edge37" class="edge">
<title>Node2&#45;&gt;Node49</title>
<path fill="none" stroke="midnightblue" d="M234.18,-887.74C241.99,-819.42 277.04,-542.54 338,-485 340.84,-482.32 343.94,-479.96 347.22,-477.89"/>
<polygon fill="midnightblue" stroke="midnightblue" points="349.14,-480.84 356.33,-473.06 345.85,-474.66 349.14,-480.84"/>
</g>
<!-- Node50 -->
<g id="node39" class="node">
<title>Node50</title>
<g id="a_node39"><a xlink:href="classDashBoard.html#ab2c6fe755336e009366e84189764bacc" target="_top" xlink:title=" ">
<polygon fill="white" stroke="black" points="363,-418.5 363,-437.5 513,-437.5 513,-418.5 363,-418.5"/>
<text text-anchor="middle" x="438" y="-425.5" font-family="Helvetica,sans-Serif" font-size="10.00">DashBoard::setantilaglaunchon</text>
</a>
</g>
</g>
<!-- Node2&#45;&gt;Node50 -->
<g id="edge38" class="edge">
<title>Node2&#45;&gt;Node50</title>
<path fill="none" stroke="midnightblue" d="M233.83,-887.83C240.42,-815.96 272.01,-510.55 338,-447 342.44,-442.72 347.54,-439.26 353.02,-436.48"/>
<polygon fill="midnightblue" stroke="midnightblue" points="354.75,-439.54 362.57,-432.4 352,-433.11 354.75,-439.54"/>
</g>
<!-- Node51 -->
<g id="node40" class="node">
<title>Node51</title>
<g id="a_node40"><a xlink:href="classDashBoard.html#a2744428087f94fb89927566698ef16cb" target="_top" xlink:title=" ">
<polygon fill="white" stroke="black" points="378,-380.5 378,-399.5 498,-399.5 498,-380.5 378,-380.5"/>
<text text-anchor="middle" x="438" y="-387.5" font-family="Helvetica,sans-Serif" font-size="10.00">DashBoard::setautogear</text>
</a>
</g>
</g>
<!-- Node2&#45;&gt;Node51 -->
<g id="edge39" class="edge">
<title>Node2&#45;&gt;Node51</title>
<path fill="none" stroke="midnightblue" d="M233.55,-887.6C239.06,-811.72 267.05,-478.49 338,-409 346.27,-400.9 356.87,-395.72 368.05,-392.49"/>
<polygon fill="midnightblue" stroke="midnightblue" points="369.06,-395.84 377.98,-390.12 367.44,-389.03 369.06,-395.84"/>
</g>
<!-- Node52 -->
<g id="node41" class="node">
<title>Node52</title>
<g id="a_node41"><a xlink:href="classDashBoard.html#a0f2f639b3c4a600bdad0aa9d04c605f9" target="_top" xlink:title=" ">
<polygon fill="white" stroke="black" points="377.5,-342.5 377.5,-361.5 498.5,-361.5 498.5,-342.5 377.5,-342.5"/>
<text text-anchor="middle" x="438" y="-349.5" font-family="Helvetica,sans-Serif" font-size="10.00">DashBoard::setauxcalc1</text>
</a>
</g>
</g>
<!-- Node2&#45;&gt;Node52 -->
<g id="edge40" class="edge">
<title>Node2&#45;&gt;Node52</title>
<path fill="none" stroke="midnightblue" d="M233.29,-887.76C237.71,-808.75 261.95,-446.59 338,-371 346.11,-362.94 356.54,-357.75 367.56,-354.5"/>
<polygon fill="midnightblue" stroke="midnightblue" points="368.47,-357.88 377.36,-352.12 366.82,-351.08 368.47,-357.88"/>
</g>
<!-- Node53 -->
<g id="node42" class="node">
<title>Node53</title>
<g id="a_node42"><a xlink:href="classDashBoard.html#a861aa31bef07dcf75151842ac6690067" target="_top" xlink:title=" ">
<polygon fill="white" stroke="black" points="377.5,-304.5 377.5,-323.5 498.5,-323.5 498.5,-304.5 377.5,-304.5"/>
<text text-anchor="middle" x="438" y="-311.5" font-family="Helvetica,sans-Serif" font-size="10.00">DashBoard::setauxcalc2</text>
</a>
</g>
</g>
<!-- Node2&#45;&gt;Node53 -->
<g id="edge41" class="edge">
<title>Node2&#45;&gt;Node53</title>
<path fill="none" stroke="midnightblue" d="M233.07,-887.78C236.49,-805.5 256.88,-414.66 338,-333 346.06,-324.89 356.46,-319.68 367.47,-316.42"/>
<polygon fill="midnightblue" stroke="midnightblue" points="368.38,-319.8 377.27,-314.03 366.73,-313 368.38,-319.8"/>
</g>
<!-- Node54 -->
<g id="node43" class="node">
<title>Node54</title>
<g id="a_node43"><a xlink:href="classDashBoard.html#a002f0cc4e715f6ea586a86092e86552b" target="_top" xlink:title=" ">
<polygon fill="white" stroke="black" points="377.5,-266.5 377.5,-285.5 498.5,-285.5 498.5,-266.5 377.5,-266.5"/>
<text text-anchor="middle" x="438" y="-273.5" font-family="Helvetica,sans-Serif" font-size="10.00">DashBoard::setauxcalc3</text>
</a>
</g>
</g>
<!-- Node2&#45;&gt;Node54 -->
<g id="edge42" class="edge">
<title>Node2&#45;&gt;Node54</title>
<path fill="none" stroke="midnightblue" d="M232.88,-887.9C235.34,-802.71 251.76,-382.79 338,-295 346.06,-286.79 356.51,-281.55 367.59,-278.28"/>
<polygon fill="midnightblue" stroke="midnightblue" points="368.55,-281.65 377.45,-275.9 366.91,-274.85 368.55,-281.65"/>
</g>
<!-- Node55 -->
<g id="node44" class="node">
<title>Node55</title>
<g id="a_node44"><a xlink:href="classDashBoard.html#a246c205a5d66404e8d516afb33f92a1c" target="_top" xlink:title=" ">
<polygon fill="white" stroke="black" points="377.5,-228.5 377.5,-247.5 498.5,-247.5 498.5,-228.5 377.5,-228.5"/>
<text text-anchor="middle" x="438" y="-235.5" font-family="Helvetica,sans-Serif" font-size="10.00">DashBoard::setauxcalc4</text>
</a>
</g>
</g>
<!-- Node2&#45;&gt;Node55 -->
<g id="edge43" class="edge">
<title>Node2&#45;&gt;Node55</title>
<path fill="none" stroke="midnightblue" d="M232.71,-887.84C234.28,-799.42 246.68,-350.88 338,-257 346.02,-248.75 356.45,-243.49 367.53,-240.22"/>
<polygon fill="midnightblue" stroke="midnightblue" points="368.48,-243.59 377.38,-237.83 366.84,-236.78 368.48,-243.59"/>
</g>
<!-- Node56 -->
<g id="node45" class="node">
<title>Node56</title>
<g id="a_node45"><a xlink:href="classDashBoard.html#a06fa75954509685808ecc85e17e73312" target="_top" xlink:title=" ">
<polygon fill="white" stroke="black" points="359,-190.5 359,-209.5 517,-209.5 517,-190.5 359,-190.5"/>
<text text-anchor="middle" x="438" y="-197.5" font-family="Helvetica,sans-Serif" font-size="10.00">DashBoard::setauxrevlimitswitch</text>
</a>
</g>
</g>
<!-- Node2&#45;&gt;Node56 -->
<g id="edge44" class="edge">
<title>Node2&#45;&gt;Node56</title>
<path fill="none" stroke="midnightblue" d="M232.56,-887.86C233.27,-796.47 241.58,-319.02 338,-219 341.46,-215.41 345.38,-212.38 349.61,-209.84"/>
<polygon fill="midnightblue" stroke="midnightblue" points="351.33,-212.89 358.68,-205.27 348.18,-206.64 351.33,-212.89"/>
</g>
<!-- Node57 -->
<g id="node46" class="node">
<title>Node57</title>
<g id="a_node46"><a xlink:href="classDashBoard.html#a8fb1b3f8d0a98a92ef3363bf471ddd31" target="_top" xlink:title=" ">
<polygon fill="white" stroke="black" points="383,-152.5 383,-171.5 493,-171.5 493,-152.5 383,-152.5"/>
<text text-anchor="middle" x="438" y="-159.5" font-family="Helvetica,sans-Serif" font-size="10.00">DashBoard::setAUXT</text>
</a>
</g>
</g>
<!-- Node2&#45;&gt;Node57 -->
<g id="edge45" class="edge">
<title>Node2&#45;&gt;Node57</title>
<path fill="none" stroke="midnightblue" d="M232.43,-887.95C232.31,-793.88 236.43,-287.19 338,-181 347.25,-171.32 359.82,-165.74 372.89,-162.65"/>
<polygon fill="midnightblue" stroke="midnightblue" points="373.75,-166.05 382.93,-160.76 372.46,-159.17 373.75,-166.05"/>
</g>
<!-- Node58 -->
<g id="node47" class="node">
<title>Node58</title>
<g id="a_node47"><a xlink:href="classDashBoard.html#ac45b78d06d5805a914ca1d75a92c18f2" target="_top" xlink:title=" ">
<polygon fill="white" stroke="black" points="373.5,-114.5 373.5,-133.5 502.5,-133.5 502.5,-114.5 373.5,-114.5"/>
<text text-anchor="middle" x="438" y="-121.5" font-family="Helvetica,sans-Serif" font-size="10.00">DashBoard::setAuxTemp1</text>
</a>
</g>
</g>
<!-- Node2&#45;&gt;Node58 -->
<g id="edge46" class="edge">
<title>Node2&#45;&gt;Node58</title>
<path fill="none" stroke="midnightblue" d="M232.31,-887.8C231.4,-790.49 231.37,-255.29 338,-143 345,-135.62 353.93,-130.62 363.55,-127.28"/>
<polygon fill="midnightblue" stroke="midnightblue" points="364.69,-130.6 373.35,-124.49 362.77,-123.87 364.69,-130.6"/>
</g>
<!-- Node59 -->
<g id="node48" class="node">
<title>Node59</title>
<g id="a_node48"><a xlink:href="classDashBoard.html#ae81a97158b6750ac06a7e352be8cf6d1" target="_top" xlink:title=" ">
<polygon fill="white" stroke="black" points="364,-76.5 364,-95.5 512,-95.5 512,-76.5 364,-76.5"/>
<text text-anchor="middle" x="438" y="-83.5" font-family="Helvetica,sans-Serif" font-size="10.00">DashBoard::setavfueleconomy</text>
</a>
</g>
</g>
<!-- Node2&#45;&gt;Node59 -->
<g id="edge47" class="edge">
<title>Node2&#45;&gt;Node59</title>
<path fill="none" stroke="midnightblue" d="M232.2,-887.7C230.53,-787.33 226.28,-223.42 338,-105 342.76,-99.95 348.42,-96.01 354.59,-92.96"/>
<polygon fill="midnightblue" stroke="midnightblue" points="356.04,-96.15 363.94,-89.09 353.36,-89.68 356.04,-96.15"/>
</g>
<!-- Node60 -->
<g id="node49" class="node">
<title>Node60</title>
<g id="a_node49"><a xlink:href="classDashBoard.html#a21635845a2258c7dbe2a7f2f7ec32345" target="_top" xlink:title=" ">
<polygon fill="white" stroke="black" points="378,-38.5 378,-57.5 498,-57.5 498,-38.5 378,-38.5"/>
<text text-anchor="middle" x="438" y="-45.5" font-family="Helvetica,sans-Serif" font-size="10.00">DashBoard::setBatteryV</text>
</a>
</g>
</g>
<!-- Node2&#45;&gt;Node60 -->
<g id="edge48" class="edge">
<title>Node2&#45;&gt;Node60</title>
<path fill="none" stroke="midnightblue" d="M233.35,-887.97C239.54,-780.37 279.27,-129.62 338,-67 346.01,-58.46 356.59,-53.09 367.86,-49.81"/>
<polygon fill="midnightblue" stroke="midnightblue" points="368.96,-53.14 377.89,-47.44 367.35,-46.33 368.96,-53.14"/>
</g>
<!-- Node61 -->
<g id="node50" class="node">
<title>Node61</title>
<g id="a_node50"><a xlink:href="classDashBoard.html#aece33981eed2cdc8dc94f4cf9ce380b7" target="_top" xlink:title=" ">
<polygon fill="white" stroke="black" points="379.5,-0.5 379.5,-19.5 496.5,-19.5 496.5,-0.5 379.5,-0.5"/>
<text text-anchor="middle" x="438" y="-7.5" font-family="Helvetica,sans-Serif" font-size="10.00">DashBoard::setbattlight</text>
</a>
</g>
</g>
<!-- Node2&#45;&gt;Node61 -->
<g id="edge49" class="edge">
<title>Node2&#45;&gt;Node61</title>
<path fill="none" stroke="midnightblue" d="M233.28,-887.65C239.05,-776.26 276.75,-94.66 338,-29 346.35,-20.05 357.52,-14.57 369.35,-11.34"/>
<polygon fill="midnightblue" stroke="midnightblue" points="370.39,-14.69 379.4,-9.12 368.88,-7.86 370.39,-14.69"/>
</g>
</g>
</svg>
        <g id="navigator" transform="translate(0 0)" fill="#404254">
                <rect fill="#f2f5e9" fill-opacity="0.5" stroke="#606060" stroke-width=".5" x="0" y="0" width="60" height="60"/>
                <use id="zoomplus" xlink:href="#zoomPlus" x="17" y="9" onmousedown="handleZoom(evt,'in')"/>
                <use id="zoomminus" xlink:href="#zoomMin" x="42" y="9" onmousedown="handleZoom(evt,'out')"/>
                <use id="reset" xlink:href="#resetDef" x="30" y="36" onmousedown="handleReset()"/>
                <g id="arrowUp" xlink:href="#dirArrow" transform="translate(30 24)" onmousedown="handlePan(0,-1)">
                  <use xlink:href="#rim" fill="#404040">
                        <set attributeName="fill" to="#808080" begin="arrowUp.mouseover" end="arrowUp.mouseout"/>
                  </use>
                  <path fill="none" stroke="white" stroke-width="1.5" d="M0,-3.0v7 M-2.5,-0.5L0,-3.0L2.5,-0.5"/>
                </g>
                <g id="arrowRight" xlink:href="#dirArrow" transform="rotate(90) translate(36 -43)" onmousedown="handlePan(1,0)">
                  <use xlink:href="#rim" fill="#404040">
                        <set attributeName="fill" to="#808080" begin="arrowRight.mouseover" end="arrowRight.mouseout"/>
                  </use>
                  <path fill="none" stroke="white" stroke-width="1.5" d="M0,-3.0v7 M-2.5,-0.5L0,-3.0L2.5,-0.5"/>
                </g>
                <g id="arrowDown" xlink:href="#dirArrow" transform="rotate(180) translate(-30 -48)" onmousedown="handlePan(0,1)">
                  <use xlink:href="#rim" fill="#404040">
                        <set attributeName="fill" to="#808080" begin="arrowDown.mouseover" end="arrowDown.mouseout"/>
                  </use>
                  <path fill="none" stroke="white" stroke-width="1.5" d="M0,-3.0v7 M-2.5,-0.5L0,-3.0L2.5,-0.5"/>
                </g>
                <g id="arrowLeft" xlink:href="#dirArrow" transform="rotate(270) translate(-36 17)" onmousedown="handlePan(-1,0)">
                  <use xlink:href="#rim" fill="#404040">
                        <set attributeName="fill" to="#808080" begin="arrowLeft.mouseover" end="arrowLeft.mouseout"/>
                  </use>
                  <path fill="none" stroke="white" stroke-width="1.5" d="M0,-3.0v7 M-2.5,-0.5L0,-3.0L2.5,-0.5"/>
                </g>
        </g>
        <svg viewBox="0 0 15 15" width="100%" height="30px" preserveAspectRatio="xMaxYMin meet">
         <g id="arrow_out" transform="scale(0.3 0.3)">
          <a xlink:href="classudpreceiver_a2d7852b9e4be87d9a3ce960d8a7eb9aa_cgraph_org.svg" target="_base">
           <rect id="button" ry="5" rx="5" y="6" x="6" height="38" width="38"
                fill="#f2f5e9" fill-opacity="0.5" stroke="#606060" stroke-width="1.0"/>
           <path id="arrow"
             d="M 11.500037,31.436501 C 11.940474,20.09759 22.043105,11.32322 32.158766,21.979434 L 37.068811,17.246167 C 37.068811,17.246167 37.088388,32 37.088388,32 L 22.160133,31.978069 C 22.160133,31.978069 26.997745,27.140456 26.997745,27.140456 C 18.528582,18.264221 13.291696,25.230495 11.500037,31.436501 z"
             style="fill:#404040;"/>
          </a>
         </g>
        </svg>
</svg>
