<?xml version="1.0" encoding="UTF-8" standalone="no"?>
<!DOCTYPE svg PUBLIC "-//W3C//DTD SVG 1.1//EN"
 "http://www.w3.org/Graphics/SVG/1.1/DTD/svg11.dtd">
<!-- Generated by graphviz version 2.49.3 (20211027.1534)
 -->
<!-- Title: AdaptronicSelect Pages: 1 -->
<svg width="141pt" height="152pt"
 viewBox="0.00 0.00 140.50 152.00" xmlns="http://www.w3.org/2000/svg" xmlns:xlink="http://www.w3.org/1999/xlink">
<g id="graph0" class="graph" transform="scale(1 1) rotate(0) translate(4 148)">
<title>AdaptronicSelect</title>
<polygon fill="white" stroke="transparent" points="-4,4 -4,-148 136.5,-148 136.5,4 -4,4"/>
<!-- Node1 -->
<g id="node1" class="node">
<title>Node1</title>
<g id="a_node1"><a xlink:title=" ">
<polygon fill="#bfbfbf" stroke="black" points="0,-0.5 0,-19.5 91,-19.5 91,-0.5 0,-0.5"/>
<text text-anchor="middle" x="45.5" y="-7.5" font-family="Helvetica,sans-Serif" font-size="10.00">AdaptronicSelect</text>
</a>
</g>
</g>
<!-- Node2 -->
<g id="node2" class="node">
<title>Node2</title>
<g id="a_node2"><a xlink:title=" ">
<polygon fill="white" stroke="#bfbfbf" points="15,-124.5 15,-143.5 68,-143.5 68,-124.5 15,-124.5"/>
<text text-anchor="middle" x="41.5" y="-131.5" font-family="Helvetica,sans-Serif" font-size="10.00">QObject</text>
</a>
</g>
</g>
<!-- Node2&#45;&gt;Node1 -->
<g id="edge1" class="edge">
<title>Node2&#45;&gt;Node1</title>
<path fill="none" stroke="midnightblue" d="M42.12,-114.19C43,-87.4 44.57,-39.31 45.21,-19.69"/>
<polygon fill="midnightblue" stroke="midnightblue" points="38.62,-114.12 41.79,-124.23 45.61,-114.35 38.62,-114.12"/>
</g>
<!-- Node3 -->
<g id="node3" class="node">
<title>Node3</title>
<g id="a_node3"><a xlink:href="classDashBoard.html" target="_top" xlink:title=" ">
<polygon fill="white" stroke="black" points="58,-67.5 58,-86.5 123,-86.5 123,-67.5 58,-67.5"/>
<text text-anchor="middle" x="90.5" y="-74.5" font-family="Helvetica,sans-Serif" font-size="10.00">DashBoard</text>
</a>
</g>
</g>
<!-- Node2&#45;&gt;Node3 -->
<g id="edge3" class="edge">
<title>Node2&#45;&gt;Node3</title>
<path fill="none" stroke="midnightblue" d="M55.91,-116.83C64.68,-106.98 75.55,-94.78 82.74,-86.71"/>
<polygon fill="midnightblue" stroke="midnightblue" points="53.2,-114.61 49.16,-124.41 58.42,-119.27 53.2,-114.61"/>
</g>
<!-- Node3&#45;&gt;Node1 -->
<g id="edge2" class="edge">
<title>Node3&#45;&gt;Node1</title>
<path fill="none" stroke="#9a32cd" stroke-dasharray="5,2" d="M78.66,-58.9C69.92,-46.27 58.38,-29.6 51.47,-19.63"/>
<polygon fill="#9a32cd" stroke="#9a32cd" points="75.86,-61 84.43,-67.23 81.62,-57.02 75.86,-61"/>
<text text-anchor="middle" x="102" y="-41" font-family="Helvetica,sans-Serif" font-size="10.00"> m_dashboard</text>
</g>
</g>
</svg>
