<?xml version="1.0" encoding="UTF-8" standalone="no"?>
<!DOCTYPE svg PUBLIC "-//W3C//DTD SVG 1.1//EN"
 "http://www.w3.org/Graphics/SVG/1.1/DTD/svg11.dtd">
<!-- Generated by graphviz version 2.49.3 (20211027.1534)
 -->
<!-- Title: DashBoard::ambipressChanged Pages: 1 -->
<svg width="832pt" height="78pt"
 viewBox="0.00 0.00 832.00 77.50" xmlns="http://www.w3.org/2000/svg" xmlns:xlink="http://www.w3.org/1999/xlink">
<g id="graph0" class="graph" transform="scale(1 1) rotate(0) translate(4 73.5)">
<title>DashBoard::ambipressChanged</title>
<polygon fill="white" stroke="transparent" points="-4,4 -4,-73.5 828,-73.5 828,4 -4,4"/>
<!-- Node1 -->
<g id="node1" class="node">
<title>Node1</title>
<g id="a_node1"><a xlink:title=" ">
<polygon fill="#bfbfbf" stroke="black" points="672,-22.5 672,-41.5 824,-41.5 824,-22.5 672,-22.5"/>
<text text-anchor="middle" x="748" y="-29.5" font-family="Helvetica,sans-Serif" font-size="10.00">DashBoard::ambipressChanged</text>
</a>
</g>
</g>
<!-- Node2 -->
<g id="node2" class="node">
<title>Node2</title>
<g id="a_node2"><a xlink:href="classDashBoard.html#aa0cabd28735876eef8909a2306fbc2f7" target="_top" xlink:title=" ">
<polygon fill="white" stroke="black" points="508,-22.5 508,-41.5 636,-41.5 636,-22.5 508,-22.5"/>
<text text-anchor="middle" x="572" y="-29.5" font-family="Helvetica,sans-Serif" font-size="10.00">DashBoard::setambipress</text>
</a>
</g>
</g>
<!-- Node1&#45;&gt;Node2 -->
<g id="edge1" class="edge">
<title>Node1&#45;&gt;Node2</title>
<path fill="none" stroke="midnightblue" d="M661.8,-32C653.14,-32 644.45,-32 636.08,-32"/>
<polygon fill="midnightblue" stroke="midnightblue" points="661.95,-35.5 671.95,-32 661.95,-28.5 661.95,-35.5"/>
</g>
<!-- Node3 -->
<g id="node3" class="node">
<title>Node3</title>
<g id="a_node3"><a xlink:href="classudpreceiver.html#a725cf4f5cf798fd5baed7eee2e6dd5f2" target="_top" xlink:title=" ">
<polygon fill="white" stroke="black" points="327.5,-39 327.5,-69 468.5,-69 468.5,-39 327.5,-39"/>
<text text-anchor="start" x="335.5" y="-57" font-family="Helvetica,sans-Serif" font-size="10.00">udpreceiver::processPending</text>
<text text-anchor="middle" x="398" y="-46" font-family="Helvetica,sans-Serif" font-size="10.00">Datagrams</text>
</a>
</g>
</g>
<!-- Node2&#45;&gt;Node3 -->
<g id="edge2" class="edge">
<title>Node2&#45;&gt;Node3</title>
<path fill="none" stroke="midnightblue" d="M497.94,-41.34C488.26,-42.58 478.36,-43.85 468.74,-45.08"/>
<polygon fill="midnightblue" stroke="midnightblue" points="498.46,-44.81 507.93,-40.07 497.57,-37.86 498.46,-44.81"/>
</g>
<!-- Node6 -->
<g id="node6" class="node">
<title>Node6</title>
<g id="a_node6"><a xlink:href="classSensors.html#a14168832030867ac04576b319a08288e" target="_top" xlink:title=" ">
<polygon fill="white" stroke="black" points="324,-0.5 324,-19.5 472,-19.5 472,-0.5 324,-0.5"/>
<text text-anchor="middle" x="398" y="-7.5" font-family="Helvetica,sans-Serif" font-size="10.00">Sensors::updatePressureSens</text>
</a>
</g>
</g>
<!-- Node2&#45;&gt;Node6 -->
<g id="edge5" class="edge">
<title>Node2&#45;&gt;Node6</title>
<path fill="none" stroke="midnightblue" d="M497.74,-22.63C489.3,-21.55 480.7,-20.45 472.26,-19.37"/>
<polygon fill="midnightblue" stroke="midnightblue" points="497.57,-26.14 507.93,-23.93 498.46,-19.19 497.57,-26.14"/>
</g>
<!-- Node4 -->
<g id="node4" class="node">
<title>Node4</title>
<g id="a_node4"><a xlink:href="classudpreceiver.html#a2d7852b9e4be87d9a3ce960d8a7eb9aa" target="_top" xlink:title=" ">
<polygon fill="white" stroke="black" points="163,-44.5 163,-63.5 288,-63.5 288,-44.5 163,-44.5"/>
<text text-anchor="middle" x="225.5" y="-51.5" font-family="Helvetica,sans-Serif" font-size="10.00">udpreceiver::startreceiver</text>
</a>
</g>
</g>
<!-- Node3&#45;&gt;Node4 -->
<g id="edge3" class="edge">
<title>Node3&#45;&gt;Node4</title>
<path fill="none" stroke="midnightblue" d="M317.05,-54C307.3,-54 297.46,-54 288.04,-54"/>
<polygon fill="midnightblue" stroke="midnightblue" points="317.16,-57.5 327.16,-54 317.16,-50.5 317.16,-57.5"/>
</g>
<!-- Node5 -->
<g id="node5" class="node">
<title>Node5</title>
<g id="a_node5"><a xlink:href="classConnect.html#a0d674157f4d7442c535837dadd8cf5f1" target="_top" xlink:title=" ">
<polygon fill="white" stroke="black" points="0,-44.5 0,-63.5 127,-63.5 127,-44.5 0,-44.5"/>
<text text-anchor="middle" x="63.5" y="-51.5" font-family="Helvetica,sans-Serif" font-size="10.00">Connect::openConnection</text>
</a>
</g>
</g>
<!-- Node4&#45;&gt;Node5 -->
<g id="edge4" class="edge">
<title>Node4&#45;&gt;Node5</title>
<path fill="none" stroke="midnightblue" d="M152.46,-54C144.05,-54 135.52,-54 127.25,-54"/>
<polygon fill="midnightblue" stroke="midnightblue" points="152.64,-57.5 162.64,-54 152.64,-50.5 152.64,-57.5"/>
</g>
<!-- Node7 -->
<g id="node7" class="node">
<title>Node7</title>
<g id="a_node7"><a xlink:href="classSensors.html#ad8a31a21867c762706a418d34814e678" target="_top" xlink:title=" ">
<polygon fill="white" stroke="black" points="177.5,-0.5 177.5,-19.5 273.5,-19.5 273.5,-0.5 177.5,-0.5"/>
<text text-anchor="middle" x="225.5" y="-7.5" font-family="Helvetica,sans-Serif" font-size="10.00">Sensors::Pressure</text>
</a>
</g>
</g>
<!-- Node6&#45;&gt;Node7 -->
<g id="edge6" class="edge">
<title>Node6&#45;&gt;Node7</title>
<path fill="none" stroke="midnightblue" d="M313.31,-10C299.67,-10 285.97,-10 273.63,-10"/>
<polygon fill="midnightblue" stroke="midnightblue" points="313.7,-13.5 323.7,-10 313.7,-6.5 313.7,-13.5"/>
</g>
</g>
</svg>
