<?xml version="1.0" encoding="UTF-8" standalone="no"?>
<!DOCTYPE svg PUBLIC "-//W3C//DTD SVG 1.1//EN"
 "http://www.w3.org/Graphics/SVG/1.1/DTD/svg11.dtd">
<!-- Generated by graphviz version 2.49.3 (20211027.1534)
 -->
<!-- Title: DownloadManager::startNextDownload Pages: 1 -->
<!--zoomable 443 -->
<svg id="main" version="1.1" xmlns="http://www.w3.org/2000/svg" xmlns:xlink="http://www.w3.org/1999/xlink" xml:space="preserve" onload="init(evt)">
<style type="text/css"><![CDATA[
.edge:hover path { stroke: red; }
.edge:hover polygon { stroke: red; fill: red; }
]]></style>
<script type="text/javascript"><![CDATA[
var edges = document.getElementsByTagName('g');
if (edges && edges.length) {
  for (var i=0;i<edges.length;i++) {
    if (edges[i].id.substr(0,4)=='edge') {
      edges[i].setAttribute('class','edge');
    }
  }
}
]]></script>
        <defs>
                <circle id="rim" cx="0" cy="0" r="7"/>
                <circle id="rim2" cx="0" cy="0" r="3.5"/>
                <g id="zoomPlus">
                        <use xlink:href="#rim" fill="#404040">
                                <set attributeName="fill" to="#808080" begin="zoomplus.mouseover" end="zoomplus.mouseout"/>
                        </use>
                        <path d="M-4,0h8M0,-4v8" fill="none" stroke="white" stroke-width="1.5" pointer-events="none"/>
                </g>
                <g id="zoomMin">
                        <use xlink:href="#rim" fill="#404040">
                                <set attributeName="fill" to="#808080" begin="zoomminus.mouseover" end="zoomminus.mouseout"/>
                        </use>
                        <path d="M-4,0h8" fill="none" stroke="white" stroke-width="1.5" pointer-events="none"/>
                </g>
                <g id="dirArrow">
                        <path fill="none" stroke="white" stroke-width="1.5" d="M0,-3.0v7 M-2.5,-0.5L0,-3.0L2.5,-0.5"/>
                </g>
               <g id="resetDef">
                       <use xlink:href="#rim2" fill="#404040">
                               <set attributeName="fill" to="#808080" begin="reset.mouseover" end="reset.mouseout"/>
                       </use>
               </g>
        </defs>

<script type="text/javascript">
var viewWidth = 549;
var viewHeight = 443;
var sectionId = 'dynsection-18';
</script>
<script xlink:href="svgpan.js"/>
<svg id="graph" class="graph">
<g id="viewport">
<title>DownloadManager::startNextDownload</title>
<polygon fill="white" stroke="transparent" points="-4,4 -4,-439 545,-439 545,4 -4,4"/>
<!-- Node1 -->
<g id="node1" class="node">
<title>Node1</title>
<g id="a_node1"><a xlink:title=" ">
<polygon fill="#bfbfbf" stroke="black" points="0,-192 0,-222 141,-222 141,-192 0,-192"/>
<text text-anchor="start" x="8" y="-210" font-family="Helvetica,sans-Serif" font-size="10.00">DownloadManager::startNext</text>
<text text-anchor="middle" x="70.5" y="-199" font-family="Helvetica,sans-Serif" font-size="10.00">Download</text>
</a>
</g>
</g>
<!-- Node1&#45;&gt;Node1 -->
<g id="edge19" class="edge">
<title>Node1&#45;&gt;Node1</title>
<path fill="none" stroke="midnightblue" d="M37.74,-222.16C29.84,-231.56 40.76,-240.5 70.5,-240.5 88.62,-240.5 99.76,-237.18 103.91,-232.46"/>
<polygon fill="midnightblue" stroke="midnightblue" points="107.38,-231.92 103.26,-222.16 100.39,-232.36 107.38,-231.92"/>
</g>
<!-- Node2 -->
<g id="node2" class="node">
<title>Node2</title>
<g id="a_node2"><a xlink:href="classDownloadManager.html#a3db45b9d3b58f6e6cf7c75a263fb85ce" target="_top" xlink:title=" ">
<polygon fill="white" stroke="black" points="187.5,-296 187.5,-326 330.5,-326 330.5,-296 187.5,-296"/>
<text text-anchor="start" x="195.5" y="-314" font-family="Helvetica,sans-Serif" font-size="10.00">DownloadManager::download</text>
<text text-anchor="middle" x="259" y="-303" font-family="Helvetica,sans-Serif" font-size="10.00">Finished</text>
</a>
</g>
</g>
<!-- Node1&#45;&gt;Node2 -->
<g id="edge1" class="edge">
<title>Node1&#45;&gt;Node2</title>
<path fill="none" stroke="midnightblue" d="M99.33,-222.01C119.9,-236.38 149.07,-257.34 177,-272 191.81,-279.77 209.1,-286.47 223.89,-292.29"/>
<polygon fill="midnightblue" stroke="midnightblue" points="222.61,-295.55 233.2,-296 225.2,-289.05 222.61,-295.55"/>
</g>
<!-- Node9 -->
<g id="node9" class="node">
<title>Node9</title>
<g id="a_node9"><a xlink:href="classDownloadManager.html#ac8c0eab33303a6ce3dcfddf1795cee0c" target="_top" xlink:title=" ">
<polygon fill="white" stroke="black" points="187.5,-33 187.5,-63 330.5,-63 330.5,-33 187.5,-33"/>
<text text-anchor="start" x="195.5" y="-51" font-family="Helvetica,sans-Serif" font-size="10.00">DownloadManager::download</text>
<text text-anchor="middle" x="259" y="-40" font-family="Helvetica,sans-Serif" font-size="10.00">Progress</text>
</a>
</g>
</g>
<!-- Node1&#45;&gt;Node9 -->
<g id="edge10" class="edge">
<title>Node1&#45;&gt;Node9</title>
<path fill="none" stroke="midnightblue" d="M79.43,-191.66C94.6,-163.85 130.38,-105.01 177,-73 179.88,-71.02 182.92,-69.2 186.06,-67.52"/>
<polygon fill="midnightblue" stroke="midnightblue" points="187.68,-70.62 195.17,-63.13 184.64,-64.32 187.68,-70.62"/>
</g>
<!-- Node10 -->
<g id="node10" class="node">
<title>Node10</title>
<g id="a_node10"><a xlink:href="classDownloadManager.html#afe821e6eac5970b806896d1eb5abea30" target="_top" xlink:title=" ">
<polygon fill="white" stroke="black" points="380,-140 380,-170 538,-170 538,-140 380,-140"/>
<text text-anchor="start" x="388" y="-158" font-family="Helvetica,sans-Serif" font-size="10.00">DownloadManager::setDownload</text>
<text text-anchor="middle" x="459" y="-147" font-family="Helvetica,sans-Serif" font-size="10.00">Status</text>
</a>
</g>
</g>
<!-- Node1&#45;&gt;Node10 -->
<g id="edge18" class="edge">
<title>Node1&#45;&gt;Node10</title>
<path fill="none" stroke="midnightblue" d="M141.08,-216.43C196.05,-221.82 274.33,-224.89 341,-210 371.03,-203.29 402.46,-187.99 425.17,-175.23"/>
<polygon fill="midnightblue" stroke="midnightblue" points="427.11,-178.15 434.03,-170.13 423.62,-172.08 427.11,-178.15"/>
</g>
<!-- Node14 -->
<g id="node14" class="node">
<title>Node14</title>
<g id="a_node14"><a xlink:href="classDownloadManager.html#a5658efb355cf64437bf0c206e6ee0c63" target="_top" xlink:title=" ">
<polygon fill="white" stroke="black" points="187.5,-170 187.5,-200 330.5,-200 330.5,-170 187.5,-170"/>
<text text-anchor="start" x="195.5" y="-188" font-family="Helvetica,sans-Serif" font-size="10.00">DownloadManager::download</text>
<text text-anchor="middle" x="259" y="-177" font-family="Helvetica,sans-Serif" font-size="10.00">ReadyRead</text>
</a>
</g>
</g>
<!-- Node1&#45;&gt;Node14 -->
<g id="edge15" class="edge">
<title>Node1&#45;&gt;Node14</title>
<path fill="none" stroke="midnightblue" d="M141.21,-198.78C153.01,-197.38 165.35,-195.93 177.4,-194.51"/>
<polygon fill="midnightblue" stroke="midnightblue" points="177.92,-197.97 187.44,-193.32 177.1,-191.02 177.92,-197.97"/>
</g>
<!-- Node15 -->
<g id="node15" class="node">
<title>Node15</title>
<g id="a_node15"><a xlink:href="classDownloadManager.html#a40a2bd7e138955b1accb75841c8dfd69" target="_top" xlink:title=" ">
<polygon fill="white" stroke="black" points="177,-131.5 177,-150.5 341,-150.5 341,-131.5 177,-131.5"/>
<text text-anchor="middle" x="259" y="-138.5" font-family="Helvetica,sans-Serif" font-size="10.00">DownloadManager::saveFileName</text>
</a>
</g>
</g>
<!-- Node1&#45;&gt;Node15 -->
<g id="edge16" class="edge">
<title>Node1&#45;&gt;Node15</title>
<path fill="none" stroke="midnightblue" d="M102.35,-191.9C123.1,-182.16 151.26,-169.72 177,-161 185.47,-158.13 194.57,-155.48 203.5,-153.11"/>
<polygon fill="midnightblue" stroke="midnightblue" points="204.65,-156.43 213.47,-150.56 202.91,-149.65 204.65,-156.43"/>
</g>
<!-- Node16 -->
<g id="node16" class="node">
<title>Node16</title>
<g id="a_node16"><a xlink:href="classDownloadManager.html#a3b2f0bf89f97c8c61836376328c0208d" target="_top" xlink:title=" ">
<polygon fill="white" stroke="black" points="180,-82 180,-112 338,-112 338,-82 180,-82"/>
<text text-anchor="start" x="188" y="-100" font-family="Helvetica,sans-Serif" font-size="10.00">DownloadManager::setDownload</text>
<text text-anchor="middle" x="259" y="-89" font-family="Helvetica,sans-Serif" font-size="10.00">Filename</text>
</a>
</g>
</g>
<!-- Node1&#45;&gt;Node16 -->
<g id="edge17" class="edge">
<title>Node1&#45;&gt;Node16</title>
<path fill="none" stroke="midnightblue" d="M86.58,-191.69C105.93,-172.84 141.28,-141 177,-122 181.24,-119.74 185.72,-117.66 190.31,-115.73"/>
<polygon fill="midnightblue" stroke="midnightblue" points="191.79,-118.91 199.83,-112 189.24,-112.39 191.79,-118.91"/>
</g>
<!-- Node2&#45;&gt;Node1 -->
<g id="edge9" class="edge">
<title>Node2&#45;&gt;Node1</title>
<path fill="none" stroke="midnightblue" d="M188.97,-295.82C184.87,-293.97 180.85,-292.02 177,-290 144.64,-273.02 110.63,-247.59 90.25,-229.06"/>
<polygon fill="midnightblue" stroke="midnightblue" points="92.55,-226.42 82.89,-222.08 87.74,-231.5 92.55,-226.42"/>
</g>
<!-- Node3 -->
<g id="node3" class="node">
<title>Node3</title>
<g id="a_node3"><a xlink:href="classDownloadManager.html#afa2ecdfa2483d265db87682234f817e5" target="_top" xlink:title=" ">
<polygon fill="white" stroke="black" points="392.5,-213.5 392.5,-232.5 525.5,-232.5 525.5,-213.5 392.5,-213.5"/>
<text text-anchor="middle" x="459" y="-220.5" font-family="Helvetica,sans-Serif" font-size="10.00">DownloadManager::append</text>
</a>
</g>
</g>
<!-- Node2&#45;&gt;Node3 -->
<g id="edge2" class="edge">
<title>Node2&#45;&gt;Node3</title>
<path fill="none" stroke="midnightblue" d="M311.84,-295.83C321.93,-291.79 332.11,-286.87 341,-281 360.41,-268.18 356.89,-254.71 377,-243 381.69,-240.27 386.75,-237.91 391.96,-235.87"/>
<polygon fill="midnightblue" stroke="midnightblue" points="393.19,-239.14 401.47,-232.53 390.88,-232.54 393.19,-239.14"/>
</g>
<!-- Node4 -->
<g id="node4" class="node">
<title>Node4</title>
<g id="a_node4"><a xlink:href="classTextProgressBar.html#a43a19ca874afe1bca5dbe7c533bd839a" target="_top" xlink:title=" ">
<polygon fill="white" stroke="black" points="401.5,-415.5 401.5,-434.5 516.5,-434.5 516.5,-415.5 401.5,-415.5"/>
<text text-anchor="middle" x="459" y="-422.5" font-family="Helvetica,sans-Serif" font-size="10.00">TextProgressBar::clear</text>
</a>
</g>
</g>
<!-- Node2&#45;&gt;Node4 -->
<g id="edge4" class="edge">
<title>Node2&#45;&gt;Node4</title>
<path fill="none" stroke="midnightblue" d="M273.98,-326.01C294.5,-347.14 334.95,-385.37 377,-406 381.94,-408.43 387.21,-410.55 392.6,-412.41"/>
<polygon fill="midnightblue" stroke="midnightblue" points="391.78,-415.82 402.37,-415.48 393.88,-409.14 391.78,-415.82"/>
</g>
<!-- Node5 -->
<g id="node5" class="node">
<title>Node5</title>
<g id="a_node5"><a xlink:href="classDownloadManager.html#a9f39dbbaf6b7fe76261158273a4220ff" target="_top" xlink:title=" ">
<polygon fill="white" stroke="black" points="377,-377.5 377,-396.5 541,-396.5 541,-377.5 377,-377.5"/>
<text text-anchor="middle" x="459" y="-384.5" font-family="Helvetica,sans-Serif" font-size="10.00">DownloadManager::isHttpRedirect</text>
</a>
</g>
</g>
<!-- Node2&#45;&gt;Node5 -->
<g id="edge5" class="edge">
<title>Node2&#45;&gt;Node5</title>
<path fill="none" stroke="midnightblue" d="M286.68,-326.13C309.93,-338.79 344.86,-356.56 377,-368 384.27,-370.59 392.04,-372.92 399.77,-375"/>
<polygon fill="midnightblue" stroke="midnightblue" points="398.96,-378.4 409.52,-377.49 400.69,-371.62 398.96,-378.4"/>
</g>
<!-- Node6 -->
<g id="node6" class="node">
<title>Node6</title>
<g id="a_node6"><a xlink:href="classparsegithubData.html#ac9ecdd057c8725240858481bde768f16" target="_top" xlink:title=" ">
<polygon fill="white" stroke="black" points="381.5,-339.5 381.5,-358.5 536.5,-358.5 536.5,-339.5 381.5,-339.5"/>
<text text-anchor="middle" x="459" y="-346.5" font-family="Helvetica,sans-Serif" font-size="10.00">parsegithubData::readTrackData</text>
</a>
</g>
</g>
<!-- Node2&#45;&gt;Node6 -->
<g id="edge6" class="edge">
<title>Node2&#45;&gt;Node6</title>
<path fill="none" stroke="midnightblue" d="M330.64,-324.56C352.79,-328.81 377.01,-333.46 398.32,-337.55"/>
<polygon fill="midnightblue" stroke="midnightblue" points="397.73,-341 408.21,-339.44 399.05,-334.12 397.73,-341"/>
</g>
<!-- Node7 -->
<g id="node7" class="node">
<title>Node7</title>
<g id="a_node7"><a xlink:href="classDownloadManager.html#ad61fdaf56f156496613a587a873e06ff" target="_top" xlink:title=" ">
<polygon fill="white" stroke="black" points="378,-301.5 378,-320.5 540,-320.5 540,-301.5 378,-301.5"/>
<text text-anchor="middle" x="459" y="-308.5" font-family="Helvetica,sans-Serif" font-size="10.00">DownloadManager::reportRedirect</text>
</a>
</g>
</g>
<!-- Node2&#45;&gt;Node7 -->
<g id="edge7" class="edge">
<title>Node2&#45;&gt;Node7</title>
<path fill="none" stroke="midnightblue" d="M330.64,-311C342.62,-311 355.2,-311 367.59,-311"/>
<polygon fill="midnightblue" stroke="midnightblue" points="367.95,-314.5 377.95,-311 367.95,-307.5 367.95,-314.5"/>
</g>
<!-- Node8 -->
<g id="node8" class="node">
<title>Node8</title>
<g id="a_node8"><a xlink:href="classparsegithubData.html#aed9c8ad9cf0369639fc5d26577351f3e" target="_top" xlink:title=" ">
<polygon fill="white" stroke="black" points="378.5,-252 378.5,-282 539.5,-282 539.5,-252 378.5,-252"/>
<text text-anchor="start" x="386.5" y="-270" font-family="Helvetica,sans-Serif" font-size="10.00">parsegithubData::sortDownloaded</text>
<text text-anchor="middle" x="459" y="-259" font-family="Helvetica,sans-Serif" font-size="10.00">Files</text>
</a>
</g>
</g>
<!-- Node2&#45;&gt;Node8 -->
<g id="edge8" class="edge">
<title>Node2&#45;&gt;Node8</title>
<path fill="none" stroke="midnightblue" d="M327.59,-295.98C344.54,-292.21 362.86,-288.14 380.26,-284.28"/>
<polygon fill="midnightblue" stroke="midnightblue" points="381.38,-287.61 390.38,-282.03 379.86,-280.78 381.38,-287.61"/>
</g>
<!-- Node3&#45;&gt;Node1 -->
<g id="edge3" class="edge">
<title>Node3&#45;&gt;Node1</title>
<path fill="none" stroke="midnightblue" d="M413.41,-232.59C357.74,-243.09 259.75,-256.73 177,-243 156.35,-239.57 134.32,-232.62 115.76,-225.73"/>
<polygon fill="midnightblue" stroke="midnightblue" points="116.99,-222.45 106.4,-222.15 114.49,-228.99 116.99,-222.45"/>
</g>
<!-- Node9&#45;&gt;Node10 -->
<g id="edge11" class="edge">
<title>Node9&#45;&gt;Node10</title>
<path fill="none" stroke="midnightblue" d="M319.2,-63.01C326.75,-65.86 334.2,-69.17 341,-73 359.65,-83.51 359.83,-92.22 377,-105 391.27,-115.62 407.86,-126.15 422.3,-134.79"/>
<polygon fill="midnightblue" stroke="midnightblue" points="420.58,-137.84 430.97,-139.91 424.14,-131.81 420.58,-137.84"/>
</g>
<!-- Node11 -->
<g id="node11" class="node">
<title>Node11</title>
<g id="a_node11"><a xlink:href="classTextProgressBar.html#ae4980260298075636a679d8674aaecc8" target="_top" xlink:title=" ">
<polygon fill="white" stroke="black" points="385.5,-38.5 385.5,-57.5 532.5,-57.5 532.5,-38.5 385.5,-38.5"/>
<text text-anchor="middle" x="459" y="-45.5" font-family="Helvetica,sans-Serif" font-size="10.00">TextProgressBar::setMessage</text>
</a>
</g>
</g>
<!-- Node9&#45;&gt;Node11 -->
<g id="edge12" class="edge">
<title>Node9&#45;&gt;Node11</title>
<path fill="none" stroke="midnightblue" d="M330.64,-48C345.08,-48 360.4,-48 375.22,-48"/>
<polygon fill="midnightblue" stroke="midnightblue" points="375.38,-51.5 385.38,-48 375.38,-44.5 375.38,-51.5"/>
</g>
<!-- Node12 -->
<g id="node12" class="node">
<title>Node12</title>
<g id="a_node12"><a xlink:href="classTextProgressBar.html#a49dcb117820c89bc02b92b1386648bfb" target="_top" xlink:title=" ">
<polygon fill="white" stroke="black" points="391,-0.5 391,-19.5 527,-19.5 527,-0.5 391,-0.5"/>
<text text-anchor="middle" x="459" y="-7.5" font-family="Helvetica,sans-Serif" font-size="10.00">TextProgressBar::setStatus</text>
</a>
</g>
</g>
<!-- Node9&#45;&gt;Node12 -->
<g id="edge13" class="edge">
<title>Node9&#45;&gt;Node12</title>
<path fill="none" stroke="midnightblue" d="M330.64,-34.44C352.79,-30.19 377.01,-25.54 398.32,-21.45"/>
<polygon fill="midnightblue" stroke="midnightblue" points="399.05,-24.88 408.21,-19.56 397.73,-18 399.05,-24.88"/>
</g>
<!-- Node13 -->
<g id="node13" class="node">
<title>Node13</title>
<g id="a_node13"><a xlink:href="classTextProgressBar.html#a1484eaa6c18381dccc0470db1fb4263d" target="_top" xlink:title=" ">
<polygon fill="white" stroke="black" points="397.5,-76.5 397.5,-95.5 520.5,-95.5 520.5,-76.5 397.5,-76.5"/>
<text text-anchor="middle" x="459" y="-83.5" font-family="Helvetica,sans-Serif" font-size="10.00">TextProgressBar::update</text>
</a>
</g>
</g>
<!-- Node9&#45;&gt;Node13 -->
<g id="edge14" class="edge">
<title>Node9&#45;&gt;Node13</title>
<path fill="none" stroke="midnightblue" d="M330.64,-61.56C352.79,-65.81 377.01,-70.46 398.32,-74.55"/>
<polygon fill="midnightblue" stroke="midnightblue" points="397.73,-78 408.21,-76.44 399.05,-71.12 397.73,-78"/>
</g>
</g>
</svg>
        <g id="navigator" transform="translate(0 0)" fill="#404254">
                <rect fill="#f2f5e9" fill-opacity="0.5" stroke="#606060" stroke-width=".5" x="0" y="0" width="60" height="60"/>
                <use id="zoomplus" xlink:href="#zoomPlus" x="17" y="9" onmousedown="handleZoom(evt,'in')"/>
                <use id="zoomminus" xlink:href="#zoomMin" x="42" y="9" onmousedown="handleZoom(evt,'out')"/>
                <use id="reset" xlink:href="#resetDef" x="30" y="36" onmousedown="handleReset()"/>
                <g id="arrowUp" xlink:href="#dirArrow" transform="translate(30 24)" onmousedown="handlePan(0,-1)">
                  <use xlink:href="#rim" fill="#404040">
                        <set attributeName="fill" to="#808080" begin="arrowUp.mouseover" end="arrowUp.mouseout"/>
                  </use>
                  <path fill="none" stroke="white" stroke-width="1.5" d="M0,-3.0v7 M-2.5,-0.5L0,-3.0L2.5,-0.5"/>
                </g>
                <g id="arrowRight" xlink:href="#dirArrow" transform="rotate(90) translate(36 -43)" onmousedown="handlePan(1,0)">
                  <use xlink:href="#rim" fill="#404040">
                        <set attributeName="fill" to="#808080" begin="arrowRight.mouseover" end="arrowRight.mouseout"/>
                  </use>
                  <path fill="none" stroke="white" stroke-width="1.5" d="M0,-3.0v7 M-2.5,-0.5L0,-3.0L2.5,-0.5"/>
                </g>
                <g id="arrowDown" xlink:href="#dirArrow" transform="rotate(180) translate(-30 -48)" onmousedown="handlePan(0,1)">
                  <use xlink:href="#rim" fill="#404040">
                        <set attributeName="fill" to="#808080" begin="arrowDown.mouseover" end="arrowDown.mouseout"/>
                  </use>
                  <path fill="none" stroke="white" stroke-width="1.5" d="M0,-3.0v7 M-2.5,-0.5L0,-3.0L2.5,-0.5"/>
                </g>
                <g id="arrowLeft" xlink:href="#dirArrow" transform="rotate(270) translate(-36 17)" onmousedown="handlePan(-1,0)">
                  <use xlink:href="#rim" fill="#404040">
                        <set attributeName="fill" to="#808080" begin="arrowLeft.mouseover" end="arrowLeft.mouseout"/>
                  </use>
                  <path fill="none" stroke="white" stroke-width="1.5" d="M0,-3.0v7 M-2.5,-0.5L0,-3.0L2.5,-0.5"/>
                </g>
        </g>
        <svg viewBox="0 0 15 15" width="100%" height="30px" preserveAspectRatio="xMaxYMin meet">
         <g id="arrow_out" transform="scale(0.3 0.3)">
          <a xlink:href="classDownloadManager_a5b2dc25fef54a4e61b48aa2c64854450_cgraph_org.svg" target="_base">
           <rect id="button" ry="5" rx="5" y="6" x="6" height="38" width="38"
                fill="#f2f5e9" fill-opacity="0.5" stroke="#606060" stroke-width="1.0"/>
           <path id="arrow"
             d="M 11.500037,31.436501 C 11.940474,20.09759 22.043105,11.32322 32.158766,21.979434 L 37.068811,17.246167 C 37.068811,17.246167 37.088388,32 37.088388,32 L 22.160133,31.978069 C 22.160133,31.978069 26.997745,27.140456 26.997745,27.140456 C 18.528582,18.264221 13.291696,25.230495 11.500037,31.436501 z"
             style="fill:#404040;"/>
          </a>
         </g>
        </svg>
</svg>
