<?xml version="1.0" encoding="UTF-8" standalone="no"?>
<!DOCTYPE svg PUBLIC "-//W3C//DTD SVG 1.1//EN"
 "http://www.w3.org/Graphics/SVG/1.1/DTD/svg11.dtd">
<!-- Generated by graphviz version 2.49.3 (20211027.1534)
 -->
<!-- Title: DashBoard::gyrozChanged Pages: 1 -->
<svg width="780pt" height="78pt"
 viewBox="0.00 0.00 780.00 77.50" xmlns="http://www.w3.org/2000/svg" xmlns:xlink="http://www.w3.org/1999/xlink">
<g id="graph0" class="graph" transform="scale(1 1) rotate(0) translate(4 73.5)">
<title>DashBoard::gyrozChanged</title>
<polygon fill="white" stroke="transparent" points="-4,4 -4,-73.5 776,-73.5 776,4 -4,4"/>
<!-- Node1 -->
<g id="node1" class="node">
<title>Node1</title>
<g id="a_node1"><a xlink:title=" ">
<polygon fill="#bfbfbf" stroke="black" points="642,-22.5 642,-41.5 772,-41.5 772,-22.5 642,-22.5"/>
<text text-anchor="middle" x="707" y="-29.5" font-family="Helvetica,sans-Serif" font-size="10.00">DashBoard::gyrozChanged</text>
</a>
</g>
</g>
<!-- Node2 -->
<g id="node2" class="node">
<title>Node2</title>
<g id="a_node2"><a xlink:href="classDashBoard.html#a30d3488953509f88a603354c3a9acc6f" target="_top" xlink:title=" ">
<polygon fill="white" stroke="black" points="501,-22.5 501,-41.5 606,-41.5 606,-22.5 501,-22.5"/>
<text text-anchor="middle" x="553.5" y="-29.5" font-family="Helvetica,sans-Serif" font-size="10.00">DashBoard::setgyroz</text>
</a>
</g>
</g>
<!-- Node1&#45;&gt;Node2 -->
<g id="edge1" class="edge">
<title>Node1&#45;&gt;Node2</title>
<path fill="none" stroke="midnightblue" d="M631.47,-32C623.02,-32 614.54,-32 606.46,-32"/>
<polygon fill="midnightblue" stroke="midnightblue" points="631.75,-35.5 641.75,-32 631.75,-28.5 631.75,-35.5"/>
</g>
<!-- Node3 -->
<g id="node3" class="node">
<title>Node3</title>
<g id="a_node3"><a xlink:href="classudpreceiver.html#a725cf4f5cf798fd5baed7eee2e6dd5f2" target="_top" xlink:title=" ">
<polygon fill="white" stroke="black" points="324,-39 324,-69 465,-69 465,-39 324,-39"/>
<text text-anchor="start" x="332" y="-57" font-family="Helvetica,sans-Serif" font-size="10.00">udpreceiver::processPending</text>
<text text-anchor="middle" x="394.5" y="-46" font-family="Helvetica,sans-Serif" font-size="10.00">Datagrams</text>
</a>
</g>
</g>
<!-- Node2&#45;&gt;Node3 -->
<g id="edge2" class="edge">
<title>Node2&#45;&gt;Node3</title>
<path fill="none" stroke="midnightblue" d="M490.64,-40.67C482.29,-41.84 473.68,-43.04 465.22,-44.23"/>
<polygon fill="midnightblue" stroke="midnightblue" points="491.24,-44.12 500.66,-39.26 490.27,-37.19 491.24,-44.12"/>
</g>
<!-- Node6 -->
<g id="node6" class="node">
<title>Node6</title>
<g id="a_node6"><a xlink:href="classSensors.html#a0e0a9f2fcc92e0f5141cad6703c3182f" target="_top" xlink:title=" ">
<polygon fill="white" stroke="black" points="341,-0.5 341,-19.5 448,-19.5 448,-0.5 341,-0.5"/>
<text text-anchor="middle" x="394.5" y="-7.5" font-family="Helvetica,sans-Serif" font-size="10.00">Sensors::updateGyro</text>
</a>
</g>
</g>
<!-- Node2&#45;&gt;Node6 -->
<g id="edge5" class="edge">
<title>Node2&#45;&gt;Node6</title>
<path fill="none" stroke="midnightblue" d="M490.58,-23.32C476.52,-21.35 461.72,-19.28 448.09,-17.37"/>
<polygon fill="midnightblue" stroke="midnightblue" points="490.27,-26.81 500.66,-24.74 491.24,-19.88 490.27,-26.81"/>
</g>
<!-- Node4 -->
<g id="node4" class="node">
<title>Node4</title>
<g id="a_node4"><a xlink:href="classudpreceiver.html#a2d7852b9e4be87d9a3ce960d8a7eb9aa" target="_top" xlink:title=" ">
<polygon fill="white" stroke="black" points="163,-44.5 163,-63.5 288,-63.5 288,-44.5 163,-44.5"/>
<text text-anchor="middle" x="225.5" y="-51.5" font-family="Helvetica,sans-Serif" font-size="10.00">udpreceiver::startreceiver</text>
</a>
</g>
</g>
<!-- Node3&#45;&gt;Node4 -->
<g id="edge3" class="edge">
<title>Node3&#45;&gt;Node4</title>
<path fill="none" stroke="midnightblue" d="M313.62,-54C305.05,-54 296.42,-54 288.11,-54"/>
<polygon fill="midnightblue" stroke="midnightblue" points="313.64,-57.5 323.64,-54 313.64,-50.5 313.64,-57.5"/>
</g>
<!-- Node5 -->
<g id="node5" class="node">
<title>Node5</title>
<g id="a_node5"><a xlink:href="classConnect.html#a0d674157f4d7442c535837dadd8cf5f1" target="_top" xlink:title=" ">
<polygon fill="white" stroke="black" points="0,-44.5 0,-63.5 127,-63.5 127,-44.5 0,-44.5"/>
<text text-anchor="middle" x="63.5" y="-51.5" font-family="Helvetica,sans-Serif" font-size="10.00">Connect::openConnection</text>
</a>
</g>
</g>
<!-- Node4&#45;&gt;Node5 -->
<g id="edge4" class="edge">
<title>Node4&#45;&gt;Node5</title>
<path fill="none" stroke="midnightblue" d="M152.46,-54C144.05,-54 135.52,-54 127.25,-54"/>
<polygon fill="midnightblue" stroke="midnightblue" points="152.64,-57.5 162.64,-54 152.64,-50.5 152.64,-57.5"/>
</g>
<!-- Node7 -->
<g id="node7" class="node">
<title>Node7</title>
<g id="a_node7"><a xlink:href="classSensors.html#a323c2c40148fc1d93938aeb637cceaf4" target="_top" xlink:title=" ">
<polygon fill="white" stroke="black" points="187,-0.5 187,-19.5 264,-19.5 264,-0.5 187,-0.5"/>
<text text-anchor="middle" x="225.5" y="-7.5" font-family="Helvetica,sans-Serif" font-size="10.00">Sensors::Gyro</text>
</a>
</g>
</g>
<!-- Node6&#45;&gt;Node7 -->
<g id="edge6" class="edge">
<title>Node6&#45;&gt;Node7</title>
<path fill="none" stroke="midnightblue" d="M330.56,-10C308.21,-10 283.77,-10 264.19,-10"/>
<polygon fill="midnightblue" stroke="midnightblue" points="330.66,-13.5 340.66,-10 330.66,-6.5 330.66,-13.5"/>
</g>
</g>
</svg>
