<?xml version="1.0" encoding="UTF-8" standalone="no"?>
<!DOCTYPE svg PUBLIC "-//W3C//DTD SVG 1.1//EN"
 "http://www.w3.org/Graphics/SVG/1.1/DTD/svg11.dtd">
<!-- Generated by graphviz version 2.49.3 (20211027.1534)
 -->
<!-- Title: DashBoard::BrightnessChanged Pages: 1 -->
<svg width="662pt" height="116pt"
 viewBox="0.00 0.00 662.00 116.00" xmlns="http://www.w3.org/2000/svg" xmlns:xlink="http://www.w3.org/1999/xlink">
<g id="graph0" class="graph" transform="scale(1 1) rotate(0) translate(4 112)">
<title>DashBoard::BrightnessChanged</title>
<polygon fill="white" stroke="transparent" points="-4,4 -4,-112 658,-112 658,4 -4,4"/>
<!-- Node1 -->
<g id="node1" class="node">
<title>Node1</title>
<g id="a_node1"><a xlink:title=" ">
<polygon fill="#bfbfbf" stroke="black" points="500,-44.5 500,-63.5 654,-63.5 654,-44.5 500,-44.5"/>
<text text-anchor="middle" x="577" y="-51.5" font-family="Helvetica,sans-Serif" font-size="10.00">DashBoard::BrightnessChanged</text>
</a>
</g>
</g>
<!-- Node2 -->
<g id="node2" class="node">
<title>Node2</title>
<g id="a_node2"><a xlink:href="classDashBoard.html#a859867d33702db5286fc6664ab5e4542" target="_top" xlink:title=" ">
<polygon fill="white" stroke="black" points="335,-44.5 335,-63.5 464,-63.5 464,-44.5 335,-44.5"/>
<text text-anchor="middle" x="399.5" y="-51.5" font-family="Helvetica,sans-Serif" font-size="10.00">DashBoard::setBrightness</text>
</a>
</g>
</g>
<!-- Node1&#45;&gt;Node2 -->
<g id="edge1" class="edge">
<title>Node1&#45;&gt;Node2</title>
<path fill="none" stroke="midnightblue" d="M489.67,-54C481.03,-54 472.37,-54 464.02,-54"/>
<polygon fill="midnightblue" stroke="midnightblue" points="489.79,-57.5 499.79,-54 489.79,-50.5 489.79,-57.5"/>
</g>
<!-- Node3 -->
<g id="node3" class="node">
<title>Node3</title>
<g id="a_node3"><a xlink:href="classConnect.html#a0febec74eec09ab27157ec29a8aab7d0" target="_top" xlink:title=" ">
<polygon fill="white" stroke="black" points="146,-88.5 146,-107.5 282,-107.5 282,-88.5 146,-88.5"/>
<text text-anchor="middle" x="214" y="-95.5" font-family="Helvetica,sans-Serif" font-size="10.00">Connect::checkifraspberrypi</text>
</a>
</g>
</g>
<!-- Node2&#45;&gt;Node3 -->
<g id="edge2" class="edge">
<title>Node2&#45;&gt;Node3</title>
<path fill="none" stroke="midnightblue" d="M351.26,-66.11C334.75,-70.28 316.07,-74.92 299,-79 285.77,-82.16 271.33,-85.47 258.21,-88.43"/>
<polygon fill="midnightblue" stroke="midnightblue" points="352.39,-69.44 361.22,-63.59 350.67,-62.65 352.39,-69.44"/>
</g>
<!-- Node4 -->
<g id="node4" class="node">
<title>Node4</title>
<g id="a_node4"><a xlink:href="classAppSettings.html#af97c4b73b02f8cf8ef75b11d8f86ac40" target="_top" xlink:title=" ">
<polygon fill="white" stroke="black" points="147.5,-39 147.5,-69 280.5,-69 280.5,-39 147.5,-39"/>
<text text-anchor="start" x="155.5" y="-57" font-family="Helvetica,sans-Serif" font-size="10.00">AppSettings::readandApply</text>
<text text-anchor="middle" x="214" y="-46" font-family="Helvetica,sans-Serif" font-size="10.00">Settings</text>
</a>
</g>
</g>
<!-- Node2&#45;&gt;Node4 -->
<g id="edge3" class="edge">
<title>Node2&#45;&gt;Node4</title>
<path fill="none" stroke="midnightblue" d="M324.43,-54C309.97,-54 294.9,-54 280.73,-54"/>
<polygon fill="midnightblue" stroke="midnightblue" points="324.84,-57.5 334.84,-54 324.84,-50.5 324.84,-57.5"/>
</g>
<!-- Node6 -->
<g id="node6" class="node">
<title>Node6</title>
<g id="a_node6"><a xlink:href="classAppSettings.html#a402aa4e66a53f0ab5af5a1c12d8d33b3" target="_top" xlink:title=" ">
<polygon fill="white" stroke="black" points="129,-0.5 129,-19.5 299,-19.5 299,-0.5 129,-0.5"/>
<text text-anchor="middle" x="214" y="-7.5" font-family="Helvetica,sans-Serif" font-size="10.00">AppSettings::writebrightnessettings</text>
</a>
</g>
</g>
<!-- Node2&#45;&gt;Node6 -->
<g id="edge5" class="edge">
<title>Node2&#45;&gt;Node6</title>
<path fill="none" stroke="midnightblue" d="M348.66,-41.95C332.79,-38.12 315.16,-33.87 299,-30 284.71,-26.58 269.06,-22.84 255.17,-19.54"/>
<polygon fill="midnightblue" stroke="midnightblue" points="348.26,-45.45 358.8,-44.4 349.9,-38.65 348.26,-45.45"/>
</g>
<!-- Node5 -->
<g id="node5" class="node">
<title>Node5</title>
<g id="a_node5"><a xlink:href="classConnect.html#a2e3bdc883e226b286ee2ea851bf5f551" target="_top" xlink:title=" ">
<polygon fill="white" stroke="black" points="0,-44.5 0,-63.5 93,-63.5 93,-44.5 0,-44.5"/>
<text text-anchor="middle" x="46.5" y="-51.5" font-family="Helvetica,sans-Serif" font-size="10.00">Connect::Connect</text>
</a>
</g>
</g>
<!-- Node4&#45;&gt;Node5 -->
<g id="edge4" class="edge">
<title>Node4&#45;&gt;Node5</title>
<path fill="none" stroke="midnightblue" d="M136.88,-54C122,-54 106.82,-54 93.31,-54"/>
<polygon fill="midnightblue" stroke="midnightblue" points="137.11,-57.5 147.11,-54 137.11,-50.5 137.11,-57.5"/>
</g>
</g>
</svg>
