<?xml version="1.0" encoding="UTF-8" standalone="no"?>
<!DOCTYPE svg PUBLIC "-//W3C//DTD SVG 1.1//EN"
 "http://www.w3.org/Graphics/SVG/1.1/DTD/svg11.dtd">
<!-- Generated by graphviz version 2.49.3 (20211027.1534)
 -->
<!-- Title: DashBoard::setrpmStage3 Pages: 1 -->
<svg width="456pt" height="78pt"
 viewBox="0.00 0.00 456.00 77.50" xmlns="http://www.w3.org/2000/svg" xmlns:xlink="http://www.w3.org/1999/xlink">
<g id="graph0" class="graph" transform="scale(1 1) rotate(0) translate(4 73.5)">
<title>DashBoard::setrpmStage3</title>
<polygon fill="white" stroke="transparent" points="-4,4 -4,-73.5 452,-73.5 452,4 -4,4"/>
<!-- Node1 -->
<g id="node1" class="node">
<title>Node1</title>
<g id="a_node1"><a xlink:title=" ">
<polygon fill="#bfbfbf" stroke="black" points="318,-22.5 318,-41.5 448,-41.5 448,-22.5 318,-22.5"/>
<text text-anchor="middle" x="383" y="-29.5" font-family="Helvetica,sans-Serif" font-size="10.00">DashBoard::setrpmStage3</text>
</a>
</g>
</g>
<!-- Node2 -->
<g id="node2" class="node">
<title>Node2</title>
<g id="a_node2"><a xlink:href="classAppSettings.html#af97c4b73b02f8cf8ef75b11d8f86ac40" target="_top" xlink:title=" ">
<polygon fill="white" stroke="black" points="139,-39 139,-69 272,-69 272,-39 139,-39"/>
<text text-anchor="start" x="147" y="-57" font-family="Helvetica,sans-Serif" font-size="10.00">AppSettings::readandApply</text>
<text text-anchor="middle" x="205.5" y="-46" font-family="Helvetica,sans-Serif" font-size="10.00">Settings</text>
</a>
</g>
</g>
<!-- Node1&#45;&gt;Node2 -->
<g id="edge1" class="edge">
<title>Node1&#45;&gt;Node2</title>
<path fill="none" stroke="midnightblue" d="M307.41,-41.35C295.65,-42.82 283.56,-44.34 272.02,-45.79"/>
<polygon fill="midnightblue" stroke="midnightblue" points="308.16,-44.78 317.65,-40.07 307.29,-37.84 308.16,-44.78"/>
</g>
<!-- Node4 -->
<g id="node4" class="node">
<title>Node4</title>
<g id="a_node4"><a xlink:href="classAppSettings.html#afa30c7ad061739fceec748a0f00f98a2" target="_top" xlink:title=" ">
<polygon fill="white" stroke="black" points="129,-0.5 129,-19.5 282,-19.5 282,-0.5 129,-0.5"/>
<text text-anchor="middle" x="205.5" y="-7.5" font-family="Helvetica,sans-Serif" font-size="10.00">AppSettings::writeRPMSettings</text>
</a>
</g>
</g>
<!-- Node1&#45;&gt;Node4 -->
<g id="edge3" class="edge">
<title>Node1&#45;&gt;Node4</title>
<path fill="none" stroke="midnightblue" d="M307.51,-22.66C299.12,-21.61 290.56,-20.54 282.15,-19.48"/>
<polygon fill="midnightblue" stroke="midnightblue" points="307.29,-26.16 317.65,-23.93 308.16,-19.22 307.29,-26.16"/>
</g>
<!-- Node3 -->
<g id="node3" class="node">
<title>Node3</title>
<g id="a_node3"><a xlink:href="classConnect.html#a2e3bdc883e226b286ee2ea851bf5f551" target="_top" xlink:title=" ">
<polygon fill="white" stroke="black" points="0,-44.5 0,-63.5 93,-63.5 93,-44.5 0,-44.5"/>
<text text-anchor="middle" x="46.5" y="-51.5" font-family="Helvetica,sans-Serif" font-size="10.00">Connect::Connect</text>
</a>
</g>
</g>
<!-- Node2&#45;&gt;Node3 -->
<g id="edge2" class="edge">
<title>Node2&#45;&gt;Node3</title>
<path fill="none" stroke="midnightblue" d="M128.72,-54C116.64,-54 104.46,-54 93.35,-54"/>
<polygon fill="midnightblue" stroke="midnightblue" points="128.83,-57.5 138.83,-54 128.83,-50.5 128.83,-57.5"/>
</g>
</g>
</svg>
