<?xml version="1.0" encoding="UTF-8" standalone="no"?>
<!DOCTYPE svg PUBLIC "-//W3C//DTD SVG 1.1//EN"
 "http://www.w3.org/Graphics/SVG/1.1/DTD/svg11.dtd">
<!-- Generated by graphviz version 2.49.3 (20211027.1534)
 -->
<!-- Title: DashBoard::timeddutyoutputactiveChanged Pages: 1 -->
<svg width="887pt" height="39pt"
 viewBox="0.00 0.00 887.00 39.00" xmlns="http://www.w3.org/2000/svg" xmlns:xlink="http://www.w3.org/1999/xlink">
<g id="graph0" class="graph" transform="scale(1 1) rotate(0) translate(4 35)">
<title>DashBoard::timeddutyoutputactiveChanged</title>
<polygon fill="white" stroke="transparent" points="-4,4 -4,-35 883,-35 883,4 -4,4"/>
<!-- Node1 -->
<g id="node1" class="node">
<title>Node1</title>
<g id="a_node1"><a xlink:title=" ">
<polygon fill="#bfbfbf" stroke="black" points="715,-0.5 715,-30.5 879,-30.5 879,-0.5 715,-0.5"/>
<text text-anchor="start" x="723" y="-18.5" font-family="Helvetica,sans-Serif" font-size="10.00">DashBoard::timeddutyoutputactive</text>
<text text-anchor="middle" x="797" y="-7.5" font-family="Helvetica,sans-Serif" font-size="10.00">Changed</text>
</a>
</g>
</g>
<!-- Node2 -->
<g id="node2" class="node">
<title>Node2</title>
<g id="a_node2"><a xlink:href="classDashBoard.html#aa89fa8401541b02b7cc05e1893d8f643" target="_top" xlink:title=" ">
<polygon fill="white" stroke="black" points="501,-6 501,-25 679,-25 679,-6 501,-6"/>
<text text-anchor="middle" x="590" y="-13" font-family="Helvetica,sans-Serif" font-size="10.00">DashBoard::settimeddutyoutputactive</text>
</a>
</g>
</g>
<!-- Node1&#45;&gt;Node2 -->
<g id="edge1" class="edge">
<title>Node1&#45;&gt;Node2</title>
<path fill="none" stroke="midnightblue" d="M704.71,-15.5C696.23,-15.5 687.65,-15.5 679.2,-15.5"/>
<polygon fill="midnightblue" stroke="midnightblue" points="704.98,-19 714.98,-15.5 704.98,-12 704.98,-19"/>
</g>
<!-- Node3 -->
<g id="node3" class="node">
<title>Node3</title>
<g id="a_node3"><a xlink:href="classudpreceiver.html#a725cf4f5cf798fd5baed7eee2e6dd5f2" target="_top" xlink:title=" ">
<polygon fill="white" stroke="black" points="324,-0.5 324,-30.5 465,-30.5 465,-0.5 324,-0.5"/>
<text text-anchor="start" x="332" y="-18.5" font-family="Helvetica,sans-Serif" font-size="10.00">udpreceiver::processPending</text>
<text text-anchor="middle" x="394.5" y="-7.5" font-family="Helvetica,sans-Serif" font-size="10.00">Datagrams</text>
</a>
</g>
</g>
<!-- Node2&#45;&gt;Node3 -->
<g id="edge2" class="edge">
<title>Node2&#45;&gt;Node3</title>
<path fill="none" stroke="midnightblue" d="M490.63,-15.5C482,-15.5 473.39,-15.5 465.08,-15.5"/>
<polygon fill="midnightblue" stroke="midnightblue" points="490.74,-19 500.74,-15.5 490.74,-12 490.74,-19"/>
</g>
<!-- Node4 -->
<g id="node4" class="node">
<title>Node4</title>
<g id="a_node4"><a xlink:href="classudpreceiver.html#a2d7852b9e4be87d9a3ce960d8a7eb9aa" target="_top" xlink:title=" ">
<polygon fill="white" stroke="black" points="163,-6 163,-25 288,-25 288,-6 163,-6"/>
<text text-anchor="middle" x="225.5" y="-13" font-family="Helvetica,sans-Serif" font-size="10.00">udpreceiver::startreceiver</text>
</a>
</g>
</g>
<!-- Node3&#45;&gt;Node4 -->
<g id="edge3" class="edge">
<title>Node3&#45;&gt;Node4</title>
<path fill="none" stroke="midnightblue" d="M313.62,-15.5C305.05,-15.5 296.42,-15.5 288.11,-15.5"/>
<polygon fill="midnightblue" stroke="midnightblue" points="313.64,-19 323.64,-15.5 313.64,-12 313.64,-19"/>
</g>
<!-- Node5 -->
<g id="node5" class="node">
<title>Node5</title>
<g id="a_node5"><a xlink:href="classConnect.html#a0d674157f4d7442c535837dadd8cf5f1" target="_top" xlink:title=" ">
<polygon fill="white" stroke="black" points="0,-6 0,-25 127,-25 127,-6 0,-6"/>
<text text-anchor="middle" x="63.5" y="-13" font-family="Helvetica,sans-Serif" font-size="10.00">Connect::openConnection</text>
</a>
</g>
</g>
<!-- Node4&#45;&gt;Node5 -->
<g id="edge4" class="edge">
<title>Node4&#45;&gt;Node5</title>
<path fill="none" stroke="midnightblue" d="M152.46,-15.5C144.05,-15.5 135.52,-15.5 127.25,-15.5"/>
<polygon fill="midnightblue" stroke="midnightblue" points="152.64,-19 162.64,-15.5 152.64,-12 152.64,-19"/>
</g>
</g>
</svg>
