<?xml version="1.0" encoding="UTF-8" standalone="no"?>
<!DOCTYPE svg PUBLIC "-//W3C//DTD SVG 1.1//EN"
 "http://www.w3.org/Graphics/SVG/1.1/DTD/svg11.dtd">
<!-- Generated by graphviz version 2.49.3 (20211027.1534)
 -->
<!-- Title: Connect::checkifraspberrypi Pages: 1 -->
<svg width="309pt" height="66pt"
 viewBox="0.00 0.00 309.00 66.00" xmlns="http://www.w3.org/2000/svg" xmlns:xlink="http://www.w3.org/1999/xlink">
<g id="graph0" class="graph" transform="scale(1 1) rotate(0) translate(4 62)">
<title>Connect::checkifraspberrypi</title>
<polygon fill="white" stroke="transparent" points="-4,4 -4,-62 305,-62 305,4 -4,4"/>
<!-- Node1 -->
<g id="node1" class="node">
<title>Node1</title>
<g id="a_node1"><a xlink:title=" ">
<polygon fill="#bfbfbf" stroke="black" points="0,-19.5 0,-38.5 136,-38.5 136,-19.5 0,-19.5"/>
<text text-anchor="middle" x="68" y="-26.5" font-family="Helvetica,sans-Serif" font-size="10.00">Connect::checkifraspberrypi</text>
</a>
</g>
</g>
<!-- Node2 -->
<g id="node2" class="node">
<title>Node2</title>
<g id="a_node2"><a xlink:href="classDashBoard.html#a859867d33702db5286fc6664ab5e4542" target="_top" xlink:title=" ">
<polygon fill="white" stroke="black" points="172,-38.5 172,-57.5 301,-57.5 301,-38.5 172,-38.5"/>
<text text-anchor="middle" x="236.5" y="-45.5" font-family="Helvetica,sans-Serif" font-size="10.00">DashBoard::setBrightness</text>
</a>
</g>
</g>
<!-- Node1&#45;&gt;Node2 -->
<g id="edge1" class="edge">
<title>Node1&#45;&gt;Node2</title>
<path fill="none" stroke="midnightblue" d="M136.24,-36.67C144.58,-37.63 153.15,-38.6 161.58,-39.56"/>
<polygon fill="midnightblue" stroke="midnightblue" points="161.45,-43.07 171.78,-40.73 162.24,-36.12 161.45,-43.07"/>
</g>
<!-- Node3 -->
<g id="node3" class="node">
<title>Node3</title>
<g id="a_node3"><a xlink:href="classDashBoard.html#aa4f6b0ed4c406329afdb3d7a239b1b95" target="_top" xlink:title=" ">
<polygon fill="white" stroke="black" points="180.5,-0.5 180.5,-19.5 292.5,-19.5 292.5,-0.5 180.5,-0.5"/>
<text text-anchor="middle" x="236.5" y="-7.5" font-family="Helvetica,sans-Serif" font-size="10.00">DashBoard::setscreen</text>
</a>
</g>
</g>
<!-- Node1&#45;&gt;Node3 -->
<g id="edge2" class="edge">
<title>Node1&#45;&gt;Node3</title>
<path fill="none" stroke="midnightblue" d="M136.24,-21.33C147.44,-20.05 159.03,-18.73 170.18,-17.45"/>
<polygon fill="midnightblue" stroke="midnightblue" points="170.72,-20.91 180.26,-16.3 169.93,-13.96 170.72,-20.91"/>
</g>
</g>
</svg>
