<?xml version="1.0" encoding="UTF-8" standalone="no"?>
<!DOCTYPE svg PUBLIC "-//W3C//DTD SVG 1.1//EN"
 "http://www.w3.org/Graphics/SVG/1.1/DTD/svg11.dtd">
<!-- Generated by graphviz version 2.49.3 (20211027.1534)
 -->
<!-- Title: DashBoard::tRIMChanged Pages: 1 -->
<svg width="1023pt" height="88pt"
 viewBox="0.00 0.00 1023.00 88.00" xmlns="http://www.w3.org/2000/svg" xmlns:xlink="http://www.w3.org/1999/xlink">
<g id="graph0" class="graph" transform="scale(1 1) rotate(0) translate(4 84)">
<title>DashBoard::tRIMChanged</title>
<polygon fill="white" stroke="transparent" points="-4,4 -4,-84 1019,-84 1019,4 -4,4"/>
<!-- Node1 -->
<g id="node1" class="node">
<title>Node1</title>
<g id="a_node1"><a xlink:title=" ">
<polygon fill="#bfbfbf" stroke="black" points="887,-30 887,-49 1015,-49 1015,-30 887,-30"/>
<text text-anchor="middle" x="951" y="-37" font-family="Helvetica,sans-Serif" font-size="10.00">DashBoard::tRIMChanged</text>
</a>
</g>
</g>
<!-- Node2 -->
<g id="node2" class="node">
<title>Node2</title>
<g id="a_node2"><a xlink:href="classDashBoard.html#a910e90bfbab7e031083811ac765ee5cf" target="_top" xlink:title=" ">
<polygon fill="white" stroke="black" points="744,-30 744,-49 851,-49 851,-30 744,-30"/>
<text text-anchor="middle" x="797.5" y="-37" font-family="Helvetica,sans-Serif" font-size="10.00">DashBoard::setTRIM</text>
</a>
</g>
</g>
<!-- Node1&#45;&gt;Node2 -->
<g id="edge1" class="edge">
<title>Node1&#45;&gt;Node2</title>
<path fill="none" stroke="midnightblue" d="M876.57,-39.5C867.96,-39.5 859.31,-39.5 851.07,-39.5"/>
<polygon fill="midnightblue" stroke="midnightblue" points="876.63,-43 886.63,-39.5 876.63,-36 876.63,-43"/>
</g>
<!-- Node3 -->
<g id="node3" class="node">
<title>Node3</title>
<g id="a_node3"><a xlink:href="classAdaptronicSelect.html#ae353c5153a25423eb6044be7a2f1bf72" target="_top" xlink:title=" ">
<polygon fill="white" stroke="black" points="574,-49.5 574,-79.5 701,-79.5 701,-49.5 574,-49.5"/>
<text text-anchor="start" x="582" y="-67.5" font-family="Helvetica,sans-Serif" font-size="10.00">AdaptronicSelect::decode</text>
<text text-anchor="middle" x="637.5" y="-56.5" font-family="Helvetica,sans-Serif" font-size="10.00">Adaptronic</text>
</a>
</g>
</g>
<!-- Node2&#45;&gt;Node3 -->
<g id="edge2" class="edge">
<title>Node2&#45;&gt;Node3</title>
<path fill="none" stroke="midnightblue" d="M733.73,-49.43C722.96,-51.14 711.78,-52.91 701.02,-54.61"/>
<polygon fill="midnightblue" stroke="midnightblue" points="734.56,-52.84 743.89,-47.82 733.46,-45.93 734.56,-52.84"/>
</g>
<!-- Node7 -->
<g id="node7" class="node">
<title>Node7</title>
<g id="a_node7"><a xlink:href="classudpreceiver.html#a725cf4f5cf798fd5baed7eee2e6dd5f2" target="_top" xlink:title=" ">
<polygon fill="white" stroke="black" points="567,-0.5 567,-30.5 708,-30.5 708,-0.5 567,-0.5"/>
<text text-anchor="start" x="575" y="-18.5" font-family="Helvetica,sans-Serif" font-size="10.00">udpreceiver::processPending</text>
<text text-anchor="middle" x="637.5" y="-7.5" font-family="Helvetica,sans-Serif" font-size="10.00">Datagrams</text>
</a>
</g>
</g>
<!-- Node2&#45;&gt;Node7 -->
<g id="edge6" class="edge">
<title>Node2&#45;&gt;Node7</title>
<path fill="none" stroke="midnightblue" d="M733.74,-29.97C725.29,-28.68 716.59,-27.36 708.03,-26.06"/>
<polygon fill="midnightblue" stroke="midnightblue" points="733.48,-33.47 743.89,-31.51 734.53,-26.55 733.48,-33.47"/>
</g>
<!-- Node4 -->
<g id="node4" class="node">
<title>Node4</title>
<g id="a_node4"><a xlink:href="classAdaptronicSelect.html#af5ee85733260355dd5236c796c6a3fc5" target="_top" xlink:title=" ">
<polygon fill="white" stroke="black" points="379,-55 379,-74 531,-74 531,-55 379,-55"/>
<text text-anchor="middle" x="455" y="-62" font-family="Helvetica,sans-Serif" font-size="10.00">AdaptronicSelect::readyToRead</text>
</a>
</g>
</g>
<!-- Node3&#45;&gt;Node4 -->
<g id="edge3" class="edge">
<title>Node3&#45;&gt;Node4</title>
<path fill="none" stroke="midnightblue" d="M563.74,-64.5C553.04,-64.5 542,-64.5 531.25,-64.5"/>
<polygon fill="midnightblue" stroke="midnightblue" points="563.88,-68 573.88,-64.5 563.88,-61 563.88,-68"/>
</g>
<!-- Node5 -->
<g id="node5" class="node">
<title>Node5</title>
<g id="a_node5"><a xlink:href="classAdaptronicSelect.html#a79148c38700405eb6a3fc1338be170ab" target="_top" xlink:title=" ">
<polygon fill="white" stroke="black" points="201,-49.5 201,-79.5 343,-79.5 343,-49.5 201,-49.5"/>
<text text-anchor="start" x="209" y="-67.5" font-family="Helvetica,sans-Serif" font-size="10.00">AdaptronicSelect::Adaptronic</text>
<text text-anchor="middle" x="272" y="-56.5" font-family="Helvetica,sans-Serif" font-size="10.00">StartStream</text>
</a>
</g>
</g>
<!-- Node4&#45;&gt;Node5 -->
<g id="edge4" class="edge">
<title>Node4&#45;&gt;Node5</title>
<path fill="none" stroke="midnightblue" d="M368.75,-64.5C360.13,-64.5 351.45,-64.5 343.03,-64.5"/>
<polygon fill="midnightblue" stroke="midnightblue" points="368.81,-68 378.81,-64.5 368.81,-61 368.81,-68"/>
</g>
<!-- Node6 -->
<g id="node6" class="node">
<title>Node6</title>
<g id="a_node6"><a xlink:href="classAdaptronicSelect.html#a16932b235281a8071bdf5404df8160ac" target="_top" xlink:title=" ">
<polygon fill="white" stroke="black" points="0,-55 0,-74 165,-74 165,-55 0,-55"/>
<text text-anchor="middle" x="82.5" y="-62" font-family="Helvetica,sans-Serif" font-size="10.00">AdaptronicSelect::openConnection</text>
</a>
</g>
</g>
<!-- Node5&#45;&gt;Node6 -->
<g id="edge5" class="edge">
<title>Node5&#45;&gt;Node6</title>
<path fill="none" stroke="midnightblue" d="M190.7,-64.5C182.25,-64.5 173.65,-64.5 165.19,-64.5"/>
<polygon fill="midnightblue" stroke="midnightblue" points="190.92,-68 200.92,-64.5 190.92,-61 190.92,-68"/>
</g>
<!-- Node8 -->
<g id="node8" class="node">
<title>Node8</title>
<g id="a_node8"><a xlink:href="classudpreceiver.html#a2d7852b9e4be87d9a3ce960d8a7eb9aa" target="_top" xlink:title=" ">
<polygon fill="white" stroke="black" points="392.5,-6 392.5,-25 517.5,-25 517.5,-6 392.5,-6"/>
<text text-anchor="middle" x="455" y="-13" font-family="Helvetica,sans-Serif" font-size="10.00">udpreceiver::startreceiver</text>
</a>
</g>
</g>
<!-- Node7&#45;&gt;Node8 -->
<g id="edge7" class="edge">
<title>Node7&#45;&gt;Node8</title>
<path fill="none" stroke="midnightblue" d="M556.95,-15.5C543.74,-15.5 530.21,-15.5 517.54,-15.5"/>
<polygon fill="midnightblue" stroke="midnightblue" points="556.97,-19 566.97,-15.5 556.97,-12 556.97,-19"/>
</g>
<!-- Node9 -->
<g id="node9" class="node">
<title>Node9</title>
<g id="a_node9"><a xlink:href="classConnect.html#a0d674157f4d7442c535837dadd8cf5f1" target="_top" xlink:title=" ">
<polygon fill="white" stroke="black" points="208.5,-6 208.5,-25 335.5,-25 335.5,-6 208.5,-6"/>
<text text-anchor="middle" x="272" y="-13" font-family="Helvetica,sans-Serif" font-size="10.00">Connect::openConnection</text>
</a>
</g>
</g>
<!-- Node8&#45;&gt;Node9 -->
<g id="edge8" class="edge">
<title>Node8&#45;&gt;Node9</title>
<path fill="none" stroke="midnightblue" d="M382.43,-15.5C366.95,-15.5 350.7,-15.5 335.59,-15.5"/>
<polygon fill="midnightblue" stroke="midnightblue" points="382.47,-19 392.47,-15.5 382.47,-12 382.47,-19"/>
</g>
</g>
</svg>
