<?xml version="1.0" encoding="UTF-8" standalone="no"?>
<!DOCTYPE svg PUBLIC "-//W3C//DTD SVG 1.1//EN"
 "http://www.w3.org/Graphics/SVG/1.1/DTD/svg11.dtd">
<!-- Generated by graphviz version 2.49.3 (20211027.1534)
 -->
<!-- Title: DashBoard::gpsSpeedChanged Pages: 1 -->
<!--zoomable 236 -->
<svg id="main" version="1.1" xmlns="http://www.w3.org/2000/svg" xmlns:xlink="http://www.w3.org/1999/xlink" xml:space="preserve" onload="init(evt)">
<style type="text/css"><![CDATA[
.edge:hover path { stroke: red; }
.edge:hover polygon { stroke: red; fill: red; }
]]></style>
<script type="text/javascript"><![CDATA[
var edges = document.getElementsByTagName('g');
if (edges && edges.length) {
  for (var i=0;i<edges.length;i++) {
    if (edges[i].id.substr(0,4)=='edge') {
      edges[i].setAttribute('class','edge');
    }
  }
}
]]></script>
        <defs>
                <circle id="rim" cx="0" cy="0" r="7"/>
                <circle id="rim2" cx="0" cy="0" r="3.5"/>
                <g id="zoomPlus">
                        <use xlink:href="#rim" fill="#404040">
                                <set attributeName="fill" to="#808080" begin="zoomplus.mouseover" end="zoomplus.mouseout"/>
                        </use>
                        <path d="M-4,0h8M0,-4v8" fill="none" stroke="white" stroke-width="1.5" pointer-events="none"/>
                </g>
                <g id="zoomMin">
                        <use xlink:href="#rim" fill="#404040">
                                <set attributeName="fill" to="#808080" begin="zoomminus.mouseover" end="zoomminus.mouseout"/>
                        </use>
                        <path d="M-4,0h8" fill="none" stroke="white" stroke-width="1.5" pointer-events="none"/>
                </g>
                <g id="dirArrow">
                        <path fill="none" stroke="white" stroke-width="1.5" d="M0,-3.0v7 M-2.5,-0.5L0,-3.0L2.5,-0.5"/>
                </g>
               <g id="resetDef">
                       <use xlink:href="#rim2" fill="#404040">
                               <set attributeName="fill" to="#808080" begin="reset.mouseover" end="reset.mouseout"/>
                       </use>
               </g>
        </defs>

<script type="text/javascript">
var viewWidth = 1895;
var viewHeight = 236;
var sectionId = 'dynsection-253';
</script>
<script xlink:href="svgpan.js"/>
<svg id="graph" class="graph">
<g id="viewport">
<title>DashBoard::gpsSpeedChanged</title>
<polygon fill="white" stroke="transparent" points="-4,4 -4,-232 1891,-232 1891,4 -4,4"/>
<!-- Node1 -->
<g id="node1" class="node">
<title>Node1</title>
<g id="a_node1"><a xlink:title=" ">
<polygon fill="#bfbfbf" stroke="black" points="1736,-113.5 1736,-132.5 1887,-132.5 1887,-113.5 1736,-113.5"/>
<text text-anchor="middle" x="1811.5" y="-120.5" font-family="Helvetica,sans-Serif" font-size="10.00">DashBoard::gpsSpeedChanged</text>
</a>
</g>
</g>
<!-- Node2 -->
<g id="node2" class="node">
<title>Node2</title>
<g id="a_node2"><a xlink:href="classDashBoard.html#a16ed8cfba91338bea76b8ab5acd2a1c2" target="_top" xlink:title=" ">
<polygon fill="white" stroke="black" points="1574,-113.5 1574,-132.5 1700,-132.5 1700,-113.5 1574,-113.5"/>
<text text-anchor="middle" x="1637" y="-120.5" font-family="Helvetica,sans-Serif" font-size="10.00">DashBoard::setgpsSpeed</text>
</a>
</g>
</g>
<!-- Node1&#45;&gt;Node2 -->
<g id="edge1" class="edge">
<title>Node1&#45;&gt;Node2</title>
<path fill="none" stroke="midnightblue" d="M1725.73,-123C1717.09,-123 1708.42,-123 1700.09,-123"/>
<polygon fill="midnightblue" stroke="midnightblue" points="1725.84,-126.5 1735.84,-123 1725.84,-119.5 1725.84,-126.5"/>
</g>
<!-- Node3 -->
<g id="node3" class="node">
<title>Node3</title>
<g id="a_node3"><a xlink:href="classGPS.html#a9f0cacdc6f30465399f19ccb19edde1a" target="_top" xlink:title=" ">
<polygon fill="white" stroke="black" points="1411,-135.5 1411,-154.5 1524,-154.5 1524,-135.5 1411,-135.5"/>
<text text-anchor="middle" x="1467.5" y="-142.5" font-family="Helvetica,sans-Serif" font-size="10.00">GPS::processGPRMC</text>
</a>
</g>
</g>
<!-- Node2&#45;&gt;Node3 -->
<g id="edge2" class="edge">
<title>Node2&#45;&gt;Node3</title>
<path fill="none" stroke="midnightblue" d="M1563.59,-132.51C1550.33,-134.25 1536.69,-136.04 1524.02,-137.71"/>
<polygon fill="midnightblue" stroke="midnightblue" points="1564.17,-135.96 1573.63,-131.19 1563.26,-129.02 1564.17,-135.96"/>
</g>
<!-- Node13 -->
<g id="node13" class="node">
<title>Node13</title>
<g id="a_node13"><a xlink:href="classudpreceiver.html#a725cf4f5cf798fd5baed7eee2e6dd5f2" target="_top" xlink:title=" ">
<polygon fill="white" stroke="black" points="1397,-86 1397,-116 1538,-116 1538,-86 1397,-86"/>
<text text-anchor="start" x="1405" y="-104" font-family="Helvetica,sans-Serif" font-size="10.00">udpreceiver::processPending</text>
<text text-anchor="middle" x="1467.5" y="-93" font-family="Helvetica,sans-Serif" font-size="10.00">Datagrams</text>
</a>
</g>
</g>
<!-- Node2&#45;&gt;Node13 -->
<g id="edge22" class="edge">
<title>Node2&#45;&gt;Node13</title>
<path fill="none" stroke="midnightblue" d="M1563.51,-113.48C1555.12,-112.38 1546.59,-111.26 1538.25,-110.16"/>
<polygon fill="midnightblue" stroke="midnightblue" points="1563.26,-116.98 1573.63,-114.81 1564.17,-110.04 1563.26,-116.98"/>
</g>
<!-- Node4 -->
<g id="node4" class="node">
<title>Node4</title>
<g id="a_node4"><a xlink:href="classGPS.html#a217097ae4a846c621f001a5aa1f4fb4f" target="_top" xlink:title=" ">
<polygon fill="white" stroke="black" points="1239.5,-135.5 1239.5,-154.5 1357.5,-154.5 1357.5,-135.5 1239.5,-135.5"/>
<text text-anchor="middle" x="1298.5" y="-142.5" font-family="Helvetica,sans-Serif" font-size="10.00">GPS::ProcessMessage</text>
</a>
</g>
</g>
<!-- Node3&#45;&gt;Node4 -->
<g id="edge3" class="edge">
<title>Node3&#45;&gt;Node4</title>
<path fill="none" stroke="midnightblue" d="M1400.71,-145C1386.51,-145 1371.61,-145 1357.73,-145"/>
<polygon fill="midnightblue" stroke="midnightblue" points="1400.89,-148.5 1410.89,-145 1400.89,-141.5 1400.89,-148.5"/>
</g>
<!-- Node5 -->
<g id="node5" class="node">
<title>Node5</title>
<g id="a_node5"><a xlink:href="classGPS.html#aa0928d156961a54bf06d9b5210d85561" target="_top" xlink:title=" ">
<polygon fill="white" stroke="black" points="1087,-132.5 1087,-151.5 1186,-151.5 1186,-132.5 1087,-132.5"/>
<text text-anchor="middle" x="1136.5" y="-139.5" font-family="Helvetica,sans-Serif" font-size="10.00">GPS::readyToRead</text>
</a>
</g>
</g>
<!-- Node4&#45;&gt;Node5 -->
<g id="edge4" class="edge">
<title>Node4&#45;&gt;Node5</title>
<path fill="none" stroke="midnightblue" d="M1228.93,-143.71C1214.55,-143.44 1199.67,-143.17 1186.2,-142.91"/>
<polygon fill="midnightblue" stroke="midnightblue" points="1229.22,-147.22 1239.28,-143.91 1229.35,-140.22 1229.22,-147.22"/>
</g>
<!-- Node6 -->
<g id="node6" class="node">
<title>Node6</title>
<g id="a_node6"><a xlink:href="classGPS.html#ae4568ef4d5107c96c1af68d1abd33559" target="_top" xlink:title=" ">
<polygon fill="white" stroke="black" points="923,-85.5 923,-104.5 1037,-104.5 1037,-85.5 923,-85.5"/>
<text text-anchor="middle" x="980" y="-92.5" font-family="Helvetica,sans-Serif" font-size="10.00">GPS::closeConnection</text>
</a>
</g>
</g>
<!-- Node5&#45;&gt;Node6 -->
<g id="edge5" class="edge">
<title>Node5&#45;&gt;Node6</title>
<path fill="none" stroke="midnightblue" d="M1094.4,-129.5C1068.71,-121.68 1036.12,-111.77 1012.48,-104.58"/>
<polygon fill="midnightblue" stroke="midnightblue" points="1093.65,-132.93 1104.23,-132.49 1095.69,-126.23 1093.65,-132.93"/>
</g>
<!-- Node8 -->
<g id="node8" class="node">
<title>Node8</title>
<g id="a_node8"><a xlink:href="classGPS.html#a8775edfa08840ffb2647e0e5ba031fe5" target="_top" xlink:title=" ">
<polygon fill="white" stroke="black" points="298,-104.5 298,-123.5 417,-123.5 417,-104.5 298,-104.5"/>
<text text-anchor="middle" x="357.5" y="-111.5" font-family="Helvetica,sans-Serif" font-size="10.00">GPS::closeConnection1</text>
</a>
</g>
</g>
<!-- Node5&#45;&gt;Node8 -->
<g id="edge20" class="edge">
<title>Node5&#45;&gt;Node8</title>
<path fill="none" stroke="midnightblue" d="M1086.37,-153.9C1023.27,-168.11 910.16,-190 812,-190 812,-190 812,-190 649,-190 545.26,-190 427.26,-144.08 379.86,-123.63"/>
<polygon fill="midnightblue" stroke="midnightblue" points="1087.47,-157.24 1096.44,-151.6 1085.91,-150.41 1087.47,-157.24"/>
</g>
<!-- Node11 -->
<g id="node11" class="node">
<title>Node11</title>
<g id="a_node11"><a xlink:href="classGPS.html#ac2a7572afb184df9c14ae913f17306bf" target="_top" xlink:title=" ">
<polygon fill="white" stroke="black" points="601,-28.5 601,-47.5 699,-47.5 699,-28.5 601,-28.5"/>
<text text-anchor="middle" x="650" y="-35.5" font-family="Helvetica,sans-Serif" font-size="10.00">GPS::initSerialPort</text>
</a>
</g>
</g>
<!-- Node5&#45;&gt;Node11 -->
<g id="edge21" class="edge">
<title>Node5&#45;&gt;Node11</title>
<path fill="none" stroke="midnightblue" d="M1088.57,-128.7C1083.09,-126.22 1077.77,-123.34 1073,-120 1052.32,-105.49 1059.27,-87.93 1037,-76 927.62,-17.43 775.74,-23.49 699.19,-31.48"/>
<polygon fill="midnightblue" stroke="midnightblue" points="1087.27,-131.95 1097.85,-132.48 1089.91,-125.46 1087.27,-131.95"/>
</g>
<!-- Node7 -->
<g id="node7" class="node">
<title>Node7</title>
<g id="a_node7"><a xlink:href="classGPS.html#aaf69fb801bbce2ea70041e68fe0ec19a" target="_top" xlink:title=" ">
<polygon fill="white" stroke="black" points="735,-85.5 735,-104.5 887,-104.5 887,-85.5 735,-85.5"/>
<text text-anchor="middle" x="811" y="-92.5" font-family="Helvetica,sans-Serif" font-size="10.00">GPS::handleReconnectTimeout</text>
</a>
</g>
</g>
<!-- Node6&#45;&gt;Node7 -->
<g id="edge6" class="edge">
<title>Node6&#45;&gt;Node7</title>
<path fill="none" stroke="midnightblue" d="M912.81,-88.38C904.4,-88.25 895.75,-88.22 887.21,-88.28"/>
<polygon fill="midnightblue" stroke="midnightblue" points="912.86,-91.88 922.93,-88.58 913,-84.88 912.86,-91.88"/>
</g>
<!-- Node12 -->
<g id="node12" class="node">
<title>Node12</title>
<g id="a_node12"><a xlink:href="classGPS.html#a51eaea2422dd980ea0a6d28f12a136de" target="_top" xlink:title=" ">
<polygon fill="white" stroke="black" points="453,-104.5 453,-123.5 565,-123.5 565,-104.5 453,-104.5"/>
<text text-anchor="middle" x="509" y="-111.5" font-family="Helvetica,sans-Serif" font-size="10.00">GPS::openConnection</text>
</a>
</g>
</g>
<!-- Node6&#45;&gt;Node12 -->
<g id="edge19" class="edge">
<title>Node6&#45;&gt;Node12</title>
<path fill="none" stroke="midnightblue" d="M930.42,-106.66C916.48,-109.56 901.21,-112.32 887,-114 760.74,-128.94 728.07,-124.18 601,-120 589.45,-119.62 577.09,-118.97 565.31,-118.23"/>
<polygon fill="midnightblue" stroke="midnightblue" points="931.26,-110.06 940.3,-104.53 929.78,-103.21 931.26,-110.06"/>
</g>
<!-- Node7&#45;&gt;Node6 -->
<g id="edge7" class="edge">
<title>Node7&#45;&gt;Node6</title>
<path fill="none" stroke="midnightblue" d="M897.38,-101.75C906.04,-101.73 914.69,-101.62 922.93,-101.42"/>
<polygon fill="midnightblue" stroke="midnightblue" points="897.22,-98.25 887.21,-101.72 897.2,-105.25 897.22,-98.25"/>
</g>
<!-- Node7&#45;&gt;Node8 -->
<g id="edge8" class="edge">
<title>Node7&#45;&gt;Node8</title>
<path fill="none" stroke="midnightblue" d="M724.92,-90.27C652.44,-87.38 545.63,-85.78 453,-95 434.35,-96.86 413.93,-100.73 396.86,-104.49"/>
<polygon fill="midnightblue" stroke="midnightblue" points="724.78,-93.77 734.91,-90.69 725.07,-86.78 724.78,-93.77"/>
</g>
<!-- Node7&#45;&gt;Node11 -->
<g id="edge18" class="edge">
<title>Node7&#45;&gt;Node11</title>
<path fill="none" stroke="midnightblue" d="M773.94,-82.07C744.68,-71.58 704.1,-57.04 677.7,-47.57"/>
<polygon fill="midnightblue" stroke="midnightblue" points="772.79,-85.38 783.39,-85.46 775.15,-78.79 772.79,-85.38"/>
</g>
<!-- Node9 -->
<g id="node9" class="node">
<title>Node9</title>
<g id="a_node9"><a xlink:href="classGPS.html#abd750ada6a7b976f72761ce16246ccf6" target="_top" xlink:title=" ">
<polygon fill="white" stroke="black" points="142,-104.5 142,-123.5 262,-123.5 262,-104.5 142,-104.5"/>
<text text-anchor="middle" x="202" y="-111.5" font-family="Helvetica,sans-Serif" font-size="10.00">GPS::setGPSBAUD115</text>
</a>
</g>
</g>
<!-- Node8&#45;&gt;Node9 -->
<g id="edge9" class="edge">
<title>Node8&#45;&gt;Node9</title>
<path fill="none" stroke="midnightblue" d="M287.36,-114C278.89,-114 270.3,-114 262,-114"/>
<polygon fill="midnightblue" stroke="midnightblue" points="287.59,-117.5 297.59,-114 287.59,-110.5 287.59,-117.5"/>
</g>
<!-- Node9&#45;&gt;Node4 -->
<g id="edge17" class="edge">
<title>Node9&#45;&gt;Node4</title>
<path fill="none" stroke="midnightblue" d="M225.82,-129.02C275.13,-159.97 396.21,-228 508,-228 981,-228 981,-228 981,-228 1095.75,-228 1226.47,-176.32 1276.51,-154.52"/>
<polygon fill="midnightblue" stroke="midnightblue" points="227.52,-125.95 217.2,-123.52 223.75,-131.85 227.52,-125.95"/>
</g>
<!-- Node10 -->
<g id="node10" class="node">
<title>Node10</title>
<g id="a_node10"><a xlink:href="classGPS.html#a1b1c89214229f5dc8ff7e2fa9cbcad35" target="_top" xlink:title=" ">
<polygon fill="white" stroke="black" points="0,-47.5 0,-66.5 106,-66.5 106,-47.5 0,-47.5"/>
<text text-anchor="middle" x="53" y="-54.5" font-family="Helvetica,sans-Serif" font-size="10.00">GPS::handleTimeout</text>
</a>
</g>
</g>
<!-- Node9&#45;&gt;Node10 -->
<g id="edge10" class="edge">
<title>Node9&#45;&gt;Node10</title>
<path fill="none" stroke="midnightblue" d="M166.95,-100.8C139.96,-90.33 102.88,-75.95 78.68,-66.57"/>
<polygon fill="midnightblue" stroke="midnightblue" points="165.81,-104.11 176.4,-104.46 168.34,-97.58 165.81,-104.11"/>
</g>
<!-- Node10&#45;&gt;Node6 -->
<g id="edge11" class="edge">
<title>Node10&#45;&gt;Node6</title>
<path fill="none" stroke="midnightblue" d="M93.9,-44.57C151.35,-27.8 260.96,0 356.5,0 651,0 651,0 651,0 772.83,0 910.42,-61.22 959.97,-85.37"/>
<polygon fill="midnightblue" stroke="midnightblue" points="92.73,-41.26 84.13,-47.46 94.71,-47.98 92.73,-41.26"/>
</g>
<!-- Node10&#45;&gt;Node8 -->
<g id="edge12" class="edge">
<title>Node10&#45;&gt;Node8</title>
<path fill="none" stroke="midnightblue" d="M116.12,-68.05C157.49,-75.49 213.04,-85.61 262,-95 277.61,-98 294.65,-101.38 309.91,-104.46"/>
<polygon fill="midnightblue" stroke="midnightblue" points="116.65,-64.59 106.19,-66.27 115.42,-71.48 116.65,-64.59"/>
</g>
<!-- Node10&#45;&gt;Node11 -->
<g id="edge13" class="edge">
<title>Node10&#45;&gt;Node11</title>
<path fill="none" stroke="midnightblue" d="M116.07,-55.02C235.19,-51.21 493.55,-42.96 600.81,-39.54"/>
<polygon fill="midnightblue" stroke="midnightblue" points="115.9,-51.52 106.02,-55.34 116.12,-58.52 115.9,-51.52"/>
</g>
<!-- Node11&#45;&gt;Node12 -->
<g id="edge14" class="edge">
<title>Node11&#45;&gt;Node12</title>
<path fill="none" stroke="midnightblue" d="M622.56,-52.46C594.64,-67.72 551.41,-91.36 527.46,-104.45"/>
<polygon fill="midnightblue" stroke="midnightblue" points="624.3,-55.49 631.4,-47.63 620.94,-49.35 624.3,-55.49"/>
</g>
<!-- Node12&#45;&gt;Node7 -->
<g id="edge16" class="edge">
<title>Node12&#45;&gt;Node7</title>
<path fill="none" stroke="midnightblue" d="M575.51,-109.85C622.42,-106.88 685.69,-102.87 734.68,-99.77"/>
<polygon fill="midnightblue" stroke="midnightblue" points="575.22,-106.36 565.46,-110.49 575.66,-113.35 575.22,-106.36"/>
</g>
<!-- Node12&#45;&gt;Node8 -->
<g id="edge15" class="edge">
<title>Node12&#45;&gt;Node8</title>
<path fill="none" stroke="midnightblue" d="M442.52,-114C434.03,-114 425.39,-114 417.03,-114"/>
<polygon fill="midnightblue" stroke="midnightblue" points="442.76,-117.5 452.76,-114 442.76,-110.5 442.76,-117.5"/>
</g>
<!-- Node14 -->
<g id="node14" class="node">
<title>Node14</title>
<g id="a_node14"><a xlink:href="classudpreceiver.html#a2d7852b9e4be87d9a3ce960d8a7eb9aa" target="_top" xlink:title=" ">
<polygon fill="white" stroke="black" points="1236,-91.5 1236,-110.5 1361,-110.5 1361,-91.5 1236,-91.5"/>
<text text-anchor="middle" x="1298.5" y="-98.5" font-family="Helvetica,sans-Serif" font-size="10.00">udpreceiver::startreceiver</text>
</a>
</g>
</g>
<!-- Node13&#45;&gt;Node14 -->
<g id="edge23" class="edge">
<title>Node13&#45;&gt;Node14</title>
<path fill="none" stroke="midnightblue" d="M1386.62,-101C1378.05,-101 1369.42,-101 1361.11,-101"/>
<polygon fill="midnightblue" stroke="midnightblue" points="1386.64,-104.5 1396.64,-101 1386.64,-97.5 1386.64,-104.5"/>
</g>
<!-- Node15 -->
<g id="node15" class="node">
<title>Node15</title>
<g id="a_node15"><a xlink:href="classConnect.html#a0d674157f4d7442c535837dadd8cf5f1" target="_top" xlink:title=" ">
<polygon fill="white" stroke="black" points="1073,-91.5 1073,-110.5 1200,-110.5 1200,-91.5 1073,-91.5"/>
<text text-anchor="middle" x="1136.5" y="-98.5" font-family="Helvetica,sans-Serif" font-size="10.00">Connect::openConnection</text>
</a>
</g>
</g>
<!-- Node14&#45;&gt;Node15 -->
<g id="edge24" class="edge">
<title>Node14&#45;&gt;Node15</title>
<path fill="none" stroke="midnightblue" d="M1225.46,-101C1217.05,-101 1208.52,-101 1200.25,-101"/>
<polygon fill="midnightblue" stroke="midnightblue" points="1225.64,-104.5 1235.64,-101 1225.64,-97.5 1225.64,-104.5"/>
</g>
</g>
</svg>
        <g id="navigator" transform="translate(0 0)" fill="#404254">
                <rect fill="#f2f5e9" fill-opacity="0.5" stroke="#606060" stroke-width=".5" x="0" y="0" width="60" height="60"/>
                <use id="zoomplus" xlink:href="#zoomPlus" x="17" y="9" onmousedown="handleZoom(evt,'in')"/>
                <use id="zoomminus" xlink:href="#zoomMin" x="42" y="9" onmousedown="handleZoom(evt,'out')"/>
                <use id="reset" xlink:href="#resetDef" x="30" y="36" onmousedown="handleReset()"/>
                <g id="arrowUp" xlink:href="#dirArrow" transform="translate(30 24)" onmousedown="handlePan(0,-1)">
                  <use xlink:href="#rim" fill="#404040">
                        <set attributeName="fill" to="#808080" begin="arrowUp.mouseover" end="arrowUp.mouseout"/>
                  </use>
                  <path fill="none" stroke="white" stroke-width="1.5" d="M0,-3.0v7 M-2.5,-0.5L0,-3.0L2.5,-0.5"/>
                </g>
                <g id="arrowRight" xlink:href="#dirArrow" transform="rotate(90) translate(36 -43)" onmousedown="handlePan(1,0)">
                  <use xlink:href="#rim" fill="#404040">
                        <set attributeName="fill" to="#808080" begin="arrowRight.mouseover" end="arrowRight.mouseout"/>
                  </use>
                  <path fill="none" stroke="white" stroke-width="1.5" d="M0,-3.0v7 M-2.5,-0.5L0,-3.0L2.5,-0.5"/>
                </g>
                <g id="arrowDown" xlink:href="#dirArrow" transform="rotate(180) translate(-30 -48)" onmousedown="handlePan(0,1)">
                  <use xlink:href="#rim" fill="#404040">
                        <set attributeName="fill" to="#808080" begin="arrowDown.mouseover" end="arrowDown.mouseout"/>
                  </use>
                  <path fill="none" stroke="white" stroke-width="1.5" d="M0,-3.0v7 M-2.5,-0.5L0,-3.0L2.5,-0.5"/>
                </g>
                <g id="arrowLeft" xlink:href="#dirArrow" transform="rotate(270) translate(-36 17)" onmousedown="handlePan(-1,0)">
                  <use xlink:href="#rim" fill="#404040">
                        <set attributeName="fill" to="#808080" begin="arrowLeft.mouseover" end="arrowLeft.mouseout"/>
                  </use>
                  <path fill="none" stroke="white" stroke-width="1.5" d="M0,-3.0v7 M-2.5,-0.5L0,-3.0L2.5,-0.5"/>
                </g>
        </g>
        <svg viewBox="0 0 15 15" width="100%" height="30px" preserveAspectRatio="xMaxYMin meet">
         <g id="arrow_out" transform="scale(0.3 0.3)">
          <a xlink:href="classDashBoard_ac4e3932d8af635c9da9868039572bce2_icgraph_org.svg" target="_base">
           <rect id="button" ry="5" rx="5" y="6" x="6" height="38" width="38"
                fill="#f2f5e9" fill-opacity="0.5" stroke="#606060" stroke-width="1.0"/>
           <path id="arrow"
             d="M 11.500037,31.436501 C 11.940474,20.09759 22.043105,11.32322 32.158766,21.979434 L 37.068811,17.246167 C 37.068811,17.246167 37.088388,32 37.088388,32 L 22.160133,31.978069 C 22.160133,31.978069 26.997745,27.140456 26.997745,27.140456 C 18.528582,18.264221 13.291696,25.230495 11.500037,31.436501 z"
             style="fill:#404040;"/>
          </a>
         </g>
        </svg>
</svg>
