<?xml version="1.0" encoding="UTF-8" standalone="no"?>
<!DOCTYPE svg PUBLIC "-//W3C//DTD SVG 1.1//EN"
 "http://www.w3.org/Graphics/SVG/1.1/DTD/svg11.dtd">
<!-- Generated by graphviz version 2.49.3 (20211027.1534)
 -->
<!-- Title: DashBoard::setgpsLongitude Pages: 1 -->
<!--zoomable 256 -->
<svg id="main" version="1.1" xmlns="http://www.w3.org/2000/svg" xmlns:xlink="http://www.w3.org/1999/xlink" xml:space="preserve" onload="init(evt)">
<style type="text/css"><![CDATA[
.edge:hover path { stroke: red; }
.edge:hover polygon { stroke: red; fill: red; }
]]></style>
<script type="text/javascript"><![CDATA[
var edges = document.getElementsByTagName('g');
if (edges && edges.length) {
  for (var i=0;i<edges.length;i++) {
    if (edges[i].id.substr(0,4)=='edge') {
      edges[i].setAttribute('class','edge');
    }
  }
}
]]></script>
        <defs>
                <circle id="rim" cx="0" cy="0" r="7"/>
                <circle id="rim2" cx="0" cy="0" r="3.5"/>
                <g id="zoomPlus">
                        <use xlink:href="#rim" fill="#404040">
                                <set attributeName="fill" to="#808080" begin="zoomplus.mouseover" end="zoomplus.mouseout"/>
                        </use>
                        <path d="M-4,0h8M0,-4v8" fill="none" stroke="white" stroke-width="1.5" pointer-events="none"/>
                </g>
                <g id="zoomMin">
                        <use xlink:href="#rim" fill="#404040">
                                <set attributeName="fill" to="#808080" begin="zoomminus.mouseover" end="zoomminus.mouseout"/>
                        </use>
                        <path d="M-4,0h8" fill="none" stroke="white" stroke-width="1.5" pointer-events="none"/>
                </g>
                <g id="dirArrow">
                        <path fill="none" stroke="white" stroke-width="1.5" d="M0,-3.0v7 M-2.5,-0.5L0,-3.0L2.5,-0.5"/>
                </g>
               <g id="resetDef">
                       <use xlink:href="#rim2" fill="#404040">
                               <set attributeName="fill" to="#808080" begin="reset.mouseover" end="reset.mouseout"/>
                       </use>
               </g>
        </defs>

<script type="text/javascript">
var viewWidth = 1660;
var viewHeight = 256;
var sectionId = 'dynsection-699';
</script>
<script xlink:href="svgpan.js"/>
<svg id="graph" class="graph">
<g id="viewport">
<title>DashBoard::setgpsLongitude</title>
<polygon fill="white" stroke="transparent" points="-4,4 -4,-252 1656,-252 1656,4 -4,4"/>
<!-- Node1 -->
<g id="node1" class="node">
<title>Node1</title>
<g id="a_node1"><a xlink:title=" ">
<polygon fill="#bfbfbf" stroke="black" points="1511,-19.5 1511,-38.5 1652,-38.5 1652,-19.5 1511,-19.5"/>
<text text-anchor="middle" x="1581.5" y="-26.5" font-family="Helvetica,sans-Serif" font-size="10.00">DashBoard::setgpsLongitude</text>
</a>
</g>
</g>
<!-- Node2 -->
<g id="node2" class="node">
<title>Node2</title>
<g id="a_node2"><a xlink:href="classGPS.html#a6fbf5e49f6a05b056835666f2e1cb830" target="_top" xlink:title=" ">
<polygon fill="white" stroke="black" points="1362,-38.5 1362,-57.5 1475,-57.5 1475,-38.5 1362,-38.5"/>
<text text-anchor="middle" x="1418.5" y="-45.5" font-family="Helvetica,sans-Serif" font-size="10.00">GPS::processGPGGA</text>
</a>
</g>
</g>
<!-- Node1&#45;&gt;Node2 -->
<g id="edge1" class="edge">
<title>Node1&#45;&gt;Node2</title>
<path fill="none" stroke="midnightblue" d="M1500.73,-38.41C1492.11,-39.43 1483.48,-40.45 1475.23,-41.42"/>
<polygon fill="midnightblue" stroke="midnightblue" points="1501.3,-41.87 1510.82,-37.22 1500.48,-34.92 1501.3,-41.87"/>
</g>
<!-- Node12 -->
<g id="node12" class="node">
<title>Node12</title>
<g id="a_node12"><a xlink:href="classGPS.html#a9f0cacdc6f30465399f19ccb19edde1a" target="_top" xlink:title=" ">
<polygon fill="white" stroke="black" points="1362,-0.5 1362,-19.5 1475,-19.5 1475,-0.5 1362,-0.5"/>
<text text-anchor="middle" x="1418.5" y="-7.5" font-family="Helvetica,sans-Serif" font-size="10.00">GPS::processGPRMC</text>
</a>
</g>
</g>
<!-- Node1&#45;&gt;Node12 -->
<g id="edge21" class="edge">
<title>Node1&#45;&gt;Node12</title>
<path fill="none" stroke="midnightblue" d="M1500.73,-19.59C1492.11,-18.57 1483.48,-17.55 1475.23,-16.58"/>
<polygon fill="midnightblue" stroke="midnightblue" points="1500.48,-23.08 1510.82,-20.78 1501.3,-16.13 1500.48,-23.08"/>
</g>
<!-- Node3 -->
<g id="node3" class="node">
<title>Node3</title>
<g id="a_node3"><a xlink:href="classGPS.html#a217097ae4a846c621f001a5aa1f4fb4f" target="_top" xlink:title=" ">
<polygon fill="white" stroke="black" points="1208,-19.5 1208,-38.5 1326,-38.5 1326,-19.5 1208,-19.5"/>
<text text-anchor="middle" x="1267" y="-26.5" font-family="Helvetica,sans-Serif" font-size="10.00">GPS::ProcessMessage</text>
</a>
</g>
</g>
<!-- Node2&#45;&gt;Node3 -->
<g id="edge2" class="edge">
<title>Node2&#45;&gt;Node3</title>
<path fill="none" stroke="midnightblue" d="M1351.9,-39.66C1343.35,-38.58 1334.63,-37.47 1326.22,-36.4"/>
<polygon fill="midnightblue" stroke="midnightblue" points="1351.47,-43.14 1361.83,-40.93 1352.35,-36.19 1351.47,-43.14"/>
</g>
<!-- Node4 -->
<g id="node4" class="node">
<title>Node4</title>
<g id="a_node4"><a xlink:href="classGPS.html#aa0928d156961a54bf06d9b5210d85561" target="_top" xlink:title=" ">
<polygon fill="white" stroke="black" points="1073,-76.5 1073,-95.5 1172,-95.5 1172,-76.5 1073,-76.5"/>
<text text-anchor="middle" x="1122.5" y="-83.5" font-family="Helvetica,sans-Serif" font-size="10.00">GPS::readyToRead</text>
</a>
</g>
</g>
<!-- Node3&#45;&gt;Node4 -->
<g id="edge3" class="edge">
<title>Node3&#45;&gt;Node4</title>
<path fill="none" stroke="midnightblue" d="M1232.65,-42.34C1206.51,-52.8 1170.78,-67.09 1147.43,-76.43"/>
<polygon fill="midnightblue" stroke="midnightblue" points="1234.16,-45.5 1242.15,-38.54 1231.56,-39 1234.16,-45.5"/>
</g>
<!-- Node5 -->
<g id="node5" class="node">
<title>Node5</title>
<g id="a_node5"><a xlink:href="classGPS.html#ae4568ef4d5107c96c1af68d1abd33559" target="_top" xlink:title=" ">
<polygon fill="white" stroke="black" points="923,-114.5 923,-133.5 1037,-133.5 1037,-114.5 923,-114.5"/>
<text text-anchor="middle" x="980" y="-121.5" font-family="Helvetica,sans-Serif" font-size="10.00">GPS::closeConnection</text>
</a>
</g>
</g>
<!-- Node4&#45;&gt;Node5 -->
<g id="edge4" class="edge">
<title>Node4&#45;&gt;Node5</title>
<path fill="none" stroke="midnightblue" d="M1076.22,-98.25C1056.86,-103.48 1034.58,-109.51 1016.44,-114.41"/>
<polygon fill="midnightblue" stroke="midnightblue" points="1077.31,-101.58 1086.05,-95.59 1075.48,-94.82 1077.31,-101.58"/>
</g>
<!-- Node7 -->
<g id="node7" class="node">
<title>Node7</title>
<g id="a_node7"><a xlink:href="classGPS.html#a8775edfa08840ffb2647e0e5ba031fe5" target="_top" xlink:title=" ">
<polygon fill="white" stroke="black" points="298,-114.5 298,-133.5 417,-133.5 417,-114.5 298,-114.5"/>
<text text-anchor="middle" x="357.5" y="-121.5" font-family="Helvetica,sans-Serif" font-size="10.00">GPS::closeConnection1</text>
</a>
</g>
</g>
<!-- Node4&#45;&gt;Node7 -->
<g id="edge19" class="edge">
<title>Node4&#45;&gt;Node7</title>
<path fill="none" stroke="midnightblue" d="M1063.77,-74.63C1001.79,-63.44 900.33,-48 812,-48 812,-48 812,-48 649,-48 545.26,-48 427.26,-93.92 379.86,-114.37"/>
<polygon fill="midnightblue" stroke="midnightblue" points="1063.27,-78.1 1073.74,-76.46 1064.53,-71.22 1063.27,-78.1"/>
</g>
<!-- Node10 -->
<g id="node10" class="node">
<title>Node10</title>
<g id="a_node10"><a xlink:href="classGPS.html#ac2a7572afb184df9c14ae913f17306bf" target="_top" xlink:title=" ">
<polygon fill="white" stroke="black" points="601,-228.5 601,-247.5 699,-247.5 699,-228.5 601,-228.5"/>
<text text-anchor="middle" x="650" y="-235.5" font-family="Helvetica,sans-Serif" font-size="10.00">GPS::initSerialPort</text>
</a>
</g>
</g>
<!-- Node4&#45;&gt;Node10 -->
<g id="edge20" class="edge">
<title>Node4&#45;&gt;Node10</title>
<path fill="none" stroke="midnightblue" d="M1101.72,-102.25C1085.3,-115 1060.85,-132.33 1037,-143 921.72,-194.59 774.01,-220.97 699.14,-231.82"/>
<polygon fill="midnightblue" stroke="midnightblue" points="1104.31,-104.67 1109.96,-95.71 1099.96,-99.18 1104.31,-104.67"/>
</g>
<!-- Node6 -->
<g id="node6" class="node">
<title>Node6</title>
<g id="a_node6"><a xlink:href="classGPS.html#aaf69fb801bbce2ea70041e68fe0ec19a" target="_top" xlink:title=" ">
<polygon fill="white" stroke="black" points="735,-152.5 735,-171.5 887,-171.5 887,-152.5 735,-152.5"/>
<text text-anchor="middle" x="811" y="-159.5" font-family="Helvetica,sans-Serif" font-size="10.00">GPS::handleReconnectTimeout</text>
</a>
</g>
</g>
<!-- Node5&#45;&gt;Node6 -->
<g id="edge5" class="edge">
<title>Node5&#45;&gt;Node6</title>
<path fill="none" stroke="midnightblue" d="M913.05,-132.39C884.73,-138.4 853.59,-146.12 833.47,-152.42"/>
<polygon fill="midnightblue" stroke="midnightblue" points="913.85,-135.8 922.93,-130.34 912.42,-128.95 913.85,-135.8"/>
</g>
<!-- Node11 -->
<g id="node11" class="node">
<title>Node11</title>
<g id="a_node11"><a xlink:href="classGPS.html#a51eaea2422dd980ea0a6d28f12a136de" target="_top" xlink:title=" ">
<polygon fill="white" stroke="black" points="453,-133.5 453,-152.5 565,-152.5 565,-133.5 453,-133.5"/>
<text text-anchor="middle" x="509" y="-140.5" font-family="Helvetica,sans-Serif" font-size="10.00">GPS::openConnection</text>
</a>
</g>
</g>
<!-- Node5&#45;&gt;Node11 -->
<g id="edge18" class="edge">
<title>Node5&#45;&gt;Node11</title>
<path fill="none" stroke="midnightblue" d="M912.74,-126.68C819.62,-130.46 651.74,-137.26 565.08,-140.77"/>
<polygon fill="midnightblue" stroke="midnightblue" points="913.04,-130.17 922.89,-126.27 912.76,-123.18 913.04,-130.17"/>
</g>
<!-- Node6&#45;&gt;Node5 -->
<g id="edge6" class="edge">
<title>Node6&#45;&gt;Node5</title>
<path fill="none" stroke="midnightblue" d="M893.13,-150.29C916.91,-144.92 940.94,-138.77 957.51,-133.59"/>
<polygon fill="midnightblue" stroke="midnightblue" points="892.35,-146.88 883.34,-152.45 893.86,-153.71 892.35,-146.88"/>
</g>
<!-- Node6&#45;&gt;Node7 -->
<g id="edge7" class="edge">
<title>Node6&#45;&gt;Node7</title>
<path fill="none" stroke="midnightblue" d="M724.88,-171.48C651.95,-177.36 544.49,-180.67 453,-162 425.28,-156.34 395.29,-142.91 376.71,-133.64"/>
<polygon fill="midnightblue" stroke="midnightblue" points="725.27,-174.96 734.94,-170.64 724.68,-167.99 725.27,-174.96"/>
</g>
<!-- Node6&#45;&gt;Node10 -->
<g id="edge17" class="edge">
<title>Node6&#45;&gt;Node10</title>
<path fill="none" stroke="midnightblue" d="M780.59,-176.06C748.68,-191.31 698.6,-215.25 670.97,-228.45"/>
<polygon fill="midnightblue" stroke="midnightblue" points="782.35,-179.1 789.86,-171.63 779.33,-172.78 782.35,-179.1"/>
</g>
<!-- Node8 -->
<g id="node8" class="node">
<title>Node8</title>
<g id="a_node8"><a xlink:href="classGPS.html#abd750ada6a7b976f72761ce16246ccf6" target="_top" xlink:title=" ">
<polygon fill="white" stroke="black" points="142,-38.5 142,-57.5 262,-57.5 262,-38.5 142,-38.5"/>
<text text-anchor="middle" x="202" y="-45.5" font-family="Helvetica,sans-Serif" font-size="10.00">GPS::setGPSBAUD115</text>
</a>
</g>
</g>
<!-- Node7&#45;&gt;Node8 -->
<g id="edge8" class="edge">
<title>Node7&#45;&gt;Node8</title>
<path fill="none" stroke="midnightblue" d="M327.71,-109.74C296.88,-94.48 248.84,-70.7 222.28,-57.55"/>
<polygon fill="midnightblue" stroke="midnightblue" points="326.54,-113.07 337.06,-114.37 329.65,-106.8 326.54,-113.07"/>
</g>
<!-- Node8&#45;&gt;Node3 -->
<g id="edge16" class="edge">
<title>Node8&#45;&gt;Node3</title>
<path fill="none" stroke="midnightblue" d="M260.26,-36.56C321.36,-25.37 421.11,-10 508,-10 981,-10 981,-10 981,-10 1059.72,-10 1150.41,-17.31 1207.94,-22.86"/>
<polygon fill="midnightblue" stroke="midnightblue" points="259.25,-33.19 250.06,-38.46 260.53,-40.07 259.25,-33.19"/>
</g>
<!-- Node9 -->
<g id="node9" class="node">
<title>Node9</title>
<g id="a_node9"><a xlink:href="classGPS.html#a1b1c89214229f5dc8ff7e2fa9cbcad35" target="_top" xlink:title=" ">
<polygon fill="white" stroke="black" points="0,-95.5 0,-114.5 106,-114.5 106,-95.5 0,-95.5"/>
<text text-anchor="middle" x="53" y="-102.5" font-family="Helvetica,sans-Serif" font-size="10.00">GPS::handleTimeout</text>
</a>
</g>
</g>
<!-- Node8&#45;&gt;Node9 -->
<g id="edge9" class="edge">
<title>Node8&#45;&gt;Node9</title>
<path fill="none" stroke="midnightblue" d="M166.95,-61.2C139.96,-71.67 102.88,-86.05 78.68,-95.43"/>
<polygon fill="midnightblue" stroke="midnightblue" points="168.34,-64.42 176.4,-57.54 165.81,-57.89 168.34,-64.42"/>
</g>
<!-- Node9&#45;&gt;Node5 -->
<g id="edge10" class="edge">
<title>Node9&#45;&gt;Node5</title>
<path fill="none" stroke="midnightblue" d="M116.38,-98.79C177.49,-93.25 273.3,-86 356.5,-86 651,-86 651,-86 651,-86 749.74,-86 864.1,-103.2 928.36,-114.46"/>
<polygon fill="midnightblue" stroke="midnightblue" points="115.77,-95.33 106.13,-99.73 116.41,-102.3 115.77,-95.33"/>
</g>
<!-- Node9&#45;&gt;Node7 -->
<g id="edge11" class="edge">
<title>Node9&#45;&gt;Node7</title>
<path fill="none" stroke="midnightblue" d="M116.46,-108.92C169.7,-112.27 245.68,-117.04 297.82,-120.31"/>
<polygon fill="midnightblue" stroke="midnightblue" points="116.66,-105.43 106.46,-108.29 116.22,-112.41 116.66,-105.43"/>
</g>
<!-- Node9&#45;&gt;Node10 -->
<g id="edge12" class="edge">
<title>Node9&#45;&gt;Node10</title>
<path fill="none" stroke="midnightblue" d="M98.8,-117.1C112.62,-120.72 127.91,-124.63 142,-128 310.63,-168.31 512.33,-210.2 602.02,-228.49"/>
<polygon fill="midnightblue" stroke="midnightblue" points="99.59,-113.69 89.03,-114.52 97.8,-120.45 99.59,-113.69"/>
</g>
<!-- Node10&#45;&gt;Node11 -->
<g id="edge13" class="edge">
<title>Node10&#45;&gt;Node11</title>
<path fill="none" stroke="midnightblue" d="M626.28,-222.47C597.34,-202.69 548.2,-169.11 524.13,-152.66"/>
<polygon fill="midnightblue" stroke="midnightblue" points="624.68,-225.62 634.91,-228.37 628.63,-219.84 624.68,-225.62"/>
</g>
<!-- Node11&#45;&gt;Node6 -->
<g id="edge15" class="edge">
<title>Node11&#45;&gt;Node6</title>
<path fill="none" stroke="midnightblue" d="M575.51,-147.15C622.42,-150.12 685.69,-154.13 734.68,-157.23"/>
<polygon fill="midnightblue" stroke="midnightblue" points="575.66,-143.65 565.46,-146.51 575.22,-150.64 575.66,-143.65"/>
</g>
<!-- Node11&#45;&gt;Node7 -->
<g id="edge14" class="edge">
<title>Node11&#45;&gt;Node7</title>
<path fill="none" stroke="midnightblue" d="M442.8,-134.71C434.22,-133.62 425.48,-132.51 417.03,-131.44"/>
<polygon fill="midnightblue" stroke="midnightblue" points="442.39,-138.19 452.76,-135.98 443.28,-131.25 442.39,-138.19"/>
</g>
<!-- Node12&#45;&gt;Node3 -->
<g id="edge22" class="edge">
<title>Node12&#45;&gt;Node3</title>
<path fill="none" stroke="midnightblue" d="M1351.9,-18.34C1343.35,-19.42 1334.63,-20.53 1326.22,-21.6"/>
<polygon fill="midnightblue" stroke="midnightblue" points="1352.35,-21.81 1361.83,-17.07 1351.47,-14.86 1352.35,-21.81"/>
</g>
</g>
</svg>
        <g id="navigator" transform="translate(0 0)" fill="#404254">
                <rect fill="#f2f5e9" fill-opacity="0.5" stroke="#606060" stroke-width=".5" x="0" y="0" width="60" height="60"/>
                <use id="zoomplus" xlink:href="#zoomPlus" x="17" y="9" onmousedown="handleZoom(evt,'in')"/>
                <use id="zoomminus" xlink:href="#zoomMin" x="42" y="9" onmousedown="handleZoom(evt,'out')"/>
                <use id="reset" xlink:href="#resetDef" x="30" y="36" onmousedown="handleReset()"/>
                <g id="arrowUp" xlink:href="#dirArrow" transform="translate(30 24)" onmousedown="handlePan(0,-1)">
                  <use xlink:href="#rim" fill="#404040">
                        <set attributeName="fill" to="#808080" begin="arrowUp.mouseover" end="arrowUp.mouseout"/>
                  </use>
                  <path fill="none" stroke="white" stroke-width="1.5" d="M0,-3.0v7 M-2.5,-0.5L0,-3.0L2.5,-0.5"/>
                </g>
                <g id="arrowRight" xlink:href="#dirArrow" transform="rotate(90) translate(36 -43)" onmousedown="handlePan(1,0)">
                  <use xlink:href="#rim" fill="#404040">
                        <set attributeName="fill" to="#808080" begin="arrowRight.mouseover" end="arrowRight.mouseout"/>
                  </use>
                  <path fill="none" stroke="white" stroke-width="1.5" d="M0,-3.0v7 M-2.5,-0.5L0,-3.0L2.5,-0.5"/>
                </g>
                <g id="arrowDown" xlink:href="#dirArrow" transform="rotate(180) translate(-30 -48)" onmousedown="handlePan(0,1)">
                  <use xlink:href="#rim" fill="#404040">
                        <set attributeName="fill" to="#808080" begin="arrowDown.mouseover" end="arrowDown.mouseout"/>
                  </use>
                  <path fill="none" stroke="white" stroke-width="1.5" d="M0,-3.0v7 M-2.5,-0.5L0,-3.0L2.5,-0.5"/>
                </g>
                <g id="arrowLeft" xlink:href="#dirArrow" transform="rotate(270) translate(-36 17)" onmousedown="handlePan(-1,0)">
                  <use xlink:href="#rim" fill="#404040">
                        <set attributeName="fill" to="#808080" begin="arrowLeft.mouseover" end="arrowLeft.mouseout"/>
                  </use>
                  <path fill="none" stroke="white" stroke-width="1.5" d="M0,-3.0v7 M-2.5,-0.5L0,-3.0L2.5,-0.5"/>
                </g>
        </g>
        <svg viewBox="0 0 15 15" width="100%" height="30px" preserveAspectRatio="xMaxYMin meet">
         <g id="arrow_out" transform="scale(0.3 0.3)">
          <a xlink:href="classDashBoard_a32b0f4d9b9cdbecb02c96c9e814f0114_icgraph_org.svg" target="_base">
           <rect id="button" ry="5" rx="5" y="6" x="6" height="38" width="38"
                fill="#f2f5e9" fill-opacity="0.5" stroke="#606060" stroke-width="1.0"/>
           <path id="arrow"
             d="M 11.500037,31.436501 C 11.940474,20.09759 22.043105,11.32322 32.158766,21.979434 L 37.068811,17.246167 C 37.068811,17.246167 37.088388,32 37.088388,32 L 22.160133,31.978069 C 22.160133,31.978069 26.997745,27.140456 26.997745,27.140456 C 18.528582,18.264221 13.291696,25.230495 11.500037,31.436501 z"
             style="fill:#404040;"/>
          </a>
         </g>
        </svg>
</svg>
