<?xml version="1.0" encoding="UTF-8" standalone="no"?>
<!DOCTYPE svg PUBLIC "-//W3C//DTD SVG 1.1//EN"
 "http://www.w3.org/Graphics/SVG/1.1/DTD/svg11.dtd">
<!-- Generated by graphviz version 2.49.3 (20211027.1534)
 -->
<!-- Title: DashBoard::sixtyfootspeedChanged Pages: 1 -->
<svg width="745pt" height="39pt"
 viewBox="0.00 0.00 745.00 39.00" xmlns="http://www.w3.org/2000/svg" xmlns:xlink="http://www.w3.org/1999/xlink">
<g id="graph0" class="graph" transform="scale(1 1) rotate(0) translate(4 35)">
<title>DashBoard::sixtyfootspeedChanged</title>
<polygon fill="white" stroke="transparent" points="-4,4 -4,-35 741,-35 741,4 -4,4"/>
<!-- Node1 -->
<g id="node1" class="node">
<title>Node1</title>
<g id="a_node1"><a xlink:title=" ">
<polygon fill="#bfbfbf" stroke="black" points="606,-0.5 606,-30.5 737,-30.5 737,-0.5 606,-0.5"/>
<text text-anchor="start" x="614" y="-18.5" font-family="Helvetica,sans-Serif" font-size="10.00">DashBoard::sixtyfootspeed</text>
<text text-anchor="middle" x="671.5" y="-7.5" font-family="Helvetica,sans-Serif" font-size="10.00">Changed</text>
</a>
</g>
</g>
<!-- Node2 -->
<g id="node2" class="node">
<title>Node2</title>
<g id="a_node2"><a xlink:href="classDashBoard.html#af7d691d9a394e601b8e87e0a3069f6ec" target="_top" xlink:title=" ">
<polygon fill="white" stroke="black" points="425,-6 425,-25 570,-25 570,-6 425,-6"/>
<text text-anchor="middle" x="497.5" y="-13" font-family="Helvetica,sans-Serif" font-size="10.00">DashBoard::setsixtyfootspeed</text>
</a>
</g>
</g>
<!-- Node1&#45;&gt;Node2 -->
<g id="edge1" class="edge">
<title>Node1&#45;&gt;Node2</title>
<path fill="none" stroke="midnightblue" d="M595.96,-15.5C587.35,-15.5 578.6,-15.5 570.03,-15.5"/>
<polygon fill="midnightblue" stroke="midnightblue" points="595.96,-19 605.96,-15.5 595.96,-12 595.96,-19"/>
</g>
<!-- Node3 -->
<g id="node3" class="node">
<title>Node3</title>
<g id="a_node3"><a xlink:href="classcalculations.html#a3153c50c226f6960fdcf1daa998eba35" target="_top" xlink:title=" ">
<polygon fill="white" stroke="black" points="277,-6 277,-25 389,-25 389,-6 277,-6"/>
<text text-anchor="middle" x="333" y="-13" font-family="Helvetica,sans-Serif" font-size="10.00">calculations::calculate</text>
</a>
</g>
</g>
<!-- Node2&#45;&gt;Node3 -->
<g id="edge2" class="edge">
<title>Node2&#45;&gt;Node3</title>
<path fill="none" stroke="midnightblue" d="M414.67,-15.5C406.06,-15.5 397.46,-15.5 389.26,-15.5"/>
<polygon fill="midnightblue" stroke="midnightblue" points="414.75,-19 424.75,-15.5 414.75,-12 414.75,-19"/>
</g>
<!-- Node4 -->
<g id="node4" class="node">
<title>Node4</title>
<g id="a_node4"><a xlink:href="classcalculations.html#a62003ff4c935b799de90cef1cce4b7b7" target="_top" xlink:title=" ">
<polygon fill="white" stroke="black" points="149,-6 149,-25 241,-25 241,-6 149,-6"/>
<text text-anchor="middle" x="195" y="-13" font-family="Helvetica,sans-Serif" font-size="10.00">calculations::start</text>
</a>
</g>
</g>
<!-- Node3&#45;&gt;Node4 -->
<g id="edge3" class="edge">
<title>Node3&#45;&gt;Node4</title>
<path fill="none" stroke="midnightblue" d="M266.66,-15.5C258.08,-15.5 249.44,-15.5 241.29,-15.5"/>
<polygon fill="midnightblue" stroke="midnightblue" points="266.68,-19 276.68,-15.5 266.68,-12 266.68,-19"/>
</g>
<!-- Node5 -->
<g id="node5" class="node">
<title>Node5</title>
<g id="a_node5"><a xlink:href="classConnect.html#ab2f2af88f427c4a717f6abfd54f9b9df" target="_top" xlink:title=" ">
<polygon fill="white" stroke="black" points="0,-6 0,-25 113,-25 113,-6 0,-6"/>
<text text-anchor="middle" x="56.5" y="-13" font-family="Helvetica,sans-Serif" font-size="10.00">Connect::setOdometer</text>
</a>
</g>
</g>
<!-- Node4&#45;&gt;Node5 -->
<g id="edge4" class="edge">
<title>Node4&#45;&gt;Node5</title>
<path fill="none" stroke="midnightblue" d="M138.89,-15.5C130.52,-15.5 121.87,-15.5 113.48,-15.5"/>
<polygon fill="midnightblue" stroke="midnightblue" points="138.93,-19 148.93,-15.5 138.93,-12 138.93,-19"/>
</g>
</g>
</svg>
