<?xml version="1.0" encoding="UTF-8" standalone="no"?>
<!DOCTYPE svg PUBLIC "-//W3C//DTD SVG 1.1//EN"
 "http://www.w3.org/Graphics/SVG/1.1/DTD/svg11.dtd">
<!-- Generated by graphviz version 2.49.3 (20211027.1534)
 -->
<!-- Title: Apexi::closeConnection Pages: 1 -->
<!--zoomable 1130 -->
<svg id="main" version="1.1" xmlns="http://www.w3.org/2000/svg" xmlns:xlink="http://www.w3.org/1999/xlink" xml:space="preserve" onload="init(evt)">
<style type="text/css"><![CDATA[
.edge:hover path { stroke: red; }
.edge:hover polygon { stroke: red; fill: red; }
]]></style>
<script type="text/javascript"><![CDATA[
var edges = document.getElementsByTagName('g');
if (edges && edges.length) {
  for (var i=0;i<edges.length;i++) {
    if (edges[i].id.substr(0,4)=='edge') {
      edges[i].setAttribute('class','edge');
    }
  }
}
]]></script>
        <defs>
                <circle id="rim" cx="0" cy="0" r="7"/>
                <circle id="rim2" cx="0" cy="0" r="3.5"/>
                <g id="zoomPlus">
                        <use xlink:href="#rim" fill="#404040">
                                <set attributeName="fill" to="#808080" begin="zoomplus.mouseover" end="zoomplus.mouseout"/>
                        </use>
                        <path d="M-4,0h8M0,-4v8" fill="none" stroke="white" stroke-width="1.5" pointer-events="none"/>
                </g>
                <g id="zoomMin">
                        <use xlink:href="#rim" fill="#404040">
                                <set attributeName="fill" to="#808080" begin="zoomminus.mouseover" end="zoomminus.mouseout"/>
                        </use>
                        <path d="M-4,0h8" fill="none" stroke="white" stroke-width="1.5" pointer-events="none"/>
                </g>
                <g id="dirArrow">
                        <path fill="none" stroke="white" stroke-width="1.5" d="M0,-3.0v7 M-2.5,-0.5L0,-3.0L2.5,-0.5"/>
                </g>
               <g id="resetDef">
                       <use xlink:href="#rim2" fill="#404040">
                               <set attributeName="fill" to="#808080" begin="reset.mouseover" end="reset.mouseout"/>
                       </use>
               </g>
        </defs>

<script type="text/javascript">
var viewWidth = 967;
var viewHeight = 1130;
var sectionId = 'dynsection-6';
</script>
<script xlink:href="svgpan.js"/>
<svg id="graph" class="graph">
<g id="viewport">
<title>Apexi::closeConnection</title>
<polygon fill="white" stroke="transparent" points="-4,4 -4,-1126 963,-1126 963,4 -4,4"/>
<!-- Node1 -->
<g id="node1" class="node">
<title>Node1</title>
<g id="a_node1"><a xlink:title=" ">
<polygon fill="#bfbfbf" stroke="black" points="0,-1026.5 0,-1045.5 117,-1045.5 117,-1026.5 0,-1026.5"/>
<text text-anchor="middle" x="58.5" y="-1033.5" font-family="Helvetica,sans-Serif" font-size="10.00">Apexi::closeConnection</text>
</a>
</g>
</g>
<!-- Node2 -->
<g id="node2" class="node">
<title>Node2</title>
<g id="a_node2"><a xlink:href="classApexi.html#a8a8a56251df881cc9eb49f1f20332fda" target="_top" xlink:title=" ">
<polygon fill="white" stroke="black" points="153,-1102.5 153,-1121.5 282,-1121.5 282,-1102.5 153,-1102.5"/>
<text text-anchor="middle" x="217.5" y="-1109.5" font-family="Helvetica,sans-Serif" font-size="10.00">Apexi::handleBytesWritten</text>
</a>
</g>
</g>
<!-- Node1&#45;&gt;Node2 -->
<g id="edge1" class="edge">
<title>Node1&#45;&gt;Node2</title>
<path fill="none" stroke="midnightblue" d="M72.83,-1045.65C90.45,-1058.04 122.78,-1079.54 153,-1093 158.06,-1095.25 163.46,-1097.33 168.89,-1099.22"/>
<polygon fill="midnightblue" stroke="midnightblue" points="168.06,-1102.63 178.65,-1102.41 170.23,-1095.98 168.06,-1102.63"/>
</g>
<!-- Node3 -->
<g id="node3" class="node">
<title>Node3</title>
<g id="a_node3"><a xlink:href="classApexi.html#a6c775f27e878959c047bb9c252064cfe" target="_top" xlink:title=" ">
<polygon fill="white" stroke="black" points="170.5,-1064.5 170.5,-1083.5 264.5,-1083.5 264.5,-1064.5 170.5,-1064.5"/>
<text text-anchor="middle" x="217.5" y="-1071.5" font-family="Helvetica,sans-Serif" font-size="10.00">Apexi::handleError</text>
</a>
</g>
</g>
<!-- Node1&#45;&gt;Node3 -->
<g id="edge2" class="edge">
<title>Node1&#45;&gt;Node3</title>
<path fill="none" stroke="midnightblue" d="M99.12,-1045.59C119.84,-1050.6 145.39,-1056.79 167.36,-1062.11"/>
<polygon fill="midnightblue" stroke="midnightblue" points="166.62,-1065.53 177.17,-1064.48 168.27,-1058.73 166.62,-1065.53"/>
</g>
<!-- Node5 -->
<g id="node5" class="node">
<title>Node5</title>
<g id="a_node5"><a xlink:href="classApexi.html#a9c813630d2b2a70b7e098ae10220103e" target="_top" xlink:title=" ">
<polygon fill="white" stroke="black" points="326,-1026.5 326,-1045.5 435,-1045.5 435,-1026.5 326,-1026.5"/>
<text text-anchor="middle" x="380.5" y="-1033.5" font-family="Helvetica,sans-Serif" font-size="10.00">Apexi::handleTimeout</text>
</a>
</g>
</g>
<!-- Node1&#45;&gt;Node5 -->
<g id="edge4" class="edge">
<title>Node1&#45;&gt;Node5</title>
<path fill="none" stroke="midnightblue" d="M117.08,-1036C173.01,-1036 257.75,-1036 315.71,-1036"/>
<polygon fill="midnightblue" stroke="midnightblue" points="315.84,-1039.5 325.84,-1036 315.84,-1032.5 315.84,-1039.5"/>
</g>
<!-- Node9 -->
<g id="node9" class="node">
<title>Node9</title>
<g id="a_node9"><a xlink:href="classApexi.html#abe3bf6800fce8a4c713a08c14474d625" target="_top" xlink:title=" ">
<polygon fill="white" stroke="black" points="166.5,-988.5 166.5,-1007.5 268.5,-1007.5 268.5,-988.5 166.5,-988.5"/>
<text text-anchor="middle" x="217.5" y="-995.5" font-family="Helvetica,sans-Serif" font-size="10.00">Apexi::readyToRead</text>
</a>
</g>
</g>
<!-- Node1&#45;&gt;Node9 -->
<g id="edge10" class="edge">
<title>Node1&#45;&gt;Node9</title>
<path fill="none" stroke="midnightblue" d="M99.12,-1026.41C119.84,-1021.4 145.39,-1015.21 167.36,-1009.89"/>
<polygon fill="midnightblue" stroke="midnightblue" points="168.27,-1013.27 177.17,-1007.52 166.62,-1006.47 168.27,-1013.27"/>
</g>
<!-- Node4 -->
<g id="node4" class="node">
<title>Node4</title>
<g id="a_node4"><a xlink:href="classDashBoard.html#aa096e4f8310f6614db7409cef61d7ccb" target="_top" xlink:title=" ">
<polygon fill="white" stroke="black" points="829.5,-1102.5 829.5,-1121.5 954.5,-1121.5 954.5,-1102.5 829.5,-1102.5"/>
<text text-anchor="middle" x="892" y="-1109.5" font-family="Helvetica,sans-Serif" font-size="10.00">DashBoard::setSerialStat</text>
</a>
</g>
</g>
<!-- Node3&#45;&gt;Node4 -->
<g id="edge3" class="edge">
<title>Node3&#45;&gt;Node4</title>
<path fill="none" stroke="midnightblue" d="M264.72,-1076.61C380.02,-1083.13 680.97,-1100.13 819.42,-1107.96"/>
<polygon fill="midnightblue" stroke="midnightblue" points="819.32,-1111.46 829.5,-1108.52 819.71,-1104.47 819.32,-1111.46"/>
</g>
<!-- Node5&#45;&gt;Node4 -->
<g id="edge8" class="edge">
<title>Node5&#45;&gt;Node4</title>
<path fill="none" stroke="midnightblue" d="M427.53,-1045.51C443.76,-1048.72 462.16,-1052.2 479,-1055 487.32,-1056.38 703,-1086.12 818.9,-1102.08"/>
<polygon fill="midnightblue" stroke="midnightblue" points="818.73,-1105.59 829.11,-1103.48 819.68,-1098.65 818.73,-1105.59"/>
</g>
<!-- Node6 -->
<g id="node6" class="node">
<title>Node6</title>
<g id="a_node6"><a xlink:href="classApexi.html#a9ed7e794f2566b72a448e341233985eb" target="_top" xlink:title=" ">
<polygon fill="white" stroke="black" points="496,-1026.5 496,-1045.5 598,-1045.5 598,-1026.5 496,-1026.5"/>
<text text-anchor="middle" x="547" y="-1033.5" font-family="Helvetica,sans-Serif" font-size="10.00">Apexi::sendRequest</text>
</a>
</g>
</g>
<!-- Node5&#45;&gt;Node6 -->
<g id="edge5" class="edge">
<title>Node5&#45;&gt;Node6</title>
<path fill="none" stroke="midnightblue" d="M435.36,-1036C451.5,-1036 469.31,-1036 485.83,-1036"/>
<polygon fill="midnightblue" stroke="midnightblue" points="485.92,-1039.5 495.92,-1036 485.92,-1032.5 485.92,-1039.5"/>
</g>
<!-- Node8 -->
<g id="node8" class="node">
<title>Node8</title>
<g id="a_node8"><a xlink:href="classDashBoard.html#a7638e10b46688431f57c31bfc7ab1a37" target="_top" xlink:title=" ">
<polygon fill="white" stroke="black" points="479,-988.5 479,-1007.5 615,-1007.5 615,-988.5 479,-988.5"/>
<text text-anchor="middle" x="547" y="-995.5" font-family="Helvetica,sans-Serif" font-size="10.00">DashBoard::setTimeoutStat</text>
</a>
</g>
</g>
<!-- Node5&#45;&gt;Node8 -->
<g id="edge9" class="edge">
<title>Node5&#45;&gt;Node8</title>
<path fill="none" stroke="midnightblue" d="M423.01,-1026.41C444.82,-1021.37 471.73,-1015.16 494.82,-1009.82"/>
<polygon fill="midnightblue" stroke="midnightblue" points="495.83,-1013.18 504.79,-1007.52 494.26,-1006.36 495.83,-1013.18"/>
</g>
<!-- Node7 -->
<g id="node7" class="node">
<title>Node7</title>
<g id="a_node7"><a xlink:href="classApexi.html#af312531b1dbc60175016a82881203f18" target="_top" xlink:title=" ">
<polygon fill="white" stroke="black" points="659,-1026.5 659,-1045.5 781,-1045.5 781,-1026.5 659,-1026.5"/>
<text text-anchor="middle" x="720" y="-1033.5" font-family="Helvetica,sans-Serif" font-size="10.00">Apexi::writeRequestPFC</text>
</a>
</g>
</g>
<!-- Node6&#45;&gt;Node7 -->
<g id="edge6" class="edge">
<title>Node6&#45;&gt;Node7</title>
<path fill="none" stroke="midnightblue" d="M598.38,-1036C614.04,-1036 631.61,-1036 648.39,-1036"/>
<polygon fill="midnightblue" stroke="midnightblue" points="648.71,-1039.5 658.71,-1036 648.71,-1032.5 648.71,-1039.5"/>
</g>
<!-- Node7&#45;&gt;Node4 -->
<g id="edge7" class="edge">
<title>Node7&#45;&gt;Node4</title>
<path fill="none" stroke="midnightblue" d="M756.46,-1045.51C767.31,-1049.2 779.02,-1054.01 789,-1060 807.61,-1071.17 806.07,-1082.38 825,-1093 828.97,-1095.23 833.22,-1097.21 837.58,-1098.97"/>
<polygon fill="midnightblue" stroke="midnightblue" points="836.65,-1102.36 847.24,-1102.5 839.05,-1095.78 836.65,-1102.36"/>
</g>
<!-- Node10 -->
<g id="node10" class="node">
<title>Node10</title>
<g id="a_node10"><a xlink:href="classApexi.html#a4cb1314ab5ca5175aa227ed178148f40" target="_top" xlink:title=" ">
<polygon fill="white" stroke="black" points="336.5,-950.5 336.5,-969.5 424.5,-969.5 424.5,-950.5 336.5,-950.5"/>
<text text-anchor="middle" x="380.5" y="-957.5" font-family="Helvetica,sans-Serif" font-size="10.00">Apexi::apexiECU</text>
</a>
</g>
</g>
<!-- Node9&#45;&gt;Node10 -->
<g id="edge11" class="edge">
<title>Node9&#45;&gt;Node10</title>
<path fill="none" stroke="midnightblue" d="M259.13,-988.41C280.47,-983.37 306.81,-977.16 329.41,-971.82"/>
<polygon fill="midnightblue" stroke="midnightblue" points="330.24,-975.22 339.17,-969.52 328.63,-968.41 330.24,-975.22"/>
</g>
<!-- Node112 -->
<g id="node50" class="node">
<title>Node112</title>
<g id="a_node50"><a xlink:href="classDashBoard.html#ab66782991ddf59e10d36f281735971da" target="_top" xlink:title=" ">
<polygon fill="white" stroke="black" points="318,-988.5 318,-1007.5 443,-1007.5 443,-988.5 318,-988.5"/>
<text text-anchor="middle" x="380.5" y="-995.5" font-family="Helvetica,sans-Serif" font-size="10.00">DashBoard::setRecvData</text>
</a>
</g>
</g>
<!-- Node9&#45;&gt;Node112 -->
<g id="edge60" class="edge">
<title>Node9&#45;&gt;Node112</title>
<path fill="none" stroke="midnightblue" d="M268.56,-998C280.99,-998 294.56,-998 307.8,-998"/>
<polygon fill="midnightblue" stroke="midnightblue" points="307.84,-1001.5 317.84,-998 307.84,-994.5 307.84,-1001.5"/>
</g>
<!-- Node10&#45;&gt;Node6 -->
<g id="edge57" class="edge">
<title>Node10&#45;&gt;Node6</title>
<path fill="none" stroke="midnightblue" d="M422.82,-969.54C429.83,-972.05 436.83,-975.17 443,-979 462.76,-991.28 459.1,-1004.95 479,-1017 482.61,-1019.18 486.47,-1021.13 490.47,-1022.85"/>
<polygon fill="midnightblue" stroke="midnightblue" points="489.34,-1026.17 499.93,-1026.49 491.86,-1019.63 489.34,-1026.17"/>
</g>
<!-- Node10&#45;&gt;Node8 -->
<g id="edge59" class="edge">
<title>Node10&#45;&gt;Node8</title>
<path fill="none" stroke="midnightblue" d="M423.01,-969.59C444.82,-974.63 471.73,-980.84 494.82,-986.18"/>
<polygon fill="midnightblue" stroke="midnightblue" points="494.26,-989.64 504.79,-988.48 495.83,-982.82 494.26,-989.64"/>
</g>
<!-- Node11 -->
<g id="node11" class="node">
<title>Node11</title>
<g id="a_node11"><a xlink:href="classApexi.html#a4e7b389e8d3e283a12733ab4f8492be3" target="_top" xlink:title=" ">
<polygon fill="white" stroke="black" points="505,-589.5 505,-608.5 589,-608.5 589,-589.5 505,-589.5"/>
<text text-anchor="middle" x="547" y="-596.5" font-family="Helvetica,sans-Serif" font-size="10.00">Apexi::readData</text>
</a>
</g>
</g>
<!-- Node10&#45;&gt;Node11 -->
<g id="edge12" class="edge">
<title>Node10&#45;&gt;Node11</title>
<path fill="none" stroke="midnightblue" d="M385.9,-950.34C408.06,-901.7 507.6,-683.28 537.49,-617.68"/>
<polygon fill="midnightblue" stroke="midnightblue" points="540.7,-619.07 541.66,-608.52 534.33,-616.17 540.7,-619.07"/>
</g>
<!-- Node111 -->
<g id="node49" class="node">
<title>Node111</title>
<g id="a_node49"><a xlink:href="classDashBoard.html#af8966ca28767b5686245a42f97431bc8" target="_top" xlink:title=" ">
<polygon fill="white" stroke="black" points="488,-950.5 488,-969.5 606,-969.5 606,-950.5 488,-950.5"/>
<text text-anchor="middle" x="547" y="-957.5" font-family="Helvetica,sans-Serif" font-size="10.00">DashBoard::setRunStat</text>
</a>
</g>
</g>
<!-- Node10&#45;&gt;Node111 -->
<g id="edge58" class="edge">
<title>Node10&#45;&gt;Node111</title>
<path fill="none" stroke="midnightblue" d="M424.72,-960C440.95,-960 459.82,-960 477.77,-960"/>
<polygon fill="midnightblue" stroke="midnightblue" points="477.91,-963.5 487.91,-960 477.91,-956.5 477.91,-963.5"/>
</g>
<!-- Node11&#45;&gt;Node1 -->
<g id="edge13" class="edge">
<title>Node11&#45;&gt;Node1</title>
<path fill="none" stroke="midnightblue" d="M535.11,-608.78C472.41,-665.1 157.59,-947.89 77.87,-1019.5"/>
<polygon fill="midnightblue" stroke="midnightblue" points="75.21,-1017.18 70.11,-1026.47 79.89,-1022.39 75.21,-1017.18"/>
</g>
<!-- Node12 -->
<g id="node12" class="node">
<title>Node12</title>
<g id="a_node12"><a xlink:href="classApexi.html#a3ecd8445700ab9532fc051325f66d03d" target="_top" xlink:title=" ">
<polygon fill="white" stroke="red" points="673,-608.5 673,-627.5 767,-627.5 767,-608.5 673,-608.5"/>
<text text-anchor="middle" x="720" y="-615.5" font-family="Helvetica,sans-Serif" font-size="10.00">Apexi::decodeAdv</text>
</a>
</g>
</g>
<!-- Node11&#45;&gt;Node12 -->
<g id="edge14" class="edge">
<title>Node11&#45;&gt;Node12</title>
<path fill="none" stroke="midnightblue" d="M589.39,-603.6C611.45,-606.05 638.89,-609.1 662.84,-611.76"/>
<polygon fill="midnightblue" stroke="midnightblue" points="662.54,-615.25 672.87,-612.87 663.32,-608.29 662.54,-615.25"/>
</g>
<!-- Node48 -->
<g id="node42" class="node">
<title>Node48</title>
<g id="a_node42"><a xlink:href="classApexi.html#af82382a1e22fdac04180f1734d59461f" target="_top" xlink:title=" ">
<polygon fill="white" stroke="red" points="673.5,-570.5 673.5,-589.5 766.5,-589.5 766.5,-570.5 673.5,-570.5"/>
<text text-anchor="middle" x="720" y="-577.5" font-family="Helvetica,sans-Serif" font-size="10.00">Apexi::decodeAux</text>
</a>
</g>
</g>
<!-- Node11&#45;&gt;Node48 -->
<g id="edge44" class="edge">
<title>Node11&#45;&gt;Node48</title>
<path fill="none" stroke="midnightblue" d="M589.39,-594.4C611.62,-591.93 639.33,-588.85 663.41,-586.18"/>
<polygon fill="midnightblue" stroke="midnightblue" points="663.93,-589.64 673.48,-585.06 663.16,-582.68 663.93,-589.64"/>
</g>
<!-- Node51 -->
<g id="node43" class="node">
<title>Node51</title>
<g id="a_node43"><a xlink:href="classApexi.html#af3dad564d7c3cca0e98f5944e5e27cdf" target="_top" xlink:title=" ">
<polygon fill="white" stroke="red" points="669.5,-931.5 669.5,-950.5 770.5,-950.5 770.5,-931.5 669.5,-931.5"/>
<text text-anchor="middle" x="720" y="-938.5" font-family="Helvetica,sans-Serif" font-size="10.00">Apexi::decodeBasic</text>
</a>
</g>
</g>
<!-- Node11&#45;&gt;Node51 -->
<g id="edge45" class="edge">
<title>Node11&#45;&gt;Node51</title>
<path fill="none" stroke="midnightblue" d="M552.75,-608.5C576,-655 677.92,-858.84 709.58,-922.16"/>
<polygon fill="midnightblue" stroke="midnightblue" points="706.59,-924 714.19,-931.38 712.85,-920.87 706.59,-924"/>
</g>
<!-- Node54 -->
<g id="node44" class="node">
<title>Node54</title>
<g id="a_node44"><a xlink:href="classApexi.html#aaa77337f30dd52330c1070ce161eea83" target="_top" xlink:title=" ">
<polygon fill="white" stroke="red" points="675,-532.5 675,-551.5 765,-551.5 765,-532.5 675,-532.5"/>
<text text-anchor="middle" x="720" y="-539.5" font-family="Helvetica,sans-Serif" font-size="10.00">Apexi::decodeInit</text>
</a>
</g>
</g>
<!-- Node11&#45;&gt;Node54 -->
<g id="edge52" class="edge">
<title>Node11&#45;&gt;Node54</title>
<path fill="none" stroke="midnightblue" d="M572.36,-589.38C593.11,-581.34 623.8,-569.8 651,-561 658.14,-558.69 665.75,-556.4 673.19,-554.25"/>
<polygon fill="midnightblue" stroke="midnightblue" points="674.17,-557.61 682.84,-551.52 672.27,-550.88 674.17,-557.61"/>
</g>
<!-- Node56 -->
<g id="node45" class="node">
<title>Node56</title>
<g id="a_node45"><a xlink:href="classApexi.html#a8434798529c3e79a33445e2ba626d8a2" target="_top" xlink:title=" ">
<polygon fill="white" stroke="black" points="672.5,-494.5 672.5,-513.5 767.5,-513.5 767.5,-494.5 672.5,-494.5"/>
<text text-anchor="middle" x="720" y="-501.5" font-family="Helvetica,sans-Serif" font-size="10.00">Apexi::decodeMap</text>
</a>
</g>
</g>
<!-- Node11&#45;&gt;Node56 -->
<g id="edge53" class="edge">
<title>Node11&#45;&gt;Node56</title>
<path fill="none" stroke="midnightblue" d="M558.28,-589.39C575.91,-573.38 613.65,-541.23 651,-523 655.7,-520.71 660.72,-518.65 665.82,-516.81"/>
<polygon fill="midnightblue" stroke="midnightblue" points="667.29,-520.02 675.68,-513.55 665.09,-513.37 667.29,-520.02"/>
</g>
<!-- Node57 -->
<g id="node46" class="node">
<title>Node57</title>
<g id="a_node46"><a xlink:href="classApexi.html#a6ce2b40858fc637448d1f6dc27e10a70" target="_top" xlink:title=" ">
<polygon fill="white" stroke="red" points="666.5,-456.5 666.5,-475.5 773.5,-475.5 773.5,-456.5 666.5,-456.5"/>
<text text-anchor="middle" x="720" y="-463.5" font-family="Helvetica,sans-Serif" font-size="10.00">Apexi::decodeSensor</text>
</a>
</g>
</g>
<!-- Node11&#45;&gt;Node57 -->
<g id="edge54" class="edge">
<title>Node11&#45;&gt;Node57</title>
<path fill="none" stroke="midnightblue" d="M553.91,-589.38C567.92,-567.4 605.41,-513.22 651,-485 654.42,-482.88 658.08,-481 661.86,-479.32"/>
<polygon fill="midnightblue" stroke="midnightblue" points="663.42,-482.46 671.45,-475.55 660.86,-475.95 663.42,-482.46"/>
</g>
<!-- Node82 -->
<g id="node47" class="node">
<title>Node82</title>
<g id="a_node47"><a xlink:href="classApexi.html#a45f8db235553ca011083224aec6b3892" target="_top" xlink:title=" ">
<polygon fill="white" stroke="red" points="651,-418.5 651,-437.5 789,-437.5 789,-418.5 651,-418.5"/>
<text text-anchor="middle" x="720" y="-425.5" font-family="Helvetica,sans-Serif" font-size="10.00">Apexi::decodeSensorStrings</text>
</a>
</g>
</g>
<!-- Node11&#45;&gt;Node82 -->
<g id="edge55" class="edge">
<title>Node11&#45;&gt;Node82</title>
<path fill="none" stroke="midnightblue" d="M551.67,-589.45C562.49,-562.6 596.93,-485.92 651,-447 653.69,-445.07 656.56,-443.33 659.56,-441.77"/>
<polygon fill="midnightblue" stroke="midnightblue" points="661.15,-444.89 668.84,-437.6 658.28,-438.51 661.15,-444.89"/>
</g>
<!-- Node107 -->
<g id="node48" class="node">
<title>Node107</title>
<g id="a_node48"><a xlink:href="classApexi.html#af3673b74b8aebe06a2b2f9ed81c23ee4" target="_top" xlink:title=" ">
<polygon fill="white" stroke="red" points="671,-969.5 671,-988.5 769,-988.5 769,-969.5 671,-969.5"/>
<text text-anchor="middle" x="720" y="-976.5" font-family="Helvetica,sans-Serif" font-size="10.00">Apexi::retryconnect</text>
</a>
</g>
</g>
<!-- Node11&#45;&gt;Node107 -->
<g id="edge56" class="edge">
<title>Node11&#45;&gt;Node107</title>
<path fill="none" stroke="midnightblue" d="M547.6,-608.74C546.25,-655.2 546.79,-856.36 651,-960 654.08,-963.06 657.61,-965.64 661.41,-967.81"/>
<polygon fill="midnightblue" stroke="midnightblue" points="660.13,-971.08 670.66,-972.17 663.11,-964.74 660.13,-971.08"/>
</g>
<!-- Node13 -->
<g id="node13" class="node">
<title>Node13</title>
<g id="a_node13"><a xlink:href="classDashBoard.html#a21635845a2258c7dbe2a7f2f7ec32345" target="_top" xlink:title=" ">
<polygon fill="white" stroke="black" points="832,-988.5 832,-1007.5 952,-1007.5 952,-988.5 832,-988.5"/>
<text text-anchor="middle" x="892" y="-995.5" font-family="Helvetica,sans-Serif" font-size="10.00">DashBoard::setBatteryV</text>
</a>
</g>
</g>
<!-- Node12&#45;&gt;Node13 -->
<g id="edge15" class="edge">
<title>Node12&#45;&gt;Node13</title>
<path fill="none" stroke="midnightblue" d="M722.52,-627.78C730.82,-680.07 772.3,-926.31 825,-979 826.45,-980.45 828.01,-981.8 829.65,-983.04"/>
<polygon fill="midnightblue" stroke="midnightblue" points="828.1,-986.2 838.46,-988.45 831.77,-980.23 828.1,-986.2"/>
</g>
<!-- Node14 -->
<g id="node14" class="node">
<title>Node14</title>
<g id="a_node14"><a xlink:href="classDashBoard.html#a864f44aaf83510cc38b81e3efc7f1da6" target="_top" xlink:title=" ">
<polygon fill="white" stroke="black" points="828,-38.5 828,-57.5 956,-57.5 956,-38.5 828,-38.5"/>
<text text-anchor="middle" x="892" y="-45.5" font-family="Helvetica,sans-Serif" font-size="10.00">DashBoard::setBoostDuty</text>
</a>
</g>
</g>
<!-- Node12&#45;&gt;Node14 -->
<g id="edge16" class="edge">
<title>Node12&#45;&gt;Node14</title>
<path fill="none" stroke="midnightblue" d="M767.26,-613.27C775.61,-610.34 783.43,-605.85 789,-599 863.78,-507.08 750.58,-159.21 825,-67 825.86,-65.93 826.78,-64.92 827.75,-63.96"/>
<polygon fill="midnightblue" stroke="midnightblue" points="830.2,-66.49 836.03,-57.64 825.96,-60.93 830.2,-66.49"/>
</g>
<!-- Node15 -->
<g id="node15" class="node">
<title>Node15</title>
<g id="a_node15"><a xlink:href="classDashBoard.html#af865e5a3912f8100d831f01333a4fef9" target="_top" xlink:title=" ">
<polygon fill="white" stroke="black" points="834,-0.5 834,-19.5 950,-19.5 950,-0.5 834,-0.5"/>
<text text-anchor="middle" x="892" y="-7.5" font-family="Helvetica,sans-Serif" font-size="10.00">DashBoard::setBoosttp</text>
</a>
</g>
</g>
<!-- Node12&#45;&gt;Node15 -->
<g id="edge17" class="edge">
<title>Node12&#45;&gt;Node15</title>
<path fill="none" stroke="midnightblue" d="M767.28,-613.29C775.64,-610.36 783.45,-605.86 789,-599 868.88,-500.37 745.51,-127.94 825,-29 825.86,-27.93 826.78,-26.91 827.75,-25.96"/>
<polygon fill="midnightblue" stroke="midnightblue" points="830.2,-28.49 836.02,-19.63 825.95,-22.93 830.2,-28.49"/>
</g>
<!-- Node16 -->
<g id="node16" class="node">
<title>Node16</title>
<g id="a_node16"><a xlink:href="classDashBoard.html#ad7eafea8b5a643e82155945495ff2aef" target="_top" xlink:title=" ">
<polygon fill="white" stroke="black" points="831.5,-836.5 831.5,-855.5 952.5,-855.5 952.5,-836.5 831.5,-836.5"/>
<text text-anchor="middle" x="892" y="-843.5" font-family="Helvetica,sans-Serif" font-size="10.00">DashBoard::setBoostwg</text>
</a>
</g>
</g>
<!-- Node12&#45;&gt;Node16 -->
<g id="edge18" class="edge">
<title>Node12&#45;&gt;Node16</title>
<path fill="none" stroke="midnightblue" d="M722.9,-627.61C729.94,-660.7 757.75,-770.96 825,-827 827.04,-828.7 829.23,-830.25 831.53,-831.67"/>
<polygon fill="midnightblue" stroke="midnightblue" points="830.31,-834.98 840.8,-836.45 833.52,-828.76 830.31,-834.98"/>
</g>
<!-- Node17 -->
<g id="node17" class="node">
<title>Node17</title>
<g id="a_node17"><a xlink:href="classDashBoard.html#aa34fb9a1bc1ffbf895c0dc507dacfe03" target="_top" xlink:title=" ">
<polygon fill="white" stroke="black" points="838.5,-798.5 838.5,-817.5 945.5,-817.5 945.5,-798.5 838.5,-798.5"/>
<text text-anchor="middle" x="892" y="-805.5" font-family="Helvetica,sans-Serif" font-size="10.00">DashBoard::setDwell</text>
</a>
</g>
</g>
<!-- Node12&#45;&gt;Node17 -->
<g id="edge19" class="edge">
<title>Node12&#45;&gt;Node17</title>
<path fill="none" stroke="midnightblue" d="M724.11,-627.87C733.87,-657.19 766.74,-744.49 825,-789 827.48,-790.89 830.14,-792.6 832.92,-794.13"/>
<polygon fill="midnightblue" stroke="midnightblue" points="831.59,-797.38 842.13,-798.48 834.58,-791.05 831.59,-797.38"/>
</g>
<!-- Node18 -->
<g id="node18" class="node">
<title>Node18</title>
<g id="a_node18"><a xlink:href="classDashBoard.html#afa98f53f1555f3bff79f49a6e12b5d9e" target="_top" xlink:title=" ">
<polygon fill="white" stroke="black" points="831.5,-760.5 831.5,-779.5 952.5,-779.5 952.5,-760.5 831.5,-760.5"/>
<text text-anchor="middle" x="892" y="-767.5" font-family="Helvetica,sans-Serif" font-size="10.00">DashBoard::setEngLoad</text>
</a>
</g>
</g>
<!-- Node12&#45;&gt;Node18 -->
<g id="edge20" class="edge">
<title>Node12&#45;&gt;Node18</title>
<path fill="none" stroke="midnightblue" d="M725.81,-627.73C738.47,-652.32 775.19,-717.38 825,-751 827.96,-752.99 831.12,-754.78 834.41,-756.39"/>
<polygon fill="midnightblue" stroke="midnightblue" points="833.34,-759.74 843.92,-760.43 836.08,-753.29 833.34,-759.74"/>
</g>
<!-- Node19 -->
<g id="node19" class="node">
<title>Node19</title>
<g id="a_node19"><a xlink:href="classDashBoard.html#aebb7249e22bce5067a7d473e6ae0085c" target="_top" xlink:title=" ">
<polygon fill="white" stroke="black" points="838.5,-722.5 838.5,-741.5 945.5,-741.5 945.5,-722.5 838.5,-722.5"/>
<text text-anchor="middle" x="892" y="-729.5" font-family="Helvetica,sans-Serif" font-size="10.00">DashBoard::setFuelc</text>
</a>
</g>
</g>
<!-- Node12&#45;&gt;Node19 -->
<g id="edge21" class="edge">
<title>Node12&#45;&gt;Node19</title>
<path fill="none" stroke="midnightblue" d="M728.81,-627.64C744.83,-646.78 783.39,-689.71 825,-713 828.97,-715.22 833.22,-717.2 837.59,-718.97"/>
<polygon fill="midnightblue" stroke="midnightblue" points="836.65,-722.35 847.25,-722.49 839.05,-715.78 836.65,-722.35"/>
</g>
<!-- Node20 -->
<g id="node20" class="node">
<title>Node20</title>
<g id="a_node20"><a xlink:href="classDashBoard.html#ad7fb1721d5cd8770078da5e7d5d6b655" target="_top" xlink:title=" ">
<polygon fill="white" stroke="black" points="830.5,-684.5 830.5,-703.5 953.5,-703.5 953.5,-684.5 830.5,-684.5"/>
<text text-anchor="middle" x="892" y="-691.5" font-family="Helvetica,sans-Serif" font-size="10.00">DashBoard::setFueltemp</text>
</a>
</g>
</g>
<!-- Node12&#45;&gt;Node20 -->
<g id="edge22" class="edge">
<title>Node12&#45;&gt;Node20</title>
<path fill="none" stroke="midnightblue" d="M735.98,-627.6C755.73,-639.92 791.88,-661.35 825,-675 830.58,-677.3 836.53,-679.43 842.49,-681.37"/>
<polygon fill="midnightblue" stroke="midnightblue" points="841.88,-684.85 852.47,-684.46 843.95,-678.16 841.88,-684.85"/>
</g>
<!-- Node21 -->
<g id="node21" class="node">
<title>Node21</title>
<g id="a_node21"><a xlink:href="classDashBoard.html#ad46278eecba8d5643f84cea9eafa1bce" target="_top" xlink:title=" ">
<polygon fill="white" stroke="black" points="844,-646.5 844,-665.5 940,-665.5 940,-646.5 844,-646.5"/>
<text text-anchor="middle" x="892" y="-653.5" font-family="Helvetica,sans-Serif" font-size="10.00">DashBoard::setIgn</text>
</a>
</g>
</g>
<!-- Node12&#45;&gt;Node21 -->
<g id="edge23" class="edge">
<title>Node12&#45;&gt;Node21</title>
<path fill="none" stroke="midnightblue" d="M763.9,-627.59C786.53,-632.65 814.5,-638.9 838.43,-644.25"/>
<polygon fill="midnightblue" stroke="midnightblue" points="837.89,-647.71 848.41,-646.48 839.41,-640.88 837.89,-647.71"/>
</g>
<!-- Node22 -->
<g id="node22" class="node">
<title>Node22</title>
<g id="a_node22"><a xlink:href="classDashBoard.html#a6f4952eb15d3b4c0c2eaacf37fb2c96b" target="_top" xlink:title=" ">
<polygon fill="white" stroke="black" points="839,-608.5 839,-627.5 945,-627.5 945,-608.5 839,-608.5"/>
<text text-anchor="middle" x="892" y="-615.5" font-family="Helvetica,sans-Serif" font-size="10.00">DashBoard::setinjms</text>
</a>
</g>
</g>
<!-- Node12&#45;&gt;Node22 -->
<g id="edge24" class="edge">
<title>Node12&#45;&gt;Node22</title>
<path fill="none" stroke="midnightblue" d="M767,-618C786.02,-618 808.35,-618 828.79,-618"/>
<polygon fill="midnightblue" stroke="midnightblue" points="828.96,-621.5 838.96,-618 828.96,-614.5 828.96,-621.5"/>
</g>
<!-- Node23 -->
<g id="node23" class="node">
<title>Node23</title>
<g id="a_node23"><a xlink:href="classDashBoard.html#a31caf833ec71b5a8135fd39859f4c2f5" target="_top" xlink:title=" ">
<polygon fill="white" stroke="black" points="825,-570.5 825,-589.5 959,-589.5 959,-570.5 825,-570.5"/>
<text text-anchor="middle" x="892" y="-577.5" font-family="Helvetica,sans-Serif" font-size="10.00">DashBoard::setIntakepress</text>
</a>
</g>
</g>
<!-- Node12&#45;&gt;Node23 -->
<g id="edge25" class="edge">
<title>Node12&#45;&gt;Node23</title>
<path fill="none" stroke="midnightblue" d="M763.9,-608.41C786.53,-603.35 814.5,-597.1 838.43,-591.75"/>
<polygon fill="midnightblue" stroke="midnightblue" points="839.41,-595.12 848.41,-589.52 837.89,-588.29 839.41,-595.12"/>
</g>
<!-- Node24 -->
<g id="node24" class="node">
<title>Node24</title>
<g id="a_node24"><a xlink:href="classDashBoard.html#ae4d194cbb50c7c36bd2d0b2be6b21e6d" target="_top" xlink:title=" ">
<polygon fill="white" stroke="black" points="826.5,-950.5 826.5,-969.5 957.5,-969.5 957.5,-950.5 826.5,-950.5"/>
<text text-anchor="middle" x="892" y="-957.5" font-family="Helvetica,sans-Serif" font-size="10.00">DashBoard::setIntaketemp</text>
</a>
</g>
</g>
<!-- Node12&#45;&gt;Node24 -->
<g id="edge26" class="edge">
<title>Node12&#45;&gt;Node24</title>
<path fill="none" stroke="midnightblue" d="M721.03,-627.57C721.69,-670.74 730.24,-849.16 825,-941 826.63,-942.58 828.39,-944.04 830.25,-945.37"/>
<polygon fill="midnightblue" stroke="midnightblue" points="828.51,-948.41 838.9,-950.49 832.07,-942.39 828.51,-948.41"/>
</g>
<!-- Node25 -->
<g id="node25" class="node">
<title>Node25</title>
<g id="a_node25"><a xlink:href="classDashBoard.html#add4eafa05b50837f81332bd06b76f36d" target="_top" xlink:title=" ">
<polygon fill="white" stroke="black" points="832.5,-532.5 832.5,-551.5 951.5,-551.5 951.5,-532.5 832.5,-532.5"/>
<text text-anchor="middle" x="892" y="-539.5" font-family="Helvetica,sans-Serif" font-size="10.00">DashBoard::setIscvduty</text>
</a>
</g>
</g>
<!-- Node12&#45;&gt;Node25 -->
<g id="edge27" class="edge">
<title>Node12&#45;&gt;Node25</title>
<path fill="none" stroke="midnightblue" d="M767.04,-608.8C774.67,-606.26 782.28,-603.05 789,-599 808.92,-586.99 805.12,-573.09 825,-561 828.55,-558.84 832.36,-556.91 836.29,-555.2"/>
<polygon fill="midnightblue" stroke="midnightblue" points="837.57,-558.46 845.62,-551.58 835.03,-551.94 837.57,-558.46"/>
</g>
<!-- Node26 -->
<g id="node26" class="node">
<title>Node26</title>
<g id="a_node26"><a xlink:href="classDashBoard.html#acf7ff86dcbb34ee7661c1904191cf7a9" target="_top" xlink:title=" ">
<polygon fill="white" stroke="black" points="837,-912.5 837,-931.5 947,-931.5 947,-912.5 837,-912.5"/>
<text text-anchor="middle" x="892" y="-919.5" font-family="Helvetica,sans-Serif" font-size="10.00">DashBoard::setKnock</text>
</a>
</g>
</g>
<!-- Node12&#45;&gt;Node26 -->
<g id="edge28" class="edge">
<title>Node12&#45;&gt;Node26</title>
<path fill="none" stroke="midnightblue" d="M721.49,-627.53C724.08,-667.49 739.49,-823.25 825,-903 826.7,-904.59 828.52,-906.04 830.44,-907.37"/>
<polygon fill="midnightblue" stroke="midnightblue" points="828.96,-910.56 839.38,-912.48 832.44,-904.48 828.96,-910.56"/>
</g>
<!-- Node27 -->
<g id="node27" class="node">
<title>Node27</title>
<g id="a_node27"><a xlink:href="classDashBoard.html#a4e90fc531b31a84fa122ade9bdc2ecf1" target="_top" xlink:title=" ">
<polygon fill="white" stroke="black" points="827,-874.5 827,-893.5 957,-893.5 957,-874.5 827,-874.5"/>
<text text-anchor="middle" x="892" y="-881.5" font-family="Helvetica,sans-Serif" font-size="10.00">DashBoard::setLeadingign</text>
</a>
</g>
</g>
<!-- Node12&#45;&gt;Node27 -->
<g id="edge29" class="edge">
<title>Node12&#45;&gt;Node27</title>
<path fill="none" stroke="midnightblue" d="M722.12,-627.75C726.87,-664.68 748.82,-797.33 825,-865 826.77,-866.58 828.67,-868.02 830.66,-869.35"/>
<polygon fill="midnightblue" stroke="midnightblue" points="829.45,-872.68 839.9,-874.43 832.82,-866.54 829.45,-872.68"/>
</g>
<!-- Node28 -->
<g id="node28" class="node">
<title>Node28</title>
<g id="a_node28"><a xlink:href="classDashBoard.html#a19ed911149392a939ade24ef44180dec" target="_top" xlink:title=" ">
<polygon fill="white" stroke="black" points="834,-494.5 834,-513.5 950,-513.5 950,-494.5 834,-494.5"/>
<text text-anchor="middle" x="892" y="-501.5" font-family="Helvetica,sans-Serif" font-size="10.00">DashBoard::setMAF1V</text>
</a>
</g>
</g>
<!-- Node12&#45;&gt;Node28 -->
<g id="edge30" class="edge">
<title>Node12&#45;&gt;Node28</title>
<path fill="none" stroke="midnightblue" d="M767.2,-610.88C775.07,-608.12 782.72,-604.29 789,-599 817.58,-574.91 796.52,-547.2 825,-523 826.99,-521.31 829.12,-519.77 831.35,-518.37"/>
<polygon fill="midnightblue" stroke="midnightblue" points="833.18,-521.36 840.39,-513.61 829.92,-515.17 833.18,-521.36"/>
</g>
<!-- Node29 -->
<g id="node29" class="node">
<title>Node29</title>
<g id="a_node29"><a xlink:href="classDashBoard.html#a584d76fb3dc3faa498611cdc0a7d572a" target="_top" xlink:title=" ">
<polygon fill="white" stroke="black" points="834,-456.5 834,-475.5 950,-475.5 950,-456.5 834,-456.5"/>
<text text-anchor="middle" x="892" y="-463.5" font-family="Helvetica,sans-Serif" font-size="10.00">DashBoard::setMAF2V</text>
</a>
</g>
</g>
<!-- Node12&#45;&gt;Node29 -->
<g id="edge31" class="edge">
<title>Node12&#45;&gt;Node29</title>
<path fill="none" stroke="midnightblue" d="M767.11,-611.81C775.18,-608.97 782.92,-604.88 789,-599 827.19,-562.06 786.95,-522.09 825,-485 826.47,-483.56 828.05,-482.24 829.7,-481.01"/>
<polygon fill="midnightblue" stroke="midnightblue" points="831.81,-483.82 838.56,-475.65 828.19,-477.83 831.81,-483.82"/>
</g>
<!-- Node30 -->
<g id="node30" class="node">
<title>Node30</title>
<g id="a_node30"><a xlink:href="classDashBoard.html#a0cf0a1970e9c2c02886e8587966f6abc" target="_top" xlink:title=" ">
<polygon fill="white" stroke="black" points="825,-418.5 825,-437.5 959,-437.5 959,-418.5 825,-418.5"/>
<text text-anchor="middle" x="892" y="-425.5" font-family="Helvetica,sans-Serif" font-size="10.00">DashBoard::setMAFactivity</text>
</a>
</g>
</g>
<!-- Node12&#45;&gt;Node30 -->
<g id="edge32" class="edge">
<title>Node12&#45;&gt;Node30</title>
<path fill="none" stroke="midnightblue" d="M767.11,-612.28C775.28,-609.41 783.05,-605.19 789,-599 837.1,-548.94 777.1,-497.25 825,-447 826.39,-445.54 827.88,-444.2 829.46,-442.95"/>
<polygon fill="midnightblue" stroke="midnightblue" points="831.4,-445.86 837.95,-437.53 827.63,-439.96 831.4,-445.86"/>
</g>
<!-- Node31 -->
<g id="node31" class="node">
<title>Node31</title>
<g id="a_node31"><a xlink:href="classDashBoard.html#a5480aa312813d238574e103a52bef81f" target="_top" xlink:title=" ">
<polygon fill="white" stroke="black" points="839,-380.5 839,-399.5 945,-399.5 945,-380.5 839,-380.5"/>
<text text-anchor="middle" x="892" y="-387.5" font-family="Helvetica,sans-Serif" font-size="10.00">DashBoard::setMoilp</text>
</a>
</g>
</g>
<!-- Node12&#45;&gt;Node31 -->
<g id="edge33" class="edge">
<title>Node12&#45;&gt;Node31</title>
<path fill="none" stroke="midnightblue" d="M767.34,-612.49C775.48,-609.6 783.2,-605.32 789,-599 847.13,-535.69 767.12,-472.53 825,-409 826.57,-407.28 828.28,-405.71 830.1,-404.29"/>
<polygon fill="midnightblue" stroke="midnightblue" points="832.12,-407.15 838.72,-398.87 828.39,-401.22 832.12,-407.15"/>
</g>
<!-- Node32 -->
<g id="node32" class="node">
<title>Node32</title>
<g id="a_node32"><a xlink:href="classDashBoard.html#a4ddbc9f8b9001cf29ead004af11e972d" target="_top" xlink:title=" ">
<polygon fill="white" stroke="black" points="843,-342.5 843,-361.5 941,-361.5 941,-342.5 843,-342.5"/>
<text text-anchor="middle" x="892" y="-349.5" font-family="Helvetica,sans-Serif" font-size="10.00">DashBoard::setna1</text>
</a>
</g>
</g>
<!-- Node12&#45;&gt;Node32 -->
<g id="edge34" class="edge">
<title>Node12&#45;&gt;Node32</title>
<path fill="none" stroke="midnightblue" d="M767.14,-612.76C775.4,-609.86 783.21,-605.5 789,-599 857.22,-522.38 757.08,-447.89 825,-371 827.56,-368.1 830.53,-365.64 833.76,-363.54"/>
<polygon fill="midnightblue" stroke="midnightblue" points="835.6,-366.52 842.84,-358.79 832.35,-360.32 835.6,-366.52"/>
</g>
<!-- Node33 -->
<g id="node33" class="node">
<title>Node33</title>
<g id="a_node33"><a xlink:href="classDashBoard.html#a3992060dbefe28848e9e2a0163a7df21" target="_top" xlink:title=" ">
<polygon fill="white" stroke="black" points="843,-304.5 843,-323.5 941,-323.5 941,-304.5 843,-304.5"/>
<text text-anchor="middle" x="892" y="-311.5" font-family="Helvetica,sans-Serif" font-size="10.00">DashBoard::setna2</text>
</a>
</g>
</g>
<!-- Node12&#45;&gt;Node33 -->
<g id="edge35" class="edge">
<title>Node12&#45;&gt;Node33</title>
<path fill="none" stroke="midnightblue" d="M767.26,-612.86C775.51,-609.95 783.28,-605.56 789,-599 867.34,-509.03 747.01,-423.28 825,-333 827.53,-330.08 830.47,-327.59 833.69,-325.47"/>
<polygon fill="midnightblue" stroke="midnightblue" points="835.52,-328.46 842.73,-320.7 832.26,-322.27 835.52,-328.46"/>
</g>
<!-- Node34 -->
<g id="node34" class="node">
<title>Node34</title>
<g id="a_node34"><a xlink:href="classDashBoard.html#a36e46c92b433846ab5932b5622e69905" target="_top" xlink:title=" ">
<polygon fill="white" stroke="black" points="836.5,-266.5 836.5,-285.5 947.5,-285.5 947.5,-266.5 836.5,-266.5"/>
<text text-anchor="middle" x="892" y="-273.5" font-family="Helvetica,sans-Serif" font-size="10.00">DashBoard::setO2volt</text>
</a>
</g>
</g>
<!-- Node12&#45;&gt;Node34 -->
<g id="edge36" class="edge">
<title>Node12&#45;&gt;Node34</title>
<path fill="none" stroke="midnightblue" d="M767.34,-612.93C775.59,-610.02 783.34,-605.61 789,-599 877.49,-495.65 736.92,-398.69 825,-295 826.01,-293.81 827.1,-292.69 828.24,-291.63"/>
<polygon fill="midnightblue" stroke="midnightblue" points="830.49,-294.33 836.54,-285.63 826.39,-288.65 830.49,-294.33"/>
</g>
<!-- Node35 -->
<g id="node35" class="node">
<title>Node35</title>
<g id="a_node35"><a xlink:href="classDashBoard.html#a1ff480e57034d577177325f86cba2108" target="_top" xlink:title=" ">
<polygon fill="white" stroke="black" points="831,-228.5 831,-247.5 953,-247.5 953,-228.5 831,-228.5"/>
<text text-anchor="middle" x="892" y="-235.5" font-family="Helvetica,sans-Serif" font-size="10.00">DashBoard::setO2volt_2</text>
</a>
</g>
</g>
<!-- Node12&#45;&gt;Node35 -->
<g id="edge37" class="edge">
<title>Node12&#45;&gt;Node35</title>
<path fill="none" stroke="midnightblue" d="M767.06,-613.11C775.43,-610.19 783.3,-605.74 789,-599 887.65,-482.26 726.81,-374.13 825,-257 826.01,-255.8 827.08,-254.67 828.22,-253.62"/>
<polygon fill="midnightblue" stroke="midnightblue" points="830.47,-256.31 836.49,-247.59 826.35,-250.65 830.47,-256.31"/>
</g>
<!-- Node36 -->
<g id="node36" class="node">
<title>Node36</title>
<g id="a_node36"><a xlink:href="classDashBoard.html#ab617d388ec0714d60bf68f19b189d86b" target="_top" xlink:title=" ">
<polygon fill="white" stroke="black" points="843,-190.5 843,-209.5 941,-209.5 941,-190.5 843,-190.5"/>
<text text-anchor="middle" x="892" y="-197.5" font-family="Helvetica,sans-Serif" font-size="10.00">DashBoard::setpim</text>
</a>
</g>
</g>
<!-- Node12&#45;&gt;Node36 -->
<g id="edge38" class="edge">
<title>Node12&#45;&gt;Node36</title>
<path fill="none" stroke="midnightblue" d="M767.12,-613.16C775.48,-610.24 783.34,-605.77 789,-599 843.41,-533.93 770.85,-284.29 825,-219 827.58,-215.89 830.64,-213.27 833.99,-211.06"/>
<polygon fill="midnightblue" stroke="midnightblue" points="835.65,-214.15 842.87,-206.39 832.39,-207.95 835.65,-214.15"/>
</g>
<!-- Node37 -->
<g id="node37" class="node">
<title>Node37</title>
<g id="a_node37"><a xlink:href="classDashBoard.html#a8b4be03b152c61f0c3086b92b2ad47d9" target="_top" xlink:title=" ">
<polygon fill="white" stroke="black" points="828,-152.5 828,-171.5 956,-171.5 956,-152.5 828,-152.5"/>
<text text-anchor="middle" x="892" y="-159.5" font-family="Helvetica,sans-Serif" font-size="10.00">DashBoard::setPressureV</text>
</a>
</g>
</g>
<!-- Node12&#45;&gt;Node37 -->
<g id="edge39" class="edge">
<title>Node12&#45;&gt;Node37</title>
<path fill="none" stroke="midnightblue" d="M767.16,-613.19C775.52,-610.27 783.37,-605.79 789,-599 848.5,-527.22 765.78,-253.01 825,-181 825.99,-179.79 827.06,-178.66 828.19,-177.59"/>
<polygon fill="midnightblue" stroke="midnightblue" points="830.44,-180.28 836.41,-171.52 826.29,-174.64 830.44,-180.28"/>
</g>
<!-- Node38 -->
<g id="node38" class="node">
<title>Node38</title>
<g id="a_node38"><a xlink:href="classDashBoard.html#ae10ebf05ada076cdf9034a470dc0138e" target="_top" xlink:title=" ">
<polygon fill="white" stroke="black" points="828,-114.5 828,-133.5 956,-133.5 956,-114.5 828,-114.5"/>
<text text-anchor="middle" x="892" y="-121.5" font-family="Helvetica,sans-Serif" font-size="10.00">DashBoard::setPrimaryinp</text>
</a>
</g>
</g>
<!-- Node12&#45;&gt;Node38 -->
<g id="edge40" class="edge">
<title>Node12&#45;&gt;Node38</title>
<path fill="none" stroke="midnightblue" d="M767.2,-613.22C775.56,-610.3 783.39,-605.81 789,-599 853.59,-520.51 760.72,-221.74 825,-143 825.99,-141.79 827.05,-140.65 828.18,-139.58"/>
<polygon fill="midnightblue" stroke="midnightblue" points="830.43,-142.27 836.39,-133.5 826.27,-136.64 830.43,-142.27"/>
</g>
<!-- Node39 -->
<g id="node39" class="node">
<title>Node39</title>
<g id="a_node39"><a xlink:href="classDashBoard.html#ab8a26c5ebc87f76cc237e46d8e014403" target="_top" xlink:title=" ">
<polygon fill="white" stroke="red" points="842.5,-1064.5 842.5,-1083.5 941.5,-1083.5 941.5,-1064.5 842.5,-1064.5"/>
<text text-anchor="middle" x="892" y="-1071.5" font-family="Helvetica,sans-Serif" font-size="10.00">DashBoard::setrpm</text>
</a>
</g>
</g>
<!-- Node12&#45;&gt;Node39 -->
<g id="edge41" class="edge">
<title>Node12&#45;&gt;Node39</title>
<path fill="none" stroke="midnightblue" d="M723.18,-627.75C737.44,-691.52 817.16,-1046.78 825,-1055 827.46,-1057.58 830.25,-1059.82 833.25,-1061.75"/>
<polygon fill="midnightblue" stroke="midnightblue" points="831.72,-1064.9 842.2,-1066.46 834.98,-1058.71 831.72,-1064.9"/>
</g>
<!-- Node41 -->
<g id="node40" class="node">
<title>Node41</title>
<g id="a_node40"><a xlink:href="classDashBoard.html#a68ced326141cb80742fe151c64e33c4f" target="_top" xlink:title=" ">
<polygon fill="white" stroke="black" points="825.5,-76.5 825.5,-95.5 958.5,-95.5 958.5,-76.5 825.5,-76.5"/>
<text text-anchor="middle" x="892" y="-83.5" font-family="Helvetica,sans-Serif" font-size="10.00">DashBoard::setSecinjpulse</text>
</a>
</g>
</g>
<!-- Node12&#45;&gt;Node41 -->
<g id="edge42" class="edge">
<title>Node12&#45;&gt;Node41</title>
<path fill="none" stroke="midnightblue" d="M767.23,-613.25C775.59,-610.32 783.41,-605.83 789,-599 858.68,-513.8 755.65,-190.47 825,-105 825.87,-103.93 826.79,-102.92 827.76,-101.97"/>
<polygon fill="midnightblue" stroke="midnightblue" points="830.21,-104.5 836.05,-95.66 825.98,-98.93 830.21,-104.5"/>
</g>
<!-- Node42 -->
<g id="node41" class="node">
<title>Node42</title>
<g id="a_node41"><a xlink:href="classDashBoard.html#a77b4f7cb9851db07fcc88986469df3d8" target="_top" xlink:title=" ">
<polygon fill="white" stroke="red" points="837,-1026.5 837,-1045.5 947,-1045.5 947,-1026.5 837,-1026.5"/>
<text text-anchor="middle" x="892" y="-1033.5" font-family="Helvetica,sans-Serif" font-size="10.00">DashBoard::setSpeed</text>
</a>
</g>
</g>
<!-- Node12&#45;&gt;Node42 -->
<g id="edge43" class="edge">
<title>Node12&#45;&gt;Node42</title>
<path fill="none" stroke="midnightblue" d="M722.96,-627.83C734.68,-686.34 796.14,-987.4 825,-1017 826.4,-1018.44 827.91,-1019.77 829.5,-1021.01"/>
<polygon fill="midnightblue" stroke="midnightblue" points="827.71,-1024.02 838.03,-1026.38 831.44,-1018.09 827.71,-1024.02"/>
</g>
<!-- Node51&#45;&gt;Node13 -->
<g id="edge46" class="edge">
<title>Node51&#45;&gt;Node13</title>
<path fill="none" stroke="midnightblue" d="M760.67,-950.55C770.08,-953.24 780,-956.42 789,-960 805.81,-966.69 808.22,-972.24 825,-979 830.81,-981.34 837.01,-983.52 843.2,-985.5"/>
<polygon fill="midnightblue" stroke="midnightblue" points="842.27,-988.88 852.85,-988.46 844.32,-982.19 842.27,-988.88"/>
</g>
<!-- Node51&#45;&gt;Node24 -->
<g id="edge47" class="edge">
<title>Node51&#45;&gt;Node24</title>
<path fill="none" stroke="midnightblue" d="M770.63,-946.55C784.94,-948.15 800.88,-949.93 816.35,-951.66"/>
<polygon fill="midnightblue" stroke="midnightblue" points="816.1,-955.15 826.43,-952.78 816.88,-948.19 816.1,-955.15"/>
</g>
<!-- Node51&#45;&gt;Node26 -->
<g id="edge48" class="edge">
<title>Node51&#45;&gt;Node26</title>
<path fill="none" stroke="midnightblue" d="M770.63,-935.45C788.16,-933.49 808.13,-931.26 826.7,-929.19"/>
<polygon fill="midnightblue" stroke="midnightblue" points="827.3,-932.64 836.85,-928.05 826.52,-925.68 827.3,-932.64"/>
</g>
<!-- Node51&#45;&gt;Node27 -->
<g id="edge49" class="edge">
<title>Node51&#45;&gt;Node27</title>
<path fill="none" stroke="midnightblue" d="M745.63,-931.45C766.59,-923.45 797.59,-911.94 825,-903 831.94,-900.74 839.33,-898.47 846.56,-896.33"/>
<polygon fill="midnightblue" stroke="midnightblue" points="847.64,-899.66 856.26,-893.51 845.69,-892.94 847.64,-899.66"/>
</g>
<!-- Node51&#45;&gt;Node39 -->
<g id="edge50" class="edge">
<title>Node51&#45;&gt;Node39</title>
<path fill="none" stroke="midnightblue" d="M770.69,-948.91C777.39,-951.61 783.75,-955.2 789,-960 822.33,-990.46 791.79,-1024.41 825,-1055 827.58,-1057.37 830.43,-1059.45 833.47,-1061.28"/>
<polygon fill="midnightblue" stroke="midnightblue" points="831.91,-1064.41 842.42,-1065.75 835.04,-1058.15 831.91,-1064.41"/>
</g>
<!-- Node51&#45;&gt;Node42 -->
<g id="edge51" class="edge">
<title>Node51&#45;&gt;Node42</title>
<path fill="none" stroke="midnightblue" d="M770.58,-950.16C777.14,-952.69 783.49,-955.9 789,-960 813.03,-977.89 801.04,-999.01 825,-1017 827.49,-1018.87 830.17,-1020.56 832.96,-1022.08"/>
<polygon fill="midnightblue" stroke="midnightblue" points="831.65,-1025.33 842.19,-1026.4 834.61,-1018.99 831.65,-1025.33"/>
</g>
</g>
</svg>
        <g id="navigator" transform="translate(0 0)" fill="#404254">
                <rect fill="#f2f5e9" fill-opacity="0.5" stroke="#606060" stroke-width=".5" x="0" y="0" width="60" height="60"/>
                <use id="zoomplus" xlink:href="#zoomPlus" x="17" y="9" onmousedown="handleZoom(evt,'in')"/>
                <use id="zoomminus" xlink:href="#zoomMin" x="42" y="9" onmousedown="handleZoom(evt,'out')"/>
                <use id="reset" xlink:href="#resetDef" x="30" y="36" onmousedown="handleReset()"/>
                <g id="arrowUp" xlink:href="#dirArrow" transform="translate(30 24)" onmousedown="handlePan(0,-1)">
                  <use xlink:href="#rim" fill="#404040">
                        <set attributeName="fill" to="#808080" begin="arrowUp.mouseover" end="arrowUp.mouseout"/>
                  </use>
                  <path fill="none" stroke="white" stroke-width="1.5" d="M0,-3.0v7 M-2.5,-0.5L0,-3.0L2.5,-0.5"/>
                </g>
                <g id="arrowRight" xlink:href="#dirArrow" transform="rotate(90) translate(36 -43)" onmousedown="handlePan(1,0)">
                  <use xlink:href="#rim" fill="#404040">
                        <set attributeName="fill" to="#808080" begin="arrowRight.mouseover" end="arrowRight.mouseout"/>
                  </use>
                  <path fill="none" stroke="white" stroke-width="1.5" d="M0,-3.0v7 M-2.5,-0.5L0,-3.0L2.5,-0.5"/>
                </g>
                <g id="arrowDown" xlink:href="#dirArrow" transform="rotate(180) translate(-30 -48)" onmousedown="handlePan(0,1)">
                  <use xlink:href="#rim" fill="#404040">
                        <set attributeName="fill" to="#808080" begin="arrowDown.mouseover" end="arrowDown.mouseout"/>
                  </use>
                  <path fill="none" stroke="white" stroke-width="1.5" d="M0,-3.0v7 M-2.5,-0.5L0,-3.0L2.5,-0.5"/>
                </g>
                <g id="arrowLeft" xlink:href="#dirArrow" transform="rotate(270) translate(-36 17)" onmousedown="handlePan(-1,0)">
                  <use xlink:href="#rim" fill="#404040">
                        <set attributeName="fill" to="#808080" begin="arrowLeft.mouseover" end="arrowLeft.mouseout"/>
                  </use>
                  <path fill="none" stroke="white" stroke-width="1.5" d="M0,-3.0v7 M-2.5,-0.5L0,-3.0L2.5,-0.5"/>
                </g>
        </g>
        <svg viewBox="0 0 15 15" width="100%" height="30px" preserveAspectRatio="xMaxYMin meet">
         <g id="arrow_out" transform="scale(0.3 0.3)">
          <a xlink:href="classApexi_a669124cabae4ada616e650e582c068da_cgraph_org.svg" target="_base">
           <rect id="button" ry="5" rx="5" y="6" x="6" height="38" width="38"
                fill="#f2f5e9" fill-opacity="0.5" stroke="#606060" stroke-width="1.0"/>
           <path id="arrow"
             d="M 11.500037,31.436501 C 11.940474,20.09759 22.043105,11.32322 32.158766,21.979434 L 37.068811,17.246167 C 37.068811,17.246167 37.088388,32 37.088388,32 L 22.160133,31.978069 C 22.160133,31.978069 26.997745,27.140456 26.997745,27.140456 C 18.528582,18.264221 13.291696,25.230495 11.500037,31.436501 z"
             style="fill:#404040;"/>
          </a>
         </g>
        </svg>
</svg>
