<?xml version="1.0" encoding="UTF-8" standalone="no"?>
<!DOCTYPE svg PUBLIC "-//W3C//DTD SVG 1.1//EN"
 "http://www.w3.org/Graphics/SVG/1.1/DTD/svg11.dtd">
<!-- Generated by graphviz version 2.49.3 (20211027.1534)
 -->
<!-- Title: AppSettings::writeRPMSettings Pages: 1 -->
<svg width="327pt" height="256pt"
 viewBox="0.00 0.00 327.00 256.00" xmlns="http://www.w3.org/2000/svg" xmlns:xlink="http://www.w3.org/1999/xlink">
<g id="graph0" class="graph" transform="scale(1 1) rotate(0) translate(4 252)">
<title>AppSettings::writeRPMSettings</title>
<polygon fill="white" stroke="transparent" points="-4,4 -4,-252 323,-252 323,4 -4,4"/>
<!-- Node1 -->
<g id="node1" class="node">
<title>Node1</title>
<g id="a_node1"><a xlink:title=" ">
<polygon fill="#bfbfbf" stroke="black" points="0,-114.5 0,-133.5 153,-133.5 153,-114.5 0,-114.5"/>
<text text-anchor="middle" x="76.5" y="-121.5" font-family="Helvetica,sans-Serif" font-size="10.00">AppSettings::writeRPMSettings</text>
</a>
</g>
</g>
<!-- Node2 -->
<g id="node2" class="node">
<title>Node2</title>
<g id="a_node2"><a xlink:href="classAppSettings.html#a853abe79f8fc2d1563822f71628d2d5d" target="_top" xlink:title=" ">
<polygon fill="white" stroke="black" points="197.5,-228.5 197.5,-247.5 310.5,-247.5 310.5,-228.5 197.5,-228.5"/>
<text text-anchor="middle" x="254" y="-235.5" font-family="Helvetica,sans-Serif" font-size="10.00">AppSettings::getValue</text>
</a>
</g>
</g>
<!-- Node1&#45;&gt;Node2 -->
<g id="edge1" class="edge">
<title>Node1&#45;&gt;Node2</title>
<path fill="none" stroke="midnightblue" d="M86.05,-133.58C103.53,-152.61 145.41,-195.35 189,-219 193,-221.17 197.29,-223.13 201.67,-224.88"/>
<polygon fill="midnightblue" stroke="midnightblue" points="200.76,-228.27 211.36,-228.39 203.15,-221.69 200.76,-228.27"/>
</g>
<!-- Node3 -->
<g id="node3" class="node">
<title>Node3</title>
<g id="a_node3"><a xlink:href="classDashBoard.html#ab810c270ff67e50f3e29528e6bc55d3d" target="_top" xlink:title=" ">
<polygon fill="white" stroke="black" points="193,-190.5 193,-209.5 315,-209.5 315,-190.5 193,-190.5"/>
<text text-anchor="middle" x="254" y="-197.5" font-family="Helvetica,sans-Serif" font-size="10.00">DashBoard::setmaxRPM</text>
</a>
</g>
</g>
<!-- Node1&#45;&gt;Node3 -->
<g id="edge2" class="edge">
<title>Node1&#45;&gt;Node3</title>
<path fill="none" stroke="midnightblue" d="M94.05,-133.68C115.44,-145.91 154.08,-167.03 189,-181 194.79,-183.32 200.98,-185.5 207.13,-187.5"/>
<polygon fill="midnightblue" stroke="midnightblue" points="206.13,-190.86 216.72,-190.49 208.22,-184.17 206.13,-190.86"/>
</g>
<!-- Node4 -->
<g id="node4" class="node">
<title>Node4</title>
<g id="a_node4"><a xlink:href="classDashBoard.html#af516adaf8303467e67ec414f1b70410a" target="_top" xlink:title=" ">
<polygon fill="white" stroke="black" points="189,-152.5 189,-171.5 319,-171.5 319,-152.5 189,-152.5"/>
<text text-anchor="middle" x="254" y="-159.5" font-family="Helvetica,sans-Serif" font-size="10.00">DashBoard::setrpmStage1</text>
</a>
</g>
</g>
<!-- Node1&#45;&gt;Node4 -->
<g id="edge3" class="edge">
<title>Node1&#45;&gt;Node4</title>
<path fill="none" stroke="midnightblue" d="M121.79,-133.59C145.26,-138.67 174.28,-144.96 199.06,-150.32"/>
<polygon fill="midnightblue" stroke="midnightblue" points="198.52,-153.78 209.03,-152.48 200,-146.94 198.52,-153.78"/>
</g>
<!-- Node5 -->
<g id="node5" class="node">
<title>Node5</title>
<g id="a_node5"><a xlink:href="classDashBoard.html#aa218a59a7bd9d4f66721d60db7627a42" target="_top" xlink:title=" ">
<polygon fill="white" stroke="black" points="189,-114.5 189,-133.5 319,-133.5 319,-114.5 189,-114.5"/>
<text text-anchor="middle" x="254" y="-121.5" font-family="Helvetica,sans-Serif" font-size="10.00">DashBoard::setrpmStage2</text>
</a>
</g>
</g>
<!-- Node1&#45;&gt;Node5 -->
<g id="edge4" class="edge">
<title>Node1&#45;&gt;Node5</title>
<path fill="none" stroke="midnightblue" d="M153.2,-124C161.64,-124 170.24,-124 178.66,-124"/>
<polygon fill="midnightblue" stroke="midnightblue" points="178.83,-127.5 188.83,-124 178.83,-120.5 178.83,-127.5"/>
</g>
<!-- Node6 -->
<g id="node6" class="node">
<title>Node6</title>
<g id="a_node6"><a xlink:href="classDashBoard.html#a205a221ae5f4d6263493c4bacf481b94" target="_top" xlink:title=" ">
<polygon fill="white" stroke="black" points="189,-76.5 189,-95.5 319,-95.5 319,-76.5 189,-76.5"/>
<text text-anchor="middle" x="254" y="-83.5" font-family="Helvetica,sans-Serif" font-size="10.00">DashBoard::setrpmStage3</text>
</a>
</g>
</g>
<!-- Node1&#45;&gt;Node6 -->
<g id="edge5" class="edge">
<title>Node1&#45;&gt;Node6</title>
<path fill="none" stroke="midnightblue" d="M121.79,-114.41C145.26,-109.33 174.28,-103.04 199.06,-97.68"/>
<polygon fill="midnightblue" stroke="midnightblue" points="200,-101.06 209.03,-95.52 198.52,-94.22 200,-101.06"/>
</g>
<!-- Node7 -->
<g id="node7" class="node">
<title>Node7</title>
<g id="a_node7"><a xlink:href="classDashBoard.html#a9fcc070d6894d0ecb4c2b7cce9555d8e" target="_top" xlink:title=" ">
<polygon fill="white" stroke="black" points="189,-38.5 189,-57.5 319,-57.5 319,-38.5 189,-38.5"/>
<text text-anchor="middle" x="254" y="-45.5" font-family="Helvetica,sans-Serif" font-size="10.00">DashBoard::setrpmStage4</text>
</a>
</g>
</g>
<!-- Node1&#45;&gt;Node7 -->
<g id="edge6" class="edge">
<title>Node1&#45;&gt;Node7</title>
<path fill="none" stroke="midnightblue" d="M94.05,-114.32C115.44,-102.09 154.08,-80.97 189,-67 194.79,-64.68 200.98,-62.5 207.13,-60.5"/>
<polygon fill="midnightblue" stroke="midnightblue" points="208.22,-63.83 216.72,-57.51 206.13,-57.14 208.22,-63.83"/>
</g>
<!-- Node8 -->
<g id="node8" class="node">
<title>Node8</title>
<g id="a_node8"><a xlink:href="classAppSettings.html#a9fe37794c01f77fc192cf961dc1443db" target="_top" xlink:title=" ">
<polygon fill="white" stroke="black" points="197.5,-0.5 197.5,-19.5 310.5,-19.5 310.5,-0.5 197.5,-0.5"/>
<text text-anchor="middle" x="254" y="-7.5" font-family="Helvetica,sans-Serif" font-size="10.00">AppSettings::setValue</text>
</a>
</g>
</g>
<!-- Node1&#45;&gt;Node8 -->
<g id="edge7" class="edge">
<title>Node1&#45;&gt;Node8</title>
<path fill="none" stroke="midnightblue" d="M86.05,-114.42C103.53,-95.39 145.41,-52.65 189,-29 193,-26.83 197.29,-24.87 201.67,-23.12"/>
<polygon fill="midnightblue" stroke="midnightblue" points="203.15,-26.31 211.36,-19.61 200.76,-19.73 203.15,-26.31"/>
</g>
</g>
</svg>
