<?xml version="1.0" encoding="UTF-8" standalone="no"?>
<!DOCTYPE svg PUBLIC "-//W3C//DTD SVG 1.1//EN"
 "http://www.w3.org/Graphics/SVG/1.1/DTD/svg11.dtd">
<!-- Generated by graphviz version 2.49.3 (20211027.1534)
 -->
<!-- Title: DashBoard::laptimeChanged Pages: 1 -->
<svg width="1947pt" height="256pt"
 viewBox="0.00 0.00 1947.00 256.00" xmlns="http://www.w3.org/2000/svg" xmlns:xlink="http://www.w3.org/1999/xlink">
<g id="graph0" class="graph" transform="scale(1 1) rotate(0) translate(4 252)">
<title>DashBoard::laptimeChanged</title>
<polygon fill="white" stroke="transparent" points="-4,4 -4,-252 1943,-252 1943,4 -4,4"/>
<!-- Node1 -->
<g id="node1" class="node">
<title>Node1</title>
<g id="a_node1"><a xlink:title=" ">
<polygon fill="#bfbfbf" stroke="black" points="1800,-19.5 1800,-38.5 1939,-38.5 1939,-19.5 1800,-19.5"/>
<text text-anchor="middle" x="1869.5" y="-26.5" font-family="Helvetica,sans-Serif" font-size="10.00">DashBoard::laptimeChanged</text>
</a>
</g>
</g>
<!-- Node2 -->
<g id="node2" class="node">
<title>Node2</title>
<g id="a_node2"><a xlink:href="classDashBoard.html#a023ed00fbd93bad06e98426b7583022c" target="_top" xlink:title=" ">
<polygon fill="white" stroke="black" points="1650,-19.5 1650,-38.5 1764,-38.5 1764,-19.5 1650,-19.5"/>
<text text-anchor="middle" x="1707" y="-26.5" font-family="Helvetica,sans-Serif" font-size="10.00">DashBoard::setlaptime</text>
</a>
</g>
</g>
<!-- Node1&#45;&gt;Node2 -->
<g id="edge1" class="edge">
<title>Node1&#45;&gt;Node2</title>
<path fill="none" stroke="midnightblue" d="M1789.84,-29C1781.19,-29 1772.51,-29 1764.21,-29"/>
<polygon fill="midnightblue" stroke="midnightblue" points="1789.97,-32.5 1799.97,-29 1789.97,-25.5 1789.97,-32.5"/>
</g>
<!-- Node3 -->
<g id="node3" class="node">
<title>Node3</title>
<g id="a_node3"><a xlink:href="classGPS.html#a894018a07e73bdc11af81f5db97f6b28" target="_top" xlink:title=" ">
<polygon fill="white" stroke="black" points="1511,-19.5 1511,-38.5 1614,-38.5 1614,-19.5 1511,-19.5"/>
<text text-anchor="middle" x="1562.5" y="-26.5" font-family="Helvetica,sans-Serif" font-size="10.00">GPS::checknewLap</text>
</a>
</g>
</g>
<!-- Node2&#45;&gt;Node3 -->
<g id="edge2" class="edge">
<title>Node2&#45;&gt;Node3</title>
<path fill="none" stroke="midnightblue" d="M1639.45,-29C1631.01,-29 1622.47,-29 1614.32,-29"/>
<polygon fill="midnightblue" stroke="midnightblue" points="1639.68,-32.5 1649.68,-29 1639.68,-25.5 1639.68,-32.5"/>
</g>
<!-- Node4 -->
<g id="node4" class="node">
<title>Node4</title>
<g id="a_node4"><a xlink:href="classGPS.html#a6fbf5e49f6a05b056835666f2e1cb830" target="_top" xlink:title=" ">
<polygon fill="white" stroke="black" points="1362,-38.5 1362,-57.5 1475,-57.5 1475,-38.5 1362,-38.5"/>
<text text-anchor="middle" x="1418.5" y="-45.5" font-family="Helvetica,sans-Serif" font-size="10.00">GPS::processGPGGA</text>
</a>
</g>
</g>
<!-- Node3&#45;&gt;Node4 -->
<g id="edge3" class="edge">
<title>Node3&#45;&gt;Node4</title>
<path fill="none" stroke="midnightblue" d="M1500.54,-37.16C1492.16,-38.28 1483.59,-39.43 1475.3,-40.53"/>
<polygon fill="midnightblue" stroke="midnightblue" points="1501.19,-40.6 1510.64,-35.81 1500.26,-33.66 1501.19,-40.6"/>
</g>
<!-- Node14 -->
<g id="node14" class="node">
<title>Node14</title>
<g id="a_node14"><a xlink:href="classGPS.html#a9f0cacdc6f30465399f19ccb19edde1a" target="_top" xlink:title=" ">
<polygon fill="white" stroke="black" points="1362,-0.5 1362,-19.5 1475,-19.5 1475,-0.5 1362,-0.5"/>
<text text-anchor="middle" x="1418.5" y="-7.5" font-family="Helvetica,sans-Serif" font-size="10.00">GPS::processGPRMC</text>
</a>
</g>
</g>
<!-- Node3&#45;&gt;Node14 -->
<g id="edge23" class="edge">
<title>Node3&#45;&gt;Node14</title>
<path fill="none" stroke="midnightblue" d="M1500.54,-20.84C1492.16,-19.72 1483.59,-18.57 1475.3,-17.47"/>
<polygon fill="midnightblue" stroke="midnightblue" points="1500.26,-24.34 1510.64,-22.19 1501.19,-17.4 1500.26,-24.34"/>
</g>
<!-- Node5 -->
<g id="node5" class="node">
<title>Node5</title>
<g id="a_node5"><a xlink:href="classGPS.html#a217097ae4a846c621f001a5aa1f4fb4f" target="_top" xlink:title=" ">
<polygon fill="white" stroke="black" points="1208,-19.5 1208,-38.5 1326,-38.5 1326,-19.5 1208,-19.5"/>
<text text-anchor="middle" x="1267" y="-26.5" font-family="Helvetica,sans-Serif" font-size="10.00">GPS::ProcessMessage</text>
</a>
</g>
</g>
<!-- Node4&#45;&gt;Node5 -->
<g id="edge4" class="edge">
<title>Node4&#45;&gt;Node5</title>
<path fill="none" stroke="midnightblue" d="M1351.9,-39.66C1343.35,-38.58 1334.63,-37.47 1326.22,-36.4"/>
<polygon fill="midnightblue" stroke="midnightblue" points="1351.47,-43.14 1361.83,-40.93 1352.35,-36.19 1351.47,-43.14"/>
</g>
<!-- Node6 -->
<g id="node6" class="node">
<title>Node6</title>
<g id="a_node6"><a xlink:href="classGPS.html#aa0928d156961a54bf06d9b5210d85561" target="_top" xlink:title=" ">
<polygon fill="white" stroke="black" points="1073,-76.5 1073,-95.5 1172,-95.5 1172,-76.5 1073,-76.5"/>
<text text-anchor="middle" x="1122.5" y="-83.5" font-family="Helvetica,sans-Serif" font-size="10.00">GPS::readyToRead</text>
</a>
</g>
</g>
<!-- Node5&#45;&gt;Node6 -->
<g id="edge5" class="edge">
<title>Node5&#45;&gt;Node6</title>
<path fill="none" stroke="midnightblue" d="M1232.65,-42.34C1206.51,-52.8 1170.78,-67.09 1147.43,-76.43"/>
<polygon fill="midnightblue" stroke="midnightblue" points="1234.16,-45.5 1242.15,-38.54 1231.56,-39 1234.16,-45.5"/>
</g>
<!-- Node7 -->
<g id="node7" class="node">
<title>Node7</title>
<g id="a_node7"><a xlink:href="classGPS.html#ae4568ef4d5107c96c1af68d1abd33559" target="_top" xlink:title=" ">
<polygon fill="white" stroke="black" points="923,-114.5 923,-133.5 1037,-133.5 1037,-114.5 923,-114.5"/>
<text text-anchor="middle" x="980" y="-121.5" font-family="Helvetica,sans-Serif" font-size="10.00">GPS::closeConnection</text>
</a>
</g>
</g>
<!-- Node6&#45;&gt;Node7 -->
<g id="edge6" class="edge">
<title>Node6&#45;&gt;Node7</title>
<path fill="none" stroke="midnightblue" d="M1076.22,-98.25C1056.86,-103.48 1034.58,-109.51 1016.44,-114.41"/>
<polygon fill="midnightblue" stroke="midnightblue" points="1077.31,-101.58 1086.05,-95.59 1075.48,-94.82 1077.31,-101.58"/>
</g>
<!-- Node9 -->
<g id="node9" class="node">
<title>Node9</title>
<g id="a_node9"><a xlink:href="classGPS.html#a8775edfa08840ffb2647e0e5ba031fe5" target="_top" xlink:title=" ">
<polygon fill="white" stroke="black" points="298,-114.5 298,-133.5 417,-133.5 417,-114.5 298,-114.5"/>
<text text-anchor="middle" x="357.5" y="-121.5" font-family="Helvetica,sans-Serif" font-size="10.00">GPS::closeConnection1</text>
</a>
</g>
</g>
<!-- Node6&#45;&gt;Node9 -->
<g id="edge21" class="edge">
<title>Node6&#45;&gt;Node9</title>
<path fill="none" stroke="midnightblue" d="M1063.77,-74.63C1001.79,-63.44 900.33,-48 812,-48 812,-48 812,-48 649,-48 545.26,-48 427.26,-93.92 379.86,-114.37"/>
<polygon fill="midnightblue" stroke="midnightblue" points="1063.27,-78.1 1073.74,-76.46 1064.53,-71.22 1063.27,-78.1"/>
</g>
<!-- Node12 -->
<g id="node12" class="node">
<title>Node12</title>
<g id="a_node12"><a xlink:href="classGPS.html#ac2a7572afb184df9c14ae913f17306bf" target="_top" xlink:title=" ">
<polygon fill="white" stroke="black" points="601,-228.5 601,-247.5 699,-247.5 699,-228.5 601,-228.5"/>
<text text-anchor="middle" x="650" y="-235.5" font-family="Helvetica,sans-Serif" font-size="10.00">GPS::initSerialPort</text>
</a>
</g>
</g>
<!-- Node6&#45;&gt;Node12 -->
<g id="edge22" class="edge">
<title>Node6&#45;&gt;Node12</title>
<path fill="none" stroke="midnightblue" d="M1101.72,-102.25C1085.3,-115 1060.85,-132.33 1037,-143 921.72,-194.59 774.01,-220.97 699.14,-231.82"/>
<polygon fill="midnightblue" stroke="midnightblue" points="1104.31,-104.67 1109.96,-95.71 1099.96,-99.18 1104.31,-104.67"/>
</g>
<!-- Node8 -->
<g id="node8" class="node">
<title>Node8</title>
<g id="a_node8"><a xlink:href="classGPS.html#aaf69fb801bbce2ea70041e68fe0ec19a" target="_top" xlink:title=" ">
<polygon fill="white" stroke="black" points="735,-152.5 735,-171.5 887,-171.5 887,-152.5 735,-152.5"/>
<text text-anchor="middle" x="811" y="-159.5" font-family="Helvetica,sans-Serif" font-size="10.00">GPS::handleReconnectTimeout</text>
</a>
</g>
</g>
<!-- Node7&#45;&gt;Node8 -->
<g id="edge7" class="edge">
<title>Node7&#45;&gt;Node8</title>
<path fill="none" stroke="midnightblue" d="M913.05,-132.39C884.73,-138.4 853.59,-146.12 833.47,-152.42"/>
<polygon fill="midnightblue" stroke="midnightblue" points="913.85,-135.8 922.93,-130.34 912.42,-128.95 913.85,-135.8"/>
</g>
<!-- Node13 -->
<g id="node13" class="node">
<title>Node13</title>
<g id="a_node13"><a xlink:href="classGPS.html#a51eaea2422dd980ea0a6d28f12a136de" target="_top" xlink:title=" ">
<polygon fill="white" stroke="black" points="453,-133.5 453,-152.5 565,-152.5 565,-133.5 453,-133.5"/>
<text text-anchor="middle" x="509" y="-140.5" font-family="Helvetica,sans-Serif" font-size="10.00">GPS::openConnection</text>
</a>
</g>
</g>
<!-- Node7&#45;&gt;Node13 -->
<g id="edge20" class="edge">
<title>Node7&#45;&gt;Node13</title>
<path fill="none" stroke="midnightblue" d="M912.74,-126.68C819.62,-130.46 651.74,-137.26 565.08,-140.77"/>
<polygon fill="midnightblue" stroke="midnightblue" points="913.04,-130.17 922.89,-126.27 912.76,-123.18 913.04,-130.17"/>
</g>
<!-- Node8&#45;&gt;Node7 -->
<g id="edge8" class="edge">
<title>Node8&#45;&gt;Node7</title>
<path fill="none" stroke="midnightblue" d="M893.13,-150.29C916.91,-144.92 940.94,-138.77 957.51,-133.59"/>
<polygon fill="midnightblue" stroke="midnightblue" points="892.35,-146.88 883.34,-152.45 893.86,-153.71 892.35,-146.88"/>
</g>
<!-- Node8&#45;&gt;Node9 -->
<g id="edge9" class="edge">
<title>Node8&#45;&gt;Node9</title>
<path fill="none" stroke="midnightblue" d="M724.88,-171.48C651.95,-177.36 544.49,-180.67 453,-162 425.28,-156.34 395.29,-142.91 376.71,-133.64"/>
<polygon fill="midnightblue" stroke="midnightblue" points="725.27,-174.96 734.94,-170.64 724.68,-167.99 725.27,-174.96"/>
</g>
<!-- Node8&#45;&gt;Node12 -->
<g id="edge19" class="edge">
<title>Node8&#45;&gt;Node12</title>
<path fill="none" stroke="midnightblue" d="M780.59,-176.06C748.68,-191.31 698.6,-215.25 670.97,-228.45"/>
<polygon fill="midnightblue" stroke="midnightblue" points="782.35,-179.1 789.86,-171.63 779.33,-172.78 782.35,-179.1"/>
</g>
<!-- Node10 -->
<g id="node10" class="node">
<title>Node10</title>
<g id="a_node10"><a xlink:href="classGPS.html#abd750ada6a7b976f72761ce16246ccf6" target="_top" xlink:title=" ">
<polygon fill="white" stroke="black" points="142,-38.5 142,-57.5 262,-57.5 262,-38.5 142,-38.5"/>
<text text-anchor="middle" x="202" y="-45.5" font-family="Helvetica,sans-Serif" font-size="10.00">GPS::setGPSBAUD115</text>
</a>
</g>
</g>
<!-- Node9&#45;&gt;Node10 -->
<g id="edge10" class="edge">
<title>Node9&#45;&gt;Node10</title>
<path fill="none" stroke="midnightblue" d="M327.71,-109.74C296.88,-94.48 248.84,-70.7 222.28,-57.55"/>
<polygon fill="midnightblue" stroke="midnightblue" points="326.54,-113.07 337.06,-114.37 329.65,-106.8 326.54,-113.07"/>
</g>
<!-- Node10&#45;&gt;Node5 -->
<g id="edge18" class="edge">
<title>Node10&#45;&gt;Node5</title>
<path fill="none" stroke="midnightblue" d="M260.26,-36.56C321.36,-25.37 421.11,-10 508,-10 981,-10 981,-10 981,-10 1059.72,-10 1150.41,-17.31 1207.94,-22.86"/>
<polygon fill="midnightblue" stroke="midnightblue" points="259.25,-33.19 250.06,-38.46 260.53,-40.07 259.25,-33.19"/>
</g>
<!-- Node11 -->
<g id="node11" class="node">
<title>Node11</title>
<g id="a_node11"><a xlink:href="classGPS.html#a1b1c89214229f5dc8ff7e2fa9cbcad35" target="_top" xlink:title=" ">
<polygon fill="white" stroke="black" points="0,-95.5 0,-114.5 106,-114.5 106,-95.5 0,-95.5"/>
<text text-anchor="middle" x="53" y="-102.5" font-family="Helvetica,sans-Serif" font-size="10.00">GPS::handleTimeout</text>
</a>
</g>
</g>
<!-- Node10&#45;&gt;Node11 -->
<g id="edge11" class="edge">
<title>Node10&#45;&gt;Node11</title>
<path fill="none" stroke="midnightblue" d="M166.95,-61.2C139.96,-71.67 102.88,-86.05 78.68,-95.43"/>
<polygon fill="midnightblue" stroke="midnightblue" points="168.34,-64.42 176.4,-57.54 165.81,-57.89 168.34,-64.42"/>
</g>
<!-- Node11&#45;&gt;Node7 -->
<g id="edge12" class="edge">
<title>Node11&#45;&gt;Node7</title>
<path fill="none" stroke="midnightblue" d="M116.38,-98.79C177.49,-93.25 273.3,-86 356.5,-86 651,-86 651,-86 651,-86 749.74,-86 864.1,-103.2 928.36,-114.46"/>
<polygon fill="midnightblue" stroke="midnightblue" points="115.77,-95.33 106.13,-99.73 116.41,-102.3 115.77,-95.33"/>
</g>
<!-- Node11&#45;&gt;Node9 -->
<g id="edge13" class="edge">
<title>Node11&#45;&gt;Node9</title>
<path fill="none" stroke="midnightblue" d="M116.46,-108.92C169.7,-112.27 245.68,-117.04 297.82,-120.31"/>
<polygon fill="midnightblue" stroke="midnightblue" points="116.66,-105.43 106.46,-108.29 116.22,-112.41 116.66,-105.43"/>
</g>
<!-- Node11&#45;&gt;Node12 -->
<g id="edge14" class="edge">
<title>Node11&#45;&gt;Node12</title>
<path fill="none" stroke="midnightblue" d="M98.8,-117.1C112.62,-120.72 127.91,-124.63 142,-128 310.63,-168.31 512.33,-210.2 602.02,-228.49"/>
<polygon fill="midnightblue" stroke="midnightblue" points="99.59,-113.69 89.03,-114.52 97.8,-120.45 99.59,-113.69"/>
</g>
<!-- Node12&#45;&gt;Node13 -->
<g id="edge15" class="edge">
<title>Node12&#45;&gt;Node13</title>
<path fill="none" stroke="midnightblue" d="M626.28,-222.47C597.34,-202.69 548.2,-169.11 524.13,-152.66"/>
<polygon fill="midnightblue" stroke="midnightblue" points="624.68,-225.62 634.91,-228.37 628.63,-219.84 624.68,-225.62"/>
</g>
<!-- Node13&#45;&gt;Node8 -->
<g id="edge17" class="edge">
<title>Node13&#45;&gt;Node8</title>
<path fill="none" stroke="midnightblue" d="M575.51,-147.15C622.42,-150.12 685.69,-154.13 734.68,-157.23"/>
<polygon fill="midnightblue" stroke="midnightblue" points="575.66,-143.65 565.46,-146.51 575.22,-150.64 575.66,-143.65"/>
</g>
<!-- Node13&#45;&gt;Node9 -->
<g id="edge16" class="edge">
<title>Node13&#45;&gt;Node9</title>
<path fill="none" stroke="midnightblue" d="M442.8,-134.71C434.22,-133.62 425.48,-132.51 417.03,-131.44"/>
<polygon fill="midnightblue" stroke="midnightblue" points="442.39,-138.19 452.76,-135.98 443.28,-131.25 442.39,-138.19"/>
</g>
<!-- Node14&#45;&gt;Node5 -->
<g id="edge24" class="edge">
<title>Node14&#45;&gt;Node5</title>
<path fill="none" stroke="midnightblue" d="M1351.9,-18.34C1343.35,-19.42 1334.63,-20.53 1326.22,-21.6"/>
<polygon fill="midnightblue" stroke="midnightblue" points="1352.35,-21.81 1361.83,-17.07 1351.47,-14.86 1352.35,-21.81"/>
</g>
</g>
</svg>
