<?xml version="1.0" encoding="UTF-8" standalone="no"?>
<!DOCTYPE svg PUBLIC "-//W3C//DTD SVG 1.1//EN"
 "http://www.w3.org/Graphics/SVG/1.1/DTD/svg11.dtd">
<!-- Generated by graphviz version 2.49.3 (20211027.1534)
 -->
<!-- Title: Extender::closeConnection Pages: 1 -->
<svg width="665pt" height="712pt"
 viewBox="0.00 0.00 665.00 712.00" xmlns="http://www.w3.org/2000/svg" xmlns:xlink="http://www.w3.org/1999/xlink">
<g id="graph0" class="graph" transform="scale(1 1) rotate(0) translate(4 708)">
<title>Extender::closeConnection</title>
<polygon fill="white" stroke="transparent" points="-4,4 -4,-708 661,-708 661,4 -4,4"/>
<!-- Node1 -->
<g id="node1" class="node">
<title>Node1</title>
<g id="a_node1"><a xlink:title=" ">
<polygon fill="#bfbfbf" stroke="black" points="0,-342.5 0,-361.5 131,-361.5 131,-342.5 0,-342.5"/>
<text text-anchor="middle" x="65.5" y="-349.5" font-family="Helvetica,sans-Serif" font-size="10.00">Extender::closeConnection</text>
</a>
</g>
</g>
<!-- Node2 -->
<g id="node2" class="node">
<title>Node2</title>
<g id="a_node2"><a xlink:href="classExtender.html#ab1ef1d1764fa63ca790092c338272466" target="_top" xlink:title=" ">
<polygon fill="white" stroke="black" points="167,-342.5 167,-361.5 283,-361.5 283,-342.5 167,-342.5"/>
<text text-anchor="middle" x="225" y="-349.5" font-family="Helvetica,sans-Serif" font-size="10.00">Extender::readyToRead</text>
</a>
</g>
</g>
<!-- Node1&#45;&gt;Node2 -->
<g id="edge1" class="edge">
<title>Node1&#45;&gt;Node2</title>
<path fill="none" stroke="midnightblue" d="M131.02,-352C139.47,-352 148.15,-352 156.65,-352"/>
<polygon fill="midnightblue" stroke="midnightblue" points="156.91,-355.5 166.91,-352 156.91,-348.5 156.91,-355.5"/>
</g>
<!-- Node3 -->
<g id="node3" class="node">
<title>Node3</title>
<g id="a_node3"><a xlink:href="Extender_8cpp.html#a0f8ac5620442320553774ec3428d6f1a" target="_top" xlink:title=" ">
<polygon fill="white" stroke="black" points="362,-684.5 362,-703.5 428,-703.5 428,-684.5 362,-684.5"/>
<text text-anchor="middle" x="395" y="-691.5" font-family="Helvetica,sans-Serif" font-size="10.00">averagehz1</text>
</a>
</g>
</g>
<!-- Node2&#45;&gt;Node3 -->
<g id="edge2" class="edge">
<title>Node2&#45;&gt;Node3</title>
<path fill="none" stroke="midnightblue" d="M225.59,-361.62C224.32,-404.97 225.09,-584.07 319,-675 327.82,-683.54 339.9,-688.4 351.8,-691.13"/>
<polygon fill="midnightblue" stroke="midnightblue" points="351.19,-694.58 361.66,-692.95 352.46,-687.69 351.19,-694.58"/>
</g>
<!-- Node4 -->
<g id="node4" class="node">
<title>Node4</title>
<g id="a_node4"><a xlink:href="classDashBoard.html#aea3b83311e69d6a1333fec8517b35e89" target="_top" xlink:title=" ">
<polygon fill="white" stroke="black" points="319,-646.5 319,-665.5 471,-665.5 471,-646.5 319,-646.5"/>
<text text-anchor="middle" x="395" y="-653.5" font-family="Helvetica,sans-Serif" font-size="10.00">DashBoard::setEXAnalogInput0</text>
</a>
</g>
</g>
<!-- Node2&#45;&gt;Node4 -->
<g id="edge3" class="edge">
<title>Node2&#45;&gt;Node4</title>
<path fill="none" stroke="midnightblue" d="M226.02,-361.57C226.64,-401.72 234.6,-558.09 319,-637 320.67,-638.57 322.46,-640.01 324.33,-641.33"/>
<polygon fill="midnightblue" stroke="midnightblue" points="322.64,-644.4 333.03,-646.44 326.18,-638.36 322.64,-644.4"/>
</g>
<!-- Node6 -->
<g id="node6" class="node">
<title>Node6</title>
<g id="a_node6"><a xlink:href="classDashBoard.html#a40fcebc1292e92e8dbc9a98c17788f6b" target="_top" xlink:title=" ">
<polygon fill="white" stroke="black" points="319,-608.5 319,-627.5 471,-627.5 471,-608.5 319,-608.5"/>
<text text-anchor="middle" x="395" y="-615.5" font-family="Helvetica,sans-Serif" font-size="10.00">DashBoard::setEXAnalogInput1</text>
</a>
</g>
</g>
<!-- Node2&#45;&gt;Node6 -->
<g id="edge5" class="edge">
<title>Node2&#45;&gt;Node6</title>
<path fill="none" stroke="midnightblue" d="M226.56,-361.54C229.25,-398.3 244.01,-531.97 319,-599 320.75,-600.56 322.61,-602 324.56,-603.33"/>
<polygon fill="midnightblue" stroke="midnightblue" points="323.15,-606.55 333.58,-608.42 326.59,-600.46 323.15,-606.55"/>
</g>
<!-- Node8 -->
<g id="node8" class="node">
<title>Node8</title>
<g id="a_node8"><a xlink:href="classDashBoard.html#aaf8d337a32bd43ae3ec8855dece362ac" target="_top" xlink:title=" ">
<polygon fill="white" stroke="black" points="319,-570.5 319,-589.5 471,-589.5 471,-570.5 319,-570.5"/>
<text text-anchor="middle" x="395" y="-577.5" font-family="Helvetica,sans-Serif" font-size="10.00">DashBoard::setEXAnalogInput2</text>
</a>
</g>
</g>
<!-- Node2&#45;&gt;Node8 -->
<g id="edge7" class="edge">
<title>Node2&#45;&gt;Node8</title>
<path fill="none" stroke="midnightblue" d="M227.3,-361.66C232.29,-394.94 253.4,-505.73 319,-561 321.02,-562.7 323.18,-564.26 325.43,-565.68"/>
<polygon fill="midnightblue" stroke="midnightblue" points="324.08,-568.92 334.56,-570.49 327.35,-562.73 324.08,-568.92"/>
</g>
<!-- Node10 -->
<g id="node10" class="node">
<title>Node10</title>
<g id="a_node10"><a xlink:href="classDashBoard.html#a3e2fdc22c050dd853a691c8dde2035cf" target="_top" xlink:title=" ">
<polygon fill="white" stroke="black" points="319,-532.5 319,-551.5 471,-551.5 471,-532.5 319,-532.5"/>
<text text-anchor="middle" x="395" y="-539.5" font-family="Helvetica,sans-Serif" font-size="10.00">DashBoard::setEXAnalogInput3</text>
</a>
</g>
</g>
<!-- Node2&#45;&gt;Node10 -->
<g id="edge9" class="edge">
<title>Node2&#45;&gt;Node10</title>
<path fill="none" stroke="midnightblue" d="M228.28,-361.52C235.77,-390.62 262.42,-479.05 319,-523 321.34,-524.82 323.83,-526.46 326.43,-527.95"/>
<polygon fill="midnightblue" stroke="midnightblue" points="325.1,-531.19 335.63,-532.43 328.17,-524.9 325.1,-531.19"/>
</g>
<!-- Node12 -->
<g id="node12" class="node">
<title>Node12</title>
<g id="a_node12"><a xlink:href="classDashBoard.html#a78240e34ac663f151c2733a55f1b9b15" target="_top" xlink:title=" ">
<polygon fill="white" stroke="black" points="319,-494.5 319,-513.5 471,-513.5 471,-494.5 319,-494.5"/>
<text text-anchor="middle" x="395" y="-501.5" font-family="Helvetica,sans-Serif" font-size="10.00">DashBoard::setEXAnalogInput4</text>
</a>
</g>
</g>
<!-- Node2&#45;&gt;Node12 -->
<g id="edge11" class="edge">
<title>Node2&#45;&gt;Node12</title>
<path fill="none" stroke="midnightblue" d="M229.94,-361.82C240.43,-386.64 271.47,-452.18 319,-485 321.91,-487.01 325.01,-488.8 328.23,-490.41"/>
<polygon fill="midnightblue" stroke="midnightblue" points="327.02,-493.7 337.59,-494.45 329.8,-487.27 327.02,-493.7"/>
</g>
<!-- Node14 -->
<g id="node14" class="node">
<title>Node14</title>
<g id="a_node14"><a xlink:href="classDashBoard.html#acc9ce3b13710f908e198224081150d50" target="_top" xlink:title=" ">
<polygon fill="white" stroke="black" points="319,-456.5 319,-475.5 471,-475.5 471,-456.5 319,-456.5"/>
<text text-anchor="middle" x="395" y="-463.5" font-family="Helvetica,sans-Serif" font-size="10.00">DashBoard::setEXAnalogInput5</text>
</a>
</g>
</g>
<!-- Node2&#45;&gt;Node14 -->
<g id="edge13" class="edge">
<title>Node2&#45;&gt;Node14</title>
<path fill="none" stroke="midnightblue" d="M232.68,-361.79C246.45,-381.18 279.99,-424.56 319,-447 322.9,-449.25 327.07,-451.23 331.37,-452.98"/>
<polygon fill="midnightblue" stroke="midnightblue" points="330.33,-456.33 340.92,-456.46 332.72,-449.75 330.33,-456.33"/>
</g>
<!-- Node16 -->
<g id="node16" class="node">
<title>Node16</title>
<g id="a_node16"><a xlink:href="classDashBoard.html#a716e0567d83d4547582b97215fa8364f" target="_top" xlink:title=" ">
<polygon fill="white" stroke="black" points="319,-418.5 319,-437.5 471,-437.5 471,-418.5 319,-418.5"/>
<text text-anchor="middle" x="395" y="-425.5" font-family="Helvetica,sans-Serif" font-size="10.00">DashBoard::setEXAnalogInput6</text>
</a>
</g>
</g>
<!-- Node2&#45;&gt;Node16 -->
<g id="edge15" class="edge">
<title>Node2&#45;&gt;Node16</title>
<path fill="none" stroke="midnightblue" d="M238.87,-361.64C256.22,-374.22 288.46,-396.13 319,-409 324.85,-411.47 331.09,-413.67 337.39,-415.62"/>
<polygon fill="midnightblue" stroke="midnightblue" points="336.69,-419.06 347.27,-418.49 338.64,-412.34 336.69,-419.06"/>
</g>
<!-- Node18 -->
<g id="node18" class="node">
<title>Node18</title>
<g id="a_node18"><a xlink:href="classDashBoard.html#a84edfc43f79c2ec11502be1fa0bba88a" target="_top" xlink:title=" ">
<polygon fill="white" stroke="black" points="319,-380.5 319,-399.5 471,-399.5 471,-380.5 319,-380.5"/>
<text text-anchor="middle" x="395" y="-387.5" font-family="Helvetica,sans-Serif" font-size="10.00">DashBoard::setEXAnalogInput7</text>
</a>
</g>
</g>
<!-- Node2&#45;&gt;Node18 -->
<g id="edge17" class="edge">
<title>Node2&#45;&gt;Node18</title>
<path fill="none" stroke="midnightblue" d="M268.39,-361.59C290.76,-366.65 318.4,-372.9 342.05,-378.25"/>
<polygon fill="midnightblue" stroke="midnightblue" points="341.39,-381.69 351.91,-380.48 342.93,-374.86 341.39,-381.69"/>
</g>
<!-- Node21 -->
<g id="node21" class="node">
<title>Node21</title>
<g id="a_node21"><a xlink:href="classDashBoard.html#aa46ca9cc6c7aa38dd7b1c854d7194d8e" target="_top" xlink:title=" ">
<polygon fill="white" stroke="black" points="320.5,-342.5 320.5,-361.5 469.5,-361.5 469.5,-342.5 320.5,-342.5"/>
<text text-anchor="middle" x="395" y="-349.5" font-family="Helvetica,sans-Serif" font-size="10.00">DashBoard::setEXDigitalInput1</text>
</a>
</g>
</g>
<!-- Node2&#45;&gt;Node21 -->
<g id="edge20" class="edge">
<title>Node2&#45;&gt;Node21</title>
<path fill="none" stroke="midnightblue" d="M283.35,-352C291.98,-352 301.03,-352 310.08,-352"/>
<polygon fill="midnightblue" stroke="midnightblue" points="310.28,-355.5 320.28,-352 310.28,-348.5 310.28,-355.5"/>
</g>
<!-- Node22 -->
<g id="node22" class="node">
<title>Node22</title>
<g id="a_node22"><a xlink:href="classDashBoard.html#a647ab8b3e72de0c4c2f205ea7505baf6" target="_top" xlink:title=" ">
<polygon fill="white" stroke="black" points="320.5,-304.5 320.5,-323.5 469.5,-323.5 469.5,-304.5 320.5,-304.5"/>
<text text-anchor="middle" x="395" y="-311.5" font-family="Helvetica,sans-Serif" font-size="10.00">DashBoard::setEXDigitalInput2</text>
</a>
</g>
</g>
<!-- Node2&#45;&gt;Node22 -->
<g id="edge21" class="edge">
<title>Node2&#45;&gt;Node22</title>
<path fill="none" stroke="midnightblue" d="M268.39,-342.41C290.76,-337.35 318.4,-331.1 342.05,-325.75"/>
<polygon fill="midnightblue" stroke="midnightblue" points="342.93,-329.14 351.91,-323.52 341.39,-322.31 342.93,-329.14"/>
</g>
<!-- Node23 -->
<g id="node23" class="node">
<title>Node23</title>
<g id="a_node23"><a xlink:href="classDashBoard.html#af8c84e201cb752d50d8672fed0a5e773" target="_top" xlink:title=" ">
<polygon fill="white" stroke="black" points="320.5,-266.5 320.5,-285.5 469.5,-285.5 469.5,-266.5 320.5,-266.5"/>
<text text-anchor="middle" x="395" y="-273.5" font-family="Helvetica,sans-Serif" font-size="10.00">DashBoard::setEXDigitalInput3</text>
</a>
</g>
</g>
<!-- Node2&#45;&gt;Node23 -->
<g id="edge22" class="edge">
<title>Node2&#45;&gt;Node23</title>
<path fill="none" stroke="midnightblue" d="M238.87,-342.36C256.22,-329.78 288.46,-307.87 319,-295 324.85,-292.53 331.09,-290.33 337.39,-288.38"/>
<polygon fill="midnightblue" stroke="midnightblue" points="338.64,-291.66 347.27,-285.51 336.69,-284.94 338.64,-291.66"/>
</g>
<!-- Node24 -->
<g id="node24" class="node">
<title>Node24</title>
<g id="a_node24"><a xlink:href="classDashBoard.html#a2424c28383ff002d84ecafb105e52478" target="_top" xlink:title=" ">
<polygon fill="white" stroke="black" points="320.5,-228.5 320.5,-247.5 469.5,-247.5 469.5,-228.5 320.5,-228.5"/>
<text text-anchor="middle" x="395" y="-235.5" font-family="Helvetica,sans-Serif" font-size="10.00">DashBoard::setEXDigitalInput4</text>
</a>
</g>
</g>
<!-- Node2&#45;&gt;Node24 -->
<g id="edge23" class="edge">
<title>Node2&#45;&gt;Node24</title>
<path fill="none" stroke="midnightblue" d="M232.68,-342.21C246.45,-322.82 279.99,-279.44 319,-257 322.9,-254.75 327.07,-252.77 331.37,-251.02"/>
<polygon fill="midnightblue" stroke="midnightblue" points="332.72,-254.25 340.92,-247.54 330.33,-247.67 332.72,-254.25"/>
</g>
<!-- Node25 -->
<g id="node25" class="node">
<title>Node25</title>
<g id="a_node25"><a xlink:href="classDashBoard.html#a3c99db6971cbfa671cc200a2f793ab9e" target="_top" xlink:title=" ">
<polygon fill="white" stroke="black" points="320.5,-190.5 320.5,-209.5 469.5,-209.5 469.5,-190.5 320.5,-190.5"/>
<text text-anchor="middle" x="395" y="-197.5" font-family="Helvetica,sans-Serif" font-size="10.00">DashBoard::setEXDigitalInput5</text>
</a>
</g>
</g>
<!-- Node2&#45;&gt;Node25 -->
<g id="edge24" class="edge">
<title>Node2&#45;&gt;Node25</title>
<path fill="none" stroke="midnightblue" d="M229.94,-342.18C240.43,-317.36 271.47,-251.82 319,-219 321.91,-216.99 325.01,-215.2 328.23,-213.59"/>
<polygon fill="midnightblue" stroke="midnightblue" points="329.8,-216.73 337.59,-209.55 327.02,-210.3 329.8,-216.73"/>
</g>
<!-- Node26 -->
<g id="node26" class="node">
<title>Node26</title>
<g id="a_node26"><a xlink:href="classDashBoard.html#ad88701b524bb0a1f33f83d9fffd4b6a2" target="_top" xlink:title=" ">
<polygon fill="white" stroke="black" points="320.5,-152.5 320.5,-171.5 469.5,-171.5 469.5,-152.5 320.5,-152.5"/>
<text text-anchor="middle" x="395" y="-159.5" font-family="Helvetica,sans-Serif" font-size="10.00">DashBoard::setEXDigitalInput6</text>
</a>
</g>
</g>
<!-- Node2&#45;&gt;Node26 -->
<g id="edge25" class="edge">
<title>Node2&#45;&gt;Node26</title>
<path fill="none" stroke="midnightblue" d="M228.28,-342.48C235.77,-313.38 262.42,-224.95 319,-181 321.34,-179.18 323.83,-177.54 326.43,-176.05"/>
<polygon fill="midnightblue" stroke="midnightblue" points="328.17,-179.1 335.63,-171.57 325.1,-172.81 328.17,-179.1"/>
</g>
<!-- Node27 -->
<g id="node27" class="node">
<title>Node27</title>
<g id="a_node27"><a xlink:href="classDashBoard.html#a83a2f9f8cb8efab71307b2d8bcbf48d8" target="_top" xlink:title=" ">
<polygon fill="white" stroke="black" points="320.5,-114.5 320.5,-133.5 469.5,-133.5 469.5,-114.5 320.5,-114.5"/>
<text text-anchor="middle" x="395" y="-121.5" font-family="Helvetica,sans-Serif" font-size="10.00">DashBoard::setEXDigitalInput7</text>
</a>
</g>
</g>
<!-- Node2&#45;&gt;Node27 -->
<g id="edge26" class="edge">
<title>Node2&#45;&gt;Node27</title>
<path fill="none" stroke="midnightblue" d="M227.3,-342.34C232.29,-309.06 253.4,-198.27 319,-143 321.02,-141.3 323.18,-139.74 325.43,-138.32"/>
<polygon fill="midnightblue" stroke="midnightblue" points="327.35,-141.27 334.56,-133.51 324.08,-135.08 327.35,-141.27"/>
</g>
<!-- Node28 -->
<g id="node28" class="node">
<title>Node28</title>
<g id="a_node28"><a xlink:href="classDashBoard.html#a4eebd82e4a2363f974b92566fa81abdd" target="_top" xlink:title=" ">
<polygon fill="white" stroke="black" points="320.5,-76.5 320.5,-95.5 469.5,-95.5 469.5,-76.5 320.5,-76.5"/>
<text text-anchor="middle" x="395" y="-83.5" font-family="Helvetica,sans-Serif" font-size="10.00">DashBoard::setEXDigitalInput8</text>
</a>
</g>
</g>
<!-- Node2&#45;&gt;Node28 -->
<g id="edge27" class="edge">
<title>Node2&#45;&gt;Node28</title>
<path fill="none" stroke="midnightblue" d="M226.56,-342.46C229.25,-305.7 244.01,-172.03 319,-105 320.75,-103.44 322.61,-102 324.56,-100.67"/>
<polygon fill="midnightblue" stroke="midnightblue" points="326.59,-103.54 333.58,-95.58 323.15,-97.45 326.59,-103.54"/>
</g>
<!-- Node29 -->
<g id="node29" class="node">
<title>Node29</title>
<g id="a_node29"><a xlink:href="classDashBoard.html#a1ab9446e32205bad972299f2731fc073" target="_top" xlink:title=" ">
<polygon fill="white" stroke="black" points="319,-38.5 319,-57.5 471,-57.5 471,-38.5 319,-38.5"/>
<text text-anchor="middle" x="395" y="-45.5" font-family="Helvetica,sans-Serif" font-size="10.00">DashBoard::setfrequencyDIEX1</text>
</a>
</g>
</g>
<!-- Node2&#45;&gt;Node29 -->
<g id="edge28" class="edge">
<title>Node2&#45;&gt;Node29</title>
<path fill="none" stroke="midnightblue" d="M226.02,-342.43C226.64,-302.28 234.6,-145.91 319,-67 320.67,-65.43 322.46,-63.99 324.33,-62.67"/>
<polygon fill="midnightblue" stroke="midnightblue" points="326.18,-65.64 333.03,-57.56 322.64,-59.6 326.18,-65.64"/>
</g>
<!-- Node30 -->
<g id="node30" class="node">
<title>Node30</title>
<g id="a_node30"><a xlink:href="classDashBoard.html#ab8a26c5ebc87f76cc237e46d8e014403" target="_top" xlink:title=" ">
<polygon fill="white" stroke="black" points="345.5,-0.5 345.5,-19.5 444.5,-19.5 444.5,-0.5 345.5,-0.5"/>
<text text-anchor="middle" x="395" y="-7.5" font-family="Helvetica,sans-Serif" font-size="10.00">DashBoard::setrpm</text>
</a>
</g>
</g>
<!-- Node2&#45;&gt;Node30 -->
<g id="edge29" class="edge">
<title>Node2&#45;&gt;Node30</title>
<path fill="none" stroke="midnightblue" d="M225.59,-342.38C224.32,-299.03 225.09,-119.93 319,-29 323.86,-24.29 329.72,-20.7 335.98,-17.97"/>
<polygon fill="midnightblue" stroke="midnightblue" points="337.19,-21.26 345.39,-14.55 334.8,-14.68 337.19,-21.26"/>
</g>
<!-- Node5 -->
<g id="node5" class="node">
<title>Node5</title>
<g id="a_node5"><a xlink:href="classDashBoard.html#ad4bca9c86e09a58f353f1769f330b16b" target="_top" xlink:title=" ">
<polygon fill="white" stroke="black" points="507,-646.5 507,-665.5 657,-665.5 657,-646.5 507,-646.5"/>
<text text-anchor="middle" x="582" y="-653.5" font-family="Helvetica,sans-Serif" font-size="10.00">DashBoard::setEXAnalogCalc0</text>
</a>
</g>
</g>
<!-- Node4&#45;&gt;Node5 -->
<g id="edge4" class="edge">
<title>Node4&#45;&gt;Node5</title>
<path fill="none" stroke="midnightblue" d="M471.25,-656C479.57,-656 488.08,-656 496.51,-656"/>
<polygon fill="midnightblue" stroke="midnightblue" points="496.72,-659.5 506.72,-656 496.72,-652.5 496.72,-659.5"/>
</g>
<!-- Node7 -->
<g id="node7" class="node">
<title>Node7</title>
<g id="a_node7"><a xlink:href="classDashBoard.html#a5ac515122873f5b76e448a80541902fe" target="_top" xlink:title=" ">
<polygon fill="white" stroke="black" points="507,-608.5 507,-627.5 657,-627.5 657,-608.5 507,-608.5"/>
<text text-anchor="middle" x="582" y="-615.5" font-family="Helvetica,sans-Serif" font-size="10.00">DashBoard::setEXAnalogCalc1</text>
</a>
</g>
</g>
<!-- Node6&#45;&gt;Node7 -->
<g id="edge6" class="edge">
<title>Node6&#45;&gt;Node7</title>
<path fill="none" stroke="midnightblue" d="M471.25,-618C479.57,-618 488.08,-618 496.51,-618"/>
<polygon fill="midnightblue" stroke="midnightblue" points="496.72,-621.5 506.72,-618 496.72,-614.5 496.72,-621.5"/>
</g>
<!-- Node9 -->
<g id="node9" class="node">
<title>Node9</title>
<g id="a_node9"><a xlink:href="classDashBoard.html#a9fdebbd7e5e1dc147484405017a4f58e" target="_top" xlink:title=" ">
<polygon fill="white" stroke="black" points="507,-570.5 507,-589.5 657,-589.5 657,-570.5 507,-570.5"/>
<text text-anchor="middle" x="582" y="-577.5" font-family="Helvetica,sans-Serif" font-size="10.00">DashBoard::setEXAnalogCalc2</text>
</a>
</g>
</g>
<!-- Node8&#45;&gt;Node9 -->
<g id="edge8" class="edge">
<title>Node8&#45;&gt;Node9</title>
<path fill="none" stroke="midnightblue" d="M471.25,-580C479.57,-580 488.08,-580 496.51,-580"/>
<polygon fill="midnightblue" stroke="midnightblue" points="496.72,-583.5 506.72,-580 496.72,-576.5 496.72,-583.5"/>
</g>
<!-- Node11 -->
<g id="node11" class="node">
<title>Node11</title>
<g id="a_node11"><a xlink:href="classDashBoard.html#a45736c280f71e3e0f7952d6caa509a5d" target="_top" xlink:title=" ">
<polygon fill="white" stroke="black" points="507,-532.5 507,-551.5 657,-551.5 657,-532.5 507,-532.5"/>
<text text-anchor="middle" x="582" y="-539.5" font-family="Helvetica,sans-Serif" font-size="10.00">DashBoard::setEXAnalogCalc3</text>
</a>
</g>
</g>
<!-- Node10&#45;&gt;Node11 -->
<g id="edge10" class="edge">
<title>Node10&#45;&gt;Node11</title>
<path fill="none" stroke="midnightblue" d="M471.25,-542C479.57,-542 488.08,-542 496.51,-542"/>
<polygon fill="midnightblue" stroke="midnightblue" points="496.72,-545.5 506.72,-542 496.72,-538.5 496.72,-545.5"/>
</g>
<!-- Node13 -->
<g id="node13" class="node">
<title>Node13</title>
<g id="a_node13"><a xlink:href="classDashBoard.html#a2628edc6a2b1f8487f0e66baaa28cb1c" target="_top" xlink:title=" ">
<polygon fill="white" stroke="black" points="507,-494.5 507,-513.5 657,-513.5 657,-494.5 507,-494.5"/>
<text text-anchor="middle" x="582" y="-501.5" font-family="Helvetica,sans-Serif" font-size="10.00">DashBoard::setEXAnalogCalc4</text>
</a>
</g>
</g>
<!-- Node12&#45;&gt;Node13 -->
<g id="edge12" class="edge">
<title>Node12&#45;&gt;Node13</title>
<path fill="none" stroke="midnightblue" d="M471.25,-504C479.57,-504 488.08,-504 496.51,-504"/>
<polygon fill="midnightblue" stroke="midnightblue" points="496.72,-507.5 506.72,-504 496.72,-500.5 496.72,-507.5"/>
</g>
<!-- Node15 -->
<g id="node15" class="node">
<title>Node15</title>
<g id="a_node15"><a xlink:href="classDashBoard.html#a78a532a6368f73c881615156a9792754" target="_top" xlink:title=" ">
<polygon fill="white" stroke="black" points="507,-456.5 507,-475.5 657,-475.5 657,-456.5 507,-456.5"/>
<text text-anchor="middle" x="582" y="-463.5" font-family="Helvetica,sans-Serif" font-size="10.00">DashBoard::setEXAnalogCalc5</text>
</a>
</g>
</g>
<!-- Node14&#45;&gt;Node15 -->
<g id="edge14" class="edge">
<title>Node14&#45;&gt;Node15</title>
<path fill="none" stroke="midnightblue" d="M471.25,-466C479.57,-466 488.08,-466 496.51,-466"/>
<polygon fill="midnightblue" stroke="midnightblue" points="496.72,-469.5 506.72,-466 496.72,-462.5 496.72,-469.5"/>
</g>
<!-- Node17 -->
<g id="node17" class="node">
<title>Node17</title>
<g id="a_node17"><a xlink:href="classDashBoard.html#ab5fde2074a4df80f8fe7b063f2bcdbdb" target="_top" xlink:title=" ">
<polygon fill="white" stroke="black" points="507,-418.5 507,-437.5 657,-437.5 657,-418.5 507,-418.5"/>
<text text-anchor="middle" x="582" y="-425.5" font-family="Helvetica,sans-Serif" font-size="10.00">DashBoard::setEXAnalogCalc6</text>
</a>
</g>
</g>
<!-- Node16&#45;&gt;Node17 -->
<g id="edge16" class="edge">
<title>Node16&#45;&gt;Node17</title>
<path fill="none" stroke="midnightblue" d="M471.25,-428C479.57,-428 488.08,-428 496.51,-428"/>
<polygon fill="midnightblue" stroke="midnightblue" points="496.72,-431.5 506.72,-428 496.72,-424.5 496.72,-431.5"/>
</g>
<!-- Node19 -->
<g id="node19" class="node">
<title>Node19</title>
<g id="a_node19"><a xlink:href="dashboard_8cpp.html#a2751a06c2fa6c8388f2d37d5d26453f3" target="_top" xlink:title=" ">
<polygon fill="white" stroke="black" points="524,-380.5 524,-399.5 640,-399.5 640,-380.5 524,-380.5"/>
<text text-anchor="middle" x="582" y="-387.5" font-family="Helvetica,sans-Serif" font-size="10.00">averageexanaloginput7</text>
</a>
</g>
</g>
<!-- Node18&#45;&gt;Node19 -->
<g id="edge18" class="edge">
<title>Node18&#45;&gt;Node19</title>
<path fill="none" stroke="midnightblue" d="M471.25,-390C485.28,-390 499.86,-390 513.63,-390"/>
<polygon fill="midnightblue" stroke="midnightblue" points="513.98,-393.5 523.98,-390 513.98,-386.5 513.98,-393.5"/>
</g>
<!-- Node20 -->
<g id="node20" class="node">
<title>Node20</title>
<g id="a_node20"><a xlink:href="classDashBoard.html#a45064b50c716f383e9811c5ab25b3422" target="_top" xlink:title=" ">
<polygon fill="white" stroke="black" points="507,-342.5 507,-361.5 657,-361.5 657,-342.5 507,-342.5"/>
<text text-anchor="middle" x="582" y="-349.5" font-family="Helvetica,sans-Serif" font-size="10.00">DashBoard::setEXAnalogCalc7</text>
</a>
</g>
</g>
<!-- Node18&#45;&gt;Node20 -->
<g id="edge19" class="edge">
<title>Node18&#45;&gt;Node20</title>
<path fill="none" stroke="midnightblue" d="M442.68,-380.41C467.65,-375.28 498.56,-368.93 524.83,-363.54"/>
<polygon fill="midnightblue" stroke="midnightblue" points="525.56,-366.96 534.65,-361.52 524.15,-360.1 525.56,-366.96"/>
</g>
<!-- Node31 -->
<g id="node31" class="node">
<title>Node31</title>
<g id="a_node31"><a xlink:href="dashboard_8cpp.html#abaed07c489b38d23644263ae435338d4" target="_top" xlink:title=" ">
<polygon fill="white" stroke="black" points="545.5,-0.5 545.5,-19.5 618.5,-19.5 618.5,-0.5 545.5,-0.5"/>
<text text-anchor="middle" x="582" y="-7.5" font-family="Helvetica,sans-Serif" font-size="10.00">averageRPM</text>
</a>
</g>
</g>
<!-- Node30&#45;&gt;Node31 -->
<g id="edge30" class="edge">
<title>Node30&#45;&gt;Node31</title>
<path fill="none" stroke="midnightblue" d="M444.61,-10C472.61,-10 507.6,-10 535.13,-10"/>
<polygon fill="midnightblue" stroke="midnightblue" points="535.29,-13.5 545.29,-10 535.29,-6.5 535.29,-13.5"/>
</g>
</g>
</svg>
