<?xml version="1.0" encoding="UTF-8" standalone="no"?>
<!DOCTYPE svg PUBLIC "-//W3C//DTD SVG 1.1//EN"
 "http://www.w3.org/Graphics/SVG/1.1/DTD/svg11.dtd">
<!-- Generated by graphviz version 2.49.3 (20211027.1534)
 -->
<!-- Title: GPS::removeNMEAmsg Pages: 1 -->
<!--zoomable 246 -->
<svg id="main" version="1.1" xmlns="http://www.w3.org/2000/svg" xmlns:xlink="http://www.w3.org/1999/xlink" xml:space="preserve" onload="init(evt)">
<style type="text/css"><![CDATA[
.edge:hover path { stroke: red; }
.edge:hover polygon { stroke: red; fill: red; }
]]></style>
<script type="text/javascript"><![CDATA[
var edges = document.getElementsByTagName('g');
if (edges && edges.length) {
  for (var i=0;i<edges.length;i++) {
    if (edges[i].id.substr(0,4)=='edge') {
      edges[i].setAttribute('class','edge');
    }
  }
}
]]></script>
        <defs>
                <circle id="rim" cx="0" cy="0" r="7"/>
                <circle id="rim2" cx="0" cy="0" r="3.5"/>
                <g id="zoomPlus">
                        <use xlink:href="#rim" fill="#404040">
                                <set attributeName="fill" to="#808080" begin="zoomplus.mouseover" end="zoomplus.mouseout"/>
                        </use>
                        <path d="M-4,0h8M0,-4v8" fill="none" stroke="white" stroke-width="1.5" pointer-events="none"/>
                </g>
                <g id="zoomMin">
                        <use xlink:href="#rim" fill="#404040">
                                <set attributeName="fill" to="#808080" begin="zoomminus.mouseover" end="zoomminus.mouseout"/>
                        </use>
                        <path d="M-4,0h8" fill="none" stroke="white" stroke-width="1.5" pointer-events="none"/>
                </g>
                <g id="dirArrow">
                        <path fill="none" stroke="white" stroke-width="1.5" d="M0,-3.0v7 M-2.5,-0.5L0,-3.0L2.5,-0.5"/>
                </g>
               <g id="resetDef">
                       <use xlink:href="#rim2" fill="#404040">
                               <set attributeName="fill" to="#808080" begin="reset.mouseover" end="reset.mouseout"/>
                       </use>
               </g>
        </defs>

<script type="text/javascript">
var viewWidth = 1492;
var viewHeight = 246;
var sectionId = 'dynsection-29';
</script>
<script xlink:href="svgpan.js"/>
<svg id="graph" class="graph">
<g id="viewport">
<title>GPS::removeNMEAmsg</title>
<polygon fill="white" stroke="transparent" points="-4,4 -4,-242 1488,-242 1488,4 -4,4"/>
<!-- Node1 -->
<g id="node1" class="node">
<title>Node1</title>
<g id="a_node1"><a xlink:title=" ">
<polygon fill="#bfbfbf" stroke="black" points="1362,-9.5 1362,-28.5 1484,-28.5 1484,-9.5 1362,-9.5"/>
<text text-anchor="middle" x="1423" y="-16.5" font-family="Helvetica,sans-Serif" font-size="10.00">GPS::removeNMEAmsg</text>
</a>
</g>
</g>
<!-- Node2 -->
<g id="node2" class="node">
<title>Node2</title>
<g id="a_node2"><a xlink:href="classGPS.html#a217097ae4a846c621f001a5aa1f4fb4f" target="_top" xlink:title=" ">
<polygon fill="white" stroke="black" points="1208,-9.5 1208,-28.5 1326,-28.5 1326,-9.5 1208,-9.5"/>
<text text-anchor="middle" x="1267" y="-16.5" font-family="Helvetica,sans-Serif" font-size="10.00">GPS::ProcessMessage</text>
</a>
</g>
</g>
<!-- Node1&#45;&gt;Node2 -->
<g id="edge1" class="edge">
<title>Node1&#45;&gt;Node2</title>
<path fill="none" stroke="midnightblue" d="M1351.39,-19C1342.97,-19 1334.45,-19 1326.23,-19"/>
<polygon fill="midnightblue" stroke="midnightblue" points="1351.58,-22.5 1361.58,-19 1351.58,-15.5 1351.58,-22.5"/>
</g>
<!-- Node3 -->
<g id="node3" class="node">
<title>Node3</title>
<g id="a_node3"><a xlink:href="classGPS.html#aa0928d156961a54bf06d9b5210d85561" target="_top" xlink:title=" ">
<polygon fill="white" stroke="black" points="1073,-66.5 1073,-85.5 1172,-85.5 1172,-66.5 1073,-66.5"/>
<text text-anchor="middle" x="1122.5" y="-73.5" font-family="Helvetica,sans-Serif" font-size="10.00">GPS::readyToRead</text>
</a>
</g>
</g>
<!-- Node2&#45;&gt;Node3 -->
<g id="edge2" class="edge">
<title>Node2&#45;&gt;Node3</title>
<path fill="none" stroke="midnightblue" d="M1232.65,-32.34C1206.51,-42.8 1170.78,-57.09 1147.43,-66.43"/>
<polygon fill="midnightblue" stroke="midnightblue" points="1234.16,-35.5 1242.15,-28.54 1231.56,-29 1234.16,-35.5"/>
</g>
<!-- Node4 -->
<g id="node4" class="node">
<title>Node4</title>
<g id="a_node4"><a xlink:href="classGPS.html#ae4568ef4d5107c96c1af68d1abd33559" target="_top" xlink:title=" ">
<polygon fill="white" stroke="black" points="923,-104.5 923,-123.5 1037,-123.5 1037,-104.5 923,-104.5"/>
<text text-anchor="middle" x="980" y="-111.5" font-family="Helvetica,sans-Serif" font-size="10.00">GPS::closeConnection</text>
</a>
</g>
</g>
<!-- Node3&#45;&gt;Node4 -->
<g id="edge3" class="edge">
<title>Node3&#45;&gt;Node4</title>
<path fill="none" stroke="midnightblue" d="M1076.22,-88.25C1056.86,-93.48 1034.58,-99.51 1016.44,-104.41"/>
<polygon fill="midnightblue" stroke="midnightblue" points="1077.31,-91.58 1086.05,-85.59 1075.48,-84.82 1077.31,-91.58"/>
</g>
<!-- Node6 -->
<g id="node6" class="node">
<title>Node6</title>
<g id="a_node6"><a xlink:href="classGPS.html#a8775edfa08840ffb2647e0e5ba031fe5" target="_top" xlink:title=" ">
<polygon fill="white" stroke="black" points="298,-104.5 298,-123.5 417,-123.5 417,-104.5 298,-104.5"/>
<text text-anchor="middle" x="357.5" y="-111.5" font-family="Helvetica,sans-Serif" font-size="10.00">GPS::closeConnection1</text>
</a>
</g>
</g>
<!-- Node3&#45;&gt;Node6 -->
<g id="edge18" class="edge">
<title>Node3&#45;&gt;Node6</title>
<path fill="none" stroke="midnightblue" d="M1063.77,-64.63C1001.79,-53.44 900.33,-38 812,-38 812,-38 812,-38 649,-38 545.26,-38 427.26,-83.92 379.86,-104.37"/>
<polygon fill="midnightblue" stroke="midnightblue" points="1063.27,-68.1 1073.74,-66.46 1064.53,-61.22 1063.27,-68.1"/>
</g>
<!-- Node9 -->
<g id="node9" class="node">
<title>Node9</title>
<g id="a_node9"><a xlink:href="classGPS.html#ac2a7572afb184df9c14ae913f17306bf" target="_top" xlink:title=" ">
<polygon fill="white" stroke="black" points="601,-218.5 601,-237.5 699,-237.5 699,-218.5 601,-218.5"/>
<text text-anchor="middle" x="650" y="-225.5" font-family="Helvetica,sans-Serif" font-size="10.00">GPS::initSerialPort</text>
</a>
</g>
</g>
<!-- Node3&#45;&gt;Node9 -->
<g id="edge19" class="edge">
<title>Node3&#45;&gt;Node9</title>
<path fill="none" stroke="midnightblue" d="M1101.72,-92.25C1085.3,-105 1060.85,-122.33 1037,-133 921.72,-184.59 774.01,-210.97 699.14,-221.82"/>
<polygon fill="midnightblue" stroke="midnightblue" points="1104.31,-94.67 1109.96,-85.71 1099.96,-89.18 1104.31,-94.67"/>
</g>
<!-- Node5 -->
<g id="node5" class="node">
<title>Node5</title>
<g id="a_node5"><a xlink:href="classGPS.html#aaf69fb801bbce2ea70041e68fe0ec19a" target="_top" xlink:title=" ">
<polygon fill="white" stroke="black" points="735,-142.5 735,-161.5 887,-161.5 887,-142.5 735,-142.5"/>
<text text-anchor="middle" x="811" y="-149.5" font-family="Helvetica,sans-Serif" font-size="10.00">GPS::handleReconnectTimeout</text>
</a>
</g>
</g>
<!-- Node4&#45;&gt;Node5 -->
<g id="edge4" class="edge">
<title>Node4&#45;&gt;Node5</title>
<path fill="none" stroke="midnightblue" d="M913.05,-122.39C884.73,-128.4 853.59,-136.12 833.47,-142.42"/>
<polygon fill="midnightblue" stroke="midnightblue" points="913.85,-125.8 922.93,-120.34 912.42,-118.95 913.85,-125.8"/>
</g>
<!-- Node10 -->
<g id="node10" class="node">
<title>Node10</title>
<g id="a_node10"><a xlink:href="classGPS.html#a51eaea2422dd980ea0a6d28f12a136de" target="_top" xlink:title=" ">
<polygon fill="white" stroke="black" points="453,-123.5 453,-142.5 565,-142.5 565,-123.5 453,-123.5"/>
<text text-anchor="middle" x="509" y="-130.5" font-family="Helvetica,sans-Serif" font-size="10.00">GPS::openConnection</text>
</a>
</g>
</g>
<!-- Node4&#45;&gt;Node10 -->
<g id="edge17" class="edge">
<title>Node4&#45;&gt;Node10</title>
<path fill="none" stroke="midnightblue" d="M912.74,-116.68C819.62,-120.46 651.74,-127.26 565.08,-130.77"/>
<polygon fill="midnightblue" stroke="midnightblue" points="913.04,-120.17 922.89,-116.27 912.76,-113.18 913.04,-120.17"/>
</g>
<!-- Node5&#45;&gt;Node4 -->
<g id="edge5" class="edge">
<title>Node5&#45;&gt;Node4</title>
<path fill="none" stroke="midnightblue" d="M893.13,-140.29C916.91,-134.92 940.94,-128.77 957.51,-123.59"/>
<polygon fill="midnightblue" stroke="midnightblue" points="892.35,-136.88 883.34,-142.45 893.86,-143.71 892.35,-136.88"/>
</g>
<!-- Node5&#45;&gt;Node6 -->
<g id="edge6" class="edge">
<title>Node5&#45;&gt;Node6</title>
<path fill="none" stroke="midnightblue" d="M724.88,-161.48C651.95,-167.36 544.49,-170.67 453,-152 425.28,-146.34 395.29,-132.91 376.71,-123.64"/>
<polygon fill="midnightblue" stroke="midnightblue" points="725.27,-164.96 734.94,-160.64 724.68,-157.99 725.27,-164.96"/>
</g>
<!-- Node5&#45;&gt;Node9 -->
<g id="edge16" class="edge">
<title>Node5&#45;&gt;Node9</title>
<path fill="none" stroke="midnightblue" d="M780.59,-166.06C748.68,-181.31 698.6,-205.25 670.97,-218.45"/>
<polygon fill="midnightblue" stroke="midnightblue" points="782.35,-169.1 789.86,-161.63 779.33,-162.78 782.35,-169.1"/>
</g>
<!-- Node7 -->
<g id="node7" class="node">
<title>Node7</title>
<g id="a_node7"><a xlink:href="classGPS.html#abd750ada6a7b976f72761ce16246ccf6" target="_top" xlink:title=" ">
<polygon fill="white" stroke="black" points="142,-28.5 142,-47.5 262,-47.5 262,-28.5 142,-28.5"/>
<text text-anchor="middle" x="202" y="-35.5" font-family="Helvetica,sans-Serif" font-size="10.00">GPS::setGPSBAUD115</text>
</a>
</g>
</g>
<!-- Node6&#45;&gt;Node7 -->
<g id="edge7" class="edge">
<title>Node6&#45;&gt;Node7</title>
<path fill="none" stroke="midnightblue" d="M327.71,-99.74C296.88,-84.48 248.84,-60.7 222.28,-47.55"/>
<polygon fill="midnightblue" stroke="midnightblue" points="326.54,-103.07 337.06,-104.37 329.65,-96.8 326.54,-103.07"/>
</g>
<!-- Node7&#45;&gt;Node2 -->
<g id="edge15" class="edge">
<title>Node7&#45;&gt;Node2</title>
<path fill="none" stroke="midnightblue" d="M260.26,-26.56C321.36,-15.37 421.11,0 508,0 981,0 981,0 981,0 1059.72,0 1150.41,-7.31 1207.94,-12.86"/>
<polygon fill="midnightblue" stroke="midnightblue" points="259.25,-23.19 250.06,-28.46 260.53,-30.07 259.25,-23.19"/>
</g>
<!-- Node8 -->
<g id="node8" class="node">
<title>Node8</title>
<g id="a_node8"><a xlink:href="classGPS.html#a1b1c89214229f5dc8ff7e2fa9cbcad35" target="_top" xlink:title=" ">
<polygon fill="white" stroke="black" points="0,-85.5 0,-104.5 106,-104.5 106,-85.5 0,-85.5"/>
<text text-anchor="middle" x="53" y="-92.5" font-family="Helvetica,sans-Serif" font-size="10.00">GPS::handleTimeout</text>
</a>
</g>
</g>
<!-- Node7&#45;&gt;Node8 -->
<g id="edge8" class="edge">
<title>Node7&#45;&gt;Node8</title>
<path fill="none" stroke="midnightblue" d="M166.95,-51.2C139.96,-61.67 102.88,-76.05 78.68,-85.43"/>
<polygon fill="midnightblue" stroke="midnightblue" points="168.34,-54.42 176.4,-47.54 165.81,-47.89 168.34,-54.42"/>
</g>
<!-- Node8&#45;&gt;Node4 -->
<g id="edge9" class="edge">
<title>Node8&#45;&gt;Node4</title>
<path fill="none" stroke="midnightblue" d="M116.38,-88.79C177.49,-83.25 273.3,-76 356.5,-76 651,-76 651,-76 651,-76 749.74,-76 864.1,-93.2 928.36,-104.46"/>
<polygon fill="midnightblue" stroke="midnightblue" points="115.77,-85.33 106.13,-89.73 116.41,-92.3 115.77,-85.33"/>
</g>
<!-- Node8&#45;&gt;Node6 -->
<g id="edge10" class="edge">
<title>Node8&#45;&gt;Node6</title>
<path fill="none" stroke="midnightblue" d="M116.46,-98.92C169.7,-102.27 245.68,-107.04 297.82,-110.31"/>
<polygon fill="midnightblue" stroke="midnightblue" points="116.66,-95.43 106.46,-98.29 116.22,-102.41 116.66,-95.43"/>
</g>
<!-- Node8&#45;&gt;Node9 -->
<g id="edge11" class="edge">
<title>Node8&#45;&gt;Node9</title>
<path fill="none" stroke="midnightblue" d="M98.8,-107.1C112.62,-110.72 127.91,-114.63 142,-118 310.63,-158.31 512.33,-200.2 602.02,-218.49"/>
<polygon fill="midnightblue" stroke="midnightblue" points="99.59,-103.69 89.03,-104.52 97.8,-110.45 99.59,-103.69"/>
</g>
<!-- Node9&#45;&gt;Node10 -->
<g id="edge12" class="edge">
<title>Node9&#45;&gt;Node10</title>
<path fill="none" stroke="midnightblue" d="M626.28,-212.47C597.34,-192.69 548.2,-159.11 524.13,-142.66"/>
<polygon fill="midnightblue" stroke="midnightblue" points="624.68,-215.62 634.91,-218.37 628.63,-209.84 624.68,-215.62"/>
</g>
<!-- Node10&#45;&gt;Node5 -->
<g id="edge14" class="edge">
<title>Node10&#45;&gt;Node5</title>
<path fill="none" stroke="midnightblue" d="M575.51,-137.15C622.42,-140.12 685.69,-144.13 734.68,-147.23"/>
<polygon fill="midnightblue" stroke="midnightblue" points="575.66,-133.65 565.46,-136.51 575.22,-140.64 575.66,-133.65"/>
</g>
<!-- Node10&#45;&gt;Node6 -->
<g id="edge13" class="edge">
<title>Node10&#45;&gt;Node6</title>
<path fill="none" stroke="midnightblue" d="M442.8,-124.71C434.22,-123.62 425.48,-122.51 417.03,-121.44"/>
<polygon fill="midnightblue" stroke="midnightblue" points="442.39,-128.19 452.76,-125.98 443.28,-121.25 442.39,-128.19"/>
</g>
</g>
</svg>
        <g id="navigator" transform="translate(0 0)" fill="#404254">
                <rect fill="#f2f5e9" fill-opacity="0.5" stroke="#606060" stroke-width=".5" x="0" y="0" width="60" height="60"/>
                <use id="zoomplus" xlink:href="#zoomPlus" x="17" y="9" onmousedown="handleZoom(evt,'in')"/>
                <use id="zoomminus" xlink:href="#zoomMin" x="42" y="9" onmousedown="handleZoom(evt,'out')"/>
                <use id="reset" xlink:href="#resetDef" x="30" y="36" onmousedown="handleReset()"/>
                <g id="arrowUp" xlink:href="#dirArrow" transform="translate(30 24)" onmousedown="handlePan(0,-1)">
                  <use xlink:href="#rim" fill="#404040">
                        <set attributeName="fill" to="#808080" begin="arrowUp.mouseover" end="arrowUp.mouseout"/>
                  </use>
                  <path fill="none" stroke="white" stroke-width="1.5" d="M0,-3.0v7 M-2.5,-0.5L0,-3.0L2.5,-0.5"/>
                </g>
                <g id="arrowRight" xlink:href="#dirArrow" transform="rotate(90) translate(36 -43)" onmousedown="handlePan(1,0)">
                  <use xlink:href="#rim" fill="#404040">
                        <set attributeName="fill" to="#808080" begin="arrowRight.mouseover" end="arrowRight.mouseout"/>
                  </use>
                  <path fill="none" stroke="white" stroke-width="1.5" d="M0,-3.0v7 M-2.5,-0.5L0,-3.0L2.5,-0.5"/>
                </g>
                <g id="arrowDown" xlink:href="#dirArrow" transform="rotate(180) translate(-30 -48)" onmousedown="handlePan(0,1)">
                  <use xlink:href="#rim" fill="#404040">
                        <set attributeName="fill" to="#808080" begin="arrowDown.mouseover" end="arrowDown.mouseout"/>
                  </use>
                  <path fill="none" stroke="white" stroke-width="1.5" d="M0,-3.0v7 M-2.5,-0.5L0,-3.0L2.5,-0.5"/>
                </g>
                <g id="arrowLeft" xlink:href="#dirArrow" transform="rotate(270) translate(-36 17)" onmousedown="handlePan(-1,0)">
                  <use xlink:href="#rim" fill="#404040">
                        <set attributeName="fill" to="#808080" begin="arrowLeft.mouseover" end="arrowLeft.mouseout"/>
                  </use>
                  <path fill="none" stroke="white" stroke-width="1.5" d="M0,-3.0v7 M-2.5,-0.5L0,-3.0L2.5,-0.5"/>
                </g>
        </g>
        <svg viewBox="0 0 15 15" width="100%" height="30px" preserveAspectRatio="xMaxYMin meet">
         <g id="arrow_out" transform="scale(0.3 0.3)">
          <a xlink:href="classGPS_a125284d30c7901ba52ed190e519bc3b2_icgraph_org.svg" target="_base">
           <rect id="button" ry="5" rx="5" y="6" x="6" height="38" width="38"
                fill="#f2f5e9" fill-opacity="0.5" stroke="#606060" stroke-width="1.0"/>
           <path id="arrow"
             d="M 11.500037,31.436501 C 11.940474,20.09759 22.043105,11.32322 32.158766,21.979434 L 37.068811,17.246167 C 37.068811,17.246167 37.088388,32 37.088388,32 L 22.160133,31.978069 C 22.160133,31.978069 26.997745,27.140456 26.997745,27.140456 C 18.528582,18.264221 13.291696,25.230495 11.500037,31.436501 z"
             style="fill:#404040;"/>
          </a>
         </g>
        </svg>
</svg>
