<?xml version="1.0" encoding="UTF-8" standalone="no"?>
<!DOCTYPE svg PUBLIC "-//W3C//DTD SVG 1.1//EN"
 "http://www.w3.org/Graphics/SVG/1.1/DTD/svg11.dtd">
<!-- Generated by graphviz version 2.49.3 (20211027.1534)
 -->
<!-- Title: DownloadManager::append Pages: 1 -->
<!--zoomable 400 -->
<svg id="main" version="1.1" xmlns="http://www.w3.org/2000/svg" xmlns:xlink="http://www.w3.org/1999/xlink" xml:space="preserve" onload="init(evt)">
<style type="text/css"><![CDATA[
.edge:hover path { stroke: red; }
.edge:hover polygon { stroke: red; fill: red; }
]]></style>
<script type="text/javascript"><![CDATA[
var edges = document.getElementsByTagName('g');
if (edges && edges.length) {
  for (var i=0;i<edges.length;i++) {
    if (edges[i].id.substr(0,4)=='edge') {
      edges[i].setAttribute('class','edge');
    }
  }
}
]]></script>
        <defs>
                <circle id="rim" cx="0" cy="0" r="7"/>
                <circle id="rim2" cx="0" cy="0" r="3.5"/>
                <g id="zoomPlus">
                        <use xlink:href="#rim" fill="#404040">
                                <set attributeName="fill" to="#808080" begin="zoomplus.mouseover" end="zoomplus.mouseout"/>
                        </use>
                        <path d="M-4,0h8M0,-4v8" fill="none" stroke="white" stroke-width="1.5" pointer-events="none"/>
                </g>
                <g id="zoomMin">
                        <use xlink:href="#rim" fill="#404040">
                                <set attributeName="fill" to="#808080" begin="zoomminus.mouseover" end="zoomminus.mouseout"/>
                        </use>
                        <path d="M-4,0h8" fill="none" stroke="white" stroke-width="1.5" pointer-events="none"/>
                </g>
                <g id="dirArrow">
                        <path fill="none" stroke="white" stroke-width="1.5" d="M0,-3.0v7 M-2.5,-0.5L0,-3.0L2.5,-0.5"/>
                </g>
               <g id="resetDef">
                       <use xlink:href="#rim2" fill="#404040">
                               <set attributeName="fill" to="#808080" begin="reset.mouseover" end="reset.mouseout"/>
                       </use>
               </g>
        </defs>

<script type="text/javascript">
var viewWidth = 718;
var viewHeight = 400;
var sectionId = 'dynsection-3';
</script>
<script xlink:href="svgpan.js"/>
<svg id="graph" class="graph">
<g id="viewport">
<title>DownloadManager::append</title>
<polygon fill="white" stroke="transparent" points="-4,4 -4,-395.5 714,-395.5 714,4 -4,4"/>
<!-- Node1 -->
<g id="node1" class="node">
<title>Node1</title>
<g id="a_node1"><a xlink:title=" ">
<polygon fill="#bfbfbf" stroke="black" points="0,-189 0,-208 133,-208 133,-189 0,-189"/>
<text text-anchor="middle" x="66.5" y="-196" font-family="Helvetica,sans-Serif" font-size="10.00">DownloadManager::append</text>
</a>
</g>
</g>
<!-- Node2 -->
<g id="node2" class="node">
<title>Node2</title>
<g id="a_node2"><a xlink:href="classDownloadManager.html#a5b2dc25fef54a4e61b48aa2c64854450" target="_top" xlink:title=" ">
<polygon fill="white" stroke="black" points="169,-152.5 169,-182.5 310,-182.5 310,-152.5 169,-152.5"/>
<text text-anchor="start" x="177" y="-170.5" font-family="Helvetica,sans-Serif" font-size="10.00">DownloadManager::startNext</text>
<text text-anchor="middle" x="239.5" y="-159.5" font-family="Helvetica,sans-Serif" font-size="10.00">Download</text>
</a>
</g>
</g>
<!-- Node1&#45;&gt;Node2 -->
<g id="edge1" class="edge">
<title>Node1&#45;&gt;Node2</title>
<path fill="none" stroke="midnightblue" d="M120.2,-188.95C132.48,-186.72 145.82,-184.3 158.97,-181.92"/>
<polygon fill="midnightblue" stroke="midnightblue" points="159.75,-185.33 168.97,-180.1 158.51,-178.44 159.75,-185.33"/>
</g>
<!-- Node2&#45;&gt;Node2 -->
<g id="edge19" class="edge">
<title>Node2&#45;&gt;Node2</title>
<path fill="none" stroke="midnightblue" d="M209.53,-182.66C202.3,-192.06 212.29,-201 239.5,-201 256.08,-201 266.27,-197.68 270.06,-192.96"/>
<polygon fill="midnightblue" stroke="midnightblue" points="273.54,-192.44 269.47,-182.66 266.55,-192.84 273.54,-192.44"/>
</g>
<!-- Node3 -->
<g id="node3" class="node">
<title>Node3</title>
<g id="a_node3"><a xlink:href="classDownloadManager.html#a3db45b9d3b58f6e6cf7c75a263fb85ce" target="_top" xlink:title=" ">
<polygon fill="white" stroke="black" points="356.5,-250.5 356.5,-280.5 499.5,-280.5 499.5,-250.5 356.5,-250.5"/>
<text text-anchor="start" x="364.5" y="-268.5" font-family="Helvetica,sans-Serif" font-size="10.00">DownloadManager::download</text>
<text text-anchor="middle" x="428" y="-257.5" font-family="Helvetica,sans-Serif" font-size="10.00">Finished</text>
</a>
</g>
</g>
<!-- Node2&#45;&gt;Node3 -->
<g id="edge2" class="edge">
<title>Node2&#45;&gt;Node3</title>
<path fill="none" stroke="midnightblue" d="M280.05,-182.65C315.38,-199.55 366.3,-226.5 397.98,-245.2"/>
<polygon fill="midnightblue" stroke="midnightblue" points="396.39,-248.33 406.77,-250.48 400,-242.33 396.39,-248.33"/>
</g>
<!-- Node9 -->
<g id="node9" class="node">
<title>Node9</title>
<g id="a_node9"><a xlink:href="classDownloadManager.html#ac8c0eab33303a6ce3dcfddf1795cee0c" target="_top" xlink:title=" ">
<polygon fill="white" stroke="black" points="356.5,-137.5 356.5,-167.5 499.5,-167.5 499.5,-137.5 356.5,-137.5"/>
<text text-anchor="start" x="364.5" y="-155.5" font-family="Helvetica,sans-Serif" font-size="10.00">DownloadManager::download</text>
<text text-anchor="middle" x="428" y="-144.5" font-family="Helvetica,sans-Serif" font-size="10.00">Progress</text>
</a>
</g>
</g>
<!-- Node2&#45;&gt;Node9 -->
<g id="edge10" class="edge">
<title>Node2&#45;&gt;Node9</title>
<path fill="none" stroke="midnightblue" d="M310.21,-161.89C322.01,-160.94 334.35,-159.95 346.4,-158.98"/>
<polygon fill="midnightblue" stroke="midnightblue" points="346.75,-162.47 356.44,-158.17 346.19,-155.49 346.75,-162.47"/>
</g>
<!-- Node10 -->
<g id="node10" class="node">
<title>Node10</title>
<g id="a_node10"><a xlink:href="classDownloadManager.html#afe821e6eac5970b806896d1eb5abea30" target="_top" xlink:title=" ">
<polygon fill="white" stroke="black" points="549,-159.5 549,-189.5 707,-189.5 707,-159.5 549,-159.5"/>
<text text-anchor="start" x="557" y="-177.5" font-family="Helvetica,sans-Serif" font-size="10.00">DownloadManager::setDownload</text>
<text text-anchor="middle" x="628" y="-166.5" font-family="Helvetica,sans-Serif" font-size="10.00">Status</text>
</a>
</g>
</g>
<!-- Node2&#45;&gt;Node10 -->
<g id="edge18" class="edge">
<title>Node2&#45;&gt;Node10</title>
<path fill="none" stroke="midnightblue" d="M310.24,-175.05C322.15,-176.07 334.42,-176.95 346,-177.5 410.46,-180.55 483.32,-179.65 538.7,-178.06"/>
<polygon fill="midnightblue" stroke="midnightblue" points="538.94,-181.56 548.83,-177.76 538.73,-174.56 538.94,-181.56"/>
</g>
<!-- Node14 -->
<g id="node14" class="node">
<title>Node14</title>
<g id="a_node14"><a xlink:href="classDownloadManager.html#a5658efb355cf64437bf0c206e6ee0c63" target="_top" xlink:title=" ">
<polygon fill="white" stroke="black" points="356.5,-88.5 356.5,-118.5 499.5,-118.5 499.5,-88.5 356.5,-88.5"/>
<text text-anchor="start" x="364.5" y="-106.5" font-family="Helvetica,sans-Serif" font-size="10.00">DownloadManager::download</text>
<text text-anchor="middle" x="428" y="-95.5" font-family="Helvetica,sans-Serif" font-size="10.00">ReadyRead</text>
</a>
</g>
</g>
<!-- Node2&#45;&gt;Node14 -->
<g id="edge15" class="edge">
<title>Node2&#45;&gt;Node14</title>
<path fill="none" stroke="midnightblue" d="M279.9,-152.35C299.65,-144.91 323.99,-135.96 346,-128.5 352.8,-126.19 359.96,-123.86 367.08,-121.59"/>
<polygon fill="midnightblue" stroke="midnightblue" points="368.26,-124.89 376.74,-118.54 366.15,-118.21 368.26,-124.89"/>
</g>
<!-- Node15 -->
<g id="node15" class="node">
<title>Node15</title>
<g id="a_node15"><a xlink:href="classDownloadManager.html#a40a2bd7e138955b1accb75841c8dfd69" target="_top" xlink:title=" ">
<polygon fill="white" stroke="black" points="346,-50 346,-69 510,-69 510,-50 346,-50"/>
<text text-anchor="middle" x="428" y="-57" font-family="Helvetica,sans-Serif" font-size="10.00">DownloadManager::saveFileName</text>
</a>
</g>
</g>
<!-- Node2&#45;&gt;Node15 -->
<g id="edge16" class="edge">
<title>Node2&#45;&gt;Node15</title>
<path fill="none" stroke="midnightblue" d="M254.32,-152.31C273.13,-132.55 308.76,-98.35 346,-79.5 351.6,-76.67 357.62,-74.22 363.76,-72.11"/>
<polygon fill="midnightblue" stroke="midnightblue" points="364.98,-75.4 373.47,-69.06 362.88,-68.72 364.98,-75.4"/>
</g>
<!-- Node16 -->
<g id="node16" class="node">
<title>Node16</title>
<g id="a_node16"><a xlink:href="classDownloadManager.html#a3b2f0bf89f97c8c61836376328c0208d" target="_top" xlink:title=" ">
<polygon fill="white" stroke="black" points="349,-0.5 349,-30.5 507,-30.5 507,-0.5 349,-0.5"/>
<text text-anchor="start" x="357" y="-18.5" font-family="Helvetica,sans-Serif" font-size="10.00">DownloadManager::setDownload</text>
<text text-anchor="middle" x="428" y="-7.5" font-family="Helvetica,sans-Serif" font-size="10.00">Filename</text>
</a>
</g>
</g>
<!-- Node2&#45;&gt;Node16 -->
<g id="edge17" class="edge">
<title>Node2&#45;&gt;Node16</title>
<path fill="none" stroke="midnightblue" d="M249.14,-152.14C264.91,-125.46 300.94,-70.57 346,-40.5 349.06,-38.46 352.29,-36.58 355.63,-34.85"/>
<polygon fill="midnightblue" stroke="midnightblue" points="357.12,-38.02 364.69,-30.6 354.15,-31.68 357.12,-38.02"/>
</g>
<!-- Node3&#45;&gt;Node1 -->
<g id="edge3" class="edge">
<title>Node3&#45;&gt;Node1</title>
<path fill="none" stroke="midnightblue" d="M356.25,-252.31C289.96,-239.96 191.87,-221.68 128.82,-209.93"/>
<polygon fill="midnightblue" stroke="midnightblue" points="129.1,-206.42 118.63,-208.03 127.82,-213.3 129.1,-206.42"/>
</g>
<!-- Node3&#45;&gt;Node2 -->
<g id="edge9" class="edge">
<title>Node3&#45;&gt;Node2</title>
<path fill="none" stroke="midnightblue" d="M387.53,-250.39C352.23,-233.5 301.32,-206.56 269.61,-187.86"/>
<polygon fill="midnightblue" stroke="midnightblue" points="271.19,-184.72 260.81,-182.58 267.59,-190.72 271.19,-184.72"/>
</g>
<!-- Node4 -->
<g id="node4" class="node">
<title>Node4</title>
<g id="a_node4"><a xlink:href="classTextProgressBar.html#a43a19ca874afe1bca5dbe7c533bd839a" target="_top" xlink:title=" ">
<polygon fill="white" stroke="black" points="570.5,-372 570.5,-391 685.5,-391 685.5,-372 570.5,-372"/>
<text text-anchor="middle" x="628" y="-379" font-family="Helvetica,sans-Serif" font-size="10.00">TextProgressBar::clear</text>
</a>
</g>
</g>
<!-- Node3&#45;&gt;Node4 -->
<g id="edge4" class="edge">
<title>Node3&#45;&gt;Node4</title>
<path fill="none" stroke="midnightblue" d="M442.91,-280.84C463.36,-302.43 503.71,-341.48 546,-362.5 550.85,-364.91 556.02,-367.02 561.31,-368.87"/>
<polygon fill="midnightblue" stroke="midnightblue" points="560.32,-372.23 570.91,-371.93 562.44,-365.56 560.32,-372.23"/>
</g>
<!-- Node5 -->
<g id="node5" class="node">
<title>Node5</title>
<g id="a_node5"><a xlink:href="classDownloadManager.html#a9f39dbbaf6b7fe76261158273a4220ff" target="_top" xlink:title=" ">
<polygon fill="white" stroke="black" points="546,-334 546,-353 710,-353 710,-334 546,-334"/>
<text text-anchor="middle" x="628" y="-341" font-family="Helvetica,sans-Serif" font-size="10.00">DownloadManager::isHttpRedirect</text>
</a>
</g>
</g>
<!-- Node3&#45;&gt;Node5 -->
<g id="edge5" class="edge">
<title>Node3&#45;&gt;Node5</title>
<path fill="none" stroke="midnightblue" d="M454.69,-280.69C477.89,-293.86 513.29,-312.61 546,-324.5 553.08,-327.07 560.64,-329.39 568.18,-331.44"/>
<polygon fill="midnightblue" stroke="midnightblue" points="567.49,-334.88 578.05,-333.99 569.24,-328.1 567.49,-334.88"/>
</g>
<!-- Node6 -->
<g id="node6" class="node">
<title>Node6</title>
<g id="a_node6"><a xlink:href="classparsegithubData.html#ac9ecdd057c8725240858481bde768f16" target="_top" xlink:title=" ">
<polygon fill="white" stroke="black" points="550.5,-296 550.5,-315 705.5,-315 705.5,-296 550.5,-296"/>
<text text-anchor="middle" x="628" y="-303" font-family="Helvetica,sans-Serif" font-size="10.00">parsegithubData::readTrackData</text>
</a>
</g>
</g>
<!-- Node3&#45;&gt;Node6 -->
<g id="edge6" class="edge">
<title>Node3&#45;&gt;Node6</title>
<path fill="none" stroke="midnightblue" d="M499.64,-279.77C522.76,-284.44 548.13,-289.57 570.09,-294"/>
<polygon fill="midnightblue" stroke="midnightblue" points="569.43,-297.44 579.93,-295.99 570.82,-290.58 569.43,-297.44"/>
</g>
<!-- Node7 -->
<g id="node7" class="node">
<title>Node7</title>
<g id="a_node7"><a xlink:href="classDownloadManager.html#ad61fdaf56f156496613a587a873e06ff" target="_top" xlink:title=" ">
<polygon fill="white" stroke="black" points="547,-258 547,-277 709,-277 709,-258 547,-258"/>
<text text-anchor="middle" x="628" y="-265" font-family="Helvetica,sans-Serif" font-size="10.00">DownloadManager::reportRedirect</text>
</a>
</g>
</g>
<!-- Node3&#45;&gt;Node7 -->
<g id="edge7" class="edge">
<title>Node3&#45;&gt;Node7</title>
<path fill="none" stroke="midnightblue" d="M499.64,-266.21C511.62,-266.33 524.2,-266.46 536.59,-266.59"/>
<polygon fill="midnightblue" stroke="midnightblue" points="536.91,-270.09 546.95,-266.69 536.98,-263.09 536.91,-270.09"/>
</g>
<!-- Node8 -->
<g id="node8" class="node">
<title>Node8</title>
<g id="a_node8"><a xlink:href="classparsegithubData.html#aed9c8ad9cf0369639fc5d26577351f3e" target="_top" xlink:title=" ">
<polygon fill="white" stroke="black" points="547.5,-208.5 547.5,-238.5 708.5,-238.5 708.5,-208.5 547.5,-208.5"/>
<text text-anchor="start" x="555.5" y="-226.5" font-family="Helvetica,sans-Serif" font-size="10.00">parsegithubData::sortDownloaded</text>
<text text-anchor="middle" x="628" y="-215.5" font-family="Helvetica,sans-Serif" font-size="10.00">Files</text>
</a>
</g>
</g>
<!-- Node3&#45;&gt;Node8 -->
<g id="edge8" class="edge">
<title>Node3&#45;&gt;Node8</title>
<path fill="none" stroke="midnightblue" d="M499.64,-250.51C514.68,-247.33 530.66,-243.94 546.04,-240.67"/>
<polygon fill="midnightblue" stroke="midnightblue" points="546.99,-244.05 556.05,-238.55 545.54,-237.2 546.99,-244.05"/>
</g>
<!-- Node9&#45;&gt;Node10 -->
<g id="edge11" class="edge">
<title>Node9&#45;&gt;Node10</title>
<path fill="none" stroke="midnightblue" d="M499.64,-160.35C512.39,-161.77 525.82,-163.26 538.98,-164.72"/>
<polygon fill="midnightblue" stroke="midnightblue" points="538.66,-168.21 548.98,-165.83 539.43,-161.25 538.66,-168.21"/>
</g>
<!-- Node11 -->
<g id="node11" class="node">
<title>Node11</title>
<g id="a_node11"><a xlink:href="classTextProgressBar.html#ae4980260298075636a679d8674aaecc8" target="_top" xlink:title=" ">
<polygon fill="white" stroke="black" points="554.5,-121 554.5,-140 701.5,-140 701.5,-121 554.5,-121"/>
<text text-anchor="middle" x="628" y="-128" font-family="Helvetica,sans-Serif" font-size="10.00">TextProgressBar::setMessage</text>
</a>
</g>
</g>
<!-- Node9&#45;&gt;Node11 -->
<g id="edge12" class="edge">
<title>Node9&#45;&gt;Node11</title>
<path fill="none" stroke="midnightblue" d="M499.64,-144.65C514.08,-143.05 529.4,-141.34 544.22,-139.7"/>
<polygon fill="midnightblue" stroke="midnightblue" points="544.83,-143.15 554.38,-138.57 544.05,-136.19 544.83,-143.15"/>
</g>
<!-- Node12 -->
<g id="node12" class="node">
<title>Node12</title>
<g id="a_node12"><a xlink:href="classTextProgressBar.html#a49dcb117820c89bc02b92b1386648bfb" target="_top" xlink:title=" ">
<polygon fill="white" stroke="black" points="560,-83 560,-102 696,-102 696,-83 560,-83"/>
<text text-anchor="middle" x="628" y="-90" font-family="Helvetica,sans-Serif" font-size="10.00">TextProgressBar::setStatus</text>
</a>
</g>
</g>
<!-- Node9&#45;&gt;Node12 -->
<g id="edge13" class="edge">
<title>Node9&#45;&gt;Node12</title>
<path fill="none" stroke="midnightblue" d="M483.85,-137.49C492.67,-134.72 501.64,-131.69 510,-128.5 526.53,-122.19 529.29,-117.33 546,-111.5 553.38,-108.92 561.27,-106.59 569.11,-104.5"/>
<polygon fill="midnightblue" stroke="midnightblue" points="570.14,-107.85 578.98,-102 568.42,-101.07 570.14,-107.85"/>
</g>
<!-- Node13 -->
<g id="node13" class="node">
<title>Node13</title>
<g id="a_node13"><a xlink:href="classTextProgressBar.html#a1484eaa6c18381dccc0470db1fb4263d" target="_top" xlink:title=" ">
<polygon fill="white" stroke="black" points="566.5,-45 566.5,-64 689.5,-64 689.5,-45 566.5,-45"/>
<text text-anchor="middle" x="628" y="-52" font-family="Helvetica,sans-Serif" font-size="10.00">TextProgressBar::update</text>
</a>
</g>
</g>
<!-- Node9&#45;&gt;Node13 -->
<g id="edge14" class="edge">
<title>Node9&#45;&gt;Node13</title>
<path fill="none" stroke="midnightblue" d="M495.04,-137.36C500.34,-134.85 505.41,-131.91 510,-128.5 533.44,-111.06 522.07,-90.26 546,-73.5 549.46,-71.08 553.19,-68.96 557.08,-67.11"/>
<polygon fill="midnightblue" stroke="midnightblue" points="558.48,-70.31 566.39,-63.26 555.81,-63.85 558.48,-70.31"/>
</g>
</g>
</svg>
        <g id="navigator" transform="translate(0 0)" fill="#404254">
                <rect fill="#f2f5e9" fill-opacity="0.5" stroke="#606060" stroke-width=".5" x="0" y="0" width="60" height="60"/>
                <use id="zoomplus" xlink:href="#zoomPlus" x="17" y="9" onmousedown="handleZoom(evt,'in')"/>
                <use id="zoomminus" xlink:href="#zoomMin" x="42" y="9" onmousedown="handleZoom(evt,'out')"/>
                <use id="reset" xlink:href="#resetDef" x="30" y="36" onmousedown="handleReset()"/>
                <g id="arrowUp" xlink:href="#dirArrow" transform="translate(30 24)" onmousedown="handlePan(0,-1)">
                  <use xlink:href="#rim" fill="#404040">
                        <set attributeName="fill" to="#808080" begin="arrowUp.mouseover" end="arrowUp.mouseout"/>
                  </use>
                  <path fill="none" stroke="white" stroke-width="1.5" d="M0,-3.0v7 M-2.5,-0.5L0,-3.0L2.5,-0.5"/>
                </g>
                <g id="arrowRight" xlink:href="#dirArrow" transform="rotate(90) translate(36 -43)" onmousedown="handlePan(1,0)">
                  <use xlink:href="#rim" fill="#404040">
                        <set attributeName="fill" to="#808080" begin="arrowRight.mouseover" end="arrowRight.mouseout"/>
                  </use>
                  <path fill="none" stroke="white" stroke-width="1.5" d="M0,-3.0v7 M-2.5,-0.5L0,-3.0L2.5,-0.5"/>
                </g>
                <g id="arrowDown" xlink:href="#dirArrow" transform="rotate(180) translate(-30 -48)" onmousedown="handlePan(0,1)">
                  <use xlink:href="#rim" fill="#404040">
                        <set attributeName="fill" to="#808080" begin="arrowDown.mouseover" end="arrowDown.mouseout"/>
                  </use>
                  <path fill="none" stroke="white" stroke-width="1.5" d="M0,-3.0v7 M-2.5,-0.5L0,-3.0L2.5,-0.5"/>
                </g>
                <g id="arrowLeft" xlink:href="#dirArrow" transform="rotate(270) translate(-36 17)" onmousedown="handlePan(-1,0)">
                  <use xlink:href="#rim" fill="#404040">
                        <set attributeName="fill" to="#808080" begin="arrowLeft.mouseover" end="arrowLeft.mouseout"/>
                  </use>
                  <path fill="none" stroke="white" stroke-width="1.5" d="M0,-3.0v7 M-2.5,-0.5L0,-3.0L2.5,-0.5"/>
                </g>
        </g>
        <svg viewBox="0 0 15 15" width="100%" height="30px" preserveAspectRatio="xMaxYMin meet">
         <g id="arrow_out" transform="scale(0.3 0.3)">
          <a xlink:href="classDownloadManager_afa2ecdfa2483d265db87682234f817e5_cgraph_org.svg" target="_base">
           <rect id="button" ry="5" rx="5" y="6" x="6" height="38" width="38"
                fill="#f2f5e9" fill-opacity="0.5" stroke="#606060" stroke-width="1.0"/>
           <path id="arrow"
             d="M 11.500037,31.436501 C 11.940474,20.09759 22.043105,11.32322 32.158766,21.979434 L 37.068811,17.246167 C 37.068811,17.246167 37.088388,32 37.088388,32 L 22.160133,31.978069 C 22.160133,31.978069 26.997745,27.140456 26.997745,27.140456 C 18.528582,18.264221 13.291696,25.230495 11.500037,31.436501 z"
             style="fill:#404040;"/>
          </a>
         </g>
        </svg>
</svg>
