<?xml version="1.0" encoding="UTF-8" standalone="no"?>
<!DOCTYPE svg PUBLIC "-//W3C//DTD SVG 1.1//EN"
 "http://www.w3.org/Graphics/SVG/1.1/DTD/svg11.dtd">
<!-- Generated by graphviz version 2.49.3 (20211027.1534)
 -->
<!-- Title: GPS::logNMEA Pages: 1 -->
<svg width="1453pt" height="246pt"
 viewBox="0.00 0.00 1453.00 246.00" xmlns="http://www.w3.org/2000/svg" xmlns:xlink="http://www.w3.org/1999/xlink">
<g id="graph0" class="graph" transform="scale(1 1) rotate(0) translate(4 242)">
<title>GPS::logNMEA</title>
<polygon fill="white" stroke="transparent" points="-4,4 -4,-242 1449,-242 1449,4 -4,4"/>
<!-- Node1 -->
<g id="node1" class="node">
<title>Node1</title>
<g id="a_node1"><a xlink:title=" ">
<polygon fill="#bfbfbf" stroke="black" points="1362,-9.5 1362,-28.5 1445,-28.5 1445,-9.5 1362,-9.5"/>
<text text-anchor="middle" x="1403.5" y="-16.5" font-family="Helvetica,sans-Serif" font-size="10.00">GPS::logNMEA</text>
</a>
</g>
</g>
<!-- Node2 -->
<g id="node2" class="node">
<title>Node2</title>
<g id="a_node2"><a xlink:href="classGPS.html#a217097ae4a846c621f001a5aa1f4fb4f" target="_top" xlink:title=" ">
<polygon fill="white" stroke="black" points="1208,-9.5 1208,-28.5 1326,-28.5 1326,-9.5 1208,-9.5"/>
<text text-anchor="middle" x="1267" y="-16.5" font-family="Helvetica,sans-Serif" font-size="10.00">GPS::ProcessMessage</text>
</a>
</g>
</g>
<!-- Node1&#45;&gt;Node2 -->
<g id="edge1" class="edge">
<title>Node1&#45;&gt;Node2</title>
<path fill="none" stroke="midnightblue" d="M1351.6,-19C1343.38,-19 1334.82,-19 1326.44,-19"/>
<polygon fill="midnightblue" stroke="midnightblue" points="1351.78,-22.5 1361.78,-19 1351.78,-15.5 1351.78,-22.5"/>
</g>
<!-- Node3 -->
<g id="node3" class="node">
<title>Node3</title>
<g id="a_node3"><a xlink:href="classGPS.html#aa0928d156961a54bf06d9b5210d85561" target="_top" xlink:title=" ">
<polygon fill="white" stroke="black" points="1073,-66.5 1073,-85.5 1172,-85.5 1172,-66.5 1073,-66.5"/>
<text text-anchor="middle" x="1122.5" y="-73.5" font-family="Helvetica,sans-Serif" font-size="10.00">GPS::readyToRead</text>
</a>
</g>
</g>
<!-- Node2&#45;&gt;Node3 -->
<g id="edge2" class="edge">
<title>Node2&#45;&gt;Node3</title>
<path fill="none" stroke="midnightblue" d="M1232.65,-32.34C1206.51,-42.8 1170.78,-57.09 1147.43,-66.43"/>
<polygon fill="midnightblue" stroke="midnightblue" points="1234.16,-35.5 1242.15,-28.54 1231.56,-29 1234.16,-35.5"/>
</g>
<!-- Node4 -->
<g id="node4" class="node">
<title>Node4</title>
<g id="a_node4"><a xlink:href="classGPS.html#ae4568ef4d5107c96c1af68d1abd33559" target="_top" xlink:title=" ">
<polygon fill="white" stroke="black" points="923,-104.5 923,-123.5 1037,-123.5 1037,-104.5 923,-104.5"/>
<text text-anchor="middle" x="980" y="-111.5" font-family="Helvetica,sans-Serif" font-size="10.00">GPS::closeConnection</text>
</a>
</g>
</g>
<!-- Node3&#45;&gt;Node4 -->
<g id="edge3" class="edge">
<title>Node3&#45;&gt;Node4</title>
<path fill="none" stroke="midnightblue" d="M1076.22,-88.25C1056.86,-93.48 1034.58,-99.51 1016.44,-104.41"/>
<polygon fill="midnightblue" stroke="midnightblue" points="1077.31,-91.58 1086.05,-85.59 1075.48,-84.82 1077.31,-91.58"/>
</g>
<!-- Node6 -->
<g id="node6" class="node">
<title>Node6</title>
<g id="a_node6"><a xlink:href="classGPS.html#a8775edfa08840ffb2647e0e5ba031fe5" target="_top" xlink:title=" ">
<polygon fill="white" stroke="black" points="298,-104.5 298,-123.5 417,-123.5 417,-104.5 298,-104.5"/>
<text text-anchor="middle" x="357.5" y="-111.5" font-family="Helvetica,sans-Serif" font-size="10.00">GPS::closeConnection1</text>
</a>
</g>
</g>
<!-- Node3&#45;&gt;Node6 -->
<g id="edge18" class="edge">
<title>Node3&#45;&gt;Node6</title>
<path fill="none" stroke="midnightblue" d="M1063.77,-64.63C1001.79,-53.44 900.33,-38 812,-38 812,-38 812,-38 649,-38 545.26,-38 427.26,-83.92 379.86,-104.37"/>
<polygon fill="midnightblue" stroke="midnightblue" points="1063.27,-68.1 1073.74,-66.46 1064.53,-61.22 1063.27,-68.1"/>
</g>
<!-- Node9 -->
<g id="node9" class="node">
<title>Node9</title>
<g id="a_node9"><a xlink:href="classGPS.html#ac2a7572afb184df9c14ae913f17306bf" target="_top" xlink:title=" ">
<polygon fill="white" stroke="black" points="601,-218.5 601,-237.5 699,-237.5 699,-218.5 601,-218.5"/>
<text text-anchor="middle" x="650" y="-225.5" font-family="Helvetica,sans-Serif" font-size="10.00">GPS::initSerialPort</text>
</a>
</g>
</g>
<!-- Node3&#45;&gt;Node9 -->
<g id="edge19" class="edge">
<title>Node3&#45;&gt;Node9</title>
<path fill="none" stroke="midnightblue" d="M1101.72,-92.25C1085.3,-105 1060.85,-122.33 1037,-133 921.72,-184.59 774.01,-210.97 699.14,-221.82"/>
<polygon fill="midnightblue" stroke="midnightblue" points="1104.31,-94.67 1109.96,-85.71 1099.96,-89.18 1104.31,-94.67"/>
</g>
<!-- Node5 -->
<g id="node5" class="node">
<title>Node5</title>
<g id="a_node5"><a xlink:href="classGPS.html#aaf69fb801bbce2ea70041e68fe0ec19a" target="_top" xlink:title=" ">
<polygon fill="white" stroke="black" points="735,-142.5 735,-161.5 887,-161.5 887,-142.5 735,-142.5"/>
<text text-anchor="middle" x="811" y="-149.5" font-family="Helvetica,sans-Serif" font-size="10.00">GPS::handleReconnectTimeout</text>
</a>
</g>
</g>
<!-- Node4&#45;&gt;Node5 -->
<g id="edge4" class="edge">
<title>Node4&#45;&gt;Node5</title>
<path fill="none" stroke="midnightblue" d="M913.05,-122.39C884.73,-128.4 853.59,-136.12 833.47,-142.42"/>
<polygon fill="midnightblue" stroke="midnightblue" points="913.85,-125.8 922.93,-120.34 912.42,-118.95 913.85,-125.8"/>
</g>
<!-- Node10 -->
<g id="node10" class="node">
<title>Node10</title>
<g id="a_node10"><a xlink:href="classGPS.html#a51eaea2422dd980ea0a6d28f12a136de" target="_top" xlink:title=" ">
<polygon fill="white" stroke="black" points="453,-123.5 453,-142.5 565,-142.5 565,-123.5 453,-123.5"/>
<text text-anchor="middle" x="509" y="-130.5" font-family="Helvetica,sans-Serif" font-size="10.00">GPS::openConnection</text>
</a>
</g>
</g>
<!-- Node4&#45;&gt;Node10 -->
<g id="edge17" class="edge">
<title>Node4&#45;&gt;Node10</title>
<path fill="none" stroke="midnightblue" d="M912.74,-116.68C819.62,-120.46 651.74,-127.26 565.08,-130.77"/>
<polygon fill="midnightblue" stroke="midnightblue" points="913.04,-120.17 922.89,-116.27 912.76,-113.18 913.04,-120.17"/>
</g>
<!-- Node5&#45;&gt;Node4 -->
<g id="edge5" class="edge">
<title>Node5&#45;&gt;Node4</title>
<path fill="none" stroke="midnightblue" d="M893.13,-140.29C916.91,-134.92 940.94,-128.77 957.51,-123.59"/>
<polygon fill="midnightblue" stroke="midnightblue" points="892.35,-136.88 883.34,-142.45 893.86,-143.71 892.35,-136.88"/>
</g>
<!-- Node5&#45;&gt;Node6 -->
<g id="edge6" class="edge">
<title>Node5&#45;&gt;Node6</title>
<path fill="none" stroke="midnightblue" d="M724.88,-161.48C651.95,-167.36 544.49,-170.67 453,-152 425.28,-146.34 395.29,-132.91 376.71,-123.64"/>
<polygon fill="midnightblue" stroke="midnightblue" points="725.27,-164.96 734.94,-160.64 724.68,-157.99 725.27,-164.96"/>
</g>
<!-- Node5&#45;&gt;Node9 -->
<g id="edge16" class="edge">
<title>Node5&#45;&gt;Node9</title>
<path fill="none" stroke="midnightblue" d="M780.59,-166.06C748.68,-181.31 698.6,-205.25 670.97,-218.45"/>
<polygon fill="midnightblue" stroke="midnightblue" points="782.35,-169.1 789.86,-161.63 779.33,-162.78 782.35,-169.1"/>
</g>
<!-- Node7 -->
<g id="node7" class="node">
<title>Node7</title>
<g id="a_node7"><a xlink:href="classGPS.html#abd750ada6a7b976f72761ce16246ccf6" target="_top" xlink:title=" ">
<polygon fill="white" stroke="black" points="142,-28.5 142,-47.5 262,-47.5 262,-28.5 142,-28.5"/>
<text text-anchor="middle" x="202" y="-35.5" font-family="Helvetica,sans-Serif" font-size="10.00">GPS::setGPSBAUD115</text>
</a>
</g>
</g>
<!-- Node6&#45;&gt;Node7 -->
<g id="edge7" class="edge">
<title>Node6&#45;&gt;Node7</title>
<path fill="none" stroke="midnightblue" d="M327.71,-99.74C296.88,-84.48 248.84,-60.7 222.28,-47.55"/>
<polygon fill="midnightblue" stroke="midnightblue" points="326.54,-103.07 337.06,-104.37 329.65,-96.8 326.54,-103.07"/>
</g>
<!-- Node7&#45;&gt;Node2 -->
<g id="edge15" class="edge">
<title>Node7&#45;&gt;Node2</title>
<path fill="none" stroke="midnightblue" d="M260.26,-26.56C321.36,-15.37 421.11,0 508,0 981,0 981,0 981,0 1059.72,0 1150.41,-7.31 1207.94,-12.86"/>
<polygon fill="midnightblue" stroke="midnightblue" points="259.25,-23.19 250.06,-28.46 260.53,-30.07 259.25,-23.19"/>
</g>
<!-- Node8 -->
<g id="node8" class="node">
<title>Node8</title>
<g id="a_node8"><a xlink:href="classGPS.html#a1b1c89214229f5dc8ff7e2fa9cbcad35" target="_top" xlink:title=" ">
<polygon fill="white" stroke="black" points="0,-85.5 0,-104.5 106,-104.5 106,-85.5 0,-85.5"/>
<text text-anchor="middle" x="53" y="-92.5" font-family="Helvetica,sans-Serif" font-size="10.00">GPS::handleTimeout</text>
</a>
</g>
</g>
<!-- Node7&#45;&gt;Node8 -->
<g id="edge8" class="edge">
<title>Node7&#45;&gt;Node8</title>
<path fill="none" stroke="midnightblue" d="M166.95,-51.2C139.96,-61.67 102.88,-76.05 78.68,-85.43"/>
<polygon fill="midnightblue" stroke="midnightblue" points="168.34,-54.42 176.4,-47.54 165.81,-47.89 168.34,-54.42"/>
</g>
<!-- Node8&#45;&gt;Node4 -->
<g id="edge9" class="edge">
<title>Node8&#45;&gt;Node4</title>
<path fill="none" stroke="midnightblue" d="M116.38,-88.79C177.49,-83.25 273.3,-76 356.5,-76 651,-76 651,-76 651,-76 749.74,-76 864.1,-93.2 928.36,-104.46"/>
<polygon fill="midnightblue" stroke="midnightblue" points="115.77,-85.33 106.13,-89.73 116.41,-92.3 115.77,-85.33"/>
</g>
<!-- Node8&#45;&gt;Node6 -->
<g id="edge10" class="edge">
<title>Node8&#45;&gt;Node6</title>
<path fill="none" stroke="midnightblue" d="M116.46,-98.92C169.7,-102.27 245.68,-107.04 297.82,-110.31"/>
<polygon fill="midnightblue" stroke="midnightblue" points="116.66,-95.43 106.46,-98.29 116.22,-102.41 116.66,-95.43"/>
</g>
<!-- Node8&#45;&gt;Node9 -->
<g id="edge11" class="edge">
<title>Node8&#45;&gt;Node9</title>
<path fill="none" stroke="midnightblue" d="M98.8,-107.1C112.62,-110.72 127.91,-114.63 142,-118 310.63,-158.31 512.33,-200.2 602.02,-218.49"/>
<polygon fill="midnightblue" stroke="midnightblue" points="99.59,-103.69 89.03,-104.52 97.8,-110.45 99.59,-103.69"/>
</g>
<!-- Node9&#45;&gt;Node10 -->
<g id="edge12" class="edge">
<title>Node9&#45;&gt;Node10</title>
<path fill="none" stroke="midnightblue" d="M626.28,-212.47C597.34,-192.69 548.2,-159.11 524.13,-142.66"/>
<polygon fill="midnightblue" stroke="midnightblue" points="624.68,-215.62 634.91,-218.37 628.63,-209.84 624.68,-215.62"/>
</g>
<!-- Node10&#45;&gt;Node5 -->
<g id="edge14" class="edge">
<title>Node10&#45;&gt;Node5</title>
<path fill="none" stroke="midnightblue" d="M575.51,-137.15C622.42,-140.12 685.69,-144.13 734.68,-147.23"/>
<polygon fill="midnightblue" stroke="midnightblue" points="575.66,-133.65 565.46,-136.51 575.22,-140.64 575.66,-133.65"/>
</g>
<!-- Node10&#45;&gt;Node6 -->
<g id="edge13" class="edge">
<title>Node10&#45;&gt;Node6</title>
<path fill="none" stroke="midnightblue" d="M442.8,-124.71C434.22,-123.62 425.48,-122.51 417.03,-121.44"/>
<polygon fill="midnightblue" stroke="midnightblue" points="442.39,-128.19 452.76,-125.98 443.28,-121.25 442.39,-128.19"/>
</g>
</g>
</svg>
