<?xml version="1.0" encoding="UTF-8" standalone="no"?>
<!DOCTYPE svg PUBLIC "-//W3C//DTD SVG 1.1//EN"
 "http://www.w3.org/Graphics/SVG/1.1/DTD/svg11.dtd">
<!-- Generated by graphviz version 2.49.3 (20211027.1534)
 -->
<!-- Title: calculations::calculate Pages: 1 -->
<svg width="372pt" height="712pt"
 viewBox="0.00 0.00 372.00 712.00" xmlns="http://www.w3.org/2000/svg" xmlns:xlink="http://www.w3.org/1999/xlink">
<g id="graph0" class="graph" transform="scale(1 1) rotate(0) translate(4 708)">
<title>calculations::calculate</title>
<polygon fill="white" stroke="transparent" points="-4,4 -4,-708 368,-708 368,4 -4,4"/>
<!-- Node1 -->
<g id="node1" class="node">
<title>Node1</title>
<g id="a_node1"><a xlink:title=" ">
<polygon fill="#bfbfbf" stroke="black" points="0,-342.5 0,-361.5 112,-361.5 112,-342.5 0,-342.5"/>
<text text-anchor="middle" x="56" y="-349.5" font-family="Helvetica,sans-Serif" font-size="10.00">calculations::calculate</text>
</a>
</g>
</g>
<!-- Node2 -->
<g id="node2" class="node">
<title>Node2</title>
<g id="a_node2"><a xlink:href="classDashBoard.html#a6ad32cc4ad36add612d02f113e040548" target="_top" xlink:title=" ">
<polygon fill="white" stroke="black" points="182,-684.5 182,-703.5 330,-703.5 330,-684.5 182,-684.5"/>
<text text-anchor="middle" x="256" y="-691.5" font-family="Helvetica,sans-Serif" font-size="10.00">DashBoard::seteightmilespeed</text>
</a>
</g>
</g>
<!-- Node1&#45;&gt;Node2 -->
<g id="edge1" class="edge">
<title>Node1&#45;&gt;Node2</title>
<path fill="none" stroke="midnightblue" d="M58.35,-361.79C65.35,-410.98 98.99,-630.61 148,-675 154.93,-681.28 163.19,-685.84 172,-689.11"/>
<polygon fill="midnightblue" stroke="midnightblue" points="171.16,-692.51 181.75,-692.17 173.26,-685.83 171.16,-692.51"/>
</g>
<!-- Node3 -->
<g id="node3" class="node">
<title>Node3</title>
<g id="a_node3"><a xlink:href="classDashBoard.html#a9ab612fc225c8eff35b9d417055a8a01" target="_top" xlink:title=" ">
<polygon fill="white" stroke="black" points="186,-646.5 186,-665.5 326,-665.5 326,-646.5 186,-646.5"/>
<text text-anchor="middle" x="256" y="-653.5" font-family="Helvetica,sans-Serif" font-size="10.00">DashBoard::seteightmiletime</text>
</a>
</g>
</g>
<!-- Node1&#45;&gt;Node3 -->
<g id="edge2" class="edge">
<title>Node1&#45;&gt;Node3</title>
<path fill="none" stroke="midnightblue" d="M56.8,-361.73C56.51,-402.51 61.22,-561.08 148,-637 156.02,-644.01 165.7,-648.86 175.93,-652.15"/>
<polygon fill="midnightblue" stroke="midnightblue" points="175.3,-655.6 185.86,-654.85 177.13,-648.85 175.3,-655.6"/>
</g>
<!-- Node4 -->
<g id="node4" class="node">
<title>Node4</title>
<g id="a_node4"><a xlink:href="classDashBoard.html#a252d3501e8dbdbdfdbd66d2f7ea8d2bd" target="_top" xlink:title=" ">
<polygon fill="white" stroke="black" points="204,-608.5 204,-627.5 308,-627.5 308,-608.5 204,-608.5"/>
<text text-anchor="middle" x="256" y="-615.5" font-family="Helvetica,sans-Serif" font-size="10.00">DashBoard::setGear</text>
</a>
</g>
</g>
<!-- Node1&#45;&gt;Node4 -->
<g id="edge3" class="edge">
<title>Node1&#45;&gt;Node4</title>
<path fill="none" stroke="midnightblue" d="M57.33,-361.71C59.16,-399.06 71.07,-534.63 148,-599 160.76,-609.68 177.43,-615.25 193.8,-617.98"/>
<polygon fill="midnightblue" stroke="midnightblue" points="193.54,-621.47 203.91,-619.32 194.46,-614.53 193.54,-621.47"/>
</g>
<!-- Node5 -->
<g id="node5" class="node">
<title>Node5</title>
<g id="a_node5"><a xlink:href="classDashBoard.html#a48688ee84ca4f64ad302c0ff98317649" target="_top" xlink:title=" ">
<polygon fill="white" stroke="black" points="180,-570.5 180,-589.5 332,-589.5 332,-570.5 180,-570.5"/>
<text text-anchor="middle" x="256" y="-577.5" font-family="Helvetica,sans-Serif" font-size="10.00">DashBoard::setGearCalculation</text>
</a>
</g>
</g>
<!-- Node1&#45;&gt;Node5 -->
<g id="edge4" class="edge">
<title>Node1&#45;&gt;Node5</title>
<path fill="none" stroke="midnightblue" d="M58.06,-361.84C62.24,-395.66 80.89,-508.05 148,-561 154.65,-566.25 162.27,-570.24 170.3,-573.26"/>
<polygon fill="midnightblue" stroke="midnightblue" points="169.29,-576.61 179.89,-576.36 171.45,-569.95 169.29,-576.61"/>
</g>
<!-- Node6 -->
<g id="node6" class="node">
<title>Node6</title>
<g id="a_node6"><a xlink:href="classDashBoard.html#ad5b27eaba7981c8306f82e82747f94c0" target="_top" xlink:title=" ">
<polygon fill="white" stroke="black" points="159,-532.5 159,-551.5 353,-551.5 353,-532.5 159,-532.5"/>
<text text-anchor="middle" x="256" y="-539.5" font-family="Helvetica,sans-Serif" font-size="10.00">DashBoard::sethundredtotwohundredtime</text>
</a>
</g>
</g>
<!-- Node1&#45;&gt;Node6 -->
<g id="edge5" class="edge">
<title>Node1&#45;&gt;Node6</title>
<path fill="none" stroke="midnightblue" d="M59.03,-361.7C65.77,-391.32 90.34,-481.07 148,-523 150.51,-524.83 153.15,-526.5 155.87,-528.03"/>
<polygon fill="midnightblue" stroke="midnightblue" points="154.34,-531.17 164.87,-532.43 157.42,-524.89 154.34,-531.17"/>
</g>
<!-- Node7 -->
<g id="node7" class="node">
<title>Node7</title>
<g id="a_node7"><a xlink:href="classDashBoard.html#af9e7386167d831b5fc637554a5f8e47a" target="_top" xlink:title=" ">
<polygon fill="white" stroke="black" points="205.5,-494.5 205.5,-513.5 306.5,-513.5 306.5,-494.5 205.5,-494.5"/>
<text text-anchor="middle" x="256" y="-501.5" font-family="Helvetica,sans-Serif" font-size="10.00">DashBoard::setOdo</text>
</a>
</g>
</g>
<!-- Node1&#45;&gt;Node7 -->
<g id="edge6" class="edge">
<title>Node1&#45;&gt;Node7</title>
<path fill="none" stroke="midnightblue" d="M60.52,-361.66C70.16,-386.67 99.58,-453.74 148,-485 161.98,-494.02 179.03,-499.09 195.37,-501.84"/>
<polygon fill="midnightblue" stroke="midnightblue" points="195.02,-505.33 205.42,-503.28 196.01,-498.4 195.02,-505.33"/>
</g>
<!-- Node8 -->
<g id="node8" class="node">
<title>Node8</title>
<g id="a_node8"><a xlink:href="classDashBoard.html#a6819aee7d895ad987fdc813811fd789a" target="_top" xlink:title=" ">
<polygon fill="white" stroke="black" points="201,-456.5 201,-475.5 311,-475.5 311,-456.5 201,-456.5"/>
<text text-anchor="middle" x="256" y="-463.5" font-family="Helvetica,sans-Serif" font-size="10.00">DashBoard::setPower</text>
</a>
</g>
</g>
<!-- Node1&#45;&gt;Node8 -->
<g id="edge7" class="edge">
<title>Node1&#45;&gt;Node8</title>
<path fill="none" stroke="midnightblue" d="M63.15,-361.73C76.16,-381.41 108.53,-425.88 148,-447 161.04,-453.98 176.13,-458.47 190.79,-461.33"/>
<polygon fill="midnightblue" stroke="midnightblue" points="190.39,-464.81 200.84,-463.07 191.59,-457.92 190.39,-464.81"/>
</g>
<!-- Node9 -->
<g id="node9" class="node">
<title>Node9</title>
<g id="a_node9"><a xlink:href="classDashBoard.html#a40729a5446cd7007ab12c9b9416b6f9f" target="_top" xlink:title=" ">
<polygon fill="white" stroke="black" points="177.5,-418.5 177.5,-437.5 334.5,-437.5 334.5,-418.5 177.5,-418.5"/>
<text text-anchor="middle" x="256" y="-425.5" font-family="Helvetica,sans-Serif" font-size="10.00">DashBoard::setquartermilespeed</text>
</a>
</g>
</g>
<!-- Node1&#45;&gt;Node9 -->
<g id="edge8" class="edge">
<title>Node1&#45;&gt;Node9</title>
<path fill="none" stroke="midnightblue" d="M68.85,-361.55C85.49,-374.43 117.21,-397.14 148,-409 155.12,-411.74 162.66,-414.09 170.31,-416.1"/>
<polygon fill="midnightblue" stroke="midnightblue" points="169.48,-419.51 180.03,-418.48 171.14,-412.71 169.48,-419.51"/>
</g>
<!-- Node10 -->
<g id="node10" class="node">
<title>Node10</title>
<g id="a_node10"><a xlink:href="classDashBoard.html#a44b92f3554fe8ad70e1d515c2b0ddd33" target="_top" xlink:title=" ">
<polygon fill="white" stroke="black" points="181.5,-380.5 181.5,-399.5 330.5,-399.5 330.5,-380.5 181.5,-380.5"/>
<text text-anchor="middle" x="256" y="-387.5" font-family="Helvetica,sans-Serif" font-size="10.00">DashBoard::setquartermiletime</text>
</a>
</g>
</g>
<!-- Node1&#45;&gt;Node10 -->
<g id="edge9" class="edge">
<title>Node1&#45;&gt;Node10</title>
<path fill="none" stroke="midnightblue" d="M101.38,-361.55C116.19,-364.66 132.79,-368.06 148,-371 161.42,-373.59 175.8,-376.24 189.54,-378.7"/>
<polygon fill="midnightblue" stroke="midnightblue" points="188.95,-382.15 199.41,-380.46 190.17,-375.26 188.95,-382.15"/>
</g>
<!-- Node11 -->
<g id="node11" class="node">
<title>Node11</title>
<g id="a_node11"><a xlink:href="classDashBoard.html#af7d691d9a394e601b8e87e0a3069f6ec" target="_top" xlink:title=" ">
<polygon fill="white" stroke="black" points="183.5,-342.5 183.5,-361.5 328.5,-361.5 328.5,-342.5 183.5,-342.5"/>
<text text-anchor="middle" x="256" y="-349.5" font-family="Helvetica,sans-Serif" font-size="10.00">DashBoard::setsixtyfootspeed</text>
</a>
</g>
</g>
<!-- Node1&#45;&gt;Node11 -->
<g id="edge10" class="edge">
<title>Node1&#45;&gt;Node11</title>
<path fill="none" stroke="midnightblue" d="M112.15,-352C131.13,-352 152.81,-352 173.44,-352"/>
<polygon fill="midnightblue" stroke="midnightblue" points="173.46,-355.5 183.46,-352 173.46,-348.5 173.46,-355.5"/>
</g>
<!-- Node12 -->
<g id="node12" class="node">
<title>Node12</title>
<g id="a_node12"><a xlink:href="classDashBoard.html#a849f36badc69e3f7d1c31c129199c53e" target="_top" xlink:title=" ">
<polygon fill="white" stroke="black" points="187.5,-304.5 187.5,-323.5 324.5,-323.5 324.5,-304.5 187.5,-304.5"/>
<text text-anchor="middle" x="256" y="-311.5" font-family="Helvetica,sans-Serif" font-size="10.00">DashBoard::setsixtyfoottime</text>
</a>
</g>
</g>
<!-- Node1&#45;&gt;Node12 -->
<g id="edge11" class="edge">
<title>Node1&#45;&gt;Node12</title>
<path fill="none" stroke="midnightblue" d="M101.38,-342.45C116.19,-339.34 132.79,-335.94 148,-333 161.42,-330.41 175.8,-327.76 189.54,-325.3"/>
<polygon fill="midnightblue" stroke="midnightblue" points="190.17,-328.74 199.41,-323.54 188.95,-321.85 190.17,-328.74"/>
</g>
<!-- Node13 -->
<g id="node13" class="node">
<title>Node13</title>
<g id="a_node13"><a xlink:href="classDashBoard.html#addaa92ac0e6bd5148ba686b967a55be1" target="_top" xlink:title=" ">
<polygon fill="white" stroke="black" points="173.5,-266.5 173.5,-285.5 338.5,-285.5 338.5,-266.5 173.5,-266.5"/>
<text text-anchor="middle" x="256" y="-273.5" font-family="Helvetica,sans-Serif" font-size="10.00">DashBoard::setthousandfootspeed</text>
</a>
</g>
</g>
<!-- Node1&#45;&gt;Node13 -->
<g id="edge12" class="edge">
<title>Node1&#45;&gt;Node13</title>
<path fill="none" stroke="midnightblue" d="M68.85,-342.45C85.49,-329.57 117.21,-306.86 148,-295 155.12,-292.26 162.66,-289.91 170.31,-287.9"/>
<polygon fill="midnightblue" stroke="midnightblue" points="171.14,-291.29 180.03,-285.52 169.48,-284.49 171.14,-291.29"/>
</g>
<!-- Node14 -->
<g id="node14" class="node">
<title>Node14</title>
<g id="a_node14"><a xlink:href="classDashBoard.html#add2703a4a902c908d67582236752ff88" target="_top" xlink:title=" ">
<polygon fill="white" stroke="black" points="177,-228.5 177,-247.5 335,-247.5 335,-228.5 177,-228.5"/>
<text text-anchor="middle" x="256" y="-235.5" font-family="Helvetica,sans-Serif" font-size="10.00">DashBoard::setthousandfoottime</text>
</a>
</g>
</g>
<!-- Node1&#45;&gt;Node14 -->
<g id="edge13" class="edge">
<title>Node1&#45;&gt;Node14</title>
<path fill="none" stroke="midnightblue" d="M63.15,-342.27C76.16,-322.59 108.53,-278.12 148,-257 153.98,-253.8 160.39,-251.12 166.99,-248.89"/>
<polygon fill="midnightblue" stroke="midnightblue" points="168.22,-252.17 176.77,-245.92 166.19,-245.48 168.22,-252.17"/>
</g>
<!-- Node15 -->
<g id="node15" class="node">
<title>Node15</title>
<g id="a_node15"><a xlink:href="classDashBoard.html#adc77016315fed2599bbbc136b42f99e7" target="_top" xlink:title=" ">
<polygon fill="white" stroke="black" points="154.5,-190.5 154.5,-209.5 357.5,-209.5 357.5,-190.5 154.5,-190.5"/>
<text text-anchor="middle" x="256" y="-197.5" font-family="Helvetica,sans-Serif" font-size="10.00">DashBoard::setthreehundredthirtyfootspeed</text>
</a>
</g>
</g>
<!-- Node1&#45;&gt;Node15 -->
<g id="edge14" class="edge">
<title>Node1&#45;&gt;Node15</title>
<path fill="none" stroke="midnightblue" d="M60.52,-342.34C70.16,-317.33 99.58,-250.26 148,-219 151.16,-216.96 154.47,-215.13 157.9,-213.47"/>
<polygon fill="midnightblue" stroke="midnightblue" points="159.38,-216.65 167.21,-209.51 156.63,-210.21 159.38,-216.65"/>
</g>
<!-- Node16 -->
<g id="node16" class="node">
<title>Node16</title>
<g id="a_node16"><a xlink:href="classDashBoard.html#a3817b5dd797f83129a96f3720ce1c81a" target="_top" xlink:title=" ">
<polygon fill="white" stroke="black" points="158.5,-152.5 158.5,-171.5 353.5,-171.5 353.5,-152.5 158.5,-152.5"/>
<text text-anchor="middle" x="256" y="-159.5" font-family="Helvetica,sans-Serif" font-size="10.00">DashBoard::setthreehundredthirtyfoottime</text>
</a>
</g>
</g>
<!-- Node1&#45;&gt;Node16 -->
<g id="edge15" class="edge">
<title>Node1&#45;&gt;Node16</title>
<path fill="none" stroke="midnightblue" d="M59.03,-342.3C65.77,-312.68 90.34,-222.93 148,-181 150.51,-179.17 153.15,-177.5 155.87,-175.97"/>
<polygon fill="midnightblue" stroke="midnightblue" points="157.42,-179.11 164.87,-171.57 154.34,-172.83 157.42,-179.11"/>
</g>
<!-- Node17 -->
<g id="node17" class="node">
<title>Node17</title>
<g id="a_node17"><a xlink:href="classDashBoard.html#aae6e2d2387bfa54fb696c0efe476cb03" target="_top" xlink:title=" ">
<polygon fill="white" stroke="black" points="199.5,-114.5 199.5,-133.5 312.5,-133.5 312.5,-114.5 199.5,-114.5"/>
<text text-anchor="middle" x="256" y="-121.5" font-family="Helvetica,sans-Serif" font-size="10.00">DashBoard::setTorque</text>
</a>
</g>
</g>
<!-- Node1&#45;&gt;Node17 -->
<g id="edge16" class="edge">
<title>Node1&#45;&gt;Node17</title>
<path fill="none" stroke="midnightblue" d="M58.06,-342.16C62.24,-308.34 80.89,-195.95 148,-143 159.73,-133.74 174.45,-128.4 189.18,-125.42"/>
<polygon fill="midnightblue" stroke="midnightblue" points="190.06,-128.83 199.35,-123.73 188.91,-121.92 190.06,-128.83"/>
</g>
<!-- Node18 -->
<g id="node18" class="node">
<title>Node18</title>
<g id="a_node18"><a xlink:href="classDashBoard.html#ac2125a0ffb15188bcec84d8e1c2d3ff9" target="_top" xlink:title=" ">
<polygon fill="white" stroke="black" points="206.5,-76.5 206.5,-95.5 305.5,-95.5 305.5,-76.5 206.5,-76.5"/>
<text text-anchor="middle" x="256" y="-83.5" font-family="Helvetica,sans-Serif" font-size="10.00">DashBoard::setTrip</text>
</a>
</g>
</g>
<!-- Node1&#45;&gt;Node18 -->
<g id="edge17" class="edge">
<title>Node1&#45;&gt;Node18</title>
<path fill="none" stroke="midnightblue" d="M57.33,-342.29C59.16,-304.94 71.07,-169.37 148,-105 161.43,-93.77 179.18,-88.18 196.35,-85.62"/>
<polygon fill="midnightblue" stroke="midnightblue" points="196.84,-89.09 206.36,-84.45 196.02,-82.14 196.84,-89.09"/>
</g>
<!-- Node19 -->
<g id="node19" class="node">
<title>Node19</title>
<g id="a_node19"><a xlink:href="classDashBoard.html#a5cdfc4bf52aa970c4035d4bcc2f34f71" target="_top" xlink:title=" ">
<polygon fill="white" stroke="black" points="148,-38.5 148,-57.5 364,-57.5 364,-38.5 148,-38.5"/>
<text text-anchor="middle" x="256" y="-45.5" font-family="Helvetica,sans-Serif" font-size="10.00">DashBoard::settwohundredtothreehundredtime</text>
</a>
</g>
</g>
<!-- Node1&#45;&gt;Node19 -->
<g id="edge18" class="edge">
<title>Node1&#45;&gt;Node19</title>
<path fill="none" stroke="midnightblue" d="M56.8,-342.27C56.51,-301.49 61.22,-142.92 148,-67 149.73,-65.49 151.54,-64.07 153.41,-62.76"/>
<polygon fill="midnightblue" stroke="midnightblue" points="155.27,-65.72 162.02,-57.56 151.65,-59.73 155.27,-65.72"/>
</g>
<!-- Node20 -->
<g id="node20" class="node">
<title>Node20</title>
<g id="a_node20"><a xlink:href="classDashBoard.html#ad5bc00fd95604884d7918347bdc71f35" target="_top" xlink:title=" ">
<polygon fill="white" stroke="black" points="183,-0.5 183,-19.5 329,-19.5 329,-0.5 183,-0.5"/>
<text text-anchor="middle" x="256" y="-7.5" font-family="Helvetica,sans-Serif" font-size="10.00">DashBoard::setzerotohundredt</text>
</a>
</g>
</g>
<!-- Node1&#45;&gt;Node20 -->
<g id="edge19" class="edge">
<title>Node1&#45;&gt;Node20</title>
<path fill="none" stroke="midnightblue" d="M58.35,-342.21C65.35,-293.02 98.99,-73.39 148,-29 155.21,-22.47 163.86,-17.8 173.08,-14.5"/>
<polygon fill="midnightblue" stroke="midnightblue" points="174.29,-17.79 182.85,-11.54 172.27,-11.09 174.29,-17.79"/>
</g>
</g>
</svg>
