<?xml version="1.0" encoding="UTF-8" standalone="no"?>
<!DOCTYPE svg PUBLIC "-//W3C//DTD SVG 1.1//EN"
 "http://www.w3.org/Graphics/SVG/1.1/DTD/svg11.dtd">
<!-- Generated by graphviz version 2.49.3 (20211027.1534)
 -->
<!-- Title: GPS::handleTimeout Pages: 1 -->
<svg width="1334pt" height="247pt"
 viewBox="0.00 0.00 1334.00 247.07" xmlns="http://www.w3.org/2000/svg" xmlns:xlink="http://www.w3.org/1999/xlink">
<g id="graph0" class="graph" transform="scale(1 1) rotate(0) translate(4 243.07)">
<title>GPS::handleTimeout</title>
<polygon fill="white" stroke="transparent" points="-4,4 -4,-243.07 1330,-243.07 1330,4 -4,4"/>
<!-- Node1 -->
<g id="node1" class="node">
<title>Node1</title>
<g id="a_node1"><a xlink:title=" ">
<polygon fill="#bfbfbf" stroke="black" points="1220,-96.57 1220,-115.57 1326,-115.57 1326,-96.57 1220,-96.57"/>
<text text-anchor="middle" x="1273" y="-103.57" font-family="Helvetica,sans-Serif" font-size="10.00">GPS::handleTimeout</text>
</a>
</g>
</g>
<!-- Node2 -->
<g id="node2" class="node">
<title>Node2</title>
<g id="a_node2"><a xlink:href="classGPS.html#ae4568ef4d5107c96c1af68d1abd33559" target="_top" xlink:title=" ">
<polygon fill="white" stroke="black" points="1070,-115.57 1070,-134.57 1184,-134.57 1184,-115.57 1070,-115.57"/>
<text text-anchor="middle" x="1127" y="-122.57" font-family="Helvetica,sans-Serif" font-size="10.00">GPS::closeConnection</text>
</a>
</g>
</g>
<!-- Node1&#45;&gt;Node2 -->
<g id="edge1" class="edge">
<title>Node1&#45;&gt;Node2</title>
<path fill="none" stroke="midnightblue" d="M1209.56,-114.31C1201.22,-115.4 1192.71,-116.53 1184.48,-117.61"/>
<polygon fill="midnightblue" stroke="midnightblue" points="1210.15,-117.76 1219.61,-112.98 1209.23,-110.82 1210.15,-117.76"/>
</g>
<!-- Node4 -->
<g id="node4" class="node">
<title>Node4</title>
<g id="a_node4"><a xlink:href="classGPS.html#a8775edfa08840ffb2647e0e5ba031fe5" target="_top" xlink:title=" ">
<polygon fill="white" stroke="black" points="445,-115.57 445,-134.57 564,-134.57 564,-115.57 445,-115.57"/>
<text text-anchor="middle" x="504.5" y="-122.57" font-family="Helvetica,sans-Serif" font-size="10.00">GPS::closeConnection1</text>
</a>
</g>
</g>
<!-- Node1&#45;&gt;Node4 -->
<g id="edge17" class="edge">
<title>Node1&#45;&gt;Node4</title>
<path fill="none" stroke="midnightblue" d="M1251.63,-121.6C1203.52,-156.7 1077.95,-239.07 959,-239.07 959,-239.07 959,-239.07 796,-239.07 681.95,-239.07 559.05,-161.99 518.96,-134.59"/>
<polygon fill="midnightblue" stroke="midnightblue" points="1253.74,-124.4 1259.69,-115.63 1249.57,-118.77 1253.74,-124.4"/>
</g>
<!-- Node8 -->
<g id="node8" class="node">
<title>Node8</title>
<g id="a_node8"><a xlink:href="classGPS.html#ac2a7572afb184df9c14ae913f17306bf" target="_top" xlink:title=" ">
<polygon fill="white" stroke="black" points="748,-77.57 748,-96.57 846,-96.57 846,-77.57 748,-77.57"/>
<text text-anchor="middle" x="797" y="-84.57" font-family="Helvetica,sans-Serif" font-size="10.00">GPS::initSerialPort</text>
</a>
</g>
</g>
<!-- Node1&#45;&gt;Node8 -->
<g id="edge18" class="edge">
<title>Node1&#45;&gt;Node8</title>
<path fill="none" stroke="midnightblue" d="M1209.81,-103.57C1114.11,-99.74 932.76,-92.47 846.26,-89"/>
<polygon fill="midnightblue" stroke="midnightblue" points="1209.79,-107.07 1219.92,-103.98 1210.07,-100.08 1209.79,-107.07"/>
</g>
<!-- Node3 -->
<g id="node3" class="node">
<title>Node3</title>
<g id="a_node3"><a xlink:href="classGPS.html#aaf69fb801bbce2ea70041e68fe0ec19a" target="_top" xlink:title=" ">
<polygon fill="white" stroke="black" points="882,-115.57 882,-134.57 1034,-134.57 1034,-115.57 882,-115.57"/>
<text text-anchor="middle" x="958" y="-122.57" font-family="Helvetica,sans-Serif" font-size="10.00">GPS::handleReconnectTimeout</text>
</a>
</g>
</g>
<!-- Node2&#45;&gt;Node3 -->
<g id="edge2" class="edge">
<title>Node2&#45;&gt;Node3</title>
<path fill="none" stroke="midnightblue" d="M1059.81,-118.45C1051.4,-118.32 1042.75,-118.28 1034.21,-118.35"/>
<polygon fill="midnightblue" stroke="midnightblue" points="1059.86,-121.95 1069.93,-118.65 1060,-114.95 1059.86,-121.95"/>
</g>
<!-- Node9 -->
<g id="node9" class="node">
<title>Node9</title>
<g id="a_node9"><a xlink:href="classGPS.html#a51eaea2422dd980ea0a6d28f12a136de" target="_top" xlink:title=" ">
<polygon fill="white" stroke="black" points="600,-153.57 600,-172.57 712,-172.57 712,-153.57 600,-153.57"/>
<text text-anchor="middle" x="656" y="-160.57" font-family="Helvetica,sans-Serif" font-size="10.00">GPS::openConnection</text>
</a>
</g>
</g>
<!-- Node2&#45;&gt;Node9 -->
<g id="edge16" class="edge">
<title>Node2&#45;&gt;Node9</title>
<path fill="none" stroke="midnightblue" d="M1075.42,-136.68C1062.02,-139.44 1047.51,-142.14 1034,-144.07 920.46,-160.26 785.98,-163.19 712.24,-163.43"/>
<polygon fill="midnightblue" stroke="midnightblue" points="1076.37,-140.06 1085.43,-134.58 1074.92,-133.21 1076.37,-140.06"/>
</g>
<!-- Node3&#45;&gt;Node2 -->
<g id="edge3" class="edge">
<title>Node3&#45;&gt;Node2</title>
<path fill="none" stroke="midnightblue" d="M1044.38,-131.81C1053.04,-131.8 1061.69,-131.69 1069.93,-131.48"/>
<polygon fill="midnightblue" stroke="midnightblue" points="1044.22,-128.31 1034.21,-131.79 1044.2,-135.31 1044.22,-128.31"/>
</g>
<!-- Node3&#45;&gt;Node4 -->
<g id="edge4" class="edge">
<title>Node3&#45;&gt;Node4</title>
<path fill="none" stroke="midnightblue" d="M871.77,-125.07C781.84,-125.07 642.53,-125.07 564.18,-125.07"/>
<polygon fill="midnightblue" stroke="midnightblue" points="871.94,-128.57 881.94,-125.07 871.94,-121.57 871.94,-128.57"/>
</g>
<!-- Node3&#45;&gt;Node8 -->
<g id="edge15" class="edge">
<title>Node3&#45;&gt;Node8</title>
<path fill="none" stroke="midnightblue" d="M906.92,-113.1C884.64,-107.77 858.77,-101.59 837.83,-96.59"/>
<polygon fill="midnightblue" stroke="midnightblue" points="906.34,-116.56 916.88,-115.48 907.97,-109.75 906.34,-116.56"/>
</g>
<!-- Node5 -->
<g id="node5" class="node">
<title>Node5</title>
<g id="a_node5"><a xlink:href="classGPS.html#abd750ada6a7b976f72761ce16246ccf6" target="_top" xlink:title=" ">
<polygon fill="white" stroke="black" points="289,-39.57 289,-58.57 409,-58.57 409,-39.57 289,-39.57"/>
<text text-anchor="middle" x="349" y="-46.57" font-family="Helvetica,sans-Serif" font-size="10.00">GPS::setGPSBAUD115</text>
</a>
</g>
</g>
<!-- Node4&#45;&gt;Node5 -->
<g id="edge5" class="edge">
<title>Node4&#45;&gt;Node5</title>
<path fill="none" stroke="midnightblue" d="M474.71,-110.81C443.88,-95.55 395.84,-71.76 369.28,-58.61"/>
<polygon fill="midnightblue" stroke="midnightblue" points="473.54,-114.14 484.06,-115.44 476.65,-107.87 473.54,-114.14"/>
</g>
<!-- Node5&#45;&gt;Node1 -->
<g id="edge6" class="edge">
<title>Node5&#45;&gt;Node1</title>
<path fill="none" stroke="midnightblue" d="M419.09,-39.51C506.62,-28.26 662.2,-11.07 796,-11.07 959,-11.07 959,-11.07 959,-11.07 1075.7,-11.07 1206.73,-72.28 1253.89,-96.43"/>
<polygon fill="midnightblue" stroke="midnightblue" points="418.49,-36.06 409.02,-40.82 419.39,-43 418.49,-36.06"/>
</g>
<!-- Node6 -->
<g id="node6" class="node">
<title>Node6</title>
<g id="a_node6"><a xlink:href="classGPS.html#a217097ae4a846c621f001a5aa1f4fb4f" target="_top" xlink:title=" ">
<polygon fill="white" stroke="black" points="135,-39.57 135,-58.57 253,-58.57 253,-39.57 135,-39.57"/>
<text text-anchor="middle" x="194" y="-46.57" font-family="Helvetica,sans-Serif" font-size="10.00">GPS::ProcessMessage</text>
</a>
</g>
</g>
<!-- Node5&#45;&gt;Node6 -->
<g id="edge7" class="edge">
<title>Node5&#45;&gt;Node6</title>
<path fill="none" stroke="midnightblue" d="M278.6,-49.07C270.12,-49.07 261.53,-49.07 253.24,-49.07"/>
<polygon fill="midnightblue" stroke="midnightblue" points="278.85,-52.57 288.85,-49.07 278.85,-45.57 278.85,-52.57"/>
</g>
<!-- Node7 -->
<g id="node7" class="node">
<title>Node7</title>
<g id="a_node7"><a xlink:href="classGPS.html#aa0928d156961a54bf06d9b5210d85561" target="_top" xlink:title=" ">
<polygon fill="white" stroke="black" points="0,-58.57 0,-77.57 99,-77.57 99,-58.57 0,-58.57"/>
<text text-anchor="middle" x="49.5" y="-65.57" font-family="Helvetica,sans-Serif" font-size="10.00">GPS::readyToRead</text>
</a>
</g>
</g>
<!-- Node6&#45;&gt;Node7 -->
<g id="edge8" class="edge">
<title>Node6&#45;&gt;Node7</title>
<path fill="none" stroke="midnightblue" d="M124.56,-58.19C115.93,-59.34 107.24,-60.5 99.01,-61.6"/>
<polygon fill="midnightblue" stroke="midnightblue" points="125.18,-61.64 134.63,-56.85 124.25,-54.7 125.18,-61.64"/>
</g>
<!-- Node7&#45;&gt;Node2 -->
<g id="edge9" class="edge">
<title>Node7&#45;&gt;Node2</title>
<path fill="none" stroke="midnightblue" d="M75.21,-53.59C91.57,-44.88 113.83,-34.61 135,-30.07 444.41,36.31 532.78,-22.94 846,-68.07 932.42,-80.52 1032.36,-102.79 1086.38,-115.49"/>
<polygon fill="midnightblue" stroke="midnightblue" points="73.38,-50.6 66.31,-58.49 76.76,-56.74 73.38,-50.6"/>
</g>
<!-- Node7&#45;&gt;Node4 -->
<g id="edge10" class="edge">
<title>Node7&#45;&gt;Node4</title>
<path fill="none" stroke="midnightblue" d="M79.44,-81.92C95.44,-88.93 115.9,-96.82 135,-101.07 242.49,-124.95 371.61,-127.59 444.96,-126.74"/>
<polygon fill="midnightblue" stroke="midnightblue" points="80.66,-78.63 70.1,-77.72 77.78,-85.02 80.66,-78.63"/>
</g>
<!-- Node7&#45;&gt;Node8 -->
<g id="edge11" class="edge">
<title>Node7&#45;&gt;Node8</title>
<path fill="none" stroke="midnightblue" d="M109.17,-74.03C169.13,-79.6 264.95,-87.07 348,-87.07 505.5,-87.07 505.5,-87.07 505.5,-87.07 590.86,-87.07 690.33,-87.07 747.94,-87.07"/>
<polygon fill="midnightblue" stroke="midnightblue" points="109.42,-70.54 99.14,-73.08 108.76,-77.51 109.42,-70.54"/>
</g>
<!-- Node8&#45;&gt;Node9 -->
<g id="edge12" class="edge">
<title>Node8&#45;&gt;Node9</title>
<path fill="none" stroke="midnightblue" d="M769.56,-101.52C741.64,-116.79 698.41,-140.43 674.46,-153.52"/>
<polygon fill="midnightblue" stroke="midnightblue" points="771.3,-104.56 778.4,-96.69 767.94,-98.42 771.3,-104.56"/>
</g>
<!-- Node9&#45;&gt;Node3 -->
<g id="edge14" class="edge">
<title>Node9&#45;&gt;Node3</title>
<path fill="none" stroke="midnightblue" d="M722.51,-154.77C769.42,-148.83 832.69,-140.81 881.68,-134.61"/>
<polygon fill="midnightblue" stroke="midnightblue" points="721.94,-151.31 712.46,-156.04 722.82,-158.26 721.94,-151.31"/>
</g>
<!-- Node9&#45;&gt;Node4 -->
<g id="edge13" class="edge">
<title>Node9&#45;&gt;Node4</title>
<path fill="none" stroke="midnightblue" d="M607.35,-150.95C586.53,-145.66 562.46,-139.54 542.95,-134.59"/>
<polygon fill="midnightblue" stroke="midnightblue" points="606.72,-154.41 617.27,-153.48 608.45,-147.62 606.72,-154.41"/>
</g>
</g>
</svg>
