<?xml version="1.0" encoding="UTF-8" standalone="no"?>
<!DOCTYPE svg PUBLIC "-//W3C//DTD SVG 1.1//EN"
 "http://www.w3.org/Graphics/SVG/1.1/DTD/svg11.dtd">
<!-- Generated by graphviz version 2.49.3 (20211027.1534)
 -->
<!-- Title: DownloadManager Pages: 1 -->
<svg width="158pt" height="152pt"
 viewBox="0.00 0.00 158.00 152.00" xmlns="http://www.w3.org/2000/svg" xmlns:xlink="http://www.w3.org/1999/xlink">
<g id="graph0" class="graph" transform="scale(1 1) rotate(0) translate(4 148)">
<title>DownloadManager</title>
<polygon fill="white" stroke="transparent" points="-4,4 -4,-148 154,-148 154,4 -4,4"/>
<!-- Node1 -->
<g id="node1" class="node">
<title>Node1</title>
<g id="a_node1"><a xlink:title=" ">
<polygon fill="#bfbfbf" stroke="black" points="0,-0.5 0,-19.5 97,-19.5 97,-0.5 0,-0.5"/>
<text text-anchor="middle" x="48.5" y="-7.5" font-family="Helvetica,sans-Serif" font-size="10.00">DownloadManager</text>
</a>
</g>
</g>
<!-- Node2 -->
<g id="node2" class="node">
<title>Node2</title>
<g id="a_node2"><a xlink:title=" ">
<polygon fill="white" stroke="#bfbfbf" points="18,-124.5 18,-143.5 71,-143.5 71,-124.5 18,-124.5"/>
<text text-anchor="middle" x="44.5" y="-131.5" font-family="Helvetica,sans-Serif" font-size="10.00">QObject</text>
</a>
</g>
</g>
<!-- Node2&#45;&gt;Node1 -->
<g id="edge1" class="edge">
<title>Node2&#45;&gt;Node1</title>
<path fill="none" stroke="midnightblue" d="M45.12,-114.19C46,-87.4 47.57,-39.31 48.21,-19.69"/>
<polygon fill="midnightblue" stroke="midnightblue" points="41.62,-114.12 44.79,-124.23 48.61,-114.35 41.62,-114.12"/>
</g>
<!-- Node3 -->
<g id="node3" class="node">
<title>Node3</title>
<g id="a_node3"><a xlink:href="classTextProgressBar.html" target="_top" xlink:title=" ">
<polygon fill="white" stroke="black" points="61,-67.5 61,-86.5 150,-86.5 150,-67.5 61,-67.5"/>
<text text-anchor="middle" x="105.5" y="-74.5" font-family="Helvetica,sans-Serif" font-size="10.00">TextProgressBar</text>
</a>
</g>
</g>
<!-- Node2&#45;&gt;Node3 -->
<g id="edge3" class="edge">
<title>Node2&#45;&gt;Node3</title>
<path fill="none" stroke="midnightblue" d="M61.46,-117.71C72.54,-107.72 86.62,-95.02 95.83,-86.71"/>
<polygon fill="midnightblue" stroke="midnightblue" points="59.11,-115.11 54.03,-124.41 63.8,-120.31 59.11,-115.11"/>
</g>
<!-- Node3&#45;&gt;Node1 -->
<g id="edge2" class="edge">
<title>Node3&#45;&gt;Node1</title>
<path fill="none" stroke="#9a32cd" stroke-dasharray="5,2" d="M91.15,-59.63C80,-46.92 64.98,-29.8 56.07,-19.63"/>
<polygon fill="#9a32cd" stroke="#9a32cd" points="88.59,-62.02 97.81,-67.23 93.85,-57.41 88.59,-62.02"/>
<text text-anchor="middle" x="108" y="-41" font-family="Helvetica,sans-Serif" font-size="10.00"> progressBar</text>
</g>
</g>
</svg>
