<?xml version="1.0" encoding="UTF-8" standalone="no"?>
<!DOCTYPE svg PUBLIC "-//W3C//DTD SVG 1.1//EN"
 "http://www.w3.org/Graphics/SVG/1.1/DTD/svg11.dtd">
<!-- Generated by graphviz version 2.49.3 (20211027.1534)
 -->
<!-- Title: DashBoard::gpsFIXtypeChanged Pages: 1 -->
<svg width="1695pt" height="522pt"
 viewBox="0.00 0.00 1695.00 522.05" xmlns="http://www.w3.org/2000/svg" xmlns:xlink="http://www.w3.org/1999/xlink">
<g id="graph0" class="graph" transform="scale(1 1) rotate(0) translate(4 518.05)">
<title>DashBoard::gpsFIXtypeChanged</title>
<polygon fill="white" stroke="transparent" points="-4,4 -4,-518.05 1691,-518.05 1691,4 -4,4"/>
<!-- Node1 -->
<g id="node1" class="node">
<title>Node1</title>
<g id="a_node1"><a xlink:title=" ">
<polygon fill="#bfbfbf" stroke="black" points="1530,-333.78 1530,-352.78 1687,-352.78 1687,-333.78 1530,-333.78"/>
<text text-anchor="middle" x="1608.5" y="-340.78" font-family="Helvetica,sans-Serif" font-size="10.00">DashBoard::gpsFIXtypeChanged</text>
</a>
</g>
</g>
<!-- Node2 -->
<g id="node2" class="node">
<title>Node2</title>
<g id="a_node2"><a xlink:href="classDashBoard.html#acd9bb1ec108194ecb9d451b430275922" target="_top" xlink:title=" ">
<polygon fill="white" stroke="black" points="1362,-333.78 1362,-352.78 1494,-352.78 1494,-333.78 1362,-333.78"/>
<text text-anchor="middle" x="1428" y="-340.78" font-family="Helvetica,sans-Serif" font-size="10.00">DashBoard::setgpsFIXtype</text>
</a>
</g>
</g>
<!-- Node1&#45;&gt;Node2 -->
<g id="edge1" class="edge">
<title>Node1&#45;&gt;Node2</title>
<path fill="none" stroke="midnightblue" d="M1519.86,-343.28C1511.2,-343.28 1502.53,-343.28 1494.16,-343.28"/>
<polygon fill="midnightblue" stroke="midnightblue" points="1519.99,-346.78 1529.99,-343.28 1519.99,-339.78 1519.99,-346.78"/>
</g>
<!-- Node3 -->
<g id="node3" class="node">
<title>Node3</title>
<g id="a_node3"><a xlink:href="classGPS.html#ae4568ef4d5107c96c1af68d1abd33559" target="_top" xlink:title=" ">
<polygon fill="white" stroke="black" points="1085,-143.78 1085,-162.78 1199,-162.78 1199,-143.78 1085,-143.78"/>
<text text-anchor="middle" x="1142" y="-150.78" font-family="Helvetica,sans-Serif" font-size="10.00">GPS::closeConnection</text>
</a>
</g>
</g>
<!-- Node2&#45;&gt;Node3 -->
<g id="edge2" class="edge">
<title>Node2&#45;&gt;Node3</title>
<path fill="none" stroke="midnightblue" d="M1403.94,-327.86C1347.48,-290.08 1203.55,-193.79 1157.44,-162.95"/>
<polygon fill="midnightblue" stroke="midnightblue" points="1402.27,-330.95 1412.53,-333.6 1406.16,-325.13 1402.27,-330.95"/>
</g>
<!-- Node5 -->
<g id="node5" class="node">
<title>Node5</title>
<g id="a_node5"><a xlink:href="classGPS.html#a8775edfa08840ffb2647e0e5ba031fe5" target="_top" xlink:title=" ">
<polygon fill="white" stroke="black" points="445,-219.78 445,-238.78 564,-238.78 564,-219.78 445,-219.78"/>
<text text-anchor="middle" x="504.5" y="-226.78" font-family="Helvetica,sans-Serif" font-size="10.00">GPS::closeConnection1</text>
</a>
</g>
</g>
<!-- Node2&#45;&gt;Node5 -->
<g id="edge21" class="edge">
<title>Node2&#45;&gt;Node5</title>
<path fill="none" stroke="midnightblue" d="M1373.11,-331.73C1316.2,-320.55 1223.72,-305.28 1143,-305.28 1143,-305.28 1143,-305.28 972,-305.28 808.5,-305.28 616.91,-259.24 540.01,-238.83"/>
<polygon fill="midnightblue" stroke="midnightblue" points="1372.48,-335.17 1382.97,-333.69 1373.85,-328.3 1372.48,-335.17"/>
</g>
<!-- Node6 -->
<g id="node6" class="node">
<title>Node6</title>
<g id="a_node6"><a xlink:href="classGPS.html#abd750ada6a7b976f72761ce16246ccf6" target="_top" xlink:title=" ">
<polygon fill="white" stroke="black" points="289,-333.78 289,-352.78 409,-352.78 409,-333.78 289,-333.78"/>
<text text-anchor="middle" x="349" y="-340.78" font-family="Helvetica,sans-Serif" font-size="10.00">GPS::setGPSBAUD115</text>
</a>
</g>
</g>
<!-- Node2&#45;&gt;Node6 -->
<g id="edge34" class="edge">
<title>Node2&#45;&gt;Node6</title>
<path fill="none" stroke="midnightblue" d="M1351.81,-343.28C1294.56,-343.28 1213.82,-343.28 1143,-343.28 1143,-343.28 1143,-343.28 655,-343.28 569.48,-343.28 470.48,-343.28 409.04,-343.28"/>
<polygon fill="midnightblue" stroke="midnightblue" points="1351.86,-346.78 1361.86,-343.28 1351.86,-339.78 1351.86,-346.78"/>
</g>
<!-- Node9 -->
<g id="node9" class="node">
<title>Node9</title>
<g id="a_node9"><a xlink:href="classGPS.html#a51eaea2422dd980ea0a6d28f12a136de" target="_top" xlink:title=" ">
<polygon fill="white" stroke="black" points="600,-143.78 600,-162.78 712,-162.78 712,-143.78 600,-143.78"/>
<text text-anchor="middle" x="656" y="-150.78" font-family="Helvetica,sans-Serif" font-size="10.00">GPS::openConnection</text>
</a>
</g>
</g>
<!-- Node2&#45;&gt;Node9 -->
<g id="edge26" class="edge">
<title>Node2&#45;&gt;Node9</title>
<path fill="none" stroke="midnightblue" d="M1416.29,-324.89C1383.18,-270.68 1276.63,-115.28 1143,-115.28 1143,-115.28 1143,-115.28 972,-115.28 877.12,-115.28 767.31,-132.49 705.62,-143.74"/>
<polygon fill="midnightblue" stroke="midnightblue" points="1413.47,-326.99 1421.61,-333.78 1419.47,-323.4 1413.47,-326.99"/>
</g>
<!-- Node10 -->
<g id="node10" class="node">
<title>Node10</title>
<g id="a_node10"><a xlink:href="classGPS.html#a217097ae4a846c621f001a5aa1f4fb4f" target="_top" xlink:title=" ">
<polygon fill="white" stroke="black" points="135,-390.78 135,-409.78 253,-409.78 253,-390.78 135,-390.78"/>
<text text-anchor="middle" x="194" y="-397.78" font-family="Helvetica,sans-Serif" font-size="10.00">GPS::ProcessMessage</text>
</a>
</g>
</g>
<!-- Node2&#45;&gt;Node10 -->
<g id="edge29" class="edge">
<title>Node2&#45;&gt;Node10</title>
<path fill="none" stroke="midnightblue" d="M1373.11,-354.84C1316.2,-366.02 1223.72,-381.28 1143,-381.28 1143,-381.28 1143,-381.28 503.5,-381.28 416.17,-381.28 315.19,-388.96 253.22,-394.56"/>
<polygon fill="midnightblue" stroke="midnightblue" points="1373.85,-358.26 1382.97,-352.87 1372.48,-351.39 1373.85,-358.26"/>
</g>
<!-- Node12 -->
<g id="node12" class="node">
<title>Node12</title>
<g id="a_node12"><a xlink:href="classGPS.html#a14c64eb8a4939f8f734b93ef3a21bb19" target="_top" xlink:title=" ">
<polygon fill="white" stroke="black" points="1235,-48.78 1235,-67.78 1326,-67.78 1326,-48.78 1235,-48.78"/>
<text text-anchor="middle" x="1280.5" y="-55.78" font-family="Helvetica,sans-Serif" font-size="10.00">GPS::handleError</text>
</a>
</g>
</g>
<!-- Node2&#45;&gt;Node12 -->
<g id="edge22" class="edge">
<title>Node2&#45;&gt;Node12</title>
<path fill="none" stroke="midnightblue" d="M1421.75,-323.57C1409.68,-280.52 1377,-176 1326,-101.28 1317.16,-88.33 1303.93,-76.16 1294.19,-68.1"/>
<polygon fill="midnightblue" stroke="midnightblue" points="1418.41,-324.63 1424.43,-333.35 1425.16,-322.78 1418.41,-324.63"/>
</g>
<!-- Node13 -->
<g id="node13" class="node">
<title>Node13</title>
<g id="a_node13"><a xlink:href="classGPS.html#a6fbf5e49f6a05b056835666f2e1cb830" target="_top" xlink:title=" ">
<polygon fill="white" stroke="black" points="748,-485.78 748,-504.78 861,-504.78 861,-485.78 748,-485.78"/>
<text text-anchor="middle" x="804.5" y="-492.78" font-family="Helvetica,sans-Serif" font-size="10.00">GPS::processGPGGA</text>
</a>
</g>
</g>
<!-- Node2&#45;&gt;Node13 -->
<g id="edge27" class="edge">
<title>Node2&#45;&gt;Node13</title>
<path fill="none" stroke="midnightblue" d="M1414.51,-361.17C1397.35,-384.26 1364.25,-423.89 1326,-444.28 1173.77,-525.45 960.8,-514.23 861.1,-503.05"/>
<polygon fill="midnightblue" stroke="midnightblue" points="1417.44,-363.08 1420.47,-352.93 1411.77,-358.98 1417.44,-363.08"/>
</g>
<!-- Node14 -->
<g id="node14" class="node">
<title>Node14</title>
<g id="a_node14"><a xlink:href="classGPS.html#a125284d30c7901ba52ed190e519bc3b2" target="_top" xlink:title=" ">
<polygon fill="white" stroke="black" points="912,-447.78 912,-466.78 1034,-466.78 1034,-447.78 912,-447.78"/>
<text text-anchor="middle" x="973" y="-454.78" font-family="Helvetica,sans-Serif" font-size="10.00">GPS::removeNMEAmsg</text>
</a>
</g>
</g>
<!-- Node2&#45;&gt;Node14 -->
<g id="edge30" class="edge">
<title>Node2&#45;&gt;Node14</title>
<path fill="none" stroke="midnightblue" d="M1409.89,-359.8C1390.98,-377.05 1358.81,-403.48 1326,-417.28 1229.76,-457.76 1106.38,-462.14 1034.17,-460.5"/>
<polygon fill="midnightblue" stroke="midnightblue" points="1412.46,-362.2 1417.38,-352.82 1407.68,-357.08 1412.46,-362.2"/>
</g>
<!-- Node15 -->
<g id="node15" class="node">
<title>Node15</title>
<g id="a_node15"><a xlink:href="classGPS.html#a052c61711107964bbde54f86edb110ff" target="_top" xlink:title=" ">
<polygon fill="white" stroke="black" points="1091.5,-409.78 1091.5,-428.78 1192.5,-428.78 1192.5,-409.78 1091.5,-409.78"/>
<text text-anchor="middle" x="1142" y="-416.78" font-family="Helvetica,sans-Serif" font-size="10.00">GPS::setGPS10HZ</text>
</a>
</g>
</g>
<!-- Node2&#45;&gt;Node15 -->
<g id="edge32" class="edge">
<title>Node2&#45;&gt;Node15</title>
<path fill="none" stroke="midnightblue" d="M1403.65,-358.26C1383.8,-370.26 1354.11,-386.49 1326,-395.28 1282.11,-409 1229.93,-414.88 1192.53,-417.4"/>
<polygon fill="midnightblue" stroke="midnightblue" points="1405.63,-361.16 1412.3,-352.93 1401.96,-355.2 1405.63,-361.16"/>
</g>
<!-- Node4 -->
<g id="node4" class="node">
<title>Node4</title>
<g id="a_node4"><a xlink:href="classGPS.html#aaf69fb801bbce2ea70041e68fe0ec19a" target="_top" xlink:title=" ">
<polygon fill="white" stroke="black" points="897,-143.78 897,-162.78 1049,-162.78 1049,-143.78 897,-143.78"/>
<text text-anchor="middle" x="973" y="-150.78" font-family="Helvetica,sans-Serif" font-size="10.00">GPS::handleReconnectTimeout</text>
</a>
</g>
</g>
<!-- Node3&#45;&gt;Node4 -->
<g id="edge3" class="edge">
<title>Node3&#45;&gt;Node4</title>
<path fill="none" stroke="midnightblue" d="M1074.81,-146.66C1066.4,-146.53 1057.75,-146.5 1049.21,-146.56"/>
<polygon fill="midnightblue" stroke="midnightblue" points="1074.86,-150.16 1084.93,-146.87 1075,-143.17 1074.86,-150.16"/>
</g>
<!-- Node3&#45;&gt;Node9 -->
<g id="edge20" class="edge">
<title>Node3&#45;&gt;Node9</title>
<path fill="none" stroke="midnightblue" d="M1093.6,-164.99C1079.35,-167.99 1063.62,-170.79 1049,-172.28 915.9,-185.88 881.22,-179.72 748,-167.28 736.38,-166.2 723.99,-164.59 712.21,-162.85"/>
<polygon fill="midnightblue" stroke="midnightblue" points="1094.65,-168.35 1103.67,-162.79 1093.15,-161.51 1094.65,-168.35"/>
</g>
<!-- Node4&#45;&gt;Node3 -->
<g id="edge4" class="edge">
<title>Node4&#45;&gt;Node3</title>
<path fill="none" stroke="midnightblue" d="M1059.38,-160.03C1068.04,-160.02 1076.69,-159.91 1084.93,-159.7"/>
<polygon fill="midnightblue" stroke="midnightblue" points="1059.22,-156.53 1049.21,-160 1059.2,-163.53 1059.22,-156.53"/>
</g>
<!-- Node4&#45;&gt;Node5 -->
<g id="edge5" class="edge">
<title>Node4&#45;&gt;Node5</title>
<path fill="none" stroke="midnightblue" d="M903.36,-164.46C811.5,-179.43 650.18,-205.71 563.87,-219.77"/>
<polygon fill="midnightblue" stroke="midnightblue" points="904.08,-167.89 913.39,-162.83 902.96,-160.98 904.08,-167.89"/>
</g>
<!-- Node8 -->
<g id="node8" class="node">
<title>Node8</title>
<g id="a_node8"><a xlink:href="classGPS.html#ac2a7572afb184df9c14ae913f17306bf" target="_top" xlink:title=" ">
<polygon fill="white" stroke="black" points="755.5,-29.78 755.5,-48.78 853.5,-48.78 853.5,-29.78 755.5,-29.78"/>
<text text-anchor="middle" x="804.5" y="-36.78" font-family="Helvetica,sans-Serif" font-size="10.00">GPS::initSerialPort</text>
</a>
</g>
</g>
<!-- Node4&#45;&gt;Node8 -->
<g id="edge19" class="edge">
<title>Node4&#45;&gt;Node8</title>
<path fill="none" stroke="midnightblue" d="M949.55,-137.91C914.73,-114.07 848.69,-68.85 819.72,-49.02"/>
<polygon fill="midnightblue" stroke="midnightblue" points="947.86,-141 958.09,-143.76 951.82,-135.22 947.86,-141"/>
</g>
<!-- Node5&#45;&gt;Node6 -->
<g id="edge6" class="edge">
<title>Node5&#45;&gt;Node6</title>
<path fill="none" stroke="midnightblue" d="M482.39,-244.96C450.18,-268.88 389.7,-313.79 363.11,-333.54"/>
<polygon fill="midnightblue" stroke="midnightblue" points="484.74,-247.58 490.68,-238.81 480.56,-241.96 484.74,-247.58"/>
</g>
<!-- Node7 -->
<g id="node7" class="node">
<title>Node7</title>
<g id="a_node7"><a xlink:href="classGPS.html#a1b1c89214229f5dc8ff7e2fa9cbcad35" target="_top" xlink:title=" ">
<polygon fill="white" stroke="black" points="141,-267.78 141,-286.78 247,-286.78 247,-267.78 141,-267.78"/>
<text text-anchor="middle" x="194" y="-274.78" font-family="Helvetica,sans-Serif" font-size="10.00">GPS::handleTimeout</text>
</a>
</g>
</g>
<!-- Node6&#45;&gt;Node7 -->
<g id="edge7" class="edge">
<title>Node6&#45;&gt;Node7</title>
<path fill="none" stroke="midnightblue" d="M314.6,-329.92C306.22,-326.51 297.26,-322.81 289,-319.28 263.68,-308.48 234.81,-295.47 215.82,-286.83"/>
<polygon fill="midnightblue" stroke="midnightblue" points="313.51,-333.26 324.1,-333.77 316.14,-326.77 313.51,-333.26"/>
</g>
<!-- Node6&#45;&gt;Node10 -->
<g id="edge14" class="edge">
<title>Node6&#45;&gt;Node10</title>
<path fill="none" stroke="midnightblue" d="M312.93,-356.35C284.81,-366.82 245.99,-381.29 220.69,-390.71"/>
<polygon fill="midnightblue" stroke="midnightblue" points="314.24,-359.59 322.39,-352.82 311.8,-353.03 314.24,-359.59"/>
</g>
<!-- Node7&#45;&gt;Node3 -->
<g id="edge8" class="edge">
<title>Node7&#45;&gt;Node3</title>
<path fill="none" stroke="midnightblue" d="M257.64,-275.56C300.35,-274.09 358.15,-271.52 409,-267.28 694.5,-243.47 771.49,-261.46 1049,-190.28 1074.85,-183.65 1103.12,-171.49 1121.41,-162.92"/>
<polygon fill="midnightblue" stroke="midnightblue" points="257.28,-272.07 247.4,-275.9 257.51,-279.07 257.28,-272.07"/>
</g>
<!-- Node7&#45;&gt;Node5 -->
<g id="edge9" class="edge">
<title>Node7&#45;&gt;Node5</title>
<path fill="none" stroke="midnightblue" d="M257.04,-267.63C311.79,-259.11 391.01,-246.78 444.75,-238.42"/>
<polygon fill="midnightblue" stroke="midnightblue" points="256.46,-264.18 247.12,-269.17 257.54,-271.09 256.46,-264.18"/>
</g>
<!-- Node7&#45;&gt;Node8 -->
<g id="edge10" class="edge">
<title>Node7&#45;&gt;Node8</title>
<path fill="none" stroke="midnightblue" d="M224.26,-263.19C290.28,-231.69 456.3,-154.2 600,-101.28 657.88,-79.97 726.84,-60.08 767.8,-48.82"/>
<polygon fill="midnightblue" stroke="midnightblue" points="222.41,-260.19 214.9,-267.66 225.43,-266.51 222.41,-260.19"/>
</g>
<!-- Node8&#45;&gt;Node9 -->
<g id="edge11" class="edge">
<title>Node8&#45;&gt;Node9</title>
<path fill="none" stroke="midnightblue" d="M783.36,-54.96C752.61,-78.88 694.89,-123.79 669.51,-143.54"/>
<polygon fill="midnightblue" stroke="midnightblue" points="785.52,-57.71 791.26,-48.81 781.22,-52.18 785.52,-57.71"/>
</g>
<!-- Node9&#45;&gt;Node4 -->
<g id="edge13" class="edge">
<title>Node9&#45;&gt;Node4</title>
<path fill="none" stroke="midnightblue" d="M722.46,-153.28C773.29,-153.28 843.83,-153.28 896.95,-153.28"/>
<polygon fill="midnightblue" stroke="midnightblue" points="722.25,-149.78 712.25,-153.28 722.25,-156.78 722.25,-149.78"/>
</g>
<!-- Node9&#45;&gt;Node5 -->
<g id="edge12" class="edge">
<title>Node9&#45;&gt;Node5</title>
<path fill="none" stroke="midnightblue" d="M626.96,-167.54C596.94,-182.8 550.15,-206.59 524.28,-219.73"/>
<polygon fill="midnightblue" stroke="midnightblue" points="628.74,-170.56 636.07,-162.91 625.57,-164.32 628.74,-170.56"/>
</g>
<!-- Node11 -->
<g id="node11" class="node">
<title>Node11</title>
<g id="a_node11"><a xlink:href="classGPS.html#aa0928d156961a54bf06d9b5210d85561" target="_top" xlink:title=" ">
<polygon fill="white" stroke="black" points="0,-48.78 0,-67.78 99,-67.78 99,-48.78 0,-48.78"/>
<text text-anchor="middle" x="49.5" y="-55.78" font-family="Helvetica,sans-Serif" font-size="10.00">GPS::readyToRead</text>
</a>
</g>
</g>
<!-- Node10&#45;&gt;Node11 -->
<g id="edge15" class="edge">
<title>Node10&#45;&gt;Node11</title>
<path fill="none" stroke="midnightblue" d="M181.53,-381.94C169.06,-361.53 149.05,-327.34 135,-296.28 96.14,-210.4 62.95,-100.9 53.32,-68.03"/>
<polygon fill="midnightblue" stroke="midnightblue" points="178.6,-383.86 186.83,-390.53 184.56,-380.18 178.6,-383.86"/>
</g>
<!-- Node11&#45;&gt;Node3 -->
<g id="edge16" class="edge">
<title>Node11&#45;&gt;Node3</title>
<path fill="none" stroke="midnightblue" d="M89.73,-45.85C146.2,-29.08 253.99,-1.28 348,-1.28 657,-1.28 657,-1.28 657,-1.28 748.06,-1.28 773.2,3.85 861,-20.28 968.42,-49.8 1085.19,-118.54 1125.96,-143.77"/>
<polygon fill="midnightblue" stroke="midnightblue" points="88.69,-42.51 80.12,-48.74 90.71,-49.21 88.69,-42.51"/>
</g>
<!-- Node11&#45;&gt;Node5 -->
<g id="edge17" class="edge">
<title>Node11&#45;&gt;Node5</title>
<path fill="none" stroke="midnightblue" d="M85.44,-71.47C173.28,-104.63 401.74,-190.87 478.17,-219.72"/>
<polygon fill="midnightblue" stroke="midnightblue" points="86.52,-68.14 75.93,-67.88 84.05,-74.69 86.52,-68.14"/>
</g>
<!-- Node11&#45;&gt;Node8 -->
<g id="edge18" class="edge">
<title>Node11&#45;&gt;Node8</title>
<path fill="none" stroke="midnightblue" d="M109.17,-52.32C169.13,-46.75 264.95,-39.28 348,-39.28 505.5,-39.28 505.5,-39.28 505.5,-39.28 593.58,-39.28 696.31,-39.28 755.24,-39.28"/>
<polygon fill="midnightblue" stroke="midnightblue" points="108.76,-48.84 99.14,-53.26 109.42,-55.81 108.76,-48.84"/>
</g>
<!-- Node12&#45;&gt;Node3 -->
<g id="edge23" class="edge">
<title>Node12&#45;&gt;Node3</title>
<path fill="none" stroke="midnightblue" d="M1257.19,-73.81C1228.76,-93.59 1180.51,-127.18 1156.88,-143.62"/>
<polygon fill="midnightblue" stroke="midnightblue" points="1259.45,-76.5 1265.66,-67.91 1255.45,-70.75 1259.45,-76.5"/>
</g>
<!-- Node12&#45;&gt;Node5 -->
<g id="edge24" class="edge">
<title>Node12&#45;&gt;Node5</title>
<path fill="none" stroke="midnightblue" d="M1224.31,-59.09C1082.16,-62.01 707.13,-75.24 600,-134.28 560.07,-156.29 525.89,-200.29 512.06,-219.7"/>
<polygon fill="midnightblue" stroke="midnightblue" points="1224.61,-62.58 1234.54,-58.89 1224.47,-55.59 1224.61,-62.58"/>
</g>
<!-- Node12&#45;&gt;Node8 -->
<g id="edge25" class="edge">
<title>Node12&#45;&gt;Node8</title>
<path fill="none" stroke="midnightblue" d="M1252.57,-44.16C1237.31,-36.95 1217.6,-28.95 1199,-25.28 1076.43,-1.13 928.33,-18.6 853.61,-30.57"/>
<polygon fill="midnightblue" stroke="midnightblue" points="1251.38,-47.47 1261.9,-48.72 1254.46,-41.18 1251.38,-47.47"/>
</g>
<!-- Node13&#45;&gt;Node10 -->
<g id="edge28" class="edge">
<title>Node13&#45;&gt;Node10</title>
<path fill="none" stroke="midnightblue" d="M737.75,-504.29C637.53,-515.39 442.06,-526.59 289,-471.28 252.84,-458.21 219.09,-426.05 203.72,-409.88"/>
<polygon fill="midnightblue" stroke="midnightblue" points="738.19,-507.76 747.73,-503.15 737.4,-500.81 738.19,-507.76"/>
</g>
<!-- Node14&#45;&gt;Node10 -->
<g id="edge31" class="edge">
<title>Node14&#45;&gt;Node10</title>
<path fill="none" stroke="midnightblue" d="M901.56,-457.28C837.72,-457.28 741.05,-457.28 657,-457.28 657,-457.28 657,-457.28 503.5,-457.28 407.57,-457.28 382.52,-454.64 289,-433.28 264.04,-427.58 236.53,-417.44 217.75,-409.9"/>
<polygon fill="midnightblue" stroke="midnightblue" points="901.91,-460.78 911.91,-457.28 901.91,-453.78 901.91,-460.78"/>
</g>
<!-- Node15&#45;&gt;Node10 -->
<g id="edge33" class="edge">
<title>Node15&#45;&gt;Node10</title>
<path fill="none" stroke="midnightblue" d="M1080.88,-419.28C1013.74,-419.28 901.84,-419.28 805.5,-419.28 805.5,-419.28 805.5,-419.28 503.5,-419.28 416.17,-419.28 315.19,-411.6 253.22,-406.01"/>
<polygon fill="midnightblue" stroke="midnightblue" points="1081.26,-422.78 1091.26,-419.28 1081.26,-415.78 1081.26,-422.78"/>
</g>
</g>
</svg>
