<?xml version="1.0" encoding="UTF-8" standalone="no"?>
<!DOCTYPE svg PUBLIC "-//W3C//DTD SVG 1.1//EN"
 "http://www.w3.org/Graphics/SVG/1.1/DTD/svg11.dtd">
<!-- Generated by graphviz version 2.49.3 (20211027.1534)
 -->
<!-- Title: Apexi::apexiECU Pages: 1 -->
<!--zoomable 1372 -->
<svg id="main" version="1.1" xmlns="http://www.w3.org/2000/svg" xmlns:xlink="http://www.w3.org/1999/xlink" xml:space="preserve" onload="init(evt)">
<style type="text/css"><![CDATA[
.edge:hover path { stroke: red; }
.edge:hover polygon { stroke: red; fill: red; }
]]></style>
<script type="text/javascript"><![CDATA[
var edges = document.getElementsByTagName('g');
if (edges && edges.length) {
  for (var i=0;i<edges.length;i++) {
    if (edges[i].id.substr(0,4)=='edge') {
      edges[i].setAttribute('class','edge');
    }
  }
}
]]></script>
        <defs>
                <circle id="rim" cx="0" cy="0" r="7"/>
                <circle id="rim2" cx="0" cy="0" r="3.5"/>
                <g id="zoomPlus">
                        <use xlink:href="#rim" fill="#404040">
                                <set attributeName="fill" to="#808080" begin="zoomplus.mouseover" end="zoomplus.mouseout"/>
                        </use>
                        <path d="M-4,0h8M0,-4v8" fill="none" stroke="white" stroke-width="1.5" pointer-events="none"/>
                </g>
                <g id="zoomMin">
                        <use xlink:href="#rim" fill="#404040">
                                <set attributeName="fill" to="#808080" begin="zoomminus.mouseover" end="zoomminus.mouseout"/>
                        </use>
                        <path d="M-4,0h8" fill="none" stroke="white" stroke-width="1.5" pointer-events="none"/>
                </g>
                <g id="dirArrow">
                        <path fill="none" stroke="white" stroke-width="1.5" d="M0,-3.0v7 M-2.5,-0.5L0,-3.0L2.5,-0.5"/>
                </g>
               <g id="resetDef">
                       <use xlink:href="#rim2" fill="#404040">
                               <set attributeName="fill" to="#808080" begin="reset.mouseover" end="reset.mouseout"/>
                       </use>
               </g>
        </defs>

<script type="text/javascript">
var viewWidth = 924;
var viewHeight = 1372;
var sectionId = 'dynsection-2';
</script>
<script xlink:href="svgpan.js"/>
<svg id="graph" class="graph">
<g id="viewport">
<title>Apexi::apexiECU</title>
<polygon fill="white" stroke="transparent" points="-4,4 -4,-1368.03 920,-1368.03 920,4 -4,4"/>
<!-- Node1 -->
<g id="node1" class="node">
<title>Node1</title>
<g id="a_node1"><a xlink:title=" ">
<polygon fill="#bfbfbf" stroke="black" points="0,-1178.5 0,-1197.5 88,-1197.5 88,-1178.5 0,-1178.5"/>
<text text-anchor="middle" x="44" y="-1185.5" font-family="Helvetica,sans-Serif" font-size="10.00">Apexi::apexiECU</text>
</a>
</g>
</g>
<!-- Node2 -->
<g id="node2" class="node">
<title>Node2</title>
<g id="a_node2"><a xlink:href="classApexi.html#a4e7b389e8d3e283a12733ab4f8492be3" target="_top" xlink:title=" ">
<polygon fill="white" stroke="black" points="141,-1064.5 141,-1083.5 225,-1083.5 225,-1064.5 141,-1064.5"/>
<text text-anchor="middle" x="183" y="-1071.5" font-family="Helvetica,sans-Serif" font-size="10.00">Apexi::readData</text>
</a>
</g>
</g>
<!-- Node1&#45;&gt;Node2 -->
<g id="edge1" class="edge">
<title>Node1&#45;&gt;Node2</title>
<path fill="none" stroke="midnightblue" d="M56.68,-1178.28C80.24,-1158.68 133.66,-1114.23 162.56,-1090.18"/>
<polygon fill="midnightblue" stroke="midnightblue" points="164.9,-1092.78 170.35,-1083.69 160.42,-1087.4 164.9,-1092.78"/>
</g>
<!-- Node8 -->
<g id="node7" class="node">
<title>Node8</title>
<g id="a_node7"><a xlink:href="classApexi.html#a9ed7e794f2566b72a448e341233985eb" target="_top" xlink:title=" ">
<polygon fill="white" stroke="black" points="639,-1330.5 639,-1349.5 741,-1349.5 741,-1330.5 639,-1330.5"/>
<text text-anchor="middle" x="690" y="-1337.5" font-family="Helvetica,sans-Serif" font-size="10.00">Apexi::sendRequest</text>
</a>
</g>
</g>
<!-- Node1&#45;&gt;Node8 -->
<g id="edge56" class="edge">
<title>Node1&#45;&gt;Node8</title>
<path fill="none" stroke="midnightblue" d="M52.77,-1197.53C65.92,-1213.07 94.06,-1243.97 124,-1262 254.22,-1340.43 301.15,-1340.22 452,-1359 511.1,-1366.36 526.69,-1364.42 586,-1359 602.8,-1357.46 620.94,-1354.55 637.25,-1351.45"/>
<polygon fill="midnightblue" stroke="midnightblue" points="638.01,-1354.87 647.15,-1349.51 636.66,-1348 638.01,-1354.87"/>
</g>
<!-- Node10 -->
<g id="node9" class="node">
<title>Node10</title>
<g id="a_node9"><a xlink:href="classDashBoard.html#a7638e10b46688431f57c31bfc7ab1a37" target="_top" xlink:title=" ">
<polygon fill="white" stroke="black" points="622,-1254.5 622,-1273.5 758,-1273.5 758,-1254.5 622,-1254.5"/>
<text text-anchor="middle" x="690" y="-1261.5" font-family="Helvetica,sans-Serif" font-size="10.00">DashBoard::setTimeoutStat</text>
</a>
</g>
</g>
<!-- Node1&#45;&gt;Node10 -->
<g id="edge58" class="edge">
<title>Node1&#45;&gt;Node10</title>
<path fill="none" stroke="midnightblue" d="M88.11,-1182.83C181.11,-1173.12 406.67,-1157.32 586,-1207 616.57,-1215.47 647.94,-1234.63 667.9,-1248.39"/>
<polygon fill="midnightblue" stroke="midnightblue" points="666.03,-1251.36 676.22,-1254.28 670.08,-1245.65 666.03,-1251.36"/>
</g>
<!-- Node112 -->
<g id="node50" class="node">
<title>Node112</title>
<g id="a_node50"><a xlink:href="classDashBoard.html#af8966ca28767b5686245a42f97431bc8" target="_top" xlink:title=" ">
<polygon fill="white" stroke="black" points="124,-1026.5 124,-1045.5 242,-1045.5 242,-1026.5 124,-1026.5"/>
<text text-anchor="middle" x="183" y="-1033.5" font-family="Helvetica,sans-Serif" font-size="10.00">DashBoard::setRunStat</text>
</a>
</g>
</g>
<!-- Node1&#45;&gt;Node112 -->
<g id="edge57" class="edge">
<title>Node1&#45;&gt;Node112</title>
<path fill="none" stroke="midnightblue" d="M48.04,-1178.37C56.22,-1154.01 81.04,-1089.43 124,-1055 126.25,-1053.2 128.67,-1051.56 131.21,-1050.08"/>
<polygon fill="midnightblue" stroke="midnightblue" points="132.79,-1053.21 140.19,-1045.62 129.68,-1046.94 132.79,-1053.21"/>
</g>
<!-- Node3 -->
<g id="node3" class="node">
<title>Node3</title>
<g id="a_node3"><a xlink:href="classApexi.html#a669124cabae4ada616e650e582c068da" target="_top" xlink:title=" ">
<polygon fill="white" stroke="black" points="288.5,-1254.5 288.5,-1273.5 405.5,-1273.5 405.5,-1254.5 288.5,-1254.5"/>
<text text-anchor="middle" x="347" y="-1261.5" font-family="Helvetica,sans-Serif" font-size="10.00">Apexi::closeConnection</text>
</a>
</g>
</g>
<!-- Node2&#45;&gt;Node3 -->
<g id="edge2" class="edge">
<title>Node2&#45;&gt;Node3</title>
<path fill="none" stroke="midnightblue" d="M192.26,-1083.68C218.03,-1113.91 297.28,-1206.86 330.79,-1246.16"/>
<polygon fill="midnightblue" stroke="midnightblue" points="328.41,-1248.77 337.57,-1254.11 333.74,-1244.23 328.41,-1248.77"/>
</g>
<!-- Node13 -->
<g id="node11" class="node">
<title>Node13</title>
<g id="a_node11"><a xlink:href="classApexi.html#a3ecd8445700ab9532fc051325f66d03d" target="_top" xlink:title=" ">
<polygon fill="white" stroke="red" points="300,-646.5 300,-665.5 394,-665.5 394,-646.5 300,-646.5"/>
<text text-anchor="middle" x="347" y="-653.5" font-family="Helvetica,sans-Serif" font-size="10.00">Apexi::decodeAdv</text>
</a>
</g>
</g>
<!-- Node2&#45;&gt;Node13 -->
<g id="edge11" class="edge">
<title>Node2&#45;&gt;Node13</title>
<path fill="none" stroke="midnightblue" d="M225.1,-1066.31C231.41,-1063.6 237.35,-1059.94 242,-1055 295.53,-998.07 333.4,-748.05 343.38,-675.69"/>
<polygon fill="midnightblue" stroke="midnightblue" points="346.87,-676.03 344.74,-665.66 339.93,-675.09 346.87,-676.03"/>
</g>
<!-- Node49 -->
<g id="node43" class="node">
<title>Node49</title>
<g id="a_node43"><a xlink:href="classApexi.html#af82382a1e22fdac04180f1734d59461f" target="_top" xlink:title=" ">
<polygon fill="white" stroke="red" points="300.5,-608.5 300.5,-627.5 393.5,-627.5 393.5,-608.5 300.5,-608.5"/>
<text text-anchor="middle" x="347" y="-615.5" font-family="Helvetica,sans-Serif" font-size="10.00">Apexi::decodeAux</text>
</a>
</g>
</g>
<!-- Node2&#45;&gt;Node49 -->
<g id="edge43" class="edge">
<title>Node2&#45;&gt;Node49</title>
<path fill="none" stroke="midnightblue" d="M225.25,-1067.2C231.7,-1064.4 237.66,-1060.48 242,-1055 299.9,-981.93 218.5,-708.78 278,-637 281.57,-632.69 286.03,-629.32 290.94,-626.68"/>
<polygon fill="midnightblue" stroke="midnightblue" points="292.4,-629.86 300.19,-622.69 289.62,-623.44 292.4,-629.86"/>
</g>
<!-- Node52 -->
<g id="node44" class="node">
<title>Node52</title>
<g id="a_node44"><a xlink:href="classApexi.html#af3dad564d7c3cca0e98f5944e5e27cdf" target="_top" xlink:title=" ">
<polygon fill="white" stroke="red" points="296.5,-1026.5 296.5,-1045.5 397.5,-1045.5 397.5,-1026.5 296.5,-1026.5"/>
<text text-anchor="middle" x="347" y="-1033.5" font-family="Helvetica,sans-Serif" font-size="10.00">Apexi::decodeBasic</text>
</a>
</g>
</g>
<!-- Node2&#45;&gt;Node52 -->
<g id="edge44" class="edge">
<title>Node2&#45;&gt;Node52</title>
<path fill="none" stroke="midnightblue" d="M224.88,-1064.41C246.35,-1059.37 272.86,-1053.16 295.6,-1047.82"/>
<polygon fill="midnightblue" stroke="midnightblue" points="296.48,-1051.21 305.41,-1045.52 294.88,-1044.4 296.48,-1051.21"/>
</g>
<!-- Node55 -->
<g id="node45" class="node">
<title>Node55</title>
<g id="a_node45"><a xlink:href="classApexi.html#aaa77337f30dd52330c1070ce161eea83" target="_top" xlink:title=" ">
<polygon fill="white" stroke="red" points="302,-570.5 302,-589.5 392,-589.5 392,-570.5 302,-570.5"/>
<text text-anchor="middle" x="347" y="-577.5" font-family="Helvetica,sans-Serif" font-size="10.00">Apexi::decodeInit</text>
</a>
</g>
</g>
<!-- Node2&#45;&gt;Node55 -->
<g id="edge51" class="edge">
<title>Node2&#45;&gt;Node55</title>
<path fill="none" stroke="midnightblue" d="M225.28,-1067.22C231.73,-1064.42 237.68,-1060.5 242,-1055 304.84,-975.11 213.41,-677.49 278,-599 281.89,-594.27 286.86,-590.66 292.32,-587.92"/>
<polygon fill="midnightblue" stroke="midnightblue" points="293.93,-591.05 301.9,-584.08 291.32,-584.55 293.93,-591.05"/>
</g>
<!-- Node57 -->
<g id="node46" class="node">
<title>Node57</title>
<g id="a_node46"><a xlink:href="classApexi.html#a8434798529c3e79a33445e2ba626d8a2" target="_top" xlink:title=" ">
<polygon fill="white" stroke="black" points="299.5,-532.5 299.5,-551.5 394.5,-551.5 394.5,-532.5 299.5,-532.5"/>
<text text-anchor="middle" x="347" y="-539.5" font-family="Helvetica,sans-Serif" font-size="10.00">Apexi::decodeMap</text>
</a>
</g>
</g>
<!-- Node2&#45;&gt;Node57 -->
<g id="edge52" class="edge">
<title>Node2&#45;&gt;Node57</title>
<path fill="none" stroke="midnightblue" d="M225.01,-1067.37C231.57,-1064.56 237.63,-1060.59 242,-1055 309.79,-968.28 208.32,-646.2 278,-561 281.36,-556.89 285.52,-553.63 290.13,-551.05"/>
<polygon fill="midnightblue" stroke="midnightblue" points="291.74,-554.16 299.42,-546.87 288.87,-547.78 291.74,-554.16"/>
</g>
<!-- Node58 -->
<g id="node47" class="node">
<title>Node58</title>
<g id="a_node47"><a xlink:href="classApexi.html#a6ce2b40858fc637448d1f6dc27e10a70" target="_top" xlink:title=" ">
<polygon fill="white" stroke="red" points="293.5,-1140.5 293.5,-1159.5 400.5,-1159.5 400.5,-1140.5 293.5,-1140.5"/>
<text text-anchor="middle" x="347" y="-1147.5" font-family="Helvetica,sans-Serif" font-size="10.00">Apexi::decodeSensor</text>
</a>
</g>
</g>
<!-- Node2&#45;&gt;Node58 -->
<g id="edge53" class="edge">
<title>Node2&#45;&gt;Node58</title>
<path fill="none" stroke="midnightblue" d="M197.07,-1083.52C214.68,-1095.96 247.35,-1117.72 278,-1131 283.4,-1133.34 289.18,-1135.47 294.98,-1137.39"/>
<polygon fill="midnightblue" stroke="midnightblue" points="294.15,-1140.8 304.74,-1140.42 296.23,-1134.11 294.15,-1140.8"/>
</g>
<!-- Node83 -->
<g id="node48" class="node">
<title>Node83</title>
<g id="a_node48"><a xlink:href="classApexi.html#a45f8db235553ca011083224aec6b3892" target="_top" xlink:title=" ">
<polygon fill="white" stroke="red" points="278,-1102.5 278,-1121.5 416,-1121.5 416,-1102.5 278,-1102.5"/>
<text text-anchor="middle" x="347" y="-1109.5" font-family="Helvetica,sans-Serif" font-size="10.00">Apexi::decodeSensorStrings</text>
</a>
</g>
</g>
<!-- Node2&#45;&gt;Node83 -->
<g id="edge54" class="edge">
<title>Node2&#45;&gt;Node83</title>
<path fill="none" stroke="midnightblue" d="M224.88,-1083.59C246.35,-1088.63 272.86,-1094.84 295.6,-1100.18"/>
<polygon fill="midnightblue" stroke="midnightblue" points="294.88,-1103.6 305.41,-1102.48 296.48,-1096.79 294.88,-1103.6"/>
</g>
<!-- Node108 -->
<g id="node49" class="node">
<title>Node108</title>
<g id="a_node49"><a xlink:href="classApexi.html#af3673b74b8aebe06a2b2f9ed81c23ee4" target="_top" xlink:title=" ">
<polygon fill="white" stroke="red" points="298,-1064.5 298,-1083.5 396,-1083.5 396,-1064.5 298,-1064.5"/>
<text text-anchor="middle" x="347" y="-1071.5" font-family="Helvetica,sans-Serif" font-size="10.00">Apexi::retryconnect</text>
</a>
</g>
</g>
<!-- Node2&#45;&gt;Node108 -->
<g id="edge55" class="edge">
<title>Node2&#45;&gt;Node108</title>
<path fill="none" stroke="midnightblue" d="M225.3,-1074C244.22,-1074 266.99,-1074 287.63,-1074"/>
<polygon fill="midnightblue" stroke="midnightblue" points="287.88,-1077.5 297.88,-1074 287.88,-1070.5 287.88,-1077.5"/>
</g>
<!-- Node4 -->
<g id="node4" class="node">
<title>Node4</title>
<g id="a_node4"><a xlink:href="classApexi.html#a8a8a56251df881cc9eb49f1f20332fda" target="_top" xlink:title=" ">
<polygon fill="white" stroke="black" points="454.5,-1216.5 454.5,-1235.5 583.5,-1235.5 583.5,-1216.5 454.5,-1216.5"/>
<text text-anchor="middle" x="519" y="-1223.5" font-family="Helvetica,sans-Serif" font-size="10.00">Apexi::handleBytesWritten</text>
</a>
</g>
</g>
<!-- Node3&#45;&gt;Node4 -->
<g id="edge3" class="edge">
<title>Node3&#45;&gt;Node4</title>
<path fill="none" stroke="midnightblue" d="M390.9,-1254.41C413.53,-1249.35 441.5,-1243.1 465.43,-1237.75"/>
<polygon fill="midnightblue" stroke="midnightblue" points="466.41,-1241.12 475.41,-1235.52 464.89,-1234.29 466.41,-1241.12"/>
</g>
<!-- Node5 -->
<g id="node5" class="node">
<title>Node5</title>
<g id="a_node5"><a xlink:href="classApexi.html#a6c775f27e878959c047bb9c252064cfe" target="_top" xlink:title=" ">
<polygon fill="white" stroke="red" points="472,-1254.5 472,-1273.5 566,-1273.5 566,-1254.5 472,-1254.5"/>
<text text-anchor="middle" x="519" y="-1261.5" font-family="Helvetica,sans-Serif" font-size="10.00">Apexi::handleError</text>
</a>
</g>
</g>
<!-- Node3&#45;&gt;Node5 -->
<g id="edge4" class="edge">
<title>Node3&#45;&gt;Node5</title>
<path fill="none" stroke="midnightblue" d="M405.55,-1264C423.68,-1264 443.66,-1264 461.69,-1264"/>
<polygon fill="midnightblue" stroke="midnightblue" points="461.77,-1267.5 471.77,-1264 461.77,-1260.5 461.77,-1267.5"/>
</g>
<!-- Node7 -->
<g id="node6" class="node">
<title>Node7</title>
<g id="a_node6"><a xlink:href="classApexi.html#a9c813630d2b2a70b7e098ae10220103e" target="_top" xlink:title=" ">
<polygon fill="white" stroke="red" points="464.5,-1292.5 464.5,-1311.5 573.5,-1311.5 573.5,-1292.5 464.5,-1292.5"/>
<text text-anchor="middle" x="519" y="-1299.5" font-family="Helvetica,sans-Serif" font-size="10.00">Apexi::handleTimeout</text>
</a>
</g>
</g>
<!-- Node3&#45;&gt;Node7 -->
<g id="edge5" class="edge">
<title>Node3&#45;&gt;Node7</title>
<path fill="none" stroke="midnightblue" d="M390.9,-1273.59C413.53,-1278.65 441.5,-1284.9 465.43,-1290.25"/>
<polygon fill="midnightblue" stroke="midnightblue" points="464.89,-1293.71 475.41,-1292.48 466.41,-1286.88 464.89,-1293.71"/>
</g>
<!-- Node11 -->
<g id="node10" class="node">
<title>Node11</title>
<g id="a_node10"><a xlink:href="classApexi.html#abe3bf6800fce8a4c713a08c14474d625" target="_top" xlink:title=" ">
<polygon fill="white" stroke="red" points="468,-1330.5 468,-1349.5 570,-1349.5 570,-1330.5 468,-1330.5"/>
<text text-anchor="middle" x="519" y="-1337.5" font-family="Helvetica,sans-Serif" font-size="10.00">Apexi::readyToRead</text>
</a>
</g>
</g>
<!-- Node3&#45;&gt;Node11 -->
<g id="edge9" class="edge">
<title>Node3&#45;&gt;Node11</title>
<path fill="none" stroke="midnightblue" d="M362.98,-1273.6C382.73,-1285.92 418.88,-1307.35 452,-1321 457.58,-1323.3 463.53,-1325.43 469.49,-1327.37"/>
<polygon fill="midnightblue" stroke="midnightblue" points="468.88,-1330.85 479.47,-1330.46 470.95,-1324.16 468.88,-1330.85"/>
</g>
<!-- Node7&#45;&gt;Node8 -->
<g id="edge6" class="edge">
<title>Node7&#45;&gt;Node8</title>
<path fill="none" stroke="midnightblue" d="M562.65,-1311.59C585.15,-1316.65 612.95,-1322.9 636.74,-1328.25"/>
<polygon fill="midnightblue" stroke="midnightblue" points="636.14,-1331.7 646.66,-1330.48 637.67,-1324.87 636.14,-1331.7"/>
</g>
<!-- Node7&#45;&gt;Node10 -->
<g id="edge8" class="edge">
<title>Node7&#45;&gt;Node10</title>
<path fill="none" stroke="midnightblue" d="M562.65,-1292.41C585.15,-1287.35 612.95,-1281.1 636.74,-1275.75"/>
<polygon fill="midnightblue" stroke="midnightblue" points="637.67,-1279.13 646.66,-1273.52 636.14,-1272.3 637.67,-1279.13"/>
</g>
<!-- Node9 -->
<g id="node8" class="node">
<title>Node9</title>
<g id="a_node8"><a xlink:href="classApexi.html#af312531b1dbc60175016a82881203f18" target="_top" xlink:title=" ">
<polygon fill="white" stroke="red" points="794,-1330.5 794,-1349.5 916,-1349.5 916,-1330.5 794,-1330.5"/>
<text text-anchor="middle" x="855" y="-1337.5" font-family="Helvetica,sans-Serif" font-size="10.00">Apexi::writeRequestPFC</text>
</a>
</g>
</g>
<!-- Node8&#45;&gt;Node9 -->
<g id="edge7" class="edge">
<title>Node8&#45;&gt;Node9</title>
<path fill="none" stroke="midnightblue" d="M741.24,-1340C754.63,-1340 769.36,-1340 783.62,-1340"/>
<polygon fill="midnightblue" stroke="midnightblue" points="783.9,-1343.5 793.9,-1340 783.9,-1336.5 783.9,-1343.5"/>
</g>
<!-- Node11&#45;&gt;Node1 -->
<g id="edge10" class="edge">
<title>Node11&#45;&gt;Node1</title>
<path fill="none" stroke="midnightblue" d="M467.74,-1330.42C418.75,-1320.52 342.44,-1303.65 278,-1283 203.16,-1259.01 118.45,-1221.83 74.69,-1201.84"/>
<polygon fill="midnightblue" stroke="midnightblue" points="76.04,-1198.6 65.49,-1197.61 73.11,-1204.96 76.04,-1198.6"/>
</g>
<!-- Node14 -->
<g id="node12" class="node">
<title>Node14</title>
<g id="a_node12"><a xlink:href="classDashBoard.html#a21635845a2258c7dbe2a7f2f7ec32345" target="_top" xlink:title=" ">
<polygon fill="white" stroke="black" points="459,-1102.5 459,-1121.5 579,-1121.5 579,-1102.5 459,-1102.5"/>
<text text-anchor="middle" x="519" y="-1109.5" font-family="Helvetica,sans-Serif" font-size="10.00">DashBoard::setBatteryV</text>
</a>
</g>
</g>
<!-- Node13&#45;&gt;Node14 -->
<g id="edge12" class="edge">
<title>Node13&#45;&gt;Node14</title>
<path fill="none" stroke="midnightblue" d="M349.68,-665.54C360.47,-726.53 420.7,-1060.21 452,-1093 453.39,-1094.46 454.88,-1095.8 456.46,-1097.05"/>
<polygon fill="midnightblue" stroke="midnightblue" points="454.64,-1100.04 464.95,-1102.47 458.4,-1094.14 454.64,-1100.04"/>
</g>
<!-- Node15 -->
<g id="node13" class="node">
<title>Node15</title>
<g id="a_node13"><a xlink:href="classDashBoard.html#a864f44aaf83510cc38b81e3efc7f1da6" target="_top" xlink:title=" ">
<polygon fill="white" stroke="black" points="455,-456.5 455,-475.5 583,-475.5 583,-456.5 455,-456.5"/>
<text text-anchor="middle" x="519" y="-463.5" font-family="Helvetica,sans-Serif" font-size="10.00">DashBoard::setBoostDuty</text>
</a>
</g>
</g>
<!-- Node13&#45;&gt;Node15 -->
<g id="edge13" class="edge">
<title>Node13&#45;&gt;Node15</title>
<path fill="none" stroke="midnightblue" d="M394.11,-650.28C402.28,-647.41 410.05,-643.19 416,-637 464.1,-586.94 404.1,-535.25 452,-485 453.39,-483.54 454.88,-482.2 456.46,-480.95"/>
<polygon fill="midnightblue" stroke="midnightblue" points="458.4,-483.86 464.95,-475.53 454.63,-477.96 458.4,-483.86"/>
</g>
<!-- Node16 -->
<g id="node14" class="node">
<title>Node16</title>
<g id="a_node14"><a xlink:href="classDashBoard.html#af865e5a3912f8100d831f01333a4fef9" target="_top" xlink:title=" ">
<polygon fill="white" stroke="black" points="461,-418.5 461,-437.5 577,-437.5 577,-418.5 461,-418.5"/>
<text text-anchor="middle" x="519" y="-425.5" font-family="Helvetica,sans-Serif" font-size="10.00">DashBoard::setBoosttp</text>
</a>
</g>
</g>
<!-- Node13&#45;&gt;Node16 -->
<g id="edge14" class="edge">
<title>Node13&#45;&gt;Node16</title>
<path fill="none" stroke="midnightblue" d="M394.34,-650.49C402.48,-647.6 410.2,-643.32 416,-637 474.13,-573.69 394.12,-510.53 452,-447 453.21,-445.67 454.52,-444.42 455.89,-443.27"/>
<polygon fill="midnightblue" stroke="midnightblue" points="458.09,-446.01 464.45,-437.53 454.19,-440.19 458.09,-446.01"/>
</g>
<!-- Node17 -->
<g id="node15" class="node">
<title>Node17</title>
<g id="a_node15"><a xlink:href="classDashBoard.html#ad7eafea8b5a643e82155945495ff2aef" target="_top" xlink:title=" ">
<polygon fill="white" stroke="black" points="458.5,-380.5 458.5,-399.5 579.5,-399.5 579.5,-380.5 458.5,-380.5"/>
<text text-anchor="middle" x="519" y="-387.5" font-family="Helvetica,sans-Serif" font-size="10.00">DashBoard::setBoostwg</text>
</a>
</g>
</g>
<!-- Node13&#45;&gt;Node17 -->
<g id="edge15" class="edge">
<title>Node13&#45;&gt;Node17</title>
<path fill="none" stroke="midnightblue" d="M394.14,-650.76C402.4,-647.86 410.21,-643.5 416,-637 484.22,-560.38 384.08,-485.89 452,-409 453.17,-407.68 454.42,-406.45 455.74,-405.3"/>
<polygon fill="midnightblue" stroke="midnightblue" points="457.77,-408.15 464.01,-399.59 453.79,-402.39 457.77,-408.15"/>
</g>
<!-- Node18 -->
<g id="node16" class="node">
<title>Node18</title>
<g id="a_node16"><a xlink:href="classDashBoard.html#aa34fb9a1bc1ffbf895c0dc507dacfe03" target="_top" xlink:title=" ">
<polygon fill="white" stroke="black" points="465.5,-342.5 465.5,-361.5 572.5,-361.5 572.5,-342.5 465.5,-342.5"/>
<text text-anchor="middle" x="519" y="-349.5" font-family="Helvetica,sans-Serif" font-size="10.00">DashBoard::setDwell</text>
</a>
</g>
</g>
<!-- Node13&#45;&gt;Node18 -->
<g id="edge16" class="edge">
<title>Node13&#45;&gt;Node18</title>
<path fill="none" stroke="midnightblue" d="M394.26,-650.86C402.51,-647.95 410.28,-643.56 416,-637 494.34,-547.03 374.01,-461.28 452,-371 453.37,-369.41 454.87,-367.95 456.47,-366.61"/>
<polygon fill="midnightblue" stroke="midnightblue" points="458.78,-369.27 465.18,-360.83 454.91,-363.44 458.78,-369.27"/>
</g>
<!-- Node19 -->
<g id="node17" class="node">
<title>Node19</title>
<g id="a_node17"><a xlink:href="classDashBoard.html#afa98f53f1555f3bff79f49a6e12b5d9e" target="_top" xlink:title=" ">
<polygon fill="white" stroke="black" points="458.5,-304.5 458.5,-323.5 579.5,-323.5 579.5,-304.5 458.5,-304.5"/>
<text text-anchor="middle" x="519" y="-311.5" font-family="Helvetica,sans-Serif" font-size="10.00">DashBoard::setEngLoad</text>
</a>
</g>
</g>
<!-- Node13&#45;&gt;Node19 -->
<g id="edge17" class="edge">
<title>Node13&#45;&gt;Node19</title>
<path fill="none" stroke="midnightblue" d="M394.34,-650.93C402.59,-648.02 410.34,-643.61 416,-637 504.49,-533.65 363.92,-436.69 452,-333 453.01,-331.81 454.1,-330.69 455.24,-329.63"/>
<polygon fill="midnightblue" stroke="midnightblue" points="457.49,-332.33 463.54,-323.63 453.39,-326.65 457.49,-332.33"/>
</g>
<!-- Node20 -->
<g id="node18" class="node">
<title>Node20</title>
<g id="a_node18"><a xlink:href="classDashBoard.html#aebb7249e22bce5067a7d473e6ae0085c" target="_top" xlink:title=" ">
<polygon fill="white" stroke="black" points="465.5,-266.5 465.5,-285.5 572.5,-285.5 572.5,-266.5 465.5,-266.5"/>
<text text-anchor="middle" x="519" y="-273.5" font-family="Helvetica,sans-Serif" font-size="10.00">DashBoard::setFuelc</text>
</a>
</g>
</g>
<!-- Node13&#45;&gt;Node20 -->
<g id="edge18" class="edge">
<title>Node13&#45;&gt;Node20</title>
<path fill="none" stroke="midnightblue" d="M394.06,-651.11C402.43,-648.19 410.3,-643.74 416,-637 514.65,-520.26 353.81,-412.13 452,-295 453.49,-293.22 455.14,-291.6 456.92,-290.12"/>
<polygon fill="midnightblue" stroke="midnightblue" points="458.94,-292.98 465.37,-284.56 455.09,-287.13 458.94,-292.98"/>
</g>
<!-- Node21 -->
<g id="node19" class="node">
<title>Node21</title>
<g id="a_node19"><a xlink:href="classDashBoard.html#ad7fb1721d5cd8770078da5e7d5d6b655" target="_top" xlink:title=" ">
<polygon fill="white" stroke="black" points="457.5,-228.5 457.5,-247.5 580.5,-247.5 580.5,-228.5 457.5,-228.5"/>
<text text-anchor="middle" x="519" y="-235.5" font-family="Helvetica,sans-Serif" font-size="10.00">DashBoard::setFueltemp</text>
</a>
</g>
</g>
<!-- Node13&#45;&gt;Node21 -->
<g id="edge19" class="edge">
<title>Node13&#45;&gt;Node21</title>
<path fill="none" stroke="midnightblue" d="M394.12,-651.16C402.48,-648.24 410.34,-643.77 416,-637 470.41,-571.93 397.85,-322.29 452,-257 453,-255.8 454.07,-254.66 455.2,-253.6"/>
<polygon fill="midnightblue" stroke="midnightblue" points="457.46,-256.29 463.45,-247.55 453.32,-250.64 457.46,-256.29"/>
</g>
<!-- Node22 -->
<g id="node20" class="node">
<title>Node22</title>
<g id="a_node20"><a xlink:href="classDashBoard.html#ad46278eecba8d5643f84cea9eafa1bce" target="_top" xlink:title=" ">
<polygon fill="white" stroke="black" points="471,-190.5 471,-209.5 567,-209.5 567,-190.5 471,-190.5"/>
<text text-anchor="middle" x="519" y="-197.5" font-family="Helvetica,sans-Serif" font-size="10.00">DashBoard::setIgn</text>
</a>
</g>
</g>
<!-- Node13&#45;&gt;Node22 -->
<g id="edge20" class="edge">
<title>Node13&#45;&gt;Node22</title>
<path fill="none" stroke="midnightblue" d="M394.16,-651.19C402.52,-648.27 410.37,-643.79 416,-637 475.5,-565.22 392.78,-291.01 452,-219 454.77,-215.63 458.09,-212.84 461.76,-210.53"/>
<polygon fill="midnightblue" stroke="midnightblue" points="463.47,-213.58 470.82,-205.95 460.32,-207.33 463.47,-213.58"/>
</g>
<!-- Node23 -->
<g id="node21" class="node">
<title>Node23</title>
<g id="a_node21"><a xlink:href="classDashBoard.html#a6f4952eb15d3b4c0c2eaacf37fb2c96b" target="_top" xlink:title=" ">
<polygon fill="white" stroke="black" points="466,-152.5 466,-171.5 572,-171.5 572,-152.5 466,-152.5"/>
<text text-anchor="middle" x="519" y="-159.5" font-family="Helvetica,sans-Serif" font-size="10.00">DashBoard::setinjms</text>
</a>
</g>
</g>
<!-- Node13&#45;&gt;Node23 -->
<g id="edge21" class="edge">
<title>Node13&#45;&gt;Node23</title>
<path fill="none" stroke="midnightblue" d="M394.2,-651.22C402.56,-648.3 410.39,-643.81 416,-637 480.59,-558.51 387.72,-259.74 452,-181 453.53,-179.12 455.24,-177.43 457.08,-175.89"/>
<polygon fill="midnightblue" stroke="midnightblue" points="459.43,-178.53 465.89,-170.14 455.61,-172.67 459.43,-178.53"/>
</g>
<!-- Node24 -->
<g id="node22" class="node">
<title>Node24</title>
<g id="a_node22"><a xlink:href="classDashBoard.html#a31caf833ec71b5a8135fd39859f4c2f5" target="_top" xlink:title=" ">
<polygon fill="white" stroke="black" points="452,-114.5 452,-133.5 586,-133.5 586,-114.5 452,-114.5"/>
<text text-anchor="middle" x="519" y="-121.5" font-family="Helvetica,sans-Serif" font-size="10.00">DashBoard::setIntakepress</text>
</a>
</g>
</g>
<!-- Node13&#45;&gt;Node24 -->
<g id="edge22" class="edge">
<title>Node13&#45;&gt;Node24</title>
<path fill="none" stroke="midnightblue" d="M394.23,-651.25C402.59,-648.32 410.41,-643.83 416,-637 485.68,-551.8 382.65,-228.47 452,-143 452.87,-141.93 453.79,-140.92 454.76,-139.97"/>
<polygon fill="midnightblue" stroke="midnightblue" points="457.21,-142.5 463.05,-133.66 452.98,-136.93 457.21,-142.5"/>
</g>
<!-- Node25 -->
<g id="node23" class="node">
<title>Node25</title>
<g id="a_node23"><a xlink:href="classDashBoard.html#ae4d194cbb50c7c36bd2d0b2be6b21e6d" target="_top" xlink:title=" ">
<polygon fill="white" stroke="black" points="453.5,-1064.5 453.5,-1083.5 584.5,-1083.5 584.5,-1064.5 453.5,-1064.5"/>
<text text-anchor="middle" x="519" y="-1071.5" font-family="Helvetica,sans-Serif" font-size="10.00">DashBoard::setIntaketemp</text>
</a>
</g>
</g>
<!-- Node13&#45;&gt;Node25 -->
<g id="edge23" class="edge">
<title>Node13&#45;&gt;Node25</title>
<path fill="none" stroke="midnightblue" d="M349.22,-665.69C356.38,-720.96 394.53,-996.06 452,-1055 453.4,-1056.44 454.91,-1057.77 456.5,-1059.01"/>
<polygon fill="midnightblue" stroke="midnightblue" points="454.71,-1062.02 465.03,-1064.38 458.44,-1056.09 454.71,-1062.02"/>
</g>
<!-- Node26 -->
<g id="node24" class="node">
<title>Node26</title>
<g id="a_node24"><a xlink:href="classDashBoard.html#add4eafa05b50837f81332bd06b76f36d" target="_top" xlink:title=" ">
<polygon fill="white" stroke="black" points="459.5,-76.5 459.5,-95.5 578.5,-95.5 578.5,-76.5 459.5,-76.5"/>
<text text-anchor="middle" x="519" y="-83.5" font-family="Helvetica,sans-Serif" font-size="10.00">DashBoard::setIscvduty</text>
</a>
</g>
</g>
<!-- Node13&#45;&gt;Node26 -->
<g id="edge24" class="edge">
<title>Node13&#45;&gt;Node26</title>
<path fill="none" stroke="midnightblue" d="M394.26,-651.27C402.61,-648.34 410.43,-643.85 416,-637 490.78,-545.08 377.58,-197.21 452,-105 452.86,-103.93 453.78,-102.92 454.75,-101.96"/>
<polygon fill="midnightblue" stroke="midnightblue" points="457.2,-104.49 463.03,-95.64 452.96,-98.93 457.2,-104.49"/>
</g>
<!-- Node27 -->
<g id="node25" class="node">
<title>Node27</title>
<g id="a_node25"><a xlink:href="classDashBoard.html#acf7ff86dcbb34ee7661c1904191cf7a9" target="_top" xlink:title=" ">
<polygon fill="white" stroke="black" points="464,-1026.5 464,-1045.5 574,-1045.5 574,-1026.5 464,-1026.5"/>
<text text-anchor="middle" x="519" y="-1033.5" font-family="Helvetica,sans-Serif" font-size="10.00">DashBoard::setKnock</text>
</a>
</g>
</g>
<!-- Node13&#45;&gt;Node27 -->
<g id="edge25" class="edge">
<title>Node13&#45;&gt;Node27</title>
<path fill="none" stroke="midnightblue" d="M347.65,-665.72C346.52,-712.12 347.99,-913.01 452,-1017 453.45,-1018.45 455.01,-1019.8 456.65,-1021.04"/>
<polygon fill="midnightblue" stroke="midnightblue" points="455.1,-1024.2 465.46,-1026.45 458.77,-1018.23 455.1,-1024.2"/>
</g>
<!-- Node28 -->
<g id="node26" class="node">
<title>Node28</title>
<g id="a_node26"><a xlink:href="classDashBoard.html#a4e90fc531b31a84fa122ade9bdc2ecf1" target="_top" xlink:title=" ">
<polygon fill="white" stroke="black" points="454,-988.5 454,-1007.5 584,-1007.5 584,-988.5 454,-988.5"/>
<text text-anchor="middle" x="519" y="-995.5" font-family="Helvetica,sans-Serif" font-size="10.00">DashBoard::setLeadingign</text>
</a>
</g>
</g>
<!-- Node13&#45;&gt;Node28 -->
<g id="edge26" class="edge">
<title>Node13&#45;&gt;Node28</title>
<path fill="none" stroke="midnightblue" d="M348.03,-665.57C348.69,-708.74 357.24,-887.16 452,-979 453.63,-980.58 455.39,-982.04 457.25,-983.37"/>
<polygon fill="midnightblue" stroke="midnightblue" points="455.51,-986.41 465.9,-988.49 459.07,-980.39 455.51,-986.41"/>
</g>
<!-- Node29 -->
<g id="node27" class="node">
<title>Node29</title>
<g id="a_node27"><a xlink:href="classDashBoard.html#a19ed911149392a939ade24ef44180dec" target="_top" xlink:title=" ">
<polygon fill="white" stroke="black" points="461,-38.5 461,-57.5 577,-57.5 577,-38.5 461,-38.5"/>
<text text-anchor="middle" x="519" y="-45.5" font-family="Helvetica,sans-Serif" font-size="10.00">DashBoard::setMAF1V</text>
</a>
</g>
</g>
<!-- Node13&#45;&gt;Node29 -->
<g id="edge27" class="edge">
<title>Node13&#45;&gt;Node29</title>
<path fill="none" stroke="midnightblue" d="M394.28,-651.29C402.64,-648.36 410.45,-643.86 416,-637 495.88,-538.37 372.51,-165.94 452,-67 452.86,-65.93 453.78,-64.91 454.75,-63.96"/>
<polygon fill="midnightblue" stroke="midnightblue" points="457.2,-66.49 463.02,-57.63 452.95,-60.93 457.2,-66.49"/>
</g>
<!-- Node30 -->
<g id="node28" class="node">
<title>Node30</title>
<g id="a_node28"><a xlink:href="classDashBoard.html#a584d76fb3dc3faa498611cdc0a7d572a" target="_top" xlink:title=" ">
<polygon fill="white" stroke="black" points="461,-0.5 461,-19.5 577,-19.5 577,-0.5 461,-0.5"/>
<text text-anchor="middle" x="519" y="-7.5" font-family="Helvetica,sans-Serif" font-size="10.00">DashBoard::setMAF2V</text>
</a>
</g>
</g>
<!-- Node13&#45;&gt;Node30 -->
<g id="edge28" class="edge">
<title>Node13&#45;&gt;Node30</title>
<path fill="none" stroke="midnightblue" d="M394.3,-651.31C402.66,-648.38 410.46,-643.87 416,-637 500.97,-531.65 367.44,-134.68 452,-29 452.86,-27.93 453.77,-26.91 454.74,-25.95"/>
<polygon fill="midnightblue" stroke="midnightblue" points="457.19,-28.48 463,-19.62 452.93,-22.92 457.19,-28.48"/>
</g>
<!-- Node31 -->
<g id="node29" class="node">
<title>Node31</title>
<g id="a_node29"><a xlink:href="classDashBoard.html#a0cf0a1970e9c2c02886e8587966f6abc" target="_top" xlink:title=" ">
<polygon fill="white" stroke="black" points="452,-912.5 452,-931.5 586,-931.5 586,-912.5 452,-912.5"/>
<text text-anchor="middle" x="519" y="-919.5" font-family="Helvetica,sans-Serif" font-size="10.00">DashBoard::setMAFactivity</text>
</a>
</g>
</g>
<!-- Node13&#45;&gt;Node31 -->
<g id="edge29" class="edge">
<title>Node13&#45;&gt;Node31</title>
<path fill="none" stroke="midnightblue" d="M349.12,-665.75C353.87,-702.68 375.82,-835.33 452,-903 453.77,-904.58 455.67,-906.02 457.66,-907.35"/>
<polygon fill="midnightblue" stroke="midnightblue" points="456.45,-910.68 466.9,-912.43 459.82,-904.54 456.45,-910.68"/>
</g>
<!-- Node32 -->
<g id="node30" class="node">
<title>Node32</title>
<g id="a_node30"><a xlink:href="classDashBoard.html#a5480aa312813d238574e103a52bef81f" target="_top" xlink:title=" ">
<polygon fill="white" stroke="black" points="466,-874.5 466,-893.5 572,-893.5 572,-874.5 466,-874.5"/>
<text text-anchor="middle" x="519" y="-881.5" font-family="Helvetica,sans-Serif" font-size="10.00">DashBoard::setMoilp</text>
</a>
</g>
</g>
<!-- Node13&#45;&gt;Node32 -->
<g id="edge30" class="edge">
<title>Node13&#45;&gt;Node32</title>
<path fill="none" stroke="midnightblue" d="M349.9,-665.61C356.94,-698.7 384.75,-808.96 452,-865 454.04,-866.7 456.23,-868.25 458.53,-869.67"/>
<polygon fill="midnightblue" stroke="midnightblue" points="457.31,-872.98 467.8,-874.45 460.52,-866.76 457.31,-872.98"/>
</g>
<!-- Node33 -->
<g id="node31" class="node">
<title>Node33</title>
<g id="a_node31"><a xlink:href="classDashBoard.html#a4ddbc9f8b9001cf29ead004af11e972d" target="_top" xlink:title=" ">
<polygon fill="white" stroke="black" points="470,-836.5 470,-855.5 568,-855.5 568,-836.5 470,-836.5"/>
<text text-anchor="middle" x="519" y="-843.5" font-family="Helvetica,sans-Serif" font-size="10.00">DashBoard::setna1</text>
</a>
</g>
</g>
<!-- Node13&#45;&gt;Node33 -->
<g id="edge31" class="edge">
<title>Node13&#45;&gt;Node33</title>
<path fill="none" stroke="midnightblue" d="M351.11,-665.87C360.87,-695.19 393.74,-782.49 452,-827 454.65,-829.03 457.52,-830.84 460.51,-832.45"/>
<polygon fill="midnightblue" stroke="midnightblue" points="459.26,-835.73 469.81,-836.75 462.2,-829.38 459.26,-835.73"/>
</g>
<!-- Node34 -->
<g id="node32" class="node">
<title>Node34</title>
<g id="a_node32"><a xlink:href="classDashBoard.html#a3992060dbefe28848e9e2a0163a7df21" target="_top" xlink:title=" ">
<polygon fill="white" stroke="black" points="470,-798.5 470,-817.5 568,-817.5 568,-798.5 470,-798.5"/>
<text text-anchor="middle" x="519" y="-805.5" font-family="Helvetica,sans-Serif" font-size="10.00">DashBoard::setna2</text>
</a>
</g>
</g>
<!-- Node13&#45;&gt;Node34 -->
<g id="edge32" class="edge">
<title>Node13&#45;&gt;Node34</title>
<path fill="none" stroke="midnightblue" d="M352.81,-665.73C365.47,-690.32 402.19,-755.38 452,-789 454.96,-790.99 458.12,-792.78 461.41,-794.39"/>
<polygon fill="midnightblue" stroke="midnightblue" points="460.34,-797.74 470.92,-798.43 463.08,-791.29 460.34,-797.74"/>
</g>
<!-- Node35 -->
<g id="node33" class="node">
<title>Node35</title>
<g id="a_node33"><a xlink:href="classDashBoard.html#a36e46c92b433846ab5932b5622e69905" target="_top" xlink:title=" ">
<polygon fill="white" stroke="black" points="463.5,-760.5 463.5,-779.5 574.5,-779.5 574.5,-760.5 463.5,-760.5"/>
<text text-anchor="middle" x="519" y="-767.5" font-family="Helvetica,sans-Serif" font-size="10.00">DashBoard::setO2volt</text>
</a>
</g>
</g>
<!-- Node13&#45;&gt;Node35 -->
<g id="edge33" class="edge">
<title>Node13&#45;&gt;Node35</title>
<path fill="none" stroke="midnightblue" d="M355.81,-665.64C371.83,-684.78 410.39,-727.71 452,-751 455.97,-753.22 460.22,-755.2 464.59,-756.97"/>
<polygon fill="midnightblue" stroke="midnightblue" points="463.65,-760.35 474.25,-760.49 466.05,-753.78 463.65,-760.35"/>
</g>
<!-- Node36 -->
<g id="node34" class="node">
<title>Node36</title>
<g id="a_node34"><a xlink:href="classDashBoard.html#a1ff480e57034d577177325f86cba2108" target="_top" xlink:title=" ">
<polygon fill="white" stroke="black" points="458,-722.5 458,-741.5 580,-741.5 580,-722.5 458,-722.5"/>
<text text-anchor="middle" x="519" y="-729.5" font-family="Helvetica,sans-Serif" font-size="10.00">DashBoard::setO2volt_2</text>
</a>
</g>
</g>
<!-- Node13&#45;&gt;Node36 -->
<g id="edge34" class="edge">
<title>Node13&#45;&gt;Node36</title>
<path fill="none" stroke="midnightblue" d="M362.98,-665.6C382.73,-677.92 418.88,-699.35 452,-713 457.58,-715.3 463.53,-717.43 469.49,-719.37"/>
<polygon fill="midnightblue" stroke="midnightblue" points="468.88,-722.85 479.47,-722.46 470.95,-716.16 468.88,-722.85"/>
</g>
<!-- Node37 -->
<g id="node35" class="node">
<title>Node37</title>
<g id="a_node35"><a xlink:href="classDashBoard.html#ab617d388ec0714d60bf68f19b189d86b" target="_top" xlink:title=" ">
<polygon fill="white" stroke="black" points="470,-684.5 470,-703.5 568,-703.5 568,-684.5 470,-684.5"/>
<text text-anchor="middle" x="519" y="-691.5" font-family="Helvetica,sans-Serif" font-size="10.00">DashBoard::setpim</text>
</a>
</g>
</g>
<!-- Node13&#45;&gt;Node37 -->
<g id="edge35" class="edge">
<title>Node13&#45;&gt;Node37</title>
<path fill="none" stroke="midnightblue" d="M390.9,-665.59C413.53,-670.65 441.5,-676.9 465.43,-682.25"/>
<polygon fill="midnightblue" stroke="midnightblue" points="464.89,-685.71 475.41,-684.48 466.41,-678.88 464.89,-685.71"/>
</g>
<!-- Node38 -->
<g id="node36" class="node">
<title>Node38</title>
<g id="a_node36"><a xlink:href="classDashBoard.html#a8b4be03b152c61f0c3086b92b2ad47d9" target="_top" xlink:title=" ">
<polygon fill="white" stroke="black" points="455,-646.5 455,-665.5 583,-665.5 583,-646.5 455,-646.5"/>
<text text-anchor="middle" x="519" y="-653.5" font-family="Helvetica,sans-Serif" font-size="10.00">DashBoard::setPressureV</text>
</a>
</g>
</g>
<!-- Node13&#45;&gt;Node38 -->
<g id="edge36" class="edge">
<title>Node13&#45;&gt;Node38</title>
<path fill="none" stroke="midnightblue" d="M394,-656C409.62,-656 427.48,-656 444.69,-656"/>
<polygon fill="midnightblue" stroke="midnightblue" points="444.73,-659.5 454.73,-656 444.73,-652.5 444.73,-659.5"/>
</g>
<!-- Node39 -->
<g id="node37" class="node">
<title>Node39</title>
<g id="a_node37"><a xlink:href="classDashBoard.html#ae10ebf05ada076cdf9034a470dc0138e" target="_top" xlink:title=" ">
<polygon fill="white" stroke="black" points="455,-608.5 455,-627.5 583,-627.5 583,-608.5 455,-608.5"/>
<text text-anchor="middle" x="519" y="-615.5" font-family="Helvetica,sans-Serif" font-size="10.00">DashBoard::setPrimaryinp</text>
</a>
</g>
</g>
<!-- Node13&#45;&gt;Node39 -->
<g id="edge37" class="edge">
<title>Node13&#45;&gt;Node39</title>
<path fill="none" stroke="midnightblue" d="M390.9,-646.41C413.53,-641.35 441.5,-635.1 465.43,-629.75"/>
<polygon fill="midnightblue" stroke="midnightblue" points="466.41,-633.12 475.41,-627.52 464.89,-626.29 466.41,-633.12"/>
</g>
<!-- Node40 -->
<g id="node38" class="node">
<title>Node40</title>
<g id="a_node38"><a xlink:href="classDashBoard.html#ab8a26c5ebc87f76cc237e46d8e014403" target="_top" xlink:title=" ">
<polygon fill="white" stroke="red" points="469.5,-950.5 469.5,-969.5 568.5,-969.5 568.5,-950.5 469.5,-950.5"/>
<text text-anchor="middle" x="519" y="-957.5" font-family="Helvetica,sans-Serif" font-size="10.00">DashBoard::setrpm</text>
</a>
</g>
</g>
<!-- Node13&#45;&gt;Node40 -->
<g id="edge38" class="edge">
<title>Node13&#45;&gt;Node40</title>
<path fill="none" stroke="midnightblue" d="M348.49,-665.53C351.08,-705.49 366.49,-861.25 452,-941 454.56,-943.39 457.41,-945.48 460.43,-947.31"/>
<polygon fill="midnightblue" stroke="midnightblue" points="458.86,-950.44 469.37,-951.81 462.01,-944.19 458.86,-950.44"/>
</g>
<!-- Node42 -->
<g id="node39" class="node">
<title>Node42</title>
<g id="a_node39"><a xlink:href="classDashBoard.html#a68ced326141cb80742fe151c64e33c4f" target="_top" xlink:title=" ">
<polygon fill="white" stroke="black" points="452.5,-570.5 452.5,-589.5 585.5,-589.5 585.5,-570.5 452.5,-570.5"/>
<text text-anchor="middle" x="519" y="-577.5" font-family="Helvetica,sans-Serif" font-size="10.00">DashBoard::setSecinjpulse</text>
</a>
</g>
</g>
<!-- Node13&#45;&gt;Node42 -->
<g id="edge39" class="edge">
<title>Node13&#45;&gt;Node42</title>
<path fill="none" stroke="midnightblue" d="M394.04,-646.8C401.67,-644.26 409.28,-641.05 416,-637 435.92,-624.99 432.12,-611.09 452,-599 455.55,-596.84 459.36,-594.91 463.29,-593.2"/>
<polygon fill="midnightblue" stroke="midnightblue" points="464.57,-596.46 472.62,-589.58 462.03,-589.94 464.57,-596.46"/>
</g>
<!-- Node43 -->
<g id="node40" class="node">
<title>Node43</title>
<g id="a_node40"><a xlink:href="classDashBoard.html#a77b4f7cb9851db07fcc88986469df3d8" target="_top" xlink:title=" ">
<polygon fill="white" stroke="red" points="464,-1140.5 464,-1159.5 574,-1159.5 574,-1140.5 464,-1140.5"/>
<text text-anchor="middle" x="519" y="-1147.5" font-family="Helvetica,sans-Serif" font-size="10.00">DashBoard::setSpeed</text>
</a>
</g>
</g>
<!-- Node13&#45;&gt;Node43 -->
<g id="edge40" class="edge">
<title>Node13&#45;&gt;Node43</title>
<path fill="none" stroke="midnightblue" d="M349.8,-665.52C362.2,-731.04 435.11,-1112.98 452,-1131 453.23,-1132.32 454.55,-1133.54 455.94,-1134.69"/>
<polygon fill="midnightblue" stroke="midnightblue" points="454.28,-1137.79 464.56,-1140.37 458.14,-1131.94 454.28,-1137.79"/>
</g>
<!-- Node45 -->
<g id="node41" class="node">
<title>Node45</title>
<g id="a_node41"><a xlink:href="classDashBoard.html#ac568882c62f706105825eea0140a1d28" target="_top" xlink:title=" ">
<polygon fill="white" stroke="black" points="458,-532.5 458,-551.5 580,-551.5 580,-532.5 458,-532.5"/>
<text text-anchor="middle" x="519" y="-539.5" font-family="Helvetica,sans-Serif" font-size="10.00">DashBoard::setThrottleV</text>
</a>
</g>
</g>
<!-- Node13&#45;&gt;Node45 -->
<g id="edge41" class="edge">
<title>Node13&#45;&gt;Node45</title>
<path fill="none" stroke="midnightblue" d="M394.2,-648.88C402.07,-646.12 409.72,-642.29 416,-637 444.58,-612.91 423.52,-585.2 452,-561 453.99,-559.31 456.12,-557.77 458.35,-556.37"/>
<polygon fill="midnightblue" stroke="midnightblue" points="460.18,-559.36 467.39,-551.61 456.92,-553.17 460.18,-559.36"/>
</g>
<!-- Node46 -->
<g id="node42" class="node">
<title>Node46</title>
<g id="a_node42"><a xlink:href="classDashBoard.html#a75b10e663b009eb4ae77d10762280ca4" target="_top" xlink:title=" ">
<polygon fill="white" stroke="black" points="468,-494.5 468,-513.5 570,-513.5 570,-494.5 468,-494.5"/>
<text text-anchor="middle" x="519" y="-501.5" font-family="Helvetica,sans-Serif" font-size="10.00">DashBoard::setTPS</text>
</a>
</g>
</g>
<!-- Node13&#45;&gt;Node46 -->
<g id="edge42" class="edge">
<title>Node13&#45;&gt;Node46</title>
<path fill="none" stroke="midnightblue" d="M394.11,-649.81C402.18,-646.97 409.92,-642.88 416,-637 454.19,-600.06 413.95,-560.09 452,-523 454.12,-520.93 456.45,-519.09 458.93,-517.44"/>
<polygon fill="midnightblue" stroke="midnightblue" points="460.75,-520.44 467.85,-512.57 457.4,-514.29 460.75,-520.44"/>
</g>
<!-- Node52&#45;&gt;Node14 -->
<g id="edge45" class="edge">
<title>Node52&#45;&gt;Node14</title>
<path fill="none" stroke="midnightblue" d="M395.11,-1045.56C402.38,-1048.04 409.6,-1051.14 416,-1055 435.92,-1067.01 432.12,-1080.91 452,-1093 455.55,-1095.16 459.36,-1097.09 463.29,-1098.8"/>
<polygon fill="midnightblue" stroke="midnightblue" points="462.03,-1102.06 472.62,-1102.42 464.57,-1095.54 462.03,-1102.06"/>
</g>
<!-- Node52&#45;&gt;Node25 -->
<g id="edge46" class="edge">
<title>Node52&#45;&gt;Node25</title>
<path fill="none" stroke="midnightblue" d="M390.9,-1045.59C413.53,-1050.65 441.5,-1056.9 465.43,-1062.25"/>
<polygon fill="midnightblue" stroke="midnightblue" points="464.89,-1065.71 475.41,-1064.48 466.41,-1058.88 464.89,-1065.71"/>
</g>
<!-- Node52&#45;&gt;Node27 -->
<g id="edge47" class="edge">
<title>Node52&#45;&gt;Node27</title>
<path fill="none" stroke="midnightblue" d="M397.63,-1036C415.16,-1036 435.13,-1036 453.7,-1036"/>
<polygon fill="midnightblue" stroke="midnightblue" points="453.85,-1039.5 463.85,-1036 453.85,-1032.5 453.85,-1039.5"/>
</g>
<!-- Node52&#45;&gt;Node28 -->
<g id="edge48" class="edge">
<title>Node52&#45;&gt;Node28</title>
<path fill="none" stroke="midnightblue" d="M390.9,-1026.41C413.53,-1021.35 441.5,-1015.1 465.43,-1009.75"/>
<polygon fill="midnightblue" stroke="midnightblue" points="466.41,-1013.12 475.41,-1007.52 464.89,-1006.29 466.41,-1013.12"/>
</g>
<!-- Node52&#45;&gt;Node40 -->
<g id="edge49" class="edge">
<title>Node52&#45;&gt;Node40</title>
<path fill="none" stroke="midnightblue" d="M362.98,-1026.4C382.73,-1014.08 418.88,-992.65 452,-979 457.58,-976.7 463.53,-974.57 469.49,-972.63"/>
<polygon fill="midnightblue" stroke="midnightblue" points="470.95,-975.84 479.47,-969.54 468.88,-969.15 470.95,-975.84"/>
</g>
<!-- Node52&#45;&gt;Node43 -->
<g id="edge50" class="edge">
<title>Node52&#45;&gt;Node43</title>
<path fill="none" stroke="midnightblue" d="M397.7,-1044.43C404.32,-1047.06 410.66,-1050.5 416,-1055 444.58,-1079.09 423.52,-1106.8 452,-1131 453.99,-1132.69 456.12,-1134.23 458.35,-1135.63"/>
<polygon fill="midnightblue" stroke="midnightblue" points="456.92,-1138.83 467.39,-1140.39 460.18,-1132.64 456.92,-1138.83"/>
</g>
</g>
</svg>
        <g id="navigator" transform="translate(0 0)" fill="#404254">
                <rect fill="#f2f5e9" fill-opacity="0.5" stroke="#606060" stroke-width=".5" x="0" y="0" width="60" height="60"/>
                <use id="zoomplus" xlink:href="#zoomPlus" x="17" y="9" onmousedown="handleZoom(evt,'in')"/>
                <use id="zoomminus" xlink:href="#zoomMin" x="42" y="9" onmousedown="handleZoom(evt,'out')"/>
                <use id="reset" xlink:href="#resetDef" x="30" y="36" onmousedown="handleReset()"/>
                <g id="arrowUp" xlink:href="#dirArrow" transform="translate(30 24)" onmousedown="handlePan(0,-1)">
                  <use xlink:href="#rim" fill="#404040">
                        <set attributeName="fill" to="#808080" begin="arrowUp.mouseover" end="arrowUp.mouseout"/>
                  </use>
                  <path fill="none" stroke="white" stroke-width="1.5" d="M0,-3.0v7 M-2.5,-0.5L0,-3.0L2.5,-0.5"/>
                </g>
                <g id="arrowRight" xlink:href="#dirArrow" transform="rotate(90) translate(36 -43)" onmousedown="handlePan(1,0)">
                  <use xlink:href="#rim" fill="#404040">
                        <set attributeName="fill" to="#808080" begin="arrowRight.mouseover" end="arrowRight.mouseout"/>
                  </use>
                  <path fill="none" stroke="white" stroke-width="1.5" d="M0,-3.0v7 M-2.5,-0.5L0,-3.0L2.5,-0.5"/>
                </g>
                <g id="arrowDown" xlink:href="#dirArrow" transform="rotate(180) translate(-30 -48)" onmousedown="handlePan(0,1)">
                  <use xlink:href="#rim" fill="#404040">
                        <set attributeName="fill" to="#808080" begin="arrowDown.mouseover" end="arrowDown.mouseout"/>
                  </use>
                  <path fill="none" stroke="white" stroke-width="1.5" d="M0,-3.0v7 M-2.5,-0.5L0,-3.0L2.5,-0.5"/>
                </g>
                <g id="arrowLeft" xlink:href="#dirArrow" transform="rotate(270) translate(-36 17)" onmousedown="handlePan(-1,0)">
                  <use xlink:href="#rim" fill="#404040">
                        <set attributeName="fill" to="#808080" begin="arrowLeft.mouseover" end="arrowLeft.mouseout"/>
                  </use>
                  <path fill="none" stroke="white" stroke-width="1.5" d="M0,-3.0v7 M-2.5,-0.5L0,-3.0L2.5,-0.5"/>
                </g>
        </g>
        <svg viewBox="0 0 15 15" width="100%" height="30px" preserveAspectRatio="xMaxYMin meet">
         <g id="arrow_out" transform="scale(0.3 0.3)">
          <a xlink:href="classApexi_a4cb1314ab5ca5175aa227ed178148f40_cgraph_org.svg" target="_base">
           <rect id="button" ry="5" rx="5" y="6" x="6" height="38" width="38"
                fill="#f2f5e9" fill-opacity="0.5" stroke="#606060" stroke-width="1.0"/>
           <path id="arrow"
             d="M 11.500037,31.436501 C 11.940474,20.09759 22.043105,11.32322 32.158766,21.979434 L 37.068811,17.246167 C 37.068811,17.246167 37.088388,32 37.088388,32 L 22.160133,31.978069 C 22.160133,31.978069 26.997745,27.140456 26.997745,27.140456 C 18.528582,18.264221 13.291696,25.230495 11.500037,31.436501 z"
             style="fill:#404040;"/>
          </a>
         </g>
        </svg>
</svg>
