<?xml version="1.0" encoding="UTF-8" standalone="no"?>
<!DOCTYPE svg PUBLIC "-//W3C//DTD SVG 1.1//EN"
 "http://www.w3.org/Graphics/SVG/1.1/DTD/svg11.dtd">
<!-- Generated by graphviz version 2.49.3 (20211027.1534)
 -->
<!-- Title: DashBoard::supportedRegChanged Pages: 1 -->
<svg width="512pt" height="66pt"
 viewBox="0.00 0.00 512.00 66.00" xmlns="http://www.w3.org/2000/svg" xmlns:xlink="http://www.w3.org/1999/xlink">
<g id="graph0" class="graph" transform="scale(1 1) rotate(0) translate(4 62)">
<title>DashBoard::supportedRegChanged</title>
<polygon fill="white" stroke="transparent" points="-4,4 -4,-62 508,-62 508,4 -4,4"/>
<!-- Node1 -->
<g id="node1" class="node">
<title>Node1</title>
<g id="a_node1"><a xlink:title=" ">
<polygon fill="#bfbfbf" stroke="black" points="337,-19.5 337,-38.5 504,-38.5 504,-19.5 337,-19.5"/>
<text text-anchor="middle" x="420.5" y="-26.5" font-family="Helvetica,sans-Serif" font-size="10.00">DashBoard::supportedRegChanged</text>
</a>
</g>
</g>
<!-- Node2 -->
<g id="node2" class="node">
<title>Node2</title>
<g id="a_node2"><a xlink:href="classDashBoard.html#ad2af864f1a522d3b629ecc6d0aba577b" target="_top" xlink:title=" ">
<polygon fill="white" stroke="black" points="158,-19.5 158,-38.5 301,-38.5 301,-19.5 158,-19.5"/>
<text text-anchor="middle" x="229.5" y="-26.5" font-family="Helvetica,sans-Serif" font-size="10.00">DashBoard::setsupportedReg</text>
</a>
</g>
</g>
<!-- Node1&#45;&gt;Node2 -->
<g id="edge1" class="edge">
<title>Node1&#45;&gt;Node2</title>
<path fill="none" stroke="midnightblue" d="M326.78,-29C318.15,-29 309.5,-29 301.12,-29"/>
<polygon fill="midnightblue" stroke="midnightblue" points="326.88,-32.5 336.88,-29 326.88,-25.5 326.88,-32.5"/>
</g>
<!-- Node3 -->
<g id="node3" class="node">
<title>Node3</title>
<g id="a_node3"><a xlink:href="classConnect.html#aa72c59cc6d02d07b8b6e29dc282e6dca" target="_top" xlink:title=" ">
<polygon fill="white" stroke="black" points="0,-38.5 0,-57.5 122,-57.5 122,-38.5 0,-38.5"/>
<text text-anchor="middle" x="61" y="-45.5" font-family="Helvetica,sans-Serif" font-size="10.00">Connect::checkOBDReg</text>
</a>
</g>
</g>
<!-- Node2&#45;&gt;Node3 -->
<g id="edge2" class="edge">
<title>Node2&#45;&gt;Node3</title>
<path fill="none" stroke="midnightblue" d="M147.81,-38.21C139.19,-39.19 130.53,-40.18 122.2,-41.13"/>
<polygon fill="midnightblue" stroke="midnightblue" points="148.35,-41.67 157.89,-37.06 147.56,-34.71 148.35,-41.67"/>
</g>
<!-- Node4 -->
<g id="node4" class="node">
<title>Node4</title>
<g id="a_node4"><a xlink:href="classConnect.html#aba35bf4d550910fdaf9239d7779ae6d4" target="_top" xlink:title=" ">
<polygon fill="white" stroke="black" points="10.5,-0.5 10.5,-19.5 111.5,-19.5 111.5,-0.5 10.5,-0.5"/>
<text text-anchor="middle" x="61" y="-7.5" font-family="Helvetica,sans-Serif" font-size="10.00">Connect::checkReg</text>
</a>
</g>
</g>
<!-- Node2&#45;&gt;Node4 -->
<g id="edge3" class="edge">
<title>Node2&#45;&gt;Node4</title>
<path fill="none" stroke="midnightblue" d="M147.59,-19.77C135.28,-18.36 122.9,-16.95 111.53,-15.65"/>
<polygon fill="midnightblue" stroke="midnightblue" points="147.56,-23.29 157.89,-20.94 148.35,-16.33 147.56,-23.29"/>
</g>
</g>
</svg>
