<?xml version="1.0" encoding="UTF-8" standalone="no"?>
<!DOCTYPE svg PUBLIC "-//W3C//DTD SVG 1.1//EN"
 "http://www.w3.org/Graphics/SVG/1.1/DTD/svg11.dtd">
<!-- Generated by graphviz version 2.49.3 (20211027.1534)
 -->
<!-- Title: DashBoard::setIntaketemp Pages: 1 -->
<svg width="1364pt" height="192pt"
 viewBox="0.00 0.00 1364.00 191.50" xmlns="http://www.w3.org/2000/svg" xmlns:xlink="http://www.w3.org/1999/xlink">
<g id="graph0" class="graph" transform="scale(1 1) rotate(0) translate(4 187.5)">
<title>DashBoard::setIntaketemp</title>
<polygon fill="white" stroke="transparent" points="-4,4 -4,-187.5 1360,-187.5 1360,4 -4,4"/>
<!-- Node1 -->
<g id="node1" class="node">
<title>Node1</title>
<g id="a_node1"><a xlink:title=" ">
<polygon fill="#bfbfbf" stroke="black" points="1225,-89.5 1225,-108.5 1356,-108.5 1356,-89.5 1225,-89.5"/>
<text text-anchor="middle" x="1290.5" y="-96.5" font-family="Helvetica,sans-Serif" font-size="10.00">DashBoard::setIntaketemp</text>
</a>
</g>
</g>
<!-- Node2 -->
<g id="node2" class="node">
<title>Node2</title>
<g id="a_node2"><a xlink:href="classAdaptronicSelect.html#ae353c5153a25423eb6044be7a2f1bf72" target="_top" xlink:title=" ">
<polygon fill="white" stroke="black" points="1055,-151 1055,-181 1182,-181 1182,-151 1055,-151"/>
<text text-anchor="start" x="1063" y="-169" font-family="Helvetica,sans-Serif" font-size="10.00">AdaptronicSelect::decode</text>
<text text-anchor="middle" x="1118.5" y="-158" font-family="Helvetica,sans-Serif" font-size="10.00">Adaptronic</text>
</a>
</g>
</g>
<!-- Node1&#45;&gt;Node2 -->
<g id="edge1" class="edge">
<title>Node1&#45;&gt;Node2</title>
<path fill="none" stroke="midnightblue" d="M1255.68,-112.33C1227.38,-123.48 1187.04,-139.38 1157.61,-150.98"/>
<polygon fill="midnightblue" stroke="midnightblue" points="1257.12,-115.52 1265.14,-108.6 1254.56,-109.01 1257.12,-115.52"/>
</g>
<!-- Node6 -->
<g id="node6" class="node">
<title>Node6</title>
<g id="a_node6"><a xlink:href="classApexi.html#a3ecd8445700ab9532fc051325f66d03d" target="_top" xlink:title=" ">
<polygon fill="white" stroke="black" points="1071.5,-108.5 1071.5,-127.5 1165.5,-127.5 1165.5,-108.5 1071.5,-108.5"/>
<text text-anchor="middle" x="1118.5" y="-115.5" font-family="Helvetica,sans-Serif" font-size="10.00">Apexi::decodeAdv</text>
</a>
</g>
</g>
<!-- Node1&#45;&gt;Node6 -->
<g id="edge5" class="edge">
<title>Node1&#45;&gt;Node6</title>
<path fill="none" stroke="midnightblue" d="M1214.47,-107.39C1197.83,-109.25 1180.67,-111.16 1165.59,-112.85"/>
<polygon fill="midnightblue" stroke="midnightblue" points="1215.2,-110.83 1224.75,-106.24 1214.42,-103.87 1215.2,-110.83"/>
</g>
<!-- Node16 -->
<g id="node16" class="node">
<title>Node16</title>
<g id="a_node16"><a xlink:href="classApexi.html#af3dad564d7c3cca0e98f5944e5e27cdf" target="_top" xlink:title=" ">
<polygon fill="white" stroke="black" points="1068,-70.5 1068,-89.5 1169,-89.5 1169,-70.5 1068,-70.5"/>
<text text-anchor="middle" x="1118.5" y="-77.5" font-family="Helvetica,sans-Serif" font-size="10.00">Apexi::decodeBasic</text>
</a>
</g>
</g>
<!-- Node1&#45;&gt;Node16 -->
<g id="edge18" class="edge">
<title>Node1&#45;&gt;Node16</title>
<path fill="none" stroke="midnightblue" d="M1214.67,-90.64C1199.21,-88.91 1183.29,-87.13 1169,-85.53"/>
<polygon fill="midnightblue" stroke="midnightblue" points="1214.42,-94.13 1224.75,-91.76 1215.2,-87.17 1214.42,-94.13"/>
</g>
<!-- Node17 -->
<g id="node17" class="node">
<title>Node17</title>
<g id="a_node17"><a xlink:href="classudpreceiver.html#a725cf4f5cf798fd5baed7eee2e6dd5f2" target="_top" xlink:title=" ">
<polygon fill="white" stroke="black" points="1048,-13 1048,-43 1189,-43 1189,-13 1048,-13"/>
<text text-anchor="start" x="1056" y="-31" font-family="Helvetica,sans-Serif" font-size="10.00">udpreceiver::processPending</text>
<text text-anchor="middle" x="1118.5" y="-20" font-family="Helvetica,sans-Serif" font-size="10.00">Datagrams</text>
</a>
</g>
</g>
<!-- Node1&#45;&gt;Node17 -->
<g id="edge20" class="edge">
<title>Node1&#45;&gt;Node17</title>
<path fill="none" stroke="midnightblue" d="M1257.31,-85.56C1228.35,-73.46 1185.84,-55.71 1155.71,-43.12"/>
<polygon fill="midnightblue" stroke="midnightblue" points="1256,-88.8 1266.57,-89.42 1258.69,-82.34 1256,-88.8"/>
</g>
<!-- Node3 -->
<g id="node3" class="node">
<title>Node3</title>
<g id="a_node3"><a xlink:href="classAdaptronicSelect.html#af5ee85733260355dd5236c796c6a3fc5" target="_top" xlink:title=" ">
<polygon fill="white" stroke="black" points="860,-157.5 860,-176.5 1012,-176.5 1012,-157.5 860,-157.5"/>
<text text-anchor="middle" x="936" y="-164.5" font-family="Helvetica,sans-Serif" font-size="10.00">AdaptronicSelect::readyToRead</text>
</a>
</g>
</g>
<!-- Node2&#45;&gt;Node3 -->
<g id="edge2" class="edge">
<title>Node2&#45;&gt;Node3</title>
<path fill="none" stroke="midnightblue" d="M1044.74,-166.4C1034.04,-166.46 1023,-166.52 1012.25,-166.58"/>
<polygon fill="midnightblue" stroke="midnightblue" points="1044.9,-169.9 1054.88,-166.35 1044.86,-162.9 1044.9,-169.9"/>
</g>
<!-- Node4 -->
<g id="node4" class="node">
<title>Node4</title>
<g id="a_node4"><a xlink:href="classAdaptronicSelect.html#a79148c38700405eb6a3fc1338be170ab" target="_top" xlink:title=" ">
<polygon fill="white" stroke="black" points="682,-153 682,-183 824,-183 824,-153 682,-153"/>
<text text-anchor="start" x="690" y="-171" font-family="Helvetica,sans-Serif" font-size="10.00">AdaptronicSelect::Adaptronic</text>
<text text-anchor="middle" x="753" y="-160" font-family="Helvetica,sans-Serif" font-size="10.00">StartStream</text>
</a>
</g>
</g>
<!-- Node3&#45;&gt;Node4 -->
<g id="edge3" class="edge">
<title>Node3&#45;&gt;Node4</title>
<path fill="none" stroke="midnightblue" d="M849.75,-167.47C841.13,-167.52 832.45,-167.57 824.03,-167.61"/>
<polygon fill="midnightblue" stroke="midnightblue" points="849.83,-170.97 859.81,-167.42 849.79,-163.97 849.83,-170.97"/>
</g>
<!-- Node5 -->
<g id="node5" class="node">
<title>Node5</title>
<g id="a_node5"><a xlink:href="classAdaptronicSelect.html#a16932b235281a8071bdf5404df8160ac" target="_top" xlink:title=" ">
<polygon fill="white" stroke="black" points="481,-158.5 481,-177.5 646,-177.5 646,-158.5 481,-158.5"/>
<text text-anchor="middle" x="563.5" y="-165.5" font-family="Helvetica,sans-Serif" font-size="10.00">AdaptronicSelect::openConnection</text>
</a>
</g>
</g>
<!-- Node4&#45;&gt;Node5 -->
<g id="edge4" class="edge">
<title>Node4&#45;&gt;Node5</title>
<path fill="none" stroke="midnightblue" d="M671.7,-168C663.25,-168 654.65,-168 646.19,-168"/>
<polygon fill="midnightblue" stroke="midnightblue" points="671.92,-171.5 681.92,-168 671.92,-164.5 671.92,-171.5"/>
</g>
<!-- Node7 -->
<g id="node7" class="node">
<title>Node7</title>
<g id="a_node7"><a xlink:href="classApexi.html#a4e7b389e8d3e283a12733ab4f8492be3" target="_top" xlink:title=" ">
<polygon fill="white" stroke="black" points="894,-76.5 894,-95.5 978,-95.5 978,-76.5 894,-76.5"/>
<text text-anchor="middle" x="936" y="-83.5" font-family="Helvetica,sans-Serif" font-size="10.00">Apexi::readData</text>
</a>
</g>
</g>
<!-- Node6&#45;&gt;Node7 -->
<g id="edge6" class="edge">
<title>Node6&#45;&gt;Node7</title>
<path fill="none" stroke="midnightblue" d="M1061.4,-108.06C1034.43,-103.27 1002.68,-97.64 978,-93.27"/>
<polygon fill="midnightblue" stroke="midnightblue" points="1061.03,-111.54 1071.49,-109.84 1062.25,-104.65 1061.03,-111.54"/>
</g>
<!-- Node8 -->
<g id="node8" class="node">
<title>Node8</title>
<g id="a_node8"><a xlink:href="classApexi.html#a4cb1314ab5ca5175aa227ed178148f40" target="_top" xlink:title=" ">
<polygon fill="white" stroke="black" points="709,-76.5 709,-95.5 797,-95.5 797,-76.5 709,-76.5"/>
<text text-anchor="middle" x="753" y="-83.5" font-family="Helvetica,sans-Serif" font-size="10.00">Apexi::apexiECU</text>
</a>
</g>
</g>
<!-- Node7&#45;&gt;Node8 -->
<g id="edge7" class="edge">
<title>Node7&#45;&gt;Node8</title>
<path fill="none" stroke="midnightblue" d="M883.76,-86C856.41,-86 823.13,-86 797.12,-86"/>
<polygon fill="midnightblue" stroke="midnightblue" points="883.93,-89.5 893.93,-86 883.93,-82.5 883.93,-89.5"/>
</g>
<!-- Node9 -->
<g id="node9" class="node">
<title>Node9</title>
<g id="a_node9"><a xlink:href="classApexi.html#abe3bf6800fce8a4c713a08c14474d625" target="_top" xlink:title=" ">
<polygon fill="white" stroke="black" points="512.5,-76.5 512.5,-95.5 614.5,-95.5 614.5,-76.5 512.5,-76.5"/>
<text text-anchor="middle" x="563.5" y="-83.5" font-family="Helvetica,sans-Serif" font-size="10.00">Apexi::readyToRead</text>
</a>
</g>
</g>
<!-- Node8&#45;&gt;Node9 -->
<g id="edge8" class="edge">
<title>Node8&#45;&gt;Node9</title>
<path fill="none" stroke="midnightblue" d="M698.77,-86C672.34,-86 640.6,-86 614.62,-86"/>
<polygon fill="midnightblue" stroke="midnightblue" points="698.98,-89.5 708.98,-86 698.98,-82.5 698.98,-89.5"/>
</g>
<!-- Node10 -->
<g id="node10" class="node">
<title>Node10</title>
<g id="a_node10"><a xlink:href="classApexi.html#a669124cabae4ada616e650e582c068da" target="_top" xlink:title=" ">
<polygon fill="white" stroke="black" points="328,-38.5 328,-57.5 445,-57.5 445,-38.5 328,-38.5"/>
<text text-anchor="middle" x="386.5" y="-45.5" font-family="Helvetica,sans-Serif" font-size="10.00">Apexi::closeConnection</text>
</a>
</g>
</g>
<!-- Node9&#45;&gt;Node10 -->
<g id="edge9" class="edge">
<title>Node9&#45;&gt;Node10</title>
<path fill="none" stroke="midnightblue" d="M508.38,-74.25C483.63,-68.87 454.7,-62.59 431.34,-57.52"/>
<polygon fill="midnightblue" stroke="midnightblue" points="507.83,-77.71 518.34,-76.41 509.31,-70.87 507.83,-77.71"/>
</g>
<!-- Node15 -->
<g id="node15" class="node">
<title>Node15</title>
<g id="a_node15"><a xlink:href="classApexi.html#a169d6e9466a6c04e6533c8e84fdcaadb" target="_top" xlink:title=" ">
<polygon fill="white" stroke="black" points="336,-76.5 336,-95.5 437,-95.5 437,-76.5 336,-76.5"/>
<text text-anchor="middle" x="386.5" y="-83.5" font-family="Helvetica,sans-Serif" font-size="10.00">Apexi::initSerialPort</text>
</a>
</g>
</g>
<!-- Node9&#45;&gt;Node15 -->
<g id="edge16" class="edge">
<title>Node9&#45;&gt;Node15</title>
<path fill="none" stroke="midnightblue" d="M502.14,-86C480.9,-86 457.3,-86 437.05,-86"/>
<polygon fill="midnightblue" stroke="midnightblue" points="502.35,-89.5 512.35,-86 502.35,-82.5 502.35,-89.5"/>
</g>
<!-- Node10&#45;&gt;Node7 -->
<g id="edge15" class="edge">
<title>Node10&#45;&gt;Node7</title>
<path fill="none" stroke="midnightblue" d="M455.37,-48.31C541.38,-49.31 694.09,-53.11 824,-67 847.23,-69.48 872.96,-73.79 893.79,-77.67"/>
<polygon fill="midnightblue" stroke="midnightblue" points="455.26,-44.81 445.22,-48.2 455.18,-51.81 455.26,-44.81"/>
</g>
<!-- Node11 -->
<g id="node11" class="node">
<title>Node11</title>
<g id="a_node11"><a xlink:href="classConnect.html#abb89a14af2e2b3f6d466c5abfc95cff0" target="_top" xlink:title=" ">
<polygon fill="white" stroke="black" points="163,-38.5 163,-57.5 292,-57.5 292,-38.5 163,-38.5"/>
<text text-anchor="middle" x="227.5" y="-45.5" font-family="Helvetica,sans-Serif" font-size="10.00">Connect::closeConnection</text>
</a>
</g>
</g>
<!-- Node10&#45;&gt;Node11 -->
<g id="edge10" class="edge">
<title>Node10&#45;&gt;Node11</title>
<path fill="none" stroke="midnightblue" d="M317.7,-48C309.22,-48 300.57,-48 292.15,-48"/>
<polygon fill="midnightblue" stroke="midnightblue" points="317.93,-51.5 327.93,-48 317.93,-44.5 317.93,-51.5"/>
</g>
<!-- Node12 -->
<g id="node12" class="node">
<title>Node12</title>
<g id="a_node12"><a xlink:href="classApexi.html#a84e5eadc545afab5fbb0aea8b27e17c3" target="_top" xlink:title=" ">
<polygon fill="white" stroke="black" points="170,-76.5 170,-95.5 285,-95.5 285,-76.5 170,-76.5"/>
<text text-anchor="middle" x="227.5" y="-83.5" font-family="Helvetica,sans-Serif" font-size="10.00">Apexi::openConnection</text>
</a>
</g>
</g>
<!-- Node10&#45;&gt;Node12 -->
<g id="edge11" class="edge">
<title>Node10&#45;&gt;Node12</title>
<path fill="none" stroke="midnightblue" d="M336.05,-59.97C314.05,-65.29 288.51,-71.48 267.83,-76.48"/>
<polygon fill="midnightblue" stroke="midnightblue" points="336.99,-63.34 345.88,-57.59 335.34,-56.54 336.99,-63.34"/>
</g>
<!-- Node13 -->
<g id="node13" class="node">
<title>Node13</title>
<g id="a_node13"><a xlink:href="classConnect.html#a0d674157f4d7442c535837dadd8cf5f1" target="_top" xlink:title=" ">
<polygon fill="white" stroke="black" points="0,-38.5 0,-57.5 127,-57.5 127,-38.5 0,-38.5"/>
<text text-anchor="middle" x="63.5" y="-45.5" font-family="Helvetica,sans-Serif" font-size="10.00">Connect::openConnection</text>
</a>
</g>
</g>
<!-- Node12&#45;&gt;Node13 -->
<g id="edge12" class="edge">
<title>Node12&#45;&gt;Node13</title>
<path fill="none" stroke="midnightblue" d="M175.79,-74.1C153.01,-68.76 126.51,-62.55 105.09,-57.52"/>
<polygon fill="midnightblue" stroke="midnightblue" points="175.09,-77.53 185.62,-76.41 176.68,-70.72 175.09,-77.53"/>
</g>
<!-- Node14 -->
<g id="node14" class="node">
<title>Node14</title>
<g id="a_node14"><a xlink:href="classApexi.html#af3673b74b8aebe06a2b2f9ed81c23ee4" target="_top" xlink:title=" ">
<polygon fill="white" stroke="black" points="14.5,-95.5 14.5,-114.5 112.5,-114.5 112.5,-95.5 14.5,-95.5"/>
<text text-anchor="middle" x="63.5" y="-102.5" font-family="Helvetica,sans-Serif" font-size="10.00">Apexi::retryconnect</text>
</a>
</g>
</g>
<!-- Node12&#45;&gt;Node14 -->
<g id="edge13" class="edge">
<title>Node12&#45;&gt;Node14</title>
<path fill="none" stroke="midnightblue" d="M159.6,-93.85C143.81,-95.7 127.29,-97.64 112.53,-99.37"/>
<polygon fill="midnightblue" stroke="midnightblue" points="160.32,-97.29 169.84,-92.65 159.5,-90.33 160.32,-97.29"/>
</g>
<!-- Node14&#45;&gt;Node7 -->
<g id="edge14" class="edge">
<title>Node14&#45;&gt;Node7</title>
<path fill="none" stroke="midnightblue" d="M122.91,-110.54C187.2,-116.15 293.62,-124 385.5,-124 564.5,-124 564.5,-124 564.5,-124 680.14,-124 709.21,-118.99 824,-105 847.19,-102.17 872.92,-97.84 893.76,-94.03"/>
<polygon fill="midnightblue" stroke="midnightblue" points="122.85,-107.02 112.58,-109.62 122.23,-113.99 122.85,-107.02"/>
</g>
<!-- Node15&#45;&gt;Node12 -->
<g id="edge17" class="edge">
<title>Node15&#45;&gt;Node12</title>
<path fill="none" stroke="midnightblue" d="M325.82,-86C312.51,-86 298.43,-86 285.24,-86"/>
<polygon fill="midnightblue" stroke="midnightblue" points="325.82,-89.5 335.82,-86 325.82,-82.5 325.82,-89.5"/>
</g>
<!-- Node16&#45;&gt;Node7 -->
<g id="edge19" class="edge">
<title>Node16&#45;&gt;Node7</title>
<path fill="none" stroke="midnightblue" d="M1057.55,-81.99C1031.48,-82.86 1001.6,-83.85 978.11,-84.63"/>
<polygon fill="midnightblue" stroke="midnightblue" points="1057.82,-85.49 1067.7,-81.66 1057.59,-78.49 1057.82,-85.49"/>
</g>
<!-- Node18 -->
<g id="node18" class="node">
<title>Node18</title>
<g id="a_node18"><a xlink:href="classudpreceiver.html#a2d7852b9e4be87d9a3ce960d8a7eb9aa" target="_top" xlink:title=" ">
<polygon fill="white" stroke="black" points="690.5,-0.5 690.5,-19.5 815.5,-19.5 815.5,-0.5 690.5,-0.5"/>
<text text-anchor="middle" x="753" y="-7.5" font-family="Helvetica,sans-Serif" font-size="10.00">udpreceiver::startreceiver</text>
</a>
</g>
</g>
<!-- Node17&#45;&gt;Node18 -->
<g id="edge21" class="edge">
<title>Node17&#45;&gt;Node18</title>
<path fill="none" stroke="midnightblue" d="M1037.77,-24.05C970.89,-20.74 876.75,-16.08 815.56,-13.05"/>
<polygon fill="midnightblue" stroke="midnightblue" points="1037.68,-27.55 1047.84,-24.55 1038.03,-20.56 1037.68,-27.55"/>
</g>
<!-- Node18&#45;&gt;Node13 -->
<g id="edge22" class="edge">
<title>Node18&#45;&gt;Node13</title>
<path fill="none" stroke="midnightblue" d="M680.2,-8.67C569.01,-7.42 348.61,-8.24 163,-29 144.13,-31.11 123.48,-34.87 105.97,-38.49"/>
<polygon fill="midnightblue" stroke="midnightblue" points="680.25,-12.17 690.29,-8.79 680.34,-5.17 680.25,-12.17"/>
</g>
</g>
</svg>
