<?xml version="1.0" encoding="UTF-8" standalone="no"?>
<!DOCTYPE svg PUBLIC "-//W3C//DTD SVG 1.1//EN"
 "http://www.w3.org/Graphics/SVG/1.1/DTD/svg11.dtd">
<!-- Generated by graphviz version 2.49.3 (20211027.1534)
 -->
<!-- Title: Apexi::openConnection Pages: 1 -->
<svg width="986pt" height="170pt"
 viewBox="0.00 0.00 986.00 170.00" xmlns="http://www.w3.org/2000/svg" xmlns:xlink="http://www.w3.org/1999/xlink">
<g id="graph0" class="graph" transform="scale(1 1) rotate(0) translate(4 166)">
<title>Apexi::openConnection</title>
<polygon fill="white" stroke="transparent" points="-4,4 -4,-166 982,-166 982,4 -4,4"/>
<!-- Node1 -->
<g id="node1" class="node">
<title>Node1</title>
<g id="a_node1"><a xlink:title=" ">
<polygon fill="#bfbfbf" stroke="black" points="863,-85.5 863,-104.5 978,-104.5 978,-85.5 863,-85.5"/>
<text text-anchor="middle" x="920.5" y="-92.5" font-family="Helvetica,sans-Serif" font-size="10.00">Apexi::openConnection</text>
</a>
</g>
</g>
<!-- Node2 -->
<g id="node2" class="node">
<title>Node2</title>
<g id="a_node2"><a xlink:href="classConnect.html#a0d674157f4d7442c535837dadd8cf5f1" target="_top" xlink:title=" ">
<polygon fill="white" stroke="black" points="700,-142.5 700,-161.5 827,-161.5 827,-142.5 700,-142.5"/>
<text text-anchor="middle" x="763.5" y="-149.5" font-family="Helvetica,sans-Serif" font-size="10.00">Connect::openConnection</text>
</a>
</g>
</g>
<!-- Node1&#45;&gt;Node2 -->
<g id="edge1" class="edge">
<title>Node1&#45;&gt;Node2</title>
<path fill="none" stroke="midnightblue" d="M883.97,-108.07C855.48,-118.54 816.15,-133.01 790.53,-142.43"/>
<polygon fill="midnightblue" stroke="midnightblue" points="885.38,-111.28 893.56,-104.54 882.96,-104.71 885.38,-111.28"/>
</g>
<!-- Node3 -->
<g id="node3" class="node">
<title>Node3</title>
<g id="a_node3"><a xlink:href="classApexi.html#af3673b74b8aebe06a2b2f9ed81c23ee4" target="_top" xlink:title=" ">
<polygon fill="white" stroke="black" points="714.5,-66.5 714.5,-85.5 812.5,-85.5 812.5,-66.5 714.5,-66.5"/>
<text text-anchor="middle" x="763.5" y="-73.5" font-family="Helvetica,sans-Serif" font-size="10.00">Apexi::retryconnect</text>
</a>
</g>
</g>
<!-- Node1&#45;&gt;Node3 -->
<g id="edge2" class="edge">
<title>Node1&#45;&gt;Node3</title>
<path fill="none" stroke="midnightblue" d="M852.52,-86.79C839.12,-85.15 825.28,-83.45 812.66,-81.9"/>
<polygon fill="midnightblue" stroke="midnightblue" points="852.31,-90.29 862.66,-88.03 853.16,-83.34 852.31,-90.29"/>
</g>
<!-- Node4 -->
<g id="node4" class="node">
<title>Node4</title>
<g id="a_node4"><a xlink:href="classApexi.html#a4e7b389e8d3e283a12733ab4f8492be3" target="_top" xlink:title=" ">
<polygon fill="white" stroke="black" points="580,-66.5 580,-85.5 664,-85.5 664,-66.5 580,-66.5"/>
<text text-anchor="middle" x="622" y="-73.5" font-family="Helvetica,sans-Serif" font-size="10.00">Apexi::readData</text>
</a>
</g>
</g>
<!-- Node3&#45;&gt;Node4 -->
<g id="edge3" class="edge">
<title>Node3&#45;&gt;Node4</title>
<path fill="none" stroke="midnightblue" d="M704.32,-76C690.81,-76 676.72,-76 664.12,-76"/>
<polygon fill="midnightblue" stroke="midnightblue" points="704.49,-79.5 714.49,-76 704.49,-72.5 704.49,-79.5"/>
</g>
<!-- Node5 -->
<g id="node5" class="node">
<title>Node5</title>
<g id="a_node5"><a xlink:href="classApexi.html#a4cb1314ab5ca5175aa227ed178148f40" target="_top" xlink:title=" ">
<polygon fill="white" stroke="black" points="456,-28.5 456,-47.5 544,-47.5 544,-28.5 456,-28.5"/>
<text text-anchor="middle" x="500" y="-35.5" font-family="Helvetica,sans-Serif" font-size="10.00">Apexi::apexiECU</text>
</a>
</g>
</g>
<!-- Node4&#45;&gt;Node5 -->
<g id="edge4" class="edge">
<title>Node4&#45;&gt;Node5</title>
<path fill="none" stroke="midnightblue" d="M580.96,-63.32C564.74,-58.19 546.33,-52.36 531.27,-47.59"/>
<polygon fill="midnightblue" stroke="midnightblue" points="580.13,-66.73 590.72,-66.41 582.24,-60.06 580.13,-66.73"/>
</g>
<!-- Node6 -->
<g id="node6" class="node">
<title>Node6</title>
<g id="a_node6"><a xlink:href="classApexi.html#abe3bf6800fce8a4c713a08c14474d625" target="_top" xlink:title=" ">
<polygon fill="white" stroke="black" points="318,-28.5 318,-47.5 420,-47.5 420,-28.5 318,-28.5"/>
<text text-anchor="middle" x="369" y="-35.5" font-family="Helvetica,sans-Serif" font-size="10.00">Apexi::readyToRead</text>
</a>
</g>
</g>
<!-- Node5&#45;&gt;Node6 -->
<g id="edge5" class="edge">
<title>Node5&#45;&gt;Node6</title>
<path fill="none" stroke="midnightblue" d="M445.57,-38C437.15,-38 428.46,-38 420.11,-38"/>
<polygon fill="midnightblue" stroke="midnightblue" points="445.69,-41.5 455.69,-38 445.69,-34.5 445.69,-41.5"/>
</g>
<!-- Node7 -->
<g id="node7" class="node">
<title>Node7</title>
<g id="a_node7"><a xlink:href="classApexi.html#a669124cabae4ada616e650e582c068da" target="_top" xlink:title=" ">
<polygon fill="white" stroke="black" points="165,-66.5 165,-85.5 282,-85.5 282,-66.5 165,-66.5"/>
<text text-anchor="middle" x="223.5" y="-73.5" font-family="Helvetica,sans-Serif" font-size="10.00">Apexi::closeConnection</text>
</a>
</g>
</g>
<!-- Node6&#45;&gt;Node7 -->
<g id="edge6" class="edge">
<title>Node6&#45;&gt;Node7</title>
<path fill="none" stroke="midnightblue" d="M322.03,-50.17C302.18,-55.43 279.31,-61.49 260.7,-66.41"/>
<polygon fill="midnightblue" stroke="midnightblue" points="323.02,-53.53 331.79,-47.59 321.23,-46.77 323.02,-53.53"/>
</g>
<!-- Node9 -->
<g id="node9" class="node">
<title>Node9</title>
<g id="a_node9"><a xlink:href="classApexi.html#a169d6e9466a6c04e6533c8e84fdcaadb" target="_top" xlink:title=" ">
<polygon fill="white" stroke="black" points="173,-9.5 173,-28.5 274,-28.5 274,-9.5 173,-9.5"/>
<text text-anchor="middle" x="223.5" y="-16.5" font-family="Helvetica,sans-Serif" font-size="10.00">Apexi::initSerialPort</text>
</a>
</g>
</g>
<!-- Node6&#45;&gt;Node9 -->
<g id="edge10" class="edge">
<title>Node6&#45;&gt;Node9</title>
<path fill="none" stroke="midnightblue" d="M307.75,-30.02C296.65,-28.55 285.17,-27.03 274.42,-25.61"/>
<polygon fill="midnightblue" stroke="midnightblue" points="307.44,-33.51 317.81,-31.35 308.36,-26.57 307.44,-33.51"/>
</g>
<!-- Node7&#45;&gt;Node1 -->
<g id="edge8" class="edge">
<title>Node7&#45;&gt;Node1</title>
<path fill="none" stroke="midnightblue" d="M276.91,-87.62C331.93,-98.8 421.1,-114 499,-114 623,-114 623,-114 623,-114 706.56,-114 803.1,-106.39 862.73,-100.8"/>
<polygon fill="midnightblue" stroke="midnightblue" points="277.54,-84.18 267.04,-85.59 276.13,-91.04 277.54,-84.18"/>
</g>
<!-- Node7&#45;&gt;Node4 -->
<g id="edge9" class="edge">
<title>Node7&#45;&gt;Node4</title>
<path fill="none" stroke="midnightblue" d="M292.33,-76C374.84,-76 511.52,-76 579.69,-76"/>
<polygon fill="midnightblue" stroke="midnightblue" points="292.3,-72.5 282.3,-76 292.3,-79.5 292.3,-72.5"/>
</g>
<!-- Node8 -->
<g id="node8" class="node">
<title>Node8</title>
<g id="a_node8"><a xlink:href="classConnect.html#abb89a14af2e2b3f6d466c5abfc95cff0" target="_top" xlink:title=" ">
<polygon fill="white" stroke="black" points="0,-66.5 0,-85.5 129,-85.5 129,-66.5 0,-66.5"/>
<text text-anchor="middle" x="64.5" y="-73.5" font-family="Helvetica,sans-Serif" font-size="10.00">Connect::closeConnection</text>
</a>
</g>
</g>
<!-- Node7&#45;&gt;Node8 -->
<g id="edge7" class="edge">
<title>Node7&#45;&gt;Node8</title>
<path fill="none" stroke="midnightblue" d="M154.7,-76C146.22,-76 137.57,-76 129.15,-76"/>
<polygon fill="midnightblue" stroke="midnightblue" points="154.93,-79.5 164.93,-76 154.93,-72.5 154.93,-79.5"/>
</g>
<!-- Node9&#45;&gt;Node1 -->
<g id="edge11" class="edge">
<title>Node9&#45;&gt;Node1</title>
<path fill="none" stroke="midnightblue" d="M284.03,-12.5C339.58,-7 424.8,0 499,0 623,0 623,0 623,0 734.08,0 857.88,-61.22 902.41,-85.37"/>
<polygon fill="midnightblue" stroke="midnightblue" points="283.62,-9.02 274.02,-13.5 284.32,-15.99 283.62,-9.02"/>
</g>
</g>
</svg>
