<?xml version="1.0" encoding="UTF-8" standalone="no"?>
<!DOCTYPE svg PUBLIC "-//W3C//DTD SVG 1.1//EN"
 "http://www.w3.org/Graphics/SVG/1.1/DTD/svg11.dtd">
<!-- Generated by graphviz version 2.49.3 (20211027.1534)
 -->
<!-- Title: WifiScanner::initializeWifiscanner Pages: 1 -->
<svg width="509pt" height="91pt"
 viewBox="0.00 0.00 509.00 91.00" xmlns="http://www.w3.org/2000/svg" xmlns:xlink="http://www.w3.org/1999/xlink">
<g id="graph0" class="graph" transform="scale(1 1) rotate(0) translate(4 87)">
<title>WifiScanner::initializeWifiscanner</title>
<polygon fill="white" stroke="transparent" points="-4,4 -4,-87 505,-87 505,4 -4,4"/>
<!-- Node1 -->
<g id="node1" class="node">
<title>Node1</title>
<g id="a_node1"><a xlink:title=" ">
<polygon fill="#bfbfbf" stroke="black" points="0,-22.5 0,-41.5 158,-41.5 158,-22.5 0,-22.5"/>
<text text-anchor="middle" x="79" y="-29.5" font-family="Helvetica,sans-Serif" font-size="10.00">WifiScanner::initializeWifiscanner</text>
</a>
</g>
</g>
<!-- Node2 -->
<g id="node2" class="node">
<title>Node2</title>
<g id="a_node2"><a xlink:href="classWifiScanner.html#a6e5ab6f8e84e0a67cb8bf41da25e8294" target="_top" xlink:title=" ">
<polygon fill="white" stroke="black" points="194,-39 194,-69 328,-69 328,-39 194,-39"/>
<text text-anchor="start" x="202" y="-57" font-family="Helvetica,sans-Serif" font-size="10.00">WifiScanner::getconnection</text>
<text text-anchor="middle" x="261" y="-46" font-family="Helvetica,sans-Serif" font-size="10.00">Status</text>
</a>
</g>
</g>
<!-- Node1&#45;&gt;Node2 -->
<g id="edge1" class="edge">
<title>Node1&#45;&gt;Node2</title>
<path fill="none" stroke="midnightblue" d="M157.9,-41.52C166.51,-42.57 175.26,-43.64 183.85,-44.69"/>
<polygon fill="midnightblue" stroke="midnightblue" points="183.47,-48.17 193.82,-45.91 184.32,-41.22 183.47,-48.17"/>
</g>
<!-- Node5 -->
<g id="node5" class="node">
<title>Node5</title>
<g id="a_node5"><a xlink:href="classDashBoard.html#ab93e8e74e5199e478540b780f6cf0207" target="_top" xlink:title=" ">
<polygon fill="white" stroke="black" points="212.5,-0.5 212.5,-19.5 309.5,-19.5 309.5,-0.5 212.5,-0.5"/>
<text text-anchor="middle" x="261" y="-7.5" font-family="Helvetica,sans-Serif" font-size="10.00">DashBoard::setwifi</text>
</a>
</g>
</g>
<!-- Node1&#45;&gt;Node5 -->
<g id="edge4" class="edge">
<title>Node1&#45;&gt;Node5</title>
<path fill="none" stroke="midnightblue" d="M157.9,-22.48C172.81,-20.66 188.17,-18.78 202.31,-17.05"/>
<polygon fill="midnightblue" stroke="midnightblue" points="202.86,-20.51 212.36,-15.82 202.01,-13.56 202.86,-20.51"/>
</g>
<!-- Node3 -->
<g id="node3" class="node">
<title>Node3</title>
<g id="a_node3"><a xlink:href="classDashBoard.html#a738f9797e6376545836564e3257714fa" target="_top" xlink:title=" ">
<polygon fill="white" stroke="black" points="364,-63.5 364,-82.5 501,-82.5 501,-63.5 364,-63.5"/>
<text text-anchor="middle" x="432.5" y="-70.5" font-family="Helvetica,sans-Serif" font-size="10.00">DashBoard::setEthernetStat</text>
</a>
</g>
</g>
<!-- Node2&#45;&gt;Node3 -->
<g id="edge2" class="edge">
<title>Node2&#45;&gt;Node3</title>
<path fill="none" stroke="midnightblue" d="M328.02,-61.4C336.5,-62.35 345.25,-63.33 353.9,-64.3"/>
<polygon fill="midnightblue" stroke="midnightblue" points="353.66,-67.8 363.99,-65.43 354.44,-60.84 353.66,-67.8"/>
</g>
<!-- Node4 -->
<g id="node4" class="node">
<title>Node4</title>
<g id="a_node4"><a xlink:href="classDashBoard.html#a0d39c857ddff05a7b13b12e665a1c4a6" target="_top" xlink:title=" ">
<polygon fill="white" stroke="black" points="374.5,-25.5 374.5,-44.5 490.5,-44.5 490.5,-25.5 374.5,-25.5"/>
<text text-anchor="middle" x="432.5" y="-32.5" font-family="Helvetica,sans-Serif" font-size="10.00">DashBoard::setWifiStat</text>
</a>
</g>
</g>
<!-- Node2&#45;&gt;Node4 -->
<g id="edge3" class="edge">
<title>Node2&#45;&gt;Node4</title>
<path fill="none" stroke="midnightblue" d="M328.02,-46.6C340,-45.26 352.51,-43.85 364.52,-42.51"/>
<polygon fill="midnightblue" stroke="midnightblue" points="364.92,-45.99 374.47,-41.39 364.14,-39.03 364.92,-45.99"/>
</g>
</g>
</svg>
