<?xml version="1.0" encoding="UTF-8" standalone="no"?>
<!DOCTYPE svg PUBLIC "-//W3C//DTD SVG 1.1//EN"
 "http://www.w3.org/Graphics/SVG/1.1/DTD/svg11.dtd">
<!-- Generated by graphviz version 2.49.3 (20211027.1534)
 -->
<!-- Title: DashBoard::setgpsFIXtype Pages: 1 -->
<svg width="1510pt" height="528pt"
 viewBox="0.00 0.00 1510.00 527.97" xmlns="http://www.w3.org/2000/svg" xmlns:xlink="http://www.w3.org/1999/xlink">
<g id="graph0" class="graph" transform="scale(1 1) rotate(0) translate(4 523.97)">
<title>DashBoard::setgpsFIXtype</title>
<polygon fill="white" stroke="transparent" points="-4,4 -4,-523.97 1506,-523.97 1506,4 -4,4"/>
<!-- Node1 -->
<g id="node1" class="node">
<title>Node1</title>
<g id="a_node1"><a xlink:title=" ">
<polygon fill="#bfbfbf" stroke="black" points="1370,-333.72 1370,-352.72 1502,-352.72 1502,-333.72 1370,-333.72"/>
<text text-anchor="middle" x="1436" y="-340.72" font-family="Helvetica,sans-Serif" font-size="10.00">DashBoard::setgpsFIXtype</text>
</a>
</g>
</g>
<!-- Node2 -->
<g id="node2" class="node">
<title>Node2</title>
<g id="a_node2"><a xlink:href="classGPS.html#ae4568ef4d5107c96c1af68d1abd33559" target="_top" xlink:title=" ">
<polygon fill="white" stroke="black" points="1089,-143.72 1089,-162.72 1203,-162.72 1203,-143.72 1089,-143.72"/>
<text text-anchor="middle" x="1146" y="-150.72" font-family="Helvetica,sans-Serif" font-size="10.00">GPS::closeConnection</text>
</a>
</g>
</g>
<!-- Node1&#45;&gt;Node2 -->
<g id="edge1" class="edge">
<title>Node1&#45;&gt;Node2</title>
<path fill="none" stroke="midnightblue" d="M1411.97,-328.03C1354.96,-290.42 1208.5,-193.8 1161.65,-162.89"/>
<polygon fill="midnightblue" stroke="midnightblue" points="1410.05,-330.95 1420.32,-333.54 1413.9,-325.11 1410.05,-330.95"/>
</g>
<!-- Node4 -->
<g id="node4" class="node">
<title>Node4</title>
<g id="a_node4"><a xlink:href="classGPS.html#a8775edfa08840ffb2647e0e5ba031fe5" target="_top" xlink:title=" ">
<polygon fill="white" stroke="black" points="445,-219.72 445,-238.72 564,-238.72 564,-219.72 445,-219.72"/>
<text text-anchor="middle" x="504.5" y="-226.72" font-family="Helvetica,sans-Serif" font-size="10.00">GPS::closeConnection1</text>
</a>
</g>
</g>
<!-- Node1&#45;&gt;Node4 -->
<g id="edge20" class="edge">
<title>Node1&#45;&gt;Node4</title>
<path fill="none" stroke="midnightblue" d="M1380.35,-331.67C1322.63,-320.49 1228.83,-305.22 1147,-305.22 1147,-305.22 1147,-305.22 972,-305.22 808.5,-305.22 616.91,-259.18 540.01,-238.77"/>
<polygon fill="midnightblue" stroke="midnightblue" points="1379.86,-335.14 1390.34,-333.63 1381.21,-328.27 1379.86,-335.14"/>
</g>
<!-- Node5 -->
<g id="node5" class="node">
<title>Node5</title>
<g id="a_node5"><a xlink:href="classGPS.html#abd750ada6a7b976f72761ce16246ccf6" target="_top" xlink:title=" ">
<polygon fill="white" stroke="black" points="289,-333.72 289,-352.72 409,-352.72 409,-333.72 289,-333.72"/>
<text text-anchor="middle" x="349" y="-340.72" font-family="Helvetica,sans-Serif" font-size="10.00">GPS::setGPSBAUD115</text>
</a>
</g>
</g>
<!-- Node1&#45;&gt;Node5 -->
<g id="edge33" class="edge">
<title>Node1&#45;&gt;Node5</title>
<path fill="none" stroke="midnightblue" d="M1359.61,-343.22C1301.51,-343.22 1219.17,-343.22 1147,-343.22 1147,-343.22 1147,-343.22 655,-343.22 569.48,-343.22 470.48,-343.22 409.04,-343.22"/>
<polygon fill="midnightblue" stroke="midnightblue" points="1359.8,-346.72 1369.8,-343.22 1359.8,-339.72 1359.8,-346.72"/>
</g>
<!-- Node8 -->
<g id="node8" class="node">
<title>Node8</title>
<g id="a_node8"><a xlink:href="classGPS.html#a51eaea2422dd980ea0a6d28f12a136de" target="_top" xlink:title=" ">
<polygon fill="white" stroke="black" points="600,-143.72 600,-162.72 712,-162.72 712,-143.72 600,-143.72"/>
<text text-anchor="middle" x="656" y="-150.72" font-family="Helvetica,sans-Serif" font-size="10.00">GPS::openConnection</text>
</a>
</g>
</g>
<!-- Node1&#45;&gt;Node8 -->
<g id="edge25" class="edge">
<title>Node1&#45;&gt;Node8</title>
<path fill="none" stroke="midnightblue" d="M1424.28,-325.17C1390.76,-271.26 1282.06,-115.22 1147,-115.22 1147,-115.22 1147,-115.22 972,-115.22 877.12,-115.22 767.31,-132.43 705.62,-143.68"/>
<polygon fill="midnightblue" stroke="midnightblue" points="1421.3,-327 1429.49,-333.71 1427.28,-323.36 1421.3,-327"/>
</g>
<!-- Node9 -->
<g id="node9" class="node">
<title>Node9</title>
<g id="a_node9"><a xlink:href="classGPS.html#a217097ae4a846c621f001a5aa1f4fb4f" target="_top" xlink:title=" ">
<polygon fill="white" stroke="black" points="135,-390.72 135,-409.72 253,-409.72 253,-390.72 135,-390.72"/>
<text text-anchor="middle" x="194" y="-397.72" font-family="Helvetica,sans-Serif" font-size="10.00">GPS::ProcessMessage</text>
</a>
</g>
</g>
<!-- Node1&#45;&gt;Node9 -->
<g id="edge28" class="edge">
<title>Node1&#45;&gt;Node9</title>
<path fill="none" stroke="midnightblue" d="M1380.35,-354.78C1322.63,-365.96 1228.83,-381.22 1147,-381.22 1147,-381.22 1147,-381.22 503.5,-381.22 416.17,-381.22 315.19,-388.9 253.22,-394.5"/>
<polygon fill="midnightblue" stroke="midnightblue" points="1381.21,-358.17 1390.34,-352.81 1379.86,-351.31 1381.21,-358.17"/>
</g>
<!-- Node11 -->
<g id="node11" class="node">
<title>Node11</title>
<g id="a_node11"><a xlink:href="classGPS.html#a14c64eb8a4939f8f734b93ef3a21bb19" target="_top" xlink:title=" ">
<polygon fill="white" stroke="black" points="1243,-48.72 1243,-67.72 1334,-67.72 1334,-48.72 1243,-48.72"/>
<text text-anchor="middle" x="1288.5" y="-55.72" font-family="Helvetica,sans-Serif" font-size="10.00">GPS::handleError</text>
</a>
</g>
</g>
<!-- Node1&#45;&gt;Node11 -->
<g id="edge21" class="edge">
<title>Node1&#45;&gt;Node11</title>
<path fill="none" stroke="midnightblue" d="M1429.75,-323.51C1417.68,-280.46 1385,-175.94 1334,-101.22 1325.16,-88.27 1311.93,-76.1 1302.19,-68.04"/>
<polygon fill="midnightblue" stroke="midnightblue" points="1426.41,-324.57 1432.43,-333.29 1433.16,-322.72 1426.41,-324.57"/>
</g>
<!-- Node12 -->
<g id="node12" class="node">
<title>Node12</title>
<g id="a_node12"><a xlink:href="classGPS.html#a6fbf5e49f6a05b056835666f2e1cb830" target="_top" xlink:title=" ">
<polygon fill="white" stroke="black" points="748,-485.72 748,-504.72 861,-504.72 861,-485.72 748,-485.72"/>
<text text-anchor="middle" x="804.5" y="-492.72" font-family="Helvetica,sans-Serif" font-size="10.00">GPS::processGPGGA</text>
</a>
</g>
</g>
<!-- Node1&#45;&gt;Node12 -->
<g id="edge26" class="edge">
<title>Node1&#45;&gt;Node12</title>
<path fill="none" stroke="midnightblue" d="M1424.47,-361.99C1408.59,-388.33 1375.87,-435.59 1334,-458.22 1177.22,-542.95 955.03,-520.62 856.24,-504.75"/>
<polygon fill="midnightblue" stroke="midnightblue" points="1427.7,-363.41 1429.72,-353.01 1421.65,-359.88 1427.7,-363.41"/>
</g>
<!-- Node13 -->
<g id="node13" class="node">
<title>Node13</title>
<g id="a_node13"><a xlink:href="classGPS.html#a125284d30c7901ba52ed190e519bc3b2" target="_top" xlink:title=" ">
<polygon fill="white" stroke="black" points="1085,-447.72 1085,-466.72 1207,-466.72 1207,-447.72 1085,-447.72"/>
<text text-anchor="middle" x="1146" y="-454.72" font-family="Helvetica,sans-Serif" font-size="10.00">GPS::removeNMEAmsg</text>
</a>
</g>
</g>
<!-- Node1&#45;&gt;Node13 -->
<g id="edge29" class="edge">
<title>Node1&#45;&gt;Node13</title>
<path fill="none" stroke="midnightblue" d="M1421.2,-360.75C1403.48,-381.85 1370.63,-416.52 1334,-433.22 1294.24,-451.35 1245.1,-457.1 1207.17,-458.45"/>
<polygon fill="midnightblue" stroke="midnightblue" points="1424.01,-362.84 1427.63,-352.88 1418.59,-358.41 1424.01,-362.84"/>
</g>
<!-- Node14 -->
<g id="node14" class="node">
<title>Node14</title>
<g id="a_node14"><a xlink:href="classGPS.html#a052c61711107964bbde54f86edb110ff" target="_top" xlink:title=" ">
<polygon fill="white" stroke="black" points="922.5,-409.72 922.5,-428.72 1023.5,-428.72 1023.5,-409.72 922.5,-409.72"/>
<text text-anchor="middle" x="973" y="-416.72" font-family="Helvetica,sans-Serif" font-size="10.00">GPS::setGPS10HZ</text>
</a>
</g>
</g>
<!-- Node1&#45;&gt;Node14 -->
<g id="edge31" class="edge">
<title>Node1&#45;&gt;Node14</title>
<path fill="none" stroke="midnightblue" d="M1412.48,-358.25C1392.71,-370.57 1362.71,-387.25 1334,-395.22 1226.42,-425.11 1094.12,-425.01 1023.68,-422.2"/>
<polygon fill="midnightblue" stroke="midnightblue" points="1414.51,-361.1 1421.05,-352.77 1410.74,-355.2 1414.51,-361.1"/>
</g>
<!-- Node3 -->
<g id="node3" class="node">
<title>Node3</title>
<g id="a_node3"><a xlink:href="classGPS.html#aaf69fb801bbce2ea70041e68fe0ec19a" target="_top" xlink:title=" ">
<polygon fill="white" stroke="black" points="897,-143.72 897,-162.72 1049,-162.72 1049,-143.72 897,-143.72"/>
<text text-anchor="middle" x="973" y="-150.72" font-family="Helvetica,sans-Serif" font-size="10.00">GPS::handleReconnectTimeout</text>
</a>
</g>
</g>
<!-- Node2&#45;&gt;Node3 -->
<g id="edge2" class="edge">
<title>Node2&#45;&gt;Node3</title>
<path fill="none" stroke="midnightblue" d="M1078.28,-146.62C1068.68,-146.47 1058.76,-146.43 1049.01,-146.52"/>
<polygon fill="midnightblue" stroke="midnightblue" points="1078.46,-150.12 1088.53,-146.83 1078.61,-143.12 1078.46,-150.12"/>
</g>
<!-- Node2&#45;&gt;Node8 -->
<g id="edge19" class="edge">
<title>Node2&#45;&gt;Node8</title>
<path fill="none" stroke="midnightblue" d="M1095.94,-164.85C1080.97,-167.88 1064.39,-170.71 1049,-172.22 915.84,-185.27 881.22,-179.66 748,-167.22 736.38,-166.14 723.99,-164.53 712.21,-162.79"/>
<polygon fill="midnightblue" stroke="midnightblue" points="1096.96,-168.21 1106.02,-162.73 1095.52,-161.36 1096.96,-168.21"/>
</g>
<!-- Node3&#45;&gt;Node2 -->
<g id="edge3" class="edge">
<title>Node3&#45;&gt;Node2</title>
<path fill="none" stroke="midnightblue" d="M1059.32,-159.97C1069.23,-159.97 1079.15,-159.85 1088.53,-159.61"/>
<polygon fill="midnightblue" stroke="midnightblue" points="1059.03,-156.47 1049.01,-159.93 1059,-163.47 1059.03,-156.47"/>
</g>
<!-- Node3&#45;&gt;Node4 -->
<g id="edge4" class="edge">
<title>Node3&#45;&gt;Node4</title>
<path fill="none" stroke="midnightblue" d="M903.36,-164.4C811.5,-179.37 650.18,-205.65 563.87,-219.71"/>
<polygon fill="midnightblue" stroke="midnightblue" points="904.08,-167.83 913.39,-162.77 902.96,-160.92 904.08,-167.83"/>
</g>
<!-- Node7 -->
<g id="node7" class="node">
<title>Node7</title>
<g id="a_node7"><a xlink:href="classGPS.html#ac2a7572afb184df9c14ae913f17306bf" target="_top" xlink:title=" ">
<polygon fill="white" stroke="black" points="755.5,-29.72 755.5,-48.72 853.5,-48.72 853.5,-29.72 755.5,-29.72"/>
<text text-anchor="middle" x="804.5" y="-36.72" font-family="Helvetica,sans-Serif" font-size="10.00">GPS::initSerialPort</text>
</a>
</g>
</g>
<!-- Node3&#45;&gt;Node7 -->
<g id="edge18" class="edge">
<title>Node3&#45;&gt;Node7</title>
<path fill="none" stroke="midnightblue" d="M949.55,-137.85C914.73,-114.01 848.69,-68.79 819.72,-48.96"/>
<polygon fill="midnightblue" stroke="midnightblue" points="947.86,-140.94 958.09,-143.7 951.82,-135.16 947.86,-140.94"/>
</g>
<!-- Node4&#45;&gt;Node5 -->
<g id="edge5" class="edge">
<title>Node4&#45;&gt;Node5</title>
<path fill="none" stroke="midnightblue" d="M482.39,-244.9C450.18,-268.82 389.7,-313.73 363.11,-333.48"/>
<polygon fill="midnightblue" stroke="midnightblue" points="484.74,-247.52 490.68,-238.75 480.56,-241.9 484.74,-247.52"/>
</g>
<!-- Node6 -->
<g id="node6" class="node">
<title>Node6</title>
<g id="a_node6"><a xlink:href="classGPS.html#a1b1c89214229f5dc8ff7e2fa9cbcad35" target="_top" xlink:title=" ">
<polygon fill="white" stroke="black" points="141,-267.72 141,-286.72 247,-286.72 247,-267.72 141,-267.72"/>
<text text-anchor="middle" x="194" y="-274.72" font-family="Helvetica,sans-Serif" font-size="10.00">GPS::handleTimeout</text>
</a>
</g>
</g>
<!-- Node5&#45;&gt;Node6 -->
<g id="edge6" class="edge">
<title>Node5&#45;&gt;Node6</title>
<path fill="none" stroke="midnightblue" d="M314.6,-329.86C306.22,-326.45 297.26,-322.75 289,-319.22 263.68,-308.42 234.81,-295.41 215.82,-286.77"/>
<polygon fill="midnightblue" stroke="midnightblue" points="313.51,-333.2 324.1,-333.71 316.14,-326.71 313.51,-333.2"/>
</g>
<!-- Node5&#45;&gt;Node9 -->
<g id="edge13" class="edge">
<title>Node5&#45;&gt;Node9</title>
<path fill="none" stroke="midnightblue" d="M312.93,-356.29C284.81,-366.76 245.99,-381.23 220.69,-390.65"/>
<polygon fill="midnightblue" stroke="midnightblue" points="314.24,-359.53 322.39,-352.76 311.8,-352.97 314.24,-359.53"/>
</g>
<!-- Node6&#45;&gt;Node2 -->
<g id="edge7" class="edge">
<title>Node6&#45;&gt;Node2</title>
<path fill="none" stroke="midnightblue" d="M257.64,-275.5C300.35,-274.03 358.15,-271.46 409,-267.22 694.5,-243.41 770.98,-259.38 1049,-190.22 1075.87,-183.54 1105.39,-171.38 1124.51,-162.83"/>
<polygon fill="midnightblue" stroke="midnightblue" points="257.28,-272.01 247.4,-275.84 257.51,-279.01 257.28,-272.01"/>
</g>
<!-- Node6&#45;&gt;Node4 -->
<g id="edge8" class="edge">
<title>Node6&#45;&gt;Node4</title>
<path fill="none" stroke="midnightblue" d="M257.04,-267.57C311.79,-259.05 391.01,-246.72 444.75,-238.36"/>
<polygon fill="midnightblue" stroke="midnightblue" points="256.46,-264.12 247.12,-269.11 257.54,-271.03 256.46,-264.12"/>
</g>
<!-- Node6&#45;&gt;Node7 -->
<g id="edge9" class="edge">
<title>Node6&#45;&gt;Node7</title>
<path fill="none" stroke="midnightblue" d="M224.26,-263.13C290.28,-231.63 456.3,-154.14 600,-101.22 657.88,-79.91 726.84,-60.02 767.8,-48.76"/>
<polygon fill="midnightblue" stroke="midnightblue" points="222.41,-260.13 214.9,-267.6 225.43,-266.45 222.41,-260.13"/>
</g>
<!-- Node7&#45;&gt;Node8 -->
<g id="edge10" class="edge">
<title>Node7&#45;&gt;Node8</title>
<path fill="none" stroke="midnightblue" d="M783.36,-54.9C752.61,-78.82 694.89,-123.73 669.51,-143.48"/>
<polygon fill="midnightblue" stroke="midnightblue" points="785.52,-57.65 791.26,-48.75 781.22,-52.12 785.52,-57.65"/>
</g>
<!-- Node8&#45;&gt;Node3 -->
<g id="edge12" class="edge">
<title>Node8&#45;&gt;Node3</title>
<path fill="none" stroke="midnightblue" d="M722.46,-153.22C773.29,-153.22 843.83,-153.22 896.95,-153.22"/>
<polygon fill="midnightblue" stroke="midnightblue" points="722.25,-149.72 712.25,-153.22 722.25,-156.72 722.25,-149.72"/>
</g>
<!-- Node8&#45;&gt;Node4 -->
<g id="edge11" class="edge">
<title>Node8&#45;&gt;Node4</title>
<path fill="none" stroke="midnightblue" d="M626.96,-167.48C596.94,-182.74 550.15,-206.52 524.28,-219.67"/>
<polygon fill="midnightblue" stroke="midnightblue" points="628.74,-170.5 636.07,-162.85 625.57,-164.26 628.74,-170.5"/>
</g>
<!-- Node10 -->
<g id="node10" class="node">
<title>Node10</title>
<g id="a_node10"><a xlink:href="classGPS.html#aa0928d156961a54bf06d9b5210d85561" target="_top" xlink:title=" ">
<polygon fill="white" stroke="black" points="0,-48.72 0,-67.72 99,-67.72 99,-48.72 0,-48.72"/>
<text text-anchor="middle" x="49.5" y="-55.72" font-family="Helvetica,sans-Serif" font-size="10.00">GPS::readyToRead</text>
</a>
</g>
</g>
<!-- Node9&#45;&gt;Node10 -->
<g id="edge14" class="edge">
<title>Node9&#45;&gt;Node10</title>
<path fill="none" stroke="midnightblue" d="M181.53,-381.88C169.06,-361.47 149.05,-327.28 135,-296.22 96.14,-210.34 62.95,-100.84 53.32,-67.97"/>
<polygon fill="midnightblue" stroke="midnightblue" points="178.6,-383.8 186.83,-390.47 184.56,-380.12 178.6,-383.8"/>
</g>
<!-- Node10&#45;&gt;Node2 -->
<g id="edge15" class="edge">
<title>Node10&#45;&gt;Node2</title>
<path fill="none" stroke="midnightblue" d="M89.73,-45.79C146.2,-29.02 253.99,-1.22 348,-1.22 657,-1.22 657,-1.22 657,-1.22 748.06,-1.22 773.13,3.66 861,-20.22 969.75,-49.78 1088.32,-118.5 1129.72,-143.72"/>
<polygon fill="midnightblue" stroke="midnightblue" points="88.69,-42.45 80.12,-48.68 90.71,-49.15 88.69,-42.45"/>
</g>
<!-- Node10&#45;&gt;Node4 -->
<g id="edge16" class="edge">
<title>Node10&#45;&gt;Node4</title>
<path fill="none" stroke="midnightblue" d="M85.44,-71.41C173.28,-104.57 401.74,-190.81 478.17,-219.66"/>
<polygon fill="midnightblue" stroke="midnightblue" points="86.52,-68.08 75.93,-67.82 84.05,-74.63 86.52,-68.08"/>
</g>
<!-- Node10&#45;&gt;Node7 -->
<g id="edge17" class="edge">
<title>Node10&#45;&gt;Node7</title>
<path fill="none" stroke="midnightblue" d="M109.17,-52.26C169.13,-46.69 264.95,-39.22 348,-39.22 505.5,-39.22 505.5,-39.22 505.5,-39.22 593.58,-39.22 696.31,-39.22 755.24,-39.22"/>
<polygon fill="midnightblue" stroke="midnightblue" points="108.76,-48.78 99.14,-53.2 109.42,-55.75 108.76,-48.78"/>
</g>
<!-- Node11&#45;&gt;Node2 -->
<g id="edge22" class="edge">
<title>Node11&#45;&gt;Node2</title>
<path fill="none" stroke="midnightblue" d="M1264.91,-73.5C1235.71,-93.24 1185.71,-127.05 1161.28,-143.56"/>
<polygon fill="midnightblue" stroke="midnightblue" points="1266.93,-76.35 1273.25,-67.85 1263.01,-70.56 1266.93,-76.35"/>
</g>
<!-- Node11&#45;&gt;Node4 -->
<g id="edge23" class="edge">
<title>Node11&#45;&gt;Node4</title>
<path fill="none" stroke="midnightblue" d="M1232.67,-58.93C1089.62,-61.62 708.63,-74.35 600,-134.22 560.07,-156.23 525.89,-200.23 512.06,-219.64"/>
<polygon fill="midnightblue" stroke="midnightblue" points="1233.02,-62.43 1242.96,-58.75 1232.9,-55.43 1233.02,-62.43"/>
</g>
<!-- Node11&#45;&gt;Node7 -->
<g id="edge24" class="edge">
<title>Node11&#45;&gt;Node7</title>
<path fill="none" stroke="midnightblue" d="M1260.57,-44.1C1245.31,-36.89 1225.6,-28.89 1207,-25.22 1081.43,-0.48 929.59,-18.4 853.65,-30.54"/>
<polygon fill="midnightblue" stroke="midnightblue" points="1259.38,-47.41 1269.9,-48.66 1262.46,-41.12 1259.38,-47.41"/>
</g>
<!-- Node12&#45;&gt;Node9 -->
<g id="edge27" class="edge">
<title>Node12&#45;&gt;Node9</title>
<path fill="none" stroke="midnightblue" d="M737.75,-504.23C637.53,-515.33 442.06,-526.53 289,-471.22 252.84,-458.15 219.09,-425.99 203.72,-409.82"/>
<polygon fill="midnightblue" stroke="midnightblue" points="738.19,-507.7 747.73,-503.09 737.4,-500.75 738.19,-507.7"/>
</g>
<!-- Node13&#45;&gt;Node9 -->
<g id="edge30" class="edge">
<title>Node13&#45;&gt;Node9</title>
<path fill="none" stroke="midnightblue" d="M1074.64,-457.22C1005.98,-457.22 898.56,-457.22 805.5,-457.22 805.5,-457.22 805.5,-457.22 503.5,-457.22 400.29,-457.22 280.84,-425.99 225.74,-409.76"/>
<polygon fill="midnightblue" stroke="midnightblue" points="1074.9,-460.72 1084.9,-457.22 1074.9,-453.72 1074.9,-460.72"/>
</g>
<!-- Node14&#45;&gt;Node9 -->
<g id="edge32" class="edge">
<title>Node14&#45;&gt;Node9</title>
<path fill="none" stroke="midnightblue" d="M912.15,-419.22C848.78,-419.22 745.84,-419.22 657,-419.22 657,-419.22 657,-419.22 503.5,-419.22 416.17,-419.22 315.19,-411.54 253.22,-405.95"/>
<polygon fill="midnightblue" stroke="midnightblue" points="912.35,-422.72 922.35,-419.22 912.35,-415.72 912.35,-422.72"/>
</g>
</g>
</svg>
