<?xml version="1.0" encoding="UTF-8" standalone="no"?>
<!DOCTYPE svg PUBLIC "-//W3C//DTD SVG 1.1//EN"
 "http://www.w3.org/Graphics/SVG/1.1/DTD/svg11.dtd">
<!-- Generated by graphviz version 2.49.3 (20211027.1534)
 -->
<!-- Title: DashBoard::boostwgChanged Pages: 1 -->
<svg width="1386pt" height="132pt"
 viewBox="0.00 0.00 1386.00 132.00" xmlns="http://www.w3.org/2000/svg" xmlns:xlink="http://www.w3.org/1999/xlink">
<g id="graph0" class="graph" transform="scale(1 1) rotate(0) translate(4 128)">
<title>DashBoard::boostwgChanged</title>
<polygon fill="white" stroke="transparent" points="-4,4 -4,-128 1382,-128 1382,4 -4,4"/>
<!-- Node1 -->
<g id="node1" class="node">
<title>Node1</title>
<g id="a_node1"><a xlink:title=" ">
<polygon fill="#bfbfbf" stroke="black" points="1234,-42.5 1234,-61.5 1378,-61.5 1378,-42.5 1234,-42.5"/>
<text text-anchor="middle" x="1306" y="-49.5" font-family="Helvetica,sans-Serif" font-size="10.00">DashBoard::boostwgChanged</text>
</a>
</g>
</g>
<!-- Node2 -->
<g id="node2" class="node">
<title>Node2</title>
<g id="a_node2"><a xlink:href="classDashBoard.html#ad7eafea8b5a643e82155945495ff2aef" target="_top" xlink:title=" ">
<polygon fill="white" stroke="black" points="1077,-42.5 1077,-61.5 1198,-61.5 1198,-42.5 1077,-42.5"/>
<text text-anchor="middle" x="1137.5" y="-49.5" font-family="Helvetica,sans-Serif" font-size="10.00">DashBoard::setBoostwg</text>
</a>
</g>
</g>
<!-- Node1&#45;&gt;Node2 -->
<g id="edge1" class="edge">
<title>Node1&#45;&gt;Node2</title>
<path fill="none" stroke="midnightblue" d="M1223.78,-52C1215.12,-52 1206.44,-52 1198.1,-52"/>
<polygon fill="midnightblue" stroke="midnightblue" points="1223.91,-55.5 1233.91,-52 1223.91,-48.5 1223.91,-55.5"/>
</g>
<!-- Node3 -->
<g id="node3" class="node">
<title>Node3</title>
<g id="a_node3"><a xlink:href="classApexi.html#a3ecd8445700ab9532fc051325f66d03d" target="_top" xlink:title=" ">
<polygon fill="white" stroke="black" points="923.5,-72.5 923.5,-91.5 1017.5,-91.5 1017.5,-72.5 923.5,-72.5"/>
<text text-anchor="middle" x="970.5" y="-79.5" font-family="Helvetica,sans-Serif" font-size="10.00">Apexi::decodeAdv</text>
</a>
</g>
</g>
<!-- Node2&#45;&gt;Node3 -->
<g id="edge2" class="edge">
<title>Node2&#45;&gt;Node3</title>
<path fill="none" stroke="midnightblue" d="M1073.91,-63.38C1055.18,-66.79 1035,-70.45 1017.55,-73.63"/>
<polygon fill="midnightblue" stroke="midnightblue" points="1074.63,-66.81 1083.84,-61.57 1073.37,-59.92 1074.63,-66.81"/>
</g>
<!-- Node13 -->
<g id="node13" class="node">
<title>Node13</title>
<g id="a_node13"><a xlink:href="classudpreceiver.html#a725cf4f5cf798fd5baed7eee2e6dd5f2" target="_top" xlink:title=" ">
<polygon fill="white" stroke="black" points="900,-15 900,-45 1041,-45 1041,-15 900,-15"/>
<text text-anchor="start" x="908" y="-33" font-family="Helvetica,sans-Serif" font-size="10.00">udpreceiver::processPending</text>
<text text-anchor="middle" x="970.5" y="-22" font-family="Helvetica,sans-Serif" font-size="10.00">Datagrams</text>
</a>
</g>
</g>
<!-- Node2&#45;&gt;Node13 -->
<g id="edge15" class="edge">
<title>Node2&#45;&gt;Node13</title>
<path fill="none" stroke="midnightblue" d="M1066.98,-42.73C1058.42,-41.59 1049.66,-40.42 1041.09,-39.28"/>
<polygon fill="midnightblue" stroke="midnightblue" points="1066.56,-46.21 1076.93,-44.06 1067.48,-39.27 1066.56,-46.21"/>
</g>
<!-- Node4 -->
<g id="node4" class="node">
<title>Node4</title>
<g id="a_node4"><a xlink:href="classApexi.html#a4e7b389e8d3e283a12733ab4f8492be3" target="_top" xlink:title=" ">
<polygon fill="white" stroke="black" points="780,-74.5 780,-93.5 864,-93.5 864,-74.5 780,-74.5"/>
<text text-anchor="middle" x="822" y="-81.5" font-family="Helvetica,sans-Serif" font-size="10.00">Apexi::readData</text>
</a>
</g>
</g>
<!-- Node3&#45;&gt;Node4 -->
<g id="edge3" class="edge">
<title>Node3&#45;&gt;Node4</title>
<path fill="none" stroke="midnightblue" d="M912.7,-82.78C896.5,-83 879.17,-83.23 864.1,-83.44"/>
<polygon fill="midnightblue" stroke="midnightblue" points="913.2,-86.27 923.15,-82.63 913.1,-79.27 913.2,-86.27"/>
</g>
<!-- Node5 -->
<g id="node5" class="node">
<title>Node5</title>
<g id="a_node5"><a xlink:href="classApexi.html#a4cb1314ab5ca5175aa227ed178148f40" target="_top" xlink:title=" ">
<polygon fill="white" stroke="black" points="637.5,-76.5 637.5,-95.5 725.5,-95.5 725.5,-76.5 637.5,-76.5"/>
<text text-anchor="middle" x="681.5" y="-83.5" font-family="Helvetica,sans-Serif" font-size="10.00">Apexi::apexiECU</text>
</a>
</g>
</g>
<!-- Node4&#45;&gt;Node5 -->
<g id="edge4" class="edge">
<title>Node4&#45;&gt;Node5</title>
<path fill="none" stroke="midnightblue" d="M769.55,-84.74C755.12,-84.95 739.58,-85.18 725.69,-85.38"/>
<polygon fill="midnightblue" stroke="midnightblue" points="769.87,-88.24 779.82,-84.59 769.77,-81.24 769.87,-88.24"/>
</g>
<!-- Node6 -->
<g id="node6" class="node">
<title>Node6</title>
<g id="a_node6"><a xlink:href="classApexi.html#abe3bf6800fce8a4c713a08c14474d625" target="_top" xlink:title=" ">
<polygon fill="white" stroke="black" points="481,-76.5 481,-95.5 583,-95.5 583,-76.5 481,-76.5"/>
<text text-anchor="middle" x="532" y="-83.5" font-family="Helvetica,sans-Serif" font-size="10.00">Apexi::readyToRead</text>
</a>
</g>
</g>
<!-- Node5&#45;&gt;Node6 -->
<g id="edge5" class="edge">
<title>Node5&#45;&gt;Node6</title>
<path fill="none" stroke="midnightblue" d="M627.21,-86C612.83,-86 597.33,-86 583.14,-86"/>
<polygon fill="midnightblue" stroke="midnightblue" points="627.44,-89.5 637.44,-86 627.44,-82.5 627.44,-89.5"/>
</g>
<!-- Node7 -->
<g id="node7" class="node">
<title>Node7</title>
<g id="a_node7"><a xlink:href="classApexi.html#a669124cabae4ada616e650e582c068da" target="_top" xlink:title=" ">
<polygon fill="white" stroke="black" points="328,-38.5 328,-57.5 445,-57.5 445,-38.5 328,-38.5"/>
<text text-anchor="middle" x="386.5" y="-45.5" font-family="Helvetica,sans-Serif" font-size="10.00">Apexi::closeConnection</text>
</a>
</g>
</g>
<!-- Node6&#45;&gt;Node7 -->
<g id="edge6" class="edge">
<title>Node6&#45;&gt;Node7</title>
<path fill="none" stroke="midnightblue" d="M485.03,-73.83C465.18,-68.57 442.31,-62.51 423.7,-57.59"/>
<polygon fill="midnightblue" stroke="midnightblue" points="484.23,-77.23 494.79,-76.41 486.02,-70.47 484.23,-77.23"/>
</g>
<!-- Node12 -->
<g id="node12" class="node">
<title>Node12</title>
<g id="a_node12"><a xlink:href="classApexi.html#a169d6e9466a6c04e6533c8e84fdcaadb" target="_top" xlink:title=" ">
<polygon fill="white" stroke="black" points="336,-76.5 336,-95.5 437,-95.5 437,-76.5 336,-76.5"/>
<text text-anchor="middle" x="386.5" y="-83.5" font-family="Helvetica,sans-Serif" font-size="10.00">Apexi::initSerialPort</text>
</a>
</g>
</g>
<!-- Node6&#45;&gt;Node12 -->
<g id="edge13" class="edge">
<title>Node6&#45;&gt;Node12</title>
<path fill="none" stroke="midnightblue" d="M470.75,-86C459.65,-86 448.17,-86 437.42,-86"/>
<polygon fill="midnightblue" stroke="midnightblue" points="470.81,-89.5 480.81,-86 470.81,-82.5 470.81,-89.5"/>
</g>
<!-- Node7&#45;&gt;Node4 -->
<g id="edge12" class="edge">
<title>Node7&#45;&gt;Node4</title>
<path fill="none" stroke="midnightblue" d="M455.48,-48.32C527.45,-49.42 644.2,-53.42 744,-67 757.02,-68.77 771.11,-71.61 783.62,-74.46"/>
<polygon fill="midnightblue" stroke="midnightblue" points="455.24,-44.81 445.2,-48.17 455.15,-51.81 455.24,-44.81"/>
</g>
<!-- Node8 -->
<g id="node8" class="node">
<title>Node8</title>
<g id="a_node8"><a xlink:href="classConnect.html#abb89a14af2e2b3f6d466c5abfc95cff0" target="_top" xlink:title=" ">
<polygon fill="white" stroke="black" points="163,-38.5 163,-57.5 292,-57.5 292,-38.5 163,-38.5"/>
<text text-anchor="middle" x="227.5" y="-45.5" font-family="Helvetica,sans-Serif" font-size="10.00">Connect::closeConnection</text>
</a>
</g>
</g>
<!-- Node7&#45;&gt;Node8 -->
<g id="edge7" class="edge">
<title>Node7&#45;&gt;Node8</title>
<path fill="none" stroke="midnightblue" d="M317.7,-48C309.22,-48 300.57,-48 292.15,-48"/>
<polygon fill="midnightblue" stroke="midnightblue" points="317.93,-51.5 327.93,-48 317.93,-44.5 317.93,-51.5"/>
</g>
<!-- Node9 -->
<g id="node9" class="node">
<title>Node9</title>
<g id="a_node9"><a xlink:href="classApexi.html#a84e5eadc545afab5fbb0aea8b27e17c3" target="_top" xlink:title=" ">
<polygon fill="white" stroke="black" points="170,-76.5 170,-95.5 285,-95.5 285,-76.5 170,-76.5"/>
<text text-anchor="middle" x="227.5" y="-83.5" font-family="Helvetica,sans-Serif" font-size="10.00">Apexi::openConnection</text>
</a>
</g>
</g>
<!-- Node7&#45;&gt;Node9 -->
<g id="edge8" class="edge">
<title>Node7&#45;&gt;Node9</title>
<path fill="none" stroke="midnightblue" d="M336.05,-59.97C314.05,-65.29 288.51,-71.48 267.83,-76.48"/>
<polygon fill="midnightblue" stroke="midnightblue" points="336.99,-63.34 345.88,-57.59 335.34,-56.54 336.99,-63.34"/>
</g>
<!-- Node10 -->
<g id="node10" class="node">
<title>Node10</title>
<g id="a_node10"><a xlink:href="classConnect.html#a0d674157f4d7442c535837dadd8cf5f1" target="_top" xlink:title=" ">
<polygon fill="white" stroke="black" points="0,-38.5 0,-57.5 127,-57.5 127,-38.5 0,-38.5"/>
<text text-anchor="middle" x="63.5" y="-45.5" font-family="Helvetica,sans-Serif" font-size="10.00">Connect::openConnection</text>
</a>
</g>
</g>
<!-- Node9&#45;&gt;Node10 -->
<g id="edge9" class="edge">
<title>Node9&#45;&gt;Node10</title>
<path fill="none" stroke="midnightblue" d="M175.79,-74.1C153.01,-68.76 126.51,-62.55 105.09,-57.52"/>
<polygon fill="midnightblue" stroke="midnightblue" points="175.09,-77.53 185.62,-76.41 176.68,-70.72 175.09,-77.53"/>
</g>
<!-- Node11 -->
<g id="node11" class="node">
<title>Node11</title>
<g id="a_node11"><a xlink:href="classApexi.html#af3673b74b8aebe06a2b2f9ed81c23ee4" target="_top" xlink:title=" ">
<polygon fill="white" stroke="black" points="14.5,-95.5 14.5,-114.5 112.5,-114.5 112.5,-95.5 14.5,-95.5"/>
<text text-anchor="middle" x="63.5" y="-102.5" font-family="Helvetica,sans-Serif" font-size="10.00">Apexi::retryconnect</text>
</a>
</g>
</g>
<!-- Node9&#45;&gt;Node11 -->
<g id="edge10" class="edge">
<title>Node9&#45;&gt;Node11</title>
<path fill="none" stroke="midnightblue" d="M159.6,-93.85C143.81,-95.7 127.29,-97.64 112.53,-99.37"/>
<polygon fill="midnightblue" stroke="midnightblue" points="160.32,-97.29 169.84,-92.65 159.5,-90.33 160.32,-97.29"/>
</g>
<!-- Node11&#45;&gt;Node4 -->
<g id="edge11" class="edge">
<title>Node11&#45;&gt;Node4</title>
<path fill="none" stroke="midnightblue" d="M122.91,-110.54C187.2,-116.15 293.62,-124 385.5,-124 533,-124 533,-124 533,-124 627.16,-124 651.33,-121.67 744,-105 759.68,-102.18 776.81,-97.65 790.93,-93.53"/>
<polygon fill="midnightblue" stroke="midnightblue" points="122.85,-107.02 112.58,-109.62 122.23,-113.99 122.85,-107.02"/>
</g>
<!-- Node12&#45;&gt;Node9 -->
<g id="edge14" class="edge">
<title>Node12&#45;&gt;Node9</title>
<path fill="none" stroke="midnightblue" d="M325.82,-86C312.51,-86 298.43,-86 285.24,-86"/>
<polygon fill="midnightblue" stroke="midnightblue" points="325.82,-89.5 335.82,-86 325.82,-82.5 325.82,-89.5"/>
</g>
<!-- Node14 -->
<g id="node14" class="node">
<title>Node14</title>
<g id="a_node14"><a xlink:href="classudpreceiver.html#a2d7852b9e4be87d9a3ce960d8a7eb9aa" target="_top" xlink:title=" ">
<polygon fill="white" stroke="black" points="619,-0.5 619,-19.5 744,-19.5 744,-0.5 619,-0.5"/>
<text text-anchor="middle" x="681.5" y="-7.5" font-family="Helvetica,sans-Serif" font-size="10.00">udpreceiver::startreceiver</text>
</a>
</g>
</g>
<!-- Node13&#45;&gt;Node14 -->
<g id="edge16" class="edge">
<title>Node13&#45;&gt;Node14</title>
<path fill="none" stroke="midnightblue" d="M889.44,-24.42C843.54,-21.22 786.8,-17.27 744.34,-14.31"/>
<polygon fill="midnightblue" stroke="midnightblue" points="889.44,-27.93 899.66,-25.13 889.93,-20.95 889.44,-27.93"/>
</g>
<!-- Node14&#45;&gt;Node10 -->
<g id="edge17" class="edge">
<title>Node14&#45;&gt;Node10</title>
<path fill="none" stroke="midnightblue" d="M608.93,-9.16C508.83,-8.77 321.47,-10.92 163,-29 144.31,-31.13 123.86,-34.85 106.46,-38.43"/>
<polygon fill="midnightblue" stroke="midnightblue" points="608.91,-12.66 618.93,-9.21 608.95,-5.66 608.91,-12.66"/>
</g>
</g>
</svg>
