<?xml version="1.0" encoding="UTF-8" standalone="no"?>
<!DOCTYPE svg PUBLIC "-//W3C//DTD SVG 1.1//EN"
 "http://www.w3.org/Graphics/SVG/1.1/DTD/svg11.dtd">
<!-- Generated by graphviz version 2.49.3 (20211027.1534)
 -->
<!-- Title: GPS::closeConnection Pages: 1 -->
<!--zoomable 226 -->
<svg id="main" version="1.1" xmlns="http://www.w3.org/2000/svg" xmlns:xlink="http://www.w3.org/1999/xlink" xml:space="preserve" onload="init(evt)">
<style type="text/css"><![CDATA[
.edge:hover path { stroke: red; }
.edge:hover polygon { stroke: red; fill: red; }
]]></style>
<script type="text/javascript"><![CDATA[
var edges = document.getElementsByTagName('g');
if (edges && edges.length) {
  for (var i=0;i<edges.length;i++) {
    if (edges[i].id.substr(0,4)=='edge') {
      edges[i].setAttribute('class','edge');
    }
  }
}
]]></script>
        <defs>
                <circle id="rim" cx="0" cy="0" r="7"/>
                <circle id="rim2" cx="0" cy="0" r="3.5"/>
                <g id="zoomPlus">
                        <use xlink:href="#rim" fill="#404040">
                                <set attributeName="fill" to="#808080" begin="zoomplus.mouseover" end="zoomplus.mouseout"/>
                        </use>
                        <path d="M-4,0h8M0,-4v8" fill="none" stroke="white" stroke-width="1.5" pointer-events="none"/>
                </g>
                <g id="zoomMin">
                        <use xlink:href="#rim" fill="#404040">
                                <set attributeName="fill" to="#808080" begin="zoomminus.mouseover" end="zoomminus.mouseout"/>
                        </use>
                        <path d="M-4,0h8" fill="none" stroke="white" stroke-width="1.5" pointer-events="none"/>
                </g>
                <g id="dirArrow">
                        <path fill="none" stroke="white" stroke-width="1.5" d="M0,-3.0v7 M-2.5,-0.5L0,-3.0L2.5,-0.5"/>
                </g>
               <g id="resetDef">
                       <use xlink:href="#rim2" fill="#404040">
                               <set attributeName="fill" to="#808080" begin="reset.mouseover" end="reset.mouseout"/>
                       </use>
               </g>
        </defs>

<script type="text/javascript">
var viewWidth = 1192;
var viewHeight = 226;
var sectionId = 'dynsection-5';
</script>
<script xlink:href="svgpan.js"/>
<svg id="graph" class="graph">
<g id="viewport">
<title>GPS::closeConnection</title>
<polygon fill="white" stroke="transparent" points="-4,4 -4,-222.03 1188,-222.03 1188,4 -4,4"/>
<!-- Node1 -->
<g id="node1" class="node">
<title>Node1</title>
<g id="a_node1"><a xlink:title=" ">
<polygon fill="#bfbfbf" stroke="black" points="1070,-75.53 1070,-94.53 1184,-94.53 1184,-75.53 1070,-75.53"/>
<text text-anchor="middle" x="1127" y="-82.53" font-family="Helvetica,sans-Serif" font-size="10.00">GPS::closeConnection</text>
</a>
</g>
</g>
<!-- Node2 -->
<g id="node2" class="node">
<title>Node2</title>
<g id="a_node2"><a xlink:href="classGPS.html#aaf69fb801bbce2ea70041e68fe0ec19a" target="_top" xlink:title=" ">
<polygon fill="white" stroke="black" points="882,-75.53 882,-94.53 1034,-94.53 1034,-75.53 882,-75.53"/>
<text text-anchor="middle" x="958" y="-82.53" font-family="Helvetica,sans-Serif" font-size="10.00">GPS::handleReconnectTimeout</text>
</a>
</g>
</g>
<!-- Node1&#45;&gt;Node2 -->
<g id="edge1" class="edge">
<title>Node1&#45;&gt;Node2</title>
<path fill="none" stroke="midnightblue" d="M1059.81,-78.41C1051.4,-78.28 1042.75,-78.25 1034.21,-78.31"/>
<polygon fill="midnightblue" stroke="midnightblue" points="1059.86,-81.91 1069.93,-78.61 1060,-74.91 1059.86,-81.91"/>
</g>
<!-- Node7 -->
<g id="node7" class="node">
<title>Node7</title>
<g id="a_node7"><a xlink:href="classGPS.html#a51eaea2422dd980ea0a6d28f12a136de" target="_top" xlink:title=" ">
<polygon fill="white" stroke="black" points="600,-56.53 600,-75.53 712,-75.53 712,-56.53 600,-56.53"/>
<text text-anchor="middle" x="656" y="-63.53" font-family="Helvetica,sans-Serif" font-size="10.00">GPS::openConnection</text>
</a>
</g>
</g>
<!-- Node1&#45;&gt;Node7 -->
<g id="edge18" class="edge">
<title>Node1&#45;&gt;Node7</title>
<path fill="none" stroke="midnightblue" d="M1078.6,-73.32C1064.35,-70.32 1048.62,-67.52 1034,-66.03 920.05,-54.39 785.72,-58.66 712.12,-62.53"/>
<polygon fill="midnightblue" stroke="midnightblue" points="1078.15,-76.8 1088.67,-75.52 1079.65,-69.97 1078.15,-76.8"/>
</g>
<!-- Node2&#45;&gt;Node1 -->
<g id="edge2" class="edge">
<title>Node2&#45;&gt;Node1</title>
<path fill="none" stroke="midnightblue" d="M1044.38,-91.78C1053.04,-91.76 1061.69,-91.65 1069.93,-91.45"/>
<polygon fill="midnightblue" stroke="midnightblue" points="1044.22,-88.28 1034.21,-91.75 1044.2,-95.28 1044.22,-88.28"/>
</g>
<!-- Node3 -->
<g id="node3" class="node">
<title>Node3</title>
<g id="a_node3"><a xlink:href="classGPS.html#a8775edfa08840ffb2647e0e5ba031fe5" target="_top" xlink:title=" ">
<polygon fill="white" stroke="black" points="445,-18.53 445,-37.53 564,-37.53 564,-18.53 445,-18.53"/>
<text text-anchor="middle" x="504.5" y="-25.53" font-family="Helvetica,sans-Serif" font-size="10.00">GPS::closeConnection1</text>
</a>
</g>
</g>
<!-- Node2&#45;&gt;Node3 -->
<g id="edge3" class="edge">
<title>Node2&#45;&gt;Node3</title>
<path fill="none" stroke="midnightblue" d="M892.27,-73.87C842.96,-65.64 773.35,-54.6 712,-47.03 662.33,-40.9 605.72,-35.83 564.35,-32.47"/>
<polygon fill="midnightblue" stroke="midnightblue" points="891.72,-77.32 902.16,-75.53 892.88,-70.42 891.72,-77.32"/>
</g>
<!-- Node6 -->
<g id="node6" class="node">
<title>Node6</title>
<g id="a_node6"><a xlink:href="classGPS.html#ac2a7572afb184df9c14ae913f17306bf" target="_top" xlink:title=" ">
<polygon fill="white" stroke="black" points="748,-94.53 748,-113.53 846,-113.53 846,-94.53 748,-94.53"/>
<text text-anchor="middle" x="797" y="-101.53" font-family="Helvetica,sans-Serif" font-size="10.00">GPS::initSerialPort</text>
</a>
</g>
</g>
<!-- Node2&#45;&gt;Node6 -->
<g id="edge17" class="edge">
<title>Node2&#45;&gt;Node6</title>
<path fill="none" stroke="midnightblue" d="M871.53,-95.24C862.88,-96.28 854.34,-97.3 846.29,-98.26"/>
<polygon fill="midnightblue" stroke="midnightblue" points="872.18,-98.69 881.69,-94.03 871.35,-91.74 872.18,-98.69"/>
</g>
<!-- Node4 -->
<g id="node4" class="node">
<title>Node4</title>
<g id="a_node4"><a xlink:href="classGPS.html#abd750ada6a7b976f72761ce16246ccf6" target="_top" xlink:title=" ">
<polygon fill="white" stroke="black" points="289,-18.53 289,-37.53 409,-37.53 409,-18.53 289,-18.53"/>
<text text-anchor="middle" x="349" y="-25.53" font-family="Helvetica,sans-Serif" font-size="10.00">GPS::setGPSBAUD115</text>
</a>
</g>
</g>
<!-- Node3&#45;&gt;Node4 -->
<g id="edge4" class="edge">
<title>Node3&#45;&gt;Node4</title>
<path fill="none" stroke="midnightblue" d="M434.36,-28.03C425.89,-28.03 417.3,-28.03 409,-28.03"/>
<polygon fill="midnightblue" stroke="midnightblue" points="434.59,-31.53 444.59,-28.03 434.59,-24.53 434.59,-31.53"/>
</g>
<!-- Node5 -->
<g id="node5" class="node">
<title>Node5</title>
<g id="a_node5"><a xlink:href="classGPS.html#a1b1c89214229f5dc8ff7e2fa9cbcad35" target="_top" xlink:title=" ">
<polygon fill="white" stroke="black" points="141,-85.53 141,-104.53 247,-104.53 247,-85.53 141,-85.53"/>
<text text-anchor="middle" x="194" y="-92.53" font-family="Helvetica,sans-Serif" font-size="10.00">GPS::handleTimeout</text>
</a>
</g>
</g>
<!-- Node4&#45;&gt;Node5 -->
<g id="edge5" class="edge">
<title>Node4&#45;&gt;Node5</title>
<path fill="none" stroke="midnightblue" d="M314.36,-41.43C306.04,-44.82 297.17,-48.5 289,-52.03 263.46,-63.06 234.39,-76.5 215.42,-85.38"/>
<polygon fill="midnightblue" stroke="midnightblue" points="315.83,-44.6 323.79,-37.61 313.21,-38.12 315.83,-44.6"/>
</g>
<!-- Node8 -->
<g id="node8" class="node">
<title>Node8</title>
<g id="a_node8"><a xlink:href="classGPS.html#a217097ae4a846c621f001a5aa1f4fb4f" target="_top" xlink:title=" ">
<polygon fill="white" stroke="black" points="135,-37.53 135,-56.53 253,-56.53 253,-37.53 135,-37.53"/>
<text text-anchor="middle" x="194" y="-44.53" font-family="Helvetica,sans-Serif" font-size="10.00">GPS::ProcessMessage</text>
</a>
</g>
</g>
<!-- Node4&#45;&gt;Node8 -->
<g id="edge12" class="edge">
<title>Node4&#45;&gt;Node8</title>
<path fill="none" stroke="midnightblue" d="M278.87,-36.61C270.31,-37.68 261.62,-38.76 253.24,-39.8"/>
<polygon fill="midnightblue" stroke="midnightblue" points="279.35,-40.08 288.85,-35.38 278.49,-33.14 279.35,-40.08"/>
</g>
<!-- Node5&#45;&gt;Node1 -->
<g id="edge6" class="edge">
<title>Node5&#45;&gt;Node1</title>
<path fill="none" stroke="midnightblue" d="M224.35,-108.83C278.34,-132.9 397.59,-180.03 503.5,-180.03 798,-180.03 798,-180.03 798,-180.03 919.83,-180.03 1057.42,-118.81 1106.97,-94.66"/>
<polygon fill="midnightblue" stroke="midnightblue" points="225.6,-105.55 215.05,-104.62 222.72,-111.93 225.6,-105.55"/>
</g>
<!-- Node5&#45;&gt;Node3 -->
<g id="edge7" class="edge">
<title>Node5&#45;&gt;Node3</title>
<path fill="none" stroke="midnightblue" d="M249.24,-83.25C309.1,-70.25 404.27,-49.58 459.63,-37.56"/>
<polygon fill="midnightblue" stroke="midnightblue" points="248.25,-79.88 239.22,-85.43 249.74,-86.72 248.25,-79.88"/>
</g>
<!-- Node5&#45;&gt;Node6 -->
<g id="edge8" class="edge">
<title>Node5&#45;&gt;Node6</title>
<path fill="none" stroke="midnightblue" d="M257.38,-95.96C377.75,-97.77 639.71,-101.69 747.83,-103.31"/>
<polygon fill="midnightblue" stroke="midnightblue" points="257.28,-92.46 247.23,-95.81 257.17,-99.46 257.28,-92.46"/>
</g>
<!-- Node6&#45;&gt;Node7 -->
<g id="edge9" class="edge">
<title>Node6&#45;&gt;Node7</title>
<path fill="none" stroke="midnightblue" d="M751.2,-91.78C732.05,-86.55 710.01,-80.52 692.06,-75.62"/>
<polygon fill="midnightblue" stroke="midnightblue" points="750.36,-95.18 760.92,-94.44 752.2,-88.43 750.36,-95.18"/>
</g>
<!-- Node7&#45;&gt;Node2 -->
<g id="edge11" class="edge">
<title>Node7&#45;&gt;Node2</title>
<path fill="none" stroke="midnightblue" d="M722.51,-70.18C769.42,-73.15 832.69,-77.16 881.68,-80.26"/>
<polygon fill="midnightblue" stroke="midnightblue" points="722.66,-66.68 712.46,-69.54 722.22,-73.67 722.66,-66.68"/>
</g>
<!-- Node7&#45;&gt;Node3 -->
<g id="edge10" class="edge">
<title>Node7&#45;&gt;Node3</title>
<path fill="none" stroke="midnightblue" d="M607.35,-53.92C586.53,-48.63 562.46,-42.51 542.95,-37.55"/>
<polygon fill="midnightblue" stroke="midnightblue" points="606.72,-57.37 617.27,-56.44 608.45,-50.59 606.72,-57.37"/>
</g>
<!-- Node9 -->
<g id="node9" class="node">
<title>Node9</title>
<g id="a_node9"><a xlink:href="classGPS.html#aa0928d156961a54bf06d9b5210d85561" target="_top" xlink:title=" ">
<polygon fill="white" stroke="black" points="0,-84.53 0,-103.53 99,-103.53 99,-84.53 0,-84.53"/>
<text text-anchor="middle" x="49.5" y="-91.53" font-family="Helvetica,sans-Serif" font-size="10.00">GPS::readyToRead</text>
</a>
</g>
</g>
<!-- Node8&#45;&gt;Node9 -->
<g id="edge13" class="edge">
<title>Node8&#45;&gt;Node9</title>
<path fill="none" stroke="midnightblue" d="M154.5,-59.73C130.98,-67.48 101.38,-77.25 79.78,-84.37"/>
<polygon fill="midnightblue" stroke="midnightblue" points="155.76,-63 164.16,-56.54 153.57,-56.35 155.76,-63"/>
</g>
<!-- Node9&#45;&gt;Node1 -->
<g id="edge14" class="edge">
<title>Node9&#45;&gt;Node1</title>
<path fill="none" stroke="midnightblue" d="M71.17,-109.42C117.89,-142.62 236.29,-218.03 348,-218.03 798,-218.03 798,-218.03 798,-218.03 905.8,-218.03 937.64,-210.36 1034,-162.03 1069,-144.47 1102.21,-111.18 1117.38,-94.73"/>
<polygon fill="midnightblue" stroke="midnightblue" points="73.21,-106.57 63.05,-103.55 69.11,-112.25 73.21,-106.57"/>
</g>
<!-- Node9&#45;&gt;Node3 -->
<g id="edge15" class="edge">
<title>Node9&#45;&gt;Node3</title>
<path fill="none" stroke="midnightblue" d="M66.62,-76.98C82.44,-61.42 108.06,-39.2 135,-28.03 246.7,18.27 394.32,-3.8 463.94,-18.52"/>
<polygon fill="midnightblue" stroke="midnightblue" points="63.81,-74.84 59.28,-84.42 68.8,-79.76 63.81,-74.84"/>
</g>
<!-- Node9&#45;&gt;Node6 -->
<g id="edge16" class="edge">
<title>Node9&#45;&gt;Node6</title>
<path fill="none" stroke="midnightblue" d="M96.34,-106.1C154.45,-120.32 257.93,-142.03 348,-142.03 505.5,-142.03 505.5,-142.03 505.5,-142.03 592.99,-142.03 694.05,-124.88 750.95,-113.62"/>
<polygon fill="midnightblue" stroke="midnightblue" points="96.93,-102.64 86.38,-103.63 95.24,-109.43 96.93,-102.64"/>
</g>
</g>
</svg>
        <g id="navigator" transform="translate(0 0)" fill="#404254">
                <rect fill="#f2f5e9" fill-opacity="0.5" stroke="#606060" stroke-width=".5" x="0" y="0" width="60" height="60"/>
                <use id="zoomplus" xlink:href="#zoomPlus" x="17" y="9" onmousedown="handleZoom(evt,'in')"/>
                <use id="zoomminus" xlink:href="#zoomMin" x="42" y="9" onmousedown="handleZoom(evt,'out')"/>
                <use id="reset" xlink:href="#resetDef" x="30" y="36" onmousedown="handleReset()"/>
                <g id="arrowUp" xlink:href="#dirArrow" transform="translate(30 24)" onmousedown="handlePan(0,-1)">
                  <use xlink:href="#rim" fill="#404040">
                        <set attributeName="fill" to="#808080" begin="arrowUp.mouseover" end="arrowUp.mouseout"/>
                  </use>
                  <path fill="none" stroke="white" stroke-width="1.5" d="M0,-3.0v7 M-2.5,-0.5L0,-3.0L2.5,-0.5"/>
                </g>
                <g id="arrowRight" xlink:href="#dirArrow" transform="rotate(90) translate(36 -43)" onmousedown="handlePan(1,0)">
                  <use xlink:href="#rim" fill="#404040">
                        <set attributeName="fill" to="#808080" begin="arrowRight.mouseover" end="arrowRight.mouseout"/>
                  </use>
                  <path fill="none" stroke="white" stroke-width="1.5" d="M0,-3.0v7 M-2.5,-0.5L0,-3.0L2.5,-0.5"/>
                </g>
                <g id="arrowDown" xlink:href="#dirArrow" transform="rotate(180) translate(-30 -48)" onmousedown="handlePan(0,1)">
                  <use xlink:href="#rim" fill="#404040">
                        <set attributeName="fill" to="#808080" begin="arrowDown.mouseover" end="arrowDown.mouseout"/>
                  </use>
                  <path fill="none" stroke="white" stroke-width="1.5" d="M0,-3.0v7 M-2.5,-0.5L0,-3.0L2.5,-0.5"/>
                </g>
                <g id="arrowLeft" xlink:href="#dirArrow" transform="rotate(270) translate(-36 17)" onmousedown="handlePan(-1,0)">
                  <use xlink:href="#rim" fill="#404040">
                        <set attributeName="fill" to="#808080" begin="arrowLeft.mouseover" end="arrowLeft.mouseout"/>
                  </use>
                  <path fill="none" stroke="white" stroke-width="1.5" d="M0,-3.0v7 M-2.5,-0.5L0,-3.0L2.5,-0.5"/>
                </g>
        </g>
        <svg viewBox="0 0 15 15" width="100%" height="30px" preserveAspectRatio="xMaxYMin meet">
         <g id="arrow_out" transform="scale(0.3 0.3)">
          <a xlink:href="classGPS_ae4568ef4d5107c96c1af68d1abd33559_icgraph_org.svg" target="_base">
           <rect id="button" ry="5" rx="5" y="6" x="6" height="38" width="38"
                fill="#f2f5e9" fill-opacity="0.5" stroke="#606060" stroke-width="1.0"/>
           <path id="arrow"
             d="M 11.500037,31.436501 C 11.940474,20.09759 22.043105,11.32322 32.158766,21.979434 L 37.068811,17.246167 C 37.068811,17.246167 37.088388,32 37.088388,32 L 22.160133,31.978069 C 22.160133,31.978069 26.997745,27.140456 26.997745,27.140456 C 18.528582,18.264221 13.291696,25.230495 11.500037,31.436501 z"
             style="fill:#404040;"/>
          </a>
         </g>
        </svg>
</svg>
