<?xml version="1.0" encoding="UTF-8" standalone="no"?>
<!DOCTYPE svg PUBLIC "-//W3C//DTD SVG 1.1//EN"
 "http://www.w3.org/Graphics/SVG/1.1/DTD/svg11.dtd">
<!-- Generated by graphviz version 2.49.3 (20211027.1534)
 -->
<!-- Title: Apexi::initSerialPort Pages: 1 -->
<svg width="1397pt" height="1415pt"
 viewBox="0.00 0.00 1397.00 1415.00" xmlns="http://www.w3.org/2000/svg" xmlns:xlink="http://www.w3.org/1999/xlink">
<g id="graph0" class="graph" transform="scale(1 1) rotate(0) translate(4 1411)">
<title>Apexi::initSerialPort</title>
<polygon fill="white" stroke="transparent" points="-4,4 -4,-1411 1393,-1411 1393,4 -4,4"/>
<!-- Node1 -->
<g id="node1" class="node">
<title>Node1</title>
<g id="a_node1"><a xlink:title=" ">
<polygon fill="#bfbfbf" stroke="black" points="0,-1292.5 0,-1311.5 101,-1311.5 101,-1292.5 0,-1292.5"/>
<text text-anchor="middle" x="50.5" y="-1299.5" font-family="Helvetica,sans-Serif" font-size="10.00">Apexi::initSerialPort</text>
</a>
</g>
</g>
<!-- Node2 -->
<g id="node2" class="node">
<title>Node2</title>
<g id="a_node2"><a xlink:href="classApexi.html#a8a8a56251df881cc9eb49f1f20332fda" target="_top" xlink:title=" ">
<polygon fill="white" stroke="black" points="766.5,-1387.5 766.5,-1406.5 895.5,-1406.5 895.5,-1387.5 766.5,-1387.5"/>
<text text-anchor="middle" x="831" y="-1394.5" font-family="Helvetica,sans-Serif" font-size="10.00">Apexi::handleBytesWritten</text>
</a>
</g>
</g>
<!-- Node1&#45;&gt;Node2 -->
<g id="edge1" class="edge">
<title>Node1&#45;&gt;Node2</title>
<path fill="none" stroke="midnightblue" d="M67.88,-1311.63C110.57,-1335.78 229.32,-1397 336.5,-1397 336.5,-1397 336.5,-1397 496,-1397 585.49,-1397 688.46,-1397 756.14,-1397"/>
<polygon fill="midnightblue" stroke="midnightblue" points="756.28,-1400.5 766.28,-1397 756.28,-1393.5 756.28,-1400.5"/>
</g>
<!-- Node3 -->
<g id="node3" class="node">
<title>Node3</title>
<g id="a_node3"><a xlink:href="classApexi.html#a6c775f27e878959c047bb9c252064cfe" target="_top" xlink:title=" ">
<polygon fill="white" stroke="black" points="784,-1197.5 784,-1216.5 878,-1216.5 878,-1197.5 784,-1197.5"/>
<text text-anchor="middle" x="831" y="-1204.5" font-family="Helvetica,sans-Serif" font-size="10.00">Apexi::handleError</text>
</a>
</g>
</g>
<!-- Node1&#45;&gt;Node3 -->
<g id="edge2" class="edge">
<title>Node1&#45;&gt;Node3</title>
<path fill="none" stroke="midnightblue" d="M54.51,-1292.33C71.92,-1238.59 164.87,-979 336.5,-979 336.5,-979 336.5,-979 496,-979 599.46,-979 642.57,-939.65 728,-998 745.24,-1009.77 801.18,-1138.9 822.05,-1188.11"/>
<polygon fill="midnightblue" stroke="midnightblue" points="818.83,-1189.47 825.95,-1197.32 825.28,-1186.75 818.83,-1189.47"/>
</g>
<!-- Node5 -->
<g id="node5" class="node">
<title>Node5</title>
<g id="a_node5"><a xlink:href="classApexi.html#a9c813630d2b2a70b7e098ae10220103e" target="_top" xlink:title=" ">
<polygon fill="white" stroke="black" points="776.5,-1273.5 776.5,-1292.5 885.5,-1292.5 885.5,-1273.5 776.5,-1273.5"/>
<text text-anchor="middle" x="831" y="-1280.5" font-family="Helvetica,sans-Serif" font-size="10.00">Apexi::handleTimeout</text>
</a>
</g>
</g>
<!-- Node1&#45;&gt;Node5 -->
<g id="edge4" class="edge">
<title>Node1&#45;&gt;Node5</title>
<path fill="none" stroke="midnightblue" d="M101.12,-1307.32C157.92,-1312.94 253.81,-1321 336.5,-1321 336.5,-1321 336.5,-1321 496,-1321 599.46,-1321 625.46,-1315.71 728,-1302 743.09,-1299.98 759.33,-1297.23 774.32,-1294.44"/>
<polygon fill="midnightblue" stroke="midnightblue" points="775.29,-1297.82 784.46,-1292.51 773.99,-1290.94 775.29,-1297.82"/>
</g>
<!-- Node9 -->
<g id="node9" class="node">
<title>Node9</title>
<g id="a_node9"><a xlink:href="classApexi.html#abe3bf6800fce8a4c713a08c14474d625" target="_top" xlink:title=" ">
<polygon fill="white" stroke="black" points="137,-1254.5 137,-1273.5 239,-1273.5 239,-1254.5 137,-1254.5"/>
<text text-anchor="middle" x="188" y="-1261.5" font-family="Helvetica,sans-Serif" font-size="10.00">Apexi::readyToRead</text>
</a>
</g>
</g>
<!-- Node1&#45;&gt;Node9 -->
<g id="edge10" class="edge">
<title>Node1&#45;&gt;Node9</title>
<path fill="none" stroke="midnightblue" d="M85.69,-1292.41C103.1,-1287.53 124.47,-1281.54 143.09,-1276.32"/>
<polygon fill="midnightblue" stroke="midnightblue" points="144.14,-1279.66 152.82,-1273.59 142.24,-1272.92 144.14,-1279.66"/>
</g>
<!-- Node4 -->
<g id="node4" class="node">
<title>Node4</title>
<g id="a_node4"><a xlink:href="classDashBoard.html#aa096e4f8310f6614db7409cef61d7ccb" target="_top" xlink:title=" ">
<polygon fill="white" stroke="black" points="1264,-1273.5 1264,-1292.5 1389,-1292.5 1389,-1273.5 1264,-1273.5"/>
<text text-anchor="middle" x="1326.5" y="-1280.5" font-family="Helvetica,sans-Serif" font-size="10.00">DashBoard::setSerialStat</text>
</a>
</g>
</g>
<!-- Node3&#45;&gt;Node4 -->
<g id="edge3" class="edge">
<title>Node3&#45;&gt;Node4</title>
<path fill="none" stroke="midnightblue" d="M878.29,-1208.78C926.41,-1211.07 1003.8,-1216.02 1070,-1226 1144.42,-1237.22 1229.47,-1257.77 1280.25,-1270.89"/>
<polygon fill="midnightblue" stroke="midnightblue" points="1279.69,-1274.36 1290.25,-1273.49 1281.45,-1267.59 1279.69,-1274.36"/>
</g>
<!-- Node5&#45;&gt;Node4 -->
<g id="edge8" class="edge">
<title>Node5&#45;&gt;Node4</title>
<path fill="none" stroke="midnightblue" d="M885.75,-1283C974.99,-1283 1153.78,-1283 1253.71,-1283"/>
<polygon fill="midnightblue" stroke="midnightblue" points="1253.72,-1286.5 1263.72,-1283 1253.72,-1279.5 1253.72,-1286.5"/>
</g>
<!-- Node6 -->
<g id="node6" class="node">
<title>Node6</title>
<g id="a_node6"><a xlink:href="classApexi.html#a9ed7e794f2566b72a448e341233985eb" target="_top" xlink:title=" ">
<polygon fill="white" stroke="black" points="951,-1311.5 951,-1330.5 1053,-1330.5 1053,-1311.5 951,-1311.5"/>
<text text-anchor="middle" x="1002" y="-1318.5" font-family="Helvetica,sans-Serif" font-size="10.00">Apexi::sendRequest</text>
</a>
</g>
</g>
<!-- Node5&#45;&gt;Node6 -->
<g id="edge5" class="edge">
<title>Node5&#45;&gt;Node6</title>
<path fill="none" stroke="midnightblue" d="M874.65,-1292.59C897.15,-1297.65 924.95,-1303.9 948.74,-1309.25"/>
<polygon fill="midnightblue" stroke="midnightblue" points="948.14,-1312.7 958.66,-1311.48 949.67,-1305.87 948.14,-1312.7"/>
</g>
<!-- Node8 -->
<g id="node8" class="node">
<title>Node8</title>
<g id="a_node8"><a xlink:href="classDashBoard.html#a7638e10b46688431f57c31bfc7ab1a37" target="_top" xlink:title=" ">
<polygon fill="white" stroke="black" points="934,-1235.5 934,-1254.5 1070,-1254.5 1070,-1235.5 934,-1235.5"/>
<text text-anchor="middle" x="1002" y="-1242.5" font-family="Helvetica,sans-Serif" font-size="10.00">DashBoard::setTimeoutStat</text>
</a>
</g>
</g>
<!-- Node5&#45;&gt;Node8 -->
<g id="edge9" class="edge">
<title>Node5&#45;&gt;Node8</title>
<path fill="none" stroke="midnightblue" d="M874.65,-1273.41C897.15,-1268.35 924.95,-1262.1 948.74,-1256.75"/>
<polygon fill="midnightblue" stroke="midnightblue" points="949.67,-1260.13 958.66,-1254.52 948.14,-1253.3 949.67,-1260.13"/>
</g>
<!-- Node7 -->
<g id="node7" class="node">
<title>Node7</title>
<g id="a_node7"><a xlink:href="classApexi.html#af312531b1dbc60175016a82881203f18" target="_top" xlink:title=" ">
<polygon fill="white" stroke="black" points="1106,-1311.5 1106,-1330.5 1228,-1330.5 1228,-1311.5 1106,-1311.5"/>
<text text-anchor="middle" x="1167" y="-1318.5" font-family="Helvetica,sans-Serif" font-size="10.00">Apexi::writeRequestPFC</text>
</a>
</g>
</g>
<!-- Node6&#45;&gt;Node7 -->
<g id="edge6" class="edge">
<title>Node6&#45;&gt;Node7</title>
<path fill="none" stroke="midnightblue" d="M1053.24,-1321C1066.63,-1321 1081.36,-1321 1095.62,-1321"/>
<polygon fill="midnightblue" stroke="midnightblue" points="1095.9,-1324.5 1105.9,-1321 1095.9,-1317.5 1095.9,-1324.5"/>
</g>
<!-- Node7&#45;&gt;Node4 -->
<g id="edge7" class="edge">
<title>Node7&#45;&gt;Node4</title>
<path fill="none" stroke="midnightblue" d="M1207.74,-1311.41C1228.53,-1306.4 1254.16,-1300.21 1276.2,-1294.89"/>
<polygon fill="midnightblue" stroke="midnightblue" points="1277.14,-1298.27 1286.04,-1292.52 1275.5,-1291.46 1277.14,-1298.27"/>
</g>
<!-- Node10 -->
<g id="node10" class="node">
<title>Node10</title>
<g id="a_node10"><a xlink:href="classApexi.html#a4cb1314ab5ca5175aa227ed178148f40" target="_top" xlink:title=" ">
<polygon fill="white" stroke="black" points="293.5,-1197.5 293.5,-1216.5 381.5,-1216.5 381.5,-1197.5 293.5,-1197.5"/>
<text text-anchor="middle" x="337.5" y="-1204.5" font-family="Helvetica,sans-Serif" font-size="10.00">Apexi::apexiECU</text>
</a>
</g>
</g>
<!-- Node9&#45;&gt;Node10 -->
<g id="edge11" class="edge">
<title>Node9&#45;&gt;Node10</title>
<path fill="none" stroke="midnightblue" d="M208.88,-1254.42C226.14,-1246.3 251.91,-1234.63 275,-1226 280.91,-1223.79 287.2,-1221.63 293.42,-1219.61"/>
<polygon fill="midnightblue" stroke="midnightblue" points="294.59,-1222.91 303.07,-1216.55 292.48,-1216.24 294.59,-1222.91"/>
</g>
<!-- Node112 -->
<g id="node50" class="node">
<title>Node112</title>
<g id="a_node50"><a xlink:href="classDashBoard.html#ab66782991ddf59e10d36f281735971da" target="_top" xlink:title=" ">
<polygon fill="white" stroke="black" points="275,-1235.5 275,-1254.5 400,-1254.5 400,-1235.5 275,-1235.5"/>
<text text-anchor="middle" x="337.5" y="-1242.5" font-family="Helvetica,sans-Serif" font-size="10.00">DashBoard::setRecvData</text>
</a>
</g>
</g>
<!-- Node9&#45;&gt;Node112 -->
<g id="edge62" class="edge">
<title>Node9&#45;&gt;Node112</title>
<path fill="none" stroke="midnightblue" d="M239.35,-1257.51C247.57,-1256.46 256.22,-1255.34 264.83,-1254.23"/>
<polygon fill="midnightblue" stroke="midnightblue" points="265.42,-1257.68 274.89,-1252.94 264.53,-1250.74 265.42,-1257.68"/>
</g>
<!-- Node10&#45;&gt;Node6 -->
<g id="edge59" class="edge">
<title>Node10&#45;&gt;Node6</title>
<path fill="none" stroke="midnightblue" d="M379.82,-1216.54C386.83,-1219.05 393.83,-1222.17 400,-1226 419.76,-1238.28 415.89,-1252.3 436,-1264 598.19,-1358.42 831.58,-1343.93 940.6,-1330.3"/>
<polygon fill="midnightblue" stroke="midnightblue" points="941.29,-1333.74 950.76,-1328.99 940.39,-1326.8 941.29,-1333.74"/>
</g>
<!-- Node10&#45;&gt;Node8 -->
<g id="edge61" class="edge">
<title>Node10&#45;&gt;Node8</title>
<path fill="none" stroke="midnightblue" d="M381.64,-1210.64C431.71,-1214.78 516.79,-1221.54 590,-1226 706.18,-1233.07 840.99,-1238.84 923.63,-1242.1"/>
<polygon fill="midnightblue" stroke="midnightblue" points="923.56,-1245.6 933.69,-1242.49 923.84,-1238.6 923.56,-1245.6"/>
</g>
<!-- Node11 -->
<g id="node11" class="node">
<title>Node11</title>
<g id="a_node11"><a xlink:href="classApexi.html#a4e7b389e8d3e283a12733ab4f8492be3" target="_top" xlink:title=" ">
<polygon fill="white" stroke="black" points="453,-1102.5 453,-1121.5 537,-1121.5 537,-1102.5 453,-1102.5"/>
<text text-anchor="middle" x="495" y="-1109.5" font-family="Helvetica,sans-Serif" font-size="10.00">Apexi::readData</text>
</a>
</g>
</g>
<!-- Node10&#45;&gt;Node11 -->
<g id="edge12" class="edge">
<title>Node10&#45;&gt;Node11</title>
<path fill="none" stroke="midnightblue" d="M354.27,-1197.37C381.39,-1180.8 437.08,-1146.77 469.37,-1127.05"/>
<polygon fill="midnightblue" stroke="midnightblue" points="471.48,-1129.86 478.19,-1121.66 467.83,-1123.88 471.48,-1129.86"/>
</g>
<!-- Node111 -->
<g id="node49" class="node">
<title>Node111</title>
<g id="a_node49"><a xlink:href="classDashBoard.html#af8966ca28767b5686245a42f97431bc8" target="_top" xlink:title=" ">
<polygon fill="white" stroke="black" points="436,-1235.5 436,-1254.5 554,-1254.5 554,-1235.5 436,-1235.5"/>
<text text-anchor="middle" x="495" y="-1242.5" font-family="Helvetica,sans-Serif" font-size="10.00">DashBoard::setRunStat</text>
</a>
</g>
</g>
<!-- Node10&#45;&gt;Node111 -->
<g id="edge60" class="edge">
<title>Node10&#45;&gt;Node111</title>
<path fill="none" stroke="midnightblue" d="M377.74,-1216.59C398.26,-1221.6 423.57,-1227.79 445.33,-1233.11"/>
<polygon fill="midnightblue" stroke="midnightblue" points="444.5,-1236.51 455.04,-1235.48 446.16,-1229.71 444.5,-1236.51"/>
</g>
<!-- Node12 -->
<g id="node12" class="node">
<title>Node12</title>
<g id="a_node12"><a xlink:href="classApexi.html#a669124cabae4ada616e650e582c068da" target="_top" xlink:title=" ">
<polygon fill="white" stroke="black" points="600.5,-1273.5 600.5,-1292.5 717.5,-1292.5 717.5,-1273.5 600.5,-1273.5"/>
<text text-anchor="middle" x="659" y="-1280.5" font-family="Helvetica,sans-Serif" font-size="10.00">Apexi::closeConnection</text>
</a>
</g>
</g>
<!-- Node11&#45;&gt;Node12 -->
<g id="edge13" class="edge">
<title>Node11&#45;&gt;Node12</title>
<path fill="none" stroke="midnightblue" d="M503.01,-1121.66C517.93,-1141.95 554.41,-1190.12 590,-1226 604.82,-1240.94 623.2,-1256.17 637.1,-1267.13"/>
<polygon fill="midnightblue" stroke="midnightblue" points="635.07,-1269.98 645.12,-1273.35 639.37,-1264.45 635.07,-1269.98"/>
</g>
<!-- Node13 -->
<g id="node13" class="node">
<title>Node13</title>
<g id="a_node13"><a xlink:href="classApexi.html#a3ecd8445700ab9532fc051325f66d03d" target="_top" xlink:title=" ">
<polygon fill="white" stroke="red" points="612,-532.5 612,-551.5 706,-551.5 706,-532.5 612,-532.5"/>
<text text-anchor="middle" x="659" y="-539.5" font-family="Helvetica,sans-Serif" font-size="10.00">Apexi::decodeAdv</text>
</a>
</g>
</g>
<!-- Node11&#45;&gt;Node13 -->
<g id="edge18" class="edge">
<title>Node11&#45;&gt;Node13</title>
<path fill="none" stroke="midnightblue" d="M498.81,-1102.11C517.73,-1035.55 626.47,-652.95 652.43,-561.59"/>
<polygon fill="midnightblue" stroke="midnightblue" points="655.87,-562.3 655.24,-551.72 649.14,-560.38 655.87,-562.3"/>
</g>
<!-- Node49 -->
<g id="node42" class="node">
<title>Node49</title>
<g id="a_node42"><a xlink:href="classApexi.html#af82382a1e22fdac04180f1734d59461f" target="_top" xlink:title=" ">
<polygon fill="white" stroke="red" points="612.5,-1197.5 612.5,-1216.5 705.5,-1216.5 705.5,-1197.5 612.5,-1197.5"/>
<text text-anchor="middle" x="659" y="-1204.5" font-family="Helvetica,sans-Serif" font-size="10.00">Apexi::decodeAux</text>
</a>
</g>
</g>
<!-- Node11&#45;&gt;Node49 -->
<g id="edge47" class="edge">
<title>Node11&#45;&gt;Node49</title>
<path fill="none" stroke="midnightblue" d="M505.2,-1121.67C521.04,-1137.75 555.12,-1170.01 590,-1188 594.51,-1190.33 599.35,-1192.4 604.28,-1194.24"/>
<polygon fill="midnightblue" stroke="midnightblue" points="603.24,-1197.58 613.83,-1197.49 605.49,-1190.95 603.24,-1197.58"/>
</g>
<!-- Node52 -->
<g id="node43" class="node">
<title>Node52</title>
<g id="a_node43"><a xlink:href="classApexi.html#af3dad564d7c3cca0e98f5944e5e27cdf" target="_top" xlink:title=" ">
<polygon fill="white" stroke="red" points="608.5,-931.5 608.5,-950.5 709.5,-950.5 709.5,-931.5 608.5,-931.5"/>
<text text-anchor="middle" x="659" y="-938.5" font-family="Helvetica,sans-Serif" font-size="10.00">Apexi::decodeBasic</text>
</a>
</g>
</g>
<!-- Node11&#45;&gt;Node52 -->
<g id="edge48" class="edge">
<title>Node11&#45;&gt;Node52</title>
<path fill="none" stroke="midnightblue" d="M503.01,-1102.34C517.93,-1082.05 554.41,-1033.88 590,-998 604.82,-983.06 623.2,-967.83 637.1,-956.87"/>
<polygon fill="midnightblue" stroke="midnightblue" points="639.37,-959.55 645.12,-950.65 635.07,-954.02 639.37,-959.55"/>
</g>
<!-- Node55 -->
<g id="node44" class="node">
<title>Node55</title>
<g id="a_node44"><a xlink:href="classApexi.html#aaa77337f30dd52330c1070ce161eea83" target="_top" xlink:title=" ">
<polygon fill="white" stroke="red" points="614,-1159.5 614,-1178.5 704,-1178.5 704,-1159.5 614,-1159.5"/>
<text text-anchor="middle" x="659" y="-1166.5" font-family="Helvetica,sans-Serif" font-size="10.00">Apexi::decodeInit</text>
</a>
</g>
</g>
<!-- Node11&#45;&gt;Node55 -->
<g id="edge54" class="edge">
<title>Node11&#45;&gt;Node55</title>
<path fill="none" stroke="midnightblue" d="M517.77,-1121.61C536.66,-1129.75 564.84,-1141.43 590,-1150 596.86,-1152.34 604.18,-1154.61 611.38,-1156.72"/>
<polygon fill="midnightblue" stroke="midnightblue" points="610.49,-1160.1 621.07,-1159.49 612.41,-1153.37 610.49,-1160.1"/>
</g>
<!-- Node57 -->
<g id="node45" class="node">
<title>Node57</title>
<g id="a_node45"><a xlink:href="classApexi.html#a8434798529c3e79a33445e2ba626d8a2" target="_top" xlink:title=" ">
<polygon fill="white" stroke="black" points="611.5,-1121.5 611.5,-1140.5 706.5,-1140.5 706.5,-1121.5 611.5,-1121.5"/>
<text text-anchor="middle" x="659" y="-1128.5" font-family="Helvetica,sans-Serif" font-size="10.00">Apexi::decodeMap</text>
</a>
</g>
</g>
<!-- Node11&#45;&gt;Node57 -->
<g id="edge55" class="edge">
<title>Node11&#45;&gt;Node57</title>
<path fill="none" stroke="midnightblue" d="M537.3,-1116.84C556.71,-1119.12 580.17,-1121.87 601.23,-1124.34"/>
<polygon fill="midnightblue" stroke="midnightblue" points="601,-1127.84 611.34,-1125.53 601.81,-1120.89 601,-1127.84"/>
</g>
<!-- Node58 -->
<g id="node46" class="node">
<title>Node58</title>
<g id="a_node46"><a xlink:href="classApexi.html#a6ce2b40858fc637448d1f6dc27e10a70" target="_top" xlink:title=" ">
<polygon fill="white" stroke="red" points="605.5,-1083.5 605.5,-1102.5 712.5,-1102.5 712.5,-1083.5 605.5,-1083.5"/>
<text text-anchor="middle" x="659" y="-1090.5" font-family="Helvetica,sans-Serif" font-size="10.00">Apexi::decodeSensor</text>
</a>
</g>
</g>
<!-- Node11&#45;&gt;Node58 -->
<g id="edge56" class="edge">
<title>Node11&#45;&gt;Node58</title>
<path fill="none" stroke="midnightblue" d="M537.3,-1107.16C554.94,-1105.09 575.92,-1102.63 595.4,-1100.34"/>
<polygon fill="midnightblue" stroke="midnightblue" points="595.9,-1103.81 605.43,-1099.17 595.09,-1096.85 595.9,-1103.81"/>
</g>
<!-- Node83 -->
<g id="node47" class="node">
<title>Node83</title>
<g id="a_node47"><a xlink:href="classApexi.html#a45f8db235553ca011083224aec6b3892" target="_top" xlink:title=" ">
<polygon fill="white" stroke="red" points="590,-1045.5 590,-1064.5 728,-1064.5 728,-1045.5 590,-1045.5"/>
<text text-anchor="middle" x="659" y="-1052.5" font-family="Helvetica,sans-Serif" font-size="10.00">Apexi::decodeSensorStrings</text>
</a>
</g>
</g>
<!-- Node11&#45;&gt;Node83 -->
<g id="edge57" class="edge">
<title>Node11&#45;&gt;Node83</title>
<path fill="none" stroke="midnightblue" d="M517.77,-1102.39C536.66,-1094.25 564.84,-1082.57 590,-1074 596.86,-1071.66 604.18,-1069.39 611.38,-1067.28"/>
<polygon fill="midnightblue" stroke="midnightblue" points="612.41,-1070.63 621.07,-1064.51 610.49,-1063.9 612.41,-1070.63"/>
</g>
<!-- Node108 -->
<g id="node48" class="node">
<title>Node108</title>
<g id="a_node48"><a xlink:href="classApexi.html#af3673b74b8aebe06a2b2f9ed81c23ee4" target="_top" xlink:title=" ">
<polygon fill="white" stroke="red" points="610,-1007.5 610,-1026.5 708,-1026.5 708,-1007.5 610,-1007.5"/>
<text text-anchor="middle" x="659" y="-1014.5" font-family="Helvetica,sans-Serif" font-size="10.00">Apexi::retryconnect</text>
</a>
</g>
</g>
<!-- Node11&#45;&gt;Node108 -->
<g id="edge58" class="edge">
<title>Node11&#45;&gt;Node108</title>
<path fill="none" stroke="midnightblue" d="M505.2,-1102.33C521.04,-1086.25 555.12,-1053.99 590,-1036 594.51,-1033.67 599.35,-1031.6 604.28,-1029.76"/>
<polygon fill="midnightblue" stroke="midnightblue" points="605.49,-1033.05 613.83,-1026.51 603.24,-1026.42 605.49,-1033.05"/>
</g>
<!-- Node12&#45;&gt;Node2 -->
<g id="edge14" class="edge">
<title>Node12&#45;&gt;Node2</title>
<path fill="none" stroke="midnightblue" d="M674.2,-1292.52C703.63,-1312.26 771.48,-1357.76 807.15,-1381.68"/>
<polygon fill="midnightblue" stroke="midnightblue" points="805.22,-1384.6 815.48,-1387.26 809.12,-1378.79 805.22,-1384.6"/>
</g>
<!-- Node12&#45;&gt;Node3 -->
<g id="edge15" class="edge">
<title>Node12&#45;&gt;Node3</title>
<path fill="none" stroke="midnightblue" d="M681.53,-1273.37C711.29,-1260.07 765.18,-1235.98 799.19,-1220.77"/>
<polygon fill="midnightblue" stroke="midnightblue" points="800.94,-1223.82 808.64,-1216.55 798.09,-1217.43 800.94,-1223.82"/>
</g>
<!-- Node12&#45;&gt;Node5 -->
<g id="edge16" class="edge">
<title>Node12&#45;&gt;Node5</title>
<path fill="none" stroke="midnightblue" d="M717.55,-1283C733.12,-1283 750.06,-1283 765.96,-1283"/>
<polygon fill="midnightblue" stroke="midnightblue" points="766.23,-1286.5 776.23,-1283 766.23,-1279.5 766.23,-1286.5"/>
</g>
<!-- Node12&#45;&gt;Node9 -->
<g id="edge17" class="edge">
<title>Node12&#45;&gt;Node9</title>
<path fill="none" stroke="midnightblue" d="M600.15,-1280.66C510.82,-1277.04 340.14,-1270.12 249.33,-1266.44"/>
<polygon fill="midnightblue" stroke="midnightblue" points="249.32,-1262.94 239.19,-1266.03 249.04,-1269.94 249.32,-1262.94"/>
</g>
<!-- Node14 -->
<g id="node14" class="node">
<title>Node14</title>
<g id="a_node14"><a xlink:href="classDashBoard.html#a21635845a2258c7dbe2a7f2f7ec32345" target="_top" xlink:title=" ">
<polygon fill="white" stroke="black" points="771,-950.5 771,-969.5 891,-969.5 891,-950.5 771,-950.5"/>
<text text-anchor="middle" x="831" y="-957.5" font-family="Helvetica,sans-Serif" font-size="10.00">DashBoard::setBatteryV</text>
</a>
</g>
</g>
<!-- Node13&#45;&gt;Node14 -->
<g id="edge19" class="edge">
<title>Node13&#45;&gt;Node14</title>
<path fill="none" stroke="midnightblue" d="M661.22,-551.69C668.38,-606.96 706.53,-882.06 764,-941 765.4,-942.44 766.91,-943.77 768.5,-945.01"/>
<polygon fill="midnightblue" stroke="midnightblue" points="766.71,-948.02 777.03,-950.38 770.44,-942.09 766.71,-948.02"/>
</g>
<!-- Node15 -->
<g id="node15" class="node">
<title>Node15</title>
<g id="a_node15"><a xlink:href="classDashBoard.html#a864f44aaf83510cc38b81e3efc7f1da6" target="_top" xlink:title=" ">
<polygon fill="white" stroke="black" points="767,-646.5 767,-665.5 895,-665.5 895,-646.5 767,-646.5"/>
<text text-anchor="middle" x="831" y="-653.5" font-family="Helvetica,sans-Serif" font-size="10.00">DashBoard::setBoostDuty</text>
</a>
</g>
</g>
<!-- Node13&#45;&gt;Node15 -->
<g id="edge20" class="edge">
<title>Node13&#45;&gt;Node15</title>
<path fill="none" stroke="midnightblue" d="M667.81,-551.64C683.83,-570.78 722.39,-613.71 764,-637 767.97,-639.22 772.22,-641.2 776.59,-642.97"/>
<polygon fill="midnightblue" stroke="midnightblue" points="775.65,-646.35 786.25,-646.49 778.05,-639.78 775.65,-646.35"/>
</g>
<!-- Node16 -->
<g id="node16" class="node">
<title>Node16</title>
<g id="a_node16"><a xlink:href="classDashBoard.html#af865e5a3912f8100d831f01333a4fef9" target="_top" xlink:title=" ">
<polygon fill="white" stroke="black" points="773,-608.5 773,-627.5 889,-627.5 889,-608.5 773,-608.5"/>
<text text-anchor="middle" x="831" y="-615.5" font-family="Helvetica,sans-Serif" font-size="10.00">DashBoard::setBoosttp</text>
</a>
</g>
</g>
<!-- Node13&#45;&gt;Node16 -->
<g id="edge21" class="edge">
<title>Node13&#45;&gt;Node16</title>
<path fill="none" stroke="midnightblue" d="M674.98,-551.6C694.73,-563.92 730.88,-585.35 764,-599 769.58,-601.3 775.53,-603.43 781.49,-605.37"/>
<polygon fill="midnightblue" stroke="midnightblue" points="780.88,-608.85 791.47,-608.46 782.95,-602.16 780.88,-608.85"/>
</g>
<!-- Node17 -->
<g id="node17" class="node">
<title>Node17</title>
<g id="a_node17"><a xlink:href="classDashBoard.html#ad7eafea8b5a643e82155945495ff2aef" target="_top" xlink:title=" ">
<polygon fill="white" stroke="black" points="770.5,-570.5 770.5,-589.5 891.5,-589.5 891.5,-570.5 770.5,-570.5"/>
<text text-anchor="middle" x="831" y="-577.5" font-family="Helvetica,sans-Serif" font-size="10.00">DashBoard::setBoostwg</text>
</a>
</g>
</g>
<!-- Node13&#45;&gt;Node17 -->
<g id="edge22" class="edge">
<title>Node13&#45;&gt;Node17</title>
<path fill="none" stroke="midnightblue" d="M702.9,-551.59C725.53,-556.65 753.5,-562.9 777.43,-568.25"/>
<polygon fill="midnightblue" stroke="midnightblue" points="776.89,-571.71 787.41,-570.48 778.41,-564.88 776.89,-571.71"/>
</g>
<!-- Node18 -->
<g id="node18" class="node">
<title>Node18</title>
<g id="a_node18"><a xlink:href="classDashBoard.html#aa34fb9a1bc1ffbf895c0dc507dacfe03" target="_top" xlink:title=" ">
<polygon fill="white" stroke="black" points="777.5,-532.5 777.5,-551.5 884.5,-551.5 884.5,-532.5 777.5,-532.5"/>
<text text-anchor="middle" x="831" y="-539.5" font-family="Helvetica,sans-Serif" font-size="10.00">DashBoard::setDwell</text>
</a>
</g>
</g>
<!-- Node13&#45;&gt;Node18 -->
<g id="edge23" class="edge">
<title>Node13&#45;&gt;Node18</title>
<path fill="none" stroke="midnightblue" d="M706,-542C724.85,-542 746.95,-542 767.24,-542"/>
<polygon fill="midnightblue" stroke="midnightblue" points="767.35,-545.5 777.35,-542 767.35,-538.5 767.35,-545.5"/>
</g>
<!-- Node19 -->
<g id="node19" class="node">
<title>Node19</title>
<g id="a_node19"><a xlink:href="classDashBoard.html#afa98f53f1555f3bff79f49a6e12b5d9e" target="_top" xlink:title=" ">
<polygon fill="white" stroke="black" points="770.5,-494.5 770.5,-513.5 891.5,-513.5 891.5,-494.5 770.5,-494.5"/>
<text text-anchor="middle" x="831" y="-501.5" font-family="Helvetica,sans-Serif" font-size="10.00">DashBoard::setEngLoad</text>
</a>
</g>
</g>
<!-- Node13&#45;&gt;Node19 -->
<g id="edge24" class="edge">
<title>Node13&#45;&gt;Node19</title>
<path fill="none" stroke="midnightblue" d="M702.9,-532.41C725.53,-527.35 753.5,-521.1 777.43,-515.75"/>
<polygon fill="midnightblue" stroke="midnightblue" points="778.41,-519.12 787.41,-513.52 776.89,-512.29 778.41,-519.12"/>
</g>
<!-- Node20 -->
<g id="node20" class="node">
<title>Node20</title>
<g id="a_node20"><a xlink:href="classDashBoard.html#aebb7249e22bce5067a7d473e6ae0085c" target="_top" xlink:title=" ">
<polygon fill="white" stroke="black" points="777.5,-456.5 777.5,-475.5 884.5,-475.5 884.5,-456.5 777.5,-456.5"/>
<text text-anchor="middle" x="831" y="-463.5" font-family="Helvetica,sans-Serif" font-size="10.00">DashBoard::setFuelc</text>
</a>
</g>
</g>
<!-- Node13&#45;&gt;Node20 -->
<g id="edge25" class="edge">
<title>Node13&#45;&gt;Node20</title>
<path fill="none" stroke="midnightblue" d="M674.98,-532.4C694.73,-520.08 730.88,-498.65 764,-485 769.58,-482.7 775.53,-480.57 781.49,-478.63"/>
<polygon fill="midnightblue" stroke="midnightblue" points="782.95,-481.84 791.47,-475.54 780.88,-475.15 782.95,-481.84"/>
</g>
<!-- Node21 -->
<g id="node21" class="node">
<title>Node21</title>
<g id="a_node21"><a xlink:href="classDashBoard.html#ad7fb1721d5cd8770078da5e7d5d6b655" target="_top" xlink:title=" ">
<polygon fill="white" stroke="black" points="769.5,-418.5 769.5,-437.5 892.5,-437.5 892.5,-418.5 769.5,-418.5"/>
<text text-anchor="middle" x="831" y="-425.5" font-family="Helvetica,sans-Serif" font-size="10.00">DashBoard::setFueltemp</text>
</a>
</g>
</g>
<!-- Node13&#45;&gt;Node21 -->
<g id="edge26" class="edge">
<title>Node13&#45;&gt;Node21</title>
<path fill="none" stroke="midnightblue" d="M667.81,-532.36C683.83,-513.22 722.39,-470.29 764,-447 767.97,-444.78 772.22,-442.8 776.59,-441.03"/>
<polygon fill="midnightblue" stroke="midnightblue" points="778.05,-444.22 786.25,-437.51 775.65,-437.65 778.05,-444.22"/>
</g>
<!-- Node22 -->
<g id="node22" class="node">
<title>Node22</title>
<g id="a_node22"><a xlink:href="classDashBoard.html#ad46278eecba8d5643f84cea9eafa1bce" target="_top" xlink:title=" ">
<polygon fill="white" stroke="black" points="783,-380.5 783,-399.5 879,-399.5 879,-380.5 783,-380.5"/>
<text text-anchor="middle" x="831" y="-387.5" font-family="Helvetica,sans-Serif" font-size="10.00">DashBoard::setIgn</text>
</a>
</g>
</g>
<!-- Node13&#45;&gt;Node22 -->
<g id="edge27" class="edge">
<title>Node13&#45;&gt;Node22</title>
<path fill="none" stroke="midnightblue" d="M664.81,-532.27C677.47,-507.68 714.19,-442.62 764,-409 766.96,-407.01 770.12,-405.22 773.41,-403.61"/>
<polygon fill="midnightblue" stroke="midnightblue" points="775.08,-406.71 782.92,-399.57 772.34,-400.26 775.08,-406.71"/>
</g>
<!-- Node23 -->
<g id="node23" class="node">
<title>Node23</title>
<g id="a_node23"><a xlink:href="classDashBoard.html#a6f4952eb15d3b4c0c2eaacf37fb2c96b" target="_top" xlink:title=" ">
<polygon fill="white" stroke="black" points="778,-342.5 778,-361.5 884,-361.5 884,-342.5 778,-342.5"/>
<text text-anchor="middle" x="831" y="-349.5" font-family="Helvetica,sans-Serif" font-size="10.00">DashBoard::setinjms</text>
</a>
</g>
</g>
<!-- Node13&#45;&gt;Node23 -->
<g id="edge28" class="edge">
<title>Node13&#45;&gt;Node23</title>
<path fill="none" stroke="midnightblue" d="M663.11,-532.13C672.87,-502.81 705.74,-415.51 764,-371 766.48,-369.11 769.14,-367.4 771.92,-365.87"/>
<polygon fill="midnightblue" stroke="midnightblue" points="773.58,-368.95 781.13,-361.52 770.59,-362.62 773.58,-368.95"/>
</g>
<!-- Node24 -->
<g id="node24" class="node">
<title>Node24</title>
<g id="a_node24"><a xlink:href="classDashBoard.html#a31caf833ec71b5a8135fd39859f4c2f5" target="_top" xlink:title=" ">
<polygon fill="white" stroke="black" points="764,-304.5 764,-323.5 898,-323.5 898,-304.5 764,-304.5"/>
<text text-anchor="middle" x="831" y="-311.5" font-family="Helvetica,sans-Serif" font-size="10.00">DashBoard::setIntakepress</text>
</a>
</g>
</g>
<!-- Node13&#45;&gt;Node24 -->
<g id="edge29" class="edge">
<title>Node13&#45;&gt;Node24</title>
<path fill="none" stroke="midnightblue" d="M661.9,-532.39C668.94,-499.3 696.75,-389.04 764,-333 766.04,-331.3 768.23,-329.75 770.53,-328.33"/>
<polygon fill="midnightblue" stroke="midnightblue" points="772.52,-331.24 779.8,-323.55 769.31,-325.02 772.52,-331.24"/>
</g>
<!-- Node25 -->
<g id="node25" class="node">
<title>Node25</title>
<g id="a_node25"><a xlink:href="classDashBoard.html#ae4d194cbb50c7c36bd2d0b2be6b21e6d" target="_top" xlink:title=" ">
<polygon fill="white" stroke="black" points="765.5,-912.5 765.5,-931.5 896.5,-931.5 896.5,-912.5 765.5,-912.5"/>
<text text-anchor="middle" x="831" y="-919.5" font-family="Helvetica,sans-Serif" font-size="10.00">DashBoard::setIntaketemp</text>
</a>
</g>
</g>
<!-- Node13&#45;&gt;Node25 -->
<g id="edge30" class="edge">
<title>Node13&#45;&gt;Node25</title>
<path fill="none" stroke="midnightblue" d="M659.65,-551.72C658.52,-598.12 659.99,-799.01 764,-903 765.45,-904.45 767.01,-905.8 768.65,-907.04"/>
<polygon fill="midnightblue" stroke="midnightblue" points="767.1,-910.2 777.46,-912.45 770.77,-904.23 767.1,-910.2"/>
</g>
<!-- Node26 -->
<g id="node26" class="node">
<title>Node26</title>
<g id="a_node26"><a xlink:href="classDashBoard.html#add4eafa05b50837f81332bd06b76f36d" target="_top" xlink:title=" ">
<polygon fill="white" stroke="black" points="771.5,-266.5 771.5,-285.5 890.5,-285.5 890.5,-266.5 771.5,-266.5"/>
<text text-anchor="middle" x="831" y="-273.5" font-family="Helvetica,sans-Serif" font-size="10.00">DashBoard::setIscvduty</text>
</a>
</g>
</g>
<!-- Node13&#45;&gt;Node26 -->
<g id="edge31" class="edge">
<title>Node13&#45;&gt;Node26</title>
<path fill="none" stroke="midnightblue" d="M661.12,-532.25C665.87,-495.32 687.82,-362.67 764,-295 765.77,-293.42 767.67,-291.98 769.66,-290.65"/>
<polygon fill="midnightblue" stroke="midnightblue" points="771.82,-293.46 778.9,-285.57 768.45,-287.32 771.82,-293.46"/>
</g>
<!-- Node27 -->
<g id="node27" class="node">
<title>Node27</title>
<g id="a_node27"><a xlink:href="classDashBoard.html#acf7ff86dcbb34ee7661c1904191cf7a9" target="_top" xlink:title=" ">
<polygon fill="white" stroke="black" points="776,-874.5 776,-893.5 886,-893.5 886,-874.5 776,-874.5"/>
<text text-anchor="middle" x="831" y="-881.5" font-family="Helvetica,sans-Serif" font-size="10.00">DashBoard::setKnock</text>
</a>
</g>
</g>
<!-- Node13&#45;&gt;Node27 -->
<g id="edge32" class="edge">
<title>Node13&#45;&gt;Node27</title>
<path fill="none" stroke="midnightblue" d="M660.03,-551.57C660.69,-594.74 669.24,-773.16 764,-865 765.63,-866.58 767.39,-868.04 769.25,-869.37"/>
<polygon fill="midnightblue" stroke="midnightblue" points="767.51,-872.41 777.9,-874.49 771.07,-866.39 767.51,-872.41"/>
</g>
<!-- Node28 -->
<g id="node28" class="node">
<title>Node28</title>
<g id="a_node28"><a xlink:href="classDashBoard.html#a4e90fc531b31a84fa122ade9bdc2ecf1" target="_top" xlink:title=" ">
<polygon fill="white" stroke="black" points="766,-1026.5 766,-1045.5 896,-1045.5 896,-1026.5 766,-1026.5"/>
<text text-anchor="middle" x="831" y="-1033.5" font-family="Helvetica,sans-Serif" font-size="10.00">DashBoard::setLeadingign</text>
</a>
</g>
</g>
<!-- Node13&#45;&gt;Node28 -->
<g id="edge33" class="edge">
<title>Node13&#45;&gt;Node28</title>
<path fill="none" stroke="midnightblue" d="M661.49,-551.53C671.55,-615.51 730.3,-981.04 764,-1017 765.23,-1018.32 766.55,-1019.54 767.94,-1020.69"/>
<polygon fill="midnightblue" stroke="midnightblue" points="766.28,-1023.79 776.56,-1026.37 770.14,-1017.94 766.28,-1023.79"/>
</g>
<!-- Node29 -->
<g id="node29" class="node">
<title>Node29</title>
<g id="a_node29"><a xlink:href="classDashBoard.html#a19ed911149392a939ade24ef44180dec" target="_top" xlink:title=" ">
<polygon fill="white" stroke="black" points="773,-228.5 773,-247.5 889,-247.5 889,-228.5 773,-228.5"/>
<text text-anchor="middle" x="831" y="-235.5" font-family="Helvetica,sans-Serif" font-size="10.00">DashBoard::setMAF1V</text>
</a>
</g>
</g>
<!-- Node13&#45;&gt;Node29 -->
<g id="edge34" class="edge">
<title>Node13&#45;&gt;Node29</title>
<path fill="none" stroke="midnightblue" d="M660.49,-532.47C663.08,-492.51 678.49,-336.75 764,-257 765.7,-255.41 767.52,-253.96 769.44,-252.63"/>
<polygon fill="midnightblue" stroke="midnightblue" points="771.44,-255.52 778.38,-247.52 767.96,-249.44 771.44,-255.52"/>
</g>
<!-- Node30 -->
<g id="node30" class="node">
<title>Node30</title>
<g id="a_node30"><a xlink:href="classDashBoard.html#a584d76fb3dc3faa498611cdc0a7d572a" target="_top" xlink:title=" ">
<polygon fill="white" stroke="black" points="773,-190.5 773,-209.5 889,-209.5 889,-190.5 773,-190.5"/>
<text text-anchor="middle" x="831" y="-197.5" font-family="Helvetica,sans-Serif" font-size="10.00">DashBoard::setMAF2V</text>
</a>
</g>
</g>
<!-- Node13&#45;&gt;Node30 -->
<g id="edge35" class="edge">
<title>Node13&#45;&gt;Node30</title>
<path fill="none" stroke="midnightblue" d="M660.03,-532.43C660.69,-489.26 669.24,-310.84 764,-219 765.63,-217.42 767.39,-215.96 769.25,-214.63"/>
<polygon fill="midnightblue" stroke="midnightblue" points="771.07,-217.61 777.9,-209.51 767.51,-211.59 771.07,-217.61"/>
</g>
<!-- Node31 -->
<g id="node31" class="node">
<title>Node31</title>
<g id="a_node31"><a xlink:href="classDashBoard.html#a0cf0a1970e9c2c02886e8587966f6abc" target="_top" xlink:title=" ">
<polygon fill="white" stroke="black" points="764,-152.5 764,-171.5 898,-171.5 898,-152.5 764,-152.5"/>
<text text-anchor="middle" x="831" y="-159.5" font-family="Helvetica,sans-Serif" font-size="10.00">DashBoard::setMAFactivity</text>
</a>
</g>
</g>
<!-- Node13&#45;&gt;Node31 -->
<g id="edge36" class="edge">
<title>Node13&#45;&gt;Node31</title>
<path fill="none" stroke="midnightblue" d="M659.65,-532.28C658.52,-485.88 659.99,-284.99 764,-181 765.45,-179.55 767.01,-178.2 768.65,-176.96"/>
<polygon fill="midnightblue" stroke="midnightblue" points="770.77,-179.77 777.46,-171.55 767.1,-173.8 770.77,-179.77"/>
</g>
<!-- Node32 -->
<g id="node32" class="node">
<title>Node32</title>
<g id="a_node32"><a xlink:href="classDashBoard.html#a5480aa312813d238574e103a52bef81f" target="_top" xlink:title=" ">
<polygon fill="white" stroke="black" points="778,-114.5 778,-133.5 884,-133.5 884,-114.5 778,-114.5"/>
<text text-anchor="middle" x="831" y="-121.5" font-family="Helvetica,sans-Serif" font-size="10.00">DashBoard::setMoilp</text>
</a>
</g>
</g>
<!-- Node13&#45;&gt;Node32 -->
<g id="edge37" class="edge">
<title>Node13&#45;&gt;Node32</title>
<path fill="none" stroke="midnightblue" d="M661.22,-532.31C668.38,-477.04 706.53,-201.94 764,-143 765.59,-141.37 767.31,-139.88 769.13,-138.51"/>
<polygon fill="midnightblue" stroke="midnightblue" points="770.97,-141.49 777.68,-133.29 767.32,-135.51 770.97,-141.49"/>
</g>
<!-- Node33 -->
<g id="node33" class="node">
<title>Node33</title>
<g id="a_node33"><a xlink:href="classDashBoard.html#a4ddbc9f8b9001cf29ead004af11e972d" target="_top" xlink:title=" ">
<polygon fill="white" stroke="black" points="782,-76.5 782,-95.5 880,-95.5 880,-76.5 782,-76.5"/>
<text text-anchor="middle" x="831" y="-83.5" font-family="Helvetica,sans-Serif" font-size="10.00">DashBoard::setna1</text>
</a>
</g>
</g>
<!-- Node13&#45;&gt;Node33 -->
<g id="edge38" class="edge">
<title>Node13&#45;&gt;Node33</title>
<path fill="none" stroke="midnightblue" d="M661,-532.18C667.17,-473.54 701.81,-170.16 764,-105 766.62,-102.25 769.62,-99.89 772.85,-97.87"/>
<polygon fill="midnightblue" stroke="midnightblue" points="774.55,-100.93 781.86,-93.26 771.37,-94.69 774.55,-100.93"/>
</g>
<!-- Node34 -->
<g id="node34" class="node">
<title>Node34</title>
<g id="a_node34"><a xlink:href="classDashBoard.html#a3992060dbefe28848e9e2a0163a7df21" target="_top" xlink:title=" ">
<polygon fill="white" stroke="black" points="782,-38.5 782,-57.5 880,-57.5 880,-38.5 782,-38.5"/>
<text text-anchor="middle" x="831" y="-45.5" font-family="Helvetica,sans-Serif" font-size="10.00">DashBoard::setna2</text>
</a>
</g>
</g>
<!-- Node13&#45;&gt;Node34 -->
<g id="edge39" class="edge">
<title>Node13&#45;&gt;Node34</title>
<path fill="none" stroke="midnightblue" d="M660.81,-532.14C666.03,-470.51 697.03,-138.45 764,-67 766.6,-64.23 769.57,-61.85 772.79,-59.81"/>
<polygon fill="midnightblue" stroke="midnightblue" points="774.5,-62.87 781.78,-55.18 771.29,-56.65 774.5,-62.87"/>
</g>
<!-- Node35 -->
<g id="node35" class="node">
<title>Node35</title>
<g id="a_node35"><a xlink:href="classDashBoard.html#a36e46c92b433846ab5932b5622e69905" target="_top" xlink:title=" ">
<polygon fill="white" stroke="black" points="775.5,-0.5 775.5,-19.5 886.5,-19.5 886.5,-0.5 775.5,-0.5"/>
<text text-anchor="middle" x="831" y="-7.5" font-family="Helvetica,sans-Serif" font-size="10.00">DashBoard::setO2volt</text>
</a>
</g>
</g>
<!-- Node13&#45;&gt;Node35 -->
<g id="edge40" class="edge">
<title>Node13&#45;&gt;Node35</title>
<path fill="none" stroke="midnightblue" d="M660.63,-532.21C664.95,-467.94 692.2,-106.8 764,-29 765.22,-27.67 766.53,-26.44 767.91,-25.29"/>
<polygon fill="midnightblue" stroke="midnightblue" points="770.11,-28.03 776.5,-19.58 766.23,-22.2 770.11,-28.03"/>
</g>
<!-- Node36 -->
<g id="node36" class="node">
<title>Node36</title>
<g id="a_node36"><a xlink:href="classDashBoard.html#a1ff480e57034d577177325f86cba2108" target="_top" xlink:title=" ">
<polygon fill="white" stroke="black" points="770,-836.5 770,-855.5 892,-855.5 892,-836.5 770,-836.5"/>
<text text-anchor="middle" x="831" y="-843.5" font-family="Helvetica,sans-Serif" font-size="10.00">DashBoard::setO2volt_2</text>
</a>
</g>
</g>
<!-- Node13&#45;&gt;Node36 -->
<g id="edge41" class="edge">
<title>Node13&#45;&gt;Node36</title>
<path fill="none" stroke="midnightblue" d="M660.49,-551.53C663.08,-591.49 678.49,-747.25 764,-827 765.7,-828.59 767.52,-830.04 769.44,-831.37"/>
<polygon fill="midnightblue" stroke="midnightblue" points="767.96,-834.56 778.38,-836.48 771.44,-828.48 767.96,-834.56"/>
</g>
<!-- Node37 -->
<g id="node37" class="node">
<title>Node37</title>
<g id="a_node37"><a xlink:href="classDashBoard.html#ab617d388ec0714d60bf68f19b189d86b" target="_top" xlink:title=" ">
<polygon fill="white" stroke="black" points="782,-798.5 782,-817.5 880,-817.5 880,-798.5 782,-798.5"/>
<text text-anchor="middle" x="831" y="-805.5" font-family="Helvetica,sans-Serif" font-size="10.00">DashBoard::setpim</text>
</a>
</g>
</g>
<!-- Node13&#45;&gt;Node37 -->
<g id="edge42" class="edge">
<title>Node13&#45;&gt;Node37</title>
<path fill="none" stroke="midnightblue" d="M661.12,-551.75C665.87,-588.68 687.82,-721.33 764,-789 766.67,-791.37 769.61,-793.44 772.73,-795.26"/>
<polygon fill="midnightblue" stroke="midnightblue" points="771.38,-798.5 781.91,-799.73 774.45,-792.2 771.38,-798.5"/>
</g>
<!-- Node38 -->
<g id="node38" class="node">
<title>Node38</title>
<g id="a_node38"><a xlink:href="classDashBoard.html#a8b4be03b152c61f0c3086b92b2ad47d9" target="_top" xlink:title=" ">
<polygon fill="white" stroke="black" points="767,-760.5 767,-779.5 895,-779.5 895,-760.5 767,-760.5"/>
<text text-anchor="middle" x="831" y="-767.5" font-family="Helvetica,sans-Serif" font-size="10.00">DashBoard::setPressureV</text>
</a>
</g>
</g>
<!-- Node13&#45;&gt;Node38 -->
<g id="edge43" class="edge">
<title>Node13&#45;&gt;Node38</title>
<path fill="none" stroke="midnightblue" d="M661.9,-551.61C668.94,-584.7 696.75,-694.96 764,-751 766.04,-752.7 768.23,-754.25 770.53,-755.67"/>
<polygon fill="midnightblue" stroke="midnightblue" points="769.31,-758.98 779.8,-760.45 772.52,-752.76 769.31,-758.98"/>
</g>
<!-- Node39 -->
<g id="node39" class="node">
<title>Node39</title>
<g id="a_node39"><a xlink:href="classDashBoard.html#ae10ebf05ada076cdf9034a470dc0138e" target="_top" xlink:title=" ">
<polygon fill="white" stroke="black" points="767,-722.5 767,-741.5 895,-741.5 895,-722.5 767,-722.5"/>
<text text-anchor="middle" x="831" y="-729.5" font-family="Helvetica,sans-Serif" font-size="10.00">DashBoard::setPrimaryinp</text>
</a>
</g>
</g>
<!-- Node13&#45;&gt;Node39 -->
<g id="edge44" class="edge">
<title>Node13&#45;&gt;Node39</title>
<path fill="none" stroke="midnightblue" d="M663.11,-551.87C672.87,-581.19 705.74,-668.49 764,-713 766.48,-714.89 769.14,-716.6 771.92,-718.13"/>
<polygon fill="midnightblue" stroke="midnightblue" points="770.59,-721.38 781.13,-722.48 773.58,-715.05 770.59,-721.38"/>
</g>
<!-- Node40 -->
<g id="node40" class="node">
<title>Node40</title>
<g id="a_node40"><a xlink:href="classDashBoard.html#ab8a26c5ebc87f76cc237e46d8e014403" target="_top" xlink:title=" ">
<polygon fill="white" stroke="red" points="781.5,-988.5 781.5,-1007.5 880.5,-1007.5 880.5,-988.5 781.5,-988.5"/>
<text text-anchor="middle" x="831" y="-995.5" font-family="Helvetica,sans-Serif" font-size="10.00">DashBoard::setrpm</text>
</a>
</g>
</g>
<!-- Node13&#45;&gt;Node40 -->
<g id="edge45" class="edge">
<title>Node13&#45;&gt;Node40</title>
<path fill="none" stroke="midnightblue" d="M661,-551.82C667.17,-610.46 701.81,-913.84 764,-979 766.46,-981.58 769.25,-983.82 772.25,-985.75"/>
<polygon fill="midnightblue" stroke="midnightblue" points="770.72,-988.9 781.2,-990.46 773.98,-982.71 770.72,-988.9"/>
</g>
<!-- Node42 -->
<g id="node41" class="node">
<title>Node42</title>
<g id="a_node41"><a xlink:href="classDashBoard.html#a68ced326141cb80742fe151c64e33c4f" target="_top" xlink:title=" ">
<polygon fill="white" stroke="black" points="764.5,-684.5 764.5,-703.5 897.5,-703.5 897.5,-684.5 764.5,-684.5"/>
<text text-anchor="middle" x="831" y="-691.5" font-family="Helvetica,sans-Serif" font-size="10.00">DashBoard::setSecinjpulse</text>
</a>
</g>
</g>
<!-- Node13&#45;&gt;Node42 -->
<g id="edge46" class="edge">
<title>Node13&#45;&gt;Node42</title>
<path fill="none" stroke="midnightblue" d="M664.81,-551.73C677.47,-576.32 714.19,-641.38 764,-675 766.96,-676.99 770.12,-678.78 773.41,-680.39"/>
<polygon fill="midnightblue" stroke="midnightblue" points="772.34,-683.74 782.92,-684.43 775.08,-677.29 772.34,-683.74"/>
</g>
<!-- Node52&#45;&gt;Node14 -->
<g id="edge49" class="edge">
<title>Node52&#45;&gt;Node14</title>
<path fill="none" stroke="midnightblue" d="M709.63,-946.55C725.69,-948.34 743.79,-950.37 760.99,-952.29"/>
<polygon fill="midnightblue" stroke="midnightblue" points="760.67,-955.77 770.99,-953.41 761.44,-948.82 760.67,-955.77"/>
</g>
<!-- Node52&#45;&gt;Node25 -->
<g id="edge50" class="edge">
<title>Node52&#45;&gt;Node25</title>
<path fill="none" stroke="midnightblue" d="M709.63,-935.45C723.94,-933.85 739.88,-932.07 755.35,-930.34"/>
<polygon fill="midnightblue" stroke="midnightblue" points="755.88,-933.81 765.43,-929.22 755.1,-926.85 755.88,-933.81"/>
</g>
<!-- Node52&#45;&gt;Node27 -->
<g id="edge51" class="edge">
<title>Node52&#45;&gt;Node27</title>
<path fill="none" stroke="midnightblue" d="M684.63,-931.45C705.59,-923.45 736.59,-911.94 764,-903 770.94,-900.74 778.33,-898.47 785.56,-896.33"/>
<polygon fill="midnightblue" stroke="midnightblue" points="786.64,-899.66 795.26,-893.51 784.69,-892.94 786.64,-899.66"/>
</g>
<!-- Node52&#45;&gt;Node28 -->
<g id="edge52" class="edge">
<title>Node52&#45;&gt;Node28</title>
<path fill="none" stroke="midnightblue" d="M700.23,-950.55C709.93,-954.07 719.84,-958.77 728,-965 750.34,-982.06 741.17,-1000.6 764,-1017 766.71,-1018.95 769.62,-1020.7 772.65,-1022.27"/>
<polygon fill="midnightblue" stroke="midnightblue" points="771.47,-1025.57 782.02,-1026.46 774.33,-1019.18 771.47,-1025.57"/>
</g>
<!-- Node52&#45;&gt;Node40 -->
<g id="edge53" class="edge">
<title>Node52&#45;&gt;Node40</title>
<path fill="none" stroke="midnightblue" d="M687.86,-950.61C700.19,-954.92 714.85,-960.13 728,-965 744.1,-970.97 747.73,-973.51 764,-979 770.6,-981.23 777.63,-983.43 784.55,-985.5"/>
<polygon fill="midnightblue" stroke="midnightblue" points="783.96,-988.98 794.54,-988.43 785.93,-982.26 783.96,-988.98"/>
</g>
</g>
</svg>
