<?xml version="1.0" encoding="UTF-8" standalone="no"?>
<!DOCTYPE svg PUBLIC "-//W3C//DTD SVG 1.1//EN"
 "http://www.w3.org/Graphics/SVG/1.1/DTD/svg11.dtd">
<!-- Generated by graphviz version 2.49.3 (20211027.1534)
 -->
<!-- Title: AdaptronicSelect::decodeAdaptronic Pages: 1 -->
<!--zoomable 864 -->
<svg id="main" version="1.1" xmlns="http://www.w3.org/2000/svg" xmlns:xlink="http://www.w3.org/1999/xlink" xml:space="preserve" onload="init(evt)">
<style type="text/css"><![CDATA[
.edge:hover path { stroke: red; }
.edge:hover polygon { stroke: red; fill: red; }
]]></style>
<script type="text/javascript"><![CDATA[
var edges = document.getElementsByTagName('g');
if (edges && edges.length) {
  for (var i=0;i<edges.length;i++) {
    if (edges[i].id.substr(0,4)=='edge') {
      edges[i].setAttribute('class','edge');
    }
  }
}
]]></script>
        <defs>
                <circle id="rim" cx="0" cy="0" r="7"/>
                <circle id="rim2" cx="0" cy="0" r="3.5"/>
                <g id="zoomPlus">
                        <use xlink:href="#rim" fill="#404040">
                                <set attributeName="fill" to="#808080" begin="zoomplus.mouseover" end="zoomplus.mouseout"/>
                        </use>
                        <path d="M-4,0h8M0,-4v8" fill="none" stroke="white" stroke-width="1.5" pointer-events="none"/>
                </g>
                <g id="zoomMin">
                        <use xlink:href="#rim" fill="#404040">
                                <set attributeName="fill" to="#808080" begin="zoomminus.mouseover" end="zoomminus.mouseout"/>
                        </use>
                        <path d="M-4,0h8" fill="none" stroke="white" stroke-width="1.5" pointer-events="none"/>
                </g>
                <g id="dirArrow">
                        <path fill="none" stroke="white" stroke-width="1.5" d="M0,-3.0v7 M-2.5,-0.5L0,-3.0L2.5,-0.5"/>
                </g>
               <g id="resetDef">
                       <use xlink:href="#rim2" fill="#404040">
                               <set attributeName="fill" to="#808080" begin="reset.mouseover" end="reset.mouseout"/>
                       </use>
               </g>
        </defs>

<script type="text/javascript">
var viewWidth = 417;
var viewHeight = 864;
var sectionId = 'dynsection-4';
</script>
<script xlink:href="svgpan.js"/>
<svg id="graph" class="graph">
<g id="viewport">
<title>AdaptronicSelect::decodeAdaptronic</title>
<polygon fill="white" stroke="transparent" points="-4,4 -4,-860 413,-860 413,4 -4,4"/>
<!-- Node1 -->
<g id="node1" class="node">
<title>Node1</title>
<g id="a_node1"><a xlink:title=" ">
<polygon fill="#bfbfbf" stroke="black" points="0,-413 0,-443 127,-443 127,-413 0,-413"/>
<text text-anchor="start" x="8" y="-431" font-family="Helvetica,sans-Serif" font-size="10.00">AdaptronicSelect::decode</text>
<text text-anchor="middle" x="63.5" y="-420" font-family="Helvetica,sans-Serif" font-size="10.00">Adaptronic</text>
</a>
</g>
</g>
<!-- Node2 -->
<g id="node2" class="node">
<title>Node2</title>
<g id="a_node2"><a xlink:href="classDashBoard.html#a0f2f639b3c4a600bdad0aa9d04c605f9" target="_top" xlink:title=" ">
<polygon fill="white" stroke="black" points="168,-836.5 168,-855.5 289,-855.5 289,-836.5 168,-836.5"/>
<text text-anchor="middle" x="228.5" y="-843.5" font-family="Helvetica,sans-Serif" font-size="10.00">DashBoard::setauxcalc1</text>
</a>
</g>
</g>
<!-- Node1&#45;&gt;Node2 -->
<g id="edge1" class="edge">
<title>Node1&#45;&gt;Node2</title>
<path fill="none" stroke="midnightblue" d="M66.25,-443.32C74.08,-509.42 108.01,-769.51 163,-827 164.39,-828.46 165.89,-829.8 167.47,-831.04"/>
<polygon fill="midnightblue" stroke="midnightblue" points="165.67,-834.05 175.99,-836.45 169.43,-828.14 165.67,-834.05"/>
</g>
<!-- Node3 -->
<g id="node3" class="node">
<title>Node3</title>
<g id="a_node3"><a xlink:href="classDashBoard.html#a8fb1b3f8d0a98a92ef3363bf471ddd31" target="_top" xlink:title=" ">
<polygon fill="white" stroke="black" points="173.5,-798.5 173.5,-817.5 283.5,-817.5 283.5,-798.5 173.5,-798.5"/>
<text text-anchor="middle" x="228.5" y="-805.5" font-family="Helvetica,sans-Serif" font-size="10.00">DashBoard::setAUXT</text>
</a>
</g>
</g>
<!-- Node1&#45;&gt;Node3 -->
<g id="edge2" class="edge">
<title>Node1&#45;&gt;Node3</title>
<path fill="none" stroke="midnightblue" d="M63.8,-443.19C62.15,-498.06 64.1,-688.09 163,-789 164.41,-790.44 165.92,-791.77 167.52,-793"/>
<polygon fill="midnightblue" stroke="midnightblue" points="165.75,-796.02 176.09,-798.36 169.47,-790.09 165.75,-796.02"/>
</g>
<!-- Node4 -->
<g id="node4" class="node">
<title>Node4</title>
<g id="a_node4"><a xlink:href="classDashBoard.html#a21635845a2258c7dbe2a7f2f7ec32345" target="_top" xlink:title=" ">
<polygon fill="white" stroke="black" points="168.5,-760.5 168.5,-779.5 288.5,-779.5 288.5,-760.5 168.5,-760.5"/>
<text text-anchor="middle" x="228.5" y="-767.5" font-family="Helvetica,sans-Serif" font-size="10.00">DashBoard::setBatteryV</text>
</a>
</g>
</g>
<!-- Node1&#45;&gt;Node4 -->
<g id="edge3" class="edge">
<title>Node1&#45;&gt;Node4</title>
<path fill="none" stroke="midnightblue" d="M64.38,-443.02C64.8,-493.98 73.24,-662.09 163,-751 164.46,-752.45 166.03,-753.79 167.68,-755.02"/>
<polygon fill="midnightblue" stroke="midnightblue" points="166.16,-758.2 176.52,-760.41 169.8,-752.22 166.16,-758.2"/>
</g>
<!-- Node5 -->
<g id="node5" class="node">
<title>Node5</title>
<g id="a_node5"><a xlink:href="classDashBoard.html#a36b831fcbcd5cc6472927a50a5834574" target="_top" xlink:title=" ">
<polygon fill="white" stroke="black" points="167,-722.5 167,-741.5 290,-741.5 290,-722.5 167,-722.5"/>
<text text-anchor="middle" x="228.5" y="-729.5" font-family="Helvetica,sans-Serif" font-size="10.00">DashBoard::setIdleValue</text>
</a>
</g>
</g>
<!-- Node1&#45;&gt;Node5 -->
<g id="edge4" class="edge">
<title>Node1&#45;&gt;Node5</title>
<path fill="none" stroke="midnightblue" d="M65.1,-443.24C67.79,-490.52 82.54,-636.18 163,-713 164.65,-714.57 166.42,-716.01 168.28,-717.34"/>
<polygon fill="midnightblue" stroke="midnightblue" points="166.58,-720.4 176.98,-722.42 170.11,-714.35 166.58,-720.4"/>
</g>
<!-- Node6 -->
<g id="node6" class="node">
<title>Node6</title>
<g id="a_node6"><a xlink:href="classDashBoard.html#a3c7182d8aaaa30860e2c956500905e01" target="_top" xlink:title=" ">
<polygon fill="white" stroke="black" points="178,-684.5 178,-703.5 279,-703.5 279,-684.5 178,-684.5"/>
<text text-anchor="middle" x="228.5" y="-691.5" font-family="Helvetica,sans-Serif" font-size="10.00">DashBoard::setIgn1</text>
</a>
</g>
</g>
<!-- Node1&#45;&gt;Node6 -->
<g id="edge5" class="edge">
<title>Node1&#45;&gt;Node6</title>
<path fill="none" stroke="midnightblue" d="M65.99,-443.04C71.06,-485.92 91.51,-609.86 163,-675 164.75,-676.6 166.63,-678.06 168.61,-679.4"/>
<polygon fill="midnightblue" stroke="midnightblue" points="167.36,-682.71 177.8,-684.53 170.77,-676.6 167.36,-682.71"/>
</g>
<!-- Node7 -->
<g id="node7" class="node">
<title>Node7</title>
<g id="a_node7"><a xlink:href="classDashBoard.html#a3630ceb2d7c2882ad4b895bff6967200" target="_top" xlink:title=" ">
<polygon fill="white" stroke="black" points="178,-646.5 178,-665.5 279,-665.5 279,-646.5 178,-646.5"/>
<text text-anchor="middle" x="228.5" y="-653.5" font-family="Helvetica,sans-Serif" font-size="10.00">DashBoard::setIgn2</text>
</a>
</g>
</g>
<!-- Node1&#45;&gt;Node7 -->
<g id="edge6" class="edge">
<title>Node1&#45;&gt;Node7</title>
<path fill="none" stroke="midnightblue" d="M67.24,-443.21C74.96,-481.66 100.56,-583.5 163,-637 164.98,-638.69 167.1,-640.24 169.33,-641.64"/>
<polygon fill="midnightblue" stroke="midnightblue" points="167.88,-644.84 178.36,-646.41 171.15,-638.65 167.88,-644.84"/>
</g>
<!-- Node8 -->
<g id="node8" class="node">
<title>Node8</title>
<g id="a_node8"><a xlink:href="classDashBoard.html#a434bd3dad7d114572b4fe30255aec0be" target="_top" xlink:title=" ">
<polygon fill="white" stroke="black" points="178,-608.5 178,-627.5 279,-627.5 279,-608.5 178,-608.5"/>
<text text-anchor="middle" x="228.5" y="-615.5" font-family="Helvetica,sans-Serif" font-size="10.00">DashBoard::setIgn3</text>
</a>
</g>
</g>
<!-- Node1&#45;&gt;Node8 -->
<g id="edge7" class="edge">
<title>Node1&#45;&gt;Node8</title>
<path fill="none" stroke="midnightblue" d="M68.93,-443.13C79.48,-476.48 109.31,-556.7 163,-599 165.32,-600.83 167.81,-602.48 170.42,-603.98"/>
<polygon fill="midnightblue" stroke="midnightblue" points="169.12,-607.24 179.65,-608.47 172.19,-600.94 169.12,-607.24"/>
</g>
<!-- Node9 -->
<g id="node9" class="node">
<title>Node9</title>
<g id="a_node9"><a xlink:href="classDashBoard.html#a539fb34c4123f17405b896cd051bec34" target="_top" xlink:title=" ">
<polygon fill="white" stroke="black" points="178,-570.5 178,-589.5 279,-589.5 279,-570.5 178,-570.5"/>
<text text-anchor="middle" x="228.5" y="-577.5" font-family="Helvetica,sans-Serif" font-size="10.00">DashBoard::setIgn4</text>
</a>
</g>
</g>
<!-- Node1&#45;&gt;Node9 -->
<g id="edge8" class="edge">
<title>Node1&#45;&gt;Node9</title>
<path fill="none" stroke="midnightblue" d="M71.63,-443.29C85.33,-471 118.01,-529.57 163,-561 165.86,-563 168.94,-564.79 172.13,-566.4"/>
<polygon fill="midnightblue" stroke="midnightblue" points="170.83,-569.65 181.39,-570.44 173.63,-563.23 170.83,-569.65"/>
</g>
<!-- Node10 -->
<g id="node10" class="node">
<title>Node10</title>
<g id="a_node10"><a xlink:href="classDashBoard.html#aa834e3aecbc598fa618ecb140f92bed9" target="_top" xlink:title=" ">
<polygon fill="white" stroke="black" points="179.5,-532.5 179.5,-551.5 277.5,-551.5 277.5,-532.5 179.5,-532.5"/>
<text text-anchor="middle" x="228.5" y="-539.5" font-family="Helvetica,sans-Serif" font-size="10.00">DashBoard::setInj1</text>
</a>
</g>
</g>
<!-- Node1&#45;&gt;Node10 -->
<g id="edge9" class="edge">
<title>Node1&#45;&gt;Node10</title>
<path fill="none" stroke="midnightblue" d="M76.18,-443.16C93.1,-464.11 126.45,-501.73 163,-523 166.69,-525.15 170.64,-527.07 174.7,-528.78"/>
<polygon fill="midnightblue" stroke="midnightblue" points="173.72,-532.15 184.32,-532.42 176.2,-525.61 173.72,-532.15"/>
</g>
<!-- Node11 -->
<g id="node11" class="node">
<title>Node11</title>
<g id="a_node11"><a xlink:href="classDashBoard.html#a6f0435f369ba82adb9b4decf2393d486" target="_top" xlink:title=" ">
<polygon fill="white" stroke="black" points="179.5,-494.5 179.5,-513.5 277.5,-513.5 277.5,-494.5 179.5,-494.5"/>
<text text-anchor="middle" x="228.5" y="-501.5" font-family="Helvetica,sans-Serif" font-size="10.00">DashBoard::setInj2</text>
</a>
</g>
</g>
<!-- Node1&#45;&gt;Node11 -->
<g id="edge10" class="edge">
<title>Node1&#45;&gt;Node11</title>
<path fill="none" stroke="midnightblue" d="M87.17,-443.21C106.63,-455.75 135.77,-473.31 163,-485 168.36,-487.3 174.09,-489.43 179.83,-491.36"/>
<polygon fill="midnightblue" stroke="midnightblue" points="178.86,-494.73 189.45,-494.43 180.98,-488.06 178.86,-494.73"/>
</g>
<!-- Node12 -->
<g id="node12" class="node">
<title>Node12</title>
<g id="a_node12"><a xlink:href="classDashBoard.html#a29d3e8160a941227f00171e4be41acb9" target="_top" xlink:title=" ">
<polygon fill="white" stroke="black" points="179.5,-456.5 179.5,-475.5 277.5,-475.5 277.5,-456.5 179.5,-456.5"/>
<text text-anchor="middle" x="228.5" y="-463.5" font-family="Helvetica,sans-Serif" font-size="10.00">DashBoard::setInj3</text>
</a>
</g>
</g>
<!-- Node1&#45;&gt;Node12 -->
<g id="edge11" class="edge">
<title>Node1&#45;&gt;Node12</title>
<path fill="none" stroke="midnightblue" d="M127.05,-442.58C143.4,-446.39 160.83,-450.46 176.5,-454.11"/>
<polygon fill="midnightblue" stroke="midnightblue" points="175.98,-457.58 186.51,-456.44 177.57,-450.77 175.98,-457.58"/>
</g>
<!-- Node13 -->
<g id="node13" class="node">
<title>Node13</title>
<g id="a_node13"><a xlink:href="classDashBoard.html#a50314937d28d888abce86c76b3f51c64" target="_top" xlink:title=" ">
<polygon fill="white" stroke="black" points="179.5,-418.5 179.5,-437.5 277.5,-437.5 277.5,-418.5 179.5,-418.5"/>
<text text-anchor="middle" x="228.5" y="-425.5" font-family="Helvetica,sans-Serif" font-size="10.00">DashBoard::setInj4</text>
</a>
</g>
</g>
<!-- Node1&#45;&gt;Node13 -->
<g id="edge12" class="edge">
<title>Node1&#45;&gt;Node13</title>
<path fill="none" stroke="midnightblue" d="M127.05,-428C140.86,-428 155.44,-428 169.07,-428"/>
<polygon fill="midnightblue" stroke="midnightblue" points="169.29,-431.5 179.29,-428 169.29,-424.5 169.29,-431.5"/>
</g>
<!-- Node14 -->
<g id="node14" class="node">
<title>Node14</title>
<g id="a_node14"><a xlink:href="classDashBoard.html#ae4d194cbb50c7c36bd2d0b2be6b21e6d" target="_top" xlink:title=" ">
<polygon fill="white" stroke="black" points="163,-380.5 163,-399.5 294,-399.5 294,-380.5 163,-380.5"/>
<text text-anchor="middle" x="228.5" y="-387.5" font-family="Helvetica,sans-Serif" font-size="10.00">DashBoard::setIntaketemp</text>
</a>
</g>
</g>
<!-- Node1&#45;&gt;Node14 -->
<g id="edge13" class="edge">
<title>Node1&#45;&gt;Node14</title>
<path fill="none" stroke="midnightblue" d="M127.05,-413.42C143.4,-409.61 160.83,-405.54 176.5,-401.89"/>
<polygon fill="midnightblue" stroke="midnightblue" points="177.57,-405.23 186.51,-399.56 175.98,-398.42 177.57,-405.23"/>
</g>
<!-- Node15 -->
<g id="node15" class="node">
<title>Node15</title>
<g id="a_node15"><a xlink:href="classDashBoard.html#acf7ff86dcbb34ee7661c1904191cf7a9" target="_top" xlink:title=" ">
<polygon fill="white" stroke="black" points="173.5,-342.5 173.5,-361.5 283.5,-361.5 283.5,-342.5 173.5,-342.5"/>
<text text-anchor="middle" x="228.5" y="-349.5" font-family="Helvetica,sans-Serif" font-size="10.00">DashBoard::setKnock</text>
</a>
</g>
</g>
<!-- Node1&#45;&gt;Node15 -->
<g id="edge14" class="edge">
<title>Node1&#45;&gt;Node15</title>
<path fill="none" stroke="midnightblue" d="M87.17,-412.79C106.63,-400.25 135.77,-382.69 163,-371 168.36,-368.7 174.09,-366.57 179.83,-364.64"/>
<polygon fill="midnightblue" stroke="midnightblue" points="180.98,-367.94 189.45,-361.57 178.86,-361.27 180.98,-367.94"/>
</g>
<!-- Node16 -->
<g id="node16" class="node">
<title>Node16</title>
<g id="a_node16"><a xlink:href="classDashBoard.html#a67291e6e3e604237c9d207469a55db05" target="_top" xlink:title=" ">
<polygon fill="white" stroke="black" points="176.5,-304.5 176.5,-323.5 280.5,-323.5 280.5,-304.5 176.5,-304.5"/>
<text text-anchor="middle" x="228.5" y="-311.5" font-family="Helvetica,sans-Serif" font-size="10.00">DashBoard::setMAP</text>
</a>
</g>
</g>
<!-- Node1&#45;&gt;Node16 -->
<g id="edge15" class="edge">
<title>Node1&#45;&gt;Node16</title>
<path fill="none" stroke="midnightblue" d="M76.18,-412.84C93.1,-391.89 126.45,-354.27 163,-333 166.69,-330.85 170.64,-328.93 174.7,-327.22"/>
<polygon fill="midnightblue" stroke="midnightblue" points="176.2,-330.39 184.32,-323.58 173.72,-323.85 176.2,-330.39"/>
</g>
<!-- Node17 -->
<g id="node17" class="node">
<title>Node17</title>
<g id="a_node17"><a xlink:href="classDashBoard.html#a45d86a7a298deb9afdb339454119a2cb" target="_top" xlink:title=" ">
<polygon fill="white" stroke="black" points="173,-266.5 173,-285.5 284,-285.5 284,-266.5 173,-266.5"/>
<text text-anchor="middle" x="228.5" y="-273.5" font-family="Helvetica,sans-Serif" font-size="10.00">DashBoard::setMVSS</text>
</a>
</g>
</g>
<!-- Node1&#45;&gt;Node17 -->
<g id="edge16" class="edge">
<title>Node1&#45;&gt;Node17</title>
<path fill="none" stroke="midnightblue" d="M71.63,-412.71C85.33,-385 118.01,-326.43 163,-295 165.86,-293 168.94,-291.21 172.13,-289.6"/>
<polygon fill="midnightblue" stroke="midnightblue" points="173.63,-292.77 181.39,-285.56 170.83,-286.35 173.63,-292.77"/>
</g>
<!-- Node18 -->
<g id="node18" class="node">
<title>Node18</title>
<g id="a_node18"><a xlink:href="classDashBoard.html#ab617d388ec0714d60bf68f19b189d86b" target="_top" xlink:title=" ">
<polygon fill="white" stroke="black" points="179.5,-228.5 179.5,-247.5 277.5,-247.5 277.5,-228.5 179.5,-228.5"/>
<text text-anchor="middle" x="228.5" y="-235.5" font-family="Helvetica,sans-Serif" font-size="10.00">DashBoard::setpim</text>
</a>
</g>
</g>
<!-- Node1&#45;&gt;Node18 -->
<g id="edge17" class="edge">
<title>Node1&#45;&gt;Node18</title>
<path fill="none" stroke="midnightblue" d="M68.93,-412.87C79.48,-379.52 109.31,-299.3 163,-257 165.32,-255.17 167.81,-253.52 170.42,-252.02"/>
<polygon fill="midnightblue" stroke="midnightblue" points="172.19,-255.06 179.65,-247.53 169.12,-248.76 172.19,-255.06"/>
</g>
<!-- Node19 -->
<g id="node19" class="node">
<title>Node19</title>
<g id="a_node19"><a xlink:href="classDashBoard.html#ab8a26c5ebc87f76cc237e46d8e014403" target="_top" xlink:title=" ">
<polygon fill="white" stroke="black" points="179,-190.5 179,-209.5 278,-209.5 278,-190.5 179,-190.5"/>
<text text-anchor="middle" x="228.5" y="-197.5" font-family="Helvetica,sans-Serif" font-size="10.00">DashBoard::setrpm</text>
</a>
</g>
</g>
<!-- Node1&#45;&gt;Node19 -->
<g id="edge18" class="edge">
<title>Node1&#45;&gt;Node19</title>
<path fill="none" stroke="midnightblue" d="M67.24,-412.79C74.96,-374.34 100.56,-272.5 163,-219 165.02,-217.27 167.18,-215.7 169.46,-214.27"/>
<polygon fill="midnightblue" stroke="midnightblue" points="171.45,-217.18 178.68,-209.44 168.2,-210.98 171.45,-217.18"/>
</g>
<!-- Node21 -->
<g id="node21" class="node">
<title>Node21</title>
<g id="a_node21"><a xlink:href="classDashBoard.html#a77b4f7cb9851db07fcc88986469df3d8" target="_top" xlink:title=" ">
<polygon fill="white" stroke="black" points="173.5,-152.5 173.5,-171.5 283.5,-171.5 283.5,-152.5 173.5,-152.5"/>
<text text-anchor="middle" x="228.5" y="-159.5" font-family="Helvetica,sans-Serif" font-size="10.00">DashBoard::setSpeed</text>
</a>
</g>
</g>
<!-- Node1&#45;&gt;Node21 -->
<g id="edge20" class="edge">
<title>Node1&#45;&gt;Node21</title>
<path fill="none" stroke="midnightblue" d="M65.99,-412.96C71.06,-370.08 91.51,-246.14 163,-181 164.72,-179.43 166.56,-178 168.49,-176.68"/>
<polygon fill="midnightblue" stroke="midnightblue" points="170.48,-179.58 177.48,-171.62 167.05,-173.48 170.48,-179.58"/>
</g>
<!-- Node23 -->
<g id="node23" class="node">
<title>Node23</title>
<g id="a_node23"><a xlink:href="classDashBoard.html#aaa56f6855e89d900da75613bfc8c2f51" target="_top" xlink:title=" ">
<polygon fill="white" stroke="black" points="173.5,-114.5 173.5,-133.5 283.5,-133.5 283.5,-114.5 173.5,-114.5"/>
<text text-anchor="middle" x="228.5" y="-121.5" font-family="Helvetica,sans-Serif" font-size="10.00">DashBoard::setSVSS</text>
</a>
</g>
</g>
<!-- Node1&#45;&gt;Node23 -->
<g id="edge22" class="edge">
<title>Node1&#45;&gt;Node23</title>
<path fill="none" stroke="midnightblue" d="M65.1,-412.76C67.79,-365.48 82.54,-219.82 163,-143 164.65,-141.43 166.42,-139.99 168.28,-138.66"/>
<polygon fill="midnightblue" stroke="midnightblue" points="170.11,-141.65 176.98,-133.58 166.58,-135.6 170.11,-141.65"/>
</g>
<!-- Node24 -->
<g id="node24" class="node">
<title>Node24</title>
<g id="a_node24"><a xlink:href="classDashBoard.html#a75b10e663b009eb4ae77d10762280ca4" target="_top" xlink:title=" ">
<polygon fill="white" stroke="black" points="177.5,-76.5 177.5,-95.5 279.5,-95.5 279.5,-76.5 177.5,-76.5"/>
<text text-anchor="middle" x="228.5" y="-83.5" font-family="Helvetica,sans-Serif" font-size="10.00">DashBoard::setTPS</text>
</a>
</g>
</g>
<!-- Node1&#45;&gt;Node24 -->
<g id="edge23" class="edge">
<title>Node1&#45;&gt;Node24</title>
<path fill="none" stroke="midnightblue" d="M64.38,-412.98C64.8,-362.02 73.24,-193.91 163,-105 164.68,-103.33 166.51,-101.81 168.44,-100.42"/>
<polygon fill="midnightblue" stroke="midnightblue" points="170.61,-103.2 177.48,-95.13 167.08,-97.16 170.61,-103.2"/>
</g>
<!-- Node25 -->
<g id="node25" class="node">
<title>Node25</title>
<g id="a_node25"><a xlink:href="classDashBoard.html#a910e90bfbab7e031083811ac765ee5cf" target="_top" xlink:title=" ">
<polygon fill="white" stroke="black" points="175,-38.5 175,-57.5 282,-57.5 282,-38.5 175,-38.5"/>
<text text-anchor="middle" x="228.5" y="-45.5" font-family="Helvetica,sans-Serif" font-size="10.00">DashBoard::setTRIM</text>
</a>
</g>
</g>
<!-- Node1&#45;&gt;Node25 -->
<g id="edge24" class="edge">
<title>Node1&#45;&gt;Node25</title>
<path fill="none" stroke="midnightblue" d="M63.8,-412.81C62.15,-357.94 64.1,-167.91 163,-67 164.41,-65.56 165.92,-64.23 167.52,-63"/>
<polygon fill="midnightblue" stroke="midnightblue" points="169.47,-65.91 176.09,-57.64 165.75,-59.98 169.47,-65.91"/>
</g>
<!-- Node26 -->
<g id="node26" class="node">
<title>Node26</title>
<g id="a_node26"><a xlink:href="classDashBoard.html#aa4bc217dc1fe66ba8895284d24b92ee4" target="_top" xlink:title=" ">
<polygon fill="white" stroke="black" points="163.5,-0.5 163.5,-19.5 293.5,-19.5 293.5,-0.5 163.5,-0.5"/>
<text text-anchor="middle" x="228.5" y="-7.5" font-family="Helvetica,sans-Serif" font-size="10.00">DashBoard::setWatertemp</text>
</a>
</g>
</g>
<!-- Node1&#45;&gt;Node26 -->
<g id="edge25" class="edge">
<title>Node1&#45;&gt;Node26</title>
<path fill="none" stroke="midnightblue" d="M66.25,-412.68C74.08,-346.58 108.01,-86.49 163,-29 164.39,-27.54 165.89,-26.2 167.47,-24.96"/>
<polygon fill="midnightblue" stroke="midnightblue" points="169.43,-27.86 175.99,-19.55 165.67,-21.95 169.43,-27.86"/>
</g>
<!-- Node20 -->
<g id="node20" class="node">
<title>Node20</title>
<g id="a_node20"><a xlink:href="dashboard_8cpp.html#abaed07c489b38d23644263ae435338d4" target="_top" xlink:title=" ">
<polygon fill="white" stroke="black" points="333,-190.5 333,-209.5 406,-209.5 406,-190.5 333,-190.5"/>
<text text-anchor="middle" x="369.5" y="-197.5" font-family="Helvetica,sans-Serif" font-size="10.00">averageRPM</text>
</a>
</g>
</g>
<!-- Node19&#45;&gt;Node20 -->
<g id="edge19" class="edge">
<title>Node19&#45;&gt;Node20</title>
<path fill="none" stroke="midnightblue" d="M278.12,-200C292.6,-200 308.43,-200 322.73,-200"/>
<polygon fill="midnightblue" stroke="midnightblue" points="322.83,-203.5 332.83,-200 322.83,-196.5 322.83,-203.5"/>
</g>
<!-- Node22 -->
<g id="node22" class="node">
<title>Node22</title>
<g id="a_node22"><a xlink:href="dashboard_8cpp.html#abd6f714e98c152d7700b007c54201c76" target="_top" xlink:title=" ">
<polygon fill="white" stroke="black" points="330,-152.5 330,-171.5 409,-171.5 409,-152.5 330,-152.5"/>
<text text-anchor="middle" x="369.5" y="-159.5" font-family="Helvetica,sans-Serif" font-size="10.00">averageSpeed</text>
</a>
</g>
</g>
<!-- Node21&#45;&gt;Node22 -->
<g id="edge21" class="edge">
<title>Node21&#45;&gt;Node22</title>
<path fill="none" stroke="midnightblue" d="M283.64,-162C295.55,-162 308.09,-162 319.77,-162"/>
<polygon fill="midnightblue" stroke="midnightblue" points="319.78,-165.5 329.78,-162 319.78,-158.5 319.78,-165.5"/>
</g>
</g>
</svg>
        <g id="navigator" transform="translate(0 0)" fill="#404254">
                <rect fill="#f2f5e9" fill-opacity="0.5" stroke="#606060" stroke-width=".5" x="0" y="0" width="60" height="60"/>
                <use id="zoomplus" xlink:href="#zoomPlus" x="17" y="9" onmousedown="handleZoom(evt,'in')"/>
                <use id="zoomminus" xlink:href="#zoomMin" x="42" y="9" onmousedown="handleZoom(evt,'out')"/>
                <use id="reset" xlink:href="#resetDef" x="30" y="36" onmousedown="handleReset()"/>
                <g id="arrowUp" xlink:href="#dirArrow" transform="translate(30 24)" onmousedown="handlePan(0,-1)">
                  <use xlink:href="#rim" fill="#404040">
                        <set attributeName="fill" to="#808080" begin="arrowUp.mouseover" end="arrowUp.mouseout"/>
                  </use>
                  <path fill="none" stroke="white" stroke-width="1.5" d="M0,-3.0v7 M-2.5,-0.5L0,-3.0L2.5,-0.5"/>
                </g>
                <g id="arrowRight" xlink:href="#dirArrow" transform="rotate(90) translate(36 -43)" onmousedown="handlePan(1,0)">
                  <use xlink:href="#rim" fill="#404040">
                        <set attributeName="fill" to="#808080" begin="arrowRight.mouseover" end="arrowRight.mouseout"/>
                  </use>
                  <path fill="none" stroke="white" stroke-width="1.5" d="M0,-3.0v7 M-2.5,-0.5L0,-3.0L2.5,-0.5"/>
                </g>
                <g id="arrowDown" xlink:href="#dirArrow" transform="rotate(180) translate(-30 -48)" onmousedown="handlePan(0,1)">
                  <use xlink:href="#rim" fill="#404040">
                        <set attributeName="fill" to="#808080" begin="arrowDown.mouseover" end="arrowDown.mouseout"/>
                  </use>
                  <path fill="none" stroke="white" stroke-width="1.5" d="M0,-3.0v7 M-2.5,-0.5L0,-3.0L2.5,-0.5"/>
                </g>
                <g id="arrowLeft" xlink:href="#dirArrow" transform="rotate(270) translate(-36 17)" onmousedown="handlePan(-1,0)">
                  <use xlink:href="#rim" fill="#404040">
                        <set attributeName="fill" to="#808080" begin="arrowLeft.mouseover" end="arrowLeft.mouseout"/>
                  </use>
                  <path fill="none" stroke="white" stroke-width="1.5" d="M0,-3.0v7 M-2.5,-0.5L0,-3.0L2.5,-0.5"/>
                </g>
        </g>
        <svg viewBox="0 0 15 15" width="100%" height="30px" preserveAspectRatio="xMaxYMin meet">
         <g id="arrow_out" transform="scale(0.3 0.3)">
          <a xlink:href="classAdaptronicSelect_ae353c5153a25423eb6044be7a2f1bf72_cgraph_org.svg" target="_base">
           <rect id="button" ry="5" rx="5" y="6" x="6" height="38" width="38"
                fill="#f2f5e9" fill-opacity="0.5" stroke="#606060" stroke-width="1.0"/>
           <path id="arrow"
             d="M 11.500037,31.436501 C 11.940474,20.09759 22.043105,11.32322 32.158766,21.979434 L 37.068811,17.246167 C 37.068811,17.246167 37.088388,32 37.088388,32 L 22.160133,31.978069 C 22.160133,31.978069 26.997745,27.140456 26.997745,27.140456 C 18.528582,18.264221 13.291696,25.230495 11.500037,31.436501 z"
             style="fill:#404040;"/>
          </a>
         </g>
        </svg>
</svg>
