<?xml version="1.0" encoding="UTF-8" standalone="no"?>
<!DOCTYPE svg PUBLIC "-//W3C//DTD SVG 1.1//EN"
 "http://www.w3.org/Graphics/SVG/1.1/DTD/svg11.dtd">
<!-- Generated by graphviz version 2.49.3 (20211027.1534)
 -->
<!-- Title: DashBoard::odoChanged Pages: 1 -->
<svg width="769pt" height="116pt"
 viewBox="0.00 0.00 769.00 115.50" xmlns="http://www.w3.org/2000/svg" xmlns:xlink="http://www.w3.org/1999/xlink">
<g id="graph0" class="graph" transform="scale(1 1) rotate(0) translate(4 111.5)">
<title>DashBoard::odoChanged</title>
<polygon fill="white" stroke="transparent" points="-4,4 -4,-111.5 765,-111.5 765,4 -4,4"/>
<!-- Node1 -->
<g id="node1" class="node">
<title>Node1</title>
<g id="a_node1"><a xlink:title=" ">
<polygon fill="#bfbfbf" stroke="black" points="638,-50 638,-69 761,-69 761,-50 638,-50"/>
<text text-anchor="middle" x="699.5" y="-57" font-family="Helvetica,sans-Serif" font-size="10.00">DashBoard::odoChanged</text>
</a>
</g>
</g>
<!-- Node2 -->
<g id="node2" class="node">
<title>Node2</title>
<g id="a_node2"><a xlink:href="classDashBoard.html#af9e7386167d831b5fc637554a5f8e47a" target="_top" xlink:title=" ">
<polygon fill="white" stroke="black" points="501,-50 501,-69 602,-69 602,-50 501,-50"/>
<text text-anchor="middle" x="551.5" y="-57" font-family="Helvetica,sans-Serif" font-size="10.00">DashBoard::setOdo</text>
</a>
</g>
</g>
<!-- Node1&#45;&gt;Node2 -->
<g id="edge1" class="edge">
<title>Node1&#45;&gt;Node2</title>
<path fill="none" stroke="midnightblue" d="M627.73,-59.5C619.06,-59.5 610.35,-59.5 602.09,-59.5"/>
<polygon fill="midnightblue" stroke="midnightblue" points="627.85,-63 637.85,-59.5 627.85,-56 627.85,-63"/>
</g>
<!-- Node3 -->
<g id="node3" class="node">
<title>Node3</title>
<g id="a_node3"><a xlink:href="classcalculations.html#a3153c50c226f6960fdcf1daa998eba35" target="_top" xlink:title=" ">
<polygon fill="white" stroke="black" points="338.5,-88 338.5,-107 450.5,-107 450.5,-88 338.5,-88"/>
<text text-anchor="middle" x="394.5" y="-95" font-family="Helvetica,sans-Serif" font-size="10.00">calculations::calculate</text>
</a>
</g>
</g>
<!-- Node2&#45;&gt;Node3 -->
<g id="edge2" class="edge">
<title>Node2&#45;&gt;Node3</title>
<path fill="none" stroke="midnightblue" d="M501.39,-71.54C479.74,-76.85 454.65,-83 434.33,-87.98"/>
<polygon fill="midnightblue" stroke="midnightblue" points="502.51,-74.87 511.39,-69.09 500.84,-68.07 502.51,-74.87"/>
</g>
<!-- Node5 -->
<g id="node5" class="node">
<title>Node5</title>
<g id="a_node5"><a xlink:href="classConnect.html#ab2f2af88f427c4a717f6abfd54f9b9df" target="_top" xlink:title=" ">
<polygon fill="white" stroke="black" points="7,-69 7,-88 120,-88 120,-69 7,-69"/>
<text text-anchor="middle" x="63.5" y="-76" font-family="Helvetica,sans-Serif" font-size="10.00">Connect::setOdometer</text>
</a>
</g>
</g>
<!-- Node2&#45;&gt;Node5 -->
<g id="edge8" class="edge">
<title>Node2&#45;&gt;Node5</title>
<path fill="none" stroke="midnightblue" d="M490.77,-61.84C395.94,-65.54 212.27,-72.72 120.1,-76.33"/>
<polygon fill="midnightblue" stroke="midnightblue" points="490.92,-65.33 500.77,-61.44 490.64,-58.34 490.92,-65.33"/>
</g>
<!-- Node6 -->
<g id="node6" class="node">
<title>Node6</title>
<g id="a_node6"><a xlink:href="classudpreceiver.html#a725cf4f5cf798fd5baed7eee2e6dd5f2" target="_top" xlink:title=" ">
<polygon fill="white" stroke="black" points="324,-0.5 324,-30.5 465,-30.5 465,-0.5 324,-0.5"/>
<text text-anchor="start" x="332" y="-18.5" font-family="Helvetica,sans-Serif" font-size="10.00">udpreceiver::processPending</text>
<text text-anchor="middle" x="394.5" y="-7.5" font-family="Helvetica,sans-Serif" font-size="10.00">Datagrams</text>
</a>
</g>
</g>
<!-- Node2&#45;&gt;Node6 -->
<g id="edge5" class="edge">
<title>Node2&#45;&gt;Node6</title>
<path fill="none" stroke="midnightblue" d="M507.13,-47.19C488.96,-42.03 467.66,-35.99 448.57,-30.57"/>
<polygon fill="midnightblue" stroke="midnightblue" points="506.29,-50.59 516.87,-49.95 508.2,-43.85 506.29,-50.59"/>
</g>
<!-- Node4 -->
<g id="node4" class="node">
<title>Node4</title>
<g id="a_node4"><a xlink:href="classcalculations.html#a62003ff4c935b799de90cef1cce4b7b7" target="_top" xlink:title=" ">
<polygon fill="white" stroke="black" points="179.5,-88 179.5,-107 271.5,-107 271.5,-88 179.5,-88"/>
<text text-anchor="middle" x="225.5" y="-95" font-family="Helvetica,sans-Serif" font-size="10.00">calculations::start</text>
</a>
</g>
</g>
<!-- Node3&#45;&gt;Node4 -->
<g id="edge3" class="edge">
<title>Node3&#45;&gt;Node4</title>
<path fill="none" stroke="midnightblue" d="M328.28,-97.5C309.31,-97.5 289.01,-97.5 271.57,-97.5"/>
<polygon fill="midnightblue" stroke="midnightblue" points="328.36,-101 338.36,-97.5 328.36,-94 328.36,-101"/>
</g>
<!-- Node4&#45;&gt;Node5 -->
<g id="edge4" class="edge">
<title>Node4&#45;&gt;Node5</title>
<path fill="none" stroke="midnightblue" d="M168.96,-90.9C153.2,-89.03 136.05,-87 120.28,-85.12"/>
<polygon fill="midnightblue" stroke="midnightblue" points="168.74,-94.4 179.08,-92.11 169.56,-87.45 168.74,-94.4"/>
</g>
<!-- Node7 -->
<g id="node7" class="node">
<title>Node7</title>
<g id="a_node7"><a xlink:href="classudpreceiver.html#a2d7852b9e4be87d9a3ce960d8a7eb9aa" target="_top" xlink:title=" ">
<polygon fill="white" stroke="black" points="163,-6 163,-25 288,-25 288,-6 163,-6"/>
<text text-anchor="middle" x="225.5" y="-13" font-family="Helvetica,sans-Serif" font-size="10.00">udpreceiver::startreceiver</text>
</a>
</g>
</g>
<!-- Node6&#45;&gt;Node7 -->
<g id="edge6" class="edge">
<title>Node6&#45;&gt;Node7</title>
<path fill="none" stroke="midnightblue" d="M313.62,-15.5C305.05,-15.5 296.42,-15.5 288.11,-15.5"/>
<polygon fill="midnightblue" stroke="midnightblue" points="313.64,-19 323.64,-15.5 313.64,-12 313.64,-19"/>
</g>
<!-- Node8 -->
<g id="node8" class="node">
<title>Node8</title>
<g id="a_node8"><a xlink:href="classConnect.html#a0d674157f4d7442c535837dadd8cf5f1" target="_top" xlink:title=" ">
<polygon fill="white" stroke="black" points="0,-6 0,-25 127,-25 127,-6 0,-6"/>
<text text-anchor="middle" x="63.5" y="-13" font-family="Helvetica,sans-Serif" font-size="10.00">Connect::openConnection</text>
</a>
</g>
</g>
<!-- Node7&#45;&gt;Node8 -->
<g id="edge7" class="edge">
<title>Node7&#45;&gt;Node8</title>
<path fill="none" stroke="midnightblue" d="M152.46,-15.5C144.05,-15.5 135.52,-15.5 127.25,-15.5"/>
<polygon fill="midnightblue" stroke="midnightblue" points="152.64,-19 162.64,-15.5 152.64,-12 152.64,-19"/>
</g>
</g>
</svg>
