<?xml version="1.0" encoding="UTF-8" standalone="no"?>
<!DOCTYPE svg PUBLIC "-//W3C//DTD SVG 1.1//EN"
 "http://www.w3.org/Graphics/SVG/1.1/DTD/svg11.dtd">
<!-- Generated by graphviz version 2.49.3 (20211027.1534)
 -->
<!-- Title: Apexi::readData Pages: 1 -->
<!--zoomable 1510 -->
<svg id="main" version="1.1" xmlns="http://www.w3.org/2000/svg" xmlns:xlink="http://www.w3.org/1999/xlink" xml:space="preserve" onload="init(evt)">
<style type="text/css"><![CDATA[
.edge:hover path { stroke: red; }
.edge:hover polygon { stroke: red; fill: red; }
]]></style>
<script type="text/javascript"><![CDATA[
var edges = document.getElementsByTagName('g');
if (edges && edges.length) {
  for (var i=0;i<edges.length;i++) {
    if (edges[i].id.substr(0,4)=='edge') {
      edges[i].setAttribute('class','edge');
    }
  }
}
]]></script>
        <defs>
                <circle id="rim" cx="0" cy="0" r="7"/>
                <circle id="rim2" cx="0" cy="0" r="3.5"/>
                <g id="zoomPlus">
                        <use xlink:href="#rim" fill="#404040">
                                <set attributeName="fill" to="#808080" begin="zoomplus.mouseover" end="zoomplus.mouseout"/>
                        </use>
                        <path d="M-4,0h8M0,-4v8" fill="none" stroke="white" stroke-width="1.5" pointer-events="none"/>
                </g>
                <g id="zoomMin">
                        <use xlink:href="#rim" fill="#404040">
                                <set attributeName="fill" to="#808080" begin="zoomminus.mouseover" end="zoomminus.mouseout"/>
                        </use>
                        <path d="M-4,0h8" fill="none" stroke="white" stroke-width="1.5" pointer-events="none"/>
                </g>
                <g id="dirArrow">
                        <path fill="none" stroke="white" stroke-width="1.5" d="M0,-3.0v7 M-2.5,-0.5L0,-3.0L2.5,-0.5"/>
                </g>
               <g id="resetDef">
                       <use xlink:href="#rim2" fill="#404040">
                               <set attributeName="fill" to="#808080" begin="reset.mouseover" end="reset.mouseout"/>
                       </use>
               </g>
        </defs>

<script type="text/javascript">
var viewWidth = 436;
var viewHeight = 1510;
var sectionId = 'dynsection-30';
</script>
<script xlink:href="svgpan.js"/>
<svg id="graph" class="graph">
<g id="viewport">
<title>Apexi::readData</title>
<polygon fill="white" stroke="transparent" points="-4,4 -4,-1506 432,-1506 432,4 -4,4"/>
<!-- Node1 -->
<g id="node1" class="node">
<title>Node1</title>
<g id="a_node1"><a xlink:title=" ">
<polygon fill="#bfbfbf" stroke="black" points="0,-608.5 0,-627.5 84,-627.5 84,-608.5 0,-608.5"/>
<text text-anchor="middle" x="42" y="-615.5" font-family="Helvetica,sans-Serif" font-size="10.00">Apexi::readData</text>
</a>
</g>
</g>
<!-- Node2 -->
<g id="node2" class="node">
<title>Node2</title>
<g id="a_node2"><a xlink:href="classApexi.html#a669124cabae4ada616e650e582c068da" target="_top" xlink:title=" ">
<polygon fill="white" stroke="black" points="130.5,-1406.5 130.5,-1425.5 247.5,-1425.5 247.5,-1406.5 130.5,-1406.5"/>
<text text-anchor="middle" x="189" y="-1413.5" font-family="Helvetica,sans-Serif" font-size="10.00">Apexi::closeConnection</text>
</a>
</g>
</g>
<!-- Node1&#45;&gt;Node2 -->
<g id="edge1" class="edge">
<title>Node1&#45;&gt;Node2</title>
<path fill="none" stroke="midnightblue" d="M43.75,-627.86C48.13,-683.52 71.77,-963.96 120,-1188 136.93,-1266.62 167.44,-1357.53 181.08,-1396.56"/>
<polygon fill="midnightblue" stroke="midnightblue" points="177.83,-1397.87 184.46,-1406.14 184.43,-1395.55 177.83,-1397.87"/>
</g>
<!-- Node14 -->
<g id="node7" class="node">
<title>Node14</title>
<g id="a_node7"><a xlink:href="classApexi.html#a3ecd8445700ab9532fc051325f66d03d" target="_top" xlink:title=" ">
<polygon fill="white" stroke="black" points="142,-684.5 142,-703.5 236,-703.5 236,-684.5 142,-684.5"/>
<text text-anchor="middle" x="189" y="-691.5" font-family="Helvetica,sans-Serif" font-size="10.00">Apexi::decodeAdv</text>
</a>
</g>
</g>
<!-- Node1&#45;&gt;Node14 -->
<g id="edge6" class="edge">
<title>Node1&#45;&gt;Node14</title>
<path fill="none" stroke="midnightblue" d="M53.64,-627.88C67.77,-640.52 94,-662.29 120,-675 124.7,-677.3 129.72,-679.36 134.82,-681.19"/>
<polygon fill="midnightblue" stroke="midnightblue" points="134.09,-684.64 144.68,-684.45 136.28,-677.99 134.09,-684.64"/>
</g>
<!-- Node50 -->
<g id="node41" class="node">
<title>Node50</title>
<g id="a_node41"><a xlink:href="classApexi.html#af82382a1e22fdac04180f1734d59461f" target="_top" xlink:title=" ">
<polygon fill="white" stroke="black" points="142.5,-646.5 142.5,-665.5 235.5,-665.5 235.5,-646.5 142.5,-646.5"/>
<text text-anchor="middle" x="189" y="-653.5" font-family="Helvetica,sans-Serif" font-size="10.00">Apexi::decodeAux</text>
</a>
</g>
</g>
<!-- Node1&#45;&gt;Node50 -->
<g id="edge40" class="edge">
<title>Node1&#45;&gt;Node50</title>
<path fill="none" stroke="midnightblue" d="M79.59,-627.59C98.47,-632.54 121.69,-638.62 141.79,-643.89"/>
<polygon fill="midnightblue" stroke="midnightblue" points="141.11,-647.33 151.67,-646.48 142.89,-640.56 141.11,-647.33"/>
</g>
<!-- Node53 -->
<g id="node44" class="node">
<title>Node53</title>
<g id="a_node44"><a xlink:href="classApexi.html#af3dad564d7c3cca0e98f5944e5e27cdf" target="_top" xlink:title=" ">
<polygon fill="white" stroke="red" points="138.5,-1159.5 138.5,-1178.5 239.5,-1178.5 239.5,-1159.5 138.5,-1159.5"/>
<text text-anchor="middle" x="189" y="-1166.5" font-family="Helvetica,sans-Serif" font-size="10.00">Apexi::decodeBasic</text>
</a>
</g>
</g>
<!-- Node1&#45;&gt;Node53 -->
<g id="edge43" class="edge">
<title>Node1&#45;&gt;Node53</title>
<path fill="none" stroke="midnightblue" d="M45.52,-627.56C62.41,-691.77 159.36,-1060.17 182.87,-1149.5"/>
<polygon fill="midnightblue" stroke="midnightblue" points="179.48,-1150.39 185.41,-1159.17 186.25,-1148.61 179.48,-1150.39"/>
</g>
<!-- Node56 -->
<g id="node46" class="node">
<title>Node56</title>
<g id="a_node46"><a xlink:href="classApexi.html#aaa77337f30dd52330c1070ce161eea83" target="_top" xlink:title=" ">
<polygon fill="white" stroke="red" points="144,-608.5 144,-627.5 234,-627.5 234,-608.5 144,-608.5"/>
<text text-anchor="middle" x="189" y="-615.5" font-family="Helvetica,sans-Serif" font-size="10.00">Apexi::decodeInit</text>
</a>
</g>
</g>
<!-- Node1&#45;&gt;Node56 -->
<g id="edge53" class="edge">
<title>Node1&#45;&gt;Node56</title>
<path fill="none" stroke="midnightblue" d="M84.16,-618C99.63,-618 117.44,-618 133.9,-618"/>
<polygon fill="midnightblue" stroke="midnightblue" points="133.94,-621.5 143.94,-618 133.94,-614.5 133.94,-621.5"/>
</g>
<!-- Node58 -->
<g id="node47" class="node">
<title>Node58</title>
<g id="a_node47"><a xlink:href="classApexi.html#a8434798529c3e79a33445e2ba626d8a2" target="_top" xlink:title=" ">
<polygon fill="white" stroke="black" points="141.5,-570.5 141.5,-589.5 236.5,-589.5 236.5,-570.5 141.5,-570.5"/>
<text text-anchor="middle" x="189" y="-577.5" font-family="Helvetica,sans-Serif" font-size="10.00">Apexi::decodeMap</text>
</a>
</g>
</g>
<!-- Node1&#45;&gt;Node58 -->
<g id="edge54" class="edge">
<title>Node1&#45;&gt;Node58</title>
<path fill="none" stroke="midnightblue" d="M79.59,-608.41C98.47,-603.46 121.69,-597.38 141.79,-592.11"/>
<polygon fill="midnightblue" stroke="midnightblue" points="142.89,-595.44 151.67,-589.52 141.11,-588.67 142.89,-595.44"/>
</g>
<!-- Node59 -->
<g id="node48" class="node">
<title>Node59</title>
<g id="a_node48"><a xlink:href="classApexi.html#a6ce2b40858fc637448d1f6dc27e10a70" target="_top" xlink:title=" ">
<polygon fill="white" stroke="red" points="135.5,-532.5 135.5,-551.5 242.5,-551.5 242.5,-532.5 135.5,-532.5"/>
<text text-anchor="middle" x="189" y="-539.5" font-family="Helvetica,sans-Serif" font-size="10.00">Apexi::decodeSensor</text>
</a>
</g>
</g>
<!-- Node1&#45;&gt;Node59 -->
<g id="edge55" class="edge">
<title>Node1&#45;&gt;Node59</title>
<path fill="none" stroke="midnightblue" d="M53.64,-608.12C67.77,-595.48 94,-573.71 120,-561 124.7,-558.7 129.72,-556.64 134.82,-554.81"/>
<polygon fill="midnightblue" stroke="midnightblue" points="136.28,-558.01 144.68,-551.55 134.09,-551.36 136.28,-558.01"/>
</g>
<!-- Node84 -->
<g id="node49" class="node">
<title>Node84</title>
<g id="a_node49"><a xlink:href="classApexi.html#a45f8db235553ca011083224aec6b3892" target="_top" xlink:title=" ">
<polygon fill="white" stroke="red" points="120,-494.5 120,-513.5 258,-513.5 258,-494.5 120,-494.5"/>
<text text-anchor="middle" x="189" y="-501.5" font-family="Helvetica,sans-Serif" font-size="10.00">Apexi::decodeSensorStrings</text>
</a>
</g>
</g>
<!-- Node1&#45;&gt;Node84 -->
<g id="edge56" class="edge">
<title>Node1&#45;&gt;Node84</title>
<path fill="none" stroke="midnightblue" d="M48.14,-608.26C58.83,-588.95 85.4,-545.72 120,-523 123.16,-520.93 126.54,-519.08 130.05,-517.43"/>
<polygon fill="midnightblue" stroke="midnightblue" points="131.64,-520.56 139.55,-513.51 128.98,-514.08 131.64,-520.56"/>
</g>
<!-- Node109 -->
<g id="node50" class="node">
<title>Node109</title>
<g id="a_node50"><a xlink:href="classApexi.html#af3673b74b8aebe06a2b2f9ed81c23ee4" target="_top" xlink:title=" ">
<polygon fill="white" stroke="red" points="140,-456.5 140,-475.5 238,-475.5 238,-456.5 140,-456.5"/>
<text text-anchor="middle" x="189" y="-463.5" font-family="Helvetica,sans-Serif" font-size="10.00">Apexi::retryconnect</text>
</a>
</g>
</g>
<!-- Node1&#45;&gt;Node109 -->
<g id="edge57" class="edge">
<title>Node1&#45;&gt;Node109</title>
<path fill="none" stroke="midnightblue" d="M45.8,-608.26C53.4,-583.63 76.77,-518.5 120,-485 123.18,-482.54 126.66,-480.39 130.31,-478.53"/>
<polygon fill="midnightblue" stroke="midnightblue" points="131.92,-481.65 139.68,-474.44 129.11,-475.23 131.92,-481.65"/>
</g>
<!-- Node3 -->
<g id="node3" class="node">
<title>Node3</title>
<g id="a_node3"><a xlink:href="classApexi.html#a8a8a56251df881cc9eb49f1f20332fda" target="_top" xlink:title=" ">
<polygon fill="white" stroke="black" points="296.5,-1482.5 296.5,-1501.5 425.5,-1501.5 425.5,-1482.5 296.5,-1482.5"/>
<text text-anchor="middle" x="361" y="-1489.5" font-family="Helvetica,sans-Serif" font-size="10.00">Apexi::handleBytesWritten</text>
</a>
</g>
</g>
<!-- Node2&#45;&gt;Node3 -->
<g id="edge2" class="edge">
<title>Node2&#45;&gt;Node3</title>
<path fill="none" stroke="midnightblue" d="M204.98,-1425.6C224.73,-1437.92 260.88,-1459.35 294,-1473 299.58,-1475.3 305.53,-1477.43 311.49,-1479.37"/>
<polygon fill="midnightblue" stroke="midnightblue" points="310.88,-1482.85 321.47,-1482.46 312.95,-1476.16 310.88,-1482.85"/>
</g>
<!-- Node4 -->
<g id="node4" class="node">
<title>Node4</title>
<g id="a_node4"><a xlink:href="classApexi.html#a6c775f27e878959c047bb9c252064cfe" target="_top" xlink:title=" ">
<polygon fill="white" stroke="red" points="314,-1444.5 314,-1463.5 408,-1463.5 408,-1444.5 314,-1444.5"/>
<text text-anchor="middle" x="361" y="-1451.5" font-family="Helvetica,sans-Serif" font-size="10.00">Apexi::handleError</text>
</a>
</g>
</g>
<!-- Node2&#45;&gt;Node4 -->
<g id="edge3" class="edge">
<title>Node2&#45;&gt;Node4</title>
<path fill="none" stroke="midnightblue" d="M232.9,-1425.59C255.53,-1430.65 283.5,-1436.9 307.43,-1442.25"/>
<polygon fill="midnightblue" stroke="midnightblue" points="306.89,-1445.71 317.41,-1444.48 308.41,-1438.88 306.89,-1445.71"/>
</g>
<!-- Node6 -->
<g id="node5" class="node">
<title>Node6</title>
<g id="a_node5"><a xlink:href="classApexi.html#a9c813630d2b2a70b7e098ae10220103e" target="_top" xlink:title=" ">
<polygon fill="white" stroke="red" points="306.5,-1406.5 306.5,-1425.5 415.5,-1425.5 415.5,-1406.5 306.5,-1406.5"/>
<text text-anchor="middle" x="361" y="-1413.5" font-family="Helvetica,sans-Serif" font-size="10.00">Apexi::handleTimeout</text>
</a>
</g>
</g>
<!-- Node2&#45;&gt;Node6 -->
<g id="edge4" class="edge">
<title>Node2&#45;&gt;Node6</title>
<path fill="none" stroke="midnightblue" d="M247.55,-1416C263.12,-1416 280.06,-1416 295.96,-1416"/>
<polygon fill="midnightblue" stroke="midnightblue" points="296.23,-1419.5 306.23,-1416 296.23,-1412.5 296.23,-1419.5"/>
</g>
<!-- Node10 -->
<g id="node6" class="node">
<title>Node10</title>
<g id="a_node6"><a xlink:href="classApexi.html#abe3bf6800fce8a4c713a08c14474d625" target="_top" xlink:title=" ">
<polygon fill="white" stroke="red" points="310,-1368.5 310,-1387.5 412,-1387.5 412,-1368.5 310,-1368.5"/>
<text text-anchor="middle" x="361" y="-1375.5" font-family="Helvetica,sans-Serif" font-size="10.00">Apexi::readyToRead</text>
</a>
</g>
</g>
<!-- Node2&#45;&gt;Node10 -->
<g id="edge5" class="edge">
<title>Node2&#45;&gt;Node10</title>
<path fill="none" stroke="midnightblue" d="M232.9,-1406.41C255.53,-1401.35 283.5,-1395.1 307.43,-1389.75"/>
<polygon fill="midnightblue" stroke="midnightblue" points="308.41,-1393.12 317.41,-1387.52 306.89,-1386.29 308.41,-1393.12"/>
</g>
<!-- Node15 -->
<g id="node8" class="node">
<title>Node15</title>
<g id="a_node8"><a xlink:href="classDashBoard.html#a21635845a2258c7dbe2a7f2f7ec32345" target="_top" xlink:title=" ">
<polygon fill="white" stroke="black" points="301,-1064.5 301,-1083.5 421,-1083.5 421,-1064.5 301,-1064.5"/>
<text text-anchor="middle" x="361" y="-1071.5" font-family="Helvetica,sans-Serif" font-size="10.00">DashBoard::setBatteryV</text>
</a>
</g>
</g>
<!-- Node14&#45;&gt;Node15 -->
<g id="edge7" class="edge">
<title>Node14&#45;&gt;Node15</title>
<path fill="none" stroke="midnightblue" d="M189.65,-703.72C188.52,-750.12 189.99,-951.01 294,-1055 295.45,-1056.45 297.01,-1057.8 298.65,-1059.04"/>
<polygon fill="midnightblue" stroke="midnightblue" points="297.1,-1062.2 307.46,-1064.45 300.77,-1056.23 297.1,-1062.2"/>
</g>
<!-- Node16 -->
<g id="node9" class="node">
<title>Node16</title>
<g id="a_node9"><a xlink:href="classDashBoard.html#a864f44aaf83510cc38b81e3efc7f1da6" target="_top" xlink:title=" ">
<polygon fill="white" stroke="black" points="297,-228.5 297,-247.5 425,-247.5 425,-228.5 297,-228.5"/>
<text text-anchor="middle" x="361" y="-235.5" font-family="Helvetica,sans-Serif" font-size="10.00">DashBoard::setBoostDuty</text>
</a>
</g>
</g>
<!-- Node14&#45;&gt;Node16 -->
<g id="edge8" class="edge">
<title>Node14&#45;&gt;Node16</title>
<path fill="none" stroke="midnightblue" d="M236.16,-689.19C244.52,-686.27 252.37,-681.79 258,-675 317.5,-603.22 234.78,-329.01 294,-257 294.99,-255.79 296.06,-254.66 297.19,-253.59"/>
<polygon fill="midnightblue" stroke="midnightblue" points="299.44,-256.28 305.41,-247.52 295.29,-250.64 299.44,-256.28"/>
</g>
<!-- Node17 -->
<g id="node10" class="node">
<title>Node17</title>
<g id="a_node10"><a xlink:href="classDashBoard.html#af865e5a3912f8100d831f01333a4fef9" target="_top" xlink:title=" ">
<polygon fill="white" stroke="black" points="303,-190.5 303,-209.5 419,-209.5 419,-190.5 303,-190.5"/>
<text text-anchor="middle" x="361" y="-197.5" font-family="Helvetica,sans-Serif" font-size="10.00">DashBoard::setBoosttp</text>
</a>
</g>
</g>
<!-- Node14&#45;&gt;Node17 -->
<g id="edge9" class="edge">
<title>Node14&#45;&gt;Node17</title>
<path fill="none" stroke="midnightblue" d="M236.2,-689.22C244.56,-686.3 252.39,-681.81 258,-675 322.59,-596.51 229.72,-297.74 294,-219 294.99,-217.79 296.05,-216.65 297.18,-215.58"/>
<polygon fill="midnightblue" stroke="midnightblue" points="299.43,-218.27 305.39,-209.5 295.27,-212.64 299.43,-218.27"/>
</g>
<!-- Node18 -->
<g id="node11" class="node">
<title>Node18</title>
<g id="a_node11"><a xlink:href="classDashBoard.html#ad7eafea8b5a643e82155945495ff2aef" target="_top" xlink:title=" ">
<polygon fill="white" stroke="black" points="300.5,-152.5 300.5,-171.5 421.5,-171.5 421.5,-152.5 300.5,-152.5"/>
<text text-anchor="middle" x="361" y="-159.5" font-family="Helvetica,sans-Serif" font-size="10.00">DashBoard::setBoostwg</text>
</a>
</g>
</g>
<!-- Node14&#45;&gt;Node18 -->
<g id="edge10" class="edge">
<title>Node14&#45;&gt;Node18</title>
<path fill="none" stroke="midnightblue" d="M236.23,-689.25C244.59,-686.32 252.41,-681.83 258,-675 327.68,-589.8 224.65,-266.47 294,-181 294.87,-179.93 295.79,-178.92 296.76,-177.97"/>
<polygon fill="midnightblue" stroke="midnightblue" points="299.21,-180.5 305.05,-171.66 294.98,-174.93 299.21,-180.5"/>
</g>
<!-- Node19 -->
<g id="node12" class="node">
<title>Node19</title>
<g id="a_node12"><a xlink:href="classDashBoard.html#aa34fb9a1bc1ffbf895c0dc507dacfe03" target="_top" xlink:title=" ">
<polygon fill="white" stroke="black" points="307.5,-114.5 307.5,-133.5 414.5,-133.5 414.5,-114.5 307.5,-114.5"/>
<text text-anchor="middle" x="361" y="-121.5" font-family="Helvetica,sans-Serif" font-size="10.00">DashBoard::setDwell</text>
</a>
</g>
</g>
<!-- Node14&#45;&gt;Node19 -->
<g id="edge11" class="edge">
<title>Node14&#45;&gt;Node19</title>
<path fill="none" stroke="midnightblue" d="M236.26,-689.27C244.61,-686.34 252.43,-681.85 258,-675 332.78,-583.08 219.58,-235.21 294,-143 295.46,-141.19 297.08,-139.55 298.83,-138.05"/>
<polygon fill="midnightblue" stroke="midnightblue" points="300.86,-140.91 307.21,-132.43 296.96,-135.1 300.86,-140.91"/>
</g>
<!-- Node20 -->
<g id="node13" class="node">
<title>Node20</title>
<g id="a_node13"><a xlink:href="classDashBoard.html#afa98f53f1555f3bff79f49a6e12b5d9e" target="_top" xlink:title=" ">
<polygon fill="white" stroke="black" points="300.5,-76.5 300.5,-95.5 421.5,-95.5 421.5,-76.5 300.5,-76.5"/>
<text text-anchor="middle" x="361" y="-83.5" font-family="Helvetica,sans-Serif" font-size="10.00">DashBoard::setEngLoad</text>
</a>
</g>
</g>
<!-- Node14&#45;&gt;Node20 -->
<g id="edge12" class="edge">
<title>Node14&#45;&gt;Node20</title>
<path fill="none" stroke="midnightblue" d="M236.28,-689.29C244.64,-686.36 252.45,-681.86 258,-675 337.88,-576.37 214.51,-203.94 294,-105 294.86,-103.93 295.78,-102.91 296.75,-101.96"/>
<polygon fill="midnightblue" stroke="midnightblue" points="299.2,-104.49 305.02,-95.63 294.95,-98.93 299.2,-104.49"/>
</g>
<!-- Node21 -->
<g id="node14" class="node">
<title>Node21</title>
<g id="a_node14"><a xlink:href="classDashBoard.html#aebb7249e22bce5067a7d473e6ae0085c" target="_top" xlink:title=" ">
<polygon fill="white" stroke="black" points="307.5,-988.5 307.5,-1007.5 414.5,-1007.5 414.5,-988.5 307.5,-988.5"/>
<text text-anchor="middle" x="361" y="-995.5" font-family="Helvetica,sans-Serif" font-size="10.00">DashBoard::setFuelc</text>
</a>
</g>
</g>
<!-- Node14&#45;&gt;Node21 -->
<g id="edge13" class="edge">
<title>Node14&#45;&gt;Node21</title>
<path fill="none" stroke="midnightblue" d="M190.49,-703.53C193.08,-743.49 208.49,-899.25 294,-979 295.7,-980.59 297.52,-982.04 299.44,-983.37"/>
<polygon fill="midnightblue" stroke="midnightblue" points="297.96,-986.56 308.38,-988.48 301.44,-980.48 297.96,-986.56"/>
</g>
<!-- Node22 -->
<g id="node15" class="node">
<title>Node22</title>
<g id="a_node15"><a xlink:href="classDashBoard.html#ad7fb1721d5cd8770078da5e7d5d6b655" target="_top" xlink:title=" ">
<polygon fill="white" stroke="black" points="299.5,-950.5 299.5,-969.5 422.5,-969.5 422.5,-950.5 299.5,-950.5"/>
<text text-anchor="middle" x="361" y="-957.5" font-family="Helvetica,sans-Serif" font-size="10.00">DashBoard::setFueltemp</text>
</a>
</g>
</g>
<!-- Node14&#45;&gt;Node22 -->
<g id="edge14" class="edge">
<title>Node14&#45;&gt;Node22</title>
<path fill="none" stroke="midnightblue" d="M191.12,-703.75C195.87,-740.68 217.82,-873.33 294,-941 295.77,-942.58 297.67,-944.02 299.66,-945.35"/>
<polygon fill="midnightblue" stroke="midnightblue" points="298.45,-948.68 308.9,-950.43 301.82,-942.54 298.45,-948.68"/>
</g>
<!-- Node23 -->
<g id="node16" class="node">
<title>Node23</title>
<g id="a_node16"><a xlink:href="classDashBoard.html#ad46278eecba8d5643f84cea9eafa1bce" target="_top" xlink:title=" ">
<polygon fill="white" stroke="black" points="313,-912.5 313,-931.5 409,-931.5 409,-912.5 313,-912.5"/>
<text text-anchor="middle" x="361" y="-919.5" font-family="Helvetica,sans-Serif" font-size="10.00">DashBoard::setIgn</text>
</a>
</g>
</g>
<!-- Node14&#45;&gt;Node23 -->
<g id="edge15" class="edge">
<title>Node14&#45;&gt;Node23</title>
<path fill="none" stroke="midnightblue" d="M191.9,-703.61C198.94,-736.7 226.75,-846.96 294,-903 296.92,-905.43 300.14,-907.55 303.53,-909.4"/>
<polygon fill="midnightblue" stroke="midnightblue" points="302.3,-912.69 312.84,-913.7 305.22,-906.33 302.3,-912.69"/>
</g>
<!-- Node24 -->
<g id="node17" class="node">
<title>Node24</title>
<g id="a_node17"><a xlink:href="classDashBoard.html#a6f4952eb15d3b4c0c2eaacf37fb2c96b" target="_top" xlink:title=" ">
<polygon fill="white" stroke="black" points="308,-874.5 308,-893.5 414,-893.5 414,-874.5 308,-874.5"/>
<text text-anchor="middle" x="361" y="-881.5" font-family="Helvetica,sans-Serif" font-size="10.00">DashBoard::setinjms</text>
</a>
</g>
</g>
<!-- Node14&#45;&gt;Node24 -->
<g id="edge16" class="edge">
<title>Node14&#45;&gt;Node24</title>
<path fill="none" stroke="midnightblue" d="M193.11,-703.87C202.87,-733.19 235.74,-820.49 294,-865 296.48,-866.89 299.14,-868.6 301.92,-870.13"/>
<polygon fill="midnightblue" stroke="midnightblue" points="300.59,-873.38 311.13,-874.48 303.58,-867.05 300.59,-873.38"/>
</g>
<!-- Node25 -->
<g id="node18" class="node">
<title>Node25</title>
<g id="a_node18"><a xlink:href="classDashBoard.html#a31caf833ec71b5a8135fd39859f4c2f5" target="_top" xlink:title=" ">
<polygon fill="white" stroke="black" points="294,-836.5 294,-855.5 428,-855.5 428,-836.5 294,-836.5"/>
<text text-anchor="middle" x="361" y="-843.5" font-family="Helvetica,sans-Serif" font-size="10.00">DashBoard::setIntakepress</text>
</a>
</g>
</g>
<!-- Node14&#45;&gt;Node25 -->
<g id="edge17" class="edge">
<title>Node14&#45;&gt;Node25</title>
<path fill="none" stroke="midnightblue" d="M194.81,-703.73C207.47,-728.32 244.19,-793.38 294,-827 296.96,-828.99 300.12,-830.78 303.41,-832.39"/>
<polygon fill="midnightblue" stroke="midnightblue" points="302.34,-835.74 312.92,-836.43 305.08,-829.29 302.34,-835.74"/>
</g>
<!-- Node26 -->
<g id="node19" class="node">
<title>Node26</title>
<g id="a_node19"><a xlink:href="classDashBoard.html#ae4d194cbb50c7c36bd2d0b2be6b21e6d" target="_top" xlink:title=" ">
<polygon fill="white" stroke="black" points="295.5,-1026.5 295.5,-1045.5 426.5,-1045.5 426.5,-1026.5 295.5,-1026.5"/>
<text text-anchor="middle" x="361" y="-1033.5" font-family="Helvetica,sans-Serif" font-size="10.00">DashBoard::setIntaketemp</text>
</a>
</g>
</g>
<!-- Node14&#45;&gt;Node26 -->
<g id="edge18" class="edge">
<title>Node14&#45;&gt;Node26</title>
<path fill="none" stroke="midnightblue" d="M190.03,-703.57C190.69,-746.74 199.24,-925.16 294,-1017 295.63,-1018.58 297.39,-1020.04 299.25,-1021.37"/>
<polygon fill="midnightblue" stroke="midnightblue" points="297.51,-1024.41 307.9,-1026.49 301.07,-1018.39 297.51,-1024.41"/>
</g>
<!-- Node27 -->
<g id="node20" class="node">
<title>Node27</title>
<g id="a_node20"><a xlink:href="classDashBoard.html#add4eafa05b50837f81332bd06b76f36d" target="_top" xlink:title=" ">
<polygon fill="white" stroke="black" points="301.5,-798.5 301.5,-817.5 420.5,-817.5 420.5,-798.5 301.5,-798.5"/>
<text text-anchor="middle" x="361" y="-805.5" font-family="Helvetica,sans-Serif" font-size="10.00">DashBoard::setIscvduty</text>
</a>
</g>
</g>
<!-- Node14&#45;&gt;Node27 -->
<g id="edge19" class="edge">
<title>Node14&#45;&gt;Node27</title>
<path fill="none" stroke="midnightblue" d="M197.81,-703.64C213.83,-722.78 252.39,-765.71 294,-789 297.97,-791.22 302.22,-793.2 306.59,-794.97"/>
<polygon fill="midnightblue" stroke="midnightblue" points="305.65,-798.35 316.25,-798.49 308.05,-791.78 305.65,-798.35"/>
</g>
<!-- Node28 -->
<g id="node21" class="node">
<title>Node28</title>
<g id="a_node21"><a xlink:href="classDashBoard.html#acf7ff86dcbb34ee7661c1904191cf7a9" target="_top" xlink:title=" ">
<polygon fill="white" stroke="black" points="306,-1292.5 306,-1311.5 416,-1311.5 416,-1292.5 306,-1292.5"/>
<text text-anchor="middle" x="361" y="-1299.5" font-family="Helvetica,sans-Serif" font-size="10.00">DashBoard::setKnock</text>
</a>
</g>
</g>
<!-- Node14&#45;&gt;Node28 -->
<g id="edge20" class="edge">
<title>Node14&#45;&gt;Node28</title>
<path fill="none" stroke="midnightblue" d="M191.43,-703.81C202.41,-778.88 273.51,-1260.23 294,-1283 295.18,-1284.31 296.44,-1285.53 297.77,-1286.67"/>
<polygon fill="midnightblue" stroke="midnightblue" points="295.85,-1289.6 306.08,-1292.34 299.8,-1283.82 295.85,-1289.6"/>
</g>
<!-- Node29 -->
<g id="node22" class="node">
<title>Node29</title>
<g id="a_node22"><a xlink:href="classDashBoard.html#a4e90fc531b31a84fa122ade9bdc2ecf1" target="_top" xlink:title=" ">
<polygon fill="white" stroke="black" points="296,-1254.5 296,-1273.5 426,-1273.5 426,-1254.5 296,-1254.5"/>
<text text-anchor="middle" x="361" y="-1261.5" font-family="Helvetica,sans-Serif" font-size="10.00">DashBoard::setLeadingign</text>
</a>
</g>
</g>
<!-- Node14&#45;&gt;Node29 -->
<g id="edge21" class="edge">
<title>Node14&#45;&gt;Node29</title>
<path fill="none" stroke="midnightblue" d="M191.21,-703.66C200.05,-773.75 255.5,-1202.71 294,-1245 295.21,-1246.33 296.52,-1247.58 297.89,-1248.73"/>
<polygon fill="midnightblue" stroke="midnightblue" points="296.19,-1251.81 306.45,-1254.47 300.09,-1246 296.19,-1251.81"/>
</g>
<!-- Node30 -->
<g id="node23" class="node">
<title>Node30</title>
<g id="a_node23"><a xlink:href="classDashBoard.html#a19ed911149392a939ade24ef44180dec" target="_top" xlink:title=" ">
<polygon fill="white" stroke="black" points="303,-760.5 303,-779.5 419,-779.5 419,-760.5 303,-760.5"/>
<text text-anchor="middle" x="361" y="-767.5" font-family="Helvetica,sans-Serif" font-size="10.00">DashBoard::setMAF1V</text>
</a>
</g>
</g>
<!-- Node14&#45;&gt;Node30 -->
<g id="edge22" class="edge">
<title>Node14&#45;&gt;Node30</title>
<path fill="none" stroke="midnightblue" d="M204.98,-703.6C224.73,-715.92 260.88,-737.35 294,-751 299.58,-753.3 305.53,-755.43 311.49,-757.37"/>
<polygon fill="midnightblue" stroke="midnightblue" points="310.88,-760.85 321.47,-760.46 312.95,-754.16 310.88,-760.85"/>
</g>
<!-- Node31 -->
<g id="node24" class="node">
<title>Node31</title>
<g id="a_node24"><a xlink:href="classDashBoard.html#a584d76fb3dc3faa498611cdc0a7d572a" target="_top" xlink:title=" ">
<polygon fill="white" stroke="black" points="303,-722.5 303,-741.5 419,-741.5 419,-722.5 303,-722.5"/>
<text text-anchor="middle" x="361" y="-729.5" font-family="Helvetica,sans-Serif" font-size="10.00">DashBoard::setMAF2V</text>
</a>
</g>
</g>
<!-- Node14&#45;&gt;Node31 -->
<g id="edge23" class="edge">
<title>Node14&#45;&gt;Node31</title>
<path fill="none" stroke="midnightblue" d="M232.9,-703.59C255.53,-708.65 283.5,-714.9 307.43,-720.25"/>
<polygon fill="midnightblue" stroke="midnightblue" points="306.89,-723.71 317.41,-722.48 308.41,-716.88 306.89,-723.71"/>
</g>
<!-- Node32 -->
<g id="node25" class="node">
<title>Node32</title>
<g id="a_node25"><a xlink:href="classDashBoard.html#a0cf0a1970e9c2c02886e8587966f6abc" target="_top" xlink:title=" ">
<polygon fill="white" stroke="black" points="294,-684.5 294,-703.5 428,-703.5 428,-684.5 294,-684.5"/>
<text text-anchor="middle" x="361" y="-691.5" font-family="Helvetica,sans-Serif" font-size="10.00">DashBoard::setMAFactivity</text>
</a>
</g>
</g>
<!-- Node14&#45;&gt;Node32 -->
<g id="edge24" class="edge">
<title>Node14&#45;&gt;Node32</title>
<path fill="none" stroke="midnightblue" d="M236,-694C250.74,-694 267.48,-694 283.78,-694"/>
<polygon fill="midnightblue" stroke="midnightblue" points="283.85,-697.5 293.85,-694 283.85,-690.5 283.85,-697.5"/>
</g>
<!-- Node33 -->
<g id="node26" class="node">
<title>Node33</title>
<g id="a_node26"><a xlink:href="classDashBoard.html#a5480aa312813d238574e103a52bef81f" target="_top" xlink:title=" ">
<polygon fill="white" stroke="black" points="308,-646.5 308,-665.5 414,-665.5 414,-646.5 308,-646.5"/>
<text text-anchor="middle" x="361" y="-653.5" font-family="Helvetica,sans-Serif" font-size="10.00">DashBoard::setMoilp</text>
</a>
</g>
</g>
<!-- Node14&#45;&gt;Node33 -->
<g id="edge25" class="edge">
<title>Node14&#45;&gt;Node33</title>
<path fill="none" stroke="midnightblue" d="M232.9,-684.41C255.53,-679.35 283.5,-673.1 307.43,-667.75"/>
<polygon fill="midnightblue" stroke="midnightblue" points="308.41,-671.12 317.41,-665.52 306.89,-664.29 308.41,-671.12"/>
</g>
<!-- Node34 -->
<g id="node27" class="node">
<title>Node34</title>
<g id="a_node27"><a xlink:href="classDashBoard.html#a4ddbc9f8b9001cf29ead004af11e972d" target="_top" xlink:title=" ">
<polygon fill="white" stroke="black" points="312,-608.5 312,-627.5 410,-627.5 410,-608.5 312,-608.5"/>
<text text-anchor="middle" x="361" y="-615.5" font-family="Helvetica,sans-Serif" font-size="10.00">DashBoard::setna1</text>
</a>
</g>
</g>
<!-- Node14&#45;&gt;Node34 -->
<g id="edge26" class="edge">
<title>Node14&#45;&gt;Node34</title>
<path fill="none" stroke="midnightblue" d="M236.04,-684.8C243.67,-682.26 251.28,-679.05 258,-675 277.92,-662.99 274.12,-649.09 294,-637 297.55,-634.84 301.36,-632.91 305.29,-631.2"/>
<polygon fill="midnightblue" stroke="midnightblue" points="306.57,-634.46 314.62,-627.58 304.03,-627.94 306.57,-634.46"/>
</g>
<!-- Node35 -->
<g id="node28" class="node">
<title>Node35</title>
<g id="a_node28"><a xlink:href="classDashBoard.html#a3992060dbefe28848e9e2a0163a7df21" target="_top" xlink:title=" ">
<polygon fill="white" stroke="black" points="312,-570.5 312,-589.5 410,-589.5 410,-570.5 312,-570.5"/>
<text text-anchor="middle" x="361" y="-577.5" font-family="Helvetica,sans-Serif" font-size="10.00">DashBoard::setna2</text>
</a>
</g>
</g>
<!-- Node14&#45;&gt;Node35 -->
<g id="edge27" class="edge">
<title>Node14&#45;&gt;Node35</title>
<path fill="none" stroke="midnightblue" d="M236.2,-686.88C244.07,-684.12 251.72,-680.29 258,-675 286.58,-650.91 265.52,-623.2 294,-599 296.67,-596.73 299.6,-594.73 302.69,-592.97"/>
<polygon fill="midnightblue" stroke="midnightblue" points="304.25,-596.1 311.75,-588.62 301.22,-589.79 304.25,-596.1"/>
</g>
<!-- Node36 -->
<g id="node29" class="node">
<title>Node36</title>
<g id="a_node29"><a xlink:href="classDashBoard.html#a36e46c92b433846ab5932b5622e69905" target="_top" xlink:title=" ">
<polygon fill="white" stroke="black" points="305.5,-532.5 305.5,-551.5 416.5,-551.5 416.5,-532.5 305.5,-532.5"/>
<text text-anchor="middle" x="361" y="-539.5" font-family="Helvetica,sans-Serif" font-size="10.00">DashBoard::setO2volt</text>
</a>
</g>
</g>
<!-- Node14&#45;&gt;Node36 -->
<g id="edge28" class="edge">
<title>Node14&#45;&gt;Node36</title>
<path fill="none" stroke="midnightblue" d="M236.11,-687.81C244.18,-684.97 251.92,-680.88 258,-675 296.19,-638.06 255.95,-598.09 294,-561 295.47,-559.56 297.05,-558.24 298.7,-557.01"/>
<polygon fill="midnightblue" stroke="midnightblue" points="300.81,-559.82 307.56,-551.65 297.19,-553.83 300.81,-559.82"/>
</g>
<!-- Node37 -->
<g id="node30" class="node">
<title>Node37</title>
<g id="a_node30"><a xlink:href="classDashBoard.html#a1ff480e57034d577177325f86cba2108" target="_top" xlink:title=" ">
<polygon fill="white" stroke="black" points="300,-494.5 300,-513.5 422,-513.5 422,-494.5 300,-494.5"/>
<text text-anchor="middle" x="361" y="-501.5" font-family="Helvetica,sans-Serif" font-size="10.00">DashBoard::setO2volt_2</text>
</a>
</g>
</g>
<!-- Node14&#45;&gt;Node37 -->
<g id="edge29" class="edge">
<title>Node14&#45;&gt;Node37</title>
<path fill="none" stroke="midnightblue" d="M236.11,-688.28C244.28,-685.41 252.05,-681.19 258,-675 306.1,-624.94 246.1,-573.25 294,-523 295.39,-521.54 296.88,-520.2 298.46,-518.95"/>
<polygon fill="midnightblue" stroke="midnightblue" points="300.4,-521.86 306.95,-513.53 296.63,-515.96 300.4,-521.86"/>
</g>
<!-- Node38 -->
<g id="node31" class="node">
<title>Node38</title>
<g id="a_node31"><a xlink:href="classDashBoard.html#ab617d388ec0714d60bf68f19b189d86b" target="_top" xlink:title=" ">
<polygon fill="white" stroke="black" points="312,-456.5 312,-475.5 410,-475.5 410,-456.5 312,-456.5"/>
<text text-anchor="middle" x="361" y="-463.5" font-family="Helvetica,sans-Serif" font-size="10.00">DashBoard::setpim</text>
</a>
</g>
</g>
<!-- Node14&#45;&gt;Node38 -->
<g id="edge30" class="edge">
<title>Node14&#45;&gt;Node38</title>
<path fill="none" stroke="midnightblue" d="M236.34,-688.49C244.48,-685.6 252.2,-681.32 258,-675 316.13,-611.69 236.12,-548.53 294,-485 296.6,-482.14 299.6,-479.71 302.86,-477.63"/>
<polygon fill="midnightblue" stroke="midnightblue" points="304.7,-480.62 311.98,-472.92 301.49,-474.39 304.7,-480.62"/>
</g>
<!-- Node39 -->
<g id="node32" class="node">
<title>Node39</title>
<g id="a_node32"><a xlink:href="classDashBoard.html#a8b4be03b152c61f0c3086b92b2ad47d9" target="_top" xlink:title=" ">
<polygon fill="white" stroke="black" points="297,-418.5 297,-437.5 425,-437.5 425,-418.5 297,-418.5"/>
<text text-anchor="middle" x="361" y="-425.5" font-family="Helvetica,sans-Serif" font-size="10.00">DashBoard::setPressureV</text>
</a>
</g>
</g>
<!-- Node14&#45;&gt;Node39 -->
<g id="edge31" class="edge">
<title>Node14&#45;&gt;Node39</title>
<path fill="none" stroke="midnightblue" d="M236.14,-688.76C244.4,-685.86 252.21,-681.5 258,-675 326.22,-598.38 226.08,-523.89 294,-447 295.17,-445.68 296.42,-444.45 297.74,-443.3"/>
<polygon fill="midnightblue" stroke="midnightblue" points="299.77,-446.15 306.01,-437.59 295.79,-440.39 299.77,-446.15"/>
</g>
<!-- Node40 -->
<g id="node33" class="node">
<title>Node40</title>
<g id="a_node33"><a xlink:href="classDashBoard.html#ae10ebf05ada076cdf9034a470dc0138e" target="_top" xlink:title=" ">
<polygon fill="white" stroke="black" points="297,-380.5 297,-399.5 425,-399.5 425,-380.5 297,-380.5"/>
<text text-anchor="middle" x="361" y="-387.5" font-family="Helvetica,sans-Serif" font-size="10.00">DashBoard::setPrimaryinp</text>
</a>
</g>
</g>
<!-- Node14&#45;&gt;Node40 -->
<g id="edge32" class="edge">
<title>Node14&#45;&gt;Node40</title>
<path fill="none" stroke="midnightblue" d="M236.26,-688.86C244.51,-685.95 252.28,-681.56 258,-675 336.34,-585.03 216.01,-499.28 294,-409 295.15,-407.67 296.39,-406.42 297.7,-405.26"/>
<polygon fill="midnightblue" stroke="midnightblue" points="299.74,-408.12 305.92,-399.51 295.72,-402.38 299.74,-408.12"/>
</g>
<!-- Node41 -->
<g id="node34" class="node">
<title>Node41</title>
<g id="a_node34"><a xlink:href="classDashBoard.html#ab8a26c5ebc87f76cc237e46d8e014403" target="_top" xlink:title=" ">
<polygon fill="white" stroke="red" points="311.5,-1216.5 311.5,-1235.5 410.5,-1235.5 410.5,-1216.5 311.5,-1216.5"/>
<text text-anchor="middle" x="361" y="-1223.5" font-family="Helvetica,sans-Serif" font-size="10.00">DashBoard::setrpm</text>
</a>
</g>
</g>
<!-- Node14&#45;&gt;Node41 -->
<g id="edge33" class="edge">
<title>Node14&#45;&gt;Node41</title>
<path fill="none" stroke="midnightblue" d="M190.63,-703.79C194.95,-768.06 222.2,-1129.2 294,-1207 296.46,-1209.67 299.27,-1211.97 302.3,-1213.95"/>
<polygon fill="midnightblue" stroke="midnightblue" points="300.9,-1217.17 311.38,-1218.75 304.17,-1210.98 300.9,-1217.17"/>
</g>
<!-- Node43 -->
<g id="node35" class="node">
<title>Node43</title>
<g id="a_node35"><a xlink:href="classDashBoard.html#a68ced326141cb80742fe151c64e33c4f" target="_top" xlink:title=" ">
<polygon fill="white" stroke="black" points="294.5,-342.5 294.5,-361.5 427.5,-361.5 427.5,-342.5 294.5,-342.5"/>
<text text-anchor="middle" x="361" y="-349.5" font-family="Helvetica,sans-Serif" font-size="10.00">DashBoard::setSecinjpulse</text>
</a>
</g>
</g>
<!-- Node14&#45;&gt;Node43 -->
<g id="edge34" class="edge">
<title>Node14&#45;&gt;Node43</title>
<path fill="none" stroke="midnightblue" d="M236.34,-688.93C244.59,-686.02 252.34,-681.61 258,-675 346.49,-571.65 205.92,-474.69 294,-371 295.01,-369.81 296.1,-368.69 297.24,-367.63"/>
<polygon fill="midnightblue" stroke="midnightblue" points="299.49,-370.33 305.54,-361.63 295.39,-364.65 299.49,-370.33"/>
</g>
<!-- Node44 -->
<g id="node36" class="node">
<title>Node44</title>
<g id="a_node36"><a xlink:href="classDashBoard.html#a77b4f7cb9851db07fcc88986469df3d8" target="_top" xlink:title=" ">
<polygon fill="white" stroke="red" points="306,-1178.5 306,-1197.5 416,-1197.5 416,-1178.5 306,-1178.5"/>
<text text-anchor="middle" x="361" y="-1185.5" font-family="Helvetica,sans-Serif" font-size="10.00">DashBoard::setSpeed</text>
</a>
</g>
</g>
<!-- Node14&#45;&gt;Node44 -->
<g id="edge35" class="edge">
<title>Node14&#45;&gt;Node44</title>
<path fill="none" stroke="midnightblue" d="M190.81,-703.86C196.03,-765.49 227.03,-1097.55 294,-1169 295.23,-1170.32 296.55,-1171.54 297.94,-1172.69"/>
<polygon fill="midnightblue" stroke="midnightblue" points="296.28,-1175.79 306.56,-1178.37 300.14,-1169.94 296.28,-1175.79"/>
</g>
<!-- Node46 -->
<g id="node37" class="node">
<title>Node46</title>
<g id="a_node37"><a xlink:href="classDashBoard.html#ac568882c62f706105825eea0140a1d28" target="_top" xlink:title=" ">
<polygon fill="white" stroke="black" points="300,-304.5 300,-323.5 422,-323.5 422,-304.5 300,-304.5"/>
<text text-anchor="middle" x="361" y="-311.5" font-family="Helvetica,sans-Serif" font-size="10.00">DashBoard::setThrottleV</text>
</a>
</g>
</g>
<!-- Node14&#45;&gt;Node46 -->
<g id="edge36" class="edge">
<title>Node14&#45;&gt;Node46</title>
<path fill="none" stroke="midnightblue" d="M236.06,-689.11C244.43,-686.19 252.3,-681.74 258,-675 356.65,-558.26 195.81,-450.13 294,-333 295.01,-331.8 296.08,-330.67 297.22,-329.62"/>
<polygon fill="midnightblue" stroke="midnightblue" points="299.47,-332.31 305.49,-323.59 295.35,-326.65 299.47,-332.31"/>
</g>
<!-- Node47 -->
<g id="node38" class="node">
<title>Node47</title>
<g id="a_node38"><a xlink:href="classDashBoard.html#a75b10e663b009eb4ae77d10762280ca4" target="_top" xlink:title=" ">
<polygon fill="white" stroke="black" points="310,-266.5 310,-285.5 412,-285.5 412,-266.5 310,-266.5"/>
<text text-anchor="middle" x="361" y="-273.5" font-family="Helvetica,sans-Serif" font-size="10.00">DashBoard::setTPS</text>
</a>
</g>
</g>
<!-- Node14&#45;&gt;Node47 -->
<g id="edge37" class="edge">
<title>Node14&#45;&gt;Node47</title>
<path fill="none" stroke="midnightblue" d="M236.12,-689.16C244.48,-686.24 252.34,-681.77 258,-675 312.41,-609.93 239.85,-360.29 294,-295 296,-292.59 298.28,-290.48 300.77,-288.62"/>
<polygon fill="midnightblue" stroke="midnightblue" points="303.05,-291.34 309.9,-283.26 299.5,-285.3 303.05,-291.34"/>
</g>
<!-- Node48 -->
<g id="node39" class="node">
<title>Node48</title>
<g id="a_node39"><a xlink:href="classDashBoard.html#af72024007c435fdc3be14eb9c8198525" target="_top" xlink:title=" ">
<polygon fill="white" stroke="black" points="297.5,-1140.5 297.5,-1159.5 424.5,-1159.5 424.5,-1140.5 297.5,-1140.5"/>
<text text-anchor="middle" x="361" y="-1147.5" font-family="Helvetica,sans-Serif" font-size="10.00">DashBoard::setTrailingign</text>
</a>
</g>
</g>
<!-- Node14&#45;&gt;Node48 -->
<g id="edge38" class="edge">
<title>Node14&#45;&gt;Node48</title>
<path fill="none" stroke="midnightblue" d="M191,-703.82C197.17,-762.46 231.81,-1065.84 294,-1131 295.39,-1132.46 296.88,-1133.8 298.46,-1135.05"/>
<polygon fill="midnightblue" stroke="midnightblue" points="296.64,-1138.04 306.95,-1140.47 300.4,-1132.14 296.64,-1138.04"/>
</g>
<!-- Node49 -->
<g id="node40" class="node">
<title>Node49</title>
<g id="a_node40"><a xlink:href="classDashBoard.html#aa4bc217dc1fe66ba8895284d24b92ee4" target="_top" xlink:title=" ">
<polygon fill="white" stroke="black" points="296,-1102.5 296,-1121.5 426,-1121.5 426,-1102.5 296,-1102.5"/>
<text text-anchor="middle" x="361" y="-1109.5" font-family="Helvetica,sans-Serif" font-size="10.00">DashBoard::setWatertemp</text>
</a>
</g>
</g>
<!-- Node14&#45;&gt;Node49 -->
<g id="edge39" class="edge">
<title>Node14&#45;&gt;Node49</title>
<path fill="none" stroke="midnightblue" d="M191.22,-703.69C198.38,-758.96 236.53,-1034.06 294,-1093 295.4,-1094.44 296.91,-1095.77 298.5,-1097.01"/>
<polygon fill="midnightblue" stroke="midnightblue" points="296.71,-1100.02 307.03,-1102.38 300.44,-1094.09 296.71,-1100.02"/>
</g>
<!-- Node51 -->
<g id="node42" class="node">
<title>Node51</title>
<g id="a_node42"><a xlink:href="classDashBoard.html#a0f2f639b3c4a600bdad0aa9d04c605f9" target="_top" xlink:title=" ">
<polygon fill="white" stroke="black" points="300.5,-38.5 300.5,-57.5 421.5,-57.5 421.5,-38.5 300.5,-38.5"/>
<text text-anchor="middle" x="361" y="-45.5" font-family="Helvetica,sans-Serif" font-size="10.00">DashBoard::setauxcalc1</text>
</a>
</g>
</g>
<!-- Node50&#45;&gt;Node51 -->
<g id="edge41" class="edge">
<title>Node50&#45;&gt;Node51</title>
<path fill="none" stroke="midnightblue" d="M235.58,-651.53C244.2,-648.61 252.29,-644.05 258,-637 337.88,-538.37 214.51,-165.94 294,-67 294.86,-65.93 295.78,-64.91 296.75,-63.96"/>
<polygon fill="midnightblue" stroke="midnightblue" points="299.2,-66.49 305.02,-57.63 294.95,-60.93 299.2,-66.49"/>
</g>
<!-- Node52 -->
<g id="node43" class="node">
<title>Node52</title>
<g id="a_node43"><a xlink:href="classDashBoard.html#a861aa31bef07dcf75151842ac6690067" target="_top" xlink:title=" ">
<polygon fill="white" stroke="black" points="300.5,-0.5 300.5,-19.5 421.5,-19.5 421.5,-0.5 300.5,-0.5"/>
<text text-anchor="middle" x="361" y="-7.5" font-family="Helvetica,sans-Serif" font-size="10.00">DashBoard::setauxcalc2</text>
</a>
</g>
</g>
<!-- Node50&#45;&gt;Node52 -->
<g id="edge42" class="edge">
<title>Node50&#45;&gt;Node52</title>
<path fill="none" stroke="midnightblue" d="M235.6,-651.55C244.22,-648.63 252.31,-644.06 258,-637 342.97,-531.65 209.44,-134.68 294,-29 294.86,-27.93 295.77,-26.91 296.74,-25.95"/>
<polygon fill="midnightblue" stroke="midnightblue" points="299.19,-28.48 305,-19.62 294.93,-22.92 299.19,-28.48"/>
</g>
<!-- Node53&#45;&gt;Node15 -->
<g id="edge44" class="edge">
<title>Node53&#45;&gt;Node15</title>
<path fill="none" stroke="midnightblue" d="M200.41,-1159.42C218.26,-1143.47 256.45,-1111.4 294,-1093 298.63,-1090.73 303.58,-1088.68 308.62,-1086.85"/>
<polygon fill="midnightblue" stroke="midnightblue" points="309.96,-1090.09 318.32,-1083.59 307.73,-1083.46 309.96,-1090.09"/>
</g>
<!-- Node53&#45;&gt;Node26 -->
<g id="edge46" class="edge">
<title>Node53&#45;&gt;Node26</title>
<path fill="none" stroke="midnightblue" d="M196,-1159.41C210.23,-1137.49 248.26,-1083.41 294,-1055 297.38,-1052.9 301,-1051.03 304.74,-1049.35"/>
<polygon fill="midnightblue" stroke="midnightblue" points="306.21,-1052.54 314.21,-1045.6 303.63,-1046.03 306.21,-1052.54"/>
</g>
<!-- Node53&#45;&gt;Node28 -->
<g id="edge47" class="edge">
<title>Node53&#45;&gt;Node28</title>
<path fill="none" stroke="midnightblue" d="M196,-1178.59C210.23,-1200.51 248.26,-1254.59 294,-1283 297.38,-1285.1 301,-1286.97 304.74,-1288.65"/>
<polygon fill="midnightblue" stroke="midnightblue" points="303.63,-1291.97 314.21,-1292.4 306.21,-1285.46 303.63,-1291.97"/>
</g>
<!-- Node53&#45;&gt;Node29 -->
<g id="edge48" class="edge">
<title>Node53&#45;&gt;Node29</title>
<path fill="none" stroke="midnightblue" d="M200.41,-1178.58C218.26,-1194.53 256.45,-1226.6 294,-1245 298.63,-1247.27 303.58,-1249.32 308.62,-1251.15"/>
<polygon fill="midnightblue" stroke="midnightblue" points="307.73,-1254.54 318.32,-1254.41 309.96,-1247.91 307.73,-1254.54"/>
</g>
<!-- Node53&#45;&gt;Node41 -->
<g id="edge49" class="edge">
<title>Node53&#45;&gt;Node41</title>
<path fill="none" stroke="midnightblue" d="M214.63,-1178.55C235.59,-1186.55 266.59,-1198.06 294,-1207 300.94,-1209.26 308.33,-1211.53 315.56,-1213.67"/>
<polygon fill="midnightblue" stroke="midnightblue" points="314.69,-1217.06 325.26,-1216.49 316.64,-1210.34 314.69,-1217.06"/>
</g>
<!-- Node53&#45;&gt;Node44 -->
<g id="edge50" class="edge">
<title>Node53&#45;&gt;Node44</title>
<path fill="none" stroke="midnightblue" d="M239.63,-1174.55C257.16,-1176.51 277.13,-1178.74 295.7,-1180.81"/>
<polygon fill="midnightblue" stroke="midnightblue" points="295.52,-1184.32 305.85,-1181.95 296.3,-1177.36 295.52,-1184.32"/>
</g>
<!-- Node53&#45;&gt;Node48 -->
<g id="edge51" class="edge">
<title>Node53&#45;&gt;Node48</title>
<path fill="none" stroke="midnightblue" d="M239.63,-1163.45C254.42,-1161.8 270.95,-1159.95 286.91,-1158.17"/>
<polygon fill="midnightblue" stroke="midnightblue" points="287.75,-1161.6 297.29,-1157.01 286.97,-1154.64 287.75,-1161.6"/>
</g>
<!-- Node53&#45;&gt;Node49 -->
<g id="edge52" class="edge">
<title>Node53&#45;&gt;Node49</title>
<path fill="none" stroke="midnightblue" d="M214.63,-1159.45C235.59,-1151.45 266.59,-1139.94 294,-1131 300.94,-1128.74 308.33,-1126.47 315.56,-1124.33"/>
<polygon fill="midnightblue" stroke="midnightblue" points="316.64,-1127.66 325.26,-1121.51 314.69,-1120.94 316.64,-1127.66"/>
</g>
<!-- Node54 -->
<g id="node45" class="node">
<title>Node54</title>
<g id="a_node45"><a xlink:href="classDashBoard.html#a8c621ed96a581e4ac022cc02dd89eed2" target="_top" xlink:title=" ">
<polygon fill="white" stroke="black" points="297,-1330.5 297,-1349.5 425,-1349.5 425,-1330.5 297,-1330.5"/>
<text text-anchor="middle" x="361" y="-1337.5" font-family="Helvetica,sans-Serif" font-size="10.00">DashBoard::setBoostPres</text>
</a>
</g>
</g>
<!-- Node53&#45;&gt;Node54 -->
<g id="edge45" class="edge">
<title>Node53&#45;&gt;Node54</title>
<path fill="none" stroke="midnightblue" d="M193.75,-1178.53C204.79,-1205.32 239.83,-1281.87 294,-1321 296.71,-1322.95 299.61,-1324.71 302.64,-1326.28"/>
<polygon fill="midnightblue" stroke="midnightblue" points="301.45,-1329.59 312,-1330.49 304.31,-1323.2 301.45,-1329.59"/>
</g>
</g>
</svg>
        <g id="navigator" transform="translate(0 0)" fill="#404254">
                <rect fill="#f2f5e9" fill-opacity="0.5" stroke="#606060" stroke-width=".5" x="0" y="0" width="60" height="60"/>
                <use id="zoomplus" xlink:href="#zoomPlus" x="17" y="9" onmousedown="handleZoom(evt,'in')"/>
                <use id="zoomminus" xlink:href="#zoomMin" x="42" y="9" onmousedown="handleZoom(evt,'out')"/>
                <use id="reset" xlink:href="#resetDef" x="30" y="36" onmousedown="handleReset()"/>
                <g id="arrowUp" xlink:href="#dirArrow" transform="translate(30 24)" onmousedown="handlePan(0,-1)">
                  <use xlink:href="#rim" fill="#404040">
                        <set attributeName="fill" to="#808080" begin="arrowUp.mouseover" end="arrowUp.mouseout"/>
                  </use>
                  <path fill="none" stroke="white" stroke-width="1.5" d="M0,-3.0v7 M-2.5,-0.5L0,-3.0L2.5,-0.5"/>
                </g>
                <g id="arrowRight" xlink:href="#dirArrow" transform="rotate(90) translate(36 -43)" onmousedown="handlePan(1,0)">
                  <use xlink:href="#rim" fill="#404040">
                        <set attributeName="fill" to="#808080" begin="arrowRight.mouseover" end="arrowRight.mouseout"/>
                  </use>
                  <path fill="none" stroke="white" stroke-width="1.5" d="M0,-3.0v7 M-2.5,-0.5L0,-3.0L2.5,-0.5"/>
                </g>
                <g id="arrowDown" xlink:href="#dirArrow" transform="rotate(180) translate(-30 -48)" onmousedown="handlePan(0,1)">
                  <use xlink:href="#rim" fill="#404040">
                        <set attributeName="fill" to="#808080" begin="arrowDown.mouseover" end="arrowDown.mouseout"/>
                  </use>
                  <path fill="none" stroke="white" stroke-width="1.5" d="M0,-3.0v7 M-2.5,-0.5L0,-3.0L2.5,-0.5"/>
                </g>
                <g id="arrowLeft" xlink:href="#dirArrow" transform="rotate(270) translate(-36 17)" onmousedown="handlePan(-1,0)">
                  <use xlink:href="#rim" fill="#404040">
                        <set attributeName="fill" to="#808080" begin="arrowLeft.mouseover" end="arrowLeft.mouseout"/>
                  </use>
                  <path fill="none" stroke="white" stroke-width="1.5" d="M0,-3.0v7 M-2.5,-0.5L0,-3.0L2.5,-0.5"/>
                </g>
        </g>
        <svg viewBox="0 0 15 15" width="100%" height="30px" preserveAspectRatio="xMaxYMin meet">
         <g id="arrow_out" transform="scale(0.3 0.3)">
          <a xlink:href="classApexi_a4e7b389e8d3e283a12733ab4f8492be3_cgraph_org.svg" target="_base">
           <rect id="button" ry="5" rx="5" y="6" x="6" height="38" width="38"
                fill="#f2f5e9" fill-opacity="0.5" stroke="#606060" stroke-width="1.0"/>
           <path id="arrow"
             d="M 11.500037,31.436501 C 11.940474,20.09759 22.043105,11.32322 32.158766,21.979434 L 37.068811,17.246167 C 37.068811,17.246167 37.088388,32 37.088388,32 L 22.160133,31.978069 C 22.160133,31.978069 26.997745,27.140456 26.997745,27.140456 C 18.528582,18.264221 13.291696,25.230495 11.500037,31.436501 z"
             style="fill:#404040;"/>
          </a>
         </g>
        </svg>
</svg>
