<?xml version="1.0" encoding="UTF-8" standalone="no"?>
<!DOCTYPE svg PUBLIC "-//W3C//DTD SVG 1.1//EN"
 "http://www.w3.org/Graphics/SVG/1.1/DTD/svg11.dtd">
<!-- Generated by graphviz version 2.49.3 (20211027.1534)
 -->
<!-- Title: Apexi::handleBytesWritten Pages: 1 -->
<svg width="1137pt" height="198pt"
 viewBox="0.00 0.00 1137.00 198.00" xmlns="http://www.w3.org/2000/svg" xmlns:xlink="http://www.w3.org/1999/xlink">
<g id="graph0" class="graph" transform="scale(1 1) rotate(0) translate(4 194)">
<title>Apexi::handleBytesWritten</title>
<polygon fill="white" stroke="transparent" points="-4,4 -4,-194 1133,-194 1133,4 -4,4"/>
<!-- Node1 -->
<g id="node1" class="node">
<title>Node1</title>
<g id="a_node1"><a xlink:title=" ">
<polygon fill="#bfbfbf" stroke="black" points="1000,-28.5 1000,-47.5 1129,-47.5 1129,-28.5 1000,-28.5"/>
<text text-anchor="middle" x="1064.5" y="-35.5" font-family="Helvetica,sans-Serif" font-size="10.00">Apexi::handleBytesWritten</text>
</a>
</g>
</g>
<!-- Node2 -->
<g id="node2" class="node">
<title>Node2</title>
<g id="a_node2"><a xlink:href="classApexi.html#a669124cabae4ada616e650e582c068da" target="_top" xlink:title=" ">
<polygon fill="white" stroke="black" points="847,-66.5 847,-85.5 964,-85.5 964,-66.5 847,-66.5"/>
<text text-anchor="middle" x="905.5" y="-73.5" font-family="Helvetica,sans-Serif" font-size="10.00">Apexi::closeConnection</text>
</a>
</g>
</g>
<!-- Node1&#45;&gt;Node2 -->
<g id="edge1" class="edge">
<title>Node1&#45;&gt;Node2</title>
<path fill="none" stroke="midnightblue" d="M1014.05,-49.97C992.05,-55.29 966.51,-61.48 945.83,-66.48"/>
<polygon fill="midnightblue" stroke="midnightblue" points="1014.99,-53.34 1023.88,-47.59 1013.34,-46.54 1014.99,-53.34"/>
</g>
<!-- Node10 -->
<g id="node10" class="node">
<title>Node10</title>
<g id="a_node10"><a xlink:href="classApexi.html#a169d6e9466a6c04e6533c8e84fdcaadb" target="_top" xlink:title=" ">
<polygon fill="white" stroke="black" points="0,-47.5 0,-66.5 101,-66.5 101,-47.5 0,-47.5"/>
<text text-anchor="middle" x="50.5" y="-54.5" font-family="Helvetica,sans-Serif" font-size="10.00">Apexi::initSerialPort</text>
</a>
</g>
</g>
<!-- Node1&#45;&gt;Node10 -->
<g id="edge13" class="edge">
<title>Node1&#45;&gt;Node10</title>
<path fill="none" stroke="midnightblue" d="M1004.54,-26.63C941.26,-15.44 837.66,0 747.5,0 747.5,0 747.5,0 318,0 228.34,0 125.39,-31.23 77.96,-47.46"/>
<polygon fill="midnightblue" stroke="midnightblue" points="1004.27,-30.14 1014.73,-28.46 1005.5,-23.25 1004.27,-30.14"/>
</g>
<!-- Node3 -->
<g id="node3" class="node">
<title>Node3</title>
<g id="a_node3"><a xlink:href="classConnect.html#abb89a14af2e2b3f6d466c5abfc95cff0" target="_top" xlink:title=" ">
<polygon fill="white" stroke="black" points="682,-104.5 682,-123.5 811,-123.5 811,-104.5 682,-104.5"/>
<text text-anchor="middle" x="746.5" y="-111.5" font-family="Helvetica,sans-Serif" font-size="10.00">Connect::closeConnection</text>
</a>
</g>
</g>
<!-- Node2&#45;&gt;Node3 -->
<g id="edge2" class="edge">
<title>Node2&#45;&gt;Node3</title>
<path fill="none" stroke="midnightblue" d="M855.05,-87.97C833.05,-93.29 807.51,-99.48 786.83,-104.48"/>
<polygon fill="midnightblue" stroke="midnightblue" points="855.99,-91.34 864.88,-85.59 854.34,-84.54 855.99,-91.34"/>
</g>
<!-- Node4 -->
<g id="node4" class="node">
<title>Node4</title>
<g id="a_node4"><a xlink:href="classApexi.html#a84e5eadc545afab5fbb0aea8b27e17c3" target="_top" xlink:title=" ">
<polygon fill="white" stroke="black" points="689,-142.5 689,-161.5 804,-161.5 804,-142.5 689,-142.5"/>
<text text-anchor="middle" x="746.5" y="-149.5" font-family="Helvetica,sans-Serif" font-size="10.00">Apexi::openConnection</text>
</a>
</g>
</g>
<!-- Node2&#45;&gt;Node4 -->
<g id="edge3" class="edge">
<title>Node2&#45;&gt;Node4</title>
<path fill="none" stroke="midnightblue" d="M882.91,-91.37C864.5,-103.93 836.97,-121.43 811,-133 802.91,-136.61 793.94,-139.76 785.35,-142.41"/>
<polygon fill="midnightblue" stroke="midnightblue" points="884.94,-94.23 891.17,-85.65 880.95,-88.47 884.94,-94.23"/>
</g>
<!-- Node7 -->
<g id="node7" class="node">
<title>Node7</title>
<g id="a_node7"><a xlink:href="classApexi.html#a4e7b389e8d3e283a12733ab4f8492be3" target="_top" xlink:title=" ">
<polygon fill="white" stroke="black" points="399,-66.5 399,-85.5 483,-85.5 483,-66.5 399,-66.5"/>
<text text-anchor="middle" x="441" y="-73.5" font-family="Helvetica,sans-Serif" font-size="10.00">Apexi::readData</text>
</a>
</g>
</g>
<!-- Node2&#45;&gt;Node7 -->
<g id="edge12" class="edge">
<title>Node2&#45;&gt;Node7</title>
<path fill="none" stroke="midnightblue" d="M836.84,-76C739.57,-76 563.17,-76 483.28,-76"/>
<polygon fill="midnightblue" stroke="midnightblue" points="836.86,-79.5 846.86,-76 836.86,-72.5 836.86,-79.5"/>
</g>
<!-- Node5 -->
<g id="node5" class="node">
<title>Node5</title>
<g id="a_node5"><a xlink:href="classConnect.html#a0d674157f4d7442c535837dadd8cf5f1" target="_top" xlink:title=" ">
<polygon fill="white" stroke="black" points="519,-104.5 519,-123.5 646,-123.5 646,-104.5 519,-104.5"/>
<text text-anchor="middle" x="582.5" y="-111.5" font-family="Helvetica,sans-Serif" font-size="10.00">Connect::openConnection</text>
</a>
</g>
</g>
<!-- Node4&#45;&gt;Node5 -->
<g id="edge4" class="edge">
<title>Node4&#45;&gt;Node5</title>
<path fill="none" stroke="midnightblue" d="M694.79,-140.1C672.01,-134.76 645.51,-128.55 624.09,-123.52"/>
<polygon fill="midnightblue" stroke="midnightblue" points="694.09,-143.53 704.62,-142.41 695.68,-136.72 694.09,-143.53"/>
</g>
<!-- Node6 -->
<g id="node6" class="node">
<title>Node6</title>
<g id="a_node6"><a xlink:href="classApexi.html#af3673b74b8aebe06a2b2f9ed81c23ee4" target="_top" xlink:title=" ">
<polygon fill="white" stroke="black" points="533.5,-142.5 533.5,-161.5 631.5,-161.5 631.5,-142.5 533.5,-142.5"/>
<text text-anchor="middle" x="582.5" y="-149.5" font-family="Helvetica,sans-Serif" font-size="10.00">Apexi::retryconnect</text>
</a>
</g>
</g>
<!-- Node4&#45;&gt;Node6 -->
<g id="edge5" class="edge">
<title>Node4&#45;&gt;Node6</title>
<path fill="none" stroke="midnightblue" d="M678.6,-152C662.81,-152 646.29,-152 631.53,-152"/>
<polygon fill="midnightblue" stroke="midnightblue" points="678.84,-155.5 688.84,-152 678.84,-148.5 678.84,-155.5"/>
</g>
<!-- Node6&#45;&gt;Node7 -->
<g id="edge6" class="edge">
<title>Node6&#45;&gt;Node7</title>
<path fill="none" stroke="midnightblue" d="M533.24,-139.17C528.33,-137.32 523.51,-135.27 519,-133 493.15,-119.99 466.87,-98.33 452.68,-85.79"/>
<polygon fill="midnightblue" stroke="midnightblue" points="532.09,-142.47 542.69,-142.46 534.39,-135.86 532.09,-142.47"/>
</g>
<!-- Node8 -->
<g id="node8" class="node">
<title>Node8</title>
<g id="a_node8"><a xlink:href="classApexi.html#a4cb1314ab5ca5175aa227ed178148f40" target="_top" xlink:title=" ">
<polygon fill="white" stroke="black" points="275,-66.5 275,-85.5 363,-85.5 363,-66.5 275,-66.5"/>
<text text-anchor="middle" x="319" y="-73.5" font-family="Helvetica,sans-Serif" font-size="10.00">Apexi::apexiECU</text>
</a>
</g>
</g>
<!-- Node7&#45;&gt;Node8 -->
<g id="edge7" class="edge">
<title>Node7&#45;&gt;Node8</title>
<path fill="none" stroke="midnightblue" d="M388.5,-76C380,-76 371.27,-76 363.01,-76"/>
<polygon fill="midnightblue" stroke="midnightblue" points="388.7,-79.5 398.7,-76 388.7,-72.5 388.7,-79.5"/>
</g>
<!-- Node9 -->
<g id="node9" class="node">
<title>Node9</title>
<g id="a_node9"><a xlink:href="classApexi.html#abe3bf6800fce8a4c713a08c14474d625" target="_top" xlink:title=" ">
<polygon fill="white" stroke="black" points="137,-47.5 137,-66.5 239,-66.5 239,-47.5 137,-47.5"/>
<text text-anchor="middle" x="188" y="-54.5" font-family="Helvetica,sans-Serif" font-size="10.00">Apexi::readyToRead</text>
</a>
</g>
</g>
<!-- Node8&#45;&gt;Node9 -->
<g id="edge8" class="edge">
<title>Node8&#45;&gt;Node9</title>
<path fill="none" stroke="midnightblue" d="M264.57,-68.13C256.15,-66.89 247.46,-65.61 239.11,-64.38"/>
<polygon fill="midnightblue" stroke="midnightblue" points="264.28,-71.63 274.69,-69.62 265.3,-64.7 264.28,-71.63"/>
</g>
<!-- Node9&#45;&gt;Node2 -->
<g id="edge9" class="edge">
<title>Node9&#45;&gt;Node2</title>
<path fill="none" stroke="midnightblue" d="M249.54,-49.84C300.32,-44.46 374.79,-38 440,-38 583.5,-38 583.5,-38 583.5,-38 680.16,-38 792.07,-55.2 854.95,-66.46"/>
<polygon fill="midnightblue" stroke="midnightblue" points="248.96,-46.38 239.39,-50.94 249.71,-53.34 248.96,-46.38"/>
</g>
<!-- Node9&#45;&gt;Node10 -->
<g id="edge10" class="edge">
<title>Node9&#45;&gt;Node10</title>
<path fill="none" stroke="midnightblue" d="M126.71,-57C118.24,-57 109.61,-57 101.36,-57"/>
<polygon fill="midnightblue" stroke="midnightblue" points="126.93,-60.5 136.93,-57 126.93,-53.5 126.93,-60.5"/>
</g>
<!-- Node10&#45;&gt;Node4 -->
<g id="edge11" class="edge">
<title>Node10&#45;&gt;Node4</title>
<path fill="none" stroke="midnightblue" d="M69.46,-73.42C110.32,-108.99 214.69,-190 318,-190 442,-190 442,-190 442,-190 533.06,-190 555.84,-183.78 646,-171 663.93,-168.46 683.54,-164.89 700.58,-161.52"/>
<polygon fill="midnightblue" stroke="midnightblue" points="71.53,-70.58 61.73,-66.57 66.89,-75.82 71.53,-70.58"/>
</g>
</g>
</svg>
