<?xml version="1.0" encoding="UTF-8" standalone="no"?>
<!DOCTYPE svg PUBLIC "-//W3C//DTD SVG 1.1//EN"
 "http://www.w3.org/Graphics/SVG/1.1/DTD/svg11.dtd">
<!-- Generated by graphviz version 2.49.3 (20211027.1534)
 -->
<!-- Title: DashBoard::ExternalSpeedChanged Pages: 1 -->
<svg width="618pt" height="88pt"
 viewBox="0.00 0.00 618.00 88.00" xmlns="http://www.w3.org/2000/svg" xmlns:xlink="http://www.w3.org/1999/xlink">
<g id="graph0" class="graph" transform="scale(1 1) rotate(0) translate(4 84)">
<title>DashBoard::ExternalSpeedChanged</title>
<polygon fill="white" stroke="transparent" points="-4,4 -4,-84 614,-84 614,4 -4,4"/>
<!-- Node1 -->
<g id="node1" class="node">
<title>Node1</title>
<g id="a_node1"><a xlink:title=" ">
<polygon fill="#bfbfbf" stroke="black" points="479,-24.5 479,-54.5 610,-54.5 610,-24.5 479,-24.5"/>
<text text-anchor="start" x="487" y="-42.5" font-family="Helvetica,sans-Serif" font-size="10.00">DashBoard::ExternalSpeed</text>
<text text-anchor="middle" x="544.5" y="-31.5" font-family="Helvetica,sans-Serif" font-size="10.00">Changed</text>
</a>
</g>
</g>
<!-- Node2 -->
<g id="node2" class="node">
<title>Node2</title>
<g id="a_node2"><a xlink:href="classDashBoard.html#ab2c598ea86f3d3ab3e3697d58322d13b" target="_top" xlink:title=" ">
<polygon fill="white" stroke="black" points="298,-30 298,-49 443,-49 443,-30 298,-30"/>
<text text-anchor="middle" x="370.5" y="-37" font-family="Helvetica,sans-Serif" font-size="10.00">DashBoard::setExternalSpeed</text>
</a>
</g>
</g>
<!-- Node1&#45;&gt;Node2 -->
<g id="edge1" class="edge">
<title>Node1&#45;&gt;Node2</title>
<path fill="none" stroke="midnightblue" d="M468.96,-39.5C460.35,-39.5 451.6,-39.5 443.03,-39.5"/>
<polygon fill="midnightblue" stroke="midnightblue" points="468.96,-43 478.96,-39.5 468.96,-36 468.96,-43"/>
</g>
<!-- Node3 -->
<g id="node3" class="node">
<title>Node3</title>
<g id="a_node3"><a xlink:href="classAppSettings.html#af97c4b73b02f8cf8ef75b11d8f86ac40" target="_top" xlink:title=" ">
<polygon fill="white" stroke="black" points="129,-49.5 129,-79.5 262,-79.5 262,-49.5 129,-49.5"/>
<text text-anchor="start" x="137" y="-67.5" font-family="Helvetica,sans-Serif" font-size="10.00">AppSettings::readandApply</text>
<text text-anchor="middle" x="195.5" y="-56.5" font-family="Helvetica,sans-Serif" font-size="10.00">Settings</text>
</a>
</g>
</g>
<!-- Node2&#45;&gt;Node3 -->
<g id="edge2" class="edge">
<title>Node2&#45;&gt;Node3</title>
<path fill="none" stroke="midnightblue" d="M293.65,-50.46C283.17,-51.98 272.48,-53.52 262.21,-55"/>
<polygon fill="midnightblue" stroke="midnightblue" points="294.21,-53.92 303.6,-49.02 293.2,-46.99 294.21,-53.92"/>
</g>
<!-- Node5 -->
<g id="node5" class="node">
<title>Node5</title>
<g id="a_node5"><a xlink:href="classAppSettings.html#a26f8c8e99079c220fe4832d3df925ef0" target="_top" xlink:title=" ">
<polygon fill="white" stroke="black" points="132,-0.5 132,-30.5 259,-30.5 259,-0.5 132,-0.5"/>
<text text-anchor="start" x="140" y="-18.5" font-family="Helvetica,sans-Serif" font-size="10.00">AppSettings::writeStartup</text>
<text text-anchor="middle" x="195.5" y="-7.5" font-family="Helvetica,sans-Serif" font-size="10.00">Settings</text>
</a>
</g>
</g>
<!-- Node2&#45;&gt;Node5 -->
<g id="edge4" class="edge">
<title>Node2&#45;&gt;Node5</title>
<path fill="none" stroke="midnightblue" d="M290.61,-28.56C280.1,-27.1 269.43,-25.62 259.24,-24.2"/>
<polygon fill="midnightblue" stroke="midnightblue" points="290.24,-32.04 300.63,-29.95 291.2,-25.1 290.24,-32.04"/>
</g>
<!-- Node4 -->
<g id="node4" class="node">
<title>Node4</title>
<g id="a_node4"><a xlink:href="classConnect.html#a2e3bdc883e226b286ee2ea851bf5f551" target="_top" xlink:title=" ">
<polygon fill="white" stroke="black" points="0,-55 0,-74 93,-74 93,-55 0,-55"/>
<text text-anchor="middle" x="46.5" y="-62" font-family="Helvetica,sans-Serif" font-size="10.00">Connect::Connect</text>
</a>
</g>
</g>
<!-- Node3&#45;&gt;Node4 -->
<g id="edge3" class="edge">
<title>Node3&#45;&gt;Node4</title>
<path fill="none" stroke="midnightblue" d="M118.64,-64.5C110.03,-64.5 101.46,-64.5 93.41,-64.5"/>
<polygon fill="midnightblue" stroke="midnightblue" points="118.74,-68 128.74,-64.5 118.74,-61 118.74,-68"/>
</g>
</g>
</svg>
