<?xml version="1.0" encoding="UTF-8" standalone="no"?>
<!DOCTYPE svg PUBLIC "-//W3C//DTD SVG 1.1//EN"
 "http://www.w3.org/Graphics/SVG/1.1/DTD/svg11.dtd">
<!-- Generated by graphviz version 2.49.3 (20211027.1534)
 -->
<!-- Title: Sensors::updateAccel Pages: 1 -->
<svg width="265pt" height="104pt"
 viewBox="0.00 0.00 265.00 104.00" xmlns="http://www.w3.org/2000/svg" xmlns:xlink="http://www.w3.org/1999/xlink">
<g id="graph0" class="graph" transform="scale(1 1) rotate(0) translate(4 100)">
<title>Sensors::updateAccel</title>
<polygon fill="white" stroke="transparent" points="-4,4 -4,-100 261,-100 261,4 -4,4"/>
<!-- Node1 -->
<g id="node1" class="node">
<title>Node1</title>
<g id="a_node1"><a xlink:title=" ">
<polygon fill="#bfbfbf" stroke="black" points="0,-38.5 0,-57.5 111,-57.5 111,-38.5 0,-38.5"/>
<text text-anchor="middle" x="55.5" y="-45.5" font-family="Helvetica,sans-Serif" font-size="10.00">Sensors::updateAccel</text>
</a>
</g>
</g>
<!-- Node2 -->
<g id="node2" class="node">
<title>Node2</title>
<g id="a_node2"><a xlink:href="classDashBoard.html#a4f6cd3eac155d425aaa63efe9022005a" target="_top" xlink:title=" ">
<polygon fill="white" stroke="black" points="147,-76.5 147,-95.5 257,-95.5 257,-76.5 147,-76.5"/>
<text text-anchor="middle" x="202" y="-83.5" font-family="Helvetica,sans-Serif" font-size="10.00">DashBoard::setaccelx</text>
</a>
</g>
</g>
<!-- Node1&#45;&gt;Node2 -->
<g id="edge1" class="edge">
<title>Node1&#45;&gt;Node2</title>
<path fill="none" stroke="midnightblue" d="M92.96,-57.59C111.77,-62.54 134.91,-68.62 154.95,-73.89"/>
<polygon fill="midnightblue" stroke="midnightblue" points="154.24,-77.32 164.8,-76.48 156.02,-70.55 154.24,-77.32"/>
</g>
<!-- Node3 -->
<g id="node3" class="node">
<title>Node3</title>
<g id="a_node3"><a xlink:href="classDashBoard.html#ad3b7b45503e833e2bba34e8779a152f2" target="_top" xlink:title=" ">
<polygon fill="white" stroke="black" points="147,-38.5 147,-57.5 257,-57.5 257,-38.5 147,-38.5"/>
<text text-anchor="middle" x="202" y="-45.5" font-family="Helvetica,sans-Serif" font-size="10.00">DashBoard::setaccely</text>
</a>
</g>
</g>
<!-- Node1&#45;&gt;Node3 -->
<g id="edge2" class="edge">
<title>Node1&#45;&gt;Node3</title>
<path fill="none" stroke="midnightblue" d="M111.13,-48C119.42,-48 128.05,-48 136.53,-48"/>
<polygon fill="midnightblue" stroke="midnightblue" points="136.77,-51.5 146.77,-48 136.77,-44.5 136.77,-51.5"/>
</g>
<!-- Node4 -->
<g id="node4" class="node">
<title>Node4</title>
<g id="a_node4"><a xlink:href="classDashBoard.html#ac1082f76daaa67d61cb1917bf62937cf" target="_top" xlink:title=" ">
<polygon fill="white" stroke="black" points="147,-0.5 147,-19.5 257,-19.5 257,-0.5 147,-0.5"/>
<text text-anchor="middle" x="202" y="-7.5" font-family="Helvetica,sans-Serif" font-size="10.00">DashBoard::setaccelz</text>
</a>
</g>
</g>
<!-- Node1&#45;&gt;Node4 -->
<g id="edge3" class="edge">
<title>Node1&#45;&gt;Node4</title>
<path fill="none" stroke="midnightblue" d="M92.96,-38.41C111.77,-33.46 134.91,-27.38 154.95,-22.11"/>
<polygon fill="midnightblue" stroke="midnightblue" points="156.02,-25.45 164.8,-19.52 154.24,-18.68 156.02,-25.45"/>
</g>
</g>
</svg>
