<?xml version="1.0" encoding="UTF-8" standalone="no"?>
<!DOCTYPE svg PUBLIC "-//W3C//DTD SVG 1.1//EN"
 "http://www.w3.org/Graphics/SVG/1.1/DTD/svg11.dtd">
<!-- Generated by graphviz version 2.49.3 (20211027.1534)
 -->
<!-- Title: AppSettings::getValue Pages: 1 -->
<svg width="450pt" height="666pt"
 viewBox="0.00 0.00 450.00 665.50" xmlns="http://www.w3.org/2000/svg" xmlns:xlink="http://www.w3.org/1999/xlink">
<g id="graph0" class="graph" transform="scale(1 1) rotate(0) translate(4 661.5)">
<title>AppSettings::getValue</title>
<polygon fill="white" stroke="transparent" points="-4,4 -4,-661.5 446,-661.5 446,4 -4,4"/>
<!-- Node1 -->
<g id="node1" class="node">
<title>Node1</title>
<g id="a_node1"><a xlink:title=" ">
<polygon fill="#bfbfbf" stroke="black" points="329,-350 329,-369 442,-369 442,-350 329,-350"/>
<text text-anchor="middle" x="385.5" y="-357" font-family="Helvetica,sans-Serif" font-size="10.00">AppSettings::getValue</text>
</a>
</g>
</g>
<!-- Node2 -->
<g id="node2" class="node">
<title>Node2</title>
<g id="a_node2"><a xlink:href="classAppSettings.html#a318cd766aee8a3f664ccc232b3a9eb3d" target="_top" xlink:title=" ">
<polygon fill="white" stroke="black" points="145.5,-638 145.5,-657 276.5,-657 276.5,-638 145.5,-638"/>
<text text-anchor="middle" x="211" y="-645" font-family="Helvetica,sans-Serif" font-size="10.00">AppSettings::getBaudRate</text>
</a>
</g>
</g>
<!-- Node1&#45;&gt;Node2 -->
<g id="edge1" class="edge">
<title>Node1&#45;&gt;Node2</title>
<path fill="none" stroke="midnightblue" d="M383.97,-379.16C381.52,-428.9 367.92,-560.55 293,-628.5 288.19,-632.87 282.56,-636.29 276.56,-638.95"/>
<polygon fill="midnightblue" stroke="midnightblue" points="387.47,-379.23 384.36,-369.1 380.48,-378.96 387.47,-379.23"/>
</g>
<!-- Node3 -->
<g id="node3" class="node">
<title>Node3</title>
<g id="a_node3"><a xlink:href="classAppSettings.html#a5a9ebb0ad728110b5f19e262a4ff617d" target="_top" xlink:title=" ">
<polygon fill="white" stroke="black" points="148.5,-600 148.5,-619 273.5,-619 273.5,-600 148.5,-600"/>
<text text-anchor="middle" x="211" y="-607" font-family="Helvetica,sans-Serif" font-size="10.00">AppSettings::getDataBits</text>
</a>
</g>
</g>
<!-- Node1&#45;&gt;Node3 -->
<g id="edge2" class="edge">
<title>Node1&#45;&gt;Node3</title>
<path fill="none" stroke="midnightblue" d="M382.7,-379.37C377.52,-424.25 358.49,-533.98 293,-590.5 287.42,-595.31 280.85,-598.96 273.91,-601.72"/>
<polygon fill="midnightblue" stroke="midnightblue" points="386.2,-379.51 383.76,-369.2 379.24,-378.78 386.2,-379.51"/>
</g>
<!-- Node4 -->
<g id="node4" class="node">
<title>Node4</title>
<g id="a_node4"><a xlink:href="classAppSettings.html#a4529a1959ea0f40b3cac71ecd943e64e" target="_top" xlink:title=" ">
<polygon fill="white" stroke="black" points="157,-562 157,-581 265,-581 265,-562 157,-562"/>
<text text-anchor="middle" x="211" y="-569" font-family="Helvetica,sans-Serif" font-size="10.00">AppSettings::getECU</text>
</a>
</g>
</g>
<!-- Node1&#45;&gt;Node4 -->
<g id="edge3" class="edge">
<title>Node1&#45;&gt;Node4</title>
<path fill="none" stroke="midnightblue" d="M381,-379.3C372.95,-418.7 349.32,-507.03 293,-552.5 285.02,-558.94 275.24,-563.27 265.26,-566.17"/>
<polygon fill="midnightblue" stroke="midnightblue" points="384.46,-379.84 382.91,-369.35 377.58,-378.52 384.46,-379.84"/>
</g>
<!-- Node5 -->
<g id="node5" class="node">
<title>Node5</title>
<g id="a_node5"><a xlink:href="classAppSettings.html#a08860bb2dba5a9bc8544e77a6e14d674" target="_top" xlink:title=" ">
<polygon fill="white" stroke="black" points="141,-524 141,-543 281,-543 281,-524 141,-524"/>
<text text-anchor="middle" x="211" y="-531" font-family="Helvetica,sans-Serif" font-size="10.00">AppSettings::getFlowControl</text>
</a>
</g>
</g>
<!-- Node1&#45;&gt;Node5 -->
<g id="edge4" class="edge">
<title>Node1&#45;&gt;Node5</title>
<path fill="none" stroke="midnightblue" d="M378.54,-379.25C367.43,-412.58 340.28,-479.74 293,-514.5 287.76,-518.35 281.86,-521.43 275.7,-523.9"/>
<polygon fill="midnightblue" stroke="midnightblue" points="382,-379.93 381.7,-369.34 375.33,-377.81 382,-379.93"/>
</g>
<!-- Node6 -->
<g id="node6" class="node">
<title>Node6</title>
<g id="a_node6"><a xlink:href="classAppSettings.html#ad9359cf1ee14db88a5f99853fcdc57e8" target="_top" xlink:title=" ">
<polygon fill="white" stroke="black" points="148,-486 148,-505 274,-505 274,-486 148,-486"/>
<text text-anchor="middle" x="211" y="-493" font-family="Helvetica,sans-Serif" font-size="10.00">AppSettings::getInterface</text>
</a>
</g>
</g>
<!-- Node1&#45;&gt;Node6 -->
<g id="edge5" class="edge">
<title>Node1&#45;&gt;Node6</title>
<path fill="none" stroke="midnightblue" d="M375.23,-378.09C361.17,-404.28 331.92,-451.62 293,-476.5 286.91,-480.39 280.12,-483.48 273.12,-485.95"/>
<polygon fill="midnightblue" stroke="midnightblue" points="378.35,-379.66 379.86,-369.18 372.14,-376.43 378.35,-379.66"/>
</g>
<!-- Node7 -->
<g id="node7" class="node">
<title>Node7</title>
<g id="a_node7"><a xlink:href="classAppSettings.html#adbcf2004886a86e22472d887a4362ffd" target="_top" xlink:title=" ">
<polygon fill="white" stroke="black" points="150,-448 150,-467 272,-467 272,-448 150,-448"/>
<text text-anchor="middle" x="211" y="-455" font-family="Helvetica,sans-Serif" font-size="10.00">AppSettings::getLogging</text>
</a>
</g>
</g>
<!-- Node1&#45;&gt;Node7 -->
<g id="edge6" class="edge">
<title>Node1&#45;&gt;Node7</title>
<path fill="none" stroke="midnightblue" d="M369.39,-376.75C352.56,-394.88 323.65,-422.88 293,-438.5 285.41,-442.37 277.01,-445.46 268.59,-447.94"/>
<polygon fill="midnightblue" stroke="midnightblue" points="372.12,-378.96 376.24,-369.2 366.93,-374.26 372.12,-378.96"/>
</g>
<!-- Node8 -->
<g id="node8" class="node">
<title>Node8</title>
<g id="a_node8"><a xlink:href="classAppSettings.html#a7971bbd1baaf8cc7b50ebd909ce4c276" target="_top" xlink:title=" ">
<polygon fill="white" stroke="black" points="154.5,-410 154.5,-429 267.5,-429 267.5,-410 154.5,-410"/>
<text text-anchor="middle" x="211" y="-417" font-family="Helvetica,sans-Serif" font-size="10.00">AppSettings::getParity</text>
</a>
</g>
</g>
<!-- Node1&#45;&gt;Node8 -->
<g id="edge7" class="edge">
<title>Node1&#45;&gt;Node8</title>
<path fill="none" stroke="midnightblue" d="M356.75,-373.61C338.89,-382.26 314.99,-393.07 293,-400.5 282.33,-404.11 270.64,-407.28 259.54,-409.95"/>
<polygon fill="midnightblue" stroke="midnightblue" points="358.57,-376.61 365.99,-369.05 355.48,-370.33 358.57,-376.61"/>
</g>
<!-- Node9 -->
<g id="node9" class="node">
<title>Node9</title>
<g id="a_node9"><a xlink:href="classAppSettings.html#ab2b426a6a680362996886694930afee5" target="_top" xlink:title=" ">
<polygon fill="white" stroke="black" points="148.5,-372 148.5,-391 273.5,-391 273.5,-372 148.5,-372"/>
<text text-anchor="middle" x="211" y="-379" font-family="Helvetica,sans-Serif" font-size="10.00">AppSettings::getStopBits</text>
</a>
</g>
</g>
<!-- Node1&#45;&gt;Node9 -->
<g id="edge8" class="edge">
<title>Node1&#45;&gt;Node9</title>
<path fill="none" stroke="midnightblue" d="M318.87,-367.87C304.05,-369.76 288.36,-371.76 273.7,-373.63"/>
<polygon fill="midnightblue" stroke="midnightblue" points="319.49,-371.32 328.97,-366.58 318.61,-364.38 319.49,-371.32"/>
</g>
<!-- Node10 -->
<g id="node10" class="node">
<title>Node10</title>
<g id="a_node10"><a xlink:href="classAppSettings.html#af97c4b73b02f8cf8ef75b11d8f86ac40" target="_top" xlink:title=" ">
<polygon fill="white" stroke="black" points="144.5,-322.5 144.5,-352.5 277.5,-352.5 277.5,-322.5 144.5,-322.5"/>
<text text-anchor="start" x="152.5" y="-340.5" font-family="Helvetica,sans-Serif" font-size="10.00">AppSettings::readandApply</text>
<text text-anchor="middle" x="211" y="-329.5" font-family="Helvetica,sans-Serif" font-size="10.00">Settings</text>
</a>
</g>
</g>
<!-- Node1&#45;&gt;Node10 -->
<g id="edge9" class="edge">
<title>Node1&#45;&gt;Node10</title>
<path fill="none" stroke="midnightblue" d="M318.82,-351.12C305.34,-349.4 291.14,-347.59 277.66,-345.87"/>
<polygon fill="midnightblue" stroke="midnightblue" points="318.61,-354.62 328.97,-352.42 319.49,-347.68 318.61,-354.62"/>
</g>
<!-- Node12 -->
<g id="node12" class="node">
<title>Node12</title>
<g id="a_node12"><a xlink:href="classAppSettings.html#a264fac88461c5b9544e89b11b4f20d36" target="_top" xlink:title=" ">
<polygon fill="white" stroke="black" points="148.5,-273.5 148.5,-303.5 273.5,-303.5 273.5,-273.5 148.5,-273.5"/>
<text text-anchor="start" x="156.5" y="-291.5" font-family="Helvetica,sans-Serif" font-size="10.00">AppSettings::writeAnalog</text>
<text text-anchor="middle" x="211" y="-280.5" font-family="Helvetica,sans-Serif" font-size="10.00">Settings</text>
</a>
</g>
</g>
<!-- Node1&#45;&gt;Node12 -->
<g id="edge11" class="edge">
<title>Node1&#45;&gt;Node12</title>
<path fill="none" stroke="midnightblue" d="M358.42,-344.93C340.4,-335.23 315.68,-322.63 293,-313.5 284.13,-309.93 274.54,-306.56 265.17,-303.52"/>
<polygon fill="midnightblue" stroke="midnightblue" points="357.24,-348.27 367.69,-349.98 360.59,-342.12 357.24,-348.27"/>
</g>
<!-- Node13 -->
<g id="node13" class="node">
<title>Node13</title>
<g id="a_node13"><a xlink:href="classAppSettings.html#a139a02d75de7a86f95d1941aaac56ba2" target="_top" xlink:title=" ">
<polygon fill="white" stroke="black" points="147,-224.5 147,-254.5 275,-254.5 275,-224.5 147,-224.5"/>
<text text-anchor="start" x="155" y="-242.5" font-family="Helvetica,sans-Serif" font-size="10.00">AppSettings::writeCountry</text>
<text text-anchor="middle" x="211" y="-231.5" font-family="Helvetica,sans-Serif" font-size="10.00">Settings</text>
</a>
</g>
</g>
<!-- Node1&#45;&gt;Node13 -->
<g id="edge12" class="edge">
<title>Node1&#45;&gt;Node13</title>
<path fill="none" stroke="midnightblue" d="M371.86,-341.68C355.84,-320.36 326.27,-284.98 293,-264.5 286.73,-260.64 279.82,-257.34 272.76,-254.52"/>
<polygon fill="midnightblue" stroke="midnightblue" points="369.13,-343.88 377.87,-349.88 374.78,-339.74 369.13,-343.88"/>
</g>
<!-- Node14 -->
<g id="node14" class="node">
<title>Node14</title>
<g id="a_node14"><a xlink:href="classAppSettings.html#adbb124ed9b5975b78daadba4bbaa32a3" target="_top" xlink:title=" ">
<polygon fill="white" stroke="black" points="129,-175.5 129,-205.5 293,-205.5 293,-175.5 129,-175.5"/>
<text text-anchor="start" x="137" y="-193.5" font-family="Helvetica,sans-Serif" font-size="10.00">AppSettings::writeEXAN7damping</text>
<text text-anchor="middle" x="211" y="-182.5" font-family="Helvetica,sans-Serif" font-size="10.00">Settings</text>
</a>
</g>
</g>
<!-- Node1&#45;&gt;Node14 -->
<g id="edge13" class="edge">
<title>Node1&#45;&gt;Node14</title>
<path fill="none" stroke="midnightblue" d="M377.37,-340.17C365,-309.26 336.59,-248.78 293,-215.5 287.97,-211.66 282.34,-208.4 276.47,-205.65"/>
<polygon fill="midnightblue" stroke="midnightblue" points="374.22,-341.71 381.08,-349.78 380.75,-339.19 374.22,-341.71"/>
</g>
<!-- Node15 -->
<g id="node15" class="node">
<title>Node15</title>
<g id="a_node15"><a xlink:href="classAppSettings.html#a4531703d395e7ed5568f2738a9070b27" target="_top" xlink:title=" ">
<polygon fill="white" stroke="black" points="144,-126.5 144,-156.5 278,-156.5 278,-126.5 144,-126.5"/>
<text text-anchor="start" x="152" y="-144.5" font-family="Helvetica,sans-Serif" font-size="10.00">AppSettings::writeEXBoard</text>
<text text-anchor="middle" x="211" y="-133.5" font-family="Helvetica,sans-Serif" font-size="10.00">Settings</text>
</a>
</g>
</g>
<!-- Node1&#45;&gt;Node15 -->
<g id="edge14" class="edge">
<title>Node1&#45;&gt;Node15</title>
<path fill="none" stroke="midnightblue" d="M380.67,-339.78C372.08,-300.84 347.6,-213.78 293,-166.5 288.55,-162.65 283.51,-159.39 278.18,-156.63"/>
<polygon fill="midnightblue" stroke="midnightblue" points="377.3,-340.74 382.76,-349.81 384.15,-339.31 377.3,-340.74"/>
</g>
<!-- Node16 -->
<g id="node16" class="node">
<title>Node16</title>
<g id="a_node16"><a xlink:href="classAppSettings.html#afa30c7ad061739fceec748a0f00f98a2" target="_top" xlink:title=" ">
<polygon fill="white" stroke="black" points="134.5,-88 134.5,-107 287.5,-107 287.5,-88 134.5,-88"/>
<text text-anchor="middle" x="211" y="-95" font-family="Helvetica,sans-Serif" font-size="10.00">AppSettings::writeRPMSettings</text>
</a>
</g>
</g>
<!-- Node1&#45;&gt;Node16 -->
<g id="edge15" class="edge">
<title>Node1&#45;&gt;Node16</title>
<path fill="none" stroke="midnightblue" d="M383.06,-339.7C378.58,-293.45 360.83,-177.68 293,-117.5 288.12,-113.17 282.46,-109.75 276.43,-107.05"/>
<polygon fill="midnightblue" stroke="midnightblue" points="379.59,-340.22 383.93,-349.89 386.56,-339.62 379.59,-340.22"/>
</g>
<!-- Node17 -->
<g id="node17" class="node">
<title>Node17</title>
<g id="a_node17"><a xlink:href="classAppSettings.html#a0bc689b962431aa02ed06b9342556343" target="_top" xlink:title=" ">
<polygon fill="white" stroke="black" points="131.5,-50 131.5,-69 290.5,-69 290.5,-50 131.5,-50"/>
<text text-anchor="middle" x="211" y="-57" font-family="Helvetica,sans-Serif" font-size="10.00">AppSettings::writeSpeedSettings</text>
</a>
</g>
</g>
<!-- Node1&#45;&gt;Node17 -->
<g id="edge16" class="edge">
<title>Node1&#45;&gt;Node17</title>
<path fill="none" stroke="midnightblue" d="M384.3,-339.66C382.64,-288.29 370.79,-149.99 293,-78.5 288.85,-74.69 284.09,-71.6 278.99,-69.1"/>
<polygon fill="midnightblue" stroke="midnightblue" points="380.8,-339.84 384.52,-349.75 387.8,-339.68 380.8,-339.84"/>
</g>
<!-- Node18 -->
<g id="node18" class="node">
<title>Node18</title>
<g id="a_node18"><a xlink:href="classAppSettings.html#a1c942959d7171088f9cdd138b36df260" target="_top" xlink:title=" ">
<polygon fill="white" stroke="black" points="144,-0.5 144,-30.5 278,-30.5 278,-0.5 144,-0.5"/>
<text text-anchor="start" x="152" y="-18.5" font-family="Helvetica,sans-Serif" font-size="10.00">AppSettings::writeSteinhart</text>
<text text-anchor="middle" x="211" y="-7.5" font-family="Helvetica,sans-Serif" font-size="10.00">Settings</text>
</a>
</g>
</g>
<!-- Node1&#45;&gt;Node18 -->
<g id="edge17" class="edge">
<title>Node1&#45;&gt;Node18</title>
<path fill="none" stroke="midnightblue" d="M384.9,-339.62C384.91,-284.18 377.15,-126.35 293,-40.5 288.67,-36.09 283.59,-32.45 278.1,-29.45"/>
<polygon fill="midnightblue" stroke="midnightblue" points="381.4,-339.8 384.81,-349.83 388.4,-339.86 381.4,-339.8"/>
</g>
<!-- Node11 -->
<g id="node11" class="node">
<title>Node11</title>
<g id="a_node11"><a xlink:href="classConnect.html#a2e3bdc883e226b286ee2ea851bf5f551" target="_top" xlink:title=" ">
<polygon fill="white" stroke="black" points="0,-328 0,-347 93,-347 93,-328 0,-328"/>
<text text-anchor="middle" x="46.5" y="-335" font-family="Helvetica,sans-Serif" font-size="10.00">Connect::Connect</text>
</a>
</g>
</g>
<!-- Node10&#45;&gt;Node11 -->
<g id="edge10" class="edge">
<title>Node10&#45;&gt;Node11</title>
<path fill="none" stroke="midnightblue" d="M134.27,-337.5C120.32,-337.5 106.15,-337.5 93.41,-337.5"/>
<polygon fill="midnightblue" stroke="midnightblue" points="134.37,-341 144.37,-337.5 134.37,-334 134.37,-341"/>
</g>
</g>
</svg>
