<?xml version="1.0" encoding="UTF-8" standalone="no"?>
<!DOCTYPE svg PUBLIC "-//W3C//DTD SVG 1.1//EN"
 "http://www.w3.org/Graphics/SVG/1.1/DTD/svg11.dtd">
<!-- Generated by graphviz version 2.49.3 (20211027.1534)
 -->
<!-- Title: GPS::openConnection Pages: 1 -->
<!--zoomable 688 -->
<svg id="main" version="1.1" xmlns="http://www.w3.org/2000/svg" xmlns:xlink="http://www.w3.org/1999/xlink" xml:space="preserve" onload="init(evt)">
<style type="text/css"><![CDATA[
.edge:hover path { stroke: red; }
.edge:hover polygon { stroke: red; fill: red; }
]]></style>
<script type="text/javascript"><![CDATA[
var edges = document.getElementsByTagName('g');
if (edges && edges.length) {
  for (var i=0;i<edges.length;i++) {
    if (edges[i].id.substr(0,4)=='edge') {
      edges[i].setAttribute('class','edge');
    }
  }
}
]]></script>
        <defs>
                <circle id="rim" cx="0" cy="0" r="7"/>
                <circle id="rim2" cx="0" cy="0" r="3.5"/>
                <g id="zoomPlus">
                        <use xlink:href="#rim" fill="#404040">
                                <set attributeName="fill" to="#808080" begin="zoomplus.mouseover" end="zoomplus.mouseout"/>
                        </use>
                        <path d="M-4,0h8M0,-4v8" fill="none" stroke="white" stroke-width="1.5" pointer-events="none"/>
                </g>
                <g id="zoomMin">
                        <use xlink:href="#rim" fill="#404040">
                                <set attributeName="fill" to="#808080" begin="zoomminus.mouseover" end="zoomminus.mouseout"/>
                        </use>
                        <path d="M-4,0h8" fill="none" stroke="white" stroke-width="1.5" pointer-events="none"/>
                </g>
                <g id="dirArrow">
                        <path fill="none" stroke="white" stroke-width="1.5" d="M0,-3.0v7 M-2.5,-0.5L0,-3.0L2.5,-0.5"/>
                </g>
               <g id="resetDef">
                       <use xlink:href="#rim2" fill="#404040">
                               <set attributeName="fill" to="#808080" begin="reset.mouseover" end="reset.mouseout"/>
                       </use>
               </g>
        </defs>

<script type="text/javascript">
var viewWidth = 1569;
var viewHeight = 688;
var sectionId = 'dynsection-18';
</script>
<script xlink:href="svgpan.js"/>
<svg id="graph" class="graph">
<g id="viewport">
<title>GPS::openConnection</title>
<polygon fill="white" stroke="transparent" points="-4,4 -4,-684 1565,-684 1565,4 -4,4"/>
<!-- Node1 -->
<g id="node1" class="node">
<title>Node1</title>
<g id="a_node1"><a xlink:title=" ">
<polygon fill="#bfbfbf" stroke="black" points="0,-443.5 0,-462.5 112,-462.5 112,-443.5 0,-443.5"/>
<text text-anchor="middle" x="56" y="-450.5" font-family="Helvetica,sans-Serif" font-size="10.00">GPS::openConnection</text>
</a>
</g>
</g>
<!-- Node2 -->
<g id="node2" class="node">
<title>Node2</title>
<g id="a_node2"><a xlink:href="classGPS.html#ae4568ef4d5107c96c1af68d1abd33559" target="_top" xlink:title=" ">
<polygon fill="white" stroke="black" points="148,-462.5 148,-481.5 262,-481.5 262,-462.5 148,-462.5"/>
<text text-anchor="middle" x="205" y="-469.5" font-family="Helvetica,sans-Serif" font-size="10.00">GPS::closeConnection</text>
</a>
</g>
</g>
<!-- Node1&#45;&gt;Node2 -->
<g id="edge1" class="edge">
<title>Node1&#45;&gt;Node2</title>
<path fill="none" stroke="midnightblue" d="M112.16,-460.13C120.38,-461.19 128.93,-462.3 137.36,-463.39"/>
<polygon fill="midnightblue" stroke="midnightblue" points="137.19,-466.89 147.56,-464.7 138.09,-459.95 137.19,-466.89"/>
</g>
<!-- Node4 -->
<g id="node4" class="node">
<title>Node4</title>
<g id="a_node4"><a xlink:href="classDashBoard.html#acd9bb1ec108194ecb9d451b430275922" target="_top" xlink:title=" ">
<polygon fill="white" stroke="black" points="1255.5,-430.5 1255.5,-449.5 1387.5,-449.5 1387.5,-430.5 1255.5,-430.5"/>
<text text-anchor="middle" x="1321.5" y="-437.5" font-family="Helvetica,sans-Serif" font-size="10.00">DashBoard::setgpsFIXtype</text>
</a>
</g>
</g>
<!-- Node1&#45;&gt;Node4 -->
<g id="edge54" class="edge">
<title>Node1&#45;&gt;Node4</title>
<path fill="none" stroke="midnightblue" d="M62.83,-462.75C89.64,-506.2 205.86,-680 350,-680 350,-680 350,-680 999,-680 1101.22,-680 1134.92,-664.53 1215,-601 1264.61,-561.64 1298.58,-492.34 1312.88,-458.98"/>
<polygon fill="midnightblue" stroke="midnightblue" points="1316.22,-460.08 1316.83,-449.5 1309.76,-457.39 1316.22,-460.08"/>
</g>
<!-- Node31 -->
<g id="node31" class="node">
<title>Node31</title>
<g id="a_node31"><a xlink:href="classGPS.html#ac2a7572afb184df9c14ae913f17306bf" target="_top" xlink:title=" ">
<polygon fill="white" stroke="black" points="156,-348.5 156,-367.5 254,-367.5 254,-348.5 156,-348.5"/>
<text text-anchor="middle" x="205" y="-355.5" font-family="Helvetica,sans-Serif" font-size="10.00">GPS::initSerialPort</text>
</a>
</g>
</g>
<!-- Node1&#45;&gt;Node31 -->
<g id="edge49" class="edge">
<title>Node1&#45;&gt;Node31</title>
<path fill="none" stroke="midnightblue" d="M67.54,-443.28C83.85,-428.61 116.6,-400.55 148,-382 154.45,-378.19 161.61,-374.65 168.61,-371.52"/>
<polygon fill="midnightblue" stroke="midnightblue" points="170.13,-374.68 177.95,-367.53 167.38,-368.24 170.13,-374.68"/>
</g>
<!-- Node32 -->
<g id="node32" class="node">
<title>Node32</title>
<g id="a_node32"><a xlink:href="classSerialPort.html#aad156293689e349b3674671f8a8d8048" target="_top" xlink:title=" ">
<polygon fill="white" stroke="black" points="154,-424.5 154,-443.5 256,-443.5 256,-424.5 154,-424.5"/>
<text text-anchor="middle" x="205" y="-431.5" font-family="Helvetica,sans-Serif" font-size="10.00">SerialPort::setParity</text>
</a>
</g>
</g>
<!-- Node1&#45;&gt;Node32 -->
<g id="edge55" class="edge">
<title>Node1&#45;&gt;Node32</title>
<path fill="none" stroke="midnightblue" d="M112.16,-445.87C122.53,-444.53 133.42,-443.12 143.93,-441.76"/>
<polygon fill="midnightblue" stroke="midnightblue" points="144.4,-445.23 153.87,-440.48 143.5,-438.29 144.4,-445.23"/>
</g>
<!-- Node3 -->
<g id="node3" class="node">
<title>Node3</title>
<g id="a_node3"><a xlink:href="classGPS.html#a14c64eb8a4939f8f734b93ef3a21bb19" target="_top" xlink:title=" ">
<polygon fill="white" stroke="black" points="781.5,-367.5 781.5,-386.5 872.5,-386.5 872.5,-367.5 781.5,-367.5"/>
<text text-anchor="middle" x="827" y="-374.5" font-family="Helvetica,sans-Serif" font-size="10.00">GPS::handleError</text>
</a>
</g>
</g>
<!-- Node2&#45;&gt;Node3 -->
<g id="edge2" class="edge">
<title>Node2&#45;&gt;Node3</title>
<path fill="none" stroke="midnightblue" d="M237.14,-462.41C245.33,-459.63 254.08,-456.41 262,-453 278.62,-445.85 280.93,-439.99 298,-434 425.25,-389.37 461.76,-389.72 596,-377 655.69,-371.34 724.48,-372.32 771.16,-374.1"/>
<polygon fill="midnightblue" stroke="midnightblue" points="771.23,-377.6 781.36,-374.51 771.51,-370.61 771.23,-377.6"/>
</g>
<!-- Node2&#45;&gt;Node4 -->
<g id="edge48" class="edge">
<title>Node2&#45;&gt;Node4</title>
<path fill="none" stroke="midnightblue" d="M213.44,-481.72C227.75,-499.72 260.99,-538.19 298,-558 441.51,-634.83 491.72,-642 654.5,-642 654.5,-642 654.5,-642 999,-642 1137.05,-642 1264.39,-506.81 1306.16,-457.63"/>
<polygon fill="midnightblue" stroke="midnightblue" points="1309.01,-459.66 1312.74,-449.74 1303.64,-455.18 1309.01,-459.66"/>
</g>
<!-- Node5 -->
<g id="node5" class="node">
<title>Node5</title>
<g id="a_node5"><a xlink:href="classGPS.html#aaf69fb801bbce2ea70041e68fe0ec19a" target="_top" xlink:title=" ">
<polygon fill="white" stroke="black" points="751,-547.5 751,-566.5 903,-566.5 903,-547.5 751,-547.5"/>
<text text-anchor="middle" x="827" y="-554.5" font-family="Helvetica,sans-Serif" font-size="10.00">GPS::handleReconnectTimeout</text>
</a>
</g>
</g>
<!-- Node2&#45;&gt;Node5 -->
<g id="edge4" class="edge">
<title>Node2&#45;&gt;Node5</title>
<path fill="none" stroke="midnightblue" d="M229.25,-481.66C247.09,-492.19 272.85,-507.54 298,-515 448.98,-559.8 634.59,-559.39 740.7,-556.94"/>
<polygon fill="midnightblue" stroke="midnightblue" points="740.8,-560.44 750.71,-556.7 740.63,-553.44 740.8,-560.44"/>
</g>
<!-- Node6 -->
<g id="node6" class="node">
<title>Node6</title>
<g id="a_node6"><a xlink:href="classGPS.html#a1b1c89214229f5dc8ff7e2fa9cbcad35" target="_top" xlink:title=" ">
<polygon fill="white" stroke="black" points="298,-443.5 298,-462.5 404,-462.5 404,-443.5 298,-443.5"/>
<text text-anchor="middle" x="351" y="-450.5" font-family="Helvetica,sans-Serif" font-size="10.00">GPS::handleTimeout</text>
</a>
</g>
</g>
<!-- Node2&#45;&gt;Node6 -->
<g id="edge7" class="edge">
<title>Node2&#45;&gt;Node6</title>
<path fill="none" stroke="midnightblue" d="M262.09,-464.6C270.4,-463.5 279,-462.37 287.43,-461.26"/>
<polygon fill="midnightblue" stroke="midnightblue" points="288.14,-464.69 297.6,-459.91 287.23,-457.75 288.14,-464.69"/>
</g>
<!-- Node9 -->
<g id="node9" class="node">
<title>Node9</title>
<g id="a_node9"><a xlink:href="classGPS.html#aa0928d156961a54bf06d9b5210d85561" target="_top" xlink:title=" ">
<polygon fill="white" stroke="black" points="777.5,-310.5 777.5,-329.5 876.5,-329.5 876.5,-310.5 777.5,-310.5"/>
<text text-anchor="middle" x="827" y="-317.5" font-family="Helvetica,sans-Serif" font-size="10.00">GPS::readyToRead</text>
</a>
</g>
</g>
<!-- Node2&#45;&gt;Node9 -->
<g id="edge47" class="edge">
<title>Node2&#45;&gt;Node9</title>
<path fill="none" stroke="midnightblue" d="M245.04,-462.48C251.06,-459.99 256.95,-456.88 262,-453 284.88,-435.43 273.69,-414.52 298,-399 445.84,-304.6 663.65,-306.6 767.18,-314.06"/>
<polygon fill="midnightblue" stroke="midnightblue" points="767.2,-317.57 777.44,-314.84 767.73,-310.59 767.2,-317.57"/>
</g>
<!-- Node3&#45;&gt;Node4 -->
<g id="edge3" class="edge">
<title>Node3&#45;&gt;Node4</title>
<path fill="none" stroke="midnightblue" d="M872.95,-383.91C925.62,-391.89 1015.54,-405.19 1093,-415 1143.65,-421.41 1200.77,-427.69 1245.1,-432.34"/>
<polygon fill="midnightblue" stroke="midnightblue" points="1244.91,-435.84 1255.22,-433.4 1245.64,-428.88 1244.91,-435.84"/>
</g>
<!-- Node5&#45;&gt;Node1 -->
<g id="edge6" class="edge">
<title>Node5&#45;&gt;Node1</title>
<path fill="none" stroke="midnightblue" d="M799.52,-566.6C777.29,-574.12 744.54,-583.95 715,-588 530.91,-613.22 476.28,-610.37 298,-558 217.19,-534.26 127.65,-490.18 83.96,-467.43"/>
<polygon fill="midnightblue" stroke="midnightblue" points="85.34,-464.2 74.86,-462.65 82.08,-470.4 85.34,-464.2"/>
</g>
<!-- Node5&#45;&gt;Node2 -->
<g id="edge5" class="edge">
<title>Node5&#45;&gt;Node2</title>
<path fill="none" stroke="midnightblue" d="M774.45,-566.53C678.42,-576.68 466.62,-583.03 298,-533 267.77,-524.03 236.66,-503.67 219.48,-488.53"/>
<polygon fill="midnightblue" stroke="midnightblue" points="221.88,-485.97 212.23,-481.59 217.04,-491.03 221.88,-485.97"/>
</g>
<!-- Node7 -->
<g id="node7" class="node">
<title>Node7</title>
<g id="a_node7"><a xlink:href="classGPS.html#abd750ada6a7b976f72761ce16246ccf6" target="_top" xlink:title=" ">
<polygon fill="white" stroke="black" points="440,-462.5 440,-481.5 560,-481.5 560,-462.5 440,-462.5"/>
<text text-anchor="middle" x="500" y="-469.5" font-family="Helvetica,sans-Serif" font-size="10.00">GPS::setGPSBAUD115</text>
</a>
</g>
</g>
<!-- Node6&#45;&gt;Node7 -->
<g id="edge8" class="edge">
<title>Node6&#45;&gt;Node7</title>
<path fill="none" stroke="midnightblue" d="M404.24,-459.75C412.54,-460.83 421.24,-461.95 429.86,-463.06"/>
<polygon fill="midnightblue" stroke="midnightblue" points="429.55,-466.55 439.92,-464.36 430.45,-459.61 429.55,-466.55"/>
</g>
<!-- Node7&#45;&gt;Node4 -->
<g id="edge46" class="edge">
<title>Node7&#45;&gt;Node4</title>
<path fill="none" stroke="midnightblue" d="M560.32,-472.05C682.82,-471.76 972.55,-469.15 1215,-452 1224.79,-451.31 1235.07,-450.38 1245.22,-449.35"/>
<polygon fill="midnightblue" stroke="midnightblue" points="1245.72,-452.82 1255.3,-448.3 1244.99,-445.86 1245.72,-452.82"/>
</g>
<!-- Node8 -->
<g id="node8" class="node">
<title>Node8</title>
<g id="a_node8"><a xlink:href="classGPS.html#a8775edfa08840ffb2647e0e5ba031fe5" target="_top" xlink:title=" ">
<polygon fill="white" stroke="black" points="596,-386.5 596,-405.5 715,-405.5 715,-386.5 596,-386.5"/>
<text text-anchor="middle" x="655.5" y="-393.5" font-family="Helvetica,sans-Serif" font-size="10.00">GPS::closeConnection1</text>
</a>
</g>
</g>
<!-- Node7&#45;&gt;Node8 -->
<g id="edge9" class="edge">
<title>Node7&#45;&gt;Node8</title>
<path fill="none" stroke="midnightblue" d="M529.06,-462.4C539.1,-458.5 550.33,-453.59 560,-448 577.55,-437.86 578.46,-430.16 596,-420 602.66,-416.14 610.06,-412.59 617.3,-409.48"/>
<polygon fill="midnightblue" stroke="midnightblue" points="619.05,-412.54 626.98,-405.51 616.4,-406.07 619.05,-412.54"/>
</g>
<!-- Node8&#45;&gt;Node1 -->
<g id="edge13" class="edge">
<title>Node8&#45;&gt;Node1</title>
<path fill="none" stroke="midnightblue" d="M595.92,-391.5C500.7,-385.68 306.99,-380.02 148,-415 125.43,-419.97 101.35,-430.26 83.64,-438.89"/>
<polygon fill="midnightblue" stroke="midnightblue" points="81.88,-435.85 74.51,-443.46 85.02,-442.11 81.88,-435.85"/>
</g>
<!-- Node8&#45;&gt;Node3 -->
<g id="edge10" class="edge">
<title>Node8&#45;&gt;Node3</title>
<path fill="none" stroke="midnightblue" d="M715.31,-389.41C733.54,-387.36 753.54,-385.12 771.46,-383.11"/>
<polygon fill="midnightblue" stroke="midnightblue" points="771.92,-386.58 781.47,-381.99 771.14,-379.63 771.92,-386.58"/>
</g>
<!-- Node8&#45;&gt;Node4 -->
<g id="edge45" class="edge">
<title>Node8&#45;&gt;Node4</title>
<path fill="none" stroke="midnightblue" d="M715.35,-402.78C799.1,-412.12 957.56,-428.61 1093,-436 1143.68,-438.76 1200.8,-439.76 1245.13,-440.07"/>
<polygon fill="midnightblue" stroke="midnightblue" points="1245.22,-443.57 1255.24,-440.13 1245.26,-436.57 1245.22,-443.57"/>
</g>
<!-- Node8&#45;&gt;Node5 -->
<g id="edge11" class="edge">
<title>Node8&#45;&gt;Node5</title>
<path fill="none" stroke="midnightblue" d="M666.7,-405.73C684.01,-422.25 720.28,-456.83 751,-486 770.53,-504.54 792.96,-525.76 808.16,-540.14"/>
<polygon fill="midnightblue" stroke="midnightblue" points="806.13,-543.04 815.8,-547.36 810.94,-537.95 806.13,-543.04"/>
</g>
<!-- Node8&#45;&gt;Node6 -->
<g id="edge12" class="edge">
<title>Node8&#45;&gt;Node6</title>
<path fill="none" stroke="midnightblue" d="M603.96,-405.52C551.34,-415.44 468.93,-430.97 412.79,-441.54"/>
<polygon fill="midnightblue" stroke="midnightblue" points="411.81,-438.17 402.63,-443.46 413.11,-445.05 411.81,-438.17"/>
</g>
<!-- Node8&#45;&gt;Node9 -->
<g id="edge14" class="edge">
<title>Node8&#45;&gt;Node9</title>
<path fill="none" stroke="midnightblue" d="M677.97,-386.37C707.64,-373.07 761.37,-348.98 795.28,-333.77"/>
<polygon fill="midnightblue" stroke="midnightblue" points="797.01,-336.83 804.71,-329.55 794.15,-330.45 797.01,-336.83"/>
</g>
<!-- Node10 -->
<g id="node10" class="node">
<title>Node10</title>
<g id="a_node10"><a xlink:href="classGPS.html#a217097ae4a846c621f001a5aa1f4fb4f" target="_top" xlink:title=" ">
<polygon fill="white" stroke="black" points="939,-310.5 939,-329.5 1057,-329.5 1057,-310.5 939,-310.5"/>
<text text-anchor="middle" x="998" y="-317.5" font-family="Helvetica,sans-Serif" font-size="10.00">GPS::ProcessMessage</text>
</a>
</g>
</g>
<!-- Node9&#45;&gt;Node10 -->
<g id="edge15" class="edge">
<title>Node9&#45;&gt;Node10</title>
<path fill="none" stroke="midnightblue" d="M876.88,-320C893.1,-320 911.46,-320 928.85,-320"/>
<polygon fill="midnightblue" stroke="midnightblue" points="928.96,-323.5 938.96,-320 928.96,-316.5 928.96,-323.5"/>
</g>
<!-- Node10&#45;&gt;Node4 -->
<g id="edge44" class="edge">
<title>Node10&#45;&gt;Node4</title>
<path fill="none" stroke="midnightblue" d="M1040.93,-329.59C1099.5,-343.21 1200.32,-367.56 1215,-377 1236.25,-390.67 1229.81,-407.24 1251,-421 1254.18,-423.06 1257.57,-424.9 1261.1,-426.55"/>
<polygon fill="midnightblue" stroke="midnightblue" points="1260.06,-429.9 1270.64,-430.45 1262.71,-423.42 1260.06,-429.9"/>
</g>
<!-- Node10&#45;&gt;Node7 -->
<g id="edge43" class="edge">
<title>Node10&#45;&gt;Node7</title>
<path fill="none" stroke="midnightblue" d="M988.21,-329.73C972.72,-346.21 938.81,-379.43 903,-396 873.22,-409.78 676.97,-443.27 570.1,-460.83"/>
<polygon fill="midnightblue" stroke="midnightblue" points="569.35,-457.4 560.04,-462.48 570.48,-464.31 569.35,-457.4"/>
</g>
<!-- Node11 -->
<g id="node11" class="node">
<title>Node11</title>
<g id="a_node11"><a xlink:href="classGPS.html#a20f1883fa42ff859903a07444ac15628" target="_top" xlink:title=" ">
<polygon fill="white" stroke="black" points="1112.5,-310.5 1112.5,-329.5 1195.5,-329.5 1195.5,-310.5 1112.5,-310.5"/>
<text text-anchor="middle" x="1154" y="-317.5" font-family="Helvetica,sans-Serif" font-size="10.00">GPS::logNMEA</text>
</a>
</g>
</g>
<!-- Node10&#45;&gt;Node11 -->
<g id="edge16" class="edge">
<title>Node10&#45;&gt;Node11</title>
<path fill="none" stroke="midnightblue" d="M1057.22,-320C1072.03,-320 1087.82,-320 1102.22,-320"/>
<polygon fill="midnightblue" stroke="midnightblue" points="1102.43,-323.5 1112.43,-320 1102.43,-316.5 1102.43,-323.5"/>
</g>
<!-- Node12 -->
<g id="node12" class="node">
<title>Node12</title>
<g id="a_node12"><a xlink:href="classGPS.html#a6fbf5e49f6a05b056835666f2e1cb830" target="_top" xlink:title=" ">
<polygon fill="white" stroke="black" points="1097.5,-234.5 1097.5,-253.5 1210.5,-253.5 1210.5,-234.5 1097.5,-234.5"/>
<text text-anchor="middle" x="1154" y="-241.5" font-family="Helvetica,sans-Serif" font-size="10.00">GPS::processGPGGA</text>
</a>
</g>
</g>
<!-- Node10&#45;&gt;Node12 -->
<g id="edge17" class="edge">
<title>Node10&#45;&gt;Node12</title>
<path fill="none" stroke="midnightblue" d="M1012.45,-310.42C1030.2,-298.12 1062.76,-276.72 1093,-263 1097.79,-260.83 1102.9,-258.8 1108.04,-256.94"/>
<polygon fill="midnightblue" stroke="midnightblue" points="1109.56,-260.12 1117.89,-253.57 1107.29,-253.5 1109.56,-260.12"/>
</g>
<!-- Node24 -->
<g id="node24" class="node">
<title>Node24</title>
<g id="a_node24"><a xlink:href="classGPS.html#a9f0cacdc6f30465399f19ccb19edde1a" target="_top" xlink:title=" ">
<polygon fill="white" stroke="black" points="1097.5,-133.5 1097.5,-152.5 1210.5,-152.5 1210.5,-133.5 1097.5,-133.5"/>
<text text-anchor="middle" x="1154" y="-140.5" font-family="Helvetica,sans-Serif" font-size="10.00">GPS::processGPRMC</text>
</a>
</g>
</g>
<!-- Node10&#45;&gt;Node24 -->
<g id="edge30" class="edge">
<title>Node10&#45;&gt;Node24</title>
<path fill="none" stroke="midnightblue" d="M1007.28,-310.48C1032.03,-282.03 1105.75,-197.31 1137.82,-160.45"/>
<polygon fill="midnightblue" stroke="midnightblue" points="1140.76,-162.4 1144.68,-152.56 1135.47,-157.81 1140.76,-162.4"/>
</g>
<!-- Node28 -->
<g id="node28" class="node">
<title>Node28</title>
<g id="a_node28"><a xlink:href="classGPS.html#a125284d30c7901ba52ed190e519bc3b2" target="_top" xlink:title=" ">
<polygon fill="white" stroke="black" points="1093,-272.5 1093,-291.5 1215,-291.5 1215,-272.5 1093,-272.5"/>
<text text-anchor="middle" x="1154" y="-279.5" font-family="Helvetica,sans-Serif" font-size="10.00">GPS::removeNMEAmsg</text>
</a>
</g>
</g>
<!-- Node10&#45;&gt;Node28 -->
<g id="edge38" class="edge">
<title>Node10&#45;&gt;Node28</title>
<path fill="none" stroke="midnightblue" d="M1037.86,-310.41C1058.09,-305.42 1083.02,-299.27 1104.5,-293.97"/>
<polygon fill="midnightblue" stroke="midnightblue" points="1105.55,-297.31 1114.42,-291.52 1103.87,-290.52 1105.55,-297.31"/>
</g>
<!-- Node30 -->
<g id="node30" class="node">
<title>Node30</title>
<g id="a_node30"><a xlink:href="classGPS.html#a052c61711107964bbde54f86edb110ff" target="_top" xlink:title=" ">
<polygon fill="white" stroke="black" points="1103.5,-386.5 1103.5,-405.5 1204.5,-405.5 1204.5,-386.5 1103.5,-386.5"/>
<text text-anchor="middle" x="1154" y="-393.5" font-family="Helvetica,sans-Serif" font-size="10.00">GPS::setGPS10HZ</text>
</a>
</g>
</g>
<!-- Node10&#45;&gt;Node30 -->
<g id="edge41" class="edge">
<title>Node10&#45;&gt;Node30</title>
<path fill="none" stroke="midnightblue" d="M1014.98,-329.65C1033.43,-340.59 1064.86,-358.65 1093,-372 1100.87,-375.73 1109.48,-379.41 1117.66,-382.72"/>
<polygon fill="midnightblue" stroke="midnightblue" points="1116.42,-385.99 1127,-386.42 1118.99,-379.48 1116.42,-385.99"/>
</g>
<!-- Node12&#45;&gt;Node4 -->
<g id="edge25" class="edge">
<title>Node12&#45;&gt;Node4</title>
<path fill="none" stroke="midnightblue" d="M1202.43,-253.6C1207.12,-256.06 1211.45,-259.14 1215,-263 1263.78,-315.99 1201.18,-368.99 1251,-421 1252.4,-422.46 1253.89,-423.8 1255.47,-425.05"/>
<polygon fill="midnightblue" stroke="midnightblue" points="1253.64,-428.04 1263.95,-430.49 1257.42,-422.15 1253.64,-428.04"/>
</g>
<!-- Node13 -->
<g id="node13" class="node">
<title>Node13</title>
<g id="a_node13"><a xlink:href="classGPS.html#a894018a07e73bdc11af81f5db97f6b28" target="_top" xlink:title=" ">
<polygon fill="white" stroke="black" points="1270,-152.5 1270,-171.5 1373,-171.5 1373,-152.5 1270,-152.5"/>
<text text-anchor="middle" x="1321.5" y="-159.5" font-family="Helvetica,sans-Serif" font-size="10.00">GPS::checknewLap</text>
</a>
</g>
</g>
<!-- Node12&#45;&gt;Node13 -->
<g id="edge18" class="edge">
<title>Node12&#45;&gt;Node13</title>
<path fill="none" stroke="midnightblue" d="M1167,-234.31C1184.5,-220.63 1218.47,-195.67 1251,-181 1256.26,-178.63 1261.88,-176.49 1267.56,-174.59"/>
<polygon fill="midnightblue" stroke="midnightblue" points="1268.62,-177.92 1277.12,-171.6 1266.53,-171.24 1268.62,-177.92"/>
</g>
<!-- Node18 -->
<g id="node18" class="node">
<title>Node18</title>
<g id="a_node18"><a xlink:href="classGPS.html#a75bada3072c3235ae1d076d5ce002175" target="_top" xlink:title=" ">
<polygon fill="white" stroke="black" points="1261,-114.5 1261,-133.5 1382,-133.5 1382,-114.5 1261,-114.5"/>
<text text-anchor="middle" x="1321.5" y="-121.5" font-family="Helvetica,sans-Serif" font-size="10.00">GPS::convertToDecimal</text>
</a>
</g>
</g>
<!-- Node12&#45;&gt;Node18 -->
<g id="edge23" class="edge">
<title>Node12&#45;&gt;Node18</title>
<path fill="none" stroke="midnightblue" d="M1161.43,-234.28C1175.3,-214.08 1210.09,-167.45 1251,-143 1254.62,-140.83 1258.5,-138.91 1262.5,-137.2"/>
<polygon fill="midnightblue" stroke="midnightblue" points="1263.89,-140.41 1271.99,-133.59 1261.4,-133.87 1263.89,-140.41"/>
</g>
<!-- Node19 -->
<g id="node19" class="node">
<title>Node19</title>
<g id="a_node19"><a xlink:href="classDashBoard.html#a998569aa565c0a5a872810160266f681" target="_top" xlink:title=" ">
<polygon fill="white" stroke="black" points="1256,-354.5 1256,-373.5 1387,-373.5 1387,-354.5 1256,-354.5"/>
<text text-anchor="middle" x="1321.5" y="-361.5" font-family="Helvetica,sans-Serif" font-size="10.00">DashBoard::setgpsAltitude</text>
</a>
</g>
</g>
<!-- Node12&#45;&gt;Node19 -->
<g id="edge24" class="edge">
<title>Node12&#45;&gt;Node19</title>
<path fill="none" stroke="midnightblue" d="M1200.22,-253.59C1205.6,-256.05 1210.69,-259.13 1215,-263 1244.61,-289.6 1220.87,-319 1251,-345 1252.95,-346.68 1255.03,-348.21 1257.21,-349.61"/>
<polygon fill="midnightblue" stroke="midnightblue" points="1255.6,-352.72 1266.07,-354.37 1258.91,-346.55 1255.6,-352.72"/>
</g>
<!-- Node20 -->
<g id="node20" class="node">
<title>Node20</title>
<g id="a_node20"><a xlink:href="classDashBoard.html#a5eb7cceabcdbd62521c9512cba7fbf02" target="_top" xlink:title=" ">
<polygon fill="white" stroke="black" points="1258,-316.5 1258,-335.5 1385,-335.5 1385,-316.5 1258,-316.5"/>
<text text-anchor="middle" x="1321.5" y="-323.5" font-family="Helvetica,sans-Serif" font-size="10.00">DashBoard::setgpsHDOP</text>
</a>
</g>
</g>
<!-- Node12&#45;&gt;Node20 -->
<g id="edge26" class="edge">
<title>Node12&#45;&gt;Node20</title>
<path fill="none" stroke="midnightblue" d="M1196.14,-253.58C1202.74,-256.07 1209.28,-259.17 1215,-263 1235.71,-276.87 1230.11,-292.4 1251,-306 1254.83,-308.49 1258.98,-310.68 1263.28,-312.61"/>
<polygon fill="midnightblue" stroke="midnightblue" points="1262.27,-315.97 1272.86,-316.4 1264.85,-309.46 1262.27,-315.97"/>
</g>
<!-- Node21 -->
<g id="node21" class="node">
<title>Node21</title>
<g id="a_node21"><a xlink:href="classDashBoard.html#a13f7ff18107138daa6618a4564e935be" target="_top" xlink:title=" ">
<polygon fill="white" stroke="black" points="1254.5,-228.5 1254.5,-247.5 1388.5,-247.5 1388.5,-228.5 1254.5,-228.5"/>
<text text-anchor="middle" x="1321.5" y="-235.5" font-family="Helvetica,sans-Serif" font-size="10.00">DashBoard::setgpsLatitude</text>
</a>
</g>
</g>
<!-- Node12&#45;&gt;Node21 -->
<g id="edge27" class="edge">
<title>Node12&#45;&gt;Node21</title>
<path fill="none" stroke="midnightblue" d="M1210.57,-241.99C1221.35,-241.59 1232.83,-241.18 1244.15,-240.77"/>
<polygon fill="midnightblue" stroke="midnightblue" points="1244.6,-244.25 1254.47,-240.39 1244.35,-237.26 1244.6,-244.25"/>
</g>
<!-- Node22 -->
<g id="node22" class="node">
<title>Node22</title>
<g id="a_node22"><a xlink:href="classDashBoard.html#a32b0f4d9b9cdbecb02c96c9e814f0114" target="_top" xlink:title=" ">
<polygon fill="white" stroke="black" points="1251,-190.5 1251,-209.5 1392,-209.5 1392,-190.5 1251,-190.5"/>
<text text-anchor="middle" x="1321.5" y="-197.5" font-family="Helvetica,sans-Serif" font-size="10.00">DashBoard::setgpsLongitude</text>
</a>
</g>
</g>
<!-- Node12&#45;&gt;Node22 -->
<g id="edge28" class="edge">
<title>Node12&#45;&gt;Node22</title>
<path fill="none" stroke="midnightblue" d="M1190.91,-234.45C1215.53,-227.91 1248.39,-219.17 1274.86,-212.13"/>
<polygon fill="midnightblue" stroke="midnightblue" points="1275.89,-215.48 1284.66,-209.53 1274.1,-208.72 1275.89,-215.48"/>
</g>
<!-- Node23 -->
<g id="node23" class="node">
<title>Node23</title>
<g id="a_node23"><a xlink:href="classDashBoard.html#a3e4b2d7b59990a8fcf2d6b561ad30fba" target="_top" xlink:title=" ">
<polygon fill="white" stroke="black" points="1257.5,-267 1257.5,-297 1385.5,-297 1385.5,-267 1257.5,-267"/>
<text text-anchor="start" x="1265.5" y="-285" font-family="Helvetica,sans-Serif" font-size="10.00">DashBoard::setgpsVisible</text>
<text text-anchor="middle" x="1321.5" y="-274" font-family="Helvetica,sans-Serif" font-size="10.00">Satelites</text>
</a>
</g>
</g>
<!-- Node12&#45;&gt;Node23 -->
<g id="edge29" class="edge">
<title>Node12&#45;&gt;Node23</title>
<path fill="none" stroke="midnightblue" d="M1196.76,-253.59C1212.13,-257.12 1230.02,-261.23 1247.35,-265.2"/>
<polygon fill="midnightblue" stroke="midnightblue" points="1246.93,-268.7 1257.46,-267.53 1248.5,-261.88 1246.93,-268.7"/>
</g>
<!-- Node14 -->
<g id="node14" class="node">
<title>Node14</title>
<g id="a_node14"><a xlink:href="gps_8cpp.html#a356f47852da8a45bf4dd9944e08b7d3e" target="_top" xlink:title=" ">
<polygon fill="white" stroke="black" points="1465,-209.5 1465,-228.5 1524,-228.5 1524,-209.5 1465,-209.5"/>
<text text-anchor="middle" x="1494.5" y="-216.5" font-family="Helvetica,sans-Serif" font-size="10.00">fastestlap</text>
</a>
</g>
</g>
<!-- Node13&#45;&gt;Node14 -->
<g id="edge19" class="edge">
<title>Node13&#45;&gt;Node14</title>
<path fill="none" stroke="midnightblue" d="M1363.41,-171.58C1372.93,-174.25 1382.93,-177.42 1392,-181 1408.83,-187.65 1411.23,-193.22 1428,-200 1436.53,-203.45 1445.93,-206.55 1454.87,-209.21"/>
<polygon fill="midnightblue" stroke="midnightblue" points="1454.12,-212.64 1464.7,-212.01 1456.04,-205.9 1454.12,-212.64"/>
</g>
<!-- Node15 -->
<g id="node15" class="node">
<title>Node15</title>
<g id="a_node15"><a xlink:href="classDashBoard.html#ae5d69bcab58e2e497902387d03cc9146" target="_top" xlink:title=" ">
<polygon fill="white" stroke="black" points="1428,-171.5 1428,-190.5 1561,-190.5 1561,-171.5 1428,-171.5"/>
<text text-anchor="middle" x="1494.5" y="-178.5" font-family="Helvetica,sans-Serif" font-size="10.00">DashBoard::setbestlaptime</text>
</a>
</g>
</g>
<!-- Node13&#45;&gt;Node15 -->
<g id="edge20" class="edge">
<title>Node13&#45;&gt;Node15</title>
<path fill="none" stroke="midnightblue" d="M1373.34,-167.65C1387.26,-169.2 1402.65,-170.91 1417.65,-172.57"/>
<polygon fill="midnightblue" stroke="midnightblue" points="1417.61,-176.09 1427.94,-173.72 1418.39,-169.13 1417.61,-176.09"/>
</g>
<!-- Node16 -->
<g id="node16" class="node">
<title>Node16</title>
<g id="a_node16"><a xlink:href="classDashBoard.html#af147e933576adcd81892aca4e74df784" target="_top" xlink:title=" ">
<polygon fill="white" stroke="black" points="1430,-133.5 1430,-152.5 1559,-152.5 1559,-133.5 1430,-133.5"/>
<text text-anchor="middle" x="1494.5" y="-140.5" font-family="Helvetica,sans-Serif" font-size="10.00">DashBoard::setcurrentLap</text>
</a>
</g>
</g>
<!-- Node13&#45;&gt;Node16 -->
<g id="edge21" class="edge">
<title>Node13&#45;&gt;Node16</title>
<path fill="none" stroke="midnightblue" d="M1373.34,-156.35C1387.88,-154.74 1404.02,-152.94 1419.64,-151.21"/>
<polygon fill="midnightblue" stroke="midnightblue" points="1420.25,-154.66 1429.81,-150.08 1419.48,-147.7 1420.25,-154.66"/>
</g>
<!-- Node17 -->
<g id="node17" class="node">
<title>Node17</title>
<g id="a_node17"><a xlink:href="classDashBoard.html#a023ed00fbd93bad06e98426b7583022c" target="_top" xlink:title=" ">
<polygon fill="white" stroke="black" points="1437.5,-95.5 1437.5,-114.5 1551.5,-114.5 1551.5,-95.5 1437.5,-95.5"/>
<text text-anchor="middle" x="1494.5" y="-102.5" font-family="Helvetica,sans-Serif" font-size="10.00">DashBoard::setlaptime</text>
</a>
</g>
</g>
<!-- Node13&#45;&gt;Node17 -->
<g id="edge22" class="edge">
<title>Node13&#45;&gt;Node17</title>
<path fill="none" stroke="midnightblue" d="M1363.41,-152.42C1372.93,-149.75 1382.93,-146.58 1392,-143 1408.83,-136.35 1411.23,-130.78 1428,-124 1433.76,-121.67 1439.92,-119.5 1446.06,-117.52"/>
<polygon fill="midnightblue" stroke="midnightblue" points="1447.12,-120.85 1455.64,-114.56 1445.06,-114.16 1447.12,-120.85"/>
</g>
<!-- Node24&#45;&gt;Node13 -->
<g id="edge31" class="edge">
<title>Node24&#45;&gt;Node13</title>
<path fill="none" stroke="midnightblue" d="M1210.57,-149.38C1226.28,-151.18 1243.47,-153.16 1259.49,-155"/>
<polygon fill="midnightblue" stroke="midnightblue" points="1259.48,-158.52 1269.81,-156.18 1260.28,-151.56 1259.48,-158.52"/>
</g>
<!-- Node24&#45;&gt;Node18 -->
<g id="edge32" class="edge">
<title>Node24&#45;&gt;Node18</title>
<path fill="none" stroke="midnightblue" d="M1210.57,-136.62C1223.44,-135.14 1237.3,-133.55 1250.69,-132.01"/>
<polygon fill="midnightblue" stroke="midnightblue" points="1251.28,-135.47 1260.82,-130.85 1250.49,-128.51 1251.28,-135.47"/>
</g>
<!-- Node24&#45;&gt;Node21 -->
<g id="edge34" class="edge">
<title>Node24&#45;&gt;Node21</title>
<path fill="none" stroke="midnightblue" d="M1164.43,-152.68C1180.65,-168.78 1215.53,-201.06 1251,-219 1255.56,-221.3 1260.43,-223.36 1265.4,-225.18"/>
<polygon fill="midnightblue" stroke="midnightblue" points="1264.42,-228.55 1275.02,-228.41 1266.65,-221.91 1264.42,-228.55"/>
</g>
<!-- Node24&#45;&gt;Node22 -->
<g id="edge35" class="edge">
<title>Node24&#45;&gt;Node22</title>
<path fill="none" stroke="midnightblue" d="M1177.24,-152.61C1196.54,-160.76 1225.32,-172.44 1251,-181 1258.1,-183.37 1265.67,-185.66 1273.11,-187.8"/>
<polygon fill="midnightblue" stroke="midnightblue" points="1272.19,-191.17 1282.76,-190.49 1274.07,-184.43 1272.19,-191.17"/>
</g>
<!-- Node25 -->
<g id="node25" class="node">
<title>Node25</title>
<g id="a_node25"><a xlink:href="classDashBoard.html#a7efb6b0a187fa08bf3543c8ce0d40738" target="_top" xlink:title=" ">
<polygon fill="white" stroke="black" points="1256.5,-76.5 1256.5,-95.5 1386.5,-95.5 1386.5,-76.5 1256.5,-76.5"/>
<text text-anchor="middle" x="1321.5" y="-83.5" font-family="Helvetica,sans-Serif" font-size="10.00">DashBoard::setgpsbearing</text>
</a>
</g>
</g>
<!-- Node24&#45;&gt;Node25 -->
<g id="edge33" class="edge">
<title>Node24&#45;&gt;Node25</title>
<path fill="none" stroke="midnightblue" d="M1177.24,-133.39C1196.54,-125.24 1225.32,-113.56 1251,-105 1258.1,-102.63 1265.67,-100.34 1273.11,-98.2"/>
<polygon fill="midnightblue" stroke="midnightblue" points="1274.07,-101.57 1282.76,-95.51 1272.19,-94.83 1274.07,-101.57"/>
</g>
<!-- Node26 -->
<g id="node26" class="node">
<title>Node26</title>
<g id="a_node26"><a xlink:href="classDashBoard.html#a16ed8cfba91338bea76b8ab5acd2a1c2" target="_top" xlink:title=" ">
<polygon fill="white" stroke="black" points="1258.5,-38.5 1258.5,-57.5 1384.5,-57.5 1384.5,-38.5 1258.5,-38.5"/>
<text text-anchor="middle" x="1321.5" y="-45.5" font-family="Helvetica,sans-Serif" font-size="10.00">DashBoard::setgpsSpeed</text>
</a>
</g>
</g>
<!-- Node24&#45;&gt;Node26 -->
<g id="edge36" class="edge">
<title>Node24&#45;&gt;Node26</title>
<path fill="none" stroke="midnightblue" d="M1164.43,-133.32C1180.65,-117.22 1215.53,-84.94 1251,-67 1255.56,-64.7 1260.43,-62.64 1265.4,-60.82"/>
<polygon fill="midnightblue" stroke="midnightblue" points="1266.65,-64.09 1275.02,-57.59 1264.42,-57.45 1266.65,-64.09"/>
</g>
<!-- Node27 -->
<g id="node27" class="node">
<title>Node27</title>
<g id="a_node27"><a xlink:href="classDashBoard.html#ae93b793d4f4bd43d954cc08ccb8431e4" target="_top" xlink:title=" ">
<polygon fill="white" stroke="black" points="1261.5,-0.5 1261.5,-19.5 1381.5,-19.5 1381.5,-0.5 1261.5,-0.5"/>
<text text-anchor="middle" x="1321.5" y="-7.5" font-family="Helvetica,sans-Serif" font-size="10.00">DashBoard::setgpsTime</text>
</a>
</g>
</g>
<!-- Node24&#45;&gt;Node27 -->
<g id="edge37" class="edge">
<title>Node24&#45;&gt;Node27</title>
<path fill="none" stroke="midnightblue" d="M1160.32,-133.35C1172.99,-111.32 1207.18,-57.02 1251,-29 1254.34,-26.86 1257.92,-24.96 1261.63,-23.28"/>
<polygon fill="midnightblue" stroke="midnightblue" points="1263.07,-26.47 1271.06,-19.5 1260.47,-19.97 1263.07,-26.47"/>
</g>
<!-- Node28&#45;&gt;Node4 -->
<g id="edge39" class="edge">
<title>Node28&#45;&gt;Node4</title>
<path fill="none" stroke="midnightblue" d="M1201.58,-291.55C1206.54,-294.01 1211.17,-297.11 1215,-301 1254.07,-340.67 1211.15,-382.11 1251,-421 1252.48,-422.44 1254.05,-423.78 1255.71,-425.01"/>
<polygon fill="midnightblue" stroke="midnightblue" points="1254.2,-428.19 1264.56,-430.4 1257.84,-422.21 1254.2,-428.19"/>
</g>
<!-- Node29 -->
<g id="node29" class="node">
<title>Node29</title>
<g id="a_node29"><a xlink:href="classGPS.html#aeae2cbce7d09b6441ebd1b788dac12b7" target="_top" xlink:title=" ">
<polygon fill="white" stroke="black" points="1273.5,-392.5 1273.5,-411.5 1369.5,-411.5 1369.5,-392.5 1273.5,-392.5"/>
<text text-anchor="middle" x="1321.5" y="-399.5" font-family="Helvetica,sans-Serif" font-size="10.00">GPS::setGPSOnly</text>
</a>
</g>
</g>
<!-- Node28&#45;&gt;Node29 -->
<g id="edge40" class="edge">
<title>Node28&#45;&gt;Node29</title>
<path fill="none" stroke="midnightblue" d="M1200.22,-291.59C1205.6,-294.05 1210.69,-297.13 1215,-301 1244.61,-327.6 1220.87,-357 1251,-383 1254.77,-386.25 1259.04,-388.95 1263.58,-391.19"/>
<polygon fill="midnightblue" stroke="midnightblue" points="1262.59,-394.57 1273.16,-395.18 1265.27,-388.11 1262.59,-394.57"/>
</g>
<!-- Node30&#45;&gt;Node4 -->
<g id="edge42" class="edge">
<title>Node30&#45;&gt;Node4</title>
<path fill="none" stroke="midnightblue" d="M1190.91,-405.55C1215.53,-412.09 1248.39,-420.83 1274.86,-427.87"/>
<polygon fill="midnightblue" stroke="midnightblue" points="1274.1,-431.28 1284.66,-430.47 1275.89,-424.52 1274.1,-431.28"/>
</g>
<!-- Node31&#45;&gt;Node3 -->
<g id="edge50" class="edge">
<title>Node31&#45;&gt;Node3</title>
<path fill="none" stroke="midnightblue" d="M218.19,-348.35C235,-335.71 266.77,-314.21 298,-306 481.08,-257.84 708.93,-332.08 792.92,-363.78"/>
<polygon fill="midnightblue" stroke="midnightblue" points="791.85,-367.11 802.44,-367.42 794.35,-360.58 791.85,-367.11"/>
</g>
<!-- Node31&#45;&gt;Node5 -->
<g id="edge51" class="edge">
<title>Node31&#45;&gt;Node5</title>
<path fill="none" stroke="midnightblue" d="M217.03,-367.88C228.86,-378.79 247.87,-397.17 262,-415 280.6,-438.49 273,-455.49 298,-472 369.2,-519.01 610.27,-542.33 740.63,-551.75"/>
<polygon fill="midnightblue" stroke="midnightblue" points="740.75,-555.26 750.97,-552.48 741.25,-548.28 740.75,-555.26"/>
</g>
<!-- Node31&#45;&gt;Node6 -->
<g id="edge52" class="edge">
<title>Node31&#45;&gt;Node6</title>
<path fill="none" stroke="midnightblue" d="M220.6,-367.63C245.61,-384.13 296.85,-417.94 326.8,-437.7"/>
<polygon fill="midnightblue" stroke="midnightblue" points="325.09,-440.76 335.36,-443.34 328.94,-434.91 325.09,-440.76"/>
</g>
<!-- Node31&#45;&gt;Node9 -->
<g id="edge53" class="edge">
<title>Node31&#45;&gt;Node9</title>
<path fill="none" stroke="midnightblue" d="M214.19,-348.48C228.96,-332.14 261.91,-299.31 298,-287 472.11,-227.63 696.96,-281.35 786.59,-307.55"/>
<polygon fill="midnightblue" stroke="midnightblue" points="785.76,-310.96 796.34,-310.45 787.76,-304.25 785.76,-310.96"/>
</g>
</g>
</svg>
        <g id="navigator" transform="translate(0 0)" fill="#404254">
                <rect fill="#f2f5e9" fill-opacity="0.5" stroke="#606060" stroke-width=".5" x="0" y="0" width="60" height="60"/>
                <use id="zoomplus" xlink:href="#zoomPlus" x="17" y="9" onmousedown="handleZoom(evt,'in')"/>
                <use id="zoomminus" xlink:href="#zoomMin" x="42" y="9" onmousedown="handleZoom(evt,'out')"/>
                <use id="reset" xlink:href="#resetDef" x="30" y="36" onmousedown="handleReset()"/>
                <g id="arrowUp" xlink:href="#dirArrow" transform="translate(30 24)" onmousedown="handlePan(0,-1)">
                  <use xlink:href="#rim" fill="#404040">
                        <set attributeName="fill" to="#808080" begin="arrowUp.mouseover" end="arrowUp.mouseout"/>
                  </use>
                  <path fill="none" stroke="white" stroke-width="1.5" d="M0,-3.0v7 M-2.5,-0.5L0,-3.0L2.5,-0.5"/>
                </g>
                <g id="arrowRight" xlink:href="#dirArrow" transform="rotate(90) translate(36 -43)" onmousedown="handlePan(1,0)">
                  <use xlink:href="#rim" fill="#404040">
                        <set attributeName="fill" to="#808080" begin="arrowRight.mouseover" end="arrowRight.mouseout"/>
                  </use>
                  <path fill="none" stroke="white" stroke-width="1.5" d="M0,-3.0v7 M-2.5,-0.5L0,-3.0L2.5,-0.5"/>
                </g>
                <g id="arrowDown" xlink:href="#dirArrow" transform="rotate(180) translate(-30 -48)" onmousedown="handlePan(0,1)">
                  <use xlink:href="#rim" fill="#404040">
                        <set attributeName="fill" to="#808080" begin="arrowDown.mouseover" end="arrowDown.mouseout"/>
                  </use>
                  <path fill="none" stroke="white" stroke-width="1.5" d="M0,-3.0v7 M-2.5,-0.5L0,-3.0L2.5,-0.5"/>
                </g>
                <g id="arrowLeft" xlink:href="#dirArrow" transform="rotate(270) translate(-36 17)" onmousedown="handlePan(-1,0)">
                  <use xlink:href="#rim" fill="#404040">
                        <set attributeName="fill" to="#808080" begin="arrowLeft.mouseover" end="arrowLeft.mouseout"/>
                  </use>
                  <path fill="none" stroke="white" stroke-width="1.5" d="M0,-3.0v7 M-2.5,-0.5L0,-3.0L2.5,-0.5"/>
                </g>
        </g>
        <svg viewBox="0 0 15 15" width="100%" height="30px" preserveAspectRatio="xMaxYMin meet">
         <g id="arrow_out" transform="scale(0.3 0.3)">
          <a xlink:href="classGPS_a51eaea2422dd980ea0a6d28f12a136de_cgraph_org.svg" target="_base">
           <rect id="button" ry="5" rx="5" y="6" x="6" height="38" width="38"
                fill="#f2f5e9" fill-opacity="0.5" stroke="#606060" stroke-width="1.0"/>
           <path id="arrow"
             d="M 11.500037,31.436501 C 11.940474,20.09759 22.043105,11.32322 32.158766,21.979434 L 37.068811,17.246167 C 37.068811,17.246167 37.088388,32 37.088388,32 L 22.160133,31.978069 C 22.160133,31.978069 26.997745,27.140456 26.997745,27.140456 C 18.528582,18.264221 13.291696,25.230495 11.500037,31.436501 z"
             style="fill:#404040;"/>
          </a>
         </g>
        </svg>
</svg>
