<?xml version="1.0" encoding="UTF-8" standalone="no"?>
<!DOCTYPE svg PUBLIC "-//W3C//DTD SVG 1.1//EN"
 "http://www.w3.org/Graphics/SVG/1.1/DTD/svg11.dtd">
<!-- Generated by graphviz version 2.49.3 (20211027.1534)
 -->
<!-- Title: GPS::ProcessMessage Pages: 1 -->
<!--zoomable 980 -->
<svg id="main" version="1.1" xmlns="http://www.w3.org/2000/svg" xmlns:xlink="http://www.w3.org/1999/xlink" xml:space="preserve" onload="init(evt)">
<style type="text/css"><![CDATA[
.edge:hover path { stroke: red; }
.edge:hover polygon { stroke: red; fill: red; }
]]></style>
<script type="text/javascript"><![CDATA[
var edges = document.getElementsByTagName('g');
if (edges && edges.length) {
  for (var i=0;i<edges.length;i++) {
    if (edges[i].id.substr(0,4)=='edge') {
      edges[i].setAttribute('class','edge');
    }
  }
}
]]></script>
        <defs>
                <circle id="rim" cx="0" cy="0" r="7"/>
                <circle id="rim2" cx="0" cy="0" r="3.5"/>
                <g id="zoomPlus">
                        <use xlink:href="#rim" fill="#404040">
                                <set attributeName="fill" to="#808080" begin="zoomplus.mouseover" end="zoomplus.mouseout"/>
                        </use>
                        <path d="M-4,0h8M0,-4v8" fill="none" stroke="white" stroke-width="1.5" pointer-events="none"/>
                </g>
                <g id="zoomMin">
                        <use xlink:href="#rim" fill="#404040">
                                <set attributeName="fill" to="#808080" begin="zoomminus.mouseover" end="zoomminus.mouseout"/>
                        </use>
                        <path d="M-4,0h8" fill="none" stroke="white" stroke-width="1.5" pointer-events="none"/>
                </g>
                <g id="dirArrow">
                        <path fill="none" stroke="white" stroke-width="1.5" d="M0,-3.0v7 M-2.5,-0.5L0,-3.0L2.5,-0.5"/>
                </g>
               <g id="resetDef">
                       <use xlink:href="#rim2" fill="#404040">
                               <set attributeName="fill" to="#808080" begin="reset.mouseover" end="reset.mouseout"/>
                       </use>
               </g>
        </defs>

<script type="text/javascript">
var viewWidth = 1257;
var viewHeight = 980;
var sectionId = 'dynsection-24';
</script>
<script xlink:href="svgpan.js"/>
<svg id="graph" class="graph">
<g id="viewport">
<title>GPS::ProcessMessage</title>
<polygon fill="white" stroke="transparent" points="-4,4 -4,-976 1253,-976 1253,4 -4,4"/>
<!-- Node1 -->
<g id="node1" class="node">
<title>Node1</title>
<g id="a_node1"><a xlink:title=" ">
<polygon fill="#bfbfbf" stroke="black" points="0,-503.5 0,-522.5 118,-522.5 118,-503.5 0,-503.5"/>
<text text-anchor="middle" x="59" y="-510.5" font-family="Helvetica,sans-Serif" font-size="10.00">GPS::ProcessMessage</text>
</a>
</g>
</g>
<!-- Node2 -->
<g id="node2" class="node">
<title>Node2</title>
<g id="a_node2"><a xlink:href="classGPS.html#a20f1883fa42ff859903a07444ac15628" target="_top" xlink:title=" ">
<polygon fill="white" stroke="black" points="173.5,-838.5 173.5,-857.5 256.5,-857.5 256.5,-838.5 173.5,-838.5"/>
<text text-anchor="middle" x="215" y="-845.5" font-family="Helvetica,sans-Serif" font-size="10.00">GPS::logNMEA</text>
</a>
</g>
</g>
<!-- Node1&#45;&gt;Node2 -->
<g id="edge1" class="edge">
<title>Node1&#45;&gt;Node2</title>
<path fill="none" stroke="midnightblue" d="M59.83,-522.57C59.59,-564.97 64.34,-737.75 154,-829 157.02,-832.07 160.52,-834.64 164.3,-836.8"/>
<polygon fill="midnightblue" stroke="midnightblue" points="162.96,-840.04 173.49,-841.12 165.93,-833.7 162.96,-840.04"/>
</g>
<!-- Node3 -->
<g id="node3" class="node">
<title>Node3</title>
<g id="a_node3"><a xlink:href="classGPS.html#a6fbf5e49f6a05b056835666f2e1cb830" target="_top" xlink:title=" ">
<polygon fill="white" stroke="black" points="158.5,-680.5 158.5,-699.5 271.5,-699.5 271.5,-680.5 158.5,-680.5"/>
<text text-anchor="middle" x="215" y="-687.5" font-family="Helvetica,sans-Serif" font-size="10.00">GPS::processGPGGA</text>
</a>
</g>
</g>
<!-- Node1&#45;&gt;Node3 -->
<g id="edge2" class="edge">
<title>Node1&#45;&gt;Node3</title>
<path fill="none" stroke="midnightblue" d="M68.28,-522.52C93.03,-550.97 166.75,-635.69 198.82,-672.55"/>
<polygon fill="midnightblue" stroke="midnightblue" points="196.47,-675.19 205.68,-680.44 201.76,-670.6 196.47,-675.19"/>
</g>
<!-- Node11 -->
<g id="node11" class="node">
<title>Node11</title>
<g id="a_node11"><a xlink:href="classDashBoard.html#acd9bb1ec108194ecb9d451b430275922" target="_top" xlink:title=" ">
<polygon fill="white" stroke="black" points="1117,-370.5 1117,-389.5 1249,-389.5 1249,-370.5 1117,-370.5"/>
<text text-anchor="middle" x="1183" y="-377.5" font-family="Helvetica,sans-Serif" font-size="10.00">DashBoard::setgpsFIXtype</text>
</a>
</g>
</g>
<!-- Node1&#45;&gt;Node11 -->
<g id="edge55" class="edge">
<title>Node1&#45;&gt;Node11</title>
<path fill="none" stroke="midnightblue" d="M118.02,-518.5C182.35,-524.11 289.24,-532 381.5,-532 381.5,-532 381.5,-532 883,-532 1001.71,-532 1120.97,-435.61 1164.62,-396.35"/>
<polygon fill="midnightblue" stroke="midnightblue" points="1167.08,-398.84 1172.09,-389.51 1162.35,-393.67 1167.08,-398.84"/>
</g>
<!-- Node16 -->
<g id="node16" class="node">
<title>Node16</title>
<g id="a_node16"><a xlink:href="classGPS.html#a9f0cacdc6f30465399f19ccb19edde1a" target="_top" xlink:title=" ">
<polygon fill="white" stroke="black" points="158.5,-800.5 158.5,-819.5 271.5,-819.5 271.5,-800.5 158.5,-800.5"/>
<text text-anchor="middle" x="215" y="-807.5" font-family="Helvetica,sans-Serif" font-size="10.00">GPS::processGPRMC</text>
</a>
</g>
</g>
<!-- Node1&#45;&gt;Node16 -->
<g id="edge15" class="edge">
<title>Node1&#45;&gt;Node16</title>
<path fill="none" stroke="midnightblue" d="M64.21,-522.53C76.93,-551.17 116.41,-638.8 154,-709 169.8,-738.51 190.01,-771.7 202.47,-791.72"/>
<polygon fill="midnightblue" stroke="midnightblue" points="199.64,-793.8 207.92,-800.41 205.58,-790.08 199.64,-793.8"/>
</g>
<!-- Node20 -->
<g id="node20" class="node">
<title>Node20</title>
<g id="a_node20"><a xlink:href="classGPS.html#a125284d30c7901ba52ed190e519bc3b2" target="_top" xlink:title=" ">
<polygon fill="white" stroke="black" points="154,-484.5 154,-503.5 276,-503.5 276,-484.5 154,-484.5"/>
<text text-anchor="middle" x="215" y="-491.5" font-family="Helvetica,sans-Serif" font-size="10.00">GPS::removeNMEAmsg</text>
</a>
</g>
</g>
<!-- Node1&#45;&gt;Node20 -->
<g id="edge23" class="edge">
<title>Node1&#45;&gt;Node20</title>
<path fill="none" stroke="midnightblue" d="M118.22,-505.82C126.61,-504.78 135.31,-503.71 143.9,-502.65"/>
<polygon fill="midnightblue" stroke="midnightblue" points="144.41,-506.11 153.9,-501.41 143.55,-499.17 144.41,-506.11"/>
</g>
<!-- Node22 -->
<g id="node22" class="node">
<title>Node22</title>
<g id="a_node22"><a xlink:href="classGPS.html#a052c61711107964bbde54f86edb110ff" target="_top" xlink:title=" ">
<polygon fill="white" stroke="black" points="682.5,-408.5 682.5,-427.5 783.5,-427.5 783.5,-408.5 682.5,-408.5"/>
<text text-anchor="middle" x="733" y="-415.5" font-family="Helvetica,sans-Serif" font-size="10.00">GPS::setGPS10HZ</text>
</a>
</g>
</g>
<!-- Node1&#45;&gt;Node22 -->
<g id="edge26" class="edge">
<title>Node1&#45;&gt;Node22</title>
<path fill="none" stroke="midnightblue" d="M80.52,-503.46C99.32,-495.03 128.06,-482.88 154,-475 336.77,-419.46 565.56,-414.9 672.17,-416.29"/>
<polygon fill="midnightblue" stroke="midnightblue" points="672.35,-419.79 682.41,-416.45 672.46,-412.8 672.35,-419.79"/>
</g>
<!-- Node23 -->
<g id="node23" class="node">
<title>Node23</title>
<g id="a_node23"><a xlink:href="classGPS.html#abd750ada6a7b976f72761ce16246ccf6" target="_top" xlink:title=" ">
<polygon fill="white" stroke="black" points="155,-351.5 155,-370.5 275,-370.5 275,-351.5 155,-351.5"/>
<text text-anchor="middle" x="215" y="-358.5" font-family="Helvetica,sans-Serif" font-size="10.00">GPS::setGPSBAUD115</text>
</a>
</g>
</g>
<!-- Node1&#45;&gt;Node23 -->
<g id="edge28" class="edge">
<title>Node1&#45;&gt;Node23</title>
<path fill="none" stroke="midnightblue" d="M67.11,-503.29C81.95,-483.38 117.85,-437.04 154,-404 165.12,-393.83 178.68,-383.94 190.1,-376.21"/>
<polygon fill="midnightblue" stroke="midnightblue" points="192.3,-378.94 198.7,-370.5 188.43,-373.11 192.3,-378.94"/>
</g>
<!-- Node4 -->
<g id="node4" class="node">
<title>Node4</title>
<g id="a_node4"><a xlink:href="classGPS.html#a894018a07e73bdc11af81f5db97f6b28" target="_top" xlink:title=" ">
<polygon fill="white" stroke="black" points="331,-724.5 331,-743.5 434,-743.5 434,-724.5 331,-724.5"/>
<text text-anchor="middle" x="382.5" y="-731.5" font-family="Helvetica,sans-Serif" font-size="10.00">GPS::checknewLap</text>
</a>
</g>
</g>
<!-- Node3&#45;&gt;Node4 -->
<g id="edge3" class="edge">
<title>Node3&#45;&gt;Node4</title>
<path fill="none" stroke="midnightblue" d="M251.91,-699.55C276.53,-706.09 309.39,-714.83 335.86,-721.87"/>
<polygon fill="midnightblue" stroke="midnightblue" points="335.1,-725.28 345.66,-724.47 336.89,-718.52 335.1,-725.28"/>
</g>
<!-- Node9 -->
<g id="node9" class="node">
<title>Node9</title>
<g id="a_node9"><a xlink:href="classGPS.html#a75bada3072c3235ae1d076d5ce002175" target="_top" xlink:title=" ">
<polygon fill="white" stroke="black" points="322,-838.5 322,-857.5 443,-857.5 443,-838.5 322,-838.5"/>
<text text-anchor="middle" x="382.5" y="-845.5" font-family="Helvetica,sans-Serif" font-size="10.00">GPS::convertToDecimal</text>
</a>
</g>
</g>
<!-- Node3&#45;&gt;Node9 -->
<g id="edge8" class="edge">
<title>Node3&#45;&gt;Node9</title>
<path fill="none" stroke="midnightblue" d="M221.52,-699.72C237.91,-728.28 286.76,-811.11 312,-829 314.84,-831.01 317.89,-832.81 321.06,-834.42"/>
<polygon fill="midnightblue" stroke="midnightblue" points="319.7,-837.65 330.27,-838.48 322.52,-831.24 319.7,-837.65"/>
</g>
<!-- Node10 -->
<g id="node10" class="node">
<title>Node10</title>
<g id="a_node10"><a xlink:href="classDashBoard.html#a998569aa565c0a5a872810160266f681" target="_top" xlink:title=" ">
<polygon fill="white" stroke="black" points="317,-636.5 317,-655.5 448,-655.5 448,-636.5 317,-636.5"/>
<text text-anchor="middle" x="382.5" y="-643.5" font-family="Helvetica,sans-Serif" font-size="10.00">DashBoard::setgpsAltitude</text>
</a>
</g>
</g>
<!-- Node3&#45;&gt;Node10 -->
<g id="edge9" class="edge">
<title>Node3&#45;&gt;Node10</title>
<path fill="none" stroke="midnightblue" d="M251.91,-680.45C276.53,-673.91 309.39,-665.17 335.86,-658.13"/>
<polygon fill="midnightblue" stroke="midnightblue" points="336.89,-661.48 345.66,-655.53 335.1,-654.72 336.89,-661.48"/>
</g>
<!-- Node3&#45;&gt;Node11 -->
<g id="edge10" class="edge">
<title>Node3&#45;&gt;Node11</title>
<path fill="none" stroke="midnightblue" d="M221.69,-680.28C234.62,-659.22 268.51,-609.64 312,-589 413.48,-540.85 451.68,-570 564,-570 564,-570 564,-570 883,-570 971.64,-570 1006.49,-594.02 1081,-546 1135.48,-510.89 1165.07,-434.98 1176.45,-399.29"/>
<polygon fill="midnightblue" stroke="midnightblue" points="1179.84,-400.18 1179.4,-389.59 1173.14,-398.14 1179.84,-400.18"/>
</g>
<!-- Node12 -->
<g id="node12" class="node">
<title>Node12</title>
<g id="a_node12"><a xlink:href="classDashBoard.html#a5eb7cceabcdbd62521c9512cba7fbf02" target="_top" xlink:title=" ">
<polygon fill="white" stroke="black" points="319,-598.5 319,-617.5 446,-617.5 446,-598.5 319,-598.5"/>
<text text-anchor="middle" x="382.5" y="-605.5" font-family="Helvetica,sans-Serif" font-size="10.00">DashBoard::setgpsHDOP</text>
</a>
</g>
</g>
<!-- Node3&#45;&gt;Node12 -->
<g id="edge11" class="edge">
<title>Node3&#45;&gt;Node12</title>
<path fill="none" stroke="midnightblue" d="M228,-680.31C245.5,-666.63 279.47,-641.67 312,-627 317.26,-624.63 322.88,-622.49 328.56,-620.59"/>
<polygon fill="midnightblue" stroke="midnightblue" points="329.62,-623.92 338.12,-617.6 327.53,-617.24 329.62,-623.92"/>
</g>
<!-- Node13 -->
<g id="node13" class="node">
<title>Node13</title>
<g id="a_node13"><a xlink:href="classDashBoard.html#a13f7ff18107138daa6618a4564e935be" target="_top" xlink:title=" ">
<polygon fill="white" stroke="black" points="315.5,-800.5 315.5,-819.5 449.5,-819.5 449.5,-800.5 315.5,-800.5"/>
<text text-anchor="middle" x="382.5" y="-807.5" font-family="Helvetica,sans-Serif" font-size="10.00">DashBoard::setgpsLatitude</text>
</a>
</g>
</g>
<!-- Node3&#45;&gt;Node13 -->
<g id="edge12" class="edge">
<title>Node3&#45;&gt;Node13</title>
<path fill="none" stroke="midnightblue" d="M222.43,-699.72C236.3,-719.92 271.09,-766.55 312,-791 315.62,-793.17 319.5,-795.09 323.5,-796.8"/>
<polygon fill="midnightblue" stroke="midnightblue" points="322.4,-800.13 332.99,-800.41 324.89,-793.59 322.4,-800.13"/>
</g>
<!-- Node14 -->
<g id="node14" class="node">
<title>Node14</title>
<g id="a_node14"><a xlink:href="classDashBoard.html#a32b0f4d9b9cdbecb02c96c9e814f0114" target="_top" xlink:title=" ">
<polygon fill="white" stroke="black" points="312,-762.5 312,-781.5 453,-781.5 453,-762.5 312,-762.5"/>
<text text-anchor="middle" x="382.5" y="-769.5" font-family="Helvetica,sans-Serif" font-size="10.00">DashBoard::setgpsLongitude</text>
</a>
</g>
</g>
<!-- Node3&#45;&gt;Node14 -->
<g id="edge13" class="edge">
<title>Node3&#45;&gt;Node14</title>
<path fill="none" stroke="midnightblue" d="M228,-699.69C245.5,-713.37 279.47,-738.33 312,-753 317.26,-755.37 322.88,-757.51 328.56,-759.41"/>
<polygon fill="midnightblue" stroke="midnightblue" points="327.53,-762.76 338.12,-762.4 329.62,-756.08 327.53,-762.76"/>
</g>
<!-- Node15 -->
<g id="node15" class="node">
<title>Node15</title>
<g id="a_node15"><a xlink:href="classDashBoard.html#a3e4b2d7b59990a8fcf2d6b561ad30fba" target="_top" xlink:title=" ">
<polygon fill="white" stroke="black" points="318.5,-675 318.5,-705 446.5,-705 446.5,-675 318.5,-675"/>
<text text-anchor="start" x="326.5" y="-693" font-family="Helvetica,sans-Serif" font-size="10.00">DashBoard::setgpsVisible</text>
<text text-anchor="middle" x="382.5" y="-682" font-family="Helvetica,sans-Serif" font-size="10.00">Satelites</text>
</a>
</g>
</g>
<!-- Node3&#45;&gt;Node15 -->
<g id="edge14" class="edge">
<title>Node3&#45;&gt;Node15</title>
<path fill="none" stroke="midnightblue" d="M271.57,-690C283.31,-690 295.87,-690 308.15,-690"/>
<polygon fill="midnightblue" stroke="midnightblue" points="308.37,-693.5 318.37,-690 308.37,-686.5 308.37,-693.5"/>
</g>
<!-- Node5 -->
<g id="node5" class="node">
<title>Node5</title>
<g id="a_node5"><a xlink:href="gps_8cpp.html#a356f47852da8a45bf4dd9944e08b7d3e" target="_top" xlink:title=" ">
<polygon fill="white" stroke="black" points="535.5,-667.5 535.5,-686.5 594.5,-686.5 594.5,-667.5 535.5,-667.5"/>
<text text-anchor="middle" x="565" y="-674.5" font-family="Helvetica,sans-Serif" font-size="10.00">fastestlap</text>
</a>
</g>
</g>
<!-- Node4&#45;&gt;Node5 -->
<g id="edge4" class="edge">
<title>Node4&#45;&gt;Node5</title>
<path fill="none" stroke="midnightblue" d="M424.41,-724.42C433.93,-721.75 443.93,-718.58 453,-715 469.83,-708.35 472.11,-702.49 489,-696 500.54,-691.57 513.48,-687.86 525.31,-684.94"/>
<polygon fill="midnightblue" stroke="midnightblue" points="526.44,-688.27 535.37,-682.57 524.83,-681.46 526.44,-688.27"/>
</g>
<!-- Node6 -->
<g id="node6" class="node">
<title>Node6</title>
<g id="a_node6"><a xlink:href="classDashBoard.html#ae5d69bcab58e2e497902387d03cc9146" target="_top" xlink:title=" ">
<polygon fill="white" stroke="black" points="498.5,-781.5 498.5,-800.5 631.5,-800.5 631.5,-781.5 498.5,-781.5"/>
<text text-anchor="middle" x="565" y="-788.5" font-family="Helvetica,sans-Serif" font-size="10.00">DashBoard::setbestlaptime</text>
</a>
</g>
</g>
<!-- Node4&#45;&gt;Node6 -->
<g id="edge5" class="edge">
<title>Node4&#45;&gt;Node6</title>
<path fill="none" stroke="midnightblue" d="M424.41,-743.58C433.93,-746.25 443.93,-749.42 453,-753 469.83,-759.65 472.11,-765.51 489,-772 495.4,-774.46 502.23,-776.69 509.07,-778.7"/>
<polygon fill="midnightblue" stroke="midnightblue" points="508.47,-782.16 519.04,-781.46 510.34,-775.42 508.47,-782.16"/>
</g>
<!-- Node7 -->
<g id="node7" class="node">
<title>Node7</title>
<g id="a_node7"><a xlink:href="classDashBoard.html#af147e933576adcd81892aca4e74df784" target="_top" xlink:title=" ">
<polygon fill="white" stroke="black" points="500.5,-743.5 500.5,-762.5 629.5,-762.5 629.5,-743.5 500.5,-743.5"/>
<text text-anchor="middle" x="565" y="-750.5" font-family="Helvetica,sans-Serif" font-size="10.00">DashBoard::setcurrentLap</text>
</a>
</g>
</g>
<!-- Node4&#45;&gt;Node7 -->
<g id="edge6" class="edge">
<title>Node4&#45;&gt;Node7</title>
<path fill="none" stroke="midnightblue" d="M434.26,-739.34C451.67,-741.18 471.53,-743.27 490.38,-745.25"/>
<polygon fill="midnightblue" stroke="midnightblue" points="490.12,-748.74 500.43,-746.31 490.85,-741.78 490.12,-748.74"/>
</g>
<!-- Node8 -->
<g id="node8" class="node">
<title>Node8</title>
<g id="a_node8"><a xlink:href="classDashBoard.html#a023ed00fbd93bad06e98426b7583022c" target="_top" xlink:title=" ">
<polygon fill="white" stroke="black" points="508,-705.5 508,-724.5 622,-724.5 622,-705.5 508,-705.5"/>
<text text-anchor="middle" x="565" y="-712.5" font-family="Helvetica,sans-Serif" font-size="10.00">DashBoard::setlaptime</text>
</a>
</g>
</g>
<!-- Node4&#45;&gt;Node8 -->
<g id="edge7" class="edge">
<title>Node4&#45;&gt;Node8</title>
<path fill="none" stroke="midnightblue" d="M434.26,-728.66C453.97,-726.58 476.82,-724.18 497.8,-721.97"/>
<polygon fill="midnightblue" stroke="midnightblue" points="498.34,-725.43 507.92,-720.9 497.61,-718.47 498.34,-725.43"/>
</g>
<!-- Node16&#45;&gt;Node4 -->
<g id="edge16" class="edge">
<title>Node16&#45;&gt;Node4</title>
<path fill="none" stroke="midnightblue" d="M229.37,-800.47C247.38,-788.02 280.77,-766.25 312,-753 317.53,-750.65 323.44,-748.52 329.38,-746.6"/>
<polygon fill="midnightblue" stroke="midnightblue" points="330.8,-749.82 339.35,-743.57 328.77,-743.12 330.8,-749.82"/>
</g>
<!-- Node16&#45;&gt;Node9 -->
<g id="edge17" class="edge">
<title>Node16&#45;&gt;Node9</title>
<path fill="none" stroke="midnightblue" d="M257.76,-819.59C279.7,-824.63 306.78,-830.84 330.01,-836.18"/>
<polygon fill="midnightblue" stroke="midnightblue" points="329.51,-839.65 340.04,-838.48 331.07,-832.83 329.51,-839.65"/>
</g>
<!-- Node16&#45;&gt;Node13 -->
<g id="edge19" class="edge">
<title>Node16&#45;&gt;Node13</title>
<path fill="none" stroke="midnightblue" d="M271.57,-810C282.35,-810 293.83,-810 305.15,-810"/>
<polygon fill="midnightblue" stroke="midnightblue" points="305.47,-813.5 315.47,-810 305.47,-806.5 305.47,-813.5"/>
</g>
<!-- Node16&#45;&gt;Node14 -->
<g id="edge20" class="edge">
<title>Node16&#45;&gt;Node14</title>
<path fill="none" stroke="midnightblue" d="M257.76,-800.41C279.7,-795.37 306.78,-789.16 330.01,-783.82"/>
<polygon fill="midnightblue" stroke="midnightblue" points="331.07,-787.17 340.04,-781.52 329.51,-780.35 331.07,-787.17"/>
</g>
<!-- Node17 -->
<g id="node17" class="node">
<title>Node17</title>
<g id="a_node17"><a xlink:href="classDashBoard.html#a7efb6b0a187fa08bf3543c8ce0d40738" target="_top" xlink:title=" ">
<polygon fill="white" stroke="black" points="317.5,-952.5 317.5,-971.5 447.5,-971.5 447.5,-952.5 317.5,-952.5"/>
<text text-anchor="middle" x="382.5" y="-959.5" font-family="Helvetica,sans-Serif" font-size="10.00">DashBoard::setgpsbearing</text>
</a>
</g>
</g>
<!-- Node16&#45;&gt;Node17 -->
<g id="edge18" class="edge">
<title>Node16&#45;&gt;Node17</title>
<path fill="none" stroke="midnightblue" d="M262.53,-819.6C267.5,-822.06 272.14,-825.14 276,-829 313.56,-866.59 273.7,-906.17 312,-943 313.49,-944.43 315.07,-945.76 316.74,-946.98"/>
<polygon fill="midnightblue" stroke="midnightblue" points="315.24,-950.17 325.62,-952.34 318.86,-944.18 315.24,-950.17"/>
</g>
<!-- Node18 -->
<g id="node18" class="node">
<title>Node18</title>
<g id="a_node18"><a xlink:href="classDashBoard.html#a16ed8cfba91338bea76b8ab5acd2a1c2" target="_top" xlink:title=" ">
<polygon fill="white" stroke="black" points="319.5,-914.5 319.5,-933.5 445.5,-933.5 445.5,-914.5 319.5,-914.5"/>
<text text-anchor="middle" x="382.5" y="-921.5" font-family="Helvetica,sans-Serif" font-size="10.00">DashBoard::setgpsSpeed</text>
</a>
</g>
</g>
<!-- Node16&#45;&gt;Node18 -->
<g id="edge21" class="edge">
<title>Node16&#45;&gt;Node18</title>
<path fill="none" stroke="midnightblue" d="M260.81,-819.57C266.31,-822.03 271.55,-825.12 276,-829 304.16,-853.58 283.36,-880.99 312,-905 314.01,-906.69 316.16,-908.23 318.42,-909.63"/>
<polygon fill="midnightblue" stroke="midnightblue" points="317.04,-912.86 327.53,-914.39 320.29,-906.66 317.04,-912.86"/>
</g>
<!-- Node19 -->
<g id="node19" class="node">
<title>Node19</title>
<g id="a_node19"><a xlink:href="classDashBoard.html#ae93b793d4f4bd43d954cc08ccb8431e4" target="_top" xlink:title=" ">
<polygon fill="white" stroke="black" points="322.5,-876.5 322.5,-895.5 442.5,-895.5 442.5,-876.5 322.5,-876.5"/>
<text text-anchor="middle" x="382.5" y="-883.5" font-family="Helvetica,sans-Serif" font-size="10.00">DashBoard::setgpsTime</text>
</a>
</g>
</g>
<!-- Node16&#45;&gt;Node19 -->
<g id="edge22" class="edge">
<title>Node16&#45;&gt;Node19</title>
<path fill="none" stroke="midnightblue" d="M255.99,-819.54C262.94,-822.06 269.89,-825.17 276,-829 295.72,-841.35 292.04,-855.05 312,-867 315.62,-869.17 319.5,-871.1 323.49,-872.81"/>
<polygon fill="midnightblue" stroke="midnightblue" points="322.4,-876.14 332.99,-876.42 324.89,-869.59 322.4,-876.14"/>
</g>
<!-- Node20&#45;&gt;Node11 -->
<g id="edge24" class="edge">
<title>Node20&#45;&gt;Node11</title>
<path fill="none" stroke="midnightblue" d="M258.35,-484.48C275,-481.04 294.32,-477.41 312,-475 423.29,-459.85 451.68,-456 564,-456 564,-456 564,-456 883,-456 983.34,-456 1096.95,-415.3 1150.67,-393.47"/>
<polygon fill="midnightblue" stroke="midnightblue" points="1152.07,-396.67 1159.98,-389.63 1149.4,-390.2 1152.07,-396.67"/>
</g>
<!-- Node21 -->
<g id="node21" class="node">
<title>Node21</title>
<g id="a_node21"><a xlink:href="classGPS.html#aeae2cbce7d09b6441ebd1b788dac12b7" target="_top" xlink:title=" ">
<polygon fill="white" stroke="black" points="334.5,-484.5 334.5,-503.5 430.5,-503.5 430.5,-484.5 334.5,-484.5"/>
<text text-anchor="middle" x="382.5" y="-491.5" font-family="Helvetica,sans-Serif" font-size="10.00">GPS::setGPSOnly</text>
</a>
</g>
</g>
<!-- Node20&#45;&gt;Node21 -->
<g id="edge25" class="edge">
<title>Node20&#45;&gt;Node21</title>
<path fill="none" stroke="midnightblue" d="M276.22,-494C291.76,-494 308.45,-494 323.86,-494"/>
<polygon fill="midnightblue" stroke="midnightblue" points="324.3,-497.5 334.3,-494 324.3,-490.5 324.3,-497.5"/>
</g>
<!-- Node22&#45;&gt;Node11 -->
<g id="edge27" class="edge">
<title>Node22&#45;&gt;Node11</title>
<path fill="none" stroke="midnightblue" d="M783.51,-415.65C850.92,-412.2 975.29,-404.97 1081,-394 1089.76,-393.09 1098.94,-392.01 1108.03,-390.85"/>
<polygon fill="midnightblue" stroke="midnightblue" points="1108.77,-394.28 1118.23,-389.52 1107.87,-387.34 1108.77,-394.28"/>
</g>
<!-- Node23&#45;&gt;Node11 -->
<g id="edge54" class="edge">
<title>Node23&#45;&gt;Node11</title>
<path fill="none" stroke="midnightblue" d="M275.06,-366.19C344.24,-371.82 462.35,-380 564,-380 564,-380 564,-380 883,-380 959.18,-380 1046.28,-380 1106.75,-380"/>
<polygon fill="midnightblue" stroke="midnightblue" points="1106.97,-383.5 1116.97,-380 1106.97,-376.5 1106.97,-383.5"/>
</g>
<!-- Node24 -->
<g id="node24" class="node">
<title>Node24</title>
<g id="a_node24"><a xlink:href="classGPS.html#a8775edfa08840ffb2647e0e5ba031fe5" target="_top" xlink:title=" ">
<polygon fill="white" stroke="black" points="323,-198.5 323,-217.5 442,-217.5 442,-198.5 323,-198.5"/>
<text text-anchor="middle" x="382.5" y="-205.5" font-family="Helvetica,sans-Serif" font-size="10.00">GPS::closeConnection1</text>
</a>
</g>
</g>
<!-- Node23&#45;&gt;Node24 -->
<g id="edge29" class="edge">
<title>Node23&#45;&gt;Node24</title>
<path fill="none" stroke="midnightblue" d="M226.35,-351.43C253.87,-325.99 329.07,-256.47 363.66,-224.49"/>
<polygon fill="midnightblue" stroke="midnightblue" points="366.18,-226.93 371.15,-217.57 361.43,-221.79 366.18,-226.93"/>
</g>
<!-- Node24&#45;&gt;Node11 -->
<g id="edge53" class="edge">
<title>Node24&#45;&gt;Node11</title>
<path fill="none" stroke="midnightblue" d="M409.24,-217.54C430.44,-225.16 461.38,-235.72 489,-243 713,-302.05 983.72,-348.54 1110.27,-368.86"/>
<polygon fill="midnightblue" stroke="midnightblue" points="1109.8,-372.33 1120.23,-370.46 1110.91,-365.42 1109.8,-372.33"/>
</g>
<!-- Node25 -->
<g id="node25" class="node">
<title>Node25</title>
<g id="a_node25"><a xlink:href="classGPS.html#a14c64eb8a4939f8f734b93ef3a21bb19" target="_top" xlink:title=" ">
<polygon fill="white" stroke="black" points="982.5,-142.5 982.5,-161.5 1073.5,-161.5 1073.5,-142.5 982.5,-142.5"/>
<text text-anchor="middle" x="1028" y="-149.5" font-family="Helvetica,sans-Serif" font-size="10.00">GPS::handleError</text>
</a>
</g>
</g>
<!-- Node24&#45;&gt;Node25 -->
<g id="edge30" class="edge">
<title>Node24&#45;&gt;Node25</title>
<path fill="none" stroke="midnightblue" d="M395.28,-198.26C413.9,-183.44 451.85,-155.52 489,-142 630.7,-90.44 674.58,-105.47 825,-95 875.54,-91.48 890.41,-80.64 939,-95 965.76,-102.91 992.02,-121.78 1008.79,-135.65"/>
<polygon fill="midnightblue" stroke="midnightblue" points="1006.77,-138.53 1016.65,-142.37 1011.32,-133.21 1006.77,-138.53"/>
</g>
<!-- Node26 -->
<g id="node26" class="node">
<title>Node26</title>
<g id="a_node26"><a xlink:href="classGPS.html#aaf69fb801bbce2ea70041e68fe0ec19a" target="_top" xlink:title=" ">
<polygon fill="white" stroke="black" points="489,-151.5 489,-170.5 641,-170.5 641,-151.5 489,-151.5"/>
<text text-anchor="middle" x="565" y="-158.5" font-family="Helvetica,sans-Serif" font-size="10.00">GPS::handleReconnectTimeout</text>
</a>
</g>
</g>
<!-- Node24&#45;&gt;Node26 -->
<g id="edge32" class="edge">
<title>Node24&#45;&gt;Node26</title>
<path fill="none" stroke="midnightblue" d="M420.03,-198.49C448.07,-191.19 486.99,-181.05 517.3,-173.16"/>
<polygon fill="midnightblue" stroke="midnightblue" points="518.42,-176.48 527.22,-170.58 516.66,-169.71 518.42,-176.48"/>
</g>
<!-- Node28 -->
<g id="node28" class="node">
<title>Node28</title>
<g id="a_node28"><a xlink:href="classGPS.html#a1b1c89214229f5dc8ff7e2fa9cbcad35" target="_top" xlink:title=" ">
<polygon fill="white" stroke="black" points="975,-256.5 975,-275.5 1081,-275.5 1081,-256.5 975,-256.5"/>
<text text-anchor="middle" x="1028" y="-263.5" font-family="Helvetica,sans-Serif" font-size="10.00">GPS::handleTimeout</text>
</a>
</g>
</g>
<!-- Node24&#45;&gt;Node28 -->
<g id="edge50" class="edge">
<title>Node24&#45;&gt;Node28</title>
<path fill="none" stroke="midnightblue" d="M442.03,-216.3C457.3,-218.32 473.75,-220.37 489,-222 660.89,-240.42 864.41,-255.14 964.73,-261.93"/>
<polygon fill="midnightblue" stroke="midnightblue" points="964.77,-265.44 974.98,-262.62 965.24,-258.46 964.77,-265.44"/>
</g>
<!-- Node29 -->
<g id="node29" class="node">
<title>Node29</title>
<g id="a_node29"><a xlink:href="classGPS.html#aa0928d156961a54bf06d9b5210d85561" target="_top" xlink:title=" ">
<polygon fill="white" stroke="black" points="978.5,-66.5 978.5,-85.5 1077.5,-85.5 1077.5,-66.5 978.5,-66.5"/>
<text text-anchor="middle" x="1028" y="-73.5" font-family="Helvetica,sans-Serif" font-size="10.00">GPS::readyToRead</text>
</a>
</g>
</g>
<!-- Node24&#45;&gt;Node29 -->
<g id="edge52" class="edge">
<title>Node24&#45;&gt;Node29</title>
<path fill="none" stroke="midnightblue" d="M389.39,-198.28C403.4,-176.18 441.15,-122.45 489,-101 649.85,-28.88 865.56,-49.42 968.1,-65.26"/>
<polygon fill="midnightblue" stroke="midnightblue" points="967.83,-68.77 978.26,-66.88 968.93,-61.85 967.83,-68.77"/>
</g>
<!-- Node30 -->
<g id="node30" class="node">
<title>Node30</title>
<g id="a_node30"><a xlink:href="classGPS.html#a51eaea2422dd980ea0a6d28f12a136de" target="_top" xlink:title=" ">
<polygon fill="white" stroke="black" points="677,-198.5 677,-217.5 789,-217.5 789,-198.5 677,-198.5"/>
<text text-anchor="middle" x="733" y="-205.5" font-family="Helvetica,sans-Serif" font-size="10.00">GPS::openConnection</text>
</a>
</g>
</g>
<!-- Node24&#45;&gt;Node30 -->
<g id="edge51" class="edge">
<title>Node24&#45;&gt;Node30</title>
<path fill="none" stroke="midnightblue" d="M442.22,-208C504.37,-208 602.19,-208 666.72,-208"/>
<polygon fill="midnightblue" stroke="midnightblue" points="666.78,-211.5 676.78,-208 666.78,-204.5 666.78,-211.5"/>
</g>
<!-- Node25&#45;&gt;Node11 -->
<g id="edge31" class="edge">
<title>Node25&#45;&gt;Node11</title>
<path fill="none" stroke="midnightblue" d="M1058.69,-161.56C1066.62,-165.16 1074.73,-169.9 1081,-176 1136.4,-229.91 1166.11,-320.54 1177.04,-360.3"/>
<polygon fill="midnightblue" stroke="midnightblue" points="1173.69,-361.32 1179.63,-370.09 1180.46,-359.53 1173.69,-361.32"/>
</g>
<!-- Node27 -->
<g id="node27" class="node">
<title>Node27</title>
<g id="a_node27"><a xlink:href="classGPS.html#ae4568ef4d5107c96c1af68d1abd33559" target="_top" xlink:title=" ">
<polygon fill="white" stroke="black" points="825,-142.5 825,-161.5 939,-161.5 939,-142.5 825,-142.5"/>
<text text-anchor="middle" x="882" y="-149.5" font-family="Helvetica,sans-Serif" font-size="10.00">GPS::closeConnection</text>
</a>
</g>
</g>
<!-- Node26&#45;&gt;Node27 -->
<g id="edge33" class="edge">
<title>Node26&#45;&gt;Node27</title>
<path fill="none" stroke="midnightblue" d="M641.05,-153.01C693.83,-150.23 763.8,-148.3 814.56,-148.27"/>
<polygon fill="midnightblue" stroke="midnightblue" points="814.76,-151.77 824.77,-148.29 814.77,-144.77 814.76,-151.77"/>
</g>
<!-- Node26&#45;&gt;Node30 -->
<g id="edge41" class="edge">
<title>Node26&#45;&gt;Node30</title>
<path fill="none" stroke="midnightblue" d="M599.59,-170.51C625.16,-177.75 660.56,-187.77 688.32,-195.63"/>
<polygon fill="midnightblue" stroke="midnightblue" points="687.6,-199.07 698.17,-198.42 689.5,-192.33 687.6,-199.07"/>
</g>
<!-- Node27&#45;&gt;Node11 -->
<g id="edge40" class="edge">
<title>Node27&#45;&gt;Node11</title>
<path fill="none" stroke="midnightblue" d="M925.52,-161.59C976.08,-173.61 1056.67,-194.97 1081,-214 1131.59,-253.57 1162.8,-326.1 1175.47,-360.68"/>
<polygon fill="midnightblue" stroke="midnightblue" points="1172.3,-362.22 1178.93,-370.48 1178.9,-359.89 1172.3,-362.22"/>
</g>
<!-- Node27&#45;&gt;Node25 -->
<g id="edge34" class="edge">
<title>Node27&#45;&gt;Node25</title>
<path fill="none" stroke="midnightblue" d="M939.09,-152C949.98,-152 961.38,-152 972.23,-152"/>
<polygon fill="midnightblue" stroke="midnightblue" points="972.43,-155.5 982.43,-152 972.43,-148.5 972.43,-155.5"/>
</g>
<!-- Node27&#45;&gt;Node26 -->
<g id="edge35" class="edge">
<title>Node27&#45;&gt;Node26</title>
<path fill="none" stroke="midnightblue" d="M824.77,-158.92C776.53,-161.91 706.29,-164.17 651.16,-164.64"/>
<polygon fill="midnightblue" stroke="midnightblue" points="651.03,-161.14 641.05,-164.71 651.07,-168.14 651.03,-161.14"/>
</g>
<!-- Node27&#45;&gt;Node28 -->
<g id="edge36" class="edge">
<title>Node27&#45;&gt;Node28</title>
<path fill="none" stroke="midnightblue" d="M919.77,-161.54C926.45,-164.08 933.14,-167.2 939,-171 955.96,-182 992.5,-224.41 1012.76,-248.68"/>
<polygon fill="midnightblue" stroke="midnightblue" points="1010.11,-250.97 1019.18,-256.43 1015.49,-246.5 1010.11,-250.97"/>
</g>
<!-- Node27&#45;&gt;Node29 -->
<g id="edge38" class="edge">
<title>Node27&#45;&gt;Node29</title>
<path fill="none" stroke="midnightblue" d="M915.53,-142.48C923.37,-139.78 931.61,-136.58 939,-133 963.28,-121.25 988.93,-104 1006.24,-91.56"/>
<polygon fill="midnightblue" stroke="midnightblue" points="1008.46,-94.27 1014.47,-85.55 1004.33,-88.62 1008.46,-94.27"/>
</g>
<!-- Node28&#45;&gt;Node23 -->
<g id="edge37" class="edge">
<title>Node28&#45;&gt;Node23</title>
<path fill="none" stroke="midnightblue" d="M974.95,-272.1C834.01,-288.61 444.87,-334.19 285.47,-352.86"/>
<polygon fill="midnightblue" stroke="midnightblue" points="284.83,-349.41 275.31,-354.05 285.65,-356.37 284.83,-349.41"/>
</g>
<!-- Node29&#45;&gt;Node1 -->
<g id="edge39" class="edge">
<title>Node29&#45;&gt;Node1</title>
<path fill="none" stroke="midnightblue" d="M1005.44,-66.37C957.62,-45.92 838.58,0 734,0 381.5,0 381.5,0 381.5,0 144.15,0 75.37,-399.18 62.45,-493.29"/>
<polygon fill="midnightblue" stroke="midnightblue" points="58.98,-492.84 61.15,-503.21 65.92,-493.75 58.98,-492.84"/>
</g>
<!-- Node30&#45;&gt;Node11 -->
<g id="edge48" class="edge">
<title>Node30&#45;&gt;Node11</title>
<path fill="none" stroke="midnightblue" d="M789.05,-208.97C874.03,-211.33 1032.44,-219.41 1081,-247 1127.45,-273.39 1159.36,-330.7 1173.6,-360.74"/>
<polygon fill="midnightblue" stroke="midnightblue" points="1170.55,-362.5 1177.89,-370.14 1176.92,-359.59 1170.55,-362.5"/>
</g>
<!-- Node30&#45;&gt;Node27 -->
<g id="edge42" class="edge">
<title>Node30&#45;&gt;Node27</title>
<path fill="none" stroke="midnightblue" d="M756.67,-198.35C774.99,-190.65 801.51,-179.75 825,-171 830.55,-168.93 836.44,-166.83 842.23,-164.82"/>
<polygon fill="midnightblue" stroke="midnightblue" points="843.49,-168.09 851.82,-161.54 841.22,-161.47 843.49,-168.09"/>
</g>
<!-- Node31 -->
<g id="node31" class="node">
<title>Node31</title>
<g id="a_node31"><a xlink:href="classGPS.html#ac2a7572afb184df9c14ae913f17306bf" target="_top" xlink:title=" ">
<polygon fill="white" stroke="black" points="833,-104.5 833,-123.5 931,-123.5 931,-104.5 833,-104.5"/>
<text text-anchor="middle" x="882" y="-111.5" font-family="Helvetica,sans-Serif" font-size="10.00">GPS::initSerialPort</text>
</a>
</g>
</g>
<!-- Node30&#45;&gt;Node31 -->
<g id="edge43" class="edge">
<title>Node30&#45;&gt;Node31</title>
<path fill="none" stroke="midnightblue" d="M743.23,-198.4C758.77,-182.73 791.73,-151.53 825,-133 828.73,-130.92 832.73,-129.01 836.81,-127.28"/>
<polygon fill="midnightblue" stroke="midnightblue" points="838.35,-130.44 846.4,-123.55 835.81,-123.92 838.35,-130.44"/>
</g>
<!-- Node32 -->
<g id="node32" class="node">
<title>Node32</title>
<g id="a_node32"><a xlink:href="classSerialPort.html#aad156293689e349b3674671f8a8d8048" target="_top" xlink:title=" ">
<polygon fill="white" stroke="black" points="831,-180.5 831,-199.5 933,-199.5 933,-180.5 831,-180.5"/>
<text text-anchor="middle" x="882" y="-187.5" font-family="Helvetica,sans-Serif" font-size="10.00">SerialPort::setParity</text>
</a>
</g>
</g>
<!-- Node30&#45;&gt;Node32 -->
<g id="edge49" class="edge">
<title>Node30&#45;&gt;Node32</title>
<path fill="none" stroke="midnightblue" d="M789.16,-201.25C799.53,-199.98 810.42,-198.64 820.93,-197.36"/>
<polygon fill="midnightblue" stroke="midnightblue" points="821.37,-200.83 830.87,-196.14 820.52,-193.88 821.37,-200.83"/>
</g>
<!-- Node31&#45;&gt;Node25 -->
<g id="edge44" class="edge">
<title>Node31&#45;&gt;Node25</title>
<path fill="none" stroke="midnightblue" d="M919.34,-123.59C938.08,-128.54 961.14,-134.62 981.11,-139.89"/>
<polygon fill="midnightblue" stroke="midnightblue" points="980.36,-143.31 990.92,-142.48 982.15,-136.54 980.36,-143.31"/>
</g>
<!-- Node31&#45;&gt;Node26 -->
<g id="edge45" class="edge">
<title>Node31&#45;&gt;Node26</title>
<path fill="none" stroke="midnightblue" d="M832.78,-121.19C781.39,-128.86 699.38,-141.1 639.84,-149.98"/>
<polygon fill="midnightblue" stroke="midnightblue" points="639.12,-146.55 629.74,-151.49 640.15,-153.47 639.12,-146.55"/>
</g>
<!-- Node31&#45;&gt;Node28 -->
<g id="edge46" class="edge">
<title>Node31&#45;&gt;Node28</title>
<path fill="none" stroke="midnightblue" d="M922.05,-123.5C928.07,-126 933.96,-129.11 939,-133 959.87,-149.08 998.34,-214.76 1016.71,-247.4"/>
<polygon fill="midnightblue" stroke="midnightblue" points="1013.8,-249.36 1021.73,-256.38 1019.91,-245.94 1013.8,-249.36"/>
</g>
<!-- Node31&#45;&gt;Node29 -->
<g id="edge47" class="edge">
<title>Node31&#45;&gt;Node29</title>
<path fill="none" stroke="midnightblue" d="M919.34,-104.41C938.08,-99.46 961.14,-93.38 981.11,-88.11"/>
<polygon fill="midnightblue" stroke="midnightblue" points="982.15,-91.46 990.92,-85.52 980.36,-84.69 982.15,-91.46"/>
</g>
</g>
</svg>
        <g id="navigator" transform="translate(0 0)" fill="#404254">
                <rect fill="#f2f5e9" fill-opacity="0.5" stroke="#606060" stroke-width=".5" x="0" y="0" width="60" height="60"/>
                <use id="zoomplus" xlink:href="#zoomPlus" x="17" y="9" onmousedown="handleZoom(evt,'in')"/>
                <use id="zoomminus" xlink:href="#zoomMin" x="42" y="9" onmousedown="handleZoom(evt,'out')"/>
                <use id="reset" xlink:href="#resetDef" x="30" y="36" onmousedown="handleReset()"/>
                <g id="arrowUp" xlink:href="#dirArrow" transform="translate(30 24)" onmousedown="handlePan(0,-1)">
                  <use xlink:href="#rim" fill="#404040">
                        <set attributeName="fill" to="#808080" begin="arrowUp.mouseover" end="arrowUp.mouseout"/>
                  </use>
                  <path fill="none" stroke="white" stroke-width="1.5" d="M0,-3.0v7 M-2.5,-0.5L0,-3.0L2.5,-0.5"/>
                </g>
                <g id="arrowRight" xlink:href="#dirArrow" transform="rotate(90) translate(36 -43)" onmousedown="handlePan(1,0)">
                  <use xlink:href="#rim" fill="#404040">
                        <set attributeName="fill" to="#808080" begin="arrowRight.mouseover" end="arrowRight.mouseout"/>
                  </use>
                  <path fill="none" stroke="white" stroke-width="1.5" d="M0,-3.0v7 M-2.5,-0.5L0,-3.0L2.5,-0.5"/>
                </g>
                <g id="arrowDown" xlink:href="#dirArrow" transform="rotate(180) translate(-30 -48)" onmousedown="handlePan(0,1)">
                  <use xlink:href="#rim" fill="#404040">
                        <set attributeName="fill" to="#808080" begin="arrowDown.mouseover" end="arrowDown.mouseout"/>
                  </use>
                  <path fill="none" stroke="white" stroke-width="1.5" d="M0,-3.0v7 M-2.5,-0.5L0,-3.0L2.5,-0.5"/>
                </g>
                <g id="arrowLeft" xlink:href="#dirArrow" transform="rotate(270) translate(-36 17)" onmousedown="handlePan(-1,0)">
                  <use xlink:href="#rim" fill="#404040">
                        <set attributeName="fill" to="#808080" begin="arrowLeft.mouseover" end="arrowLeft.mouseout"/>
                  </use>
                  <path fill="none" stroke="white" stroke-width="1.5" d="M0,-3.0v7 M-2.5,-0.5L0,-3.0L2.5,-0.5"/>
                </g>
        </g>
        <svg viewBox="0 0 15 15" width="100%" height="30px" preserveAspectRatio="xMaxYMin meet">
         <g id="arrow_out" transform="scale(0.3 0.3)">
          <a xlink:href="classGPS_a217097ae4a846c621f001a5aa1f4fb4f_cgraph_org.svg" target="_base">
           <rect id="button" ry="5" rx="5" y="6" x="6" height="38" width="38"
                fill="#f2f5e9" fill-opacity="0.5" stroke="#606060" stroke-width="1.0"/>
           <path id="arrow"
             d="M 11.500037,31.436501 C 11.940474,20.09759 22.043105,11.32322 32.158766,21.979434 L 37.068811,17.246167 C 37.068811,17.246167 37.088388,32 37.088388,32 L 22.160133,31.978069 C 22.160133,31.978069 26.997745,27.140456 26.997745,27.140456 C 18.528582,18.264221 13.291696,25.230495 11.500037,31.436501 z"
             style="fill:#404040;"/>
          </a>
         </g>
        </svg>
</svg>
