<?xml version="1.0" encoding="UTF-8" standalone="no"?>
<!DOCTYPE svg PUBLIC "-//W3C//DTD SVG 1.1//EN"
 "http://www.w3.org/Graphics/SVG/1.1/DTD/svg11.dtd">
<!-- Generated by graphviz version 2.49.3 (20211027.1534)
 -->
<!-- Title: Apexi::decodeAdv Pages: 1 -->
<!--zoomable 1244 -->
<svg id="main" version="1.1" xmlns="http://www.w3.org/2000/svg" xmlns:xlink="http://www.w3.org/1999/xlink" xml:space="preserve" onload="init(evt)">
<style type="text/css"><![CDATA[
.edge:hover path { stroke: red; }
.edge:hover polygon { stroke: red; fill: red; }
]]></style>
<script type="text/javascript"><![CDATA[
var edges = document.getElementsByTagName('g');
if (edges && edges.length) {
  for (var i=0;i<edges.length;i++) {
    if (edges[i].id.substr(0,4)=='edge') {
      edges[i].setAttribute('class','edge');
    }
  }
}
]]></script>
        <defs>
                <circle id="rim" cx="0" cy="0" r="7"/>
                <circle id="rim2" cx="0" cy="0" r="3.5"/>
                <g id="zoomPlus">
                        <use xlink:href="#rim" fill="#404040">
                                <set attributeName="fill" to="#808080" begin="zoomplus.mouseover" end="zoomplus.mouseout"/>
                        </use>
                        <path d="M-4,0h8M0,-4v8" fill="none" stroke="white" stroke-width="1.5" pointer-events="none"/>
                </g>
                <g id="zoomMin">
                        <use xlink:href="#rim" fill="#404040">
                                <set attributeName="fill" to="#808080" begin="zoomminus.mouseover" end="zoomminus.mouseout"/>
                        </use>
                        <path d="M-4,0h8" fill="none" stroke="white" stroke-width="1.5" pointer-events="none"/>
                </g>
                <g id="dirArrow">
                        <path fill="none" stroke="white" stroke-width="1.5" d="M0,-3.0v7 M-2.5,-0.5L0,-3.0L2.5,-0.5"/>
                </g>
               <g id="resetDef">
                       <use xlink:href="#rim2" fill="#404040">
                               <set attributeName="fill" to="#808080" begin="reset.mouseover" end="reset.mouseout"/>
                       </use>
               </g>
        </defs>

<script type="text/javascript">
var viewWidth = 387;
var viewHeight = 1244;
var sectionId = 'dynsection-8';
</script>
<script xlink:href="svgpan.js"/>
<svg id="graph" class="graph">
<g id="viewport">
<title>Apexi::decodeAdv</title>
<polygon fill="white" stroke="transparent" points="-4,4 -4,-1240 383,-1240 383,4 -4,4"/>
<!-- Node1 -->
<g id="node1" class="node">
<title>Node1</title>
<g id="a_node1"><a xlink:title=" ">
<polygon fill="#bfbfbf" stroke="black" points="0,-608.5 0,-627.5 94,-627.5 94,-608.5 0,-608.5"/>
<text text-anchor="middle" x="47" y="-615.5" font-family="Helvetica,sans-Serif" font-size="10.00">Apexi::decodeAdv</text>
</a>
</g>
</g>
<!-- Node2 -->
<g id="node2" class="node">
<title>Node2</title>
<g id="a_node2"><a xlink:href="classDashBoard.html#a21635845a2258c7dbe2a7f2f7ec32345" target="_top" xlink:title=" ">
<polygon fill="white" stroke="black" points="137,-1216.5 137,-1235.5 257,-1235.5 257,-1216.5 137,-1216.5"/>
<text text-anchor="middle" x="197" y="-1223.5" font-family="Helvetica,sans-Serif" font-size="10.00">DashBoard::setBatteryV</text>
</a>
</g>
</g>
<!-- Node1&#45;&gt;Node2 -->
<g id="edge1" class="edge">
<title>Node1&#45;&gt;Node2</title>
<path fill="none" stroke="midnightblue" d="M47.96,-627.83C47.87,-697.42 50.69,-1115.55 130,-1207 131.15,-1208.33 132.4,-1209.57 133.71,-1210.73"/>
<polygon fill="midnightblue" stroke="midnightblue" points="131.73,-1213.62 141.94,-1216.47 135.74,-1207.88 131.73,-1213.62"/>
</g>
<!-- Node3 -->
<g id="node3" class="node">
<title>Node3</title>
<g id="a_node3"><a xlink:href="classDashBoard.html#a864f44aaf83510cc38b81e3efc7f1da6" target="_top" xlink:title=" ">
<polygon fill="white" stroke="black" points="133,-1178.5 133,-1197.5 261,-1197.5 261,-1178.5 133,-1178.5"/>
<text text-anchor="middle" x="197" y="-1185.5" font-family="Helvetica,sans-Serif" font-size="10.00">DashBoard::setBoostDuty</text>
</a>
</g>
</g>
<!-- Node1&#45;&gt;Node3 -->
<g id="edge2" class="edge">
<title>Node1&#45;&gt;Node3</title>
<path fill="none" stroke="midnightblue" d="M48.06,-627.62C48.68,-694 55.46,-1083.86 130,-1169 131.16,-1170.33 132.41,-1171.56 133.73,-1172.71"/>
<polygon fill="midnightblue" stroke="midnightblue" points="131.76,-1175.61 141.97,-1178.44 135.76,-1169.86 131.76,-1175.61"/>
</g>
<!-- Node4 -->
<g id="node4" class="node">
<title>Node4</title>
<g id="a_node4"><a xlink:href="classDashBoard.html#af865e5a3912f8100d831f01333a4fef9" target="_top" xlink:title=" ">
<polygon fill="white" stroke="black" points="139,-1140.5 139,-1159.5 255,-1159.5 255,-1140.5 139,-1140.5"/>
<text text-anchor="middle" x="197" y="-1147.5" font-family="Helvetica,sans-Serif" font-size="10.00">DashBoard::setBoosttp</text>
</a>
</g>
</g>
<!-- Node1&#45;&gt;Node4 -->
<g id="edge3" class="edge">
<title>Node1&#45;&gt;Node4</title>
<path fill="none" stroke="midnightblue" d="M48.18,-627.77C49.56,-691.9 60.36,-1052.32 130,-1131 131.17,-1132.32 132.42,-1133.55 133.75,-1134.7"/>
<polygon fill="midnightblue" stroke="midnightblue" points="131.8,-1137.61 142.02,-1140.4 135.77,-1131.84 131.8,-1137.61"/>
</g>
<!-- Node5 -->
<g id="node5" class="node">
<title>Node5</title>
<g id="a_node5"><a xlink:href="classDashBoard.html#ad7eafea8b5a643e82155945495ff2aef" target="_top" xlink:title=" ">
<polygon fill="white" stroke="black" points="136.5,-1102.5 136.5,-1121.5 257.5,-1121.5 257.5,-1102.5 136.5,-1102.5"/>
<text text-anchor="middle" x="197" y="-1109.5" font-family="Helvetica,sans-Serif" font-size="10.00">DashBoard::setBoostwg</text>
</a>
</g>
</g>
<!-- Node1&#45;&gt;Node5 -->
<g id="edge4" class="edge">
<title>Node1&#45;&gt;Node5</title>
<path fill="none" stroke="midnightblue" d="M48.32,-627.84C50.51,-689.33 65.21,-1020.71 130,-1093 131.18,-1094.31 132.44,-1095.54 133.77,-1096.68"/>
<polygon fill="midnightblue" stroke="midnightblue" points="131.84,-1099.6 142.07,-1102.36 135.79,-1093.82 131.84,-1099.6"/>
</g>
<!-- Node6 -->
<g id="node6" class="node">
<title>Node6</title>
<g id="a_node6"><a xlink:href="classDashBoard.html#aa34fb9a1bc1ffbf895c0dc507dacfe03" target="_top" xlink:title=" ">
<polygon fill="white" stroke="black" points="143.5,-1064.5 143.5,-1083.5 250.5,-1083.5 250.5,-1064.5 143.5,-1064.5"/>
<text text-anchor="middle" x="197" y="-1071.5" font-family="Helvetica,sans-Serif" font-size="10.00">DashBoard::setDwell</text>
</a>
</g>
</g>
<!-- Node1&#45;&gt;Node6 -->
<g id="edge5" class="edge">
<title>Node1&#45;&gt;Node6</title>
<path fill="none" stroke="midnightblue" d="M48.48,-627.8C51.52,-686.3 70.01,-989.04 130,-1055 131.41,-1056.55 132.95,-1057.99 134.57,-1059.3"/>
<polygon fill="midnightblue" stroke="midnightblue" points="133.09,-1062.51 143.4,-1064.98 136.88,-1056.62 133.09,-1062.51"/>
</g>
<!-- Node7 -->
<g id="node7" class="node">
<title>Node7</title>
<g id="a_node7"><a xlink:href="classDashBoard.html#afa98f53f1555f3bff79f49a6e12b5d9e" target="_top" xlink:title=" ">
<polygon fill="white" stroke="black" points="136.5,-1026.5 136.5,-1045.5 257.5,-1045.5 257.5,-1026.5 136.5,-1026.5"/>
<text text-anchor="middle" x="197" y="-1033.5" font-family="Helvetica,sans-Serif" font-size="10.00">DashBoard::setEngLoad</text>
</a>
</g>
</g>
<!-- Node1&#45;&gt;Node7 -->
<g id="edge6" class="edge">
<title>Node1&#45;&gt;Node7</title>
<path fill="none" stroke="midnightblue" d="M48.66,-627.66C52.59,-682.81 74.77,-957.31 130,-1017 131.22,-1018.32 132.54,-1019.56 133.92,-1020.71"/>
<polygon fill="midnightblue" stroke="midnightblue" points="132.24,-1023.8 142.51,-1026.41 136.12,-1017.97 132.24,-1023.8"/>
</g>
<!-- Node8 -->
<g id="node8" class="node">
<title>Node8</title>
<g id="a_node8"><a xlink:href="classDashBoard.html#aebb7249e22bce5067a7d473e6ae0085c" target="_top" xlink:title=" ">
<polygon fill="white" stroke="black" points="143.5,-988.5 143.5,-1007.5 250.5,-1007.5 250.5,-988.5 143.5,-988.5"/>
<text text-anchor="middle" x="197" y="-995.5" font-family="Helvetica,sans-Serif" font-size="10.00">DashBoard::setFuelc</text>
</a>
</g>
</g>
<!-- Node1&#45;&gt;Node8 -->
<g id="edge7" class="edge">
<title>Node1&#45;&gt;Node8</title>
<path fill="none" stroke="midnightblue" d="M48.89,-627.75C53.84,-679.92 79.58,-925.62 130,-979 131.41,-980.5 132.93,-981.88 134.54,-983.15"/>
<polygon fill="midnightblue" stroke="midnightblue" points="132.91,-986.26 143.23,-988.67 136.67,-980.35 132.91,-986.26"/>
</g>
<!-- Node9 -->
<g id="node9" class="node">
<title>Node9</title>
<g id="a_node9"><a xlink:href="classDashBoard.html#ad7fb1721d5cd8770078da5e7d5d6b655" target="_top" xlink:title=" ">
<polygon fill="white" stroke="black" points="135.5,-950.5 135.5,-969.5 258.5,-969.5 258.5,-950.5 135.5,-950.5"/>
<text text-anchor="middle" x="197" y="-957.5" font-family="Helvetica,sans-Serif" font-size="10.00">DashBoard::setFueltemp</text>
</a>
</g>
</g>
<!-- Node1&#45;&gt;Node9 -->
<g id="edge8" class="edge">
<title>Node1&#45;&gt;Node9</title>
<path fill="none" stroke="midnightblue" d="M49.16,-627.68C55.17,-676.35 84.31,-893.84 130,-941 131.4,-942.45 132.9,-943.78 134.49,-945.02"/>
<polygon fill="midnightblue" stroke="midnightblue" points="132.69,-948.02 143.01,-950.41 136.43,-942.11 132.69,-948.02"/>
</g>
<!-- Node10 -->
<g id="node10" class="node">
<title>Node10</title>
<g id="a_node10"><a xlink:href="classDashBoard.html#ad46278eecba8d5643f84cea9eafa1bce" target="_top" xlink:title=" ">
<polygon fill="white" stroke="black" points="149,-912.5 149,-931.5 245,-931.5 245,-912.5 149,-912.5"/>
<text text-anchor="middle" x="197" y="-919.5" font-family="Helvetica,sans-Serif" font-size="10.00">DashBoard::setIgn</text>
</a>
</g>
</g>
<!-- Node1&#45;&gt;Node10 -->
<g id="edge9" class="edge">
<title>Node1&#45;&gt;Node10</title>
<path fill="none" stroke="midnightblue" d="M47.67,-627.74C46.88,-667.9 49.37,-822.35 130,-903 132.86,-905.86 136.12,-908.29 139.62,-910.37"/>
<polygon fill="midnightblue" stroke="midnightblue" points="138.22,-913.58 148.74,-914.81 141.29,-907.28 138.22,-913.58"/>
</g>
<!-- Node11 -->
<g id="node11" class="node">
<title>Node11</title>
<g id="a_node11"><a xlink:href="classDashBoard.html#a6f4952eb15d3b4c0c2eaacf37fb2c96b" target="_top" xlink:title=" ">
<polygon fill="white" stroke="black" points="144,-874.5 144,-893.5 250,-893.5 250,-874.5 144,-874.5"/>
<text text-anchor="middle" x="197" y="-881.5" font-family="Helvetica,sans-Serif" font-size="10.00">DashBoard::setinjms</text>
</a>
</g>
</g>
<!-- Node1&#45;&gt;Node11 -->
<g id="edge10" class="edge">
<title>Node1&#45;&gt;Node11</title>
<path fill="none" stroke="midnightblue" d="M48.17,-627.69C49.36,-664.42 58.64,-796.45 130,-865 131.64,-866.58 133.41,-868.02 135.27,-869.35"/>
<polygon fill="midnightblue" stroke="midnightblue" points="133.54,-872.4 143.94,-874.45 137.09,-866.37 133.54,-872.4"/>
</g>
<!-- Node12 -->
<g id="node12" class="node">
<title>Node12</title>
<g id="a_node12"><a xlink:href="classDashBoard.html#a31caf833ec71b5a8135fd39859f4c2f5" target="_top" xlink:title=" ">
<polygon fill="white" stroke="black" points="130,-836.5 130,-855.5 264,-855.5 264,-836.5 130,-836.5"/>
<text text-anchor="middle" x="197" y="-843.5" font-family="Helvetica,sans-Serif" font-size="10.00">DashBoard::setIntakepress</text>
</a>
</g>
</g>
<!-- Node1&#45;&gt;Node12 -->
<g id="edge11" class="edge">
<title>Node1&#45;&gt;Node12</title>
<path fill="none" stroke="midnightblue" d="M48.82,-627.56C52.17,-660.5 67.75,-770.32 130,-827 131.72,-828.57 133.56,-830 135.49,-831.32"/>
<polygon fill="midnightblue" stroke="midnightblue" points="134.04,-834.52 144.47,-836.38 137.48,-828.42 134.04,-834.52"/>
</g>
<!-- Node13 -->
<g id="node13" class="node">
<title>Node13</title>
<g id="a_node13"><a xlink:href="classDashBoard.html#ae4d194cbb50c7c36bd2d0b2be6b21e6d" target="_top" xlink:title=" ">
<polygon fill="white" stroke="black" points="131.5,-798.5 131.5,-817.5 262.5,-817.5 262.5,-798.5 131.5,-798.5"/>
<text text-anchor="middle" x="197" y="-805.5" font-family="Helvetica,sans-Serif" font-size="10.00">DashBoard::setIntaketemp</text>
</a>
</g>
</g>
<!-- Node1&#45;&gt;Node13 -->
<g id="edge12" class="edge">
<title>Node1&#45;&gt;Node13</title>
<path fill="none" stroke="midnightblue" d="M49.79,-627.84C55.65,-657.06 76.95,-744.14 130,-789 131.99,-790.68 134.12,-792.22 136.36,-793.62"/>
<polygon fill="midnightblue" stroke="midnightblue" points="134.93,-796.82 145.41,-798.37 138.18,-790.62 134.93,-796.82"/>
</g>
<!-- Node14 -->
<g id="node14" class="node">
<title>Node14</title>
<g id="a_node14"><a xlink:href="classDashBoard.html#add4eafa05b50837f81332bd06b76f36d" target="_top" xlink:title=" ">
<polygon fill="white" stroke="black" points="137.5,-760.5 137.5,-779.5 256.5,-779.5 256.5,-760.5 137.5,-760.5"/>
<text text-anchor="middle" x="197" y="-767.5" font-family="Helvetica,sans-Serif" font-size="10.00">DashBoard::setIscvduty</text>
</a>
</g>
</g>
<!-- Node1&#45;&gt;Node14 -->
<g id="edge13" class="edge">
<title>Node1&#45;&gt;Node14</title>
<path fill="none" stroke="midnightblue" d="M51.19,-627.73C59.77,-652.32 85.71,-717.38 130,-751 132.48,-752.89 135.15,-754.58 137.93,-756.11"/>
<polygon fill="midnightblue" stroke="midnightblue" points="136.61,-759.36 147.15,-760.45 139.59,-753.03 136.61,-759.36"/>
</g>
<!-- Node15 -->
<g id="node15" class="node">
<title>Node15</title>
<g id="a_node15"><a xlink:href="classDashBoard.html#acf7ff86dcbb34ee7661c1904191cf7a9" target="_top" xlink:title=" ">
<polygon fill="white" stroke="black" points="142,-722.5 142,-741.5 252,-741.5 252,-722.5 142,-722.5"/>
<text text-anchor="middle" x="197" y="-729.5" font-family="Helvetica,sans-Serif" font-size="10.00">DashBoard::setKnock</text>
</a>
</g>
</g>
<!-- Node1&#45;&gt;Node15 -->
<g id="edge14" class="edge">
<title>Node1&#45;&gt;Node15</title>
<path fill="none" stroke="midnightblue" d="M53.65,-627.71C65.37,-646.96 94.22,-690.09 130,-713 133.29,-715.11 136.83,-716.99 140.49,-718.67"/>
<polygon fill="midnightblue" stroke="midnightblue" points="139.19,-721.92 149.77,-722.43 141.82,-715.43 139.19,-721.92"/>
</g>
<!-- Node16 -->
<g id="node16" class="node">
<title>Node16</title>
<g id="a_node16"><a xlink:href="classDashBoard.html#a4e90fc531b31a84fa122ade9bdc2ecf1" target="_top" xlink:title=" ">
<polygon fill="white" stroke="black" points="132,-684.5 132,-703.5 262,-703.5 262,-684.5 132,-684.5"/>
<text text-anchor="middle" x="197" y="-691.5" font-family="Helvetica,sans-Serif" font-size="10.00">DashBoard::setLeadingign</text>
</a>
</g>
</g>
<!-- Node1&#45;&gt;Node16 -->
<g id="edge15" class="edge">
<title>Node1&#45;&gt;Node16</title>
<path fill="none" stroke="midnightblue" d="M59.2,-627.59C74.34,-640.12 102.6,-661.97 130,-675 134.91,-677.34 140.17,-679.44 145.5,-681.33"/>
<polygon fill="midnightblue" stroke="midnightblue" points="144.5,-684.68 155.09,-684.48 146.68,-678.03 144.5,-684.68"/>
</g>
<!-- Node17 -->
<g id="node17" class="node">
<title>Node17</title>
<g id="a_node17"><a xlink:href="classDashBoard.html#a19ed911149392a939ade24ef44180dec" target="_top" xlink:title=" ">
<polygon fill="white" stroke="black" points="139,-646.5 139,-665.5 255,-665.5 255,-646.5 139,-646.5"/>
<text text-anchor="middle" x="197" y="-653.5" font-family="Helvetica,sans-Serif" font-size="10.00">DashBoard::setMAF1V</text>
</a>
</g>
</g>
<!-- Node1&#45;&gt;Node17 -->
<g id="edge16" class="edge">
<title>Node1&#45;&gt;Node17</title>
<path fill="none" stroke="midnightblue" d="M85.35,-627.59C104.7,-632.56 128.53,-638.68 149.11,-643.96"/>
<polygon fill="midnightblue" stroke="midnightblue" points="148.37,-647.38 158.92,-646.48 150.11,-640.6 148.37,-647.38"/>
</g>
<!-- Node18 -->
<g id="node18" class="node">
<title>Node18</title>
<g id="a_node18"><a xlink:href="classDashBoard.html#a584d76fb3dc3faa498611cdc0a7d572a" target="_top" xlink:title=" ">
<polygon fill="white" stroke="black" points="139,-608.5 139,-627.5 255,-627.5 255,-608.5 139,-608.5"/>
<text text-anchor="middle" x="197" y="-615.5" font-family="Helvetica,sans-Serif" font-size="10.00">DashBoard::setMAF2V</text>
</a>
</g>
</g>
<!-- Node1&#45;&gt;Node18 -->
<g id="edge17" class="edge">
<title>Node1&#45;&gt;Node18</title>
<path fill="none" stroke="midnightblue" d="M94.02,-618C104.98,-618 116.9,-618 128.6,-618"/>
<polygon fill="midnightblue" stroke="midnightblue" points="128.79,-621.5 138.79,-618 128.79,-614.5 128.79,-621.5"/>
</g>
<!-- Node19 -->
<g id="node19" class="node">
<title>Node19</title>
<g id="a_node19"><a xlink:href="classDashBoard.html#a0cf0a1970e9c2c02886e8587966f6abc" target="_top" xlink:title=" ">
<polygon fill="white" stroke="black" points="130,-570.5 130,-589.5 264,-589.5 264,-570.5 130,-570.5"/>
<text text-anchor="middle" x="197" y="-577.5" font-family="Helvetica,sans-Serif" font-size="10.00">DashBoard::setMAFactivity</text>
</a>
</g>
</g>
<!-- Node1&#45;&gt;Node19 -->
<g id="edge18" class="edge">
<title>Node1&#45;&gt;Node19</title>
<path fill="none" stroke="midnightblue" d="M85.35,-608.41C104.7,-603.44 128.53,-597.32 149.11,-592.04"/>
<polygon fill="midnightblue" stroke="midnightblue" points="150.11,-595.4 158.92,-589.52 148.37,-588.62 150.11,-595.4"/>
</g>
<!-- Node20 -->
<g id="node20" class="node">
<title>Node20</title>
<g id="a_node20"><a xlink:href="classDashBoard.html#a5480aa312813d238574e103a52bef81f" target="_top" xlink:title=" ">
<polygon fill="white" stroke="black" points="144,-532.5 144,-551.5 250,-551.5 250,-532.5 144,-532.5"/>
<text text-anchor="middle" x="197" y="-539.5" font-family="Helvetica,sans-Serif" font-size="10.00">DashBoard::setMoilp</text>
</a>
</g>
</g>
<!-- Node1&#45;&gt;Node20 -->
<g id="edge19" class="edge">
<title>Node1&#45;&gt;Node20</title>
<path fill="none" stroke="midnightblue" d="M59.2,-608.41C74.34,-595.88 102.6,-574.03 130,-561 134.91,-558.66 140.17,-556.56 145.5,-554.67"/>
<polygon fill="midnightblue" stroke="midnightblue" points="146.68,-557.97 155.09,-551.52 144.5,-551.32 146.68,-557.97"/>
</g>
<!-- Node21 -->
<g id="node21" class="node">
<title>Node21</title>
<g id="a_node21"><a xlink:href="classDashBoard.html#a4ddbc9f8b9001cf29ead004af11e972d" target="_top" xlink:title=" ">
<polygon fill="white" stroke="black" points="148,-494.5 148,-513.5 246,-513.5 246,-494.5 148,-494.5"/>
<text text-anchor="middle" x="197" y="-501.5" font-family="Helvetica,sans-Serif" font-size="10.00">DashBoard::setna1</text>
</a>
</g>
</g>
<!-- Node1&#45;&gt;Node21 -->
<g id="edge20" class="edge">
<title>Node1&#45;&gt;Node21</title>
<path fill="none" stroke="midnightblue" d="M53.65,-608.29C65.37,-589.04 94.22,-545.91 130,-523 133.29,-520.89 136.83,-519.01 140.49,-517.33"/>
<polygon fill="midnightblue" stroke="midnightblue" points="141.82,-520.57 149.77,-513.57 139.19,-514.08 141.82,-520.57"/>
</g>
<!-- Node22 -->
<g id="node22" class="node">
<title>Node22</title>
<g id="a_node22"><a xlink:href="classDashBoard.html#a3992060dbefe28848e9e2a0163a7df21" target="_top" xlink:title=" ">
<polygon fill="white" stroke="black" points="148,-456.5 148,-475.5 246,-475.5 246,-456.5 148,-456.5"/>
<text text-anchor="middle" x="197" y="-463.5" font-family="Helvetica,sans-Serif" font-size="10.00">DashBoard::setna2</text>
</a>
</g>
</g>
<!-- Node1&#45;&gt;Node22 -->
<g id="edge21" class="edge">
<title>Node1&#45;&gt;Node22</title>
<path fill="none" stroke="midnightblue" d="M51.19,-608.27C59.77,-583.68 85.71,-518.62 130,-485 132.66,-482.98 135.53,-481.18 138.52,-479.56"/>
<polygon fill="midnightblue" stroke="midnightblue" points="140.21,-482.64 147.83,-475.28 137.28,-476.28 140.21,-482.64"/>
</g>
<!-- Node23 -->
<g id="node23" class="node">
<title>Node23</title>
<g id="a_node23"><a xlink:href="classDashBoard.html#a36e46c92b433846ab5932b5622e69905" target="_top" xlink:title=" ">
<polygon fill="white" stroke="black" points="141.5,-418.5 141.5,-437.5 252.5,-437.5 252.5,-418.5 141.5,-418.5"/>
<text text-anchor="middle" x="197" y="-425.5" font-family="Helvetica,sans-Serif" font-size="10.00">DashBoard::setO2volt</text>
</a>
</g>
</g>
<!-- Node1&#45;&gt;Node23 -->
<g id="edge22" class="edge">
<title>Node1&#45;&gt;Node23</title>
<path fill="none" stroke="midnightblue" d="M49.79,-608.16C55.65,-578.94 76.95,-491.86 130,-447 131.99,-445.32 134.12,-443.78 136.36,-442.38"/>
<polygon fill="midnightblue" stroke="midnightblue" points="138.18,-445.38 145.41,-437.63 134.93,-439.18 138.18,-445.38"/>
</g>
<!-- Node24 -->
<g id="node24" class="node">
<title>Node24</title>
<g id="a_node24"><a xlink:href="classDashBoard.html#a1ff480e57034d577177325f86cba2108" target="_top" xlink:title=" ">
<polygon fill="white" stroke="black" points="136,-380.5 136,-399.5 258,-399.5 258,-380.5 136,-380.5"/>
<text text-anchor="middle" x="197" y="-387.5" font-family="Helvetica,sans-Serif" font-size="10.00">DashBoard::setO2volt_2</text>
</a>
</g>
</g>
<!-- Node1&#45;&gt;Node24 -->
<g id="edge23" class="edge">
<title>Node1&#45;&gt;Node24</title>
<path fill="none" stroke="midnightblue" d="M48.82,-608.44C52.17,-575.5 67.75,-465.68 130,-409 131.72,-407.43 133.56,-406 135.49,-404.68"/>
<polygon fill="midnightblue" stroke="midnightblue" points="137.48,-407.58 144.47,-399.62 134.04,-401.48 137.48,-407.58"/>
</g>
<!-- Node25 -->
<g id="node25" class="node">
<title>Node25</title>
<g id="a_node25"><a xlink:href="classDashBoard.html#ab617d388ec0714d60bf68f19b189d86b" target="_top" xlink:title=" ">
<polygon fill="white" stroke="black" points="148,-342.5 148,-361.5 246,-361.5 246,-342.5 148,-342.5"/>
<text text-anchor="middle" x="197" y="-349.5" font-family="Helvetica,sans-Serif" font-size="10.00">DashBoard::setpim</text>
</a>
</g>
</g>
<!-- Node1&#45;&gt;Node25 -->
<g id="edge24" class="edge">
<title>Node1&#45;&gt;Node25</title>
<path fill="none" stroke="midnightblue" d="M48.17,-608.31C49.36,-571.58 58.64,-439.55 130,-371 132.7,-368.41 135.72,-366.17 138.95,-364.23"/>
<polygon fill="midnightblue" stroke="midnightblue" points="140.52,-367.36 147.91,-359.78 137.4,-361.1 140.52,-367.36"/>
</g>
<!-- Node26 -->
<g id="node26" class="node">
<title>Node26</title>
<g id="a_node26"><a xlink:href="classDashBoard.html#a8b4be03b152c61f0c3086b92b2ad47d9" target="_top" xlink:title=" ">
<polygon fill="white" stroke="black" points="133,-304.5 133,-323.5 261,-323.5 261,-304.5 133,-304.5"/>
<text text-anchor="middle" x="197" y="-311.5" font-family="Helvetica,sans-Serif" font-size="10.00">DashBoard::setPressureV</text>
</a>
</g>
</g>
<!-- Node1&#45;&gt;Node26 -->
<g id="edge25" class="edge">
<title>Node1&#45;&gt;Node26</title>
<path fill="none" stroke="midnightblue" d="M47.67,-608.26C46.88,-568.1 49.37,-413.65 130,-333 131.45,-331.55 133.01,-330.2 134.65,-328.96"/>
<polygon fill="midnightblue" stroke="midnightblue" points="136.77,-331.77 143.46,-323.55 133.1,-325.8 136.77,-331.77"/>
</g>
<!-- Node27 -->
<g id="node27" class="node">
<title>Node27</title>
<g id="a_node27"><a xlink:href="classDashBoard.html#ae10ebf05ada076cdf9034a470dc0138e" target="_top" xlink:title=" ">
<polygon fill="white" stroke="black" points="133,-266.5 133,-285.5 261,-285.5 261,-266.5 133,-266.5"/>
<text text-anchor="middle" x="197" y="-273.5" font-family="Helvetica,sans-Serif" font-size="10.00">DashBoard::setPrimaryinp</text>
</a>
</g>
</g>
<!-- Node1&#45;&gt;Node27 -->
<g id="edge26" class="edge">
<title>Node1&#45;&gt;Node27</title>
<path fill="none" stroke="midnightblue" d="M49.16,-608.32C55.17,-559.65 84.31,-342.16 130,-295 131.4,-293.55 132.9,-292.22 134.49,-290.98"/>
<polygon fill="midnightblue" stroke="midnightblue" points="136.43,-293.89 143.01,-285.59 132.69,-287.98 136.43,-293.89"/>
</g>
<!-- Node28 -->
<g id="node28" class="node">
<title>Node28</title>
<g id="a_node28"><a xlink:href="classDashBoard.html#ab8a26c5ebc87f76cc237e46d8e014403" target="_top" xlink:title=" ">
<polygon fill="white" stroke="black" points="147.5,-228.5 147.5,-247.5 246.5,-247.5 246.5,-228.5 147.5,-228.5"/>
<text text-anchor="middle" x="197" y="-235.5" font-family="Helvetica,sans-Serif" font-size="10.00">DashBoard::setrpm</text>
</a>
</g>
</g>
<!-- Node1&#45;&gt;Node28 -->
<g id="edge27" class="edge">
<title>Node1&#45;&gt;Node28</title>
<path fill="none" stroke="midnightblue" d="M48.89,-608.25C53.84,-556.08 79.58,-310.38 130,-257 132.49,-254.36 135.32,-252.08 138.38,-250.12"/>
<polygon fill="midnightblue" stroke="midnightblue" points="140.25,-253.09 147.48,-245.35 137,-246.89 140.25,-253.09"/>
</g>
<!-- Node30 -->
<g id="node30" class="node">
<title>Node30</title>
<g id="a_node30"><a xlink:href="classDashBoard.html#a68ced326141cb80742fe151c64e33c4f" target="_top" xlink:title=" ">
<polygon fill="white" stroke="black" points="130.5,-190.5 130.5,-209.5 263.5,-209.5 263.5,-190.5 130.5,-190.5"/>
<text text-anchor="middle" x="197" y="-197.5" font-family="Helvetica,sans-Serif" font-size="10.00">DashBoard::setSecinjpulse</text>
</a>
</g>
</g>
<!-- Node1&#45;&gt;Node30 -->
<g id="edge29" class="edge">
<title>Node1&#45;&gt;Node30</title>
<path fill="none" stroke="midnightblue" d="M48.66,-608.34C52.59,-553.19 74.77,-278.69 130,-219 131.22,-217.68 132.54,-216.44 133.92,-215.29"/>
<polygon fill="midnightblue" stroke="midnightblue" points="136.12,-218.03 142.51,-209.59 132.24,-212.2 136.12,-218.03"/>
</g>
<!-- Node31 -->
<g id="node31" class="node">
<title>Node31</title>
<g id="a_node31"><a xlink:href="classDashBoard.html#a77b4f7cb9851db07fcc88986469df3d8" target="_top" xlink:title=" ">
<polygon fill="white" stroke="black" points="142,-152.5 142,-171.5 252,-171.5 252,-152.5 142,-152.5"/>
<text text-anchor="middle" x="197" y="-159.5" font-family="Helvetica,sans-Serif" font-size="10.00">DashBoard::setSpeed</text>
</a>
</g>
</g>
<!-- Node1&#45;&gt;Node31 -->
<g id="edge30" class="edge">
<title>Node1&#45;&gt;Node31</title>
<path fill="none" stroke="midnightblue" d="M48.48,-608.2C51.52,-549.7 70.01,-246.96 130,-181 131.21,-179.67 132.51,-178.42 133.89,-177.27"/>
<polygon fill="midnightblue" stroke="midnightblue" points="136.09,-180 142.44,-171.52 132.19,-174.19 136.09,-180"/>
</g>
<!-- Node33 -->
<g id="node33" class="node">
<title>Node33</title>
<g id="a_node33"><a xlink:href="classDashBoard.html#ac568882c62f706105825eea0140a1d28" target="_top" xlink:title=" ">
<polygon fill="white" stroke="black" points="136,-114.5 136,-133.5 258,-133.5 258,-114.5 136,-114.5"/>
<text text-anchor="middle" x="197" y="-121.5" font-family="Helvetica,sans-Serif" font-size="10.00">DashBoard::setThrottleV</text>
</a>
</g>
</g>
<!-- Node1&#45;&gt;Node33 -->
<g id="edge32" class="edge">
<title>Node1&#45;&gt;Node33</title>
<path fill="none" stroke="midnightblue" d="M48.32,-608.16C50.51,-546.67 65.21,-215.29 130,-143 131.18,-141.69 132.44,-140.46 133.77,-139.32"/>
<polygon fill="midnightblue" stroke="midnightblue" points="135.79,-142.18 142.07,-133.64 131.84,-136.4 135.79,-142.18"/>
</g>
<!-- Node34 -->
<g id="node34" class="node">
<title>Node34</title>
<g id="a_node34"><a xlink:href="classDashBoard.html#a75b10e663b009eb4ae77d10762280ca4" target="_top" xlink:title=" ">
<polygon fill="white" stroke="black" points="146,-76.5 146,-95.5 248,-95.5 248,-76.5 146,-76.5"/>
<text text-anchor="middle" x="197" y="-83.5" font-family="Helvetica,sans-Serif" font-size="10.00">DashBoard::setTPS</text>
</a>
</g>
</g>
<!-- Node1&#45;&gt;Node34 -->
<g id="edge33" class="edge">
<title>Node1&#45;&gt;Node34</title>
<path fill="none" stroke="midnightblue" d="M48.18,-608.23C49.56,-544.1 60.36,-183.68 130,-105 132.04,-102.7 134.33,-100.67 136.82,-98.88"/>
<polygon fill="midnightblue" stroke="midnightblue" points="138.95,-101.69 145.87,-93.66 135.46,-95.62 138.95,-101.69"/>
</g>
<!-- Node35 -->
<g id="node35" class="node">
<title>Node35</title>
<g id="a_node35"><a xlink:href="classDashBoard.html#af72024007c435fdc3be14eb9c8198525" target="_top" xlink:title=" ">
<polygon fill="white" stroke="black" points="133.5,-38.5 133.5,-57.5 260.5,-57.5 260.5,-38.5 133.5,-38.5"/>
<text text-anchor="middle" x="197" y="-45.5" font-family="Helvetica,sans-Serif" font-size="10.00">DashBoard::setTrailingign</text>
</a>
</g>
</g>
<!-- Node1&#45;&gt;Node35 -->
<g id="edge34" class="edge">
<title>Node1&#45;&gt;Node35</title>
<path fill="none" stroke="midnightblue" d="M48.06,-608.38C48.68,-542 55.46,-152.14 130,-67 131.16,-65.67 132.41,-64.44 133.73,-63.29"/>
<polygon fill="midnightblue" stroke="midnightblue" points="135.76,-66.14 141.97,-57.56 131.76,-60.39 135.76,-66.14"/>
</g>
<!-- Node36 -->
<g id="node36" class="node">
<title>Node36</title>
<g id="a_node36"><a xlink:href="classDashBoard.html#aa4bc217dc1fe66ba8895284d24b92ee4" target="_top" xlink:title=" ">
<polygon fill="white" stroke="black" points="132,-0.5 132,-19.5 262,-19.5 262,-0.5 132,-0.5"/>
<text text-anchor="middle" x="197" y="-7.5" font-family="Helvetica,sans-Serif" font-size="10.00">DashBoard::setWatertemp</text>
</a>
</g>
</g>
<!-- Node1&#45;&gt;Node36 -->
<g id="edge35" class="edge">
<title>Node1&#45;&gt;Node36</title>
<path fill="none" stroke="midnightblue" d="M47.96,-608.17C47.87,-538.58 50.69,-120.45 130,-29 131.15,-27.67 132.4,-26.43 133.71,-25.27"/>
<polygon fill="midnightblue" stroke="midnightblue" points="135.74,-28.12 141.94,-19.53 131.73,-22.38 135.74,-28.12"/>
</g>
<!-- Node29 -->
<g id="node29" class="node">
<title>Node29</title>
<g id="a_node29"><a xlink:href="dashboard_8cpp.html#abaed07c489b38d23644263ae435338d4" target="_top" xlink:title=" ">
<polygon fill="white" stroke="black" points="303,-228.5 303,-247.5 376,-247.5 376,-228.5 303,-228.5"/>
<text text-anchor="middle" x="339.5" y="-235.5" font-family="Helvetica,sans-Serif" font-size="10.00">averageRPM</text>
</a>
</g>
</g>
<!-- Node28&#45;&gt;Node29 -->
<g id="edge28" class="edge">
<title>Node28&#45;&gt;Node29</title>
<path fill="none" stroke="midnightblue" d="M246.75,-238C261.54,-238 277.75,-238 292.37,-238"/>
<polygon fill="midnightblue" stroke="midnightblue" points="292.69,-241.5 302.69,-238 292.69,-234.5 292.69,-241.5"/>
</g>
<!-- Node32 -->
<g id="node32" class="node">
<title>Node32</title>
<g id="a_node32"><a xlink:href="dashboard_8cpp.html#abd6f714e98c152d7700b007c54201c76" target="_top" xlink:title=" ">
<polygon fill="white" stroke="black" points="300,-152.5 300,-171.5 379,-171.5 379,-152.5 300,-152.5"/>
<text text-anchor="middle" x="339.5" y="-159.5" font-family="Helvetica,sans-Serif" font-size="10.00">averageSpeed</text>
</a>
</g>
</g>
<!-- Node31&#45;&gt;Node32 -->
<g id="edge31" class="edge">
<title>Node31&#45;&gt;Node32</title>
<path fill="none" stroke="midnightblue" d="M252.32,-162C264.62,-162 277.62,-162 289.68,-162"/>
<polygon fill="midnightblue" stroke="midnightblue" points="289.99,-165.5 299.99,-162 289.99,-158.5 289.99,-165.5"/>
</g>
</g>
</svg>
        <g id="navigator" transform="translate(0 0)" fill="#404254">
                <rect fill="#f2f5e9" fill-opacity="0.5" stroke="#606060" stroke-width=".5" x="0" y="0" width="60" height="60"/>
                <use id="zoomplus" xlink:href="#zoomPlus" x="17" y="9" onmousedown="handleZoom(evt,'in')"/>
                <use id="zoomminus" xlink:href="#zoomMin" x="42" y="9" onmousedown="handleZoom(evt,'out')"/>
                <use id="reset" xlink:href="#resetDef" x="30" y="36" onmousedown="handleReset()"/>
                <g id="arrowUp" xlink:href="#dirArrow" transform="translate(30 24)" onmousedown="handlePan(0,-1)">
                  <use xlink:href="#rim" fill="#404040">
                        <set attributeName="fill" to="#808080" begin="arrowUp.mouseover" end="arrowUp.mouseout"/>
                  </use>
                  <path fill="none" stroke="white" stroke-width="1.5" d="M0,-3.0v7 M-2.5,-0.5L0,-3.0L2.5,-0.5"/>
                </g>
                <g id="arrowRight" xlink:href="#dirArrow" transform="rotate(90) translate(36 -43)" onmousedown="handlePan(1,0)">
                  <use xlink:href="#rim" fill="#404040">
                        <set attributeName="fill" to="#808080" begin="arrowRight.mouseover" end="arrowRight.mouseout"/>
                  </use>
                  <path fill="none" stroke="white" stroke-width="1.5" d="M0,-3.0v7 M-2.5,-0.5L0,-3.0L2.5,-0.5"/>
                </g>
                <g id="arrowDown" xlink:href="#dirArrow" transform="rotate(180) translate(-30 -48)" onmousedown="handlePan(0,1)">
                  <use xlink:href="#rim" fill="#404040">
                        <set attributeName="fill" to="#808080" begin="arrowDown.mouseover" end="arrowDown.mouseout"/>
                  </use>
                  <path fill="none" stroke="white" stroke-width="1.5" d="M0,-3.0v7 M-2.5,-0.5L0,-3.0L2.5,-0.5"/>
                </g>
                <g id="arrowLeft" xlink:href="#dirArrow" transform="rotate(270) translate(-36 17)" onmousedown="handlePan(-1,0)">
                  <use xlink:href="#rim" fill="#404040">
                        <set attributeName="fill" to="#808080" begin="arrowLeft.mouseover" end="arrowLeft.mouseout"/>
                  </use>
                  <path fill="none" stroke="white" stroke-width="1.5" d="M0,-3.0v7 M-2.5,-0.5L0,-3.0L2.5,-0.5"/>
                </g>
        </g>
        <svg viewBox="0 0 15 15" width="100%" height="30px" preserveAspectRatio="xMaxYMin meet">
         <g id="arrow_out" transform="scale(0.3 0.3)">
          <a xlink:href="classApexi_a3ecd8445700ab9532fc051325f66d03d_cgraph_org.svg" target="_base">
           <rect id="button" ry="5" rx="5" y="6" x="6" height="38" width="38"
                fill="#f2f5e9" fill-opacity="0.5" stroke="#606060" stroke-width="1.0"/>
           <path id="arrow"
             d="M 11.500037,31.436501 C 11.940474,20.09759 22.043105,11.32322 32.158766,21.979434 L 37.068811,17.246167 C 37.068811,17.246167 37.088388,32 37.088388,32 L 22.160133,31.978069 C 22.160133,31.978069 26.997745,27.140456 26.997745,27.140456 C 18.528582,18.264221 13.291696,25.230495 11.500037,31.436501 z"
             style="fill:#404040;"/>
          </a>
         </g>
        </svg>
</svg>
