<?xml version="1.0" encoding="UTF-8" standalone="no"?>
<!DOCTYPE svg PUBLIC "-//W3C//DTD SVG 1.1//EN"
 "http://www.w3.org/Graphics/SVG/1.1/DTD/svg11.dtd">
<!-- Generated by graphviz version 2.49.3 (20211027.1534)
 -->
<!-- Title: GPS::initSerialPort Pages: 1 -->
<!--zoomable 312 -->
<svg id="main" version="1.1" xmlns="http://www.w3.org/2000/svg" xmlns:xlink="http://www.w3.org/1999/xlink" xml:space="preserve" onload="init(evt)">
<style type="text/css"><![CDATA[
.edge:hover path { stroke: red; }
.edge:hover polygon { stroke: red; fill: red; }
]]></style>
<script type="text/javascript"><![CDATA[
var edges = document.getElementsByTagName('g');
if (edges && edges.length) {
  for (var i=0;i<edges.length;i++) {
    if (edges[i].id.substr(0,4)=='edge') {
      edges[i].setAttribute('class','edge');
    }
  }
}
]]></script>
        <defs>
                <circle id="rim" cx="0" cy="0" r="7"/>
                <circle id="rim2" cx="0" cy="0" r="3.5"/>
                <g id="zoomPlus">
                        <use xlink:href="#rim" fill="#404040">
                                <set attributeName="fill" to="#808080" begin="zoomplus.mouseover" end="zoomplus.mouseout"/>
                        </use>
                        <path d="M-4,0h8M0,-4v8" fill="none" stroke="white" stroke-width="1.5" pointer-events="none"/>
                </g>
                <g id="zoomMin">
                        <use xlink:href="#rim" fill="#404040">
                                <set attributeName="fill" to="#808080" begin="zoomminus.mouseover" end="zoomminus.mouseout"/>
                        </use>
                        <path d="M-4,0h8" fill="none" stroke="white" stroke-width="1.5" pointer-events="none"/>
                </g>
                <g id="dirArrow">
                        <path fill="none" stroke="white" stroke-width="1.5" d="M0,-3.0v7 M-2.5,-0.5L0,-3.0L2.5,-0.5"/>
                </g>
               <g id="resetDef">
                       <use xlink:href="#rim2" fill="#404040">
                               <set attributeName="fill" to="#808080" begin="reset.mouseover" end="reset.mouseout"/>
                       </use>
               </g>
        </defs>

<script type="text/javascript">
var viewWidth = 1192;
var viewHeight = 312;
var sectionId = 'dynsection-16';
</script>
<script xlink:href="svgpan.js"/>
<svg id="graph" class="graph">
<g id="viewport">
<title>GPS::initSerialPort</title>
<polygon fill="white" stroke="transparent" points="-4,4 -4,-308 1188,-308 1188,4 -4,4"/>
<!-- Node1 -->
<g id="node1" class="node">
<title>Node1</title>
<g id="a_node1"><a xlink:title=" ">
<polygon fill="#bfbfbf" stroke="black" points="1086,-142.5 1086,-161.5 1184,-161.5 1184,-142.5 1086,-142.5"/>
<text text-anchor="middle" x="1135" y="-149.5" font-family="Helvetica,sans-Serif" font-size="10.00">GPS::initSerialPort</text>
</a>
</g>
</g>
<!-- Node2 -->
<g id="node2" class="node">
<title>Node2</title>
<g id="a_node2"><a xlink:href="classGPS.html#a51eaea2422dd980ea0a6d28f12a136de" target="_top" xlink:title=" ">
<polygon fill="white" stroke="black" points="938,-256.5 938,-275.5 1050,-275.5 1050,-256.5 938,-256.5"/>
<text text-anchor="middle" x="994" y="-263.5" font-family="Helvetica,sans-Serif" font-size="10.00">GPS::openConnection</text>
</a>
</g>
</g>
<!-- Node1&#45;&gt;Node2 -->
<g id="edge1" class="edge">
<title>Node1&#45;&gt;Node2</title>
<path fill="none" stroke="midnightblue" d="M1121.03,-169.77C1105.85,-189.56 1079.05,-221.45 1050,-242 1041.75,-247.84 1031.86,-252.7 1022.75,-256.48"/>
<polygon fill="midnightblue" stroke="midnightblue" points="1123.95,-171.72 1127.16,-161.62 1118.35,-167.51 1123.95,-171.72"/>
</g>
<!-- Node3 -->
<g id="node3" class="node">
<title>Node3</title>
<g id="a_node3"><a xlink:href="classGPS.html#a8775edfa08840ffb2647e0e5ba031fe5" target="_top" xlink:title=" ">
<polygon fill="white" stroke="black" points="783,-142.5 783,-161.5 902,-161.5 902,-142.5 783,-142.5"/>
<text text-anchor="middle" x="842.5" y="-149.5" font-family="Helvetica,sans-Serif" font-size="10.00">GPS::closeConnection1</text>
</a>
</g>
</g>
<!-- Node2&#45;&gt;Node3 -->
<g id="edge2" class="edge">
<title>Node2&#45;&gt;Node3</title>
<path fill="none" stroke="midnightblue" d="M972.44,-250.32C941.07,-226.4 882.17,-181.49 856.27,-161.74"/>
<polygon fill="midnightblue" stroke="midnightblue" points="970.44,-253.2 980.51,-256.48 974.68,-247.63 970.44,-253.2"/>
</g>
<!-- Node7 -->
<g id="node7" class="node">
<title>Node7</title>
<g id="a_node7"><a xlink:href="classGPS.html#aaf69fb801bbce2ea70041e68fe0ec19a" target="_top" xlink:title=" ">
<polygon fill="white" stroke="black" points="0,-133.5 0,-152.5 152,-152.5 152,-133.5 0,-133.5"/>
<text text-anchor="middle" x="76" y="-140.5" font-family="Helvetica,sans-Serif" font-size="10.00">GPS::handleReconnectTimeout</text>
</a>
</g>
</g>
<!-- Node2&#45;&gt;Node7 -->
<g id="edge18" class="edge">
<title>Node2&#45;&gt;Node7</title>
<path fill="none" stroke="midnightblue" d="M935.74,-277.44C874.64,-288.63 774.89,-304 688,-304 688,-304 688,-304 386.5,-304 254.46,-304 122.86,-187.25 86.71,-152.59"/>
<polygon fill="midnightblue" stroke="midnightblue" points="936.75,-280.81 945.94,-275.54 935.47,-273.93 936.75,-280.81"/>
</g>
<!-- Node4 -->
<g id="node4" class="node">
<title>Node4</title>
<g id="a_node4"><a xlink:href="classGPS.html#abd750ada6a7b976f72761ce16246ccf6" target="_top" xlink:title=" ">
<polygon fill="white" stroke="black" points="627,-142.5 627,-161.5 747,-161.5 747,-142.5 627,-142.5"/>
<text text-anchor="middle" x="687" y="-149.5" font-family="Helvetica,sans-Serif" font-size="10.00">GPS::setGPSBAUD115</text>
</a>
</g>
</g>
<!-- Node3&#45;&gt;Node4 -->
<g id="edge3" class="edge">
<title>Node3&#45;&gt;Node4</title>
<path fill="none" stroke="midnightblue" d="M772.36,-152C763.89,-152 755.3,-152 747,-152"/>
<polygon fill="midnightblue" stroke="midnightblue" points="772.59,-155.5 782.59,-152 772.59,-148.5 772.59,-155.5"/>
</g>
<!-- Node5 -->
<g id="node5" class="node">
<title>Node5</title>
<g id="a_node5"><a xlink:href="classGPS.html#a1b1c89214229f5dc8ff7e2fa9cbcad35" target="_top" xlink:title=" ">
<polygon fill="white" stroke="black" points="479,-104.5 479,-123.5 585,-123.5 585,-104.5 479,-104.5"/>
<text text-anchor="middle" x="532" y="-111.5" font-family="Helvetica,sans-Serif" font-size="10.00">GPS::handleTimeout</text>
</a>
</g>
</g>
<!-- Node4&#45;&gt;Node5 -->
<g id="edge4" class="edge">
<title>Node4&#45;&gt;Node5</title>
<path fill="none" stroke="midnightblue" d="M637.52,-139.96C616.15,-134.65 591.39,-128.5 571.33,-123.52"/>
<polygon fill="midnightblue" stroke="midnightblue" points="636.84,-143.4 647.39,-142.41 638.53,-136.6 636.84,-143.4"/>
</g>
<!-- Node8 -->
<g id="node8" class="node">
<title>Node8</title>
<g id="a_node8"><a xlink:href="classGPS.html#a217097ae4a846c621f001a5aa1f4fb4f" target="_top" xlink:title=" ">
<polygon fill="white" stroke="black" points="473,-142.5 473,-161.5 591,-161.5 591,-142.5 473,-142.5"/>
<text text-anchor="middle" x="532" y="-149.5" font-family="Helvetica,sans-Serif" font-size="10.00">GPS::ProcessMessage</text>
</a>
</g>
</g>
<!-- Node4&#45;&gt;Node8 -->
<g id="edge13" class="edge">
<title>Node4&#45;&gt;Node8</title>
<path fill="none" stroke="midnightblue" d="M616.6,-152C608.12,-152 599.53,-152 591.24,-152"/>
<polygon fill="midnightblue" stroke="midnightblue" points="616.85,-155.5 626.85,-152 616.85,-148.5 616.85,-155.5"/>
</g>
<!-- Node5&#45;&gt;Node1 -->
<g id="edge12" class="edge">
<title>Node5&#45;&gt;Node1</title>
<path fill="none" stroke="midnightblue" d="M595.6,-113.21C638.29,-113.01 696.09,-113.4 747,-116 869.31,-122.25 1012.72,-137.73 1085.83,-146.22"/>
<polygon fill="midnightblue" stroke="midnightblue" points="595.34,-109.71 585.37,-113.27 595.39,-116.71 595.34,-109.71"/>
</g>
<!-- Node5&#45;&gt;Node3 -->
<g id="edge11" class="edge">
<title>Node5&#45;&gt;Node3</title>
<path fill="none" stroke="midnightblue" d="M595.07,-117.7C637.9,-120.7 696.08,-125.64 747,-133 764.23,-135.49 783.05,-139.09 799.33,-142.49"/>
<polygon fill="midnightblue" stroke="midnightblue" points="595.29,-114.21 585.08,-117.02 594.81,-121.19 595.29,-114.21"/>
</g>
<!-- Node6 -->
<g id="node6" class="node">
<title>Node6</title>
<g id="a_node6"><a xlink:href="classGPS.html#ae4568ef4d5107c96c1af68d1abd33559" target="_top" xlink:title=" ">
<polygon fill="white" stroke="black" points="188,-133.5 188,-152.5 302,-152.5 302,-133.5 188,-133.5"/>
<text text-anchor="middle" x="245" y="-140.5" font-family="Helvetica,sans-Serif" font-size="10.00">GPS::closeConnection</text>
</a>
</g>
</g>
<!-- Node5&#45;&gt;Node6 -->
<g id="edge5" class="edge">
<title>Node5&#45;&gt;Node6</title>
<path fill="none" stroke="midnightblue" d="M468.76,-120.33C419.16,-125.38 350.31,-132.39 302.33,-137.27"/>
<polygon fill="midnightblue" stroke="midnightblue" points="469.13,-123.81 478.73,-119.32 468.42,-116.85 469.13,-123.81"/>
</g>
<!-- Node6&#45;&gt;Node2 -->
<g id="edge10" class="edge">
<title>Node6&#45;&gt;Node2</title>
<path fill="none" stroke="midnightblue" d="M266.32,-158.7C311.31,-191.86 423.89,-266 531,-266 688,-266 688,-266 688,-266 775.37,-266 876.82,-266 937.9,-266"/>
<polygon fill="midnightblue" stroke="midnightblue" points="268.34,-155.85 258.24,-152.65 264.14,-161.45 268.34,-155.85"/>
</g>
<!-- Node6&#45;&gt;Node7 -->
<g id="edge6" class="edge">
<title>Node6&#45;&gt;Node7</title>
<path fill="none" stroke="midnightblue" d="M177.81,-136.38C169.4,-136.25 160.75,-136.22 152.21,-136.28"/>
<polygon fill="midnightblue" stroke="midnightblue" points="177.86,-139.88 187.93,-136.58 178,-132.88 177.86,-139.88"/>
</g>
<!-- Node7&#45;&gt;Node1 -->
<g id="edge9" class="edge">
<title>Node7&#45;&gt;Node1</title>
<path fill="none" stroke="midnightblue" d="M91.33,-125.6C110.81,-103.16 147.85,-64.56 188,-44 268.43,-2.82 296.14,0 386.5,0 843.5,0 843.5,0 843.5,0 967.02,0 1089.86,-109.22 1124.43,-142.49"/>
<polygon fill="midnightblue" stroke="midnightblue" points="88.56,-123.46 84.75,-133.34 93.9,-127.99 88.56,-123.46"/>
</g>
<!-- Node7&#45;&gt;Node3 -->
<g id="edge8" class="edge">
<title>Node7&#45;&gt;Node3</title>
<path fill="none" stroke="midnightblue" d="M101.49,-128.53C152.59,-99.73 275.13,-38 386.5,-38 533,-38 533,-38 533,-38 653.19,-38 784.31,-115.08 827.12,-142.48"/>
<polygon fill="midnightblue" stroke="midnightblue" points="99.74,-125.49 92.79,-133.5 103.21,-131.57 99.74,-125.49"/>
</g>
<!-- Node7&#45;&gt;Node6 -->
<g id="edge7" class="edge">
<title>Node7&#45;&gt;Node6</title>
<path fill="none" stroke="midnightblue" d="M162.38,-149.75C171.04,-149.73 179.69,-149.62 187.93,-149.42"/>
<polygon fill="midnightblue" stroke="midnightblue" points="162.22,-146.25 152.21,-149.72 162.2,-153.25 162.22,-146.25"/>
</g>
<!-- Node9 -->
<g id="node9" class="node">
<title>Node9</title>
<g id="a_node9"><a xlink:href="classGPS.html#aa0928d156961a54bf06d9b5210d85561" target="_top" xlink:title=" ">
<polygon fill="white" stroke="black" points="338,-161.5 338,-180.5 437,-180.5 437,-161.5 338,-161.5"/>
<text text-anchor="middle" x="387.5" y="-168.5" font-family="Helvetica,sans-Serif" font-size="10.00">GPS::readyToRead</text>
</a>
</g>
</g>
<!-- Node8&#45;&gt;Node9 -->
<g id="edge14" class="edge">
<title>Node8&#45;&gt;Node9</title>
<path fill="none" stroke="midnightblue" d="M462.56,-161.13C453.93,-162.28 445.24,-163.43 437.01,-164.53"/>
<polygon fill="midnightblue" stroke="midnightblue" points="463.18,-164.57 472.63,-159.78 462.25,-157.64 463.18,-164.57"/>
</g>
<!-- Node9&#45;&gt;Node1 -->
<g id="edge17" class="edge">
<title>Node9&#45;&gt;Node1</title>
<path fill="none" stroke="midnightblue" d="M427.73,-183.43C484.2,-200.2 591.99,-228 686,-228 843.5,-228 843.5,-228 843.5,-228 947.24,-228 1065.24,-182.08 1112.64,-161.63"/>
<polygon fill="midnightblue" stroke="midnightblue" points="428.71,-180.07 418.12,-180.54 426.69,-186.78 428.71,-180.07"/>
</g>
<!-- Node9&#45;&gt;Node3 -->
<g id="edge16" class="edge">
<title>Node9&#45;&gt;Node3</title>
<path fill="none" stroke="midnightblue" d="M447.18,-174.55C518.32,-178.05 641.78,-181.47 747,-171 765.65,-169.14 786.07,-165.27 803.14,-161.51"/>
<polygon fill="midnightblue" stroke="midnightblue" points="447.23,-171.05 437.07,-174.04 446.88,-178.04 447.23,-171.05"/>
</g>
<!-- Node9&#45;&gt;Node6 -->
<g id="edge15" class="edge">
<title>Node9&#45;&gt;Node6</title>
<path fill="none" stroke="midnightblue" d="M328.52,-159.45C316.95,-157.14 304.92,-154.74 293.74,-152.51"/>
<polygon fill="midnightblue" stroke="midnightblue" points="328.05,-162.92 338.54,-161.44 329.42,-156.06 328.05,-162.92"/>
</g>
</g>
</svg>
        <g id="navigator" transform="translate(0 0)" fill="#404254">
                <rect fill="#f2f5e9" fill-opacity="0.5" stroke="#606060" stroke-width=".5" x="0" y="0" width="60" height="60"/>
                <use id="zoomplus" xlink:href="#zoomPlus" x="17" y="9" onmousedown="handleZoom(evt,'in')"/>
                <use id="zoomminus" xlink:href="#zoomMin" x="42" y="9" onmousedown="handleZoom(evt,'out')"/>
                <use id="reset" xlink:href="#resetDef" x="30" y="36" onmousedown="handleReset()"/>
                <g id="arrowUp" xlink:href="#dirArrow" transform="translate(30 24)" onmousedown="handlePan(0,-1)">
                  <use xlink:href="#rim" fill="#404040">
                        <set attributeName="fill" to="#808080" begin="arrowUp.mouseover" end="arrowUp.mouseout"/>
                  </use>
                  <path fill="none" stroke="white" stroke-width="1.5" d="M0,-3.0v7 M-2.5,-0.5L0,-3.0L2.5,-0.5"/>
                </g>
                <g id="arrowRight" xlink:href="#dirArrow" transform="rotate(90) translate(36 -43)" onmousedown="handlePan(1,0)">
                  <use xlink:href="#rim" fill="#404040">
                        <set attributeName="fill" to="#808080" begin="arrowRight.mouseover" end="arrowRight.mouseout"/>
                  </use>
                  <path fill="none" stroke="white" stroke-width="1.5" d="M0,-3.0v7 M-2.5,-0.5L0,-3.0L2.5,-0.5"/>
                </g>
                <g id="arrowDown" xlink:href="#dirArrow" transform="rotate(180) translate(-30 -48)" onmousedown="handlePan(0,1)">
                  <use xlink:href="#rim" fill="#404040">
                        <set attributeName="fill" to="#808080" begin="arrowDown.mouseover" end="arrowDown.mouseout"/>
                  </use>
                  <path fill="none" stroke="white" stroke-width="1.5" d="M0,-3.0v7 M-2.5,-0.5L0,-3.0L2.5,-0.5"/>
                </g>
                <g id="arrowLeft" xlink:href="#dirArrow" transform="rotate(270) translate(-36 17)" onmousedown="handlePan(-1,0)">
                  <use xlink:href="#rim" fill="#404040">
                        <set attributeName="fill" to="#808080" begin="arrowLeft.mouseover" end="arrowLeft.mouseout"/>
                  </use>
                  <path fill="none" stroke="white" stroke-width="1.5" d="M0,-3.0v7 M-2.5,-0.5L0,-3.0L2.5,-0.5"/>
                </g>
        </g>
        <svg viewBox="0 0 15 15" width="100%" height="30px" preserveAspectRatio="xMaxYMin meet">
         <g id="arrow_out" transform="scale(0.3 0.3)">
          <a xlink:href="classGPS_ac2a7572afb184df9c14ae913f17306bf_icgraph_org.svg" target="_base">
           <rect id="button" ry="5" rx="5" y="6" x="6" height="38" width="38"
                fill="#f2f5e9" fill-opacity="0.5" stroke="#606060" stroke-width="1.0"/>
           <path id="arrow"
             d="M 11.500037,31.436501 C 11.940474,20.09759 22.043105,11.32322 32.158766,21.979434 L 37.068811,17.246167 C 37.068811,17.246167 37.088388,32 37.088388,32 L 22.160133,31.978069 C 22.160133,31.978069 26.997745,27.140456 26.997745,27.140456 C 18.528582,18.264221 13.291696,25.230495 11.500037,31.436501 z"
             style="fill:#404040;"/>
          </a>
         </g>
        </svg>
</svg>
