<?xml version="1.0" encoding="UTF-8" standalone="no"?>
<!DOCTYPE svg PUBLIC "-//W3C//DTD SVG 1.1//EN"
 "http://www.w3.org/Graphics/SVG/1.1/DTD/svg11.dtd">
<!-- Generated by graphviz version 2.49.3 (20211027.1534)
 -->
<!-- Title: GPS::handleReconnectTimeout Pages: 1 -->
<svg width="1551pt" height="1014pt"
 viewBox="0.00 0.00 1551.00 1014.23" xmlns="http://www.w3.org/2000/svg" xmlns:xlink="http://www.w3.org/1999/xlink">
<g id="graph0" class="graph" transform="scale(1 1) rotate(0) translate(4 1010.23)">
<title>GPS::handleReconnectTimeout</title>
<polygon fill="white" stroke="transparent" points="-4,4 -4,-1010.23 1547,-1010.23 1547,4 -4,4"/>
<!-- Node1 -->
<g id="node1" class="node">
<title>Node1</title>
<g id="a_node1"><a xlink:title=" ">
<polygon fill="#bfbfbf" stroke="black" points="0,-132.5 0,-151.5 152,-151.5 152,-132.5 0,-132.5"/>
<text text-anchor="middle" x="76" y="-139.5" font-family="Helvetica,sans-Serif" font-size="10.00">GPS::handleReconnectTimeout</text>
</a>
</g>
</g>
<!-- Node2 -->
<g id="node2" class="node">
<title>Node2</title>
<g id="a_node2"><a xlink:href="classGPS.html#ae4568ef4d5107c96c1af68d1abd33559" target="_top" xlink:title=" ">
<polygon fill="white" stroke="black" points="188,-132.5 188,-151.5 302,-151.5 302,-132.5 188,-132.5"/>
<text text-anchor="middle" x="245" y="-139.5" font-family="Helvetica,sans-Serif" font-size="10.00">GPS::closeConnection</text>
</a>
</g>
</g>
<!-- Node1&#45;&gt;Node2 -->
<g id="edge1" class="edge">
<title>Node1&#45;&gt;Node2</title>
<path fill="none" stroke="midnightblue" d="M152.19,-135.28C160.69,-135.22 169.3,-135.25 177.67,-135.38"/>
<polygon fill="midnightblue" stroke="midnightblue" points="177.66,-138.88 187.73,-135.58 177.8,-131.88 177.66,-138.88"/>
</g>
<!-- Node8 -->
<g id="node8" class="node">
<title>Node8</title>
<g id="a_node8"><a xlink:href="classGPS.html#a51eaea2422dd980ea0a6d28f12a136de" target="_top" xlink:title=" ">
<polygon fill="white" stroke="black" points="972.5,-66.5 972.5,-85.5 1084.5,-85.5 1084.5,-66.5 972.5,-66.5"/>
<text text-anchor="middle" x="1028.5" y="-73.5" font-family="Helvetica,sans-Serif" font-size="10.00">GPS::openConnection</text>
</a>
</g>
</g>
<!-- Node1&#45;&gt;Node8 -->
<g id="edge55" class="edge">
<title>Node1&#45;&gt;Node8</title>
<path fill="none" stroke="midnightblue" d="M88.22,-132.46C126.87,-100.62 259.1,0 386.5,0 386.5,0 386.5,0 689,0 802.54,0 932.41,-41.21 993,-62.94"/>
<polygon fill="midnightblue" stroke="midnightblue" points="991.86,-66.25 1002.45,-66.37 994.25,-59.67 991.86,-66.25"/>
</g>
<!-- Node2&#45;&gt;Node1 -->
<g id="edge4" class="edge">
<title>Node2&#45;&gt;Node1</title>
<path fill="none" stroke="midnightblue" d="M187.73,-148.42C179.53,-148.63 170.93,-148.74 162.31,-148.75"/>
<polygon fill="midnightblue" stroke="midnightblue" points="162.2,-145.25 152.19,-148.72 162.18,-152.25 162.2,-145.25"/>
</g>
<!-- Node3 -->
<g id="node3" class="node">
<title>Node3</title>
<g id="a_node3"><a xlink:href="classGPS.html#a14c64eb8a4939f8f734b93ef3a21bb19" target="_top" xlink:title=" ">
<polygon fill="white" stroke="black" points="1276.5,-104.5 1276.5,-123.5 1367.5,-123.5 1367.5,-104.5 1276.5,-104.5"/>
<text text-anchor="middle" x="1322" y="-111.5" font-family="Helvetica,sans-Serif" font-size="10.00">GPS::handleError</text>
</a>
</g>
</g>
<!-- Node2&#45;&gt;Node3 -->
<g id="edge2" class="edge">
<title>Node2&#45;&gt;Node3</title>
<path fill="none" stroke="midnightblue" d="M277.4,-132.48C285.42,-130.04 294.03,-127.43 302,-125 318,-120.13 321.68,-117.67 338,-114 564.37,-63.07 622.47,-38 854.5,-38 854.5,-38 854.5,-38 1029.5,-38 1120.34,-38 1147.18,-27.23 1233,-57 1259.07,-66.04 1285.12,-84.36 1302.03,-97.8"/>
<polygon fill="midnightblue" stroke="midnightblue" points="1300.04,-100.69 1310,-104.31 1304.47,-95.27 1300.04,-100.69"/>
</g>
<!-- Node4 -->
<g id="node4" class="node">
<title>Node4</title>
<g id="a_node4"><a xlink:href="classDashBoard.html#acd9bb1ec108194ecb9d451b430275922" target="_top" xlink:title=" ">
<polygon fill="white" stroke="black" points="1411,-572.5 1411,-591.5 1543,-591.5 1543,-572.5 1411,-572.5"/>
<text text-anchor="middle" x="1477" y="-579.5" font-family="Helvetica,sans-Serif" font-size="10.00">DashBoard::setgpsFIXtype</text>
</a>
</g>
</g>
<!-- Node2&#45;&gt;Node4 -->
<g id="edge54" class="edge">
<title>Node2&#45;&gt;Node4</title>
<path fill="none" stroke="midnightblue" d="M246.99,-151.64C256.97,-245.9 342.65,-1000 531,-1000 531,-1000 531,-1000 1183,-1000 1269.51,-1000 1311.12,-1026.33 1375,-968 1430.72,-917.12 1464.75,-673.32 1473.65,-601.78"/>
<polygon fill="midnightblue" stroke="midnightblue" points="1477.13,-602.18 1474.86,-591.83 1470.18,-601.33 1477.13,-602.18"/>
</g>
<!-- Node5 -->
<g id="node5" class="node">
<title>Node5</title>
<g id="a_node5"><a xlink:href="classGPS.html#a1b1c89214229f5dc8ff7e2fa9cbcad35" target="_top" xlink:title=" ">
<polygon fill="white" stroke="black" points="1269,-256.5 1269,-275.5 1375,-275.5 1375,-256.5 1269,-256.5"/>
<text text-anchor="middle" x="1322" y="-263.5" font-family="Helvetica,sans-Serif" font-size="10.00">GPS::handleTimeout</text>
</a>
</g>
</g>
<!-- Node2&#45;&gt;Node5 -->
<g id="edge5" class="edge">
<title>Node2&#45;&gt;Node5</title>
<path fill="none" stroke="midnightblue" d="M261.02,-151.56C278.75,-162.44 309.44,-179.97 338,-190 420.49,-218.96 443.58,-228 531,-228 531,-228 531,-228 689,-228 897.92,-228 1144.99,-248.95 1258.4,-259.74"/>
<polygon fill="midnightblue" stroke="midnightblue" points="1258.34,-263.25 1268.63,-260.72 1259.01,-256.28 1258.34,-263.25"/>
</g>
<!-- Node10 -->
<g id="node10" class="node">
<title>Node10</title>
<g id="a_node10"><a xlink:href="classGPS.html#aa0928d156961a54bf06d9b5210d85561" target="_top" xlink:title=" ">
<polygon fill="white" stroke="black" points="338,-161.5 338,-180.5 437,-180.5 437,-161.5 338,-161.5"/>
<text text-anchor="middle" x="387.5" y="-168.5" font-family="Helvetica,sans-Serif" font-size="10.00">GPS::readyToRead</text>
</a>
</g>
</g>
<!-- Node2&#45;&gt;Node10 -->
<g id="edge53" class="edge">
<title>Node2&#45;&gt;Node10</title>
<path fill="none" stroke="midnightblue" d="M292.39,-151.58C304.5,-154.08 317.69,-156.8 330.25,-159.39"/>
<polygon fill="midnightblue" stroke="midnightblue" points="329.65,-162.84 340.15,-161.43 331.07,-155.98 329.65,-162.84"/>
</g>
<!-- Node3&#45;&gt;Node4 -->
<g id="edge3" class="edge">
<title>Node3&#45;&gt;Node4</title>
<path fill="none" stroke="midnightblue" d="M1355.57,-123.54C1362.86,-127.04 1369.93,-131.74 1375,-138 1429.68,-205.47 1464.9,-484.2 1473.78,-561.84"/>
<polygon fill="midnightblue" stroke="midnightblue" points="1470.35,-562.61 1474.94,-572.15 1477.3,-561.83 1470.35,-562.61"/>
</g>
<!-- Node6 -->
<g id="node6" class="node">
<title>Node6</title>
<g id="a_node6"><a xlink:href="classGPS.html#abd750ada6a7b976f72761ce16246ccf6" target="_top" xlink:title=" ">
<polygon fill="white" stroke="black" points="628,-351.5 628,-370.5 748,-370.5 748,-351.5 628,-351.5"/>
<text text-anchor="middle" x="688" y="-358.5" font-family="Helvetica,sans-Serif" font-size="10.00">GPS::setGPSBAUD115</text>
</a>
</g>
</g>
<!-- Node5&#45;&gt;Node6 -->
<g id="edge6" class="edge">
<title>Node5&#45;&gt;Node6</title>
<path fill="none" stroke="midnightblue" d="M1309.04,-275.51C1292.86,-287.77 1262.61,-308.64 1233,-318 1146.46,-345.37 884.7,-355.86 758.5,-359.4"/>
<polygon fill="midnightblue" stroke="midnightblue" points="758.09,-355.91 748.19,-359.68 758.28,-362.91 758.09,-355.91"/>
</g>
<!-- Node6&#45;&gt;Node4 -->
<g id="edge52" class="edge">
<title>Node6&#45;&gt;Node4</title>
<path fill="none" stroke="midnightblue" d="M748.26,-366.34C815.79,-371.96 929.5,-380 1027.5,-380 1027.5,-380 1027.5,-380 1183,-380 1312.13,-380 1425.7,-514.63 1463.05,-564.07"/>
<polygon fill="midnightblue" stroke="midnightblue" points="1460.36,-566.31 1469.13,-572.26 1465.98,-562.14 1460.36,-566.31"/>
</g>
<!-- Node7 -->
<g id="node7" class="node">
<title>Node7</title>
<g id="a_node7"><a xlink:href="classGPS.html#a8775edfa08840ffb2647e0e5ba031fe5" target="_top" xlink:title=" ">
<polygon fill="white" stroke="black" points="796,-142.5 796,-161.5 915,-161.5 915,-142.5 796,-142.5"/>
<text text-anchor="middle" x="855.5" y="-149.5" font-family="Helvetica,sans-Serif" font-size="10.00">GPS::closeConnection1</text>
</a>
</g>
</g>
<!-- Node6&#45;&gt;Node7 -->
<g id="edge7" class="edge">
<title>Node6&#45;&gt;Node7</title>
<path fill="none" stroke="midnightblue" d="M696.54,-351.48C722.28,-318.97 806.93,-212.07 840.55,-169.61"/>
<polygon fill="midnightblue" stroke="midnightblue" points="843.45,-171.59 846.91,-161.58 837.96,-167.25 843.45,-171.59"/>
</g>
<!-- Node7&#45;&gt;Node1 -->
<g id="edge9" class="edge">
<title>Node7&#45;&gt;Node1</title>
<path fill="none" stroke="midnightblue" d="M811.37,-142.49C722.79,-124.09 513.91,-86.59 338,-100 266.35,-105.46 184.72,-119.95 132.11,-130.38"/>
<polygon fill="midnightblue" stroke="midnightblue" points="131.11,-127.02 121.99,-132.41 132.49,-133.88 131.11,-127.02"/>
</g>
<!-- Node7&#45;&gt;Node3 -->
<g id="edge8" class="edge">
<title>Node7&#45;&gt;Node3</title>
<path fill="none" stroke="midnightblue" d="M915.01,-143.54C930.29,-141.53 946.74,-139.52 962,-138 1069.46,-127.29 1195.49,-120.1 1266.02,-116.56"/>
<polygon fill="midnightblue" stroke="midnightblue" points="1266.61,-120.04 1276.43,-116.04 1266.27,-113.04 1266.61,-120.04"/>
</g>
<!-- Node7&#45;&gt;Node4 -->
<g id="edge51" class="edge">
<title>Node7&#45;&gt;Node4</title>
<path fill="none" stroke="midnightblue" d="M915.16,-147.14C990.32,-142.67 1123.91,-140.7 1233,-171 1301.97,-190.16 1329.65,-191.62 1375,-247 1455.3,-345.07 1471.8,-505.83 1475.15,-561.93"/>
<polygon fill="midnightblue" stroke="midnightblue" points="1471.68,-562.45 1475.69,-572.25 1478.67,-562.08 1471.68,-562.45"/>
</g>
<!-- Node7&#45;&gt;Node5 -->
<g id="edge10" class="edge">
<title>Node7&#45;&gt;Node5</title>
<path fill="none" stroke="midnightblue" d="M895.3,-161.52C979.58,-182.21 1179.21,-231.2 1272.01,-253.98"/>
<polygon fill="midnightblue" stroke="midnightblue" points="1271.43,-257.44 1281.98,-256.42 1273.1,-250.64 1271.43,-257.44"/>
</g>
<!-- Node7&#45;&gt;Node8 -->
<g id="edge11" class="edge">
<title>Node7&#45;&gt;Node8</title>
<path fill="none" stroke="midnightblue" d="M891.38,-142.44C902.76,-138.68 915.23,-133.84 926,-128 943.82,-118.34 944.27,-109.83 962,-100 969.46,-95.86 977.78,-92.19 985.91,-89.03"/>
<polygon fill="midnightblue" stroke="midnightblue" points="987.14,-92.31 995.31,-85.57 984.72,-85.74 987.14,-92.31"/>
</g>
<!-- Node7&#45;&gt;Node10 -->
<g id="edge50" class="edge">
<title>Node7&#45;&gt;Node10</title>
<path fill="none" stroke="midnightblue" d="M795.88,-154.39C706.44,-158.04 536.86,-164.95 447.3,-168.6"/>
<polygon fill="midnightblue" stroke="midnightblue" points="446.9,-165.12 437.05,-169.02 447.19,-172.11 446.9,-165.12"/>
</g>
<!-- Node8&#45;&gt;Node2 -->
<g id="edge12" class="edge">
<title>Node8&#45;&gt;Node2</title>
<path fill="none" stroke="midnightblue" d="M975.22,-85.54C908.9,-96.8 790.86,-114 689,-114 531,-114 531,-114 531,-114 455.72,-114 369.8,-123.79 312.15,-131.8"/>
<polygon fill="midnightblue" stroke="midnightblue" points="311.49,-128.36 302.08,-133.22 312.47,-135.29 311.49,-128.36"/>
</g>
<!-- Node8&#45;&gt;Node4 -->
<g id="edge48" class="edge">
<title>Node8&#45;&gt;Node4</title>
<path fill="none" stroke="midnightblue" d="M1058.01,-66.4C1124.73,-45.95 1291.67,-6.78 1375,-95 1440.83,-164.69 1468.45,-479.9 1474.62,-562.26"/>
<polygon fill="midnightblue" stroke="midnightblue" points="1471.13,-562.57 1475.35,-572.29 1478.11,-562.06 1471.13,-562.57"/>
</g>
<!-- Node9 -->
<g id="node9" class="node">
<title>Node9</title>
<g id="a_node9"><a xlink:href="classGPS.html#ac2a7572afb184df9c14ae913f17306bf" target="_top" xlink:title=" ">
<polygon fill="white" stroke="black" points="1133,-180.5 1133,-199.5 1231,-199.5 1231,-180.5 1133,-180.5"/>
<text text-anchor="middle" x="1182" y="-187.5" font-family="Helvetica,sans-Serif" font-size="10.00">GPS::initSerialPort</text>
</a>
</g>
</g>
<!-- Node8&#45;&gt;Node9 -->
<g id="edge13" class="edge">
<title>Node8&#45;&gt;Node9</title>
<path fill="none" stroke="midnightblue" d="M1042.16,-85.52C1068.16,-105.09 1127.83,-149.99 1159.82,-174.06"/>
<polygon fill="midnightblue" stroke="midnightblue" points="1157.96,-177.05 1168.06,-180.26 1162.17,-171.45 1157.96,-177.05"/>
</g>
<!-- Node32 -->
<g id="node32" class="node">
<title>Node32</title>
<g id="a_node32"><a xlink:href="classSerialPort.html#aad156293689e349b3674671f8a8d8048" target="_top" xlink:title=" ">
<polygon fill="white" stroke="black" points="1131,-66.5 1131,-85.5 1233,-85.5 1233,-66.5 1131,-66.5"/>
<text text-anchor="middle" x="1182" y="-73.5" font-family="Helvetica,sans-Serif" font-size="10.00">SerialPort::setParity</text>
</a>
</g>
</g>
<!-- Node8&#45;&gt;Node32 -->
<g id="edge49" class="edge">
<title>Node8&#45;&gt;Node32</title>
<path fill="none" stroke="midnightblue" d="M1084.62,-76C1096.27,-76 1108.62,-76 1120.46,-76"/>
<polygon fill="midnightblue" stroke="midnightblue" points="1120.7,-79.5 1130.7,-76 1120.7,-72.5 1120.7,-79.5"/>
</g>
<!-- Node9&#45;&gt;Node1 -->
<g id="edge15" class="edge">
<title>Node9&#45;&gt;Node1</title>
<path fill="none" stroke="midnightblue" d="M1157.03,-199.63C1103.86,-220.08 971.64,-266 856.5,-266 386.5,-266 386.5,-266 386.5,-266 270.94,-266 147.4,-190.59 98.6,-157.39"/>
<polygon fill="midnightblue" stroke="midnightblue" points="100.33,-154.33 90.12,-151.52 96.35,-160.09 100.33,-154.33"/>
</g>
<!-- Node9&#45;&gt;Node3 -->
<g id="edge14" class="edge">
<title>Node9&#45;&gt;Node3</title>
<path fill="none" stroke="midnightblue" d="M1200.48,-180.37C1224.22,-167.3 1266.88,-143.8 1294.56,-128.56"/>
<polygon fill="midnightblue" stroke="midnightblue" points="1296.59,-131.44 1303.66,-123.55 1293.22,-125.31 1296.59,-131.44"/>
</g>
<!-- Node9&#45;&gt;Node5 -->
<g id="edge16" class="edge">
<title>Node9&#45;&gt;Node5</title>
<path fill="none" stroke="midnightblue" d="M1204.12,-199.65C1213.11,-203.88 1223.66,-209.01 1233,-214 1254.92,-225.71 1279.2,-240.17 1296.69,-250.87"/>
<polygon fill="midnightblue" stroke="midnightblue" points="1295.3,-254.12 1305.65,-256.38 1298.97,-248.16 1295.3,-254.12"/>
</g>
<!-- Node9&#45;&gt;Node10 -->
<g id="edge17" class="edge">
<title>Node9&#45;&gt;Node10</title>
<path fill="none" stroke="midnightblue" d="M1132.89,-190C1069.54,-190 954.67,-190 856.5,-190 687,-190 687,-190 687,-190 603.55,-190 507.24,-182.51 447.1,-176.94"/>
<polygon fill="midnightblue" stroke="midnightblue" points="447.32,-173.44 437.04,-175.99 446.67,-180.41 447.32,-173.44"/>
</g>
<!-- Node11 -->
<g id="node11" class="node">
<title>Node11</title>
<g id="a_node11"><a xlink:href="classGPS.html#a217097ae4a846c621f001a5aa1f4fb4f" target="_top" xlink:title=" ">
<polygon fill="white" stroke="black" points="473,-648.5 473,-667.5 591,-667.5 591,-648.5 473,-648.5"/>
<text text-anchor="middle" x="532" y="-655.5" font-family="Helvetica,sans-Serif" font-size="10.00">GPS::ProcessMessage</text>
</a>
</g>
</g>
<!-- Node10&#45;&gt;Node11 -->
<g id="edge18" class="edge">
<title>Node10&#45;&gt;Node11</title>
<path fill="none" stroke="midnightblue" d="M391.35,-180.73C408.79,-240.33 501.23,-556.26 525.28,-638.44"/>
<polygon fill="midnightblue" stroke="midnightblue" points="521.98,-639.63 528.15,-648.25 528.7,-637.67 521.98,-639.63"/>
</g>
<!-- Node11&#45;&gt;Node4 -->
<g id="edge47" class="edge">
<title>Node11&#45;&gt;Node4</title>
<path fill="none" stroke="midnightblue" d="M541.35,-667.68C575.72,-706.4 711.22,-848 854.5,-848 854.5,-848 854.5,-848 1183,-848 1330.1,-848 1436.1,-661.92 1466.85,-601.03"/>
<polygon fill="midnightblue" stroke="midnightblue" points="1470.13,-602.3 1471.42,-591.78 1463.85,-599.2 1470.13,-602.3"/>
</g>
<!-- Node11&#45;&gt;Node6 -->
<g id="edge46" class="edge">
<title>Node11&#45;&gt;Node6</title>
<path fill="none" stroke="midnightblue" d="M537.95,-648.45C559.8,-606.31 647.88,-436.44 677.35,-379.62"/>
<polygon fill="midnightblue" stroke="midnightblue" points="680.5,-381.15 681.99,-370.66 674.28,-377.93 680.5,-381.15"/>
</g>
<!-- Node12 -->
<g id="node12" class="node">
<title>Node12</title>
<g id="a_node12"><a xlink:href="classGPS.html#a20f1883fa42ff859903a07444ac15628" target="_top" xlink:title=" ">
<polygon fill="white" stroke="black" points="646.5,-553.5 646.5,-572.5 729.5,-572.5 729.5,-553.5 646.5,-553.5"/>
<text text-anchor="middle" x="688" y="-560.5" font-family="Helvetica,sans-Serif" font-size="10.00">GPS::logNMEA</text>
</a>
</g>
</g>
<!-- Node11&#45;&gt;Node12 -->
<g id="edge19" class="edge">
<title>Node11&#45;&gt;Node12</title>
<path fill="none" stroke="midnightblue" d="M542.27,-648.46C558.21,-632.57 592.43,-600.58 627,-582 631.01,-579.85 635.3,-577.89 639.67,-576.13"/>
<polygon fill="midnightblue" stroke="midnightblue" points="641.14,-579.31 649.31,-572.56 638.71,-572.75 641.14,-579.31"/>
</g>
<!-- Node13 -->
<g id="node13" class="node">
<title>Node13</title>
<g id="a_node13"><a xlink:href="classGPS.html#a6fbf5e49f6a05b056835666f2e1cb830" target="_top" xlink:title=" ">
<polygon fill="white" stroke="black" points="631.5,-591.5 631.5,-610.5 744.5,-610.5 744.5,-591.5 631.5,-591.5"/>
<text text-anchor="middle" x="688" y="-598.5" font-family="Helvetica,sans-Serif" font-size="10.00">GPS::processGPGGA</text>
</a>
</g>
</g>
<!-- Node11&#45;&gt;Node13 -->
<g id="edge20" class="edge">
<title>Node11&#45;&gt;Node13</title>
<path fill="none" stroke="midnightblue" d="M558.78,-648.46C584.21,-639.05 623.28,-624.59 651.61,-614.1"/>
<polygon fill="midnightblue" stroke="midnightblue" points="652.98,-617.33 661.14,-610.57 650.55,-610.76 652.98,-617.33"/>
</g>
<!-- Node25 -->
<g id="node25" class="node">
<title>Node25</title>
<g id="a_node25"><a xlink:href="classGPS.html#a9f0cacdc6f30465399f19ccb19edde1a" target="_top" xlink:title=" ">
<polygon fill="white" stroke="black" points="631.5,-667.5 631.5,-686.5 744.5,-686.5 744.5,-667.5 631.5,-667.5"/>
<text text-anchor="middle" x="688" y="-674.5" font-family="Helvetica,sans-Serif" font-size="10.00">GPS::processGPRMC</text>
</a>
</g>
</g>
<!-- Node11&#45;&gt;Node25 -->
<g id="edge33" class="edge">
<title>Node11&#45;&gt;Node25</title>
<path fill="none" stroke="midnightblue" d="M591.22,-665.18C601.12,-666.4 611.47,-667.68 621.54,-668.92"/>
<polygon fill="midnightblue" stroke="midnightblue" points="621.14,-672.4 631.5,-670.15 622,-665.45 621.14,-672.4"/>
</g>
<!-- Node29 -->
<g id="node29" class="node">
<title>Node29</title>
<g id="a_node29"><a xlink:href="classGPS.html#a125284d30c7901ba52ed190e519bc3b2" target="_top" xlink:title=" ">
<polygon fill="white" stroke="black" points="627,-876.5 627,-895.5 749,-895.5 749,-876.5 627,-876.5"/>
<text text-anchor="middle" x="688" y="-883.5" font-family="Helvetica,sans-Serif" font-size="10.00">GPS::removeNMEAmsg</text>
</a>
</g>
</g>
<!-- Node11&#45;&gt;Node29 -->
<g id="edge41" class="edge">
<title>Node11&#45;&gt;Node29</title>
<path fill="none" stroke="midnightblue" d="M534.78,-667.58C541.23,-699.61 566.22,-804.25 627,-862 631.12,-865.91 635.95,-869.22 641.06,-872"/>
<polygon fill="midnightblue" stroke="midnightblue" points="639.92,-875.33 650.46,-876.46 642.93,-869.01 639.92,-875.33"/>
</g>
<!-- Node31 -->
<g id="node31" class="node">
<title>Node31</title>
<g id="a_node31"><a xlink:href="classGPS.html#a052c61711107964bbde54f86edb110ff" target="_top" xlink:title=" ">
<polygon fill="white" stroke="black" points="1131.5,-952.5 1131.5,-971.5 1232.5,-971.5 1232.5,-952.5 1131.5,-952.5"/>
<text text-anchor="middle" x="1182" y="-959.5" font-family="Helvetica,sans-Serif" font-size="10.00">GPS::setGPS10HZ</text>
</a>
</g>
</g>
<!-- Node11&#45;&gt;Node31 -->
<g id="edge44" class="edge">
<title>Node11&#45;&gt;Node31</title>
<path fill="none" stroke="midnightblue" d="M533.52,-667.64C536.05,-704.77 550.4,-839.62 627,-905 700.05,-967.35 993.36,-967.26 1121.07,-964.09"/>
<polygon fill="midnightblue" stroke="midnightblue" points="1121.54,-967.57 1131.44,-963.81 1121.36,-960.58 1121.54,-967.57"/>
</g>
<!-- Node13&#45;&gt;Node4 -->
<g id="edge28" class="edge">
<title>Node13&#45;&gt;Node4</title>
<path fill="none" stroke="midnightblue" d="M744.65,-595.96C811.68,-590.33 927.73,-582 1027.5,-582 1027.5,-582 1027.5,-582 1183,-582 1257.05,-582 1341.63,-582 1400.82,-582"/>
<polygon fill="midnightblue" stroke="midnightblue" points="1400.83,-585.5 1410.83,-582 1400.83,-578.5 1400.83,-585.5"/>
</g>
<!-- Node14 -->
<g id="node14" class="node">
<title>Node14</title>
<g id="a_node14"><a xlink:href="classGPS.html#a894018a07e73bdc11af81f5db97f6b28" target="_top" xlink:title=" ">
<polygon fill="white" stroke="black" points="804,-534.5 804,-553.5 907,-553.5 907,-534.5 804,-534.5"/>
<text text-anchor="middle" x="855.5" y="-541.5" font-family="Helvetica,sans-Serif" font-size="10.00">GPS::checknewLap</text>
</a>
</g>
</g>
<!-- Node13&#45;&gt;Node14 -->
<g id="edge21" class="edge">
<title>Node13&#45;&gt;Node14</title>
<path fill="none" stroke="midnightblue" d="M720.58,-591.42C729.78,-588.51 739.83,-585.23 749,-582 765.19,-576.29 768.88,-573.91 785,-568 795.17,-564.27 806.24,-560.37 816.49,-556.83"/>
<polygon fill="midnightblue" stroke="midnightblue" points="817.69,-560.12 826.01,-553.56 815.41,-553.5 817.69,-560.12"/>
</g>
<!-- Node19 -->
<g id="node19" class="node">
<title>Node19</title>
<g id="a_node19"><a xlink:href="classGPS.html#a75bada3072c3235ae1d076d5ce002175" target="_top" xlink:title=" ">
<polygon fill="white" stroke="black" points="795,-686.5 795,-705.5 916,-705.5 916,-686.5 795,-686.5"/>
<text text-anchor="middle" x="855.5" y="-693.5" font-family="Helvetica,sans-Serif" font-size="10.00">GPS::convertToDecimal</text>
</a>
</g>
</g>
<!-- Node13&#45;&gt;Node19 -->
<g id="edge26" class="edge">
<title>Node13&#45;&gt;Node19</title>
<path fill="none" stroke="midnightblue" d="M698.43,-610.68C714.65,-626.78 749.53,-659.06 785,-677 789.56,-679.3 794.43,-681.36 799.4,-683.18"/>
<polygon fill="midnightblue" stroke="midnightblue" points="798.42,-686.55 809.02,-686.41 800.65,-679.91 798.42,-686.55"/>
</g>
<!-- Node20 -->
<g id="node20" class="node">
<title>Node20</title>
<g id="a_node20"><a xlink:href="classDashBoard.html#a998569aa565c0a5a872810160266f681" target="_top" xlink:title=" ">
<polygon fill="white" stroke="black" points="790,-408.5 790,-427.5 921,-427.5 921,-408.5 790,-408.5"/>
<text text-anchor="middle" x="855.5" y="-415.5" font-family="Helvetica,sans-Serif" font-size="10.00">DashBoard::setgpsAltitude</text>
</a>
</g>
</g>
<!-- Node13&#45;&gt;Node20 -->
<g id="edge27" class="edge">
<title>Node13&#45;&gt;Node20</title>
<path fill="none" stroke="midnightblue" d="M736.05,-591.47C740.87,-589 745.33,-585.9 749,-582 794.19,-533.94 739.18,-485.46 785,-438 786.83,-436.1 788.83,-434.38 790.96,-432.82"/>
<polygon fill="midnightblue" stroke="midnightblue" points="792.93,-435.72 799.7,-427.57 789.33,-429.72 792.93,-435.72"/>
</g>
<!-- Node21 -->
<g id="node21" class="node">
<title>Node21</title>
<g id="a_node21"><a xlink:href="classDashBoard.html#a5eb7cceabcdbd62521c9512cba7fbf02" target="_top" xlink:title=" ">
<polygon fill="white" stroke="black" points="792,-496.5 792,-515.5 919,-515.5 919,-496.5 792,-496.5"/>
<text text-anchor="middle" x="855.5" y="-503.5" font-family="Helvetica,sans-Serif" font-size="10.00">DashBoard::setgpsHDOP</text>
</a>
</g>
</g>
<!-- Node13&#45;&gt;Node21 -->
<g id="edge29" class="edge">
<title>Node13&#45;&gt;Node21</title>
<path fill="none" stroke="midnightblue" d="M732.15,-591.43C738.16,-588.96 743.98,-585.87 749,-582 772.72,-563.7 760.92,-542.83 785,-525 787.53,-523.13 790.24,-521.44 793.06,-519.91"/>
<polygon fill="midnightblue" stroke="midnightblue" points="794.79,-522.97 802.4,-515.59 791.85,-516.62 794.79,-522.97"/>
</g>
<!-- Node22 -->
<g id="node22" class="node">
<title>Node22</title>
<g id="a_node22"><a xlink:href="classDashBoard.html#a13f7ff18107138daa6618a4564e935be" target="_top" xlink:title=" ">
<polygon fill="white" stroke="black" points="788.5,-648.5 788.5,-667.5 922.5,-667.5 922.5,-648.5 788.5,-648.5"/>
<text text-anchor="middle" x="855.5" y="-655.5" font-family="Helvetica,sans-Serif" font-size="10.00">DashBoard::setgpsLatitude</text>
</a>
</g>
</g>
<!-- Node13&#45;&gt;Node22 -->
<g id="edge30" class="edge">
<title>Node13&#45;&gt;Node22</title>
<path fill="none" stroke="midnightblue" d="M711.24,-610.61C730.54,-618.76 759.32,-630.44 785,-639 792.1,-641.37 799.67,-643.66 807.11,-645.8"/>
<polygon fill="midnightblue" stroke="midnightblue" points="806.19,-649.17 816.76,-648.49 808.07,-642.43 806.19,-649.17"/>
</g>
<!-- Node23 -->
<g id="node23" class="node">
<title>Node23</title>
<g id="a_node23"><a xlink:href="classDashBoard.html#a32b0f4d9b9cdbecb02c96c9e814f0114" target="_top" xlink:title=" ">
<polygon fill="white" stroke="black" points="785,-610.5 785,-629.5 926,-629.5 926,-610.5 785,-610.5"/>
<text text-anchor="middle" x="855.5" y="-617.5" font-family="Helvetica,sans-Serif" font-size="10.00">DashBoard::setgpsLongitude</text>
</a>
</g>
</g>
<!-- Node13&#45;&gt;Node23 -->
<g id="edge31" class="edge">
<title>Node13&#45;&gt;Node23</title>
<path fill="none" stroke="midnightblue" d="M744.57,-607.38C754.29,-608.5 764.57,-609.68 774.79,-610.85"/>
<polygon fill="midnightblue" stroke="midnightblue" points="774.63,-614.35 784.97,-612.02 775.43,-607.4 774.63,-614.35"/>
</g>
<!-- Node24 -->
<g id="node24" class="node">
<title>Node24</title>
<g id="a_node24"><a xlink:href="classDashBoard.html#a3e4b2d7b59990a8fcf2d6b561ad30fba" target="_top" xlink:title=" ">
<polygon fill="white" stroke="black" points="791.5,-447 791.5,-477 919.5,-477 919.5,-447 791.5,-447"/>
<text text-anchor="start" x="799.5" y="-465" font-family="Helvetica,sans-Serif" font-size="10.00">DashBoard::setgpsVisible</text>
<text text-anchor="middle" x="855.5" y="-454" font-family="Helvetica,sans-Serif" font-size="10.00">Satelites</text>
</a>
</g>
</g>
<!-- Node13&#45;&gt;Node24 -->
<g id="edge32" class="edge">
<title>Node13&#45;&gt;Node24</title>
<path fill="none" stroke="midnightblue" d="M734.72,-591.47C739.95,-589.01 744.87,-585.9 749,-582 781.8,-550.97 752.8,-518.66 785,-487 786.47,-485.55 788.04,-484.18 789.68,-482.9"/>
<polygon fill="midnightblue" stroke="midnightblue" points="792.01,-485.55 798.39,-477.09 788.13,-479.72 792.01,-485.55"/>
</g>
<!-- Node15 -->
<g id="node15" class="node">
<title>Node15</title>
<g id="a_node15"><a xlink:href="gps_8cpp.html#a356f47852da8a45bf4dd9944e08b7d3e" target="_top" xlink:title=" ">
<polygon fill="white" stroke="black" points="999,-458.5 999,-477.5 1058,-477.5 1058,-458.5 999,-458.5"/>
<text text-anchor="middle" x="1028.5" y="-465.5" font-family="Helvetica,sans-Serif" font-size="10.00">fastestlap</text>
</a>
</g>
</g>
<!-- Node14&#45;&gt;Node15 -->
<g id="edge22" class="edge">
<title>Node14&#45;&gt;Node15</title>
<path fill="none" stroke="midnightblue" d="M905.01,-534.42C912.32,-531.95 919.56,-528.86 926,-525 945.96,-513.05 942.13,-499.11 962,-487 970.17,-482.02 979.7,-478.29 988.93,-475.52"/>
<polygon fill="midnightblue" stroke="midnightblue" points="990,-478.86 998.74,-472.88 988.17,-472.1 990,-478.86"/>
</g>
<!-- Node16 -->
<g id="node16" class="node">
<title>Node16</title>
<g id="a_node16"><a xlink:href="classDashBoard.html#ae5d69bcab58e2e497902387d03cc9146" target="_top" xlink:title=" ">
<polygon fill="white" stroke="black" points="962,-420.5 962,-439.5 1095,-439.5 1095,-420.5 962,-420.5"/>
<text text-anchor="middle" x="1028.5" y="-427.5" font-family="Helvetica,sans-Serif" font-size="10.00">DashBoard::setbestlaptime</text>
</a>
</g>
</g>
<!-- Node14&#45;&gt;Node16 -->
<g id="edge23" class="edge">
<title>Node14&#45;&gt;Node16</title>
<path fill="none" stroke="midnightblue" d="M907.29,-535.71C914.06,-533.06 920.54,-529.58 926,-525 954.64,-500.99 933.54,-473.23 962,-449 964.01,-447.29 966.17,-445.73 968.43,-444.31"/>
<polygon fill="midnightblue" stroke="midnightblue" points="970.37,-447.25 977.61,-439.51 967.12,-441.05 970.37,-447.25"/>
</g>
<!-- Node17 -->
<g id="node17" class="node">
<title>Node17</title>
<g id="a_node17"><a xlink:href="classDashBoard.html#af147e933576adcd81892aca4e74df784" target="_top" xlink:title=" ">
<polygon fill="white" stroke="black" points="964,-534.5 964,-553.5 1093,-553.5 1093,-534.5 964,-534.5"/>
<text text-anchor="middle" x="1028.5" y="-541.5" font-family="Helvetica,sans-Serif" font-size="10.00">DashBoard::setcurrentLap</text>
</a>
</g>
</g>
<!-- Node14&#45;&gt;Node17 -->
<g id="edge24" class="edge">
<title>Node14&#45;&gt;Node17</title>
<path fill="none" stroke="midnightblue" d="M907.34,-544C921.88,-544 938.02,-544 953.64,-544"/>
<polygon fill="midnightblue" stroke="midnightblue" points="953.81,-547.5 963.81,-544 953.81,-540.5 953.81,-547.5"/>
</g>
<!-- Node18 -->
<g id="node18" class="node">
<title>Node18</title>
<g id="a_node18"><a xlink:href="classDashBoard.html#a023ed00fbd93bad06e98426b7583022c" target="_top" xlink:title=" ">
<polygon fill="white" stroke="black" points="971.5,-496.5 971.5,-515.5 1085.5,-515.5 1085.5,-496.5 971.5,-496.5"/>
<text text-anchor="middle" x="1028.5" y="-503.5" font-family="Helvetica,sans-Serif" font-size="10.00">DashBoard::setlaptime</text>
</a>
</g>
</g>
<!-- Node14&#45;&gt;Node18 -->
<g id="edge25" class="edge">
<title>Node14&#45;&gt;Node18</title>
<path fill="none" stroke="midnightblue" d="M899.65,-534.41C922.42,-529.35 950.55,-523.1 974.62,-517.75"/>
<polygon fill="midnightblue" stroke="midnightblue" points="975.66,-521.11 984.66,-515.52 974.14,-514.27 975.66,-521.11"/>
</g>
<!-- Node25&#45;&gt;Node14 -->
<g id="edge34" class="edge">
<title>Node25&#45;&gt;Node14</title>
<path fill="none" stroke="midnightblue" d="M700.9,-667.43C728.92,-644.92 799.28,-588.38 834.19,-560.32"/>
<polygon fill="midnightblue" stroke="midnightblue" points="836.66,-562.83 842.26,-553.84 832.27,-557.37 836.66,-562.83"/>
</g>
<!-- Node25&#45;&gt;Node19 -->
<g id="edge35" class="edge">
<title>Node25&#45;&gt;Node19</title>
<path fill="none" stroke="midnightblue" d="M744.57,-683.38C757.44,-684.86 771.3,-686.45 784.69,-687.99"/>
<polygon fill="midnightblue" stroke="midnightblue" points="784.49,-691.49 794.82,-689.15 785.28,-684.53 784.49,-691.49"/>
</g>
<!-- Node25&#45;&gt;Node22 -->
<g id="edge37" class="edge">
<title>Node25&#45;&gt;Node22</title>
<path fill="none" stroke="midnightblue" d="M744.57,-670.62C755.46,-669.37 767.07,-668.04 778.49,-666.73"/>
<polygon fill="midnightblue" stroke="midnightblue" points="778.94,-670.2 788.47,-665.58 778.14,-663.24 778.94,-670.2"/>
</g>
<!-- Node25&#45;&gt;Node23 -->
<g id="edge38" class="edge">
<title>Node25&#45;&gt;Node23</title>
<path fill="none" stroke="midnightblue" d="M711.24,-667.39C730.54,-659.24 759.32,-647.56 785,-639 792.1,-636.63 799.67,-634.34 807.11,-632.2"/>
<polygon fill="midnightblue" stroke="midnightblue" points="808.07,-635.57 816.76,-629.51 806.19,-628.83 808.07,-635.57"/>
</g>
<!-- Node26 -->
<g id="node26" class="node">
<title>Node26</title>
<g id="a_node26"><a xlink:href="classDashBoard.html#a7efb6b0a187fa08bf3543c8ce0d40738" target="_top" xlink:title=" ">
<polygon fill="white" stroke="black" points="790.5,-724.5 790.5,-743.5 920.5,-743.5 920.5,-724.5 790.5,-724.5"/>
<text text-anchor="middle" x="855.5" y="-731.5" font-family="Helvetica,sans-Serif" font-size="10.00">DashBoard::setgpsbearing</text>
</a>
</g>
</g>
<!-- Node25&#45;&gt;Node26 -->
<g id="edge36" class="edge">
<title>Node25&#45;&gt;Node26</title>
<path fill="none" stroke="midnightblue" d="M711.24,-686.61C730.54,-694.76 759.32,-706.44 785,-715 792.1,-717.37 799.67,-719.66 807.11,-721.8"/>
<polygon fill="midnightblue" stroke="midnightblue" points="806.19,-725.17 816.76,-724.49 808.07,-718.43 806.19,-725.17"/>
</g>
<!-- Node27 -->
<g id="node27" class="node">
<title>Node27</title>
<g id="a_node27"><a xlink:href="classDashBoard.html#a16ed8cfba91338bea76b8ab5acd2a1c2" target="_top" xlink:title=" ">
<polygon fill="white" stroke="black" points="792.5,-800.5 792.5,-819.5 918.5,-819.5 918.5,-800.5 792.5,-800.5"/>
<text text-anchor="middle" x="855.5" y="-807.5" font-family="Helvetica,sans-Serif" font-size="10.00">DashBoard::setgpsSpeed</text>
</a>
</g>
</g>
<!-- Node25&#45;&gt;Node27 -->
<g id="edge39" class="edge">
<title>Node25&#45;&gt;Node27</title>
<path fill="none" stroke="midnightblue" d="M694.32,-686.65C706.99,-708.68 741.18,-762.98 785,-791 788.34,-793.14 791.92,-795.04 795.63,-796.72"/>
<polygon fill="midnightblue" stroke="midnightblue" points="794.47,-800.03 805.06,-800.5 797.07,-793.53 794.47,-800.03"/>
</g>
<!-- Node28 -->
<g id="node28" class="node">
<title>Node28</title>
<g id="a_node28"><a xlink:href="classDashBoard.html#ae93b793d4f4bd43d954cc08ccb8431e4" target="_top" xlink:title=" ">
<polygon fill="white" stroke="black" points="795.5,-762.5 795.5,-781.5 915.5,-781.5 915.5,-762.5 795.5,-762.5"/>
<text text-anchor="middle" x="855.5" y="-769.5" font-family="Helvetica,sans-Serif" font-size="10.00">DashBoard::setgpsTime</text>
</a>
</g>
</g>
<!-- Node25&#45;&gt;Node28 -->
<g id="edge40" class="edge">
<title>Node25&#45;&gt;Node28</title>
<path fill="none" stroke="midnightblue" d="M698.43,-686.68C714.65,-702.78 749.53,-735.06 785,-753 789.56,-755.3 794.43,-757.36 799.4,-759.18"/>
<polygon fill="midnightblue" stroke="midnightblue" points="798.42,-762.55 809.02,-762.41 800.65,-755.91 798.42,-762.55"/>
</g>
<!-- Node29&#45;&gt;Node4 -->
<g id="edge42" class="edge">
<title>Node29&#45;&gt;Node4</title>
<path fill="none" stroke="midnightblue" d="M731.83,-895.59C748.37,-899 767.5,-902.59 785,-905 892.1,-919.74 919.39,-924 1027.5,-924 1027.5,-924 1027.5,-924 1183,-924 1272.67,-924 1310.53,-924.33 1375,-862 1451.35,-788.19 1470.2,-652.46 1474.67,-601.78"/>
<polygon fill="midnightblue" stroke="midnightblue" points="1478.18,-601.79 1475.48,-591.55 1471.2,-601.25 1478.18,-601.79"/>
</g>
<!-- Node30 -->
<g id="node30" class="node">
<title>Node30</title>
<g id="a_node30"><a xlink:href="classGPS.html#aeae2cbce7d09b6441ebd1b788dac12b7" target="_top" xlink:title=" ">
<polygon fill="white" stroke="black" points="807.5,-876.5 807.5,-895.5 903.5,-895.5 903.5,-876.5 807.5,-876.5"/>
<text text-anchor="middle" x="855.5" y="-883.5" font-family="Helvetica,sans-Serif" font-size="10.00">GPS::setGPSOnly</text>
</a>
</g>
</g>
<!-- Node29&#45;&gt;Node30 -->
<g id="edge43" class="edge">
<title>Node29&#45;&gt;Node30</title>
<path fill="none" stroke="midnightblue" d="M749.22,-886C764.76,-886 781.45,-886 796.86,-886"/>
<polygon fill="midnightblue" stroke="midnightblue" points="797.3,-889.5 807.3,-886 797.3,-882.5 797.3,-889.5"/>
</g>
<!-- Node31&#45;&gt;Node4 -->
<g id="edge45" class="edge">
<title>Node31&#45;&gt;Node4</title>
<path fill="none" stroke="midnightblue" d="M1232.71,-969.77C1275.44,-973.5 1336.13,-971.37 1375,-938 1427.65,-892.81 1463.36,-670.43 1473.23,-602.04"/>
<polygon fill="midnightblue" stroke="midnightblue" points="1476.75,-602.18 1474.68,-591.79 1469.81,-601.2 1476.75,-602.18"/>
</g>
</g>
</svg>
