<?xml version="1.0" encoding="UTF-8" standalone="no"?>
<!DOCTYPE svg PUBLIC "-//W3C//DTD SVG 1.1//EN"
 "http://www.w3.org/Graphics/SVG/1.1/DTD/svg11.dtd">
<!-- Generated by graphviz version 2.49.3 (20211027.1534)
 -->
<!-- Title: AdaptronicSelect::AdaptronicStartStream Pages: 1 -->
<svg width="783pt" height="864pt"
 viewBox="0.00 0.00 783.00 864.00" xmlns="http://www.w3.org/2000/svg" xmlns:xlink="http://www.w3.org/1999/xlink">
<g id="graph0" class="graph" transform="scale(1 1) rotate(0) translate(4 860)">
<title>AdaptronicSelect::AdaptronicStartStream</title>
<polygon fill="white" stroke="transparent" points="-4,4 -4,-860 779,-860 779,4 -4,4"/>
<!-- Node1 -->
<g id="node1" class="node">
<title>Node1</title>
<g id="a_node1"><a xlink:title=" ">
<polygon fill="#bfbfbf" stroke="black" points="0,-413 0,-443 142,-443 142,-413 0,-413"/>
<text text-anchor="start" x="8" y="-431" font-family="Helvetica,sans-Serif" font-size="10.00">AdaptronicSelect::Adaptronic</text>
<text text-anchor="middle" x="71" y="-420" font-family="Helvetica,sans-Serif" font-size="10.00">StartStream</text>
</a>
</g>
</g>
<!-- Node2 -->
<g id="node2" class="node">
<title>Node2</title>
<g id="a_node2"><a xlink:href="classAdaptronicSelect.html#af5ee85733260355dd5236c796c6a3fc5" target="_top" xlink:title=" ">
<polygon fill="white" stroke="black" points="178,-418.5 178,-437.5 330,-437.5 330,-418.5 178,-418.5"/>
<text text-anchor="middle" x="254" y="-425.5" font-family="Helvetica,sans-Serif" font-size="10.00">AdaptronicSelect::readyToRead</text>
</a>
</g>
</g>
<!-- Node1&#45;&gt;Node2 -->
<g id="edge1" class="edge">
<title>Node1&#45;&gt;Node2</title>
<path fill="none" stroke="midnightblue" d="M142.24,-428C150.5,-428 159.01,-428 167.45,-428"/>
<polygon fill="midnightblue" stroke="midnightblue" points="167.71,-431.5 177.71,-428 167.71,-424.5 167.71,-431.5"/>
</g>
<!-- Node3 -->
<g id="node3" class="node">
<title>Node3</title>
<g id="a_node3"><a xlink:href="classAdaptronicSelect.html#ae353c5153a25423eb6044be7a2f1bf72" target="_top" xlink:title=" ">
<polygon fill="white" stroke="black" points="366,-413 366,-443 493,-443 493,-413 366,-413"/>
<text text-anchor="start" x="374" y="-431" font-family="Helvetica,sans-Serif" font-size="10.00">AdaptronicSelect::decode</text>
<text text-anchor="middle" x="429.5" y="-420" font-family="Helvetica,sans-Serif" font-size="10.00">Adaptronic</text>
</a>
</g>
</g>
<!-- Node2&#45;&gt;Node3 -->
<g id="edge2" class="edge">
<title>Node2&#45;&gt;Node3</title>
<path fill="none" stroke="midnightblue" d="M330.09,-428C338.55,-428 347.17,-428 355.61,-428"/>
<polygon fill="midnightblue" stroke="midnightblue" points="355.78,-431.5 365.78,-428 355.78,-424.5 355.78,-431.5"/>
</g>
<!-- Node4 -->
<g id="node4" class="node">
<title>Node4</title>
<g id="a_node4"><a xlink:href="classDashBoard.html#a0f2f639b3c4a600bdad0aa9d04c605f9" target="_top" xlink:title=" ">
<polygon fill="white" stroke="black" points="534,-836.5 534,-855.5 655,-855.5 655,-836.5 534,-836.5"/>
<text text-anchor="middle" x="594.5" y="-843.5" font-family="Helvetica,sans-Serif" font-size="10.00">DashBoard::setauxcalc1</text>
</a>
</g>
</g>
<!-- Node3&#45;&gt;Node4 -->
<g id="edge3" class="edge">
<title>Node3&#45;&gt;Node4</title>
<path fill="none" stroke="midnightblue" d="M432.25,-443.32C440.08,-509.42 474.01,-769.51 529,-827 530.39,-828.46 531.89,-829.8 533.47,-831.04"/>
<polygon fill="midnightblue" stroke="midnightblue" points="531.67,-834.05 541.99,-836.45 535.43,-828.14 531.67,-834.05"/>
</g>
<!-- Node5 -->
<g id="node5" class="node">
<title>Node5</title>
<g id="a_node5"><a xlink:href="classDashBoard.html#a8fb1b3f8d0a98a92ef3363bf471ddd31" target="_top" xlink:title=" ">
<polygon fill="white" stroke="black" points="539.5,-798.5 539.5,-817.5 649.5,-817.5 649.5,-798.5 539.5,-798.5"/>
<text text-anchor="middle" x="594.5" y="-805.5" font-family="Helvetica,sans-Serif" font-size="10.00">DashBoard::setAUXT</text>
</a>
</g>
</g>
<!-- Node3&#45;&gt;Node5 -->
<g id="edge4" class="edge">
<title>Node3&#45;&gt;Node5</title>
<path fill="none" stroke="midnightblue" d="M429.8,-443.19C428.15,-498.06 430.1,-688.09 529,-789 530.41,-790.44 531.92,-791.77 533.52,-793"/>
<polygon fill="midnightblue" stroke="midnightblue" points="531.75,-796.02 542.09,-798.36 535.47,-790.09 531.75,-796.02"/>
</g>
<!-- Node6 -->
<g id="node6" class="node">
<title>Node6</title>
<g id="a_node6"><a xlink:href="classDashBoard.html#a21635845a2258c7dbe2a7f2f7ec32345" target="_top" xlink:title=" ">
<polygon fill="white" stroke="black" points="534.5,-760.5 534.5,-779.5 654.5,-779.5 654.5,-760.5 534.5,-760.5"/>
<text text-anchor="middle" x="594.5" y="-767.5" font-family="Helvetica,sans-Serif" font-size="10.00">DashBoard::setBatteryV</text>
</a>
</g>
</g>
<!-- Node3&#45;&gt;Node6 -->
<g id="edge5" class="edge">
<title>Node3&#45;&gt;Node6</title>
<path fill="none" stroke="midnightblue" d="M430.38,-443.02C430.8,-493.98 439.24,-662.09 529,-751 530.46,-752.45 532.03,-753.79 533.68,-755.02"/>
<polygon fill="midnightblue" stroke="midnightblue" points="532.16,-758.2 542.52,-760.41 535.8,-752.22 532.16,-758.2"/>
</g>
<!-- Node7 -->
<g id="node7" class="node">
<title>Node7</title>
<g id="a_node7"><a xlink:href="classDashBoard.html#a36b831fcbcd5cc6472927a50a5834574" target="_top" xlink:title=" ">
<polygon fill="white" stroke="black" points="533,-722.5 533,-741.5 656,-741.5 656,-722.5 533,-722.5"/>
<text text-anchor="middle" x="594.5" y="-729.5" font-family="Helvetica,sans-Serif" font-size="10.00">DashBoard::setIdleValue</text>
</a>
</g>
</g>
<!-- Node3&#45;&gt;Node7 -->
<g id="edge6" class="edge">
<title>Node3&#45;&gt;Node7</title>
<path fill="none" stroke="midnightblue" d="M431.1,-443.24C433.79,-490.52 448.54,-636.18 529,-713 530.65,-714.57 532.42,-716.01 534.28,-717.34"/>
<polygon fill="midnightblue" stroke="midnightblue" points="532.58,-720.4 542.98,-722.42 536.11,-714.35 532.58,-720.4"/>
</g>
<!-- Node8 -->
<g id="node8" class="node">
<title>Node8</title>
<g id="a_node8"><a xlink:href="classDashBoard.html#a3c7182d8aaaa30860e2c956500905e01" target="_top" xlink:title=" ">
<polygon fill="white" stroke="black" points="544,-684.5 544,-703.5 645,-703.5 645,-684.5 544,-684.5"/>
<text text-anchor="middle" x="594.5" y="-691.5" font-family="Helvetica,sans-Serif" font-size="10.00">DashBoard::setIgn1</text>
</a>
</g>
</g>
<!-- Node3&#45;&gt;Node8 -->
<g id="edge7" class="edge">
<title>Node3&#45;&gt;Node8</title>
<path fill="none" stroke="midnightblue" d="M431.99,-443.04C437.06,-485.92 457.51,-609.86 529,-675 530.75,-676.6 532.63,-678.06 534.61,-679.4"/>
<polygon fill="midnightblue" stroke="midnightblue" points="533.36,-682.71 543.8,-684.53 536.77,-676.6 533.36,-682.71"/>
</g>
<!-- Node9 -->
<g id="node9" class="node">
<title>Node9</title>
<g id="a_node9"><a xlink:href="classDashBoard.html#a3630ceb2d7c2882ad4b895bff6967200" target="_top" xlink:title=" ">
<polygon fill="white" stroke="black" points="544,-646.5 544,-665.5 645,-665.5 645,-646.5 544,-646.5"/>
<text text-anchor="middle" x="594.5" y="-653.5" font-family="Helvetica,sans-Serif" font-size="10.00">DashBoard::setIgn2</text>
</a>
</g>
</g>
<!-- Node3&#45;&gt;Node9 -->
<g id="edge8" class="edge">
<title>Node3&#45;&gt;Node9</title>
<path fill="none" stroke="midnightblue" d="M433.24,-443.21C440.96,-481.66 466.56,-583.5 529,-637 530.98,-638.69 533.1,-640.24 535.33,-641.64"/>
<polygon fill="midnightblue" stroke="midnightblue" points="533.88,-644.84 544.36,-646.41 537.15,-638.65 533.88,-644.84"/>
</g>
<!-- Node10 -->
<g id="node10" class="node">
<title>Node10</title>
<g id="a_node10"><a xlink:href="classDashBoard.html#a434bd3dad7d114572b4fe30255aec0be" target="_top" xlink:title=" ">
<polygon fill="white" stroke="black" points="544,-608.5 544,-627.5 645,-627.5 645,-608.5 544,-608.5"/>
<text text-anchor="middle" x="594.5" y="-615.5" font-family="Helvetica,sans-Serif" font-size="10.00">DashBoard::setIgn3</text>
</a>
</g>
</g>
<!-- Node3&#45;&gt;Node10 -->
<g id="edge9" class="edge">
<title>Node3&#45;&gt;Node10</title>
<path fill="none" stroke="midnightblue" d="M434.93,-443.13C445.48,-476.48 475.31,-556.7 529,-599 531.32,-600.83 533.81,-602.48 536.42,-603.98"/>
<polygon fill="midnightblue" stroke="midnightblue" points="535.12,-607.24 545.65,-608.47 538.19,-600.94 535.12,-607.24"/>
</g>
<!-- Node11 -->
<g id="node11" class="node">
<title>Node11</title>
<g id="a_node11"><a xlink:href="classDashBoard.html#a539fb34c4123f17405b896cd051bec34" target="_top" xlink:title=" ">
<polygon fill="white" stroke="black" points="544,-570.5 544,-589.5 645,-589.5 645,-570.5 544,-570.5"/>
<text text-anchor="middle" x="594.5" y="-577.5" font-family="Helvetica,sans-Serif" font-size="10.00">DashBoard::setIgn4</text>
</a>
</g>
</g>
<!-- Node3&#45;&gt;Node11 -->
<g id="edge10" class="edge">
<title>Node3&#45;&gt;Node11</title>
<path fill="none" stroke="midnightblue" d="M437.63,-443.29C451.33,-471 484.01,-529.57 529,-561 531.86,-563 534.94,-564.79 538.13,-566.4"/>
<polygon fill="midnightblue" stroke="midnightblue" points="536.83,-569.65 547.39,-570.44 539.63,-563.23 536.83,-569.65"/>
</g>
<!-- Node12 -->
<g id="node12" class="node">
<title>Node12</title>
<g id="a_node12"><a xlink:href="classDashBoard.html#aa834e3aecbc598fa618ecb140f92bed9" target="_top" xlink:title=" ">
<polygon fill="white" stroke="black" points="545.5,-532.5 545.5,-551.5 643.5,-551.5 643.5,-532.5 545.5,-532.5"/>
<text text-anchor="middle" x="594.5" y="-539.5" font-family="Helvetica,sans-Serif" font-size="10.00">DashBoard::setInj1</text>
</a>
</g>
</g>
<!-- Node3&#45;&gt;Node12 -->
<g id="edge11" class="edge">
<title>Node3&#45;&gt;Node12</title>
<path fill="none" stroke="midnightblue" d="M442.18,-443.16C459.1,-464.11 492.45,-501.73 529,-523 532.69,-525.15 536.64,-527.07 540.7,-528.78"/>
<polygon fill="midnightblue" stroke="midnightblue" points="539.72,-532.15 550.32,-532.42 542.2,-525.61 539.72,-532.15"/>
</g>
<!-- Node13 -->
<g id="node13" class="node">
<title>Node13</title>
<g id="a_node13"><a xlink:href="classDashBoard.html#a6f0435f369ba82adb9b4decf2393d486" target="_top" xlink:title=" ">
<polygon fill="white" stroke="black" points="545.5,-494.5 545.5,-513.5 643.5,-513.5 643.5,-494.5 545.5,-494.5"/>
<text text-anchor="middle" x="594.5" y="-501.5" font-family="Helvetica,sans-Serif" font-size="10.00">DashBoard::setInj2</text>
</a>
</g>
</g>
<!-- Node3&#45;&gt;Node13 -->
<g id="edge12" class="edge">
<title>Node3&#45;&gt;Node13</title>
<path fill="none" stroke="midnightblue" d="M453.17,-443.21C472.63,-455.75 501.77,-473.31 529,-485 534.36,-487.3 540.09,-489.43 545.83,-491.36"/>
<polygon fill="midnightblue" stroke="midnightblue" points="544.86,-494.73 555.45,-494.43 546.98,-488.06 544.86,-494.73"/>
</g>
<!-- Node14 -->
<g id="node14" class="node">
<title>Node14</title>
<g id="a_node14"><a xlink:href="classDashBoard.html#a29d3e8160a941227f00171e4be41acb9" target="_top" xlink:title=" ">
<polygon fill="white" stroke="black" points="545.5,-456.5 545.5,-475.5 643.5,-475.5 643.5,-456.5 545.5,-456.5"/>
<text text-anchor="middle" x="594.5" y="-463.5" font-family="Helvetica,sans-Serif" font-size="10.00">DashBoard::setInj3</text>
</a>
</g>
</g>
<!-- Node3&#45;&gt;Node14 -->
<g id="edge13" class="edge">
<title>Node3&#45;&gt;Node14</title>
<path fill="none" stroke="midnightblue" d="M493.05,-442.58C509.4,-446.39 526.83,-450.46 542.5,-454.11"/>
<polygon fill="midnightblue" stroke="midnightblue" points="541.98,-457.58 552.51,-456.44 543.57,-450.77 541.98,-457.58"/>
</g>
<!-- Node15 -->
<g id="node15" class="node">
<title>Node15</title>
<g id="a_node15"><a xlink:href="classDashBoard.html#a50314937d28d888abce86c76b3f51c64" target="_top" xlink:title=" ">
<polygon fill="white" stroke="black" points="545.5,-418.5 545.5,-437.5 643.5,-437.5 643.5,-418.5 545.5,-418.5"/>
<text text-anchor="middle" x="594.5" y="-425.5" font-family="Helvetica,sans-Serif" font-size="10.00">DashBoard::setInj4</text>
</a>
</g>
</g>
<!-- Node3&#45;&gt;Node15 -->
<g id="edge14" class="edge">
<title>Node3&#45;&gt;Node15</title>
<path fill="none" stroke="midnightblue" d="M493.05,-428C506.86,-428 521.44,-428 535.07,-428"/>
<polygon fill="midnightblue" stroke="midnightblue" points="535.29,-431.5 545.29,-428 535.29,-424.5 535.29,-431.5"/>
</g>
<!-- Node16 -->
<g id="node16" class="node">
<title>Node16</title>
<g id="a_node16"><a xlink:href="classDashBoard.html#ae4d194cbb50c7c36bd2d0b2be6b21e6d" target="_top" xlink:title=" ">
<polygon fill="white" stroke="black" points="529,-380.5 529,-399.5 660,-399.5 660,-380.5 529,-380.5"/>
<text text-anchor="middle" x="594.5" y="-387.5" font-family="Helvetica,sans-Serif" font-size="10.00">DashBoard::setIntaketemp</text>
</a>
</g>
</g>
<!-- Node3&#45;&gt;Node16 -->
<g id="edge15" class="edge">
<title>Node3&#45;&gt;Node16</title>
<path fill="none" stroke="midnightblue" d="M493.05,-413.42C509.4,-409.61 526.83,-405.54 542.5,-401.89"/>
<polygon fill="midnightblue" stroke="midnightblue" points="543.57,-405.23 552.51,-399.56 541.98,-398.42 543.57,-405.23"/>
</g>
<!-- Node17 -->
<g id="node17" class="node">
<title>Node17</title>
<g id="a_node17"><a xlink:href="classDashBoard.html#acf7ff86dcbb34ee7661c1904191cf7a9" target="_top" xlink:title=" ">
<polygon fill="white" stroke="black" points="539.5,-342.5 539.5,-361.5 649.5,-361.5 649.5,-342.5 539.5,-342.5"/>
<text text-anchor="middle" x="594.5" y="-349.5" font-family="Helvetica,sans-Serif" font-size="10.00">DashBoard::setKnock</text>
</a>
</g>
</g>
<!-- Node3&#45;&gt;Node17 -->
<g id="edge16" class="edge">
<title>Node3&#45;&gt;Node17</title>
<path fill="none" stroke="midnightblue" d="M453.17,-412.79C472.63,-400.25 501.77,-382.69 529,-371 534.36,-368.7 540.09,-366.57 545.83,-364.64"/>
<polygon fill="midnightblue" stroke="midnightblue" points="546.98,-367.94 555.45,-361.57 544.86,-361.27 546.98,-367.94"/>
</g>
<!-- Node18 -->
<g id="node18" class="node">
<title>Node18</title>
<g id="a_node18"><a xlink:href="classDashBoard.html#a67291e6e3e604237c9d207469a55db05" target="_top" xlink:title=" ">
<polygon fill="white" stroke="black" points="542.5,-304.5 542.5,-323.5 646.5,-323.5 646.5,-304.5 542.5,-304.5"/>
<text text-anchor="middle" x="594.5" y="-311.5" font-family="Helvetica,sans-Serif" font-size="10.00">DashBoard::setMAP</text>
</a>
</g>
</g>
<!-- Node3&#45;&gt;Node18 -->
<g id="edge17" class="edge">
<title>Node3&#45;&gt;Node18</title>
<path fill="none" stroke="midnightblue" d="M442.18,-412.84C459.1,-391.89 492.45,-354.27 529,-333 532.69,-330.85 536.64,-328.93 540.7,-327.22"/>
<polygon fill="midnightblue" stroke="midnightblue" points="542.2,-330.39 550.32,-323.58 539.72,-323.85 542.2,-330.39"/>
</g>
<!-- Node19 -->
<g id="node19" class="node">
<title>Node19</title>
<g id="a_node19"><a xlink:href="classDashBoard.html#a45d86a7a298deb9afdb339454119a2cb" target="_top" xlink:title=" ">
<polygon fill="white" stroke="black" points="539,-266.5 539,-285.5 650,-285.5 650,-266.5 539,-266.5"/>
<text text-anchor="middle" x="594.5" y="-273.5" font-family="Helvetica,sans-Serif" font-size="10.00">DashBoard::setMVSS</text>
</a>
</g>
</g>
<!-- Node3&#45;&gt;Node19 -->
<g id="edge18" class="edge">
<title>Node3&#45;&gt;Node19</title>
<path fill="none" stroke="midnightblue" d="M437.63,-412.71C451.33,-385 484.01,-326.43 529,-295 531.86,-293 534.94,-291.21 538.13,-289.6"/>
<polygon fill="midnightblue" stroke="midnightblue" points="539.63,-292.77 547.39,-285.56 536.83,-286.35 539.63,-292.77"/>
</g>
<!-- Node20 -->
<g id="node20" class="node">
<title>Node20</title>
<g id="a_node20"><a xlink:href="classDashBoard.html#ab617d388ec0714d60bf68f19b189d86b" target="_top" xlink:title=" ">
<polygon fill="white" stroke="black" points="545.5,-228.5 545.5,-247.5 643.5,-247.5 643.5,-228.5 545.5,-228.5"/>
<text text-anchor="middle" x="594.5" y="-235.5" font-family="Helvetica,sans-Serif" font-size="10.00">DashBoard::setpim</text>
</a>
</g>
</g>
<!-- Node3&#45;&gt;Node20 -->
<g id="edge19" class="edge">
<title>Node3&#45;&gt;Node20</title>
<path fill="none" stroke="midnightblue" d="M434.93,-412.87C445.48,-379.52 475.31,-299.3 529,-257 531.32,-255.17 533.81,-253.52 536.42,-252.02"/>
<polygon fill="midnightblue" stroke="midnightblue" points="538.19,-255.06 545.65,-247.53 535.12,-248.76 538.19,-255.06"/>
</g>
<!-- Node21 -->
<g id="node21" class="node">
<title>Node21</title>
<g id="a_node21"><a xlink:href="classDashBoard.html#ab8a26c5ebc87f76cc237e46d8e014403" target="_top" xlink:title=" ">
<polygon fill="white" stroke="black" points="545,-190.5 545,-209.5 644,-209.5 644,-190.5 545,-190.5"/>
<text text-anchor="middle" x="594.5" y="-197.5" font-family="Helvetica,sans-Serif" font-size="10.00">DashBoard::setrpm</text>
</a>
</g>
</g>
<!-- Node3&#45;&gt;Node21 -->
<g id="edge20" class="edge">
<title>Node3&#45;&gt;Node21</title>
<path fill="none" stroke="midnightblue" d="M433.24,-412.79C440.96,-374.34 466.56,-272.5 529,-219 531.02,-217.27 533.18,-215.7 535.46,-214.27"/>
<polygon fill="midnightblue" stroke="midnightblue" points="537.45,-217.18 544.68,-209.44 534.2,-210.98 537.45,-217.18"/>
</g>
<!-- Node23 -->
<g id="node23" class="node">
<title>Node23</title>
<g id="a_node23"><a xlink:href="classDashBoard.html#a77b4f7cb9851db07fcc88986469df3d8" target="_top" xlink:title=" ">
<polygon fill="white" stroke="black" points="539.5,-152.5 539.5,-171.5 649.5,-171.5 649.5,-152.5 539.5,-152.5"/>
<text text-anchor="middle" x="594.5" y="-159.5" font-family="Helvetica,sans-Serif" font-size="10.00">DashBoard::setSpeed</text>
</a>
</g>
</g>
<!-- Node3&#45;&gt;Node23 -->
<g id="edge22" class="edge">
<title>Node3&#45;&gt;Node23</title>
<path fill="none" stroke="midnightblue" d="M431.99,-412.96C437.06,-370.08 457.51,-246.14 529,-181 530.72,-179.43 532.56,-178 534.49,-176.68"/>
<polygon fill="midnightblue" stroke="midnightblue" points="536.48,-179.58 543.48,-171.62 533.05,-173.48 536.48,-179.58"/>
</g>
<!-- Node25 -->
<g id="node25" class="node">
<title>Node25</title>
<g id="a_node25"><a xlink:href="classDashBoard.html#aaa56f6855e89d900da75613bfc8c2f51" target="_top" xlink:title=" ">
<polygon fill="white" stroke="black" points="539.5,-114.5 539.5,-133.5 649.5,-133.5 649.5,-114.5 539.5,-114.5"/>
<text text-anchor="middle" x="594.5" y="-121.5" font-family="Helvetica,sans-Serif" font-size="10.00">DashBoard::setSVSS</text>
</a>
</g>
</g>
<!-- Node3&#45;&gt;Node25 -->
<g id="edge24" class="edge">
<title>Node3&#45;&gt;Node25</title>
<path fill="none" stroke="midnightblue" d="M431.1,-412.76C433.79,-365.48 448.54,-219.82 529,-143 530.65,-141.43 532.42,-139.99 534.28,-138.66"/>
<polygon fill="midnightblue" stroke="midnightblue" points="536.11,-141.65 542.98,-133.58 532.58,-135.6 536.11,-141.65"/>
</g>
<!-- Node26 -->
<g id="node26" class="node">
<title>Node26</title>
<g id="a_node26"><a xlink:href="classDashBoard.html#a75b10e663b009eb4ae77d10762280ca4" target="_top" xlink:title=" ">
<polygon fill="white" stroke="black" points="543.5,-76.5 543.5,-95.5 645.5,-95.5 645.5,-76.5 543.5,-76.5"/>
<text text-anchor="middle" x="594.5" y="-83.5" font-family="Helvetica,sans-Serif" font-size="10.00">DashBoard::setTPS</text>
</a>
</g>
</g>
<!-- Node3&#45;&gt;Node26 -->
<g id="edge25" class="edge">
<title>Node3&#45;&gt;Node26</title>
<path fill="none" stroke="midnightblue" d="M430.38,-412.98C430.8,-362.02 439.24,-193.91 529,-105 530.68,-103.33 532.51,-101.81 534.44,-100.42"/>
<polygon fill="midnightblue" stroke="midnightblue" points="536.61,-103.2 543.48,-95.13 533.08,-97.16 536.61,-103.2"/>
</g>
<!-- Node27 -->
<g id="node27" class="node">
<title>Node27</title>
<g id="a_node27"><a xlink:href="classDashBoard.html#a910e90bfbab7e031083811ac765ee5cf" target="_top" xlink:title=" ">
<polygon fill="white" stroke="black" points="541,-38.5 541,-57.5 648,-57.5 648,-38.5 541,-38.5"/>
<text text-anchor="middle" x="594.5" y="-45.5" font-family="Helvetica,sans-Serif" font-size="10.00">DashBoard::setTRIM</text>
</a>
</g>
</g>
<!-- Node3&#45;&gt;Node27 -->
<g id="edge26" class="edge">
<title>Node3&#45;&gt;Node27</title>
<path fill="none" stroke="midnightblue" d="M429.8,-412.81C428.15,-357.94 430.1,-167.91 529,-67 530.41,-65.56 531.92,-64.23 533.52,-63"/>
<polygon fill="midnightblue" stroke="midnightblue" points="535.47,-65.91 542.09,-57.64 531.75,-59.98 535.47,-65.91"/>
</g>
<!-- Node28 -->
<g id="node28" class="node">
<title>Node28</title>
<g id="a_node28"><a xlink:href="classDashBoard.html#aa4bc217dc1fe66ba8895284d24b92ee4" target="_top" xlink:title=" ">
<polygon fill="white" stroke="black" points="529.5,-0.5 529.5,-19.5 659.5,-19.5 659.5,-0.5 529.5,-0.5"/>
<text text-anchor="middle" x="594.5" y="-7.5" font-family="Helvetica,sans-Serif" font-size="10.00">DashBoard::setWatertemp</text>
</a>
</g>
</g>
<!-- Node3&#45;&gt;Node28 -->
<g id="edge27" class="edge">
<title>Node3&#45;&gt;Node28</title>
<path fill="none" stroke="midnightblue" d="M432.25,-412.68C440.08,-346.58 474.01,-86.49 529,-29 530.39,-27.54 531.89,-26.2 533.47,-24.96"/>
<polygon fill="midnightblue" stroke="midnightblue" points="535.43,-27.86 541.99,-19.55 531.67,-21.95 535.43,-27.86"/>
</g>
<!-- Node22 -->
<g id="node22" class="node">
<title>Node22</title>
<g id="a_node22"><a xlink:href="dashboard_8cpp.html#abaed07c489b38d23644263ae435338d4" target="_top" xlink:title=" ">
<polygon fill="white" stroke="black" points="699,-190.5 699,-209.5 772,-209.5 772,-190.5 699,-190.5"/>
<text text-anchor="middle" x="735.5" y="-197.5" font-family="Helvetica,sans-Serif" font-size="10.00">averageRPM</text>
</a>
</g>
</g>
<!-- Node21&#45;&gt;Node22 -->
<g id="edge21" class="edge">
<title>Node21&#45;&gt;Node22</title>
<path fill="none" stroke="midnightblue" d="M644.12,-200C658.6,-200 674.43,-200 688.73,-200"/>
<polygon fill="midnightblue" stroke="midnightblue" points="688.83,-203.5 698.83,-200 688.83,-196.5 688.83,-203.5"/>
</g>
<!-- Node24 -->
<g id="node24" class="node">
<title>Node24</title>
<g id="a_node24"><a xlink:href="dashboard_8cpp.html#abd6f714e98c152d7700b007c54201c76" target="_top" xlink:title=" ">
<polygon fill="white" stroke="black" points="696,-152.5 696,-171.5 775,-171.5 775,-152.5 696,-152.5"/>
<text text-anchor="middle" x="735.5" y="-159.5" font-family="Helvetica,sans-Serif" font-size="10.00">averageSpeed</text>
</a>
</g>
</g>
<!-- Node23&#45;&gt;Node24 -->
<g id="edge23" class="edge">
<title>Node23&#45;&gt;Node24</title>
<path fill="none" stroke="midnightblue" d="M649.64,-162C661.55,-162 674.09,-162 685.77,-162"/>
<polygon fill="midnightblue" stroke="midnightblue" points="685.78,-165.5 695.78,-162 685.78,-158.5 685.78,-165.5"/>
</g>
</g>
</svg>
