<?xml version="1.0" encoding="UTF-8" standalone="no"?>
<!DOCTYPE svg PUBLIC "-//W3C//DTD SVG 1.1//EN"
 "http://www.w3.org/Graphics/SVG/1.1/DTD/svg11.dtd">
<!-- Generated by graphviz version 2.49.3 (20211027.1534)
 -->
<!-- Title: DashBoard::AnalogCalc4Changed Pages: 1 -->
<svg width="998pt" height="39pt"
 viewBox="0.00 0.00 998.00 39.00" xmlns="http://www.w3.org/2000/svg" xmlns:xlink="http://www.w3.org/1999/xlink">
<g id="graph0" class="graph" transform="scale(1 1) rotate(0) translate(4 35)">
<title>DashBoard::AnalogCalc4Changed</title>
<polygon fill="white" stroke="transparent" points="-4,4 -4,-35 994,-35 994,4 -4,4"/>
<!-- Node1 -->
<g id="node1" class="node">
<title>Node1</title>
<g id="a_node1"><a xlink:title=" ">
<polygon fill="#bfbfbf" stroke="black" points="828,-6 828,-25 990,-25 990,-6 828,-6"/>
<text text-anchor="middle" x="909" y="-13" font-family="Helvetica,sans-Serif" font-size="10.00">DashBoard::AnalogCalc4Changed</text>
</a>
</g>
</g>
<!-- Node2 -->
<g id="node2" class="node">
<title>Node2</title>
<g id="a_node2"><a xlink:href="classDashBoard.html#aa3c195f50c5d59c88c9e32f3e3ebd210" target="_top" xlink:title=" ">
<polygon fill="white" stroke="black" points="655,-6 655,-25 792,-25 792,-6 655,-6"/>
<text text-anchor="middle" x="723.5" y="-13" font-family="Helvetica,sans-Serif" font-size="10.00">DashBoard::setAnalogCalc4</text>
</a>
</g>
</g>
<!-- Node1&#45;&gt;Node2 -->
<g id="edge1" class="edge">
<title>Node1&#45;&gt;Node2</title>
<path fill="none" stroke="midnightblue" d="M817.73,-15.5C809.14,-15.5 800.54,-15.5 792.22,-15.5"/>
<polygon fill="midnightblue" stroke="midnightblue" points="817.78,-19 827.78,-15.5 817.78,-12 817.78,-19"/>
</g>
<!-- Node3 -->
<g id="node3" class="node">
<title>Node3</title>
<g id="a_node3"><a xlink:href="classDashBoard.html#a40763916330577d691a520d66398832e" target="_top" xlink:title=" ">
<polygon fill="white" stroke="black" points="501,-6 501,-25 619,-25 619,-6 501,-6"/>
<text text-anchor="middle" x="560" y="-13" font-family="Helvetica,sans-Serif" font-size="10.00">DashBoard::setAnalog4</text>
</a>
</g>
</g>
<!-- Node2&#45;&gt;Node3 -->
<g id="edge2" class="edge">
<title>Node2&#45;&gt;Node3</title>
<path fill="none" stroke="midnightblue" d="M644.81,-15.5C636.14,-15.5 627.42,-15.5 619.06,-15.5"/>
<polygon fill="midnightblue" stroke="midnightblue" points="644.95,-19 654.95,-15.5 644.95,-12 644.95,-19"/>
</g>
<!-- Node4 -->
<g id="node4" class="node">
<title>Node4</title>
<g id="a_node4"><a xlink:href="classudpreceiver.html#a725cf4f5cf798fd5baed7eee2e6dd5f2" target="_top" xlink:title=" ">
<polygon fill="white" stroke="black" points="324,-0.5 324,-30.5 465,-30.5 465,-0.5 324,-0.5"/>
<text text-anchor="start" x="332" y="-18.5" font-family="Helvetica,sans-Serif" font-size="10.00">udpreceiver::processPending</text>
<text text-anchor="middle" x="394.5" y="-7.5" font-family="Helvetica,sans-Serif" font-size="10.00">Datagrams</text>
</a>
</g>
</g>
<!-- Node3&#45;&gt;Node4 -->
<g id="edge3" class="edge">
<title>Node3&#45;&gt;Node4</title>
<path fill="none" stroke="midnightblue" d="M490.72,-15.5C482.27,-15.5 473.63,-15.5 465.17,-15.5"/>
<polygon fill="midnightblue" stroke="midnightblue" points="490.9,-19 500.9,-15.5 490.9,-12 490.9,-19"/>
</g>
<!-- Node5 -->
<g id="node5" class="node">
<title>Node5</title>
<g id="a_node5"><a xlink:href="classudpreceiver.html#a2d7852b9e4be87d9a3ce960d8a7eb9aa" target="_top" xlink:title=" ">
<polygon fill="white" stroke="black" points="163,-6 163,-25 288,-25 288,-6 163,-6"/>
<text text-anchor="middle" x="225.5" y="-13" font-family="Helvetica,sans-Serif" font-size="10.00">udpreceiver::startreceiver</text>
</a>
</g>
</g>
<!-- Node4&#45;&gt;Node5 -->
<g id="edge4" class="edge">
<title>Node4&#45;&gt;Node5</title>
<path fill="none" stroke="midnightblue" d="M313.62,-15.5C305.05,-15.5 296.42,-15.5 288.11,-15.5"/>
<polygon fill="midnightblue" stroke="midnightblue" points="313.64,-19 323.64,-15.5 313.64,-12 313.64,-19"/>
</g>
<!-- Node6 -->
<g id="node6" class="node">
<title>Node6</title>
<g id="a_node6"><a xlink:href="classConnect.html#a0d674157f4d7442c535837dadd8cf5f1" target="_top" xlink:title=" ">
<polygon fill="white" stroke="black" points="0,-6 0,-25 127,-25 127,-6 0,-6"/>
<text text-anchor="middle" x="63.5" y="-13" font-family="Helvetica,sans-Serif" font-size="10.00">Connect::openConnection</text>
</a>
</g>
</g>
<!-- Node5&#45;&gt;Node6 -->
<g id="edge5" class="edge">
<title>Node5&#45;&gt;Node6</title>
<path fill="none" stroke="midnightblue" d="M152.46,-15.5C144.05,-15.5 135.52,-15.5 127.25,-15.5"/>
<polygon fill="midnightblue" stroke="midnightblue" points="152.64,-19 162.64,-15.5 152.64,-12 152.64,-19"/>
</g>
</g>
</svg>
