<?xml version="1.0" encoding="UTF-8" standalone="no"?>
<!DOCTYPE svg PUBLIC "-//W3C//DTD SVG 1.1//EN"
 "http://www.w3.org/Graphics/SVG/1.1/DTD/svg11.dtd">
<!-- Generated by graphviz version 2.49.3 (20211027.1534)
 -->
<!-- Title: DashBoard::compassChanged Pages: 1 -->
<svg width="814pt" height="78pt"
 viewBox="0.00 0.00 814.00 77.50" xmlns="http://www.w3.org/2000/svg" xmlns:xlink="http://www.w3.org/1999/xlink">
<g id="graph0" class="graph" transform="scale(1 1) rotate(0) translate(4 73.5)">
<title>DashBoard::compassChanged</title>
<polygon fill="white" stroke="transparent" points="-4,4 -4,-73.5 810,-73.5 810,4 -4,4"/>
<!-- Node1 -->
<g id="node1" class="node">
<title>Node1</title>
<g id="a_node1"><a xlink:title=" ">
<polygon fill="#bfbfbf" stroke="black" points="659,-22.5 659,-41.5 806,-41.5 806,-22.5 659,-22.5"/>
<text text-anchor="middle" x="732.5" y="-29.5" font-family="Helvetica,sans-Serif" font-size="10.00">DashBoard::compassChanged</text>
</a>
</g>
</g>
<!-- Node2 -->
<g id="node2" class="node">
<title>Node2</title>
<g id="a_node2"><a xlink:href="classDashBoard.html#a0575c0ba4837f3be7e47529fa6fae82b" target="_top" xlink:title=" ">
<polygon fill="white" stroke="black" points="501,-22.5 501,-41.5 623,-41.5 623,-22.5 501,-22.5"/>
<text text-anchor="middle" x="562" y="-29.5" font-family="Helvetica,sans-Serif" font-size="10.00">DashBoard::setcompass</text>
</a>
</g>
</g>
<!-- Node1&#45;&gt;Node2 -->
<g id="edge1" class="edge">
<title>Node1&#45;&gt;Node2</title>
<path fill="none" stroke="midnightblue" d="M648.54,-32C639.97,-32 631.38,-32 623.13,-32"/>
<polygon fill="midnightblue" stroke="midnightblue" points="648.57,-35.5 658.57,-32 648.57,-28.5 648.57,-35.5"/>
</g>
<!-- Node3 -->
<g id="node3" class="node">
<title>Node3</title>
<g id="a_node3"><a xlink:href="classudpreceiver.html#a725cf4f5cf798fd5baed7eee2e6dd5f2" target="_top" xlink:title=" ">
<polygon fill="white" stroke="black" points="324,-39 324,-69 465,-69 465,-39 324,-39"/>
<text text-anchor="start" x="332" y="-57" font-family="Helvetica,sans-Serif" font-size="10.00">udpreceiver::processPending</text>
<text text-anchor="middle" x="394.5" y="-46" font-family="Helvetica,sans-Serif" font-size="10.00">Datagrams</text>
</a>
</g>
</g>
<!-- Node2&#45;&gt;Node3 -->
<g id="edge2" class="edge">
<title>Node2&#45;&gt;Node3</title>
<path fill="none" stroke="midnightblue" d="M490.63,-41.35C482.21,-42.47 473.62,-43.61 465.22,-44.73"/>
<polygon fill="midnightblue" stroke="midnightblue" points="491.33,-44.79 500.78,-40 490.41,-37.85 491.33,-44.79"/>
</g>
<!-- Node6 -->
<g id="node6" class="node">
<title>Node6</title>
<g id="a_node6"><a xlink:href="classSensors.html#acb26d258f3240378a2d2a0a4410a3787" target="_top" xlink:title=" ">
<polygon fill="white" stroke="black" points="330.5,-0.5 330.5,-19.5 458.5,-19.5 458.5,-0.5 330.5,-0.5"/>
<text text-anchor="middle" x="394.5" y="-7.5" font-family="Helvetica,sans-Serif" font-size="10.00">Sensors::updateCompass</text>
</a>
</g>
</g>
<!-- Node2&#45;&gt;Node6 -->
<g id="edge5" class="edge">
<title>Node2&#45;&gt;Node6</title>
<path fill="none" stroke="midnightblue" d="M490.71,-22.66C480.09,-21.24 469.19,-19.8 458.74,-18.41"/>
<polygon fill="midnightblue" stroke="midnightblue" points="490.41,-26.15 500.78,-24 491.33,-19.21 490.41,-26.15"/>
</g>
<!-- Node4 -->
<g id="node4" class="node">
<title>Node4</title>
<g id="a_node4"><a xlink:href="classudpreceiver.html#a2d7852b9e4be87d9a3ce960d8a7eb9aa" target="_top" xlink:title=" ">
<polygon fill="white" stroke="black" points="163,-44.5 163,-63.5 288,-63.5 288,-44.5 163,-44.5"/>
<text text-anchor="middle" x="225.5" y="-51.5" font-family="Helvetica,sans-Serif" font-size="10.00">udpreceiver::startreceiver</text>
</a>
</g>
</g>
<!-- Node3&#45;&gt;Node4 -->
<g id="edge3" class="edge">
<title>Node3&#45;&gt;Node4</title>
<path fill="none" stroke="midnightblue" d="M313.62,-54C305.05,-54 296.42,-54 288.11,-54"/>
<polygon fill="midnightblue" stroke="midnightblue" points="313.64,-57.5 323.64,-54 313.64,-50.5 313.64,-57.5"/>
</g>
<!-- Node5 -->
<g id="node5" class="node">
<title>Node5</title>
<g id="a_node5"><a xlink:href="classConnect.html#a0d674157f4d7442c535837dadd8cf5f1" target="_top" xlink:title=" ">
<polygon fill="white" stroke="black" points="0,-44.5 0,-63.5 127,-63.5 127,-44.5 0,-44.5"/>
<text text-anchor="middle" x="63.5" y="-51.5" font-family="Helvetica,sans-Serif" font-size="10.00">Connect::openConnection</text>
</a>
</g>
</g>
<!-- Node4&#45;&gt;Node5 -->
<g id="edge4" class="edge">
<title>Node4&#45;&gt;Node5</title>
<path fill="none" stroke="midnightblue" d="M152.46,-54C144.05,-54 135.52,-54 127.25,-54"/>
<polygon fill="midnightblue" stroke="midnightblue" points="152.64,-57.5 162.64,-54 152.64,-50.5 152.64,-57.5"/>
</g>
<!-- Node7 -->
<g id="node7" class="node">
<title>Node7</title>
<g id="a_node7"><a xlink:href="classSensors.html#a7c89a1a4def2dfe8cf86f0de8886763b" target="_top" xlink:title=" ">
<polygon fill="white" stroke="black" points="184,-0.5 184,-19.5 267,-19.5 267,-0.5 184,-0.5"/>
<text text-anchor="middle" x="225.5" y="-7.5" font-family="Helvetica,sans-Serif" font-size="10.00">Sensors::Comp</text>
</a>
</g>
</g>
<!-- Node6&#45;&gt;Node7 -->
<g id="edge6" class="edge">
<title>Node6&#45;&gt;Node7</title>
<path fill="none" stroke="midnightblue" d="M320.13,-10C302.07,-10 283.37,-10 267.48,-10"/>
<polygon fill="midnightblue" stroke="midnightblue" points="320.36,-13.5 330.36,-10 320.36,-6.5 320.36,-13.5"/>
</g>
</g>
</svg>
