<?xml version="1.0" encoding="UTF-8" standalone="no"?>
<!DOCTYPE svg PUBLIC "-//W3C//DTD SVG 1.1//EN"
 "http://www.w3.org/Graphics/SVG/1.1/DTD/svg11.dtd">
<!-- Generated by graphviz version 2.49.3 (20211027.1534)
 -->
<!-- Title: DashBoard::timeoutStatChanged Pages: 1 -->
<svg width="1208pt" height="123pt"
 viewBox="0.00 0.00 1208.00 122.83" xmlns="http://www.w3.org/2000/svg" xmlns:xlink="http://www.w3.org/1999/xlink">
<g id="graph0" class="graph" transform="scale(1 1) rotate(0) translate(4 118.83)">
<title>DashBoard::timeoutStatChanged</title>
<polygon fill="white" stroke="transparent" points="-4,4 -4,-118.83 1204,-118.83 1204,4 -4,4"/>
<!-- Node1 -->
<g id="node1" class="node">
<title>Node1</title>
<g id="a_node1"><a xlink:title=" ">
<polygon fill="#bfbfbf" stroke="black" points="1042,-48.33 1042,-67.33 1200,-67.33 1200,-48.33 1042,-48.33"/>
<text text-anchor="middle" x="1121" y="-55.33" font-family="Helvetica,sans-Serif" font-size="10.00">DashBoard::timeoutStatChanged</text>
</a>
</g>
</g>
<!-- Node2 -->
<g id="node2" class="node">
<title>Node2</title>
<g id="a_node2"><a xlink:href="classDashBoard.html#a7638e10b46688431f57c31bfc7ab1a37" target="_top" xlink:title=" ">
<polygon fill="white" stroke="black" points="870,-48.33 870,-67.33 1006,-67.33 1006,-48.33 870,-48.33"/>
<text text-anchor="middle" x="938" y="-55.33" font-family="Helvetica,sans-Serif" font-size="10.00">DashBoard::setTimeoutStat</text>
</a>
</g>
</g>
<!-- Node1&#45;&gt;Node2 -->
<g id="edge1" class="edge">
<title>Node1&#45;&gt;Node2</title>
<path fill="none" stroke="midnightblue" d="M1031.78,-57.83C1023.12,-57.83 1014.42,-57.83 1006.02,-57.83"/>
<polygon fill="midnightblue" stroke="midnightblue" points="1031.93,-61.33 1041.93,-57.83 1031.93,-54.33 1031.93,-61.33"/>
</g>
<!-- Node3 -->
<g id="node3" class="node">
<title>Node3</title>
<g id="a_node3"><a xlink:href="classApexi.html#a4cb1314ab5ca5175aa227ed178148f40" target="_top" xlink:title=" ">
<polygon fill="white" stroke="black" points="746,-67.33 746,-86.33 834,-86.33 834,-67.33 746,-67.33"/>
<text text-anchor="middle" x="790" y="-74.33" font-family="Helvetica,sans-Serif" font-size="10.00">Apexi::apexiECU</text>
</a>
</g>
</g>
<!-- Node2&#45;&gt;Node3 -->
<g id="edge2" class="edge">
<title>Node2&#45;&gt;Node3</title>
<path fill="none" stroke="midnightblue" d="M860,-67.86C851.16,-69.01 842.4,-70.15 834.24,-71.21"/>
<polygon fill="midnightblue" stroke="midnightblue" points="860.52,-71.32 869.98,-66.56 859.61,-64.38 860.52,-71.32"/>
</g>
<!-- Node12 -->
<g id="node12" class="node">
<title>Node12</title>
<g id="a_node12"><a xlink:href="classApexi.html#a9c813630d2b2a70b7e098ae10220103e" target="_top" xlink:title=" ">
<polygon fill="white" stroke="black" points="601,-29.33 601,-48.33 710,-48.33 710,-29.33 601,-29.33"/>
<text text-anchor="middle" x="655.5" y="-36.33" font-family="Helvetica,sans-Serif" font-size="10.00">Apexi::handleTimeout</text>
</a>
</g>
</g>
<!-- Node2&#45;&gt;Node12 -->
<g id="edge14" class="edge">
<title>Node2&#45;&gt;Node12</title>
<path fill="none" stroke="midnightblue" d="M859.56,-52.59C812.02,-49.37 752.34,-45.33 710.02,-42.46"/>
<polygon fill="midnightblue" stroke="midnightblue" points="859.6,-56.1 869.81,-53.28 860.07,-49.12 859.6,-56.1"/>
</g>
<!-- Node4 -->
<g id="node4" class="node">
<title>Node4</title>
<g id="a_node4"><a xlink:href="classApexi.html#abe3bf6800fce8a4c713a08c14474d625" target="_top" xlink:title=" ">
<polygon fill="white" stroke="black" points="604.5,-67.33 604.5,-86.33 706.5,-86.33 706.5,-67.33 604.5,-67.33"/>
<text text-anchor="middle" x="655.5" y="-74.33" font-family="Helvetica,sans-Serif" font-size="10.00">Apexi::readyToRead</text>
</a>
</g>
</g>
<!-- Node3&#45;&gt;Node4 -->
<g id="edge3" class="edge">
<title>Node3&#45;&gt;Node4</title>
<path fill="none" stroke="midnightblue" d="M735.76,-76.83C726.16,-76.83 716.18,-76.83 706.68,-76.83"/>
<polygon fill="midnightblue" stroke="midnightblue" points="735.98,-80.33 745.98,-76.83 735.98,-73.33 735.98,-80.33"/>
</g>
<!-- Node5 -->
<g id="node5" class="node">
<title>Node5</title>
<g id="a_node5"><a xlink:href="classApexi.html#a669124cabae4ada616e650e582c068da" target="_top" xlink:title=" ">
<polygon fill="white" stroke="black" points="448,-29.33 448,-48.33 565,-48.33 565,-29.33 448,-29.33"/>
<text text-anchor="middle" x="506.5" y="-36.33" font-family="Helvetica,sans-Serif" font-size="10.00">Apexi::closeConnection</text>
</a>
</g>
</g>
<!-- Node4&#45;&gt;Node5 -->
<g id="edge4" class="edge">
<title>Node4&#45;&gt;Node5</title>
<path fill="none" stroke="midnightblue" d="M607.65,-64.72C587.17,-59.43 563.51,-53.31 544.33,-48.35"/>
<polygon fill="midnightblue" stroke="midnightblue" points="606.85,-68.13 617.41,-67.25 608.6,-61.35 606.85,-68.13"/>
</g>
<!-- Node11 -->
<g id="node11" class="node">
<title>Node11</title>
<g id="a_node11"><a xlink:href="classApexi.html#a169d6e9466a6c04e6533c8e84fdcaadb" target="_top" xlink:title=" ">
<polygon fill="white" stroke="black" points="456,-67.33 456,-86.33 557,-86.33 557,-67.33 456,-67.33"/>
<text text-anchor="middle" x="506.5" y="-74.33" font-family="Helvetica,sans-Serif" font-size="10.00">Apexi::initSerialPort</text>
</a>
</g>
</g>
<!-- Node4&#45;&gt;Node11 -->
<g id="edge12" class="edge">
<title>Node4&#45;&gt;Node11</title>
<path fill="none" stroke="midnightblue" d="M594.21,-76.83C581.99,-76.83 569.27,-76.83 557.45,-76.83"/>
<polygon fill="midnightblue" stroke="midnightblue" points="594.32,-80.33 604.32,-76.83 594.32,-73.33 594.32,-80.33"/>
</g>
<!-- Node6 -->
<g id="node6" class="node">
<title>Node6</title>
<g id="a_node6"><a xlink:href="classConnect.html#abb89a14af2e2b3f6d466c5abfc95cff0" target="_top" xlink:title=" ">
<polygon fill="white" stroke="black" points="283,-29.33 283,-48.33 412,-48.33 412,-29.33 283,-29.33"/>
<text text-anchor="middle" x="347.5" y="-36.33" font-family="Helvetica,sans-Serif" font-size="10.00">Connect::closeConnection</text>
</a>
</g>
</g>
<!-- Node5&#45;&gt;Node6 -->
<g id="edge5" class="edge">
<title>Node5&#45;&gt;Node6</title>
<path fill="none" stroke="midnightblue" d="M437.7,-38.83C429.22,-38.83 420.57,-38.83 412.15,-38.83"/>
<polygon fill="midnightblue" stroke="midnightblue" points="437.93,-42.33 447.93,-38.83 437.93,-35.33 437.93,-42.33"/>
</g>
<!-- Node7 -->
<g id="node7" class="node">
<title>Node7</title>
<g id="a_node7"><a xlink:href="classApexi.html#a84e5eadc545afab5fbb0aea8b27e17c3" target="_top" xlink:title=" ">
<polygon fill="white" stroke="black" points="290,-67.33 290,-86.33 405,-86.33 405,-67.33 290,-67.33"/>
<text text-anchor="middle" x="347.5" y="-74.33" font-family="Helvetica,sans-Serif" font-size="10.00">Apexi::openConnection</text>
</a>
</g>
</g>
<!-- Node5&#45;&gt;Node7 -->
<g id="edge6" class="edge">
<title>Node5&#45;&gt;Node7</title>
<path fill="none" stroke="midnightblue" d="M456.05,-50.8C434.05,-56.13 408.51,-62.31 387.83,-67.31"/>
<polygon fill="midnightblue" stroke="midnightblue" points="456.99,-54.18 465.88,-48.42 455.34,-47.37 456.99,-54.18"/>
</g>
<!-- Node10 -->
<g id="node10" class="node">
<title>Node10</title>
<g id="a_node10"><a xlink:href="classApexi.html#a4e7b389e8d3e283a12733ab4f8492be3" target="_top" xlink:title=" ">
<polygon fill="white" stroke="black" points="0,-67.33 0,-86.33 84,-86.33 84,-67.33 0,-67.33"/>
<text text-anchor="middle" x="42" y="-74.33" font-family="Helvetica,sans-Serif" font-size="10.00">Apexi::readData</text>
</a>
</g>
</g>
<!-- Node5&#45;&gt;Node10 -->
<g id="edge11" class="edge">
<title>Node5&#45;&gt;Node10</title>
<path fill="none" stroke="midnightblue" d="M462.19,-26.8C389.39,-8.73 238.82,19.36 120,-19.83 91.57,-29.21 65.05,-53.58 51.81,-67.23"/>
<polygon fill="midnightblue" stroke="midnightblue" points="461.38,-30.21 471.93,-29.28 463.1,-23.42 461.38,-30.21"/>
</g>
<!-- Node8 -->
<g id="node8" class="node">
<title>Node8</title>
<g id="a_node8"><a xlink:href="classConnect.html#a0d674157f4d7442c535837dadd8cf5f1" target="_top" xlink:title=" ">
<polygon fill="white" stroke="black" points="120,-29.33 120,-48.33 247,-48.33 247,-29.33 120,-29.33"/>
<text text-anchor="middle" x="183.5" y="-36.33" font-family="Helvetica,sans-Serif" font-size="10.00">Connect::openConnection</text>
</a>
</g>
</g>
<!-- Node7&#45;&gt;Node8 -->
<g id="edge7" class="edge">
<title>Node7&#45;&gt;Node8</title>
<path fill="none" stroke="midnightblue" d="M295.79,-64.94C273.01,-59.6 246.51,-53.38 225.09,-48.35"/>
<polygon fill="midnightblue" stroke="midnightblue" points="295.09,-68.37 305.62,-67.25 296.68,-61.55 295.09,-68.37"/>
</g>
<!-- Node9 -->
<g id="node9" class="node">
<title>Node9</title>
<g id="a_node9"><a xlink:href="classApexi.html#af3673b74b8aebe06a2b2f9ed81c23ee4" target="_top" xlink:title=" ">
<polygon fill="white" stroke="black" points="134.5,-67.33 134.5,-86.33 232.5,-86.33 232.5,-67.33 134.5,-67.33"/>
<text text-anchor="middle" x="183.5" y="-74.33" font-family="Helvetica,sans-Serif" font-size="10.00">Apexi::retryconnect</text>
</a>
</g>
</g>
<!-- Node7&#45;&gt;Node9 -->
<g id="edge8" class="edge">
<title>Node7&#45;&gt;Node9</title>
<path fill="none" stroke="midnightblue" d="M279.6,-76.83C263.81,-76.83 247.29,-76.83 232.53,-76.83"/>
<polygon fill="midnightblue" stroke="midnightblue" points="279.84,-80.33 289.84,-76.83 279.84,-73.33 279.84,-80.33"/>
</g>
<!-- Node9&#45;&gt;Node10 -->
<g id="edge9" class="edge">
<title>Node9&#45;&gt;Node10</title>
<path fill="none" stroke="midnightblue" d="M124.32,-76.83C110.81,-76.83 96.72,-76.83 84.12,-76.83"/>
<polygon fill="midnightblue" stroke="midnightblue" points="124.49,-80.33 134.49,-76.83 124.49,-73.33 124.49,-80.33"/>
</g>
<!-- Node10&#45;&gt;Node3 -->
<g id="edge10" class="edge">
<title>Node10&#45;&gt;Node3</title>
<path fill="none" stroke="midnightblue" d="M86.9,-88.94C97.66,-91.55 109.19,-94.06 120,-95.83 219.68,-112.21 245.48,-114.83 346.5,-114.83 507.5,-114.83 507.5,-114.83 507.5,-114.83 597.9,-114.83 620.83,-110.66 710,-95.83 724.47,-93.43 740.22,-89.84 753.83,-86.43"/>
<polygon fill="midnightblue" stroke="midnightblue" points="87.43,-85.46 76.87,-86.42 85.72,-92.25 87.43,-85.46"/>
</g>
<!-- Node11&#45;&gt;Node7 -->
<g id="edge13" class="edge">
<title>Node11&#45;&gt;Node7</title>
<path fill="none" stroke="midnightblue" d="M445.82,-76.83C432.51,-76.83 418.43,-76.83 405.24,-76.83"/>
<polygon fill="midnightblue" stroke="midnightblue" points="445.82,-80.33 455.82,-76.83 445.82,-73.33 445.82,-80.33"/>
</g>
<!-- Node12&#45;&gt;Node5 -->
<g id="edge15" class="edge">
<title>Node12&#45;&gt;Node5</title>
<path fill="none" stroke="midnightblue" d="M590.51,-38.83C582.14,-38.83 573.61,-38.83 565.35,-38.83"/>
<polygon fill="midnightblue" stroke="midnightblue" points="590.6,-42.33 600.6,-38.83 590.6,-35.33 590.6,-42.33"/>
</g>
<!-- Node12&#45;&gt;Node11 -->
<g id="edge16" class="edge">
<title>Node12&#45;&gt;Node11</title>
<path fill="none" stroke="midnightblue" d="M607.65,-50.95C587.17,-56.24 563.51,-62.36 544.33,-67.31"/>
<polygon fill="midnightblue" stroke="midnightblue" points="608.6,-54.31 617.41,-48.42 606.85,-47.54 608.6,-54.31"/>
</g>
</g>
</svg>
