<?xml version="1.0" encoding="UTF-8" standalone="no"?>
<!DOCTYPE svg PUBLIC "-//W3C//DTD SVG 1.1//EN"
 "http://www.w3.org/Graphics/SVG/1.1/DTD/svg11.dtd">
<!-- Generated by graphviz version 2.49.3 (20211027.1534)
 -->
<!-- Title: DashBoard::CylindersChanged Pages: 1 -->
<svg width="611pt" height="88pt"
 viewBox="0.00 0.00 611.00 88.00" xmlns="http://www.w3.org/2000/svg" xmlns:xlink="http://www.w3.org/1999/xlink">
<g id="graph0" class="graph" transform="scale(1 1) rotate(0) translate(4 84)">
<title>DashBoard::CylindersChanged</title>
<polygon fill="white" stroke="transparent" points="-4,4 -4,-84 607,-84 607,4 -4,4"/>
<!-- Node1 -->
<g id="node1" class="node">
<title>Node1</title>
<g id="a_node1"><a xlink:title=" ">
<polygon fill="#bfbfbf" stroke="black" points="456,-30 456,-49 603,-49 603,-30 456,-30"/>
<text text-anchor="middle" x="529.5" y="-37" font-family="Helvetica,sans-Serif" font-size="10.00">DashBoard::CylindersChanged</text>
</a>
</g>
</g>
<!-- Node2 -->
<g id="node2" class="node">
<title>Node2</title>
<g id="a_node2"><a xlink:href="classDashBoard.html#a606543524113eecae9e8914e91c9256d" target="_top" xlink:title=" ">
<polygon fill="white" stroke="black" points="298,-30 298,-49 420,-49 420,-30 298,-30"/>
<text text-anchor="middle" x="359" y="-37" font-family="Helvetica,sans-Serif" font-size="10.00">DashBoard::setCylinders</text>
</a>
</g>
</g>
<!-- Node1&#45;&gt;Node2 -->
<g id="edge1" class="edge">
<title>Node1&#45;&gt;Node2</title>
<path fill="none" stroke="midnightblue" d="M445.54,-39.5C436.97,-39.5 428.38,-39.5 420.13,-39.5"/>
<polygon fill="midnightblue" stroke="midnightblue" points="445.57,-43 455.57,-39.5 445.57,-36 445.57,-43"/>
</g>
<!-- Node3 -->
<g id="node3" class="node">
<title>Node3</title>
<g id="a_node3"><a xlink:href="classAppSettings.html#af97c4b73b02f8cf8ef75b11d8f86ac40" target="_top" xlink:title=" ">
<polygon fill="white" stroke="black" points="129,-49.5 129,-79.5 262,-79.5 262,-49.5 129,-49.5"/>
<text text-anchor="start" x="137" y="-67.5" font-family="Helvetica,sans-Serif" font-size="10.00">AppSettings::readandApply</text>
<text text-anchor="middle" x="195.5" y="-56.5" font-family="Helvetica,sans-Serif" font-size="10.00">Settings</text>
</a>
</g>
</g>
<!-- Node2&#45;&gt;Node3 -->
<g id="edge2" class="edge">
<title>Node2&#45;&gt;Node3</title>
<path fill="none" stroke="midnightblue" d="M287.9,-50.35C279.34,-51.68 270.61,-53.03 262.11,-54.34"/>
<polygon fill="midnightblue" stroke="midnightblue" points="288.52,-53.8 297.86,-48.81 287.45,-46.88 288.52,-53.8"/>
</g>
<!-- Node5 -->
<g id="node5" class="node">
<title>Node5</title>
<g id="a_node5"><a xlink:href="classAppSettings.html#ab77b143592c6f84013dc1b412e627f6d" target="_top" xlink:title=" ">
<polygon fill="white" stroke="black" points="130.5,-0.5 130.5,-30.5 260.5,-30.5 260.5,-0.5 130.5,-0.5"/>
<text text-anchor="start" x="138.5" y="-18.5" font-family="Helvetica,sans-Serif" font-size="10.00">AppSettings::writeCylinder</text>
<text text-anchor="middle" x="195.5" y="-7.5" font-family="Helvetica,sans-Serif" font-size="10.00">Settings</text>
</a>
</g>
</g>
<!-- Node2&#45;&gt;Node5 -->
<g id="edge4" class="edge">
<title>Node2&#45;&gt;Node5</title>
<path fill="none" stroke="midnightblue" d="M287.81,-29.07C278.81,-27.73 269.64,-26.37 260.75,-25.05"/>
<polygon fill="midnightblue" stroke="midnightblue" points="287.46,-32.56 297.86,-30.56 288.49,-25.63 287.46,-32.56"/>
</g>
<!-- Node4 -->
<g id="node4" class="node">
<title>Node4</title>
<g id="a_node4"><a xlink:href="classConnect.html#a2e3bdc883e226b286ee2ea851bf5f551" target="_top" xlink:title=" ">
<polygon fill="white" stroke="black" points="0,-55 0,-74 93,-74 93,-55 0,-55"/>
<text text-anchor="middle" x="46.5" y="-62" font-family="Helvetica,sans-Serif" font-size="10.00">Connect::Connect</text>
</a>
</g>
</g>
<!-- Node3&#45;&gt;Node4 -->
<g id="edge3" class="edge">
<title>Node3&#45;&gt;Node4</title>
<path fill="none" stroke="midnightblue" d="M118.64,-64.5C110.03,-64.5 101.46,-64.5 93.41,-64.5"/>
<polygon fill="midnightblue" stroke="midnightblue" points="118.74,-68 128.74,-64.5 118.74,-61 118.74,-68"/>
</g>
</g>
</svg>
