<?xml version="1.0" encoding="UTF-8" standalone="no"?>
<!DOCTYPE svg PUBLIC "-//W3C//DTD SVG 1.1//EN"
 "http://www.w3.org/Graphics/SVG/1.1/DTD/svg11.dtd">
<!-- Generated by graphviz version 2.49.3 (20211027.1534)
 -->
<!-- Title: AdaptronicSelect::sig_adaptronicReadFinished Pages: 1 -->
<svg width="864pt" height="61pt"
 viewBox="0.00 0.00 864.00 61.00" xmlns="http://www.w3.org/2000/svg" xmlns:xlink="http://www.w3.org/1999/xlink">
<g id="graph0" class="graph" transform="scale(1 1) rotate(0) translate(4 57)">
<title>AdaptronicSelect::sig_adaptronicReadFinished</title>
<polygon fill="white" stroke="transparent" points="-4,4 -4,-57 860,-57 860,4 -4,4"/>
<!-- Node1 -->
<g id="node1" class="node">
<title>Node1</title>
<g id="a_node1"><a xlink:title=" ">
<polygon fill="#bfbfbf" stroke="black" points="730,-0.5 730,-30.5 856,-30.5 856,-0.5 730,-0.5"/>
<text text-anchor="start" x="738" y="-18.5" font-family="Helvetica,sans-Serif" font-size="10.00">AdaptronicSelect::sig</text>
<text text-anchor="middle" x="793" y="-7.5" font-family="Helvetica,sans-Serif" font-size="10.00">_adaptronicReadFinished</text>
</a>
</g>
</g>
<!-- Node2 -->
<g id="node2" class="node">
<title>Node2</title>
<g id="a_node2"><a xlink:href="classAdaptronicSelect.html#ae353c5153a25423eb6044be7a2f1bf72" target="_top" xlink:title=" ">
<polygon fill="white" stroke="black" points="567,-22.5 567,-52.5 694,-52.5 694,-22.5 567,-22.5"/>
<text text-anchor="start" x="575" y="-40.5" font-family="Helvetica,sans-Serif" font-size="10.00">AdaptronicSelect::decode</text>
<text text-anchor="middle" x="630.5" y="-29.5" font-family="Helvetica,sans-Serif" font-size="10.00">Adaptronic</text>
</a>
</g>
</g>
<!-- Node1&#45;&gt;Node2 -->
<g id="edge1" class="edge">
<title>Node1&#45;&gt;Node2</title>
<path fill="none" stroke="midnightblue" d="M719.94,-25.38C711.35,-26.56 702.63,-27.75 694.18,-28.91"/>
<polygon fill="midnightblue" stroke="midnightblue" points="720.51,-28.83 729.95,-24.01 719.56,-21.9 720.51,-28.83"/>
</g>
<!-- Node5 -->
<g id="node5" class="node">
<title>Node5</title>
<g id="a_node5"><a xlink:href="classAdaptronicSelect.html#a16932b235281a8071bdf5404df8160ac" target="_top" xlink:title=" ">
<polygon fill="white" stroke="black" points="0,-6 0,-25 165,-25 165,-6 0,-6"/>
<text text-anchor="middle" x="82.5" y="-13" font-family="Helvetica,sans-Serif" font-size="10.00">AdaptronicSelect::openConnection</text>
</a>
</g>
</g>
<!-- Node1&#45;&gt;Node5 -->
<g id="edge5" class="edge">
<title>Node1&#45;&gt;Node5</title>
<path fill="none" stroke="midnightblue" d="M719.69,-13.04C711.03,-12.82 702.32,-12.63 694,-12.5 474.91,-9.15 420.09,-9.7 201,-12.5 189.37,-12.65 177.09,-12.88 165.03,-13.15"/>
<polygon fill="midnightblue" stroke="midnightblue" points="719.7,-16.54 729.8,-13.31 719.89,-9.54 719.7,-16.54"/>
</g>
<!-- Node3 -->
<g id="node3" class="node">
<title>Node3</title>
<g id="a_node3"><a xlink:href="classAdaptronicSelect.html#af5ee85733260355dd5236c796c6a3fc5" target="_top" xlink:title=" ">
<polygon fill="white" stroke="black" points="379,-28 379,-47 531,-47 531,-28 379,-28"/>
<text text-anchor="middle" x="455" y="-35" font-family="Helvetica,sans-Serif" font-size="10.00">AdaptronicSelect::readyToRead</text>
</a>
</g>
</g>
<!-- Node2&#45;&gt;Node3 -->
<g id="edge2" class="edge">
<title>Node2&#45;&gt;Node3</title>
<path fill="none" stroke="midnightblue" d="M556.71,-37.5C548.3,-37.5 539.71,-37.5 531.26,-37.5"/>
<polygon fill="midnightblue" stroke="midnightblue" points="556.86,-41 566.86,-37.5 556.86,-34 556.86,-41"/>
</g>
<!-- Node4 -->
<g id="node4" class="node">
<title>Node4</title>
<g id="a_node4"><a xlink:href="classAdaptronicSelect.html#a79148c38700405eb6a3fc1338be170ab" target="_top" xlink:title=" ">
<polygon fill="white" stroke="black" points="201,-22.5 201,-52.5 343,-52.5 343,-22.5 201,-22.5"/>
<text text-anchor="start" x="209" y="-40.5" font-family="Helvetica,sans-Serif" font-size="10.00">AdaptronicSelect::Adaptronic</text>
<text text-anchor="middle" x="272" y="-29.5" font-family="Helvetica,sans-Serif" font-size="10.00">StartStream</text>
</a>
</g>
</g>
<!-- Node3&#45;&gt;Node4 -->
<g id="edge3" class="edge">
<title>Node3&#45;&gt;Node4</title>
<path fill="none" stroke="midnightblue" d="M368.75,-37.5C360.13,-37.5 351.45,-37.5 343.03,-37.5"/>
<polygon fill="midnightblue" stroke="midnightblue" points="368.81,-41 378.81,-37.5 368.81,-34 368.81,-41"/>
</g>
<!-- Node4&#45;&gt;Node5 -->
<g id="edge4" class="edge">
<title>Node4&#45;&gt;Node5</title>
<path fill="none" stroke="midnightblue" d="M190.8,-28.09C182.11,-27.07 173.25,-26.03 164.55,-25.01"/>
<polygon fill="midnightblue" stroke="midnightblue" points="190.58,-31.59 200.92,-29.28 191.39,-24.64 190.58,-31.59"/>
</g>
</g>
</svg>
