<?xml version="1.0" encoding="UTF-8" standalone="no"?>
<!DOCTYPE svg PUBLIC "-//W3C//DTD SVG 1.1//EN"
 "http://www.w3.org/Graphics/SVG/1.1/DTD/svg11.dtd">
<!-- Generated by graphviz version 2.49.3 (20211027.1534)
 -->
<!-- Title: DashBoard::setEXAnalogInput7 Pages: 1 -->
<svg width="346pt" height="66pt"
 viewBox="0.00 0.00 346.00 66.00" xmlns="http://www.w3.org/2000/svg" xmlns:xlink="http://www.w3.org/1999/xlink">
<g id="graph0" class="graph" transform="scale(1 1) rotate(0) translate(4 62)">
<title>DashBoard::setEXAnalogInput7</title>
<polygon fill="white" stroke="transparent" points="-4,4 -4,-62 342,-62 342,4 -4,4"/>
<!-- Node1 -->
<g id="node1" class="node">
<title>Node1</title>
<g id="a_node1"><a xlink:title=" ">
<polygon fill="#bfbfbf" stroke="black" points="0,-19.5 0,-38.5 152,-38.5 152,-19.5 0,-19.5"/>
<text text-anchor="middle" x="76" y="-26.5" font-family="Helvetica,sans-Serif" font-size="10.00">DashBoard::setEXAnalogInput7</text>
</a>
</g>
</g>
<!-- Node2 -->
<g id="node2" class="node">
<title>Node2</title>
<g id="a_node2"><a xlink:href="dashboard_8cpp.html#a2751a06c2fa6c8388f2d37d5d26453f3" target="_top" xlink:title=" ">
<polygon fill="white" stroke="black" points="205,-38.5 205,-57.5 321,-57.5 321,-38.5 205,-38.5"/>
<text text-anchor="middle" x="263" y="-45.5" font-family="Helvetica,sans-Serif" font-size="10.00">averageexanaloginput7</text>
</a>
</g>
</g>
<!-- Node1&#45;&gt;Node2 -->
<g id="edge1" class="edge">
<title>Node1&#45;&gt;Node2</title>
<path fill="none" stroke="midnightblue" d="M152.25,-36.73C166.41,-38.18 181.14,-39.7 195.04,-41.12"/>
<polygon fill="midnightblue" stroke="midnightblue" points="194.68,-44.6 204.98,-42.14 195.39,-37.64 194.68,-44.6"/>
</g>
<!-- Node3 -->
<g id="node3" class="node">
<title>Node3</title>
<g id="a_node3"><a xlink:href="classDashBoard.html#a45064b50c716f383e9811c5ab25b3422" target="_top" xlink:title=" ">
<polygon fill="white" stroke="black" points="188,-0.5 188,-19.5 338,-19.5 338,-0.5 188,-0.5"/>
<text text-anchor="middle" x="263" y="-7.5" font-family="Helvetica,sans-Serif" font-size="10.00">DashBoard::setEXAnalogCalc7</text>
</a>
</g>
</g>
<!-- Node1&#45;&gt;Node3 -->
<g id="edge2" class="edge">
<title>Node1&#45;&gt;Node3</title>
<path fill="none" stroke="midnightblue" d="M152.25,-21.27C160.57,-20.42 169.08,-19.54 177.51,-18.68"/>
<polygon fill="midnightblue" stroke="midnightblue" points="178.13,-22.13 187.72,-17.63 177.41,-15.17 178.13,-22.13"/>
</g>
</g>
</svg>
