<?xml version="1.0" encoding="UTF-8" standalone="no"?>
<!DOCTYPE svg PUBLIC "-//W3C//DTD SVG 1.1//EN"
 "http://www.w3.org/Graphics/SVG/1.1/DTD/svg11.dtd">
<!-- Generated by graphviz version 2.49.3 (20211027.1534)
 -->
<!-- Title: Connect::closeConnection Pages: 1 -->
<svg width="1158pt" height="1016pt"
 viewBox="0.00 0.00 1158.00 1016.00" xmlns="http://www.w3.org/2000/svg" xmlns:xlink="http://www.w3.org/1999/xlink">
<g id="graph0" class="graph" transform="scale(1 1) rotate(0) translate(4 1012)">
<title>Connect::closeConnection</title>
<polygon fill="white" stroke="transparent" points="-4,4 -4,-1012 1154,-1012 1154,4 -4,4"/>
<!-- Node1 -->
<g id="node1" class="node">
<title>Node1</title>
<g id="a_node1"><a xlink:title=" ">
<polygon fill="#bfbfbf" stroke="black" points="0,-874.5 0,-893.5 129,-893.5 129,-874.5 0,-874.5"/>
<text text-anchor="middle" x="64.5" y="-881.5" font-family="Helvetica,sans-Serif" font-size="10.00">Connect::closeConnection</text>
</a>
</g>
</g>
<!-- Node2 -->
<g id="node2" class="node">
<title>Node2</title>
<g id="a_node2"><a xlink:href="classApexi.html#a669124cabae4ada616e650e582c068da" target="_top" xlink:title=" ">
<polygon fill="white" stroke="black" points="178,-912.5 178,-931.5 295,-931.5 295,-912.5 178,-912.5"/>
<text text-anchor="middle" x="236.5" y="-919.5" font-family="Helvetica,sans-Serif" font-size="10.00">Apexi::closeConnection</text>
</a>
</g>
</g>
<!-- Node1&#45;&gt;Node2 -->
<g id="edge1" class="edge">
<title>Node1&#45;&gt;Node2</title>
<path fill="none" stroke="midnightblue" d="M108.4,-893.59C131.03,-898.65 159,-904.9 182.93,-910.25"/>
<polygon fill="midnightblue" stroke="midnightblue" points="182.39,-913.71 192.91,-912.48 183.91,-906.88 182.39,-913.71"/>
</g>
<!-- Node114 -->
<g id="node49" class="node">
<title>Node114</title>
<g id="a_node49"><a xlink:href="classudpreceiver.html#a97192696edf96c4be382dbe35c9a222f" target="_top" xlink:title=" ">
<polygon fill="white" stroke="black" points="165,-874.5 165,-893.5 308,-893.5 308,-874.5 165,-874.5"/>
<text text-anchor="middle" x="236.5" y="-881.5" font-family="Helvetica,sans-Serif" font-size="10.00">udpreceiver::closeConnection</text>
</a>
</g>
</g>
<!-- Node1&#45;&gt;Node114 -->
<g id="edge57" class="edge">
<title>Node1&#45;&gt;Node114</title>
<path fill="none" stroke="midnightblue" d="M129.29,-884C137.61,-884 146.23,-884 154.8,-884"/>
<polygon fill="midnightblue" stroke="midnightblue" points="154.8,-887.5 164.8,-884 154.8,-880.5 154.8,-887.5"/>
</g>
<!-- Node115 -->
<g id="node50" class="node">
<title>Node115</title>
<g id="a_node50"><a xlink:href="classcalculations.html#a5503879233aabef13b79e4e0af7ae1f2" target="_top" xlink:title=" ">
<polygon fill="white" stroke="black" points="190.5,-836.5 190.5,-855.5 282.5,-855.5 282.5,-836.5 190.5,-836.5"/>
<text text-anchor="middle" x="236.5" y="-843.5" font-family="Helvetica,sans-Serif" font-size="10.00">calculations::stop</text>
</a>
</g>
</g>
<!-- Node1&#45;&gt;Node115 -->
<g id="edge58" class="edge">
<title>Node1&#45;&gt;Node115</title>
<path fill="none" stroke="midnightblue" d="M108.4,-874.41C131.03,-869.35 159,-863.1 182.93,-857.75"/>
<polygon fill="midnightblue" stroke="midnightblue" points="183.91,-861.12 192.91,-855.52 182.39,-854.29 183.91,-861.12"/>
</g>
<!-- Node3 -->
<g id="node3" class="node">
<title>Node3</title>
<g id="a_node3"><a xlink:href="classApexi.html#a8a8a56251df881cc9eb49f1f20332fda" target="_top" xlink:title=" ">
<polygon fill="white" stroke="black" points="344,-988.5 344,-1007.5 473,-1007.5 473,-988.5 344,-988.5"/>
<text text-anchor="middle" x="408.5" y="-995.5" font-family="Helvetica,sans-Serif" font-size="10.00">Apexi::handleBytesWritten</text>
</a>
</g>
</g>
<!-- Node2&#45;&gt;Node3 -->
<g id="edge2" class="edge">
<title>Node2&#45;&gt;Node3</title>
<path fill="none" stroke="midnightblue" d="M252.9,-931.52C273.19,-943.76 310.27,-965.09 344,-979 349.52,-981.28 355.41,-983.41 361.3,-985.37"/>
<polygon fill="midnightblue" stroke="midnightblue" points="360.54,-988.8 371.13,-988.48 362.65,-982.12 360.54,-988.8"/>
</g>
<!-- Node4 -->
<g id="node4" class="node">
<title>Node4</title>
<g id="a_node4"><a xlink:href="classApexi.html#a6c775f27e878959c047bb9c252064cfe" target="_top" xlink:title=" ">
<polygon fill="white" stroke="black" points="361.5,-950.5 361.5,-969.5 455.5,-969.5 455.5,-950.5 361.5,-950.5"/>
<text text-anchor="middle" x="408.5" y="-957.5" font-family="Helvetica,sans-Serif" font-size="10.00">Apexi::handleError</text>
</a>
</g>
</g>
<!-- Node2&#45;&gt;Node4 -->
<g id="edge3" class="edge">
<title>Node2&#45;&gt;Node4</title>
<path fill="none" stroke="midnightblue" d="M280.4,-931.59C303.03,-936.65 331,-942.9 354.93,-948.25"/>
<polygon fill="midnightblue" stroke="midnightblue" points="354.39,-951.71 364.91,-950.48 355.91,-944.88 354.39,-951.71"/>
</g>
<!-- Node6 -->
<g id="node6" class="node">
<title>Node6</title>
<g id="a_node6"><a xlink:href="classApexi.html#a9c813630d2b2a70b7e098ae10220103e" target="_top" xlink:title=" ">
<polygon fill="white" stroke="black" points="517,-912.5 517,-931.5 626,-931.5 626,-912.5 517,-912.5"/>
<text text-anchor="middle" x="571.5" y="-919.5" font-family="Helvetica,sans-Serif" font-size="10.00">Apexi::handleTimeout</text>
</a>
</g>
</g>
<!-- Node2&#45;&gt;Node6 -->
<g id="edge5" class="edge">
<title>Node2&#45;&gt;Node6</title>
<path fill="none" stroke="midnightblue" d="M295.12,-922C354.07,-922 445.45,-922 506.59,-922"/>
<polygon fill="midnightblue" stroke="midnightblue" points="506.88,-925.5 516.88,-922 506.88,-918.5 506.88,-925.5"/>
</g>
<!-- Node10 -->
<g id="node10" class="node">
<title>Node10</title>
<g id="a_node10"><a xlink:href="classApexi.html#abe3bf6800fce8a4c713a08c14474d625" target="_top" xlink:title=" ">
<polygon fill="white" stroke="black" points="357.5,-874.5 357.5,-893.5 459.5,-893.5 459.5,-874.5 357.5,-874.5"/>
<text text-anchor="middle" x="408.5" y="-881.5" font-family="Helvetica,sans-Serif" font-size="10.00">Apexi::readyToRead</text>
</a>
</g>
</g>
<!-- Node2&#45;&gt;Node10 -->
<g id="edge11" class="edge">
<title>Node2&#45;&gt;Node10</title>
<path fill="none" stroke="midnightblue" d="M280.4,-912.41C303.03,-907.35 331,-901.1 354.93,-895.75"/>
<polygon fill="midnightblue" stroke="midnightblue" points="355.91,-899.12 364.91,-893.52 354.39,-892.29 355.91,-899.12"/>
</g>
<!-- Node5 -->
<g id="node5" class="node">
<title>Node5</title>
<g id="a_node5"><a xlink:href="classDashBoard.html#aa096e4f8310f6614db7409cef61d7ccb" target="_top" xlink:title=" ">
<polygon fill="white" stroke="black" points="1020.5,-988.5 1020.5,-1007.5 1145.5,-1007.5 1145.5,-988.5 1020.5,-988.5"/>
<text text-anchor="middle" x="1083" y="-995.5" font-family="Helvetica,sans-Serif" font-size="10.00">DashBoard::setSerialStat</text>
</a>
</g>
</g>
<!-- Node4&#45;&gt;Node5 -->
<g id="edge4" class="edge">
<title>Node4&#45;&gt;Node5</title>
<path fill="none" stroke="midnightblue" d="M455.72,-962.61C571.02,-969.13 871.97,-986.13 1010.42,-993.96"/>
<polygon fill="midnightblue" stroke="midnightblue" points="1010.32,-997.46 1020.5,-994.52 1010.71,-990.47 1010.32,-997.46"/>
</g>
<!-- Node6&#45;&gt;Node5 -->
<g id="edge9" class="edge">
<title>Node6&#45;&gt;Node5</title>
<path fill="none" stroke="midnightblue" d="M618.53,-931.51C634.76,-934.72 653.16,-938.2 670,-941 678.32,-942.38 894,-972.12 1009.9,-988.08"/>
<polygon fill="midnightblue" stroke="midnightblue" points="1009.73,-991.59 1020.11,-989.48 1010.68,-984.65 1009.73,-991.59"/>
</g>
<!-- Node7 -->
<g id="node7" class="node">
<title>Node7</title>
<g id="a_node7"><a xlink:href="classApexi.html#a9ed7e794f2566b72a448e341233985eb" target="_top" xlink:title=" ">
<polygon fill="white" stroke="black" points="687,-912.5 687,-931.5 789,-931.5 789,-912.5 687,-912.5"/>
<text text-anchor="middle" x="738" y="-919.5" font-family="Helvetica,sans-Serif" font-size="10.00">Apexi::sendRequest</text>
</a>
</g>
</g>
<!-- Node6&#45;&gt;Node7 -->
<g id="edge6" class="edge">
<title>Node6&#45;&gt;Node7</title>
<path fill="none" stroke="midnightblue" d="M626.36,-922C642.5,-922 660.31,-922 676.83,-922"/>
<polygon fill="midnightblue" stroke="midnightblue" points="676.92,-925.5 686.92,-922 676.92,-918.5 676.92,-925.5"/>
</g>
<!-- Node9 -->
<g id="node9" class="node">
<title>Node9</title>
<g id="a_node9"><a xlink:href="classDashBoard.html#a7638e10b46688431f57c31bfc7ab1a37" target="_top" xlink:title=" ">
<polygon fill="white" stroke="black" points="670,-874.5 670,-893.5 806,-893.5 806,-874.5 670,-874.5"/>
<text text-anchor="middle" x="738" y="-881.5" font-family="Helvetica,sans-Serif" font-size="10.00">DashBoard::setTimeoutStat</text>
</a>
</g>
</g>
<!-- Node6&#45;&gt;Node9 -->
<g id="edge10" class="edge">
<title>Node6&#45;&gt;Node9</title>
<path fill="none" stroke="midnightblue" d="M614.01,-912.41C635.82,-907.37 662.73,-901.16 685.82,-895.82"/>
<polygon fill="midnightblue" stroke="midnightblue" points="686.83,-899.18 695.79,-893.52 685.26,-892.36 686.83,-899.18"/>
</g>
<!-- Node8 -->
<g id="node8" class="node">
<title>Node8</title>
<g id="a_node8"><a xlink:href="classApexi.html#af312531b1dbc60175016a82881203f18" target="_top" xlink:title=" ">
<polygon fill="white" stroke="black" points="850,-912.5 850,-931.5 972,-931.5 972,-912.5 850,-912.5"/>
<text text-anchor="middle" x="911" y="-919.5" font-family="Helvetica,sans-Serif" font-size="10.00">Apexi::writeRequestPFC</text>
</a>
</g>
</g>
<!-- Node7&#45;&gt;Node8 -->
<g id="edge7" class="edge">
<title>Node7&#45;&gt;Node8</title>
<path fill="none" stroke="midnightblue" d="M789.38,-922C805.04,-922 822.61,-922 839.39,-922"/>
<polygon fill="midnightblue" stroke="midnightblue" points="839.71,-925.5 849.71,-922 839.71,-918.5 839.71,-925.5"/>
</g>
<!-- Node8&#45;&gt;Node5 -->
<g id="edge8" class="edge">
<title>Node8&#45;&gt;Node5</title>
<path fill="none" stroke="midnightblue" d="M947.46,-931.51C958.31,-935.2 970.02,-940.01 980,-946 998.61,-957.17 997.07,-968.38 1016,-979 1019.97,-981.23 1024.22,-983.21 1028.58,-984.97"/>
<polygon fill="midnightblue" stroke="midnightblue" points="1027.65,-988.36 1038.24,-988.5 1030.05,-981.78 1027.65,-988.36"/>
</g>
<!-- Node11 -->
<g id="node11" class="node">
<title>Node11</title>
<g id="a_node11"><a xlink:href="classApexi.html#a4cb1314ab5ca5175aa227ed178148f40" target="_top" xlink:title=" ">
<polygon fill="white" stroke="black" points="527.5,-836.5 527.5,-855.5 615.5,-855.5 615.5,-836.5 527.5,-836.5"/>
<text text-anchor="middle" x="571.5" y="-843.5" font-family="Helvetica,sans-Serif" font-size="10.00">Apexi::apexiECU</text>
</a>
</g>
</g>
<!-- Node10&#45;&gt;Node11 -->
<g id="edge12" class="edge">
<title>Node10&#45;&gt;Node11</title>
<path fill="none" stroke="midnightblue" d="M450.13,-874.41C471.47,-869.37 497.81,-863.16 520.41,-857.82"/>
<polygon fill="midnightblue" stroke="midnightblue" points="521.24,-861.22 530.17,-855.52 519.63,-854.41 521.24,-861.22"/>
</g>
<!-- Node113 -->
<g id="node48" class="node">
<title>Node113</title>
<g id="a_node48"><a xlink:href="classDashBoard.html#ab66782991ddf59e10d36f281735971da" target="_top" xlink:title=" ">
<polygon fill="white" stroke="black" points="509,-874.5 509,-893.5 634,-893.5 634,-874.5 509,-874.5"/>
<text text-anchor="middle" x="571.5" y="-881.5" font-family="Helvetica,sans-Serif" font-size="10.00">DashBoard::setRecvData</text>
</a>
</g>
</g>
<!-- Node10&#45;&gt;Node113 -->
<g id="edge56" class="edge">
<title>Node10&#45;&gt;Node113</title>
<path fill="none" stroke="midnightblue" d="M459.56,-884C471.99,-884 485.56,-884 498.8,-884"/>
<polygon fill="midnightblue" stroke="midnightblue" points="498.84,-887.5 508.84,-884 498.84,-880.5 498.84,-887.5"/>
</g>
<!-- Node11&#45;&gt;Node7 -->
<g id="edge53" class="edge">
<title>Node11&#45;&gt;Node7</title>
<path fill="none" stroke="midnightblue" d="M613.82,-855.54C620.83,-858.05 627.83,-861.17 634,-865 653.76,-877.28 650.1,-890.95 670,-903 673.61,-905.18 677.47,-907.13 681.47,-908.85"/>
<polygon fill="midnightblue" stroke="midnightblue" points="680.34,-912.17 690.93,-912.49 682.86,-905.63 680.34,-912.17"/>
</g>
<!-- Node11&#45;&gt;Node9 -->
<g id="edge55" class="edge">
<title>Node11&#45;&gt;Node9</title>
<path fill="none" stroke="midnightblue" d="M614.01,-855.59C635.82,-860.63 662.73,-866.84 685.82,-872.18"/>
<polygon fill="midnightblue" stroke="midnightblue" points="685.26,-875.64 695.79,-874.48 686.83,-868.82 685.26,-875.64"/>
</g>
<!-- Node12 -->
<g id="node12" class="node">
<title>Node12</title>
<g id="a_node12"><a xlink:href="classApexi.html#a4e7b389e8d3e283a12733ab4f8492be3" target="_top" xlink:title=" ">
<polygon fill="white" stroke="black" points="696,-532.5 696,-551.5 780,-551.5 780,-532.5 696,-532.5"/>
<text text-anchor="middle" x="738" y="-539.5" font-family="Helvetica,sans-Serif" font-size="10.00">Apexi::readData</text>
</a>
</g>
</g>
<!-- Node11&#45;&gt;Node12 -->
<g id="edge13" class="edge">
<title>Node11&#45;&gt;Node12</title>
<path fill="none" stroke="midnightblue" d="M577.79,-836.23C601.18,-792.99 695.63,-618.44 726.9,-560.67"/>
<polygon fill="midnightblue" stroke="midnightblue" points="730.13,-562.04 731.81,-551.58 723.98,-558.71 730.13,-562.04"/>
</g>
<!-- Node112 -->
<g id="node47" class="node">
<title>Node112</title>
<g id="a_node47"><a xlink:href="classDashBoard.html#af8966ca28767b5686245a42f97431bc8" target="_top" xlink:title=" ">
<polygon fill="white" stroke="black" points="679,-836.5 679,-855.5 797,-855.5 797,-836.5 679,-836.5"/>
<text text-anchor="middle" x="738" y="-843.5" font-family="Helvetica,sans-Serif" font-size="10.00">DashBoard::setRunStat</text>
</a>
</g>
</g>
<!-- Node11&#45;&gt;Node112 -->
<g id="edge54" class="edge">
<title>Node11&#45;&gt;Node112</title>
<path fill="none" stroke="midnightblue" d="M615.72,-846C631.95,-846 650.82,-846 668.77,-846"/>
<polygon fill="midnightblue" stroke="midnightblue" points="668.91,-849.5 678.91,-846 668.91,-842.5 668.91,-849.5"/>
</g>
<!-- Node12&#45;&gt;Node2 -->
<g id="edge14" class="edge">
<title>Node12&#45;&gt;Node2</title>
<path fill="none" stroke="midnightblue" d="M724.3,-551.51C674.22,-589.2 486.14,-732.53 344,-865 326.98,-880.86 327.98,-891.08 308,-903 304.33,-905.19 300.39,-907.14 296.34,-908.86"/>
<polygon fill="midnightblue" stroke="midnightblue" points="294.83,-905.69 286.71,-912.49 297.3,-912.24 294.83,-905.69"/>
</g>
<!-- Node13 -->
<g id="node13" class="node">
<title>Node13</title>
<g id="a_node13"><a xlink:href="classApexi.html#a3ecd8445700ab9532fc051325f66d03d" target="_top" xlink:title=" ">
<polygon fill="white" stroke="red" points="864,-551.5 864,-570.5 958,-570.5 958,-551.5 864,-551.5"/>
<text text-anchor="middle" x="911" y="-558.5" font-family="Helvetica,sans-Serif" font-size="10.00">Apexi::decodeAdv</text>
</a>
</g>
</g>
<!-- Node12&#45;&gt;Node13 -->
<g id="edge15" class="edge">
<title>Node12&#45;&gt;Node13</title>
<path fill="none" stroke="midnightblue" d="M780.39,-546.6C802.45,-549.05 829.89,-552.1 853.84,-554.76"/>
<polygon fill="midnightblue" stroke="midnightblue" points="853.54,-558.25 863.87,-555.87 854.32,-551.29 853.54,-558.25"/>
</g>
<!-- Node49 -->
<g id="node40" class="node">
<title>Node49</title>
<g id="a_node40"><a xlink:href="classApexi.html#af82382a1e22fdac04180f1734d59461f" target="_top" xlink:title=" ">
<polygon fill="white" stroke="red" points="864.5,-513.5 864.5,-532.5 957.5,-532.5 957.5,-513.5 864.5,-513.5"/>
<text text-anchor="middle" x="911" y="-520.5" font-family="Helvetica,sans-Serif" font-size="10.00">Apexi::decodeAux</text>
</a>
</g>
</g>
<!-- Node12&#45;&gt;Node49 -->
<g id="edge42" class="edge">
<title>Node12&#45;&gt;Node49</title>
<path fill="none" stroke="midnightblue" d="M780.39,-537.4C802.62,-534.93 830.33,-531.85 854.41,-529.18"/>
<polygon fill="midnightblue" stroke="midnightblue" points="854.93,-532.64 864.48,-528.06 854.16,-525.68 854.93,-532.64"/>
</g>
<!-- Node52 -->
<g id="node41" class="node">
<title>Node52</title>
<g id="a_node41"><a xlink:href="classApexi.html#af3dad564d7c3cca0e98f5944e5e27cdf" target="_top" xlink:title=" ">
<polygon fill="white" stroke="red" points="860.5,-836.5 860.5,-855.5 961.5,-855.5 961.5,-836.5 860.5,-836.5"/>
<text text-anchor="middle" x="911" y="-843.5" font-family="Helvetica,sans-Serif" font-size="10.00">Apexi::decodeBasic</text>
</a>
</g>
</g>
<!-- Node12&#45;&gt;Node52 -->
<g id="edge43" class="edge">
<title>Node12&#45;&gt;Node52</title>
<path fill="none" stroke="midnightblue" d="M744.5,-551.77C768.87,-595.1 867.41,-770.28 899.7,-827.69"/>
<polygon fill="midnightblue" stroke="midnightblue" points="896.66,-829.42 904.61,-836.42 902.76,-825.99 896.66,-829.42"/>
</g>
<!-- Node55 -->
<g id="node42" class="node">
<title>Node55</title>
<g id="a_node42"><a xlink:href="classApexi.html#aaa77337f30dd52330c1070ce161eea83" target="_top" xlink:title=" ">
<polygon fill="white" stroke="red" points="866,-475.5 866,-494.5 956,-494.5 956,-475.5 866,-475.5"/>
<text text-anchor="middle" x="911" y="-482.5" font-family="Helvetica,sans-Serif" font-size="10.00">Apexi::decodeInit</text>
</a>
</g>
</g>
<!-- Node12&#45;&gt;Node55 -->
<g id="edge48" class="edge">
<title>Node12&#45;&gt;Node55</title>
<path fill="none" stroke="midnightblue" d="M763.36,-532.38C784.11,-524.34 814.8,-512.8 842,-504 849.14,-501.69 856.75,-499.4 864.19,-497.25"/>
<polygon fill="midnightblue" stroke="midnightblue" points="865.17,-500.61 873.84,-494.52 863.27,-493.88 865.17,-500.61"/>
</g>
<!-- Node57 -->
<g id="node43" class="node">
<title>Node57</title>
<g id="a_node43"><a xlink:href="classApexi.html#a8434798529c3e79a33445e2ba626d8a2" target="_top" xlink:title=" ">
<polygon fill="white" stroke="black" points="863.5,-437.5 863.5,-456.5 958.5,-456.5 958.5,-437.5 863.5,-437.5"/>
<text text-anchor="middle" x="911" y="-444.5" font-family="Helvetica,sans-Serif" font-size="10.00">Apexi::decodeMap</text>
</a>
</g>
</g>
<!-- Node12&#45;&gt;Node57 -->
<g id="edge49" class="edge">
<title>Node12&#45;&gt;Node57</title>
<path fill="none" stroke="midnightblue" d="M749.28,-532.39C766.91,-516.38 804.65,-484.23 842,-466 846.7,-463.71 851.72,-461.65 856.82,-459.81"/>
<polygon fill="midnightblue" stroke="midnightblue" points="858.29,-463.02 866.68,-456.55 856.09,-456.37 858.29,-463.02"/>
</g>
<!-- Node58 -->
<g id="node44" class="node">
<title>Node58</title>
<g id="a_node44"><a xlink:href="classApexi.html#a6ce2b40858fc637448d1f6dc27e10a70" target="_top" xlink:title=" ">
<polygon fill="white" stroke="red" points="857.5,-399.5 857.5,-418.5 964.5,-418.5 964.5,-399.5 857.5,-399.5"/>
<text text-anchor="middle" x="911" y="-406.5" font-family="Helvetica,sans-Serif" font-size="10.00">Apexi::decodeSensor</text>
</a>
</g>
</g>
<!-- Node12&#45;&gt;Node58 -->
<g id="edge50" class="edge">
<title>Node12&#45;&gt;Node58</title>
<path fill="none" stroke="midnightblue" d="M744.91,-532.38C758.92,-510.4 796.41,-456.22 842,-428 845.42,-425.88 849.08,-424 852.86,-422.32"/>
<polygon fill="midnightblue" stroke="midnightblue" points="854.42,-425.46 862.45,-418.55 851.86,-418.95 854.42,-425.46"/>
</g>
<!-- Node83 -->
<g id="node45" class="node">
<title>Node83</title>
<g id="a_node45"><a xlink:href="classApexi.html#a45f8db235553ca011083224aec6b3892" target="_top" xlink:title=" ">
<polygon fill="white" stroke="red" points="842,-361.5 842,-380.5 980,-380.5 980,-361.5 842,-361.5"/>
<text text-anchor="middle" x="911" y="-368.5" font-family="Helvetica,sans-Serif" font-size="10.00">Apexi::decodeSensorStrings</text>
</a>
</g>
</g>
<!-- Node12&#45;&gt;Node83 -->
<g id="edge51" class="edge">
<title>Node12&#45;&gt;Node83</title>
<path fill="none" stroke="midnightblue" d="M742.67,-532.45C753.49,-505.6 787.93,-428.92 842,-390 844.69,-388.07 847.56,-386.33 850.56,-384.77"/>
<polygon fill="midnightblue" stroke="midnightblue" points="852.15,-387.89 859.84,-380.6 849.28,-381.51 852.15,-387.89"/>
</g>
<!-- Node108 -->
<g id="node46" class="node">
<title>Node108</title>
<g id="a_node46"><a xlink:href="classApexi.html#af3673b74b8aebe06a2b2f9ed81c23ee4" target="_top" xlink:title=" ">
<polygon fill="white" stroke="red" points="862,-874.5 862,-893.5 960,-893.5 960,-874.5 862,-874.5"/>
<text text-anchor="middle" x="911" y="-881.5" font-family="Helvetica,sans-Serif" font-size="10.00">Apexi::retryconnect</text>
</a>
</g>
</g>
<!-- Node12&#45;&gt;Node108 -->
<g id="edge52" class="edge">
<title>Node12&#45;&gt;Node108</title>
<path fill="none" stroke="midnightblue" d="M738.98,-551.59C739.42,-594.82 747.1,-773.48 842,-865 845.13,-868.02 848.69,-870.56 852.51,-872.71"/>
<polygon fill="midnightblue" stroke="midnightblue" points="851.26,-875.99 861.81,-877.03 854.21,-869.64 851.26,-875.99"/>
</g>
<!-- Node14 -->
<g id="node14" class="node">
<title>Node14</title>
<g id="a_node14"><a xlink:href="classDashBoard.html#a21635845a2258c7dbe2a7f2f7ec32345" target="_top" xlink:title=" ">
<polygon fill="white" stroke="black" points="1023,-912.5 1023,-931.5 1143,-931.5 1143,-912.5 1023,-912.5"/>
<text text-anchor="middle" x="1083" y="-919.5" font-family="Helvetica,sans-Serif" font-size="10.00">DashBoard::setBatteryV</text>
</a>
</g>
</g>
<!-- Node13&#45;&gt;Node14 -->
<g id="edge16" class="edge">
<title>Node13&#45;&gt;Node14</title>
<path fill="none" stroke="midnightblue" d="M914.38,-570.78C927.44,-624.08 990.69,-878.07 1016,-903 1017.47,-904.44 1019.03,-905.78 1020.68,-907.01"/>
<polygon fill="midnightblue" stroke="midnightblue" points="1019.15,-910.18 1029.51,-912.39 1022.79,-904.2 1019.15,-910.18"/>
</g>
<!-- Node15 -->
<g id="node15" class="node">
<title>Node15</title>
<g id="a_node15"><a xlink:href="classDashBoard.html#a864f44aaf83510cc38b81e3efc7f1da6" target="_top" xlink:title=" ">
<polygon fill="white" stroke="black" points="1019,-228.5 1019,-247.5 1147,-247.5 1147,-228.5 1019,-228.5"/>
<text text-anchor="middle" x="1083" y="-235.5" font-family="Helvetica,sans-Serif" font-size="10.00">DashBoard::setBoostDuty</text>
</a>
</g>
</g>
<!-- Node13&#45;&gt;Node15 -->
<g id="edge17" class="edge">
<title>Node13&#45;&gt;Node15</title>
<path fill="none" stroke="midnightblue" d="M958.3,-555.9C966.55,-552.98 974.31,-548.59 980,-542 1063.41,-445.34 932.96,-353.98 1016,-257 1017.02,-255.81 1018.1,-254.69 1019.25,-253.65"/>
<polygon fill="midnightblue" stroke="midnightblue" points="1021.5,-256.34 1027.57,-247.66 1017.41,-250.66 1021.5,-256.34"/>
</g>
<!-- Node16 -->
<g id="node16" class="node">
<title>Node16</title>
<g id="a_node16"><a xlink:href="classDashBoard.html#af865e5a3912f8100d831f01333a4fef9" target="_top" xlink:title=" ">
<polygon fill="white" stroke="black" points="1025,-190.5 1025,-209.5 1141,-209.5 1141,-190.5 1025,-190.5"/>
<text text-anchor="middle" x="1083" y="-197.5" font-family="Helvetica,sans-Serif" font-size="10.00">DashBoard::setBoosttp</text>
</a>
</g>
</g>
<!-- Node13&#45;&gt;Node16 -->
<g id="edge18" class="edge">
<title>Node13&#45;&gt;Node16</title>
<path fill="none" stroke="midnightblue" d="M958.03,-556.08C966.4,-553.17 974.28,-548.72 980,-542 1073.57,-431.96 922.86,-329.41 1016,-219 1017.01,-217.8 1018.09,-216.68 1019.23,-215.63"/>
<polygon fill="midnightblue" stroke="midnightblue" points="1021.48,-218.32 1027.52,-209.61 1017.37,-212.65 1021.48,-218.32"/>
</g>
<!-- Node17 -->
<g id="node17" class="node">
<title>Node17</title>
<g id="a_node17"><a xlink:href="classDashBoard.html#ad7eafea8b5a643e82155945495ff2aef" target="_top" xlink:title=" ">
<polygon fill="white" stroke="black" points="1022.5,-152.5 1022.5,-171.5 1143.5,-171.5 1143.5,-152.5 1022.5,-152.5"/>
<text text-anchor="middle" x="1083" y="-159.5" font-family="Helvetica,sans-Serif" font-size="10.00">DashBoard::setBoostwg</text>
</a>
</g>
</g>
<!-- Node13&#45;&gt;Node17 -->
<g id="edge19" class="edge">
<title>Node13&#45;&gt;Node17</title>
<path fill="none" stroke="midnightblue" d="M958.09,-556.13C966.46,-553.22 974.32,-548.76 980,-542 1083.73,-418.56 912.75,-304.85 1016,-181 1017,-179.8 1018.07,-178.67 1019.21,-177.61"/>
<polygon fill="midnightblue" stroke="midnightblue" points="1021.46,-180.3 1027.47,-171.57 1017.33,-174.65 1021.46,-180.3"/>
</g>
<!-- Node18 -->
<g id="node18" class="node">
<title>Node18</title>
<g id="a_node18"><a xlink:href="classDashBoard.html#aa34fb9a1bc1ffbf895c0dc507dacfe03" target="_top" xlink:title=" ">
<polygon fill="white" stroke="black" points="1029.5,-114.5 1029.5,-133.5 1136.5,-133.5 1136.5,-114.5 1029.5,-114.5"/>
<text text-anchor="middle" x="1083" y="-121.5" font-family="Helvetica,sans-Serif" font-size="10.00">DashBoard::setDwell</text>
</a>
</g>
</g>
<!-- Node13&#45;&gt;Node18 -->
<g id="edge20" class="edge">
<title>Node13&#45;&gt;Node18</title>
<path fill="none" stroke="midnightblue" d="M958.14,-556.18C966.5,-553.25 974.35,-548.78 980,-542 1036.95,-473.57 959.31,-211.65 1016,-143 1017.48,-141.21 1019.12,-139.58 1020.88,-138.1"/>
<polygon fill="midnightblue" stroke="midnightblue" points="1022.91,-140.95 1029.31,-132.51 1019.04,-135.12 1022.91,-140.95"/>
</g>
<!-- Node19 -->
<g id="node19" class="node">
<title>Node19</title>
<g id="a_node19"><a xlink:href="classDashBoard.html#afa98f53f1555f3bff79f49a6e12b5d9e" target="_top" xlink:title=" ">
<polygon fill="white" stroke="black" points="1022.5,-76.5 1022.5,-95.5 1143.5,-95.5 1143.5,-76.5 1022.5,-76.5"/>
<text text-anchor="middle" x="1083" y="-83.5" font-family="Helvetica,sans-Serif" font-size="10.00">DashBoard::setEngLoad</text>
</a>
</g>
</g>
<!-- Node13&#45;&gt;Node19 -->
<g id="edge21" class="edge">
<title>Node13&#45;&gt;Node19</title>
<path fill="none" stroke="midnightblue" d="M958.18,-556.21C966.54,-553.29 974.38,-548.81 980,-542 1042.04,-466.87 954.25,-180.38 1016,-105 1016.99,-103.79 1018.06,-102.65 1019.18,-101.59"/>
<polygon fill="midnightblue" stroke="midnightblue" points="1021.44,-104.27 1027.4,-95.51 1017.28,-98.64 1021.44,-104.27"/>
</g>
<!-- Node20 -->
<g id="node20" class="node">
<title>Node20</title>
<g id="a_node20"><a xlink:href="classDashBoard.html#aebb7249e22bce5067a7d473e6ae0085c" target="_top" xlink:title=" ">
<polygon fill="white" stroke="black" points="1029.5,-38.5 1029.5,-57.5 1136.5,-57.5 1136.5,-38.5 1029.5,-38.5"/>
<text text-anchor="middle" x="1083" y="-45.5" font-family="Helvetica,sans-Serif" font-size="10.00">DashBoard::setFuelc</text>
</a>
</g>
</g>
<!-- Node13&#45;&gt;Node20 -->
<g id="edge22" class="edge">
<title>Node13&#45;&gt;Node20</title>
<path fill="none" stroke="midnightblue" d="M958.21,-556.24C966.58,-553.31 974.4,-548.82 980,-542 1047.14,-460.15 949.18,-149.11 1016,-67 1017.47,-65.2 1019.09,-63.56 1020.85,-62.07"/>
<polygon fill="midnightblue" stroke="midnightblue" points="1022.88,-64.92 1029.25,-56.45 1018.99,-59.1 1022.88,-64.92"/>
</g>
<!-- Node21 -->
<g id="node21" class="node">
<title>Node21</title>
<g id="a_node21"><a xlink:href="classDashBoard.html#ad7fb1721d5cd8770078da5e7d5d6b655" target="_top" xlink:title=" ">
<polygon fill="white" stroke="black" points="1021.5,-0.5 1021.5,-19.5 1144.5,-19.5 1144.5,-0.5 1021.5,-0.5"/>
<text text-anchor="middle" x="1083" y="-7.5" font-family="Helvetica,sans-Serif" font-size="10.00">DashBoard::setFueltemp</text>
</a>
</g>
</g>
<!-- Node13&#45;&gt;Node21 -->
<g id="edge23" class="edge">
<title>Node13&#45;&gt;Node21</title>
<path fill="none" stroke="midnightblue" d="M958.24,-556.26C966.6,-553.33 974.42,-548.84 980,-542 1052.23,-453.44 944.12,-117.84 1016,-29 1016.86,-27.93 1017.79,-26.92 1018.76,-25.96"/>
<polygon fill="midnightblue" stroke="midnightblue" points="1021.21,-28.5 1027.04,-19.65 1016.97,-22.93 1021.21,-28.5"/>
</g>
<!-- Node22 -->
<g id="node22" class="node">
<title>Node22</title>
<g id="a_node22"><a xlink:href="classDashBoard.html#ad46278eecba8d5643f84cea9eafa1bce" target="_top" xlink:title=" ">
<polygon fill="white" stroke="black" points="1035,-798.5 1035,-817.5 1131,-817.5 1131,-798.5 1035,-798.5"/>
<text text-anchor="middle" x="1083" y="-805.5" font-family="Helvetica,sans-Serif" font-size="10.00">DashBoard::setIgn</text>
</a>
</g>
</g>
<!-- Node13&#45;&gt;Node22 -->
<g id="edge24" class="edge">
<title>Node13&#45;&gt;Node22</title>
<path fill="none" stroke="midnightblue" d="M913.53,-570.97C919.49,-606.39 944.5,-727.35 1016,-789 1018.88,-791.48 1022.06,-793.64 1025.43,-795.52"/>
<polygon fill="midnightblue" stroke="midnightblue" points="1024.16,-798.79 1034.71,-799.86 1027.13,-792.45 1024.16,-798.79"/>
</g>
<!-- Node23 -->
<g id="node23" class="node">
<title>Node23</title>
<g id="a_node23"><a xlink:href="classDashBoard.html#a6f4952eb15d3b4c0c2eaacf37fb2c96b" target="_top" xlink:title=" ">
<polygon fill="white" stroke="black" points="1030,-760.5 1030,-779.5 1136,-779.5 1136,-760.5 1030,-760.5"/>
<text text-anchor="middle" x="1083" y="-767.5" font-family="Helvetica,sans-Serif" font-size="10.00">DashBoard::setinjms</text>
</a>
</g>
</g>
<!-- Node13&#45;&gt;Node23 -->
<g id="edge25" class="edge">
<title>Node13&#45;&gt;Node23</title>
<path fill="none" stroke="midnightblue" d="M914.41,-570.6C922.71,-601.73 953.18,-700.7 1016,-751 1018.27,-752.82 1020.7,-754.46 1023.25,-755.95"/>
<polygon fill="midnightblue" stroke="midnightblue" points="1021.77,-759.12 1032.28,-760.42 1024.87,-752.84 1021.77,-759.12"/>
</g>
<!-- Node24 -->
<g id="node24" class="node">
<title>Node24</title>
<g id="a_node24"><a xlink:href="classDashBoard.html#a31caf833ec71b5a8135fd39859f4c2f5" target="_top" xlink:title=" ">
<polygon fill="white" stroke="black" points="1016,-722.5 1016,-741.5 1150,-741.5 1150,-722.5 1016,-722.5"/>
<text text-anchor="middle" x="1083" y="-729.5" font-family="Helvetica,sans-Serif" font-size="10.00">DashBoard::setIntakepress</text>
</a>
</g>
</g>
<!-- Node13&#45;&gt;Node24 -->
<g id="edge26" class="edge">
<title>Node13&#45;&gt;Node24</title>
<path fill="none" stroke="midnightblue" d="M915.75,-570.53C926.79,-597.32 961.83,-673.87 1016,-713 1018.71,-714.95 1021.61,-716.71 1024.64,-718.28"/>
<polygon fill="midnightblue" stroke="midnightblue" points="1023.45,-721.59 1034,-722.49 1026.31,-715.2 1023.45,-721.59"/>
</g>
<!-- Node25 -->
<g id="node25" class="node">
<title>Node25</title>
<g id="a_node25"><a xlink:href="classDashBoard.html#ae4d194cbb50c7c36bd2d0b2be6b21e6d" target="_top" xlink:title=" ">
<polygon fill="white" stroke="black" points="1017.5,-874.5 1017.5,-893.5 1148.5,-893.5 1148.5,-874.5 1017.5,-874.5"/>
<text text-anchor="middle" x="1083" y="-881.5" font-family="Helvetica,sans-Serif" font-size="10.00">DashBoard::setIntaketemp</text>
</a>
</g>
</g>
<!-- Node13&#45;&gt;Node25 -->
<g id="edge27" class="edge">
<title>Node13&#45;&gt;Node25</title>
<path fill="none" stroke="midnightblue" d="M912.25,-570.58C913.86,-612.21 925.9,-779.24 1016,-865 1017.65,-866.57 1019.42,-868.01 1021.28,-869.33"/>
<polygon fill="midnightblue" stroke="midnightblue" points="1019.57,-872.39 1029.97,-874.41 1023.11,-866.34 1019.57,-872.39"/>
</g>
<!-- Node26 -->
<g id="node26" class="node">
<title>Node26</title>
<g id="a_node26"><a xlink:href="classDashBoard.html#add4eafa05b50837f81332bd06b76f36d" target="_top" xlink:title=" ">
<polygon fill="white" stroke="black" points="1023.5,-684.5 1023.5,-703.5 1142.5,-703.5 1142.5,-684.5 1023.5,-684.5"/>
<text text-anchor="middle" x="1083" y="-691.5" font-family="Helvetica,sans-Serif" font-size="10.00">DashBoard::setIscvduty</text>
</a>
</g>
</g>
<!-- Node13&#45;&gt;Node26 -->
<g id="edge28" class="edge">
<title>Node13&#45;&gt;Node26</title>
<path fill="none" stroke="midnightblue" d="M918,-570.59C932.23,-592.51 970.26,-646.59 1016,-675 1019.38,-677.1 1023,-678.97 1026.74,-680.65"/>
<polygon fill="midnightblue" stroke="midnightblue" points="1025.63,-683.97 1036.21,-684.4 1028.21,-677.46 1025.63,-683.97"/>
</g>
<!-- Node27 -->
<g id="node27" class="node">
<title>Node27</title>
<g id="a_node27"><a xlink:href="classDashBoard.html#acf7ff86dcbb34ee7661c1904191cf7a9" target="_top" xlink:title=" ">
<polygon fill="white" stroke="black" points="1028,-836.5 1028,-855.5 1138,-855.5 1138,-836.5 1028,-836.5"/>
<text text-anchor="middle" x="1083" y="-843.5" font-family="Helvetica,sans-Serif" font-size="10.00">DashBoard::setKnock</text>
</a>
</g>
</g>
<!-- Node13&#45;&gt;Node27 -->
<g id="edge29" class="edge">
<title>Node13&#45;&gt;Node27</title>
<path fill="none" stroke="midnightblue" d="M912.78,-570.68C916.43,-609.23 935.2,-753.34 1016,-827 1017.72,-828.57 1019.56,-830 1021.49,-831.32"/>
<polygon fill="midnightblue" stroke="midnightblue" points="1020.04,-834.52 1030.47,-836.39 1023.48,-828.43 1020.04,-834.52"/>
</g>
<!-- Node28 -->
<g id="node28" class="node">
<title>Node28</title>
<g id="a_node28"><a xlink:href="classDashBoard.html#a4e90fc531b31a84fa122ade9bdc2ecf1" target="_top" xlink:title=" ">
<polygon fill="white" stroke="black" points="1018,-950.5 1018,-969.5 1148,-969.5 1148,-950.5 1018,-950.5"/>
<text text-anchor="middle" x="1083" y="-957.5" font-family="Helvetica,sans-Serif" font-size="10.00">DashBoard::setLeadingign</text>
</a>
</g>
</g>
<!-- Node13&#45;&gt;Node28 -->
<g id="edge30" class="edge">
<title>Node13&#45;&gt;Node28</title>
<path fill="none" stroke="midnightblue" d="M914.48,-570.58C929.62,-628.91 1009.05,-933.96 1016,-941 1017.41,-942.43 1018.93,-943.76 1020.52,-944.99"/>
<polygon fill="midnightblue" stroke="midnightblue" points="1018.75,-948 1029.08,-950.34 1022.46,-942.07 1018.75,-948"/>
</g>
<!-- Node29 -->
<g id="node29" class="node">
<title>Node29</title>
<g id="a_node29"><a xlink:href="classDashBoard.html#a19ed911149392a939ade24ef44180dec" target="_top" xlink:title=" ">
<polygon fill="white" stroke="black" points="1025,-646.5 1025,-665.5 1141,-665.5 1141,-646.5 1025,-646.5"/>
<text text-anchor="middle" x="1083" y="-653.5" font-family="Helvetica,sans-Serif" font-size="10.00">DashBoard::setMAF1V</text>
</a>
</g>
</g>
<!-- Node13&#45;&gt;Node29 -->
<g id="edge31" class="edge">
<title>Node13&#45;&gt;Node29</title>
<path fill="none" stroke="midnightblue" d="M922.41,-570.58C940.26,-586.53 978.45,-618.6 1016,-637 1020.63,-639.27 1025.58,-641.32 1030.62,-643.15"/>
<polygon fill="midnightblue" stroke="midnightblue" points="1029.73,-646.54 1040.32,-646.41 1031.96,-639.91 1029.73,-646.54"/>
</g>
<!-- Node30 -->
<g id="node30" class="node">
<title>Node30</title>
<g id="a_node30"><a xlink:href="classDashBoard.html#a584d76fb3dc3faa498611cdc0a7d572a" target="_top" xlink:title=" ">
<polygon fill="white" stroke="black" points="1025,-608.5 1025,-627.5 1141,-627.5 1141,-608.5 1025,-608.5"/>
<text text-anchor="middle" x="1083" y="-615.5" font-family="Helvetica,sans-Serif" font-size="10.00">DashBoard::setMAF2V</text>
</a>
</g>
</g>
<!-- Node13&#45;&gt;Node30 -->
<g id="edge32" class="edge">
<title>Node13&#45;&gt;Node30</title>
<path fill="none" stroke="midnightblue" d="M936.63,-570.55C957.59,-578.55 988.59,-590.06 1016,-599 1022.94,-601.26 1030.33,-603.53 1037.56,-605.67"/>
<polygon fill="midnightblue" stroke="midnightblue" points="1036.69,-609.06 1047.26,-608.49 1038.64,-602.34 1036.69,-609.06"/>
</g>
<!-- Node31 -->
<g id="node31" class="node">
<title>Node31</title>
<g id="a_node31"><a xlink:href="classDashBoard.html#a0cf0a1970e9c2c02886e8587966f6abc" target="_top" xlink:title=" ">
<polygon fill="white" stroke="black" points="1016,-570.5 1016,-589.5 1150,-589.5 1150,-570.5 1016,-570.5"/>
<text text-anchor="middle" x="1083" y="-577.5" font-family="Helvetica,sans-Serif" font-size="10.00">DashBoard::setMAFactivity</text>
</a>
</g>
</g>
<!-- Node13&#45;&gt;Node31 -->
<g id="edge33" class="edge">
<title>Node13&#45;&gt;Node31</title>
<path fill="none" stroke="midnightblue" d="M958,-566.14C972.74,-567.79 989.48,-569.66 1005.78,-571.48"/>
<polygon fill="midnightblue" stroke="midnightblue" points="1005.53,-574.97 1015.85,-572.61 1006.3,-568.02 1005.53,-574.97"/>
</g>
<!-- Node32 -->
<g id="node32" class="node">
<title>Node32</title>
<g id="a_node32"><a xlink:href="classDashBoard.html#a5480aa312813d238574e103a52bef81f" target="_top" xlink:title=" ">
<polygon fill="white" stroke="black" points="1030,-532.5 1030,-551.5 1136,-551.5 1136,-532.5 1030,-532.5"/>
<text text-anchor="middle" x="1083" y="-539.5" font-family="Helvetica,sans-Serif" font-size="10.00">DashBoard::setMoilp</text>
</a>
</g>
</g>
<!-- Node13&#45;&gt;Node32 -->
<g id="edge34" class="edge">
<title>Node13&#45;&gt;Node32</title>
<path fill="none" stroke="midnightblue" d="M958,-555.86C977.02,-553.73 999.35,-551.24 1019.79,-548.95"/>
<polygon fill="midnightblue" stroke="midnightblue" points="1020.41,-552.41 1029.96,-547.82 1019.63,-545.45 1020.41,-552.41"/>
</g>
<!-- Node33 -->
<g id="node33" class="node">
<title>Node33</title>
<g id="a_node33"><a xlink:href="classDashBoard.html#a4ddbc9f8b9001cf29ead004af11e972d" target="_top" xlink:title=" ">
<polygon fill="white" stroke="black" points="1034,-494.5 1034,-513.5 1132,-513.5 1132,-494.5 1034,-494.5"/>
<text text-anchor="middle" x="1083" y="-501.5" font-family="Helvetica,sans-Serif" font-size="10.00">DashBoard::setna1</text>
</a>
</g>
</g>
<!-- Node13&#45;&gt;Node33 -->
<g id="edge35" class="edge">
<title>Node13&#45;&gt;Node33</title>
<path fill="none" stroke="midnightblue" d="M951.67,-551.45C961.08,-548.76 971,-545.58 980,-542 996.81,-535.31 999.22,-529.76 1016,-523 1021.81,-520.66 1028.01,-518.48 1034.2,-516.5"/>
<polygon fill="midnightblue" stroke="midnightblue" points="1035.32,-519.81 1043.85,-513.54 1033.27,-513.12 1035.32,-519.81"/>
</g>
<!-- Node34 -->
<g id="node34" class="node">
<title>Node34</title>
<g id="a_node34"><a xlink:href="classDashBoard.html#a3992060dbefe28848e9e2a0163a7df21" target="_top" xlink:title=" ">
<polygon fill="white" stroke="black" points="1034,-456.5 1034,-475.5 1132,-475.5 1132,-456.5 1034,-456.5"/>
<text text-anchor="middle" x="1083" y="-463.5" font-family="Helvetica,sans-Serif" font-size="10.00">DashBoard::setna2</text>
</a>
</g>
</g>
<!-- Node13&#45;&gt;Node34 -->
<g id="edge36" class="edge">
<title>Node13&#45;&gt;Node34</title>
<path fill="none" stroke="midnightblue" d="M958.05,-553.12C965.85,-550.43 973.51,-546.83 980,-542 1004.03,-524.11 992.04,-502.99 1016,-485 1018.67,-483 1021.55,-481.2 1024.55,-479.6"/>
<polygon fill="midnightblue" stroke="midnightblue" points="1026.24,-482.68 1033.87,-475.33 1023.32,-476.31 1026.24,-482.68"/>
</g>
<!-- Node35 -->
<g id="node35" class="node">
<title>Node35</title>
<g id="a_node35"><a xlink:href="classDashBoard.html#a36e46c92b433846ab5932b5622e69905" target="_top" xlink:title=" ">
<polygon fill="white" stroke="black" points="1027.5,-418.5 1027.5,-437.5 1138.5,-437.5 1138.5,-418.5 1027.5,-418.5"/>
<text text-anchor="middle" x="1083" y="-425.5" font-family="Helvetica,sans-Serif" font-size="10.00">DashBoard::setO2volt</text>
</a>
</g>
</g>
<!-- Node13&#45;&gt;Node35 -->
<g id="edge37" class="edge">
<title>Node13&#45;&gt;Node35</title>
<path fill="none" stroke="midnightblue" d="M958.2,-554.41C966.17,-551.6 973.85,-547.62 980,-542 1013.33,-511.54 982.79,-477.59 1016,-447 1017.71,-445.42 1019.54,-443.98 1021.47,-442.65"/>
<polygon fill="midnightblue" stroke="midnightblue" points="1023.46,-445.55 1030.43,-437.57 1020,-439.46 1023.46,-445.55"/>
</g>
<!-- Node36 -->
<g id="node36" class="node">
<title>Node36</title>
<g id="a_node36"><a xlink:href="classDashBoard.html#a1ff480e57034d577177325f86cba2108" target="_top" xlink:title=" ">
<polygon fill="white" stroke="black" points="1022,-380.5 1022,-399.5 1144,-399.5 1144,-380.5 1022,-380.5"/>
<text text-anchor="middle" x="1083" y="-387.5" font-family="Helvetica,sans-Serif" font-size="10.00">DashBoard::setO2volt_2</text>
</a>
</g>
</g>
<!-- Node13&#45;&gt;Node36 -->
<g id="edge38" class="edge">
<title>Node13&#45;&gt;Node36</title>
<path fill="none" stroke="midnightblue" d="M958.31,-555.01C966.36,-552.15 974.04,-548 980,-542 1023.13,-498.52 973.04,-452.65 1016,-409 1017.41,-407.57 1018.92,-406.24 1020.52,-405.01"/>
<polygon fill="midnightblue" stroke="midnightblue" points="1022.45,-407.93 1029.07,-399.65 1018.74,-401.99 1022.45,-407.93"/>
</g>
<!-- Node37 -->
<g id="node37" class="node">
<title>Node37</title>
<g id="a_node37"><a xlink:href="classDashBoard.html#ab617d388ec0714d60bf68f19b189d86b" target="_top" xlink:title=" ">
<polygon fill="white" stroke="black" points="1034,-342.5 1034,-361.5 1132,-361.5 1132,-342.5 1034,-342.5"/>
<text text-anchor="middle" x="1083" y="-349.5" font-family="Helvetica,sans-Serif" font-size="10.00">DashBoard::setpim</text>
</a>
</g>
</g>
<!-- Node13&#45;&gt;Node37 -->
<g id="edge39" class="edge">
<title>Node13&#45;&gt;Node37</title>
<path fill="none" stroke="midnightblue" d="M958.24,-555.4C966.39,-552.52 974.13,-548.26 980,-542 1033.11,-485.33 963.12,-427.88 1016,-371 1018.59,-368.22 1021.55,-365.83 1024.77,-363.79"/>
<polygon fill="midnightblue" stroke="midnightblue" points="1026.47,-366.85 1033.74,-359.14 1023.25,-360.63 1026.47,-366.85"/>
</g>
<!-- Node38 -->
<g id="node38" class="node">
<title>Node38</title>
<g id="a_node38"><a xlink:href="classDashBoard.html#a8b4be03b152c61f0c3086b92b2ad47d9" target="_top" xlink:title=" ">
<polygon fill="white" stroke="black" points="1019,-304.5 1019,-323.5 1147,-323.5 1147,-304.5 1019,-304.5"/>
<text text-anchor="middle" x="1083" y="-311.5" font-family="Helvetica,sans-Serif" font-size="10.00">DashBoard::setPressureV</text>
</a>
</g>
</g>
<!-- Node13&#45;&gt;Node38 -->
<g id="edge40" class="edge">
<title>Node13&#45;&gt;Node38</title>
<path fill="none" stroke="midnightblue" d="M958.07,-555.69C966.34,-552.8 974.17,-548.46 980,-542 1043.17,-472.04 953.11,-403.2 1016,-333 1017.18,-331.69 1018.44,-330.46 1019.77,-329.32"/>
<polygon fill="midnightblue" stroke="midnightblue" points="1021.79,-332.18 1028.07,-323.64 1017.84,-326.4 1021.79,-332.18"/>
</g>
<!-- Node39 -->
<g id="node39" class="node">
<title>Node39</title>
<g id="a_node39"><a xlink:href="classDashBoard.html#ae10ebf05ada076cdf9034a470dc0138e" target="_top" xlink:title=" ">
<polygon fill="white" stroke="black" points="1019,-266.5 1019,-285.5 1147,-285.5 1147,-266.5 1019,-266.5"/>
<text text-anchor="middle" x="1083" y="-273.5" font-family="Helvetica,sans-Serif" font-size="10.00">DashBoard::setPrimaryinp</text>
</a>
</g>
</g>
<!-- Node13&#45;&gt;Node39 -->
<g id="edge41" class="edge">
<title>Node13&#45;&gt;Node39</title>
<path fill="none" stroke="midnightblue" d="M958.2,-555.81C966.46,-552.91 974.25,-548.53 980,-542 1053.28,-458.71 943.05,-378.58 1016,-295 1017.16,-293.67 1018.4,-292.43 1019.72,-291.28"/>
<polygon fill="midnightblue" stroke="midnightblue" points="1021.75,-294.13 1027.96,-285.55 1017.75,-288.39 1021.75,-294.13"/>
</g>
<!-- Node52&#45;&gt;Node14 -->
<g id="edge44" class="edge">
<title>Node52&#45;&gt;Node14</title>
<path fill="none" stroke="midnightblue" d="M959.11,-855.56C966.38,-858.04 973.6,-861.14 980,-865 999.92,-877.01 996.12,-890.91 1016,-903 1019.55,-905.16 1023.36,-907.09 1027.29,-908.8"/>
<polygon fill="midnightblue" stroke="midnightblue" points="1026.03,-912.06 1036.62,-912.42 1028.57,-905.54 1026.03,-912.06"/>
</g>
<!-- Node52&#45;&gt;Node25 -->
<g id="edge45" class="edge">
<title>Node52&#45;&gt;Node25</title>
<path fill="none" stroke="midnightblue" d="M954.9,-855.59C977.53,-860.65 1005.5,-866.9 1029.43,-872.25"/>
<polygon fill="midnightblue" stroke="midnightblue" points="1028.89,-875.71 1039.41,-874.48 1030.41,-868.88 1028.89,-875.71"/>
</g>
<!-- Node52&#45;&gt;Node27 -->
<g id="edge46" class="edge">
<title>Node52&#45;&gt;Node27</title>
<path fill="none" stroke="midnightblue" d="M961.63,-846C979.16,-846 999.13,-846 1017.7,-846"/>
<polygon fill="midnightblue" stroke="midnightblue" points="1017.85,-849.5 1027.85,-846 1017.85,-842.5 1017.85,-849.5"/>
</g>
<!-- Node52&#45;&gt;Node28 -->
<g id="edge47" class="edge">
<title>Node52&#45;&gt;Node28</title>
<path fill="none" stroke="midnightblue" d="M961.7,-854.43C968.32,-857.06 974.66,-860.5 980,-865 1008.58,-889.09 987.52,-916.8 1016,-941 1017.99,-942.69 1020.12,-944.23 1022.35,-945.63"/>
<polygon fill="midnightblue" stroke="midnightblue" points="1020.92,-948.83 1031.39,-950.39 1024.18,-942.64 1020.92,-948.83"/>
</g>
</g>
</svg>
