<?xml version="1.0" encoding="UTF-8" standalone="no"?>
<!DOCTYPE svg PUBLIC "-//W3C//DTD SVG 1.1//EN"
 "http://www.w3.org/Graphics/SVG/1.1/DTD/svg11.dtd">
<!-- Generated by graphviz version 2.49.3 (20211027.1534)
 -->
<!-- Title: DownloadManager::downloadFinished Pages: 1 -->
<!--zoomable 337 -->
<svg id="main" version="1.1" xmlns="http://www.w3.org/2000/svg" xmlns:xlink="http://www.w3.org/1999/xlink" xml:space="preserve" onload="init(evt)">
<style type="text/css"><![CDATA[
.edge:hover path { stroke: red; }
.edge:hover polygon { stroke: red; fill: red; }
]]></style>
<script type="text/javascript"><![CDATA[
var edges = document.getElementsByTagName('g');
if (edges && edges.length) {
  for (var i=0;i<edges.length;i++) {
    if (edges[i].id.substr(0,4)=='edge') {
      edges[i].setAttribute('class','edge');
    }
  }
}
]]></script>
        <defs>
                <circle id="rim" cx="0" cy="0" r="7"/>
                <circle id="rim2" cx="0" cy="0" r="3.5"/>
                <g id="zoomPlus">
                        <use xlink:href="#rim" fill="#404040">
                                <set attributeName="fill" to="#808080" begin="zoomplus.mouseover" end="zoomplus.mouseout"/>
                        </use>
                        <path d="M-4,0h8M0,-4v8" fill="none" stroke="white" stroke-width="1.5" pointer-events="none"/>
                </g>
                <g id="zoomMin">
                        <use xlink:href="#rim" fill="#404040">
                                <set attributeName="fill" to="#808080" begin="zoomminus.mouseover" end="zoomminus.mouseout"/>
                        </use>
                        <path d="M-4,0h8" fill="none" stroke="white" stroke-width="1.5" pointer-events="none"/>
                </g>
                <g id="dirArrow">
                        <path fill="none" stroke="white" stroke-width="1.5" d="M0,-3.0v7 M-2.5,-0.5L0,-3.0L2.5,-0.5"/>
                </g>
               <g id="resetDef">
                       <use xlink:href="#rim2" fill="#404040">
                               <set attributeName="fill" to="#808080" begin="reset.mouseover" end="reset.mouseout"/>
                       </use>
               </g>
        </defs>

<script type="text/javascript">
var viewWidth = 922;
var viewHeight = 337;
var sectionId = 'dynsection-6';
</script>
<script xlink:href="svgpan.js"/>
<svg id="graph" class="graph">
<g id="viewport">
<title>DownloadManager::downloadFinished</title>
<polygon fill="white" stroke="transparent" points="-4,4 -4,-333 918,-333 918,4 -4,4"/>
<!-- Node1 -->
<g id="node1" class="node">
<title>Node1</title>
<g id="a_node1"><a xlink:title=" ">
<polygon fill="#bfbfbf" stroke="black" points="0,-139.5 0,-169.5 143,-169.5 143,-139.5 0,-139.5"/>
<text text-anchor="start" x="8" y="-157.5" font-family="Helvetica,sans-Serif" font-size="10.00">DownloadManager::download</text>
<text text-anchor="middle" x="71.5" y="-146.5" font-family="Helvetica,sans-Serif" font-size="10.00">Finished</text>
</a>
</g>
</g>
<!-- Node2 -->
<g id="node2" class="node">
<title>Node2</title>
<g id="a_node2"><a xlink:href="classDownloadManager.html#afa2ecdfa2483d265db87682234f817e5" target="_top" xlink:title=" ">
<polygon fill="white" stroke="black" points="194.5,-258 194.5,-277 327.5,-277 327.5,-258 194.5,-258"/>
<text text-anchor="middle" x="261" y="-265" font-family="Helvetica,sans-Serif" font-size="10.00">DownloadManager::append</text>
</a>
</g>
</g>
<!-- Node1&#45;&gt;Node2 -->
<g id="edge1" class="edge">
<title>Node1&#45;&gt;Node2</title>
<path fill="none" stroke="midnightblue" d="M86.58,-169.61C105.71,-189.3 141.84,-223.58 179,-243.5 187.44,-248.03 196.85,-251.8 206.18,-254.92"/>
<polygon fill="midnightblue" stroke="midnightblue" points="205.24,-258.3 215.83,-257.94 207.33,-251.61 205.24,-258.3"/>
</g>
<!-- Node3 -->
<g id="node3" class="node">
<title>Node3</title>
<g id="a_node3"><a xlink:href="classDownloadManager.html#a5b2dc25fef54a4e61b48aa2c64854450" target="_top" xlink:title=" ">
<polygon fill="white" stroke="black" points="379,-205.5 379,-235.5 520,-235.5 520,-205.5 379,-205.5"/>
<text text-anchor="start" x="387" y="-223.5" font-family="Helvetica,sans-Serif" font-size="10.00">DownloadManager::startNext</text>
<text text-anchor="middle" x="449.5" y="-212.5" font-family="Helvetica,sans-Serif" font-size="10.00">Download</text>
</a>
</g>
</g>
<!-- Node1&#45;&gt;Node3 -->
<g id="edge19" class="edge">
<title>Node1&#45;&gt;Node3</title>
<path fill="none" stroke="midnightblue" d="M131.18,-169.57C146.53,-174.7 163.21,-179.92 179,-183.5 241.81,-197.75 314.53,-204.77 368.59,-209.59"/>
<polygon fill="midnightblue" stroke="midnightblue" points="368.53,-213.1 378.8,-210.5 369.15,-206.13 368.53,-213.1"/>
</g>
<!-- Node12 -->
<g id="node12" class="node">
<title>Node12</title>
<g id="a_node12"><a xlink:href="classTextProgressBar.html#a43a19ca874afe1bca5dbe7c533bd839a" target="_top" xlink:title=" ">
<polygon fill="white" stroke="black" points="203.5,-164 203.5,-183 318.5,-183 318.5,-164 203.5,-164"/>
<text text-anchor="middle" x="261" y="-171" font-family="Helvetica,sans-Serif" font-size="10.00">TextProgressBar::clear</text>
</a>
</g>
</g>
<!-- Node1&#45;&gt;Node12 -->
<g id="edge14" class="edge">
<title>Node1&#45;&gt;Node12</title>
<path fill="none" stroke="midnightblue" d="M143.12,-161.66C159.62,-163.33 177.15,-165.1 193.47,-166.76"/>
<polygon fill="midnightblue" stroke="midnightblue" points="193.16,-170.24 203.46,-167.77 193.86,-163.28 193.16,-170.24"/>
</g>
<!-- Node13 -->
<g id="node13" class="node">
<title>Node13</title>
<g id="a_node13"><a xlink:href="classDownloadManager.html#a9f39dbbaf6b7fe76261158273a4220ff" target="_top" xlink:title=" ">
<polygon fill="white" stroke="black" points="179,-126 179,-145 343,-145 343,-126 179,-126"/>
<text text-anchor="middle" x="261" y="-133" font-family="Helvetica,sans-Serif" font-size="10.00">DownloadManager::isHttpRedirect</text>
</a>
</g>
</g>
<!-- Node1&#45;&gt;Node13 -->
<g id="edge15" class="edge">
<title>Node1&#45;&gt;Node13</title>
<path fill="none" stroke="midnightblue" d="M143.12,-147.34C151.48,-146.5 160.09,-145.62 168.68,-144.75"/>
<polygon fill="midnightblue" stroke="midnightblue" points="169.14,-148.22 178.74,-143.73 168.44,-141.26 169.14,-148.22"/>
</g>
<!-- Node14 -->
<g id="node14" class="node">
<title>Node14</title>
<g id="a_node14"><a xlink:href="classparsegithubData.html#ac9ecdd057c8725240858481bde768f16" target="_top" xlink:title=" ">
<polygon fill="white" stroke="black" points="183.5,-88 183.5,-107 338.5,-107 338.5,-88 183.5,-88"/>
<text text-anchor="middle" x="261" y="-95" font-family="Helvetica,sans-Serif" font-size="10.00">parsegithubData::readTrackData</text>
</a>
</g>
</g>
<!-- Node1&#45;&gt;Node14 -->
<g id="edge16" class="edge">
<title>Node1&#45;&gt;Node14</title>
<path fill="none" stroke="midnightblue" d="M111.6,-139.36C131.59,-131.92 156.4,-123.16 179,-116.5 187.46,-114.01 196.48,-111.62 205.33,-109.44"/>
<polygon fill="midnightblue" stroke="midnightblue" points="206.3,-112.81 215.2,-107.06 204.66,-106 206.3,-112.81"/>
</g>
<!-- Node15 -->
<g id="node15" class="node">
<title>Node15</title>
<g id="a_node15"><a xlink:href="classDownloadManager.html#ad61fdaf56f156496613a587a873e06ff" target="_top" xlink:title=" ">
<polygon fill="white" stroke="black" points="180,-50 180,-69 342,-69 342,-50 180,-50"/>
<text text-anchor="middle" x="261" y="-57" font-family="Helvetica,sans-Serif" font-size="10.00">DownloadManager::reportRedirect</text>
</a>
</g>
</g>
<!-- Node1&#45;&gt;Node15 -->
<g id="edge17" class="edge">
<title>Node1&#45;&gt;Node15</title>
<path fill="none" stroke="midnightblue" d="M89.28,-139.31C109.23,-122.05 144.24,-94.24 179,-78.5 184.4,-76.06 190.14,-73.91 195.98,-72.03"/>
<polygon fill="midnightblue" stroke="midnightblue" points="197.27,-75.29 205.87,-69.1 195.29,-68.58 197.27,-75.29"/>
</g>
<!-- Node16 -->
<g id="node16" class="node">
<title>Node16</title>
<g id="a_node16"><a xlink:href="classparsegithubData.html#aed9c8ad9cf0369639fc5d26577351f3e" target="_top" xlink:title=" ">
<polygon fill="white" stroke="black" points="180.5,-0.5 180.5,-30.5 341.5,-30.5 341.5,-0.5 180.5,-0.5"/>
<text text-anchor="start" x="188.5" y="-18.5" font-family="Helvetica,sans-Serif" font-size="10.00">parsegithubData::sortDownloaded</text>
<text text-anchor="middle" x="261" y="-7.5" font-family="Helvetica,sans-Serif" font-size="10.00">Files</text>
</a>
</g>
</g>
<!-- Node1&#45;&gt;Node16 -->
<g id="edge18" class="edge">
<title>Node1&#45;&gt;Node16</title>
<path fill="none" stroke="midnightblue" d="M82.73,-139.19C99.83,-114.78 136.53,-67.09 179,-40.5 182.34,-38.41 185.87,-36.48 189.52,-34.7"/>
<polygon fill="midnightblue" stroke="midnightblue" points="191.04,-37.86 198.76,-30.6 188.2,-31.46 191.04,-37.86"/>
</g>
<!-- Node2&#45;&gt;Node3 -->
<g id="edge2" class="edge">
<title>Node2&#45;&gt;Node3</title>
<path fill="none" stroke="midnightblue" d="M299.74,-257.99C322.49,-252.26 352.17,-244.78 379.03,-238.01"/>
<polygon fill="midnightblue" stroke="midnightblue" points="379.94,-241.39 388.78,-235.55 378.23,-234.6 379.94,-241.39"/>
</g>
<!-- Node3&#45;&gt;Node1 -->
<g id="edge3" class="edge">
<title>Node3&#45;&gt;Node1</title>
<path fill="none" stroke="midnightblue" d="M378.8,-225.17C323.95,-223.64 245.86,-216.67 179,-201.5 151.77,-195.32 121.93,-184.28 100.78,-174.14"/>
<polygon fill="midnightblue" stroke="midnightblue" points="102.22,-170.95 91.71,-169.57 99.06,-177.2 102.22,-170.95"/>
</g>
<!-- Node3&#45;&gt;Node3 -->
<g id="edge13" class="edge">
<title>Node3&#45;&gt;Node3</title>
<path fill="none" stroke="midnightblue" d="M416.74,-235.66C408.84,-245.06 419.76,-254 449.5,-254 467.62,-254 478.76,-250.68 482.91,-245.96"/>
<polygon fill="midnightblue" stroke="midnightblue" points="486.38,-245.42 482.26,-235.66 479.39,-245.86 486.38,-245.42"/>
</g>
<!-- Node4 -->
<g id="node4" class="node">
<title>Node4</title>
<g id="a_node4"><a xlink:href="classDownloadManager.html#ac8c0eab33303a6ce3dcfddf1795cee0c" target="_top" xlink:title=" ">
<polygon fill="white" stroke="black" points="566.5,-254.5 566.5,-284.5 709.5,-284.5 709.5,-254.5 566.5,-254.5"/>
<text text-anchor="start" x="574.5" y="-272.5" font-family="Helvetica,sans-Serif" font-size="10.00">DownloadManager::download</text>
<text text-anchor="middle" x="638" y="-261.5" font-family="Helvetica,sans-Serif" font-size="10.00">Progress</text>
</a>
</g>
</g>
<!-- Node3&#45;&gt;Node4 -->
<g id="edge4" class="edge">
<title>Node3&#45;&gt;Node4</title>
<path fill="none" stroke="midnightblue" d="M507.72,-235.53C527.42,-240.71 549.64,-246.55 570.04,-251.91"/>
<polygon fill="midnightblue" stroke="midnightblue" points="569.32,-255.34 579.88,-254.49 571.1,-248.57 569.32,-255.34"/>
</g>
<!-- Node5 -->
<g id="node5" class="node">
<title>Node5</title>
<g id="a_node5"><a xlink:href="classDownloadManager.html#afe821e6eac5970b806896d1eb5abea30" target="_top" xlink:title=" ">
<polygon fill="white" stroke="black" points="756,-298.5 756,-328.5 914,-328.5 914,-298.5 756,-298.5"/>
<text text-anchor="start" x="764" y="-316.5" font-family="Helvetica,sans-Serif" font-size="10.00">DownloadManager::setDownload</text>
<text text-anchor="middle" x="835" y="-305.5" font-family="Helvetica,sans-Serif" font-size="10.00">Status</text>
</a>
</g>
</g>
<!-- Node3&#45;&gt;Node5 -->
<g id="edge12" class="edge">
<title>Node3&#45;&gt;Node5</title>
<path fill="none" stroke="midnightblue" d="M466.47,-235.73C485.89,-253.19 520.5,-281 556,-293.5 616.91,-314.95 689.85,-319.47 745.74,-318.88"/>
<polygon fill="midnightblue" stroke="midnightblue" points="746.03,-322.38 755.97,-318.72 745.91,-315.38 746.03,-322.38"/>
</g>
<!-- Node9 -->
<g id="node9" class="node">
<title>Node9</title>
<g id="a_node9"><a xlink:href="classDownloadManager.html#a5658efb355cf64437bf0c206e6ee0c63" target="_top" xlink:title=" ">
<polygon fill="white" stroke="black" points="566.5,-205.5 566.5,-235.5 709.5,-235.5 709.5,-205.5 566.5,-205.5"/>
<text text-anchor="start" x="574.5" y="-223.5" font-family="Helvetica,sans-Serif" font-size="10.00">DownloadManager::download</text>
<text text-anchor="middle" x="638" y="-212.5" font-family="Helvetica,sans-Serif" font-size="10.00">ReadyRead</text>
</a>
</g>
</g>
<!-- Node3&#45;&gt;Node9 -->
<g id="edge9" class="edge">
<title>Node3&#45;&gt;Node9</title>
<path fill="none" stroke="midnightblue" d="M520.21,-220.5C532.01,-220.5 544.35,-220.5 556.4,-220.5"/>
<polygon fill="midnightblue" stroke="midnightblue" points="556.44,-224 566.44,-220.5 556.44,-217 556.44,-224"/>
</g>
<!-- Node10 -->
<g id="node10" class="node">
<title>Node10</title>
<g id="a_node10"><a xlink:href="classDownloadManager.html#a40a2bd7e138955b1accb75841c8dfd69" target="_top" xlink:title=" ">
<polygon fill="white" stroke="black" points="556,-167 556,-186 720,-186 720,-167 556,-167"/>
<text text-anchor="middle" x="638" y="-174" font-family="Helvetica,sans-Serif" font-size="10.00">DownloadManager::saveFileName</text>
</a>
</g>
</g>
<!-- Node3&#45;&gt;Node10 -->
<g id="edge10" class="edge">
<title>Node3&#45;&gt;Node10</title>
<path fill="none" stroke="midnightblue" d="M513.81,-205.47C527.71,-202.18 542.35,-198.72 556,-195.5 565.81,-193.19 576.28,-190.73 586.33,-188.37"/>
<polygon fill="midnightblue" stroke="midnightblue" points="587.27,-191.74 596.2,-186.05 585.67,-184.93 587.27,-191.74"/>
</g>
<!-- Node11 -->
<g id="node11" class="node">
<title>Node11</title>
<g id="a_node11"><a xlink:href="classDownloadManager.html#a3b2f0bf89f97c8c61836376328c0208d" target="_top" xlink:title=" ">
<polygon fill="white" stroke="black" points="559,-117.5 559,-147.5 717,-147.5 717,-117.5 559,-117.5"/>
<text text-anchor="start" x="567" y="-135.5" font-family="Helvetica,sans-Serif" font-size="10.00">DownloadManager::setDownload</text>
<text text-anchor="middle" x="638" y="-124.5" font-family="Helvetica,sans-Serif" font-size="10.00">Filename</text>
</a>
</g>
</g>
<!-- Node3&#45;&gt;Node11 -->
<g id="edge11" class="edge">
<title>Node3&#45;&gt;Node11</title>
<path fill="none" stroke="midnightblue" d="M472.3,-205.37C493.07,-191.47 525.6,-171.04 556,-157.5 561.25,-155.16 566.79,-152.95 572.4,-150.89"/>
<polygon fill="midnightblue" stroke="midnightblue" points="573.61,-154.18 581.88,-147.56 571.29,-147.57 573.61,-154.18"/>
</g>
<!-- Node4&#45;&gt;Node5 -->
<g id="edge5" class="edge">
<title>Node4&#45;&gt;Node5</title>
<path fill="none" stroke="midnightblue" d="M705.56,-284.52C722.26,-288.29 740.3,-292.36 757.44,-296.22"/>
<polygon fill="midnightblue" stroke="midnightblue" points="756.88,-299.69 767.41,-298.47 758.42,-292.86 756.88,-299.69"/>
</g>
<!-- Node6 -->
<g id="node6" class="node">
<title>Node6</title>
<g id="a_node6"><a xlink:href="classTextProgressBar.html#ae4980260298075636a679d8674aaecc8" target="_top" xlink:title=" ">
<polygon fill="white" stroke="black" points="761.5,-260 761.5,-279 908.5,-279 908.5,-260 761.5,-260"/>
<text text-anchor="middle" x="835" y="-267" font-family="Helvetica,sans-Serif" font-size="10.00">TextProgressBar::setMessage</text>
</a>
</g>
</g>
<!-- Node4&#45;&gt;Node6 -->
<g id="edge6" class="edge">
<title>Node4&#45;&gt;Node6</title>
<path fill="none" stroke="midnightblue" d="M709.68,-269.5C723.05,-269.5 737.16,-269.5 750.88,-269.5"/>
<polygon fill="midnightblue" stroke="midnightblue" points="751.27,-273 761.27,-269.5 751.27,-266 751.27,-273"/>
</g>
<!-- Node7 -->
<g id="node7" class="node">
<title>Node7</title>
<g id="a_node7"><a xlink:href="classTextProgressBar.html#a49dcb117820c89bc02b92b1386648bfb" target="_top" xlink:title=" ">
<polygon fill="white" stroke="black" points="767,-222 767,-241 903,-241 903,-222 767,-222"/>
<text text-anchor="middle" x="835" y="-229" font-family="Helvetica,sans-Serif" font-size="10.00">TextProgressBar::setStatus</text>
</a>
</g>
</g>
<!-- Node4&#45;&gt;Node7 -->
<g id="edge7" class="edge">
<title>Node4&#45;&gt;Node7</title>
<path fill="none" stroke="midnightblue" d="M709.68,-255.73C731.22,-251.53 754.66,-246.96 775.32,-242.94"/>
<polygon fill="midnightblue" stroke="midnightblue" points="776.07,-246.36 785.21,-241.01 774.73,-239.48 776.07,-246.36"/>
</g>
<!-- Node8 -->
<g id="node8" class="node">
<title>Node8</title>
<g id="a_node8"><a xlink:href="classTextProgressBar.html#a1484eaa6c18381dccc0470db1fb4263d" target="_top" xlink:title=" ">
<polygon fill="white" stroke="black" points="773.5,-184 773.5,-203 896.5,-203 896.5,-184 773.5,-184"/>
<text text-anchor="middle" x="835" y="-191" font-family="Helvetica,sans-Serif" font-size="10.00">TextProgressBar::update</text>
</a>
</g>
</g>
<!-- Node4&#45;&gt;Node8 -->
<g id="edge8" class="edge">
<title>Node4&#45;&gt;Node8</title>
<path fill="none" stroke="midnightblue" d="M698.2,-254.49C705.75,-251.64 713.2,-248.33 720,-244.5 738.65,-233.99 737.04,-222.44 756,-212.5 760.51,-210.13 765.33,-208.06 770.27,-206.23"/>
<polygon fill="midnightblue" stroke="midnightblue" points="771.49,-209.51 779.87,-203.03 769.28,-202.87 771.49,-209.51"/>
</g>
</g>
</svg>
        <g id="navigator" transform="translate(0 0)" fill="#404254">
                <rect fill="#f2f5e9" fill-opacity="0.5" stroke="#606060" stroke-width=".5" x="0" y="0" width="60" height="60"/>
                <use id="zoomplus" xlink:href="#zoomPlus" x="17" y="9" onmousedown="handleZoom(evt,'in')"/>
                <use id="zoomminus" xlink:href="#zoomMin" x="42" y="9" onmousedown="handleZoom(evt,'out')"/>
                <use id="reset" xlink:href="#resetDef" x="30" y="36" onmousedown="handleReset()"/>
                <g id="arrowUp" xlink:href="#dirArrow" transform="translate(30 24)" onmousedown="handlePan(0,-1)">
                  <use xlink:href="#rim" fill="#404040">
                        <set attributeName="fill" to="#808080" begin="arrowUp.mouseover" end="arrowUp.mouseout"/>
                  </use>
                  <path fill="none" stroke="white" stroke-width="1.5" d="M0,-3.0v7 M-2.5,-0.5L0,-3.0L2.5,-0.5"/>
                </g>
                <g id="arrowRight" xlink:href="#dirArrow" transform="rotate(90) translate(36 -43)" onmousedown="handlePan(1,0)">
                  <use xlink:href="#rim" fill="#404040">
                        <set attributeName="fill" to="#808080" begin="arrowRight.mouseover" end="arrowRight.mouseout"/>
                  </use>
                  <path fill="none" stroke="white" stroke-width="1.5" d="M0,-3.0v7 M-2.5,-0.5L0,-3.0L2.5,-0.5"/>
                </g>
                <g id="arrowDown" xlink:href="#dirArrow" transform="rotate(180) translate(-30 -48)" onmousedown="handlePan(0,1)">
                  <use xlink:href="#rim" fill="#404040">
                        <set attributeName="fill" to="#808080" begin="arrowDown.mouseover" end="arrowDown.mouseout"/>
                  </use>
                  <path fill="none" stroke="white" stroke-width="1.5" d="M0,-3.0v7 M-2.5,-0.5L0,-3.0L2.5,-0.5"/>
                </g>
                <g id="arrowLeft" xlink:href="#dirArrow" transform="rotate(270) translate(-36 17)" onmousedown="handlePan(-1,0)">
                  <use xlink:href="#rim" fill="#404040">
                        <set attributeName="fill" to="#808080" begin="arrowLeft.mouseover" end="arrowLeft.mouseout"/>
                  </use>
                  <path fill="none" stroke="white" stroke-width="1.5" d="M0,-3.0v7 M-2.5,-0.5L0,-3.0L2.5,-0.5"/>
                </g>
        </g>
        <svg viewBox="0 0 15 15" width="100%" height="30px" preserveAspectRatio="xMaxYMin meet">
         <g id="arrow_out" transform="scale(0.3 0.3)">
          <a xlink:href="classDownloadManager_a3db45b9d3b58f6e6cf7c75a263fb85ce_cgraph_org.svg" target="_base">
           <rect id="button" ry="5" rx="5" y="6" x="6" height="38" width="38"
                fill="#f2f5e9" fill-opacity="0.5" stroke="#606060" stroke-width="1.0"/>
           <path id="arrow"
             d="M 11.500037,31.436501 C 11.940474,20.09759 22.043105,11.32322 32.158766,21.979434 L 37.068811,17.246167 C 37.068811,17.246167 37.088388,32 37.088388,32 L 22.160133,31.978069 C 22.160133,31.978069 26.997745,27.140456 26.997745,27.140456 C 18.528582,18.264221 13.291696,25.230495 11.500037,31.436501 z"
             style="fill:#404040;"/>
          </a>
         </g>
        </svg>
</svg>
