<?xml version="1.0" encoding="UTF-8" standalone="no"?>
<!DOCTYPE svg PUBLIC "-//W3C//DTD SVG 1.1//EN"
 "http://www.w3.org/Graphics/SVG/1.1/DTD/svg11.dtd">
<!-- Generated by graphviz version 2.49.3 (20211027.1534)
 -->
<!-- Title: GPS::readyToRead Pages: 1 -->
<svg width="1192pt" height="236pt"
 viewBox="0.00 0.00 1192.00 236.00" xmlns="http://www.w3.org/2000/svg" xmlns:xlink="http://www.w3.org/1999/xlink">
<g id="graph0" class="graph" transform="scale(1 1) rotate(0) translate(4 232)">
<title>GPS::readyToRead</title>
<polygon fill="white" stroke="transparent" points="-4,4 -4,-232 1188,-232 1188,4 -4,4"/>
<!-- Node1 -->
<g id="node1" class="node">
<title>Node1</title>
<g id="a_node1"><a xlink:title=" ">
<polygon fill="#bfbfbf" stroke="black" points="1085,-85.5 1085,-104.5 1184,-104.5 1184,-85.5 1085,-85.5"/>
<text text-anchor="middle" x="1134.5" y="-92.5" font-family="Helvetica,sans-Serif" font-size="10.00">GPS::readyToRead</text>
</a>
</g>
</g>
<!-- Node2 -->
<g id="node2" class="node">
<title>Node2</title>
<g id="a_node2"><a xlink:href="classGPS.html#ae4568ef4d5107c96c1af68d1abd33559" target="_top" xlink:title=" ">
<polygon fill="white" stroke="black" points="935,-123.5 935,-142.5 1049,-142.5 1049,-123.5 935,-123.5"/>
<text text-anchor="middle" x="992" y="-130.5" font-family="Helvetica,sans-Serif" font-size="10.00">GPS::closeConnection</text>
</a>
</g>
</g>
<!-- Node1&#45;&gt;Node2 -->
<g id="edge1" class="edge">
<title>Node1&#45;&gt;Node2</title>
<path fill="none" stroke="midnightblue" d="M1088.22,-107.25C1068.86,-112.48 1046.58,-118.51 1028.44,-123.41"/>
<polygon fill="midnightblue" stroke="midnightblue" points="1089.31,-110.58 1098.05,-104.59 1087.48,-103.82 1089.31,-110.58"/>
</g>
<!-- Node4 -->
<g id="node4" class="node">
<title>Node4</title>
<g id="a_node4"><a xlink:href="classGPS.html#a8775edfa08840ffb2647e0e5ba031fe5" target="_top" xlink:title=" ">
<polygon fill="white" stroke="black" points="310,-104.5 310,-123.5 429,-123.5 429,-104.5 310,-104.5"/>
<text text-anchor="middle" x="369.5" y="-111.5" font-family="Helvetica,sans-Serif" font-size="10.00">GPS::closeConnection1</text>
</a>
</g>
</g>
<!-- Node1&#45;&gt;Node4 -->
<g id="edge17" class="edge">
<title>Node1&#45;&gt;Node4</title>
<path fill="none" stroke="midnightblue" d="M1093.02,-82.67C1034.32,-65.91 921.87,-38 824,-38 824,-38 824,-38 661,-38 557.26,-38 439.26,-83.92 391.86,-104.37"/>
<polygon fill="midnightblue" stroke="midnightblue" points="1092.08,-86.04 1102.66,-85.46 1094.02,-79.32 1092.08,-86.04"/>
</g>
<!-- Node7 -->
<g id="node7" class="node">
<title>Node7</title>
<g id="a_node7"><a xlink:href="classGPS.html#ac2a7572afb184df9c14ae913f17306bf" target="_top" xlink:title=" ">
<polygon fill="white" stroke="black" points="613,-180.5 613,-199.5 711,-199.5 711,-180.5 613,-180.5"/>
<text text-anchor="middle" x="662" y="-187.5" font-family="Helvetica,sans-Serif" font-size="10.00">GPS::initSerialPort</text>
</a>
</g>
</g>
<!-- Node1&#45;&gt;Node7 -->
<g id="edge18" class="edge">
<title>Node1&#45;&gt;Node7</title>
<path fill="none" stroke="midnightblue" d="M1115.39,-111.18C1099.21,-124.6 1074.24,-142.91 1049,-152 933.22,-193.71 786.04,-195.23 711.29,-192.69"/>
<polygon fill="midnightblue" stroke="midnightblue" points="1117.67,-113.83 1123,-104.68 1113.12,-108.51 1117.67,-113.83"/>
</g>
<!-- Node3 -->
<g id="node3" class="node">
<title>Node3</title>
<g id="a_node3"><a xlink:href="classGPS.html#aaf69fb801bbce2ea70041e68fe0ec19a" target="_top" xlink:title=" ">
<polygon fill="white" stroke="black" points="747,-123.5 747,-142.5 899,-142.5 899,-123.5 747,-123.5"/>
<text text-anchor="middle" x="823" y="-130.5" font-family="Helvetica,sans-Serif" font-size="10.00">GPS::handleReconnectTimeout</text>
</a>
</g>
</g>
<!-- Node2&#45;&gt;Node3 -->
<g id="edge2" class="edge">
<title>Node2&#45;&gt;Node3</title>
<path fill="none" stroke="midnightblue" d="M924.81,-126.38C916.4,-126.25 907.75,-126.22 899.21,-126.28"/>
<polygon fill="midnightblue" stroke="midnightblue" points="924.86,-129.88 934.93,-126.58 925,-122.88 924.86,-129.88"/>
</g>
<!-- Node8 -->
<g id="node8" class="node">
<title>Node8</title>
<g id="a_node8"><a xlink:href="classGPS.html#a51eaea2422dd980ea0a6d28f12a136de" target="_top" xlink:title=" ">
<polygon fill="white" stroke="black" points="465,-142.5 465,-161.5 577,-161.5 577,-142.5 465,-142.5"/>
<text text-anchor="middle" x="521" y="-149.5" font-family="Helvetica,sans-Serif" font-size="10.00">GPS::openConnection</text>
</a>
</g>
</g>
<!-- Node2&#45;&gt;Node8 -->
<g id="edge16" class="edge">
<title>Node2&#45;&gt;Node8</title>
<path fill="none" stroke="midnightblue" d="M943.6,-121.29C929.35,-118.29 913.62,-115.49 899,-114 772.17,-101.04 738.68,-114.63 613,-136 600.98,-138.04 588.08,-140.28 575.88,-142.42"/>
<polygon fill="midnightblue" stroke="midnightblue" points="943.15,-124.77 953.67,-123.49 944.65,-117.94 943.15,-124.77"/>
</g>
<!-- Node3&#45;&gt;Node2 -->
<g id="edge3" class="edge">
<title>Node3&#45;&gt;Node2</title>
<path fill="none" stroke="midnightblue" d="M909.38,-139.75C918.04,-139.73 926.69,-139.62 934.93,-139.42"/>
<polygon fill="midnightblue" stroke="midnightblue" points="909.22,-136.25 899.21,-139.72 909.2,-143.25 909.22,-136.25"/>
</g>
<!-- Node3&#45;&gt;Node4 -->
<g id="edge4" class="edge">
<title>Node3&#45;&gt;Node4</title>
<path fill="none" stroke="midnightblue" d="M736.77,-129.41C646.84,-125.63 507.53,-119.77 429.18,-116.47"/>
<polygon fill="midnightblue" stroke="midnightblue" points="736.8,-132.92 746.94,-129.84 737.09,-125.92 736.8,-132.92"/>
</g>
<!-- Node3&#45;&gt;Node7 -->
<g id="edge15" class="edge">
<title>Node3&#45;&gt;Node7</title>
<path fill="none" stroke="midnightblue" d="M785.94,-145.93C756.68,-156.42 716.1,-170.96 689.7,-180.43"/>
<polygon fill="midnightblue" stroke="midnightblue" points="787.15,-149.21 795.39,-142.54 784.79,-142.62 787.15,-149.21"/>
</g>
<!-- Node5 -->
<g id="node5" class="node">
<title>Node5</title>
<g id="a_node5"><a xlink:href="classGPS.html#abd750ada6a7b976f72761ce16246ccf6" target="_top" xlink:title=" ">
<polygon fill="white" stroke="black" points="154,-104.5 154,-123.5 274,-123.5 274,-104.5 154,-104.5"/>
<text text-anchor="middle" x="214" y="-111.5" font-family="Helvetica,sans-Serif" font-size="10.00">GPS::setGPSBAUD115</text>
</a>
</g>
</g>
<!-- Node4&#45;&gt;Node5 -->
<g id="edge5" class="edge">
<title>Node4&#45;&gt;Node5</title>
<path fill="none" stroke="midnightblue" d="M299.36,-114C290.89,-114 282.3,-114 274,-114"/>
<polygon fill="midnightblue" stroke="midnightblue" points="299.59,-117.5 309.59,-114 299.59,-110.5 299.59,-117.5"/>
</g>
<!-- Node6 -->
<g id="node6" class="node">
<title>Node6</title>
<g id="a_node6"><a xlink:href="classGPS.html#a1b1c89214229f5dc8ff7e2fa9cbcad35" target="_top" xlink:title=" ">
<polygon fill="white" stroke="black" points="6,-161.5 6,-180.5 112,-180.5 112,-161.5 6,-161.5"/>
<text text-anchor="middle" x="59" y="-168.5" font-family="Helvetica,sans-Serif" font-size="10.00">GPS::handleTimeout</text>
</a>
</g>
</g>
<!-- Node5&#45;&gt;Node6 -->
<g id="edge6" class="edge">
<title>Node5&#45;&gt;Node6</title>
<path fill="none" stroke="midnightblue" d="M177.93,-127.07C149.81,-137.54 110.99,-152.01 85.69,-161.43"/>
<polygon fill="midnightblue" stroke="midnightblue" points="179.24,-130.31 187.39,-123.54 176.8,-123.75 179.24,-130.31"/>
</g>
<!-- Node9 -->
<g id="node9" class="node">
<title>Node9</title>
<g id="a_node9"><a xlink:href="classGPS.html#a217097ae4a846c621f001a5aa1f4fb4f" target="_top" xlink:title=" ">
<polygon fill="white" stroke="black" points="0,-47.5 0,-66.5 118,-66.5 118,-47.5 0,-47.5"/>
<text text-anchor="middle" x="59" y="-54.5" font-family="Helvetica,sans-Serif" font-size="10.00">GPS::ProcessMessage</text>
</a>
</g>
</g>
<!-- Node5&#45;&gt;Node9 -->
<g id="edge13" class="edge">
<title>Node5&#45;&gt;Node9</title>
<path fill="none" stroke="midnightblue" d="M177.93,-100.93C149.81,-90.46 110.99,-75.99 85.69,-66.57"/>
<polygon fill="midnightblue" stroke="midnightblue" points="176.8,-104.25 187.39,-104.46 179.24,-97.69 176.8,-104.25"/>
</g>
<!-- Node6&#45;&gt;Node2 -->
<g id="edge7" class="edge">
<title>Node6&#45;&gt;Node2</title>
<path fill="none" stroke="midnightblue" d="M100.71,-183.43C159.32,-200.2 271.13,-228 368.5,-228 663,-228 663,-228 663,-228 784.83,-228 922.42,-166.78 971.97,-142.63"/>
<polygon fill="midnightblue" stroke="midnightblue" points="101.32,-179.97 90.74,-180.54 99.37,-186.69 101.32,-179.97"/>
</g>
<!-- Node6&#45;&gt;Node4 -->
<g id="edge8" class="edge">
<title>Node6&#45;&gt;Node4</title>
<path fill="none" stroke="midnightblue" d="M122.36,-160.31C165.09,-152.89 223.03,-142.65 274,-133 289.62,-130.04 306.66,-126.66 321.92,-123.58"/>
<polygon fill="midnightblue" stroke="midnightblue" points="121.64,-156.88 112.39,-162.04 122.84,-163.78 121.64,-156.88"/>
</g>
<!-- Node6&#45;&gt;Node7 -->
<g id="edge9" class="edge">
<title>Node6&#45;&gt;Node7</title>
<path fill="none" stroke="midnightblue" d="M122.38,-172.97C242.75,-176.78 504.71,-185.06 612.83,-188.48"/>
<polygon fill="midnightblue" stroke="midnightblue" points="122.33,-169.47 112.23,-172.65 122.11,-176.47 122.33,-169.47"/>
</g>
<!-- Node7&#45;&gt;Node8 -->
<g id="edge10" class="edge">
<title>Node7&#45;&gt;Node8</title>
<path fill="none" stroke="midnightblue" d="M616.2,-177.75C597.05,-172.52 575.01,-166.49 557.06,-161.59"/>
<polygon fill="midnightblue" stroke="midnightblue" points="615.36,-181.15 625.92,-180.41 617.2,-174.4 615.36,-181.15"/>
</g>
<!-- Node8&#45;&gt;Node3 -->
<g id="edge12" class="edge">
<title>Node8&#45;&gt;Node3</title>
<path fill="none" stroke="midnightblue" d="M587.51,-147.85C634.42,-144.88 697.69,-140.87 746.68,-137.77"/>
<polygon fill="midnightblue" stroke="midnightblue" points="587.22,-144.36 577.46,-148.49 587.66,-151.35 587.22,-144.36"/>
</g>
<!-- Node8&#45;&gt;Node4 -->
<g id="edge11" class="edge">
<title>Node8&#45;&gt;Node4</title>
<path fill="none" stroke="midnightblue" d="M472.35,-139.89C451.53,-134.6 427.46,-128.48 407.95,-123.52"/>
<polygon fill="midnightblue" stroke="midnightblue" points="471.72,-143.34 482.27,-142.41 473.45,-136.56 471.72,-143.34"/>
</g>
<!-- Node9&#45;&gt;Node1 -->
<g id="edge14" class="edge">
<title>Node9&#45;&gt;Node1</title>
<path fill="none" stroke="midnightblue" d="M100.71,-44.57C159.32,-27.8 271.13,0 368.5,0 824,0 824,0 824,0 925.81,0 954.09,-6.16 1049,-43 1076.62,-53.72 1105.27,-73.51 1121.1,-85.34"/>
<polygon fill="midnightblue" stroke="midnightblue" points="99.37,-41.31 90.74,-47.46 101.32,-48.03 99.37,-41.31"/>
</g>
</g>
</svg>
