<?xml version="1.0" encoding="UTF-8" standalone="no"?>
<!DOCTYPE svg PUBLIC "-//W3C//DTD SVG 1.1//EN"
 "http://www.w3.org/Graphics/SVG/1.1/DTD/svg11.dtd">
<!-- Generated by graphviz version 2.49.3 (20211027.1534)
 -->
<!-- Title: Apexi::retryconnect Pages: 1 -->
<svg width="969pt" height="94pt"
 viewBox="0.00 0.00 969.00 94.00" xmlns="http://www.w3.org/2000/svg" xmlns:xlink="http://www.w3.org/1999/xlink">
<g id="graph0" class="graph" transform="scale(1 1) rotate(0) translate(4 90)">
<title>Apexi::retryconnect</title>
<polygon fill="white" stroke="transparent" points="-4,4 -4,-90 965,-90 965,4 -4,4"/>
<!-- Node1 -->
<g id="node1" class="node">
<title>Node1</title>
<g id="a_node1"><a xlink:title=" ">
<polygon fill="#bfbfbf" stroke="black" points="863,-9.5 863,-28.5 961,-28.5 961,-9.5 863,-9.5"/>
<text text-anchor="middle" x="912" y="-16.5" font-family="Helvetica,sans-Serif" font-size="10.00">Apexi::retryconnect</text>
</a>
</g>
</g>
<!-- Node2 -->
<g id="node2" class="node">
<title>Node2</title>
<g id="a_node2"><a xlink:href="classApexi.html#a4e7b389e8d3e283a12733ab4f8492be3" target="_top" xlink:title=" ">
<polygon fill="white" stroke="black" points="743,-28.5 743,-47.5 827,-47.5 827,-28.5 743,-28.5"/>
<text text-anchor="middle" x="785" y="-35.5" font-family="Helvetica,sans-Serif" font-size="10.00">Apexi::readData</text>
</a>
</g>
</g>
<!-- Node1&#45;&gt;Node2 -->
<g id="edge1" class="edge">
<title>Node1&#45;&gt;Node2</title>
<path fill="none" stroke="midnightblue" d="M852.69,-27.86C844.11,-29.17 835.43,-30.49 827.29,-31.72"/>
<polygon fill="midnightblue" stroke="midnightblue" points="853.31,-31.31 862.67,-26.35 852.26,-24.39 853.31,-31.31"/>
</g>
<!-- Node3 -->
<g id="node3" class="node">
<title>Node3</title>
<g id="a_node3"><a xlink:href="classApexi.html#a4cb1314ab5ca5175aa227ed178148f40" target="_top" xlink:title=" ">
<polygon fill="white" stroke="black" points="619,-28.5 619,-47.5 707,-47.5 707,-28.5 619,-28.5"/>
<text text-anchor="middle" x="663" y="-35.5" font-family="Helvetica,sans-Serif" font-size="10.00">Apexi::apexiECU</text>
</a>
</g>
</g>
<!-- Node2&#45;&gt;Node3 -->
<g id="edge2" class="edge">
<title>Node2&#45;&gt;Node3</title>
<path fill="none" stroke="midnightblue" d="M732.5,-38C724,-38 715.27,-38 707.01,-38"/>
<polygon fill="midnightblue" stroke="midnightblue" points="732.7,-41.5 742.7,-38 732.7,-34.5 732.7,-41.5"/>
</g>
<!-- Node4 -->
<g id="node4" class="node">
<title>Node4</title>
<g id="a_node4"><a xlink:href="classApexi.html#abe3bf6800fce8a4c713a08c14474d625" target="_top" xlink:title=" ">
<polygon fill="white" stroke="black" points="481,-28.5 481,-47.5 583,-47.5 583,-28.5 481,-28.5"/>
<text text-anchor="middle" x="532" y="-35.5" font-family="Helvetica,sans-Serif" font-size="10.00">Apexi::readyToRead</text>
</a>
</g>
</g>
<!-- Node3&#45;&gt;Node4 -->
<g id="edge3" class="edge">
<title>Node3&#45;&gt;Node4</title>
<path fill="none" stroke="midnightblue" d="M608.57,-38C600.15,-38 591.46,-38 583.11,-38"/>
<polygon fill="midnightblue" stroke="midnightblue" points="608.69,-41.5 618.69,-38 608.69,-34.5 608.69,-41.5"/>
</g>
<!-- Node5 -->
<g id="node5" class="node">
<title>Node5</title>
<g id="a_node5"><a xlink:href="classApexi.html#a669124cabae4ada616e650e582c068da" target="_top" xlink:title=" ">
<polygon fill="white" stroke="black" points="328,-66.5 328,-85.5 445,-85.5 445,-66.5 328,-66.5"/>
<text text-anchor="middle" x="386.5" y="-73.5" font-family="Helvetica,sans-Serif" font-size="10.00">Apexi::closeConnection</text>
</a>
</g>
</g>
<!-- Node4&#45;&gt;Node5 -->
<g id="edge4" class="edge">
<title>Node4&#45;&gt;Node5</title>
<path fill="none" stroke="midnightblue" d="M485.03,-50.17C465.18,-55.43 442.31,-61.49 423.7,-66.41"/>
<polygon fill="midnightblue" stroke="midnightblue" points="486.02,-53.53 494.79,-47.59 484.23,-46.77 486.02,-53.53"/>
</g>
<!-- Node9 -->
<g id="node9" class="node">
<title>Node9</title>
<g id="a_node9"><a xlink:href="classApexi.html#a169d6e9466a6c04e6533c8e84fdcaadb" target="_top" xlink:title=" ">
<polygon fill="white" stroke="black" points="336,-28.5 336,-47.5 437,-47.5 437,-28.5 336,-28.5"/>
<text text-anchor="middle" x="386.5" y="-35.5" font-family="Helvetica,sans-Serif" font-size="10.00">Apexi::initSerialPort</text>
</a>
</g>
</g>
<!-- Node4&#45;&gt;Node9 -->
<g id="edge10" class="edge">
<title>Node4&#45;&gt;Node9</title>
<path fill="none" stroke="midnightblue" d="M470.75,-38C459.65,-38 448.17,-38 437.42,-38"/>
<polygon fill="midnightblue" stroke="midnightblue" points="470.81,-41.5 480.81,-38 470.81,-34.5 470.81,-41.5"/>
</g>
<!-- Node5&#45;&gt;Node2 -->
<g id="edge9" class="edge">
<title>Node5&#45;&gt;Node2</title>
<path fill="none" stroke="midnightblue" d="M455.37,-75.54C520.3,-74.27 620.83,-70.08 707,-57 721.57,-54.79 737.41,-51.11 750.91,-47.57"/>
<polygon fill="midnightblue" stroke="midnightblue" points="455.19,-72.05 445.26,-75.73 455.32,-79.05 455.19,-72.05"/>
</g>
<!-- Node6 -->
<g id="node6" class="node">
<title>Node6</title>
<g id="a_node6"><a xlink:href="classConnect.html#abb89a14af2e2b3f6d466c5abfc95cff0" target="_top" xlink:title=" ">
<polygon fill="white" stroke="black" points="163,-66.5 163,-85.5 292,-85.5 292,-66.5 163,-66.5"/>
<text text-anchor="middle" x="227.5" y="-73.5" font-family="Helvetica,sans-Serif" font-size="10.00">Connect::closeConnection</text>
</a>
</g>
</g>
<!-- Node5&#45;&gt;Node6 -->
<g id="edge5" class="edge">
<title>Node5&#45;&gt;Node6</title>
<path fill="none" stroke="midnightblue" d="M317.7,-76C309.22,-76 300.57,-76 292.15,-76"/>
<polygon fill="midnightblue" stroke="midnightblue" points="317.93,-79.5 327.93,-76 317.93,-72.5 317.93,-79.5"/>
</g>
<!-- Node7 -->
<g id="node7" class="node">
<title>Node7</title>
<g id="a_node7"><a xlink:href="classApexi.html#a84e5eadc545afab5fbb0aea8b27e17c3" target="_top" xlink:title=" ">
<polygon fill="white" stroke="black" points="170,-28.5 170,-47.5 285,-47.5 285,-28.5 170,-28.5"/>
<text text-anchor="middle" x="227.5" y="-35.5" font-family="Helvetica,sans-Serif" font-size="10.00">Apexi::openConnection</text>
</a>
</g>
</g>
<!-- Node5&#45;&gt;Node7 -->
<g id="edge6" class="edge">
<title>Node5&#45;&gt;Node7</title>
<path fill="none" stroke="midnightblue" d="M336.05,-64.03C314.05,-58.71 288.51,-52.52 267.83,-47.52"/>
<polygon fill="midnightblue" stroke="midnightblue" points="335.34,-67.46 345.88,-66.41 336.99,-60.66 335.34,-67.46"/>
</g>
<!-- Node7&#45;&gt;Node1 -->
<g id="edge8" class="edge">
<title>Node7&#45;&gt;Node1</title>
<path fill="none" stroke="midnightblue" d="M283.25,-26.58C297.75,-23.81 313.43,-21.07 328,-19 417.72,-6.27 440.38,0 531,0 664,0 664,0 664,0 733.24,0 813.09,-7.51 862.81,-13.09"/>
<polygon fill="midnightblue" stroke="midnightblue" points="282.57,-23.14 273.42,-28.48 283.91,-30.01 282.57,-23.14"/>
</g>
<!-- Node8 -->
<g id="node8" class="node">
<title>Node8</title>
<g id="a_node8"><a xlink:href="classConnect.html#a0d674157f4d7442c535837dadd8cf5f1" target="_top" xlink:title=" ">
<polygon fill="white" stroke="black" points="0,-28.5 0,-47.5 127,-47.5 127,-28.5 0,-28.5"/>
<text text-anchor="middle" x="63.5" y="-35.5" font-family="Helvetica,sans-Serif" font-size="10.00">Connect::openConnection</text>
</a>
</g>
</g>
<!-- Node7&#45;&gt;Node8 -->
<g id="edge7" class="edge">
<title>Node7&#45;&gt;Node8</title>
<path fill="none" stroke="midnightblue" d="M159.67,-38C148.93,-38 137.85,-38 127.21,-38"/>
<polygon fill="midnightblue" stroke="midnightblue" points="159.84,-41.5 169.84,-38 159.84,-34.5 159.84,-41.5"/>
</g>
<!-- Node9&#45;&gt;Node7 -->
<g id="edge11" class="edge">
<title>Node9&#45;&gt;Node7</title>
<path fill="none" stroke="midnightblue" d="M325.82,-38C312.51,-38 298.43,-38 285.24,-38"/>
<polygon fill="midnightblue" stroke="midnightblue" points="325.82,-41.5 335.82,-38 325.82,-34.5 325.82,-41.5"/>
</g>
</g>
</svg>
