<?xml version="1.0" encoding="UTF-8" standalone="no"?>
<!DOCTYPE svg PUBLIC "-//W3C//DTD SVG 1.1//EN"
 "http://www.w3.org/Graphics/SVG/1.1/DTD/svg11.dtd">
<!-- Generated by graphviz version 2.49.3 (20211027.1534)
 -->
<!-- Title: Apexi::apexiECU Pages: 1 -->
<svg width="835pt" height="170pt"
 viewBox="0.00 0.00 835.00 170.00" xmlns="http://www.w3.org/2000/svg" xmlns:xlink="http://www.w3.org/1999/xlink">
<g id="graph0" class="graph" transform="scale(1 1) rotate(0) translate(4 166)">
<title>Apexi::apexiECU</title>
<polygon fill="white" stroke="transparent" points="-4,4 -4,-166 831,-166 831,4 -4,4"/>
<!-- Node1 -->
<g id="node1" class="node">
<title>Node1</title>
<g id="a_node1"><a xlink:title=" ">
<polygon fill="#bfbfbf" stroke="black" points="739,-28.5 739,-47.5 827,-47.5 827,-28.5 739,-28.5"/>
<text text-anchor="middle" x="783" y="-35.5" font-family="Helvetica,sans-Serif" font-size="10.00">Apexi::apexiECU</text>
</a>
</g>
</g>
<!-- Node2 -->
<g id="node2" class="node">
<title>Node2</title>
<g id="a_node2"><a xlink:href="classApexi.html#abe3bf6800fce8a4c713a08c14474d625" target="_top" xlink:title=" ">
<polygon fill="white" stroke="black" points="601,-66.5 601,-85.5 703,-85.5 703,-66.5 601,-66.5"/>
<text text-anchor="middle" x="652" y="-73.5" font-family="Helvetica,sans-Serif" font-size="10.00">Apexi::readyToRead</text>
</a>
</g>
</g>
<!-- Node1&#45;&gt;Node2 -->
<g id="edge1" class="edge">
<title>Node1&#45;&gt;Node2</title>
<path fill="none" stroke="midnightblue" d="M739.45,-50.54C721.9,-55.7 701.89,-61.6 685.54,-66.41"/>
<polygon fill="midnightblue" stroke="midnightblue" points="740.84,-53.77 749.45,-47.59 738.87,-47.06 740.84,-53.77"/>
</g>
<!-- Node3 -->
<g id="node3" class="node">
<title>Node3</title>
<g id="a_node3"><a xlink:href="classApexi.html#a669124cabae4ada616e650e582c068da" target="_top" xlink:title=" ">
<polygon fill="white" stroke="black" points="448,-66.5 448,-85.5 565,-85.5 565,-66.5 448,-66.5"/>
<text text-anchor="middle" x="506.5" y="-73.5" font-family="Helvetica,sans-Serif" font-size="10.00">Apexi::closeConnection</text>
</a>
</g>
</g>
<!-- Node2&#45;&gt;Node3 -->
<g id="edge2" class="edge">
<title>Node2&#45;&gt;Node3</title>
<path fill="none" stroke="midnightblue" d="M590.69,-76C582.27,-76 573.64,-76 565.28,-76"/>
<polygon fill="midnightblue" stroke="midnightblue" points="590.81,-79.5 600.81,-76 590.81,-72.5 590.81,-79.5"/>
</g>
<!-- Node9 -->
<g id="node9" class="node">
<title>Node9</title>
<g id="a_node9"><a xlink:href="classApexi.html#a169d6e9466a6c04e6533c8e84fdcaadb" target="_top" xlink:title=" ">
<polygon fill="white" stroke="black" points="456,-104.5 456,-123.5 557,-123.5 557,-104.5 456,-104.5"/>
<text text-anchor="middle" x="506.5" y="-111.5" font-family="Helvetica,sans-Serif" font-size="10.00">Apexi::initSerialPort</text>
</a>
</g>
</g>
<!-- Node2&#45;&gt;Node9 -->
<g id="edge10" class="edge">
<title>Node2&#45;&gt;Node9</title>
<path fill="none" stroke="midnightblue" d="M605.03,-88.17C585.18,-93.43 562.31,-99.49 543.7,-104.41"/>
<polygon fill="midnightblue" stroke="midnightblue" points="606.02,-91.53 614.79,-85.59 604.23,-84.77 606.02,-91.53"/>
</g>
<!-- Node4 -->
<g id="node4" class="node">
<title>Node4</title>
<g id="a_node4"><a xlink:href="classConnect.html#abb89a14af2e2b3f6d466c5abfc95cff0" target="_top" xlink:title=" ">
<polygon fill="white" stroke="black" points="283,-28.5 283,-47.5 412,-47.5 412,-28.5 283,-28.5"/>
<text text-anchor="middle" x="347.5" y="-35.5" font-family="Helvetica,sans-Serif" font-size="10.00">Connect::closeConnection</text>
</a>
</g>
</g>
<!-- Node3&#45;&gt;Node4 -->
<g id="edge3" class="edge">
<title>Node3&#45;&gt;Node4</title>
<path fill="none" stroke="midnightblue" d="M456.05,-64.03C434.05,-58.71 408.51,-52.52 387.83,-47.52"/>
<polygon fill="midnightblue" stroke="midnightblue" points="455.34,-67.46 465.88,-66.41 456.99,-60.66 455.34,-67.46"/>
</g>
<!-- Node5 -->
<g id="node5" class="node">
<title>Node5</title>
<g id="a_node5"><a xlink:href="classApexi.html#a84e5eadc545afab5fbb0aea8b27e17c3" target="_top" xlink:title=" ">
<polygon fill="white" stroke="black" points="290,-104.5 290,-123.5 405,-123.5 405,-104.5 290,-104.5"/>
<text text-anchor="middle" x="347.5" y="-111.5" font-family="Helvetica,sans-Serif" font-size="10.00">Apexi::openConnection</text>
</a>
</g>
</g>
<!-- Node3&#45;&gt;Node5 -->
<g id="edge4" class="edge">
<title>Node3&#45;&gt;Node5</title>
<path fill="none" stroke="midnightblue" d="M456.05,-87.97C434.05,-93.29 408.51,-99.48 387.83,-104.48"/>
<polygon fill="midnightblue" stroke="midnightblue" points="456.99,-91.34 465.88,-85.59 455.34,-84.54 456.99,-91.34"/>
</g>
<!-- Node8 -->
<g id="node8" class="node">
<title>Node8</title>
<g id="a_node8"><a xlink:href="classApexi.html#a4e7b389e8d3e283a12733ab4f8492be3" target="_top" xlink:title=" ">
<polygon fill="white" stroke="black" points="0,-66.5 0,-85.5 84,-85.5 84,-66.5 0,-66.5"/>
<text text-anchor="middle" x="42" y="-73.5" font-family="Helvetica,sans-Serif" font-size="10.00">Apexi::readData</text>
</a>
</g>
</g>
<!-- Node3&#45;&gt;Node8 -->
<g id="edge9" class="edge">
<title>Node3&#45;&gt;Node8</title>
<path fill="none" stroke="midnightblue" d="M437.84,-76C340.57,-76 164.17,-76 84.28,-76"/>
<polygon fill="midnightblue" stroke="midnightblue" points="437.86,-79.5 447.86,-76 437.86,-72.5 437.86,-79.5"/>
</g>
<!-- Node6 -->
<g id="node6" class="node">
<title>Node6</title>
<g id="a_node6"><a xlink:href="classConnect.html#a0d674157f4d7442c535837dadd8cf5f1" target="_top" xlink:title=" ">
<polygon fill="white" stroke="black" points="120,-142.5 120,-161.5 247,-161.5 247,-142.5 120,-142.5"/>
<text text-anchor="middle" x="183.5" y="-149.5" font-family="Helvetica,sans-Serif" font-size="10.00">Connect::openConnection</text>
</a>
</g>
</g>
<!-- Node5&#45;&gt;Node6 -->
<g id="edge5" class="edge">
<title>Node5&#45;&gt;Node6</title>
<path fill="none" stroke="midnightblue" d="M295.79,-125.9C273.01,-131.24 246.51,-137.45 225.09,-142.48"/>
<polygon fill="midnightblue" stroke="midnightblue" points="296.68,-129.28 305.62,-123.59 295.09,-122.47 296.68,-129.28"/>
</g>
<!-- Node7 -->
<g id="node7" class="node">
<title>Node7</title>
<g id="a_node7"><a xlink:href="classApexi.html#af3673b74b8aebe06a2b2f9ed81c23ee4" target="_top" xlink:title=" ">
<polygon fill="white" stroke="black" points="134.5,-104.5 134.5,-123.5 232.5,-123.5 232.5,-104.5 134.5,-104.5"/>
<text text-anchor="middle" x="183.5" y="-111.5" font-family="Helvetica,sans-Serif" font-size="10.00">Apexi::retryconnect</text>
</a>
</g>
</g>
<!-- Node5&#45;&gt;Node7 -->
<g id="edge6" class="edge">
<title>Node5&#45;&gt;Node7</title>
<path fill="none" stroke="midnightblue" d="M279.6,-114C263.81,-114 247.29,-114 232.53,-114"/>
<polygon fill="midnightblue" stroke="midnightblue" points="279.84,-117.5 289.84,-114 279.84,-110.5 279.84,-117.5"/>
</g>
<!-- Node7&#45;&gt;Node8 -->
<g id="edge7" class="edge">
<title>Node7&#45;&gt;Node8</title>
<path fill="none" stroke="midnightblue" d="M137.54,-101.75C118.32,-96.52 96.2,-90.49 78.19,-85.59"/>
<polygon fill="midnightblue" stroke="midnightblue" points="136.73,-105.16 147.3,-104.41 138.57,-98.41 136.73,-105.16"/>
</g>
<!-- Node8&#45;&gt;Node1 -->
<g id="edge8" class="edge">
<title>Node8&#45;&gt;Node1</title>
<path fill="none" stroke="midnightblue" d="M74.82,-62.53C129.38,-40.7 244.74,0 346.5,0 507.5,0 507.5,0 507.5,0 590.25,0 685.72,-17.15 739.46,-28.41"/>
<polygon fill="midnightblue" stroke="midnightblue" points="73.31,-59.37 65.36,-66.37 75.94,-65.85 73.31,-59.37"/>
</g>
<!-- Node9&#45;&gt;Node5 -->
<g id="edge11" class="edge">
<title>Node9&#45;&gt;Node5</title>
<path fill="none" stroke="midnightblue" d="M445.82,-114C432.51,-114 418.43,-114 405.24,-114"/>
<polygon fill="midnightblue" stroke="midnightblue" points="445.82,-117.5 455.82,-114 445.82,-110.5 445.82,-117.5"/>
</g>
</g>
</svg>
