<?xml version="1.0" encoding="UTF-8" standalone="no"?>
<!DOCTYPE svg PUBLIC "-//W3C//DTD SVG 1.1//EN"
 "http://www.w3.org/Graphics/SVG/1.1/DTD/svg11.dtd">
<!-- Generated by graphviz version 2.49.3 (20211027.1534)
 -->
<!-- Title: GPS::closeConnection1 Pages: 1 -->
<svg width="1413pt" height="632pt"
 viewBox="0.00 0.00 1413.00 632.00" xmlns="http://www.w3.org/2000/svg" xmlns:xlink="http://www.w3.org/1999/xlink">
<g id="graph0" class="graph" transform="scale(1 1) rotate(0) translate(4 628)">
<title>GPS::closeConnection1</title>
<polygon fill="white" stroke="transparent" points="-4,4 -4,-628 1409,-628 1409,4 -4,4"/>
<!-- Node1 -->
<g id="node1" class="node">
<title>Node1</title>
<g id="a_node1"><a xlink:title=" ">
<polygon fill="#bfbfbf" stroke="black" points="0,-133.5 0,-152.5 119,-152.5 119,-133.5 0,-133.5"/>
<text text-anchor="middle" x="59.5" y="-140.5" font-family="Helvetica,sans-Serif" font-size="10.00">GPS::closeConnection1</text>
</a>
</g>
</g>
<!-- Node2 -->
<g id="node2" class="node">
<title>Node2</title>
<g id="a_node2"><a xlink:href="classGPS.html#a14c64eb8a4939f8f734b93ef3a21bb19" target="_top" xlink:title=" ">
<polygon fill="white" stroke="black" points="648.5,-104.5 648.5,-123.5 739.5,-123.5 739.5,-104.5 648.5,-104.5"/>
<text text-anchor="middle" x="694" y="-111.5" font-family="Helvetica,sans-Serif" font-size="10.00">GPS::handleError</text>
</a>
</g>
</g>
<!-- Node1&#45;&gt;Node2 -->
<g id="edge1" class="edge">
<title>Node1&#45;&gt;Node2</title>
<path fill="none" stroke="midnightblue" d="M78.04,-133.34C96.59,-123.57 126.99,-108.83 155,-101 347.63,-47.15 407.73,-61.94 605,-95 617.16,-97.04 630.19,-99.63 642.39,-102.23"/>
<polygon fill="midnightblue" stroke="midnightblue" points="641.89,-105.7 652.41,-104.41 643.38,-98.86 641.89,-105.7"/>
</g>
<!-- Node3 -->
<g id="node3" class="node">
<title>Node3</title>
<g id="a_node3"><a xlink:href="classDashBoard.html#acd9bb1ec108194ecb9d451b430275922" target="_top" xlink:title=" ">
<polygon fill="white" stroke="black" points="1099.5,-174.5 1099.5,-193.5 1231.5,-193.5 1231.5,-174.5 1099.5,-174.5"/>
<text text-anchor="middle" x="1165.5" y="-181.5" font-family="Helvetica,sans-Serif" font-size="10.00">DashBoard::setgpsFIXtype</text>
</a>
</g>
</g>
<!-- Node1&#45;&gt;Node3 -->
<g id="edge55" class="edge">
<title>Node1&#45;&gt;Node3</title>
<path fill="none" stroke="midnightblue" d="M69.47,-133.44C85.23,-117.18 119.61,-84.18 155,-66 254.55,-14.87 286.09,0 398,0 398,0 398,0 843,0 944.77,0 973.2,-21.28 1059,-76 1098,-100.87 1133.36,-142.77 1151.57,-166.4"/>
<polygon fill="midnightblue" stroke="midnightblue" points="1148.86,-168.62 1157.68,-174.49 1154.44,-164.4 1148.86,-168.62"/>
</g>
<!-- Node4 -->
<g id="node4" class="node">
<title>Node4</title>
<g id="a_node4"><a xlink:href="classGPS.html#aaf69fb801bbce2ea70041e68fe0ec19a" target="_top" xlink:title=" ">
<polygon fill="white" stroke="black" points="155,-133.5 155,-152.5 307,-152.5 307,-133.5 155,-133.5"/>
<text text-anchor="middle" x="231" y="-140.5" font-family="Helvetica,sans-Serif" font-size="10.00">GPS::handleReconnectTimeout</text>
</a>
</g>
</g>
<!-- Node1&#45;&gt;Node4 -->
<g id="edge3" class="edge">
<title>Node1&#45;&gt;Node4</title>
<path fill="none" stroke="midnightblue" d="M119.31,-143C127.55,-143 136.16,-143 144.78,-143"/>
<polygon fill="midnightblue" stroke="midnightblue" points="144.88,-146.5 154.88,-143 144.88,-139.5 144.88,-146.5"/>
</g>
<!-- Node6 -->
<g id="node6" class="node">
<title>Node6</title>
<g id="a_node6"><a xlink:href="classGPS.html#a1b1c89214229f5dc8ff7e2fa9cbcad35" target="_top" xlink:title=" ">
<polygon fill="white" stroke="black" points="641,-180.5 641,-199.5 747,-199.5 747,-180.5 641,-180.5"/>
<text text-anchor="middle" x="694" y="-187.5" font-family="Helvetica,sans-Serif" font-size="10.00">GPS::handleTimeout</text>
</a>
</g>
</g>
<!-- Node1&#45;&gt;Node6 -->
<g id="edge52" class="edge">
<title>Node1&#45;&gt;Node6</title>
<path fill="none" stroke="midnightblue" d="M104.21,-152.52C181.67,-168.75 348.33,-200.83 491,-209 541.58,-211.9 554.62,-214.38 605,-209 618.87,-207.52 633.77,-204.76 647.29,-201.8"/>
<polygon fill="midnightblue" stroke="midnightblue" points="648.35,-205.15 657.32,-199.51 646.79,-198.32 648.35,-205.15"/>
</g>
<!-- Node8 -->
<g id="node8" class="node">
<title>Node8</title>
<g id="a_node8"><a xlink:href="classGPS.html#aa0928d156961a54bf06d9b5210d85561" target="_top" xlink:title=" ">
<polygon fill="white" stroke="black" points="644.5,-237.5 644.5,-256.5 743.5,-256.5 743.5,-237.5 644.5,-237.5"/>
<text text-anchor="middle" x="694" y="-244.5" font-family="Helvetica,sans-Serif" font-size="10.00">GPS::readyToRead</text>
</a>
</g>
</g>
<!-- Node1&#45;&gt;Node8 -->
<g id="edge54" class="edge">
<title>Node1&#45;&gt;Node8</title>
<path fill="none" stroke="midnightblue" d="M75.89,-152.65C94.06,-163.57 125.56,-181 155,-190 323.29,-241.48 533.44,-248.14 634.02,-248.01"/>
<polygon fill="midnightblue" stroke="midnightblue" points="634.29,-251.51 644.28,-247.97 634.26,-244.51 634.29,-251.51"/>
</g>
<!-- Node30 -->
<g id="node30" class="node">
<title>Node30</title>
<g id="a_node30"><a xlink:href="classGPS.html#a51eaea2422dd980ea0a6d28f12a136de" target="_top" xlink:title=" ">
<polygon fill="white" stroke="black" points="343,-86.5 343,-105.5 455,-105.5 455,-86.5 343,-86.5"/>
<text text-anchor="middle" x="399" y="-93.5" font-family="Helvetica,sans-Serif" font-size="10.00">GPS::openConnection</text>
</a>
</g>
</g>
<!-- Node1&#45;&gt;Node30 -->
<g id="edge53" class="edge">
<title>Node1&#45;&gt;Node30</title>
<path fill="none" stroke="midnightblue" d="M104.12,-133.44C120.07,-130.15 138.3,-126.64 155,-124 214.92,-114.54 283.62,-106.92 332.66,-102.03"/>
<polygon fill="midnightblue" stroke="midnightblue" points="333.2,-105.5 342.81,-101.03 332.52,-98.53 333.2,-105.5"/>
</g>
<!-- Node2&#45;&gt;Node3 -->
<g id="edge2" class="edge">
<title>Node2&#45;&gt;Node3</title>
<path fill="none" stroke="midnightblue" d="M739.73,-112.05C809.14,-110.12 946.54,-110.66 1059,-138 1087.45,-144.92 1117.91,-158.99 1138.74,-169.76"/>
<polygon fill="midnightblue" stroke="midnightblue" points="1137.12,-172.86 1147.6,-174.44 1140.39,-166.67 1137.12,-172.86"/>
</g>
<!-- Node5 -->
<g id="node5" class="node">
<title>Node5</title>
<g id="a_node5"><a xlink:href="classGPS.html#ae4568ef4d5107c96c1af68d1abd33559" target="_top" xlink:title=" ">
<polygon fill="white" stroke="black" points="491,-142.5 491,-161.5 605,-161.5 605,-142.5 491,-142.5"/>
<text text-anchor="middle" x="548" y="-149.5" font-family="Helvetica,sans-Serif" font-size="10.00">GPS::closeConnection</text>
</a>
</g>
</g>
<!-- Node4&#45;&gt;Node5 -->
<g id="edge4" class="edge">
<title>Node4&#45;&gt;Node5</title>
<path fill="none" stroke="midnightblue" d="M307.05,-139.29C359.83,-139.53 429.8,-141.61 480.56,-144.48"/>
<polygon fill="midnightblue" stroke="midnightblue" points="480.58,-147.98 490.77,-145.08 480.99,-141 480.58,-147.98"/>
</g>
<!-- Node4&#45;&gt;Node30 -->
<g id="edge43" class="edge">
<title>Node4&#45;&gt;Node30</title>
<path fill="none" stroke="midnightblue" d="M265.59,-133.49C291.16,-126.25 326.56,-116.23 354.32,-108.37"/>
<polygon fill="midnightblue" stroke="midnightblue" points="355.5,-111.67 364.17,-105.58 353.6,-104.93 355.5,-111.67"/>
</g>
<!-- Node5&#45;&gt;Node2 -->
<g id="edge5" class="edge">
<title>Node5&#45;&gt;Node2</title>
<path fill="none" stroke="midnightblue" d="M585.34,-142.41C604.08,-137.46 627.14,-131.38 647.11,-126.11"/>
<polygon fill="midnightblue" stroke="midnightblue" points="648.15,-129.46 656.92,-123.52 646.36,-122.69 648.15,-129.46"/>
</g>
<!-- Node5&#45;&gt;Node3 -->
<g id="edge42" class="edge">
<title>Node5&#45;&gt;Node3</title>
<path fill="none" stroke="midnightblue" d="M605.31,-152.53C699.41,-153.76 894.5,-157.83 1059,-171 1068.8,-171.78 1079.08,-172.81 1089.23,-173.93"/>
<polygon fill="midnightblue" stroke="midnightblue" points="1088.97,-177.42 1099.31,-175.08 1089.77,-170.47 1088.97,-177.42"/>
</g>
<!-- Node5&#45;&gt;Node4 -->
<g id="edge6" class="edge">
<title>Node5&#45;&gt;Node4</title>
<path fill="none" stroke="midnightblue" d="M490.77,-155.71C442.53,-155.94 372.29,-154.19 317.16,-151.51"/>
<polygon fill="midnightblue" stroke="midnightblue" points="317.21,-148 307.05,-150.99 316.86,-155 317.21,-148"/>
</g>
<!-- Node5&#45;&gt;Node6 -->
<g id="edge7" class="edge">
<title>Node5&#45;&gt;Node6</title>
<path fill="none" stroke="midnightblue" d="M585.34,-161.59C604.08,-166.54 627.14,-172.62 647.11,-177.89"/>
<polygon fill="midnightblue" stroke="midnightblue" points="646.36,-181.31 656.92,-180.48 648.15,-174.54 646.36,-181.31"/>
</g>
<!-- Node5&#45;&gt;Node8 -->
<g id="edge11" class="edge">
<title>Node5&#45;&gt;Node8</title>
<path fill="none" stroke="midnightblue" d="M585.73,-161.6C592.41,-164.13 599.12,-167.23 605,-171 624.59,-183.55 623.54,-193.63 641,-209 650.03,-216.95 660.66,-224.93 669.94,-231.51"/>
<polygon fill="midnightblue" stroke="midnightblue" points="668.13,-234.51 678.34,-237.35 672.12,-228.76 668.13,-234.51"/>
</g>
<!-- Node7 -->
<g id="node7" class="node">
<title>Node7</title>
<g id="a_node7"><a xlink:href="classGPS.html#abd750ada6a7b976f72761ce16246ccf6" target="_top" xlink:title=" ">
<polygon fill="white" stroke="black" points="938,-180.5 938,-199.5 1058,-199.5 1058,-180.5 938,-180.5"/>
<text text-anchor="middle" x="998" y="-187.5" font-family="Helvetica,sans-Serif" font-size="10.00">GPS::setGPSBAUD115</text>
</a>
</g>
</g>
<!-- Node6&#45;&gt;Node7 -->
<g id="edge8" class="edge">
<title>Node6&#45;&gt;Node7</title>
<path fill="none" stroke="midnightblue" d="M747.26,-190C797.24,-190 872.93,-190 927.88,-190"/>
<polygon fill="midnightblue" stroke="midnightblue" points="927.89,-193.5 937.89,-190 927.89,-186.5 927.89,-193.5"/>
</g>
<!-- Node7&#45;&gt;Node1 -->
<g id="edge9" class="edge">
<title>Node7&#45;&gt;Node1</title>
<path fill="none" stroke="midnightblue" d="M958.38,-199.54C951.22,-201.52 943.85,-203.71 937,-206 826.95,-242.8 811.04,-304 695,-304 398,-304 398,-304 398,-304 283.87,-304 254.63,-276.67 155,-221 124.89,-204.17 95,-177.36 77.14,-159.97"/>
<polygon fill="midnightblue" stroke="midnightblue" points="79.39,-157.27 69.83,-152.72 74.46,-162.24 79.39,-157.27"/>
</g>
<!-- Node7&#45;&gt;Node3 -->
<g id="edge10" class="edge">
<title>Node7&#45;&gt;Node3</title>
<path fill="none" stroke="midnightblue" d="M1058.28,-187.85C1068.3,-187.49 1078.82,-187.11 1089.18,-186.73"/>
<polygon fill="midnightblue" stroke="midnightblue" points="1089.59,-190.22 1099.46,-186.36 1089.34,-183.22 1089.59,-190.22"/>
</g>
<!-- Node9 -->
<g id="node9" class="node">
<title>Node9</title>
<g id="a_node9"><a xlink:href="classGPS.html#a217097ae4a846c621f001a5aa1f4fb4f" target="_top" xlink:title=" ">
<polygon fill="white" stroke="black" points="783,-332.5 783,-351.5 901,-351.5 901,-332.5 783,-332.5"/>
<text text-anchor="middle" x="842" y="-339.5" font-family="Helvetica,sans-Serif" font-size="10.00">GPS::ProcessMessage</text>
</a>
</g>
</g>
<!-- Node8&#45;&gt;Node9 -->
<g id="edge12" class="edge">
<title>Node8&#45;&gt;Node9</title>
<path fill="none" stroke="midnightblue" d="M709.8,-256.63C735.16,-273.13 787.11,-306.94 817.48,-326.7"/>
<polygon fill="midnightblue" stroke="midnightblue" points="815.87,-329.82 826.16,-332.34 819.69,-323.95 815.87,-329.82"/>
</g>
<!-- Node9&#45;&gt;Node3 -->
<g id="edge41" class="edge">
<title>Node9&#45;&gt;Node3</title>
<path fill="none" stroke="midnightblue" d="M877.27,-332.48C885.73,-328.94 894.28,-324.22 901,-318 926.96,-293.96 909.64,-269.43 937,-247 950.77,-235.72 1050.6,-210.74 1113.36,-195.85"/>
<polygon fill="midnightblue" stroke="midnightblue" points="1114.16,-199.25 1123.09,-193.55 1112.55,-192.44 1114.16,-199.25"/>
</g>
<!-- Node9&#45;&gt;Node7 -->
<g id="edge40" class="edge">
<title>Node9&#45;&gt;Node7</title>
<path fill="none" stroke="midnightblue" d="M879.37,-332.43C887.31,-328.95 895.1,-324.26 901,-318 934.55,-282.41 903.24,-249.39 937,-214 940.63,-210.19 944.95,-206.97 949.58,-204.25"/>
<polygon fill="midnightblue" stroke="midnightblue" points="951.41,-207.25 958.76,-199.62 948.26,-201 951.41,-207.25"/>
</g>
<!-- Node10 -->
<g id="node10" class="node">
<title>Node10</title>
<g id="a_node10"><a xlink:href="classGPS.html#a20f1883fa42ff859903a07444ac15628" target="_top" xlink:title=" ">
<polygon fill="white" stroke="black" points="956.5,-294.5 956.5,-313.5 1039.5,-313.5 1039.5,-294.5 956.5,-294.5"/>
<text text-anchor="middle" x="998" y="-301.5" font-family="Helvetica,sans-Serif" font-size="10.00">GPS::logNMEA</text>
</a>
</g>
</g>
<!-- Node9&#45;&gt;Node10 -->
<g id="edge13" class="edge">
<title>Node9&#45;&gt;Node10</title>
<path fill="none" stroke="midnightblue" d="M881.86,-332.41C902.09,-327.42 927.02,-321.27 948.5,-315.97"/>
<polygon fill="midnightblue" stroke="midnightblue" points="949.55,-319.31 958.42,-313.52 947.87,-312.52 949.55,-319.31"/>
</g>
<!-- Node11 -->
<g id="node11" class="node">
<title>Node11</title>
<g id="a_node11"><a xlink:href="classGPS.html#a6fbf5e49f6a05b056835666f2e1cb830" target="_top" xlink:title=" ">
<polygon fill="white" stroke="black" points="941.5,-370.5 941.5,-389.5 1054.5,-389.5 1054.5,-370.5 941.5,-370.5"/>
<text text-anchor="middle" x="998" y="-377.5" font-family="Helvetica,sans-Serif" font-size="10.00">GPS::processGPGGA</text>
</a>
</g>
</g>
<!-- Node9&#45;&gt;Node11 -->
<g id="edge14" class="edge">
<title>Node9&#45;&gt;Node11</title>
<path fill="none" stroke="midnightblue" d="M881.86,-351.59C902.09,-356.58 927.02,-362.73 948.5,-368.03"/>
<polygon fill="midnightblue" stroke="midnightblue" points="947.87,-371.48 958.42,-370.48 949.55,-364.69 947.87,-371.48"/>
</g>
<!-- Node23 -->
<g id="node23" class="node">
<title>Node23</title>
<g id="a_node23"><a xlink:href="classGPS.html#a9f0cacdc6f30465399f19ccb19edde1a" target="_top" xlink:title=" ">
<polygon fill="white" stroke="black" points="941.5,-471.5 941.5,-490.5 1054.5,-490.5 1054.5,-471.5 941.5,-471.5"/>
<text text-anchor="middle" x="998" y="-478.5" font-family="Helvetica,sans-Serif" font-size="10.00">GPS::processGPRMC</text>
</a>
</g>
</g>
<!-- Node9&#45;&gt;Node23 -->
<g id="edge27" class="edge">
<title>Node9&#45;&gt;Node23</title>
<path fill="none" stroke="midnightblue" d="M853.59,-351.55C879.52,-374.96 946.48,-435.4 978.89,-464.65"/>
<polygon fill="midnightblue" stroke="midnightblue" points="976.57,-467.28 986.34,-471.38 981.26,-462.08 976.57,-467.28"/>
</g>
<!-- Node27 -->
<g id="node27" class="node">
<title>Node27</title>
<g id="a_node27"><a xlink:href="classGPS.html#a125284d30c7901ba52ed190e519bc3b2" target="_top" xlink:title=" ">
<polygon fill="white" stroke="black" points="937,-332.5 937,-351.5 1059,-351.5 1059,-332.5 937,-332.5"/>
<text text-anchor="middle" x="998" y="-339.5" font-family="Helvetica,sans-Serif" font-size="10.00">GPS::removeNMEAmsg</text>
</a>
</g>
</g>
<!-- Node9&#45;&gt;Node27 -->
<g id="edge35" class="edge">
<title>Node9&#45;&gt;Node27</title>
<path fill="none" stroke="midnightblue" d="M901.22,-342C909.61,-342 918.31,-342 926.9,-342"/>
<polygon fill="midnightblue" stroke="midnightblue" points="926.9,-345.5 936.9,-342 926.9,-338.5 926.9,-345.5"/>
</g>
<!-- Node29 -->
<g id="node29" class="node">
<title>Node29</title>
<g id="a_node29"><a xlink:href="classGPS.html#a052c61711107964bbde54f86edb110ff" target="_top" xlink:title=" ">
<polygon fill="white" stroke="black" points="947.5,-256.5 947.5,-275.5 1048.5,-275.5 1048.5,-256.5 947.5,-256.5"/>
<text text-anchor="middle" x="998" y="-263.5" font-family="Helvetica,sans-Serif" font-size="10.00">GPS::setGPS10HZ</text>
</a>
</g>
</g>
<!-- Node9&#45;&gt;Node29 -->
<g id="edge38" class="edge">
<title>Node9&#45;&gt;Node29</title>
<path fill="none" stroke="midnightblue" d="M871.72,-332.41C881.38,-328.6 891.99,-323.74 901,-318 919.31,-306.34 918.21,-295.87 937,-285 940.67,-282.88 944.61,-280.96 948.65,-279.24"/>
<polygon fill="midnightblue" stroke="midnightblue" points="950.1,-282.43 958.17,-275.56 947.58,-275.9 950.1,-282.43"/>
</g>
<!-- Node11&#45;&gt;Node3 -->
<g id="edge22" class="edge">
<title>Node11&#45;&gt;Node3</title>
<path fill="none" stroke="midnightblue" d="M1046.43,-370.4C1051.12,-367.94 1055.45,-364.86 1059,-361 1107.78,-308.01 1045.18,-255.01 1095,-203 1096.4,-201.54 1097.89,-200.2 1099.47,-198.95"/>
<polygon fill="midnightblue" stroke="midnightblue" points="1101.42,-201.85 1107.95,-193.51 1097.64,-195.96 1101.42,-201.85"/>
</g>
<!-- Node12 -->
<g id="node12" class="node">
<title>Node12</title>
<g id="a_node12"><a xlink:href="classGPS.html#a894018a07e73bdc11af81f5db97f6b28" target="_top" xlink:title=" ">
<polygon fill="white" stroke="black" points="1114,-414.5 1114,-433.5 1217,-433.5 1217,-414.5 1114,-414.5"/>
<text text-anchor="middle" x="1165.5" y="-421.5" font-family="Helvetica,sans-Serif" font-size="10.00">GPS::checknewLap</text>
</a>
</g>
</g>
<!-- Node11&#45;&gt;Node12 -->
<g id="edge15" class="edge">
<title>Node11&#45;&gt;Node12</title>
<path fill="none" stroke="midnightblue" d="M1034.91,-389.55C1059.53,-396.09 1092.39,-404.83 1118.86,-411.87"/>
<polygon fill="midnightblue" stroke="midnightblue" points="1118.1,-415.28 1128.66,-414.47 1119.89,-408.52 1118.1,-415.28"/>
</g>
<!-- Node17 -->
<g id="node17" class="node">
<title>Node17</title>
<g id="a_node17"><a xlink:href="classGPS.html#a75bada3072c3235ae1d076d5ce002175" target="_top" xlink:title=" ">
<polygon fill="white" stroke="black" points="1105,-376.5 1105,-395.5 1226,-395.5 1226,-376.5 1105,-376.5"/>
<text text-anchor="middle" x="1165.5" y="-383.5" font-family="Helvetica,sans-Serif" font-size="10.00">GPS::convertToDecimal</text>
</a>
</g>
</g>
<!-- Node11&#45;&gt;Node17 -->
<g id="edge20" class="edge">
<title>Node11&#45;&gt;Node17</title>
<path fill="none" stroke="midnightblue" d="M1054.57,-382.01C1067.44,-382.48 1081.3,-382.98 1094.69,-383.47"/>
<polygon fill="midnightblue" stroke="midnightblue" points="1094.7,-386.97 1104.82,-383.84 1094.95,-379.98 1094.7,-386.97"/>
</g>
<!-- Node18 -->
<g id="node18" class="node">
<title>Node18</title>
<g id="a_node18"><a xlink:href="classDashBoard.html#a998569aa565c0a5a872810160266f681" target="_top" xlink:title=" ">
<polygon fill="white" stroke="black" points="1100,-338.5 1100,-357.5 1231,-357.5 1231,-338.5 1100,-338.5"/>
<text text-anchor="middle" x="1165.5" y="-345.5" font-family="Helvetica,sans-Serif" font-size="10.00">DashBoard::setgpsAltitude</text>
</a>
</g>
</g>
<!-- Node11&#45;&gt;Node18 -->
<g id="edge21" class="edge">
<title>Node11&#45;&gt;Node18</title>
<path fill="none" stroke="midnightblue" d="M1048.21,-370.49C1066.14,-367.02 1086.6,-363.06 1105.3,-359.45"/>
<polygon fill="midnightblue" stroke="midnightblue" points="1106.04,-362.87 1115.2,-357.53 1104.71,-356 1106.04,-362.87"/>
</g>
<!-- Node19 -->
<g id="node19" class="node">
<title>Node19</title>
<g id="a_node19"><a xlink:href="classDashBoard.html#a5eb7cceabcdbd62521c9512cba7fbf02" target="_top" xlink:title=" ">
<polygon fill="white" stroke="black" points="1102,-300.5 1102,-319.5 1229,-319.5 1229,-300.5 1102,-300.5"/>
<text text-anchor="middle" x="1165.5" y="-307.5" font-family="Helvetica,sans-Serif" font-size="10.00">DashBoard::setgpsHDOP</text>
</a>
</g>
</g>
<!-- Node11&#45;&gt;Node19 -->
<g id="edge23" class="edge">
<title>Node11&#45;&gt;Node19</title>
<path fill="none" stroke="midnightblue" d="M1037.46,-370.47C1044.85,-367.91 1052.35,-364.78 1059,-361 1077.61,-350.43 1076.18,-339.2 1095,-329 1099.18,-326.73 1103.65,-324.72 1108.23,-322.94"/>
<polygon fill="midnightblue" stroke="midnightblue" points="1109.47,-326.22 1117.74,-319.59 1107.14,-319.61 1109.47,-326.22"/>
</g>
<!-- Node20 -->
<g id="node20" class="node">
<title>Node20</title>
<g id="a_node20"><a xlink:href="classDashBoard.html#a13f7ff18107138daa6618a4564e935be" target="_top" xlink:title=" ">
<polygon fill="white" stroke="black" points="1098.5,-490.5 1098.5,-509.5 1232.5,-509.5 1232.5,-490.5 1098.5,-490.5"/>
<text text-anchor="middle" x="1165.5" y="-497.5" font-family="Helvetica,sans-Serif" font-size="10.00">DashBoard::setgpsLatitude</text>
</a>
</g>
</g>
<!-- Node11&#45;&gt;Node20 -->
<g id="edge24" class="edge">
<title>Node11&#45;&gt;Node20</title>
<path fill="none" stroke="midnightblue" d="M1005.43,-389.72C1019.3,-409.92 1054.09,-456.55 1095,-481 1098.62,-483.17 1102.5,-485.09 1106.5,-486.8"/>
<polygon fill="midnightblue" stroke="midnightblue" points="1105.4,-490.13 1115.99,-490.41 1107.89,-483.59 1105.4,-490.13"/>
</g>
<!-- Node21 -->
<g id="node21" class="node">
<title>Node21</title>
<g id="a_node21"><a xlink:href="classDashBoard.html#a32b0f4d9b9cdbecb02c96c9e814f0114" target="_top" xlink:title=" ">
<polygon fill="white" stroke="black" points="1095,-452.5 1095,-471.5 1236,-471.5 1236,-452.5 1095,-452.5"/>
<text text-anchor="middle" x="1165.5" y="-459.5" font-family="Helvetica,sans-Serif" font-size="10.00">DashBoard::setgpsLongitude</text>
</a>
</g>
</g>
<!-- Node11&#45;&gt;Node21 -->
<g id="edge25" class="edge">
<title>Node11&#45;&gt;Node21</title>
<path fill="none" stroke="midnightblue" d="M1011,-389.69C1028.5,-403.37 1062.47,-428.33 1095,-443 1100.26,-445.37 1105.88,-447.51 1111.56,-449.41"/>
<polygon fill="midnightblue" stroke="midnightblue" points="1110.53,-452.76 1121.12,-452.4 1112.62,-446.08 1110.53,-452.76"/>
</g>
<!-- Node22 -->
<g id="node22" class="node">
<title>Node22</title>
<g id="a_node22"><a xlink:href="classDashBoard.html#a3e4b2d7b59990a8fcf2d6b561ad30fba" target="_top" xlink:title=" ">
<polygon fill="white" stroke="black" points="1101.5,-251 1101.5,-281 1229.5,-281 1229.5,-251 1101.5,-251"/>
<text text-anchor="start" x="1109.5" y="-269" font-family="Helvetica,sans-Serif" font-size="10.00">DashBoard::setgpsVisible</text>
<text text-anchor="middle" x="1165.5" y="-258" font-family="Helvetica,sans-Serif" font-size="10.00">Satelites</text>
</a>
</g>
</g>
<!-- Node11&#45;&gt;Node22 -->
<g id="edge26" class="edge">
<title>Node11&#45;&gt;Node22</title>
<path fill="none" stroke="midnightblue" d="M1043.39,-370.42C1049.02,-367.97 1054.41,-364.88 1059,-361 1085.73,-338.43 1068.71,-314.08 1095,-291 1096.94,-289.3 1099,-287.71 1101.16,-286.22"/>
<polygon fill="midnightblue" stroke="midnightblue" points="1103.09,-289.15 1109.87,-281.01 1099.49,-283.14 1103.09,-289.15"/>
</g>
<!-- Node13 -->
<g id="node13" class="node">
<title>Node13</title>
<g id="a_node13"><a xlink:href="gps_8cpp.html#a356f47852da8a45bf4dd9944e08b7d3e" target="_top" xlink:title=" ">
<polygon fill="white" stroke="black" points="1309,-471.5 1309,-490.5 1368,-490.5 1368,-471.5 1309,-471.5"/>
<text text-anchor="middle" x="1338.5" y="-478.5" font-family="Helvetica,sans-Serif" font-size="10.00">fastestlap</text>
</a>
</g>
</g>
<!-- Node12&#45;&gt;Node13 -->
<g id="edge16" class="edge">
<title>Node12&#45;&gt;Node13</title>
<path fill="none" stroke="midnightblue" d="M1207.41,-433.58C1216.93,-436.25 1226.93,-439.42 1236,-443 1252.83,-449.65 1255.23,-455.22 1272,-462 1280.53,-465.45 1289.93,-468.55 1298.87,-471.21"/>
<polygon fill="midnightblue" stroke="midnightblue" points="1298.12,-474.64 1308.7,-474.01 1300.04,-467.9 1298.12,-474.64"/>
</g>
<!-- Node14 -->
<g id="node14" class="node">
<title>Node14</title>
<g id="a_node14"><a xlink:href="classDashBoard.html#ae5d69bcab58e2e497902387d03cc9146" target="_top" xlink:title=" ">
<polygon fill="white" stroke="black" points="1272,-433.5 1272,-452.5 1405,-452.5 1405,-433.5 1272,-433.5"/>
<text text-anchor="middle" x="1338.5" y="-440.5" font-family="Helvetica,sans-Serif" font-size="10.00">DashBoard::setbestlaptime</text>
</a>
</g>
</g>
<!-- Node12&#45;&gt;Node14 -->
<g id="edge17" class="edge">
<title>Node12&#45;&gt;Node14</title>
<path fill="none" stroke="midnightblue" d="M1217.34,-429.65C1231.26,-431.2 1246.65,-432.91 1261.65,-434.57"/>
<polygon fill="midnightblue" stroke="midnightblue" points="1261.61,-438.09 1271.94,-435.72 1262.39,-431.13 1261.61,-438.09"/>
</g>
<!-- Node15 -->
<g id="node15" class="node">
<title>Node15</title>
<g id="a_node15"><a xlink:href="classDashBoard.html#af147e933576adcd81892aca4e74df784" target="_top" xlink:title=" ">
<polygon fill="white" stroke="black" points="1274,-395.5 1274,-414.5 1403,-414.5 1403,-395.5 1274,-395.5"/>
<text text-anchor="middle" x="1338.5" y="-402.5" font-family="Helvetica,sans-Serif" font-size="10.00">DashBoard::setcurrentLap</text>
</a>
</g>
</g>
<!-- Node12&#45;&gt;Node15 -->
<g id="edge18" class="edge">
<title>Node12&#45;&gt;Node15</title>
<path fill="none" stroke="midnightblue" d="M1217.34,-418.35C1231.88,-416.74 1248.02,-414.94 1263.64,-413.21"/>
<polygon fill="midnightblue" stroke="midnightblue" points="1264.25,-416.66 1273.81,-412.08 1263.48,-409.7 1264.25,-416.66"/>
</g>
<!-- Node16 -->
<g id="node16" class="node">
<title>Node16</title>
<g id="a_node16"><a xlink:href="classDashBoard.html#a023ed00fbd93bad06e98426b7583022c" target="_top" xlink:title=" ">
<polygon fill="white" stroke="black" points="1281.5,-357.5 1281.5,-376.5 1395.5,-376.5 1395.5,-357.5 1281.5,-357.5"/>
<text text-anchor="middle" x="1338.5" y="-364.5" font-family="Helvetica,sans-Serif" font-size="10.00">DashBoard::setlaptime</text>
</a>
</g>
</g>
<!-- Node12&#45;&gt;Node16 -->
<g id="edge19" class="edge">
<title>Node12&#45;&gt;Node16</title>
<path fill="none" stroke="midnightblue" d="M1207.41,-414.42C1216.93,-411.75 1226.93,-408.58 1236,-405 1252.83,-398.35 1255.23,-392.78 1272,-386 1277.76,-383.67 1283.92,-381.5 1290.06,-379.52"/>
<polygon fill="midnightblue" stroke="midnightblue" points="1291.12,-382.85 1299.64,-376.56 1289.06,-376.16 1291.12,-382.85"/>
</g>
<!-- Node23&#45;&gt;Node12 -->
<g id="edge28" class="edge">
<title>Node23&#45;&gt;Node12</title>
<path fill="none" stroke="midnightblue" d="M1021.24,-471.39C1040.54,-463.24 1069.32,-451.56 1095,-443 1102.1,-440.63 1109.67,-438.34 1117.11,-436.2"/>
<polygon fill="midnightblue" stroke="midnightblue" points="1118.07,-439.57 1126.76,-433.51 1116.19,-432.83 1118.07,-439.57"/>
</g>
<!-- Node23&#45;&gt;Node17 -->
<g id="edge29" class="edge">
<title>Node23&#45;&gt;Node17</title>
<path fill="none" stroke="midnightblue" d="M1008.43,-471.32C1024.65,-455.22 1059.53,-422.94 1095,-405 1099.56,-402.7 1104.43,-400.64 1109.4,-398.82"/>
<polygon fill="midnightblue" stroke="midnightblue" points="1110.65,-402.09 1119.02,-395.59 1108.42,-395.45 1110.65,-402.09"/>
</g>
<!-- Node23&#45;&gt;Node20 -->
<g id="edge31" class="edge">
<title>Node23&#45;&gt;Node20</title>
<path fill="none" stroke="midnightblue" d="M1054.57,-487.38C1065.46,-488.63 1077.07,-489.96 1088.49,-491.27"/>
<polygon fill="midnightblue" stroke="midnightblue" points="1088.14,-494.76 1098.47,-492.42 1088.94,-487.8 1088.14,-494.76"/>
</g>
<!-- Node23&#45;&gt;Node21 -->
<g id="edge32" class="edge">
<title>Node23&#45;&gt;Node21</title>
<path fill="none" stroke="midnightblue" d="M1054.57,-474.62C1064.29,-473.5 1074.57,-472.32 1084.79,-471.15"/>
<polygon fill="midnightblue" stroke="midnightblue" points="1085.43,-474.6 1094.97,-469.98 1084.63,-467.65 1085.43,-474.6"/>
</g>
<!-- Node24 -->
<g id="node24" class="node">
<title>Node24</title>
<g id="a_node24"><a xlink:href="classDashBoard.html#a7efb6b0a187fa08bf3543c8ce0d40738" target="_top" xlink:title=" ">
<polygon fill="white" stroke="black" points="1100.5,-528.5 1100.5,-547.5 1230.5,-547.5 1230.5,-528.5 1100.5,-528.5"/>
<text text-anchor="middle" x="1165.5" y="-535.5" font-family="Helvetica,sans-Serif" font-size="10.00">DashBoard::setgpsbearing</text>
</a>
</g>
</g>
<!-- Node23&#45;&gt;Node24 -->
<g id="edge30" class="edge">
<title>Node23&#45;&gt;Node24</title>
<path fill="none" stroke="midnightblue" d="M1021.24,-490.61C1040.54,-498.76 1069.32,-510.44 1095,-519 1102.1,-521.37 1109.67,-523.66 1117.11,-525.8"/>
<polygon fill="midnightblue" stroke="midnightblue" points="1116.19,-529.17 1126.76,-528.49 1118.07,-522.43 1116.19,-529.17"/>
</g>
<!-- Node25 -->
<g id="node25" class="node">
<title>Node25</title>
<g id="a_node25"><a xlink:href="classDashBoard.html#a16ed8cfba91338bea76b8ab5acd2a1c2" target="_top" xlink:title=" ">
<polygon fill="white" stroke="black" points="1102.5,-604.5 1102.5,-623.5 1228.5,-623.5 1228.5,-604.5 1102.5,-604.5"/>
<text text-anchor="middle" x="1165.5" y="-611.5" font-family="Helvetica,sans-Serif" font-size="10.00">DashBoard::setgpsSpeed</text>
</a>
</g>
</g>
<!-- Node23&#45;&gt;Node25 -->
<g id="edge33" class="edge">
<title>Node23&#45;&gt;Node25</title>
<path fill="none" stroke="midnightblue" d="M1004.32,-490.65C1016.99,-512.68 1051.18,-566.98 1095,-595 1098.34,-597.14 1101.92,-599.04 1105.63,-600.72"/>
<polygon fill="midnightblue" stroke="midnightblue" points="1104.47,-604.03 1115.06,-604.5 1107.07,-597.53 1104.47,-604.03"/>
</g>
<!-- Node26 -->
<g id="node26" class="node">
<title>Node26</title>
<g id="a_node26"><a xlink:href="classDashBoard.html#ae93b793d4f4bd43d954cc08ccb8431e4" target="_top" xlink:title=" ">
<polygon fill="white" stroke="black" points="1105.5,-566.5 1105.5,-585.5 1225.5,-585.5 1225.5,-566.5 1105.5,-566.5"/>
<text text-anchor="middle" x="1165.5" y="-573.5" font-family="Helvetica,sans-Serif" font-size="10.00">DashBoard::setgpsTime</text>
</a>
</g>
</g>
<!-- Node23&#45;&gt;Node26 -->
<g id="edge34" class="edge">
<title>Node23&#45;&gt;Node26</title>
<path fill="none" stroke="midnightblue" d="M1008.43,-490.68C1024.65,-506.78 1059.53,-539.06 1095,-557 1099.56,-559.3 1104.43,-561.36 1109.4,-563.18"/>
<polygon fill="midnightblue" stroke="midnightblue" points="1108.42,-566.55 1119.02,-566.41 1110.65,-559.91 1108.42,-566.55"/>
</g>
<!-- Node27&#45;&gt;Node3 -->
<g id="edge36" class="edge">
<title>Node27&#45;&gt;Node3</title>
<path fill="none" stroke="midnightblue" d="M1045.58,-332.45C1050.54,-329.99 1055.17,-326.89 1059,-323 1098.07,-283.33 1055.15,-241.89 1095,-203 1096.48,-201.56 1098.05,-200.22 1099.71,-198.99"/>
<polygon fill="midnightblue" stroke="midnightblue" points="1101.84,-201.79 1108.56,-193.6 1098.2,-195.81 1101.84,-201.79"/>
</g>
<!-- Node28 -->
<g id="node28" class="node">
<title>Node28</title>
<g id="a_node28"><a xlink:href="classGPS.html#aeae2cbce7d09b6441ebd1b788dac12b7" target="_top" xlink:title=" ">
<polygon fill="white" stroke="black" points="1117.5,-212.5 1117.5,-231.5 1213.5,-231.5 1213.5,-212.5 1117.5,-212.5"/>
<text text-anchor="middle" x="1165.5" y="-219.5" font-family="Helvetica,sans-Serif" font-size="10.00">GPS::setGPSOnly</text>
</a>
</g>
</g>
<!-- Node27&#45;&gt;Node28 -->
<g id="edge37" class="edge">
<title>Node27&#45;&gt;Node28</title>
<path fill="none" stroke="midnightblue" d="M1044.22,-332.41C1049.6,-329.95 1054.69,-326.87 1059,-323 1088.61,-296.4 1064.87,-267 1095,-241 1098.77,-237.75 1103.04,-235.05 1107.58,-232.81"/>
<polygon fill="midnightblue" stroke="midnightblue" points="1109.27,-235.89 1117.16,-228.82 1106.59,-229.43 1109.27,-235.89"/>
</g>
<!-- Node29&#45;&gt;Node3 -->
<g id="edge39" class="edge">
<title>Node29&#45;&gt;Node3</title>
<path fill="none" stroke="midnightblue" d="M1030.55,-256.4C1040.14,-252.7 1050.41,-247.92 1059,-242 1078.43,-228.62 1074.84,-215.25 1095,-203 1098.61,-200.81 1102.47,-198.86 1106.46,-197.14"/>
<polygon fill="midnightblue" stroke="midnightblue" points="1107.86,-200.35 1115.94,-193.5 1105.35,-193.82 1107.86,-200.35"/>
</g>
<!-- Node30&#45;&gt;Node3 -->
<g id="edge50" class="edge">
<title>Node30&#45;&gt;Node3</title>
<path fill="none" stroke="midnightblue" d="M455.01,-90C513.83,-84.11 609.89,-76 693,-76 693,-76 693,-76 843,-76 940.55,-76 968.37,-78.91 1059,-115 1091.91,-128.11 1125.39,-152.23 1145.55,-168.19"/>
<polygon fill="midnightblue" stroke="midnightblue" points="1143.36,-170.92 1153.34,-174.48 1147.75,-165.47 1143.36,-170.92"/>
</g>
<!-- Node30&#45;&gt;Node5 -->
<g id="edge44" class="edge">
<title>Node30&#45;&gt;Node5</title>
<path fill="none" stroke="midnightblue" d="M422.67,-105.65C440.99,-113.35 467.51,-124.25 491,-133 496.55,-135.07 502.44,-137.17 508.23,-139.18"/>
<polygon fill="midnightblue" stroke="midnightblue" points="507.22,-142.53 517.82,-142.46 509.49,-135.91 507.22,-142.53"/>
</g>
<!-- Node31 -->
<g id="node31" class="node">
<title>Node31</title>
<g id="a_node31"><a xlink:href="classGPS.html#ac2a7572afb184df9c14ae913f17306bf" target="_top" xlink:title=" ">
<polygon fill="white" stroke="black" points="499,-180.5 499,-199.5 597,-199.5 597,-180.5 499,-180.5"/>
<text text-anchor="middle" x="548" y="-187.5" font-family="Helvetica,sans-Serif" font-size="10.00">GPS::initSerialPort</text>
</a>
</g>
</g>
<!-- Node30&#45;&gt;Node31 -->
<g id="edge45" class="edge">
<title>Node30&#45;&gt;Node31</title>
<path fill="none" stroke="midnightblue" d="M409.23,-105.6C424.77,-121.27 457.73,-152.47 491,-171 494.73,-173.08 498.73,-174.99 502.81,-176.72"/>
<polygon fill="midnightblue" stroke="midnightblue" points="501.81,-180.08 512.4,-180.45 504.35,-173.56 501.81,-180.08"/>
</g>
<!-- Node32 -->
<g id="node32" class="node">
<title>Node32</title>
<g id="a_node32"><a xlink:href="classSerialPort.html#aad156293689e349b3674671f8a8d8048" target="_top" xlink:title=" ">
<polygon fill="white" stroke="black" points="497,-104.5 497,-123.5 599,-123.5 599,-104.5 497,-104.5"/>
<text text-anchor="middle" x="548" y="-111.5" font-family="Helvetica,sans-Serif" font-size="10.00">SerialPort::setParity</text>
</a>
</g>
</g>
<!-- Node30&#45;&gt;Node32 -->
<g id="edge51" class="edge">
<title>Node30&#45;&gt;Node32</title>
<path fill="none" stroke="midnightblue" d="M455.16,-102.75C465.53,-104.02 476.42,-105.36 486.93,-106.64"/>
<polygon fill="midnightblue" stroke="midnightblue" points="486.52,-110.12 496.87,-107.86 487.37,-103.17 486.52,-110.12"/>
</g>
<!-- Node31&#45;&gt;Node2 -->
<g id="edge46" class="edge">
<title>Node31&#45;&gt;Node2</title>
<path fill="none" stroke="midnightblue" d="M581.53,-180.48C589.37,-177.78 597.61,-174.58 605,-171 629.28,-159.25 654.93,-142 672.24,-129.56"/>
<polygon fill="midnightblue" stroke="midnightblue" points="674.46,-132.27 680.47,-123.55 670.33,-126.62 674.46,-132.27"/>
</g>
<!-- Node31&#45;&gt;Node4 -->
<g id="edge47" class="edge">
<title>Node31&#45;&gt;Node4</title>
<path fill="none" stroke="midnightblue" d="M498.91,-187.62C457.4,-185.06 395.94,-180.09 343,-171 319.94,-167.04 294.61,-160.8 273.98,-155.22"/>
<polygon fill="midnightblue" stroke="midnightblue" points="274.83,-151.82 264.26,-152.54 272.97,-158.57 274.83,-151.82"/>
</g>
<!-- Node31&#45;&gt;Node6 -->
<g id="edge48" class="edge">
<title>Node31&#45;&gt;Node6</title>
<path fill="none" stroke="midnightblue" d="M597.35,-190C607.99,-190 619.39,-190 630.5,-190"/>
<polygon fill="midnightblue" stroke="midnightblue" points="630.58,-193.5 640.58,-190 630.58,-186.5 630.58,-193.5"/>
</g>
<!-- Node31&#45;&gt;Node8 -->
<g id="edge49" class="edge">
<title>Node31&#45;&gt;Node8</title>
<path fill="none" stroke="midnightblue" d="M573.1,-199.54C596.67,-208.87 632.78,-223.16 659.21,-233.62"/>
<polygon fill="midnightblue" stroke="midnightblue" points="658.23,-237 668.82,-237.43 660.81,-230.49 658.23,-237"/>
</g>
</g>
</svg>
