<?xml version="1.0" encoding="UTF-8" standalone="no"?>
<!DOCTYPE svg PUBLIC "-//W3C//DTD SVG 1.1//EN"
 "http://www.w3.org/Graphics/SVG/1.1/DTD/svg11.dtd">
<!-- Generated by graphviz version 2.49.3 (20211027.1534)
 -->
<!-- Title: AppSettings::setValue Pages: 1 -->
<svg width="327pt" height="941pt"
 viewBox="0.00 0.00 327.00 940.50" xmlns="http://www.w3.org/2000/svg" xmlns:xlink="http://www.w3.org/1999/xlink">
<g id="graph0" class="graph" transform="scale(1 1) rotate(0) translate(4 936.5)">
<title>AppSettings::setValue</title>
<polygon fill="white" stroke="transparent" points="-4,4 -4,-936.5 323,-936.5 323,4 -4,4"/>
<!-- Node1 -->
<g id="node1" class="node">
<title>Node1</title>
<g id="a_node1"><a xlink:title=" ">
<polygon fill="#bfbfbf" stroke="black" points="206,-490 206,-509 319,-509 319,-490 206,-490"/>
<text text-anchor="middle" x="262.5" y="-497" font-family="Helvetica,sans-Serif" font-size="10.00">AppSettings::setValue</text>
</a>
</g>
</g>
<!-- Node2 -->
<g id="node2" class="node">
<title>Node2</title>
<g id="a_node2"><a xlink:href="classAppSettings.html#a6d5210edfc43156b8a69d8df3c5f5721" target="_top" xlink:title=" ">
<polygon fill="white" stroke="black" points="19.5,-913 19.5,-932 150.5,-932 150.5,-913 19.5,-913"/>
<text text-anchor="middle" x="85" y="-920" font-family="Helvetica,sans-Serif" font-size="10.00">AppSettings::setBaudRate</text>
</a>
</g>
</g>
<!-- Node1&#45;&gt;Node2 -->
<g id="edge1" class="edge">
<title>Node1&#45;&gt;Node2</title>
<path fill="none" stroke="midnightblue" d="M259.74,-519.57C252.89,-593.34 225.52,-848 170,-903.5 164.5,-909 157.77,-913.04 150.54,-916.01"/>
<polygon fill="midnightblue" stroke="midnightblue" points="263.25,-519.62 260.67,-509.35 256.28,-518.99 263.25,-519.62"/>
</g>
<!-- Node3 -->
<g id="node3" class="node">
<title>Node3</title>
<g id="a_node3"><a xlink:href="classAppSettings.html#a5ffba9bb6edebbfc7acf797eeb57692c" target="_top" xlink:title=" ">
<polygon fill="white" stroke="black" points="22.5,-875 22.5,-894 147.5,-894 147.5,-875 22.5,-875"/>
<text text-anchor="middle" x="85" y="-882" font-family="Helvetica,sans-Serif" font-size="10.00">AppSettings::setDataBits</text>
</a>
</g>
</g>
<!-- Node1&#45;&gt;Node3 -->
<g id="edge2" class="edge">
<title>Node1&#45;&gt;Node3</title>
<path fill="none" stroke="midnightblue" d="M259.26,-519.43C251.08,-588.49 220.69,-815.94 170,-865.5 163.8,-871.56 156.1,-875.85 147.89,-878.86"/>
<polygon fill="midnightblue" stroke="midnightblue" points="262.78,-519.44 260.45,-509.11 255.82,-518.64 262.78,-519.44"/>
</g>
<!-- Node4 -->
<g id="node4" class="node">
<title>Node4</title>
<g id="a_node4"><a xlink:href="classAppSettings.html#ad7f84c35bb2abe1b04022362149c40f6" target="_top" xlink:title=" ">
<polygon fill="white" stroke="black" points="31,-837 31,-856 139,-856 139,-837 31,-837"/>
<text text-anchor="middle" x="85" y="-844" font-family="Helvetica,sans-Serif" font-size="10.00">AppSettings::setECU</text>
</a>
</g>
</g>
<!-- Node1&#45;&gt;Node4 -->
<g id="edge3" class="edge">
<title>Node1&#45;&gt;Node4</title>
<path fill="none" stroke="midnightblue" d="M258.7,-519.02C249.17,-582.84 215.96,-783.77 170,-827.5 161.55,-835.54 150.45,-840.44 139.1,-843.38"/>
<polygon fill="midnightblue" stroke="midnightblue" points="262.17,-519.47 260.16,-509.07 255.25,-518.45 262.17,-519.47"/>
</g>
<!-- Node5 -->
<g id="node5" class="node">
<title>Node5</title>
<g id="a_node5"><a xlink:href="classAppSettings.html#af53080a592e252b47e0806951c0cc0ae" target="_top" xlink:title=" ">
<polygon fill="white" stroke="black" points="15,-799 15,-818 155,-818 155,-799 15,-799"/>
<text text-anchor="middle" x="85" y="-806" font-family="Helvetica,sans-Serif" font-size="10.00">AppSettings::setFlowControl</text>
</a>
</g>
</g>
<!-- Node1&#45;&gt;Node5 -->
<g id="edge4" class="edge">
<title>Node1&#45;&gt;Node5</title>
<path fill="none" stroke="midnightblue" d="M261.56,-519.28C260.6,-571.77 250.37,-715.56 170,-789.5 165.6,-793.55 160.52,-796.8 155.09,-799.4"/>
<polygon fill="midnightblue" stroke="midnightblue" points="265.07,-519.04 261.65,-509.01 258.07,-518.98 265.07,-519.04"/>
</g>
<!-- Node6 -->
<g id="node6" class="node">
<title>Node6</title>
<g id="a_node6"><a xlink:href="classAppSettings.html#a5f79e39cdc26a5c3d33d2254c724d0c0" target="_top" xlink:title=" ">
<polygon fill="white" stroke="black" points="22,-761 22,-780 148,-780 148,-761 22,-761"/>
<text text-anchor="middle" x="85" y="-768" font-family="Helvetica,sans-Serif" font-size="10.00">AppSettings::setInterface</text>
</a>
</g>
</g>
<!-- Node1&#45;&gt;Node6 -->
<g id="edge5" class="edge">
<title>Node1&#45;&gt;Node6</title>
<path fill="none" stroke="midnightblue" d="M260.49,-519.23C256.92,-566.88 240.97,-688.95 170,-751.5 163.72,-757.04 156.17,-761.06 148.2,-763.97"/>
<polygon fill="midnightblue" stroke="midnightblue" points="263.99,-519.23 261.14,-509.03 257.01,-518.79 263.99,-519.23"/>
</g>
<!-- Node7 -->
<g id="node7" class="node">
<title>Node7</title>
<g id="a_node7"><a xlink:href="classAppSettings.html#a3698416d21b27fc49c64735149282a43" target="_top" xlink:title=" ">
<polygon fill="white" stroke="black" points="24,-723 24,-742 146,-742 146,-723 24,-723"/>
<text text-anchor="middle" x="85" y="-730" font-family="Helvetica,sans-Serif" font-size="10.00">AppSettings::setLogging</text>
</a>
</g>
</g>
<!-- Node1&#45;&gt;Node7 -->
<g id="edge6" class="edge">
<title>Node1&#45;&gt;Node7</title>
<path fill="none" stroke="midnightblue" d="M259.03,-519.41C252.65,-562 231.56,-662.22 170,-713.5 163.11,-719.24 154.83,-723.34 146.2,-726.24"/>
<polygon fill="midnightblue" stroke="midnightblue" points="262.51,-519.83 260.41,-509.45 255.57,-518.88 262.51,-519.83"/>
</g>
<!-- Node8 -->
<g id="node8" class="node">
<title>Node8</title>
<g id="a_node8"><a xlink:href="classAppSettings.html#a0e276549018b3456be3654eab2743648" target="_top" xlink:title=" ">
<polygon fill="white" stroke="black" points="28.5,-685 28.5,-704 141.5,-704 141.5,-685 28.5,-685"/>
<text text-anchor="middle" x="85" y="-692" font-family="Helvetica,sans-Serif" font-size="10.00">AppSettings::setParity</text>
</a>
</g>
</g>
<!-- Node1&#45;&gt;Node8 -->
<g id="edge7" class="edge">
<title>Node1&#45;&gt;Node8</title>
<path fill="none" stroke="midnightblue" d="M257.04,-519.36C247.68,-556.21 222.39,-635.1 170,-675.5 161.83,-681.8 151.96,-686.08 141.9,-688.98"/>
<polygon fill="midnightblue" stroke="midnightblue" points="260.51,-519.9 259.44,-509.36 253.7,-518.26 260.51,-519.9"/>
</g>
<!-- Node9 -->
<g id="node9" class="node">
<title>Node9</title>
<g id="a_node9"><a xlink:href="classAppSettings.html#acbbbc12d9b3b80f1d02227debd87884d" target="_top" xlink:title=" ">
<polygon fill="white" stroke="black" points="22.5,-647 22.5,-666 147.5,-666 147.5,-647 22.5,-647"/>
<text text-anchor="middle" x="85" y="-654" font-family="Helvetica,sans-Serif" font-size="10.00">AppSettings::setStopBits</text>
</a>
</g>
</g>
<!-- Node1&#45;&gt;Node9 -->
<g id="edge8" class="edge">
<title>Node1&#45;&gt;Node9</title>
<path fill="none" stroke="midnightblue" d="M254.42,-518.41C242.12,-548.58 213.81,-607.27 170,-637.5 163.23,-642.17 155.49,-645.71 147.52,-648.39"/>
<polygon fill="midnightblue" stroke="midnightblue" points="257.71,-519.61 258.11,-509.02 251.2,-517.05 257.71,-519.61"/>
</g>
<!-- Node10 -->
<g id="node10" class="node">
<title>Node10</title>
<g id="a_node10"><a xlink:href="classAppSettings.html#a264fac88461c5b9544e89b11b4f20d36" target="_top" xlink:title=" ">
<polygon fill="white" stroke="black" points="22.5,-597.5 22.5,-627.5 147.5,-627.5 147.5,-597.5 22.5,-597.5"/>
<text text-anchor="start" x="30.5" y="-615.5" font-family="Helvetica,sans-Serif" font-size="10.00">AppSettings::writeAnalog</text>
<text text-anchor="middle" x="85" y="-604.5" font-family="Helvetica,sans-Serif" font-size="10.00">Settings</text>
</a>
</g>
</g>
<!-- Node1&#45;&gt;Node10 -->
<g id="edge9" class="edge">
<title>Node1&#45;&gt;Node10</title>
<path fill="none" stroke="midnightblue" d="M247.62,-517.2C231.14,-537.07 201.85,-568.94 170,-587.5 163.03,-591.56 155.35,-595.01 147.55,-597.93"/>
<polygon fill="midnightblue" stroke="midnightblue" points="250.48,-519.23 254.06,-509.26 245.04,-514.82 250.48,-519.23"/>
</g>
<!-- Node11 -->
<g id="node11" class="node">
<title>Node11</title>
<g id="a_node11"><a xlink:href="classAppSettings.html#a402aa4e66a53f0ab5af5a1c12d8d33b3" target="_top" xlink:title=" ">
<polygon fill="white" stroke="black" points="0,-559 0,-578 170,-578 170,-559 0,-559"/>
<text text-anchor="middle" x="85" y="-566" font-family="Helvetica,sans-Serif" font-size="10.00">AppSettings::writebrightnessettings</text>
</a>
</g>
</g>
<!-- Node1&#45;&gt;Node11 -->
<g id="edge10" class="edge">
<title>Node1&#45;&gt;Node11</title>
<path fill="none" stroke="midnightblue" d="M238.25,-514.57C220.26,-525.63 194.37,-540.29 170,-549.5 160.07,-553.25 149.19,-556.38 138.64,-558.95"/>
<polygon fill="midnightblue" stroke="midnightblue" points="240.28,-517.43 246.9,-509.15 236.56,-511.49 240.28,-517.43"/>
</g>
<!-- Node12 -->
<g id="node12" class="node">
<title>Node12</title>
<g id="a_node12"><a xlink:href="classAppSettings.html#a139a02d75de7a86f95d1941aaac56ba2" target="_top" xlink:title=" ">
<polygon fill="white" stroke="black" points="21,-509.5 21,-539.5 149,-539.5 149,-509.5 21,-509.5"/>
<text text-anchor="start" x="29" y="-527.5" font-family="Helvetica,sans-Serif" font-size="10.00">AppSettings::writeCountry</text>
<text text-anchor="middle" x="85" y="-516.5" font-family="Helvetica,sans-Serif" font-size="10.00">Settings</text>
</a>
</g>
</g>
<!-- Node1&#45;&gt;Node12 -->
<g id="edge11" class="edge">
<title>Node1&#45;&gt;Node12</title>
<path fill="none" stroke="midnightblue" d="M196.04,-508.82C180.69,-511.01 164.36,-513.34 149.11,-515.51"/>
<polygon fill="midnightblue" stroke="midnightblue" points="196.56,-512.29 205.97,-507.41 195.58,-505.36 196.56,-512.29"/>
</g>
<!-- Node13 -->
<g id="node13" class="node">
<title>Node13</title>
<g id="a_node13"><a xlink:href="classAppSettings.html#ab77b143592c6f84013dc1b412e627f6d" target="_top" xlink:title=" ">
<polygon fill="white" stroke="black" points="20,-460.5 20,-490.5 150,-490.5 150,-460.5 20,-460.5"/>
<text text-anchor="start" x="28" y="-478.5" font-family="Helvetica,sans-Serif" font-size="10.00">AppSettings::writeCylinder</text>
<text text-anchor="middle" x="85" y="-467.5" font-family="Helvetica,sans-Serif" font-size="10.00">Settings</text>
</a>
</g>
</g>
<!-- Node1&#45;&gt;Node13 -->
<g id="edge12" class="edge">
<title>Node1&#45;&gt;Node13</title>
<path fill="none" stroke="midnightblue" d="M195.78,-490.51C180.81,-488.47 164.94,-486.29 150.04,-484.26"/>
<polygon fill="midnightblue" stroke="midnightblue" points="195.59,-494.02 205.97,-491.91 196.54,-487.08 195.59,-494.02"/>
</g>
<!-- Node14 -->
<g id="node14" class="node">
<title>Node14</title>
<g id="a_node14"><a xlink:href="classAppSettings.html#adbb124ed9b5975b78daadba4bbaa32a3" target="_top" xlink:title=" ">
<polygon fill="white" stroke="black" points="3,-411.5 3,-441.5 167,-441.5 167,-411.5 3,-411.5"/>
<text text-anchor="start" x="11" y="-429.5" font-family="Helvetica,sans-Serif" font-size="10.00">AppSettings::writeEXAN7damping</text>
<text text-anchor="middle" x="85" y="-418.5" font-family="Helvetica,sans-Serif" font-size="10.00">Settings</text>
</a>
</g>
</g>
<!-- Node1&#45;&gt;Node14 -->
<g id="edge13" class="edge">
<title>Node1&#45;&gt;Node14</title>
<path fill="none" stroke="midnightblue" d="M236.69,-484.8C218.63,-474.53 193.35,-460.99 170,-451.5 161.12,-447.89 151.52,-444.54 142.1,-441.55"/>
<polygon fill="midnightblue" stroke="midnightblue" points="235.02,-487.88 245.43,-489.84 238.51,-481.81 235.02,-487.88"/>
</g>
<!-- Node15 -->
<g id="node15" class="node">
<title>Node15</title>
<g id="a_node15"><a xlink:href="classAppSettings.html#a4531703d395e7ed5568f2738a9070b27" target="_top" xlink:title=" ">
<polygon fill="white" stroke="black" points="18,-362.5 18,-392.5 152,-392.5 152,-362.5 18,-362.5"/>
<text text-anchor="start" x="26" y="-380.5" font-family="Helvetica,sans-Serif" font-size="10.00">AppSettings::writeEXBoard</text>
<text text-anchor="middle" x="85" y="-369.5" font-family="Helvetica,sans-Serif" font-size="10.00">Settings</text>
</a>
</g>
</g>
<!-- Node1&#45;&gt;Node15 -->
<g id="edge14" class="edge">
<title>Node1&#45;&gt;Node15</title>
<path fill="none" stroke="midnightblue" d="M249.22,-481.58C233.38,-459.78 203.81,-423.32 170,-402.5 163.78,-398.67 156.94,-395.4 149.93,-392.61"/>
<polygon fill="midnightblue" stroke="midnightblue" points="246.51,-483.8 255.14,-489.93 252.22,-479.75 246.51,-483.8"/>
</g>
<!-- Node16 -->
<g id="node16" class="node">
<title>Node16</title>
<g id="a_node16"><a xlink:href="classAppSettings.html#ae8c34c2f3932e8d1d76d26a3551bfb1d" target="_top" xlink:title=" ">
<polygon fill="white" stroke="black" points="4,-313.5 4,-343.5 166,-343.5 166,-313.5 4,-313.5"/>
<text text-anchor="start" x="12" y="-331.5" font-family="Helvetica,sans-Serif" font-size="10.00">AppSettings::writeRPMFrequency</text>
<text text-anchor="middle" x="85" y="-320.5" font-family="Helvetica,sans-Serif" font-size="10.00">Settings</text>
</a>
</g>
</g>
<!-- Node1&#45;&gt;Node16 -->
<g id="edge15" class="edge">
<title>Node1&#45;&gt;Node16</title>
<path fill="none" stroke="midnightblue" d="M254.66,-480.31C242.54,-449.03 214.3,-387.19 170,-353.5 164.91,-349.63 159.23,-346.36 153.29,-343.59"/>
<polygon fill="midnightblue" stroke="midnightblue" points="251.5,-481.85 258.28,-490 258.06,-479.41 251.5,-481.85"/>
</g>
<!-- Node17 -->
<g id="node17" class="node">
<title>Node17</title>
<g id="a_node17"><a xlink:href="classAppSettings.html#afa30c7ad061739fceec748a0f00f98a2" target="_top" xlink:title=" ">
<polygon fill="white" stroke="black" points="8.5,-275 8.5,-294 161.5,-294 161.5,-275 8.5,-275"/>
<text text-anchor="middle" x="85" y="-282" font-family="Helvetica,sans-Serif" font-size="10.00">AppSettings::writeRPMSettings</text>
</a>
</g>
</g>
<!-- Node1&#45;&gt;Node17 -->
<g id="edge16" class="edge">
<title>Node1&#45;&gt;Node17</title>
<path fill="none" stroke="midnightblue" d="M258.05,-479.52C250.09,-439.75 226.62,-350.56 170,-304.5 164.65,-300.15 158.51,-296.71 152.04,-294.01"/>
<polygon fill="midnightblue" stroke="midnightblue" points="254.65,-480.37 259.93,-489.55 261.53,-479.08 254.65,-480.37"/>
</g>
<!-- Node18 -->
<g id="node18" class="node">
<title>Node18</title>
<g id="a_node18"><a xlink:href="classAppSettings.html#a6e0acc7a9c67dcc5f67625e2b5ff2dff" target="_top" xlink:title=" ">
<polygon fill="white" stroke="black" points="18,-225.5 18,-255.5 152,-255.5 152,-225.5 18,-225.5"/>
<text text-anchor="start" x="26" y="-243.5" font-family="Helvetica,sans-Serif" font-size="10.00">AppSettings::writeSelected</text>
<text text-anchor="middle" x="85" y="-232.5" font-family="Helvetica,sans-Serif" font-size="10.00">DashSettings</text>
</a>
</g>
</g>
<!-- Node1&#45;&gt;Node18 -->
<g id="edge17" class="edge">
<title>Node1&#45;&gt;Node18</title>
<path fill="none" stroke="midnightblue" d="M259.54,-479.65C254.05,-434.76 234.38,-324.72 170,-265.5 164.74,-260.66 158.57,-256.75 152.02,-253.6"/>
<polygon fill="midnightblue" stroke="midnightblue" points="256.09,-480.27 260.68,-489.82 263.05,-479.49 256.09,-480.27"/>
</g>
<!-- Node19 -->
<g id="node19" class="node">
<title>Node19</title>
<g id="a_node19"><a xlink:href="classAppSettings.html#a0bc689b962431aa02ed06b9342556343" target="_top" xlink:title=" ">
<polygon fill="white" stroke="black" points="5.5,-187 5.5,-206 164.5,-206 164.5,-187 5.5,-187"/>
<text text-anchor="middle" x="85" y="-194" font-family="Helvetica,sans-Serif" font-size="10.00">AppSettings::writeSpeedSettings</text>
</a>
</g>
</g>
<!-- Node1&#45;&gt;Node19 -->
<g id="edge18" class="edge">
<title>Node1&#45;&gt;Node19</title>
<path fill="none" stroke="midnightblue" d="M261.34,-479.88C259.81,-428.48 248.27,-288.82 170,-216.5 165.38,-212.23 160.01,-208.82 154.26,-206.1"/>
<polygon fill="midnightblue" stroke="midnightblue" points="257.84,-480.04 261.54,-489.97 264.84,-479.9 257.84,-480.04"/>
</g>
<!-- Node20 -->
<g id="node20" class="node">
<title>Node20</title>
<g id="a_node20"><a xlink:href="classAppSettings.html#a26f8c8e99079c220fe4832d3df925ef0" target="_top" xlink:title=" ">
<polygon fill="white" stroke="black" points="21.5,-137.5 21.5,-167.5 148.5,-167.5 148.5,-137.5 21.5,-137.5"/>
<text text-anchor="start" x="29.5" y="-155.5" font-family="Helvetica,sans-Serif" font-size="10.00">AppSettings::writeStartup</text>
<text text-anchor="middle" x="85" y="-144.5" font-family="Helvetica,sans-Serif" font-size="10.00">Settings</text>
</a>
</g>
</g>
<!-- Node1&#45;&gt;Node20 -->
<g id="edge19" class="edge">
<title>Node1&#45;&gt;Node20</title>
<path fill="none" stroke="midnightblue" d="M262.01,-479.39C262.3,-423.33 255.21,-263.78 170,-177.5 164.01,-171.44 156.62,-166.83 148.74,-163.33"/>
<polygon fill="midnightblue" stroke="midnightblue" points="258.51,-479.67 261.86,-489.72 265.51,-479.77 258.51,-479.67"/>
</g>
<!-- Node21 -->
<g id="node21" class="node">
<title>Node21</title>
<g id="a_node21"><a xlink:href="classAppSettings.html#a1c942959d7171088f9cdd138b36df260" target="_top" xlink:title=" ">
<polygon fill="white" stroke="black" points="18,-88.5 18,-118.5 152,-118.5 152,-88.5 18,-88.5"/>
<text text-anchor="start" x="26" y="-106.5" font-family="Helvetica,sans-Serif" font-size="10.00">AppSettings::writeSteinhart</text>
<text text-anchor="middle" x="85" y="-95.5" font-family="Helvetica,sans-Serif" font-size="10.00">Settings</text>
</a>
</g>
</g>
<!-- Node1&#45;&gt;Node21 -->
<g id="edge20" class="edge">
<title>Node1&#45;&gt;Node21</title>
<path fill="none" stroke="midnightblue" d="M259.23,-479.85C250.86,-410.78 219.66,-180.57 170,-128.5 164.96,-123.21 158.86,-119.03 152.27,-115.73"/>
<polygon fill="midnightblue" stroke="midnightblue" points="255.76,-480.31 260.41,-489.82 262.71,-479.48 255.76,-480.31"/>
</g>
<!-- Node22 -->
<g id="node22" class="node">
<title>Node22</title>
<g id="a_node22"><a xlink:href="classAppSettings.html#ae03d53a065c5f36d794db5793d5f508b" target="_top" xlink:title=" ">
<polygon fill="white" stroke="black" points="7,-50 7,-69 163,-69 163,-50 7,-50"/>
<text text-anchor="middle" x="85" y="-57" font-family="Helvetica,sans-Serif" font-size="10.00">AppSettings::writeTrackSettings</text>
</a>
</g>
</g>
<!-- Node1&#45;&gt;Node22 -->
<g id="edge21" class="edge">
<title>Node1&#45;&gt;Node22</title>
<path fill="none" stroke="midnightblue" d="M259.93,-479.62C253.56,-404.33 227.29,-137.9 170,-79.5 165.8,-75.22 160.86,-71.79 155.52,-69.05"/>
<polygon fill="midnightblue" stroke="midnightblue" points="256.44,-479.98 260.75,-489.66 263.42,-479.4 256.44,-479.98"/>
</g>
<!-- Node23 -->
<g id="node23" class="node">
<title>Node23</title>
<g id="a_node23"><a xlink:href="classAppSettings.html#aa54c28533522b9d55c514f195105a22f" target="_top" xlink:title=" ">
<polygon fill="white" stroke="black" points="15.5,-0.5 15.5,-30.5 154.5,-30.5 154.5,-0.5 15.5,-0.5"/>
<text text-anchor="start" x="23.5" y="-18.5" font-family="Helvetica,sans-Serif" font-size="10.00">AppSettings::writeWarnGear</text>
<text text-anchor="middle" x="85" y="-7.5" font-family="Helvetica,sans-Serif" font-size="10.00">Settings</text>
</a>
</g>
</g>
<!-- Node1&#45;&gt;Node23 -->
<g id="edge22" class="edge">
<title>Node1&#45;&gt;Node23</title>
<path fill="none" stroke="midnightblue" d="M260.24,-479.96C254.76,-401.05 230.52,-106.89 170,-40.5 165.59,-35.66 160.3,-31.75 154.53,-28.58"/>
<polygon fill="midnightblue" stroke="midnightblue" points="256.75,-480.25 260.91,-489.99 263.73,-479.78 256.75,-480.25"/>
</g>
</g>
</svg>
