<?xml version="1.0" encoding="UTF-8" standalone="no"?>
<!DOCTYPE svg PUBLIC "-//W3C//DTD SVG 1.1//EN"
 "http://www.w3.org/Graphics/SVG/1.1/DTD/svg11.dtd">
<!-- Generated by graphviz version 2.49.3 (20211027.1534)
 -->
<!-- Title: AdaptronicSelect::decodeAdaptronic Pages: 1 -->
<svg width="702pt" height="39pt"
 viewBox="0.00 0.00 702.00 39.00" xmlns="http://www.w3.org/2000/svg" xmlns:xlink="http://www.w3.org/1999/xlink">
<g id="graph0" class="graph" transform="scale(1 1) rotate(0) translate(4 35)">
<title>AdaptronicSelect::decodeAdaptronic</title>
<polygon fill="white" stroke="transparent" points="-4,4 -4,-35 698,-35 698,4 -4,4"/>
<!-- Node1 -->
<g id="node1" class="node">
<title>Node1</title>
<g id="a_node1"><a xlink:title=" ">
<polygon fill="#bfbfbf" stroke="black" points="567,-0.5 567,-30.5 694,-30.5 694,-0.5 567,-0.5"/>
<text text-anchor="start" x="575" y="-18.5" font-family="Helvetica,sans-Serif" font-size="10.00">AdaptronicSelect::decode</text>
<text text-anchor="middle" x="630.5" y="-7.5" font-family="Helvetica,sans-Serif" font-size="10.00">Adaptronic</text>
</a>
</g>
</g>
<!-- Node2 -->
<g id="node2" class="node">
<title>Node2</title>
<g id="a_node2"><a xlink:href="classAdaptronicSelect.html#af5ee85733260355dd5236c796c6a3fc5" target="_top" xlink:title=" ">
<polygon fill="white" stroke="black" points="379,-6 379,-25 531,-25 531,-6 379,-6"/>
<text text-anchor="middle" x="455" y="-13" font-family="Helvetica,sans-Serif" font-size="10.00">AdaptronicSelect::readyToRead</text>
</a>
</g>
</g>
<!-- Node1&#45;&gt;Node2 -->
<g id="edge1" class="edge">
<title>Node1&#45;&gt;Node2</title>
<path fill="none" stroke="midnightblue" d="M556.71,-15.5C548.3,-15.5 539.71,-15.5 531.26,-15.5"/>
<polygon fill="midnightblue" stroke="midnightblue" points="556.86,-19 566.86,-15.5 556.86,-12 556.86,-19"/>
</g>
<!-- Node3 -->
<g id="node3" class="node">
<title>Node3</title>
<g id="a_node3"><a xlink:href="classAdaptronicSelect.html#a79148c38700405eb6a3fc1338be170ab" target="_top" xlink:title=" ">
<polygon fill="white" stroke="black" points="201,-0.5 201,-30.5 343,-30.5 343,-0.5 201,-0.5"/>
<text text-anchor="start" x="209" y="-18.5" font-family="Helvetica,sans-Serif" font-size="10.00">AdaptronicSelect::Adaptronic</text>
<text text-anchor="middle" x="272" y="-7.5" font-family="Helvetica,sans-Serif" font-size="10.00">StartStream</text>
</a>
</g>
</g>
<!-- Node2&#45;&gt;Node3 -->
<g id="edge2" class="edge">
<title>Node2&#45;&gt;Node3</title>
<path fill="none" stroke="midnightblue" d="M368.75,-15.5C360.13,-15.5 351.45,-15.5 343.03,-15.5"/>
<polygon fill="midnightblue" stroke="midnightblue" points="368.81,-19 378.81,-15.5 368.81,-12 368.81,-19"/>
</g>
<!-- Node4 -->
<g id="node4" class="node">
<title>Node4</title>
<g id="a_node4"><a xlink:href="classAdaptronicSelect.html#a16932b235281a8071bdf5404df8160ac" target="_top" xlink:title=" ">
<polygon fill="white" stroke="black" points="0,-6 0,-25 165,-25 165,-6 0,-6"/>
<text text-anchor="middle" x="82.5" y="-13" font-family="Helvetica,sans-Serif" font-size="10.00">AdaptronicSelect::openConnection</text>
</a>
</g>
</g>
<!-- Node3&#45;&gt;Node4 -->
<g id="edge3" class="edge">
<title>Node3&#45;&gt;Node4</title>
<path fill="none" stroke="midnightblue" d="M190.7,-15.5C182.25,-15.5 173.65,-15.5 165.19,-15.5"/>
<polygon fill="midnightblue" stroke="midnightblue" points="190.92,-19 200.92,-15.5 190.92,-12 190.92,-19"/>
</g>
</g>
</svg>
