<?xml version="1.0" encoding="UTF-8" standalone="no"?>
<!DOCTYPE svg PUBLIC "-//W3C//DTD SVG 1.1//EN"
 "http://www.w3.org/Graphics/SVG/1.1/DTD/svg11.dtd">
<!-- Generated by graphviz version 2.49.3 (20211027.1534)
 -->
<!-- Title: Extender::openCAN Pages: 1 -->
<!--zoomable 712 -->
<svg id="main" version="1.1" xmlns="http://www.w3.org/2000/svg" xmlns:xlink="http://www.w3.org/1999/xlink" xml:space="preserve" onload="init(evt)">
<style type="text/css"><![CDATA[
.edge:hover path { stroke: red; }
.edge:hover polygon { stroke: red; fill: red; }
]]></style>
<script type="text/javascript"><![CDATA[
var edges = document.getElementsByTagName('g');
if (edges && edges.length) {
  for (var i=0;i<edges.length;i++) {
    if (edges[i].id.substr(0,4)=='edge') {
      edges[i].setAttribute('class','edge');
    }
  }
}
]]></script>
        <defs>
                <circle id="rim" cx="0" cy="0" r="7"/>
                <circle id="rim2" cx="0" cy="0" r="3.5"/>
                <g id="zoomPlus">
                        <use xlink:href="#rim" fill="#404040">
                                <set attributeName="fill" to="#808080" begin="zoomplus.mouseover" end="zoomplus.mouseout"/>
                        </use>
                        <path d="M-4,0h8M0,-4v8" fill="none" stroke="white" stroke-width="1.5" pointer-events="none"/>
                </g>
                <g id="zoomMin">
                        <use xlink:href="#rim" fill="#404040">
                                <set attributeName="fill" to="#808080" begin="zoomminus.mouseover" end="zoomminus.mouseout"/>
                        </use>
                        <path d="M-4,0h8" fill="none" stroke="white" stroke-width="1.5" pointer-events="none"/>
                </g>
                <g id="dirArrow">
                        <path fill="none" stroke="white" stroke-width="1.5" d="M0,-3.0v7 M-2.5,-0.5L0,-3.0L2.5,-0.5"/>
                </g>
               <g id="resetDef">
                       <use xlink:href="#rim2" fill="#404040">
                               <set attributeName="fill" to="#808080" begin="reset.mouseover" end="reset.mouseout"/>
                       </use>
               </g>
        </defs>

<script type="text/javascript">
var viewWidth = 635;
var viewHeight = 712;
var sectionId = 'dynsection-3';
</script>
<script xlink:href="svgpan.js"/>
<svg id="graph" class="graph">
<g id="viewport">
<title>Extender::openCAN</title>
<polygon fill="white" stroke="transparent" points="-4,4 -4,-708 631,-708 631,4 -4,4"/>
<!-- Node1 -->
<g id="node1" class="node">
<title>Node1</title>
<g id="a_node1"><a xlink:title=" ">
<polygon fill="#bfbfbf" stroke="black" points="0,-342.5 0,-361.5 101,-361.5 101,-342.5 0,-342.5"/>
<text text-anchor="middle" x="50.5" y="-349.5" font-family="Helvetica,sans-Serif" font-size="10.00">Extender::openCAN</text>
</a>
</g>
</g>
<!-- Node2 -->
<g id="node2" class="node">
<title>Node2</title>
<g id="a_node2"><a xlink:href="classExtender.html#ab1ef1d1764fa63ca790092c338272466" target="_top" xlink:title=" ">
<polygon fill="white" stroke="black" points="137,-342.5 137,-361.5 253,-361.5 253,-342.5 137,-342.5"/>
<text text-anchor="middle" x="195" y="-349.5" font-family="Helvetica,sans-Serif" font-size="10.00">Extender::readyToRead</text>
</a>
</g>
</g>
<!-- Node1&#45;&gt;Node2 -->
<g id="edge1" class="edge">
<title>Node1&#45;&gt;Node2</title>
<path fill="none" stroke="midnightblue" d="M101.34,-352C109.44,-352 117.95,-352 126.39,-352"/>
<polygon fill="midnightblue" stroke="midnightblue" points="126.62,-355.5 136.62,-352 126.62,-348.5 126.62,-355.5"/>
</g>
<!-- Node3 -->
<g id="node3" class="node">
<title>Node3</title>
<g id="a_node3"><a xlink:href="Extender_8cpp.html#a0f8ac5620442320553774ec3428d6f1a" target="_top" xlink:title=" ">
<polygon fill="white" stroke="black" points="332,-684.5 332,-703.5 398,-703.5 398,-684.5 332,-684.5"/>
<text text-anchor="middle" x="365" y="-691.5" font-family="Helvetica,sans-Serif" font-size="10.00">averagehz1</text>
</a>
</g>
</g>
<!-- Node2&#45;&gt;Node3 -->
<g id="edge2" class="edge">
<title>Node2&#45;&gt;Node3</title>
<path fill="none" stroke="midnightblue" d="M195.59,-361.62C194.32,-404.97 195.09,-584.07 289,-675 297.82,-683.54 309.9,-688.4 321.8,-691.13"/>
<polygon fill="midnightblue" stroke="midnightblue" points="321.19,-694.58 331.66,-692.95 322.46,-687.69 321.19,-694.58"/>
</g>
<!-- Node4 -->
<g id="node4" class="node">
<title>Node4</title>
<g id="a_node4"><a xlink:href="classDashBoard.html#aea3b83311e69d6a1333fec8517b35e89" target="_top" xlink:title=" ">
<polygon fill="white" stroke="black" points="289,-646.5 289,-665.5 441,-665.5 441,-646.5 289,-646.5"/>
<text text-anchor="middle" x="365" y="-653.5" font-family="Helvetica,sans-Serif" font-size="10.00">DashBoard::setEXAnalogInput0</text>
</a>
</g>
</g>
<!-- Node2&#45;&gt;Node4 -->
<g id="edge3" class="edge">
<title>Node2&#45;&gt;Node4</title>
<path fill="none" stroke="midnightblue" d="M196.02,-361.57C196.64,-401.72 204.6,-558.09 289,-637 290.67,-638.57 292.46,-640.01 294.33,-641.33"/>
<polygon fill="midnightblue" stroke="midnightblue" points="292.64,-644.4 303.03,-646.44 296.18,-638.36 292.64,-644.4"/>
</g>
<!-- Node6 -->
<g id="node6" class="node">
<title>Node6</title>
<g id="a_node6"><a xlink:href="classDashBoard.html#a40fcebc1292e92e8dbc9a98c17788f6b" target="_top" xlink:title=" ">
<polygon fill="white" stroke="black" points="289,-608.5 289,-627.5 441,-627.5 441,-608.5 289,-608.5"/>
<text text-anchor="middle" x="365" y="-615.5" font-family="Helvetica,sans-Serif" font-size="10.00">DashBoard::setEXAnalogInput1</text>
</a>
</g>
</g>
<!-- Node2&#45;&gt;Node6 -->
<g id="edge5" class="edge">
<title>Node2&#45;&gt;Node6</title>
<path fill="none" stroke="midnightblue" d="M196.56,-361.54C199.25,-398.3 214.01,-531.97 289,-599 290.75,-600.56 292.61,-602 294.56,-603.33"/>
<polygon fill="midnightblue" stroke="midnightblue" points="293.15,-606.55 303.58,-608.42 296.59,-600.46 293.15,-606.55"/>
</g>
<!-- Node8 -->
<g id="node8" class="node">
<title>Node8</title>
<g id="a_node8"><a xlink:href="classDashBoard.html#aaf8d337a32bd43ae3ec8855dece362ac" target="_top" xlink:title=" ">
<polygon fill="white" stroke="black" points="289,-570.5 289,-589.5 441,-589.5 441,-570.5 289,-570.5"/>
<text text-anchor="middle" x="365" y="-577.5" font-family="Helvetica,sans-Serif" font-size="10.00">DashBoard::setEXAnalogInput2</text>
</a>
</g>
</g>
<!-- Node2&#45;&gt;Node8 -->
<g id="edge7" class="edge">
<title>Node2&#45;&gt;Node8</title>
<path fill="none" stroke="midnightblue" d="M197.3,-361.66C202.29,-394.94 223.4,-505.73 289,-561 291.02,-562.7 293.18,-564.26 295.43,-565.68"/>
<polygon fill="midnightblue" stroke="midnightblue" points="294.08,-568.92 304.56,-570.49 297.35,-562.73 294.08,-568.92"/>
</g>
<!-- Node10 -->
<g id="node10" class="node">
<title>Node10</title>
<g id="a_node10"><a xlink:href="classDashBoard.html#a3e2fdc22c050dd853a691c8dde2035cf" target="_top" xlink:title=" ">
<polygon fill="white" stroke="black" points="289,-532.5 289,-551.5 441,-551.5 441,-532.5 289,-532.5"/>
<text text-anchor="middle" x="365" y="-539.5" font-family="Helvetica,sans-Serif" font-size="10.00">DashBoard::setEXAnalogInput3</text>
</a>
</g>
</g>
<!-- Node2&#45;&gt;Node10 -->
<g id="edge9" class="edge">
<title>Node2&#45;&gt;Node10</title>
<path fill="none" stroke="midnightblue" d="M198.28,-361.52C205.77,-390.62 232.42,-479.05 289,-523 291.34,-524.82 293.83,-526.46 296.43,-527.95"/>
<polygon fill="midnightblue" stroke="midnightblue" points="295.1,-531.19 305.63,-532.43 298.17,-524.9 295.1,-531.19"/>
</g>
<!-- Node12 -->
<g id="node12" class="node">
<title>Node12</title>
<g id="a_node12"><a xlink:href="classDashBoard.html#a78240e34ac663f151c2733a55f1b9b15" target="_top" xlink:title=" ">
<polygon fill="white" stroke="black" points="289,-494.5 289,-513.5 441,-513.5 441,-494.5 289,-494.5"/>
<text text-anchor="middle" x="365" y="-501.5" font-family="Helvetica,sans-Serif" font-size="10.00">DashBoard::setEXAnalogInput4</text>
</a>
</g>
</g>
<!-- Node2&#45;&gt;Node12 -->
<g id="edge11" class="edge">
<title>Node2&#45;&gt;Node12</title>
<path fill="none" stroke="midnightblue" d="M199.94,-361.82C210.43,-386.64 241.47,-452.18 289,-485 291.91,-487.01 295.01,-488.8 298.23,-490.41"/>
<polygon fill="midnightblue" stroke="midnightblue" points="297.02,-493.7 307.59,-494.45 299.8,-487.27 297.02,-493.7"/>
</g>
<!-- Node14 -->
<g id="node14" class="node">
<title>Node14</title>
<g id="a_node14"><a xlink:href="classDashBoard.html#acc9ce3b13710f908e198224081150d50" target="_top" xlink:title=" ">
<polygon fill="white" stroke="black" points="289,-456.5 289,-475.5 441,-475.5 441,-456.5 289,-456.5"/>
<text text-anchor="middle" x="365" y="-463.5" font-family="Helvetica,sans-Serif" font-size="10.00">DashBoard::setEXAnalogInput5</text>
</a>
</g>
</g>
<!-- Node2&#45;&gt;Node14 -->
<g id="edge13" class="edge">
<title>Node2&#45;&gt;Node14</title>
<path fill="none" stroke="midnightblue" d="M202.68,-361.79C216.45,-381.18 249.99,-424.56 289,-447 292.9,-449.25 297.07,-451.23 301.37,-452.98"/>
<polygon fill="midnightblue" stroke="midnightblue" points="300.33,-456.33 310.92,-456.46 302.72,-449.75 300.33,-456.33"/>
</g>
<!-- Node16 -->
<g id="node16" class="node">
<title>Node16</title>
<g id="a_node16"><a xlink:href="classDashBoard.html#a716e0567d83d4547582b97215fa8364f" target="_top" xlink:title=" ">
<polygon fill="white" stroke="black" points="289,-418.5 289,-437.5 441,-437.5 441,-418.5 289,-418.5"/>
<text text-anchor="middle" x="365" y="-425.5" font-family="Helvetica,sans-Serif" font-size="10.00">DashBoard::setEXAnalogInput6</text>
</a>
</g>
</g>
<!-- Node2&#45;&gt;Node16 -->
<g id="edge15" class="edge">
<title>Node2&#45;&gt;Node16</title>
<path fill="none" stroke="midnightblue" d="M208.87,-361.64C226.22,-374.22 258.46,-396.13 289,-409 294.85,-411.47 301.09,-413.67 307.39,-415.62"/>
<polygon fill="midnightblue" stroke="midnightblue" points="306.69,-419.06 317.27,-418.49 308.64,-412.34 306.69,-419.06"/>
</g>
<!-- Node18 -->
<g id="node18" class="node">
<title>Node18</title>
<g id="a_node18"><a xlink:href="classDashBoard.html#a84edfc43f79c2ec11502be1fa0bba88a" target="_top" xlink:title=" ">
<polygon fill="white" stroke="black" points="289,-380.5 289,-399.5 441,-399.5 441,-380.5 289,-380.5"/>
<text text-anchor="middle" x="365" y="-387.5" font-family="Helvetica,sans-Serif" font-size="10.00">DashBoard::setEXAnalogInput7</text>
</a>
</g>
</g>
<!-- Node2&#45;&gt;Node18 -->
<g id="edge17" class="edge">
<title>Node2&#45;&gt;Node18</title>
<path fill="none" stroke="midnightblue" d="M238.39,-361.59C260.76,-366.65 288.4,-372.9 312.05,-378.25"/>
<polygon fill="midnightblue" stroke="midnightblue" points="311.39,-381.69 321.91,-380.48 312.93,-374.86 311.39,-381.69"/>
</g>
<!-- Node21 -->
<g id="node21" class="node">
<title>Node21</title>
<g id="a_node21"><a xlink:href="classDashBoard.html#aa46ca9cc6c7aa38dd7b1c854d7194d8e" target="_top" xlink:title=" ">
<polygon fill="white" stroke="black" points="290.5,-342.5 290.5,-361.5 439.5,-361.5 439.5,-342.5 290.5,-342.5"/>
<text text-anchor="middle" x="365" y="-349.5" font-family="Helvetica,sans-Serif" font-size="10.00">DashBoard::setEXDigitalInput1</text>
</a>
</g>
</g>
<!-- Node2&#45;&gt;Node21 -->
<g id="edge20" class="edge">
<title>Node2&#45;&gt;Node21</title>
<path fill="none" stroke="midnightblue" d="M253.35,-352C261.98,-352 271.03,-352 280.08,-352"/>
<polygon fill="midnightblue" stroke="midnightblue" points="280.28,-355.5 290.28,-352 280.28,-348.5 280.28,-355.5"/>
</g>
<!-- Node22 -->
<g id="node22" class="node">
<title>Node22</title>
<g id="a_node22"><a xlink:href="classDashBoard.html#a647ab8b3e72de0c4c2f205ea7505baf6" target="_top" xlink:title=" ">
<polygon fill="white" stroke="black" points="290.5,-304.5 290.5,-323.5 439.5,-323.5 439.5,-304.5 290.5,-304.5"/>
<text text-anchor="middle" x="365" y="-311.5" font-family="Helvetica,sans-Serif" font-size="10.00">DashBoard::setEXDigitalInput2</text>
</a>
</g>
</g>
<!-- Node2&#45;&gt;Node22 -->
<g id="edge21" class="edge">
<title>Node2&#45;&gt;Node22</title>
<path fill="none" stroke="midnightblue" d="M238.39,-342.41C260.76,-337.35 288.4,-331.1 312.05,-325.75"/>
<polygon fill="midnightblue" stroke="midnightblue" points="312.93,-329.14 321.91,-323.52 311.39,-322.31 312.93,-329.14"/>
</g>
<!-- Node23 -->
<g id="node23" class="node">
<title>Node23</title>
<g id="a_node23"><a xlink:href="classDashBoard.html#af8c84e201cb752d50d8672fed0a5e773" target="_top" xlink:title=" ">
<polygon fill="white" stroke="black" points="290.5,-266.5 290.5,-285.5 439.5,-285.5 439.5,-266.5 290.5,-266.5"/>
<text text-anchor="middle" x="365" y="-273.5" font-family="Helvetica,sans-Serif" font-size="10.00">DashBoard::setEXDigitalInput3</text>
</a>
</g>
</g>
<!-- Node2&#45;&gt;Node23 -->
<g id="edge22" class="edge">
<title>Node2&#45;&gt;Node23</title>
<path fill="none" stroke="midnightblue" d="M208.87,-342.36C226.22,-329.78 258.46,-307.87 289,-295 294.85,-292.53 301.09,-290.33 307.39,-288.38"/>
<polygon fill="midnightblue" stroke="midnightblue" points="308.64,-291.66 317.27,-285.51 306.69,-284.94 308.64,-291.66"/>
</g>
<!-- Node24 -->
<g id="node24" class="node">
<title>Node24</title>
<g id="a_node24"><a xlink:href="classDashBoard.html#a2424c28383ff002d84ecafb105e52478" target="_top" xlink:title=" ">
<polygon fill="white" stroke="black" points="290.5,-228.5 290.5,-247.5 439.5,-247.5 439.5,-228.5 290.5,-228.5"/>
<text text-anchor="middle" x="365" y="-235.5" font-family="Helvetica,sans-Serif" font-size="10.00">DashBoard::setEXDigitalInput4</text>
</a>
</g>
</g>
<!-- Node2&#45;&gt;Node24 -->
<g id="edge23" class="edge">
<title>Node2&#45;&gt;Node24</title>
<path fill="none" stroke="midnightblue" d="M202.68,-342.21C216.45,-322.82 249.99,-279.44 289,-257 292.9,-254.75 297.07,-252.77 301.37,-251.02"/>
<polygon fill="midnightblue" stroke="midnightblue" points="302.72,-254.25 310.92,-247.54 300.33,-247.67 302.72,-254.25"/>
</g>
<!-- Node25 -->
<g id="node25" class="node">
<title>Node25</title>
<g id="a_node25"><a xlink:href="classDashBoard.html#a3c99db6971cbfa671cc200a2f793ab9e" target="_top" xlink:title=" ">
<polygon fill="white" stroke="black" points="290.5,-190.5 290.5,-209.5 439.5,-209.5 439.5,-190.5 290.5,-190.5"/>
<text text-anchor="middle" x="365" y="-197.5" font-family="Helvetica,sans-Serif" font-size="10.00">DashBoard::setEXDigitalInput5</text>
</a>
</g>
</g>
<!-- Node2&#45;&gt;Node25 -->
<g id="edge24" class="edge">
<title>Node2&#45;&gt;Node25</title>
<path fill="none" stroke="midnightblue" d="M199.94,-342.18C210.43,-317.36 241.47,-251.82 289,-219 291.91,-216.99 295.01,-215.2 298.23,-213.59"/>
<polygon fill="midnightblue" stroke="midnightblue" points="299.8,-216.73 307.59,-209.55 297.02,-210.3 299.8,-216.73"/>
</g>
<!-- Node26 -->
<g id="node26" class="node">
<title>Node26</title>
<g id="a_node26"><a xlink:href="classDashBoard.html#ad88701b524bb0a1f33f83d9fffd4b6a2" target="_top" xlink:title=" ">
<polygon fill="white" stroke="black" points="290.5,-152.5 290.5,-171.5 439.5,-171.5 439.5,-152.5 290.5,-152.5"/>
<text text-anchor="middle" x="365" y="-159.5" font-family="Helvetica,sans-Serif" font-size="10.00">DashBoard::setEXDigitalInput6</text>
</a>
</g>
</g>
<!-- Node2&#45;&gt;Node26 -->
<g id="edge25" class="edge">
<title>Node2&#45;&gt;Node26</title>
<path fill="none" stroke="midnightblue" d="M198.28,-342.48C205.77,-313.38 232.42,-224.95 289,-181 291.34,-179.18 293.83,-177.54 296.43,-176.05"/>
<polygon fill="midnightblue" stroke="midnightblue" points="298.17,-179.1 305.63,-171.57 295.1,-172.81 298.17,-179.1"/>
</g>
<!-- Node27 -->
<g id="node27" class="node">
<title>Node27</title>
<g id="a_node27"><a xlink:href="classDashBoard.html#a83a2f9f8cb8efab71307b2d8bcbf48d8" target="_top" xlink:title=" ">
<polygon fill="white" stroke="black" points="290.5,-114.5 290.5,-133.5 439.5,-133.5 439.5,-114.5 290.5,-114.5"/>
<text text-anchor="middle" x="365" y="-121.5" font-family="Helvetica,sans-Serif" font-size="10.00">DashBoard::setEXDigitalInput7</text>
</a>
</g>
</g>
<!-- Node2&#45;&gt;Node27 -->
<g id="edge26" class="edge">
<title>Node2&#45;&gt;Node27</title>
<path fill="none" stroke="midnightblue" d="M197.3,-342.34C202.29,-309.06 223.4,-198.27 289,-143 291.02,-141.3 293.18,-139.74 295.43,-138.32"/>
<polygon fill="midnightblue" stroke="midnightblue" points="297.35,-141.27 304.56,-133.51 294.08,-135.08 297.35,-141.27"/>
</g>
<!-- Node28 -->
<g id="node28" class="node">
<title>Node28</title>
<g id="a_node28"><a xlink:href="classDashBoard.html#a4eebd82e4a2363f974b92566fa81abdd" target="_top" xlink:title=" ">
<polygon fill="white" stroke="black" points="290.5,-76.5 290.5,-95.5 439.5,-95.5 439.5,-76.5 290.5,-76.5"/>
<text text-anchor="middle" x="365" y="-83.5" font-family="Helvetica,sans-Serif" font-size="10.00">DashBoard::setEXDigitalInput8</text>
</a>
</g>
</g>
<!-- Node2&#45;&gt;Node28 -->
<g id="edge27" class="edge">
<title>Node2&#45;&gt;Node28</title>
<path fill="none" stroke="midnightblue" d="M196.56,-342.46C199.25,-305.7 214.01,-172.03 289,-105 290.75,-103.44 292.61,-102 294.56,-100.67"/>
<polygon fill="midnightblue" stroke="midnightblue" points="296.59,-103.54 303.58,-95.58 293.15,-97.45 296.59,-103.54"/>
</g>
<!-- Node29 -->
<g id="node29" class="node">
<title>Node29</title>
<g id="a_node29"><a xlink:href="classDashBoard.html#a1ab9446e32205bad972299f2731fc073" target="_top" xlink:title=" ">
<polygon fill="white" stroke="black" points="289,-38.5 289,-57.5 441,-57.5 441,-38.5 289,-38.5"/>
<text text-anchor="middle" x="365" y="-45.5" font-family="Helvetica,sans-Serif" font-size="10.00">DashBoard::setfrequencyDIEX1</text>
</a>
</g>
</g>
<!-- Node2&#45;&gt;Node29 -->
<g id="edge28" class="edge">
<title>Node2&#45;&gt;Node29</title>
<path fill="none" stroke="midnightblue" d="M196.02,-342.43C196.64,-302.28 204.6,-145.91 289,-67 290.67,-65.43 292.46,-63.99 294.33,-62.67"/>
<polygon fill="midnightblue" stroke="midnightblue" points="296.18,-65.64 303.03,-57.56 292.64,-59.6 296.18,-65.64"/>
</g>
<!-- Node30 -->
<g id="node30" class="node">
<title>Node30</title>
<g id="a_node30"><a xlink:href="classDashBoard.html#ab8a26c5ebc87f76cc237e46d8e014403" target="_top" xlink:title=" ">
<polygon fill="white" stroke="black" points="315.5,-0.5 315.5,-19.5 414.5,-19.5 414.5,-0.5 315.5,-0.5"/>
<text text-anchor="middle" x="365" y="-7.5" font-family="Helvetica,sans-Serif" font-size="10.00">DashBoard::setrpm</text>
</a>
</g>
</g>
<!-- Node2&#45;&gt;Node30 -->
<g id="edge29" class="edge">
<title>Node2&#45;&gt;Node30</title>
<path fill="none" stroke="midnightblue" d="M195.59,-342.38C194.32,-299.03 195.09,-119.93 289,-29 293.86,-24.29 299.72,-20.7 305.98,-17.97"/>
<polygon fill="midnightblue" stroke="midnightblue" points="307.19,-21.26 315.39,-14.55 304.8,-14.68 307.19,-21.26"/>
</g>
<!-- Node5 -->
<g id="node5" class="node">
<title>Node5</title>
<g id="a_node5"><a xlink:href="classDashBoard.html#ad4bca9c86e09a58f353f1769f330b16b" target="_top" xlink:title=" ">
<polygon fill="white" stroke="black" points="477,-646.5 477,-665.5 627,-665.5 627,-646.5 477,-646.5"/>
<text text-anchor="middle" x="552" y="-653.5" font-family="Helvetica,sans-Serif" font-size="10.00">DashBoard::setEXAnalogCalc0</text>
</a>
</g>
</g>
<!-- Node4&#45;&gt;Node5 -->
<g id="edge4" class="edge">
<title>Node4&#45;&gt;Node5</title>
<path fill="none" stroke="midnightblue" d="M441.25,-656C449.57,-656 458.08,-656 466.51,-656"/>
<polygon fill="midnightblue" stroke="midnightblue" points="466.72,-659.5 476.72,-656 466.72,-652.5 466.72,-659.5"/>
</g>
<!-- Node7 -->
<g id="node7" class="node">
<title>Node7</title>
<g id="a_node7"><a xlink:href="classDashBoard.html#a5ac515122873f5b76e448a80541902fe" target="_top" xlink:title=" ">
<polygon fill="white" stroke="black" points="477,-608.5 477,-627.5 627,-627.5 627,-608.5 477,-608.5"/>
<text text-anchor="middle" x="552" y="-615.5" font-family="Helvetica,sans-Serif" font-size="10.00">DashBoard::setEXAnalogCalc1</text>
</a>
</g>
</g>
<!-- Node6&#45;&gt;Node7 -->
<g id="edge6" class="edge">
<title>Node6&#45;&gt;Node7</title>
<path fill="none" stroke="midnightblue" d="M441.25,-618C449.57,-618 458.08,-618 466.51,-618"/>
<polygon fill="midnightblue" stroke="midnightblue" points="466.72,-621.5 476.72,-618 466.72,-614.5 466.72,-621.5"/>
</g>
<!-- Node9 -->
<g id="node9" class="node">
<title>Node9</title>
<g id="a_node9"><a xlink:href="classDashBoard.html#a9fdebbd7e5e1dc147484405017a4f58e" target="_top" xlink:title=" ">
<polygon fill="white" stroke="black" points="477,-570.5 477,-589.5 627,-589.5 627,-570.5 477,-570.5"/>
<text text-anchor="middle" x="552" y="-577.5" font-family="Helvetica,sans-Serif" font-size="10.00">DashBoard::setEXAnalogCalc2</text>
</a>
</g>
</g>
<!-- Node8&#45;&gt;Node9 -->
<g id="edge8" class="edge">
<title>Node8&#45;&gt;Node9</title>
<path fill="none" stroke="midnightblue" d="M441.25,-580C449.57,-580 458.08,-580 466.51,-580"/>
<polygon fill="midnightblue" stroke="midnightblue" points="466.72,-583.5 476.72,-580 466.72,-576.5 466.72,-583.5"/>
</g>
<!-- Node11 -->
<g id="node11" class="node">
<title>Node11</title>
<g id="a_node11"><a xlink:href="classDashBoard.html#a45736c280f71e3e0f7952d6caa509a5d" target="_top" xlink:title=" ">
<polygon fill="white" stroke="black" points="477,-532.5 477,-551.5 627,-551.5 627,-532.5 477,-532.5"/>
<text text-anchor="middle" x="552" y="-539.5" font-family="Helvetica,sans-Serif" font-size="10.00">DashBoard::setEXAnalogCalc3</text>
</a>
</g>
</g>
<!-- Node10&#45;&gt;Node11 -->
<g id="edge10" class="edge">
<title>Node10&#45;&gt;Node11</title>
<path fill="none" stroke="midnightblue" d="M441.25,-542C449.57,-542 458.08,-542 466.51,-542"/>
<polygon fill="midnightblue" stroke="midnightblue" points="466.72,-545.5 476.72,-542 466.72,-538.5 466.72,-545.5"/>
</g>
<!-- Node13 -->
<g id="node13" class="node">
<title>Node13</title>
<g id="a_node13"><a xlink:href="classDashBoard.html#a2628edc6a2b1f8487f0e66baaa28cb1c" target="_top" xlink:title=" ">
<polygon fill="white" stroke="black" points="477,-494.5 477,-513.5 627,-513.5 627,-494.5 477,-494.5"/>
<text text-anchor="middle" x="552" y="-501.5" font-family="Helvetica,sans-Serif" font-size="10.00">DashBoard::setEXAnalogCalc4</text>
</a>
</g>
</g>
<!-- Node12&#45;&gt;Node13 -->
<g id="edge12" class="edge">
<title>Node12&#45;&gt;Node13</title>
<path fill="none" stroke="midnightblue" d="M441.25,-504C449.57,-504 458.08,-504 466.51,-504"/>
<polygon fill="midnightblue" stroke="midnightblue" points="466.72,-507.5 476.72,-504 466.72,-500.5 466.72,-507.5"/>
</g>
<!-- Node15 -->
<g id="node15" class="node">
<title>Node15</title>
<g id="a_node15"><a xlink:href="classDashBoard.html#a78a532a6368f73c881615156a9792754" target="_top" xlink:title=" ">
<polygon fill="white" stroke="black" points="477,-456.5 477,-475.5 627,-475.5 627,-456.5 477,-456.5"/>
<text text-anchor="middle" x="552" y="-463.5" font-family="Helvetica,sans-Serif" font-size="10.00">DashBoard::setEXAnalogCalc5</text>
</a>
</g>
</g>
<!-- Node14&#45;&gt;Node15 -->
<g id="edge14" class="edge">
<title>Node14&#45;&gt;Node15</title>
<path fill="none" stroke="midnightblue" d="M441.25,-466C449.57,-466 458.08,-466 466.51,-466"/>
<polygon fill="midnightblue" stroke="midnightblue" points="466.72,-469.5 476.72,-466 466.72,-462.5 466.72,-469.5"/>
</g>
<!-- Node17 -->
<g id="node17" class="node">
<title>Node17</title>
<g id="a_node17"><a xlink:href="classDashBoard.html#ab5fde2074a4df80f8fe7b063f2bcdbdb" target="_top" xlink:title=" ">
<polygon fill="white" stroke="black" points="477,-418.5 477,-437.5 627,-437.5 627,-418.5 477,-418.5"/>
<text text-anchor="middle" x="552" y="-425.5" font-family="Helvetica,sans-Serif" font-size="10.00">DashBoard::setEXAnalogCalc6</text>
</a>
</g>
</g>
<!-- Node16&#45;&gt;Node17 -->
<g id="edge16" class="edge">
<title>Node16&#45;&gt;Node17</title>
<path fill="none" stroke="midnightblue" d="M441.25,-428C449.57,-428 458.08,-428 466.51,-428"/>
<polygon fill="midnightblue" stroke="midnightblue" points="466.72,-431.5 476.72,-428 466.72,-424.5 466.72,-431.5"/>
</g>
<!-- Node19 -->
<g id="node19" class="node">
<title>Node19</title>
<g id="a_node19"><a xlink:href="dashboard_8cpp.html#a2751a06c2fa6c8388f2d37d5d26453f3" target="_top" xlink:title=" ">
<polygon fill="white" stroke="black" points="494,-380.5 494,-399.5 610,-399.5 610,-380.5 494,-380.5"/>
<text text-anchor="middle" x="552" y="-387.5" font-family="Helvetica,sans-Serif" font-size="10.00">averageexanaloginput7</text>
</a>
</g>
</g>
<!-- Node18&#45;&gt;Node19 -->
<g id="edge18" class="edge">
<title>Node18&#45;&gt;Node19</title>
<path fill="none" stroke="midnightblue" d="M441.25,-390C455.28,-390 469.86,-390 483.63,-390"/>
<polygon fill="midnightblue" stroke="midnightblue" points="483.98,-393.5 493.98,-390 483.98,-386.5 483.98,-393.5"/>
</g>
<!-- Node20 -->
<g id="node20" class="node">
<title>Node20</title>
<g id="a_node20"><a xlink:href="classDashBoard.html#a45064b50c716f383e9811c5ab25b3422" target="_top" xlink:title=" ">
<polygon fill="white" stroke="black" points="477,-342.5 477,-361.5 627,-361.5 627,-342.5 477,-342.5"/>
<text text-anchor="middle" x="552" y="-349.5" font-family="Helvetica,sans-Serif" font-size="10.00">DashBoard::setEXAnalogCalc7</text>
</a>
</g>
</g>
<!-- Node18&#45;&gt;Node20 -->
<g id="edge19" class="edge">
<title>Node18&#45;&gt;Node20</title>
<path fill="none" stroke="midnightblue" d="M412.68,-380.41C437.65,-375.28 468.56,-368.93 494.83,-363.54"/>
<polygon fill="midnightblue" stroke="midnightblue" points="495.56,-366.96 504.65,-361.52 494.15,-360.1 495.56,-366.96"/>
</g>
<!-- Node31 -->
<g id="node31" class="node">
<title>Node31</title>
<g id="a_node31"><a xlink:href="dashboard_8cpp.html#abaed07c489b38d23644263ae435338d4" target="_top" xlink:title=" ">
<polygon fill="white" stroke="black" points="515.5,-0.5 515.5,-19.5 588.5,-19.5 588.5,-0.5 515.5,-0.5"/>
<text text-anchor="middle" x="552" y="-7.5" font-family="Helvetica,sans-Serif" font-size="10.00">averageRPM</text>
</a>
</g>
</g>
<!-- Node30&#45;&gt;Node31 -->
<g id="edge30" class="edge">
<title>Node30&#45;&gt;Node31</title>
<path fill="none" stroke="midnightblue" d="M414.61,-10C442.61,-10 477.6,-10 505.13,-10"/>
<polygon fill="midnightblue" stroke="midnightblue" points="505.29,-13.5 515.29,-10 505.29,-6.5 505.29,-13.5"/>
</g>
</g>
</svg>
        <g id="navigator" transform="translate(0 0)" fill="#404254">
                <rect fill="#f2f5e9" fill-opacity="0.5" stroke="#606060" stroke-width=".5" x="0" y="0" width="60" height="60"/>
                <use id="zoomplus" xlink:href="#zoomPlus" x="17" y="9" onmousedown="handleZoom(evt,'in')"/>
                <use id="zoomminus" xlink:href="#zoomMin" x="42" y="9" onmousedown="handleZoom(evt,'out')"/>
                <use id="reset" xlink:href="#resetDef" x="30" y="36" onmousedown="handleReset()"/>
                <g id="arrowUp" xlink:href="#dirArrow" transform="translate(30 24)" onmousedown="handlePan(0,-1)">
                  <use xlink:href="#rim" fill="#404040">
                        <set attributeName="fill" to="#808080" begin="arrowUp.mouseover" end="arrowUp.mouseout"/>
                  </use>
                  <path fill="none" stroke="white" stroke-width="1.5" d="M0,-3.0v7 M-2.5,-0.5L0,-3.0L2.5,-0.5"/>
                </g>
                <g id="arrowRight" xlink:href="#dirArrow" transform="rotate(90) translate(36 -43)" onmousedown="handlePan(1,0)">
                  <use xlink:href="#rim" fill="#404040">
                        <set attributeName="fill" to="#808080" begin="arrowRight.mouseover" end="arrowRight.mouseout"/>
                  </use>
                  <path fill="none" stroke="white" stroke-width="1.5" d="M0,-3.0v7 M-2.5,-0.5L0,-3.0L2.5,-0.5"/>
                </g>
                <g id="arrowDown" xlink:href="#dirArrow" transform="rotate(180) translate(-30 -48)" onmousedown="handlePan(0,1)">
                  <use xlink:href="#rim" fill="#404040">
                        <set attributeName="fill" to="#808080" begin="arrowDown.mouseover" end="arrowDown.mouseout"/>
                  </use>
                  <path fill="none" stroke="white" stroke-width="1.5" d="M0,-3.0v7 M-2.5,-0.5L0,-3.0L2.5,-0.5"/>
                </g>
                <g id="arrowLeft" xlink:href="#dirArrow" transform="rotate(270) translate(-36 17)" onmousedown="handlePan(-1,0)">
                  <use xlink:href="#rim" fill="#404040">
                        <set attributeName="fill" to="#808080" begin="arrowLeft.mouseover" end="arrowLeft.mouseout"/>
                  </use>
                  <path fill="none" stroke="white" stroke-width="1.5" d="M0,-3.0v7 M-2.5,-0.5L0,-3.0L2.5,-0.5"/>
                </g>
        </g>
        <svg viewBox="0 0 15 15" width="100%" height="30px" preserveAspectRatio="xMaxYMin meet">
         <g id="arrow_out" transform="scale(0.3 0.3)">
          <a xlink:href="classExtender_a290c0ffb772638ad4658eac0b0b5931e_cgraph_org.svg" target="_base">
           <rect id="button" ry="5" rx="5" y="6" x="6" height="38" width="38"
                fill="#f2f5e9" fill-opacity="0.5" stroke="#606060" stroke-width="1.0"/>
           <path id="arrow"
             d="M 11.500037,31.436501 C 11.940474,20.09759 22.043105,11.32322 32.158766,21.979434 L 37.068811,17.246167 C 37.068811,17.246167 37.088388,32 37.088388,32 L 22.160133,31.978069 C 22.160133,31.978069 26.997745,27.140456 26.997745,27.140456 C 18.528582,18.264221 13.291696,25.230495 11.500037,31.436501 z"
             style="fill:#404040;"/>
          </a>
         </g>
        </svg>
</svg>
