<?xml version="1.0" encoding="UTF-8" standalone="no"?>
<!DOCTYPE svg PUBLIC "-//W3C//DTD SVG 1.1//EN"
 "http://www.w3.org/Graphics/SVG/1.1/DTD/svg11.dtd">
<!-- Generated by graphviz version 2.49.3 (20211027.1534)
 -->
<!-- Title: Apexi::writeRequestPFC Pages: 1 -->
<!--zoomable 170 -->
<svg id="main" version="1.1" xmlns="http://www.w3.org/2000/svg" xmlns:xlink="http://www.w3.org/1999/xlink" xml:space="preserve" onload="init(evt)">
<style type="text/css"><![CDATA[
.edge:hover path { stroke: red; }
.edge:hover polygon { stroke: red; fill: red; }
]]></style>
<script type="text/javascript"><![CDATA[
var edges = document.getElementsByTagName('g');
if (edges && edges.length) {
  for (var i=0;i<edges.length;i++) {
    if (edges[i].id.substr(0,4)=='edge') {
      edges[i].setAttribute('class','edge');
    }
  }
}
]]></script>
        <defs>
                <circle id="rim" cx="0" cy="0" r="7"/>
                <circle id="rim2" cx="0" cy="0" r="3.5"/>
                <g id="zoomPlus">
                        <use xlink:href="#rim" fill="#404040">
                                <set attributeName="fill" to="#808080" begin="zoomplus.mouseover" end="zoomplus.mouseout"/>
                        </use>
                        <path d="M-4,0h8M0,-4v8" fill="none" stroke="white" stroke-width="1.5" pointer-events="none"/>
                </g>
                <g id="zoomMin">
                        <use xlink:href="#rim" fill="#404040">
                                <set attributeName="fill" to="#808080" begin="zoomminus.mouseover" end="zoomminus.mouseout"/>
                        </use>
                        <path d="M-4,0h8" fill="none" stroke="white" stroke-width="1.5" pointer-events="none"/>
                </g>
                <g id="dirArrow">
                        <path fill="none" stroke="white" stroke-width="1.5" d="M0,-3.0v7 M-2.5,-0.5L0,-3.0L2.5,-0.5"/>
                </g>
               <g id="resetDef">
                       <use xlink:href="#rim2" fill="#404040">
                               <set attributeName="fill" to="#808080" begin="reset.mouseover" end="reset.mouseout"/>
                       </use>
               </g>
        </defs>

<script type="text/javascript">
var viewWidth = 1138;
var viewHeight = 170;
var sectionId = 'dynsection-39';
</script>
<script xlink:href="svgpan.js"/>
<svg id="graph" class="graph">
<g id="viewport">
<title>Apexi::writeRequestPFC</title>
<polygon fill="white" stroke="transparent" points="-4,4 -4,-166 1134,-166 1134,4 -4,4"/>
<!-- Node1 -->
<g id="node1" class="node">
<title>Node1</title>
<g id="a_node1"><a xlink:title=" ">
<polygon fill="#bfbfbf" stroke="black" points="1008,-57.5 1008,-76.5 1130,-76.5 1130,-57.5 1008,-57.5"/>
<text text-anchor="middle" x="1069" y="-64.5" font-family="Helvetica,sans-Serif" font-size="10.00">Apexi::writeRequestPFC</text>
</a>
</g>
</g>
<!-- Node2 -->
<g id="node2" class="node">
<title>Node2</title>
<g id="a_node2"><a xlink:href="classApexi.html#a9ed7e794f2566b72a448e341233985eb" target="_top" xlink:title=" ">
<polygon fill="white" stroke="black" points="870,-57.5 870,-76.5 972,-76.5 972,-57.5 870,-57.5"/>
<text text-anchor="middle" x="921" y="-64.5" font-family="Helvetica,sans-Serif" font-size="10.00">Apexi::sendRequest</text>
</a>
</g>
</g>
<!-- Node1&#45;&gt;Node2 -->
<g id="edge1" class="edge">
<title>Node1&#45;&gt;Node2</title>
<path fill="none" stroke="midnightblue" d="M997.75,-67C989.17,-67 980.54,-67 972.33,-67"/>
<polygon fill="midnightblue" stroke="midnightblue" points="997.77,-70.5 1007.77,-67 997.77,-63.5 997.77,-70.5"/>
</g>
<!-- Node3 -->
<g id="node3" class="node">
<title>Node3</title>
<g id="a_node3"><a xlink:href="classApexi.html#a4cb1314ab5ca5175aa227ed178148f40" target="_top" xlink:title=" ">
<polygon fill="white" stroke="black" points="746,-95.5 746,-114.5 834,-114.5 834,-95.5 746,-95.5"/>
<text text-anchor="middle" x="790" y="-102.5" font-family="Helvetica,sans-Serif" font-size="10.00">Apexi::apexiECU</text>
</a>
</g>
</g>
<!-- Node2&#45;&gt;Node3 -->
<g id="edge2" class="edge">
<title>Node2&#45;&gt;Node3</title>
<path fill="none" stroke="midnightblue" d="M877.45,-79.54C859.9,-84.7 839.89,-90.6 823.54,-95.41"/>
<polygon fill="midnightblue" stroke="midnightblue" points="878.84,-82.77 887.45,-76.59 876.87,-76.06 878.84,-82.77"/>
</g>
<!-- Node7 -->
<g id="node7" class="node">
<title>Node7</title>
<g id="a_node7"><a xlink:href="classApexi.html#a84e5eadc545afab5fbb0aea8b27e17c3" target="_top" xlink:title=" ">
<polygon fill="white" stroke="black" points="290,-38.5 290,-57.5 405,-57.5 405,-38.5 290,-38.5"/>
<text text-anchor="middle" x="347.5" y="-45.5" font-family="Helvetica,sans-Serif" font-size="10.00">Apexi::openConnection</text>
</a>
</g>
</g>
<!-- Node2&#45;&gt;Node7 -->
<g id="edge17" class="edge">
<title>Node2&#45;&gt;Node7</title>
<path fill="none" stroke="midnightblue" d="M859.55,-60.07C817.64,-55.63 760.51,-50.28 710,-48 602.32,-43.14 476.41,-44.8 405.2,-46.42"/>
<polygon fill="midnightblue" stroke="midnightblue" points="859.28,-63.56 869.59,-61.15 860.02,-56.6 859.28,-63.56"/>
</g>
<!-- Node12 -->
<g id="node12" class="node">
<title>Node12</title>
<g id="a_node12"><a xlink:href="classApexi.html#a9c813630d2b2a70b7e098ae10220103e" target="_top" xlink:title=" ">
<polygon fill="white" stroke="black" points="601,-57.5 601,-76.5 710,-76.5 710,-57.5 601,-57.5"/>
<text text-anchor="middle" x="655.5" y="-64.5" font-family="Helvetica,sans-Serif" font-size="10.00">Apexi::handleTimeout</text>
</a>
</g>
</g>
<!-- Node2&#45;&gt;Node12 -->
<g id="edge14" class="edge">
<title>Node2&#45;&gt;Node12</title>
<path fill="none" stroke="midnightblue" d="M859.59,-67C814.51,-67 753.48,-67 710.12,-67"/>
<polygon fill="midnightblue" stroke="midnightblue" points="859.82,-70.5 869.82,-67 859.82,-63.5 859.82,-70.5"/>
</g>
<!-- Node4 -->
<g id="node4" class="node">
<title>Node4</title>
<g id="a_node4"><a xlink:href="classApexi.html#abe3bf6800fce8a4c713a08c14474d625" target="_top" xlink:title=" ">
<polygon fill="white" stroke="black" points="604.5,-95.5 604.5,-114.5 706.5,-114.5 706.5,-95.5 604.5,-95.5"/>
<text text-anchor="middle" x="655.5" y="-102.5" font-family="Helvetica,sans-Serif" font-size="10.00">Apexi::readyToRead</text>
</a>
</g>
</g>
<!-- Node3&#45;&gt;Node4 -->
<g id="edge3" class="edge">
<title>Node3&#45;&gt;Node4</title>
<path fill="none" stroke="midnightblue" d="M735.76,-105C726.16,-105 716.18,-105 706.68,-105"/>
<polygon fill="midnightblue" stroke="midnightblue" points="735.98,-108.5 745.98,-105 735.98,-101.5 735.98,-108.5"/>
</g>
<!-- Node5 -->
<g id="node5" class="node">
<title>Node5</title>
<g id="a_node5"><a xlink:href="classApexi.html#a669124cabae4ada616e650e582c068da" target="_top" xlink:title=" ">
<polygon fill="white" stroke="black" points="448,-95.5 448,-114.5 565,-114.5 565,-95.5 448,-95.5"/>
<text text-anchor="middle" x="506.5" y="-102.5" font-family="Helvetica,sans-Serif" font-size="10.00">Apexi::closeConnection</text>
</a>
</g>
</g>
<!-- Node4&#45;&gt;Node5 -->
<g id="edge4" class="edge">
<title>Node4&#45;&gt;Node5</title>
<path fill="none" stroke="midnightblue" d="M594.06,-105C584.47,-105 574.56,-105 565.04,-105"/>
<polygon fill="midnightblue" stroke="midnightblue" points="594.32,-108.5 604.32,-105 594.32,-101.5 594.32,-108.5"/>
</g>
<!-- Node11 -->
<g id="node11" class="node">
<title>Node11</title>
<g id="a_node11"><a xlink:href="classApexi.html#a169d6e9466a6c04e6533c8e84fdcaadb" target="_top" xlink:title=" ">
<polygon fill="white" stroke="black" points="456,-57.5 456,-76.5 557,-76.5 557,-57.5 456,-57.5"/>
<text text-anchor="middle" x="506.5" y="-64.5" font-family="Helvetica,sans-Serif" font-size="10.00">Apexi::initSerialPort</text>
</a>
</g>
</g>
<!-- Node4&#45;&gt;Node11 -->
<g id="edge12" class="edge">
<title>Node4&#45;&gt;Node11</title>
<path fill="none" stroke="midnightblue" d="M607.65,-92.89C587.17,-87.6 563.51,-81.48 544.33,-76.52"/>
<polygon fill="midnightblue" stroke="midnightblue" points="606.85,-96.3 617.41,-95.41 608.6,-89.52 606.85,-96.3"/>
</g>
<!-- Node6 -->
<g id="node6" class="node">
<title>Node6</title>
<g id="a_node6"><a xlink:href="classConnect.html#abb89a14af2e2b3f6d466c5abfc95cff0" target="_top" xlink:title=" ">
<polygon fill="white" stroke="black" points="283,-114.5 283,-133.5 412,-133.5 412,-114.5 283,-114.5"/>
<text text-anchor="middle" x="347.5" y="-121.5" font-family="Helvetica,sans-Serif" font-size="10.00">Connect::closeConnection</text>
</a>
</g>
</g>
<!-- Node5&#45;&gt;Node6 -->
<g id="edge5" class="edge">
<title>Node5&#45;&gt;Node6</title>
<path fill="none" stroke="midnightblue" d="M437.98,-113.17C429.41,-114.21 420.66,-115.27 412.15,-116.3"/>
<polygon fill="midnightblue" stroke="midnightblue" points="438.42,-116.64 447.93,-111.97 437.58,-109.69 438.42,-116.64"/>
</g>
<!-- Node5&#45;&gt;Node7 -->
<g id="edge6" class="edge">
<title>Node5&#45;&gt;Node7</title>
<path fill="none" stroke="midnightblue" d="M465.71,-92.15C459.76,-90.14 453.7,-88.05 448,-86 431.84,-80.19 428.03,-78.15 412,-72 399.46,-67.19 385.49,-61.9 373.86,-57.52"/>
<polygon fill="midnightblue" stroke="midnightblue" points="464.96,-95.59 475.56,-95.43 467.18,-88.95 464.96,-95.59"/>
</g>
<!-- Node10 -->
<g id="node10" class="node">
<title>Node10</title>
<g id="a_node10"><a xlink:href="classApexi.html#a4e7b389e8d3e283a12733ab4f8492be3" target="_top" xlink:title=" ">
<polygon fill="white" stroke="black" points="0,-76.5 0,-95.5 84,-95.5 84,-76.5 0,-76.5"/>
<text text-anchor="middle" x="42" y="-83.5" font-family="Helvetica,sans-Serif" font-size="10.00">Apexi::readData</text>
</a>
</g>
</g>
<!-- Node5&#45;&gt;Node10 -->
<g id="edge11" class="edge">
<title>Node5&#45;&gt;Node10</title>
<path fill="none" stroke="midnightblue" d="M437.84,-102.22C340.57,-98.22 164.17,-90.98 84.28,-87.7"/>
<polygon fill="midnightblue" stroke="midnightblue" points="437.72,-105.72 447.86,-102.63 438.01,-98.72 437.72,-105.72"/>
</g>
<!-- Node8 -->
<g id="node8" class="node">
<title>Node8</title>
<g id="a_node8"><a xlink:href="classConnect.html#a0d674157f4d7442c535837dadd8cf5f1" target="_top" xlink:title=" ">
<polygon fill="white" stroke="black" points="120,-0.5 120,-19.5 247,-19.5 247,-0.5 120,-0.5"/>
<text text-anchor="middle" x="183.5" y="-7.5" font-family="Helvetica,sans-Serif" font-size="10.00">Connect::openConnection</text>
</a>
</g>
</g>
<!-- Node7&#45;&gt;Node8 -->
<g id="edge7" class="edge">
<title>Node7&#45;&gt;Node8</title>
<path fill="none" stroke="midnightblue" d="M295.79,-36.1C273.01,-30.76 246.51,-24.55 225.09,-19.52"/>
<polygon fill="midnightblue" stroke="midnightblue" points="295.09,-39.53 305.62,-38.41 296.68,-32.72 295.09,-39.53"/>
</g>
<!-- Node9 -->
<g id="node9" class="node">
<title>Node9</title>
<g id="a_node9"><a xlink:href="classApexi.html#af3673b74b8aebe06a2b2f9ed81c23ee4" target="_top" xlink:title=" ">
<polygon fill="white" stroke="black" points="134.5,-38.5 134.5,-57.5 232.5,-57.5 232.5,-38.5 134.5,-38.5"/>
<text text-anchor="middle" x="183.5" y="-45.5" font-family="Helvetica,sans-Serif" font-size="10.00">Apexi::retryconnect</text>
</a>
</g>
</g>
<!-- Node7&#45;&gt;Node9 -->
<g id="edge8" class="edge">
<title>Node7&#45;&gt;Node9</title>
<path fill="none" stroke="midnightblue" d="M279.6,-48C263.81,-48 247.29,-48 232.53,-48"/>
<polygon fill="midnightblue" stroke="midnightblue" points="279.84,-51.5 289.84,-48 279.84,-44.5 279.84,-51.5"/>
</g>
<!-- Node9&#45;&gt;Node10 -->
<g id="edge9" class="edge">
<title>Node9&#45;&gt;Node10</title>
<path fill="none" stroke="midnightblue" d="M137.54,-60.25C118.32,-65.48 96.2,-71.51 78.19,-76.41"/>
<polygon fill="midnightblue" stroke="midnightblue" points="138.57,-63.59 147.3,-57.59 136.73,-56.84 138.57,-63.59"/>
</g>
<!-- Node10&#45;&gt;Node3 -->
<g id="edge10" class="edge">
<title>Node10&#45;&gt;Node3</title>
<path fill="none" stroke="midnightblue" d="M74.82,-99.47C129.38,-121.3 244.74,-162 346.5,-162 507.5,-162 507.5,-162 507.5,-162 601.99,-162 710.84,-130.77 761.01,-114.54"/>
<polygon fill="midnightblue" stroke="midnightblue" points="75.94,-96.15 65.36,-95.63 73.31,-102.63 75.94,-96.15"/>
</g>
<!-- Node11&#45;&gt;Node7 -->
<g id="edge13" class="edge">
<title>Node11&#45;&gt;Node7</title>
<path fill="none" stroke="midnightblue" d="M445.82,-59.78C432.51,-58.17 418.43,-56.46 405.24,-54.87"/>
<polygon fill="midnightblue" stroke="midnightblue" points="445.48,-63.26 455.82,-60.99 446.32,-56.31 445.48,-63.26"/>
</g>
<!-- Node12&#45;&gt;Node5 -->
<g id="edge15" class="edge">
<title>Node12&#45;&gt;Node5</title>
<path fill="none" stroke="midnightblue" d="M607.65,-79.11C587.17,-84.4 563.51,-90.52 544.33,-95.48"/>
<polygon fill="midnightblue" stroke="midnightblue" points="608.6,-82.48 617.41,-76.59 606.85,-75.7 608.6,-82.48"/>
</g>
<!-- Node12&#45;&gt;Node11 -->
<g id="edge16" class="edge">
<title>Node12&#45;&gt;Node11</title>
<path fill="none" stroke="midnightblue" d="M590.43,-67C579.23,-67 567.74,-67 557.01,-67"/>
<polygon fill="midnightblue" stroke="midnightblue" points="590.6,-70.5 600.6,-67 590.6,-63.5 590.6,-70.5"/>
</g>
</g>
</svg>
        <g id="navigator" transform="translate(0 0)" fill="#404254">
                <rect fill="#f2f5e9" fill-opacity="0.5" stroke="#606060" stroke-width=".5" x="0" y="0" width="60" height="60"/>
                <use id="zoomplus" xlink:href="#zoomPlus" x="17" y="9" onmousedown="handleZoom(evt,'in')"/>
                <use id="zoomminus" xlink:href="#zoomMin" x="42" y="9" onmousedown="handleZoom(evt,'out')"/>
                <use id="reset" xlink:href="#resetDef" x="30" y="36" onmousedown="handleReset()"/>
                <g id="arrowUp" xlink:href="#dirArrow" transform="translate(30 24)" onmousedown="handlePan(0,-1)">
                  <use xlink:href="#rim" fill="#404040">
                        <set attributeName="fill" to="#808080" begin="arrowUp.mouseover" end="arrowUp.mouseout"/>
                  </use>
                  <path fill="none" stroke="white" stroke-width="1.5" d="M0,-3.0v7 M-2.5,-0.5L0,-3.0L2.5,-0.5"/>
                </g>
                <g id="arrowRight" xlink:href="#dirArrow" transform="rotate(90) translate(36 -43)" onmousedown="handlePan(1,0)">
                  <use xlink:href="#rim" fill="#404040">
                        <set attributeName="fill" to="#808080" begin="arrowRight.mouseover" end="arrowRight.mouseout"/>
                  </use>
                  <path fill="none" stroke="white" stroke-width="1.5" d="M0,-3.0v7 M-2.5,-0.5L0,-3.0L2.5,-0.5"/>
                </g>
                <g id="arrowDown" xlink:href="#dirArrow" transform="rotate(180) translate(-30 -48)" onmousedown="handlePan(0,1)">
                  <use xlink:href="#rim" fill="#404040">
                        <set attributeName="fill" to="#808080" begin="arrowDown.mouseover" end="arrowDown.mouseout"/>
                  </use>
                  <path fill="none" stroke="white" stroke-width="1.5" d="M0,-3.0v7 M-2.5,-0.5L0,-3.0L2.5,-0.5"/>
                </g>
                <g id="arrowLeft" xlink:href="#dirArrow" transform="rotate(270) translate(-36 17)" onmousedown="handlePan(-1,0)">
                  <use xlink:href="#rim" fill="#404040">
                        <set attributeName="fill" to="#808080" begin="arrowLeft.mouseover" end="arrowLeft.mouseout"/>
                  </use>
                  <path fill="none" stroke="white" stroke-width="1.5" d="M0,-3.0v7 M-2.5,-0.5L0,-3.0L2.5,-0.5"/>
                </g>
        </g>
        <svg viewBox="0 0 15 15" width="100%" height="30px" preserveAspectRatio="xMaxYMin meet">
         <g id="arrow_out" transform="scale(0.3 0.3)">
          <a xlink:href="classApexi_af312531b1dbc60175016a82881203f18_icgraph_org.svg" target="_base">
           <rect id="button" ry="5" rx="5" y="6" x="6" height="38" width="38"
                fill="#f2f5e9" fill-opacity="0.5" stroke="#606060" stroke-width="1.0"/>
           <path id="arrow"
             d="M 11.500037,31.436501 C 11.940474,20.09759 22.043105,11.32322 32.158766,21.979434 L 37.068811,17.246167 C 37.068811,17.246167 37.088388,32 37.088388,32 L 22.160133,31.978069 C 22.160133,31.978069 26.997745,27.140456 26.997745,27.140456 C 18.528582,18.264221 13.291696,25.230495 11.500037,31.436501 z"
             style="fill:#404040;"/>
          </a>
         </g>
        </svg>
</svg>
