<?xml version="1.0" encoding="UTF-8" standalone="no"?>
<!DOCTYPE svg PUBLIC "-//W3C//DTD SVG 1.1//EN"
 "http://www.w3.org/Graphics/SVG/1.1/DTD/svg11.dtd">
<!-- Generated by graphviz version 2.49.3 (20211027.1534)
 -->
<!-- Title: averageRPM Pages: 1 -->
<!--zoomable 230 -->
<svg id="main" version="1.1" xmlns="http://www.w3.org/2000/svg" xmlns:xlink="http://www.w3.org/1999/xlink" xml:space="preserve" onload="init(evt)">
<style type="text/css"><![CDATA[
.edge:hover path { stroke: red; }
.edge:hover polygon { stroke: red; fill: red; }
]]></style>
<script type="text/javascript"><![CDATA[
var edges = document.getElementsByTagName('g');
if (edges && edges.length) {
  for (var i=0;i<edges.length;i++) {
    if (edges[i].id.substr(0,4)=='edge') {
      edges[i].setAttribute('class','edge');
    }
  }
}
]]></script>
        <defs>
                <circle id="rim" cx="0" cy="0" r="7"/>
                <circle id="rim2" cx="0" cy="0" r="3.5"/>
                <g id="zoomPlus">
                        <use xlink:href="#rim" fill="#404040">
                                <set attributeName="fill" to="#808080" begin="zoomplus.mouseover" end="zoomplus.mouseout"/>
                        </use>
                        <path d="M-4,0h8M0,-4v8" fill="none" stroke="white" stroke-width="1.5" pointer-events="none"/>
                </g>
                <g id="zoomMin">
                        <use xlink:href="#rim" fill="#404040">
                                <set attributeName="fill" to="#808080" begin="zoomminus.mouseover" end="zoomminus.mouseout"/>
                        </use>
                        <path d="M-4,0h8" fill="none" stroke="white" stroke-width="1.5" pointer-events="none"/>
                </g>
                <g id="dirArrow">
                        <path fill="none" stroke="white" stroke-width="1.5" d="M0,-3.0v7 M-2.5,-0.5L0,-3.0L2.5,-0.5"/>
                </g>
               <g id="resetDef">
                       <use xlink:href="#rim2" fill="#404040">
                               <set attributeName="fill" to="#808080" begin="reset.mouseover" end="reset.mouseout"/>
                       </use>
               </g>
        </defs>

<script type="text/javascript">
var viewWidth = 1473;
var viewHeight = 230;
var sectionId = 'dynsection-2';
</script>
<script xlink:href="svgpan.js"/>
<svg id="graph" class="graph">
<g id="viewport">
<title>averageRPM</title>
<polygon fill="white" stroke="transparent" points="-4,4 -4,-225.5 1469,-225.5 1469,4 -4,4"/>
<!-- Node1 -->
<g id="node1" class="node">
<title>Node1</title>
<g id="a_node1"><a xlink:title=" ">
<polygon fill="#bfbfbf" stroke="black" points="1392,-87.5 1392,-106.5 1465,-106.5 1465,-87.5 1392,-87.5"/>
<text text-anchor="middle" x="1428.5" y="-94.5" font-family="Helvetica,sans-Serif" font-size="10.00">averageRPM</text>
</a>
</g>
</g>
<!-- Node2 -->
<g id="node2" class="node">
<title>Node2</title>
<g id="a_node2"><a xlink:href="classDashBoard.html#ab8a26c5ebc87f76cc237e46d8e014403" target="_top" xlink:title=" ">
<polygon fill="white" stroke="black" points="1241,-106.5 1241,-125.5 1340,-125.5 1340,-106.5 1241,-106.5"/>
<text text-anchor="middle" x="1290.5" y="-113.5" font-family="Helvetica,sans-Serif" font-size="10.00">DashBoard::setrpm</text>
</a>
</g>
</g>
<!-- Node1&#45;&gt;Node2 -->
<g id="edge1" class="edge">
<title>Node1&#45;&gt;Node2</title>
<path fill="none" stroke="midnightblue" d="M1381.79,-103.39C1368.36,-105.26 1353.63,-107.32 1340.03,-109.22"/>
<polygon fill="midnightblue" stroke="midnightblue" points="1382.35,-106.84 1391.77,-101.99 1381.38,-99.91 1382.35,-106.84"/>
</g>
<!-- Node23 -->
<g id="node23" class="node">
<title>Node23</title>
<g id="a_node23"><a xlink:href="classDashBoard.html#a4c55bc8a5face2014ca304dd21858f24" target="_top" xlink:title=" ">
<polygon fill="white" stroke="black" points="1225,-68.5 1225,-87.5 1356,-87.5 1356,-68.5 1225,-68.5"/>
<text text-anchor="middle" x="1290.5" y="-75.5" font-family="Helvetica,sans-Serif" font-size="10.00">DashBoard::setsmoothrpm</text>
</a>
</g>
</g>
<!-- Node1&#45;&gt;Node23 -->
<g id="edge28" class="edge">
<title>Node1&#45;&gt;Node23</title>
<path fill="none" stroke="midnightblue" d="M1381.68,-90.6C1373.48,-89.45 1364.8,-88.24 1356.19,-87.04"/>
<polygon fill="midnightblue" stroke="midnightblue" points="1381.38,-94.09 1391.77,-92.01 1382.35,-87.16 1381.38,-94.09"/>
</g>
<!-- Node3 -->
<g id="node3" class="node">
<title>Node3</title>
<g id="a_node3"><a xlink:href="classAdaptronicSelect.html#ae353c5153a25423eb6044be7a2f1bf72" target="_top" xlink:title=" ">
<polygon fill="white" stroke="black" points="1055,-187 1055,-217 1182,-217 1182,-187 1055,-187"/>
<text text-anchor="start" x="1063" y="-205" font-family="Helvetica,sans-Serif" font-size="10.00">AdaptronicSelect::decode</text>
<text text-anchor="middle" x="1118.5" y="-194" font-family="Helvetica,sans-Serif" font-size="10.00">Adaptronic</text>
</a>
</g>
</g>
<!-- Node2&#45;&gt;Node3 -->
<g id="edge2" class="edge">
<title>Node2&#45;&gt;Node3</title>
<path fill="none" stroke="midnightblue" d="M1265.01,-130.99C1244.93,-143.01 1215.59,-159.97 1189,-173 1179.14,-177.83 1168.27,-182.62 1158.11,-186.86"/>
<polygon fill="midnightblue" stroke="midnightblue" points="1267.05,-133.85 1273.81,-125.69 1263.44,-127.86 1267.05,-133.85"/>
</g>
<!-- Node7 -->
<g id="node7" class="node">
<title>Node7</title>
<g id="a_node7"><a xlink:href="classApexi.html#a3ecd8445700ab9532fc051325f66d03d" target="_top" xlink:title=" ">
<polygon fill="white" stroke="black" points="1071.5,-106.5 1071.5,-125.5 1165.5,-125.5 1165.5,-106.5 1071.5,-106.5"/>
<text text-anchor="middle" x="1118.5" y="-113.5" font-family="Helvetica,sans-Serif" font-size="10.00">Apexi::decodeAdv</text>
</a>
</g>
</g>
<!-- Node2&#45;&gt;Node7 -->
<g id="edge6" class="edge">
<title>Node2&#45;&gt;Node7</title>
<path fill="none" stroke="midnightblue" d="M1230.56,-116C1209.29,-116 1185.61,-116 1165.59,-116"/>
<polygon fill="midnightblue" stroke="midnightblue" points="1230.78,-119.5 1240.78,-116 1230.78,-112.5 1230.78,-119.5"/>
</g>
<!-- Node17 -->
<g id="node17" class="node">
<title>Node17</title>
<g id="a_node17"><a xlink:href="classApexi.html#af3dad564d7c3cca0e98f5944e5e27cdf" target="_top" xlink:title=" ">
<polygon fill="white" stroke="black" points="1068,-144.5 1068,-163.5 1169,-163.5 1169,-144.5 1068,-144.5"/>
<text text-anchor="middle" x="1118.5" y="-151.5" font-family="Helvetica,sans-Serif" font-size="10.00">Apexi::decodeBasic</text>
</a>
</g>
</g>
<!-- Node2&#45;&gt;Node17 -->
<g id="edge19" class="edge">
<title>Node2&#45;&gt;Node17</title>
<path fill="none" stroke="midnightblue" d="M1236.6,-127.82C1212.63,-133.18 1184.68,-139.43 1162.09,-144.48"/>
<polygon fill="midnightblue" stroke="midnightblue" points="1237.61,-131.19 1246.6,-125.59 1236.08,-124.35 1237.61,-131.19"/>
</g>
<!-- Node18 -->
<g id="node18" class="node">
<title>Node18</title>
<g id="a_node18"><a xlink:href="classudpreceiver.html#a725cf4f5cf798fd5baed7eee2e6dd5f2" target="_top" xlink:title=" ">
<polygon fill="white" stroke="black" points="1048,-11 1048,-41 1189,-41 1189,-11 1048,-11"/>
<text text-anchor="start" x="1056" y="-29" font-family="Helvetica,sans-Serif" font-size="10.00">udpreceiver::processPending</text>
<text text-anchor="middle" x="1118.5" y="-18" font-family="Helvetica,sans-Serif" font-size="10.00">Datagrams</text>
</a>
</g>
</g>
<!-- Node2&#45;&gt;Node18 -->
<g id="edge21" class="edge">
<title>Node2&#45;&gt;Node18</title>
<path fill="none" stroke="midnightblue" d="M1235.9,-102.66C1232.1,-100.98 1228.43,-99.1 1225,-97 1205.16,-84.85 1207.83,-72.67 1189,-59 1179.49,-52.1 1168.3,-46.04 1157.72,-41.06"/>
<polygon fill="midnightblue" stroke="midnightblue" points="1234.9,-106.03 1245.49,-106.43 1237.47,-99.52 1234.9,-106.03"/>
</g>
<!-- Node20 -->
<g id="node20" class="node">
<title>Node20</title>
<g id="a_node20"><a xlink:href="classExtender.html#ab1ef1d1764fa63ca790092c338272466" target="_top" xlink:title=" ">
<polygon fill="white" stroke="black" points="1060.5,-68.5 1060.5,-87.5 1176.5,-87.5 1176.5,-68.5 1060.5,-68.5"/>
<text text-anchor="middle" x="1118.5" y="-75.5" font-family="Helvetica,sans-Serif" font-size="10.00">Extender::readyToRead</text>
</a>
</g>
</g>
<!-- Node2&#45;&gt;Node20 -->
<g id="edge24" class="edge">
<title>Node2&#45;&gt;Node20</title>
<path fill="none" stroke="midnightblue" d="M1236.6,-104.18C1212.63,-98.82 1184.68,-92.57 1162.09,-87.52"/>
<polygon fill="midnightblue" stroke="midnightblue" points="1236.08,-107.65 1246.6,-106.41 1237.61,-100.81 1236.08,-107.65"/>
</g>
<!-- Node4 -->
<g id="node4" class="node">
<title>Node4</title>
<g id="a_node4"><a xlink:href="classAdaptronicSelect.html#af5ee85733260355dd5236c796c6a3fc5" target="_top" xlink:title=" ">
<polygon fill="white" stroke="black" points="860,-194.5 860,-213.5 1012,-213.5 1012,-194.5 860,-194.5"/>
<text text-anchor="middle" x="936" y="-201.5" font-family="Helvetica,sans-Serif" font-size="10.00">AdaptronicSelect::readyToRead</text>
</a>
</g>
</g>
<!-- Node3&#45;&gt;Node4 -->
<g id="edge3" class="edge">
<title>Node3&#45;&gt;Node4</title>
<path fill="none" stroke="midnightblue" d="M1044.74,-202.81C1034.04,-202.92 1023,-203.05 1012.25,-203.17"/>
<polygon fill="midnightblue" stroke="midnightblue" points="1044.92,-206.3 1054.88,-202.69 1044.84,-199.3 1044.92,-206.3"/>
</g>
<!-- Node5 -->
<g id="node5" class="node">
<title>Node5</title>
<g id="a_node5"><a xlink:href="classAdaptronicSelect.html#a79148c38700405eb6a3fc1338be170ab" target="_top" xlink:title=" ">
<polygon fill="white" stroke="black" points="682,-191 682,-221 824,-221 824,-191 682,-191"/>
<text text-anchor="start" x="690" y="-209" font-family="Helvetica,sans-Serif" font-size="10.00">AdaptronicSelect::Adaptronic</text>
<text text-anchor="middle" x="753" y="-198" font-family="Helvetica,sans-Serif" font-size="10.00">StartStream</text>
</a>
</g>
</g>
<!-- Node4&#45;&gt;Node5 -->
<g id="edge4" class="edge">
<title>Node4&#45;&gt;Node5</title>
<path fill="none" stroke="midnightblue" d="M849.75,-204.94C841.13,-205.04 832.45,-205.13 824.03,-205.23"/>
<polygon fill="midnightblue" stroke="midnightblue" points="849.85,-208.44 859.81,-204.83 849.77,-201.44 849.85,-208.44"/>
</g>
<!-- Node6 -->
<g id="node6" class="node">
<title>Node6</title>
<g id="a_node6"><a xlink:href="classAdaptronicSelect.html#a16932b235281a8071bdf5404df8160ac" target="_top" xlink:title=" ">
<polygon fill="white" stroke="black" points="481,-196.5 481,-215.5 646,-215.5 646,-196.5 481,-196.5"/>
<text text-anchor="middle" x="563.5" y="-203.5" font-family="Helvetica,sans-Serif" font-size="10.00">AdaptronicSelect::openConnection</text>
</a>
</g>
</g>
<!-- Node5&#45;&gt;Node6 -->
<g id="edge5" class="edge">
<title>Node5&#45;&gt;Node6</title>
<path fill="none" stroke="midnightblue" d="M671.7,-206C663.25,-206 654.65,-206 646.19,-206"/>
<polygon fill="midnightblue" stroke="midnightblue" points="671.92,-209.5 681.92,-206 671.92,-202.5 671.92,-209.5"/>
</g>
<!-- Node8 -->
<g id="node8" class="node">
<title>Node8</title>
<g id="a_node8"><a xlink:href="classApexi.html#a4e7b389e8d3e283a12733ab4f8492be3" target="_top" xlink:title=" ">
<polygon fill="white" stroke="black" points="894,-114.5 894,-133.5 978,-133.5 978,-114.5 894,-114.5"/>
<text text-anchor="middle" x="936" y="-121.5" font-family="Helvetica,sans-Serif" font-size="10.00">Apexi::readData</text>
</a>
</g>
</g>
<!-- Node7&#45;&gt;Node8 -->
<g id="edge7" class="edge">
<title>Node7&#45;&gt;Node8</title>
<path fill="none" stroke="midnightblue" d="M1061.4,-118.49C1034.43,-119.68 1002.68,-121.09 978,-122.18"/>
<polygon fill="midnightblue" stroke="midnightblue" points="1061.65,-121.98 1071.49,-118.04 1061.34,-114.99 1061.65,-121.98"/>
</g>
<!-- Node9 -->
<g id="node9" class="node">
<title>Node9</title>
<g id="a_node9"><a xlink:href="classApexi.html#a4cb1314ab5ca5175aa227ed178148f40" target="_top" xlink:title=" ">
<polygon fill="white" stroke="black" points="709,-76.5 709,-95.5 797,-95.5 797,-76.5 709,-76.5"/>
<text text-anchor="middle" x="753" y="-83.5" font-family="Helvetica,sans-Serif" font-size="10.00">Apexi::apexiECU</text>
</a>
</g>
</g>
<!-- Node8&#45;&gt;Node9 -->
<g id="edge8" class="edge">
<title>Node8&#45;&gt;Node9</title>
<path fill="none" stroke="midnightblue" d="M884.13,-113.32C856.71,-107.56 823.24,-100.54 797.12,-95.05"/>
<polygon fill="midnightblue" stroke="midnightblue" points="883.42,-116.75 893.93,-115.38 884.86,-109.9 883.42,-116.75"/>
</g>
<!-- Node10 -->
<g id="node10" class="node">
<title>Node10</title>
<g id="a_node10"><a xlink:href="classApexi.html#abe3bf6800fce8a4c713a08c14474d625" target="_top" xlink:title=" ">
<polygon fill="white" stroke="black" points="512.5,-76.5 512.5,-95.5 614.5,-95.5 614.5,-76.5 512.5,-76.5"/>
<text text-anchor="middle" x="563.5" y="-83.5" font-family="Helvetica,sans-Serif" font-size="10.00">Apexi::readyToRead</text>
</a>
</g>
</g>
<!-- Node9&#45;&gt;Node10 -->
<g id="edge9" class="edge">
<title>Node9&#45;&gt;Node10</title>
<path fill="none" stroke="midnightblue" d="M698.77,-86C672.34,-86 640.6,-86 614.62,-86"/>
<polygon fill="midnightblue" stroke="midnightblue" points="698.98,-89.5 708.98,-86 698.98,-82.5 698.98,-89.5"/>
</g>
<!-- Node11 -->
<g id="node11" class="node">
<title>Node11</title>
<g id="a_node11"><a xlink:href="classApexi.html#a669124cabae4ada616e650e582c068da" target="_top" xlink:title=" ">
<polygon fill="white" stroke="black" points="328,-114.5 328,-133.5 445,-133.5 445,-114.5 328,-114.5"/>
<text text-anchor="middle" x="386.5" y="-121.5" font-family="Helvetica,sans-Serif" font-size="10.00">Apexi::closeConnection</text>
</a>
</g>
</g>
<!-- Node10&#45;&gt;Node11 -->
<g id="edge10" class="edge">
<title>Node10&#45;&gt;Node11</title>
<path fill="none" stroke="midnightblue" d="M508.38,-97.75C483.63,-103.13 454.7,-109.41 431.34,-114.48"/>
<polygon fill="midnightblue" stroke="midnightblue" points="509.31,-101.13 518.34,-95.59 507.83,-94.29 509.31,-101.13"/>
</g>
<!-- Node16 -->
<g id="node16" class="node">
<title>Node16</title>
<g id="a_node16"><a xlink:href="classApexi.html#a169d6e9466a6c04e6533c8e84fdcaadb" target="_top" xlink:title=" ">
<polygon fill="white" stroke="black" points="336,-76.5 336,-95.5 437,-95.5 437,-76.5 336,-76.5"/>
<text text-anchor="middle" x="386.5" y="-83.5" font-family="Helvetica,sans-Serif" font-size="10.00">Apexi::initSerialPort</text>
</a>
</g>
</g>
<!-- Node10&#45;&gt;Node16 -->
<g id="edge17" class="edge">
<title>Node10&#45;&gt;Node16</title>
<path fill="none" stroke="midnightblue" d="M502.14,-86C480.9,-86 457.3,-86 437.05,-86"/>
<polygon fill="midnightblue" stroke="midnightblue" points="502.35,-89.5 512.35,-86 502.35,-82.5 502.35,-89.5"/>
</g>
<!-- Node11&#45;&gt;Node8 -->
<g id="edge16" class="edge">
<title>Node11&#45;&gt;Node8</title>
<path fill="none" stroke="midnightblue" d="M455.33,-124C570.32,-124 800.19,-124 893.85,-124"/>
<polygon fill="midnightblue" stroke="midnightblue" points="455.23,-120.5 445.23,-124 455.23,-127.5 455.23,-120.5"/>
</g>
<!-- Node12 -->
<g id="node12" class="node">
<title>Node12</title>
<g id="a_node12"><a xlink:href="classConnect.html#abb89a14af2e2b3f6d466c5abfc95cff0" target="_top" xlink:title=" ">
<polygon fill="white" stroke="black" points="163,-114.5 163,-133.5 292,-133.5 292,-114.5 163,-114.5"/>
<text text-anchor="middle" x="227.5" y="-121.5" font-family="Helvetica,sans-Serif" font-size="10.00">Connect::closeConnection</text>
</a>
</g>
</g>
<!-- Node11&#45;&gt;Node12 -->
<g id="edge11" class="edge">
<title>Node11&#45;&gt;Node12</title>
<path fill="none" stroke="midnightblue" d="M317.7,-124C309.22,-124 300.57,-124 292.15,-124"/>
<polygon fill="midnightblue" stroke="midnightblue" points="317.93,-127.5 327.93,-124 317.93,-120.5 317.93,-127.5"/>
</g>
<!-- Node13 -->
<g id="node13" class="node">
<title>Node13</title>
<g id="a_node13"><a xlink:href="classApexi.html#a84e5eadc545afab5fbb0aea8b27e17c3" target="_top" xlink:title=" ">
<polygon fill="white" stroke="black" points="170,-76.5 170,-95.5 285,-95.5 285,-76.5 170,-76.5"/>
<text text-anchor="middle" x="227.5" y="-83.5" font-family="Helvetica,sans-Serif" font-size="10.00">Apexi::openConnection</text>
</a>
</g>
</g>
<!-- Node11&#45;&gt;Node13 -->
<g id="edge12" class="edge">
<title>Node11&#45;&gt;Node13</title>
<path fill="none" stroke="midnightblue" d="M336.05,-112.03C314.05,-106.71 288.51,-100.52 267.83,-95.52"/>
<polygon fill="midnightblue" stroke="midnightblue" points="335.34,-115.46 345.88,-114.41 336.99,-108.66 335.34,-115.46"/>
</g>
<!-- Node14 -->
<g id="node14" class="node">
<title>Node14</title>
<g id="a_node14"><a xlink:href="classConnect.html#a0d674157f4d7442c535837dadd8cf5f1" target="_top" xlink:title=" ">
<polygon fill="white" stroke="black" points="0,-38.5 0,-57.5 127,-57.5 127,-38.5 0,-38.5"/>
<text text-anchor="middle" x="63.5" y="-45.5" font-family="Helvetica,sans-Serif" font-size="10.00">Connect::openConnection</text>
</a>
</g>
</g>
<!-- Node13&#45;&gt;Node14 -->
<g id="edge13" class="edge">
<title>Node13&#45;&gt;Node14</title>
<path fill="none" stroke="midnightblue" d="M175.79,-74.1C153.01,-68.76 126.51,-62.55 105.09,-57.52"/>
<polygon fill="midnightblue" stroke="midnightblue" points="175.09,-77.53 185.62,-76.41 176.68,-70.72 175.09,-77.53"/>
</g>
<!-- Node15 -->
<g id="node15" class="node">
<title>Node15</title>
<g id="a_node15"><a xlink:href="classApexi.html#af3673b74b8aebe06a2b2f9ed81c23ee4" target="_top" xlink:title=" ">
<polygon fill="white" stroke="black" points="14.5,-114.5 14.5,-133.5 112.5,-133.5 112.5,-114.5 14.5,-114.5"/>
<text text-anchor="middle" x="63.5" y="-121.5" font-family="Helvetica,sans-Serif" font-size="10.00">Apexi::retryconnect</text>
</a>
</g>
</g>
<!-- Node13&#45;&gt;Node15 -->
<g id="edge14" class="edge">
<title>Node13&#45;&gt;Node15</title>
<path fill="none" stroke="midnightblue" d="M175.79,-97.9C153.01,-103.24 126.51,-109.45 105.09,-114.48"/>
<polygon fill="midnightblue" stroke="midnightblue" points="176.68,-101.28 185.62,-95.59 175.09,-94.47 176.68,-101.28"/>
</g>
<!-- Node15&#45;&gt;Node8 -->
<g id="edge15" class="edge">
<title>Node15&#45;&gt;Node8</title>
<path fill="none" stroke="midnightblue" d="M118.68,-135.51C133.04,-138.27 148.56,-141 163,-143 261.31,-156.64 286.25,-162 385.5,-162 564.5,-162 564.5,-162 564.5,-162 684.61,-162 825.48,-141.99 893.75,-131.01"/>
<polygon fill="midnightblue" stroke="midnightblue" points="118.95,-132 108.46,-133.51 117.6,-138.87 118.95,-132"/>
</g>
<!-- Node16&#45;&gt;Node13 -->
<g id="edge18" class="edge">
<title>Node16&#45;&gt;Node13</title>
<path fill="none" stroke="midnightblue" d="M325.82,-86C312.51,-86 298.43,-86 285.24,-86"/>
<polygon fill="midnightblue" stroke="midnightblue" points="325.82,-89.5 335.82,-86 325.82,-82.5 325.82,-89.5"/>
</g>
<!-- Node17&#45;&gt;Node8 -->
<g id="edge20" class="edge">
<title>Node17&#45;&gt;Node8</title>
<path fill="none" stroke="midnightblue" d="M1057.55,-144.04C1031.48,-139.7 1001.6,-134.74 978.11,-130.83"/>
<polygon fill="midnightblue" stroke="midnightblue" points="1057.26,-147.54 1067.7,-145.72 1058.41,-140.63 1057.26,-147.54"/>
</g>
<!-- Node19 -->
<g id="node19" class="node">
<title>Node19</title>
<g id="a_node19"><a xlink:href="classudpreceiver.html#a2d7852b9e4be87d9a3ce960d8a7eb9aa" target="_top" xlink:title=" ">
<polygon fill="white" stroke="black" points="501,-0.5 501,-19.5 626,-19.5 626,-0.5 501,-0.5"/>
<text text-anchor="middle" x="563.5" y="-7.5" font-family="Helvetica,sans-Serif" font-size="10.00">udpreceiver::startreceiver</text>
</a>
</g>
</g>
<!-- Node18&#45;&gt;Node19 -->
<g id="edge22" class="edge">
<title>Node18&#45;&gt;Node19</title>
<path fill="none" stroke="midnightblue" d="M1037.58,-23.69C926.32,-20.47 727.1,-14.7 626.39,-11.79"/>
<polygon fill="midnightblue" stroke="midnightblue" points="1037.65,-27.19 1047.74,-23.98 1037.85,-20.19 1037.65,-27.19"/>
</g>
<!-- Node19&#45;&gt;Node14 -->
<g id="edge23" class="edge">
<title>Node19&#45;&gt;Node14</title>
<path fill="none" stroke="midnightblue" d="M490.32,-12.57C410.2,-15.84 277.13,-22.48 163,-34 150.97,-35.21 138.15,-36.81 125.88,-38.49"/>
<polygon fill="midnightblue" stroke="midnightblue" points="490.93,-16.05 500.78,-12.15 490.65,-9.06 490.93,-16.05"/>
</g>
<!-- Node21 -->
<g id="node21" class="node">
<title>Node21</title>
<g id="a_node21"><a xlink:href="classExtender.html#a91c1b61923744481d7ee80dbd52b98c3" target="_top" xlink:title=" ">
<polygon fill="white" stroke="black" points="870.5,-38.5 870.5,-57.5 1001.5,-57.5 1001.5,-38.5 870.5,-38.5"/>
<text text-anchor="middle" x="936" y="-45.5" font-family="Helvetica,sans-Serif" font-size="10.00">Extender::closeConnection</text>
</a>
</g>
</g>
<!-- Node20&#45;&gt;Node21 -->
<g id="edge25" class="edge">
<title>Node20&#45;&gt;Node21</title>
<path fill="none" stroke="midnightblue" d="M1050.33,-66.84C1031.93,-63.78 1012.16,-60.49 994.36,-57.53"/>
<polygon fill="midnightblue" stroke="midnightblue" points="1049.95,-70.32 1060.39,-68.51 1051.1,-63.42 1049.95,-70.32"/>
</g>
<!-- Node22 -->
<g id="node22" class="node">
<title>Node22</title>
<g id="a_node22"><a xlink:href="classExtender.html#a290c0ffb772638ad4658eac0b0b5931e" target="_top" xlink:title=" ">
<polygon fill="white" stroke="black" points="702.5,-38.5 702.5,-57.5 803.5,-57.5 803.5,-38.5 702.5,-38.5"/>
<text text-anchor="middle" x="753" y="-45.5" font-family="Helvetica,sans-Serif" font-size="10.00">Extender::openCAN</text>
</a>
</g>
</g>
<!-- Node20&#45;&gt;Node22 -->
<g id="edge26" class="edge">
<title>Node20&#45;&gt;Node22</title>
<path fill="none" stroke="midnightblue" d="M1050.2,-77.6C998.14,-76.69 924.32,-74.11 860,-67 840.02,-64.79 818.13,-61.09 799.46,-57.53"/>
<polygon fill="midnightblue" stroke="midnightblue" points="1050.26,-81.1 1060.31,-77.76 1050.37,-74.1 1050.26,-81.1"/>
</g>
<!-- Node22&#45;&gt;Node14 -->
<g id="edge27" class="edge">
<title>Node22&#45;&gt;Node14</title>
<path fill="none" stroke="midnightblue" d="M692.17,-48C562.91,-48 258.66,-48 127.02,-48"/>
<polygon fill="midnightblue" stroke="midnightblue" points="692.28,-51.5 702.28,-48 692.28,-44.5 692.28,-51.5"/>
</g>
</g>
</svg>
        <g id="navigator" transform="translate(0 0)" fill="#404254">
                <rect fill="#f2f5e9" fill-opacity="0.5" stroke="#606060" stroke-width=".5" x="0" y="0" width="60" height="60"/>
                <use id="zoomplus" xlink:href="#zoomPlus" x="17" y="9" onmousedown="handleZoom(evt,'in')"/>
                <use id="zoomminus" xlink:href="#zoomMin" x="42" y="9" onmousedown="handleZoom(evt,'out')"/>
                <use id="reset" xlink:href="#resetDef" x="30" y="36" onmousedown="handleReset()"/>
                <g id="arrowUp" xlink:href="#dirArrow" transform="translate(30 24)" onmousedown="handlePan(0,-1)">
                  <use xlink:href="#rim" fill="#404040">
                        <set attributeName="fill" to="#808080" begin="arrowUp.mouseover" end="arrowUp.mouseout"/>
                  </use>
                  <path fill="none" stroke="white" stroke-width="1.5" d="M0,-3.0v7 M-2.5,-0.5L0,-3.0L2.5,-0.5"/>
                </g>
                <g id="arrowRight" xlink:href="#dirArrow" transform="rotate(90) translate(36 -43)" onmousedown="handlePan(1,0)">
                  <use xlink:href="#rim" fill="#404040">
                        <set attributeName="fill" to="#808080" begin="arrowRight.mouseover" end="arrowRight.mouseout"/>
                  </use>
                  <path fill="none" stroke="white" stroke-width="1.5" d="M0,-3.0v7 M-2.5,-0.5L0,-3.0L2.5,-0.5"/>
                </g>
                <g id="arrowDown" xlink:href="#dirArrow" transform="rotate(180) translate(-30 -48)" onmousedown="handlePan(0,1)">
                  <use xlink:href="#rim" fill="#404040">
                        <set attributeName="fill" to="#808080" begin="arrowDown.mouseover" end="arrowDown.mouseout"/>
                  </use>
                  <path fill="none" stroke="white" stroke-width="1.5" d="M0,-3.0v7 M-2.5,-0.5L0,-3.0L2.5,-0.5"/>
                </g>
                <g id="arrowLeft" xlink:href="#dirArrow" transform="rotate(270) translate(-36 17)" onmousedown="handlePan(-1,0)">
                  <use xlink:href="#rim" fill="#404040">
                        <set attributeName="fill" to="#808080" begin="arrowLeft.mouseover" end="arrowLeft.mouseout"/>
                  </use>
                  <path fill="none" stroke="white" stroke-width="1.5" d="M0,-3.0v7 M-2.5,-0.5L0,-3.0L2.5,-0.5"/>
                </g>
        </g>
        <svg viewBox="0 0 15 15" width="100%" height="30px" preserveAspectRatio="xMaxYMin meet">
         <g id="arrow_out" transform="scale(0.3 0.3)">
          <a xlink:href="dashboard_8cpp_abaed07c489b38d23644263ae435338d4_icgraph_org.svg" target="_base">
           <rect id="button" ry="5" rx="5" y="6" x="6" height="38" width="38"
                fill="#f2f5e9" fill-opacity="0.5" stroke="#606060" stroke-width="1.0"/>
           <path id="arrow"
             d="M 11.500037,31.436501 C 11.940474,20.09759 22.043105,11.32322 32.158766,21.979434 L 37.068811,17.246167 C 37.068811,17.246167 37.088388,32 37.088388,32 L 22.160133,31.978069 C 22.160133,31.978069 26.997745,27.140456 26.997745,27.140456 C 18.528582,18.264221 13.291696,25.230495 11.500037,31.436501 z"
             style="fill:#404040;"/>
          </a>
         </g>
        </svg>
</svg>
