<?xml version="1.0" encoding="UTF-8" standalone="no"?>
<!DOCTYPE svg PUBLIC "-//W3C//DTD SVG 1.1//EN"
 "http://www.w3.org/Graphics/SVG/1.1/DTD/svg11.dtd">
<!-- Generated by graphviz version 2.49.3 (20211027.1534)
 -->
<!-- Title: dashboard.h Pages: 1 -->
<svg width="1414pt" height="196pt"
 viewBox="0.00 0.00 1414.00 196.00" xmlns="http://www.w3.org/2000/svg" xmlns:xlink="http://www.w3.org/1999/xlink">
<g id="graph0" class="graph" transform="scale(1 1) rotate(0) translate(4 192)">
<title>dashboard.h</title>
<polygon fill="white" stroke="transparent" points="-4,4 -4,-192 1410,-192 1410,4 -4,4"/>
<!-- Node1 -->
<g id="node1" class="node">
<title>Node1</title>
<g id="a_node1"><a xlink:title=" ">
<polygon fill="#bfbfbf" stroke="black" points="680,-168.5 680,-187.5 749,-187.5 749,-168.5 680,-168.5"/>
<text text-anchor="middle" x="714.5" y="-175.5" font-family="Helvetica,sans-Serif" font-size="10.00">dashboard.h</text>
</a>
</g>
</g>
<!-- Node2 -->
<g id="node2" class="node">
<title>Node2</title>
<g id="a_node2"><a xlink:href="AdaptronicSelect_8cpp.html" target="_top" xlink:title=" ">
<polygon fill="white" stroke="black" points="0,-112.5 0,-131.5 109,-131.5 109,-112.5 0,-112.5"/>
<text text-anchor="middle" x="54.5" y="-119.5" font-family="Helvetica,sans-Serif" font-size="10.00">AdaptronicSelect.cpp</text>
</a>
</g>
</g>
<!-- Node1&#45;&gt;Node2 -->
<g id="edge1" class="edge">
<title>Node1&#45;&gt;Node2</title>
<path fill="none" stroke="midnightblue" d="M669.77,-174.65C570.31,-169.2 323.33,-154.43 117.5,-132 114.75,-131.7 111.94,-131.37 109.11,-131.03"/>
<polygon fill="midnightblue" stroke="midnightblue" points="669.59,-178.15 679.77,-175.19 669.97,-171.16 669.59,-178.15"/>
</g>
<!-- Node3 -->
<g id="node3" class="node">
<title>Node3</title>
<g id="a_node3"><a xlink:href="Apexi_8cpp.html" target="_top" xlink:title=" ">
<polygon fill="white" stroke="black" points="127,-112.5 127,-131.5 186,-131.5 186,-112.5 127,-112.5"/>
<text text-anchor="middle" x="156.5" y="-119.5" font-family="Helvetica,sans-Serif" font-size="10.00">Apexi.cpp</text>
</a>
</g>
</g>
<!-- Node1&#45;&gt;Node3 -->
<g id="edge2" class="edge">
<title>Node1&#45;&gt;Node3</title>
<path fill="none" stroke="midnightblue" d="M669.85,-175.24C579.71,-171.22 369.73,-159.52 195.5,-132 192.48,-131.52 189.35,-130.94 186.23,-130.31"/>
<polygon fill="midnightblue" stroke="midnightblue" points="669.84,-178.74 679.99,-175.68 670.15,-171.75 669.84,-178.74"/>
</g>
<!-- Node4 -->
<g id="node4" class="node">
<title>Node4</title>
<g id="a_node4"><a xlink:href="Extender_8cpp.html" target="_top" xlink:title=" ">
<polygon fill="white" stroke="black" points="204.5,-112.5 204.5,-131.5 276.5,-131.5 276.5,-112.5 204.5,-112.5"/>
<text text-anchor="middle" x="240.5" y="-119.5" font-family="Helvetica,sans-Serif" font-size="10.00">Extender.cpp</text>
</a>
</g>
</g>
<!-- Node1&#45;&gt;Node4 -->
<g id="edge3" class="edge">
<title>Node1&#45;&gt;Node4</title>
<path fill="none" stroke="midnightblue" d="M669.9,-173.7C591.75,-167.6 425.08,-153.23 285.5,-132 282.66,-131.57 279.74,-131.08 276.8,-130.56"/>
<polygon fill="midnightblue" stroke="midnightblue" points="669.64,-177.19 679.88,-174.47 670.18,-170.21 669.64,-177.19"/>
</g>
<!-- Node5 -->
<g id="node5" class="node">
<title>Node5</title>
<g id="a_node5"><a xlink:href="appsettings_8cpp.html" target="_top" xlink:title=" ">
<polygon fill="white" stroke="black" points="295,-112.5 295,-131.5 380,-131.5 380,-112.5 295,-112.5"/>
<text text-anchor="middle" x="337.5" y="-119.5" font-family="Helvetica,sans-Serif" font-size="10.00">appsettings.cpp</text>
</a>
</g>
</g>
<!-- Node1&#45;&gt;Node5 -->
<g id="edge4" class="edge">
<title>Node1&#45;&gt;Node5</title>
<path fill="none" stroke="midnightblue" d="M669.86,-171.31C607.16,-163.19 489.47,-147.57 389.5,-132 386.42,-131.52 383.24,-131.01 380.05,-130.48"/>
<polygon fill="midnightblue" stroke="midnightblue" points="669.45,-174.78 679.81,-172.59 670.34,-167.84 669.45,-174.78"/>
</g>
<!-- Node6 -->
<g id="node6" class="node">
<title>Node6</title>
<g id="a_node6"><a xlink:href="arduino_8cpp.html" target="_top" xlink:title=" ">
<polygon fill="white" stroke="black" points="398.5,-112.5 398.5,-131.5 464.5,-131.5 464.5,-112.5 398.5,-112.5"/>
<text text-anchor="middle" x="431.5" y="-119.5" font-family="Helvetica,sans-Serif" font-size="10.00">arduino.cpp</text>
</a>
</g>
</g>
<!-- Node1&#45;&gt;Node6 -->
<g id="edge5" class="edge">
<title>Node1&#45;&gt;Node6</title>
<path fill="none" stroke="midnightblue" d="M669.88,-169.03C621.45,-160.3 541.88,-145.71 473.5,-132 470.72,-131.44 467.84,-130.85 464.95,-130.25"/>
<polygon fill="midnightblue" stroke="midnightblue" points="669.26,-172.48 679.72,-170.8 670.5,-165.59 669.26,-172.48"/>
</g>
<!-- Node7 -->
<g id="node7" class="node">
<title>Node7</title>
<g id="a_node7"><a xlink:href="calculations_8cpp.html" target="_top" xlink:title=" ">
<polygon fill="white" stroke="black" points="482.5,-112.5 482.5,-131.5 568.5,-131.5 568.5,-112.5 482.5,-112.5"/>
<text text-anchor="middle" x="525.5" y="-119.5" font-family="Helvetica,sans-Serif" font-size="10.00">calculations.cpp</text>
</a>
</g>
</g>
<!-- Node1&#45;&gt;Node7 -->
<g id="edge6" class="edge">
<title>Node1&#45;&gt;Node7</title>
<path fill="none" stroke="midnightblue" d="M674.49,-165.57C638.83,-155.38 587.46,-140.7 555.31,-131.52"/>
<polygon fill="midnightblue" stroke="midnightblue" points="673.98,-169.06 684.55,-168.44 675.9,-162.33 673.98,-169.06"/>
</g>
<!-- Node8 -->
<g id="node8" class="node">
<title>Node8</title>
<g id="a_node8"><a xlink:href="connect_8cpp.html" target="_top" xlink:title=" ">
<polygon fill="white" stroke="black" points="587,-112.5 587,-131.5 656,-131.5 656,-112.5 587,-112.5"/>
<text text-anchor="middle" x="621.5" y="-119.5" font-family="Helvetica,sans-Serif" font-size="10.00">connect.cpp</text>
</a>
</g>
</g>
<!-- Node1&#45;&gt;Node8 -->
<g id="edge7" class="edge">
<title>Node1&#45;&gt;Node8</title>
<path fill="none" stroke="midnightblue" d="M690.69,-163.18C673.58,-153.24 651.03,-140.15 636.4,-131.65"/>
<polygon fill="midnightblue" stroke="midnightblue" points="689.15,-166.33 699.56,-168.32 692.67,-160.28 689.15,-166.33"/>
</g>
<!-- Node9 -->
<g id="node9" class="node">
<title>Node9</title>
<g id="a_node9"><a xlink:href="dashboard_8cpp.html" target="_top" xlink:title=" ">
<polygon fill="white" stroke="black" points="674.5,-112.5 674.5,-131.5 754.5,-131.5 754.5,-112.5 674.5,-112.5"/>
<text text-anchor="middle" x="714.5" y="-119.5" font-family="Helvetica,sans-Serif" font-size="10.00">dashboard.cpp</text>
</a>
</g>
</g>
<!-- Node1&#45;&gt;Node9 -->
<g id="edge8" class="edge">
<title>Node1&#45;&gt;Node9</title>
<path fill="none" stroke="midnightblue" d="M714.5,-157.8C714.5,-148.91 714.5,-138.78 714.5,-131.75"/>
<polygon fill="midnightblue" stroke="midnightblue" points="711,-158.08 714.5,-168.08 718,-158.08 711,-158.08"/>
</g>
<!-- Node10 -->
<g id="node10" class="node">
<title>Node10</title>
<g id="a_node10"><a xlink:href="datalogger_8cpp.html" target="_top" xlink:title=" ">
<polygon fill="white" stroke="black" points="772.5,-112.5 772.5,-131.5 852.5,-131.5 852.5,-112.5 772.5,-112.5"/>
<text text-anchor="middle" x="812.5" y="-119.5" font-family="Helvetica,sans-Serif" font-size="10.00">datalogger.cpp</text>
</a>
</g>
</g>
<!-- Node1&#45;&gt;Node10 -->
<g id="edge9" class="edge">
<title>Node1&#45;&gt;Node10</title>
<path fill="none" stroke="midnightblue" d="M739.09,-163.45C757.18,-153.48 781.23,-140.23 796.79,-131.65"/>
<polygon fill="midnightblue" stroke="midnightblue" points="737.31,-160.43 730.25,-168.32 740.69,-166.56 737.31,-160.43"/>
</g>
<!-- Node11 -->
<g id="node11" class="node">
<title>Node11</title>
<g id="a_node11"><a xlink:href="gps_8cpp.html" target="_top" xlink:title=" ">
<polygon fill="white" stroke="black" points="870.5,-112.5 870.5,-131.5 920.5,-131.5 920.5,-112.5 870.5,-112.5"/>
<text text-anchor="middle" x="895.5" y="-119.5" font-family="Helvetica,sans-Serif" font-size="10.00">gps.cpp</text>
</a>
</g>
</g>
<!-- Node1&#45;&gt;Node11 -->
<g id="edge10" class="edge">
<title>Node1&#45;&gt;Node11</title>
<path fill="none" stroke="midnightblue" d="M753.18,-165.46C788.63,-154.88 840.1,-139.53 870.45,-130.47"/>
<polygon fill="midnightblue" stroke="midnightblue" points="751.76,-162.23 743.18,-168.44 753.76,-168.94 751.76,-162.23"/>
</g>
<!-- Node12 -->
<g id="node12" class="node">
<title>Node12</title>
<g id="a_node12"><a xlink:href="sensors_8cpp.html" target="_top" xlink:title=" ">
<polygon fill="white" stroke="black" points="939,-112.5 939,-131.5 1008,-131.5 1008,-112.5 939,-112.5"/>
<text text-anchor="middle" x="973.5" y="-119.5" font-family="Helvetica,sans-Serif" font-size="10.00">sensors.cpp</text>
</a>
</g>
</g>
<!-- Node1&#45;&gt;Node12 -->
<g id="edge11" class="edge">
<title>Node1&#45;&gt;Node12</title>
<path fill="none" stroke="midnightblue" d="M759.22,-167.68C810.13,-157.06 892.23,-139.94 938.63,-130.27"/>
<polygon fill="midnightblue" stroke="midnightblue" points="758.24,-164.31 749.16,-169.77 759.67,-171.16 758.24,-164.31"/>
</g>
<!-- Node13 -->
<g id="node13" class="node">
<title>Node13</title>
<g id="a_node13"><a xlink:href="speedo_8cpp.html" target="_top" xlink:title=" ">
<polygon fill="white" stroke="black" points="1026.5,-112.5 1026.5,-131.5 1092.5,-131.5 1092.5,-112.5 1026.5,-112.5"/>
<text text-anchor="middle" x="1059.5" y="-119.5" font-family="Helvetica,sans-Serif" font-size="10.00">speedo.cpp</text>
</a>
</g>
</g>
<!-- Node1&#45;&gt;Node13 -->
<g id="edge12" class="edge">
<title>Node1&#45;&gt;Node13</title>
<path fill="none" stroke="midnightblue" d="M759.13,-171.18C818.18,-163.29 925.43,-148.3 1016.5,-132 1019.65,-131.44 1022.93,-130.81 1026.2,-130.17"/>
<polygon fill="midnightblue" stroke="midnightblue" points="758.48,-167.74 749.03,-172.52 759.4,-174.67 758.48,-167.74"/>
</g>
<!-- Node14 -->
<g id="node14" class="node">
<title>Node14</title>
<g id="a_node14"><a xlink:href="textprogressbar_8h.html" target="_top" xlink:title=" ">
<polygon fill="white" stroke="black" points="1111,-112.5 1111,-131.5 1202,-131.5 1202,-112.5 1111,-112.5"/>
<text text-anchor="middle" x="1156.5" y="-119.5" font-family="Helvetica,sans-Serif" font-size="10.00">textprogressbar.h</text>
</a>
</g>
</g>
<!-- Node1&#45;&gt;Node14 -->
<g id="edge13" class="edge">
<title>Node1&#45;&gt;Node14</title>
<path fill="none" stroke="midnightblue" d="M759.36,-172.47C831.56,-165.02 977.95,-149.28 1101.5,-132 1104.57,-131.57 1107.73,-131.11 1110.91,-130.63"/>
<polygon fill="midnightblue" stroke="midnightblue" points="758.85,-169 749.26,-173.51 759.57,-175.96 758.85,-169"/>
</g>
<!-- Node19 -->
<g id="node19" class="node">
<title>Node19</title>
<g id="a_node19"><a xlink:href="udpreceiver_8cpp.html" target="_top" xlink:title=" ">
<polygon fill="white" stroke="black" points="1220,-112.5 1220,-131.5 1305,-131.5 1305,-112.5 1220,-112.5"/>
<text text-anchor="middle" x="1262.5" y="-119.5" font-family="Helvetica,sans-Serif" font-size="10.00">udpreceiver.cpp</text>
</a>
</g>
</g>
<!-- Node1&#45;&gt;Node19 -->
<g id="edge18" class="edge">
<title>Node1&#45;&gt;Node19</title>
<path fill="none" stroke="midnightblue" d="M759.25,-174.16C846.36,-168.36 1044.72,-153.83 1210.5,-132 1213.59,-131.59 1216.77,-131.14 1219.98,-130.65"/>
<polygon fill="midnightblue" stroke="midnightblue" points="758.93,-170.67 749.18,-174.82 759.39,-177.66 758.93,-170.67"/>
</g>
<!-- Node20 -->
<g id="node20" class="node">
<title>Node20</title>
<g id="a_node20"><a xlink:href="wifiscanner_8cpp.html" target="_top" xlink:title=" ">
<polygon fill="white" stroke="black" points="1323,-112.5 1323,-131.5 1406,-131.5 1406,-112.5 1323,-112.5"/>
<text text-anchor="middle" x="1364.5" y="-119.5" font-family="Helvetica,sans-Serif" font-size="10.00">wifiscanner.cpp</text>
</a>
</g>
</g>
<!-- Node1&#45;&gt;Node20 -->
<g id="edge19" class="edge">
<title>Node1&#45;&gt;Node20</title>
<path fill="none" stroke="midnightblue" d="M759.15,-175.23C859.01,-170.92 1107.83,-158.28 1314.5,-132 1317.21,-131.66 1320,-131.26 1322.81,-130.84"/>
<polygon fill="midnightblue" stroke="midnightblue" points="758.96,-171.73 749.12,-175.66 759.26,-178.73 758.96,-171.73"/>
</g>
<!-- Node15 -->
<g id="node15" class="node">
<title>Node15</title>
<g id="a_node15"><a xlink:href="downloadmanager_8h.html" target="_top" xlink:title=" ">
<polygon fill="white" stroke="black" points="1045,-56.5 1045,-75.5 1148,-75.5 1148,-56.5 1045,-56.5"/>
<text text-anchor="middle" x="1096.5" y="-63.5" font-family="Helvetica,sans-Serif" font-size="10.00">downloadmanager.h</text>
</a>
</g>
</g>
<!-- Node14&#45;&gt;Node15 -->
<g id="edge14" class="edge">
<title>Node14&#45;&gt;Node15</title>
<path fill="none" stroke="midnightblue" d="M1139.32,-105.54C1128.62,-95.91 1115.24,-83.87 1106.32,-75.83"/>
<polygon fill="midnightblue" stroke="midnightblue" points="1137.09,-108.24 1146.86,-112.32 1141.77,-103.03 1137.09,-108.24"/>
</g>
<!-- Node18 -->
<g id="node18" class="node">
<title>Node18</title>
<g id="a_node18"><a xlink:href="textprogressbar_8cpp.html" target="_top" xlink:title=" ">
<polygon fill="white" stroke="black" points="1166,-56.5 1166,-75.5 1267,-75.5 1267,-56.5 1166,-56.5"/>
<text text-anchor="middle" x="1216.5" y="-63.5" font-family="Helvetica,sans-Serif" font-size="10.00">textprogressbar.cpp</text>
</a>
</g>
</g>
<!-- Node14&#45;&gt;Node18 -->
<g id="edge17" class="edge">
<title>Node14&#45;&gt;Node18</title>
<path fill="none" stroke="midnightblue" d="M1173.68,-105.54C1184.38,-95.91 1197.76,-83.87 1206.68,-75.83"/>
<polygon fill="midnightblue" stroke="midnightblue" points="1171.23,-103.03 1166.14,-112.32 1175.91,-108.24 1171.23,-103.03"/>
</g>
<!-- Node16 -->
<g id="node16" class="node">
<title>Node16</title>
<g id="a_node16"><a xlink:href="downloadmanager_8cpp.html" target="_top" xlink:title=" ">
<polygon fill="white" stroke="black" points="989,-0.5 989,-19.5 1102,-19.5 1102,-0.5 989,-0.5"/>
<text text-anchor="middle" x="1045.5" y="-7.5" font-family="Helvetica,sans-Serif" font-size="10.00">downloadmanager.cpp</text>
</a>
</g>
</g>
<!-- Node15&#45;&gt;Node16 -->
<g id="edge15" class="edge">
<title>Node15&#45;&gt;Node16</title>
<path fill="none" stroke="midnightblue" d="M1081.12,-48.72C1072.13,-39.2 1061.14,-27.56 1053.76,-19.75"/>
<polygon fill="midnightblue" stroke="midnightblue" points="1078.67,-51.22 1088.08,-56.08 1083.76,-46.41 1078.67,-51.22"/>
</g>
<!-- Node17 -->
<g id="node17" class="node">
<title>Node17</title>
<g id="a_node17"><a xlink:href="main_8cpp.html" target="_top" xlink:title=" ">
<polygon fill="white" stroke="black" points="1120.5,-0.5 1120.5,-19.5 1176.5,-19.5 1176.5,-0.5 1120.5,-0.5"/>
<text text-anchor="middle" x="1148.5" y="-7.5" font-family="Helvetica,sans-Serif" font-size="10.00">main.cpp</text>
</a>
</g>
</g>
<!-- Node15&#45;&gt;Node17 -->
<g id="edge16" class="edge">
<title>Node15&#45;&gt;Node17</title>
<path fill="none" stroke="midnightblue" d="M1112.18,-48.72C1121.34,-39.2 1132.55,-27.56 1140.07,-19.75"/>
<polygon fill="midnightblue" stroke="midnightblue" points="1109.5,-46.45 1105.09,-56.08 1114.54,-51.31 1109.5,-46.45"/>
</g>
</g>
</svg>
