<?xml version="1.0" encoding="UTF-8" standalone="no"?>
<!DOCTYPE svg PUBLIC "-//W3C//DTD SVG 1.1//EN"
 "http://www.w3.org/Graphics/SVG/1.1/DTD/svg11.dtd">
<!-- Generated by graphviz version 2.49.3 (20211027.1534)
 -->
<!-- Title: downloadmanager.cpp Pages: 1 -->
<svg width="546pt" height="252pt"
 viewBox="0.00 0.00 545.50 252.00" xmlns="http://www.w3.org/2000/svg" xmlns:xlink="http://www.w3.org/1999/xlink">
<g id="graph0" class="graph" transform="scale(1 1) rotate(0) translate(4 248)">
<title>downloadmanager.cpp</title>
<polygon fill="white" stroke="transparent" points="-4,4 -4,-248 541.5,-248 541.5,4 -4,4"/>
<!-- Node1 -->
<g id="node1" class="node">
<title>Node1</title>
<g id="a_node1"><a xlink:title=" ">
<polygon fill="#bfbfbf" stroke="black" points="312.5,-224.5 312.5,-243.5 425.5,-243.5 425.5,-224.5 312.5,-224.5"/>
<text text-anchor="middle" x="369" y="-231.5" font-family="Helvetica,sans-Serif" font-size="10.00">downloadmanager.cpp</text>
</a>
</g>
</g>
<!-- Node2 -->
<g id="node2" class="node">
<title>Node2</title>
<g id="a_node2"><a xlink:href="downloadmanager_8h.html" target="_top" xlink:title=" ">
<polygon fill="white" stroke="black" points="77.5,-168.5 77.5,-187.5 180.5,-187.5 180.5,-168.5 77.5,-168.5"/>
<text text-anchor="middle" x="129" y="-175.5" font-family="Helvetica,sans-Serif" font-size="10.00">downloadmanager.h</text>
</a>
</g>
</g>
<!-- Node1&#45;&gt;Node2 -->
<g id="edge1" class="edge">
<title>Node1&#45;&gt;Node2</title>
<path fill="none" stroke="midnightblue" d="M330.97,-224.44C289.19,-215.04 222.02,-199.93 176.73,-189.74"/>
<polygon fill="midnightblue" stroke="midnightblue" points="177.38,-186.3 166.85,-187.52 175.84,-193.13 177.38,-186.3"/>
</g>
<!-- Node10 -->
<g id="node10" class="node">
<title>Node10</title>
<g id="a_node10"><a xlink:href="parsegithubdata_8h.html" target="_top" xlink:title=" ">
<polygon fill="white" stroke="black" points="220.5,-168.5 220.5,-187.5 313.5,-187.5 313.5,-168.5 220.5,-168.5"/>
<text text-anchor="middle" x="267" y="-175.5" font-family="Helvetica,sans-Serif" font-size="10.00">parsegithubdata.h</text>
</a>
</g>
</g>
<!-- Node1&#45;&gt;Node10 -->
<g id="edge9" class="edge">
<title>Node1&#45;&gt;Node10</title>
<path fill="none" stroke="midnightblue" d="M352.61,-224.32C336.33,-215.7 311.13,-202.36 292.28,-192.39"/>
<polygon fill="midnightblue" stroke="midnightblue" points="293.82,-189.24 283.35,-187.65 290.55,-195.43 293.82,-189.24"/>
</g>
<!-- Node12 -->
<g id="node12" class="node">
<title>Node12</title>
<g id="a_node12"><a xlink:title=" ">
<polygon fill="white" stroke="#bfbfbf" points="332,-168.5 332,-187.5 406,-187.5 406,-168.5 332,-168.5"/>
<text text-anchor="middle" x="369" y="-175.5" font-family="Helvetica,sans-Serif" font-size="10.00">QTextStream</text>
</a>
</g>
</g>
<!-- Node1&#45;&gt;Node12 -->
<g id="edge12" class="edge">
<title>Node1&#45;&gt;Node12</title>
<path fill="none" stroke="midnightblue" d="M369,-224.08C369,-217.01 369,-206.86 369,-197.99"/>
<polygon fill="midnightblue" stroke="midnightblue" points="372.5,-197.75 369,-187.75 365.5,-197.75 372.5,-197.75"/>
</g>
<!-- Node13 -->
<g id="node13" class="node">
<title>Node13</title>
<g id="a_node13"><a xlink:title=" ">
<polygon fill="white" stroke="#bfbfbf" points="424,-168.5 424,-187.5 476,-187.5 476,-168.5 424,-168.5"/>
<text text-anchor="middle" x="450" y="-175.5" font-family="Helvetica,sans-Serif" font-size="10.00">QDebug</text>
</a>
</g>
</g>
<!-- Node1&#45;&gt;Node13 -->
<g id="edge13" class="edge">
<title>Node1&#45;&gt;Node13</title>
<path fill="none" stroke="midnightblue" d="M382.01,-224.32C394.53,-215.98 413.68,-203.21 428.47,-193.35"/>
<polygon fill="midnightblue" stroke="midnightblue" points="430.64,-196.11 437.02,-187.65 426.76,-190.29 430.64,-196.11"/>
</g>
<!-- Node14 -->
<g id="node14" class="node">
<title>Node14</title>
<g id="a_node14"><a xlink:title=" ">
<polygon fill="white" stroke="#bfbfbf" points="494.5,-168.5 494.5,-187.5 537.5,-187.5 537.5,-168.5 494.5,-168.5"/>
<text text-anchor="middle" x="516" y="-175.5" font-family="Helvetica,sans-Serif" font-size="10.00">cstdio</text>
</a>
</g>
</g>
<!-- Node1&#45;&gt;Node14 -->
<g id="edge14" class="edge">
<title>Node1&#45;&gt;Node14</title>
<path fill="none" stroke="midnightblue" d="M392.29,-224.44C417.24,-215.28 456.97,-200.68 484.65,-190.52"/>
<polygon fill="midnightblue" stroke="midnightblue" points="486.07,-193.72 494.25,-186.99 483.66,-187.15 486.07,-193.72"/>
</g>
<!-- Node3 -->
<g id="node3" class="node">
<title>Node3</title>
<g id="a_node3"><a xlink:title=" ">
<polygon fill="white" stroke="#bfbfbf" points="0,-112.5 0,-131.5 64,-131.5 64,-112.5 0,-112.5"/>
<text text-anchor="middle" x="32" y="-119.5" font-family="Helvetica,sans-Serif" font-size="10.00">QtNetwork</text>
</a>
</g>
</g>
<!-- Node2&#45;&gt;Node3 -->
<g id="edge2" class="edge">
<title>Node2&#45;&gt;Node3</title>
<path fill="none" stroke="midnightblue" d="M113.42,-168.32C98,-159.74 74.19,-146.49 56.29,-136.52"/>
<polygon fill="midnightblue" stroke="midnightblue" points="57.99,-133.46 47.55,-131.65 54.58,-139.58 57.99,-133.46"/>
</g>
<!-- Node4 -->
<g id="node4" class="node">
<title>Node4</title>
<g id="a_node4"><a xlink:title=" ">
<polygon fill="white" stroke="#bfbfbf" points="82.5,-112.5 82.5,-131.5 129.5,-131.5 129.5,-112.5 82.5,-112.5"/>
<text text-anchor="middle" x="106" y="-119.5" font-family="Helvetica,sans-Serif" font-size="10.00">QtCore</text>
</a>
</g>
</g>
<!-- Node2&#45;&gt;Node4 -->
<g id="edge3" class="edge">
<title>Node2&#45;&gt;Node4</title>
<path fill="none" stroke="midnightblue" d="M125.2,-168.08C122.09,-160.77 117.58,-150.18 113.71,-141.1"/>
<polygon fill="midnightblue" stroke="midnightblue" points="116.87,-139.58 109.73,-131.75 110.43,-142.32 116.87,-139.58"/>
</g>
<!-- Node5 -->
<g id="node5" class="node">
<title>Node5</title>
<g id="a_node5"><a xlink:href="textprogressbar_8h.html" target="_top" xlink:title=" ">
<polygon fill="white" stroke="black" points="147.5,-112.5 147.5,-131.5 238.5,-131.5 238.5,-112.5 147.5,-112.5"/>
<text text-anchor="middle" x="193" y="-119.5" font-family="Helvetica,sans-Serif" font-size="10.00">textprogressbar.h</text>
</a>
</g>
</g>
<!-- Node2&#45;&gt;Node5 -->
<g id="edge4" class="edge">
<title>Node2&#45;&gt;Node5</title>
<path fill="none" stroke="midnightblue" d="M139.28,-168.32C148.84,-160.26 163.28,-148.08 174.78,-138.37"/>
<polygon fill="midnightblue" stroke="midnightblue" points="177.14,-140.96 182.53,-131.83 172.63,-135.61 177.14,-140.96"/>
</g>
<!-- Node6 -->
<g id="node6" class="node">
<title>Node6</title>
<g id="a_node6"><a xlink:href="dashboard_8h.html" target="_top" xlink:title=" ">
<polygon fill="white" stroke="black" points="154.5,-56.5 154.5,-75.5 223.5,-75.5 223.5,-56.5 154.5,-56.5"/>
<text text-anchor="middle" x="189" y="-63.5" font-family="Helvetica,sans-Serif" font-size="10.00">dashboard.h</text>
</a>
</g>
</g>
<!-- Node5&#45;&gt;Node6 -->
<g id="edge5" class="edge">
<title>Node5&#45;&gt;Node6</title>
<path fill="none" stroke="midnightblue" d="M192.34,-112.08C191.82,-105.01 191.06,-94.86 190.41,-85.99"/>
<polygon fill="midnightblue" stroke="midnightblue" points="193.88,-85.47 189.65,-75.75 186.9,-85.98 193.88,-85.47"/>
</g>
<!-- Node9 -->
<g id="node9" class="node">
<title>Node9</title>
<g id="a_node9"><a xlink:title=" ">
<polygon fill="white" stroke="#bfbfbf" points="242,-56.5 242,-75.5 292,-75.5 292,-56.5 242,-56.5"/>
<text text-anchor="middle" x="267" y="-63.5" font-family="Helvetica,sans-Serif" font-size="10.00">QString</text>
</a>
</g>
</g>
<!-- Node5&#45;&gt;Node9 -->
<g id="edge8" class="edge">
<title>Node5&#45;&gt;Node9</title>
<path fill="none" stroke="midnightblue" d="M204.89,-112.32C216.15,-104.11 233.29,-91.6 246.71,-81.81"/>
<polygon fill="midnightblue" stroke="midnightblue" points="248.88,-84.56 254.89,-75.83 244.75,-78.9 248.88,-84.56"/>
</g>
<!-- Node7 -->
<g id="node7" class="node">
<title>Node7</title>
<g id="a_node7"><a xlink:title=" ">
<polygon fill="white" stroke="#bfbfbf" points="117,-0.5 117,-19.5 183,-19.5 183,-0.5 117,-0.5"/>
<text text-anchor="middle" x="150" y="-7.5" font-family="Helvetica,sans-Serif" font-size="10.00">QStringList</text>
</a>
</g>
</g>
<!-- Node6&#45;&gt;Node7 -->
<g id="edge6" class="edge">
<title>Node6&#45;&gt;Node7</title>
<path fill="none" stroke="midnightblue" d="M182.56,-56.08C177.05,-48.46 168.97,-37.26 162.24,-27.94"/>
<polygon fill="midnightblue" stroke="midnightblue" points="165.01,-25.81 156.32,-19.75 159.34,-29.91 165.01,-25.81"/>
</g>
<!-- Node8 -->
<g id="node8" class="node">
<title>Node8</title>
<g id="a_node8"><a xlink:title=" ">
<polygon fill="white" stroke="#bfbfbf" points="201.5,-0.5 201.5,-19.5 254.5,-19.5 254.5,-0.5 201.5,-0.5"/>
<text text-anchor="middle" x="228" y="-7.5" font-family="Helvetica,sans-Serif" font-size="10.00">QObject</text>
</a>
</g>
</g>
<!-- Node6&#45;&gt;Node8 -->
<g id="edge7" class="edge">
<title>Node6&#45;&gt;Node8</title>
<path fill="none" stroke="midnightblue" d="M195.44,-56.08C200.95,-48.46 209.03,-37.26 215.76,-27.94"/>
<polygon fill="midnightblue" stroke="midnightblue" points="218.66,-29.91 221.68,-19.75 212.99,-25.81 218.66,-29.91"/>
</g>
<!-- Node10&#45;&gt;Node9 -->
<g id="edge10" class="edge">
<title>Node10&#45;&gt;Node9</title>
<path fill="none" stroke="midnightblue" d="M267,-168.37C267,-150.62 267,-109.67 267,-85.6"/>
<polygon fill="midnightblue" stroke="midnightblue" points="270.5,-85.59 267,-75.59 263.5,-85.59 270.5,-85.59"/>
</g>
<!-- Node11 -->
<g id="node11" class="node">
<title>Node11</title>
<g id="a_node11"><a xlink:title=" ">
<polygon fill="white" stroke="#bfbfbf" points="295.5,-112.5 295.5,-131.5 336.5,-131.5 336.5,-112.5 295.5,-112.5"/>
<text text-anchor="middle" x="316" y="-119.5" font-family="Helvetica,sans-Serif" font-size="10.00">QList</text>
</a>
</g>
</g>
<!-- Node10&#45;&gt;Node11 -->
<g id="edge11" class="edge">
<title>Node10&#45;&gt;Node11</title>
<path fill="none" stroke="midnightblue" d="M275.09,-168.08C282.16,-160.3 292.59,-148.8 301.15,-139.37"/>
<polygon fill="midnightblue" stroke="midnightblue" points="303.93,-141.51 308.06,-131.75 298.75,-136.8 303.93,-141.51"/>
</g>
</g>
</svg>
