<?xml version="1.0" encoding="UTF-8" standalone="no"?>
<!DOCTYPE svg PUBLIC "-//W3C//DTD SVG 1.1//EN"
 "http://www.w3.org/Graphics/SVG/1.1/DTD/svg11.dtd">
<!-- Generated by graphviz version 2.49.3 (20211027.1534)
 -->
<!-- Title: gps.cpp Pages: 1 -->
<svg width="1222pt" height="196pt"
 viewBox="0.00 0.00 1221.50 196.00" xmlns="http://www.w3.org/2000/svg" xmlns:xlink="http://www.w3.org/1999/xlink">
<g id="graph0" class="graph" transform="scale(1 1) rotate(0) translate(4 192)">
<title>gps.cpp</title>
<polygon fill="white" stroke="transparent" points="-4,4 -4,-192 1217.5,-192 1217.5,4 -4,4"/>
<!-- Node1 -->
<g id="node1" class="node">
<title>Node1</title>
<g id="a_node1"><a xlink:title=" ">
<polygon fill="#bfbfbf" stroke="black" points="213,-168.5 213,-187.5 263,-187.5 263,-168.5 213,-168.5"/>
<text text-anchor="middle" x="238" y="-175.5" font-family="Helvetica,sans-Serif" font-size="10.00">gps.cpp</text>
</a>
</g>
</g>
<!-- Node2 -->
<g id="node2" class="node">
<title>Node2</title>
<g id="a_node2"><a xlink:title=" ">
<polygon fill="white" stroke="#bfbfbf" points="0,-112.5 0,-131.5 52,-131.5 52,-112.5 0,-112.5"/>
<text text-anchor="middle" x="26" y="-119.5" font-family="Helvetica,sans-Serif" font-size="10.00">QDebug</text>
</a>
</g>
</g>
<!-- Node1&#45;&gt;Node2 -->
<g id="edge1" class="edge">
<title>Node1&#45;&gt;Node2</title>
<path fill="none" stroke="midnightblue" d="M212.79,-170.61C180.26,-162.37 121.67,-147.5 62.29,-132.33"/>
<polygon fill="midnightblue" stroke="midnightblue" points="62.93,-128.88 52.37,-129.79 61.19,-135.66 62.93,-128.88"/>
</g>
<!-- Node3 -->
<g id="node3" class="node">
<title>Node3</title>
<g id="a_node3"><a xlink:title=" ">
<polygon fill="white" stroke="#bfbfbf" points="70.5,-112.5 70.5,-131.5 171.5,-131.5 171.5,-112.5 70.5,-112.5"/>
<text text-anchor="middle" x="121" y="-119.5" font-family="Helvetica,sans-Serif" font-size="10.00">QByteArrayMatcher</text>
</a>
</g>
</g>
<!-- Node1&#45;&gt;Node3 -->
<g id="edge2" class="edge">
<title>Node1&#45;&gt;Node3</title>
<path fill="none" stroke="midnightblue" d="M219.46,-168.44C200.38,-159.64 170.43,-145.81 148.56,-135.72"/>
<polygon fill="midnightblue" stroke="midnightblue" points="150,-132.53 139.45,-131.52 147.07,-138.88 150,-132.53"/>
</g>
<!-- Node4 -->
<g id="node4" class="node">
<title>Node4</title>
<g id="a_node4"><a xlink:title=" ">
<polygon fill="white" stroke="#bfbfbf" points="189,-0.5 189,-19.5 235,-19.5 235,-0.5 189,-0.5"/>
<text text-anchor="middle" x="212" y="-7.5" font-family="Helvetica,sans-Serif" font-size="10.00">QTime</text>
</a>
</g>
</g>
<!-- Node1&#45;&gt;Node4 -->
<g id="edge3" class="edge">
<title>Node1&#45;&gt;Node4</title>
<path fill="none" stroke="midnightblue" d="M234.67,-168.17C231.42,-159.2 226.6,-144.83 224,-132 216.75,-96.26 213.82,-53.66 212.68,-29.73"/>
<polygon fill="midnightblue" stroke="midnightblue" points="216.17,-29.44 212.26,-19.6 209.18,-29.74 216.17,-29.44"/>
</g>
<!-- Node5 -->
<g id="node5" class="node">
<title>Node5</title>
<g id="a_node5"><a xlink:title=" ">
<polygon fill="white" stroke="#bfbfbf" points="491.5,-0.5 491.5,-19.5 540.5,-19.5 540.5,-0.5 491.5,-0.5"/>
<text text-anchor="middle" x="516" y="-7.5" font-family="Helvetica,sans-Serif" font-size="10.00">QTimer</text>
</a>
</g>
</g>
<!-- Node1&#45;&gt;Node5 -->
<g id="edge4" class="edge">
<title>Node1&#45;&gt;Node5</title>
<path fill="none" stroke="midnightblue" d="M236.32,-168.21C232.64,-145.97 226.43,-87.07 257,-56 287.71,-24.78 417.91,-15.08 481.19,-12.18"/>
<polygon fill="midnightblue" stroke="midnightblue" points="481.63,-15.66 491.47,-11.74 481.33,-8.67 481.63,-15.66"/>
</g>
<!-- Node6 -->
<g id="node6" class="node">
<title>Node6</title>
<g id="a_node6"><a xlink:href="gps_8h.html" target="_top" xlink:title=" ">
<polygon fill="white" stroke="black" points="324,-112.5 324,-131.5 364,-131.5 364,-112.5 324,-112.5"/>
<text text-anchor="middle" x="344" y="-119.5" font-family="Helvetica,sans-Serif" font-size="10.00">gps.h</text>
</a>
</g>
</g>
<!-- Node1&#45;&gt;Node6 -->
<g id="edge5" class="edge">
<title>Node1&#45;&gt;Node6</title>
<path fill="none" stroke="midnightblue" d="M255.03,-168.32C272.03,-159.66 298.38,-146.24 317.99,-136.25"/>
<polygon fill="midnightblue" stroke="midnightblue" points="319.69,-139.31 327.01,-131.65 316.51,-133.08 319.69,-139.31"/>
</g>
<!-- Node10 -->
<g id="node10" class="node">
<title>Node10</title>
<g id="a_node10"><a xlink:href="dashboard_8h.html" target="_top" xlink:title=" ">
<polygon fill="white" stroke="black" points="486.5,-112.5 486.5,-131.5 555.5,-131.5 555.5,-112.5 486.5,-112.5"/>
<text text-anchor="middle" x="521" y="-119.5" font-family="Helvetica,sans-Serif" font-size="10.00">dashboard.h</text>
</a>
</g>
</g>
<!-- Node1&#45;&gt;Node10 -->
<g id="edge10" class="edge">
<title>Node1&#45;&gt;Node10</title>
<path fill="none" stroke="midnightblue" d="M263.11,-172.21C311.07,-163.06 416.24,-142.99 476.41,-131.51"/>
<polygon fill="midnightblue" stroke="midnightblue" points="477.22,-134.92 486.38,-129.6 475.91,-128.04 477.22,-134.92"/>
</g>
<!-- Node13 -->
<g id="node13" class="node">
<title>Node13</title>
<g id="a_node13"><a xlink:href="connect_8h.html" target="_top" xlink:title=" ">
<polygon fill="white" stroke="black" points="767.5,-112.5 767.5,-131.5 826.5,-131.5 826.5,-112.5 767.5,-112.5"/>
<text text-anchor="middle" x="797" y="-119.5" font-family="Helvetica,sans-Serif" font-size="10.00">connect.h</text>
</a>
</g>
</g>
<!-- Node1&#45;&gt;Node13 -->
<g id="edge13" class="edge">
<title>Node1&#45;&gt;Node13</title>
<path fill="none" stroke="midnightblue" d="M263.11,-174.57C351.51,-166.03 648.9,-137.31 757.16,-126.85"/>
<polygon fill="midnightblue" stroke="midnightblue" points="757.72,-130.31 767.33,-125.87 757.04,-123.34 757.72,-130.31"/>
</g>
<!-- Node6&#45;&gt;Node5 -->
<g id="edge7" class="edge">
<title>Node6&#45;&gt;Node5</title>
<path fill="none" stroke="midnightblue" d="M364.31,-113.35C384.33,-105.38 415.41,-91.87 440,-76 462.4,-61.55 485.28,-41.04 499.99,-26.95"/>
<polygon fill="midnightblue" stroke="midnightblue" points="502.55,-29.34 507.28,-19.86 497.67,-24.33 502.55,-29.34"/>
</g>
<!-- Node7 -->
<g id="node7" class="node">
<title>Node7</title>
<g id="a_node7"><a xlink:title=" ">
<polygon fill="white" stroke="#bfbfbf" points="348.5,-56.5 348.5,-75.5 431.5,-75.5 431.5,-56.5 348.5,-56.5"/>
<text text-anchor="middle" x="390" y="-63.5" font-family="Helvetica,sans-Serif" font-size="10.00">QElapsedTimer</text>
</a>
</g>
</g>
<!-- Node6&#45;&gt;Node7 -->
<g id="edge6" class="edge">
<title>Node6&#45;&gt;Node7</title>
<path fill="none" stroke="midnightblue" d="M351.6,-112.08C358.23,-104.3 368.02,-92.8 376.06,-83.37"/>
<polygon fill="midnightblue" stroke="midnightblue" points="378.73,-85.63 382.55,-75.75 373.4,-81.09 378.73,-85.63"/>
</g>
<!-- Node8 -->
<g id="node8" class="node">
<title>Node8</title>
<g id="a_node8"><a xlink:href="serialport_8h.html" target="_top" xlink:title=" ">
<polygon fill="white" stroke="black" points="266,-56.5 266,-75.5 330,-75.5 330,-56.5 266,-56.5"/>
<text text-anchor="middle" x="298" y="-63.5" font-family="Helvetica,sans-Serif" font-size="10.00">serialport.h</text>
</a>
</g>
</g>
<!-- Node6&#45;&gt;Node8 -->
<g id="edge8" class="edge">
<title>Node6&#45;&gt;Node8</title>
<path fill="none" stroke="midnightblue" d="M336.4,-112.08C329.77,-104.3 319.98,-92.8 311.94,-83.37"/>
<polygon fill="midnightblue" stroke="midnightblue" points="314.6,-81.09 305.45,-75.75 309.27,-85.63 314.6,-81.09"/>
</g>
<!-- Node9 -->
<g id="node9" class="node">
<title>Node9</title>
<g id="a_node9"><a xlink:title=" ">
<polygon fill="white" stroke="#bfbfbf" points="264.5,-0.5 264.5,-19.5 331.5,-19.5 331.5,-0.5 264.5,-0.5"/>
<text text-anchor="middle" x="298" y="-7.5" font-family="Helvetica,sans-Serif" font-size="10.00">QSerialPort</text>
</a>
</g>
</g>
<!-- Node8&#45;&gt;Node9 -->
<g id="edge9" class="edge">
<title>Node8&#45;&gt;Node9</title>
<path fill="none" stroke="midnightblue" d="M298,-56.08C298,-49.01 298,-38.86 298,-29.99"/>
<polygon fill="midnightblue" stroke="midnightblue" points="301.5,-29.75 298,-19.75 294.5,-29.75 301.5,-29.75"/>
</g>
<!-- Node11 -->
<g id="node11" class="node">
<title>Node11</title>
<g id="a_node11"><a xlink:title=" ">
<polygon fill="white" stroke="#bfbfbf" points="488,-56.5 488,-75.5 554,-75.5 554,-56.5 488,-56.5"/>
<text text-anchor="middle" x="521" y="-63.5" font-family="Helvetica,sans-Serif" font-size="10.00">QStringList</text>
</a>
</g>
</g>
<!-- Node10&#45;&gt;Node11 -->
<g id="edge11" class="edge">
<title>Node10&#45;&gt;Node11</title>
<path fill="none" stroke="midnightblue" d="M521,-112.08C521,-105.01 521,-94.86 521,-85.99"/>
<polygon fill="midnightblue" stroke="midnightblue" points="524.5,-85.75 521,-75.75 517.5,-85.75 524.5,-85.75"/>
</g>
<!-- Node12 -->
<g id="node12" class="node">
<title>Node12</title>
<g id="a_node12"><a xlink:title=" ">
<polygon fill="white" stroke="#bfbfbf" points="690.5,-0.5 690.5,-19.5 743.5,-19.5 743.5,-0.5 690.5,-0.5"/>
<text text-anchor="middle" x="717" y="-7.5" font-family="Helvetica,sans-Serif" font-size="10.00">QObject</text>
</a>
</g>
</g>
<!-- Node10&#45;&gt;Node12 -->
<g id="edge12" class="edge">
<title>Node10&#45;&gt;Node12</title>
<path fill="none" stroke="midnightblue" d="M555.63,-121.33C594.41,-119.81 656.83,-111.47 695,-76 707.81,-64.1 713.16,-44.48 715.4,-29.9"/>
<polygon fill="midnightblue" stroke="midnightblue" points="718.92,-29.88 716.61,-19.54 711.97,-29.07 718.92,-29.88"/>
</g>
<!-- Node13&#45;&gt;Node5 -->
<g id="edge17" class="edge">
<title>Node13&#45;&gt;Node5</title>
<path fill="none" stroke="midnightblue" d="M767.5,-118.18C727.99,-113.54 656.46,-102.06 601,-76 574.37,-63.49 548.15,-41.58 532.03,-26.69"/>
<polygon fill="midnightblue" stroke="midnightblue" points="534.24,-23.96 524.58,-19.63 529.43,-29.04 534.24,-23.96"/>
</g>
<!-- Node13&#45;&gt;Node12 -->
<g id="edge15" class="edge">
<title>Node13&#45;&gt;Node12</title>
<path fill="none" stroke="midnightblue" d="M790.72,-112.37C777.52,-94.22 746.67,-51.8 729.36,-27.99"/>
<polygon fill="midnightblue" stroke="midnightblue" points="731.96,-25.62 723.25,-19.59 726.3,-29.74 731.96,-25.62"/>
</g>
<!-- Node14 -->
<g id="node14" class="node">
<title>Node14</title>
<g id="a_node14"><a xlink:title=" ">
<polygon fill="white" stroke="#bfbfbf" points="780.5,-56.5 780.5,-75.5 903.5,-75.5 903.5,-56.5 780.5,-56.5"/>
<text text-anchor="middle" x="842" y="-63.5" font-family="Helvetica,sans-Serif" font-size="10.00">QtSerialPort/QSerialPort</text>
</a>
</g>
</g>
<!-- Node13&#45;&gt;Node14 -->
<g id="edge14" class="edge">
<title>Node13&#45;&gt;Node14</title>
<path fill="none" stroke="midnightblue" d="M804.43,-112.08C810.85,-104.38 820.31,-93.03 828.12,-83.65"/>
<polygon fill="midnightblue" stroke="midnightblue" points="830.99,-85.67 834.71,-75.75 825.62,-81.19 830.99,-85.67"/>
</g>
<!-- Node15 -->
<g id="node15" class="node">
<title>Node15</title>
<g id="a_node15"><a xlink:title=" ">
<polygon fill="white" stroke="#bfbfbf" points="921.5,-56.5 921.5,-75.5 1018.5,-75.5 1018.5,-56.5 921.5,-56.5"/>
<text text-anchor="middle" x="970" y="-63.5" font-family="Helvetica,sans-Serif" font-size="10.00">QModbusDataUnit</text>
</a>
</g>
</g>
<!-- Node13&#45;&gt;Node15 -->
<g id="edge16" class="edge">
<title>Node13&#45;&gt;Node15</title>
<path fill="none" stroke="midnightblue" d="M824.41,-112.44C853.77,-103.28 900.52,-88.69 933.1,-78.52"/>
<polygon fill="midnightblue" stroke="midnightblue" points="934.21,-81.84 942.72,-75.52 932.13,-75.16 934.21,-81.84"/>
</g>
<!-- Node16 -->
<g id="node16" class="node">
<title>Node16</title>
<g id="a_node16"><a xlink:title=" ">
<polygon fill="white" stroke="#bfbfbf" points="1036,-56.5 1036,-75.5 1096,-75.5 1096,-56.5 1036,-56.5"/>
<text text-anchor="middle" x="1066" y="-63.5" font-family="Helvetica,sans-Serif" font-size="10.00">QProcess</text>
</a>
</g>
</g>
<!-- Node13&#45;&gt;Node16 -->
<g id="edge18" class="edge">
<title>Node13&#45;&gt;Node16</title>
<path fill="none" stroke="midnightblue" d="M826.61,-115.62C868.83,-107.88 948.98,-92.85 1025.89,-76.4"/>
<polygon fill="midnightblue" stroke="midnightblue" points="1026.7,-79.81 1035.74,-74.28 1025.23,-72.96 1026.7,-79.81"/>
</g>
<!-- Node17 -->
<g id="node17" class="node">
<title>Node17</title>
<g id="a_node17"><a xlink:href="calculations_8h.html" target="_top" xlink:title=" ">
<polygon fill="white" stroke="black" points="610,-56.5 610,-75.5 686,-75.5 686,-56.5 610,-56.5"/>
<text text-anchor="middle" x="648" y="-63.5" font-family="Helvetica,sans-Serif" font-size="10.00">calculations.h</text>
</a>
</g>
</g>
<!-- Node13&#45;&gt;Node17 -->
<g id="edge19" class="edge">
<title>Node13&#45;&gt;Node17</title>
<path fill="none" stroke="midnightblue" d="M773.39,-112.44C748.54,-103.44 709.23,-89.19 681.25,-79.05"/>
<polygon fill="midnightblue" stroke="midnightblue" points="682.09,-75.63 671.5,-75.52 679.71,-82.21 682.09,-75.63"/>
</g>
<!-- Node19 -->
<g id="node19" class="node">
<title>Node19</title>
<g id="a_node19"><a xlink:title=" ">
<polygon fill="white" stroke="#bfbfbf" points="1114.5,-56.5 1114.5,-75.5 1213.5,-75.5 1213.5,-56.5 1114.5,-56.5"/>
<text text-anchor="middle" x="1164" y="-63.5" font-family="Helvetica,sans-Serif" font-size="10.00">QFileSystemModel</text>
</a>
</g>
</g>
<!-- Node13&#45;&gt;Node19 -->
<g id="edge24" class="edge">
<title>Node13&#45;&gt;Node19</title>
<path fill="none" stroke="midnightblue" d="M826.74,-116.72C880.05,-109.03 995.64,-92.3 1104.28,-76.1"/>
<polygon fill="midnightblue" stroke="midnightblue" points="1105.06,-79.52 1114.43,-74.58 1104.02,-72.6 1105.06,-79.52"/>
</g>
<!-- Node17&#45;&gt;Node4 -->
<g id="edge22" class="edge">
<title>Node17&#45;&gt;Node4</title>
<path fill="none" stroke="midnightblue" d="M609.88,-60.84C518.04,-50.78 289.53,-25.58 255,-20 251.76,-19.48 248.4,-18.88 245.04,-18.24"/>
<polygon fill="midnightblue" stroke="midnightblue" points="245.63,-14.78 235.14,-16.25 244.25,-21.65 245.63,-14.78"/>
</g>
<!-- Node17&#45;&gt;Node5 -->
<g id="edge23" class="edge">
<title>Node17&#45;&gt;Node5</title>
<path fill="none" stroke="midnightblue" d="M627.08,-56.44C605.26,-47.52 570.85,-33.44 546.11,-23.32"/>
<polygon fill="midnightblue" stroke="midnightblue" points="547.4,-20.06 536.82,-19.52 544.75,-26.54 547.4,-20.06"/>
</g>
<!-- Node17&#45;&gt;Node12 -->
<g id="edge21" class="edge">
<title>Node17&#45;&gt;Node12</title>
<path fill="none" stroke="midnightblue" d="M659.09,-56.32C669.49,-48.18 685.26,-35.84 697.72,-26.09"/>
<polygon fill="midnightblue" stroke="midnightblue" points="699.99,-28.75 705.71,-19.83 695.68,-23.24 699.99,-28.75"/>
</g>
<!-- Node18 -->
<g id="node18" class="node">
<title>Node18</title>
<g id="a_node18"><a xlink:title=" ">
<polygon fill="white" stroke="#bfbfbf" points="618,-0.5 618,-19.5 672,-19.5 672,-0.5 618,-0.5"/>
<text text-anchor="middle" x="645" y="-7.5" font-family="Helvetica,sans-Serif" font-size="10.00">QThread</text>
</a>
</g>
</g>
<!-- Node17&#45;&gt;Node18 -->
<g id="edge20" class="edge">
<title>Node17&#45;&gt;Node18</title>
<path fill="none" stroke="midnightblue" d="M647.5,-56.08C647.11,-49.01 646.55,-38.86 646.05,-29.99"/>
<polygon fill="midnightblue" stroke="midnightblue" points="649.54,-29.54 645.49,-19.75 642.55,-29.93 649.54,-29.54"/>
</g>
</g>
</svg>
