<?xml version="1.0" encoding="UTF-8" standalone="no"?>
<!DOCTYPE svg PUBLIC "-//W3C//DTD SVG 1.1//EN"
 "http://www.w3.org/Graphics/SVG/1.1/DTD/svg11.dtd">
<!-- Generated by graphviz version 2.49.3 (20211027.1534)
 -->
<!-- Title: Graphical Class Hierarchy Pages: 1 -->
<svg width="194pt" height="674pt"
 viewBox="0.00 0.00 194.00 674.00" xmlns="http://www.w3.org/2000/svg" xmlns:xlink="http://www.w3.org/1999/xlink">
<g id="graph0" class="graph" transform="scale(1 1) rotate(0) translate(4 670)">
<title>Graphical Class Hierarchy</title>
<polygon fill="white" stroke="transparent" points="-4,4 -4,-670 190,-670 190,4 -4,4"/>
<!-- Node21 -->
<g id="node1" class="node">
<title>Node21</title>
<g id="a_node1"><a xlink:title=" ">
<polygon fill="white" stroke="#bfbfbf" points="0,-323.5 0,-342.5 53,-342.5 53,-323.5 0,-323.5"/>
<text text-anchor="middle" x="26.5" y="-330.5" font-family="Helvetica,sans-Serif" font-size="10.00">QObject</text>
</a>
</g>
</g>
<!-- Node0 -->
<g id="node2" class="node">
<title>Node0</title>
<g id="a_node2"><a xlink:href="classAdaptronicSelect.html" target="_top" xlink:title=" ">
<polygon fill="white" stroke="black" points="92,-646.5 92,-665.5 183,-665.5 183,-646.5 92,-646.5"/>
<text text-anchor="middle" x="137.5" y="-653.5" font-family="Helvetica,sans-Serif" font-size="10.00">AdaptronicSelect</text>
</a>
</g>
</g>
<!-- Node21&#45;&gt;Node0 -->
<g id="edge1" class="edge">
<title>Node21&#45;&gt;Node0</title>
<path fill="none" stroke="midnightblue" d="M29.06,-352.7C34.21,-412.91 52.4,-593.09 89,-637 92.18,-640.82 96.25,-643.88 100.66,-646.32"/>
<polygon fill="midnightblue" stroke="midnightblue" points="32.54,-352.3 28.23,-342.62 25.57,-352.87 32.54,-352.3"/>
</g>
<!-- Node23 -->
<g id="node3" class="node">
<title>Node23</title>
<g id="a_node3"><a xlink:href="classApexi.html" target="_top" xlink:title=" ">
<polygon fill="white" stroke="black" points="117,-608.5 117,-627.5 158,-627.5 158,-608.5 117,-608.5"/>
<text text-anchor="middle" x="137.5" y="-615.5" font-family="Helvetica,sans-Serif" font-size="10.00">Apexi</text>
</a>
</g>
</g>
<!-- Node21&#45;&gt;Node23 -->
<g id="edge2" class="edge">
<title>Node21&#45;&gt;Node23</title>
<path fill="none" stroke="midnightblue" d="M29.69,-352.7C36.15,-407.71 56.74,-561.37 89,-599 96.05,-607.23 107.17,-611.93 116.88,-614.59"/>
<polygon fill="midnightblue" stroke="midnightblue" points="33.14,-352.08 28.52,-342.54 26.18,-352.87 33.14,-352.08"/>
</g>
<!-- Node24 -->
<g id="node4" class="node">
<title>Node24</title>
<g id="a_node4"><a xlink:href="classAppSettings.html" target="_top" xlink:title=" ">
<polygon fill="white" stroke="black" points="102.5,-570.5 102.5,-589.5 172.5,-589.5 172.5,-570.5 102.5,-570.5"/>
<text text-anchor="middle" x="137.5" y="-577.5" font-family="Helvetica,sans-Serif" font-size="10.00">AppSettings</text>
</a>
</g>
</g>
<!-- Node21&#45;&gt;Node24 -->
<g id="edge3" class="edge">
<title>Node21&#45;&gt;Node24</title>
<path fill="none" stroke="midnightblue" d="M27.22,-352.68C27.68,-395.87 34.73,-499.97 89,-561 92.66,-565.11 97.33,-568.35 102.31,-570.89"/>
<polygon fill="midnightblue" stroke="midnightblue" points="30.72,-352.64 27.23,-342.63 23.72,-352.63 30.72,-352.64"/>
</g>
<!-- Node25 -->
<g id="node5" class="node">
<title>Node25</title>
<g id="a_node5"><a xlink:href="classArduino.html" target="_top" xlink:title=" ">
<polygon fill="white" stroke="black" points="112.5,-532.5 112.5,-551.5 162.5,-551.5 162.5,-532.5 112.5,-532.5"/>
<text text-anchor="middle" x="137.5" y="-539.5" font-family="Helvetica,sans-Serif" font-size="10.00">Arduino</text>
</a>
</g>
</g>
<!-- Node21&#45;&gt;Node25 -->
<g id="edge4" class="edge">
<title>Node21&#45;&gt;Node25</title>
<path fill="none" stroke="midnightblue" d="M28.54,-352.96C31.55,-390.92 43.3,-474.11 89,-523 95.19,-529.62 103.98,-533.98 112.33,-536.83"/>
<polygon fill="midnightblue" stroke="midnightblue" points="32.01,-352.46 27.85,-342.71 25.03,-352.93 32.01,-352.46"/>
</g>
<!-- Node26 -->
<g id="node6" class="node">
<title>Node26</title>
<g id="a_node6"><a xlink:href="classConnect.html" target="_top" xlink:title=" ">
<polygon fill="white" stroke="black" points="111,-494.5 111,-513.5 164,-513.5 164,-494.5 111,-494.5"/>
<text text-anchor="middle" x="137.5" y="-501.5" font-family="Helvetica,sans-Serif" font-size="10.00">Connect</text>
</a>
</g>
</g>
<!-- Node21&#45;&gt;Node26 -->
<g id="edge5" class="edge">
<title>Node21&#45;&gt;Node26</title>
<path fill="none" stroke="midnightblue" d="M30.43,-352.88C36.14,-384.84 51.64,-447.78 89,-485 94.92,-490.89 102.89,-495.02 110.62,-497.88"/>
<polygon fill="midnightblue" stroke="midnightblue" points="33.82,-351.92 28.75,-342.62 26.92,-353.05 33.82,-351.92"/>
</g>
<!-- Node27 -->
<g id="node7" class="node">
<title>Node27</title>
<g id="a_node7"><a xlink:href="classDashBoard.html" target="_top" xlink:title=" ">
<polygon fill="white" stroke="black" points="105,-456.5 105,-475.5 170,-475.5 170,-456.5 105,-456.5"/>
<text text-anchor="middle" x="137.5" y="-463.5" font-family="Helvetica,sans-Serif" font-size="10.00">DashBoard</text>
</a>
</g>
</g>
<!-- Node21&#45;&gt;Node27 -->
<g id="edge6" class="edge">
<title>Node21&#45;&gt;Node27</title>
<path fill="none" stroke="midnightblue" d="M33.37,-352.49C41.84,-377.54 59.76,-420.92 89,-447 93.51,-451.02 98.97,-454.24 104.57,-456.81"/>
<polygon fill="midnightblue" stroke="midnightblue" points="36.61,-351.13 30.22,-342.68 29.94,-353.27 36.61,-351.13"/>
</g>
<!-- Node28 -->
<g id="node8" class="node">
<title>Node28</title>
<g id="a_node8"><a xlink:href="classDownloadManager.html" target="_top" xlink:title=" ">
<polygon fill="white" stroke="black" points="89,-418.5 89,-437.5 186,-437.5 186,-418.5 89,-418.5"/>
<text text-anchor="middle" x="137.5" y="-425.5" font-family="Helvetica,sans-Serif" font-size="10.00">DownloadManager</text>
</a>
</g>
</g>
<!-- Node21&#45;&gt;Node28 -->
<g id="edge7" class="edge">
<title>Node21&#45;&gt;Node28</title>
<path fill="none" stroke="midnightblue" d="M38.37,-351.23C49.3,-368.2 67.56,-393.19 89,-409 94,-412.69 99.82,-415.78 105.64,-418.33"/>
<polygon fill="midnightblue" stroke="midnightblue" points="41.34,-349.38 33.08,-342.74 35.4,-353.08 41.34,-349.38"/>
</g>
<!-- Node29 -->
<g id="node9" class="node">
<title>Node29</title>
<g id="a_node9"><a xlink:href="classExtender.html" target="_top" xlink:title=" ">
<polygon fill="white" stroke="black" points="110.5,-380.5 110.5,-399.5 164.5,-399.5 164.5,-380.5 110.5,-380.5"/>
<text text-anchor="middle" x="137.5" y="-387.5" font-family="Helvetica,sans-Serif" font-size="10.00">Extender</text>
</a>
</g>
</g>
<!-- Node21&#45;&gt;Node29 -->
<g id="edge8" class="edge">
<title>Node21&#45;&gt;Node29</title>
<path fill="none" stroke="midnightblue" d="M50.21,-348.34C61.59,-355.69 75.74,-364.31 89,-371 95.66,-374.36 103.07,-377.56 110.01,-380.34"/>
<polygon fill="midnightblue" stroke="midnightblue" points="52.03,-345.35 41.75,-342.79 48.19,-351.2 52.03,-345.35"/>
</g>
<!-- Node30 -->
<g id="node10" class="node">
<title>Node30</title>
<g id="a_node10"><a xlink:href="classGPS.html" target="_top" xlink:title=" ">
<polygon fill="white" stroke="black" points="118.5,-342.5 118.5,-361.5 156.5,-361.5 156.5,-342.5 118.5,-342.5"/>
<text text-anchor="middle" x="137.5" y="-349.5" font-family="Helvetica,sans-Serif" font-size="10.00">GPS</text>
</a>
</g>
</g>
<!-- Node21&#45;&gt;Node30 -->
<g id="edge9" class="edge">
<title>Node21&#45;&gt;Node30</title>
<path fill="none" stroke="midnightblue" d="M62.91,-339.17C81.38,-342.39 103.2,-346.19 118.26,-348.82"/>
<polygon fill="midnightblue" stroke="midnightblue" points="63.51,-335.72 53.06,-337.45 62.31,-342.62 63.51,-335.72"/>
</g>
<!-- Node31 -->
<g id="node11" class="node">
<title>Node31</title>
<g id="a_node11"><a xlink:href="classGoPro.html" target="_top" xlink:title=" ">
<polygon fill="white" stroke="black" points="115.5,-304.5 115.5,-323.5 159.5,-323.5 159.5,-304.5 115.5,-304.5"/>
<text text-anchor="middle" x="137.5" y="-311.5" font-family="Helvetica,sans-Serif" font-size="10.00">GoPro</text>
</a>
</g>
</g>
<!-- Node21&#45;&gt;Node31 -->
<g id="edge10" class="edge">
<title>Node21&#45;&gt;Node31</title>
<path fill="none" stroke="midnightblue" d="M63.37,-326.75C80.63,-323.74 100.74,-320.23 115.49,-317.66"/>
<polygon fill="midnightblue" stroke="midnightblue" points="62.31,-323.38 53.06,-328.55 63.51,-330.28 62.31,-323.38"/>
</g>
<!-- Node32 -->
<g id="node12" class="node">
<title>Node32</title>
<g id="a_node12"><a xlink:href="classOBD.html" target="_top" xlink:title=" ">
<polygon fill="white" stroke="black" points="118.5,-266.5 118.5,-285.5 156.5,-285.5 156.5,-266.5 118.5,-266.5"/>
<text text-anchor="middle" x="137.5" y="-273.5" font-family="Helvetica,sans-Serif" font-size="10.00">OBD</text>
</a>
</g>
</g>
<!-- Node21&#45;&gt;Node32 -->
<g id="edge11" class="edge">
<title>Node21&#45;&gt;Node32</title>
<path fill="none" stroke="midnightblue" d="M50.21,-317.66C61.59,-310.31 75.74,-301.69 89,-295 98.36,-290.28 109.18,-285.88 118.13,-282.5"/>
<polygon fill="midnightblue" stroke="midnightblue" points="48.19,-314.8 41.75,-323.21 52.03,-320.65 48.19,-314.8"/>
</g>
<!-- Node33 -->
<g id="node13" class="node">
<title>Node33</title>
<g id="a_node13"><a xlink:href="classSensors.html" target="_top" xlink:title=" ">
<polygon fill="white" stroke="black" points="111,-228.5 111,-247.5 164,-247.5 164,-228.5 111,-228.5"/>
<text text-anchor="middle" x="137.5" y="-235.5" font-family="Helvetica,sans-Serif" font-size="10.00">Sensors</text>
</a>
</g>
</g>
<!-- Node21&#45;&gt;Node33 -->
<g id="edge12" class="edge">
<title>Node21&#45;&gt;Node33</title>
<path fill="none" stroke="midnightblue" d="M38.37,-314.77C49.3,-297.8 67.56,-272.81 89,-257 95.43,-252.26 103.21,-248.5 110.6,-245.62"/>
<polygon fill="midnightblue" stroke="midnightblue" points="35.4,-312.92 33.08,-323.26 41.34,-316.62 35.4,-312.92"/>
</g>
<!-- Node34 -->
<g id="node14" class="node">
<title>Node34</title>
<g id="a_node14"><a xlink:href="classTextProgressBar.html" target="_top" xlink:title=" ">
<polygon fill="white" stroke="black" points="93,-190.5 93,-209.5 182,-209.5 182,-190.5 93,-190.5"/>
<text text-anchor="middle" x="137.5" y="-197.5" font-family="Helvetica,sans-Serif" font-size="10.00">TextProgressBar</text>
</a>
</g>
</g>
<!-- Node21&#45;&gt;Node34 -->
<g id="edge13" class="edge">
<title>Node21&#45;&gt;Node34</title>
<path fill="none" stroke="midnightblue" d="M33.37,-313.51C41.84,-288.46 59.76,-245.08 89,-219 93.24,-215.22 98.33,-212.14 103.58,-209.65"/>
<polygon fill="midnightblue" stroke="midnightblue" points="29.94,-312.73 30.22,-323.32 36.61,-314.87 29.94,-312.73"/>
</g>
<!-- Node35 -->
<g id="node15" class="node">
<title>Node35</title>
<g id="a_node15"><a xlink:href="classWifiScanner.html" target="_top" xlink:title=" ">
<polygon fill="white" stroke="black" points="103.5,-152.5 103.5,-171.5 171.5,-171.5 171.5,-152.5 103.5,-152.5"/>
<text text-anchor="middle" x="137.5" y="-159.5" font-family="Helvetica,sans-Serif" font-size="10.00">WifiScanner</text>
</a>
</g>
</g>
<!-- Node21&#45;&gt;Node35 -->
<g id="edge14" class="edge">
<title>Node21&#45;&gt;Node35</title>
<path fill="none" stroke="midnightblue" d="M30.43,-313.12C36.14,-281.16 51.64,-218.22 89,-181 93.03,-176.99 98.01,-173.8 103.22,-171.26"/>
<polygon fill="midnightblue" stroke="midnightblue" points="26.92,-312.95 28.75,-323.38 33.82,-314.08 26.92,-312.95"/>
</g>
<!-- Node36 -->
<g id="node16" class="node">
<title>Node36</title>
<g id="a_node16"><a xlink:href="classcalculations.html" target="_top" xlink:title=" ">
<polygon fill="white" stroke="black" points="103.5,-114.5 103.5,-133.5 171.5,-133.5 171.5,-114.5 103.5,-114.5"/>
<text text-anchor="middle" x="137.5" y="-121.5" font-family="Helvetica,sans-Serif" font-size="10.00">calculations</text>
</a>
</g>
</g>
<!-- Node21&#45;&gt;Node36 -->
<g id="edge15" class="edge">
<title>Node21&#45;&gt;Node36</title>
<path fill="none" stroke="midnightblue" d="M28.54,-313.04C31.55,-275.08 43.3,-191.89 89,-143 93,-138.72 98.1,-135.38 103.46,-132.79"/>
<polygon fill="midnightblue" stroke="midnightblue" points="25.03,-313.07 27.85,-323.29 32.01,-313.54 25.03,-313.07"/>
</g>
<!-- Node37 -->
<g id="node17" class="node">
<title>Node37</title>
<g id="a_node17"><a xlink:href="classdatalogger.html" target="_top" xlink:title=" ">
<polygon fill="white" stroke="black" points="106.5,-76.5 106.5,-95.5 168.5,-95.5 168.5,-76.5 106.5,-76.5"/>
<text text-anchor="middle" x="137.5" y="-83.5" font-family="Helvetica,sans-Serif" font-size="10.00">datalogger</text>
</a>
</g>
</g>
<!-- Node21&#45;&gt;Node37 -->
<g id="edge16" class="edge">
<title>Node21&#45;&gt;Node37</title>
<path fill="none" stroke="midnightblue" d="M27.22,-313.32C27.68,-270.13 34.73,-166.03 89,-105 93.6,-99.82 99.81,-96.04 106.22,-93.27"/>
<polygon fill="midnightblue" stroke="midnightblue" points="23.72,-313.37 27.23,-323.37 30.72,-313.36 23.72,-313.37"/>
</g>
<!-- Node38 -->
<g id="node18" class="node">
<title>Node38</title>
<g id="a_node18"><a xlink:href="classioMapData.html" target="_top" xlink:title=" ">
<polygon fill="white" stroke="black" points="106,-38.5 106,-57.5 169,-57.5 169,-38.5 106,-38.5"/>
<text text-anchor="middle" x="137.5" y="-45.5" font-family="Helvetica,sans-Serif" font-size="10.00">ioMapData</text>
</a>
</g>
</g>
<!-- Node21&#45;&gt;Node38 -->
<g id="edge17" class="edge">
<title>Node21&#45;&gt;Node38</title>
<path fill="none" stroke="midnightblue" d="M29.69,-313.3C36.15,-258.29 56.74,-104.63 89,-67 93.39,-61.88 99.36,-58.12 105.59,-55.37"/>
<polygon fill="midnightblue" stroke="midnightblue" points="26.18,-313.13 28.52,-323.46 33.14,-313.92 26.18,-313.13"/>
</g>
<!-- Node39 -->
<g id="node19" class="node">
<title>Node39</title>
<g id="a_node19"><a xlink:href="classudpreceiver.html" target="_top" xlink:title=" ">
<polygon fill="white" stroke="black" points="104,-0.5 104,-19.5 171,-19.5 171,-0.5 104,-0.5"/>
<text text-anchor="middle" x="137.5" y="-7.5" font-family="Helvetica,sans-Serif" font-size="10.00">udpreceiver</text>
</a>
</g>
</g>
<!-- Node21&#45;&gt;Node39 -->
<g id="edge18" class="edge">
<title>Node21&#45;&gt;Node39</title>
<path fill="none" stroke="midnightblue" d="M29.06,-313.3C34.21,-253.09 52.4,-72.91 89,-29 92.87,-24.36 98.03,-20.85 103.53,-18.19"/>
<polygon fill="midnightblue" stroke="midnightblue" points="25.57,-313.13 28.23,-323.38 32.54,-313.7 25.57,-313.13"/>
</g>
</g>
</svg>
