<?xml version="1.0" encoding="UTF-8" standalone="no"?>
<!DOCTYPE svg PUBLIC "-//W3C//DTD SVG 1.1//EN"
 "http://www.w3.org/Graphics/SVG/1.1/DTD/svg11.dtd">
<!-- Generated by graphviz version 2.49.3 (20211027.1534)
 -->
<!-- Title: main.cpp Pages: 1 -->
<!--zoomable 252 -->
<svg id="main" version="1.1" xmlns="http://www.w3.org/2000/svg" xmlns:xlink="http://www.w3.org/1999/xlink" xml:space="preserve" onload="init(evt)">
<style type="text/css"><![CDATA[
.edge:hover path { stroke: red; }
.edge:hover polygon { stroke: red; fill: red; }
]]></style>
<script type="text/javascript"><![CDATA[
var edges = document.getElementsByTagName('g');
if (edges && edges.length) {
  for (var i=0;i<edges.length;i++) {
    if (edges[i].id.substr(0,4)=='edge') {
      edges[i].setAttribute('class','edge');
    }
  }
}
]]></script>
        <defs>
                <circle id="rim" cx="0" cy="0" r="7"/>
                <circle id="rim2" cx="0" cy="0" r="3.5"/>
                <g id="zoomPlus">
                        <use xlink:href="#rim" fill="#404040">
                                <set attributeName="fill" to="#808080" begin="zoomplus.mouseover" end="zoomplus.mouseout"/>
                        </use>
                        <path d="M-4,0h8M0,-4v8" fill="none" stroke="white" stroke-width="1.5" pointer-events="none"/>
                </g>
                <g id="zoomMin">
                        <use xlink:href="#rim" fill="#404040">
                                <set attributeName="fill" to="#808080" begin="zoomminus.mouseover" end="zoomminus.mouseout"/>
                        </use>
                        <path d="M-4,0h8" fill="none" stroke="white" stroke-width="1.5" pointer-events="none"/>
                </g>
                <g id="dirArrow">
                        <path fill="none" stroke="white" stroke-width="1.5" d="M0,-3.0v7 M-2.5,-0.5L0,-3.0L2.5,-0.5"/>
                </g>
               <g id="resetDef">
                       <use xlink:href="#rim2" fill="#404040">
                               <set attributeName="fill" to="#808080" begin="reset.mouseover" end="reset.mouseout"/>
                       </use>
               </g>
        </defs>

<script type="text/javascript">
var viewWidth = 1285;
var viewHeight = 252;
var sectionId = 'dynsection-0';
</script>
<script xlink:href="svgpan.js"/>
<svg id="graph" class="graph">
<g id="viewport">
<title>main.cpp</title>
<polygon fill="white" stroke="transparent" points="-4,4 -4,-248 1280.5,-248 1280.5,4 -4,4"/>
<!-- Node1 -->
<g id="node1" class="node">
<title>Node1</title>
<g id="a_node1"><a xlink:title=" ">
<polygon fill="#bfbfbf" stroke="black" points="395,-224.5 395,-243.5 451,-243.5 451,-224.5 395,-224.5"/>
<text text-anchor="middle" x="423" y="-231.5" font-family="Helvetica,sans-Serif" font-size="10.00">main.cpp</text>
</a>
</g>
</g>
<!-- Node2 -->
<g id="node2" class="node">
<title>Node2</title>
<g id="a_node2"><a xlink:title=" ">
<polygon fill="white" stroke="#bfbfbf" points="0,-168.5 0,-187.5 72,-187.5 72,-168.5 0,-168.5"/>
<text text-anchor="middle" x="36" y="-175.5" font-family="Helvetica,sans-Serif" font-size="10.00">QApplication</text>
</a>
</g>
</g>
<!-- Node1&#45;&gt;Node2 -->
<g id="edge1" class="edge">
<title>Node1&#45;&gt;Node2</title>
<path fill="none" stroke="midnightblue" d="M394.98,-229.95C338.01,-223.62 204.39,-208.07 82.21,-188.11"/>
<polygon fill="midnightblue" stroke="midnightblue" points="82.75,-184.65 72.31,-186.48 81.61,-191.56 82.75,-184.65"/>
</g>
<!-- Node3 -->
<g id="node3" class="node">
<title>Node3</title>
<g id="a_node3"><a xlink:title=" ">
<polygon fill="white" stroke="#bfbfbf" points="90.5,-168.5 90.5,-187.5 209.5,-187.5 209.5,-168.5 90.5,-168.5"/>
<text text-anchor="middle" x="150" y="-175.5" font-family="Helvetica,sans-Serif" font-size="10.00">QQmlApplicationEngine</text>
</a>
</g>
</g>
<!-- Node1&#45;&gt;Node3 -->
<g id="edge2" class="edge">
<title>Node1&#45;&gt;Node3</title>
<path fill="none" stroke="midnightblue" d="M394.81,-227.42C349.7,-218.5 260.55,-200.87 203.19,-189.52"/>
<polygon fill="midnightblue" stroke="midnightblue" points="203.7,-186.05 193.21,-187.55 202.34,-192.92 203.7,-186.05"/>
</g>
<!-- Node4 -->
<g id="node4" class="node">
<title>Node4</title>
<g id="a_node4"><a xlink:title=" ">
<polygon fill="white" stroke="#bfbfbf" points="227.5,-168.5 227.5,-187.5 302.5,-187.5 302.5,-168.5 227.5,-168.5"/>
<text text-anchor="middle" x="265" y="-175.5" font-family="Helvetica,sans-Serif" font-size="10.00">QQmlContext</text>
</a>
</g>
</g>
<!-- Node1&#45;&gt;Node4 -->
<g id="edge3" class="edge">
<title>Node1&#45;&gt;Node4</title>
<path fill="none" stroke="midnightblue" d="M397.96,-224.44C371.38,-215.36 329.19,-200.94 299.48,-190.78"/>
<polygon fill="midnightblue" stroke="midnightblue" points="300.51,-187.44 289.92,-187.52 298.25,-194.06 300.51,-187.44"/>
</g>
<!-- Node5 -->
<g id="node5" class="node">
<title>Node5</title>
<g id="a_node5"><a xlink:title=" ">
<polygon fill="white" stroke="#bfbfbf" points="320.5,-168.5 320.5,-187.5 365.5,-187.5 365.5,-168.5 320.5,-168.5"/>
<text text-anchor="middle" x="343" y="-175.5" font-family="Helvetica,sans-Serif" font-size="10.00">QtQml</text>
</a>
</g>
</g>
<!-- Node1&#45;&gt;Node5 -->
<g id="edge4" class="edge">
<title>Node1&#45;&gt;Node5</title>
<path fill="none" stroke="midnightblue" d="M410.15,-224.32C397.78,-215.98 378.87,-203.21 364.26,-193.35"/>
<polygon fill="midnightblue" stroke="midnightblue" points="366.07,-190.35 355.82,-187.65 362.15,-196.15 366.07,-190.35"/>
</g>
<!-- Node6 -->
<g id="node6" class="node">
<title>Node6</title>
<g id="a_node6"><a xlink:title=" ">
<polygon fill="white" stroke="#bfbfbf" points="0.5,-112.5 0.5,-131.5 99.5,-131.5 99.5,-112.5 0.5,-112.5"/>
<text text-anchor="middle" x="50" y="-119.5" font-family="Helvetica,sans-Serif" font-size="10.00">QFileSystemModel</text>
</a>
</g>
</g>
<!-- Node1&#45;&gt;Node6 -->
<g id="edge5" class="edge">
<title>Node1&#45;&gt;Node6</title>
<path fill="none" stroke="midnightblue" d="M419.1,-224.06C412.27,-209.58 396.68,-181.28 374,-168 273.86,-109.37 228.56,-146.96 109.85,-132.15"/>
<polygon fill="midnightblue" stroke="midnightblue" points="110.04,-128.64 99.66,-130.77 109.11,-135.58 110.04,-128.64"/>
</g>
<!-- Node7 -->
<g id="node7" class="node">
<title>Node7</title>
<g id="a_node7"><a xlink:href="connect_8h.html" target="_top" xlink:title=" ">
<polygon fill="white" stroke="black" points="422.5,-168.5 422.5,-187.5 481.5,-187.5 481.5,-168.5 422.5,-168.5"/>
<text text-anchor="middle" x="452" y="-175.5" font-family="Helvetica,sans-Serif" font-size="10.00">connect.h</text>
</a>
</g>
</g>
<!-- Node1&#45;&gt;Node7 -->
<g id="edge6" class="edge">
<title>Node1&#45;&gt;Node7</title>
<path fill="none" stroke="midnightblue" d="M427.79,-224.08C431.76,-216.69 437.53,-205.95 442.43,-196.81"/>
<polygon fill="midnightblue" stroke="midnightblue" points="445.65,-198.22 447.3,-187.75 439.49,-194.91 445.65,-198.22"/>
</g>
<!-- Node16 -->
<g id="node16" class="node">
<title>Node16</title>
<g id="a_node16"><a xlink:href="Extender_8h.html" target="_top" xlink:title=" ">
<polygon fill="white" stroke="black" points="660,-168.5 660,-187.5 722,-187.5 722,-168.5 660,-168.5"/>
<text text-anchor="middle" x="691" y="-175.5" font-family="Helvetica,sans-Serif" font-size="10.00">Extender.h</text>
</a>
</g>
</g>
<!-- Node1&#45;&gt;Node16 -->
<g id="edge18" class="edge">
<title>Node1&#45;&gt;Node16</title>
<path fill="none" stroke="midnightblue" d="M451.17,-227.32C498.65,-217.76 594.77,-198.39 649.81,-187.3"/>
<polygon fill="midnightblue" stroke="midnightblue" points="650.81,-190.67 659.92,-185.26 649.43,-183.81 650.81,-190.67"/>
</g>
<!-- Node20 -->
<g id="node20" class="node">
<title>Node20</title>
<g id="a_node20"><a xlink:href="iomapdata_8h.html" target="_top" xlink:title=" ">
<polygon fill="white" stroke="black" points="950.5,-112.5 950.5,-131.5 1019.5,-131.5 1019.5,-112.5 950.5,-112.5"/>
<text text-anchor="middle" x="985" y="-119.5" font-family="Helvetica,sans-Serif" font-size="10.00">iomapdata.h</text>
</a>
</g>
</g>
<!-- Node1&#45;&gt;Node20 -->
<g id="edge23" class="edge">
<title>Node1&#45;&gt;Node20</title>
<path fill="none" stroke="midnightblue" d="M451.2,-229.89C505.61,-223.66 628.74,-208.5 731,-188 808.04,-172.56 896.66,-148.39 946.23,-134.28"/>
<polygon fill="midnightblue" stroke="midnightblue" points="947.24,-137.63 955.9,-131.52 945.32,-130.9 947.24,-137.63"/>
</g>
<!-- Node24 -->
<g id="node24" class="node">
<title>Node24</title>
<g id="a_node24"><a xlink:href="downloadmanager_8h.html" target="_top" xlink:title=" ">
<polygon fill="white" stroke="black" points="1018.5,-168.5 1018.5,-187.5 1121.5,-187.5 1121.5,-168.5 1018.5,-168.5"/>
<text text-anchor="middle" x="1070" y="-175.5" font-family="Helvetica,sans-Serif" font-size="10.00">downloadmanager.h</text>
</a>
</g>
</g>
<!-- Node1&#45;&gt;Node24 -->
<g id="edge28" class="edge">
<title>Node1&#45;&gt;Node24</title>
<path fill="none" stroke="midnightblue" d="M451.22,-230.64C548.52,-222.52 871.58,-195.56 1008.17,-184.16"/>
<polygon fill="midnightblue" stroke="midnightblue" points="1008.78,-187.62 1018.46,-183.3 1008.2,-180.65 1008.78,-187.62"/>
</g>
<!-- Node30 -->
<g id="node30" class="node">
<title>Node30</title>
<g id="a_node30"><a xlink:title=" ">
<polygon fill="white" stroke="#bfbfbf" points="1139.5,-168.5 1139.5,-187.5 1182.5,-187.5 1182.5,-168.5 1139.5,-168.5"/>
<text text-anchor="middle" x="1161" y="-175.5" font-family="Helvetica,sans-Serif" font-size="10.00">cstdio</text>
</a>
</g>
</g>
<!-- Node1&#45;&gt;Node30 -->
<g id="edge36" class="edge">
<title>Node1&#45;&gt;Node30</title>
<path fill="none" stroke="midnightblue" d="M451.27,-233.5C546.21,-234.7 862.21,-234.8 1129.31,-187.93"/>
<polygon fill="midnightblue" stroke="midnightblue" points="1129.95,-191.37 1139.18,-186.17 1128.73,-184.48 1129.95,-191.37"/>
</g>
<!-- Node7&#45;&gt;Node6 -->
<g id="edge17" class="edge">
<title>Node7&#45;&gt;Node6</title>
<path fill="none" stroke="midnightblue" d="M422.24,-170.57C417.49,-169.64 412.62,-168.75 408,-168 278.67,-147.05 242.78,-150.13 109.82,-132.21"/>
<polygon fill="midnightblue" stroke="midnightblue" points="110.04,-128.7 99.66,-130.82 109.09,-135.64 110.04,-128.7"/>
</g>
<!-- Node8 -->
<g id="node8" class="node">
<title>Node8</title>
<g id="a_node8"><a xlink:title=" ">
<polygon fill="white" stroke="#bfbfbf" points="117.5,-112.5 117.5,-131.5 240.5,-131.5 240.5,-112.5 117.5,-112.5"/>
<text text-anchor="middle" x="179" y="-119.5" font-family="Helvetica,sans-Serif" font-size="10.00">QtSerialPort/QSerialPort</text>
</a>
</g>
</g>
<!-- Node7&#45;&gt;Node8 -->
<g id="edge7" class="edge">
<title>Node7&#45;&gt;Node8</title>
<path fill="none" stroke="midnightblue" d="M422.18,-170.87C417.44,-169.9 412.59,-168.92 408,-168 348.04,-155.98 279.19,-142.49 232.76,-133.44"/>
<polygon fill="midnightblue" stroke="midnightblue" points="233.41,-130 222.92,-131.53 232.07,-136.87 233.41,-130"/>
</g>
<!-- Node9 -->
<g id="node9" class="node">
<title>Node9</title>
<g id="a_node9"><a xlink:title=" ">
<polygon fill="white" stroke="#bfbfbf" points="615.5,-0.5 615.5,-19.5 668.5,-19.5 668.5,-0.5 615.5,-0.5"/>
<text text-anchor="middle" x="642" y="-7.5" font-family="Helvetica,sans-Serif" font-size="10.00">QObject</text>
</a>
</g>
</g>
<!-- Node7&#45;&gt;Node9 -->
<g id="edge8" class="edge">
<title>Node7&#45;&gt;Node9</title>
<path fill="none" stroke="midnightblue" d="M422.33,-170.89C377.36,-161.32 296.24,-142.8 288,-132 282.61,-124.93 283.63,-119.74 288,-112 311.74,-70 335.78,-72.83 381,-56 457.6,-27.49 553.66,-16.87 605.22,-13.05"/>
<polygon fill="midnightblue" stroke="midnightblue" points="605.49,-16.54 615.23,-12.35 605.01,-9.56 605.49,-16.54"/>
</g>
<!-- Node10 -->
<g id="node10" class="node">
<title>Node10</title>
<g id="a_node10"><a xlink:title=" ">
<polygon fill="white" stroke="#bfbfbf" points="297.5,-112.5 297.5,-131.5 394.5,-131.5 394.5,-112.5 297.5,-112.5"/>
<text text-anchor="middle" x="346" y="-119.5" font-family="Helvetica,sans-Serif" font-size="10.00">QModbusDataUnit</text>
</a>
</g>
</g>
<!-- Node7&#45;&gt;Node10 -->
<g id="edge9" class="edge">
<title>Node7&#45;&gt;Node10</title>
<path fill="none" stroke="midnightblue" d="M434.97,-168.32C417.97,-159.66 391.62,-146.24 372.01,-136.25"/>
<polygon fill="midnightblue" stroke="midnightblue" points="373.49,-133.08 362.99,-131.65 370.31,-139.31 373.49,-133.08"/>
</g>
<!-- Node11 -->
<g id="node11" class="node">
<title>Node11</title>
<g id="a_node11"><a xlink:title=" ">
<polygon fill="white" stroke="#bfbfbf" points="390.5,-56.5 390.5,-75.5 439.5,-75.5 439.5,-56.5 390.5,-56.5"/>
<text text-anchor="middle" x="415" y="-63.5" font-family="Helvetica,sans-Serif" font-size="10.00">QTimer</text>
</a>
</g>
</g>
<!-- Node7&#45;&gt;Node11 -->
<g id="edge10" class="edge">
<title>Node7&#45;&gt;Node11</title>
<path fill="none" stroke="midnightblue" d="M449.1,-168.37C443.1,-150.54 429.23,-109.3 421.15,-85.27"/>
<polygon fill="midnightblue" stroke="midnightblue" points="424.4,-83.95 417.89,-75.59 417.76,-86.19 424.4,-83.95"/>
</g>
<!-- Node12 -->
<g id="node12" class="node">
<title>Node12</title>
<g id="a_node12"><a xlink:title=" ">
<polygon fill="white" stroke="#bfbfbf" points="451,-112.5 451,-131.5 511,-131.5 511,-112.5 451,-112.5"/>
<text text-anchor="middle" x="481" y="-119.5" font-family="Helvetica,sans-Serif" font-size="10.00">QProcess</text>
</a>
</g>
</g>
<!-- Node7&#45;&gt;Node12 -->
<g id="edge11" class="edge">
<title>Node7&#45;&gt;Node12</title>
<path fill="none" stroke="midnightblue" d="M456.79,-168.08C460.76,-160.69 466.53,-149.95 471.43,-140.81"/>
<polygon fill="midnightblue" stroke="midnightblue" points="474.65,-142.22 476.3,-131.75 468.49,-138.91 474.65,-142.22"/>
</g>
<!-- Node13 -->
<g id="node13" class="node">
<title>Node13</title>
<g id="a_node13"><a xlink:href="calculations_8h.html" target="_top" xlink:title=" ">
<polygon fill="white" stroke="black" points="529,-112.5 529,-131.5 605,-131.5 605,-112.5 529,-112.5"/>
<text text-anchor="middle" x="567" y="-119.5" font-family="Helvetica,sans-Serif" font-size="10.00">calculations.h</text>
</a>
</g>
</g>
<!-- Node7&#45;&gt;Node13 -->
<g id="edge12" class="edge">
<title>Node7&#45;&gt;Node13</title>
<path fill="none" stroke="midnightblue" d="M470.22,-168.44C488.9,-159.68 518.16,-145.94 539.62,-135.86"/>
<polygon fill="midnightblue" stroke="midnightblue" points="541.3,-138.93 548.86,-131.52 538.32,-132.6 541.3,-138.93"/>
</g>
<!-- Node13&#45;&gt;Node9 -->
<g id="edge14" class="edge">
<title>Node13&#45;&gt;Node9</title>
<path fill="none" stroke="midnightblue" d="M540.58,-112.45C510.74,-101.37 468.57,-80.54 487,-56 501.23,-37.05 564.34,-23.49 605.51,-16.48"/>
<polygon fill="midnightblue" stroke="midnightblue" points="606.16,-19.92 615.46,-14.84 605.02,-13.01 606.16,-19.92"/>
</g>
<!-- Node13&#45;&gt;Node11 -->
<g id="edge16" class="edge">
<title>Node13&#45;&gt;Node11</title>
<path fill="none" stroke="midnightblue" d="M542.92,-112.44C517.46,-103.4 477.11,-89.06 448.54,-78.92"/>
<polygon fill="midnightblue" stroke="midnightblue" points="449.57,-75.57 438.97,-75.52 447.22,-82.16 449.57,-75.57"/>
</g>
<!-- Node14 -->
<g id="node14" class="node">
<title>Node14</title>
<g id="a_node14"><a xlink:title=" ">
<polygon fill="white" stroke="#bfbfbf" points="496,-56.5 496,-75.5 550,-75.5 550,-56.5 496,-56.5"/>
<text text-anchor="middle" x="523" y="-63.5" font-family="Helvetica,sans-Serif" font-size="10.00">QThread</text>
</a>
</g>
</g>
<!-- Node13&#45;&gt;Node14 -->
<g id="edge13" class="edge">
<title>Node13&#45;&gt;Node14</title>
<path fill="none" stroke="midnightblue" d="M559.73,-112.08C553.46,-104.38 544.21,-93.03 536.57,-83.65"/>
<polygon fill="midnightblue" stroke="midnightblue" points="539.16,-81.29 530.13,-75.75 533.73,-85.71 539.16,-81.29"/>
</g>
<!-- Node15 -->
<g id="node15" class="node">
<title>Node15</title>
<g id="a_node15"><a xlink:title=" ">
<polygon fill="white" stroke="#bfbfbf" points="568,-56.5 568,-75.5 614,-75.5 614,-56.5 568,-56.5"/>
<text text-anchor="middle" x="591" y="-63.5" font-family="Helvetica,sans-Serif" font-size="10.00">QTime</text>
</a>
</g>
</g>
<!-- Node13&#45;&gt;Node15 -->
<g id="edge15" class="edge">
<title>Node13&#45;&gt;Node15</title>
<path fill="none" stroke="midnightblue" d="M570.96,-112.08C574.21,-104.77 578.92,-94.18 582.95,-85.1"/>
<polygon fill="midnightblue" stroke="midnightblue" points="586.25,-86.31 587.11,-75.75 579.85,-83.47 586.25,-86.31"/>
</g>
<!-- Node16&#45;&gt;Node9 -->
<g id="edge19" class="edge">
<title>Node16&#45;&gt;Node9</title>
<path fill="none" stroke="midnightblue" d="M680.3,-168.25C671.03,-159.98 658.17,-146.67 652,-132 637.74,-98.12 638.27,-54.25 640.05,-29.72"/>
<polygon fill="midnightblue" stroke="midnightblue" points="643.55,-29.91 640.94,-19.64 636.58,-29.3 643.55,-29.91"/>
</g>
<!-- Node17 -->
<g id="node17" class="node">
<title>Node17</title>
<g id="a_node17"><a xlink:title=" ">
<polygon fill="white" stroke="#bfbfbf" points="661.5,-112.5 661.5,-131.5 720.5,-131.5 720.5,-112.5 661.5,-112.5"/>
<text text-anchor="middle" x="691" y="-119.5" font-family="Helvetica,sans-Serif" font-size="10.00">QCanBus</text>
</a>
</g>
</g>
<!-- Node16&#45;&gt;Node17 -->
<g id="edge20" class="edge">
<title>Node16&#45;&gt;Node17</title>
<path fill="none" stroke="midnightblue" d="M691,-168.08C691,-161.01 691,-150.86 691,-141.99"/>
<polygon fill="midnightblue" stroke="midnightblue" points="694.5,-141.75 691,-131.75 687.5,-141.75 694.5,-141.75"/>
</g>
<!-- Node18 -->
<g id="node18" class="node">
<title>Node18</title>
<g id="a_node18"><a xlink:title=" ">
<polygon fill="white" stroke="#bfbfbf" points="738.5,-112.5 738.5,-131.5 827.5,-131.5 827.5,-112.5 738.5,-112.5"/>
<text text-anchor="middle" x="783" y="-119.5" font-family="Helvetica,sans-Serif" font-size="10.00">QCanBusDevice</text>
</a>
</g>
</g>
<!-- Node16&#45;&gt;Node18 -->
<g id="edge21" class="edge">
<title>Node16&#45;&gt;Node18</title>
<path fill="none" stroke="midnightblue" d="M705.78,-168.32C720.27,-159.82 742.57,-146.73 759.49,-136.8"/>
<polygon fill="midnightblue" stroke="midnightblue" points="761.4,-139.74 768.26,-131.65 757.86,-133.7 761.4,-139.74"/>
</g>
<!-- Node19 -->
<g id="node19" class="node">
<title>Node19</title>
<g id="a_node19"><a xlink:title=" ">
<polygon fill="white" stroke="#bfbfbf" points="846,-112.5 846,-131.5 932,-131.5 932,-112.5 846,-112.5"/>
<text text-anchor="middle" x="889" y="-119.5" font-family="Helvetica,sans-Serif" font-size="10.00">QCanBusFrame</text>
</a>
</g>
</g>
<!-- Node16&#45;&gt;Node19 -->
<g id="edge22" class="edge">
<title>Node16&#45;&gt;Node19</title>
<path fill="none" stroke="midnightblue" d="M722.37,-168.44C756.26,-159.2 810.4,-144.44 847.72,-134.26"/>
<polygon fill="midnightblue" stroke="midnightblue" points="849.05,-137.52 857.77,-131.52 847.2,-130.77 849.05,-137.52"/>
</g>
<!-- Node20&#45;&gt;Node9 -->
<g id="edge24" class="edge">
<title>Node20&#45;&gt;Node9</title>
<path fill="none" stroke="midnightblue" d="M958.37,-112.46C897.46,-92.93 747.9,-44.96 678.49,-22.7"/>
<polygon fill="midnightblue" stroke="midnightblue" points="679.44,-19.33 668.85,-19.61 677.3,-26 679.44,-19.33"/>
</g>
<!-- Node21 -->
<g id="node21" class="node">
<title>Node21</title>
<g id="a_node21"><a xlink:title=" ">
<polygon fill="white" stroke="#bfbfbf" points="1095,-56.5 1095,-75.5 1145,-75.5 1145,-56.5 1095,-56.5"/>
<text text-anchor="middle" x="1120" y="-63.5" font-family="Helvetica,sans-Serif" font-size="10.00">QString</text>
</a>
</g>
</g>
<!-- Node20&#45;&gt;Node21 -->
<g id="edge25" class="edge">
<title>Node20&#45;&gt;Node21</title>
<path fill="none" stroke="midnightblue" d="M1006.39,-112.44C1028.71,-103.52 1063.9,-89.44 1089.21,-79.32"/>
<polygon fill="midnightblue" stroke="midnightblue" points="1090.72,-82.48 1098.71,-75.52 1088.12,-75.98 1090.72,-82.48"/>
</g>
<!-- Node22 -->
<g id="node22" class="node">
<title>Node22</title>
<g id="a_node22"><a xlink:title=" ">
<polygon fill="white" stroke="#bfbfbf" points="899.5,-56.5 899.5,-75.5 940.5,-75.5 940.5,-56.5 899.5,-56.5"/>
<text text-anchor="middle" x="920" y="-63.5" font-family="Helvetica,sans-Serif" font-size="10.00">QList</text>
</a>
</g>
</g>
<!-- Node20&#45;&gt;Node22 -->
<g id="edge26" class="edge">
<title>Node20&#45;&gt;Node22</title>
<path fill="none" stroke="midnightblue" d="M974.56,-112.32C964.85,-104.26 950.18,-92.08 938.5,-82.37"/>
<polygon fill="midnightblue" stroke="midnightblue" points="940.56,-79.53 930.63,-75.83 936.09,-84.92 940.56,-79.53"/>
</g>
<!-- Node23 -->
<g id="node23" class="node">
<title>Node23</title>
<g id="a_node23"><a xlink:title=" ">
<polygon fill="white" stroke="#bfbfbf" points="958.5,-56.5 958.5,-75.5 1033.5,-75.5 1033.5,-56.5 958.5,-56.5"/>
<text text-anchor="middle" x="996" y="-63.5" font-family="Helvetica,sans-Serif" font-size="10.00">QtPositioning</text>
</a>
</g>
</g>
<!-- Node20&#45;&gt;Node23 -->
<g id="edge27" class="edge">
<title>Node20&#45;&gt;Node23</title>
<path fill="none" stroke="midnightblue" d="M986.82,-112.08C988.27,-104.93 990.37,-94.64 992.19,-85.69"/>
<polygon fill="midnightblue" stroke="midnightblue" points="995.65,-86.25 994.22,-75.75 988.79,-84.85 995.65,-86.25"/>
</g>
<!-- Node25 -->
<g id="node25" class="node">
<title>Node25</title>
<g id="a_node25"><a xlink:title=" ">
<polygon fill="white" stroke="#bfbfbf" points="1038,-112.5 1038,-131.5 1102,-131.5 1102,-112.5 1038,-112.5"/>
<text text-anchor="middle" x="1070" y="-119.5" font-family="Helvetica,sans-Serif" font-size="10.00">QtNetwork</text>
</a>
</g>
</g>
<!-- Node24&#45;&gt;Node25 -->
<g id="edge29" class="edge">
<title>Node24&#45;&gt;Node25</title>
<path fill="none" stroke="midnightblue" d="M1070,-168.08C1070,-161.01 1070,-150.86 1070,-141.99"/>
<polygon fill="midnightblue" stroke="midnightblue" points="1073.5,-141.75 1070,-131.75 1066.5,-141.75 1073.5,-141.75"/>
</g>
<!-- Node26 -->
<g id="node26" class="node">
<title>Node26</title>
<g id="a_node26"><a xlink:title=" ">
<polygon fill="white" stroke="#bfbfbf" points="1120.5,-112.5 1120.5,-131.5 1167.5,-131.5 1167.5,-112.5 1120.5,-112.5"/>
<text text-anchor="middle" x="1144" y="-119.5" font-family="Helvetica,sans-Serif" font-size="10.00">QtCore</text>
</a>
</g>
</g>
<!-- Node24&#45;&gt;Node26 -->
<g id="edge30" class="edge">
<title>Node24&#45;&gt;Node26</title>
<path fill="none" stroke="midnightblue" d="M1081.89,-168.32C1093.15,-160.11 1110.29,-147.6 1123.71,-137.81"/>
<polygon fill="midnightblue" stroke="midnightblue" points="1125.88,-140.56 1131.89,-131.83 1121.75,-134.9 1125.88,-140.56"/>
</g>
<!-- Node27 -->
<g id="node27" class="node">
<title>Node27</title>
<g id="a_node27"><a xlink:href="textprogressbar_8h.html" target="_top" xlink:title=" ">
<polygon fill="white" stroke="black" points="1185.5,-112.5 1185.5,-131.5 1276.5,-131.5 1276.5,-112.5 1185.5,-112.5"/>
<text text-anchor="middle" x="1231" y="-119.5" font-family="Helvetica,sans-Serif" font-size="10.00">textprogressbar.h</text>
</a>
</g>
</g>
<!-- Node24&#45;&gt;Node27 -->
<g id="edge31" class="edge">
<title>Node24&#45;&gt;Node27</title>
<path fill="none" stroke="midnightblue" d="M1095.51,-168.44C1122.6,-159.36 1165.59,-144.94 1195.87,-134.78"/>
<polygon fill="midnightblue" stroke="midnightblue" points="1197.24,-138.01 1205.61,-131.52 1195.01,-131.38 1197.24,-138.01"/>
</g>
<!-- Node27&#45;&gt;Node21 -->
<g id="edge35" class="edge">
<title>Node27&#45;&gt;Node21</title>
<path fill="none" stroke="midnightblue" d="M1213.17,-112.32C1195.28,-103.62 1167.52,-90.12 1146.95,-80.11"/>
<polygon fill="midnightblue" stroke="midnightblue" points="1148.31,-76.88 1137.79,-75.65 1145.25,-83.18 1148.31,-76.88"/>
</g>
<!-- Node28 -->
<g id="node28" class="node">
<title>Node28</title>
<g id="a_node28"><a xlink:href="dashboard_8h.html" target="_top" xlink:title=" ">
<polygon fill="white" stroke="black" points="1185.5,-56.5 1185.5,-75.5 1254.5,-75.5 1254.5,-56.5 1185.5,-56.5"/>
<text text-anchor="middle" x="1220" y="-63.5" font-family="Helvetica,sans-Serif" font-size="10.00">dashboard.h</text>
</a>
</g>
</g>
<!-- Node27&#45;&gt;Node28 -->
<g id="edge32" class="edge">
<title>Node27&#45;&gt;Node28</title>
<path fill="none" stroke="midnightblue" d="M1229.18,-112.08C1227.73,-104.93 1225.63,-94.64 1223.81,-85.69"/>
<polygon fill="midnightblue" stroke="midnightblue" points="1227.21,-84.85 1221.78,-75.75 1220.35,-86.25 1227.21,-84.85"/>
</g>
<!-- Node28&#45;&gt;Node9 -->
<g id="edge34" class="edge">
<title>Node28&#45;&gt;Node9</title>
<path fill="none" stroke="midnightblue" d="M1185.44,-59.97C1175.32,-58.58 1164.23,-57.15 1154,-56 976.27,-36.08 763,-19.77 678.78,-13.63"/>
<polygon fill="midnightblue" stroke="midnightblue" points="678.92,-10.13 668.7,-12.89 678.42,-17.11 678.92,-10.13"/>
</g>
<!-- Node29 -->
<g id="node29" class="node">
<title>Node29</title>
<g id="a_node29"><a xlink:title=" ">
<polygon fill="white" stroke="#bfbfbf" points="1187,-0.5 1187,-19.5 1253,-19.5 1253,-0.5 1187,-0.5"/>
<text text-anchor="middle" x="1220" y="-7.5" font-family="Helvetica,sans-Serif" font-size="10.00">QStringList</text>
</a>
</g>
</g>
<!-- Node28&#45;&gt;Node29 -->
<g id="edge33" class="edge">
<title>Node28&#45;&gt;Node29</title>
<path fill="none" stroke="midnightblue" d="M1220,-56.08C1220,-49.01 1220,-38.86 1220,-29.99"/>
<polygon fill="midnightblue" stroke="midnightblue" points="1223.5,-29.75 1220,-19.75 1216.5,-29.75 1223.5,-29.75"/>
</g>
</g>
</svg>
        <g id="navigator" transform="translate(0 0)" fill="#404254">
                <rect fill="#f2f5e9" fill-opacity="0.5" stroke="#606060" stroke-width=".5" x="0" y="0" width="60" height="60"/>
                <use id="zoomplus" xlink:href="#zoomPlus" x="17" y="9" onmousedown="handleZoom(evt,'in')"/>
                <use id="zoomminus" xlink:href="#zoomMin" x="42" y="9" onmousedown="handleZoom(evt,'out')"/>
                <use id="reset" xlink:href="#resetDef" x="30" y="36" onmousedown="handleReset()"/>
                <g id="arrowUp" xlink:href="#dirArrow" transform="translate(30 24)" onmousedown="handlePan(0,-1)">
                  <use xlink:href="#rim" fill="#404040">
                        <set attributeName="fill" to="#808080" begin="arrowUp.mouseover" end="arrowUp.mouseout"/>
                  </use>
                  <path fill="none" stroke="white" stroke-width="1.5" d="M0,-3.0v7 M-2.5,-0.5L0,-3.0L2.5,-0.5"/>
                </g>
                <g id="arrowRight" xlink:href="#dirArrow" transform="rotate(90) translate(36 -43)" onmousedown="handlePan(1,0)">
                  <use xlink:href="#rim" fill="#404040">
                        <set attributeName="fill" to="#808080" begin="arrowRight.mouseover" end="arrowRight.mouseout"/>
                  </use>
                  <path fill="none" stroke="white" stroke-width="1.5" d="M0,-3.0v7 M-2.5,-0.5L0,-3.0L2.5,-0.5"/>
                </g>
                <g id="arrowDown" xlink:href="#dirArrow" transform="rotate(180) translate(-30 -48)" onmousedown="handlePan(0,1)">
                  <use xlink:href="#rim" fill="#404040">
                        <set attributeName="fill" to="#808080" begin="arrowDown.mouseover" end="arrowDown.mouseout"/>
                  </use>
                  <path fill="none" stroke="white" stroke-width="1.5" d="M0,-3.0v7 M-2.5,-0.5L0,-3.0L2.5,-0.5"/>
                </g>
                <g id="arrowLeft" xlink:href="#dirArrow" transform="rotate(270) translate(-36 17)" onmousedown="handlePan(-1,0)">
                  <use xlink:href="#rim" fill="#404040">
                        <set attributeName="fill" to="#808080" begin="arrowLeft.mouseover" end="arrowLeft.mouseout"/>
                  </use>
                  <path fill="none" stroke="white" stroke-width="1.5" d="M0,-3.0v7 M-2.5,-0.5L0,-3.0L2.5,-0.5"/>
                </g>
        </g>
        <svg viewBox="0 0 15 15" width="100%" height="30px" preserveAspectRatio="xMaxYMin meet">
         <g id="arrow_out" transform="scale(0.3 0.3)">
          <a xlink:href="main_8cpp__incl_org.svg" target="_base">
           <rect id="button" ry="5" rx="5" y="6" x="6" height="38" width="38"
                fill="#f2f5e9" fill-opacity="0.5" stroke="#606060" stroke-width="1.0"/>
           <path id="arrow"
             d="M 11.500037,31.436501 C 11.940474,20.09759 22.043105,11.32322 32.158766,21.979434 L 37.068811,17.246167 C 37.068811,17.246167 37.088388,32 37.088388,32 L 22.160133,31.978069 C 22.160133,31.978069 26.997745,27.140456 26.997745,27.140456 C 18.528582,18.264221 13.291696,25.230495 11.500037,31.436501 z"
             style="fill:#404040;"/>
          </a>
         </g>
        </svg>
</svg>
