<?xml version="1.0" encoding="UTF-8" standalone="no"?>
<!DOCTYPE svg PUBLIC "-//W3C//DTD SVG 1.1//EN"
 "http://www.w3.org/Graphics/SVG/1.1/DTD/svg11.dtd">
<!-- Generated by graphviz version 2.49.3 (20211027.1534)
 -->
<!-- Title: obd.h Pages: 1 -->
<svg width="342pt" height="84pt"
 viewBox="0.00 0.00 342.00 84.00" xmlns="http://www.w3.org/2000/svg" xmlns:xlink="http://www.w3.org/1999/xlink">
<g id="graph0" class="graph" transform="scale(1 1) rotate(0) translate(4 80)">
<title>obd.h</title>
<polygon fill="white" stroke="transparent" points="-4,4 -4,-80 338,-80 338,4 -4,4"/>
<!-- Node1 -->
<g id="node1" class="node">
<title>Node1</title>
<g id="a_node1"><a xlink:title=" ">
<polygon fill="#bfbfbf" stroke="black" points="110.5,-56.5 110.5,-75.5 150.5,-75.5 150.5,-56.5 110.5,-56.5"/>
<text text-anchor="middle" x="130.5" y="-63.5" font-family="Helvetica,sans-Serif" font-size="10.00">obd.h</text>
</a>
</g>
</g>
<!-- Node2 -->
<g id="node2" class="node">
<title>Node2</title>
<g id="a_node2"><a xlink:title=" ">
<polygon fill="white" stroke="#bfbfbf" points="0,-0.5 0,-19.5 53,-19.5 53,-0.5 0,-0.5"/>
<text text-anchor="middle" x="26.5" y="-7.5" font-family="Helvetica,sans-Serif" font-size="10.00">QObject</text>
</a>
</g>
</g>
<!-- Node1&#45;&gt;Node2 -->
<g id="edge1" class="edge">
<title>Node1&#45;&gt;Node2</title>
<path fill="none" stroke="midnightblue" d="M113.79,-56.32C97.19,-47.7 71.5,-34.36 52.28,-24.39"/>
<polygon fill="midnightblue" stroke="midnightblue" points="53.66,-21.16 43.17,-19.65 50.43,-27.37 53.66,-21.16"/>
</g>
<!-- Node3 -->
<g id="node3" class="node">
<title>Node3</title>
<g id="a_node3"><a xlink:title=" ">
<polygon fill="white" stroke="#bfbfbf" points="71,-0.5 71,-19.5 120,-19.5 120,-0.5 71,-0.5"/>
<text text-anchor="middle" x="95.5" y="-7.5" font-family="Helvetica,sans-Serif" font-size="10.00">QTimer</text>
</a>
</g>
</g>
<!-- Node1&#45;&gt;Node3 -->
<g id="edge2" class="edge">
<title>Node1&#45;&gt;Node3</title>
<path fill="none" stroke="midnightblue" d="M124.72,-56.08C119.83,-48.53 112.67,-37.49 106.67,-28.23"/>
<polygon fill="midnightblue" stroke="midnightblue" points="109.55,-26.24 101.17,-19.75 103.67,-30.05 109.55,-26.24"/>
</g>
<!-- Node4 -->
<g id="node4" class="node">
<title>Node4</title>
<g id="a_node4"><a xlink:title=" ">
<polygon fill="white" stroke="#bfbfbf" points="138.5,-0.5 138.5,-19.5 192.5,-19.5 192.5,-0.5 138.5,-0.5"/>
<text text-anchor="middle" x="165.5" y="-7.5" font-family="Helvetica,sans-Serif" font-size="10.00">QThread</text>
</a>
</g>
</g>
<!-- Node1&#45;&gt;Node4 -->
<g id="edge3" class="edge">
<title>Node1&#45;&gt;Node4</title>
<path fill="none" stroke="midnightblue" d="M136.28,-56.08C141.17,-48.53 148.33,-37.49 154.33,-28.23"/>
<polygon fill="midnightblue" stroke="midnightblue" points="157.33,-30.05 159.83,-19.75 151.45,-26.24 157.33,-30.05"/>
</g>
<!-- Node5 -->
<g id="node5" class="node">
<title>Node5</title>
<g id="a_node5"><a xlink:title=" ">
<polygon fill="white" stroke="#bfbfbf" points="211,-0.5 211,-19.5 334,-19.5 334,-0.5 211,-0.5"/>
<text text-anchor="middle" x="272.5" y="-7.5" font-family="Helvetica,sans-Serif" font-size="10.00">QtSerialPort/QSerialPort</text>
</a>
</g>
</g>
<!-- Node1&#45;&gt;Node5 -->
<g id="edge4" class="edge">
<title>Node1&#45;&gt;Node5</title>
<path fill="none" stroke="midnightblue" d="M150.54,-57.38C173.83,-48.52 212.57,-33.79 240.14,-23.31"/>
<polygon fill="midnightblue" stroke="midnightblue" points="241.64,-26.48 249.74,-19.65 239.15,-19.94 241.64,-26.48"/>
</g>
</g>
</svg>
