<?xml version="1.0" encoding="UTF-8" standalone="no"?>
<!DOCTYPE svg PUBLIC "-//W3C//DTD SVG 1.1//EN"
 "http://www.w3.org/Graphics/SVG/1.1/DTD/svg11.dtd">
<!-- Generated by graphviz version 2.49.3 (20211027.1534)
 -->
<!-- Title: sensors.cpp Pages: 1 -->
<svg width="1029pt" height="140pt"
 viewBox="0.00 0.00 1029.00 140.00" xmlns="http://www.w3.org/2000/svg" xmlns:xlink="http://www.w3.org/1999/xlink">
<g id="graph0" class="graph" transform="scale(1 1) rotate(0) translate(4 136)">
<title>sensors.cpp</title>
<polygon fill="white" stroke="transparent" points="-4,4 -4,-136 1025,-136 1025,4 -4,4"/>
<!-- Node1 -->
<g id="node1" class="node">
<title>Node1</title>
<g id="a_node1"><a xlink:title=" ">
<polygon fill="#bfbfbf" stroke="black" points="419.5,-112.5 419.5,-131.5 488.5,-131.5 488.5,-112.5 419.5,-112.5"/>
<text text-anchor="middle" x="454" y="-119.5" font-family="Helvetica,sans-Serif" font-size="10.00">sensors.cpp</text>
</a>
</g>
</g>
<!-- Node2 -->
<g id="node2" class="node">
<title>Node2</title>
<g id="a_node2"><a xlink:href="sensors_8h.html" target="_top" xlink:title=" ">
<polygon fill="white" stroke="black" points="309.5,-56.5 309.5,-75.5 368.5,-75.5 368.5,-56.5 309.5,-56.5"/>
<text text-anchor="middle" x="339" y="-63.5" font-family="Helvetica,sans-Serif" font-size="10.00">sensors.h</text>
</a>
</g>
</g>
<!-- Node1&#45;&gt;Node2 -->
<g id="edge1" class="edge">
<title>Node1&#45;&gt;Node2</title>
<path fill="none" stroke="midnightblue" d="M435.78,-112.44C417.1,-103.68 387.84,-89.94 366.38,-79.86"/>
<polygon fill="midnightblue" stroke="midnightblue" points="367.68,-76.6 357.14,-75.52 364.7,-82.93 367.68,-76.6"/>
</g>
<!-- Node4 -->
<g id="node4" class="node">
<title>Node4</title>
<g id="a_node4"><a xlink:title=" ">
<polygon fill="white" stroke="#bfbfbf" points="155.5,-0.5 155.5,-19.5 242.5,-19.5 242.5,-0.5 155.5,-0.5"/>
<text text-anchor="middle" x="199" y="-7.5" font-family="Helvetica,sans-Serif" font-size="10.00">QAccelerometer</text>
</a>
</g>
</g>
<!-- Node1&#45;&gt;Node4 -->
<g id="edge11" class="edge">
<title>Node1&#45;&gt;Node4</title>
<path fill="none" stroke="midnightblue" d="M419.32,-115.43C384.81,-109.01 330.93,-96.62 288,-76 260.98,-63.02 233.69,-41.58 216.59,-26.9"/>
<polygon fill="midnightblue" stroke="midnightblue" points="218.46,-23.88 208.63,-19.92 213.84,-29.14 218.46,-23.88"/>
</g>
<!-- Node5 -->
<g id="node5" class="node">
<title>Node5</title>
<g id="a_node5"><a xlink:title=" ">
<polygon fill="white" stroke="#bfbfbf" points="260.5,-0.5 260.5,-19.5 331.5,-19.5 331.5,-0.5 260.5,-0.5"/>
<text text-anchor="middle" x="296" y="-7.5" font-family="Helvetica,sans-Serif" font-size="10.00">QGyroscope</text>
</a>
</g>
</g>
<!-- Node1&#45;&gt;Node5 -->
<g id="edge13" class="edge">
<title>Node1&#45;&gt;Node5</title>
<path fill="none" stroke="midnightblue" d="M419.34,-121.56C383.36,-120.07 328.42,-111.58 300,-76 289.76,-63.17 289.84,-43.99 291.84,-29.78"/>
<polygon fill="midnightblue" stroke="midnightblue" points="295.33,-30.14 293.69,-19.68 288.45,-28.88 295.33,-30.14"/>
</g>
<!-- Node6 -->
<g id="node6" class="node">
<title>Node6</title>
<g id="a_node6"><a xlink:title=" ">
<polygon fill="white" stroke="#bfbfbf" points="349.5,-0.5 349.5,-19.5 414.5,-19.5 414.5,-0.5 349.5,-0.5"/>
<text text-anchor="middle" x="382" y="-7.5" font-family="Helvetica,sans-Serif" font-size="10.00">QCompass</text>
</a>
</g>
</g>
<!-- Node1&#45;&gt;Node6 -->
<g id="edge15" class="edge">
<title>Node1&#45;&gt;Node6</title>
<path fill="none" stroke="midnightblue" d="M448.35,-112.37C436.47,-94.22 408.71,-51.8 393.12,-27.99"/>
<polygon fill="midnightblue" stroke="midnightblue" points="396.03,-26.04 387.62,-19.59 390.17,-29.88 396.03,-26.04"/>
</g>
<!-- Node7 -->
<g id="node7" class="node">
<title>Node7</title>
<g id="a_node7"><a xlink:title=" ">
<polygon fill="white" stroke="#bfbfbf" points="433,-0.5 433,-19.5 579,-19.5 579,-0.5 433,-0.5"/>
<text text-anchor="middle" x="506" y="-7.5" font-family="Helvetica,sans-Serif" font-size="10.00">QAmbientTemperatureSensor</text>
</a>
</g>
</g>
<!-- Node1&#45;&gt;Node7 -->
<g id="edge17" class="edge">
<title>Node1&#45;&gt;Node7</title>
<path fill="none" stroke="midnightblue" d="M452.76,-112.08C451.35,-99.07 450.29,-74.42 459,-56 464.68,-44 475.06,-33.53 484.62,-25.71"/>
<polygon fill="midnightblue" stroke="midnightblue" points="486.85,-28.41 492.67,-19.56 482.6,-22.85 486.85,-28.41"/>
</g>
<!-- Node8 -->
<g id="node8" class="node">
<title>Node8</title>
<g id="a_node8"><a xlink:title=" ">
<polygon fill="white" stroke="#bfbfbf" points="597,-0.5 597,-19.5 691,-19.5 691,-0.5 597,-0.5"/>
<text text-anchor="middle" x="644" y="-7.5" font-family="Helvetica,sans-Serif" font-size="10.00">QPressureSensor</text>
</a>
</g>
</g>
<!-- Node1&#45;&gt;Node8 -->
<g id="edge18" class="edge">
<title>Node1&#45;&gt;Node8</title>
<path fill="none" stroke="midnightblue" d="M456.68,-112.44C461.48,-98.52 472.86,-71 492,-56 507.91,-43.53 555.59,-30.56 593.36,-21.76"/>
<polygon fill="midnightblue" stroke="midnightblue" points="594.25,-25.15 603.22,-19.51 592.69,-18.33 594.25,-25.15"/>
</g>
<!-- Node9 -->
<g id="node9" class="node">
<title>Node9</title>
<g id="a_node9"><a xlink:href="dashboard_8h.html" target="_top" xlink:title=" ">
<polygon fill="white" stroke="black" points="76.5,-56.5 76.5,-75.5 145.5,-75.5 145.5,-56.5 76.5,-56.5"/>
<text text-anchor="middle" x="111" y="-63.5" font-family="Helvetica,sans-Serif" font-size="10.00">dashboard.h</text>
</a>
</g>
</g>
<!-- Node1&#45;&gt;Node9 -->
<g id="edge8" class="edge">
<title>Node1&#45;&gt;Node9</title>
<path fill="none" stroke="midnightblue" d="M419.22,-115.53C356.61,-105.67 225.01,-84.95 155.77,-74.05"/>
<polygon fill="midnightblue" stroke="midnightblue" points="156.04,-70.55 145.61,-72.45 154.95,-77.46 156.04,-70.55"/>
</g>
<!-- Node11 -->
<g id="node11" class="node">
<title>Node11</title>
<g id="a_node11"><a xlink:title=" ">
<polygon fill="white" stroke="#bfbfbf" points="501,-56.5 501,-75.5 623,-75.5 623,-56.5 501,-56.5"/>
<text text-anchor="middle" x="562" y="-63.5" font-family="Helvetica,sans-Serif" font-size="10.00">QAccelerometerReading</text>
</a>
</g>
</g>
<!-- Node1&#45;&gt;Node11 -->
<g id="edge12" class="edge">
<title>Node1&#45;&gt;Node11</title>
<path fill="none" stroke="midnightblue" d="M471.35,-112.32C488.67,-103.66 515.52,-90.24 535.5,-80.25"/>
<polygon fill="midnightblue" stroke="midnightblue" points="537.31,-83.26 544.69,-75.65 534.18,-77 537.31,-83.26"/>
</g>
<!-- Node12 -->
<g id="node12" class="node">
<title>Node12</title>
<g id="a_node12"><a xlink:title=" ">
<polygon fill="white" stroke="#bfbfbf" points="641,-56.5 641,-75.5 747,-75.5 747,-56.5 641,-56.5"/>
<text text-anchor="middle" x="694" y="-63.5" font-family="Helvetica,sans-Serif" font-size="10.00">QGyroscopeReading</text>
</a>
</g>
</g>
<!-- Node1&#45;&gt;Node12 -->
<g id="edge14" class="edge">
<title>Node1&#45;&gt;Node12</title>
<path fill="none" stroke="midnightblue" d="M488.64,-113.21C530.12,-103.87 599.82,-88.19 646.35,-77.72"/>
<polygon fill="midnightblue" stroke="midnightblue" points="647.21,-81.11 656.2,-75.5 645.68,-74.29 647.21,-81.11"/>
</g>
<!-- Node13 -->
<g id="node13" class="node">
<title>Node13</title>
<g id="a_node13"><a xlink:title=" ">
<polygon fill="white" stroke="#bfbfbf" points="765.5,-56.5 765.5,-75.5 866.5,-75.5 866.5,-56.5 765.5,-56.5"/>
<text text-anchor="middle" x="816" y="-63.5" font-family="Helvetica,sans-Serif" font-size="10.00">QCompassReading</text>
</a>
</g>
</g>
<!-- Node1&#45;&gt;Node13 -->
<g id="edge16" class="edge">
<title>Node1&#45;&gt;Node13</title>
<path fill="none" stroke="midnightblue" d="M488.88,-115.81C543.35,-107.71 652.19,-91.51 755.3,-76.1"/>
<polygon fill="midnightblue" stroke="midnightblue" points="755.89,-79.55 765.26,-74.61 754.85,-72.63 755.89,-79.55"/>
</g>
<!-- Node14 -->
<g id="node14" class="node">
<title>Node14</title>
<g id="a_node14"><a xlink:title=" ">
<polygon fill="white" stroke="#bfbfbf" points="885,-56.5 885,-75.5 937,-75.5 937,-56.5 885,-56.5"/>
<text text-anchor="middle" x="911" y="-63.5" font-family="Helvetica,sans-Serif" font-size="10.00">QDebug</text>
</a>
</g>
</g>
<!-- Node1&#45;&gt;Node14 -->
<g id="edge19" class="edge">
<title>Node1&#45;&gt;Node14</title>
<path fill="none" stroke="midnightblue" d="M488.7,-119.01C559.52,-114.59 725.84,-102.34 874.5,-76.03"/>
<polygon fill="midnightblue" stroke="midnightblue" points="875.49,-79.41 884.72,-74.2 874.26,-72.52 875.49,-79.41"/>
</g>
<!-- Node15 -->
<g id="node15" class="node">
<title>Node15</title>
<g id="a_node15"><a xlink:title=" ">
<polygon fill="white" stroke="#bfbfbf" points="955,-56.5 955,-75.5 1021,-75.5 1021,-56.5 955,-56.5"/>
<text text-anchor="middle" x="988" y="-63.5" font-family="Helvetica,sans-Serif" font-size="10.00">QDateTime</text>
</a>
</g>
</g>
<!-- Node1&#45;&gt;Node15 -->
<g id="edge20" class="edge">
<title>Node1&#45;&gt;Node15</title>
<path fill="none" stroke="midnightblue" d="M488.77,-119.26C567.96,-114.98 767.96,-102.44 944.6,-76.05"/>
<polygon fill="midnightblue" stroke="midnightblue" points="945.23,-79.49 954.6,-74.54 944.18,-72.57 945.23,-79.49"/>
</g>
<!-- Node3 -->
<g id="node3" class="node">
<title>Node3</title>
<g id="a_node3"><a xlink:title=" ">
<polygon fill="white" stroke="#bfbfbf" points="84.5,-0.5 84.5,-19.5 137.5,-19.5 137.5,-0.5 84.5,-0.5"/>
<text text-anchor="middle" x="111" y="-7.5" font-family="Helvetica,sans-Serif" font-size="10.00">QObject</text>
</a>
</g>
</g>
<!-- Node2&#45;&gt;Node3 -->
<g id="edge2" class="edge">
<title>Node2&#45;&gt;Node3</title>
<path fill="none" stroke="midnightblue" d="M309.19,-58.27C273.16,-50.09 210.43,-35.69 147.79,-20.4"/>
<polygon fill="midnightblue" stroke="midnightblue" points="148.28,-16.92 137.74,-17.94 146.62,-23.72 148.28,-16.92"/>
</g>
<!-- Node2&#45;&gt;Node4 -->
<g id="edge3" class="edge">
<title>Node2&#45;&gt;Node4</title>
<path fill="none" stroke="midnightblue" d="M316.82,-56.44C293.57,-47.48 256.85,-33.31 230.58,-23.18"/>
<polygon fill="midnightblue" stroke="midnightblue" points="231.67,-19.85 221.08,-19.52 229.15,-26.38 231.67,-19.85"/>
</g>
<!-- Node2&#45;&gt;Node5 -->
<g id="edge4" class="edge">
<title>Node2&#45;&gt;Node5</title>
<path fill="none" stroke="midnightblue" d="M331.9,-56.08C325.76,-48.38 316.73,-37.03 309.26,-27.65"/>
<polygon fill="midnightblue" stroke="midnightblue" points="311.94,-25.39 302.97,-19.75 306.46,-29.75 311.94,-25.39"/>
</g>
<!-- Node2&#45;&gt;Node6 -->
<g id="edge5" class="edge">
<title>Node2&#45;&gt;Node6</title>
<path fill="none" stroke="midnightblue" d="M346.1,-56.08C352.24,-48.38 361.27,-37.03 368.74,-27.65"/>
<polygon fill="midnightblue" stroke="midnightblue" points="371.54,-29.75 375.03,-19.75 366.06,-25.39 371.54,-29.75"/>
</g>
<!-- Node2&#45;&gt;Node7 -->
<g id="edge6" class="edge">
<title>Node2&#45;&gt;Node7</title>
<path fill="none" stroke="midnightblue" d="M365.46,-56.44C393.68,-47.32 438.54,-32.81 469.97,-22.65"/>
<polygon fill="midnightblue" stroke="midnightblue" points="471.22,-25.92 479.66,-19.52 469.07,-19.26 471.22,-25.92"/>
</g>
<!-- Node2&#45;&gt;Node8 -->
<g id="edge7" class="edge">
<title>Node2&#45;&gt;Node8</title>
<path fill="none" stroke="midnightblue" d="M368.52,-59.77C418.83,-50.87 522,-32.6 586.82,-21.12"/>
<polygon fill="midnightblue" stroke="midnightblue" points="587.64,-24.53 596.88,-19.34 586.42,-17.64 587.64,-24.53"/>
</g>
<!-- Node9&#45;&gt;Node3 -->
<g id="edge10" class="edge">
<title>Node9&#45;&gt;Node3</title>
<path fill="none" stroke="midnightblue" d="M111,-56.08C111,-49.01 111,-38.86 111,-29.99"/>
<polygon fill="midnightblue" stroke="midnightblue" points="114.5,-29.75 111,-19.75 107.5,-29.75 114.5,-29.75"/>
</g>
<!-- Node10 -->
<g id="node10" class="node">
<title>Node10</title>
<g id="a_node10"><a xlink:title=" ">
<polygon fill="white" stroke="#bfbfbf" points="0,-0.5 0,-19.5 66,-19.5 66,-0.5 0,-0.5"/>
<text text-anchor="middle" x="33" y="-7.5" font-family="Helvetica,sans-Serif" font-size="10.00">QStringList</text>
</a>
</g>
</g>
<!-- Node9&#45;&gt;Node10 -->
<g id="edge9" class="edge">
<title>Node9&#45;&gt;Node10</title>
<path fill="none" stroke="midnightblue" d="M98.47,-56.32C86.41,-47.98 67.97,-35.21 53.73,-25.35"/>
<polygon fill="midnightblue" stroke="midnightblue" points="55.72,-22.47 45.5,-19.65 51.73,-28.22 55.72,-22.47"/>
</g>
</g>
</svg>
