<?xml version="1.0" encoding="UTF-8" standalone="no"?>
<!DOCTYPE svg PUBLIC "-//W3C//DTD SVG 1.1//EN"
 "http://www.w3.org/Graphics/SVG/1.1/DTD/svg11.dtd">
<!-- Generated by graphviz version 2.49.3 (20211027.1534)
 -->
<!-- Title: serialport.h Pages: 1 -->
<svg width="446pt" height="140pt"
 viewBox="0.00 0.00 445.50 140.00" xmlns="http://www.w3.org/2000/svg" xmlns:xlink="http://www.w3.org/1999/xlink">
<g id="graph0" class="graph" transform="scale(1 1) rotate(0) translate(4 136)">
<title>serialport.h</title>
<polygon fill="white" stroke="transparent" points="-4,4 -4,-136 441.5,-136 441.5,4 -4,4"/>
<!-- Node1 -->
<g id="node1" class="node">
<title>Node1</title>
<g id="a_node1"><a xlink:title=" ">
<polygon fill="#bfbfbf" stroke="black" points="199.5,-112.5 199.5,-131.5 263.5,-131.5 263.5,-112.5 199.5,-112.5"/>
<text text-anchor="middle" x="231.5" y="-119.5" font-family="Helvetica,sans-Serif" font-size="10.00">serialport.h</text>
</a>
</g>
</g>
<!-- Node2 -->
<g id="node2" class="node">
<title>Node2</title>
<g id="a_node2"><a xlink:href="AdaptronicSelect_8cpp.html" target="_top" xlink:title=" ">
<polygon fill="white" stroke="black" points="0,-56.5 0,-75.5 109,-75.5 109,-56.5 0,-56.5"/>
<text text-anchor="middle" x="54.5" y="-63.5" font-family="Helvetica,sans-Serif" font-size="10.00">AdaptronicSelect.cpp</text>
</a>
</g>
</g>
<!-- Node1&#45;&gt;Node2 -->
<g id="edge1" class="edge">
<title>Node1&#45;&gt;Node2</title>
<path fill="none" stroke="midnightblue" d="M193.6,-109.44C160.22,-99.26 112.4,-84.66 82.41,-75.52"/>
<polygon fill="midnightblue" stroke="midnightblue" points="192.87,-112.87 203.45,-112.44 194.91,-106.18 192.87,-112.87"/>
</g>
<!-- Node3 -->
<g id="node3" class="node">
<title>Node3</title>
<g id="a_node3"><a xlink:href="Apexi_8h.html" target="_top" xlink:title=" ">
<polygon fill="white" stroke="black" points="127.5,-56.5 127.5,-75.5 175.5,-75.5 175.5,-56.5 127.5,-56.5"/>
<text text-anchor="middle" x="151.5" y="-63.5" font-family="Helvetica,sans-Serif" font-size="10.00">Apexi.h</text>
</a>
</g>
</g>
<!-- Node1&#45;&gt;Node3 -->
<g id="edge2" class="edge">
<title>Node1&#45;&gt;Node3</title>
<path fill="none" stroke="midnightblue" d="M210.2,-106.62C195.58,-96.76 176.67,-83.99 164.32,-75.65"/>
<polygon fill="midnightblue" stroke="midnightblue" points="208.4,-109.63 218.65,-112.32 212.32,-103.83 208.4,-109.63"/>
</g>
<!-- Node5 -->
<g id="node5" class="node">
<title>Node5</title>
<g id="a_node5"><a xlink:href="connect_8cpp.html" target="_top" xlink:title=" ">
<polygon fill="white" stroke="black" points="169,-0.5 169,-19.5 238,-19.5 238,-0.5 169,-0.5"/>
<text text-anchor="middle" x="203.5" y="-7.5" font-family="Helvetica,sans-Serif" font-size="10.00">connect.cpp</text>
</a>
</g>
</g>
<!-- Node1&#45;&gt;Node5 -->
<g id="edge8" class="edge">
<title>Node1&#45;&gt;Node5</title>
<path fill="none" stroke="midnightblue" d="M226.84,-102.67C220.71,-78.62 210.22,-37.39 205.69,-19.59"/>
<polygon fill="midnightblue" stroke="midnightblue" points="223.44,-103.54 229.3,-112.37 230.23,-101.81 223.44,-103.54"/>
</g>
<!-- Node6 -->
<g id="node6" class="node">
<title>Node6</title>
<g id="a_node6"><a xlink:href="arduino_8h.html" target="_top" xlink:title=" ">
<polygon fill="white" stroke="black" points="231.5,-56.5 231.5,-75.5 287.5,-75.5 287.5,-56.5 231.5,-56.5"/>
<text text-anchor="middle" x="259.5" y="-63.5" font-family="Helvetica,sans-Serif" font-size="10.00">arduino.h</text>
</a>
</g>
</g>
<!-- Node1&#45;&gt;Node6 -->
<g id="edge5" class="edge">
<title>Node1&#45;&gt;Node6</title>
<path fill="none" stroke="midnightblue" d="M240.84,-102.98C245.59,-93.82 251.16,-83.09 254.96,-75.75"/>
<polygon fill="midnightblue" stroke="midnightblue" points="237.62,-101.59 236.12,-112.08 243.83,-104.82 237.62,-101.59"/>
</g>
<!-- Node8 -->
<g id="node8" class="node">
<title>Node8</title>
<g id="a_node8"><a xlink:href="gps_8h.html" target="_top" xlink:title=" ">
<polygon fill="white" stroke="black" points="305.5,-56.5 305.5,-75.5 345.5,-75.5 345.5,-56.5 305.5,-56.5"/>
<text text-anchor="middle" x="325.5" y="-63.5" font-family="Helvetica,sans-Serif" font-size="10.00">gps.h</text>
</a>
</g>
</g>
<!-- Node1&#45;&gt;Node8 -->
<g id="edge9" class="edge">
<title>Node1&#45;&gt;Node8</title>
<path fill="none" stroke="midnightblue" d="M255.56,-107.18C272.86,-97.24 295.65,-84.15 310.43,-75.65"/>
<polygon fill="midnightblue" stroke="midnightblue" points="253.53,-104.31 246.6,-112.32 257.02,-110.38 253.53,-104.31"/>
</g>
<!-- Node10 -->
<g id="node10" class="node">
<title>Node10</title>
<g id="a_node10"><a xlink:href="serialport_8cpp.html" target="_top" xlink:title=" ">
<polygon fill="white" stroke="black" points="363.5,-56.5 363.5,-75.5 437.5,-75.5 437.5,-56.5 363.5,-56.5"/>
<text text-anchor="middle" x="400.5" y="-63.5" font-family="Helvetica,sans-Serif" font-size="10.00">serialport.cpp</text>
</a>
</g>
</g>
<!-- Node1&#45;&gt;Node10 -->
<g id="edge12" class="edge">
<title>Node1&#45;&gt;Node10</title>
<path fill="none" stroke="midnightblue" d="M268.1,-109.3C299.95,-99.13 345.34,-84.62 373.85,-75.52"/>
<polygon fill="midnightblue" stroke="midnightblue" points="266.74,-106.07 258.28,-112.44 268.87,-112.73 266.74,-106.07"/>
</g>
<!-- Node4 -->
<g id="node4" class="node">
<title>Node4</title>
<g id="a_node4"><a xlink:href="Apexi_8cpp.html" target="_top" xlink:title=" ">
<polygon fill="white" stroke="black" points="92,-0.5 92,-19.5 151,-19.5 151,-0.5 92,-0.5"/>
<text text-anchor="middle" x="121.5" y="-7.5" font-family="Helvetica,sans-Serif" font-size="10.00">Apexi.cpp</text>
</a>
</g>
</g>
<!-- Node3&#45;&gt;Node4 -->
<g id="edge3" class="edge">
<title>Node3&#45;&gt;Node4</title>
<path fill="none" stroke="midnightblue" d="M141.65,-47.27C136.53,-38.05 130.48,-27.17 126.36,-19.75"/>
<polygon fill="midnightblue" stroke="midnightblue" points="138.63,-49.04 146.55,-56.08 144.75,-45.64 138.63,-49.04"/>
</g>
<!-- Node3&#45;&gt;Node5 -->
<g id="edge4" class="edge">
<title>Node3&#45;&gt;Node5</title>
<path fill="none" stroke="midnightblue" d="M167.18,-48.72C176.34,-39.2 187.55,-27.56 195.07,-19.75"/>
<polygon fill="midnightblue" stroke="midnightblue" points="164.5,-46.45 160.09,-56.08 169.54,-51.31 164.5,-46.45"/>
</g>
<!-- Node6&#45;&gt;Node5 -->
<g id="edge7" class="edge">
<title>Node6&#45;&gt;Node5</title>
<path fill="none" stroke="midnightblue" d="M243.17,-49.25C233.24,-39.67 220.91,-27.79 212.66,-19.83"/>
<polygon fill="midnightblue" stroke="midnightblue" points="240.87,-51.9 250.5,-56.32 245.73,-46.86 240.87,-51.9"/>
</g>
<!-- Node7 -->
<g id="node7" class="node">
<title>Node7</title>
<g id="a_node7"><a xlink:href="arduino_8cpp.html" target="_top" xlink:title=" ">
<polygon fill="white" stroke="black" points="256.5,-0.5 256.5,-19.5 322.5,-19.5 322.5,-0.5 256.5,-0.5"/>
<text text-anchor="middle" x="289.5" y="-7.5" font-family="Helvetica,sans-Serif" font-size="10.00">arduino.cpp</text>
</a>
</g>
</g>
<!-- Node6&#45;&gt;Node7 -->
<g id="edge6" class="edge">
<title>Node6&#45;&gt;Node7</title>
<path fill="none" stroke="midnightblue" d="M269.35,-47.27C274.47,-38.05 280.52,-27.17 284.64,-19.75"/>
<polygon fill="midnightblue" stroke="midnightblue" points="266.25,-45.64 264.45,-56.08 272.37,-49.04 266.25,-45.64"/>
</g>
<!-- Node8&#45;&gt;Node5 -->
<g id="edge10" class="edge">
<title>Node8&#45;&gt;Node5</title>
<path fill="none" stroke="midnightblue" d="M296.96,-52.37C274.11,-42.26 242.69,-28.35 222.74,-19.52"/>
<polygon fill="midnightblue" stroke="midnightblue" points="295.61,-55.6 306.17,-56.44 298.44,-49.2 295.61,-55.6"/>
</g>
<!-- Node9 -->
<g id="node9" class="node">
<title>Node9</title>
<g id="a_node9"><a xlink:href="gps_8cpp.html" target="_top" xlink:title=" ">
<polygon fill="white" stroke="black" points="340.5,-0.5 340.5,-19.5 390.5,-19.5 390.5,-0.5 340.5,-0.5"/>
<text text-anchor="middle" x="365.5" y="-7.5" font-family="Helvetica,sans-Serif" font-size="10.00">gps.cpp</text>
</a>
</g>
</g>
<!-- Node8&#45;&gt;Node9 -->
<g id="edge11" class="edge">
<title>Node8&#45;&gt;Node9</title>
<path fill="none" stroke="midnightblue" d="M338.2,-47.86C345.13,-38.5 353.41,-27.33 359.02,-19.75"/>
<polygon fill="midnightblue" stroke="midnightblue" points="335.25,-45.96 332.11,-56.08 340.87,-50.13 335.25,-45.96"/>
</g>
</g>
</svg>
