<?xml version="1.0" encoding="UTF-8" standalone="no"?>
<!DOCTYPE svg PUBLIC "-//W3C//DTD SVG 1.1//EN"
 "http://www.w3.org/Graphics/SVG/1.1/DTD/svg11.dtd">
<!-- Generated by graphviz version 2.49.3 (20211027.1534)
 -->
<!-- Title: wifiscanner.cpp Pages: 1 -->
<svg width="1676pt" height="196pt"
 viewBox="0.00 0.00 1675.96 196.00" xmlns="http://www.w3.org/2000/svg" xmlns:xlink="http://www.w3.org/1999/xlink">
<g id="graph0" class="graph" transform="scale(1 1) rotate(0) translate(4 192)">
<title>wifiscanner.cpp</title>
<polygon fill="white" stroke="transparent" points="-4,4 -4,-192 1671.96,-192 1671.96,4 -4,4"/>
<!-- Node1 -->
<g id="node1" class="node">
<title>Node1</title>
<g id="a_node1"><a xlink:title=" ">
<polygon fill="#bfbfbf" stroke="black" points="1151.96,-168.5 1151.96,-187.5 1234.96,-187.5 1234.96,-168.5 1151.96,-168.5"/>
<text text-anchor="middle" x="1193.46" y="-175.5" font-family="Helvetica,sans-Serif" font-size="10.00">wifiscanner.cpp</text>
</a>
</g>
</g>
<!-- Node2 -->
<g id="node2" class="node">
<title>Node2</title>
<g id="a_node2"><a xlink:href="wifiscanner_8h.html" target="_top" xlink:title=" ">
<polygon fill="white" stroke="black" points="415.96,-112.5 415.96,-131.5 488.96,-131.5 488.96,-112.5 415.96,-112.5"/>
<text text-anchor="middle" x="452.46" y="-119.5" font-family="Helvetica,sans-Serif" font-size="10.00">wifiscanner.h</text>
</a>
</g>
</g>
<!-- Node1&#45;&gt;Node2 -->
<g id="edge1" class="edge">
<title>Node1&#45;&gt;Node2</title>
<path fill="none" stroke="midnightblue" d="M1151.76,-173.96C1023.3,-164.6 634.08,-136.24 499.13,-126.4"/>
<polygon fill="midnightblue" stroke="midnightblue" points="499.34,-122.91 489.11,-125.67 498.83,-129.89 499.34,-122.91"/>
</g>
<!-- Node12 -->
<g id="node12" class="node">
<title>Node12</title>
<g id="a_node12"><a xlink:title=" ">
<polygon fill="white" stroke="#bfbfbf" points="854.46,-56.5 854.46,-75.5 914.46,-75.5 914.46,-56.5 854.46,-56.5"/>
<text text-anchor="middle" x="884.46" y="-63.5" font-family="Helvetica,sans-Serif" font-size="10.00">QProcess</text>
</a>
</g>
</g>
<!-- Node1&#45;&gt;Node12 -->
<g id="edge30" class="edge">
<title>Node1&#45;&gt;Node12</title>
<path fill="none" stroke="midnightblue" d="M1151.89,-174.64C1104.94,-170.66 1027.18,-160.07 966.46,-132 940.34,-119.93 915.15,-97.91 899.74,-82.88"/>
<polygon fill="midnightblue" stroke="midnightblue" points="902.16,-80.35 892.62,-75.74 897.21,-85.29 902.16,-80.35"/>
</g>
<!-- Node13 -->
<g id="node13" class="node">
<title>Node13</title>
<g id="a_node13"><a xlink:href="dashboard_8h.html" target="_top" xlink:title=" ">
<polygon fill="white" stroke="black" points="975.96,-112.5 975.96,-131.5 1044.96,-131.5 1044.96,-112.5 975.96,-112.5"/>
<text text-anchor="middle" x="1010.46" y="-119.5" font-family="Helvetica,sans-Serif" font-size="10.00">dashboard.h</text>
</a>
</g>
</g>
<!-- Node1&#45;&gt;Node13 -->
<g id="edge12" class="edge">
<title>Node1&#45;&gt;Node13</title>
<path fill="none" stroke="midnightblue" d="M1164.46,-168.44C1133.27,-159.24 1083.53,-144.56 1049.05,-134.39"/>
<polygon fill="midnightblue" stroke="midnightblue" points="1049.9,-130.99 1039.32,-131.52 1047.92,-137.7 1049.9,-130.99"/>
</g>
<!-- Node16 -->
<g id="node16" class="node">
<title>Node16</title>
<g id="a_node16"><a xlink:href="connect_8h.html" target="_top" xlink:title=" ">
<polygon fill="white" stroke="black" points="1062.96,-112.5 1062.96,-131.5 1121.96,-131.5 1121.96,-112.5 1062.96,-112.5"/>
<text text-anchor="middle" x="1092.46" y="-119.5" font-family="Helvetica,sans-Serif" font-size="10.00">connect.h</text>
</a>
</g>
</g>
<!-- Node1&#45;&gt;Node16 -->
<g id="edge15" class="edge">
<title>Node1&#45;&gt;Node16</title>
<path fill="none" stroke="midnightblue" d="M1177.23,-168.32C1161.11,-159.7 1136.16,-146.36 1117.49,-136.39"/>
<polygon fill="midnightblue" stroke="midnightblue" points="1119.11,-133.28 1108.65,-131.65 1115.81,-139.46 1119.11,-133.28"/>
</g>
<!-- Node22 -->
<g id="node22" class="node">
<title>Node22</title>
<g id="a_node22"><a xlink:title=" ">
<polygon fill="white" stroke="#bfbfbf" points="1140.46,-112.5 1140.46,-131.5 1180.46,-131.5 1180.46,-112.5 1140.46,-112.5"/>
<text text-anchor="middle" x="1160.46" y="-119.5" font-family="Helvetica,sans-Serif" font-size="10.00">QFile</text>
</a>
</g>
</g>
<!-- Node1&#45;&gt;Node22 -->
<g id="edge27" class="edge">
<title>Node1&#45;&gt;Node22</title>
<path fill="none" stroke="midnightblue" d="M1188.01,-168.08C1183.44,-160.61 1176.79,-149.72 1171.17,-140.52"/>
<polygon fill="midnightblue" stroke="midnightblue" points="1174.01,-138.46 1165.81,-131.75 1168.03,-142.11 1174.01,-138.46"/>
</g>
<!-- Node23 -->
<g id="node23" class="node">
<title>Node23</title>
<g id="a_node23"><a xlink:title=" ">
<polygon fill="white" stroke="#bfbfbf" points="1198.46,-112.5 1198.46,-131.5 1254.46,-131.5 1254.46,-112.5 1198.46,-112.5"/>
<text text-anchor="middle" x="1226.46" y="-119.5" font-family="Helvetica,sans-Serif" font-size="10.00">QFileInfo</text>
</a>
</g>
</g>
<!-- Node1&#45;&gt;Node23 -->
<g id="edge28" class="edge">
<title>Node1&#45;&gt;Node23</title>
<path fill="none" stroke="midnightblue" d="M1198.91,-168.08C1203.47,-160.61 1210.13,-149.72 1215.75,-140.52"/>
<polygon fill="midnightblue" stroke="midnightblue" points="1218.88,-142.11 1221.11,-131.75 1212.91,-138.46 1218.88,-142.11"/>
</g>
<!-- Node24 -->
<g id="node24" class="node">
<title>Node24</title>
<g id="a_node24"><a xlink:title=" ">
<polygon fill="white" stroke="#bfbfbf" points="1272.46,-112.5 1272.46,-131.5 1346.46,-131.5 1346.46,-112.5 1272.46,-112.5"/>
<text text-anchor="middle" x="1309.46" y="-119.5" font-family="Helvetica,sans-Serif" font-size="10.00">QTextStream</text>
</a>
</g>
</g>
<!-- Node1&#45;&gt;Node24 -->
<g id="edge29" class="edge">
<title>Node1&#45;&gt;Node24</title>
<path fill="none" stroke="midnightblue" d="M1211.84,-168.44C1230.67,-159.68 1260.19,-145.94 1281.84,-135.86"/>
<polygon fill="midnightblue" stroke="midnightblue" points="1283.58,-138.91 1291.16,-131.52 1280.62,-132.56 1283.58,-138.91"/>
</g>
<!-- Node25 -->
<g id="node25" class="node">
<title>Node25</title>
<g id="a_node25"><a xlink:title=" ">
<polygon fill="white" stroke="#bfbfbf" points="1364.96,-112.5 1364.96,-131.5 1465.96,-131.5 1465.96,-112.5 1364.96,-112.5"/>
<text text-anchor="middle" x="1415.46" y="-119.5" font-family="Helvetica,sans-Serif" font-size="10.00">QByteArrayMatcher</text>
</a>
</g>
</g>
<!-- Node1&#45;&gt;Node25 -->
<g id="edge31" class="edge">
<title>Node1&#45;&gt;Node25</title>
<path fill="none" stroke="midnightblue" d="M1228.64,-168.44C1267.04,-159.1 1328.63,-144.12 1370.51,-133.93"/>
<polygon fill="midnightblue" stroke="midnightblue" points="1371.56,-137.28 1380.45,-131.52 1369.9,-130.48 1371.56,-137.28"/>
</g>
<!-- Node26 -->
<g id="node26" class="node">
<title>Node26</title>
<g id="a_node26"><a xlink:title=" ">
<polygon fill="white" stroke="#bfbfbf" points="1484.46,-112.5 1484.46,-131.5 1550.46,-131.5 1550.46,-112.5 1484.46,-112.5"/>
<text text-anchor="middle" x="1517.46" y="-119.5" font-family="Helvetica,sans-Serif" font-size="10.00">QByteArray</text>
</a>
</g>
</g>
<!-- Node1&#45;&gt;Node26 -->
<g id="edge32" class="edge">
<title>Node1&#45;&gt;Node26</title>
<path fill="none" stroke="midnightblue" d="M1235.15,-171.05C1288.35,-163.31 1383.43,-148.94 1474.13,-132.17"/>
<polygon fill="midnightblue" stroke="midnightblue" points="1474.83,-135.6 1484.02,-130.33 1473.55,-128.72 1474.83,-135.6"/>
</g>
<!-- Node27 -->
<g id="node27" class="node">
<title>Node27</title>
<g id="a_node27"><a xlink:title=" ">
<polygon fill="white" stroke="#bfbfbf" points="1568.96,-112.5 1568.96,-131.5 1667.96,-131.5 1667.96,-112.5 1568.96,-112.5"/>
<text text-anchor="middle" x="1618.46" y="-119.5" font-family="Helvetica,sans-Serif" font-size="10.00">QNetworkInterface</text>
</a>
</g>
</g>
<!-- Node1&#45;&gt;Node27 -->
<g id="edge33" class="edge">
<title>Node1&#45;&gt;Node27</title>
<path fill="none" stroke="midnightblue" d="M1235.23,-172.26C1301.45,-164.67 1434.85,-149.01 1558.85,-132.05"/>
<polygon fill="midnightblue" stroke="midnightblue" points="1559.47,-135.5 1568.9,-130.67 1558.52,-128.56 1559.47,-135.5"/>
</g>
<!-- Node3 -->
<g id="node3" class="node">
<title>Node3</title>
<g id="a_node3"><a xlink:title=" ">
<polygon fill="white" stroke="#bfbfbf" points="449.46,-0.5 449.46,-19.5 495.46,-19.5 495.46,-0.5 449.46,-0.5"/>
<text text-anchor="middle" x="472.46" y="-7.5" font-family="Helvetica,sans-Serif" font-size="10.00">QTime</text>
</a>
</g>
</g>
<!-- Node2&#45;&gt;Node3 -->
<g id="edge2" class="edge">
<title>Node2&#45;&gt;Node3</title>
<path fill="none" stroke="midnightblue" d="M415.84,-121.33C299.65,-121.76 -49.83,-117.98 6.46,-56 35.48,-24.04 337.36,-14.13 439.15,-11.69"/>
<polygon fill="midnightblue" stroke="midnightblue" points="439.27,-15.19 449.19,-11.46 439.11,-8.19 439.27,-15.19"/>
</g>
<!-- Node4 -->
<g id="node4" class="node">
<title>Node4</title>
<g id="a_node4"><a xlink:title=" ">
<polygon fill="white" stroke="#bfbfbf" points="997.96,-0.5 997.96,-19.5 1046.96,-19.5 1046.96,-0.5 997.96,-0.5"/>
<text text-anchor="middle" x="1022.46" y="-7.5" font-family="Helvetica,sans-Serif" font-size="10.00">QTimer</text>
</a>
</g>
</g>
<!-- Node2&#45;&gt;Node4 -->
<g id="edge3" class="edge">
<title>Node2&#45;&gt;Node4</title>
<path fill="none" stroke="midnightblue" d="M489.15,-120.63C554.6,-119.04 695.17,-111.38 807.46,-76 825.66,-70.26 827.64,-62.84 845.46,-56 893.41,-37.58 951.56,-24.45 987.79,-17.3"/>
<polygon fill="midnightblue" stroke="midnightblue" points="988.7,-20.69 997.85,-15.35 987.37,-13.81 988.7,-20.69"/>
</g>
<!-- Node5 -->
<g id="node5" class="node">
<title>Node5</title>
<g id="a_node5"><a xlink:title=" ">
<polygon fill="white" stroke="#bfbfbf" points="15.96,-56.5 15.96,-75.5 56.96,-75.5 56.96,-56.5 15.96,-56.5"/>
<text text-anchor="middle" x="36.46" y="-63.5" font-family="Helvetica,sans-Serif" font-size="10.00">QList</text>
</a>
</g>
</g>
<!-- Node2&#45;&gt;Node5 -->
<g id="edge4" class="edge">
<title>Node2&#45;&gt;Node5</title>
<path fill="none" stroke="midnightblue" d="M415.81,-119.01C348.36,-114.85 200,-103.44 67.19,-76.04"/>
<polygon fill="midnightblue" stroke="midnightblue" points="67.75,-72.59 57.25,-73.96 66.31,-79.44 67.75,-72.59"/>
</g>
<!-- Node6 -->
<g id="node6" class="node">
<title>Node6</title>
<g id="a_node6"><a xlink:title=" ">
<polygon fill="white" stroke="#bfbfbf" points="74.96,-56.5 74.96,-75.5 147.96,-75.5 147.96,-56.5 74.96,-56.5"/>
<text text-anchor="middle" x="111.46" y="-63.5" font-family="Helvetica,sans-Serif" font-size="10.00">QInputDialog</text>
</a>
</g>
</g>
<!-- Node2&#45;&gt;Node6 -->
<g id="edge5" class="edge">
<title>Node2&#45;&gt;Node6</title>
<path fill="none" stroke="midnightblue" d="M415.91,-116C361.79,-108.48 256.9,-93.43 158.39,-76.28"/>
<polygon fill="midnightblue" stroke="midnightblue" points="158.72,-72.79 148.27,-74.51 157.51,-79.68 158.72,-72.79"/>
</g>
<!-- Node7 -->
<g id="node7" class="node">
<title>Node7</title>
<g id="a_node7"><a xlink:title=" ">
<polygon fill="white" stroke="#bfbfbf" points="165.96,-56.5 165.96,-75.5 248.96,-75.5 248.96,-56.5 165.96,-56.5"/>
<text text-anchor="middle" x="207.46" y="-63.5" font-family="Helvetica,sans-Serif" font-size="10.00">QStandardItem</text>
</a>
</g>
</g>
<!-- Node2&#45;&gt;Node7 -->
<g id="edge6" class="edge">
<title>Node2&#45;&gt;Node7</title>
<path fill="none" stroke="midnightblue" d="M415.78,-112.92C373.37,-103.57 303.39,-88.14 256.37,-77.78"/>
<polygon fill="midnightblue" stroke="midnightblue" points="256.93,-74.32 246.42,-75.59 255.43,-81.16 256.93,-74.32"/>
</g>
<!-- Node8 -->
<g id="node8" class="node">
<title>Node8</title>
<g id="a_node8"><a xlink:title=" ">
<polygon fill="white" stroke="#bfbfbf" points="266.96,-56.5 266.96,-75.5 375.96,-75.5 375.96,-56.5 266.96,-56.5"/>
<text text-anchor="middle" x="321.46" y="-63.5" font-family="Helvetica,sans-Serif" font-size="10.00">QStandardItemModel</text>
</a>
</g>
</g>
<!-- Node2&#45;&gt;Node8 -->
<g id="edge7" class="edge">
<title>Node2&#45;&gt;Node8</title>
<path fill="none" stroke="midnightblue" d="M431.7,-112.44C410.14,-103.56 376.2,-89.56 351.66,-79.45"/>
<polygon fill="midnightblue" stroke="midnightblue" points="352.7,-76.09 342.12,-75.52 350.03,-82.56 352.7,-76.09"/>
</g>
<!-- Node9 -->
<g id="node9" class="node">
<title>Node9</title>
<g id="a_node9"><a xlink:title=" ">
<polygon fill="white" stroke="#bfbfbf" points="393.96,-56.5 393.96,-75.5 510.96,-75.5 510.96,-56.5 393.96,-56.5"/>
<text text-anchor="middle" x="452.46" y="-63.5" font-family="Helvetica,sans-Serif" font-size="10.00">QNetworkConfiguration</text>
</a>
</g>
</g>
<!-- Node2&#45;&gt;Node9 -->
<g id="edge8" class="edge">
<title>Node2&#45;&gt;Node9</title>
<path fill="none" stroke="midnightblue" d="M452.46,-112.08C452.46,-105.01 452.46,-94.86 452.46,-85.99"/>
<polygon fill="midnightblue" stroke="midnightblue" points="455.96,-85.75 452.46,-75.75 448.96,-85.75 455.96,-85.75"/>
</g>
<!-- Node10 -->
<g id="node10" class="node">
<title>Node10</title>
<g id="a_node10"><a xlink:title=" ">
<polygon fill="white" stroke="#bfbfbf" points="528.96,-56.5 528.96,-75.5 683.96,-75.5 683.96,-56.5 528.96,-56.5"/>
<text text-anchor="middle" x="606.46" y="-63.5" font-family="Helvetica,sans-Serif" font-size="10.00">QNetworkConfigurationManager</text>
</a>
</g>
</g>
<!-- Node2&#45;&gt;Node10 -->
<g id="edge9" class="edge">
<title>Node2&#45;&gt;Node10</title>
<path fill="none" stroke="midnightblue" d="M476.86,-112.44C502.66,-103.4 543.54,-89.06 572.48,-78.92"/>
<polygon fill="midnightblue" stroke="midnightblue" points="573.89,-82.13 582.17,-75.52 571.58,-75.52 573.89,-82.13"/>
</g>
<!-- Node11 -->
<g id="node11" class="node">
<title>Node11</title>
<g id="a_node11"><a xlink:title=" ">
<polygon fill="white" stroke="#bfbfbf" points="702.46,-56.5 702.46,-75.5 798.46,-75.5 798.46,-56.5 702.46,-56.5"/>
<text text-anchor="middle" x="750.46" y="-63.5" font-family="Helvetica,sans-Serif" font-size="10.00">QNetworkSession</text>
</a>
</g>
</g>
<!-- Node2&#45;&gt;Node11 -->
<g id="edge10" class="edge">
<title>Node2&#45;&gt;Node11</title>
<path fill="none" stroke="midnightblue" d="M489,-114.38C539.98,-105.14 632.96,-88.29 693.19,-77.38"/>
<polygon fill="midnightblue" stroke="midnightblue" points="694.09,-80.77 703.3,-75.55 692.84,-73.88 694.09,-80.77"/>
</g>
<!-- Node2&#45;&gt;Node12 -->
<g id="edge11" class="edge">
<title>Node2&#45;&gt;Node12</title>
<path fill="none" stroke="midnightblue" d="M488.98,-117.82C557.93,-111.59 711.89,-96.56 840.46,-76 841.71,-75.8 842.99,-75.59 844.27,-75.37"/>
<polygon fill="midnightblue" stroke="midnightblue" points="845.02,-78.79 854.22,-73.54 843.76,-71.9 845.02,-78.79"/>
</g>
<!-- Node14 -->
<g id="node14" class="node">
<title>Node14</title>
<g id="a_node14"><a xlink:title=" ">
<polygon fill="white" stroke="#bfbfbf" points="932.46,-56.5 932.46,-75.5 998.46,-75.5 998.46,-56.5 932.46,-56.5"/>
<text text-anchor="middle" x="965.46" y="-63.5" font-family="Helvetica,sans-Serif" font-size="10.00">QStringList</text>
</a>
</g>
</g>
<!-- Node13&#45;&gt;Node14 -->
<g id="edge13" class="edge">
<title>Node13&#45;&gt;Node14</title>
<path fill="none" stroke="midnightblue" d="M1003.03,-112.08C996.61,-104.38 987.15,-93.03 979.34,-83.65"/>
<polygon fill="midnightblue" stroke="midnightblue" points="981.84,-81.19 972.75,-75.75 976.46,-85.67 981.84,-81.19"/>
</g>
<!-- Node15 -->
<g id="node15" class="node">
<title>Node15</title>
<g id="a_node15"><a xlink:title=" ">
<polygon fill="white" stroke="#bfbfbf" points="1137.96,-0.5 1137.96,-19.5 1190.96,-19.5 1190.96,-0.5 1137.96,-0.5"/>
<text text-anchor="middle" x="1164.46" y="-7.5" font-family="Helvetica,sans-Serif" font-size="10.00">QObject</text>
</a>
</g>
</g>
<!-- Node13&#45;&gt;Node15 -->
<g id="edge14" class="edge">
<title>Node13&#45;&gt;Node15</title>
<path fill="none" stroke="midnightblue" d="M1044.9,-112.5C1078.26,-103.66 1125.75,-89.29 1139.46,-76 1152.19,-63.66 1158.54,-44.14 1161.64,-29.7"/>
<polygon fill="midnightblue" stroke="midnightblue" points="1165.08,-30.32 1163.43,-19.86 1158.2,-29.07 1165.08,-30.32"/>
</g>
<!-- Node16&#45;&gt;Node4 -->
<g id="edge19" class="edge">
<title>Node16&#45;&gt;Node4</title>
<path fill="none" stroke="midnightblue" d="M1080.52,-112.22C1069.99,-103.93 1054.9,-90.61 1045.46,-76 1036.22,-61.7 1030.15,-43.24 1026.58,-29.64"/>
<polygon fill="midnightblue" stroke="midnightblue" points="1029.89,-28.47 1024.15,-19.57 1023.09,-30.11 1029.89,-28.47"/>
</g>
<!-- Node16&#45;&gt;Node12 -->
<g id="edge20" class="edge">
<title>Node16&#45;&gt;Node12</title>
<path fill="none" stroke="midnightblue" d="M1062.66,-113.26C1026.31,-103.83 964.73,-87.84 924.33,-77.35"/>
<polygon fill="midnightblue" stroke="midnightblue" points="925.1,-73.94 914.54,-74.81 923.34,-80.71 925.1,-73.94"/>
</g>
<!-- Node16&#45;&gt;Node15 -->
<g id="edge17" class="edge">
<title>Node16&#45;&gt;Node15</title>
<path fill="none" stroke="midnightblue" d="M1122.2,-113.79C1125.32,-113.14 1128.45,-112.52 1131.46,-112 1198.26,-100.36 1389.43,-126.7 1434.46,-76 1440.36,-69.35 1440.2,-62.78 1434.46,-56 1405.01,-21.24 1268.21,-13.3 1201.39,-11.51"/>
<polygon fill="midnightblue" stroke="midnightblue" points="1201.37,-8.01 1191.29,-11.27 1201.2,-15.01 1201.37,-8.01"/>
</g>
<!-- Node17 -->
<g id="node17" class="node">
<title>Node17</title>
<g id="a_node17"><a xlink:title=" ">
<polygon fill="white" stroke="#bfbfbf" points="1186.96,-56.5 1186.96,-75.5 1309.96,-75.5 1309.96,-56.5 1186.96,-56.5"/>
<text text-anchor="middle" x="1248.46" y="-63.5" font-family="Helvetica,sans-Serif" font-size="10.00">QtSerialPort/QSerialPort</text>
</a>
</g>
</g>
<!-- Node16&#45;&gt;Node17 -->
<g id="edge16" class="edge">
<title>Node16&#45;&gt;Node17</title>
<path fill="none" stroke="midnightblue" d="M1117.18,-112.44C1143.31,-103.4 1184.72,-89.06 1214.03,-78.92"/>
<polygon fill="midnightblue" stroke="midnightblue" points="1215.55,-82.1 1223.86,-75.52 1213.26,-75.48 1215.55,-82.1"/>
</g>
<!-- Node18 -->
<g id="node18" class="node">
<title>Node18</title>
<g id="a_node18"><a xlink:title=" ">
<polygon fill="white" stroke="#bfbfbf" points="1327.96,-56.5 1327.96,-75.5 1424.96,-75.5 1424.96,-56.5 1327.96,-56.5"/>
<text text-anchor="middle" x="1376.46" y="-63.5" font-family="Helvetica,sans-Serif" font-size="10.00">QModbusDataUnit</text>
</a>
</g>
</g>
<!-- Node16&#45;&gt;Node18 -->
<g id="edge18" class="edge">
<title>Node16&#45;&gt;Node18</title>
<path fill="none" stroke="midnightblue" d="M1122.24,-113.98C1125.35,-113.29 1128.46,-112.62 1131.46,-112 1194.85,-98.87 1267.87,-85.71 1317.59,-77.04"/>
<polygon fill="midnightblue" stroke="midnightblue" points="1318.27,-80.48 1327.52,-75.32 1317.07,-73.58 1318.27,-80.48"/>
</g>
<!-- Node19 -->
<g id="node19" class="node">
<title>Node19</title>
<g id="a_node19"><a xlink:href="calculations_8h.html" target="_top" xlink:title=" ">
<polygon fill="white" stroke="black" points="1054.46,-56.5 1054.46,-75.5 1130.46,-75.5 1130.46,-56.5 1054.46,-56.5"/>
<text text-anchor="middle" x="1092.46" y="-63.5" font-family="Helvetica,sans-Serif" font-size="10.00">calculations.h</text>
</a>
</g>
</g>
<!-- Node16&#45;&gt;Node19 -->
<g id="edge21" class="edge">
<title>Node16&#45;&gt;Node19</title>
<path fill="none" stroke="midnightblue" d="M1092.46,-112.08C1092.46,-105.01 1092.46,-94.86 1092.46,-85.99"/>
<polygon fill="midnightblue" stroke="midnightblue" points="1095.96,-85.75 1092.46,-75.75 1088.96,-85.75 1095.96,-85.75"/>
</g>
<!-- Node21 -->
<g id="node21" class="node">
<title>Node21</title>
<g id="a_node21"><a xlink:title=" ">
<polygon fill="white" stroke="#bfbfbf" points="1481.96,-56.5 1481.96,-75.5 1580.96,-75.5 1580.96,-56.5 1481.96,-56.5"/>
<text text-anchor="middle" x="1531.46" y="-63.5" font-family="Helvetica,sans-Serif" font-size="10.00">QFileSystemModel</text>
</a>
</g>
</g>
<!-- Node16&#45;&gt;Node21 -->
<g id="edge26" class="edge">
<title>Node16&#45;&gt;Node21</title>
<path fill="none" stroke="midnightblue" d="M1122.2,-113.75C1125.31,-113.11 1128.44,-112.51 1131.46,-112 1279.56,-87.07 1318.41,-94.46 1467.46,-76 1468.92,-75.82 1470.4,-75.63 1471.89,-75.44"/>
<polygon fill="midnightblue" stroke="midnightblue" points="1472.4,-78.91 1481.87,-74.14 1471.5,-71.96 1472.4,-78.91"/>
</g>
<!-- Node19&#45;&gt;Node3 -->
<g id="edge24" class="edge">
<title>Node19&#45;&gt;Node3</title>
<path fill="none" stroke="midnightblue" d="M1054.39,-60.79C1039.73,-59.22 1022.82,-57.46 1007.46,-56 817.7,-37.98 589.7,-20.03 505.66,-13.54"/>
<polygon fill="midnightblue" stroke="midnightblue" points="505.92,-10.05 495.68,-12.77 505.38,-17.03 505.92,-10.05"/>
</g>
<!-- Node19&#45;&gt;Node4 -->
<g id="edge25" class="edge">
<title>Node19&#45;&gt;Node4</title>
<path fill="none" stroke="midnightblue" d="M1081.21,-56.32C1070.66,-48.18 1054.66,-35.84 1042.02,-26.09"/>
<polygon fill="midnightblue" stroke="midnightblue" points="1043.97,-23.17 1033.91,-19.83 1039.69,-28.71 1043.97,-23.17"/>
</g>
<!-- Node19&#45;&gt;Node15 -->
<g id="edge23" class="edge">
<title>Node19&#45;&gt;Node15</title>
<path fill="none" stroke="midnightblue" d="M1104.03,-56.32C1114.88,-48.18 1131.34,-35.84 1144.34,-26.09"/>
<polygon fill="midnightblue" stroke="midnightblue" points="1146.78,-28.63 1152.68,-19.83 1142.58,-23.03 1146.78,-28.63"/>
</g>
<!-- Node20 -->
<g id="node20" class="node">
<title>Node20</title>
<g id="a_node20"><a xlink:title=" ">
<polygon fill="white" stroke="#bfbfbf" points="1065.46,-0.5 1065.46,-19.5 1119.46,-19.5 1119.46,-0.5 1065.46,-0.5"/>
<text text-anchor="middle" x="1092.46" y="-7.5" font-family="Helvetica,sans-Serif" font-size="10.00">QThread</text>
</a>
</g>
</g>
<!-- Node19&#45;&gt;Node20 -->
<g id="edge22" class="edge">
<title>Node19&#45;&gt;Node20</title>
<path fill="none" stroke="midnightblue" d="M1092.46,-56.08C1092.46,-49.01 1092.46,-38.86 1092.46,-29.99"/>
<polygon fill="midnightblue" stroke="midnightblue" points="1095.96,-29.75 1092.46,-19.75 1088.96,-29.75 1095.96,-29.75"/>
</g>
</g>
</svg>
